<?xml version="1.0" encoding="utf-8"?>
<!-- Generator: Adobe Illustrator 16.0.0, SVG Export Plug-In . SVG Version: 6.00 Build 0)  -->
<!DOCTYPE svg PUBLIC "-//W3C//DTD SVG 1.1//EN" "http://www.w3.org/Graphics/SVG/1.1/DTD/svg11.dtd">
<svg version="1.1" id="레이어_1" xmlns="http://www.w3.org/2000/svg" xmlns:xlink="http://www.w3.org/1999/xlink" x="0px"
	 y="0px" width="512px" height="512px" viewBox="0 0 512 512" enable-background="new 0 0 512 512" xml:space="preserve">
<path fill="#FFFFFF" stroke="#000000" stroke-miterlimit="10" d="M201.604,212.5c-1.088,0-2.113,0.1-3.033,0.307
	c-0.92,0.207-1.736,0.498-2.406,0.867c-0.67,0.369-1.195,0.804-1.537,1.29c-0.34,0.485-0.498,1.016-0.432,1.575l7.137,60.645
	c0.049,0.437,0.293,0.85,0.686,1.227c0.393,0.376,0.938,0.715,1.594,0.998c0.654,0.283,1.422,0.6,2.262,0.758
	c0.842,0.156,1.754,0.335,2.703,0.335h94.85c0.947,0,1.861-0.179,2.701-0.336c0.84-0.158,1.607-0.431,2.264-0.713
	c0.657-0.283,1.199-0.646,1.593-1.019c0.395-0.377,0.637-0.805,0.688-1.242l7.135-60.648c0.066-0.559-0.092-1.094-0.432-1.579
	c-0.342-0.486-0.867-0.927-1.537-1.295c-0.67-0.369-1.483-0.653-2.404-0.86c-0.922-0.207-1.946-0.308-3.034-0.308L201.604,212.5
	L201.604,212.5z"/>
<path fill="#FFFFFF" stroke="#000000" stroke-miterlimit="10" d="M310.5,209.5v-7.21c0-2.501-0.461-3.79-2.957-3.79H258.08
	c-5.193,0-6.008-9-10.301-9h-40.498c-5.195,0-0.357,8.88-4.834,8.88l-0.356-0.235c-2.242,0-3.591,1.998-3.591,4.145v7.21H310.5z"/>
</svg>
