<?xml version="1.0" encoding="utf-8"?>
<!-- Generator: Adobe Illustrator 16.0.0, SVG Export Plug-In . SVG Version: 6.00 Build 0)  -->
<!DOCTYPE svg PUBLIC "-//W3C//DTD SVG 1.1//EN" "http://www.w3.org/Graphics/SVG/1.1/DTD/svg11.dtd">
<svg version="1.1" id="레이어_1" xmlns="http://www.w3.org/2000/svg" xmlns:xlink="http://www.w3.org/1999/xlink" x="0px"
	 y="0px" width="231px" height="133px" viewBox="0 0 231 133" enable-background="new 0 0 231 133" xml:space="preserve">
<path fill="#3189AF" d="M190.68,129.603c3.905,0,8.402-2.897,8.63-6.311l6.652-83.047c-0.084-0.002-0.164-0.016-0.249-0.016
	c-1.563,0.015-3.253,0.029-5.058,0.045c-3.611,0.026-7.683,0.056-12.128,0.087c-8.886,0.04-19.255,0.085-30.361,0.135
	c-11.108,0.018-36.429,0.037-48.278,0.058c-11.849-0.019-27.143-0.04-38.252-0.058c-11.108-0.048-21.477-0.095-30.364-0.132
	c-3.429-0.026-6.63-0.05-9.575-0.071c-1.616,0.003-3.241,0.005-4.879,0.008c-1.024,0.024-2.067-0.03-3.082,0.025l6.541,83.196
	c0.229,3.415,3.457,6.08,7.361,6.08h75.819h3.828h38.354h2.681H190.68z"/>
<path fill="#205C77" d="M190.68,129.603c3.905,0,8.402-2.897,8.63-6.311l6.652-83.047c-0.084-0.002-0.164-0.016-0.249-0.016
	c-1.563,0.015-3.253,0.029-5.058,0.045c-3.611,0.026-7.683,0.056-12.128,0.087c-8.886,0.04-19.255,0.085-30.361,0.135
	c-11.108,0.018-36.429,0.037-48.278,0.058c-11.849-0.019-27.143-0.04-38.252-0.058c-11.108-0.048-21.477-0.095-30.364-0.132
	c-3.429-0.026-6.63-0.05-9.575-0.071c-1.616,0.003-3.241,0.005-4.879,0.008c-1.024,0.024-2.067-0.03-3.082,0.025l6.541,83.196
	c0.229,3.415,3.457,6.08,7.361,6.08h75.819h3.828h38.354h2.681H190.68z"/>
<path fill="#32687F" d="M23.706,39.958l-0.402-5.113c-0.333-4.338,3.119-6.836,7.361-6.836l0.566-0.088
	c0.392,0,0.722-0.257,0.765-0.597l0.757-6.847c0.336-2.63,2.784-4.122,5.804-4.122h57.191c2.635,0,4.858,1.713,5.199,3.998
	l0.74,4.528c0.258,1.741,1.95,3.437,3.954,3.437h11.782h41.035h41.186c4.244,0,6.984,3.022,6.735,6.727l-0.399,4.981
	c0.442,0.02,0.866,0.072,1.277,0.148l0.183-2.282l0.033-0.618l0.145-2.557c0.063-0.849,0.058-1.706-0.205-2.516
	c-0.483-1.63-1.706-3.072-3.331-3.949c-0.809-0.439-1.715-0.741-2.65-0.885c-0.927-0.156-1.9-0.089-2.881-0.091l-21.334,0.121
	c-15.596,0.094-44.662,0.072-60.26,0.109l-5.849,0.01l-2.922,0.004h-0.732l-0.387-0.002c-0.125-0.006-0.238-0.005-0.374-0.019
	c-0.584-0.049-1.089-0.184-1.587-0.394c-0.983-0.421-1.781-1.154-2.212-2.032c-0.223-0.426-0.334-0.941-0.385-1.355l-0.187-1.27
	l-0.373-2.542c-0.054-0.429-0.14-0.822-0.268-1.172c-0.143-0.371-0.346-0.718-0.586-1.046c-1-1.317-2.768-2.057-4.639-1.94
	l-5.848-0.008l-15.144-0.016L43.835,15.64l-5.848-0.027c-1.87-0.044-3.713,0.733-4.834,2.046c-0.557,0.651-0.952,1.415-1.103,2.223
	c-0.141,0.819-0.231,1.688-0.355,2.529l-0.352,2.541l-0.177,1.272l-0.048,0.326c-0.034,0.145-0.099,0.257-0.192,0.366
	c-0.186,0.211-0.487,0.34-0.791,0.336c-0.415,0.016-0.831,0.016-1.239,0.086c-0.411,0.041-0.81,0.149-1.207,0.253l-0.584,0.189
	l-0.56,0.241c-0.361,0.178-0.725,0.361-1.046,0.594c-0.339,0.211-0.636,0.472-0.928,0.731c-0.284,0.268-0.543,0.553-0.774,0.861
	c-0.221,0.309-0.444,0.622-0.6,0.962c-0.185,0.331-0.301,0.685-0.421,1.035c-0.096,0.358-0.178,0.718-0.207,1.085
	c-0.044,0.366-0.027,0.732-0.017,1.104l0.125,2.228l0.105,1.866l0.114,1.53C23.168,39.983,23.437,39.97,23.706,39.958"/>
<path fill="#3189AF" d="M26.817,39.931c1.674,0.002,3.334,0.004,4.984,0.007c2.916-0.022,6.085-0.045,9.472-0.07
	c8.888-0.039,19.255-0.083,30.363-0.133c11.109-0.019,26.403-0.038,38.253-0.059c11.849,0.021,37.169,0.041,48.278,0.06
	c11.107,0.048,21.475,0.093,30.362,0.132c4.443,0.033,8.515,0.063,12.127,0.089c1.807,0.018,3.494,0.032,5.058,0.045
	c0.091,0.002,0.177,0.018,0.267,0.022l0.398-4.98c0.248-3.707-2.491-6.728-6.735-6.728h-41.186h-41.035h-11.782
	c-2.003,0-3.695-1.697-3.954-3.436l-0.74-4.529c-0.341-2.285-2.564-3.998-5.199-3.998H38.556c-3.02,0-5.466,1.492-5.802,4.121
	l-0.758,6.848c-0.043,0.339-0.373,0.597-0.765,0.597l-0.567,0.088c-4.242,0-7.695,2.498-7.361,6.836l0.402,5.113
	c0.14-0.007,0.283-0.032,0.421-0.032C25.027,39.926,25.923,39.928,26.817,39.931"/>
<g opacity="0.82">
	<g>
		<defs>
			<rect id="SVGID_1_" x="205.086" y="129.715" width="1.155" height="1.024"/>
		</defs>
		<clipPath id="SVGID_2_">
			<use xlink:href="#SVGID_1_"  overflow="visible"/>
		</clipPath>
		<path clip-path="url(#SVGID_2_)" fill="#1D5370" d="M205.086,130.739c0.428-0.304,0.817-0.646,1.154-1.024
			C205.902,130.094,205.513,130.435,205.086,130.739"/>
	</g>
</g>
<g opacity="0.82">
	<g>
		<defs>
			<rect id="SVGID_3_" x="16.689" y="41.865" width="187.444" height="90.334"/>
		</defs>
		<clipPath id="SVGID_4_">
			<use xlink:href="#SVGID_3_"  overflow="visible"/>
		</clipPath>
		<path clip-path="url(#SVGID_4_)" fill="#1D5370" d="M199.321,132.193c-3.941-0.006-7.919-0.012-11.929-0.019
			c-32.079-0.05-83.214-0.104-117.433-0.158c-8.554,0.014-17.108,0.026-25.631,0.041c-4.26,0.007-8.513,0.014-12.754,0.02
			c-1.047-0.013-2.152,0.043-3.122-0.052c-0.992-0.107-1.953-0.398-2.811-0.85c-1.727-0.883-2.969-2.455-3.353-4.146
			c-0.192-0.867-0.186-1.788-0.269-2.71l-0.189-2.753c-0.126-1.83-0.252-3.661-0.378-5.484c-0.25-3.647-0.501-7.275-0.751-10.884
			c-0.495-7.214-0.987-14.341-1.47-21.353c-0.484-7.01-0.959-13.902-1.426-20.652c-0.232-3.375-0.463-6.711-0.689-10.008
			c-0.114-1.647-0.228-3.285-0.34-4.914c-0.044-0.821-0.157-1.618-0.015-2.392c0.129-0.777,0.417-1.53,0.847-2.213
			c0.426-0.684,0.997-1.296,1.668-1.803c-0.673,0.507-1.245,1.121-1.672,1.806c-0.429,0.683-0.718,1.435-0.847,2.212
			c-0.142,0.773-0.029,1.57,0.016,2.392c0.111,1.628,0.224,3.266,0.338,4.915c0.226,3.296,0.458,6.633,0.689,10.008
			c0.466,6.748,0.942,13.643,1.425,20.652c0.483,7.011,0.975,14.137,1.472,21.353c0.248,3.605,0.499,7.233,0.751,10.882
			c0.127,1.827,0.252,3.656,0.379,5.484l0.189,2.754c0.082,0.923,0.076,1.843,0.268,2.711c0.386,1.69,1.626,3.263,3.354,4.146
			c0.857,0.449,1.818,0.74,2.811,0.85c0.969,0.095,2.073,0.036,3.122,0.052c4.241-0.007,8.493-0.013,12.754-0.021
			c8.521-0.014,17.075-0.027,25.63-0.039c34.219,0.052,85.354,0.104,117.435,0.156c4.009,0.007,7.986,0.012,11.929,0.02
			c0.982,0.006,1.958,0.019,2.856-0.185c0.686-0.145,1.347-0.377,1.957-0.687c-0.609,0.309-1.269,0.539-1.954,0.684
			C201.279,132.214,200.306,132.199,199.321,132.193"/>
	</g>
</g>
<path fill="#32687F" d="M30.275,123.522l-6.541-83.197c-0.272,0.015-0.543,0.036-0.809,0.071l6.183,83.151
	c0.237,3.557,3.6,6.334,7.667,6.334l76.68-0.279h-75.82C33.732,129.603,30.505,126.937,30.275,123.522"/>
<path fill="#1D5370" d="M30.275,123.522l-6.541-83.197c-0.272,0.015-0.543,0.036-0.809,0.071l6.183,83.151
	c0.237,3.557,3.6,6.334,7.667,6.334l76.68-0.279h-75.82C33.732,129.603,30.505,126.937,30.275,123.522"/>
<path fill="#32687F" d="M199.311,123.292c-0.229,3.413-4.726,6.311-8.631,6.311h-32.36h-2.682l37.314,0.32
	c4.068,0,7.431-2.777,7.668-6.334l6.622-83.215c-0.413-0.07-0.838-0.117-1.279-0.129L199.311,123.292z"/>
<path fill="#1D5370" d="M199.311,123.292c-0.229,3.413-4.726,6.311-8.631,6.311h-32.36h-2.682l37.314,0.32
	c4.068,0,7.431-2.777,7.668-6.334l6.622-83.215c-0.413-0.07-0.838-0.117-1.279-0.129L199.311,123.292z"/>
<polygon fill="#71B2CD" points="22.93,41.077 22.892,40.4 22.876,40.401 "/>
<g opacity="0.82">
	<g>
		<defs>
			<rect id="SVGID_5_" x="22.877" y="40.399" width="0.053" height="0.678"/>
		</defs>
		<clipPath id="SVGID_6_">
			<use xlink:href="#SVGID_5_"  overflow="visible"/>
		</clipPath>
		<polygon clip-path="url(#SVGID_6_)" fill="#1D5370" points="22.93,41.077 22.892,40.4 22.876,40.401 		"/>
	</g>
</g>
<path fill="#19475B" d="M212.531,43.984c-0.537-1.002-1.368-1.852-2.346-2.497c-0.103-0.063-0.202-0.128-0.311-0.19
	c-0.119-0.069-0.244-0.131-0.369-0.195c-0.159-0.082-0.322-0.16-0.495-0.232c-0.1-0.042-0.202-0.081-0.304-0.119
	c-0.426-0.156-0.885-0.272-1.365-0.36c-0.014-0.003-0.027-0.006-0.043-0.008c-0.019-0.003-0.039-0.008-0.058-0.012l-6.62,83.216
	c-0.239,3.558-3.6,6.334-7.669,6.334l-37.314-0.321h-38.353h-3.83l-76.68,0.28c-4.068,0-7.43-2.777-7.667-6.334l-6.183-83.151
	c-0.012,0.001-0.023,0.002-0.034,0.003l0.038,0.679l-0.053-0.677c-0.454,0.061-0.898,0.155-1.33,0.304
	c-0.828,0.256-1.599,0.654-2.27,1.16c-0.671,0.505-1.242,1.118-1.668,1.803c-0.43,0.683-0.718,1.435-0.847,2.212
	c-0.143,0.774-0.03,1.57,0.015,2.393c0.112,1.628,0.225,3.266,0.34,4.913c0.226,3.297,0.457,6.635,0.689,10.008
	c0.466,6.75,0.942,13.642,1.425,20.652c0.484,7.012,0.976,14.139,1.472,21.353c0.25,3.607,0.5,7.237,0.75,10.885
	c0.126,1.823,0.252,3.652,0.378,5.484l0.189,2.752c0.083,0.923,0.077,1.843,0.269,2.709c0.385,1.693,1.626,3.264,3.354,4.148
	c0.856,0.45,1.818,0.74,2.81,0.849c0.97,0.095,2.075,0.039,3.122,0.052c4.241-0.006,8.494-0.013,12.754-0.02
	c8.522-0.016,17.077-0.027,25.631-0.04c34.219,0.054,85.354,0.107,117.433,0.156c4.01,0.007,7.987,0.014,11.929,0.02
	c0.984,0.007,1.958,0.02,2.857-0.186c0.686-0.144,1.345-0.374,1.953-0.684c0.203-0.103,0.4-0.216,0.591-0.334
	c0.127-0.078,0.244-0.166,0.365-0.251c0.426-0.305,0.815-0.646,1.153-1.024c0.717-0.807,1.216-1.761,1.424-2.762
	c0.158-0.791,0.164-1.655,0.235-2.489c0.059-0.838,0.113-1.675,0.175-2.509c0.114-1.668,0.229-3.328,0.342-4.975
	c0.229-3.299,0.452-6.555,0.675-9.769c0.888-12.852,1.724-25.001,2.499-36.22c0.387-5.608,0.758-10.983,1.11-16.094
	c0.176-2.557,0.347-5.047,0.516-7.468C213.34,46.22,213.09,45.043,212.531,43.984"/>
<path fill="#27517B" d="M209.155,40.754c0.224,0.101,0.444,0.202,0.646,0.318C209.59,40.959,209.377,40.85,209.155,40.754"/>
<path fill="#27517B" d="M22.898,40.019c-0.009,0.001-0.019,0.001-0.028,0.002l0.005,0.086c0.01-0.002,0.018-0.005,0.029-0.006
	L22.898,40.019z"/>
<path fill="#27517B" d="M208.343,40.447c0.051,0.017,0.103,0.034,0.153,0.052C208.445,40.481,208.394,40.464,208.343,40.447"/>
<path fill="#27517B" d="M23.706,39.958c-0.269,0.013-0.537,0.026-0.808,0.061l0.007,0.083c0.262-0.037,0.535-0.052,0.807-0.068
	L23.706,39.958z"/>
<path fill="#27517B" d="M24.089,40.002c1.564-0.014,3.254-0.027,5.059-0.045c0.857-0.006,1.746-0.013,2.653-0.019
	c-1.649-0.003-3.311-0.005-4.984-0.007c-0.894-0.003-1.791-0.005-2.69-0.006c-0.138,0-0.281,0.025-0.422,0.032l0.006,0.075
	C23.839,40.026,23.96,40.004,24.089,40.002"/>
<path fill="#27517B" d="M22.875,40.107l-0.005-0.086c-0.008,0.001-0.016,0.001-0.023,0.002l0.008,0.089
	C22.862,40.11,22.868,40.108,22.875,40.107"/>
<path fill="#27517B" d="M213.331,46.344c0.007,0.092,0.015,0.186,0.013,0.262C213.342,46.518,213.337,46.431,213.331,46.344"/>
<path fill="#27517B" d="M22.919,40.306c-0.011,0.001-0.021,0.004-0.033,0.006l0.005,0.086c0.011-0.001,0.022-0.002,0.034-0.004
	L22.919,40.306z"/>
<path fill="#27517B" d="M209.733,41.21c-0.062-0.034-0.134-0.059-0.196-0.092c0.105,0.054,0.213,0.108,0.317,0.167
	C209.812,41.261,209.776,41.235,209.733,41.21"/>
<path fill="#27517B" d="M208.722,40.756c0.092,0.035,0.186,0.07,0.277,0.108C208.907,40.827,208.815,40.792,208.722,40.756"/>
<path fill="#27517B" d="M213.249,45.699c0.01,0.063,0.021,0.126,0.03,0.185C213.27,45.821,213.26,45.761,213.249,45.699"/>
<path fill="#27517B" d="M212.711,43.908c-0.581-1.079-1.495-1.992-2.569-2.658c-0.1-0.06-0.207-0.106-0.31-0.161
	c2.23,1.263,3.085,3.079,3.354,4.242c0.034,0.138,0.04,0.243,0.063,0.368c0.011,0.063,0.02,0.123,0.03,0.185
	c0.011,0.077,0.037,0.173,0.04,0.243c0.012,0.085,0.005,0.142,0.012,0.217c0.007,0.087,0.011,0.174,0.014,0.262
	c-0.001,0.032,0.008,0.079,0.006,0.108c-0.009,0.313-0.01,0.475-0.01,0.475v-0.002c-0.001-0.007-0.003-0.166-0.003-0.473
	c0.006-0.158-0.013-0.352-0.045-0.582c-0.018-0.232-0.069-0.496-0.152-0.791c-0.269-1.062-1.067-2.656-2.93-3.838
	c0.967,0.643,1.793,1.487,2.323,2.48c0.558,1.061,0.81,2.236,0.686,3.447c-0.168,2.421-0.339,4.91-0.515,7.467
	c-0.353,5.111-0.725,10.486-1.11,16.094c-0.774,11.216-1.612,23.368-2.499,36.22c-0.224,3.214-0.446,6.47-0.675,9.768
	c-0.113,1.647-0.229,3.307-0.343,4.976c-0.061,0.834-0.117,1.669-0.174,2.508c-0.071,0.835-0.078,1.698-0.236,2.489
	c-0.208,1.003-0.708,1.957-1.428,2.764c-0.337,0.378-0.727,0.72-1.154,1.024c-0.119,0.085-0.234,0.172-0.36,0.249
	c-0.192,0.12-0.389,0.233-0.593,0.336c-0.609,0.31-1.271,0.543-1.958,0.688c-0.898,0.203-1.872,0.191-2.855,0.186
	c-3.942-0.01-7.92-0.016-11.929-0.021c-32.082-0.051-83.215-0.104-117.434-0.157c-8.555,0.014-17.109,0.025-25.631,0.04
	c-4.26,0.007-8.512,0.014-12.754,0.021c-1.049-0.017-2.153,0.043-3.122-0.053c-0.992-0.109-1.954-0.401-2.811-0.85
	c-1.727-0.885-2.967-2.455-3.353-4.146c-0.192-0.867-0.187-1.789-0.269-2.71l-0.189-2.754c-0.126-1.829-0.252-3.66-0.379-5.484
	c-0.252-3.648-0.502-7.277-0.751-10.884c-0.496-7.215-0.988-14.341-1.472-21.353c-0.482-7.01-0.958-13.903-1.424-20.651
	c-0.232-3.375-0.463-6.711-0.689-10.009c-0.114-1.648-0.228-3.287-0.339-4.914c-0.044-0.821-0.157-1.617-0.015-2.393
	c0.128-0.777,0.418-1.528,0.847-2.211c0.427-0.686,0.999-1.299,1.671-1.805c0.672-0.506,1.444-0.905,2.274-1.162
	c0.429-0.149,0.874-0.242,1.326-0.303l-0.006-0.085c-1.058,0.142-2.014,0.455-2.806,0.895c-2.217,1.197-3.115,2.978-3.405,4.13
	c-0.082,0.296-0.135,0.559-0.152,0.791c-0.034,0.231-0.052,0.424-0.045,0.582c0,0.31-0.001,0.469-0.001,0.474v0.002
	c0,0-0.003-0.162-0.009-0.476c-0.001-0.024,0.005-0.063,0.005-0.088c0.002-0.101,0.009-0.199,0.016-0.298
	c0.006-0.071,0.001-0.121,0.01-0.199c0.003-0.062,0.028-0.145,0.036-0.212c0.014-0.085,0.027-0.17,0.043-0.253
	c0.021-0.113,0.024-0.206,0.056-0.33c0.267-1.164,1.124-2.984,3.358-4.247c0.794-0.465,1.786-0.81,2.878-0.975l-0.007-0.089
	c-0.494,0.067-0.984,0.169-1.45,0.317c-1.762,0.541-3.282,1.681-4.196,3.132c-0.46,0.724-0.771,1.525-0.91,2.351
	c-0.155,0.834-0.039,1.671,0.001,2.476c0.103,1.629,0.21,3.267,0.317,4.915c0.213,3.297,0.429,6.636,0.65,10.01
	c0.435,6.75,0.884,13.646,1.337,20.657c0.455,7.012,0.916,14.141,1.384,21.356c0.234,3.607,0.468,7.239,0.706,10.887
	c0.117,1.823,0.237,3.653,0.356,5.485l0.178,2.753c0.079,0.911,0.064,1.841,0.267,2.79c0.428,1.925,1.799,3.65,3.721,4.652
	c0.953,0.506,2.027,0.835,3.137,0.959c1.137,0.109,2.156,0.048,3.226,0.067c4.241,0.006,8.494,0.015,12.754,0.021
	c8.522,0.014,17.077,0.026,25.631,0.04c34.218-0.055,85.351-0.107,117.433-0.158c4.01-0.007,7.987-0.012,11.929-0.018
	c0.977,0,1.989,0.018,2.997-0.209c0.987-0.21,1.923-0.592,2.742-1.11c1.645-1.033,2.795-2.628,3.147-4.354
	c0.171-0.876,0.166-1.708,0.233-2.549c0.057-0.838,0.109-1.676,0.163-2.51c0.108-1.669,0.216-3.328,0.323-4.976
	c0.215-3.299,0.425-6.557,0.634-9.769c0.832-12.854,1.619-25.009,2.347-36.229c0.362-5.608,0.712-10.986,1.042-16.099
	c0.168-2.557,0.331-5.047,0.486-7.468C213.553,46.229,213.292,44.979,212.711,43.908"/>
<path fill="#27517B" d="M23.735,40.324l-0.007-0.073c-0.272,0.012-0.547,0.022-0.809,0.055l0.006,0.089
	C23.192,40.361,23.463,40.338,23.735,40.324"/>
<path fill="#27517B" d="M26.819,40.299c1.543-0.003,3.073-0.005,4.596-0.008c-0.771-0.006-1.537-0.012-2.27-0.017
	c-1.804-0.015-3.495-0.03-5.057-0.045c-0.123,0-0.239,0.018-0.359,0.022l0.005,0.074C24.75,40.27,25.795,40.323,26.819,40.299"/>
<path fill="#27517B" d="M22.887,40.312c-0.006,0.001-0.011,0.002-0.017,0.003l0.006,0.085c0.005-0.001,0.011-0.001,0.016-0.002
	L22.887,40.312z"/>
<path fill="#27517B" d="M22.892,40.398L22.892,40.398c0.011,0,0.022-0.001,0.034-0.002v-0.002
	C22.915,40.396,22.903,40.397,22.892,40.398"/>
<path fill="#27517B" d="M204.133,131.324c0.203-0.104,0.402-0.216,0.592-0.335c0.126-0.078,0.243-0.166,0.361-0.25
	c-0.119,0.085-0.236,0.173-0.363,0.251C204.532,131.108,204.335,131.222,204.133,131.324"/>
<path fill="#27517B" d="M212.531,43.984c0.559,1.059,0.809,2.236,0.686,3.446c-0.169,2.421-0.34,4.911-0.516,7.468
	c-0.353,5.111-0.724,10.486-1.11,16.094c-0.775,11.219-1.611,23.368-2.499,36.22c-0.223,3.214-0.445,6.47-0.675,9.769
	c-0.113,1.646-0.228,3.307-0.342,4.975c-0.062,0.834-0.116,1.671-0.175,2.509c-0.071,0.834-0.077,1.698-0.235,2.489
	c-0.208,1.001-0.707,1.955-1.424,2.762c0.719-0.808,1.218-1.761,1.427-2.764c0.158-0.791,0.165-1.654,0.236-2.49
	c0.058-0.839,0.113-1.673,0.173-2.507c0.114-1.669,0.231-3.328,0.343-4.976c0.23-3.298,0.452-6.554,0.675-9.768
	c0.889-12.852,1.725-25.004,2.5-36.22c0.386-5.607,0.758-10.983,1.109-16.094c0.176-2.557,0.347-5.046,0.516-7.467
	c0.124-1.21-0.128-2.387-0.687-3.446c-0.53-0.994-1.354-1.837-2.322-2.48c-0.008-0.005-0.018-0.011-0.025-0.016
	C211.163,42.132,211.994,42.982,212.531,43.984"/>
<path fill="#27517B" d="M209.012,40.871c-0.005-0.002-0.009-0.004-0.013-0.006c-0.092-0.038-0.186-0.073-0.277-0.108
	c-0.004-0.002-0.01-0.003-0.015-0.004C208.809,40.791,208.911,40.829,209.012,40.871"/>
<path fill="#27517B" d="M209.875,41.298c-0.007-0.004-0.013-0.009-0.021-0.013c-0.104-0.06-0.211-0.113-0.318-0.167
	c-0.01-0.005-0.02-0.009-0.03-0.015C209.631,41.167,209.756,41.229,209.875,41.298"/>
<path fill="#27517B" d="M22.877,40.401L22.877,40.401c-0.453,0.06-0.896,0.153-1.326,0.302c-0.829,0.256-1.602,0.655-2.274,1.162
	c0.671-0.505,1.442-0.903,2.27-1.16C21.979,40.555,22.423,40.462,22.877,40.401"/>
<path fill="#27517B" d="M23.735,40.324c-0.272,0.014-0.543,0.037-0.809,0.071v0.001C23.192,40.361,23.463,40.339,23.735,40.324
	L23.735,40.324z"/>
<path fill="#27517B" d="M26.819,40.299c-1.024,0.024-2.07-0.029-3.085,0.026v0.001c1.015-0.055,2.059,0,3.083-0.025
	c1.638-0.002,3.262-0.005,4.878-0.008c-0.095-0.001-0.185-0.001-0.281-0.002C29.892,40.294,28.363,40.296,26.819,40.299"/>
<path fill="#27517B" d="M22.892,40.399L22.892,40.399c-0.005,0-0.011,0-0.015,0V40.4C22.881,40.4,22.887,40.4,22.892,40.399"/>
<path fill="#71B2CD" d="M208.496,40.499c0.224,0.075,0.443,0.162,0.659,0.255C208.945,40.66,208.724,40.578,208.496,40.499"/>
<path fill="#71B2CD" d="M209.826,41.085c-0.008-0.004-0.017-0.007-0.023-0.012c0.009,0.006,0.02,0.011,0.029,0.016
	C209.83,41.088,209.828,41.086,209.826,41.085"/>
<path fill="#71B2CD" d="M206.53,40.076c0.243,0.023,0.484,0.065,0.726,0.109v-0.012c-0.41-0.075-0.834-0.128-1.275-0.148
	l-0.004,0.04C206.163,40.071,206.343,40.066,206.53,40.076"/>
<path fill="#71B2CD" d="M206.224,40.22c-0.086-0.005-0.173-0.004-0.259-0.007C206.051,40.216,206.138,40.215,206.224,40.22"/>
<path fill="#71B2CD" d="M202.807,40.184L202.807,40.184c1.035,0.016,2.099-0.006,3.158,0.03
	C204.904,40.177,203.841,40.2,202.807,40.184"/>
<polygon fill="#71B2CD" points="158.878,40.114 158.873,40.114 158.876,40.114 "/>
<path fill="#71B2CD" d="M160.148,40.113c-0.186,0-0.302,0-0.302,0s-0.334,0-0.968,0.001h0.964
	C159.843,40.114,159.96,40.113,160.148,40.113"/>
<path fill="#71B2CD" d="M209.012,40.871c0.172,0.072,0.334,0.151,0.494,0.232C209.344,41.021,209.181,40.943,209.012,40.871"/>
<path fill="#71B2CD" d="M210.037,41.382c-0.053-0.03-0.108-0.054-0.161-0.084c0.107,0.062,0.207,0.126,0.31,0.19
	C210.135,41.455,210.089,41.415,210.037,41.382"/>
<path fill="#71B2CD" d="M207.241,40.374c0.02,0.003,0.039,0.007,0.058,0.01l0.004-0.037c-0.021-0.004-0.04-0.005-0.059-0.009
	L207.241,40.374z"/>
<path fill="#71B2CD" d="M207.343,40.392l0.003-0.039c-0.016-0.003-0.029-0.004-0.043-0.006l-0.002,0.037
	C207.314,40.387,207.327,40.39,207.343,40.392"/>
<path fill="#71B2CD" d="M213.34,47.187v0.003c0,0,0.001-0.162,0.012-0.476c0.001-0.029-0.008-0.076-0.008-0.108
	C213.352,46.799,213.354,46.991,213.34,47.187z"/>
<path fill="#71B2CD" d="M213.32,46.127c-0.005-0.07-0.031-0.166-0.041-0.243c0.022,0.151,0.041,0.305,0.052,0.46
	C213.325,46.269,213.33,46.212,213.32,46.127"/>
<path fill="#71B2CD" d="M159.844,40.114h0.611c-0.119,0-0.225,0-0.307-0.001C159.96,40.114,159.843,40.114,159.844,40.114
	L159.844,40.114z"/>
<path fill="#71B2CD" d="M208.707,40.752c0.004,0.002,0.01,0.003,0.015,0.004c-0.447-0.17-0.906-0.311-1.376-0.404
	C207.811,40.446,208.264,40.583,208.707,40.752"/>
<path fill="#71B2CD" d="M209.506,41.104c0.011,0.005,0.021,0.009,0.031,0.014c-0.178-0.089-0.355-0.176-0.538-0.253
	c0.004,0.002,0.008,0.004,0.012,0.006C209.18,40.942,209.344,41.021,209.506,41.104"/>
<path fill="#71B2CD" d="M210.037,41.382c0.052,0.032,0.098,0.072,0.148,0.105c0.008,0.005,0.018,0.01,0.025,0.016
	c-0.059-0.039-0.11-0.084-0.17-0.122c-0.061-0.035-0.126-0.063-0.187-0.097c0.008,0.004,0.014,0.008,0.021,0.013
	C209.929,41.328,209.984,41.352,210.037,41.382"/>
<path fill="#71B2CD" d="M207.244,40.337c0.019,0.003,0.039,0.005,0.058,0.009v-0.001C207.283,40.342,207.263,40.34,207.244,40.337z"
	/>
<path fill="#71B2CD" d="M207.244,40.337L207.244,40.337c-0.241-0.045-0.484-0.088-0.728-0.112c-0.097-0.006-0.195-0.002-0.293-0.007
	c0.097,0.005,0.194,0.001,0.291,0.007C206.759,40.249,207.002,40.292,207.244,40.337"/>
<path fill="#71B2CD" d="M207.343,40.392c0.48,0.087,0.938,0.205,1.363,0.361c-0.442-0.168-0.896-0.307-1.36-0.4L207.343,40.392z"/>
<path fill="#71B2CD" d="M213.331,46.344c-0.012-0.155-0.028-0.308-0.052-0.46c-0.009-0.059-0.021-0.123-0.03-0.185
	c-0.022-0.124-0.028-0.231-0.063-0.369c-0.27-1.162-1.124-2.978-3.354-4.242c-0.01-0.005-0.021-0.01-0.03-0.015
	c-0.201-0.117-0.423-0.218-0.646-0.318c-0.216-0.094-0.436-0.18-0.659-0.255c-0.051-0.018-0.103-0.035-0.153-0.052
	c-0.278-0.088-0.563-0.164-0.85-0.225c-0.011-0.002-0.022-0.004-0.033-0.006c-0.034-0.007-0.068-0.014-0.103-0.022l0.225-2.914
	l0.199-2.554c0.08-0.853,0.092-1.728-0.16-2.576c-0.458-1.686-1.689-3.202-3.365-4.145c-0.838-0.473-1.775-0.808-2.756-0.974
	c-0.99-0.181-1.987-0.126-2.95-0.146l-21.335-0.12c-15.598-0.094-44.661-0.071-60.262-0.11l-5.847-0.008l-2.922-0.005h-0.732
	l-0.342-0.003c-0.119-0.006-0.251-0.007-0.359-0.017c-0.385-0.036-0.833-0.141-1.21-0.305c-0.772-0.329-1.405-0.903-1.746-1.595
	c-0.179-0.358-0.256-0.688-0.315-1.123l-0.191-1.268l-0.384-2.538c-0.056-0.419-0.143-0.872-0.314-1.333
	c-0.17-0.44-0.412-0.856-0.703-1.245c-0.596-0.769-1.424-1.393-2.382-1.792c-0.478-0.2-0.99-0.333-1.51-0.421
	c-0.518-0.082-1.07-0.082-1.539-0.079l-5.847,0.008l-15.14,0.019l-31.629,0.083l-5.848,0.026c-2.044-0.029-4.079,0.852-5.282,2.298
	c-0.601,0.719-1.021,1.559-1.174,2.441c-0.141,0.871-0.218,1.704-0.327,2.558l-0.297,2.546l-0.149,1.276l-0.04,0.31
	c-0.014,0.064-0.054,0.147-0.107,0.208c-0.111,0.13-0.29,0.21-0.478,0.212c-0.435,0.024-0.868,0.033-1.295,0.111
	c-0.431,0.051-0.847,0.17-1.259,0.287l-0.606,0.209l-0.579,0.26c-0.373,0.192-0.743,0.389-1.075,0.635
	c-0.347,0.227-0.646,0.5-0.944,0.776c-0.29,0.282-0.55,0.58-0.781,0.9c-0.222,0.322-0.444,0.65-0.597,1.002
	c-0.182,0.342-0.295,0.708-0.41,1.069c-0.091,0.369-0.166,0.739-0.188,1.114c-0.037,0.374-0.011,0.756,0.009,1.125l0.173,2.226
	l0.265,3.396c0.008-0.001,0.015-0.001,0.023-0.002l-0.086-1.532l-0.105-1.866l-0.125-2.228c-0.011-0.371-0.027-0.738,0.017-1.104
	c0.028-0.367,0.11-0.728,0.207-1.084c0.121-0.351,0.236-0.705,0.42-1.035c0.156-0.34,0.378-0.653,0.6-0.962
	c0.231-0.308,0.491-0.593,0.774-0.862c0.292-0.259,0.589-0.519,0.927-0.731c0.322-0.232,0.686-0.415,1.047-0.593l0.56-0.241
	l0.583-0.189c0.397-0.104,0.796-0.213,1.207-0.253c0.41-0.07,0.826-0.07,1.239-0.086c0.304,0.003,0.605-0.125,0.791-0.336
	c0.093-0.108,0.159-0.221,0.193-0.366l0.047-0.326l0.178-1.272l0.351-2.541c0.125-0.842,0.214-1.71,0.355-2.529
	c0.15-0.808,0.546-1.572,1.103-2.223c1.12-1.313,2.963-2.09,4.833-2.046l5.849,0.027l31.627,0.083l15.145,0.016l5.848,0.008
	c1.871-0.117,3.638,0.623,4.638,1.94c0.241,0.328,0.443,0.675,0.585,1.046c0.129,0.35,0.214,0.743,0.269,1.172l0.373,2.542
	l0.186,1.27c0.052,0.414,0.163,0.93,0.385,1.355c0.432,0.878,1.229,1.611,2.213,2.032c0.497,0.21,1.001,0.345,1.587,0.394
	c0.135,0.014,0.248,0.013,0.373,0.019l0.388,0.002h0.731l2.923-0.004l5.847-0.01c15.599-0.037,44.666-0.015,60.26-0.109
	l21.336-0.121c0.98,0.002,1.953-0.064,2.881,0.091c0.936,0.145,1.841,0.446,2.649,0.886c1.625,0.875,2.848,2.317,3.33,3.948
	c0.264,0.81,0.27,1.667,0.206,2.516l-0.144,2.557l-0.036,0.618l-0.181,2.282l-0.001,0.011c-0.241-0.043-0.482-0.086-0.726-0.108
	c-0.187-0.011-0.368-0.005-0.554-0.011l0.003-0.041c-0.089-0.004-0.175-0.02-0.266-0.021c-1.563-0.013-3.251-0.028-5.058-0.045
	c-3.611-0.027-7.683-0.057-12.128-0.088c-8.886-0.04-19.254-0.084-30.361-0.133c-11.109-0.02-36.429-0.039-48.278-0.061
	c-11.849,0.021-27.143,0.04-38.252,0.06c-11.109,0.049-21.475,0.094-30.363,0.134c-3.388,0.024-6.557,0.047-9.473,0.068
	c-0.907,0.008-1.796,0.014-2.653,0.02c-1.805,0.017-3.495,0.032-5.059,0.045c-0.128,0.003-0.25,0.023-0.377,0.031
	c-0.273,0.015-0.545,0.029-0.807,0.067c-0.011,0.001-0.02,0.004-0.029,0.005c-0.009,0.002-0.015,0.003-0.021,0.006
	c-1.092,0.164-2.083,0.507-2.878,0.974c-2.235,1.264-3.091,3.083-3.358,4.246c-0.031,0.125-0.034,0.218-0.056,0.331
	c-0.017,0.086-0.033,0.174-0.043,0.253c-0.008,0.066-0.033,0.149-0.036,0.212c-0.009,0.079-0.004,0.128-0.01,0.198
	c-0.008,0.106-0.018,0.212-0.016,0.299c0,0.025-0.006,0.064-0.005,0.087c0.006,0.315,0.009,0.477,0.009,0.477v-0.002
	c0-0.006,0.001-0.165,0.001-0.475c-0.006-0.156,0.011-0.351,0.045-0.58c0.017-0.232,0.071-0.497,0.152-0.792
	c0.29-1.152,1.188-2.934,3.405-4.13c0.792-0.44,1.748-0.752,2.806-0.895c0.005-0.001,0.01-0.003,0.017-0.003
	c0.011-0.002,0.021-0.005,0.033-0.006c0.262-0.034,0.535-0.044,0.809-0.055c0.121-0.004,0.236-0.022,0.359-0.022
	c1.562,0.015,3.253,0.03,5.057,0.045c0.733,0.005,1.499,0.011,2.27,0.017c0.096,0.001,0.185,0.001,0.281,0.002
	c2.945,0.021,6.147,0.045,9.576,0.07c8.887,0.038,19.255,0.084,30.364,0.132c11.109,0.019,26.403,0.039,38.252,0.059
	c11.851-0.021,37.169-0.04,48.277-0.059c11.106-0.048,21.477-0.094,30.362-0.133c4.445-0.032,8.518-0.062,12.128-0.088
	c1.804-0.016,3.494-0.03,5.058-0.045c0.085,0,0.165,0.014,0.25,0.016c0.441,0.012,0.866,0.059,1.279,0.129l0.002-0.036
	c-0.242-0.045-0.485-0.087-0.729-0.112c-0.098-0.006-0.193-0.002-0.29-0.007c-0.086-0.003-0.173-0.003-0.259-0.005
	c-1.059-0.037-2.118-0.014-3.15-0.03c1.031,0.016,2.092-0.006,3.15,0.03c0.086,0.002,0.173,0.002,0.259,0.005
	c0.097,0.005,0.194,0.001,0.292,0.007c0.244,0.024,0.486,0.066,0.728,0.112c0.019,0.003,0.038,0.005,0.058,0.009
	c0.015,0.002,0.029,0.003,0.044,0.006c0.47,0.093,0.929,0.234,1.376,0.405c0.094,0.033,0.186,0.069,0.276,0.107
	c0.185,0.078,0.361,0.164,0.538,0.253c0.064,0.033,0.136,0.058,0.198,0.092c0.043,0.024,0.077,0.05,0.119,0.075
	c0.062,0.035,0.127,0.061,0.188,0.097c0.06,0.037,0.111,0.083,0.17,0.122c1.862,1.182,2.66,2.775,2.93,3.838
	c0.083,0.293,0.135,0.559,0.152,0.791c0.032,0.228,0.051,0.424,0.045,0.58c0,0.309,0.002,0.466,0.003,0.474
	c0.013-0.196,0.01-0.389,0.004-0.581C213.346,46.529,213.338,46.436,213.331,46.344 M202.805,40.184
	c-2.435-0.004-4.784-0.008-7.037-0.011c-4.511-0.007-8.656-0.013-12.398-0.02c-14.971-0.024-23.526-0.038-23.526-0.038h-0.964
	c0.634-0.001,0.968-0.001,0.968-0.001s0.116,0,0.302,0c0.084,0.001,0.188,0.001,0.306,0.001c2.162,0.004,10.22,0.017,22.919,0.037
	c3.74,0.007,7.887,0.013,12.398,0.02c2.254,0.004,4.603,0.007,7.035,0.012H202.805z"/>
<path fill="#71B2CD" d="M207.302,40.346c0.015,0.003,0.028,0.004,0.043,0.006C207.33,40.349,207.316,40.348,207.302,40.346z"/>
</svg>
