<?xml version="1.0" encoding="utf-8"?>
<!-- Generator: Adobe Illustrator 16.0.0, SVG Export Plug-In . SVG Version: 6.00 Build 0)  -->
<!DOCTYPE svg PUBLIC "-//W3C//DTD SVG 1.1//EN" "http://www.w3.org/Graphics/SVG/1.1/DTD/svg11.dtd">
<svg version="1.1" id="레이어_1" xmlns="http://www.w3.org/2000/svg" xmlns:xlink="http://www.w3.org/1999/xlink" x="0px"
	 y="0px" width="231px" height="133px" viewBox="0 0 231 133" enable-background="new 0 0 231 133" xml:space="preserve">
<g opacity="0.82">
	<g>
		<g>
			<g>
				<defs>
					<rect id="SVGID_1_" x="205.086" y="297.215" width="1.155" height="1.023"/>
				</defs>
				<clipPath id="SVGID_2_">
					<use xlink:href="#SVGID_1_"  overflow="visible"/>
				</clipPath>
				<path clip-path="url(#SVGID_2_)" fill="#1D5370" d="M205.086,298.239c0.428-0.304,0.816-0.646,1.154-1.024
					C205.902,297.594,205.514,297.936,205.086,298.239"/>
			</g>
		</g>
	</g>
</g>
<path fill="#27517B" d="M204.133,298.824c0.203-0.104,0.402-0.217,0.592-0.335c0.127-0.078,0.243-0.166,0.361-0.25
	c-0.119,0.085-0.236,0.173-0.363,0.251C204.532,298.607,204.335,298.723,204.133,298.824"/>
<path fill="#32687F" d="M155.75,32.678h-40.988h-11.928c-2.027,0-3.738-1.316-4.002-3.078l-0.639-4.288
	c-0.344-2.314-2.596-4.047-5.262-4.047H43.519c-3.057,0-5.624,2.013-5.965,4.672l-0.784,6.135c-0.044,0.344-0.376,0.606-0.772,0.606
	c-4.295,0-7.702,3.164-7.453,6.919L33,126.422c0.231,3.455,3.497,6.154,7.451,6.154l74.311-18.988h40.988l34.753,18.988
	c3.954,0,7.22-2.699,7.452-6.154l4.621-86.825c0.251-3.755-3.16-6.919-7.45-6.919H155.75z"/>
<path fill="#2891B2" d="M152.694,33.882h-39.876h-11.449c-1.947,0-3.591-1.649-3.842-3.34l-0.719-4.4
	c-0.331-2.222-2.492-3.885-5.053-3.885H44.182c-2.935,0-5.312,1.45-5.639,4.005l-0.736,6.653c-0.042,0.331-0.362,0.581-0.743,0.581
	l-0.551,0.086c-4.122,0-7.477,2.427-7.153,6.643l4.775,86.172c0.223,3.318,3.359,5.908,7.153,5.908h71.397h39.875h33.446
	c3.795,0,8.164-2.815,8.387-6.132l6.869-85.754c0.24-3.602-2.422-6.537-6.545-6.537H152.694z"/>
<path fill="#71B2CD" d="M202.469,37.606c-0.447-1.638-1.643-3.111-3.271-4.027c-0.813-0.461-1.725-0.784-2.678-0.945
	c-0.963-0.177-1.93-0.123-2.867-0.143l-22.731-0.115c-15.156-0.093-43.4-0.07-58.56-0.108l-5.681-0.009l-2.841-0.004h-0.711
	l-0.333-0.002c-0.115-0.007-0.244-0.008-0.349-0.019c-0.375-0.034-0.811-0.137-1.176-0.296c-0.75-0.319-1.367-0.877-1.697-1.549
	c-0.174-0.347-0.248-0.669-0.306-1.09l-0.187-1.233L98.709,25.6c-0.055-0.407-0.139-0.845-0.305-1.294
	c-0.166-0.428-0.4-0.832-0.685-1.21c-0.579-0.747-1.384-1.354-2.315-1.741c-0.463-0.194-0.961-0.324-1.467-0.409
	c-0.503-0.079-1.04-0.079-1.494-0.076l-5.684,0.009l-14.712,0.018l-22.734,0.081l-5.683,0.026c-1.986-0.03-3.963,0.826-5.132,2.232
	c-0.584,0.698-0.992,1.516-1.142,2.371c-0.136,0.847-0.211,1.655-0.317,2.486l-0.289,2.474l-0.145,1.24l-0.039,0.301
	c-0.014,0.063-0.053,0.144-0.104,0.202c-0.108,0.126-0.282,0.204-0.464,0.206c-0.423,0.023-0.844,0.032-1.259,0.108
	c-0.419,0.051-0.823,0.165-1.223,0.278l-0.589,0.203l-0.563,0.253c-0.362,0.188-0.722,0.378-1.044,0.617
	c-0.337,0.221-0.628,0.486-0.918,0.753c-0.281,0.275-0.534,0.565-0.759,0.876c-0.216,0.314-0.431,0.632-0.581,0.974
	c-0.176,0.332-0.286,0.688-0.397,1.038c-0.089,0.358-0.162,0.721-0.183,1.084c-0.036,0.363-0.011,0.733,0.008,1.093l0.167,2.163
	l0.339,4.325l-0.244-4.33l-0.122-2.164c-0.011-0.36-0.026-0.718,0.017-1.072c0.027-0.357,0.107-0.707,0.2-1.056
	c0.117-0.341,0.23-0.684,0.409-1.005c0.152-0.33,0.368-0.635,0.583-0.935c0.224-0.299,0.477-0.577,0.752-0.837
	c0.284-0.252,0.573-0.504,0.901-0.71c0.313-0.227,0.667-0.404,1.018-0.578l0.544-0.233l0.567-0.184
	c0.386-0.103,0.773-0.207,1.173-0.246c0.398-0.068,0.802-0.068,1.204-0.085c0.295,0.004,0.588-0.121,0.768-0.326
	c0.091-0.106,0.154-0.215,0.188-0.356L37,31.848l0.172-1.235l0.342-2.469c0.121-0.818,0.208-1.662,0.345-2.458
	c0.146-0.786,0.531-1.527,1.072-2.16c1.088-1.274,2.88-2.032,4.697-1.989l5.682,0.026l22.734,0.081l14.716,0.016l5.683,0.009
	c1.818-0.114,3.536,0.604,4.508,1.885c0.233,0.318,0.431,0.657,0.569,1.017c0.124,0.34,0.208,0.722,0.261,1.14l0.361,2.469
	l0.182,1.233c0.051,0.402,0.158,0.903,0.375,1.317c0.418,0.854,1.193,1.566,2.149,1.975c0.483,0.204,0.974,0.335,1.542,0.384
	c0.133,0.012,0.242,0.011,0.363,0.018l0.377,0.002h0.71l2.841-0.004l5.684-0.01c15.155-0.036,43.401-0.015,58.557-0.106
	l22.731-0.118c0.952,0.002,1.898-0.062,2.8,0.089c0.908,0.141,1.79,0.434,2.575,0.861c1.579,0.853,2.767,2.252,3.236,3.837
	c0.255,0.787,0.26,1.619,0.199,2.445l-0.14,2.484l-0.277,4.972l0.384-4.965l0.193-2.483C202.702,39.28,202.714,38.43,202.469,37.606
	"/>
<polygon opacity="0.6" fill="#FFFFFF" points="49.477,119.793 39.63,24.578 191.63,24.578 179.046,119.793 "/>
<polygon opacity="0.6" fill="#FFFFFF" points="48.238,124.395 38.63,31.489 192.63,31.489 180.352,124.395 "/>
<polygon opacity="0.6" fill="#FFFFFF" points="47.13,129.263 37.63,37.399 193.63,37.399 181.528,128.967 "/>
<path opacity="0.82" fill="#1D5370" d="M159.234,42.845h-44.031H27.305c-4.265,0-7.651,3.144-7.402,6.873l5.135,76.744
	c0.229,3.432,3.476,6.114,7.402,6.114h82.763h44.032h39.449c3.925,0,7.172-2.682,7.401-6.114l5.133-76.744
	c0.251-3.729-3.134-6.873-7.401-6.873H159.234z"/>
<path fill="#27517B" d="M210.607,46.532c-0.565-1.049-1.453-1.936-2.497-2.583c-1.058-0.633-2.274-1.025-3.509-1.141
	c-1.239-0.071-2.432-0.017-3.62-0.03c-2.365,0.004-4.648,0.007-6.839,0.011c-4.383,0.006-8.411,0.014-12.048,0.02
	c-14.548,0.022-22.861,0.037-22.861,0.037s8.313,0.013,22.861,0.037c3.637,0.007,7.665,0.013,12.048,0.019
	c2.189,0.003,4.473,0.007,6.839,0.013c1.179,0.017,2.397-0.033,3.604,0.039c1.205,0.117,2.393,0.506,3.425,1.125
	c1.016,0.637,1.874,1.505,2.424,2.527c0.543,1.031,0.786,2.173,0.665,3.35c-0.164,2.353-0.33,4.772-0.501,7.257
	c-0.342,4.967-0.702,10.188-1.078,15.639c-0.753,10.901-1.566,22.708-2.429,35.196c-0.217,3.123-0.433,6.287-0.656,9.492
	c-0.111,1.601-0.221,3.214-0.332,4.834c-0.06,0.811-0.113,1.624-0.169,2.438c-0.071,0.811-0.076,1.65-0.23,2.418
	c-0.322,1.56-1.37,2.997-2.857,3.923c-0.741,0.466-1.587,0.808-2.477,0.993c-0.873,0.197-1.819,0.187-2.775,0.18
	c-3.831-0.009-7.695-0.014-11.592-0.019c-31.174-0.05-80.863-0.102-114.116-0.153c-8.313,0.014-16.625,0.024-24.906,0.039
	c-4.14,0.007-8.272,0.014-12.394,0.021c-1.019-0.016-2.092,0.042-3.034-0.052c-0.964-0.105-1.898-0.389-2.731-0.824
	c-1.678-0.86-2.883-2.387-3.258-4.029c-0.187-0.843-0.181-1.739-0.261-2.634l-0.184-2.676c-0.123-1.777-0.245-3.557-0.368-5.33
	c-0.245-3.545-0.488-7.071-0.73-10.576c-0.482-7.011-0.96-13.937-1.429-20.749c-0.47-6.812-0.932-13.511-1.385-20.067
	c-0.226-3.279-0.45-6.521-0.67-9.726c-0.111-1.602-0.221-3.193-0.33-4.775c-0.043-0.798-0.153-1.572-0.014-2.325
	c0.125-0.755,0.406-1.484,0.823-2.148c0.829-1.33,2.218-2.382,3.831-2.881c1.593-0.552,3.388-0.353,5.12-0.393
	c3.47-0.006,6.889-0.013,10.248-0.018c6.722-0.011,13.216-0.021,19.45-0.03c49.876-0.08,99.568-0.133,99.568-0.133
	s-49.691-0.054-99.568-0.132c-6.234-0.01-12.728-0.021-19.45-0.032c-3.36-0.005-6.779-0.011-10.248-0.015
	c-0.869-0.002-1.739-0.004-2.614-0.005c-0.879,0.004-1.805,0.132-2.652,0.401c-1.712,0.525-3.189,1.634-4.078,3.044
	c-0.447,0.703-0.749,1.482-0.884,2.284c-0.151,0.81-0.038,1.624,0.001,2.406c0.1,1.583,0.206,3.175,0.309,4.775
	c0.207,3.204,0.417,6.448,0.631,9.728c0.423,6.559,0.859,13.26,1.3,20.072c0.442,6.813,0.89,13.741,1.345,20.753
	c0.227,3.506,0.455,7.034,0.686,10.579c0.114,1.771,0.23,3.55,0.346,5.329l0.173,2.677c0.076,0.885,0.062,1.789,0.26,2.711
	c0.415,1.87,1.747,3.547,3.616,4.521c0.925,0.491,1.969,0.812,3.047,0.933c1.105,0.106,2.096,0.046,3.136,0.065
	c4.12,0.006,8.253,0.014,12.393,0.02c8.281,0.014,16.594,0.025,24.906,0.039c33.251-0.053,82.941-0.104,114.115-0.153
	c3.897-0.007,7.762-0.012,11.592-0.019c0.948,0,1.934,0.019,2.913-0.202c0.959-0.204,1.867-0.575,2.663-1.079
	c1.6-1.004,2.717-2.555,3.06-4.231c0.166-0.851,0.161-1.659,0.228-2.477c0.055-0.814,0.105-1.628,0.158-2.438
	c0.105-1.622,0.21-3.234,0.313-4.835c0.209-3.206,0.413-6.372,0.615-9.494c0.81-12.49,1.575-24.301,2.281-35.204
	c0.353-5.449,0.692-10.675,1.014-15.643c0.161-2.484,0.32-4.904,0.473-7.257C211.426,48.786,211.172,47.573,210.607,46.532"/>
<path fill="#71B2CD" d="M211.198,48.688c-0.012-0.226-0.059-0.483-0.129-0.773c-0.263-1.132-1.093-2.898-3.266-4.126
	c-1.058-0.618-2.451-1.021-3.996-1.052c-1.518-0.014-3.159-0.026-4.914-0.044c-3.51-0.025-7.466-0.055-11.785-0.087
	c-8.635-0.038-18.71-0.081-29.505-0.129c-10.794-0.018-35.398-0.037-46.912-0.057c-11.515,0.02-26.376,0.038-37.172,0.056
	c-10.795,0.049-20.869,0.092-29.505,0.13c-4.317,0.032-8.276,0.062-11.784,0.087c-1.753,0.018-3.396,0.03-4.915,0.044
	c-1.536,0.029-2.941,0.435-3.996,1.053c-2.172,1.228-3.004,2.995-3.264,4.127c-0.074,0.29-0.119,0.548-0.131,0.772
	c-0.028,0.226-0.041,0.415-0.03,0.568c0.006,0.306,0.008,0.462,0.008,0.462s0.002-0.156,0.002-0.462
	c-0.006-0.153,0.01-0.341,0.044-0.565c0.017-0.226,0.069-0.48,0.148-0.769c0.282-1.12,1.154-2.851,3.309-4.014
	c1.055-0.587,2.406-0.949,3.909-0.952c1.518,0.013,3.16,0.028,4.914,0.044c3.509,0.024,7.466,0.055,11.783,0.086
	c8.637,0.038,18.712,0.083,29.506,0.129c10.796,0.018,25.657,0.038,37.172,0.056c11.514-0.019,36.119-0.038,46.913-0.056
	c10.793-0.047,20.869-0.091,29.505-0.13c4.318-0.031,8.276-0.061,11.785-0.085c1.753-0.017,3.396-0.031,4.914-0.044
	c1.494,0.002,2.86,0.366,3.907,0.953c2.157,1.163,3.026,2.895,3.311,4.014c0.081,0.287,0.132,0.543,0.148,0.769
	c0.032,0.224,0.05,0.412,0.044,0.565c0,0.306,0.002,0.462,0.002,0.462s0.002-0.156,0.01-0.462
	C211.239,49.103,211.228,48.913,211.198,48.688"/>
<path fill="#273E49" d="M144.231,83.656c-0.578-0.38-1.202-0.748-1.863-0.973c-3.278-1.115-6.685-1.205-10.118-0.975
	c-0.852,0.06-1.701,0.131-2.551,0.201c-0.532,0.045-1.064,0.092-1.596,0.132c-0.158,0.012-0.344,0.005-0.479-0.061
	c-1.645-0.781-3.205-1.729-4.498-2.928c-3.068-2.838-5.191-6.279-6.924-9.951c-0.561-1.187-0.645-2.257-0.225-3.512
	c0.949-2.847,1.572-5.766,1.701-8.776c-0.129-0.979-0.186-1.968-0.396-2.931c-0.424-1.933-1.357-3.518-3.652-3.967
	c-1.607-0.313-3.156-0.328-4.404,0.904c-0.617,0.608-1.064,1.311-1.33,2.103c-0.227,0.677-0.414,1.363-0.592,2.053
	c-0.711,2.727-0.904,5.477-0.203,8.223c0.416,1.633,0.99,3.23,1.479,4.849c0.058,0.188,0.101,0.42,0.035,0.596
	c-1.024,2.8-2.021,5.608-3.117,8.386c-1.761,4.442-4.489,8.432-6.919,12.561c-0.077,0.134-0.236,0.242-0.384,0.323
	c-0.712,0.376-1.435,0.74-2.155,1.105c-2.59,1.319-5.083,2.759-7.185,4.719c-1.5,1.396-2.812,2.913-3.666,4.744
	c-0.499,1.073-0.503,2.126,0.004,3.19c0.059,0.121,0.051,0.272,0.11,0.395c0.07,0.149,0.151,0.325,0.283,0.406
	c0.703,0.42,1.452,0.778,2.131,1.225c0.456,0.299,0.922,0.414,1.458,0.44c1.75,0.086,3.234-0.54,4.612-1.457
	c1.702-1.132,3.11-2.553,4.419-4.06c2.25-2.595,4.141-5.407,5.93-8.289c0.254-0.409,0.547-0.773,1.135-0.748
	c0.1,0.005,0.199-0.053,0.299-0.086c2.65-0.967,5.396-1.617,8.195-2.054c3.179-0.497,6.375-0.878,9.559-1.34
	c0.969-0.14,1.877-0.142,2.738,0.372c0.283,0.171,0.625,0.26,0.943,0.377c0.889,0.326,1.786,0.614,2.692,0.867
	c2.646,0.744,5.364,1.189,8.146,1.364c1.779,0.109,3.547,0.061,5.25-0.552c0.572-0.204,1.025-0.496,1.344-0.977
	c0.436-0.663,0.874-1.326,1.306-1.992c0.028-0.043,0.05-0.102,0.05-0.154C145.843,85.949,145.623,84.575,144.231,83.656
	 M91.124,100.825c-0.836,0.594-1.759,1.021-2.924,1.22c0.219-0.402,0.377-0.738,0.577-1.053c1.303-2.035,2.984-3.771,4.814-5.404
	c0.978-0.873,2.028-1.63,3.407-2.136C95.402,96.245,93.811,98.913,91.124,100.825 M111.448,52.601
	c0.124-0.439,0.532-0.586,0.729-0.953c0.592,0.412,0.604,1.035,0.719,1.571c0.246,1.12-0.024,2.24-0.174,3.356
	c-0.095,0.715-0.041,1.452-0.183,2.156c-0.21,1.042-0.532,2.063-0.806,3.095c-0.051-0.001-0.104-0.004-0.155-0.005
	c-0.142-0.756-0.301-1.507-0.418-2.265C110.811,57.225,110.794,54.905,111.448,52.601 M118.248,84.807
	c-4.247,0.804-8.373,2.001-12.43,3.409c-0.434,0.147-0.912,0.18-1.366,0.262c-0.038-0.056-0.075-0.107-0.112-0.166
	c3.17-4.992,5.672-10.269,7.828-15.728c0.131,0.257,0.26,0.513,0.391,0.768c1.812,3.478,4.213,6.587,6.85,9.553
	c0.254,0.286,0.572,0.527,0.886,0.759c0.302,0.224,0.634,0.41,0.992,0.639C120.249,84.47,119.244,84.619,118.248,84.807
	 M139.476,87.39c-2.637-0.307-5.12-1.13-7.557-2.082c-0.149-0.062-0.229-0.287-0.356-0.46c1.345,0,2.567-0.05,3.781,0.013
	c1.713,0.085,3.415,0.291,5.026,0.898c0.438,0.163,0.902,0.347,1.241,0.636c0.322,0.268,0.727,0.549,0.808,1.133
	C141.393,87.484,140.425,87.499,139.476,87.39"/>
</svg>
