<?xml version="1.0" encoding="utf-8"?>
<!-- Generator: Adobe Illustrator 16.0.0, SVG Export Plug-In . SVG Version: 6.00 Build 0)  -->
<!DOCTYPE svg PUBLIC "-//W3C//DTD SVG 1.1//EN" "http://www.w3.org/Graphics/SVG/1.1/DTD/svg11.dtd">
<svg version="1.1" id="레이어_1" xmlns="http://www.w3.org/2000/svg" xmlns:xlink="http://www.w3.org/1999/xlink" x="0px"
	 y="0px" width="231px" height="133px" viewBox="0 0 231 133" enable-background="new 0 0 231 133" xml:space="preserve">
<path fill="#3189AF" d="M184.058,129.891c3.564,0,7.669-2.645,7.877-5.761l6.071-75.796c-0.076-0.001-0.149-0.014-0.227-0.014
	c-1.427,0.014-2.97,0.026-4.617,0.041c-3.295,0.023-7.012,0.051-11.068,0.079c-8.111,0.037-17.575,0.078-27.711,0.124
	c-10.138,0.016-33.249,0.033-44.063,0.053c-10.815-0.018-24.773-0.037-34.913-0.053c-10.138-0.044-19.601-0.087-27.712-0.121
	c-3.13-0.024-6.051-0.045-8.739-0.064c-1.475,0.002-2.958,0.004-4.453,0.007c-0.935,0.022-1.887-0.027-2.813,0.023l5.97,75.932
	c0.209,3.117,3.156,5.549,6.718,5.549h69.2h3.494h35.004h2.449h29.533V129.891z"/>
<polygon fill="#B21302" points="111.189,37.42 140.587,46.409 153.192,39.635 123.799,30.644 "/>
<polygon fill="#B21302" points="119.525,8.154 110.798,37.631 123.406,30.854 132.489,0.167 "/>
<path fill="#32687F" d="M31.663,48.072l-0.367-4.667c-0.304-3.959,2.846-6.239,6.719-6.239l0.516-0.081
	c0.357,0,0.659-0.234,0.698-0.545l0.691-6.249c0.307-2.4,2.541-3.762,5.297-3.762h52.198c2.405,0,4.433,1.563,4.745,3.649
	l0.676,4.132c0.235,1.589,1.78,3.137,3.609,3.137h10.753h37.452h37.591c3.873,0,6.374,2.759,6.146,6.14l-0.363,4.546
	c0.402,0.019,0.789,0.066,1.165,0.135l0.166-2.083l0.031-0.564l0.131-2.334c0.06-0.774,0.054-1.557-0.187-2.296
	c-0.441-1.488-1.557-2.804-3.04-3.604c-0.737-0.401-1.564-0.677-2.42-0.807c-0.845-0.143-1.731-0.082-2.628-0.084l-19.472,0.111
	c-14.233,0.086-40.763,0.065-54.998,0.099l-5.339,0.009l-2.667,0.003h-0.668l-0.354-0.001c-0.114-0.005-0.217-0.004-0.341-0.018
	c-0.533-0.044-0.994-0.168-1.449-0.359c-0.897-0.384-1.625-1.054-2.019-1.855c-0.203-0.389-0.304-0.859-0.352-1.237l-0.17-1.159
	l-0.34-2.32c-0.049-0.392-0.128-0.75-0.245-1.07c-0.131-0.339-0.316-0.655-0.535-0.954c-0.913-1.202-2.526-1.878-4.234-1.771
	l-5.337-0.007l-13.822-0.015l-28.867-0.077l-5.337-0.025c-1.707-0.04-3.389,0.67-4.413,1.868c-0.508,0.594-0.869,1.292-1.006,2.028
	c-0.128,0.749-0.211,1.541-0.324,2.309l-0.321,2.32l-0.162,1.161l-0.043,0.297c-0.031,0.132-0.09,0.235-0.176,0.334
	c-0.169,0.193-0.444,0.31-0.722,0.307c-0.378,0.015-0.758,0.015-1.131,0.078c-0.375,0.038-0.739,0.137-1.102,0.231l-0.533,0.172
	l-0.511,0.221c-0.33,0.163-0.662,0.33-0.955,0.542c-0.309,0.192-0.581,0.431-0.847,0.667c-0.259,0.245-0.496,0.504-0.707,0.786
	c-0.202,0.282-0.405,0.568-0.547,0.877c-0.169,0.303-0.275,0.626-0.384,0.945c-0.087,0.327-0.162,0.655-0.189,0.99
	c-0.04,0.334-0.024,0.667-0.015,1.007l0.114,2.034l0.096,1.703l0.104,1.397C31.172,48.095,31.417,48.083,31.663,48.072"/>
<path opacity="0.9" fill="#3189AF" d="M34.502,48.047c1.528,0.002,3.043,0.004,4.549,0.007c2.662-0.02,5.554-0.041,8.645-0.064
	c8.112-0.036,17.574-0.076,27.712-0.121c10.14-0.018,24.098-0.035,34.914-0.054c10.814,0.019,33.924,0.037,44.063,0.055
	c10.136,0.044,19.601,0.085,27.712,0.121c4.055,0.03,7.771,0.057,11.068,0.081c1.648,0.017,3.188,0.03,4.616,0.041
	c0.082,0.002,0.16,0.017,0.243,0.02l0.363-4.544c0.227-3.384-2.273-6.142-6.146-6.142h-37.591h-37.452h-10.753
	c-1.829,0-3.373-1.548-3.609-3.136l-0.676-4.133c-0.312-2.086-2.34-3.649-4.745-3.649H45.216c-2.756,0-4.989,1.362-5.295,3.762
	l-0.692,6.25c-0.039,0.31-0.34,0.545-0.698,0.545l-0.518,0.08c-3.872,0-7.023,2.28-6.718,6.239l0.367,4.667
	c0.127-0.006,0.258-0.03,0.384-0.03C32.868,48.042,33.686,48.044,34.502,48.047"/>
<path fill="#71B2CD" d="M195.124,48.278c-2.223-0.003-4.366-0.007-6.422-0.01c-4.117-0.007-7.901-0.012-11.315-0.019
	c-13.665-0.022-21.473-0.035-21.473-0.035h-0.879c0.578-0.001,0.882-0.001,0.882-0.001s0.106,0,0.277,0
	c0.077,0.001,0.171,0.001,0.279,0.001c1.973,0.004,9.327,0.015,20.918,0.034c3.412,0.007,7.197,0.012,11.315,0.019
	c2.057,0.003,4.2,0.006,6.421,0.011H195.124z"/>
<path fill="#B21302" d="M183.409,64.79l-10.815-4.15c0.857-2.289,7.875-22.819-11.906-32.312c-20.007-9.601-32.11,6.443-32.616,7.13
	l-9.332-6.861c6.25-8.501,24.107-21.68,46.961-10.713C189.553,29.331,187.715,53.571,183.409,64.79z"/>
<g opacity="0.82">
	<g>
		<g>
			<defs>
				<rect id="SVGID_1_" x="195.138" y="130.064" width="1.028" height="0.912"/>
			</defs>
			<clipPath id="SVGID_2_">
				<use xlink:href="#SVGID_1_"  overflow="visible"/>
			</clipPath>
			<path clip-path="url(#SVGID_2_)" fill="#1D5370" d="M195.138,130.977c0.381-0.271,0.727-0.575,1.027-0.912
				C195.864,130.402,195.519,130.706,195.138,130.977"/>
		</g>
	</g>
</g>
<path fill="#32687F" d="M37.658,124.34l-5.97-75.933c-0.248,0.014-0.495,0.033-0.738,0.065l5.643,75.892
	c0.217,3.245,3.286,5.78,6.998,5.78l69.985-0.255H44.375C40.813,129.891,37.868,127.457,37.658,124.34"/>
<path fill="#1D5370" d="M37.658,124.34l-5.97-75.933c-0.248,0.014-0.495,0.033-0.738,0.065l5.643,75.892
	c0.217,3.245,3.286,5.78,6.998,5.78l69.985-0.255H44.375C40.813,129.891,37.868,127.457,37.658,124.34"/>
<path fill="#32687F" d="M191.935,124.13c-0.208,3.115-4.313,5.761-7.877,5.761h-29.533h-2.449l34.058,0.291
	c3.711,0,6.781-2.534,6.998-5.781l6.044-75.949c-0.377-0.063-0.765-0.107-1.168-0.118L191.935,124.13z"/>
<path fill="#1D5370" d="M191.935,124.13c-0.208,3.115-4.313,5.761-7.877,5.761h-29.533h-2.449l34.058,0.291
	c3.711,0,6.781-2.534,6.998-5.781l6.044-75.949c-0.377-0.063-0.765-0.107-1.168-0.118L191.935,124.13z"/>
<path fill="#19475B" d="M204.002,51.746c-0.49-0.915-1.249-1.69-2.141-2.279c-0.095-0.058-0.186-0.117-0.285-0.173
	c-0.108-0.063-0.223-0.12-0.337-0.178c-0.145-0.075-0.293-0.146-0.451-0.211c-0.091-0.038-0.184-0.073-0.277-0.109
	c-0.39-0.142-0.81-0.248-1.247-0.328c-0.012-0.002-0.023-0.005-0.039-0.008c-0.017-0.002-0.034-0.007-0.052-0.01l-6.042,75.949
	c-0.22,3.248-3.287,5.781-6.999,5.781l-34.058-0.293H117.07h-3.496l-69.985,0.256c-3.712,0-6.78-2.534-6.998-5.78l-5.643-75.892
	c-0.011,0.001-0.021,0.002-0.031,0.003l0.035,0.62l-0.048-0.619c-0.414,0.056-0.82,0.142-1.214,0.278
	c-0.755,0.233-1.459,0.596-2.071,1.059c-0.613,0.46-1.134,1.02-1.523,1.645c-0.392,0.624-0.654,1.31-0.773,2.019
	c-0.13,0.707-0.027,1.434,0.014,2.185c0.103,1.486,0.206,2.98,0.311,4.484c0.206,3.009,0.416,6.056,0.628,9.134
	c0.426,6.161,0.86,12.45,1.301,18.85c0.441,6.4,0.891,12.903,1.343,19.488c0.229,3.292,0.457,6.605,0.685,9.934
	c0.115,1.665,0.23,3.333,0.345,5.005l0.173,2.513c0.076,0.842,0.07,1.683,0.245,2.472c0.351,1.546,1.484,2.979,3.062,3.787
	c0.781,0.41,1.659,0.675,2.564,0.775c0.885,0.086,1.894,0.034,2.85,0.047c3.87-0.006,7.752-0.013,11.64-0.02
	c7.778-0.014,15.585-0.024,23.393-0.034c31.232,0.048,77.902,0.097,107.18,0.142c3.659,0.006,7.29,0.013,10.889,0.019
	c0.897,0.006,1.785,0.018,2.605-0.171c0.627-0.131,1.229-0.342,1.783-0.623c0.186-0.095,0.364-0.197,0.539-0.306
	c0.115-0.071,0.224-0.152,0.334-0.229c0.389-0.279,0.742-0.591,1.053-0.936c0.653-0.736,1.109-1.607,1.299-2.521
	c0.143-0.721,0.148-1.511,0.215-2.271c0.054-0.764,0.104-1.528,0.16-2.289c0.104-1.522,0.209-3.038,0.311-4.542
	c0.21-3.011,0.413-5.981,0.616-8.915c0.813-11.73,1.573-22.818,2.281-33.058c0.354-5.119,0.692-10.024,1.014-14.688
	c0.16-2.334,0.315-4.606,0.47-6.816C204.739,53.787,204.511,52.712,204.002,51.746"/>
<path fill="#27517B" d="M32.012,48.112c1.428-0.013,2.971-0.024,4.618-0.041c0.782-0.005,1.593-0.012,2.421-0.017
	c-1.505-0.003-3.021-0.004-4.549-0.007c-0.816-0.002-1.634-0.005-2.455-0.005c-0.126,0-0.257,0.023-0.385,0.029l0.005,0.068
	C31.784,48.134,31.895,48.114,32.012,48.112"/>
<path fill="#27517B" d="M204.165,51.677c-0.529-0.985-1.364-1.818-2.344-2.426c-0.092-0.055-0.188-0.097-0.283-0.147
	c2.035,1.153,2.815,2.811,3.062,3.872c0.032,0.125,0.037,0.222,0.057,0.336c0.01,0.057,0.02,0.112,0.028,0.168
	c0.01,0.071,0.033,0.159,0.035,0.222c0.012,0.077,0.006,0.129,0.012,0.198c0.006,0.08,0.01,0.159,0.014,0.239
	c-0.002,0.029,0.007,0.072,0.005,0.099c-0.009,0.286-0.01,0.434-0.01,0.434V54.67c-0.001-0.006-0.003-0.151-0.003-0.432
	c0.006-0.144-0.011-0.321-0.04-0.531c-0.016-0.211-0.063-0.452-0.14-0.722c-0.245-0.969-0.974-2.424-2.674-3.503
	c0.882,0.587,1.637,1.358,2.121,2.264c0.508,0.968,0.738,2.041,0.627,3.146c-0.154,2.21-0.312,4.481-0.472,6.815
	c-0.322,4.665-0.661,9.569-1.013,14.688c-0.707,10.236-1.472,21.327-2.282,33.058c-0.203,2.934-0.405,5.905-0.614,8.914
	c-0.104,1.504-0.211,3.02-0.313,4.543c-0.056,0.761-0.107,1.523-0.158,2.288c-0.066,0.762-0.072,1.551-0.217,2.271
	c-0.189,0.916-0.646,1.786-1.302,2.522c-0.31,0.346-0.663,0.657-1.054,0.937c-0.109,0.076-0.216,0.156-0.328,0.227
	c-0.177,0.11-0.356,0.213-0.542,0.308c-0.558,0.281-1.161,0.494-1.787,0.628c-0.819,0.184-1.709,0.173-2.604,0.169
	c-3.599-0.009-7.229-0.014-10.889-0.02c-29.281-0.047-75.949-0.095-107.181-0.143c-7.809,0.013-15.615,0.021-23.393,0.035
	c-3.888,0.008-7.769,0.014-11.64,0.02c-0.958-0.017-1.965,0.039-2.85-0.048c-0.905-0.1-1.783-0.366-2.565-0.775
	c-1.576-0.809-2.708-2.241-3.061-3.784c-0.175-0.792-0.17-1.634-0.245-2.474l-0.172-2.515c-0.115-1.669-0.23-3.339-0.347-5.005
	c-0.229-3.328-0.458-6.641-0.685-9.933c-0.452-6.586-0.902-13.09-1.343-19.489c-0.44-6.398-0.875-12.688-1.3-18.848
	c-0.211-3.08-0.422-6.125-0.628-9.136c-0.104-1.504-0.208-3-0.309-4.484c-0.041-0.75-0.144-1.476-0.015-2.185
	c0.118-0.709,0.382-1.394,0.773-2.018c0.39-0.626,0.912-1.186,1.525-1.647c0.614-0.462,1.318-0.827,2.076-1.061
	c0.391-0.136,0.798-0.221,1.21-0.277l-0.005-0.077c-0.966,0.129-1.838,0.415-2.562,0.816c-2.023,1.093-2.843,2.718-3.108,3.77
	c-0.074,0.271-0.123,0.51-0.138,0.722c-0.031,0.21-0.047,0.387-0.041,0.531c0,0.283-0.001,0.428-0.001,0.433v0.002
	c0,0-0.002-0.148-0.008-0.435c-0.001-0.021,0.004-0.057,0.004-0.08c0.001-0.092,0.008-0.182,0.014-0.272
	c0.006-0.065,0.001-0.11,0.009-0.182c0.002-0.057,0.026-0.132,0.033-0.193c0.013-0.078,0.024-0.155,0.04-0.231
	c0.019-0.103,0.022-0.188,0.051-0.301c0.244-1.062,1.026-2.724,3.065-3.876c0.725-0.425,1.63-0.74,2.627-0.89L30.88,48.13
	c-0.451,0.061-0.898,0.154-1.324,0.289c-1.608,0.494-2.995,1.535-3.829,2.859c-0.42,0.661-0.704,1.392-0.831,2.146
	c-0.141,0.762-0.036,1.525,0.001,2.26c0.094,1.487,0.192,2.982,0.29,4.486c0.194,3.009,0.392,6.057,0.593,9.136
	c0.396,6.16,0.806,12.455,1.22,18.854c0.415,6.4,0.836,12.906,1.263,19.492c0.213,3.29,0.427,6.606,0.644,9.936
	c0.107,1.663,0.216,3.333,0.325,5.006l0.163,2.514c0.072,0.83,0.058,1.68,0.244,2.545c0.391,1.758,1.642,3.332,3.396,4.247
	c0.87,0.461,1.85,0.762,2.863,0.875c1.038,0.1,1.967,0.044,2.945,0.062c3.87,0.005,7.752,0.013,11.64,0.019
	c7.778,0.014,15.585,0.024,23.393,0.037c31.23-0.051,77.9-0.099,107.181-0.145c3.659-0.007,7.289-0.011,10.887-0.017
	c0.892,0,1.815,0.017,2.736-0.19c0.898-0.192,1.755-0.541,2.501-1.014c1.501-0.942,2.553-2.397,2.872-3.974
	c0.157-0.8,0.152-1.559,0.213-2.326c0.053-0.764,0.1-1.529,0.149-2.291c0.099-1.523,0.196-3.037,0.295-4.542
	c0.195-3.011,0.389-5.983,0.579-8.916c0.758-11.731,1.477-22.824,2.142-33.065c0.33-5.118,0.649-10.027,0.95-14.693
	c0.154-2.334,0.302-4.607,0.445-6.816C204.934,53.795,204.696,52.655,204.165,51.677"/>
<path fill="#27517B" d="M34.504,48.383c1.408-0.002,2.805-0.004,4.195-0.007c-0.704-0.005-1.403-0.011-2.072-0.016
	c-1.646-0.014-3.19-0.027-4.616-0.041c-0.112,0-0.218,0.016-0.327,0.02l0.004,0.068C32.615,48.357,33.569,48.405,34.504,48.383"/>
<path fill="#27517B" d="M194.29,131.497c0.181-0.093,0.357-0.193,0.526-0.298c0.112-0.07,0.216-0.148,0.321-0.223
	c-0.106,0.075-0.21,0.153-0.323,0.224C194.645,131.304,194.47,131.406,194.29,131.497"/>
<path fill="#27517B" d="M34.504,48.383c-0.935,0.022-1.89-0.026-2.816,0.024v0.001c0.926-0.05,1.879,0,2.814-0.023
	c1.495-0.002,2.977-0.004,4.452-0.007c-0.086-0.001-0.169-0.001-0.256-0.002C37.309,48.378,35.913,48.38,34.504,48.383"/>
<polygon fill="#71B2CD" points="155.033,48.214 155.028,48.214 155.031,48.214 "/>
<path fill="#71B2CD" d="M156.192,48.213c-0.171,0-0.276,0-0.276,0s-0.305,0-0.883,0.001h0.879
	C155.913,48.214,156.021,48.213,156.192,48.213"/>
<path fill="#71B2CD" d="M155.914,48.214h0.559c-0.109,0-0.206,0-0.28-0.001C156.021,48.214,155.913,48.214,155.914,48.214
	L155.914,48.214z"/>
<g>
	<path fill="#71B2CD" d="M204.748,54.204c-0.001-0.021,0.001-0.044,0-0.065c-0.003-0.07-0.011-0.154-0.017-0.238
		c-0.005-0.069-0.001-0.121-0.011-0.198c-0.005-0.063-0.027-0.151-0.036-0.222c-0.009-0.053-0.021-0.112-0.028-0.168
		c-0.02-0.114-0.024-0.212-0.057-0.337c-0.247-1.06-1.026-2.718-3.062-3.872c-0.002-0.001-0.003-0.001-0.005-0.002
		c-0.008-0.003-0.016-0.007-0.022-0.011c-0.183-0.106-0.387-0.199-0.589-0.291c-0.198-0.085-0.397-0.164-0.602-0.232
		c-0.048-0.017-0.095-0.033-0.141-0.048c-0.253-0.081-0.514-0.149-0.775-0.206c-0.011-0.001-0.019-0.004-0.03-0.005
		c-0.03-0.006-0.063-0.012-0.094-0.02l0.205-2.659l0.183-2.331c0.072-0.778,0.083-1.578-0.147-2.352
		c-0.418-1.539-1.54-2.922-3.07-3.783c-0.765-0.431-1.62-0.737-2.515-0.889c-0.905-0.165-1.815-0.115-2.693-0.134l-19.473-0.109
		c-14.235-0.086-40.762-0.065-55-0.1l-5.337-0.007l-2.667-0.005h-0.668l-0.313-0.002c-0.108-0.006-0.229-0.007-0.328-0.016
		c-0.351-0.033-0.76-0.129-1.104-0.279c-0.705-0.299-1.282-0.824-1.594-1.455c-0.163-0.327-0.233-0.628-0.288-1.025l-0.174-1.158
		l-0.351-2.316c-0.051-0.382-0.13-0.796-0.287-1.216c-0.155-0.401-0.375-0.781-0.642-1.137c-0.544-0.701-1.3-1.271-2.174-1.635
		c-0.436-0.183-0.903-0.304-1.378-0.384c-0.473-0.075-0.977-0.075-1.405-0.072l-5.336,0.007l-13.818,0.018l-28.867,0.076
		l-5.337,0.023c-1.866-0.026-3.723,0.778-4.822,2.098c-0.548,0.656-0.931,1.422-1.071,2.227c-0.128,0.796-0.199,1.555-0.298,2.335
		l-0.271,2.324l-0.136,1.165l-0.037,0.283c-0.013,0.058-0.049,0.134-0.098,0.189c-0.102,0.119-0.264,0.191-0.436,0.193
		c-0.397,0.022-0.792,0.03-1.182,0.102c-0.393,0.046-0.773,0.155-1.149,0.262l-0.554,0.191l-0.528,0.237
		c-0.341,0.175-0.678,0.355-0.98,0.58c-0.317,0.207-0.589,0.457-0.862,0.708c-0.265,0.257-0.502,0.529-0.713,0.821
		c-0.203,0.294-0.406,0.593-0.545,0.914c-0.167,0.313-0.269,0.647-0.375,0.977c-0.083,0.336-0.151,0.674-0.172,1.017
		c-0.033,0.341-0.009,0.69,0.009,1.027l0.158,2.031l0.242,3.1c0.007,0,0.014,0,0.021-0.001l-0.079-1.398l-0.096-1.703l-0.114-2.034
		c-0.01-0.338-0.024-0.673,0.016-1.007c0.025-0.335,0.101-0.664,0.189-0.989c0.11-0.32,0.215-0.644,0.383-0.945
		c0.142-0.31,0.345-0.596,0.547-0.878c0.211-0.281,0.448-0.541,0.707-0.787c0.267-0.236,0.537-0.474,0.845-0.667
		c0.294-0.211,0.626-0.378,0.956-0.541l0.512-0.22l0.532-0.172c0.362-0.095,0.727-0.194,1.102-0.231
		c0.375-0.063,0.754-0.063,1.131-0.078c0.277,0.002,0.552-0.114,0.722-0.306c0.084-0.099,0.145-0.202,0.176-0.334l0.043-0.297
		l0.162-1.161l0.321-2.319c0.114-0.769,0.195-1.561,0.324-2.309c0.137-0.737,0.498-1.435,1.006-2.029
		c1.022-1.198,2.705-1.908,4.412-1.868l5.338,0.025l28.865,0.076l13.823,0.014l5.337,0.007c1.708-0.106,3.32,0.569,4.233,1.771
		c0.219,0.299,0.404,0.616,0.534,0.954c0.117,0.32,0.195,0.678,0.245,1.07l0.341,2.32l0.169,1.159
		c0.047,0.378,0.148,0.849,0.352,1.237c0.394,0.802,1.121,1.471,2.02,1.855c0.453,0.191,0.913,0.315,1.448,0.359
		c0.123,0.013,0.227,0.012,0.34,0.018l0.354,0.002h0.667l2.667-0.004l5.337-0.009c14.237-0.035,40.767-0.014,54.999-0.1l19.472-0.11
		c0.896,0.001,1.783-0.059,2.629,0.083c0.855,0.132,1.682,0.407,2.419,0.809c1.484,0.799,2.6,2.115,3.039,3.604
		c0.242,0.738,0.248,1.521,0.188,2.296l-0.131,2.334l-0.032,0.564l-0.165,2.083l-0.001,0.01c-0.001,0-0.002,0-0.003,0v-0.008
		c-0.086-0.016-0.179-0.018-0.266-0.031c-0.132-0.021-0.262-0.046-0.395-0.058c-0.044-0.003-0.087-0.001-0.13-0.003
		c-0.126-0.012-0.243-0.037-0.372-0.043v-0.002c-0.083-0.003-0.161-0.018-0.243-0.019c-1.429-0.011-2.968-0.025-4.616-0.041
		c-3.297-0.025-7.014-0.052-11.07-0.08c-8.109-0.037-17.574-0.077-27.71-0.122c-10.139-0.019-33.248-0.036-44.063-0.056
		C99.508,47.833,85.55,47.85,75.41,47.869c-10.139,0.044-19.599,0.085-27.712,0.122c-3.091,0.022-5.984,0.043-8.646,0.062
		c-0.828,0.007-1.639,0.013-2.421,0.018c-1.648,0.016-3.19,0.03-4.618,0.041c-0.117,0.003-0.229,0.021-0.344,0.028
		c-0.25,0.014-0.497,0.027-0.736,0.062c-0.01,0.001-0.019,0.003-0.026,0.004c-0.008,0.002-0.014,0.002-0.02,0.005
		c-0.997,0.15-1.901,0.463-2.626,0.889c-2.04,1.153-2.821,2.814-3.065,3.875c-0.028,0.114-0.031,0.199-0.051,0.302
		c-0.016,0.079-0.03,0.159-0.04,0.231c-0.007,0.06-0.03,0.136-0.032,0.193c-0.008,0.072-0.004,0.117-0.009,0.181
		c-0.008,0.097-0.017,0.193-0.015,0.272c0,0.023-0.005,0.059-0.004,0.08c0.005,0.288,0.008,0.436,0.008,0.436v-0.002
		c0-0.005,0-0.15,0-0.434c-0.005-0.142,0.011-0.32,0.041-0.529c0.015-0.212,0.065-0.454,0.139-0.723
		c0.264-1.052,1.084-2.678,3.107-3.77c0.723-0.401,1.596-0.686,2.562-0.816c0.004-0.001,0.008-0.003,0.015-0.003
		c0.01-0.001,0.019-0.004,0.03-0.005c0.24-0.032,0.489-0.04,0.739-0.051c0.11-0.003,0.215-0.02,0.328-0.02
		c1.425,0.014,2.969,0.027,4.616,0.041c0.669,0.004,1.368,0.011,2.072,0.016c0.087,0.001,0.169,0.001,0.256,0.002
		c2.688,0.019,5.61,0.041,8.739,0.063c8.112,0.035,17.574,0.077,27.713,0.121c10.14,0.017,24.098,0.035,34.913,0.054
		c10.816-0.019,33.924-0.037,44.062-0.054c10.135-0.044,19.602-0.086,27.711-0.122c4.057-0.029,7.774-0.057,11.07-0.08
		c1.646-0.015,3.188-0.027,4.616-0.041c0.076,0,0.149,0.013,0.228,0.015c0.402,0.011,0.789,0.054,1.164,0.117v0.001
		c0.019,0.003,0.034,0.006,0.052,0.009l0.005-0.034c-0.019-0.004-0.034-0.004-0.052-0.008v0v0c-0.221-0.041-0.443-0.08-0.666-0.103
		c-0.089-0.006-0.176-0.002-0.264-0.006c0.088,0.004,0.177,0,0.266,0.006c0.223,0.021,0.444,0.061,0.665,0.103
		c0.012,0.001,0.023,0.003,0.035,0.005c-0.012-0.001-0.023-0.003-0.036-0.005c0.018,0.002,0.034,0.004,0.05,0.008v0
		c0.002,0,0.003,0,0.005,0c0.013,0.001,0.025,0.002,0.038,0.005c0.208,0.042,0.414,0.094,0.617,0.155
		c-0.002,0-0.004-0.001-0.006-0.001c0.004,0.001,0.008,0.002,0.012,0.004c-0.206-0.062-0.415-0.114-0.626-0.157
		c-0.014-0.002-0.026-0.003-0.038-0.005l-0.003,0.034c0.013,0.003,0.024,0.006,0.038,0.008c0.438,0.08,0.857,0.187,1.245,0.329
		c-0.191-0.072-0.385-0.138-0.58-0.197c0.072,0.022,0.143,0.048,0.215,0.072c-0.024-0.008-0.049-0.017-0.073-0.025
		c0.124,0.04,0.248,0.079,0.37,0.124c-0.098-0.036-0.198-0.066-0.297-0.099c0.122,0.041,0.245,0.078,0.366,0.124
		c0.004,0.001,0.008,0.002,0.012,0.003c0.002,0.001,0.004,0.001,0.006,0.002c0.085,0.03,0.17,0.063,0.251,0.098
		c0.17,0.07,0.33,0.149,0.491,0.23c0.059,0.03,0.124,0.052,0.181,0.083c0.04,0.022,0.07,0.045,0.108,0.069
		c0.057,0.032,0.117,0.056,0.172,0.088c0.055,0.034,0.102,0.076,0.155,0.111c1.699,1.08,2.428,2.533,2.673,3.503
		c0.078,0.268,0.124,0.51,0.14,0.722c0.029,0.208,0.046,0.388,0.041,0.529c0,0.049,0,0.07,0,0.111
		c0.001,0.107,0.006,0.214-0.002,0.323v0.002c0,0,0.001-0.062,0.003-0.157c0.001,0.091,0.002,0.149,0.003,0.153
		c0.006-0.107,0.002-0.213,0.002-0.319c0.001-0.042,0.001-0.063,0.003-0.112C204.751,54.229,204.749,54.216,204.748,54.204z"/>
	<path fill="#71B2CD" d="M200.525,48.801c-0.004-0.002-0.009-0.003-0.014-0.004c0.09,0.034,0.181,0.067,0.271,0.104
		c-0.002,0-0.003-0.001-0.005-0.002C200.695,48.865,200.607,48.833,200.525,48.801z"/>
	<path fill="#71B2CD" d="M201.446,49.214c-0.056-0.031-0.12-0.054-0.179-0.083c-0.01-0.005-0.019-0.009-0.027-0.014
		c-0.146-0.074-0.294-0.146-0.45-0.212c-0.002-0.001-0.004-0.002-0.006-0.002c0.161,0.067,0.315,0.144,0.47,0.222
		c0.109,0.056,0.22,0.11,0.323,0.17c-0.006-0.003-0.012-0.008-0.02-0.012C201.521,49.261,201.487,49.237,201.446,49.214z"/>
	<path fill="#71B2CD" d="M201.558,49.282c0.008,0.003,0.013,0.007,0.019,0.012c0.001,0,0.002,0.001,0.002,0.001
		c0.098,0.057,0.189,0.115,0.283,0.173c-0.047-0.03-0.089-0.067-0.136-0.097c0.047,0.029,0.089,0.066,0.136,0.096
		c0.007,0.005,0.016,0.009,0.022,0.014c-0.056-0.035-0.102-0.077-0.155-0.111C201.673,49.339,201.613,49.313,201.558,49.282z"/>
</g>
<path fill="#B21302" d="M183.655,36.537c-0.057-0.147-0.12-0.294-0.179-0.441l-11.695-0.065c-0.477-0.003-0.969-0.005-1.473-0.008
	c0.143,0.195,0.274,0.392,0.407,0.588c0.361-0.002,0.722-0.004,1.069-0.006L183.655,36.537z"/>
<path opacity="0.8" fill="#1D5370" d="M184.058,129.891c3.564,0,7.669-2.645,7.877-5.761l6.071-75.796
	c-0.076-0.001-0.149-0.014-0.227-0.014c-1.427,0.014-2.97,0.026-4.617,0.041c-3.295,0.023-7.012,0.051-11.068,0.079
	c-8.111,0.037-17.575,0.078-27.711,0.124c-10.138,0.016-33.249,0.033-44.063,0.053c-10.815-0.018-24.773-0.037-34.913-0.053
	c-10.138-0.044-19.601-0.087-27.712-0.121c-3.13-0.024-6.051-0.045-8.739-0.064c-1.475,0.002-2.958,0.004-4.453,0.007
	c-0.935,0.022-1.887-0.027-2.813,0.023l5.97,75.932c0.209,3.117,3.156,5.549,6.718,5.549h69.2h3.494h35.004h2.449h29.533V129.891z"
	/>
</svg>
