<?xml version="1.0" encoding="utf-8"?>
<!-- Generator: Adobe Illustrator 16.0.0, SVG Export Plug-In . SVG Version: 6.00 Build 0)  -->
<svg version="1.2" baseProfile="tiny" id="레이어_1"
	 xmlns="http://www.w3.org/2000/svg" xmlns:xlink="http://www.w3.org/1999/xlink" x="0px" y="0px" width="128px" height="128px"
	 viewBox="0 0 128 128" xml:space="preserve">
<path fill="#00FFFF" d="M69.823,89.971l2.444,0.774c-0.375,1.36-0.998,2.373-1.869,3.034c-0.873,0.662-1.979,0.992-3.315,0.992
	c-1.659,0-3.021-0.565-4.087-1.698c-1.069-1.134-1.602-2.681-1.602-4.646c0-2.075,0.536-3.69,1.608-4.841
	c1.073-1.148,2.482-1.723,4.232-1.723c1.525,0,2.767,0.449,3.722,1.353c0.565,0.534,0.993,1.302,1.276,2.3l-2.494,0.596
	c-0.148-0.646-0.456-1.157-0.924-1.531c-0.471-0.375-1.039-0.563-1.709-0.563c-0.926,0-1.676,0.332-2.252,0.994
	c-0.576,0.666-0.865,1.741-0.865,3.229c0,1.577,0.285,2.702,0.852,3.372c0.567,0.67,1.306,1.004,2.214,1.004
	c0.67,0,1.245-0.213,1.729-0.637C69.268,91.553,69.613,90.885,69.823,89.971z"/>
<path fill="#00FFFF" d="M74.43,94.559V82.076h4.045c1.533,0,2.532,0.063,2.998,0.188c0.715,0.188,1.313,0.596,1.797,1.223
	c0.481,0.628,0.724,1.438,0.724,2.432c0,0.766-0.14,1.41-0.417,1.934c-0.279,0.521-0.633,0.932-1.061,1.229
	c-0.429,0.298-0.863,0.495-1.307,0.592c-0.604,0.119-1.475,0.179-2.615,0.179h-1.643v4.709H74.43V94.559z M76.951,84.188v3.543
	h1.378c0.994,0,1.657-0.065,1.994-0.196c0.334-0.13,0.598-0.334,0.786-0.613c0.19-0.276,0.285-0.601,0.285-0.97
	c0-0.454-0.133-0.829-0.399-1.124s-0.604-0.479-1.013-0.554c-0.303-0.059-0.906-0.086-1.813-0.086H76.951z"/>
<path fill="#00FFFF" d="M86.045,82.076h2.521v6.762c0,1.072,0.031,1.768,0.095,2.086c0.106,0.512,0.364,0.922,0.771,1.229
	c0.405,0.311,0.961,0.465,1.666,0.465c0.715,0,1.254-0.146,1.616-0.438c0.363-0.293,0.582-0.65,0.655-1.076
	c0.074-0.427,0.111-1.133,0.111-2.121v-6.905H96v6.557c0,1.498-0.068,2.558-0.204,3.177c-0.137,0.619-0.388,1.141-0.755,1.566
	c-0.364,0.425-0.854,0.766-1.469,1.02c-0.613,0.25-1.412,0.377-2.4,0.377c-1.191,0-2.097-0.138-2.712-0.412
	c-0.616-0.276-1.103-0.635-1.461-1.073c-0.356-0.44-0.593-0.899-0.706-1.384c-0.165-0.715-0.248-1.771-0.248-3.168V82.076z"/>
<path fill="#00FFFF" d="M64.376,37.505C37.869,37.505,16.381,59,16.381,85h4c0-23,19.698-43.496,43.996-43.496
	C86.292,41.504,104.458,57,107.813,79h4.045C108.469,55,88.505,37.505,64.376,37.505z"/>
<path fill="#00FFFF" d="M64.284,48.047c-20.985,0-37.997,17.033-37.997,38.018c0,10.41,4.189,19.851,10.969,26.713l2.828-2.823
	c-6.057-6.14-9.798-14.565-9.798-23.87c0-18.775,15.22-34.038,33.998-34.039C80.658,52.045,94.328,64,97.557,79h4.069
	C98.338,62,82.876,48.047,64.284,48.047z"/>
<path fill="#00FFFF" d="M39.979,24.593l2.995-1.591c0.62,0.969,1.318,1.581,2.096,1.835c0.776,0.254,1.652,0.179,2.627-0.223
	c1.033-0.427,1.721-0.966,2.063-1.62c0.344-0.652,0.395-1.271,0.152-1.856c-0.154-0.375-0.396-0.648-0.726-0.822
	c-0.329-0.172-0.809-0.242-1.438-0.21c-0.43,0.025-1.38,0.147-2.854,0.366c-1.895,0.284-3.316,0.259-4.267-0.076
	c-1.336-0.471-2.263-1.334-2.781-2.591c-0.335-0.809-0.418-1.66-0.25-2.554c0.168-0.893,0.607-1.703,1.318-2.427
	c0.711-0.725,1.676-1.338,2.896-1.842c1.993-0.823,3.674-1.005,5.042-0.548s2.379,1.405,3.031,2.843l-3.147,1.464
	c-0.475-0.759-1.011-1.224-1.609-1.395c-0.6-0.171-1.351-0.07-2.253,0.303c-0.932,0.384-1.582,0.877-1.951,1.478
	c-0.237,0.385-0.271,0.784-0.102,1.195c0.155,0.376,0.446,0.632,0.875,0.767c0.544,0.173,1.672,0.121,3.384-0.155
	c1.712-0.276,3.023-0.372,3.933-0.287c0.91,0.085,1.717,0.381,2.422,0.89c0.704,0.508,1.264,1.264,1.678,2.267
	c0.376,0.909,0.475,1.866,0.298,2.869c-0.178,1.004-0.649,1.889-1.414,2.657c-0.765,0.768-1.837,1.437-3.216,2.006
	c-2.007,0.829-3.74,1.002-5.2,0.519C42.123,27.37,40.922,26.283,39.979,24.593z"/>
<path fill="#00FFFF" d="M61.92,11.491l0.274,2.61l-2.237,0.235l0.524,4.988c0.106,1.011,0.189,1.596,0.249,1.759
	s0.172,0.291,0.335,0.383c0.163,0.093,0.353,0.128,0.571,0.105c0.303-0.032,0.731-0.182,1.284-0.453l0.546,2.512
	c-0.727,0.406-1.573,0.66-2.536,0.761c-0.59,0.062-1.133,0.019-1.628-0.13c-0.495-0.147-0.87-0.368-1.124-0.659
	c-0.255-0.292-0.453-0.701-0.595-1.228c-0.109-0.374-0.226-1.14-0.347-2.297l-0.566-5.396l-1.503,0.158l-0.274-2.61l1.503-0.158
	l-0.258-2.458l3.086-2.256l0.458,4.369L61.92,11.491z"/>
<path fill="#00FFFF" d="M68.838,15.534l-2.875-0.979c0.512-1.14,1.217-1.934,2.114-2.383c0.897-0.45,2.146-0.554,3.745-0.313
	c1.451,0.219,2.508,0.555,3.166,1.006s1.094,0.963,1.303,1.536c0.21,0.572,0.209,1.566-0.005,2.979l-0.608,3.795
	c-0.164,1.082-0.232,1.889-0.205,2.418c0.026,0.529,0.139,1.108,0.336,1.738l-3.222-0.486c-0.053-0.229-0.108-0.564-0.168-1.008
	c-0.024-0.202-0.044-0.336-0.058-0.4c-0.639,0.457-1.294,0.772-1.969,0.947c-0.674,0.175-1.37,0.207-2.088,0.099
	c-1.268-0.191-2.215-0.686-2.841-1.483s-0.86-1.722-0.701-2.772c0.104-0.694,0.365-1.29,0.779-1.784
	c0.414-0.495,0.942-0.842,1.585-1.04c0.643-0.2,1.545-0.322,2.704-0.369c1.565-0.056,2.66-0.163,3.284-0.321l0.049-0.325
	c0.096-0.625,0.008-1.095-0.261-1.407c-0.269-0.313-0.832-0.534-1.689-0.664c-0.579-0.088-1.049-0.042-1.407,0.137
	C69.447,14.632,69.125,14.992,68.838,15.534z M72.795,18.833c-0.438,0.076-1.123,0.143-2.057,0.199
	c-0.933,0.057-1.552,0.157-1.858,0.301c-0.47,0.236-0.74,0.587-0.81,1.05c-0.069,0.456,0.041,0.877,0.33,1.26
	c0.29,0.384,0.697,0.615,1.223,0.694c0.588,0.089,1.177-0.021,1.768-0.325c0.439-0.234,0.752-0.555,0.939-0.961
	c0.127-0.266,0.25-0.789,0.367-1.568L72.795,18.833z"/>
<path fill="#00FFFF" d="M87.864,17.167l-1.036,2.412l-2.067-0.889l-1.98,4.608c-0.401,0.933-0.615,1.485-0.642,1.656
	c-0.027,0.172,0.008,0.338,0.104,0.498c0.097,0.161,0.246,0.284,0.447,0.37c0.28,0.121,0.728,0.198,1.342,0.232l-0.751,2.459
	c-0.832-0.002-1.694-0.193-2.584-0.575c-0.546-0.235-0.998-0.537-1.357-0.909c-0.359-0.371-0.578-0.746-0.658-1.125
	c-0.08-0.378-0.053-0.832,0.081-1.361c0.087-0.379,0.359-1.104,0.819-2.173l2.143-4.985l-1.389-0.597l1.035-2.412l1.389,0.597
	l0.977-2.271l3.796-0.462l-1.735,4.038L87.864,17.167z"/>
</svg>
