<?xml version="1.0" encoding="utf-8"?>
<!-- Generator: Adobe Illustrator 16.0.0, SVG Export Plug-In . SVG Version: 6.00 Build 0)  -->
<!DOCTYPE svg PUBLIC "-//W3C//DTD SVG 1.1//EN" "http://www.w3.org/Graphics/SVG/1.1/DTD/svg11.dtd">
<svg version="1.1" id="레이어_1" xmlns="http://www.w3.org/2000/svg" xmlns:xlink="http://www.w3.org/1999/xlink" x="0px"
	 y="0px" width="36px" height="36px" viewBox="0 0 36 36" enable-background="new 0 0 36 36" xml:space="preserve">
<path fill="#E70095" d="M25.816,23.732h-0.045c-0.815-0.015-1.822-0.387-2.758-1.023c0,0-0.358-0.244-0.389-0.266
	c-0.016-0.016-0.691-0.568-1.221-1v-5.484c0.547-0.422,1.309-1.008,1.327-1.023c0.026-0.017,0.257-0.169,0.286-0.187
	c0.023-0.015,0.16-0.089,0.16-0.089l0.209-0.114c0,0,0.004-0.024,0.006-0.03c0.813-0.473,1.617-0.706,2.449-0.706l0.074,0.001
	c2.063,0.032,3.71,2.284,3.67,5.016C29.544,21.532,27.853,23.732,25.816,23.732 M18.045,31.635c-1.261,0-2.286-0.885-2.286-1.97
	V24.33c0.061-0.049,0.103-0.083,0.104-0.084c0.006-0.006,1.343-1.039,1.37-1.061c0.018-0.01,0.058-0.039,0.058-0.039l0.042-0.031
	c0.185-0.141,0.434-0.22,0.699-0.22h0.026c0.25,0.003,0.491,0.083,0.678,0.224c0.005,0.004,0.981,0.803,1.593,1.303v5.243
	C20.33,30.75,19.304,31.635,18.045,31.635 M14.084,21.904c0,0-0.601,0.485-0.628,0.506c-1.047,0.747-2.172,1.176-3.086,1.176h-0.052
	c-0.8-0.012-1.588-0.379-2.226-1.032c-0.939-0.969-1.467-2.421-1.442-3.981c0.021-1.562,0.591-2.997,1.561-3.937
	c0.642-0.624,1.424-0.967,2.199-0.967c0,0,0.053,0,0.054,0c0.993,0.015,2.206,0.477,3.25,1.239c0.072,0.061,0.373,0.311,0.377,0.314
	l0.594,0.487v5.732L14.084,21.904z M18.045,4.28c1.259,0,2.285,0.886,2.285,1.972v6.784c-0.617,0.474-1.451,1.116-1.469,1.13
	c-0.191,0.132-0.43,0.205-0.675,0.205c-0.009,0-0.076-0.004-0.076-0.004h-0.021c-0.272-0.002-0.525-0.088-0.71-0.24l-0.065-0.052
	c0,0-0.041-0.028-0.059-0.038c-0.041-0.035-1.321-1.087-1.321-1.087l-0.175-0.144V6.252C15.758,5.166,16.785,4.28,18.045,4.28
	 M15.758,16.553c0.658,0.467,1.46,0.742,2.285,0.76h-0.008l0.097,0.004l0.033,0.001h0.058c0.748,0,1.479-0.212,2.107-0.582v3.871
	c-0.646-0.421-1.412-0.666-2.207-0.675l-0.055-0.001c-0.829,0-1.64,0.256-2.31,0.709V16.553z M25.926,10.867
	c-1.596-0.026-3.076,0.435-4.521,1.384V6.252c0-1.68-1.507-3.046-3.359-3.046c-1.853,0-3.36,1.366-3.36,3.046v5.796
	c-1.359-0.818-2.881-1.305-4.216-1.326l0.009,0.009c-0.03-0.003-0.058-0.009-0.09-0.009c-1.561,0-3.078,0.639-4.275,1.8
	c-1.528,1.483-2.424,3.676-2.458,6.016c-0.034,2.339,0.797,4.554,2.282,6.082c1.187,1.222,2.713,1.907,4.3,1.929h0.08
	c1.381,0,2.945-0.516,4.366-1.424v4.539c0,1.678,1.508,3.045,3.361,3.045c1.851,0,3.357-1.367,3.357-3.045V25.22
	c1.389,0.916,2.94,1.453,4.283,1.477h0.08c1.809,0,3.507-0.837,4.778-2.353c1.231-1.465,1.928-3.404,1.958-5.465
	C32.564,14.518,29.615,10.922,25.926,10.867"/>
</svg>
