<?xml version="1.0" encoding="utf-8"?>
<!-- Generator: Adobe Illustrator 16.0.0, SVG Export Plug-In . SVG Version: 6.00 Build 0)  -->
<!DOCTYPE svg PUBLIC "-//W3C//DTD SVG 1.1//EN" "http://www.w3.org/Graphics/SVG/1.1/DTD/svg11.dtd">
<svg version="1.1" id="레이어_1" xmlns="http://www.w3.org/2000/svg" xmlns:xlink="http://www.w3.org/1999/xlink" x="0px"
	 y="0px" width="125px" height="404px" viewBox="0 0 125 404" enable-background="new 0 0 125 404" xml:space="preserve">
<path fill="#111111" d="M96.781,397.053L96.781,397.053c-0.208,0-0.375-0.169-0.375-0.376l0.001-0.298
	c0.063-11.558-2.527-49.554-38.552-53.313c-11.307-1.18-19.154-5.193-22.693-11.604c-2.94-5.328-2.719-12.25,0.606-18.992
	c2.15-4.356,6.249-9.327,10.996-15.083c6.126-7.429,13.07-15.849,17.353-24.979c8.673-18.481-5.955-44.115-42.301-74.13
	C8.181,187.021,2.209,177.553,4.064,170.135c1.948-7.786,11.922-10.912,17.694-12.082c9.25-1.872,30.118,2.539,41.9,7.583
	c5.083,2.174,9.259,4.765,13.297,7.271c3.387,2.103,6.889,4.274,10.99,6.261c1.013,0.49,2.361,1.367,3.923,2.383
	c3.897,2.534,9.239,6.005,11.511,4.54c1.153-0.742,1.488-2.778,0.995-6.052c-0.542-3.613-2.358-11.4-3.532-15.148
	c-4.402-14.041-10.14-22.523-19.801-29.278c-11.309-7.905-26.485-12.268-39.619-11.391c-6.434,0.434-14.063-7.638-16.891-13.378
	c-3.544-7.188-6.045-15.102-7.871-24.902c-0.781-4.201-0.136-7.581,1.916-10.048c4.567-5.49,15.108-5.479,22.794-5.472
	c1.655,0.001,3.221,0.003,4.523-0.053l1.779-0.072c6.148-0.24,12.506-0.489,17.212-3.65c4.234-2.843,8.986-8.872,9.415-15.388
	c0.364-5.539-1.038-12.134-3.572-16.802c-2.281-4.191-4.928-8.537-7.263-12.372c-2.256-3.706-4.205-6.906-5.411-9.266
	c-0.094-0.185-0.021-0.411,0.163-0.505c0.186-0.094,0.41-0.02,0.505,0.163c1.193,2.334,3.135,5.524,5.384,9.217
	c2.34,3.843,4.99,8.196,7.279,12.404c2.6,4.784,4.035,11.539,3.662,17.208c-0.511,7.777-6.365,13.692-9.745,15.962
	c-4.882,3.279-11.348,3.532-17.601,3.776l-1.776,0.071c-1.319,0.058-2.893,0.057-4.556,0.055
	c-7.535,0.012-17.875-0.018-22.217,5.202c-1.903,2.287-2.494,5.46-1.755,9.431c1.813,9.732,4.293,17.583,7.807,24.708
	c2.738,5.557,10.066,13.364,16.168,12.962c13.283-0.9,28.657,3.524,40.098,11.525c9.812,6.858,15.63,15.454,20.087,29.667
	c1.184,3.775,3.012,11.621,3.56,15.262c0.548,3.642,0.112,5.864-1.331,6.794c-2.686,1.725-8.029-1.749-12.326-4.542
	c-1.54-1.002-2.871-1.867-3.841-2.337c-4.138-2.003-7.655-4.187-11.06-6.298c-4.199-2.605-8.166-5.066-13.195-7.218
	c-11.443-4.899-32.482-9.353-41.456-7.538c-5.599,1.135-15.268,4.142-17.116,11.527c-1.779,7.113,4.109,16.326,17.501,27.382
	c37.163,30.688,51.463,55.932,42.503,75.026c-4.324,9.215-11.299,17.674-17.454,25.138c-4.717,5.721-8.79,10.659-10.901,14.938
	c-3.215,6.519-3.442,13.188-0.622,18.297c3.415,6.188,11.063,10.068,22.115,11.223c36.651,3.825,39.29,42.347,39.224,54.063
	l-0.001,0.296C97.156,396.885,96.988,397.053,96.781,397.053z"/>
<path fill="#111111" d="M96.781,397.053c-0.006,0-0.01,0-0.016,0c-0.207-0.009-0.367-0.184-0.359-0.391
	c0.189-4.85,0.843-47.584-34.272-54.565c-6.138-1.22-11.475-3.562-15.434-6.771c-6.903-5.604-8.557-14.61-4.537-24.711
	c1.851-4.65,5.486-9.933,9.334-15.522c4.982-7.238,10.629-15.443,13.667-24.103c2.836-8.078,1.454-17.193-4.108-27.091
	c-7.449-13.257-22.545-27.324-40.025-43.611c-10.101-9.414-15.244-17.575-15.289-24.256c-0.023-3.597,1.422-6.814,4.296-9.564
	c4.084-3.905,10.347-5.974,14.881-7.021c5.821-1.346,16.203-0.675,27.773,1.797c5.543,1.185,10.397,2.854,14.427,4.962
	c2.773,1.451,4.959,2.803,6.879,4.253c0.891,0.672,1.759,1.336,2.615,1.991c4.318,3.304,8.396,6.425,13.39,8.998
	c0.625,0.322,1.356,0.731,2.159,1.181c3.854,2.154,9.679,5.416,12.38,3.629c1.332-0.882,1.828-2.99,1.472-6.266
	c-0.459-4.219-1.902-12.319-2.969-16.67c-3.999-16.307-10.37-26.607-20.051-32.42c-10.744-6.454-25.685-9.153-38.989-7.042
	c-6.811,1.081-14.118-6.207-17.027-10.211c-3.913-5.385-6.675-11.136-8.446-17.58c-0.408-1.486-0.738-2.966-0.98-4.396
	c-1.292-7.558,2.453-11.32,5.822-13.146c4.401-2.38,10.737-3.206,16.328-3.934c2.104-0.274,4.09-0.533,5.712-0.851
	c1.296-0.255,2.601-0.479,3.896-0.7c4.193-0.72,8.154-1.397,11.471-3.028c0.918-0.451,1.784-0.987,2.572-1.593
	c4.111-3.155,8.606-8.946,8.893-15.734c0.195-4.315-0.717-11.015-3.859-16.875c-2.724-5.089-6.098-10.265-9.074-14.831
	c-2.12-3.251-3.951-6.06-5.094-8.152c-0.099-0.183-0.032-0.41,0.149-0.51c0.183-0.099,0.41-0.031,0.509,0.149
	c1.129,2.068,2.952,4.865,5.063,8.103c2.985,4.579,6.369,9.77,9.107,14.887c3.214,5.994,4.146,12.847,3.948,17.262
	c-0.296,7.045-4.938,13.038-9.185,16.296c-0.83,0.636-1.736,1.198-2.7,1.671c-3.415,1.679-7.427,2.366-11.675,3.094
	c-1.289,0.222-2.587,0.443-3.878,0.697c-1.646,0.322-3.644,0.583-5.76,0.858c-5.526,0.72-11.789,1.536-16.068,3.85
	c-3.153,1.709-6.657,5.241-5.439,12.361c0.239,1.406,0.563,2.859,0.965,4.323c1.771,6.442,4.417,11.952,8.329,17.338
	c3.272,4.503,10.314,10.863,16.303,9.909c13.471-2.134,28.604,0.602,39.493,7.142c9.862,5.921,16.344,16.371,20.393,32.884
	c1.072,4.374,2.523,12.523,2.986,16.769c0.395,3.627-0.195,5.906-1.805,6.971c-3.073,2.035-8.903-1.221-13.159-3.602
	c-0.794-0.443-1.519-0.849-2.137-1.167c-5.052-2.604-9.156-5.744-13.501-9.068c-0.855-0.654-1.723-1.318-2.611-1.989
	c-1.887-1.425-4.039-2.755-6.775-4.188c-3.914-2.047-8.835-3.738-14.235-4.893c-11.467-2.449-21.728-3.123-27.447-1.799
	c-4.442,1.026-10.57,3.045-14.531,6.833c-2.719,2.602-4.086,5.636-4.064,9.018c0.043,6.466,5.106,14.444,15.05,23.712
	c17.525,16.331,32.662,30.436,40.167,43.794c5.672,10.094,7.072,19.414,4.161,27.706c-3.071,8.753-8.748,17.002-13.756,24.279
	c-3.824,5.555-7.435,10.802-9.254,15.375c-3.891,9.773-2.318,18.468,4.313,23.852c3.864,3.133,9.088,5.421,15.107,6.616
	c35.726,7.104,35.067,50.417,34.876,55.332C97.148,396.895,96.98,397.053,96.781,397.053z"/>
<path fill="#111111" d="M96.781,397.053c-0.01,0-0.02,0-0.028-0.001c-0.206-0.017-0.36-0.195-0.346-0.402
	c0.034-0.448,1.938-45.345-30.005-55.528c-5.165-1.646-9.723-4.293-13.548-7.863c-5.936-5.536-7.461-14.237-4.296-24.5
	c1.511-4.896,4.403-10.167,7.464-15.748c4.098-7.471,8.335-15.195,10.194-23.428c1.753-7.773-0.376-16.576-6.157-25.458
	c-5.062-7.779-13.098-15.514-22.403-24.469c-5.624-5.411-11.439-11.009-17.41-17.364c-8.801-9.373-12.935-17.145-12.639-23.759
	c0.177-3.938,2.004-7.48,5.43-10.529c3.415-3.033,8.617-5.513,15.043-7.168c6.126-1.575,16.615-1.304,28.059,0.729
	c5.77,1.021,10.493,2.728,14.439,5.212c1.988,1.253,4.303,2.806,6.391,4.811c4.825,4.642,9.383,9.025,15.094,12.139
	c6.375,3.478,11.041,4.48,13.494,2.903c1.633-1.05,2.336-3.298,2.094-6.685c-0.324-4.521-1.367-12.908-2.4-18.184
	c-3.656-18.68-10.486-30.647-20.301-35.569c-10.077-5.059-24.777-6.092-38.365-2.695c-4.758,1.188-10.525-1.178-17.14-7.037
	c-4.968-4.397-8.031-8.915-9.933-14.65c-0.485-1.465-0.846-2.944-1.072-4.396c-1.254-8.058,3.682-12.001,5.863-13.323
	c3.584-2.177,8.969-3.634,13.72-4.919c2.545-0.688,4.95-1.339,6.908-2.043c1.761-0.633,3.553-1.18,5.287-1.707
	c3.376-1.028,6.566-1.999,9.171-3.486c0.851-0.485,1.67-1.068,2.435-1.734c2.458-2.14,8.194-7.988,8.366-16.084
	c0.115-5.483-1.436-11.82-4.146-16.95c-3.05-5.781-7.235-11.827-10.597-16.686c-2.108-3.046-3.929-5.677-5.065-7.64
	c-0.104-0.179-0.042-0.409,0.137-0.513c0.18-0.104,0.409-0.043,0.513,0.137c1.121,1.937,2.934,4.557,5.033,7.589
	c3.374,4.875,7.572,10.941,10.644,16.762c2.769,5.237,4.351,11.71,4.231,17.316c-0.178,8.395-6.09,14.43-8.624,16.634
	c-0.802,0.699-1.662,1.312-2.556,1.82c-2.678,1.528-5.907,2.511-9.324,3.552c-1.725,0.525-3.509,1.068-5.252,1.695
	c-1.987,0.714-4.406,1.369-6.966,2.062c-4.703,1.272-10.033,2.714-13.526,4.836c-2.052,1.244-6.695,4.957-5.511,12.566
	c0.22,1.413,0.571,2.852,1.043,4.276c1.858,5.603,4.854,10.021,9.718,14.324c6.419,5.688,11.957,7.998,16.461,6.871
	c13.753-3.437,28.654-2.382,38.883,2.753c10.032,5.031,16.998,17.175,20.7,36.095c1.039,5.303,2.087,13.73,2.414,18.275
	c0.264,3.68-0.557,6.159-2.438,7.368c-2.732,1.76-7.531,0.794-14.26-2.875c-5.798-3.16-10.391-7.579-15.253-12.256
	c-2.039-1.958-4.314-3.483-6.271-4.716c-3.863-2.434-8.498-4.104-14.171-5.108c-11.344-2.014-21.714-2.291-27.741-0.74
	c-6.312,1.626-11.406,4.048-14.732,7.002c-3.315,2.95-5.01,6.223-5.179,10.003c-0.283,6.313,3.901,14.121,12.436,23.21
	c5.957,6.344,11.766,11.934,17.383,17.34c9.338,8.985,17.403,16.747,22.512,24.6c5.894,9.054,8.059,18.056,6.261,26.031
	c-1.883,8.336-6.146,16.106-10.269,23.623c-3.043,5.547-5.917,10.785-7.405,15.607c-2.176,7.056-3.233,16.899,4.091,23.73
	c3.744,3.495,8.207,6.086,13.266,7.697c32.479,10.356,30.558,55.846,30.523,56.3C97.141,396.902,96.977,397.053,96.781,397.053z"/>
<path fill="#111111" d="M96.781,397.053c-0.014,0-0.026-0.001-0.041-0.002c-0.205-0.022-0.354-0.208-0.332-0.414
	c0.714-6.539-1.003-44.739-25.741-56.497c-5.437-2.583-9.088-6.142-11.661-8.952c-5.058-5.524-6.419-13.695-4.048-24.285
	c1.126-5.021,3.207-10.161,5.41-15.603c3.034-7.49,6.17-15.236,6.903-23.12c0.701-7.544-2.136-15.785-8.205-23.834
	c-4.205-5.573-10-10.815-16.711-16.885c-7.251-6.56-15.47-13.992-22.892-23.167c-12.395-15.329-13.481-26.371-3.419-34.753
	c3.652-3.041,8.765-5.502,15.199-7.315c6.578-1.856,16.909-1.982,28.346-0.347c6.049,0.868,10.641,2.605,14.45,5.47
	c1.872,1.404,4.036,3.14,5.896,5.366c5.224,6.249,9.219,10.426,14.186,13.285c3.555,2.043,8.876,3.341,12.152,1.36
	c2.142-1.294,3.156-3.805,3.019-7.461c-0.197-5.18-0.906-13.845-1.831-19.699c-1.919-12.146-7.141-33.328-20.549-38.729
	c-9.317-3.75-23.78-3.116-37.746,1.655c-5.894,2.006-12.303-1.318-16.131-3.306c-0.39-0.201-0.756-0.393-1.097-0.563
	c-4.431-2.233-8.885-5.198-11.441-11.714c-0.566-1.447-0.958-2.927-1.164-4.4c-1.12-8.011,4.233-12.356,5.9-13.499
	c2.824-1.934,7.042-3.717,11.122-5.441c2.843-1.202,5.782-2.445,8.103-3.688c2.08-1.114,4.2-2.06,6.25-2.974
	c2.704-1.205,5.258-2.345,7.293-3.692c0.787-0.522,1.561-1.154,2.3-1.875c3.581-3.503,7.85-9.199,7.838-16.437
	c-0.008-5.362-1.664-11.727-4.435-17.023c-3.336-6.411-8.161-13.028-12.038-18.346c-2.13-2.922-3.97-5.446-5.117-7.325
	c-0.108-0.177-0.052-0.408,0.125-0.516c0.177-0.108,0.408-0.052,0.516,0.125c1.13,1.853,2.962,4.364,5.083,7.272
	c3.892,5.338,8.735,11.981,12.097,18.441c2.864,5.479,4.512,11.81,4.521,17.369c0.01,7.499-4.38,13.369-8.064,16.975
	c-0.773,0.754-1.583,1.415-2.409,1.963c-2.087,1.383-4.669,2.534-7.402,3.752c-2.038,0.909-4.145,1.848-6.201,2.95
	c-2.351,1.259-5.307,2.509-8.165,3.717c-4.045,1.711-8.228,3.479-10.99,5.371c-1.577,1.08-6.641,5.191-5.581,12.775
	c0.198,1.415,0.575,2.838,1.119,4.229c2.464,6.281,6.782,9.151,11.081,11.317c0.343,0.173,0.712,0.364,1.105,0.568
	c3.962,2.058,9.952,5.165,15.543,3.262c14.344-4.898,28.65-5.513,38.268-1.641c13.752,5.539,19.066,27.004,21.011,39.308
	c0.931,5.884,1.644,14.587,1.841,19.789c0.148,3.949-0.988,6.686-3.381,8.132c-3.559,2.147-9.05,0.868-12.914-1.354
	c-5.063-2.915-9.109-7.141-14.389-13.455c-1.809-2.167-3.932-3.868-5.769-5.248c-3.704-2.784-8.188-4.478-14.106-5.326
	c-11.338-1.622-21.556-1.503-28.036,0.326c-6.243,1.76-11.403,4.238-14.923,7.169c-9.674,8.06-8.555,18.77,3.522,33.705
	c7.385,9.13,15.581,16.542,22.812,23.082c6.459,5.843,12.56,11.359,16.807,16.99c6.183,8.2,9.072,16.621,8.351,24.354
	c-0.742,7.992-3.898,15.791-6.954,23.332c-2.191,5.411-4.261,10.522-5.374,15.484c-2.314,10.337-1.012,18.282,3.87,23.615
	c2.527,2.76,6.111,6.253,11.43,8.779c25.131,11.944,26.887,50.636,26.165,57.258C97.133,396.909,96.971,397.053,96.781,397.053z"/>
<path fill="#111111" d="M96.781,397.053c-0.018,0-0.035-0.001-0.053-0.004c-0.205-0.028-0.349-0.22-0.318-0.424
	c0.561-3.969-0.37-42.969-21.483-57.484c-4.511-3.097-7.458-6.981-9.407-9.552l-0.36-0.477c-5.409-7.098-4.872-16.591-3.799-24.067
	c0.699-4.881,1.994-9.876,3.244-14.709c2.018-7.788,4.103-15.842,3.729-23.556c-0.35-7.28-3.896-14.962-10.256-22.213
	c-3.8-4.329-8.803-8.426-14.1-12.764c-8.378-6.86-17.874-14.637-25.295-25.517c-10.588-15.52-10.472-26.707,0.365-35.21
	c3.846-3.016,9.015-5.526,15.363-7.465c6.997-2.133,17.433-2.648,28.629-1.415c6.338,0.702,10.798,2.469,14.461,5.727
	c1.706,1.515,3.683,3.403,5.396,5.921c4.461,6.537,8.426,11.492,13.279,14.428c3.247,1.964,7.303,2.123,10.33,0.402
	c2.878-1.634,4.45-4.769,4.428-8.826c-0.033-5.492-0.385-14.341-1.266-21.208c-2.971-23.184-10.743-38.842-20.791-41.886
	c-8.584-2.596-22.463-0.354-37.133,5.998c-5.256,2.274-10.828,0.875-14.897-0.147c-0.878-0.221-1.684-0.423-2.4-0.565
	c-5.917-1.18-10.386-3.119-12.965-8.759c-0.647-1.409-1.07-2.892-1.259-4.403c-0.751-6.082,2.573-11.05,5.935-13.672
	c2.125-1.658,5.25-3.503,8.56-5.457c3.224-1.903,6.557-3.872,9.27-5.843c2.309-1.676,4.655-3.087,6.923-4.451
	c2.125-1.278,4.131-2.485,5.696-3.688c0.726-0.555,1.434-1.215,2.167-2.018c5.056-5.53,7.447-11.021,7.31-16.786
	c-0.129-5.313-1.85-11.542-4.721-17.094c-3.596-6.991-9.043-14.131-13.419-19.867c-2.179-2.856-4.061-5.323-5.23-7.153
	c-0.112-0.175-0.061-0.407,0.114-0.518c0.175-0.112,0.407-0.062,0.518,0.113c1.153,1.805,3.026,4.26,5.195,7.103
	c4.395,5.76,9.864,12.929,13.49,19.979c2.921,5.649,4.672,11.999,4.804,17.42c0.142,5.969-2.313,11.631-7.506,17.311
	c-0.763,0.836-1.503,1.524-2.264,2.106c-1.599,1.229-3.623,2.446-5.766,3.735c-2.255,1.356-4.586,2.759-6.87,4.416
	c-2.742,1.992-6.091,3.969-9.33,5.881c-3.287,1.941-6.393,3.774-8.479,5.402c-3.199,2.496-6.364,7.219-5.651,12.989
	c0.179,1.436,0.582,2.844,1.196,4.185c2.456,5.367,6.576,7.168,12.43,8.334c0.727,0.146,1.545,0.35,2.436,0.574
	c3.964,0.996,9.393,2.358,14.417,0.186c14.83-6.418,28.902-8.671,37.648-6.026c10.34,3.132,18.309,19.022,21.318,42.508
	c0.885,6.899,1.236,15.787,1.271,21.299c0.024,4.341-1.683,7.709-4.807,9.482c-3.261,1.851-7.613,1.688-11.09-0.413
	c-4.971-3.006-8.995-8.03-13.51-14.647c-1.67-2.451-3.604-4.298-5.275-5.783c-3.54-3.147-7.871-4.856-14.045-5.542
	c-11.1-1.224-21.425-0.718-28.328,1.389c-6.259,1.91-11.346,4.379-15.119,7.336c-10.604,8.319-10.668,18.866-0.209,34.197
	c7.361,10.79,16.813,18.53,25.151,25.358c5.322,4.357,10.348,8.474,14.188,12.85c6.473,7.381,10.084,15.22,10.443,22.672
	c0.379,7.825-1.722,15.937-3.752,23.778c-1.245,4.813-2.534,9.789-3.228,14.628c-1.052,7.332-1.587,16.631,3.652,23.506l0.362,0.479
	c1.921,2.53,4.824,6.357,9.234,9.387c21.414,14.722,22.368,54.193,21.801,58.208C97.126,396.918,96.966,397.053,96.781,397.053z"/>
<path fill="#111111" d="M96.781,397.053c-0.021,0-0.042-0.002-0.063-0.006c-0.204-0.034-0.341-0.229-0.307-0.434
	c0.731-4.266-1.099-42.463-17.224-58.479c-3.375-3.352-5.463-6.956-6.986-9.588c-0.323-0.559-0.618-1.067-0.893-1.516
	c-4.258-6.967-4.106-15.253-3.548-23.841c0.267-4.082,0.733-8.134,1.185-12.052c1.057-9.147,2.053-17.788,0.455-25.756
	c-1.422-7.106-5.565-14.033-12.314-20.589c-3.586-3.484-7.988-6.677-12.648-10.056c-9.262-6.716-19.76-14.326-26.54-26.456
	c-8.901-15.921-7.622-26.921,4.146-35.665c4.054-3.008,9.277-5.569,15.526-7.613c7.584-2.481,17.854-3.363,28.917-2.484
	c6.642,0.526,10.968,2.313,14.467,5.979c2.087,2.189,3.642,4.247,4.895,6.473c4.791,8.521,8.379,13.035,12.385,15.578
	c2.424,1.54,5.357,1.602,8.054,0.167c3.694-1.965,6.161-6.248,6.284-10.909c0.078-3.009,0.261-13.54-0.693-22.72
	c-2.096-20.157-8.723-42.577-21.036-45.048c-7.729-1.553-21.043,2.217-36.525,10.344c-4.888,2.563-10.009,2.473-14.126,2.402
	c-1.174-0.021-2.283-0.041-3.24,0.01c-6.872,0.358-11.693-0.481-14.486-5.776c-0.732-1.384-1.188-2.869-1.354-4.411
	c-0.608-5.695,2.685-10.882,5.969-13.836c1.492-1.343,3.626-3.004,6.096-4.928c3.383-2.634,7.216-5.619,10.347-8.542
	c2.505-2.337,5.126-4.375,7.439-6.173c1.59-1.236,3.092-2.403,4.25-3.438c0.663-0.594,1.329-1.302,2.036-2.166
	c3.544-4.321,7.121-9.737,6.776-17.136c-0.24-5.231-2.019-11.329-5.005-17.171c-3.849-7.562-10.178-15.529-14.8-21.348
	c-2.228-2.805-4.151-5.227-5.347-7.017c-0.115-0.172-0.068-0.405,0.104-0.521c0.172-0.115,0.405-0.067,0.521,0.104
	c1.179,1.766,3.093,4.176,5.311,6.967c4.641,5.844,10.998,13.847,14.88,21.474c3.034,5.935,4.84,12.142,5.088,17.477
	c0.355,7.697-3.525,13.475-6.947,17.646c-0.732,0.894-1.424,1.629-2.116,2.249c-1.176,1.053-2.688,2.228-4.289,3.472
	c-2.3,1.788-4.908,3.815-7.388,6.129c-3.155,2.945-7.003,5.941-10.398,8.585c-2.459,1.915-4.583,3.569-6.055,4.895
	c-3.146,2.831-6.303,7.783-5.725,13.198c0.158,1.469,0.573,2.822,1.271,4.142c2.607,4.941,7.208,5.724,13.784,5.377
	c0.982-0.052,2.105-0.032,3.292-0.011c4.027,0.069,9.045,0.158,13.764-2.316c15.63-8.206,29.119-12.002,37.022-10.416
	c12.712,2.551,19.511,25.283,21.634,45.706c0.958,9.225,0.774,19.796,0.696,22.816c-0.131,4.928-2.754,9.462-6.682,11.552
	c-2.938,1.564-6.149,1.494-8.809-0.197c-4.118-2.615-7.779-7.206-12.637-15.844c-1.221-2.17-2.739-4.18-4.782-6.322
	c-3.359-3.52-7.541-5.238-13.981-5.748c-10.81-0.86-21.242,0.034-28.625,2.449c-6.172,2.019-11.324,4.543-15.312,7.503
	c-11.403,8.473-12.618,19.173-3.939,34.698c6.699,11.982,17.126,19.544,26.326,26.214c4.683,3.396,9.106,6.603,12.73,10.125
	c6.859,6.662,11.076,13.721,12.529,20.979c1.619,8.083,0.616,16.78-0.445,25.988c-0.45,3.909-0.916,7.951-1.183,12.015
	c-0.552,8.463-0.702,16.621,3.44,23.401c0.275,0.451,0.574,0.966,0.9,1.528c1.502,2.597,3.562,6.151,6.865,9.434
	c16.315,16.206,18.174,54.825,17.434,59.138C97.119,396.924,96.961,397.053,96.781,397.053z"/>
<path fill="#111111" d="M96.781,397.053c-0.024,0-0.049-0.002-0.074-0.008c-0.202-0.04-0.334-0.238-0.293-0.441
	c1.072-5.344-1.48-42.476-12.961-59.488c-2.539-3.762-4.021-7.406-5.105-10.068c-0.332-0.816-0.621-1.527-0.887-2.103
	c-3.176-6.89-3.23-14.745-3.277-21.676l-0.017-1.932c-0.015-1.337-0.024-2.659-0.036-3.969c-0.107-12.855-0.199-23.959-3.648-33.382
	c-2.506-6.836-7.344-13.218-14.38-18.97c-3.448-2.818-7.447-5.338-11.681-8.004c-10.084-6.353-21.514-13.552-27.304-26.739
	c-7.075-16.104-4.629-27.243,7.93-36.115c4.27-3.016,9.547-5.628,15.687-7.767c8.11-2.819,18.48-4.079,29.206-3.553
	c6.971,0.347,11.162,2.155,14.472,6.24c1.776,2.192,3.214,4.488,4.391,7.018c4.292,9.216,7.728,14.219,11.487,16.729
	c1.884,1.259,3.914,1.361,6.025,0.312c4.029-2,7.571-8.001,7.896-13.376c0.239-3.983,0.708-14.316-0.125-24.228
	c-1.803-21.479-8.456-46.994-21.271-48.217c-6.752-0.646-19.515,4.574-35.924,14.693c-4.688,2.891-9.688,3.893-13.705,4.698
	c-1.348,0.271-2.621,0.524-3.746,0.822c-7.406,1.96-12.96,2.238-15.987-2.772c-0.83-1.374-1.303-2.818-1.448-4.415
	c-0.584-6.49,4.446-12.357,6.001-14c0.929-0.981,2.245-2.291,3.769-3.807c3.251-3.236,7.705-7.667,11.297-11.835
	c2.709-3.145,5.57-5.949,7.869-8.203c1.123-1.103,2.093-2.053,2.881-2.879c0.603-0.632,1.208-1.367,1.905-2.316
	c4.094-5.541,6.723-10.634,6.248-17.483c-0.354-5.14-2.184-11.104-5.292-17.248c-4.094-8.114-11.073-16.593-16.168-22.782
	c-2.281-2.771-4.251-5.165-5.476-6.928c-0.118-0.17-0.076-0.403,0.094-0.521c0.169-0.118,0.404-0.075,0.522,0.094
	c1.207,1.738,3.168,4.12,5.439,6.878c5.118,6.218,12.127,14.733,16.259,22.921c3.153,6.232,5.01,12.296,5.371,17.535
	c0.521,7.495-2.765,13.071-6.392,17.98c-0.716,0.975-1.341,1.733-1.966,2.389c-0.797,0.836-1.771,1.791-2.899,2.897
	c-2.289,2.243-5.136,5.036-7.825,8.156c-3.611,4.19-8.076,8.633-11.336,11.877c-1.519,1.513-2.832,2.818-3.752,3.791
	c-1.501,1.586-6.354,7.24-5.799,13.417c0.134,1.48,0.574,2.82,1.343,4.096c2.785,4.61,8.071,4.309,15.154,2.436
	c1.146-0.304,2.43-0.561,3.79-0.833c3.958-0.793,8.885-1.78,13.459-4.601c11.708-7.219,27.547-15.633,36.389-14.802
	c13.276,1.268,20.121,27.135,21.949,48.901c0.836,9.959,0.366,20.336,0.125,24.335c-0.338,5.614-4.066,11.896-8.311,14.003
	c-2.34,1.161-4.684,1.037-6.775-0.359c-3.883-2.592-7.396-7.687-11.751-17.036c-1.149-2.474-2.556-4.718-4.293-6.862
	c-3.159-3.9-7.194-5.628-13.927-5.963c-10.63-0.523-20.9,0.723-28.921,3.512c-6.073,2.116-11.288,4.696-15.5,7.67
	c-12.377,8.745-14.673,19.272-7.676,35.203c5.698,12.978,17.024,20.11,27.017,26.405c4.254,2.68,8.272,5.21,11.756,8.059
	c7.143,5.837,12.059,12.328,14.609,19.292c3.494,9.544,3.588,20.707,3.694,33.633c0.011,1.31,0.021,2.631,0.036,3.967l0.016,1.936
	c0.049,6.854,0.103,14.624,3.211,21.366c0.269,0.583,0.563,1.305,0.898,2.134c1.071,2.631,2.537,6.234,5.032,9.932
	c11.586,17.168,14.157,54.659,13.075,60.058C97.113,396.93,96.957,397.053,96.781,397.053z"/>
<path fill="#111111" d="M96.781,397.053c-0.027,0-0.057-0.003-0.083-0.01c-0.202-0.047-0.329-0.247-0.282-0.448
	c1.07-4.695-1.055-42.088-8.688-60.511c-1.778-4.289-2.795-8.235-3.465-10.848c-0.25-0.969-0.457-1.777-0.646-2.386
	c-1.899-6.114-2.301-12.359-2.688-18.399c-0.109-1.699-0.217-3.362-0.355-4.972c-1.459-16.86-4.237-28.238-9.008-36.891
	c-3.649-6.621-9.184-12.458-16.447-17.349c-3.308-2.226-6.964-4.186-10.835-6.261c-11.49-6.158-23.37-12.524-27.949-26.721
	c-5.324-16.51-1.822-27.443,11.709-36.558c4.52-3.044,9.854-5.708,15.854-7.917c8.689-3.195,19.167-4.844,29.491-4.625
	c7.215,0.148,11.406,2.03,14.473,6.495c1.488,2.17,2.759,4.646,3.885,7.568c3.824,9.902,7.095,15.417,10.602,17.881
	c1.491,1.05,3.06,1.211,4.658,0.477c4.588-2.104,8.361-10.944,8.846-15.868c0.808-8.222,0.974-17.841,0.444-25.729
	c-1.72-25.625-8.989-51.392-21.362-51.392c-0.05,0-0.099,0-0.147,0.001c-7.759,0.128-23.879,10.932-35.329,19.047
	c-4.716,3.339-9.564,5.318-13.841,7.064c-1.316,0.537-2.559,1.044-3.707,1.556c-7.011,3.123-13.979,5.311-17.472,0.235
	c-0.91-1.322-1.429-2.809-1.543-4.418c-0.384-5.329,3.259-10.634,6.032-14.16c0.438-0.556,1.005-1.269,1.673-2.104
	c2.953-3.702,7.895-9.896,12.021-15.717c3.046-4.294,6.151-8.08,8.418-10.844c0.522-0.638,0.991-1.208,1.391-1.704
	c0.67-0.833,1.249-1.678,1.775-2.468c3.404-5.121,6.403-10.339,5.714-17.836c-0.46-5.026-2.338-10.854-5.58-17.32
	c-4.336-8.662-11.966-17.64-17.538-24.196c-2.335-2.747-4.351-5.12-5.604-6.859c-0.121-0.169-0.083-0.402,0.085-0.523
	c0.169-0.121,0.403-0.083,0.523,0.085c1.236,1.716,3.243,4.078,5.567,6.813c5.596,6.585,13.261,15.604,17.636,24.348
	c3.284,6.551,5.187,12.468,5.656,17.588c0.711,7.734-2.494,13.291-5.836,18.32c-0.51,0.766-1.125,1.665-1.815,2.522
	c-0.402,0.498-0.872,1.07-1.395,1.708c-2.26,2.756-5.355,6.53-8.386,10.802c-4.138,5.839-9.088,12.043-12.046,15.751
	c-0.666,0.836-1.233,1.547-1.669,2.102c-2.697,3.428-6.239,8.572-5.874,13.643c0.106,1.496,0.569,2.819,1.414,4.047
	c2.572,3.737,7.365,3.595,16.548-0.495c1.159-0.517,2.407-1.026,3.728-1.565c4.24-1.731,9.045-3.692,13.691-6.982
	c11.532-8.172,27.784-19.053,35.75-19.185c13.813-0.23,20.648,27.918,22.271,52.09c0.531,7.927,0.364,17.592-0.447,25.854
	c-0.512,5.217-4.381,14.229-9.277,16.476c-1.862,0.854-3.68,0.669-5.403-0.544c-3.635-2.554-6.985-8.174-10.868-18.224
	c-1.105-2.869-2.35-5.293-3.804-7.414c-2.949-4.295-6.838-6.025-13.87-6.17c-10.247-0.217-20.612,1.415-29.215,4.578
	c-5.943,2.188-11.223,4.824-15.693,7.836c-13.203,8.894-16.617,19.571-11.414,35.705c4.485,13.907,16.23,20.202,27.589,26.29
	c3.888,2.084,7.561,4.054,10.9,6.299c7.363,4.958,12.978,10.883,16.685,17.609c4.823,8.747,7.629,20.216,9.1,37.188
	c0.14,1.612,0.246,3.281,0.355,4.987c0.385,5.996,0.781,12.195,2.655,18.226c0.192,0.622,0.407,1.456,0.656,2.421
	c0.666,2.592,1.673,6.507,3.432,10.747c7.863,18.976,9.841,56.076,8.726,60.964C97.107,396.935,96.953,397.053,96.781,397.053z"/>
<path fill="#111111" d="M96.781,397.053c-0.03,0-0.063-0.004-0.094-0.012c-0.199-0.052-0.32-0.256-0.271-0.456
	c1.271-4.993-0.349-41.563-4.399-61.535c-1.016-5.008-1.564-9.236-1.929-12.034c-0.123-0.947-0.223-1.715-0.31-2.271
	c-0.662-4.192-1.081-8.305-1.486-12.28c-0.391-3.82-0.758-7.43-1.311-10.839c-2.401-14.828-7.223-27.09-14.324-36.442
	c-6.169-8.118-13.475-13.028-18.518-15.718c-3.077-1.643-6.345-3.089-9.805-4.621c-12.583-5.572-25.593-11.335-28.777-26.599
	c-3.483-16.697,1.148-27.763,15.486-37c4.802-3.098,10.191-5.813,16.017-8.07c9.428-3.651,19.724-5.619,29.774-5.689
	c7.599-0.078,11.627,1.839,14.474,6.753c1.201,2.072,2.275,4.648,3.383,8.107c3.328,10.428,6.504,16.656,9.709,19.038
	c1.263,0.938,2.5,1.134,3.783,0.599c4.908-2.042,8.695-14.085,9.307-18.317c1.109-7.707,1.488-17.888,1.015-27.233
	c-1.055-19.358-5.599-44.701-14.937-52.41c-2.131-1.759-4.422-2.479-6.81-2.158c-6.651,0.911-20.931,12.346-34.739,23.403
	c-5.622,4.502-11.313,7.916-16.334,10.927l-1.325,0.795c-6.8,4.092-15.099,8.158-18.938,3.247c-1-1.28-1.553-2.769-1.643-4.421
	c-0.251-4.688,3.021-9.668,5.188-12.963c0.323-0.492,0.621-0.944,0.876-1.351l0.601-0.953c2.192-3.479,7.325-11.622,11.731-19.055
	c3.551-5.99,7.075-11.351,8.859-14.012c0.598-0.893,1.144-1.789,1.645-2.625c3.462-5.772,6.042-10.777,5.182-18.186
	c-0.552-4.868-2.471-10.557-5.866-17.391c-4.574-9.215-12.86-18.687-18.909-25.603c-2.387-2.728-4.448-5.083-5.73-6.807
	c-0.124-0.167-0.089-0.401,0.077-0.525c0.167-0.125,0.401-0.088,0.525,0.077c1.265,1.7,3.317,4.046,5.693,6.762
	c6.077,6.947,14.399,16.46,19.017,25.762c3.434,6.914,5.376,12.685,5.939,17.639c0.886,7.628-1.869,12.963-5.283,18.657
	c-0.506,0.844-1.058,1.75-1.666,2.655c-1.78,2.655-5.295,8.001-8.836,13.977c-4.412,7.441-9.549,15.592-11.742,19.071l-0.6,0.953
	c-0.258,0.41-0.558,0.867-0.884,1.363c-2.112,3.213-5.304,8.069-5.065,12.511c0.082,1.519,0.568,2.827,1.484,4
	c2.714,3.472,8.252,2.415,17.96-3.427l1.325-0.796c5.001-3,10.669-6.399,16.252-10.87c13.887-11.12,28.249-22.621,35.106-23.559
	c2.601-0.359,5.089,0.425,7.388,2.321c9.525,7.863,14.146,33.438,15.207,52.949c0.479,9.394,0.096,19.628-1.021,27.379
	c-0.647,4.495-4.504,16.717-9.76,18.903c-1.529,0.635-3.049,0.403-4.519-0.69c-3.382-2.514-6.552-8.682-9.978-19.411
	c-1.09-3.405-2.144-5.935-3.316-7.959c-2.689-4.644-6.604-6.455-13.818-6.379c-9.961,0.07-20.166,2.021-29.509,5.64
	c-5.778,2.238-11.122,4.932-15.881,8.001c-14.034,9.042-18.568,19.873-15.158,36.217c3.104,14.886,15.937,20.569,28.346,26.064
	c3.473,1.538,6.753,2.99,9.854,4.646c5.109,2.725,12.512,7.7,18.763,15.927c7.179,9.451,12.045,21.825,14.468,36.777
	c0.557,3.431,0.926,7.05,1.315,10.881c0.403,3.967,0.821,8.067,1.479,12.241c0.088,0.562,0.188,1.335,0.313,2.291
	c0.36,2.786,0.909,7,1.919,11.981c4.066,20.047,5.674,56.829,4.393,61.869C97.102,396.939,96.949,397.053,96.781,397.053z"/>
<path fill="#111111" d="M96.781,397.053c-0.033,0-0.067-0.004-0.102-0.015c-0.199-0.056-0.315-0.263-0.261-0.462
	c1.497-5.354,0.433-43.543-0.139-64.059c-0.188-6.671-0.333-11.938-0.333-13.879c0-54.382-38.399-71.217-42.777-72.957
	c-2.625-1.043-5.449-2.026-8.18-2.979c-14.055-4.896-28.589-9.958-30.204-26.479c-1.649-16.881,4.11-28.079,19.257-37.44
	c14.795-9.147,31.218-14.469,46.243-14.981c11.93-0.41,14.342,4.213,17.346,15.657c4.563,17.383,8.503,21.079,11.026,21.079
	c0.023,0,0.048,0,0.07-0.001c4.859-0.134,8.826-13.223,10.404-20.935c4.553-22.242-0.008-72.229-12.706-84.175
	c-2.397-2.255-4.985-3.032-7.688-2.303c-4.966,1.337-15.444,10.838-26.538,20.896c-15.582,14.127-33.271,30.147-42.07,29.658
	c-1.536-0.084-2.787-0.66-3.718-1.711c-4.072-4.596-0.19-11.097,2.645-15.844c0.703-1.178,1.31-2.193,1.71-3.039
	c2.476-5.226,15.476-31.429,18.879-37.673l0.528-0.969c6.139-11.242,9.521-17.435-0.522-37.814
	c-4.807-9.755-13.749-19.714-20.278-26.985c-2.438-2.715-4.543-5.06-5.855-6.771c-0.126-0.164-0.095-0.399,0.069-0.525
	s0.4-0.096,0.525,0.069c1.294,1.687,3.391,4.021,5.818,6.725c6.558,7.304,15.54,17.307,20.393,27.156
	c10.215,20.729,6.767,27.043,0.507,38.506l-0.528,0.968c-3.399,6.237-16.385,32.415-18.859,37.637
	c-0.416,0.878-1.031,1.908-1.744,3.102c-2.716,4.548-6.436,10.777-2.728,14.962c0.805,0.908,1.851,1.386,3.198,1.459
	c8.501,0.487,26.052-15.435,41.524-29.464c11.647-10.562,21.707-19.681,26.848-21.065c2.977-0.801,5.798,0.035,8.396,2.481
	c12.854,12.091,17.512,62.479,12.928,84.871c-0.447,2.185-4.557,21.354-11.118,21.533c-4.103,0.149-7.992-6.965-11.843-21.638
	c-2.958-11.268-5.174-15.495-16.596-15.097c-14.896,0.509-31.188,5.789-45.875,14.869c-15.066,9.313-20.543,19.954-18.905,36.73
	c1.568,16.041,15.872,21.023,29.704,25.843c2.739,0.953,5.571,1.939,8.211,2.988c4.427,1.761,43.25,18.778,43.25,73.654
	c0,1.93,0.146,7.192,0.332,13.856c0.613,21.999,1.641,58.818,0.113,64.281C97.096,396.944,96.945,397.053,96.781,397.053z"/>
</svg>
