<?xml version="1.0" encoding="utf-8"?>
<!-- Generator: Adobe Illustrator 16.0.0, SVG Export Plug-In . SVG Version: 6.00 Build 0)  -->
<!DOCTYPE svg PUBLIC "-//W3C//DTD SVG 1.1//EN" "http://www.w3.org/Graphics/SVG/1.1/DTD/svg11.dtd">
<svg version="1.1" id="레이어_1" xmlns="http://www.w3.org/2000/svg" xmlns:xlink="http://www.w3.org/1999/xlink" x="0px"
	 y="0px" width="18px" height="18px" viewBox="0 0 18 18" enable-background="new 0 0 18 18" xml:space="preserve">
<path fill="#E70095" d="M1.826,1.792C1.124,2.494,1.09,3.691,1.752,4.354c0.001,0,3.289,3.212,3.289,3.212
	c0.758,0.758,0.758,1.976,0.009,2.726l-3.224,3.226c-0.69,0.688-0.69,1.81,0,2.498c0.689,0.689,1.811,0.689,2.498,0.001l3.235-3.233
	c0.75-0.75,1.97-0.751,2.72-0.001c0.001,0.001,3.283,3.292,3.283,3.292c0.691,0.692,1.76,0.668,2.486-0.057
	c0.63-0.631,0.683-1.66,0.127-2.354c-0.104-0.105-3.389-3.39-3.389-3.39c-0.75-0.75-0.75-1.97,0.001-2.719l3.262-3.263
	c0.689-0.689,0.689-1.81,0-2.5c-0.689-0.69-1.812-0.69-2.499,0l-3.271,3.271c-0.752,0.75-1.97,0.75-2.72,0
	c0,0-3.312-3.311-3.451-3.45C3.41,1.112,2.435,1.182,1.826,1.792L1.826,1.792z"/>
</svg>
