<?xml version="1.0" encoding="utf-8"?>
<!-- Generator: Adobe Illustrator 16.0.0, SVG Export Plug-In . SVG Version: 6.00 Build 0)  -->
<!DOCTYPE svg PUBLIC "-//W3C//DTD SVG 1.1//EN" "http://www.w3.org/Graphics/SVG/1.1/DTD/svg11.dtd">
<svg version="1.1" id="레이어_1" xmlns="http://www.w3.org/2000/svg" xmlns:xlink="http://www.w3.org/1999/xlink" x="0px"
	 y="0px" width="18px" height="18px" viewBox="0 0 18 18" enable-background="new 0 0 18 18" xml:space="preserve">
<path fill="#E70095" d="M8.999,10.99c-1.097,0-1.989-0.891-1.989-1.989s0.892-1.99,1.989-1.99c1.099,0,1.99,0.892,1.99,1.99
	S10.098,10.99,8.999,10.99 M16.044,7.544h-3.517l2.391-2.39c0.573-0.574,0.573-1.505,0-2.077c-0.572-0.573-1.503-0.573-2.075,0
	l-2.376,2.375l0.001-3.336c-0.001-0.81-0.658-1.467-1.469-1.467c-0.809,0-1.467,0.657-1.467,1.467v3.343
	c-0.738-0.736-2.439-2.44-2.531-2.53C4.422,2.511,3.613,2.57,3.107,3.076L3.106,3.077c-0.583,0.583-0.61,1.577-0.06,2.127
	c0,0,1.685,1.647,2.409,2.352H1.884C1.178,7.669,0.648,8.284,0.648,9v0c0,0.824,0.683,1.545,1.46,1.545
	c0.001,0,2.26-0.024,3.302-0.039l-2.304,2.306c-0.573,0.572-0.573,1.502,0,2.076c0.571,0.572,1.502,0.572,2.075,0.001l2.35-2.351
	l0.002,3.347c0,0.809,0.657,1.468,1.466,1.468s1.467-0.659,1.467-1.468v-3.341c0.732,0.733,2.386,2.391,2.386,2.391
	c0.575,0.576,1.463,0.556,2.065-0.047c0.524-0.524,0.567-1.378,0.105-1.955c-0.065-0.066-1.693-1.694-2.443-2.444
	c1.053,0.002,3.345,0.007,3.345,0.007c0.813,0,1.427-0.644,1.427-1.495C17.352,8.26,16.777,7.626,16.044,7.544"/>
</svg>
