<?xml version="1.0" encoding="utf-8"?>
<!-- Generator: Adobe Illustrator 16.0.0, SVG Export Plug-In . SVG Version: 6.00 Build 0)  -->
<!DOCTYPE svg PUBLIC "-//W3C//DTD SVG 1.1//EN" "http://www.w3.org/Graphics/SVG/1.1/DTD/svg11.dtd">
<svg version="1.1" id="레이어_1" xmlns="http://www.w3.org/2000/svg" xmlns:xlink="http://www.w3.org/1999/xlink" x="0px"
	 y="0px" width="100px" height="100px" viewBox="0 0 100 100" enable-background="new 0 0 100 100" xml:space="preserve">
<path fill="#111111" d="M52.395,56.857h21.588c3.631,0,6.597-3.172,6.597-7.059c0-3.901-2.966-7.072-6.597-7.072H52.395v-6.779
	H74.54c6.278,0,11.372,6.203,11.372,13.834c0,7.637-5.094,13.844-11.372,13.844H52.395V56.857z M49.136,63.626h-22.15
	c-6.271,0-11.375-6.207-11.375-13.844c0-7.631,5.104-13.834,11.375-13.834h22.15v6.779H27.532c-3.641,0-6.6,3.171-6.6,7.072
	c0,3.887,2.959,7.059,6.6,7.059h21.604V63.626z M74.539,29.599H52.395V18.563h-3.259v11.036h-22.15
	c-9.865,0-17.876,9.054-17.876,20.184c0,11.14,8.011,20.207,17.876,20.207h22.15v11.023h3.259V69.99H74.54
	c9.856,0,17.883-9.068,17.883-20.208C92.422,38.652,84.396,29.599,74.539,29.599"/>
</svg>
