<?xml version="1.0" encoding="utf-8"?>
<!-- Generator: Adobe Illustrator 16.0.0, SVG Export Plug-In . SVG Version: 6.00 Build 0)  -->
<!DOCTYPE svg PUBLIC "-//W3C//DTD SVG 1.1//EN" "http://www.w3.org/Graphics/SVG/1.1/DTD/svg11.dtd">
<svg version="1.1" id="레이어_1" xmlns="http://www.w3.org/2000/svg" xmlns:xlink="http://www.w3.org/1999/xlink" x="0px"
	 y="0px" width="100px" height="100px" viewBox="0 0 100 100" enable-background="new 0 0 100 100" xml:space="preserve">
<path fill="#111111" d="M81.723,42.814c-1.543-0.845-4.121-1.85-7.639-1.857c-3.307-0.012-7.341,0.773-10.814,2.104
	c-0.281,0.119-5.733,2.469-5.733,2.469l-0.253,0.087c-1.251,0.508-2.693,0.878-4.211,1.078c0.229-1.573,0.631-3.05,1.201-4.355
	c0,0,2.555-5.852,2.654-6.076c0.063-0.164,0.201-0.553,0.201-0.553l0.014,0.012c1.291-3.268,1.898-6.419,1.908-9.91
	c0.018-6.988-3.992-12.713-8.943-12.759c-2.804-0.025-5.406,1.776-7.141,4.95c-0.843,1.545-1.854,4.126-1.861,7.645
	c-0.012,2.716,0.62,6.076,1.726,9.204c0,0,0.376,1.052,0.452,1.253c0.253,0.604,2.623,6.134,2.672,6.223
	c0.54,1.276,0.928,2.771,1.139,4.367c-1.659-0.224-3.232-0.634-4.603-1.235c0,0-5.851-2.558-6.077-2.658
	c-0.164-0.06-0.551-0.199-0.551-0.199l0.014-0.013c-3.274-1.294-6.421-1.9-9.912-1.91c-6.993-0.016-12.715,3.994-12.761,8.939
	c-0.023,2.81,1.776,5.411,4.95,7.144c1.545,0.846,4.129,1.854,7.643,1.861c2.716,0.012,6.079-0.621,9.207-1.725
	c0,0,1.051-0.377,1.255-0.45c0.604-0.259,6.132-2.63,6.217-2.675c1.343-0.567,2.921-0.961,4.605-1.168
	c-0.21,1.521-0.586,2.945-1.094,4.172l-0.094,0.252c0,0-1.966,4.494-1.988,4.548c0,0-0.768,1.666-0.857,1.866
	c-1.382,3.398-2.208,7.252-2.219,10.322c-0.021,6.984,3.994,12.709,8.939,12.758c2.808,0.024,5.411-1.78,7.143-4.951
	c0.85-1.545,1.859-4.125,1.863-7.639c0.01-3.306-0.775-7.345-2.105-10.813c-0.12-0.284-2.469-5.737-2.469-5.737l-0.085-0.248
	c-0.538-1.32-0.911-2.85-1.106-4.451c1.43,0.221,2.762,0.576,3.92,1.057l0.254,0.099c0,0,4.488,1.966,4.545,1.987
	c0,0,1.666,0.764,1.869,0.854c3.396,1.385,7.248,2.213,10.32,2.225c6.987,0.018,12.712-3.994,12.76-8.941
	C86.704,47.155,84.895,44.547,81.723,42.814"/>
</svg>
