<?xml version="1.0" encoding="utf-8"?>
<!-- Generator: Adobe Illustrator 16.0.0, SVG Export Plug-In . SVG Version: 6.00 Build 0)  -->
<!DOCTYPE svg PUBLIC "-//W3C//DTD SVG 1.1//EN" "http://www.w3.org/Graphics/SVG/1.1/DTD/svg11.dtd">
<svg version="1.1" id="레이어_1" xmlns="http://www.w3.org/2000/svg" xmlns:xlink="http://www.w3.org/1999/xlink" x="0px"
	 y="0px" width="100px" height="100px" viewBox="0 0 100 100" enable-background="new 0 0 100 100" xml:space="preserve">
<path fill="#111111" d="M49.94,57.822c-4.107,0-7.438-3.328-7.438-7.434c0-4.109,3.33-7.438,7.438-7.438
	c4.105,0,7.437,3.329,7.437,7.438C57.377,54.494,54.046,57.822,49.94,57.822 M76.277,44.941H63.126l8.942-8.94
	c2.14-2.14,2.14-5.622,0-7.76c-2.143-2.144-5.623-2.141-7.76,0l-8.882,8.877l0.003-12.469c-0.003-3.027-2.462-5.486-5.49-5.486
	c-3.026,0-5.487,2.459-5.486,5.486v12.495c-2.756-2.754-9.119-9.119-9.459-9.457c-2.167-1.565-5.192-1.341-7.085,0.551l-0.003,0.003
	c-2.178,2.176-2.28,5.892-0.223,7.95c0,0,6.299,6.155,9,8.795H23.336c-2.638,0.424-4.618,2.721-4.618,5.399v0.004
	c0,3.077,2.553,5.78,5.462,5.78c0.002,0,8.445-0.099,12.343-0.146l-8.615,8.615c-2.139,2.141-2.139,5.617,0,7.758
	c2.141,2.14,5.623,2.14,7.759,0.002l8.785-8.783l0.002,12.508c0,3.025,2.461,5.488,5.487,5.488c3.025,0,5.487-2.463,5.487-5.488
	V63.637c2.733,2.74,8.915,8.939,8.915,8.939c2.153,2.148,5.472,2.074,7.724-0.18c1.957-1.957,2.119-5.149,0.396-7.308
	c-0.248-0.248-6.336-6.333-9.137-9.134c3.934,0.006,12.502,0.018,12.502,0.018c3.041,0,5.336-2.4,5.336-5.584
	C81.161,47.619,79.018,45.247,76.277,44.941"/>
</svg>
