<?xml version="1.0" encoding="utf-8"?>
<!-- Generator: Adobe Illustrator 16.0.0, SVG Export Plug-In . SVG Version: 6.00 Build 0)  -->
<!DOCTYPE svg PUBLIC "-//W3C//DTD SVG 1.1//EN" "http://www.w3.org/Graphics/SVG/1.1/DTD/svg11.dtd">
<svg version="1.1" id="레이어_1" xmlns="http://www.w3.org/2000/svg" xmlns:xlink="http://www.w3.org/1999/xlink" x="0px"
	 y="0px" width="120px" height="100px" viewBox="0 0 120 100" enable-background="new 0 0 120 100" xml:space="preserve">
<path fill="#111111" d="M8.769,45.604v26.335c0,2.195,3.207,2.992,6.217,2.992c12.827,0,15.705-18.086,15.705-18.086l3.545-25.85
	h-11.25l-0.811,5.906C20.81,46.851,8.769,45.604,8.769,45.604 M58.871,56.846l5.132-37.393H52.751H8.769v8.727h42.785l-1.197,8.723
	c-1.365,9.948-13.406,8.701-13.406,8.701v26.335c0,2.195,3.206,2.992,6.216,2.992C55.993,74.932,58.871,56.846,58.871,56.846
	 M113.581,28.18h-8.087c0,0,0.053,5.854-9.202,5.854c-12.959,0-27.733-1.759-27.733-1.759l-3.373,24.571
	c8.518,0.816,13.51,1.309,18.619,1.525v16.044h10.784V58.4c9.562-0.528,14.321-3.116,15.507-10
	C111.443,40.575,113.581,28.18,113.581,28.18"/>
</svg>
