<?xml version="1.0" encoding="utf-8"?>
<!-- Generator: Adobe Illustrator 16.0.0, SVG Export Plug-In . SVG Version: 6.00 Build 0)  -->
<!DOCTYPE svg PUBLIC "-//W3C//DTD SVG 1.1//EN" "http://www.w3.org/Graphics/SVG/1.1/DTD/svg11.dtd">
<svg version="1.1" id="레이어_1" xmlns="http://www.w3.org/2000/svg" xmlns:xlink="http://www.w3.org/1999/xlink" x="0px"
	 y="0px" width="36px" height="36px" viewBox="0 0 36 36" enable-background="new 0 0 36 36" xml:space="preserve">
<path fill="#E70095" d="M11.658,7.289c0,0,4.149,10.281,4.301,10.661c-0.162,0.385-4.523,10.623-4.523,10.623
	c-0.389,0.912-0.234,1.973,0.392,2.697c0.156,0.184,0.337,0.336,0.54,0.459c0.523,0.313,1.133,0.387,1.708,0.203
	c0.623-0.195,1.136-0.676,1.407-1.314c0,0,2.129-4.997,2.87-6.74c0.708,1.754,2.729,6.762,2.729,6.762
	c0.103,0.253,0.241,0.482,0.412,0.681c0.264,0.305,0.598,0.531,0.967,0.653c0.577,0.191,1.189,0.126,1.718-0.186
	c1.023-0.6,1.459-1.979,0.99-3.136c0,0-4.149-10.278-4.306-10.665c0.164-0.388,4.524-10.624,4.524-10.624
	c0.391-0.913,0.236-1.971-0.391-2.7c-0.157-0.18-0.338-0.333-0.538-0.453c-0.527-0.316-1.134-0.39-1.712-0.208
	c-0.62,0.196-1.132,0.675-1.404,1.313c0,0-1.924,4.513-2.871,6.741c-0.707-1.754-2.727-6.758-2.727-6.758
	c-0.102-0.25-0.241-0.479-0.414-0.679c-0.262-0.305-0.596-0.529-0.963-0.652c-0.578-0.192-1.188-0.126-1.719,0.185
	C11.623,4.748,11.188,6.126,11.658,7.289"/>
</svg>
