<?xml version="1.0" encoding="utf-8"?>
<!-- Generator: Adobe Illustrator 16.0.0, SVG Export Plug-In . SVG Version: 6.00 Build 0)  -->
<!DOCTYPE svg PUBLIC "-//W3C//DTD SVG 1.1//EN" "http://www.w3.org/Graphics/SVG/1.1/DTD/svg11.dtd">
<svg version="1.1" id="레이어_1" xmlns="http://www.w3.org/2000/svg" xmlns:xlink="http://www.w3.org/1999/xlink" x="0px"
	 y="0px" width="36px" height="36px" viewBox="0 0 36 36" enable-background="new 0 0 36 36" xml:space="preserve">
<path fill="#E70095" d="M4.931,14.395c3.807,1.98,8.716,2.505,9.313,3.542v0.01l0.011,0.02l0.008,0.021l0.034,0.039
	c0.629,1.015-1.404,5.604-1.582,9.854c0,2.097,2.569,3.141,5.216,3.165h0.066c0.101,0,0.231,0,0.342-0.017
	c2.543-0.079,4.945-1.135,4.945-3.148c-0.191-4.296-2.205-8.825-1.591-9.844v-0.01l0.037-0.039l0.019-0.042v-0.01
	c0.606-1.036,5.552-1.578,9.314-3.542c1.828-1.063,1.441-3.833,0.11-6.137c-0.015-0.012-0.015-0.012-0.015-0.012V8.24
	c-0.048-0.082-0.096-0.188-0.17-0.29c-1.338-2.158-3.45-3.713-5.208-2.699c-3.505,2.235-6.361,6.064-7.621,6.269
	c-0.032,0.01-0.085,0.017-0.115,0.01h-0.048h-0.04c-0.04,0.007-0.095,0-0.133-0.01c-1.262-0.209-4.142-4.058-7.611-6.269
	C8.396,4.202,6.194,5.905,4.854,8.194C4.839,8.211,4.833,8.228,4.833,8.228C4.772,8.33,4.72,8.42,4.668,8.535
	C3.475,10.785,3.171,13.385,4.931,14.395z"/>
</svg>
