<?xml version="1.0" encoding="utf-8"?>
<!-- Generator: Adobe Illustrator 16.0.0, SVG Export Plug-In . SVG Version: 6.00 Build 0)  -->
<!DOCTYPE svg PUBLIC "-//W3C//DTD SVG 1.1//EN" "http://www.w3.org/Graphics/SVG/1.1/DTD/svg11.dtd">
<svg version="1.1" id="레이어_1" xmlns="http://www.w3.org/2000/svg" xmlns:xlink="http://www.w3.org/1999/xlink" x="0px"
	 y="0px" width="57.822px" height="46.423px" viewBox="0 0 57.822 46.423" enable-background="new 0 0 57.822 46.423"
	 xml:space="preserve">
<g>
	<path fill="#E11A8E" d="M0,18.467L7.813,4.313l-3.56-0.609L4.603,0l5.952,0.574l4.156,2.293L4.675,21.047L0,18.467z"/>
	<path fill="#E11A8E" d="M9.091,18.572c3.423,2.229,5.862,3.744,7.316,4.547c0.398,0.22,0.779,0.277,1.141,0.173
		c0.363-0.105,0.654-0.356,0.874-0.755l1.291-2.337c-1.871-0.581-3.439-1.22-4.702-1.918l-1.818-1.003
		c-1.177-0.65-1.925-1.525-2.243-2.629c-0.318-1.102-0.152-2.24,0.498-3.418l1.864-3.377c0.87-1.574,1.916-2.527,3.138-2.858
		c1.221-0.331,2.681-0.028,4.378,0.908l4.935,2.724c1.697,0.938,2.73,2.011,3.102,3.221c0.37,1.21,0.122,2.604-0.749,4.179
		l-5.018,9.09c-0.937,1.697-2.023,2.723-3.259,3.079c-1.237,0.357-2.703,0.068-4.4-0.869c-2.373-1.31-5.134-3.06-8.283-5.25
		L9.091,18.572z M18.317,15.363c0.987,0.545,2.073,1.031,3.26,1.46l1.578-2.856c0.573-1.039,0.34-1.846-0.699-2.419l-2.337-1.29
		c-1.039-0.573-1.845-0.341-2.418,0.698l-1.219,2.208c-0.143,0.259-0.176,0.524-0.099,0.792c0.077,0.27,0.247,0.476,0.506,0.619
		L18.317,15.363z"/>
	<path fill="#E11A8E" d="M24.414,27.03c3.423,2.229,5.862,3.745,7.316,4.548c0.398,0.219,0.779,0.276,1.141,0.172
		c0.363-0.105,0.655-0.355,0.875-0.754l1.291-2.338c-1.872-0.581-3.439-1.22-4.703-1.917l-1.818-1.004
		c-1.177-0.649-1.926-1.525-2.243-2.628c-0.318-1.102-0.152-2.241,0.498-3.419l1.864-3.376c0.87-1.575,1.916-2.528,3.137-2.859
		s2.682-0.028,4.379,0.908l4.934,2.725c1.697,0.937,2.73,2.01,3.103,3.221c0.37,1.21,0.122,2.603-0.748,4.178l-5.018,9.09
		c-0.937,1.697-2.024,2.724-3.259,3.08c-1.237,0.356-2.703,0.067-4.4-0.869c-2.372-1.311-5.133-3.06-8.283-5.251L24.414,27.03z
		 M33.64,23.822c0.986,0.545,2.072,1.031,3.26,1.459l1.577-2.855c0.573-1.039,0.34-1.846-0.698-2.42l-2.338-1.29
		c-1.039-0.573-1.845-0.341-2.418,0.698l-1.219,2.209c-0.144,0.258-0.178,0.523-0.1,0.791c0.078,0.27,0.246,0.477,0.506,0.619
		L33.64,23.822z"/>
	<path fill="#E11A8E" d="M47.975,40.206l-9.608-5.304l2.006-3.637l12.255-7.467l5.194,2.867l-12.255,7.467l4.415,2.437l2.15-3.895
		l4.675,2.581l-2.15,3.895l1.818,1.004l-2.007,3.637l-1.818-1.004l-2.008,3.636l-4.674-2.581L47.975,40.206z"/>
</g>
</svg>
