<?xml version="1.0" encoding="utf-8"?>
<!-- Generator: Adobe Illustrator 16.0.0, SVG Export Plug-In . SVG Version: 6.00 Build 0)  -->
<!DOCTYPE svg PUBLIC "-//W3C//DTD SVG 1.1//EN" "http://www.w3.org/Graphics/SVG/1.1/DTD/svg11.dtd">
<svg version="1.1" id="레이어_1" xmlns="http://www.w3.org/2000/svg" xmlns:xlink="http://www.w3.org/1999/xlink" x="0px"
	 y="0px" width="55.283px" height="54.188px" viewBox="0 0 55.283 54.188" enable-background="new 0 0 55.283 54.188"
	 xml:space="preserve">
<g>
	<path fill="#E11A8E" d="M0,17.287L10.314,4.836L6.93,3.573L7.964,0l5.741,1.673l3.655,3.028L4.112,20.693L0,17.287z"/>
	<path fill="#E11A8E" d="M8.913,19.083c2.948,2.827,5.062,4.771,6.341,5.831c0.351,0.291,0.713,0.417,1.089,0.383
		c0.376-0.035,0.709-0.229,1-0.578l1.703-2.057c-1.73-0.92-3.15-1.84-4.262-2.76l-1.6-1.325c-1.036-0.858-1.607-1.858-1.714-2.999
		c-0.108-1.143,0.268-2.23,1.126-3.266l2.46-2.971c1.148-1.386,2.353-2.127,3.615-2.225c1.261-0.098,2.638,0.472,4.131,1.708
		l4.341,3.596c1.493,1.237,2.308,2.483,2.447,3.741c0.141,1.259-0.364,2.58-1.512,3.967l-6.624,7.996
		c-1.236,1.492-2.496,2.299-3.777,2.418c-1.28,0.121-2.667-0.437-4.16-1.674c-2.087-1.729-4.473-3.963-7.161-6.702L8.913,19.083z
		 M18.576,17.65c0.868,0.719,1.845,1.399,2.931,2.042l2.082-2.513c0.757-0.914,0.678-1.75-0.235-2.508l-2.056-1.703
		c-0.914-0.756-1.749-0.677-2.506,0.236l-1.608,1.942c-0.189,0.229-0.271,0.481-0.245,0.76c0.026,0.278,0.153,0.513,0.382,0.702
		L18.576,17.65z"/>
	<path fill="#E11A8E" d="M22.391,30.248c2.948,2.827,5.062,4.771,6.341,5.831c0.351,0.29,0.714,0.417,1.089,0.383
		c0.376-0.036,0.709-0.228,1-0.579l1.703-2.056c-1.73-0.919-3.15-1.839-4.262-2.761l-1.6-1.324c-1.036-0.857-1.607-1.858-1.714-3
		c-0.108-1.142,0.269-2.229,1.127-3.266l2.46-2.97c1.147-1.386,2.353-2.128,3.614-2.226s2.639,0.473,4.132,1.709l4.341,3.596
		c1.492,1.236,2.309,2.484,2.447,3.74c0.14,1.26-0.365,2.582-1.513,3.967l-6.624,7.996c-1.236,1.493-2.495,2.299-3.775,2.419
		c-1.281,0.121-2.668-0.437-4.161-1.673c-2.087-1.729-4.473-3.963-7.16-6.703L22.391,30.248z M32.054,28.814
		c0.868,0.719,1.845,1.4,2.931,2.043l2.081-2.514c0.758-0.913,0.68-1.75-0.234-2.506l-2.057-1.703
		c-0.914-0.758-1.749-0.678-2.506,0.235l-1.608,1.942c-0.189,0.229-0.271,0.481-0.245,0.76c0.026,0.279,0.153,0.512,0.383,0.701
		L32.054,28.814z"/>
	<path fill="#E11A8E" d="M43.086,47.584l-8.452-7.002l2.648-3.198l13.432-5.054l4.569,3.785l-13.433,5.053l3.885,3.217l2.838-3.426
		l4.113,3.406l-2.84,3.426l1.6,1.326l-2.648,3.197l-1.6-1.324l-2.649,3.198l-4.112-3.406L43.086,47.584z"/>
</g>
</svg>
