<?xml version="1.0" encoding="utf-8"?>
<!-- Generator: Adobe Illustrator 16.0.0, SVG Export Plug-In . SVG Version: 6.00 Build 0)  -->
<!DOCTYPE svg PUBLIC "-//W3C//DTD SVG 1.1//EN" "http://www.w3.org/Graphics/SVG/1.1/DTD/svg11.dtd">
<svg version="1.1" id="레이어_1" xmlns="http://www.w3.org/2000/svg" xmlns:xlink="http://www.w3.org/1999/xlink" x="0px"
	 y="0px" width="44.088px" height="63.93px" viewBox="0 0 44.088 63.93" enable-background="new 0 0 44.088 63.93"
	 xml:space="preserve">
<g>
	<path fill="#E11A8E" d="M0,12.617l14.454-7.244l-2.589-2.519L14.25,0l4.581,3.843l2.127,4.243L2.393,17.391L0,12.617z"/>
	<path fill="#E11A8E" d="M7.434,17.851c1.561,3.775,2.713,6.406,3.458,7.891c0.203,0.407,0.484,0.67,0.843,0.789
		c0.358,0.119,0.741,0.076,1.147-0.128l2.387-1.196c-1.213-1.537-2.143-2.952-2.791-4.242l-0.931-1.857
		c-0.603-1.202-0.724-2.347-0.361-3.436c0.361-1.089,1.144-1.933,2.346-2.535l3.448-1.729c1.608-0.807,3.01-1.001,4.205-0.581
		c1.193,0.418,2.226,1.494,3.093,3.227l2.527,5.04c0.867,1.732,1.111,3.203,0.732,4.411c-0.379,1.206-1.373,2.214-2.981,3.021
		l-9.283,4.652c-1.732,0.869-3.209,1.1-4.43,0.694c-1.221-0.405-2.265-1.475-3.134-3.207c-1.214-2.423-2.5-5.429-3.857-9.02
		L7.434,17.851z M16.857,20.43c0.505,1.007,1.125,2.023,1.86,3.049l2.917-1.463c1.061-0.531,1.325-1.328,0.793-2.389l-1.196-2.387
		c-0.532-1.061-1.328-1.324-2.388-0.793l-2.255,1.13c-0.265,0.133-0.442,0.332-0.53,0.597c-0.088,0.266-0.065,0.531,0.067,0.797
		L16.857,20.43z"/>
	<path fill="#E11A8E" d="M15.277,33.497c1.561,3.775,2.713,6.406,3.457,7.891c0.204,0.407,0.485,0.67,0.844,0.789
		s0.741,0.076,1.147-0.128l2.387-1.196c-1.214-1.537-2.144-2.952-2.791-4.242l-0.931-1.857c-0.603-1.202-0.724-2.347-0.361-3.436
		c0.36-1.089,1.143-1.933,2.346-2.535l3.448-1.729c1.608-0.807,3.011-1.001,4.204-0.581c1.195,0.419,2.227,1.494,3.096,3.228
		l2.525,5.039c0.869,1.732,1.113,3.203,0.734,4.411c-0.381,1.206-1.374,2.214-2.982,3.021l-9.283,4.652
		c-1.732,0.869-3.209,1.1-4.43,0.694c-1.221-0.405-2.266-1.475-3.134-3.207c-1.214-2.423-2.499-5.429-3.856-9.02L15.277,33.497z
		 M24.699,36.076c0.506,1.008,1.125,2.023,1.861,3.049l2.916-1.463c1.062-0.531,1.326-1.328,0.794-2.389l-1.196-2.387
		c-0.531-1.061-1.328-1.324-2.389-0.793l-2.254,1.13c-0.266,0.133-0.443,0.332-0.531,0.598c-0.088,0.265-0.064,0.53,0.068,0.796
		L24.699,36.076z"/>
	<path fill="#E11A8E" d="M40.232,45.878c1.213,2.422,2.498,5.429,3.855,9.018l-3.58,1.795c-0.434-1-0.801-1.851-1.098-2.553
		c-0.297-0.704-0.541-1.278-0.73-1.726c-0.191-0.445-0.375-0.89-0.553-1.331c-0.318-0.726-0.629-1.39-0.931-1.989
		c-0.54-1.078-1.253-1.397-2.138-0.954l-2.387,1.196c1.214,1.538,2.145,2.953,2.791,4.243l0.932,1.856
		c0.602,1.202,0.722,2.347,0.361,3.436c-0.363,1.088-1.145,1.934-2.347,2.536l-3.448,1.728c-1.608,0.807-3.01,1.001-4.205,0.583
		c-1.193-0.42-2.225-1.495-3.094-3.228l-2.525-5.039c-0.869-1.732-1.114-3.203-0.735-4.411c0.38-1.207,1.374-2.215,2.983-3.021
		l9.281-4.652c1.733-0.868,3.211-1.099,4.432-0.694C38.318,43.076,39.363,44.146,40.232,45.878z M31.086,54.112
		c-0.338-0.672-0.682-1.269-1.031-1.79s-0.627-0.941-0.83-1.26l-2.918,1.462c-1.061,0.532-1.324,1.329-0.793,2.39l1.197,2.387
		c0.531,1.061,1.328,1.325,2.389,0.793l2.254-1.13c0.266-0.133,0.441-0.331,0.53-0.597c0.088-0.266,0.065-0.53-0.067-0.796
		L31.086,54.112z"/>
</g>
</svg>
