<?xml version="1.0" encoding="utf-8"?>
<!-- Generator: Adobe Illustrator 16.0.0, SVG Export Plug-In . SVG Version: 6.00 Build 0)  -->
<!DOCTYPE svg PUBLIC "-//W3C//DTD SVG 1.1//EN" "http://www.w3.org/Graphics/SVG/1.1/DTD/svg11.dtd">
<svg version="1.1" id="레이어_1" xmlns="http://www.w3.org/2000/svg" xmlns:xlink="http://www.w3.org/1999/xlink" x="0px"
	 y="0px" width="23.945px" height="61.559px" viewBox="0 0 23.945 61.559" enable-background="new 0 0 23.945 61.559"
	 xml:space="preserve">
<g>
	<path fill="#E11A8E" d="M0,5.93l16.143-0.916l-1.379-3.34L18.086,0l2.68,5.346l0.27,4.738L0.303,11.261L0,5.93z"/>
	<path fill="#E11A8E" d="M4.749,13.682c-0.065,4.086-0.051,6.957,0.043,8.615c0.026,0.455,0.18,0.807,0.461,1.06
		c0.281,0.25,0.649,0.364,1.104,0.338l2.666-0.151c-0.504-1.894-0.797-3.56-0.878-5.001l-0.118-2.073
		c-0.076-1.343,0.267-2.442,1.031-3.298c0.764-0.856,1.817-1.321,3.16-1.397l3.851-0.219c1.796-0.102,3.16,0.275,4.09,1.135
		c0.93,0.857,1.45,2.254,1.561,4.189l0.319,5.627c0.11,1.936-0.249,3.383-1.075,4.341c-0.828,0.958-2.141,1.488-3.938,1.59
		L6.66,29.025c-1.936,0.11-3.383-0.264-4.342-1.12c-0.96-0.856-1.495-2.253-1.604-4.188c-0.154-2.705-0.141-5.974,0.037-9.808
		L4.749,13.682z M12.375,19.787c0.064,1.125,0.23,2.305,0.498,3.537l3.258-0.185c1.186-0.067,1.744-0.694,1.676-1.879l-0.15-2.666
		c-0.068-1.185-0.693-1.742-1.879-1.675l-2.518,0.143c-0.295,0.017-0.537,0.13-0.723,0.338c-0.187,0.209-0.271,0.461-0.254,0.757
		L12.375,19.787z"/>
	<path fill="#E11A8E" d="M5.741,31.157c-0.065,4.085-0.051,6.956,0.043,8.614c0.026,0.455,0.18,0.807,0.461,1.06
		c0.282,0.25,0.649,0.364,1.104,0.338l2.666-0.151c-0.504-1.894-0.797-3.56-0.878-5.001l-0.118-2.073
		c-0.076-1.343,0.267-2.442,1.031-3.298c0.763-0.856,1.816-1.321,3.159-1.397l3.852-0.219c1.796-0.102,3.16,0.275,4.09,1.135
		c0.93,0.857,1.451,2.254,1.561,4.189l0.319,5.627c0.11,1.936-0.249,3.383-1.075,4.341c-0.828,0.958-2.141,1.488-3.937,1.59
		L7.652,46.5c-1.935,0.11-3.383-0.264-4.342-1.12c-0.96-0.856-1.495-2.253-1.604-4.188c-0.154-2.705-0.141-5.974,0.038-9.807
		L5.741,31.157z M13.367,37.262c0.064,1.125,0.23,2.305,0.498,3.537l3.258-0.185c1.186-0.067,1.744-0.694,1.676-1.879l-0.15-2.666
		c-0.067-1.185-0.693-1.742-1.879-1.675l-2.518,0.143c-0.295,0.017-0.537,0.13-0.723,0.338c-0.188,0.209-0.271,0.461-0.254,0.758
		L13.367,37.262z"/>
	<path fill="#E11A8E" d="M23.037,45.33l0.908,15.993l-4.146,0.235l-16.974-5.87l-0.336-5.925l16.99,6.168l-0.588-10.366
		L23.037,45.33z"/>
</g>
</svg>
