<?xml version="1.0" encoding="utf-8"?>
<!-- Generator: Adobe Illustrator 16.0.0, SVG Export Plug-In . SVG Version: 6.00 Build 0)  -->
<!DOCTYPE svg PUBLIC "-//W3C//DTD SVG 1.1//EN" "http://www.w3.org/Graphics/SVG/1.1/DTD/svg11.dtd">
<svg version="1.1" id="레이어_1" xmlns="http://www.w3.org/2000/svg" xmlns:xlink="http://www.w3.org/1999/xlink" x="0px"
	 y="0px" width="39.153px" height="61.583px" viewBox="0 0 39.153 61.583" enable-background="new 0 0 39.153 61.583"
	 xml:space="preserve">
<g>
	<path fill="#E11A8E" d="M19.918,0l15.138,5.679l0.087-3.611l3.715-0.19l0.295,5.972l-1.667,4.445L18.042,5L19.918,0z"/>
	<path fill="#E11A8E" d="M21.132,9.01c-1.709,3.711-2.854,6.344-3.438,7.899c-0.16,0.426-0.161,0.811-0.006,1.154
		c0.156,0.344,0.447,0.596,0.874,0.755l2.5,0.938c0.303-1.937,0.708-3.579,1.215-4.931l0.729-1.944
		c0.473-1.259,1.23-2.126,2.274-2.6c1.045-0.476,2.195-0.476,3.455-0.003l3.61,1.354c1.686,0.632,2.78,1.527,3.285,2.689
		c0.504,1.16,0.416,2.647-0.265,4.462l-1.979,5.278c-0.681,1.814-1.594,2.993-2.736,3.535c-1.144,0.544-2.559,0.499-4.243-0.133
		l-9.722-3.647c-1.814-0.681-2.988-1.606-3.521-2.778c-0.532-1.171-0.458-2.664,0.223-4.479c0.952-2.538,2.283-5.523,3.994-8.958
		L21.132,9.01z M25.645,17.674c-0.396,1.056-0.721,2.202-0.973,3.438l3.056,1.146c1.11,0.417,1.874,0.069,2.291-1.042l0.938-2.499
		c0.417-1.111,0.07-1.874-1.041-2.291l-2.36-0.886c-0.278-0.104-0.544-0.099-0.799,0.017s-0.435,0.313-0.538,0.591L25.645,17.674z"
		/>
	<path fill="#E11A8E" d="M14.985,25.397c-1.709,3.71-2.854,6.343-3.438,7.898c-0.159,0.428-0.161,0.811-0.006,1.156
		c0.156,0.342,0.447,0.594,0.874,0.754l2.5,0.938c0.303-1.936,0.708-3.578,1.216-4.93l0.729-1.944c0.472-1.259,1.23-2.126,2.274-2.6
		c1.044-0.476,2.194-0.476,3.454-0.003l3.61,1.354c1.686,0.632,2.781,1.528,3.285,2.689c0.504,1.16,0.417,2.648-0.265,4.462
		L27.24,40.45c-0.681,1.814-1.594,2.994-2.736,3.535c-1.144,0.545-2.559,0.5-4.243-0.133l-9.722-3.646
		c-1.814-0.682-2.988-1.607-3.521-2.779c-0.532-1.17-0.458-2.664,0.224-4.479c0.951-2.537,2.283-5.523,3.994-8.957L14.985,25.397z
		 M19.498,34.061c-0.396,1.055-0.721,2.201-0.973,3.438l3.056,1.145c1.11,0.418,1.874,0.07,2.291-1.041l0.938-2.5
		c0.417-1.111,0.07-1.873-1.041-2.291l-2.36-0.885c-0.278-0.104-0.544-0.1-0.799,0.018c-0.255,0.115-0.434,0.313-0.538,0.59
		L19.498,34.061z"/>
	<path fill="#E11A8E" d="M3.871,57.981c-1.815-0.68-2.988-1.605-3.521-2.777c-0.532-1.17-0.458-2.664,0.223-4.479l2.396-6.389
		c0.681-1.814,1.606-2.988,2.777-3.52c1.172-0.533,2.665-0.459,4.479,0.221l0.277,0.105c1.407,0.527,2.442,1.318,3.104,2.367
		c0.531,0.834,0.747,1.781,0.646,2.842c0.591-0.73,1.328-1.219,2.213-1.467c0.887-0.25,1.885-0.166,2.995,0.252l0.277,0.104
		c1.686,0.633,2.78,1.529,3.285,2.689c0.504,1.162,0.416,2.648-0.265,4.465L20.78,57.67c-0.681,1.814-1.594,2.994-2.736,3.537
		c-1.144,0.543-2.559,0.498-4.243-0.135l-0.277-0.104c-1.111-0.418-1.919-1.01-2.422-1.779c-0.504-0.77-0.738-1.623-0.703-2.563
		c-0.971,1.348-2.352,1.99-4.146,1.932c-0.644-0.031-1.345-0.188-2.104-0.473L3.871,57.981z M18.349,52.325
		c0.417-1.113,0.07-1.875-1.041-2.293l-0.833-0.313c-1.111-0.416-1.875-0.07-2.292,1.043l-0.938,2.498
		c-0.417,1.111-0.069,1.875,1.042,2.293l0.833,0.313c1.11,0.416,1.874,0.068,2.291-1.043L18.349,52.325z M10.503,48.747
		c0.416-1.111,0.069-1.875-1.042-2.291l-1.11-0.418c-0.427-0.158-0.812-0.16-1.155-0.004c-0.343,0.156-0.595,0.447-0.755,0.873
		l-1.563,4.166c-0.16,0.426-0.162,0.811-0.006,1.154s0.447,0.596,0.873,0.756l1.111,0.416c1.11,0.418,1.875,0.07,2.291-1.041
		L10.503,48.747z"/>
</g>
</svg>
