<?xml version="1.0" encoding="utf-8"?>
<!-- Generator: Adobe Illustrator 16.0.0, SVG Export Plug-In . SVG Version: 6.00 Build 0)  -->
<!DOCTYPE svg PUBLIC "-//W3C//DTD SVG 1.1//EN" "http://www.w3.org/Graphics/SVG/1.1/DTD/svg11.dtd">
<svg version="1.1" id="레이어_1" xmlns="http://www.w3.org/2000/svg" xmlns:xlink="http://www.w3.org/1999/xlink" x="0px"
	 y="0px" width="64.249px" height="25.463px" viewBox="0 0 64.249 25.463" enable-background="new 0 0 64.249 25.463"
	 xml:space="preserve">
<g>
	<path fill="#E11A8E" d="M6.422,25.463L5.064,9.352L1.766,10.82L0,7.546l5.271-2.825L10,4.322l1.743,20.692L6.422,25.463z"/>
	<path fill="#E11A8E" d="M14.043,20.504c4.084-0.047,6.955-0.139,8.61-0.279c0.453-0.037,0.801-0.201,1.045-0.489
		c0.243-0.288,0.346-0.659,0.308-1.113l-0.224-2.66c-1.879,0.556-3.537,0.894-4.975,1.015l-2.07,0.174
		c-1.34,0.113-2.448-0.2-3.324-0.94c-0.876-0.739-1.37-1.779-1.483-3.12l-0.323-3.843c-0.151-1.793,0.189-3.167,1.021-4.12
		c0.833-0.952,2.215-1.511,4.146-1.674l5.617-0.473c1.932-0.163,3.387,0.156,4.366,0.957c0.981,0.8,1.547,2.098,1.698,3.891
		l0.871,10.346c0.163,1.932-0.171,3.389-1.001,4.372c-0.83,0.982-2.21,1.556-4.142,1.718c-2.701,0.229-5.969,0.305-9.806,0.23
		L14.043,20.504z M19.937,12.713c1.123-0.095,2.297-0.292,3.521-0.594l-0.273-3.252c-0.1-1.182-0.74-1.724-1.923-1.624l-2.66,0.224
		c-1.183,0.1-1.724,0.741-1.624,1.924l0.212,2.512c0.024,0.297,0.144,0.534,0.356,0.715c0.214,0.18,0.469,0.258,0.765,0.232
		L19.937,12.713z"/>
	<path fill="#E11A8E" d="M31.483,19.034c4.084-0.046,6.955-0.139,8.61-0.278c0.453-0.038,0.801-0.201,1.045-0.49
		c0.243-0.288,0.346-0.659,0.308-1.113l-0.224-2.66c-1.879,0.557-3.537,0.894-4.976,1.015l-2.069,0.175
		c-1.34,0.112-2.448-0.201-3.324-0.941c-0.876-0.738-1.37-1.779-1.483-3.119l-0.323-3.844c-0.151-1.793,0.188-3.166,1.021-4.119
		s2.215-1.512,4.146-1.674l5.616-0.474c1.932-0.163,3.388,0.157,4.367,0.957c0.981,0.8,1.547,2.098,1.698,3.891l0.871,10.347
		c0.163,1.932-0.171,3.389-1.001,4.371s-2.211,1.557-4.143,1.719c-2.7,0.228-5.968,0.304-9.805,0.23L31.483,19.034z M37.377,11.244
		c1.123-0.096,2.297-0.293,3.521-0.594l-0.273-3.252c-0.1-1.183-0.741-1.725-1.923-1.625l-2.661,0.225
		c-1.182,0.1-1.723,0.74-1.623,1.923l0.211,2.513c0.025,0.296,0.144,0.533,0.357,0.715c0.214,0.18,0.469,0.258,0.765,0.232
		L37.377,11.244z"/>
	<path fill="#E11A8E" d="M48.924,17.564c4.085-0.046,6.955-0.139,8.61-0.277c0.454-0.039,0.801-0.202,1.045-0.49
		c0.244-0.289,0.347-0.66,0.309-1.113l-0.224-2.66c-1.879,0.556-3.537,0.893-4.976,1.014l-2.069,0.175
		c-1.34,0.112-2.448-0.2-3.325-0.94c-0.876-0.74-1.369-1.779-1.482-3.119l-0.323-3.844c-0.151-1.793,0.188-3.166,1.021-4.12
		c0.833-0.952,2.214-1.511,4.146-1.674l5.617-0.474c1.932-0.162,3.388,0.157,4.367,0.957c0.98,0.801,1.547,2.098,1.698,3.891
		l0.871,10.347c0.163,1.932-0.172,3.389-1.001,4.372c-0.83,0.982-2.211,1.555-4.143,1.719c-2.7,0.227-5.968,0.303-9.806,0.229
		L48.924,17.564z M54.818,9.774c1.123-0.095,2.297-0.292,3.521-0.594l-0.273-3.252c-0.1-1.183-0.741-1.724-1.924-1.624l-2.66,0.225
		c-1.183,0.1-1.723,0.74-1.623,1.922l0.211,2.514c0.025,0.295,0.144,0.533,0.356,0.714c0.215,0.181,0.47,0.257,0.766,0.232
		L54.818,9.774z"/>
</g>
</svg>
