<?xml version="1.0" encoding="utf-8"?>
<!-- Generator: Adobe Illustrator 16.0.0, SVG Export Plug-In . SVG Version: 6.00 Build 0)  -->
<!DOCTYPE svg PUBLIC "-//W3C//DTD SVG 1.1//EN" "http://www.w3.org/Graphics/SVG/1.1/DTD/svg11.dtd">
<svg version="1.1" id="레이어_1" xmlns="http://www.w3.org/2000/svg" xmlns:xlink="http://www.w3.org/1999/xlink" x="0px"
	 y="0px" width="70.827px" height="51.126px" viewBox="0 0 70.827 51.126" enable-background="new 0 0 70.827 51.126"
	 xml:space="preserve">
<g>
	<path fill="#E11A8E" d="M16.668,30.953c0.806,1.475,0.877,3.092,0.213,4.851c-0.2,0.538-0.438,1.096-0.709,1.672l-3.396,7.092
		l8.724-4.762l1.99,3.646L9.429,51.126l-2.7-4.947l5.678-11.888l-0.71-1.302c-0.569-1.041-1.374-1.278-2.416-0.71l-7.291,3.979
		L0,32.615l8.333-4.549c1.823-0.995,3.371-1.305,4.646-0.931c1.274,0.375,2.41,1.474,3.405,3.296L16.668,30.953z"/>
	<path fill="#E11A8E" d="M36.934,29.691c0.995,1.822,1.306,3.371,0.931,4.646c-0.375,1.274-1.473,2.408-3.295,3.403l-4.947,2.7
		c-1.823,0.996-3.373,1.307-4.647,0.932c-1.273-0.374-2.409-1.473-3.404-3.295l-4.549-8.333c-0.995-1.823-1.305-3.372-0.931-4.646
		c0.375-1.274,1.474-2.409,3.297-3.405l4.947-2.7c1.822-0.995,3.371-1.304,4.646-0.931c1.274,0.375,2.409,1.474,3.404,3.297
		L36.934,29.691z M27.698,23.917c-0.568-1.042-1.373-1.279-2.415-0.71l-2.864,1.563c-1.041,0.568-1.278,1.373-0.71,2.415
		l4.549,8.333c0.568,1.041,1.374,1.277,2.415,0.709l2.864-1.563c1.042-0.569,1.278-1.374,0.71-2.415L27.698,23.917z"/>
	<path fill="#E11A8E" d="M53.338,20.736c0.995,1.823,1.306,3.372,0.931,4.646c-0.375,1.275-1.473,2.409-3.295,3.404l-4.947,2.7
		c-1.823,0.995-3.372,1.306-4.647,0.931c-1.273-0.373-2.409-1.473-3.403-3.295l-4.549-8.332c-0.995-1.823-1.306-3.372-0.932-4.646
		c0.376-1.275,1.474-2.41,3.297-3.405l4.947-2.7c1.822-0.995,3.371-1.305,4.646-0.931s2.409,1.474,3.404,3.296L53.338,20.736z
		 M44.103,14.962c-0.568-1.041-1.373-1.279-2.415-0.709l-2.864,1.563c-1.041,0.568-1.278,1.374-0.71,2.416l4.549,8.332
		c0.568,1.041,1.374,1.277,2.415,0.709l2.864-1.563c1.042-0.569,1.278-1.374,0.71-2.416L44.103,14.962z"/>
	<path fill="#E11A8E" d="M69.743,11.782c0.994,1.823,1.305,3.372,0.93,4.646c-0.374,1.275-1.473,2.41-3.295,3.404l-4.947,2.701
		c-1.823,0.995-3.372,1.305-4.647,0.931c-1.273-0.374-2.409-1.473-3.403-3.296l-4.549-8.332c-0.995-1.822-1.306-3.371-0.932-4.646
		c0.376-1.274,1.474-2.409,3.297-3.404l4.947-2.701c1.822-0.994,3.372-1.305,4.646-0.93c1.274,0.374,2.41,1.473,3.405,3.295
		L69.743,11.782z M60.507,6.007c-0.568-1.041-1.373-1.278-2.415-0.709l-2.864,1.563c-1.041,0.568-1.278,1.375-0.71,2.416
		l4.549,8.332c0.568,1.042,1.374,1.278,2.415,0.71l2.864-1.563c1.042-0.569,1.278-1.373,0.71-2.415L60.507,6.007z"/>
</g>
</svg>
