<?xml version="1.0" encoding="utf-8"?>
<!-- Generator: Adobe Illustrator 16.0.0, SVG Export Plug-In . SVG Version: 6.00 Build 0)  -->
<!DOCTYPE svg PUBLIC "-//W3C//DTD SVG 1.1//EN" "http://www.w3.org/Graphics/SVG/1.1/DTD/svg11.dtd">
<svg version="1.1" id="레이어_1" xmlns="http://www.w3.org/2000/svg" xmlns:xlink="http://www.w3.org/1999/xlink" x="0px"
	 y="0px" width="54.992px" height="62.694px" viewBox="0 0 54.992 62.694" enable-background="new 0 0 54.992 62.694"
	 xml:space="preserve">
<g>
	<path fill="#E11A8E" d="M14.641,41.304c1.324,1.035,2.031,2.491,2.121,4.369c0.028,0.574,0.032,1.18,0.012,1.815l-0.304,7.857
		l6.118-7.832l3.273,2.558l-9.862,12.623l-4.441-3.47l0.496-13.165l-1.169-0.913c-0.935-0.73-1.768-0.628-2.498,0.307l-5.114,6.546
		L0,49.442l5.845-7.48c1.277-1.636,2.577-2.536,3.896-2.698c1.318-0.161,2.796,0.396,4.433,1.675L14.641,41.304z"/>
	<path fill="#E11A8E" d="M32.743,32.106c1.637,1.278,2.536,2.577,2.697,3.896c0.162,1.318-0.396,2.795-1.675,4.432l-3.47,4.441
		c-1.279,1.637-2.577,2.537-3.896,2.698c-1.318,0.162-2.797-0.396-4.433-1.675l-7.481-5.845c-1.636-1.278-2.535-2.577-2.697-3.896
		s0.396-2.796,1.675-4.433l3.47-4.441c1.279-1.637,2.578-2.535,3.896-2.697c1.318-0.163,2.796,0.396,4.433,1.674L32.743,32.106z
		 M21.975,30.47c-0.935-0.73-1.768-0.628-2.498,0.308l-2.009,2.571c-0.73,0.935-0.628,1.768,0.307,2.498l7.48,5.845
		c0.936,0.73,1.769,0.628,2.499-0.307l2.008-2.571c0.73-0.936,0.629-1.769-0.306-2.499L21.975,30.47z"/>
	<path fill="#E11A8E" d="M44.25,17.379c1.637,1.278,2.535,2.577,2.697,3.896s-0.396,2.797-1.676,4.434l-3.47,4.441
		c-1.278,1.637-2.577,2.535-3.896,2.697s-2.796-0.396-4.433-1.675l-7.48-5.845c-1.637-1.278-2.536-2.576-2.697-3.896
		c-0.162-1.318,0.396-2.796,1.675-4.433l3.47-4.441c1.278-1.637,2.577-2.536,3.896-2.698c1.319-0.161,2.797,0.396,4.434,1.675
		L44.25,17.379z M33.481,15.742c-0.935-0.73-1.769-0.628-2.499,0.308l-2.009,2.571c-0.73,0.935-0.628,1.768,0.308,2.498l7.48,5.845
		c0.935,0.73,1.768,0.628,2.498-0.307l2.009-2.571c0.73-0.936,0.629-1.769-0.307-2.499L33.481,15.742z"/>
	<path fill="#E11A8E" d="M51.705,16.993L38.964,7.039l-1.165,3.418l-3.602-0.932l1.509-5.785L38.628,0l16.364,12.784L51.705,16.993z
		"/>
</g>
</svg>
