<?xml version="1.0" encoding="utf-8"?>
<!-- Generator: Adobe Illustrator 16.0.0, SVG Export Plug-In . SVG Version: 6.00 Build 0)  -->
<!DOCTYPE svg PUBLIC "-//W3C//DTD SVG 1.1//EN" "http://www.w3.org/Graphics/SVG/1.1/DTD/svg11.dtd">
<svg version="1.1" id="레이어_1" xmlns="http://www.w3.org/2000/svg" xmlns:xlink="http://www.w3.org/1999/xlink" x="0px"
	 y="0px" width="37.151px" height="71.549px" viewBox="0 0 37.151 71.549" enable-background="new 0 0 37.151 71.549"
	 xml:space="preserve">
<g>
	<path fill="#E11A8E" d="M10.125,52.516c1.63,0.414,2.863,1.463,3.701,3.145c0.257,0.514,0.504,1.066,0.741,1.658l2.886,7.313
		L19.9,55l4.025,1.023L19.98,71.549l-5.463-1.389L9.673,57.91l-1.438-0.365c-1.15-0.293-1.871,0.137-2.163,1.287l-2.047,8.051
		L0,65.859l2.339-9.201c0.511-2.012,1.338-3.357,2.479-4.037c1.143-0.678,2.719-0.763,4.732-0.252L10.125,52.516z"/>
	<path fill="#E11A8E" d="M22.993,36.809c2.013,0.512,3.358,1.338,4.038,2.479c0.68,1.143,0.764,2.72,0.252,4.731l-1.389,5.463
		c-0.512,2.014-1.338,3.359-2.48,4.038c-1.142,0.679-2.719,0.763-4.731,0.251l-9.2-2.338c-2.013-0.512-3.358-1.338-4.037-2.479
		c-0.68-1.142-0.764-2.72-0.252-4.731l1.389-5.463c0.512-2.014,1.338-3.358,2.479-4.038c1.142-0.679,2.719-0.763,4.731-0.251
		L22.993,36.809z M12.478,39.646c-1.149-0.292-1.871,0.137-2.163,1.287l-0.804,3.162c-0.292,1.15,0.137,1.872,1.286,2.164
		l9.201,2.338c1.15,0.292,1.871-0.137,2.164-1.287l0.803-3.162c0.293-1.15-0.137-1.872-1.287-2.164L12.478,39.646z"/>
	<path fill="#E11A8E" d="M27.596,18.695c2.014,0.512,3.359,1.338,4.039,2.48c0.679,1.142,0.763,2.719,0.251,4.732l-1.388,5.461
		c-0.512,2.014-1.339,3.359-2.48,4.038c-1.143,0.68-2.72,0.763-4.732,0.252l-9.2-2.338c-2.013-0.512-3.358-1.338-4.037-2.48
		c-0.68-1.142-0.763-2.718-0.251-4.731l1.388-5.463c0.512-2.014,1.338-3.358,2.479-4.037c1.143-0.68,2.719-0.764,4.732-0.252
		L27.596,18.695z M17.081,21.533c-1.15-0.293-1.872,0.137-2.164,1.287l-0.804,3.162c-0.292,1.149,0.137,1.871,1.287,2.163l9.2,2.338
		c1.15,0.292,1.872-0.137,2.164-1.286l0.804-3.162c0.292-1.15-0.137-1.872-1.287-2.164L17.081,21.533z"/>
	<path fill="#E11A8E" d="M23.35,0.476c1.63,0.414,2.863,1.463,3.701,3.145c0.257,0.514,0.505,1.065,0.742,1.657l2.885,7.314
		l2.448-9.632l4.025,1.022l-3.945,15.525l-5.464-1.388L22.897,5.869L21.46,5.504c-1.15-0.292-1.871,0.137-2.163,1.287l-2.046,8.051
		l-4.025-1.022l2.338-9.201c0.511-2.012,1.338-3.357,2.479-4.038c1.143-0.678,2.72-0.762,4.732-0.25L23.35,0.476z"/>
</g>
</svg>
