<?xml version="1.0" encoding="utf-8"?>
<!-- Generator: Adobe Illustrator 16.0.0, SVG Export Plug-In . SVG Version: 6.00 Build 0)  -->
<!DOCTYPE svg PUBLIC "-//W3C//DTD SVG 1.1//EN" "http://www.w3.org/Graphics/SVG/1.1/DTD/svg11.dtd">
<svg version="1.1" id="레이어_1" xmlns="http://www.w3.org/2000/svg" xmlns:xlink="http://www.w3.org/1999/xlink" x="0px"
	 y="0px" width="21.764px" height="70.305px" viewBox="0 0 21.764 70.305" enable-background="new 0 0 21.764 70.305"
	 xml:space="preserve">
<g>
	<path fill="#E11A8E" d="M7.288,54.416c1.681-0.025,3.145,0.666,4.392,2.07c0.383,0.43,0.766,0.898,1.148,1.408l4.692,6.309
		l-0.147-9.938l4.153-0.062l0.238,16.018l-5.637,0.084L8.256,59.742l-1.483,0.021c-1.187,0.018-1.771,0.619-1.753,1.807l0.124,8.305
		l-4.152,0.063L0.85,60.445c-0.031-2.076,0.416-3.591,1.342-4.545c0.926-0.952,2.426-1.444,4.502-1.476L7.288,54.416z"/>
	<path fill="#E11A8E" d="M15.615,35.897c2.077-0.03,3.592,0.417,4.546,1.342c0.953,0.925,1.444,2.426,1.476,4.503l0.084,5.635
		c0.03,2.077-0.416,3.592-1.341,4.545c-0.926,0.953-2.427,1.445-4.504,1.477l-9.492,0.141c-2.076,0.031-3.59-0.416-4.543-1.342
		c-0.954-0.924-1.446-2.426-1.477-4.502L0.28,42.059c-0.031-2.077,0.416-3.591,1.342-4.544c0.925-0.953,2.425-1.445,4.501-1.477
		L15.615,35.897z M6.203,41.377c-1.187,0.018-1.771,0.62-1.753,1.807l0.049,3.263c0.018,1.187,0.619,1.771,1.806,1.753l9.492-0.142
		c1.187-0.018,1.771-0.619,1.754-1.805l-0.049-3.264c-0.018-1.187-0.62-1.771-1.807-1.754L6.203,41.377z"/>
	<path fill="#E11A8E" d="M15.337,17.209c2.077-0.03,3.592,0.417,4.545,1.342s1.444,2.426,1.476,4.503l0.084,5.635
		c0.03,2.077-0.416,3.592-1.341,4.545c-0.926,0.953-2.427,1.445-4.504,1.477l-9.492,0.141c-2.076,0.031-3.59-0.416-4.543-1.342
		c-0.954-0.924-1.446-2.426-1.477-4.502l-0.084-5.636c-0.031-2.077,0.416-3.591,1.342-4.544s2.426-1.445,4.502-1.477L15.337,17.209z
		 M5.924,22.69c-1.187,0.018-1.771,0.62-1.753,1.807l0.049,3.263c0.018,1.187,0.619,1.771,1.806,1.753l9.492-0.142
		c1.187-0.018,1.771-0.619,1.754-1.805l-0.049-3.264c-0.018-1.187-0.62-1.771-1.807-1.754L5.924,22.69z"/>
	<path fill="#E11A8E" d="M21.097,5.553c0.05,3.303-0.095,6.964-0.429,10.983l-4.005,0.061c0.231-4.375,0.331-7.64,0.299-9.795
		c-0.007-0.455-0.146-0.814-0.416-1.078c-0.271-0.263-0.634-0.391-1.089-0.383l-1.187,0.018c-1.187,0.018-1.771,0.619-1.754,1.805
		l0.093,6.23l-4.152,0.062L8.374,7.82C8.356,6.632,7.754,6.048,6.568,6.066L5.974,6.075C4.788,6.092,4.204,6.695,4.221,7.88
		l0.128,8.603l-4.152,0.062L0.046,6.46C0.018,4.523,0.437,3.091,1.303,2.169c0.866-0.924,2.198-1.398,3.998-1.425
		c1.187-0.018,2.155,0.239,2.904,0.772c0.75,0.533,1.28,1.242,1.59,2.128c0.411-1.608,1.464-2.712,3.154-3.311
		c0.61-0.207,1.32-0.316,2.131-0.329l0.297-0.004c1.938-0.029,3.369,0.404,4.292,1.301C20.593,2.199,21.069,3.616,21.097,5.553z"/>
</g>
</svg>
