<?xml version="1.0" encoding="utf-8"?>
<!-- Generator: Adobe Illustrator 16.0.0, SVG Export Plug-In . SVG Version: 6.00 Build 0)  -->
<!DOCTYPE svg PUBLIC "-//W3C//DTD SVG 1.1//EN" "http://www.w3.org/Graphics/SVG/1.1/DTD/svg11.dtd">
<svg version="1.1" id="레이어_1" xmlns="http://www.w3.org/2000/svg" xmlns:xlink="http://www.w3.org/1999/xlink" x="0px"
	 y="0px" width="62.11px" height="63.523px" viewBox="0 0 62.11 63.523" enable-background="new 0 0 62.11 63.523"
	 xml:space="preserve">
<g>
	<path fill="#E11A8E" d="M40.706,48.045c1.18-1.197,2.707-1.732,4.582-1.605c0.574,0.038,1.176,0.104,1.806,0.197l7.77,1.203
		l-7.077-6.978l2.916-2.958L62.11,49.152l-3.957,4.014L45.132,51.16l-1.041,1.057c-0.833,0.845-0.826,1.684,0.019,2.517l5.915,5.832
		l-2.916,2.958l-6.76-6.666c-1.479-1.457-2.223-2.851-2.232-4.179c-0.009-1.328,0.715-2.732,2.172-4.211L40.706,48.045z"/>
	<path fill="#E11A8E" d="M33.647,29.006c1.459-1.479,2.852-2.223,4.18-2.232s2.732,0.715,4.211,2.173l4.014,3.957
		c1.479,1.458,2.224,2.852,2.232,4.18c0.01,1.329-0.715,2.731-2.173,4.212l-6.665,6.76c-1.457,1.479-2.851,2.223-4.18,2.232
		c-1.327,0.01-2.731-0.715-4.21-2.174l-4.014-3.957c-1.479-1.457-2.223-2.851-2.232-4.18c-0.009-1.328,0.715-2.731,2.172-4.21
		L33.647,29.006z M30.785,39.516c-0.833,0.845-0.827,1.684,0.019,2.517l2.324,2.291c0.844,0.833,1.684,0.827,2.516-0.018
		l6.666-6.761c0.832-0.845,0.826-1.684-0.018-2.518l-2.324-2.291c-0.846-0.832-1.685-0.826-2.518,0.02L30.785,39.516z"/>
	<path fill="#E11A8E" d="M20.338,15.885c1.458-1.479,2.852-2.223,4.18-2.232c1.329-0.01,2.733,0.715,4.211,2.172l4.014,3.958
		c1.479,1.458,2.223,2.852,2.232,4.18s-0.715,2.731-2.173,4.212l-6.665,6.76c-1.458,1.479-2.851,2.223-4.18,2.232
		c-1.328,0.01-2.732-0.715-4.21-2.174l-4.014-3.957c-1.479-1.458-2.222-2.852-2.232-4.18c-0.009-1.328,0.715-2.732,2.172-4.211
		L20.338,15.885z M17.476,26.395c-0.833,0.844-0.827,1.684,0.019,2.517l2.324,2.291c0.845,0.833,1.684,0.827,2.517-0.018L29,24.424
		c0.833-0.845,0.828-1.684-0.018-2.518l-2.324-2.291c-0.845-0.833-1.685-0.826-2.518,0.019L17.476,26.395z"/>
	<path fill="#E11A8E" d="M13.142,6.706l7.816,7.706l-2.916,2.958L4.225,21.244L0,17.078l13.817-3.873l-3.591-3.541l-3.124,3.168
		L3.3,9.083l3.124-3.168L4.944,4.457L7.86,1.5l1.479,1.457L12.255,0l3.802,3.748L13.142,6.706z"/>
</g>
</svg>
