<?xml version="1.0" encoding="utf-8"?>
<!-- Generator: Adobe Illustrator 16.0.0, SVG Export Plug-In . SVG Version: 6.00 Build 0)  -->
<!DOCTYPE svg PUBLIC "-//W3C//DTD SVG 1.1//EN" "http://www.w3.org/Graphics/SVG/1.1/DTD/svg11.dtd">
<svg version="1.1" id="레이어_1" xmlns="http://www.w3.org/2000/svg" xmlns:xlink="http://www.w3.org/1999/xlink" x="0px"
	 y="0px" width="83px" height="25px" viewBox="0 0 83 25" enable-background="new 0 0 83 25" xml:space="preserve">
<g>
	<path fill="#E11A8E" d="M18.875,8.064c0.007,1.961-0.827,3.659-2.503,5.095c-0.513,0.439-1.071,0.881-1.676,1.319l-7.51,5.386
		l11.732-0.034l0.017,4.847L0.023,24.729L0,18.154l12.576-9.034l-0.006-1.73c-0.005-1.384-0.708-2.075-2.108-2.071L0.655,5.348
		L0.638,0.502L11.844,0.47c2.452-0.006,4.234,0.536,5.347,1.628c1.113,1.093,1.673,2.851,1.682,5.273L18.875,8.064z"/>
	<path fill="#E11A8E" d="M40.624,18.039c0.009,2.423-0.54,4.184-1.645,5.283c-1.105,1.099-2.883,1.651-5.335,1.658L26.991,25
		c-2.452,0.007-4.234-0.536-5.347-1.63c-1.113-1.092-1.673-2.851-1.682-5.272l-0.04-11.075c-0.008-2.422,0.539-4.183,1.645-5.283
		c1.105-1.098,2.883-1.652,5.335-1.659l6.654-0.019c2.451-0.007,4.233,0.537,5.346,1.628c1.113,1.094,1.674,2.851,1.682,5.273
		L40.624,18.039z M34.28,6.982c-0.005-1.384-0.707-2.075-2.108-2.071L28.32,4.922c-1.4,0.004-2.099,0.698-2.094,2.083l0.04,11.075
		c0.005,1.384,0.708,2.074,2.108,2.069l3.852-0.01c1.401-0.004,2.099-0.698,2.094-2.083L34.28,6.982z"/>
	<path fill="#E11A8E" d="M62.686,17.976c0.01,2.423-0.539,4.185-1.645,5.283c-1.104,1.099-2.882,1.652-5.333,1.66l-6.654,0.018
		c-2.451,0.007-4.234-0.536-5.347-1.628c-1.113-1.094-1.674-2.851-1.683-5.273L41.985,6.96c-0.008-2.422,0.539-4.183,1.644-5.283
		c1.104-1.099,2.884-1.652,5.335-1.659L55.618,0c2.451-0.007,4.234,0.537,5.347,1.628c1.113,1.093,1.675,2.851,1.682,5.273
		L62.686,17.976z M56.344,6.92c-0.006-1.384-0.708-2.075-2.108-2.071L50.383,4.86c-1.401,0.004-2.099,0.698-2.095,2.083
		l0.041,11.074c0.004,1.385,0.707,2.075,2.108,2.071l3.852-0.012c1.401-0.004,2.099-0.698,2.093-2.081L56.344,6.92z"/>
	<path fill="#E11A8E" d="M76.369,24.859c-3.899,0.012-8.22-0.208-12.96-0.656l-0.016-4.672c5.159,0.331,9.012,0.493,11.557,0.486
		c0.538-0.001,0.963-0.158,1.278-0.47c0.313-0.313,0.47-0.734,0.468-1.265l-0.006-1.73c-0.006-1.385-0.707-2.074-2.108-2.07
		l-10.156,0.028L64.375,0.321l16.811-0.047l0.018,4.845L70.696,5.148l0.016,4.5l5.604-0.016c2.287-0.007,3.969,0.502,5.047,1.525
		c1.077,1.023,1.621,2.585,1.629,4.685L83,18.264c0.008,2.263-0.524,3.925-1.594,4.989C80.336,24.317,78.656,24.853,76.369,24.859z"
		/>
</g>
</svg>
