<?xml version="1.0" encoding="utf-8"?>
<!-- Generator: Adobe Illustrator 16.0.0, SVG Export Plug-In . SVG Version: 6.00 Build 0)  -->
<!DOCTYPE svg PUBLIC "-//W3C//DTD SVG 1.1//EN" "http://www.w3.org/Graphics/SVG/1.1/DTD/svg11.dtd">
<svg version="1.1" id="레이어_1" xmlns="http://www.w3.org/2000/svg" xmlns:xlink="http://www.w3.org/1999/xlink" x="0px"
	 y="0px" width="56.229px" height="67.479px" viewBox="0 0 56.229 67.479" enable-background="new 0 0 56.229 67.479"
	 xml:space="preserve">
<g>
	<path fill="#E11A8E" d="M35.405,51.08c1.383-0.957,2.983-1.198,4.802-0.725c0.556,0.145,1.136,0.32,1.737,0.53l7.41,2.63
		l-5.653-8.174l3.416-2.361l9.112,13.174l-4.637,3.207l-12.418-4.396l-1.221,0.844c-0.976,0.675-1.126,1.5-0.451,2.477l4.726,6.832
		l-3.415,2.362l-5.4-7.808c-1.182-1.707-1.652-3.215-1.416-4.523c0.24-1.305,1.213-2.55,2.92-3.73L35.405,51.08z"/>
	<path fill="#E11A8E" d="M32.019,31.059c1.707-1.182,3.215-1.652,4.521-1.414c1.308,0.238,2.552,1.211,3.733,2.919l3.206,4.636
		c1.182,1.707,1.652,3.215,1.414,4.522c-0.238,1.307-1.211,2.551-2.92,3.731l-7.807,5.4c-1.708,1.182-3.215,1.652-4.522,1.415
		c-1.307-0.239-2.551-1.212-3.732-2.92l-3.206-4.636c-1.182-1.708-1.652-3.215-1.415-4.521c0.238-1.308,1.211-2.552,2.919-3.732
		L32.019,31.059z M27.248,40.85c-0.976,0.676-1.126,1.502-0.452,2.478l1.856,2.683c0.675,0.977,1.501,1.127,2.478,0.452l7.807-5.399
		c0.977-0.676,1.127-1.502,0.451-2.478l-1.855-2.683c-0.675-0.977-1.5-1.127-2.477-0.452L27.248,40.85z"/>
	<path fill="#E11A8E" d="M21.387,15.688c1.708-1.182,3.216-1.652,4.522-1.414c1.307,0.238,2.551,1.211,3.732,2.919l3.207,4.636
		c1.182,1.707,1.652,3.215,1.414,4.522c-0.238,1.307-1.212,2.551-2.92,3.731l-7.807,5.4c-1.708,1.182-3.215,1.652-4.522,1.415
		c-1.307-0.239-2.551-1.212-3.733-2.92l-3.206-4.636c-1.182-1.708-1.652-3.215-1.415-4.521c0.238-1.308,1.211-2.552,2.919-3.732
		L21.387,15.688z M16.617,25.479c-0.976,0.676-1.126,1.502-0.452,2.478l1.856,2.683c0.675,0.977,1.501,1.127,2.477,0.452
		l7.808-5.399c0.977-0.676,1.127-1.502,0.451-2.478l-1.856-2.683c-0.675-0.977-1.5-1.127-2.477-0.452L16.617,25.479z"/>
	<path fill="#E11A8E" d="M19.686,2.797c1.879,2.717,3.797,5.838,5.755,9.365l-3.294,2.277c-2.242-3.763-3.976-6.531-5.202-8.305
		C16.686,5.761,16.371,5.54,16,5.473S15.255,5.5,14.881,5.76l-1.22,0.844c-0.976,0.674-1.127,1.5-0.451,2.477l4.893,7.074
		L8.1,23.074L0,11.363L3.416,9l5.063,7.319l3.172-2.193l-2.7-3.903c-1.103-1.595-1.55-3.016-1.344-4.266
		c0.207-1.248,1.05-2.385,2.53-3.408l1.708-1.182c1.594-1.103,3.024-1.537,4.29-1.308C17.398,0.291,18.583,1.203,19.686,2.797z"/>
</g>
</svg>
