<?xml version="1.0" encoding="utf-8"?>
<!-- Generator: Adobe Illustrator 16.0.0, SVG Export Plug-In . SVG Version: 6.00 Build 0)  -->
<!DOCTYPE svg PUBLIC "-//W3C//DTD SVG 1.1//EN" "http://www.w3.org/Graphics/SVG/1.1/DTD/svg11.dtd">
<svg version="1.1" id="레이어_1" xmlns="http://www.w3.org/2000/svg" xmlns:xlink="http://www.w3.org/1999/xlink" x="0px"
	 y="0px" width="33.315px" height="72.47px" viewBox="0 0 33.315 72.47" enable-background="new 0 0 33.315 72.47"
	 xml:space="preserve">
<g>
	<path fill="#E11A8E" d="M16.297,56.085c1.65-0.319,3.213,0.104,4.687,1.271c0.452,0.355,0.911,0.75,1.377,1.185l5.724,5.392
		L26.2,54.173l4.078-0.788l3.037,15.729l-5.534,1.068l-9.599-9.023l-1.456,0.281c-1.165,0.225-1.635,0.92-1.41,2.085l1.574,8.156
		l-4.077,0.788l-1.8-9.321c-0.394-2.039-0.219-3.61,0.525-4.71c0.745-1.1,2.136-1.848,4.175-2.241L16.297,56.085z"/>
	<path fill="#E11A8E" d="M21.257,36.394c2.039-0.394,3.609-0.218,4.709,0.526c1.101,0.745,1.848,2.137,2.241,4.176l1.068,5.534
		c0.395,2.039,0.219,3.608-0.525,4.709s-2.136,1.848-4.175,2.241l-9.321,1.8c-2.039,0.394-3.608,0.218-4.709-0.525
		c-1.1-0.745-1.848-2.137-2.241-4.176l-1.068-5.534c-0.394-2.039-0.218-3.608,0.526-4.709s2.135-1.848,4.174-2.242L21.257,36.394z
		 M12.948,43.437c-1.165,0.226-1.635,0.921-1.41,2.086l0.619,3.204c0.225,1.165,0.92,1.636,2.085,1.41l9.321-1.8
		c1.165-0.225,1.636-0.92,1.41-2.085l-0.618-3.204c-0.225-1.165-0.92-1.636-2.085-1.411L12.948,43.437z"/>
	<path fill="#E11A8E" d="M17.714,18.043c2.039-0.394,3.608-0.217,4.709,0.526c1.101,0.745,1.848,2.137,2.241,4.176l1.068,5.534
		c0.395,2.039,0.219,3.608-0.525,4.709c-0.744,1.1-2.136,1.848-4.175,2.241l-9.321,1.8c-2.039,0.395-3.608,0.218-4.709-0.525
		c-1.101-0.745-1.848-2.137-2.241-4.176l-1.068-5.534c-0.394-2.039-0.219-3.608,0.525-4.709s2.136-1.849,4.175-2.242L17.714,18.043z
		 M9.405,25.086c-1.165,0.226-1.635,0.921-1.41,2.086l0.618,3.204c0.225,1.165,0.92,1.636,2.085,1.41l9.321-1.8
		c1.165-0.225,1.635-0.92,1.41-2.085l-0.618-3.204c-0.226-1.165-0.921-1.636-2.085-1.411L9.405,25.086z"/>
	<path fill="#E11A8E" d="M1.273,14.269C0.76,11.608,0.336,8.367,0,4.544l3.933-0.759c0.148,1.079,0.27,1.998,0.366,2.754
		c0.096,0.758,0.175,1.377,0.238,1.858s0.12,0.959,0.171,1.432c0.111,0.784,0.23,1.508,0.358,2.167
		c0.229,1.185,0.829,1.684,1.799,1.496l2.622-0.506c-0.752-1.81-1.265-3.423-1.539-4.84L7.554,6.107
		c-0.255-1.32-0.062-2.455,0.581-3.405s1.624-1.553,2.944-1.808l3.787-0.731c1.767-0.341,3.169-0.147,4.206,0.578
		c1.036,0.727,1.739,2.042,2.106,3.944l1.068,5.534c0.367,1.903,0.205,3.385-0.486,4.445c-0.691,1.06-1.921,1.76-3.688,2.101
		L7.876,18.734c-1.903,0.367-3.387,0.191-4.453-0.529C2.358,17.484,1.642,16.172,1.273,14.269z M12.307,8.816
		c0.143,0.737,0.312,1.404,0.507,2c0.196,0.598,0.349,1.077,0.458,1.438l3.204-0.619c1.165-0.225,1.635-0.92,1.41-2.085
		l-0.506-2.622c-0.225-1.165-0.92-1.635-2.085-1.41l-2.476,0.479c-0.291,0.057-0.515,0.2-0.672,0.432
		c-0.156,0.231-0.207,0.494-0.15,0.785L12.307,8.816z"/>
</g>
</svg>
