<?xml version="1.0" encoding="utf-8"?>
<!-- Generator: Adobe Illustrator 16.0.0, SVG Export Plug-In . SVG Version: 6.00 Build 0)  -->
<!DOCTYPE svg PUBLIC "-//W3C//DTD SVG 1.1//EN" "http://www.w3.org/Graphics/SVG/1.1/DTD/svg11.dtd">
<svg version="1.1" id="레이어_1" xmlns="http://www.w3.org/2000/svg" xmlns:xlink="http://www.w3.org/1999/xlink" x="0px"
	 y="0px" width="33.512px" height="71.683px" viewBox="0 0 33.512 71.683" enable-background="new 0 0 33.512 71.683"
	 xml:space="preserve">
<g>
	<path fill="#E11A8E" d="M9.698,52.972c1.642,0.362,2.907,1.37,3.798,3.026c0.273,0.506,0.538,1.05,0.794,1.633l3.115,7.22
		l2.143-9.705l4.055,0.895l-3.451,15.643l-5.504-1.214L9.416,58.378l-1.448-0.319c-1.158-0.256-1.866,0.196-2.122,1.354l-1.79,8.111
		L0,66.629l2.046-9.27c0.447-2.028,1.231-3.399,2.351-4.114c1.12-0.714,2.694-0.849,4.722-0.4L9.698,52.972z"/>
	<path fill="#E11A8E" d="M22.063,36.865c2.027,0.447,3.399,1.231,4.114,2.351s0.848,2.693,0.4,4.721l-1.215,5.505
		c-0.447,2.028-1.23,3.398-2.351,4.114c-1.119,0.715-2.693,0.849-4.722,0.401l-9.27-2.046c-2.028-0.447-3.399-1.231-4.114-2.351
		c-0.715-1.12-0.849-2.693-0.401-4.722l1.215-5.505c0.447-2.027,1.231-3.398,2.351-4.113c1.12-0.715,2.694-0.849,4.722-0.401
		L22.063,36.865z M11.642,40.034c-1.159-0.256-1.866,0.194-2.122,1.354l-0.703,3.186c-0.256,1.159,0.196,1.866,1.354,2.122
		l9.271,2.046c1.158,0.256,1.866-0.195,2.122-1.354l0.702-3.186c0.256-1.16-0.195-1.866-1.354-2.122L11.642,40.034z"/>
	<path fill="#E11A8E" d="M26.089,18.615c2.028,0.447,3.4,1.23,4.114,2.351c0.716,1.119,0.849,2.693,0.401,4.721L29.39,31.19
		c-0.447,2.028-1.23,3.399-2.351,4.114c-1.119,0.716-2.693,0.85-4.722,0.402l-9.27-2.046c-2.028-0.447-3.399-1.231-4.114-2.352
		c-0.715-1.119-0.849-2.693-0.401-4.722l1.215-5.504c0.447-2.027,1.231-3.398,2.351-4.113c1.12-0.716,2.693-0.849,4.722-0.401
		L26.089,18.615z M15.669,21.783c-1.159-0.256-1.866,0.195-2.122,1.354l-0.703,3.187c-0.256,1.158,0.196,1.866,1.354,2.122
		l9.271,2.046c1.158,0.256,1.866-0.196,2.121-1.354l0.703-3.187c0.256-1.159-0.195-1.866-1.354-2.122L15.669,21.783z"/>
	<path fill="#E11A8E" d="M11.251,15.643L14.703,0l4.056,0.896l14.753,10.242l-1.278,5.794L17.544,6.399l-2.237,10.139L11.251,15.643
		z"/>
</g>
</svg>
