<?xml version="1.0" encoding="utf-8"?>
<!-- Generator: Adobe Illustrator 16.0.0, SVG Export Plug-In . SVG Version: 6.00 Build 0)  -->
<!DOCTYPE svg PUBLIC "-//W3C//DTD SVG 1.1//EN" "http://www.w3.org/Graphics/SVG/1.1/DTD/svg11.dtd">
<svg version="1.1" id="레이어_1" xmlns="http://www.w3.org/2000/svg" xmlns:xlink="http://www.w3.org/1999/xlink" x="0px"
	 y="0px" width="57.402px" height="68.281px" viewBox="0 0 57.402 68.281" enable-background="new 0 0 57.402 68.281"
	 xml:space="preserve">
<g>
	<path fill="#E11A8E" d="M14.386,46.942c1.356,0.995,2.106,2.428,2.254,4.301c0.046,0.573,0.068,1.178,0.066,1.815l-0.063,7.862
		l5.877-8.014l3.35,2.457l-9.475,12.917l-4.545-3.333l0.096-13.174l-1.195-0.877c-0.957-0.701-1.787-0.575-2.488,0.382L3.35,57.977
		L0,55.521l5.614-7.655c1.228-1.674,2.499-2.611,3.813-2.814c1.313-0.202,2.807,0.313,4.481,1.54L14.386,46.942z"/>
	<path fill="#E11A8E" d="M32.201,37.198c1.675,1.228,2.613,2.498,2.814,3.812c0.202,1.313-0.311,2.808-1.539,4.482l-3.333,4.545
		c-1.229,1.675-2.499,2.612-3.812,2.814c-1.314,0.201-2.808-0.312-4.482-1.54l-7.654-5.613c-1.675-1.229-2.613-2.499-2.814-3.812
		c-0.202-1.313,0.311-2.808,1.539-4.481l3.333-4.545c1.229-1.676,2.499-2.613,3.812-2.815c1.314-0.202,2.808,0.311,4.482,1.538
		L32.201,37.198z M21.389,35.889c-0.957-0.701-1.787-0.573-2.488,0.384l-1.93,2.631c-0.701,0.957-0.574,1.786,0.383,2.487
		l7.654,5.615c0.957,0.701,1.787,0.574,2.488-0.383l1.93-2.631c0.701-0.957,0.574-1.787-0.383-2.488L21.389,35.889z"/>
	<path fill="#E11A8E" d="M43.254,22.127c1.675,1.228,2.613,2.498,2.814,3.812c0.203,1.313-0.311,2.807-1.539,4.482l-3.332,4.544
		c-1.229,1.675-2.5,2.612-3.813,2.814c-1.313,0.202-2.807-0.311-4.481-1.539l-7.655-5.613c-1.674-1.229-2.612-2.499-2.814-3.813
		c-0.201-1.313,0.311-2.807,1.539-4.482l3.334-4.543c1.228-1.676,2.498-2.614,3.811-2.815c1.314-0.202,2.808,0.311,4.482,1.538
		L43.254,22.127z M32.441,20.819c-0.957-0.702-1.786-0.573-2.488,0.383l-1.93,2.631c-0.701,0.957-0.574,1.786,0.383,2.488
		l7.654,5.613c0.957,0.702,1.787,0.574,2.488-0.383l1.93-2.631c0.702-0.955,0.574-1.786-0.382-2.488L32.441,20.819z"/>
	<path fill="#E11A8E" d="M54.722,6.992c1.563,1.146,2.442,2.355,2.638,3.628c0.195,1.271-0.279,2.689-1.426,4.252l-4.035,5.502
		c-1.146,1.563-2.355,2.441-3.627,2.637c-1.271,0.196-2.688-0.279-4.252-1.426l-0.238-0.176c-1.213-0.889-1.995-1.928-2.348-3.119
		c-0.287-0.946-0.238-1.916,0.146-2.909c-0.766,0.543-1.608,0.814-2.527,0.813c-0.92,0-1.859-0.352-2.815-1.053l-0.239-0.176
		c-1.451-1.063-2.263-2.224-2.435-3.477c-0.171-1.255,0.315-2.664,1.462-4.227l3.334-4.545c1.146-1.563,2.343-2.45,3.591-2.664
		c1.247-0.213,2.597,0.214,4.048,1.277l0.239,0.176c0.956,0.701,1.573,1.49,1.851,2.367c0.276,0.878,0.271,1.763-0.017,2.656
		c1.299-1.035,2.802-1.279,4.514-0.737c0.611,0.204,1.243,0.544,1.897,1.024L54.722,6.992z M39.252,8.523
		c-0.702,0.957-0.574,1.786,0.383,2.487l0.717,0.526c0.957,0.702,1.786,0.575,2.488-0.382l1.578-2.152
		c0.703-0.959,0.576-1.787-0.382-2.489l-0.718-0.526c-0.956-0.701-1.785-0.574-2.488,0.384L39.252,8.523z M45.839,14.089
		c-0.702,0.957-0.575,1.786,0.382,2.487l0.957,0.702c0.367,0.27,0.736,0.375,1.109,0.317c0.373-0.059,0.695-0.27,0.964-0.637
		l2.632-3.588c0.269-0.365,0.375-0.736,0.318-1.11c-0.059-0.373-0.27-0.693-0.637-0.963l-0.957-0.702
		c-0.957-0.701-1.786-0.573-2.488,0.384L45.839,14.089z"/>
</g>
</svg>
