<?xml version="1.0" encoding="utf-8"?>
<!-- Generator: Adobe Illustrator 16.0.0, SVG Export Plug-In . SVG Version: 6.00 Build 0)  -->
<!DOCTYPE svg PUBLIC "-//W3C//DTD SVG 1.1//EN" "http://www.w3.org/Graphics/SVG/1.1/DTD/svg11.dtd">
<svg version="1.1" id="레이어_1" xmlns="http://www.w3.org/2000/svg" xmlns:xlink="http://www.w3.org/1999/xlink" x="0px"
	 y="0px" width="85px" height="25px" viewBox="0 0 85 25" enable-background="new 0 0 85 25" xml:space="preserve">
<g>
	<path fill="#E11A8E" d="M18.889,7.986c0,1.968-0.839,3.668-2.519,5.104c-0.513,0.439-1.072,0.88-1.679,1.319l-7.521,5.383h11.718
		v4.86H0v-6.597l12.592-9.028V7.292c0-1.389-0.7-2.083-2.098-2.083H0.7V0.347h11.193c2.45,0,4.228,0.551,5.335,1.649
		c1.107,1.1,1.661,2.864,1.661,5.295V7.986z"/>
	<path fill="#E11A8E" d="M40.576,18.056c0,2.431-0.554,4.195-1.661,5.294C37.807,24.45,36.029,25,33.58,25h-6.646
		c-2.449,0-4.227-0.55-5.335-1.65c-1.108-1.099-1.661-2.863-1.661-5.294V6.944c0-2.43,0.553-4.195,1.661-5.295
		C22.708,0.55,24.485,0,26.935,0h6.646c2.449,0,4.227,0.55,5.335,1.649c1.107,1.101,1.661,2.865,1.661,5.295V18.056z M34.28,6.944
		c0-1.389-0.7-2.083-2.099-2.083h-3.848c-1.398,0-2.098,0.695-2.098,2.083v11.111c0,1.389,0.7,2.083,2.098,2.083h3.848
		c1.399,0,2.099-0.694,2.099-2.083V6.944z"/>
	<path fill="#E11A8E" d="M62.613,18.056c0,2.431-0.554,4.195-1.661,5.294C59.844,24.45,58.066,25,55.618,25h-6.646
		c-2.449,0-4.228-0.55-5.335-1.65c-1.108-1.099-1.661-2.863-1.661-5.294V6.944c0-2.43,0.553-4.195,1.661-5.295
		C44.744,0.55,46.522,0,48.972,0h6.646c2.448,0,4.226,0.55,5.334,1.649c1.107,1.101,1.661,2.865,1.661,5.295V18.056z M56.316,6.944
		c0-1.389-0.698-2.083-2.098-2.083h-3.848c-1.399,0-2.1,0.695-2.1,2.083v11.111c0,1.389,0.7,2.083,2.1,2.083h3.848
		c1.399,0,2.098-0.694,2.098-2.083V6.944z"/>
	<path fill="#E11A8E" d="M85,18.402c0,2.27-0.536,3.936-1.608,5C82.318,24.468,80.64,25,78.354,25h-8.046
		c-2.285,0-3.965-0.532-5.037-1.598c-1.072-1.064-1.608-2.73-1.608-5v-0.347c0-1.759,0.442-3.218,1.328-4.376
		c0.701-0.926,1.656-1.55,2.869-1.875c-1.05-0.347-1.895-0.954-2.536-1.822s-0.962-1.997-0.962-3.386V6.25
		c0-2.106,0.535-3.675,1.609-4.705C67.044,0.516,68.723,0,71.009,0h6.646c2.285,0,3.964,0.516,5.037,1.545
		c1.072,1.03,1.609,2.599,1.609,4.705v0.347c0,1.389-0.321,2.518-0.962,3.386c-0.643,0.868-1.487,1.475-2.536,1.822
		c1.889,0.51,3.171,1.76,3.848,3.75c0.232,0.718,0.35,1.551,0.35,2.5V18.402z M72.059,14.93c-1.399,0-2.1,0.695-2.1,2.085v1.388
		c0,0.534,0.157,0.955,0.472,1.268c0.315,0.313,0.74,0.469,1.277,0.469h5.247c0.536,0,0.962-0.155,1.276-0.469
		c0.315-0.313,0.473-0.733,0.473-1.268v-1.388c0-1.39-0.7-2.085-2.1-2.085H72.059z M72.757,4.861c-1.399,0-2.098,0.695-2.098,2.083
		v1.042c0,1.389,0.698,2.083,2.098,2.083h3.149c1.399,0,2.098-0.694,2.098-2.083V6.944c0-1.389-0.698-2.083-2.098-2.083H72.757z"/>
</g>
</svg>
