<?xml version="1.0" encoding="utf-8"?>
<!-- Generator: Adobe Illustrator 16.0.0, SVG Export Plug-In . SVG Version: 6.00 Build 0)  -->
<!DOCTYPE svg PUBLIC "-//W3C//DTD SVG 1.1//EN" "http://www.w3.org/Graphics/SVG/1.1/DTD/svg11.dtd">
<svg version="1.1" id="레이어_1" xmlns="http://www.w3.org/2000/svg" xmlns:xlink="http://www.w3.org/1999/xlink" x="0px"
	 y="0px" width="70.946px" height="22.525px" viewBox="0 0 70.946 22.525" enable-background="new 0 0 70.946 22.525"
	 xml:space="preserve">
<g>
	<path fill="#E11A8E" d="M16.339,6.876c-0.038,1.681-0.783,3.117-2.234,4.311c-0.443,0.366-0.927,0.731-1.449,1.096l-6.481,4.451
		l9.936,0.227l-0.095,4.151L0,20.747l0.128-5.635L10.98,7.645l0.034-1.483c0.026-1.186-0.553-1.792-1.739-1.819L0.971,4.152L1.065,0
		l9.491,0.217c2.076,0.047,3.572,0.551,4.49,1.512c0.917,0.96,1.354,2.479,1.306,4.554L16.339,6.876z"/>
	<path fill="#E11A8E" d="M34.531,15.896c-0.048,2.076-0.552,3.573-1.512,4.491c-0.961,0.918-2.479,1.353-4.555,1.306l-5.636-0.129
		c-2.076-0.047-3.573-0.55-4.49-1.511c-0.918-0.961-1.354-2.479-1.307-4.556l0.217-9.49c0.047-2.076,0.551-3.572,1.512-4.49
		c0.96-0.918,2.479-1.354,4.555-1.307l5.636,0.129c2.076,0.047,3.572,0.551,4.49,1.512c0.917,0.961,1.354,2.479,1.306,4.555
		L34.531,15.896z M29.409,6.283c0.026-1.187-0.553-1.792-1.739-1.819L24.407,4.39c-1.187-0.027-1.793,0.552-1.819,1.738l-0.217,9.49
		c-0.026,1.187,0.553,1.794,1.739,1.821l3.262,0.074c1.187,0.027,1.794-0.554,1.82-1.74L29.409,6.283z"/>
	<path fill="#E11A8E" d="M53.216,16.321c-0.048,2.076-0.552,3.573-1.512,4.491c-0.961,0.918-2.479,1.353-4.555,1.305l-5.636-0.128
		c-2.076-0.048-3.573-0.551-4.49-1.512c-0.918-0.96-1.354-2.479-1.307-4.555l0.217-9.49c0.047-2.076,0.551-3.573,1.512-4.491
		c0.96-0.918,2.479-1.354,4.555-1.306l5.636,0.128c2.076,0.048,3.572,0.552,4.49,1.513c0.917,0.961,1.354,2.479,1.306,4.555
		L53.216,16.321z M48.094,6.709c0.026-1.187-0.553-1.793-1.739-1.819l-3.263-0.074c-1.187-0.027-1.793,0.552-1.82,1.738l-0.216,9.49
		c-0.027,1.187,0.553,1.794,1.738,1.821l3.263,0.074c1.187,0.026,1.794-0.554,1.82-1.74L48.094,6.709z"/>
	<path fill="#E11A8E" d="M55.261,17.703c4.065,0.39,6.93,0.604,8.591,0.642c0.454,0.01,0.818-0.115,1.091-0.376
		c0.273-0.262,0.415-0.619,0.426-1.074l0.061-2.669c-1.928,0.352-3.612,0.511-5.056,0.479l-2.076-0.048
		c-1.344-0.03-2.413-0.459-3.204-1.289c-0.793-0.829-1.174-1.917-1.143-3.261l0.088-3.855c0.04-1.8,0.525-3.128,1.456-3.987
		c0.929-0.859,2.362-1.267,4.301-1.223l5.635,0.128c1.938,0.044,3.351,0.518,4.24,1.418s1.313,2.25,1.273,4.05l-0.237,10.38
		c-0.044,1.938-0.531,3.351-1.461,4.239c-0.931,0.89-2.364,1.311-4.302,1.267c-2.709-0.062-5.967-0.334-9.773-0.815L55.261,17.703z
		 M61.951,10.586c1.127,0.025,2.315-0.046,3.565-0.216l0.074-3.263c0.027-1.187-0.553-1.793-1.739-1.819l-2.669-0.062
		C59.996,5.2,59.39,5.779,59.363,6.966l-0.058,2.521c-0.007,0.296,0.086,0.546,0.279,0.748c0.192,0.202,0.438,0.307,0.734,0.313
		L61.951,10.586z"/>
</g>
</svg>
