<?xml version="1.0" encoding="utf-8"?>
<!-- Generator: Adobe Illustrator 16.0.0, SVG Export Plug-In . SVG Version: 6.00 Build 0)  -->
<!DOCTYPE svg PUBLIC "-//W3C//DTD SVG 1.1//EN" "http://www.w3.org/Graphics/SVG/1.1/DTD/svg11.dtd">
<svg version="1.1" id="레이어_1" xmlns="http://www.w3.org/2000/svg" xmlns:xlink="http://www.w3.org/1999/xlink" x="0px"
	 y="0px" width="65.923px" height="32.819px" viewBox="0 0 65.923 32.819" enable-background="new 0 0 65.923 32.819"
	 xml:space="preserve">
<g>
	<path fill="#E11A8E" d="M18.638,9.602c-0.352,1.645-1.351,2.917-2.999,3.819c-0.503,0.276-1.046,0.546-1.628,0.806l-7.196,3.166
		l9.719,2.073l-0.867,4.062L0,20.186l1.177-5.513l12.053-5.315l0.31-1.45c0.248-1.161-0.208-1.864-1.368-2.112L4.047,4.062L4.913,0
		l9.284,1.98c2.03,0.434,3.406,1.208,4.131,2.322c0.722,1.114,0.866,2.688,0.433,4.719L18.638,9.602z"/>
	<path fill="#E11A8E" d="M34.832,21.853c-0.434,2.031-1.208,3.408-2.323,4.13c-1.114,0.724-2.687,0.868-4.719,0.435l-5.512-1.176
		c-2.031-0.433-3.408-1.207-4.131-2.322c-0.723-1.114-0.867-2.688-0.434-4.719l1.98-9.283c0.433-2.031,1.206-3.407,2.321-4.131
		c1.115-0.723,2.688-0.867,4.719-0.434l5.512,1.176c2.032,0.434,3.409,1.207,4.131,2.321c0.723,1.115,0.868,2.688,0.436,4.719
		L34.832,21.853z M31.59,11.454c0.247-1.16-0.21-1.865-1.37-2.112l-3.19-0.681c-1.161-0.248-1.865,0.21-2.112,1.37l-1.98,9.283
		c-0.248,1.161,0.208,1.865,1.369,2.112l3.19,0.681c1.16,0.248,1.865-0.208,2.113-1.369L31.59,11.454z"/>
	<path fill="#E11A8E" d="M38.44,28.386l3.374-15.812l-3.584,0.448l-0.738-3.646L43.354,8.2l4.642,0.99L43.663,29.5L38.44,28.386z"/>
	<path fill="#E11A8E" d="M63.699,28.01c-0.434,2.031-1.208,3.409-2.323,4.131c-1.115,0.724-2.688,0.868-4.719,0.435l-5.512-1.176
		c-2.031-0.433-3.408-1.207-4.131-2.322c-0.723-1.114-0.867-2.688-0.434-4.719l1.98-9.283c0.433-2.031,1.206-3.407,2.321-4.131
		c1.115-0.723,2.688-0.867,4.719-0.434l5.512,1.176c2.031,0.434,3.408,1.207,4.131,2.321c0.723,1.115,0.868,2.688,0.436,4.719
		L63.699,28.01z M60.457,17.612c0.247-1.16-0.21-1.865-1.37-2.112l-3.191-0.681c-1.16-0.248-1.864,0.21-2.111,1.37l-1.98,9.283
		c-0.248,1.161,0.208,1.865,1.368,2.112l3.191,0.681c1.16,0.248,1.865-0.208,2.113-1.369L60.457,17.612z"/>
</g>
</svg>
