<?xml version="1.0" encoding="utf-8"?>
<!-- Generator: Adobe Illustrator 16.0.0, SVG Export Plug-In . SVG Version: 6.00 Build 0)  -->
<!DOCTYPE svg PUBLIC "-//W3C//DTD SVG 1.1//EN" "http://www.w3.org/Graphics/SVG/1.1/DTD/svg11.dtd">
<svg version="1.1" id="레이어_1" xmlns="http://www.w3.org/2000/svg" xmlns:xlink="http://www.w3.org/1999/xlink" x="0px"
	 y="0px" width="57.145px" height="48.937px" viewBox="0 0 57.145 48.937" enable-background="new 0 0 57.145 48.937"
	 xml:space="preserve">
<g>
	<path fill="#E11A8E" d="M21.321,14.315c-0.983,1.363-2.41,2.126-4.283,2.287c-0.572,0.051-1.177,0.078-1.814,0.082l-7.862,0.001
		l8.063,5.812l-2.429,3.369L0,16.499l3.296-4.572l13.173-0.013l0.867-1.203c0.694-0.963,0.56-1.791-0.403-2.485l-6.738-4.856
		L12.623,0l7.701,5.551c1.685,1.214,2.633,2.478,2.847,3.788c0.212,1.312-0.288,2.811-1.503,4.494L21.321,14.315z"/>
	<path fill="#E11A8E" d="M31.212,32.048c-1.214,1.686-2.478,2.634-3.789,2.846c-1.311,0.213-2.81-0.287-4.494-1.502l-4.572-3.295
		c-1.685-1.215-2.633-2.478-2.846-3.789c-0.214-1.311,0.288-2.809,1.502-4.494l5.551-7.701c1.214-1.684,2.477-2.633,3.789-2.846
		c1.311-0.213,2.809,0.288,4.493,1.502l4.572,3.296c1.685,1.215,2.634,2.478,2.847,3.788c0.213,1.313-0.288,2.811-1.502,4.494
		L31.212,32.048z M32.431,21.225c0.693-0.963,0.56-1.791-0.403-2.485l-2.646-1.907c-0.963-0.694-1.792-0.56-2.485,0.403
		l-5.551,7.701c-0.693,0.962-0.56,1.791,0.403,2.484l2.646,1.908c0.963,0.693,1.792,0.559,2.485-0.403L32.431,21.225z"/>
	<path fill="#E11A8E" d="M31.887,39.482l9.454-13.116l-3.462-1.031l0.792-3.635l5.84,1.283l3.85,2.775L36.218,42.604L31.887,39.482z
		"/>
	<path fill="#E11A8E" d="M40.671,45.814l9.454-13.116l-3.462-1.032l0.792-3.635l5.84,1.284l3.85,2.774L45.002,48.937L40.671,45.814z
		"/>
</g>
</svg>
