<?xml version="1.0" encoding="utf-8"?>
<!-- Generator: Adobe Illustrator 16.0.0, SVG Export Plug-In . SVG Version: 6.00 Build 0)  -->
<!DOCTYPE svg PUBLIC "-//W3C//DTD SVG 1.1//EN" "http://www.w3.org/Graphics/SVG/1.1/DTD/svg11.dtd">
<svg version="1.1" id="레이어_1" xmlns="http://www.w3.org/2000/svg" xmlns:xlink="http://www.w3.org/1999/xlink" x="0px"
	 y="0px" width="47.723px" height="63.243px" viewBox="0 0 47.723 63.243" enable-background="new 0 0 47.723 63.243"
	 xml:space="preserve">
<g>
	<path fill="#E11A8E" d="M20.438,16.591c-1.443,0.861-3.057,0.995-4.84,0.401c-0.545-0.181-1.111-0.396-1.697-0.645l-7.218-3.118
		l5.096,8.532l-3.566,2.13L0,10.138l4.839-2.891l12.098,5.216l1.273-0.761c1.02-0.608,1.224-1.422,0.615-2.44L14.566,2.13L18.133,0
		L23,8.15c1.064,1.783,1.435,3.318,1.109,4.606c-0.325,1.287-1.378,2.465-3.161,3.529L20.438,16.591z"/>
	<path fill="#E11A8E" d="M22.482,36.792c-1.783,1.065-3.318,1.436-4.606,1.11s-2.465-1.379-3.529-3.161l-2.891-4.84
		c-1.064-1.783-1.435-3.318-1.109-4.606c0.324-1.288,1.379-2.465,3.162-3.53l8.15-4.867c1.782-1.064,3.317-1.435,4.606-1.109
		c1.288,0.325,2.464,1.379,3.529,3.162l2.89,4.84c1.064,1.782,1.435,3.317,1.11,4.605c-0.325,1.288-1.379,2.465-3.162,3.529
		L22.482,36.792z M27.896,27.341c1.019-0.608,1.224-1.421,0.615-2.44l-1.673-2.802c-0.608-1.019-1.423-1.225-2.441-0.616
		l-8.15,4.867c-1.019,0.608-1.224,1.423-0.615,2.441l1.673,2.802c0.608,1.02,1.422,1.224,2.441,0.615L27.896,27.341z"/>
	<path fill="#E11A8E" d="M20.152,43.885l13.882-8.29l-2.769-2.32l2.169-3.022l4.852,3.495l2.434,4.075L22.891,48.47L20.152,43.885z"
		/>
	<path fill="#E11A8E" d="M43.938,55.942c-1.443,0.861-3.057,0.995-4.84,0.4c-0.546-0.18-1.111-0.395-1.697-0.645l-7.218-3.118
		l5.095,8.533l-3.565,2.13l-8.214-13.754l4.84-2.891l12.098,5.215l1.273-0.761c1.019-0.608,1.224-1.422,0.615-2.44l-4.259-7.132
		l3.566-2.13l4.867,8.15c1.064,1.783,1.434,3.319,1.109,4.607c-0.325,1.287-1.379,2.465-3.162,3.529L43.938,55.942z"/>
</g>
</svg>
