<?xml version="1.0" encoding="utf-8"?>
<!-- Generator: Adobe Illustrator 16.0.0, SVG Export Plug-In . SVG Version: 6.00 Build 0)  -->
<!DOCTYPE svg PUBLIC "-//W3C//DTD SVG 1.1//EN" "http://www.w3.org/Graphics/SVG/1.1/DTD/svg11.dtd">
<svg version="1.1" id="레이어_1" xmlns="http://www.w3.org/2000/svg" xmlns:xlink="http://www.w3.org/1999/xlink" x="0px"
	 y="0px" width="27.576px" height="63.358px" viewBox="0 0 27.576 63.358" enable-background="new 0 0 27.576 63.358"
	 xml:space="preserve">
<g>
	<path fill="#E11A8E" d="M16.094,16.108c-1.669,0.206-3.199-0.322-4.59-1.585c-0.426-0.386-0.857-0.811-1.293-1.276L4.866,7.481
		l1.217,9.862l-4.122,0.508L0,1.953l5.594-0.689l8.963,9.654l1.473-0.182c1.177-0.146,1.693-0.806,1.548-1.983l-1.017-8.244
		L20.683,0l1.162,9.422c0.254,2.061-0.027,3.614-0.845,4.663c-0.817,1.046-2.257,1.696-4.317,1.951L16.094,16.108z"/>
	<path fill="#E11A8E" d="M9.807,35.417c-2.061,0.254-3.614-0.027-4.662-0.845c-1.048-0.816-1.698-2.257-1.952-4.318l-0.69-5.593
		c-0.254-2.062,0.027-3.615,0.845-4.663c0.817-1.047,2.257-1.698,4.317-1.952l9.422-1.162c2.061-0.255,3.615,0.027,4.662,0.844
		c1.048,0.818,1.698,2.258,1.953,4.319l0.689,5.593c0.254,2.062-0.027,3.616-0.845,4.662c-0.817,1.048-2.257,1.698-4.317,1.953
		L9.807,35.417z M18.574,28.956c1.178-0.146,1.694-0.809,1.549-1.986l-0.399-3.238c-0.145-1.177-0.807-1.693-1.984-1.548
		l-9.422,1.162C7.141,23.49,6.624,24.153,6.77,25.33l0.399,3.238c0.146,1.178,0.807,1.694,1.983,1.55L18.574,28.956z"/>
	<path fill="#E11A8E" d="M4.812,40.964l16.047-1.979l-1.596-3.24l3.204-1.891l3.027,5.157l0.581,4.711L5.466,46.264L4.812,40.964z"
		/>
	<path fill="#E11A8E" d="M6.66,58.371c-0.404-3.278-0.655-6.933-0.754-10.966l3.975-0.49c0.239,4.374,0.492,7.632,0.756,9.771
		c0.056,0.452,0.233,0.794,0.53,1.026c0.297,0.231,0.672,0.32,1.124,0.265l1.178-0.146c1.177-0.146,1.693-0.808,1.548-1.985
		l-0.763-6.183l4.122-0.509l0.69,5.595c0.146,1.178,0.807,1.693,1.984,1.548l0.589-0.072c1.178-0.146,1.694-0.806,1.549-1.983
		l-1.054-8.539l4.122-0.509l1.235,10.012c0.237,1.923-0.025,3.39-0.787,4.4c-0.763,1.011-2.037,1.626-3.822,1.846
		c-1.178,0.146-2.168-0.006-2.972-0.455c-0.803-0.448-1.405-1.097-1.809-1.943c-0.235,1.644-1.162,2.854-2.78,3.631
		c-0.584,0.271-1.278,0.457-2.084,0.557l-0.294,0.036c-1.924,0.237-3.393-0.041-4.406-0.832C7.523,61.652,6.897,60.295,6.66,58.371z
		"/>
</g>
</svg>
