<?xml version="1.0" encoding="utf-8"?>
<!-- Generator: Adobe Illustrator 16.0.0, SVG Export Plug-In . SVG Version: 6.00 Build 0)  -->
<!DOCTYPE svg PUBLIC "-//W3C//DTD SVG 1.1//EN" "http://www.w3.org/Graphics/SVG/1.1/DTD/svg11.dtd">
<svg version="1.1" id="레이어_1" xmlns="http://www.w3.org/2000/svg" xmlns:xlink="http://www.w3.org/1999/xlink" x="0px"
	 y="0px" width="48.808px" height="61.367px" viewBox="0 0 48.808 61.367" enable-background="new 0 0 48.808 61.367"
	 xml:space="preserve">
<g>
	<path fill="#E11A8E" d="M13.376,40.37c1.455,0.842,2.356,2.187,2.703,4.032c0.107,0.565,0.195,1.164,0.264,1.799l0.783,7.822
		l4.979-8.602l3.596,2.081l-8.025,13.864l-4.879-2.823l-1.325-13.106l-1.284-0.744c-1.026-0.594-1.837-0.377-2.432,0.649
		l-4.161,7.189L0,50.451l4.755-8.216c1.041-1.798,2.202-2.866,3.486-3.21c1.283-0.342,2.824,0.008,4.621,1.047L13.376,40.37z"/>
	<path fill="#E11A8E" d="M30.034,28.761c1.798,1.041,2.867,2.202,3.21,3.485c0.343,1.285-0.006,2.824-1.046,4.622l-2.824,4.878
		c-1.04,1.798-2.202,2.868-3.485,3.21c-1.284,0.343-2.824-0.006-4.622-1.046l-8.216-4.756c-1.797-1.041-2.867-2.203-3.209-3.486
		c-0.343-1.283,0.006-2.824,1.046-4.621l2.824-4.878c1.04-1.797,2.202-2.867,3.485-3.209c1.284-0.342,2.824,0.006,4.621,1.046
		L30.034,28.761z M19.144,28.626c-1.027-0.594-1.837-0.378-2.432,0.649L15.077,32.1c-0.595,1.026-0.379,1.837,0.648,2.432
		l8.217,4.756c1.026,0.595,1.837,0.378,2.432-0.649l1.635-2.824c0.595-1.027,0.378-1.838-0.648-2.432L19.144,28.626z"/>
	<path fill="#E11A8E" d="M37.365,27.347l-13.993-8.099l-0.682,3.547l-3.695-0.425l0.695-5.939l2.378-4.108L40.04,22.726
		L37.365,27.347z"/>
	<path fill="#E11A8E" d="M42.538,10.119l-5.498,9.5l-3.596-2.081L26.229,5.135L29.201,0l7.216,12.403l2.526-4.365L35.093,5.81
		l2.675-4.622l3.851,2.229l1.04-1.797L46.253,3.7l-1.04,1.797l3.595,2.081L46.133,12.2L42.538,10.119z"/>
</g>
</svg>
