<?xml version="1.0" encoding="utf-8"?>
<!-- Generator: Adobe Illustrator 16.0.0, SVG Export Plug-In . SVG Version: 6.00 Build 0)  -->
<!DOCTYPE svg PUBLIC "-//W3C//DTD SVG 1.1//EN" "http://www.w3.org/Graphics/SVG/1.1/DTD/svg11.dtd">
<svg version="1.1" id="레이어_1" xmlns="http://www.w3.org/2000/svg" xmlns:xlink="http://www.w3.org/1999/xlink" x="0px"
	 y="0px" width="60.177px" height="53.309px" viewBox="0 0 60.177 53.309" enable-background="new 0 0 60.177 53.309"
	 xml:space="preserve">
<g>
	<path fill="#E11A8E" d="M16.242,32.292c1.014,1.342,1.322,2.931,0.924,4.767c-0.119,0.563-0.271,1.148-0.457,1.759l-2.318,7.512
		l7.93-5.988l2.504,3.314l-12.783,9.653l-3.397-4.498l3.875-12.591l-0.894-1.184c-0.715-0.947-1.547-1.063-2.494-0.348l-6.629,5.006
		L0,36.38l7.575-5.721c1.657-1.252,3.144-1.785,4.46-1.602c1.315,0.184,2.598,1.104,3.85,2.762L16.242,32.292z"/>
	<path fill="#E11A8E" d="M36.105,28.073c1.252,1.657,1.785,3.145,1.602,4.459c-0.184,1.316-1.104,2.6-2.761,3.852l-4.497,3.396
		c-1.658,1.252-3.145,1.785-4.461,1.602c-1.315-0.184-2.6-1.104-3.851-2.762l-5.72-7.575c-1.252-1.657-1.785-3.143-1.603-4.459
		c0.185-1.315,1.104-2.599,2.762-3.851l4.497-3.396c1.658-1.252,3.145-1.785,4.46-1.602c1.316,0.184,2.6,1.104,3.851,2.761
		L36.105,28.073z M26.124,23.715c-0.716-0.947-1.547-1.063-2.494-0.348l-2.604,1.966c-0.946,0.715-1.063,1.547-0.348,2.494
		l5.72,7.576c0.716,0.947,1.547,1.063,2.494,0.348l2.604-1.967c0.947-0.715,1.063-1.546,0.348-2.493L26.124,23.715z"/>
	<path fill="#E11A8E" d="M43.408,29.622L33.664,16.72l-2.006,3.002l-3.24-1.829l2.949-5.201l3.788-2.86L47.67,26.404L43.408,29.622z
		"/>
	<path fill="#E11A8E" d="M57.555,19.312c-2.636,1.99-5.675,4.037-9.117,6.141l-2.413-3.196c3.667-2.397,6.36-4.246,8.08-5.544
		c0.363-0.274,0.571-0.599,0.623-0.972c0.052-0.374-0.059-0.742-0.333-1.105l-0.894-1.184c-0.716-0.947-1.546-1.063-2.493-0.347
		l-6.865,5.184l-7.33-9.707L48.176,0l2.504,3.314l-7.103,5.363l2.323,3.078l3.788-2.86c1.547-1.168,2.948-1.675,4.205-1.521
		c1.256,0.155,2.427,0.95,3.511,2.386l1.252,1.657c1.168,1.547,1.662,2.957,1.485,4.231C59.963,16.923,59.102,18.144,57.555,19.312z
		"/>
</g>
</svg>
