<?xml version="1.0" encoding="utf-8"?>
<!-- Generator: Adobe Illustrator 16.0.0, SVG Export Plug-In . SVG Version: 6.00 Build 0)  -->
<!DOCTYPE svg PUBLIC "-//W3C//DTD SVG 1.1//EN" "http://www.w3.org/Graphics/SVG/1.1/DTD/svg11.dtd">
<svg version="1.1" id="레이어_1" xmlns="http://www.w3.org/2000/svg" xmlns:xlink="http://www.w3.org/1999/xlink" x="0px"
	 y="0px" width="64.87px" height="39.331px" viewBox="0 0 64.87 39.331" enable-background="new 0 0 64.87 39.331"
	 xml:space="preserve">
<g>
	<path fill="#E11A8E" d="M20.151,11.772c-0.622,1.563-1.821,2.649-3.599,3.262c-0.542,0.188-1.122,0.361-1.739,0.52l-7.627,1.911
		l9.231,3.678L14.881,25L0,19.072l2.087-5.236l12.774-3.213l0.549-1.378c0.439-1.103,0.108-1.872-0.993-2.312L6.7,3.858L8.237,0
		l8.818,3.514c1.929,0.768,3.156,1.763,3.682,2.983c0.524,1.22,0.402,2.795-0.366,4.724L20.151,11.772z"/>
	<path fill="#E11A8E" d="M34.054,26.574c-0.768,1.928-1.763,3.155-2.983,3.681c-1.22,0.524-2.796,0.403-4.724-0.366l-5.236-2.086
		c-1.93-0.769-3.156-1.764-3.681-2.983c-0.525-1.221-0.403-2.796,0.364-4.724l3.515-8.819c0.769-1.929,1.763-3.156,2.983-3.681
		c1.221-0.525,2.795-0.403,4.725,0.366l5.236,2.086c1.928,0.769,3.156,1.763,3.68,2.984c0.525,1.22,0.404,2.795-0.364,4.724
		L34.054,26.574z M32.607,15.778c0.438-1.103,0.107-1.873-0.995-2.313l-3.031-1.207c-1.103-0.439-1.873-0.108-2.312,0.994
		l-3.515,8.818c-0.438,1.103-0.107,1.874,0.995,2.313l3.031,1.208c1.103,0.439,1.873,0.107,2.312-0.994L32.607,15.778z"/>
	<path fill="#E11A8E" d="M36.514,33.621l5.984-15.02l-3.608-0.16l-0.115-3.719l5.978-0.173l4.409,1.757l-7.687,19.291L36.514,33.621
		z"/>
	<path fill="#E11A8E" d="M49.988,16.636l14.882,5.93l-1.537,3.857L50.845,39.331l-5.512-2.196l12.764-12.797l-9.646-3.844
		L49.988,16.636z"/>
</g>
</svg>
