<?xml version="1.0" encoding="utf-8"?>
<!-- Generator: Adobe Illustrator 16.0.0, SVG Export Plug-In . SVG Version: 6.00 Build 0)  -->
<!DOCTYPE svg PUBLIC "-//W3C//DTD SVG 1.1//EN" "http://www.w3.org/Graphics/SVG/1.1/DTD/svg11.dtd">
<svg version="1.1" id="레이어_1" xmlns="http://www.w3.org/2000/svg" xmlns:xlink="http://www.w3.org/1999/xlink" x="0px"
	 y="0px" width="207px" height="207px" viewBox="0 0 207 207" enable-background="new 0 0 207 207" xml:space="preserve">
<circle fill="#FFFFFF" cx="103.5" cy="103.5" r="103.5"/>
<g>
	<g enable-background="new    ">
		<path fill="#E11A8E" d="M71.243,55.713c0,2.952-1.266,5.504-3.797,7.656c-0.774,0.66-1.618,1.32-2.532,1.979l-11.339,8.073h17.667
			v7.292H42.764v-9.896L61.75,57.275v-2.604c0-2.083-1.055-3.125-3.165-3.125H43.818v-7.292h16.877c3.691,0,6.372,0.825,8.042,2.474
			c1.669,1.649,2.505,4.297,2.505,7.942L71.243,55.713L71.243,55.713z"/>
		<path fill="#E11A8E" d="M106.051,70.817c0,3.646-0.836,6.293-2.505,7.942c-1.67,1.649-4.351,2.474-8.043,2.474H85.482
			c-3.691,0-6.373-0.825-8.042-2.474c-1.67-1.649-2.505-4.297-2.505-7.942V54.15c0-3.646,0.835-6.293,2.505-7.942
			c1.669-1.649,4.351-2.474,8.042-2.474h10.021c3.692,0,6.373,0.825,8.043,2.474c1.669,1.649,2.505,4.297,2.505,7.942V70.817z
			 M96.557,54.15c0-2.083-1.055-3.125-3.164-3.125h-5.801c-2.11,0-3.165,1.042-3.165,3.125v16.667c0,2.083,1.055,3.125,3.165,3.125
			h5.801c2.109,0,3.164-1.042,3.164-3.125V54.15z"/>
		<path fill="#E11A8E" d="M116.861,80.713V52.328l-6.064,2.083l-2.637-5.99l9.757-4.167h8.438v36.458L116.861,80.713L116.861,80.713
			z"/>
		<path fill="#E11A8E" d="M150.088,73.421h-19.514V66.13l12.658-21.875h10.547L141.122,66.13h8.966v-7.813h9.493v7.813h3.69v7.292
			h-3.69v7.292h-9.493V73.421z"/>
	</g>
	<g enable-background="new    ">
		<path fill="#E11A8E" d="M71.77,133.838c0,2.951-1.266,5.504-3.797,7.656c-0.774,0.66-1.618,1.32-2.532,1.979l-11.339,8.073H71.77
			v7.291H43.291v-9.896L62.277,135.4v-2.604c0-2.084-1.055-3.125-3.165-3.125H44.346v-7.292h16.877c3.691,0,6.372,0.825,8.042,2.475
			c1.669,1.649,2.505,4.297,2.505,7.942V133.838z"/>
		<path fill="#E11A8E" d="M106.578,148.941c0,3.646-0.836,6.295-2.506,7.942c-1.67,1.649-4.351,2.476-8.042,2.476H86.009
			c-3.691,0-6.373-0.825-8.042-2.476c-1.67-1.647-2.505-4.297-2.505-7.942v-16.666c0-3.646,0.835-6.293,2.505-7.942
			c1.669-1.649,4.351-2.474,8.042-2.474H96.03c3.692,0,6.373,0.824,8.042,2.474c1.669,1.649,2.506,4.297,2.506,7.942V148.941z
			 M97.084,132.275c0-2.084-1.055-3.125-3.164-3.125h-5.801c-2.11,0-3.165,1.041-3.165,3.125v16.666
			c0,2.084,1.055,3.125,3.165,3.125h5.801c2.109,0,3.164-1.041,3.164-3.125V132.275z"/>
		<path fill="#E11A8E" d="M117.391,158.838v-28.385l-6.065,2.083l-2.638-5.989l9.758-4.167h8.438v36.458H117.391z"/>
		<path fill="#E11A8E" d="M142.177,121.859c4.817,0,10.618,0.348,17.403,1.041v7.031c-1.934-0.104-3.577-0.199-4.93-0.287
			c-1.354-0.086-2.463-0.156-3.323-0.207c-0.862-0.054-1.714-0.113-2.558-0.184c-1.406-0.068-2.709-0.104-3.902-0.104
			c-2.146,0-3.219,0.869-3.219,2.604v4.688c3.41-0.693,6.399-1.041,8.967-1.041h3.691c2.391,0,4.307,0.713,5.748,2.136
			c1.44,1.424,2.162,3.315,2.162,5.677v6.771c0,3.158-0.81,5.512-2.426,7.057c-1.618,1.545-4.148,2.318-7.596,2.318h-10.021
			c-3.446,0-5.978-0.773-7.595-2.318s-2.426-3.896-2.426-7.057v-18.229c0-3.401,0.809-5.901,2.426-7.5
			C136.199,122.658,138.73,121.859,142.177,121.859z M147.979,142.691c-1.336,0-2.559,0.07-3.666,0.209
			c-1.106,0.139-1.996,0.244-2.662,0.313v5.729c0,2.084,1.055,3.125,3.164,3.125h4.746c2.109,0,3.164-1.041,3.164-3.125v-4.426
			c0-0.521-0.176-0.955-0.526-1.304c-0.353-0.347-0.791-0.521-1.318-0.521H147.979L147.979,142.691z"/>
	</g>
	<rect x="28" y="99" fill="#E11A8E" width="154" height="7"/>
</g>
</svg>
