<?xml version="1.0" encoding="utf-8"?>
<!-- Generator: Adobe Illustrator 16.0.0, SVG Export Plug-In . SVG Version: 6.00 Build 0)  -->
<!DOCTYPE svg PUBLIC "-//W3C//DTD SVG 1.1//EN" "http://www.w3.org/Graphics/SVG/1.1/DTD/svg11.dtd">
<svg version="1.1" id="레이어_1" xmlns="http://www.w3.org/2000/svg" xmlns:xlink="http://www.w3.org/1999/xlink" x="0px"
	 y="0px" width="207.339px" height="207.341px" viewBox="0 0 207.339 207.341" enable-background="new 0 0 207.339 207.341"
	 xml:space="preserve">
<g>
	<circle fill="#F08DC7" cx="103.669" cy="103.671" r="103.669"/>
	<g>
		<g>
			<path fill="#FFFFFF" d="M60.738,44.272c3.691,0,6.372,0.825,8.042,2.474c1.67,1.649,2.505,4.297,2.505,7.942v1.042
				c0,2.952-1.266,5.504-3.797,7.656c-0.773,0.66-1.617,1.32-2.531,1.979l-11.339,8.073h17.667v7.292H42.807v-9.896l18.986-13.542
				v-2.604c0-2.083-1.055-3.125-3.165-3.125H43.861v-7.292H60.738 M60.738,41.272H43.861h-3v3v7.292v3h3h14.767
				c0.062,0,0.115,0.001,0.163,0.004c0.001,0.036,0.002,0.076,0.002,0.121v1.059L41.064,68.393l-1.258,0.897v1.545v9.896v3h3h28.479
				h3v-3v-7.292v-3h-3h-8.28l3.692-2.629c0.988-0.712,1.904-1.429,2.738-2.142c3.217-2.735,4.85-6.08,4.85-9.938v-1.042
				c0-4.46-1.143-7.851-3.396-10.077C68.645,42.396,65.229,41.272,60.738,41.272L60.738,41.272z"/>
			<path fill="#FFFFFF" d="M95.545,43.751c3.691,0,6.372,0.825,8.043,2.474c1.669,1.649,2.505,4.297,2.505,7.942v16.667
				c0,3.646-0.836,6.293-2.505,7.942c-1.671,1.649-4.352,2.474-8.043,2.474H85.524c-3.691,0-6.373-0.825-8.043-2.474
				c-1.67-1.649-2.505-4.297-2.505-7.942V54.168c0-3.646,0.835-6.293,2.505-7.942c1.67-1.649,4.352-2.474,8.043-2.474H95.545
				 M87.634,73.959h5.802c2.109,0,3.164-1.042,3.164-3.125V54.168c0-2.083-1.055-3.125-3.164-3.125h-5.802
				c-2.109,0-3.164,1.042-3.164,3.125v16.667C84.47,72.918,85.524,73.959,87.634,73.959 M95.545,40.751H85.524
				c-4.491,0-7.907,1.124-10.151,3.339c-2.254,2.227-3.396,5.617-3.396,10.077v16.667c0,4.461,1.143,7.852,3.396,10.077
				c2.244,2.216,5.659,3.339,10.151,3.339h10.021c4.491,0,7.906-1.124,10.15-3.339c2.255-2.228,3.397-5.618,3.397-10.077V54.168
				c0-4.459-1.143-7.849-3.396-10.076C103.45,41.875,100.035,40.751,95.545,40.751L95.545,40.751z M87.473,54.048
				c0.047-0.003,0.101-0.004,0.161-0.004h5.802c0.061,0,0.114,0.001,0.162,0.004c0.001,0.036,0.002,0.076,0.002,0.12v16.667
				c0,0.044-0.001,0.084-0.002,0.12c-0.048,0.003-0.102,0.004-0.162,0.004h-5.802c-0.061,0-0.114-0.001-0.161-0.004
				c-0.002-0.036-0.003-0.076-0.003-0.12V54.168C87.47,54.124,87.471,54.084,87.473,54.048L87.473,54.048z"/>
			<path fill="#FFFFFF" d="M126.396,44.272V80.73h-9.492V52.345l-6.065,2.083l-2.637-5.99l9.757-4.167H126.396 M129.396,41.272h-3
				h-8.438h-0.613l-0.564,0.241l-9.758,4.167l-2.789,1.191l1.222,2.776l2.637,5.99l1.112,2.525l2.608-0.896l2.091-0.718V80.73v3h3
				h9.492h3v-3V44.272V41.272L129.396,41.272z"/>
			<path fill="#FFFFFF" d="M153.821,44.272h0.005 M153.821,44.272l-12.657,21.875h8.966v-7.813h9.492v7.813h3.692v7.292h-3.692
				v7.292h-9.492v-7.292h-19.514v-7.292l12.657-21.875H153.821 M159.023,41.272h-5.202h-10.548h-1.73l-0.866,1.498L128.02,64.645
				l-0.403,0.697v0.805v7.292v3h3h16.514v4.292v3h3h9.492h3v-3v-4.292h0.692h3v-3v-7.292v-3h-3h-0.692v-4.813v-3h-3h-8.735
				l5.531-9.56L159.023,41.272L159.023,41.272z M146.366,63.147l0.764-1.32v1.32H146.366L146.366,63.147z"/>
			<path fill="#FFFFFF" d="M63.111,122.396c3.691,0,6.372,0.826,8.042,2.475c1.67,1.649,2.505,4.297,2.505,7.942v1.042
				c0,2.951-1.266,5.504-3.797,7.656c-0.773,0.66-1.617,1.32-2.531,1.979l-11.339,8.073h17.667v7.292H45.18v-9.896l18.986-13.541
				v-2.604c0-2.083-1.055-3.125-3.165-3.125H46.234v-7.292H63.111 M63.111,119.396H46.234h-3v3v7.292v3h3h14.767
				c0.062,0,0.115,0.001,0.163,0.005c0.001,0.035,0.002,0.076,0.002,0.12v1.059l-17.729,12.646l-1.258,0.896v1.545v9.896v3h3h28.479
				h3v-3v-7.292v-3h-3h-8.28l3.692-2.629c0.988-0.712,1.904-1.429,2.738-2.142c3.217-2.734,4.85-6.08,4.85-9.938v-1.042
				c0-4.46-1.143-7.851-3.396-10.077C71.018,120.521,67.603,119.396,63.111,119.396L63.111,119.396z"/>
			<path fill="#FFFFFF" d="M97.918,121.876c3.691,0,6.372,0.825,8.043,2.474c1.669,1.65,2.505,4.297,2.505,7.943v16.666
				c0,3.646-0.836,6.294-2.505,7.943c-1.671,1.648-4.352,2.474-8.043,2.474H87.897c-3.691,0-6.373-0.825-8.043-2.474
				c-1.67-1.649-2.505-4.297-2.505-7.943v-16.666c0-3.646,0.835-6.293,2.505-7.943c1.67-1.648,4.352-2.474,8.043-2.474H97.918
				 M90.007,152.084h5.802c2.109,0,3.164-1.041,3.164-3.125v-16.666c0-2.084-1.055-3.125-3.164-3.125h-5.802
				c-2.109,0-3.164,1.041-3.164,3.125v16.666C86.843,151.043,87.897,152.084,90.007,152.084 M97.918,118.876H87.897
				c-4.491,0-7.907,1.124-10.151,3.339c-2.254,2.227-3.396,5.617-3.396,10.078v16.666c0,4.461,1.143,7.852,3.396,10.078
				c2.244,2.215,5.659,3.339,10.151,3.339h10.021c4.491,0,7.906-1.124,10.15-3.339c2.255-2.229,3.397-5.618,3.397-10.078v-16.666
				c0-4.459-1.143-7.85-3.396-10.076C105.823,120,102.408,118.876,97.918,118.876L97.918,118.876z M89.846,132.172
				c0.047-0.002,0.101-0.004,0.161-0.004h5.802c0.061,0,0.114,0.002,0.162,0.004c0.001,0.037,0.002,0.076,0.002,0.121v16.666
				c0,0.045-0.001,0.084-0.002,0.121c-0.048,0.002-0.102,0.004-0.162,0.004h-5.802c-0.061,0-0.114-0.002-0.161-0.004
				c-0.002-0.037-0.003-0.076-0.003-0.121v-16.666C89.843,132.248,89.844,132.209,89.846,132.172L89.846,132.172z"/>
			<path fill="#FFFFFF" d="M128.77,122.396v36.459h-9.492V130.47l-6.065,2.083l-2.637-5.989l9.757-4.167H128.77 M131.77,119.396h-3
				h-8.438h-0.613l-0.564,0.242l-9.758,4.166l-2.789,1.191l1.222,2.775l2.637,5.99l1.112,2.525l2.608-0.896l2.091-0.719v24.184v3h3
				h9.492h3v-3v-36.459V119.396L131.77,119.396z"/>
			<path fill="#FFFFFF" d="M160.94,122.396v7.292l-12.13,29.167h-10.547l12.657-29.167h-18.459v-7.292H160.94 M163.94,119.396h-3
				h-28.479h-3v3v7.292v3h3h13.887l-10.837,24.972l-1.82,4.195h4.572h10.547h2.002l0.768-1.849l12.131-29.167l0.229-0.553v-0.599
				v-7.292V119.396L163.94,119.396z"/>
		</g>
		<g>
			<path fill="#E11A8E" d="M71.285,55.73c0,2.952-1.266,5.504-3.797,7.656c-0.773,0.66-1.617,1.32-2.531,1.979l-11.339,8.073h17.667
				v7.292H42.807v-9.896l18.986-13.542v-2.604c0-2.083-1.055-3.125-3.165-3.125H43.861v-7.292h16.877
				c3.691,0,6.372,0.825,8.042,2.474c1.67,1.649,2.505,4.297,2.505,7.942V55.73z"/>
			<path fill="#E11A8E" d="M106.093,70.835c0,3.646-0.836,6.293-2.505,7.942c-1.671,1.649-4.352,2.474-8.043,2.474H85.524
				c-3.691,0-6.373-0.825-8.043-2.474c-1.67-1.649-2.505-4.297-2.505-7.942V54.168c0-3.646,0.835-6.293,2.505-7.942
				c1.67-1.649,4.352-2.474,8.043-2.474h10.021c3.691,0,6.372,0.825,8.043,2.474c1.669,1.649,2.505,4.297,2.505,7.942V70.835z
				 M96.6,54.168c0-2.083-1.055-3.125-3.164-3.125h-5.802c-2.109,0-3.164,1.042-3.164,3.125v16.667c0,2.083,1.055,3.125,3.164,3.125
				h5.802c2.109,0,3.164-1.042,3.164-3.125V54.168z"/>
			<path fill="#E11A8E" d="M116.904,80.73V52.345l-6.065,2.083l-2.637-5.99l9.757-4.167h8.438V80.73H116.904z"/>
			<path fill="#E11A8E" d="M150.13,73.439h-19.514v-7.292l12.657-21.875h10.548l-12.657,21.875h8.966v-7.813h9.492v7.813h3.692
				v7.292h-3.692v7.292h-9.492V73.439z"/>
			<path fill="#E11A8E" d="M73.658,133.855c0,2.951-1.266,5.504-3.797,7.656c-0.773,0.66-1.617,1.32-2.531,1.979l-11.339,8.073
				h17.667v7.292H45.18v-9.896l18.986-13.541v-2.604c0-2.083-1.055-3.125-3.165-3.125H46.234v-7.292h16.877
				c3.691,0,6.372,0.826,8.042,2.475c1.67,1.649,2.505,4.297,2.505,7.942V133.855z"/>
			<path fill="#E11A8E" d="M108.466,148.959c0,3.646-0.836,6.294-2.505,7.943c-1.671,1.648-4.352,2.474-8.043,2.474H87.897
				c-3.691,0-6.373-0.825-8.043-2.474c-1.67-1.649-2.505-4.297-2.505-7.943v-16.666c0-3.646,0.835-6.293,2.505-7.943
				c1.67-1.648,4.352-2.474,8.043-2.474h10.021c3.691,0,6.372,0.825,8.043,2.474c1.669,1.65,2.505,4.297,2.505,7.943V148.959z
				 M98.973,132.293c0-2.084-1.055-3.125-3.164-3.125h-5.802c-2.109,0-3.164,1.041-3.164,3.125v16.666
				c0,2.084,1.055,3.125,3.164,3.125h5.802c2.109,0,3.164-1.041,3.164-3.125V132.293z"/>
			<path fill="#E11A8E" d="M119.277,158.855V130.47l-6.065,2.083l-2.637-5.989l9.757-4.167h8.438v36.459H119.277z"/>
			<path fill="#E11A8E" d="M132.462,122.396h28.479v7.292l-12.13,29.167h-10.547l12.657-29.167h-18.459V122.396z"/>
		</g>
		<g>
			<rect x="27.043" y="100.018" fill="#E11A8E" width="154" height="7"/>
			<path fill="#FFFFFF" d="M181.043,100.018v7h-154v-7H181.043 M184.043,97.018h-2.5h-154h-3.5v2.5v7v3.5h3.5h154h2.5v-3.5v-7
				V97.018L184.043,97.018z"/>
		</g>
	</g>
</g>
</svg>
