<?xml version="1.0" encoding="utf-8"?>
<!-- Generator: Adobe Illustrator 16.0.0, SVG Export Plug-In . SVG Version: 6.00 Build 0)  -->
<!DOCTYPE svg PUBLIC "-//W3C//DTD SVG 1.1//EN" "http://www.w3.org/Graphics/SVG/1.1/DTD/svg11.dtd">
<svg version="1.1" id="레이어_1" xmlns="http://www.w3.org/2000/svg" xmlns:xlink="http://www.w3.org/1999/xlink" x="0px"
	 y="0px" width="178px" height="178px" viewBox="0 0 178 178" enable-background="new 0 0 178 178" xml:space="preserve">
<circle fill="#F08DC7" cx="89" cy="89" r="89"/>
<g>
	<g>
		<g>
			<path fill="#E11A8E" d="M30.78,71.076v-9.722L46.336,50.12v-1.649c0-1.176-0.417-1.593-1.593-1.593h-13.1v-8.049h14.828
				c3.286,0,5.74,0.789,7.296,2.345c1.557,1.557,2.346,4.012,2.346,7.297v0.864c0,2.741-1.164,5.133-3.459,7.11
				c-0.657,0.567-1.376,1.137-2.137,1.691l-6.783,4.891h12.379v8.049H30.78L30.78,71.076z"/>
			<path fill="#FFFFFF" d="M46.471,39.829c3.025,0,5.221,0.684,6.589,2.052c1.368,1.368,2.053,3.565,2.053,6.59v0.864
				c0,2.449-1.038,4.566-3.112,6.352c-0.634,0.547-1.325,1.095-2.074,1.642l-9.291,6.698h14.476v6.049H31.78v-8.21l15.556-11.234
				v-2.16c0-1.729-0.865-2.593-2.593-2.593h-12.1V39.83L46.471,39.829 M46.471,37.829H32.644h-2v2v6.049v2h2h12.1
				c0.292,0,0.459,0.042,0.525,0.067c0.026,0.066,0.067,0.233,0.067,0.525v1.138L30.609,60.244l-0.829,0.599v1.022v8.21v2h2h23.334
				h2v-2v-6.049v-2h-2h-8.282l4.266-3.076c0.792-0.578,1.532-1.164,2.211-1.75c2.524-2.174,3.805-4.821,3.805-7.866V48.47
				c0-3.56-0.888-6.253-2.639-8.004C52.724,38.716,50.032,37.829,46.471,37.829L46.471,37.829z"/>
		</g>
		<g>
			<path fill="#E11A8E" d="M66.78,71.508c-3.286,0-5.741-0.789-7.297-2.345c-1.556-1.556-2.345-4.011-2.345-7.297V48.038
				c0-3.285,0.789-5.74,2.345-7.297c1.558-1.556,4.013-2.345,7.297-2.345h8.21c3.285,0,5.74,0.789,7.297,2.345
				c1.556,1.558,2.345,4.013,2.345,7.297v13.827c0,3.286-0.789,5.741-2.345,7.297c-1.556,1.556-4.011,2.345-7.297,2.345
				L66.78,71.508L66.78,71.508z M68.509,46.446c-1.176,0-1.593,0.417-1.593,1.592v13.827c0,1.176,0.417,1.593,1.593,1.593h4.753
				c1.176,0,1.593-0.417,1.593-1.593V48.038c0-1.176-0.417-1.592-1.593-1.592H68.509z"/>
			<path fill="#FFFFFF" d="M74.99,39.396c3.025,0,5.221,0.685,6.59,2.052c1.368,1.369,2.052,3.565,2.052,6.59v13.827
				c0,3.025-0.684,5.222-2.052,6.59c-1.369,1.369-3.565,2.052-6.59,2.052h-8.21c-3.025,0-5.221-0.684-6.59-2.052
				c-1.368-1.368-2.052-3.565-2.052-6.59V48.038c0-3.024,0.684-5.221,2.052-6.59c1.369-1.368,3.565-2.052,6.59-2.052H74.99
				 M68.509,64.458h4.753c1.729,0,2.593-0.864,2.593-2.593V48.038c0-1.728-0.864-2.592-2.593-2.592h-4.753
				c-1.729,0-2.593,0.864-2.593,2.592v13.827C65.916,63.594,66.78,64.458,68.509,64.458 M74.99,37.396h-8.21
				c-3.56,0-6.252,0.887-8.003,2.638c-1.751,1.752-2.639,4.445-2.639,8.004v13.827c0,3.561,0.888,6.254,2.638,8.004
				s4.443,2.638,8.004,2.638h8.21c3.561,0,6.253-0.888,8.004-2.638s2.638-4.443,2.638-8.004V48.038c0-3.56-0.887-6.252-2.638-8.003
				C81.242,38.283,78.55,37.396,74.99,37.396L74.99,37.396z M67.983,47.513c0.066-0.026,0.233-0.067,0.525-0.067h4.753
				c0.292,0,0.459,0.042,0.525,0.067c0.026,0.066,0.067,0.232,0.067,0.525v13.827c0,0.292-0.042,0.459-0.067,0.525
				c-0.066,0.026-0.233,0.067-0.525,0.067h-4.753c-0.292,0-0.459-0.042-0.525-0.067c-0.026-0.066-0.067-0.233-0.067-0.525V48.038
				C67.916,47.746,67.958,47.579,67.983,47.513L67.983,47.513z"/>
		</g>
		<g>
			<path fill="#E11A8E" d="M95.73,71.508c-3.285,0-5.74-0.789-7.296-2.345c-1.557-1.556-2.346-4.012-2.346-7.297V48.038
				c0-3.284,0.789-5.739,2.345-7.297c1.557-1.556,4.012-2.345,7.297-2.345h8.209c3.285,0,5.74,0.789,7.297,2.345
				c1.557,1.559,2.346,4.014,2.346,7.297v13.827c0,3.285-0.789,5.74-2.346,7.297c-1.557,1.556-4.012,2.345-7.297,2.345L95.73,71.508
				L95.73,71.508z M97.46,46.446c-1.176,0-1.593,0.417-1.593,1.592v13.827c0,1.176,0.417,1.593,1.593,1.593h4.753
				c1.176,0,1.594-0.417,1.594-1.593V48.038c0-1.176-0.418-1.592-1.594-1.592H97.46z"/>
			<path fill="#FFFFFF" d="M103.941,39.396c3.023,0,5.221,0.685,6.59,2.052c1.367,1.369,2.052,3.565,2.052,6.59v13.827
				c0,3.025-0.685,5.222-2.052,6.59c-1.369,1.369-3.565,2.052-6.59,2.052H95.73c-3.023,0-5.222-0.684-6.589-2.052
				c-1.368-1.368-2.053-3.565-2.053-6.59V48.038c0-3.024,0.685-5.221,2.053-6.59c1.368-1.368,3.565-2.052,6.589-2.052H103.941
				 M97.46,64.458h4.753c1.729,0,2.594-0.864,2.594-2.593V48.038c0-1.728-0.865-2.592-2.594-2.592H97.46
				c-1.729,0-2.593,0.864-2.593,2.592v13.827C94.867,63.594,95.73,64.458,97.46,64.458 M103.941,37.396H95.73
				c-3.56,0-6.252,0.888-8.003,2.638c-1.751,1.752-2.639,4.445-2.639,8.004v13.827c0,3.561,0.888,6.254,2.639,8.004
				c1.75,1.75,4.442,2.638,8.003,2.638h8.211c3.56,0,6.252-0.888,8.004-2.638c1.75-1.752,2.638-4.445,2.638-8.005V48.038
				c0-3.559-0.888-6.251-2.638-8.003C110.193,38.283,107.5,37.396,103.941,37.396L103.941,37.396z M96.936,47.513
				c0.065-0.026,0.231-0.067,0.524-0.067h4.753c0.293,0,0.459,0.042,0.525,0.067c0.025,0.066,0.066,0.232,0.066,0.525v13.827
				c0,0.292-0.041,0.459-0.066,0.525c-0.066,0.026-0.232,0.067-0.525,0.067H97.46c-0.293,0-0.459-0.042-0.524-0.067
				c-0.026-0.066-0.067-0.233-0.067-0.525V48.038C96.867,47.746,96.908,47.579,96.936,47.513L96.936,47.513z"/>
		</g>
		<g>
			<polygon fill="#E11A8E" points="130.164,71.076 130.164,65.026 114.176,65.026 114.176,57.711 124.967,38.829 135.913,38.829 
				125.542,56.977 130.164,56.977 130.164,50.496 139.941,50.496 139.941,56.977 142.967,56.977 142.967,65.026 139.941,65.026 
				139.941,71.076 			"/>
			<path fill="#FFFFFF" d="M134.189,39.829l-10.371,18.148h7.346v-6.481h7.777v6.481h3.024v6.05h-3.024v6.049h-7.777v-6.049h-15.988
				v-6.05l10.371-18.148H134.189 M137.637,37.829h-3.447h-8.643h-1.16l-0.576,1.008l-10.371,18.148l-0.264,0.461v0.531v6.05v2h2
				h13.988v4.049v2h2h7.777h2v-2v-4.049h1.024h2v-2v-6.05v-2h-2h-1.024v-4.481v-2h-2h-7.777h-0.195l4.957-8.675L137.637,37.829
				L137.637,37.829z M127.266,55.977l1.898-3.323v3.323H127.266L127.266,55.977z"/>
		</g>
		<g>
			<path fill="#E11A8E" d="M30.348,135.893v-9.723l15.556-11.234v-1.647c0-1.177-0.417-1.593-1.593-1.593h-13.1v-8.051H46.04
				c3.285,0,5.739,0.789,7.296,2.347c1.557,1.557,2.346,4.012,2.346,7.297v0.862c0,2.742-1.164,5.135-3.459,7.11
				c-0.651,0.563-1.37,1.132-2.137,1.691l-6.783,4.89h12.378v8.051H30.348L30.348,135.893z"/>
			<path fill="#FFFFFF" d="M46.04,104.645c3.024,0,5.221,0.686,6.589,2.054s2.053,3.563,2.053,6.59v0.862
				c0,2.449-1.037,4.566-3.111,6.354c-0.634,0.548-1.325,1.096-2.074,1.643l-9.29,6.696h14.476v6.052H31.348v-8.211l15.556-11.234
				v-2.16c0-1.729-0.864-2.594-2.593-2.594h-12.1v-6.049H46.04 M46.04,102.645H32.211h-2v2v6.051v2h2h12.1
				c0.292,0,0.459,0.041,0.525,0.066c0.026,0.066,0.067,0.232,0.067,0.525v1.138l-14.727,10.636l-0.829,0.6v1.021v8.211v2h2h23.334
				h2v-2v-6.051v-2h-2H46.4l4.265-3.074c0.799-0.584,1.54-1.17,2.212-1.75c2.523-2.174,3.804-4.82,3.804-7.867v-0.862
				c0-3.56-0.888-6.253-2.638-8.004C52.292,103.532,49.599,102.645,46.04,102.645L46.04,102.645z"/>
		</g>
		<g>
			<path fill="#E11A8E" d="M66.348,136.324c-3.286,0-5.741-0.789-7.297-2.346c-1.556-1.556-2.345-4.011-2.345-7.297v-13.828
				c0-3.285,0.789-5.74,2.345-7.297c1.556-1.557,4.011-2.346,7.296-2.346h8.21c3.284,0,5.739,0.789,7.297,2.346
				c1.556,1.558,2.345,4.012,2.345,7.297v13.828c0,3.285-0.789,5.74-2.345,7.297s-4.011,2.346-7.297,2.346H66.348z M68.077,111.262
				c-1.176,0-1.593,0.418-1.593,1.594v13.826c0,1.176,0.417,1.594,1.593,1.594h4.753c1.176,0,1.593-0.418,1.593-1.594v-13.826
				c0-1.176-0.417-1.594-1.593-1.594H68.077L68.077,111.262z"/>
			<path fill="#FFFFFF" d="M74.559,104.212c3.024,0,5.221,0.685,6.59,2.054c1.368,1.367,2.052,3.564,2.052,6.59v13.826
				c0,3.025-0.685,5.223-2.052,6.59c-1.369,1.369-3.565,2.054-6.59,2.054h-8.21c-3.025,0-5.221-0.685-6.589-2.054
				c-1.369-1.367-2.052-3.563-2.052-6.59v-13.826c0-3.024,0.684-5.223,2.052-6.59c1.368-1.369,3.564-2.054,6.589-2.054H74.559
				 M68.077,129.273h4.753c1.729,0,2.593-0.863,2.593-2.592v-13.828c0-1.729-0.864-2.592-2.593-2.592h-4.753
				c-1.729,0-2.593,0.863-2.593,2.592v13.828C65.484,128.41,66.348,129.273,68.077,129.273 M74.559,102.212h-8.21
				c-3.56,0-6.253,0.888-8.003,2.64c-1.75,1.75-2.638,4.441-2.638,8.004v13.826c0,3.563,0.888,6.256,2.639,8.006
				c1.749,1.75,4.442,2.638,8.003,2.638h8.21c3.561,0,6.253-0.888,8.004-2.64c1.75-1.75,2.638-4.441,2.638-8.004v-13.826
				c0-3.561-0.888-6.254-2.638-8.004C80.811,103.1,78.118,102.212,74.559,102.212L74.559,102.212z M67.552,112.329
				c0.066-0.026,0.233-0.067,0.525-0.067h4.753c0.292,0,0.459,0.041,0.525,0.067c0.026,0.065,0.067,0.231,0.067,0.524v13.828
				c0,0.293-0.042,0.459-0.067,0.524c-0.066,0.026-0.233,0.067-0.525,0.067h-4.753c-0.292,0-0.459-0.041-0.525-0.067
				c-0.026-0.065-0.067-0.233-0.067-0.524v-13.828C67.484,112.563,67.526,112.396,67.552,112.329L67.552,112.329z"/>
		</g>
		<g>
			<path fill="#E11A8E" d="M95.3,136.324c-3.286,0-5.741-0.789-7.297-2.346c-1.556-1.555-2.345-4.01-2.345-7.297v-13.828
				c0-3.285,0.789-5.742,2.346-7.297c1.557-1.557,4.012-2.346,7.297-2.346h8.21c3.284,0,5.739,0.789,7.298,2.346
				c1.556,1.558,2.344,4.012,2.344,7.297v13.828c0,3.285-0.788,5.74-2.344,7.297c-1.558,1.557-4.013,2.346-7.298,2.346H95.3z
				 M97.027,111.262c-1.176,0-1.592,0.418-1.592,1.594v13.826c0,1.176,0.416,1.594,1.592,1.594h4.754
				c1.176,0,1.593-0.418,1.593-1.594v-13.826c0-1.176-0.417-1.594-1.593-1.594H97.027L97.027,111.262z"/>
			<path fill="#FFFFFF" d="M103.51,104.212c3.024,0,5.221,0.685,6.59,2.054c1.367,1.367,2.053,3.564,2.053,6.59v13.826
				c0,3.025-0.686,5.223-2.053,6.59c-1.369,1.369-3.564,2.054-6.59,2.054H95.3c-3.024,0-5.222-0.685-6.59-2.054
				c-1.369-1.367-2.053-3.563-2.053-6.59v-13.826c0-3.024,0.684-5.223,2.053-6.59c1.368-1.369,3.563-2.054,6.59-2.054H103.51
				 M97.027,129.273h4.754c1.729,0,2.593-0.863,2.593-2.592v-13.828c0-1.729-0.864-2.592-2.593-2.592h-4.754
				c-1.729,0-2.592,0.863-2.592,2.592v13.828C94.436,128.41,95.3,129.273,97.027,129.273 M103.51,102.212H95.3
				c-3.561,0-6.253,0.888-8.004,2.64c-1.751,1.748-2.639,4.441-2.639,8.004v13.826c0,3.563,0.888,6.256,2.64,8.006
				c1.748,1.75,4.441,2.638,8.003,2.638h8.21c3.561,0,6.254-0.888,8.004-2.64c1.75-1.75,2.639-4.442,2.639-8.004v-13.826
				c0-3.561-0.889-6.254-2.637-8.004C109.762,103.1,107.068,102.212,103.51,102.212L103.51,102.212z M96.503,112.329
				c0.065-0.026,0.231-0.067,0.524-0.067h4.754c0.293,0,0.459,0.041,0.525,0.067c0.025,0.065,0.066,0.231,0.066,0.524v13.828
				c0,0.293-0.041,0.459-0.066,0.524c-0.066,0.026-0.232,0.067-0.525,0.067h-4.754c-0.293,0-0.459-0.041-0.524-0.067
				c-0.026-0.065-0.067-0.231-0.067-0.524v-13.828C96.436,112.563,96.477,112.396,96.503,112.329L96.503,112.329z"/>
		</g>
		<g>
			<path fill="#E11A8E" d="M123.387,136.324c-3.086,0-5.416-0.768-6.93-2.281s-2.281-3.844-2.281-6.93v-0.432
				c0-2.402,0.621-4.438,1.848-6.05c0.55-0.733,1.218-1.34,1.994-1.813c-0.604-0.438-1.139-0.971-1.595-1.592
				c-0.917-1.248-1.382-2.865-1.382-4.807v-0.432c0-2.891,0.771-5.102,2.292-6.574c1.513-1.463,3.839-2.204,6.917-2.204h8.211
				c3.077,0,5.404,0.741,6.917,2.204c1.521,1.473,2.292,3.686,2.292,6.574v0.432c0,1.938-0.465,3.555-1.381,4.805
				c-0.457,0.623-0.99,1.155-1.596,1.596c1.558,0.947,2.683,2.431,3.355,4.43c0.323,1.006,0.485,2.154,0.485,3.432v0.432
				c0,3.086-0.769,5.416-2.281,6.93c-1.515,1.514-3.845,2.281-6.929,2.281H123.387z M125.547,123.793
				c-1.176,0-1.593,0.417-1.593,1.594v1.729c0,0.52,0.166,0.744,0.29,0.869s0.352,0.291,0.871,0.291h6.48
				c0.58,0,0.799-0.219,0.87-0.291c0.124-0.125,0.29-0.351,0.29-0.869v-1.729c0-1.176-0.417-1.593-1.593-1.593H125.547z
				 M126.411,111.262c-1.177,0-1.593,0.418-1.593,1.594v1.295c0,1.178,0.416,1.595,1.593,1.595h3.89
				c1.176,0,1.592-0.417,1.592-1.595v-1.295c0-1.176-0.416-1.594-1.592-1.594H126.411z"/>
			<path fill="#FFFFFF" d="M132.461,104.212c2.822,0,4.896,0.642,6.223,1.923c1.324,1.283,1.986,3.234,1.986,5.855v0.432
				c0,1.729-0.396,3.135-1.188,4.214c-0.793,1.08-1.836,1.837-3.133,2.269c2.332,0.635,3.918,2.189,4.752,4.666
				c0.287,0.895,0.434,1.932,0.434,3.111v0.434c0,2.822-0.663,4.896-1.988,6.222c-1.326,1.326-3.398,1.988-6.222,1.988h-9.938
				c-2.824,0-4.896-0.662-6.223-1.988c-1.325-1.323-1.988-3.397-1.988-6.222v-0.434c0-2.188,0.549-4.002,1.643-5.443
				c0.865-1.151,2.045-1.93,3.543-2.334c-1.295-0.432-2.34-1.188-3.133-2.269s-1.188-2.485-1.188-4.214v-0.432
				c0-2.621,0.662-4.572,1.986-5.855c1.324-1.281,3.398-1.923,6.223-1.923H132.461 M126.411,116.744h3.89
				c1.729,0,2.592-0.864,2.592-2.594v-1.297c0-1.729-0.863-2.592-2.592-2.592h-3.89c-1.729,0-2.593,0.863-2.593,2.592v1.297
				C123.818,115.88,124.684,116.744,126.411,116.744 M125.115,129.273h6.48c0.661,0,1.188-0.193,1.577-0.582
				c0.39-0.389,0.583-0.914,0.583-1.577v-1.729c0-1.729-0.863-2.593-2.593-2.593h-5.617c-1.729,0-2.593,0.864-2.593,2.593v1.729
				c0,0.663,0.193,1.188,0.583,1.577C123.927,129.08,124.452,129.273,125.115,129.273 M132.461,102.212h-8.211
				c-3.348,0-5.908,0.836-7.611,2.485c-1.725,1.669-2.598,4.121-2.598,7.293v0.432c0,2.158,0.529,3.975,1.575,5.396
				c0.245,0.336,0.512,0.647,0.796,0.937c-0.438,0.379-0.837,0.808-1.193,1.282c-1.354,1.781-2.043,4.021-2.043,6.645v0.434
				c0,3.359,0.866,5.93,2.574,7.637c1.706,1.707,4.275,2.573,7.637,2.573h9.938c3.358,0,5.928-0.866,7.636-2.574
				c1.708-1.706,2.574-4.274,2.574-7.636v-0.434c0-1.379-0.178-2.632-0.528-3.723c-0.586-1.739-1.504-3.148-2.715-4.195
				c0.287-0.291,0.556-0.605,0.804-0.945c1.045-1.426,1.574-3.241,1.574-5.396v-0.432c0-3.171-0.873-5.624-2.596-7.292
				C138.367,103.048,135.807,102.212,132.461,102.212L132.461,102.212z M125.887,112.329c0.065-0.026,0.231-0.067,0.524-0.067h3.89
				c0.292,0,0.458,0.041,0.524,0.067c0.026,0.065,0.067,0.231,0.067,0.524v1.297c0,0.293-0.043,0.459-0.067,0.525
				c-0.066,0.026-0.232,0.067-0.524,0.067h-3.89c-0.292,0-0.459-0.041-0.524-0.067c-0.025-0.066-0.068-0.232-0.068-0.525v-1.297
				C125.818,112.563,125.859,112.396,125.887,112.329L125.887,112.329z M125.021,124.859c0.065-0.025,0.231-0.066,0.524-0.066h5.617
				c0.293,0,0.459,0.041,0.524,0.066c0.026,0.066,0.067,0.232,0.067,0.525v1.729c0,0.07-0.005,0.119-0.011,0.15
				c-0.031,0.006-0.08,0.01-0.148,0.01h-6.482c-0.069,0-0.118-0.004-0.149-0.01c-0.006-0.031-0.011-0.08-0.011-0.15v-1.729
				C124.954,125.093,124.995,124.927,125.021,124.859L125.021,124.859z"/>
		</g>
	</g>
	<g>
		<rect x="20" y="87" fill="#E11A8E" width="129" height="9"/>
		<path fill="#FFFFFF" d="M148,88v7H21v-7H148 M150,86h-1.5h-127H19v1.5v7V97h2.5h127h1.5v-2.5v-7V86L150,86z"/>
	</g>
</g>
</svg>
