<?xml version="1.0" encoding="utf-8"?>
<!-- Generator: Adobe Illustrator 16.0.0, SVG Export Plug-In . SVG Version: 6.00 Build 0)  -->
<!DOCTYPE svg PUBLIC "-//W3C//DTD SVG 1.1//EN" "http://www.w3.org/Graphics/SVG/1.1/DTD/svg11.dtd">
<svg version="1.1" id="레이어_1" xmlns="http://www.w3.org/2000/svg" xmlns:xlink="http://www.w3.org/1999/xlink" x="0px"
	 y="0px" width="199.727px" height="199.728px" viewBox="0 0 199.727 199.728" enable-background="new 0 0 199.727 199.728"
	 xml:space="preserve">
<g>
	<circle fill="#F08DC7" cx="99.864" cy="99.864" r="99.864"/>
	<g>
		<g>
			<path fill="#FFFFFF" d="M58.659,45.548v34.598h-8.896V53.209l-5.684,1.977l-2.471-5.684l9.144-3.954H58.659 M61.659,42.548h-3
				h-7.908H50.13l-0.57,0.247l-9.144,3.954l-2.759,1.193l1.198,2.756l2.472,5.685l1.109,2.551l2.627-0.913l1.699-0.591v22.717v3h3
				h8.896h3v-3V45.548V42.548L61.659,42.548z"/>
			<path fill="#FFFFFF" d="M81.396,45.054c3.229,0,5.601,0.733,7.117,2.199c1.515,1.467,2.273,3.699,2.273,6.697v17.3
				c0,3.229-0.758,5.603-2.273,7.117c-1.516,1.517-3.889,2.273-7.117,2.273c-4.515,0-9.952-0.329-16.311-0.988v-6.673
				c6.788,0.494,11.565,0.742,14.333,0.742c0.757,0,1.359-0.223,1.804-0.668s0.667-1.045,0.667-1.804v-4.448
				c-3.196,0.659-5.998,0.988-8.402,0.988h-3.46c-2.241,0-4.037-0.675-5.387-2.026c-1.352-1.351-2.027-3.146-2.027-5.388V53.95
				c0-2.998,0.758-5.23,2.274-6.697c1.515-1.466,3.888-2.199,7.117-2.199H81.396 M73.24,60.87h2.718
				c1.878,0,3.855-0.164,5.931-0.494v-5.437c0-1.978-0.989-2.966-2.966-2.966h-4.448c-1.977,0-2.965,0.988-2.965,2.966v4.201
				c0,0.494,0.165,0.907,0.494,1.235C72.333,60.706,72.746,60.87,73.24,60.87 M81.396,42.054h-9.391
				c-4.02,0-7.116,1.024-9.203,3.043c-2.115,2.047-3.188,5.025-3.188,8.853v6.426c0,3.056,0.978,5.583,2.906,7.51
				c0.936,0.937,2.014,1.649,3.226,2.134c-0.147-0.011-0.294-0.021-0.443-0.032l-3.218-0.234v3.227v6.673v2.705l2.691,0.279
				c6.428,0.666,12.02,1.004,16.62,1.004c4.04,0,7.148-1.061,9.239-3.152c2.091-2.091,3.152-5.199,3.152-9.238v-17.3
				c0-3.827-1.072-6.805-3.187-8.852C88.51,43.077,85.414,42.054,81.396,42.054L81.396,42.054z M74.51,54.973h4.379v2.758
				c-1.008,0.092-1.988,0.139-2.931,0.139H74.51V54.973L74.51,54.973z M76.441,70.654c0.787-0.068,1.604-0.162,2.449-0.282v0.347
				C78.19,70.71,77.374,70.69,76.441,70.654L76.441,70.654z"/>
			<path fill="#FFFFFF" d="M112.534,45.054c3.229,0,5.601,0.733,7.117,2.199c1.515,1.467,2.273,3.699,2.273,6.697v17.3
				c0,3.229-0.759,5.603-2.273,7.117c-1.517,1.517-3.889,2.273-7.117,2.273c-4.516,0-9.952-0.329-16.311-0.988v-6.673
				c6.788,0.494,11.565,0.742,14.333,0.742c0.757,0,1.358-0.223,1.804-0.668s0.668-1.045,0.668-1.804v-4.448
				c-3.197,0.659-5.998,0.988-8.402,0.988h-3.461c-2.241,0-4.036-0.675-5.387-2.026c-1.352-1.351-2.027-3.146-2.027-5.388V53.95
				c0-2.998,0.758-5.23,2.274-6.697c1.515-1.466,3.888-2.199,7.117-2.199H112.534 M104.377,60.87h2.719
				c1.878,0,3.855-0.164,5.932-0.494v-5.437c0-1.978-0.989-2.966-2.967-2.966h-4.447c-1.978,0-2.966,0.988-2.966,2.966v4.201
				c0,0.494,0.165,0.907,0.494,1.235C103.471,60.706,103.883,60.87,104.377,60.87 M112.534,42.054h-9.392
				c-4.02,0-7.116,1.024-9.203,3.043c-2.115,2.047-3.188,5.025-3.188,8.853v6.426c0,3.056,0.978,5.583,2.906,7.51
				c0.936,0.937,2.014,1.649,3.226,2.134c-0.147-0.011-0.294-0.021-0.443-0.032l-3.218-0.234v3.227v6.673v2.705l2.691,0.279
				c6.429,0.666,12.021,1.004,16.62,1.004c4.039,0,7.147-1.061,9.238-3.152c2.092-2.091,3.152-5.199,3.152-9.238v-17.3
				c0-3.827-1.072-6.805-3.188-8.852C119.647,43.077,116.551,42.054,112.534,42.054L112.534,42.054z M105.648,54.973h4.38v2.758
				c-1.008,0.092-1.988,0.139-2.932,0.139h-1.448V54.973L105.648,54.973z M107.579,70.654c0.787-0.068,1.604-0.162,2.449-0.282
				v0.347C109.329,70.71,108.511,70.69,107.579,70.654L107.579,70.654z"/>
			<path fill="#FFFFFF" d="M143.67,45.054c3.229,0,5.602,0.733,7.117,2.199c1.516,1.467,2.273,3.699,2.273,6.697v17.3
				c0,3.229-0.758,5.603-2.273,7.117c-1.516,1.517-3.889,2.273-7.117,2.273c-4.515,0-9.951-0.329-16.311-0.988v-6.673
				c6.788,0.494,11.566,0.742,14.334,0.742c0.758,0,1.359-0.223,1.804-0.668s0.667-1.045,0.667-1.804v-4.448
				c-3.195,0.659-5.997,0.988-8.402,0.988h-3.459c-2.242,0-4.037-0.675-5.388-2.026c-1.352-1.351-2.026-3.146-2.026-5.388V53.95
				c0-2.998,0.758-5.23,2.273-6.697c1.516-1.466,3.888-2.199,7.117-2.199H143.67 M135.516,60.87h2.718
				c1.878,0,3.854-0.164,5.931-0.494v-5.437c0-1.978-0.988-2.966-2.965-2.966h-4.449c-1.977,0-2.965,0.988-2.965,2.966v4.201
				c0,0.494,0.164,0.907,0.494,1.235C134.609,60.706,135.021,60.87,135.516,60.87 M143.67,42.054h-9.391
				c-4.02,0-7.115,1.024-9.203,3.043c-2.115,2.047-3.188,5.025-3.188,8.853v6.426c0,3.056,0.978,5.583,2.906,7.51
				c0.936,0.937,2.014,1.649,3.226,2.134c-0.147-0.011-0.294-0.021-0.442-0.032l-3.219-0.234v3.227v6.673v2.705l2.691,0.279
				c6.428,0.666,12.02,1.004,16.619,1.004c4.04,0,7.148-1.061,9.239-3.152c2.091-2.091,3.151-5.199,3.151-9.238v-17.3
				c0-3.827-1.072-6.805-3.187-8.852C150.786,43.077,147.689,42.054,143.67,42.054L143.67,42.054z M136.786,54.973h4.379v2.758
				c-1.008,0.092-1.987,0.139-2.931,0.139h-1.448V54.973L136.786,54.973z M138.716,70.654c0.787-0.068,1.604-0.162,2.448-0.282
				v0.347C140.465,70.71,139.649,70.69,138.716,70.654L138.716,70.654z"/>
			<path fill="#FFFFFF" d="M53.346,119.687c3.459,0,5.972,0.782,7.537,2.348c1.565,1.565,2.348,4.077,2.348,7.537v0.988
				c0,2.802-1.186,5.223-3.559,7.266c-0.725,0.627-1.516,1.253-2.372,1.878l-10.627,7.661h16.558v6.92h-26.69v-9.391l17.793-12.851
				v-2.472c0-1.978-0.988-2.966-2.965-2.966H37.53v-6.919H53.346 M53.346,116.687H37.53h-3v3v6.919v3h3h13.805v0.903l-16.55,11.953
				l-1.244,0.897v1.534v9.391v3h3h26.69h3v-3v-6.92v-3h-3h-7.266l3.09-2.228c0.932-0.68,1.795-1.363,2.58-2.042
				c3.049-2.625,4.597-5.835,4.597-9.535v-0.988c0-4.268-1.085-7.517-3.226-9.658C60.864,117.773,57.614,116.687,53.346,116.687
				L53.346,116.687z"/>
			<path fill="#FFFFFF" d="M85.967,119.192c3.46,0,5.972,0.783,7.538,2.349c1.564,1.565,2.348,4.077,2.348,7.537v15.816
				c0,3.46-0.783,5.973-2.348,7.537c-1.565,1.565-4.078,2.348-7.538,2.348h-9.391c-3.46,0-5.973-0.782-7.538-2.348
				c-1.565-1.564-2.348-4.077-2.348-7.537v-15.816c0-3.46,0.782-5.972,2.348-7.537c1.564-1.565,4.078-2.349,7.538-2.349H85.967
				 M78.553,147.859h5.437c1.977,0,2.966-0.988,2.966-2.965v-15.816c0-1.978-0.989-2.966-2.966-2.966h-5.437
				c-1.977,0-2.966,0.988-2.966,2.966v15.816C75.587,146.871,76.576,147.859,78.553,147.859 M85.967,116.192h-9.391
				c-4.269,0-7.519,1.086-9.66,3.228c-2.14,2.141-3.226,5.39-3.226,9.658v15.816c0,4.27,1.086,7.52,3.227,9.659
				c2.139,2.14,5.389,3.226,9.658,3.226h9.391c4.269,0,7.518-1.086,9.659-3.227c2.141-2.141,3.227-5.39,3.227-9.658v-15.816
				c0-4.267-1.085-7.516-3.226-9.658C93.484,117.278,90.234,116.192,85.967,116.192L85.967,116.192z M78.587,129.112h5.368v15.747
				h-5.368V129.112L78.587,129.112z"/>
			<path fill="#FFFFFF" d="M119.083,119.192c3.459,0,5.972,0.783,7.537,2.349c1.564,1.565,2.348,4.077,2.348,7.537v15.816
				c0,3.46-0.783,5.973-2.348,7.537c-1.565,1.565-4.078,2.348-7.537,2.348h-9.391c-3.461,0-5.974-0.782-7.538-2.348
				c-1.565-1.564-2.348-4.077-2.348-7.537v-15.816c0-3.46,0.782-5.972,2.348-7.537c1.564-1.565,4.077-2.349,7.538-2.349H119.083
				 M111.668,147.859h5.437c1.978,0,2.966-0.988,2.966-2.965v-15.816c0-1.978-0.988-2.966-2.966-2.966h-5.437
				c-1.977,0-2.966,0.988-2.966,2.966v15.816C108.703,146.871,109.692,147.859,111.668,147.859 M119.083,116.192h-9.391
				c-4.27,0-7.52,1.086-9.66,3.228c-2.14,2.141-3.226,5.39-3.226,9.658v15.816c0,4.27,1.086,7.52,3.227,9.659
				c2.139,2.14,5.389,3.226,9.659,3.226h9.391c4.268,0,7.518-1.086,9.658-3.227s3.227-5.39,3.227-9.658v-15.816
				c0-4.267-1.086-7.516-3.226-9.658C126.6,117.278,123.35,116.192,119.083,116.192L119.083,116.192z M111.703,129.112h5.368v15.747
				h-5.368V129.112L111.703,129.112z"/>
			<path fill="#FFFFFF" d="M149.232,119.687c3.229,0,5.601,0.733,7.117,2.199c1.515,1.467,2.273,3.699,2.273,6.697
				c0,1.977-0.453,3.583-1.358,4.818c-0.907,1.236-2.102,2.101-3.584,2.596c2.669,0.725,4.48,2.504,5.438,5.338
				c0.328,1.021,0.494,2.208,0.494,3.559v0.494c0,3.229-0.759,5.602-2.273,7.117c-1.517,1.516-3.889,2.273-7.118,2.273
				c-5.503,0-11.599-0.33-18.288-0.988v-6.673c7.283,0.494,12.719,0.741,16.311,0.741c0.758,0,1.359-0.222,1.805-0.667
				c0.445-0.444,0.668-1.046,0.668-1.804v-1.978c0-1.977-0.989-2.965-2.967-2.965H137.37v-6.92h9.391
				c1.978,0,2.966-0.988,2.966-2.966v-0.988c0-1.978-0.988-2.966-2.966-2.966h-14.333v-6.919H149.232 M149.232,116.687h-16.805h-3v3
				v6.919v3h3h14.299v0.92h-9.356h-3v3v6.92v3h3h10.346v1.411c-3.514-0.022-8.75-0.269-15.58-0.732l-3.203-0.218v3.211v6.673v2.72
				l2.707,0.266c6.762,0.666,13.013,1.003,18.581,1.003c4.038,0,7.146-1.061,9.239-3.151c2.092-2.093,3.152-5.201,3.152-9.239
				v-0.494c0-1.654-0.215-3.161-0.639-4.478c-0.627-1.858-1.563-3.408-2.779-4.623c0.17-0.198,0.332-0.404,0.488-0.617
				c1.288-1.756,1.94-3.974,1.94-6.593c0-3.827-1.072-6.806-3.187-8.853C156.346,117.71,153.25,116.687,149.232,116.687
				L149.232,116.687z"/>
		</g>
		<g>
			<path fill="#E11A8E" d="M49.763,80.146V53.209l-5.684,1.977l-2.471-5.684l9.144-3.954h7.908v34.598H49.763z"/>
			<path fill="#E11A8E" d="M65.085,72.979c6.788,0.494,11.565,0.742,14.333,0.742c0.757,0,1.359-0.223,1.804-0.668
				s0.667-1.045,0.667-1.804v-4.448c-3.196,0.659-5.998,0.988-8.402,0.988h-3.46c-2.241,0-4.037-0.675-5.387-2.026
				c-1.352-1.351-2.027-3.146-2.027-5.388V53.95c0-2.998,0.758-5.23,2.274-6.697c1.515-1.466,3.888-2.199,7.117-2.199h9.391
				c3.229,0,5.601,0.733,7.117,2.199c1.515,1.467,2.273,3.699,2.273,6.697v17.3c0,3.229-0.758,5.603-2.273,7.117
				c-1.516,1.517-3.889,2.273-7.117,2.273c-4.515,0-9.952-0.329-16.311-0.988V72.979z M75.958,60.87
				c1.878,0,3.855-0.164,5.931-0.494v-5.437c0-1.978-0.989-2.966-2.966-2.966h-4.448c-1.977,0-2.965,0.988-2.965,2.966v4.201
				c0,0.494,0.165,0.907,0.494,1.235c0.329,0.33,0.741,0.494,1.236,0.494H75.958z"/>
			<path fill="#E11A8E" d="M96.223,72.979c6.788,0.494,11.565,0.742,14.333,0.742c0.757,0,1.358-0.223,1.804-0.668
				s0.668-1.045,0.668-1.804v-4.448c-3.197,0.659-5.998,0.988-8.402,0.988h-3.461c-2.241,0-4.036-0.675-5.387-2.026
				c-1.352-1.351-2.027-3.146-2.027-5.388V53.95c0-2.998,0.758-5.23,2.274-6.697c1.515-1.466,3.888-2.199,7.117-2.199h9.392
				c3.229,0,5.601,0.733,7.117,2.199c1.515,1.467,2.273,3.699,2.273,6.697v17.3c0,3.229-0.759,5.603-2.273,7.117
				c-1.517,1.517-3.889,2.273-7.117,2.273c-4.516,0-9.952-0.329-16.311-0.988V72.979z M107.096,60.87
				c1.878,0,3.855-0.164,5.932-0.494v-5.437c0-1.978-0.989-2.966-2.967-2.966h-4.447c-1.978,0-2.966,0.988-2.966,2.966v4.201
				c0,0.494,0.165,0.907,0.494,1.235c0.329,0.33,0.741,0.494,1.235,0.494H107.096z"/>
			<path fill="#E11A8E" d="M127.36,72.979c6.788,0.494,11.566,0.742,14.334,0.742c0.758,0,1.359-0.223,1.804-0.668
				s0.667-1.045,0.667-1.804v-4.448c-3.195,0.659-5.997,0.988-8.402,0.988h-3.459c-2.242,0-4.037-0.675-5.388-2.026
				c-1.352-1.351-2.026-3.146-2.026-5.388V53.95c0-2.998,0.758-5.23,2.273-6.697c1.516-1.466,3.888-2.199,7.117-2.199h9.391
				c3.229,0,5.602,0.733,7.117,2.199c1.516,1.467,2.273,3.699,2.273,6.697v17.3c0,3.229-0.758,5.603-2.273,7.117
				c-1.516,1.517-3.889,2.273-7.117,2.273c-4.515,0-9.951-0.329-16.311-0.988V72.979z M138.234,60.87
				c1.878,0,3.854-0.164,5.931-0.494v-5.437c0-1.978-0.988-2.966-2.965-2.966h-4.449c-1.977,0-2.965,0.988-2.965,2.966v4.201
				c0,0.494,0.164,0.907,0.494,1.235c0.329,0.33,0.741,0.494,1.236,0.494H138.234z"/>
			<path fill="#E11A8E" d="M63.231,130.56c0,2.802-1.186,5.223-3.559,7.266c-0.725,0.627-1.516,1.253-2.372,1.878l-10.627,7.661
				h16.558v6.92h-26.69v-9.391l17.793-12.851v-2.472c0-1.978-0.988-2.966-2.965-2.966H37.53v-6.919h15.816
				c3.459,0,5.972,0.782,7.537,2.348c1.565,1.565,2.348,4.077,2.348,7.537V130.56z"/>
			<path fill="#E11A8E" d="M95.852,144.894c0,3.46-0.783,5.973-2.348,7.537c-1.565,1.565-4.078,2.348-7.538,2.348h-9.391
				c-3.46,0-5.973-0.782-7.538-2.348c-1.565-1.564-2.348-4.077-2.348-7.537v-15.816c0-3.46,0.782-5.972,2.348-7.537
				c1.564-1.565,4.078-2.349,7.538-2.349h9.391c3.46,0,5.972,0.783,7.538,2.349c1.564,1.565,2.348,4.077,2.348,7.537V144.894z
				 M86.956,129.078c0-1.978-0.989-2.966-2.966-2.966h-5.437c-1.977,0-2.966,0.988-2.966,2.966v15.816
				c0,1.977,0.989,2.965,2.966,2.965h5.437c1.977,0,2.966-0.988,2.966-2.965V129.078z"/>
			<path fill="#E11A8E" d="M128.967,144.894c0,3.46-0.783,5.973-2.348,7.537c-1.565,1.565-4.078,2.348-7.537,2.348h-9.391
				c-3.461,0-5.974-0.782-7.538-2.348c-1.565-1.564-2.348-4.077-2.348-7.537v-15.816c0-3.46,0.782-5.972,2.348-7.537
				c1.564-1.565,4.077-2.349,7.538-2.349h9.391c3.459,0,5.972,0.783,7.537,2.349c1.564,1.565,2.348,4.077,2.348,7.537V144.894z
				 M120.071,129.078c0-1.978-0.988-2.966-2.966-2.966h-5.437c-1.977,0-2.966,0.988-2.966,2.966v15.816
				c0,1.977,0.989,2.965,2.966,2.965h5.437c1.978,0,2.966-0.988,2.966-2.965V129.078z"/>
			<path fill="#E11A8E" d="M150.22,154.779c-5.503,0-11.599-0.33-18.288-0.988v-6.673c7.283,0.494,12.719,0.741,16.311,0.741
				c0.758,0,1.359-0.222,1.805-0.667c0.445-0.444,0.668-1.046,0.668-1.804v-1.978c0-1.977-0.989-2.965-2.967-2.965H137.37v-6.92
				h9.391c1.978,0,2.966-0.988,2.966-2.966v-0.988c0-1.978-0.988-2.966-2.966-2.966h-14.333v-6.919h16.805
				c3.229,0,5.601,0.733,7.117,2.199c1.515,1.467,2.273,3.699,2.273,6.697c0,1.977-0.453,3.583-1.358,4.818
				c-0.907,1.236-2.102,2.101-3.584,2.596c2.669,0.725,4.48,2.504,5.438,5.338c0.328,1.021,0.494,2.208,0.494,3.559v0.494
				c0,3.229-0.759,5.602-2.273,7.117C155.822,154.021,153.45,154.779,150.22,154.779z"/>
		</g>
		<g>
			<rect x="26.542" y="97.481" fill="#E11A8E" width="144" height="8"/>
			<path fill="#FFFFFF" d="M170.542,97.481v8h-144v-8H170.542 M173.542,94.481h-2.5h-144h-3.5v2.5v8v3.5h3.5h144h2.5v-3.5v-8V94.481
				L173.542,94.481z"/>
		</g>
	</g>
</g>
</svg>
