<?xml version="1.0" encoding="utf-8"?>
<!-- Generator: Adobe Illustrator 16.0.0, SVG Export Plug-In . SVG Version: 6.00 Build 0)  -->
<!DOCTYPE svg PUBLIC "-//W3C//DTD SVG 1.1//EN" "http://www.w3.org/Graphics/SVG/1.1/DTD/svg11.dtd">
<svg version="1.1" id="레이어_1" xmlns="http://www.w3.org/2000/svg" xmlns:xlink="http://www.w3.org/1999/xlink" x="0px"
	 y="0px" width="143.086px" height="141.737px" viewBox="0 0 143.086 141.737" enable-background="new 0 0 143.086 141.737"
	 xml:space="preserve">
<g>
	<ellipse fill="#F08DC7" cx="71.543" cy="70.869" rx="71.543" ry="70.869"/>
	<g>
		<g>
			<path fill="#FFFFFF" d="M43.121,34.083v24.19h-6.22V39.44l-3.974,1.382l-1.728-3.974l6.393-2.765H43.121 M46.121,31.083h-3
				h-5.529h-0.621l-0.57,0.247l-6.393,2.765l-2.759,1.193l1.199,2.757l1.728,3.974l1.109,2.551l2.616-0.91v14.613v3h3h6.22h3v-3
				v-24.19V31.083L46.121,31.083z"/>
			<path fill="#FFFFFF" d="M59.018,33.738c2.257,0,3.916,0.513,4.976,1.538c1.06,1.025,1.59,2.586,1.59,4.683v12.095
				c0,2.258-0.53,3.917-1.59,4.976c-1.06,1.06-2.719,1.59-4.976,1.59c-3.157,0-6.958-0.23-11.404-0.691v-4.665
				c4.746,0.346,8.086,0.519,10.021,0.519c0.53,0,0.95-0.156,1.261-0.467s0.467-0.731,0.467-1.261v-3.11
				c-2.235,0.461-4.193,0.691-5.875,0.691h-2.419c-1.567,0-2.822-0.472-3.767-1.417c-0.945-0.944-1.417-2.2-1.417-3.767v-4.492
				c0-2.096,0.53-3.657,1.59-4.683c1.06-1.025,2.718-1.538,4.976-1.538H59.018 M53.315,44.796h1.901
				c1.313,0,2.695-0.115,4.147-0.346v-3.801c0-1.382-0.691-2.073-2.074-2.073h-3.11c-1.382,0-2.074,0.691-2.074,2.073v2.938
				c0,0.345,0.115,0.634,0.346,0.864C52.682,44.681,52.97,44.796,53.315,44.796 M59.018,30.738h-6.566
				c-3.052,0-5.428,0.801-7.062,2.381c-1.662,1.607-2.504,3.908-2.504,6.839v4.492c0,2.207,0.7,4.137,2.029,5.607l-0.301-0.022
				v3.227v4.665v2.705l2.69,0.279c4.528,0.47,8.469,0.708,11.713,0.708c3.071,0,5.459-0.831,7.098-2.469
				c1.638-1.637,2.468-4.025,2.468-7.097V39.958c0-2.93-0.842-5.231-2.503-6.838C64.445,31.539,62.069,30.738,59.018,30.738
				L59.018,30.738z M55.106,41.576h1.257v0.188c-0.391,0.022-0.773,0.033-1.147,0.033h-0.11V41.576L55.106,41.576z"/>
			<path fill="#FFFFFF" d="M80.787,33.738c2.258,0,3.916,0.513,4.977,1.538c1.06,1.025,1.59,2.586,1.59,4.683v12.095
				c0,2.258-0.53,3.917-1.59,4.976c-1.061,1.06-2.719,1.59-4.977,1.59c-3.156,0-6.957-0.23-11.403-0.691v-4.665
				c4.745,0.346,8.087,0.519,10.021,0.519c0.53,0,0.95-0.156,1.261-0.467c0.312-0.311,0.467-0.731,0.467-1.261v-3.11
				c-2.234,0.461-4.193,0.691-5.875,0.691H72.84c-1.567,0-2.823-0.472-3.767-1.417c-0.945-0.944-1.417-2.2-1.417-3.767v-4.492
				c0-2.096,0.53-3.657,1.59-4.683c1.06-1.025,2.718-1.538,4.976-1.538H80.787 M75.086,44.796h1.9c1.313,0,2.695-0.115,4.146-0.346
				v-3.801c0-1.382-0.691-2.073-2.073-2.073h-3.11c-1.382,0-2.073,0.691-2.073,2.073v2.938c0,0.345,0.115,0.634,0.346,0.864
				C74.451,44.681,74.74,44.796,75.086,44.796 M80.787,30.738h-6.565c-3.052,0-5.428,0.801-7.062,2.381
				c-1.662,1.607-2.504,3.908-2.504,6.839v4.492c0,2.207,0.7,4.137,2.029,5.607l-0.301-0.022v3.227v4.665v2.705l2.69,0.279
				c4.527,0.47,8.469,0.708,11.713,0.708c3.072,0,5.46-0.831,7.098-2.469c1.639-1.637,2.469-4.025,2.469-7.097V39.958
				c0-2.93-0.842-5.231-2.504-6.838C86.215,31.539,83.84,30.738,80.787,30.738L80.787,30.738z M76.876,41.576h1.257v0.188
				c-0.391,0.022-0.773,0.033-1.146,0.033h-0.11V41.576L76.876,41.576z"/>
			<path fill="#FFFFFF" d="M104.631,34.083h0.006 M104.631,34.083l-8.293,14.514h5.875v-5.184h6.22v5.184h2.419v4.838h-2.419v4.838
				h-6.22v-4.838H89.426v-4.838l8.295-14.514H104.631 M109.801,31.083h-5.17h-6.91h-1.741l-0.864,1.512l-8.294,14.514l-0.396,0.691
				v0.797v4.838v3h3h9.787v1.838v3h3h6.22h3v-3v-1.838h2.419v-3v-4.838v-3h-2.419v-2.184v-3h-3h-3.964l2.768-4.842L109.801,31.083
				L109.801,31.083z"/>
			<path fill="#FFFFFF" d="M43.121,85.919v24.189h-6.22V91.274l-3.974,1.383l-1.728-3.975l6.393-2.764H43.121 M46.121,82.919h-3
				h-5.529h-0.621l-0.57,0.246l-6.393,2.765l-2.759,1.192l1.199,2.758l1.728,3.974l1.109,2.552l2.616-0.91v14.613v3h3h6.22h3v-3
				V85.919V82.919L46.121,82.919z"/>
			<path fill="#FFFFFF" d="M59.018,85.573c2.257,0,3.916,0.513,4.976,1.537c1.06,1.025,1.59,2.587,1.59,4.684v12.094
				c0,2.259-0.53,3.918-1.59,4.977c-1.06,1.061-2.719,1.59-4.976,1.59c-3.157,0-6.958-0.23-11.404-0.691v-4.665
				c4.746,0.346,8.086,0.519,10.021,0.519c0.53,0,0.95-0.156,1.261-0.467s0.467-0.73,0.467-1.262v-3.109
				c-2.235,0.461-4.193,0.691-5.875,0.691h-2.419c-1.567,0-2.822-0.473-3.767-1.418c-0.945-0.943-1.417-2.199-1.417-3.766v-4.492
				c0-2.097,0.53-3.658,1.59-4.684c1.06-1.024,2.718-1.537,4.976-1.537H59.018 M53.315,96.632h1.901
				c1.313,0,2.695-0.115,4.147-0.346v-3.802c0-1.382-0.691-2.073-2.074-2.073h-3.11c-1.382,0-2.074,0.691-2.074,2.073v2.938
				c0,0.345,0.115,0.634,0.346,0.864C52.682,96.517,52.97,96.632,53.315,96.632 M59.018,82.573h-6.566
				c-3.052,0-5.428,0.801-7.062,2.381c-1.662,1.607-2.504,3.908-2.504,6.84v4.492c0,2.207,0.7,4.137,2.029,5.607l-0.301-0.022v3.227
				v4.665v2.705l2.69,0.279c4.528,0.469,8.469,0.707,11.713,0.707c3.071,0,5.459-0.83,7.098-2.469
				c1.638-1.637,2.468-4.025,2.468-7.098V91.794c0-2.931-0.842-5.231-2.503-6.839C64.445,83.374,62.069,82.573,59.018,82.573
				L59.018,82.573z M55.106,93.411h1.257v0.188c-0.391,0.021-0.773,0.033-1.147,0.033h-0.11V93.411L55.106,93.411z"/>
			<path fill="#FFFFFF" d="M80.787,85.573c2.258,0,3.916,0.513,4.977,1.537c1.06,1.025,1.59,2.587,1.59,4.684v12.094
				c0,2.259-0.53,3.918-1.59,4.977c-1.061,1.061-2.719,1.59-4.977,1.59c-3.156,0-6.957-0.23-11.403-0.691v-4.665
				c4.745,0.346,8.087,0.519,10.021,0.519c0.53,0,0.95-0.156,1.261-0.467c0.312-0.311,0.467-0.73,0.467-1.262v-3.109
				c-2.234,0.461-4.193,0.691-5.875,0.691H72.84c-1.567,0-2.823-0.473-3.767-1.418c-0.945-0.943-1.417-2.199-1.417-3.766v-4.492
				c0-2.097,0.53-3.658,1.59-4.684c1.06-1.024,2.718-1.537,4.976-1.537H80.787 M75.086,96.632h1.9c1.313,0,2.695-0.115,4.146-0.346
				v-3.802c0-1.382-0.691-2.073-2.073-2.073h-3.11c-1.382,0-2.073,0.691-2.073,2.073v2.938c0,0.345,0.115,0.634,0.346,0.864
				C74.451,96.517,74.74,96.632,75.086,96.632 M80.787,82.573h-6.565c-3.052,0-5.428,0.801-7.062,2.381
				c-1.662,1.607-2.504,3.908-2.504,6.84v4.492c0,2.207,0.7,4.137,2.029,5.607l-0.301-0.022v3.227v4.665v2.705l2.69,0.279
				c4.527,0.469,8.469,0.707,11.713,0.707c3.072,0,5.46-0.83,7.098-2.469c1.639-1.637,2.469-4.025,2.469-7.098V91.794
				c0-2.931-0.842-5.231-2.504-6.839C86.215,83.374,83.84,82.573,80.787,82.573L80.787,82.573z M76.876,93.411h1.257v0.188
				c-0.391,0.021-0.773,0.033-1.146,0.033h-0.11V93.411L76.876,93.411z"/>
			<path fill="#FFFFFF" d="M103.595,85.573c2.258,0,3.917,0.513,4.976,1.537c1.061,1.025,1.59,2.587,1.59,4.684v0.345
				c0,1.382-0.316,2.505-0.949,3.37c-0.635,0.863-1.469,1.469-2.506,1.813c1.865,0.507,3.133,1.751,3.801,3.732
				c0.23,0.714,0.346,1.544,0.346,2.487v0.346c0,2.259-0.53,3.918-1.59,4.977c-1.06,1.061-2.719,1.59-4.976,1.59h-7.948
				c-2.258,0-3.917-0.529-4.977-1.59c-1.06-1.059-1.59-2.718-1.59-4.977v-0.346c0-1.75,0.438-3.201,1.314-4.354
				c0.69-0.922,1.635-1.543,2.833-1.866c-1.036-0.345-1.872-0.95-2.505-1.813c-0.635-0.865-0.951-1.988-0.951-3.37v-0.345
				c0-2.097,0.529-3.658,1.59-4.684c1.06-1.024,2.719-1.537,4.977-1.537H103.595 M98.757,95.595h3.11
				c1.382,0,2.073-0.691,2.073-2.074v-1.036c0-1.382-0.691-2.073-2.073-2.073h-3.11c-1.382,0-2.073,0.691-2.073,2.073v1.036
				C96.684,94.903,97.375,95.595,98.757,95.595 M97.721,105.616h5.184c0.529,0,0.949-0.156,1.261-0.467s0.466-0.73,0.466-1.262
				v-1.382c0-1.382-0.69-2.073-2.072-2.073h-4.492c-1.383,0-2.074,0.691-2.074,2.073v1.382c0,0.531,0.156,0.951,0.467,1.262
				S97.189,105.616,97.721,105.616 M103.595,82.573h-6.565c-3.053,0-5.429,0.801-7.063,2.381c-1.661,1.607-2.504,3.908-2.504,6.84
				v0.345c0,1.954,0.479,3.634,1.424,4.993c-0.068,0.084-0.136,0.17-0.201,0.257c-1.266,1.665-1.914,3.741-1.914,6.153v0.346
				c0,3.073,0.832,5.462,2.47,7.099c1.636,1.637,4.023,2.468,7.097,2.468h7.948c3.071,0,5.46-0.83,7.098-2.469
				c1.638-1.638,2.468-4.025,2.468-7.098v-0.346c0-1.252-0.164-2.397-0.49-3.406c-0.391-1.159-0.936-2.164-1.624-3.004
				c0.945-1.361,1.423-3.04,1.423-4.993v-0.345c0-2.931-0.842-5.231-2.503-6.839C109.023,83.374,106.646,82.573,103.595,82.573
				L103.595,82.573z"/>
		</g>
		<g>
			<path fill="#E11A8E" d="M36.901,58.273V39.44l-3.974,1.382l-1.728-3.974l6.393-2.765h5.529v24.19H36.901z"/>
			<path fill="#E11A8E" d="M47.614,53.263c4.746,0.346,8.086,0.519,10.021,0.519c0.53,0,0.95-0.156,1.261-0.467
				s0.467-0.731,0.467-1.261v-3.11c-2.235,0.461-4.193,0.691-5.875,0.691h-2.419c-1.567,0-2.822-0.472-3.767-1.417
				c-0.945-0.944-1.417-2.2-1.417-3.767v-4.492c0-2.096,0.53-3.657,1.59-4.683c1.06-1.025,2.718-1.538,4.976-1.538h6.566
				c2.257,0,3.916,0.513,4.976,1.538c1.06,1.025,1.59,2.586,1.59,4.683v12.095c0,2.258-0.53,3.917-1.59,4.976
				c-1.06,1.06-2.719,1.59-4.976,1.59c-3.157,0-6.958-0.23-11.404-0.691V53.263z M55.216,44.796c1.313,0,2.695-0.115,4.147-0.346
				v-3.801c0-1.382-0.691-2.073-2.074-2.073h-3.11c-1.382,0-2.074,0.691-2.074,2.073v2.938c0,0.345,0.115,0.634,0.346,0.864
				c0.23,0.23,0.519,0.346,0.864,0.346H55.216z"/>
			<path fill="#E11A8E" d="M69.384,53.263c4.745,0.346,8.087,0.519,10.021,0.519c0.53,0,0.95-0.156,1.261-0.467
				c0.312-0.311,0.467-0.731,0.467-1.261v-3.11c-2.234,0.461-4.193,0.691-5.875,0.691H72.84c-1.567,0-2.823-0.472-3.767-1.417
				c-0.945-0.944-1.417-2.2-1.417-3.767v-4.492c0-2.096,0.53-3.657,1.59-4.683c1.06-1.025,2.718-1.538,4.976-1.538h6.565
				c2.258,0,3.916,0.513,4.977,1.538c1.06,1.025,1.59,2.586,1.59,4.683v12.095c0,2.258-0.53,3.917-1.59,4.976
				c-1.061,1.06-2.719,1.59-4.977,1.59c-3.156,0-6.957-0.23-11.403-0.691V53.263z M76.986,44.796c1.313,0,2.695-0.115,4.146-0.346
				v-3.801c0-1.382-0.691-2.073-2.073-2.073h-3.11c-1.382,0-2.073,0.691-2.073,2.073v2.938c0,0.345,0.115,0.634,0.346,0.864
				c0.229,0.23,0.519,0.346,0.864,0.346H76.986z"/>
			<path fill="#E11A8E" d="M102.213,53.436H89.426v-4.838l8.295-14.514h6.91l-8.293,14.514h5.875v-5.184h6.22v5.184h2.419v4.838
				h-2.419v4.838h-6.22V53.436z"/>
			<path fill="#E11A8E" d="M36.901,110.108V91.274l-3.974,1.383l-1.728-3.975l6.393-2.764h5.529v24.189H36.901z"/>
			<path fill="#E11A8E" d="M47.614,105.098c4.746,0.346,8.086,0.519,10.021,0.519c0.53,0,0.95-0.156,1.261-0.467
				s0.467-0.73,0.467-1.262v-3.109c-2.235,0.461-4.193,0.691-5.875,0.691h-2.419c-1.567,0-2.822-0.473-3.767-1.418
				c-0.945-0.943-1.417-2.199-1.417-3.766v-4.492c0-2.097,0.53-3.658,1.59-4.684c1.06-1.024,2.718-1.537,4.976-1.537h6.566
				c2.257,0,3.916,0.513,4.976,1.537c1.06,1.025,1.59,2.587,1.59,4.684v12.094c0,2.259-0.53,3.918-1.59,4.977
				c-1.06,1.061-2.719,1.59-4.976,1.59c-3.157,0-6.958-0.23-11.404-0.691V105.098z M55.216,96.632c1.313,0,2.695-0.115,4.147-0.346
				v-3.802c0-1.382-0.691-2.073-2.074-2.073h-3.11c-1.382,0-2.074,0.691-2.074,2.073v2.938c0,0.345,0.115,0.634,0.346,0.864
				c0.23,0.23,0.519,0.346,0.864,0.346H55.216z"/>
			<path fill="#E11A8E" d="M69.384,105.098c4.745,0.346,8.087,0.519,10.021,0.519c0.53,0,0.95-0.156,1.261-0.467
				c0.312-0.311,0.467-0.73,0.467-1.262v-3.109c-2.234,0.461-4.193,0.691-5.875,0.691H72.84c-1.567,0-2.823-0.473-3.767-1.418
				c-0.945-0.943-1.417-2.199-1.417-3.766v-4.492c0-2.097,0.53-3.658,1.59-4.684c1.06-1.024,2.718-1.537,4.976-1.537h6.565
				c2.258,0,3.916,0.513,4.977,1.537c1.06,1.025,1.59,2.587,1.59,4.684v12.094c0,2.259-0.53,3.918-1.59,4.977
				c-1.061,1.061-2.719,1.59-4.977,1.59c-3.156,0-6.957-0.23-11.403-0.691V105.098z M76.986,96.632c1.313,0,2.695-0.115,4.146-0.346
				v-3.802c0-1.382-0.691-2.073-2.073-2.073h-3.11c-1.382,0-2.073,0.691-2.073,2.073v2.938c0,0.345,0.115,0.634,0.346,0.864
				c0.229,0.23,0.519,0.346,0.864,0.346H76.986z"/>
			<path fill="#E11A8E" d="M110.852,103.888c0,2.259-0.53,3.918-1.59,4.977c-1.06,1.061-2.719,1.59-4.976,1.59h-7.948
				c-2.258,0-3.917-0.529-4.977-1.59c-1.06-1.059-1.59-2.718-1.59-4.977v-0.346c0-1.75,0.438-3.201,1.314-4.354
				c0.69-0.922,1.635-1.543,2.833-1.866c-1.036-0.345-1.872-0.95-2.505-1.813c-0.635-0.865-0.951-1.988-0.951-3.37v-0.345
				c0-2.097,0.529-3.658,1.59-4.684c1.06-1.024,2.719-1.537,4.977-1.537h6.565c2.258,0,3.917,0.513,4.976,1.537
				c1.061,1.025,1.59,2.587,1.59,4.684v0.345c0,1.382-0.316,2.505-0.949,3.37c-0.635,0.863-1.469,1.469-2.506,1.813
				c1.865,0.507,3.133,1.751,3.801,3.732c0.23,0.714,0.346,1.544,0.346,2.487V103.888z M98.066,100.433
				c-1.383,0-2.074,0.691-2.074,2.073v1.382c0,0.531,0.156,0.951,0.467,1.262s0.73,0.467,1.262,0.467h5.184
				c0.529,0,0.949-0.156,1.261-0.467s0.466-0.73,0.466-1.262v-1.382c0-1.382-0.69-2.073-2.072-2.073H98.066z M98.757,90.411
				c-1.382,0-2.073,0.691-2.073,2.073v1.036c0,1.383,0.691,2.074,2.073,2.074h3.11c1.382,0,2.073-0.691,2.073-2.074v-1.036
				c0-1.382-0.691-2.073-2.073-2.073H98.757z"/>
		</g>
		<g>
			<rect x="19.557" y="70.249" fill="#E11A8E" width="101" height="6"/>
			<path fill="#FFFFFF" d="M120.557,70.249v6h-101v-6H120.557 M123.557,67.249h-2.5h-101h-2.5v2.5v6v2.5h2.5h101h2.5v-2.5v-6V67.249
				L123.557,67.249z"/>
		</g>
	</g>
</g>
</svg>
