<?xml version="1.0" encoding="utf-8"?>
<!-- Generator: Adobe Illustrator 16.0.0, SVG Export Plug-In . SVG Version: 6.00 Build 0)  -->
<!DOCTYPE svg PUBLIC "-//W3C//DTD SVG 1.1//EN" "http://www.w3.org/Graphics/SVG/1.1/DTD/svg11.dtd">
<svg version="1.1" id="레이어_1" xmlns="http://www.w3.org/2000/svg" xmlns:xlink="http://www.w3.org/1999/xlink" x="0px"
	 y="0px" width="222.026px" height="222.027px" viewBox="0 0 222.026 222.027" enable-background="new 0 0 222.026 222.027"
	 xml:space="preserve">
<g>
	<circle fill="#F08DC7" cx="111.013" cy="111.013" r="111.013"/>
	<g>
		<g>
			<path fill="#FFFFFF" d="M58.066,55.878c3.867,0,6.674,0.864,8.424,2.592c1.748,1.728,2.623,4.5,2.623,8.318v1.091
				c0,3.091-1.325,5.764-3.977,8.019c-0.811,0.691-1.694,1.382-2.651,2.072L50.61,86.425h18.503v7.637H39.287V83.697l19.885-14.182
				v-2.728c0-2.182-1.105-3.273-3.314-3.273H40.392v-7.637H58.066 M58.066,52.878H40.392h-3v3v7.637v3h3h15.466
				c0.126,0,0.226,0.007,0.303,0.015c0.007,0.068,0.012,0.153,0.012,0.259v1.183L37.545,81.255l-1.258,0.897v1.545v10.364v3h3
				h29.826h3v-3v-7.637v-3h-3h-9.117l4.229-3.011c1.035-0.748,1.992-1.495,2.858-2.234c3.336-2.837,5.029-6.304,5.029-10.301v-1.091
				c0-4.631-1.183-8.147-3.515-10.452C66.274,54.041,62.731,52.878,58.066,52.878L58.066,52.878z"/>
			<path fill="#FFFFFF" d="M94.521,55.333c3.866,0,6.674,0.864,8.423,2.591c1.748,1.728,2.624,4.5,2.624,8.318v17.455
				c0,3.818-0.876,6.592-2.624,8.318c-1.749,1.728-4.557,2.592-8.423,2.592H84.026c-3.866,0-6.675-0.864-8.423-2.592
				c-1.749-1.727-2.624-4.5-2.624-8.318V66.242c0-3.818,0.875-6.591,2.624-8.318c1.748-1.727,4.557-2.591,8.423-2.591H94.521
				 M86.236,86.971h6.075c2.21,0,3.314-1.091,3.314-3.273V66.242c0-2.182-1.104-3.272-3.314-3.272h-6.075
				c-2.21,0-3.314,1.091-3.314,3.272v17.455C82.922,85.88,84.026,86.971,86.236,86.971 M94.521,52.333H84.026
				c-4.666,0-8.209,1.163-10.531,3.456c-2.333,2.305-3.516,5.821-3.516,10.453v17.455c0,4.633,1.184,8.15,3.517,10.453
				c2.32,2.294,5.864,3.457,10.53,3.457h10.495c4.665,0,8.208-1.163,10.531-3.457c2.333-2.305,3.516-5.821,3.516-10.453V66.242
				c0-4.631-1.183-8.146-3.516-10.452C102.729,53.496,99.187,52.333,94.521,52.333L94.521,52.333z M85.934,65.984
				c0.077-0.008,0.177-0.015,0.303-0.015h6.075c0.126,0,0.226,0.007,0.303,0.015c0.007,0.068,0.012,0.153,0.012,0.258v17.455
				c0,0.105-0.005,0.19-0.012,0.259c-0.077,0.009-0.177,0.015-0.303,0.015h-6.075c-0.126,0-0.226-0.006-0.303-0.015
				c-0.007-0.068-0.012-0.153-0.012-0.259V66.242C85.922,66.138,85.927,66.053,85.934,65.984L85.934,65.984z"/>
			<path fill="#FFFFFF" d="M131.528,55.333c3.866,0,6.674,0.864,8.423,2.591c1.748,1.728,2.624,4.5,2.624,8.318v17.455
				c0,3.818-0.876,6.592-2.624,8.318c-1.749,1.728-4.557,2.592-8.423,2.592h-10.495c-3.866,0-6.675-0.864-8.423-2.592
				c-1.749-1.727-2.624-4.5-2.624-8.318V66.242c0-3.818,0.875-6.591,2.624-8.318c1.748-1.727,4.557-2.591,8.423-2.591H131.528
				 M123.243,86.971h6.075c2.21,0,3.314-1.091,3.314-3.273V66.242c0-2.182-1.104-3.272-3.314-3.272h-6.075
				c-2.21,0-3.314,1.091-3.314,3.272v17.455C119.929,85.88,121.033,86.971,123.243,86.971 M131.528,52.333h-10.495
				c-4.666,0-8.209,1.163-10.531,3.456c-2.333,2.305-3.516,5.821-3.516,10.453v17.455c0,4.633,1.183,8.15,3.517,10.453
				c2.32,2.294,5.863,3.457,10.53,3.457h10.495c4.665,0,8.208-1.163,10.531-3.457c2.333-2.305,3.516-5.821,3.516-10.453V66.242
				c0-4.631-1.183-8.146-3.516-10.452C139.735,53.496,136.192,52.333,131.528,52.333L131.528,52.333z M122.94,65.984
				c0.077-0.008,0.177-0.015,0.303-0.015h6.075c0.126,0,0.226,0.007,0.303,0.015c0.007,0.068,0.012,0.153,0.012,0.258v17.455
				c0,0.105-0.005,0.19-0.012,0.259c-0.077,0.009-0.177,0.015-0.303,0.015h-6.075c-0.126,0-0.226-0.006-0.303-0.015
				c-0.007-0.068-0.012-0.153-0.012-0.259V66.242C122.929,66.138,122.934,66.053,122.94,65.984L122.94,65.984z"/>
			<path fill="#FFFFFF" d="M166.878,55.333c3.608,0,6.26,0.81,7.953,2.428s2.541,4.082,2.541,7.391v19.092
				c0,3.564-0.848,6.183-2.541,7.854c-1.693,1.673-4.345,2.51-7.953,2.51c-5.045,0-11.121-0.364-18.228-1.092v-7.363
				c7.585,0.545,12.925,0.818,16.018,0.818c0.847,0,1.52-0.246,2.017-0.736c0.497-0.491,0.745-1.154,0.745-1.991v-4.909
				c-3.571,0.728-6.702,1.091-9.39,1.091h-3.866c-2.504,0-4.511-0.745-6.021-2.236s-2.265-3.473-2.265-5.946v-7.091
				c0-3.309,0.847-5.772,2.541-7.391c1.693-1.618,4.345-2.428,7.954-2.428H166.878 M157.765,72.788h3.037
				c2.1,0,4.309-0.182,6.628-0.546v-6c0-2.182-1.104-3.272-3.313-3.272h-4.971c-2.21,0-3.314,1.091-3.314,3.272v4.637
				c0,0.546,0.184,1.001,0.553,1.363C156.751,72.606,157.212,72.788,157.765,72.788 M166.878,52.333h-10.494
				c-4.391,0-7.764,1.097-10.026,3.259c-2.302,2.198-3.469,5.414-3.469,9.56v7.091c0,3.293,1.062,6.012,3.156,8.081
				c2.084,2.058,4.819,3.102,8.129,3.102h3.866c1.924,0,4.063-0.173,6.39-0.516v1.061c-3.038-0.014-8.271-0.286-15.564-0.81
				l-3.215-0.231v3.224v7.363v2.709l2.694,0.275c7.178,0.734,13.413,1.107,18.533,1.107c4.409,0,7.794-1.136,10.062-3.376
				c2.277-2.248,3.433-5.609,3.433-9.988V65.151c0-4.144-1.167-7.36-3.469-9.56C174.641,53.43,171.268,52.333,166.878,52.333
				L166.878,52.333z M158.843,65.984c0.077-0.008,0.177-0.015,0.303-0.015h4.971c0.125,0,0.225,0.007,0.302,0.015
				c0.007,0.068,0.012,0.153,0.012,0.258v3.361c-1.251,0.123-2.464,0.185-3.628,0.185h-1.971v-3.546
				C158.831,66.138,158.836,66.053,158.843,65.984L158.843,65.984z"/>
			<path fill="#FFFFFF" d="M65.938,137.699c3.867,0,6.674,0.864,8.424,2.592c1.748,1.728,2.623,4.5,2.623,8.318v1.091
				c0,3.091-1.325,5.764-3.977,8.019c-0.811,0.691-1.694,1.382-2.651,2.072l-11.875,8.455h18.503v7.637H47.158v-10.364
				l19.885-14.182v-2.728c0-2.182-1.105-3.273-3.314-3.273H48.263v-7.637H65.938 M65.938,134.699H48.263h-3v3v7.637v3h3h15.466
				c0.126,0,0.226,0.007,0.303,0.015c0.007,0.068,0.012,0.153,0.012,0.259v1.183l-18.627,13.284l-1.258,0.897v1.545v10.364v3h3
				h29.826h3v-3v-7.637v-3h-3h-9.117l4.229-3.012c1.035-0.747,1.992-1.494,2.858-2.233c3.336-2.837,5.029-6.304,5.029-10.301v-1.091
				c0-4.631-1.183-8.147-3.515-10.452C74.146,135.862,70.603,134.699,65.938,134.699L65.938,134.699z"/>
			<path fill="#FFFFFF" d="M102.393,137.154c3.866,0,6.674,0.864,8.423,2.591c1.748,1.728,2.624,4.5,2.624,8.318v17.455
				c0,3.818-0.876,6.592-2.624,8.318c-1.749,1.728-4.557,2.592-8.423,2.592H91.897c-3.866,0-6.675-0.864-8.423-2.592
				c-1.749-1.727-2.624-4.5-2.624-8.318v-17.455c0-3.818,0.875-6.591,2.624-8.318c1.748-1.727,4.557-2.591,8.423-2.591H102.393
				 M94.107,168.792h6.075c2.21,0,3.314-1.091,3.314-3.273v-17.455c0-2.182-1.104-3.272-3.314-3.272h-6.075
				c-2.21,0-3.314,1.091-3.314,3.272v17.455C90.793,167.701,91.897,168.792,94.107,168.792 M102.393,134.154H91.897
				c-4.666,0-8.209,1.163-10.531,3.456c-2.333,2.305-3.516,5.821-3.516,10.453v17.455c0,4.633,1.184,8.15,3.517,10.453
				c2.32,2.294,5.864,3.457,10.53,3.457h10.495c4.665,0,8.208-1.163,10.531-3.457c2.333-2.305,3.516-5.821,3.516-10.453v-17.455
				c0-4.63-1.183-8.147-3.516-10.452C110.6,135.317,107.058,134.154,102.393,134.154L102.393,134.154z M93.805,147.806
				c0.077-0.008,0.177-0.015,0.303-0.015h6.075c0.126,0,0.226,0.007,0.303,0.015c0.007,0.068,0.012,0.153,0.012,0.258v17.455
				c0,0.105-0.005,0.19-0.012,0.259c-0.077,0.008-0.177,0.015-0.303,0.015h-6.075c-0.126,0-0.226-0.007-0.303-0.015
				c-0.007-0.068-0.012-0.153-0.012-0.259v-17.455C93.793,147.959,93.798,147.874,93.805,147.806L93.805,147.806z"/>
			<path fill="#FFFFFF" d="M134.704,137.699v38.184h-9.942v-29.729l-6.352,2.182l-2.762-6.272l10.219-4.364H134.704
				 M137.704,134.699h-3h-8.837h-0.614l-0.564,0.241l-10.219,4.364l-2.789,1.191l1.223,2.776l2.762,6.272l1.111,2.524l2.608-0.896
				l2.377-0.816v25.526v3h3h9.942h3v-3v-38.184V134.699L137.704,134.699z"/>
			<path fill="#FFFFFF" d="M158.454,137.699c3.608,0,6.26,0.811,7.954,2.428c1.693,1.618,2.54,4.083,2.54,7.392
				c0,2.182-0.506,3.954-1.519,5.318c-1.013,1.363-2.348,2.318-4.005,2.863c2.983,0.801,5.008,2.764,6.076,5.892
				c0.367,1.127,0.553,2.437,0.553,3.927v0.546c0,3.564-0.848,6.183-2.541,7.854c-1.694,1.673-4.346,2.51-7.954,2.51
				c-6.149,0-12.962-0.364-20.437-1.092v-7.363c8.138,0.545,14.214,0.818,18.228,0.818c0.847,0,1.519-0.246,2.016-0.736
				c0.497-0.491,0.746-1.154,0.746-1.991v-2.182c0-2.183-1.104-3.273-3.314-3.273h-11.599v-7.637h10.494
				c2.209,0,3.314-1.091,3.314-3.272v-1.091c0-2.182-1.105-3.273-3.314-3.273h-16.018v-7.637H158.454 M158.454,134.699h-18.779h-3v3
				v7.637v3h3h16.018c0.126,0,0.226,0.007,0.303,0.015c0.007,0.068,0.012,0.153,0.012,0.259v1.091c0,0.104-0.005,0.189-0.012,0.258
				c-0.077,0.008-0.177,0.015-0.303,0.015h-10.494h-3v3v7.637v3h3h11.599c0.126,0,0.226,0.007,0.303,0.015
				c0.007,0.068,0.012,0.153,0.012,0.259v1.909c-3.925-0.011-9.907-0.284-17.789-0.812l-3.2-0.215v3.208v7.363v2.722l2.709,0.265
				c7.54,0.733,14.514,1.105,20.728,1.105c4.408,0,7.794-1.136,10.062-3.375c2.278-2.249,3.434-5.61,3.434-9.989v-0.546
				c0-1.796-0.235-3.43-0.7-4.856c-0.718-2.101-1.807-3.835-3.228-5.169c0.249-0.274,0.486-0.563,0.712-0.867
				c1.4-1.887,2.11-4.277,2.11-7.107c0-4.146-1.167-7.362-3.468-9.561C166.215,135.795,162.842,134.699,158.454,134.699
				L158.454,134.699z"/>
		</g>
		<g>
			<path fill="#E11A8E" d="M105.568,83.697c0,3.818-0.876,6.592-2.624,8.318c-1.749,1.728-4.557,2.592-8.423,2.592H84.026
				c-3.866,0-6.675-0.864-8.423-2.592c-1.749-1.727-2.624-4.5-2.624-8.318V66.242c0-3.818,0.875-6.591,2.624-8.318
				c1.748-1.727,4.557-2.591,8.423-2.591h10.495c3.866,0,6.674,0.864,8.423,2.591c1.748,1.728,2.624,4.5,2.624,8.318V83.697z
				 M95.626,66.242c0-2.182-1.104-3.272-3.314-3.272h-6.075c-2.21,0-3.314,1.091-3.314,3.272v17.455
				c0,2.183,1.104,3.273,3.314,3.273h6.075c2.21,0,3.314-1.091,3.314-3.273V66.242z"/>
			<path fill="#E11A8E" d="M142.575,83.697c0,3.818-0.876,6.592-2.624,8.318c-1.749,1.728-4.557,2.592-8.423,2.592h-10.495
				c-3.866,0-6.675-0.864-8.423-2.592c-1.749-1.727-2.624-4.5-2.624-8.318V66.242c0-3.818,0.875-6.591,2.624-8.318
				c1.748-1.727,4.557-2.591,8.423-2.591h10.495c3.866,0,6.674,0.864,8.423,2.591c1.748,1.728,2.624,4.5,2.624,8.318V83.697z
				 M132.633,66.242c0-2.182-1.104-3.272-3.314-3.272h-6.075c-2.21,0-3.314,1.091-3.314,3.272v17.455
				c0,2.183,1.104,3.273,3.314,3.273h6.075c2.21,0,3.314-1.091,3.314-3.273V66.242z"/>
			<path fill="#E11A8E" d="M148.65,86.152c7.585,0.545,12.925,0.818,16.018,0.818c0.847,0,1.52-0.246,2.017-0.736
				c0.497-0.491,0.745-1.154,0.745-1.991v-4.909c-3.571,0.728-6.702,1.091-9.39,1.091h-3.866c-2.504,0-4.511-0.745-6.021-2.236
				s-2.265-3.473-2.265-5.946v-7.091c0-3.309,0.847-5.772,2.541-7.391c1.693-1.618,4.345-2.428,7.954-2.428h10.494
				c3.608,0,6.26,0.81,7.953,2.428s2.541,4.082,2.541,7.391v19.092c0,3.564-0.848,6.183-2.541,7.854
				c-1.693,1.673-4.345,2.51-7.953,2.51c-5.045,0-11.121-0.364-18.228-1.092V86.152z M160.802,72.788c2.1,0,4.309-0.182,6.628-0.546
				v-6c0-2.182-1.104-3.272-3.313-3.272h-4.971c-2.21,0-3.314,1.091-3.314,3.272v4.637c0,0.546,0.184,1.001,0.553,1.363
				c0.367,0.364,0.828,0.546,1.381,0.546H160.802z"/>
			<path fill="#E11A8E" d="M76.984,149.7c0,3.091-1.325,5.764-3.977,8.019c-0.811,0.691-1.694,1.382-2.651,2.072l-11.875,8.455
				h18.503v7.637H47.158v-10.364l19.885-14.182v-2.728c0-2.182-1.105-3.273-3.314-3.273H48.263v-7.637h17.675
				c3.867,0,6.674,0.864,8.424,2.592c1.748,1.728,2.623,4.5,2.623,8.318V149.7z"/>
			<path fill="#E11A8E" d="M113.439,165.519c0,3.818-0.876,6.592-2.624,8.318c-1.749,1.728-4.557,2.592-8.423,2.592H91.897
				c-3.866,0-6.675-0.864-8.423-2.592c-1.749-1.727-2.624-4.5-2.624-8.318v-17.455c0-3.818,0.875-6.591,2.624-8.318
				c1.748-1.727,4.557-2.591,8.423-2.591h10.495c3.866,0,6.674,0.864,8.423,2.591c1.748,1.728,2.624,4.5,2.624,8.318V165.519z
				 M103.497,148.063c0-2.182-1.104-3.272-3.314-3.272h-6.075c-2.21,0-3.314,1.091-3.314,3.272v17.455
				c0,2.183,1.104,3.273,3.314,3.273h6.075c2.21,0,3.314-1.091,3.314-3.273V148.063z"/>
			<path fill="#E11A8E" d="M124.762,175.883v-29.729l-6.352,2.182l-2.762-6.272l10.219-4.364h8.837v38.184H124.762z"/>
			<path fill="#E11A8E" d="M159.559,176.429c-6.149,0-12.962-0.364-20.437-1.092v-7.363c8.138,0.545,14.214,0.818,18.228,0.818
				c0.847,0,1.519-0.246,2.016-0.736c0.497-0.491,0.746-1.154,0.746-1.991v-2.182c0-2.183-1.104-3.273-3.314-3.273h-11.599v-7.637
				h10.494c2.209,0,3.314-1.091,3.314-3.272v-1.091c0-2.182-1.105-3.273-3.314-3.273h-16.018v-7.637h18.779
				c3.608,0,6.26,0.811,7.954,2.428c1.693,1.618,2.54,4.083,2.54,7.392c0,2.182-0.506,3.954-1.519,5.318
				c-1.013,1.363-2.348,2.318-4.005,2.863c2.983,0.801,5.008,2.764,6.076,5.892c0.367,1.127,0.553,2.437,0.553,3.927v0.546
				c0,3.564-0.848,6.183-2.541,7.854C165.818,175.592,163.167,176.429,159.559,176.429z"/>
			<path fill="#E11A8E" d="M69.113,67.879c0,3.091-1.325,5.764-3.977,8.019c-0.811,0.691-1.694,1.382-2.651,2.072L50.61,86.425
				h18.503v7.637H39.287V83.697l19.885-14.182v-2.728c0-2.182-1.105-3.273-3.314-3.273H40.392v-7.637h17.675
				c3.867,0,6.674,0.864,8.424,2.592c1.748,1.728,2.623,4.5,2.623,8.318V67.879z"/>
		</g>
		<g>
			<rect x="29.983" y="113.65" fill="#E11A8E" width="161" height="8"/>
			<path fill="#FFFFFF" d="M190.983,113.65v8h-161v-8H190.983 M193.983,110.65h-2.5h-161h-3.5v2.5v8v3.5h3.5h161h2.5v-3.5v-8V110.65
				L193.983,110.65z"/>
		</g>
	</g>
</g>
</svg>
