<?xml version="1.0" encoding="utf-8"?>
<!-- Generator: Adobe Illustrator 16.0.0, SVG Export Plug-In . SVG Version: 6.00 Build 0)  -->
<!DOCTYPE svg PUBLIC "-//W3C//DTD SVG 1.1//EN" "http://www.w3.org/Graphics/SVG/1.1/DTD/svg11.dtd">
<svg version="1.1" id="레이어_1" xmlns="http://www.w3.org/2000/svg" xmlns:xlink="http://www.w3.org/1999/xlink" x="0px"
	 y="0px" width="57px" height="57px" viewBox="0 0 57 57" enable-background="new 0 0 57 57" xml:space="preserve">
<g>
	<path fill="#FFFFFF" d="M9.535,7.225C21.284-3.248,39.304-2.213,49.778,9.536c10.469,11.749,9.435,29.769-2.313,40.239
		c-11.749,10.473-29.769,9.438-40.241-2.311C-3.249,35.715-2.213,17.696,9.535,7.225z"/>
	<path fill="#E11A8E" d="M28.491,7L28.491,7c6.132,0,11.987,2.622,16.061,7.193c7.887,8.852,7.104,22.469-1.744,30.358
		C38.865,48.064,33.788,50,28.511,50c-6.132,0-11.985-2.621-16.06-7.193c-3.821-4.285-5.745-9.805-5.416-15.54
		c0.329-5.734,2.871-10.996,7.157-14.816C18.135,8.936,23.213,7,28.491,7 M28.49,0C21.742,0,14.967,2.382,9.535,7.225
		c-11.748,10.471-12.783,28.49-2.31,40.24C12.854,53.781,20.666,57,28.511,57c6.748,0,13.522-2.381,18.955-7.225
		c11.747-10.471,12.781-28.49,2.313-40.239C44.147,3.22,36.336,0,28.49,0L28.49,0z"/>
</g>
</svg>
