<?xml version="1.0" encoding="utf-8"?>
<!-- Generator: Adobe Illustrator 16.0.0, SVG Export Plug-In . SVG Version: 6.00 Build 0)  -->
<!DOCTYPE svg PUBLIC "-//W3C//DTD SVG 1.1//EN" "http://www.w3.org/Graphics/SVG/1.1/DTD/svg11.dtd">
<svg version="1.1" id="레이어_1" xmlns="http://www.w3.org/2000/svg" xmlns:xlink="http://www.w3.org/1999/xlink" x="0px"
	 y="0px" width="207.339px" height="207.341px" viewBox="0 0 207.339 207.341" enable-background="new 0 0 207.339 207.341"
	 xml:space="preserve">
<g>
	<circle fill="#FFFFFF" cx="103.669" cy="103.671" r="103.669"/>
	<g>
		<g>
			<path fill="#E11A8E" d="M71.285,55.73c0,2.952-1.266,5.504-3.797,7.656c-0.773,0.66-1.617,1.32-2.531,1.979l-11.339,8.073h17.667
				v7.292H42.807v-9.896l18.986-13.542v-2.604c0-2.083-1.055-3.125-3.165-3.125H43.861v-7.292h16.877
				c3.691,0,6.372,0.825,8.042,2.474c1.67,1.649,2.505,4.297,2.505,7.942V55.73z"/>
			<path fill="#E11A8E" d="M106.093,70.835c0,3.646-0.836,6.293-2.505,7.942c-1.671,1.649-4.352,2.474-8.043,2.474H85.524
				c-3.691,0-6.373-0.825-8.043-2.474c-1.67-1.649-2.505-4.297-2.505-7.942V54.168c0-3.646,0.835-6.293,2.505-7.942
				c1.67-1.649,4.352-2.474,8.043-2.474h10.021c3.691,0,6.372,0.825,8.043,2.474c1.669,1.649,2.505,4.297,2.505,7.942V70.835z
				 M96.6,54.168c0-2.083-1.055-3.125-3.164-3.125h-5.802c-2.109,0-3.164,1.042-3.164,3.125v16.667c0,2.083,1.055,3.125,3.164,3.125
				h5.802c2.109,0,3.164-1.042,3.164-3.125V54.168z"/>
			<path fill="#E11A8E" d="M116.904,80.73V52.345l-6.065,2.083l-2.637-5.99l9.757-4.167h8.438V80.73H116.904z"/>
			<path fill="#E11A8E" d="M150.13,73.439h-19.514v-7.292l12.657-21.875h10.548l-12.657,21.875h8.966v-7.813h9.492v7.813h3.692
				v7.292h-3.692v7.292h-9.492V73.439z"/>
			<path fill="#E11A8E" d="M73.658,133.855c0,2.951-1.266,5.504-3.797,7.656c-0.773,0.66-1.617,1.32-2.531,1.979l-11.339,8.073
				h17.667v7.292H45.18v-9.896l18.986-13.541v-2.604c0-2.083-1.055-3.125-3.165-3.125H46.234v-7.292h16.877
				c3.691,0,6.372,0.826,8.042,2.475c1.67,1.649,2.505,4.297,2.505,7.942V133.855z"/>
			<path fill="#E11A8E" d="M108.466,148.959c0,3.646-0.836,6.294-2.505,7.943c-1.671,1.648-4.352,2.474-8.043,2.474H87.897
				c-3.691,0-6.373-0.825-8.043-2.474c-1.67-1.649-2.505-4.297-2.505-7.943v-16.666c0-3.646,0.835-6.293,2.505-7.943
				c1.67-1.648,4.352-2.474,8.043-2.474h10.021c3.691,0,6.372,0.825,8.043,2.474c1.669,1.65,2.505,4.297,2.505,7.943V148.959z
				 M98.973,132.293c0-2.084-1.055-3.125-3.164-3.125h-5.802c-2.109,0-3.164,1.041-3.164,3.125v16.666
				c0,2.084,1.055,3.125,3.164,3.125h5.802c2.109,0,3.164-1.041,3.164-3.125V132.293z"/>
			<path fill="#E11A8E" d="M119.277,158.855V130.47l-6.065,2.083l-2.637-5.989l9.757-4.167h8.438v36.459H119.277z"/>
			<path fill="#E11A8E" d="M132.462,122.396h28.479v7.292l-12.13,29.167h-10.547l12.657-29.167h-18.459V122.396z"/>
		</g>
		<rect x="28.043" y="99.018" fill="#E11A8E" width="154" height="7"/>
	</g>
</g>
</svg>
