<?xml version="1.0" encoding="utf-8"?>
<!-- Generator: Adobe Illustrator 16.0.0, SVG Export Plug-In . SVG Version: 6.00 Build 0)  -->
<!DOCTYPE svg PUBLIC "-//W3C//DTD SVG 1.1//EN" "http://www.w3.org/Graphics/SVG/1.1/DTD/svg11.dtd">
<svg version="1.1" id="레이어_1" xmlns="http://www.w3.org/2000/svg" xmlns:xlink="http://www.w3.org/1999/xlink" x="0px"
	 y="0px" width="143.086px" height="141.737px" viewBox="0 0 143.086 141.737" enable-background="new 0 0 143.086 141.737"
	 xml:space="preserve">
<ellipse fill="#F08DC7" cx="71.543" cy="70.869" rx="71.543" ry="70.869"/>
<g>
	<path fill="#FFFFFF" d="M43.121,34.083v24.19h-6.22V39.44l-3.974,1.382l-1.728-3.974l6.393-2.765H43.121 M46.121,31.083h-3h-5.529
		h-0.621l-0.57,0.247l-6.393,2.765l-2.759,1.193l1.199,2.757l1.728,3.974l1.109,2.551l2.616-0.91v14.614v3h3h6.22h3v-3v-24.19
		V31.083L46.121,31.083z"/>
	<path fill="#FFFFFF" d="M80.788,33.738c2.257,0,3.916,0.513,4.976,1.538c1.061,1.025,1.59,2.586,1.59,4.683v12.095
		c0,2.258-0.529,3.917-1.59,4.976c-1.06,1.06-2.719,1.59-4.976,1.59c-3.157,0-6.958-0.23-11.404-0.691v-4.665
		c4.746,0.346,8.086,0.519,10.022,0.519c0.529,0,0.949-0.156,1.261-0.467s0.467-0.731,0.467-1.261v-3.11
		c-2.235,0.461-4.193,0.691-5.875,0.691H72.84c-1.566,0-2.822-0.472-3.767-1.417c-0.945-0.944-1.417-2.2-1.417-3.767v-4.492
		c0-2.096,0.53-3.657,1.59-4.683c1.06-1.025,2.719-1.538,4.977-1.538H80.788 M75.086,44.796h1.9c1.313,0,2.695-0.115,4.147-0.346
		v-3.801c0-1.382-0.691-2.073-2.073-2.073h-3.11c-1.382,0-2.073,0.691-2.073,2.073v2.938c0,0.345,0.115,0.634,0.346,0.864
		C74.452,44.681,74.74,44.796,75.086,44.796 M80.788,30.738h-6.565c-3.053,0-5.429,0.801-7.063,2.381
		c-1.662,1.607-2.504,3.908-2.504,6.839v4.492c0,2.207,0.7,4.137,2.029,5.607l-0.301-0.022v3.227v4.665v2.705l2.69,0.279
		c4.528,0.47,8.468,0.708,11.713,0.708c3.072,0,5.46-0.831,7.098-2.469c1.637-1.635,2.468-4.023,2.468-7.097V39.958
		c0-2.932-0.843-5.232-2.505-6.839C86.216,31.54,83.84,30.738,80.788,30.738L80.788,30.738z M76.877,41.576h1.257v0.188
		c-0.391,0.022-0.773,0.033-1.147,0.033h-0.109V41.576L76.877,41.576z"/>
	<path fill="#FFFFFF" d="M101.521,34.083c2.258,0,3.916,0.513,4.977,1.538c1.059,1.025,1.59,2.586,1.59,4.682
		c0,1.382-0.318,2.505-0.951,3.37c-0.634,0.864-1.469,1.469-2.506,1.814c1.867,0.507,3.133,1.751,3.802,3.732
		c0.229,0.714,0.346,1.543,0.346,2.488v0.346c0,2.258-0.53,3.917-1.59,4.976c-1.06,1.06-2.718,1.59-4.976,1.59
		c-3.848,0-8.109-0.23-12.787-0.691v-4.665c5.092,0.346,8.893,0.519,11.404,0.519c0.529,0,0.951-0.156,1.262-0.467
		s0.467-0.731,0.467-1.261v-1.382c0-1.382-0.691-2.073-2.074-2.073h-7.257V43.76h6.565c1.383,0,2.074-0.691,2.074-2.074v-0.691
		c0-1.382-0.691-2.074-2.074-2.074H89.771v-4.838H101.521 M101.521,31.083h-11.75h-3v3v4.838v3h3h0.456v1.838v4.838v1.712
		c-0.197-0.013-0.397-0.026-0.599-0.04l-3.203-0.217v3.21v4.665v2.719l2.706,0.267c4.753,0.469,9.154,0.706,13.081,0.706
		c3.072,0,5.46-0.831,7.098-2.469c1.637-1.636,2.468-4.024,2.468-7.097v-0.346c0-1.249-0.165-2.395-0.489-3.405
		c-0.392-1.159-0.938-2.165-1.626-3.005c0.946-1.363,1.425-3.041,1.425-4.993c0-2.928-0.842-5.229-2.503-6.837
		C106.948,31.884,104.572,31.083,101.521,31.083L101.521,31.083z"/>
	<path fill="#FFFFFF" d="M43.121,85.919v24.189h-6.22V91.274l-3.974,1.383l-1.728-3.975l6.393-2.764H43.121 M46.121,82.919h-3
		h-5.529h-0.621l-0.57,0.246l-6.393,2.764l-2.759,1.193l1.199,2.757l1.728,3.975l1.109,2.552l2.616-0.91v14.613v3h3h6.22h3v-3
		V85.919V82.919L46.121,82.919z"/>
	<path fill="#FFFFFF" d="M59.018,85.573c2.257,0,3.916,0.513,4.976,1.537c1.06,1.025,1.59,2.587,1.59,4.684v12.094
		c0,2.259-0.53,3.918-1.59,4.977c-1.06,1.061-2.719,1.59-4.976,1.59c-3.157,0-6.958-0.23-11.404-0.691v-4.665
		c4.746,0.346,8.086,0.519,10.021,0.519c0.53,0,0.95-0.156,1.261-0.467s0.467-0.73,0.467-1.262v-3.109
		c-2.235,0.461-4.193,0.691-5.875,0.691h-2.419c-1.567,0-2.822-0.473-3.767-1.418c-0.945-0.943-1.417-2.199-1.417-3.766v-4.492
		c0-2.097,0.53-3.658,1.59-4.684c1.06-1.024,2.718-1.537,4.976-1.537H59.018 M53.315,96.632h1.901c1.313,0,2.695-0.115,4.147-0.346
		v-3.802c0-1.382-0.691-2.073-2.074-2.073h-3.11c-1.382,0-2.074,0.691-2.074,2.073v2.938c0,0.345,0.115,0.634,0.346,0.864
		C52.682,96.517,52.97,96.632,53.315,96.632 M59.018,82.573h-6.566c-3.052,0-5.428,0.801-7.062,2.38
		c-1.662,1.608-2.504,3.909-2.504,6.841v4.492c0,2.208,0.7,4.138,2.029,5.607l-0.301-0.022v3.227v4.665v2.705l2.69,0.279
		c4.528,0.469,8.469,0.707,11.713,0.707c3.072,0,5.46-0.831,7.098-2.469c1.637-1.636,2.468-4.024,2.468-7.098V91.794
		c0-2.931-0.842-5.231-2.503-6.84C64.444,83.374,62.069,82.573,59.018,82.573L59.018,82.573z M55.106,93.411h1.257v0.188
		c-0.391,0.022-0.773,0.033-1.147,0.033h-0.11V93.411L55.106,93.411z"/>
	<path fill="#FFFFFF" d="M80.788,85.573c2.257,0,3.916,0.513,4.976,1.537c1.061,1.025,1.59,2.587,1.59,4.684v12.094
		c0,2.259-0.529,3.918-1.59,4.977c-1.06,1.061-2.719,1.59-4.976,1.59c-3.157,0-6.958-0.23-11.404-0.691v-4.665
		c4.746,0.346,8.086,0.519,10.022,0.519c0.529,0,0.949-0.156,1.261-0.467s0.467-0.73,0.467-1.262v-3.109
		c-2.235,0.461-4.193,0.691-5.875,0.691H72.84c-1.566,0-2.822-0.473-3.767-1.418c-0.945-0.943-1.417-2.199-1.417-3.766v-4.492
		c0-2.097,0.53-3.658,1.59-4.684c1.06-1.024,2.719-1.537,4.977-1.537H80.788 M75.086,96.632h1.9c1.313,0,2.695-0.115,4.147-0.346
		v-3.802c0-1.382-0.691-2.073-2.073-2.073h-3.11c-1.382,0-2.073,0.691-2.073,2.073v2.938c0,0.345,0.115,0.634,0.346,0.864
		C74.452,96.517,74.74,96.632,75.086,96.632 M80.788,82.573h-6.565c-3.052,0-5.428,0.801-7.062,2.38
		c-1.662,1.608-2.504,3.909-2.504,6.841v4.492c0,2.208,0.7,4.138,2.029,5.607l-0.301-0.022v3.227v4.665v2.705l2.69,0.279
		c4.528,0.469,8.468,0.707,11.713,0.707c3.072,0,5.461-0.831,7.098-2.47c1.637-1.633,2.468-4.021,2.468-7.097V91.794
		c0-2.932-0.843-5.233-2.505-6.841C86.215,83.374,83.84,82.573,80.788,82.573L80.788,82.573z M76.877,93.411h1.257v0.188
		c-0.391,0.022-0.773,0.033-1.147,0.033h-0.109V93.411L76.877,93.411z"/>
	<path fill="#FFFFFF" d="M103.595,85.573c2.258,0,3.917,0.513,4.976,1.537c1.061,1.025,1.59,2.587,1.59,4.684v0.345
		c0,1.382-0.316,2.505-0.949,3.37c-0.635,0.863-1.469,1.469-2.506,1.813c1.865,0.507,3.133,1.751,3.801,3.732
		c0.23,0.714,0.346,1.544,0.346,2.487v0.346c0,2.259-0.53,3.918-1.59,4.977c-1.06,1.061-2.719,1.59-4.976,1.59h-7.948
		c-2.258,0-3.917-0.529-4.977-1.59c-1.06-1.059-1.59-2.718-1.59-4.977v-0.346c0-1.75,0.438-3.201,1.314-4.354
		c0.69-0.922,1.635-1.543,2.833-1.866c-1.036-0.345-1.872-0.95-2.505-1.813c-0.635-0.865-0.951-1.988-0.951-3.37v-0.345
		c0-2.097,0.529-3.658,1.59-4.684c1.06-1.024,2.719-1.537,4.977-1.537H103.595 M98.757,95.595h3.11c1.382,0,2.073-0.691,2.073-2.074
		v-1.036c0-1.382-0.691-2.073-2.073-2.073h-3.11c-1.382,0-2.073,0.691-2.073,2.073v1.036C96.684,94.903,97.375,95.595,98.757,95.595
		 M97.721,105.616h5.184c0.529,0,0.949-0.156,1.261-0.467s0.466-0.73,0.466-1.262v-1.382c0-1.382-0.69-2.073-2.072-2.073h-4.492
		c-1.383,0-2.074,0.691-2.074,2.073v1.382c0,0.531,0.156,0.951,0.467,1.262S97.189,105.616,97.721,105.616 M103.595,82.573h-6.565
		c-3.052,0-5.428,0.801-7.062,2.38c-1.662,1.607-2.505,3.909-2.505,6.841v0.345c0,1.954,0.479,3.633,1.424,4.992
		c-0.068,0.085-0.136,0.171-0.202,0.259c-1.265,1.662-1.913,3.738-1.913,6.152v0.346c0,3.073,0.831,5.462,2.47,7.099
		c1.635,1.637,4.023,2.468,7.097,2.468h7.948c3.072,0,5.461-0.831,7.098-2.47c1.637-1.635,2.468-4.023,2.468-7.097v-0.346
		c0-1.253-0.165-2.4-0.491-3.409c-0.39-1.157-0.935-2.161-1.623-3.001c0.945-1.365,1.423-3.042,1.423-4.993v-0.345
		c0-2.932-0.843-5.233-2.505-6.841C109.023,83.374,106.647,82.573,103.595,82.573L103.595,82.573z"/>
	<path fill="#FFFFFF" d="M59.018,33.738c2.257,0,3.916,0.513,4.976,1.538c1.06,1.025,1.59,2.586,1.59,4.683v12.095
		c0,2.258-0.53,3.917-1.59,4.976c-1.06,1.06-2.719,1.59-4.976,1.59c-3.157,0-6.958-0.23-11.404-0.691v-4.665
		c4.746,0.346,8.086,0.519,10.021,0.519c0.53,0,0.95-0.156,1.261-0.467s0.467-0.731,0.467-1.261v-3.11
		c-2.235,0.461-4.193,0.691-5.875,0.691h-2.419c-1.567,0-2.822-0.472-3.767-1.417c-0.945-0.944-1.417-2.2-1.417-3.767v-4.492
		c0-2.096,0.53-3.657,1.59-4.683c1.06-1.025,2.718-1.538,4.976-1.538H59.018 M53.315,44.796h1.901c1.313,0,2.695-0.115,4.147-0.346
		v-3.801c0-1.382-0.691-2.073-2.074-2.073h-3.11c-1.382,0-2.074,0.691-2.074,2.073v2.938c0,0.345,0.115,0.634,0.346,0.864
		C52.682,44.681,52.97,44.796,53.315,44.796 M59.018,30.738h-6.566c-3.052,0-5.428,0.801-7.062,2.381
		c-1.662,1.607-2.504,3.908-2.504,6.839v4.492c0,2.207,0.7,4.137,2.029,5.607l-0.301-0.022v3.227v4.665v2.705l2.69,0.279
		c4.528,0.47,8.469,0.708,11.713,0.708c3.071,0,5.459-0.831,7.097-2.469c1.638-1.637,2.469-4.025,2.469-7.097V39.958
		c0-2.93-0.842-5.231-2.503-6.838C64.445,31.539,62.069,30.738,59.018,30.738L59.018,30.738z M55.106,41.576h1.257v0.188
		c-0.391,0.022-0.773,0.033-1.147,0.033h-0.11V41.576L55.106,41.576z"/>
	<path fill="#E11A8E" d="M36.901,58.273V39.44l-3.974,1.382l-1.728-3.974l6.393-2.765h5.529v24.19H36.901z"/>
	<path fill="#E11A8E" d="M47.614,53.263c4.746,0.346,8.086,0.519,10.021,0.519c0.53,0,0.95-0.156,1.261-0.467
		s0.467-0.731,0.467-1.261v-3.11c-2.235,0.461-4.193,0.691-5.875,0.691h-2.419c-1.567,0-2.822-0.472-3.767-1.417
		c-0.945-0.944-1.417-2.2-1.417-3.767v-4.492c0-2.096,0.53-3.657,1.59-4.683c1.06-1.025,2.718-1.538,4.976-1.538h6.566
		c2.257,0,3.916,0.513,4.976,1.538c1.06,1.025,1.59,2.586,1.59,4.683v12.095c0,2.258-0.53,3.917-1.59,4.976
		c-1.06,1.06-2.719,1.59-4.976,1.59c-3.157,0-6.958-0.23-11.404-0.691V53.263z M55.216,44.796c1.313,0,2.695-0.115,4.147-0.346
		v-3.801c0-1.382-0.691-2.073-2.074-2.073h-3.11c-1.382,0-2.074,0.691-2.074,2.073v2.938c0,0.345,0.115,0.634,0.346,0.864
		c0.23,0.23,0.519,0.346,0.864,0.346H55.216z"/>
	<path fill="#E11A8E" d="M69.384,53.263c4.746,0.346,8.086,0.519,10.022,0.519c0.529,0,0.949-0.156,1.261-0.467
		s0.467-0.731,0.467-1.261v-3.11c-2.235,0.461-4.193,0.691-5.875,0.691H72.84c-1.566,0-2.822-0.472-3.767-1.417
		c-0.945-0.944-1.417-2.2-1.417-3.767v-4.492c0-2.096,0.53-3.657,1.59-4.683c1.06-1.025,2.719-1.538,4.977-1.538h6.565
		c2.257,0,3.916,0.513,4.976,1.538c1.061,1.025,1.59,2.586,1.59,4.683v12.095c0,2.258-0.529,3.917-1.59,4.976
		c-1.06,1.06-2.719,1.59-4.976,1.59c-3.157,0-6.958-0.23-11.404-0.691V53.263z M76.986,44.796c1.313,0,2.695-0.115,4.147-0.346
		v-3.801c0-1.382-0.691-2.073-2.073-2.073h-3.11c-1.382,0-2.073,0.691-2.073,2.073v2.938c0,0.345,0.115,0.634,0.346,0.864
		c0.229,0.23,0.518,0.346,0.863,0.346H76.986z"/>
	<path fill="#E11A8E" d="M102.213,58.619c-3.848,0-8.109-0.23-12.787-0.691v-4.665c5.092,0.346,8.893,0.519,11.404,0.519
		c0.529,0,0.951-0.156,1.262-0.467s0.467-0.731,0.467-1.261v-1.382c0-1.382-0.691-2.073-2.074-2.073h-7.257V43.76h6.565
		c1.383,0,2.074-0.691,2.074-2.074v-0.691c0-1.382-0.691-2.074-2.074-2.074H89.771v-4.838h11.75c2.258,0,3.916,0.513,4.977,1.538
		c1.059,1.025,1.59,2.586,1.59,4.682c0,1.382-0.318,2.505-0.951,3.37c-0.634,0.864-1.469,1.469-2.506,1.814
		c1.867,0.507,3.133,1.751,3.802,3.732c0.229,0.714,0.346,1.543,0.346,2.488v0.346c0,2.258-0.53,3.917-1.59,4.976
		C106.129,58.089,104.471,58.619,102.213,58.619z"/>
	<path fill="#E11A8E" d="M36.901,110.108V91.274l-3.974,1.383l-1.728-3.975l6.393-2.764h5.529v24.189H36.901z"/>
	<path fill="#E11A8E" d="M47.614,105.098c4.746,0.346,8.086,0.519,10.021,0.519c0.53,0,0.95-0.156,1.261-0.467
		s0.467-0.73,0.467-1.262v-3.109c-2.235,0.461-4.193,0.691-5.875,0.691h-2.419c-1.567,0-2.822-0.473-3.767-1.418
		c-0.945-0.943-1.417-2.199-1.417-3.766v-4.492c0-2.097,0.53-3.658,1.59-4.684c1.06-1.024,2.718-1.537,4.976-1.537h6.566
		c2.257,0,3.916,0.513,4.976,1.537c1.06,1.025,1.59,2.587,1.59,4.684v12.094c0,2.259-0.53,3.918-1.59,4.977
		c-1.06,1.061-2.719,1.59-4.976,1.59c-3.157,0-6.958-0.23-11.404-0.691V105.098z M55.216,96.632c1.313,0,2.695-0.115,4.147-0.346
		v-3.802c0-1.382-0.691-2.073-2.074-2.073h-3.11c-1.382,0-2.074,0.691-2.074,2.073v2.938c0,0.345,0.115,0.634,0.346,0.864
		c0.23,0.23,0.519,0.346,0.864,0.346H55.216z"/>
	<path fill="#E11A8E" d="M69.384,105.098c4.746,0.346,8.086,0.519,10.022,0.519c0.529,0,0.949-0.156,1.261-0.467
		s0.467-0.73,0.467-1.262v-3.109c-2.235,0.461-4.193,0.691-5.875,0.691H72.84c-1.566,0-2.822-0.473-3.767-1.418
		c-0.945-0.943-1.417-2.199-1.417-3.766v-4.492c0-2.097,0.53-3.658,1.59-4.684c1.06-1.024,2.719-1.537,4.977-1.537h6.565
		c2.257,0,3.916,0.513,4.976,1.537c1.061,1.025,1.59,2.587,1.59,4.684v12.094c0,2.259-0.529,3.918-1.59,4.977
		c-1.06,1.061-2.719,1.59-4.976,1.59c-3.157,0-6.958-0.23-11.404-0.691V105.098z M76.986,96.632c1.313,0,2.695-0.115,4.147-0.346
		v-3.802c0-1.382-0.691-2.073-2.073-2.073h-3.11c-1.382,0-2.073,0.691-2.073,2.073v2.938c0,0.345,0.115,0.634,0.346,0.864
		c0.229,0.23,0.518,0.346,0.863,0.346H76.986z"/>
	<path fill="#E11A8E" d="M110.852,103.888c0,2.259-0.53,3.918-1.59,4.977c-1.06,1.061-2.719,1.59-4.976,1.59h-7.948
		c-2.258,0-3.917-0.529-4.977-1.59c-1.06-1.059-1.59-2.718-1.59-4.977v-0.346c0-1.75,0.438-3.201,1.314-4.354
		c0.69-0.922,1.635-1.543,2.833-1.866c-1.036-0.345-1.872-0.95-2.505-1.813c-0.635-0.865-0.951-1.988-0.951-3.37v-0.345
		c0-2.097,0.529-3.658,1.59-4.684c1.06-1.024,2.719-1.537,4.977-1.537h6.565c2.258,0,3.917,0.513,4.976,1.537
		c1.061,1.025,1.59,2.587,1.59,4.684v0.345c0,1.382-0.316,2.505-0.949,3.37c-0.635,0.863-1.469,1.469-2.506,1.813
		c1.865,0.507,3.133,1.751,3.801,3.732c0.23,0.714,0.346,1.544,0.346,2.487V103.888z M98.066,100.433
		c-1.383,0-2.074,0.691-2.074,2.073v1.382c0,0.531,0.156,0.951,0.467,1.262s0.73,0.467,1.262,0.467h5.184
		c0.529,0,0.949-0.156,1.261-0.467s0.466-0.73,0.466-1.262v-1.382c0-1.382-0.69-2.073-2.072-2.073H98.066z M98.757,90.411
		c-1.382,0-2.073,0.691-2.073,2.073v1.036c0,1.383,0.691,2.074,2.073,2.074h3.11c1.382,0,2.073-0.691,2.073-2.074v-1.036
		c0-1.382-0.691-2.073-2.073-2.073H98.757z"/>
	<g>
		<rect x="17.557" y="72.249" fill="#E11A8E" width="101" height="6"/>
		<path fill="#FFFFFF" d="M118.557,72.249v6h-101v-6H118.557 M121.557,69.249h-2.5h-101h-3.5v2.5v6v3.5h3.5h101h2.5v-3.5v-6V69.249
			L121.557,69.249z"/>
	</g>
</g>
</svg>
