<?xml version="1.0" encoding="utf-8"?>
<!-- Generator: Adobe Illustrator 16.0.0, SVG Export Plug-In . SVG Version: 6.00 Build 0)  -->
<!DOCTYPE svg PUBLIC "-//W3C//DTD SVG 1.1//EN" "http://www.w3.org/Graphics/SVG/1.1/DTD/svg11.dtd">
<svg version="1.1" id="레이어_1" xmlns="http://www.w3.org/2000/svg" xmlns:xlink="http://www.w3.org/1999/xlink" x="0px"
	 y="0px" width="178.185px" height="178.183px" viewBox="0 0 178.185 178.183" enable-background="new 0 0 178.185 178.183"
	 xml:space="preserve">
<g>
	<circle fill="#FFFFFF" cx="89.092" cy="89.091" r="89.092"/>
	<g>
		<g>
			<path fill="#E11A8E" d="M55.286,48.937c0,2.449-1.038,4.566-3.112,6.352c-0.634,0.547-1.325,1.095-2.074,1.642l-9.291,6.698
				h14.476v6.049H31.952v-8.21l15.556-11.234v-2.16c0-1.729-0.865-2.593-2.593-2.593h-12.1v-6.049h13.828
				c3.025,0,5.221,0.684,6.589,2.052s2.053,3.565,2.053,6.59V48.937z"/>
			<path fill="#E11A8E" d="M83.805,61.468c0,3.025-0.684,5.222-2.052,6.59c-1.369,1.369-3.565,2.052-6.59,2.052h-8.21
				c-3.025,0-5.221-0.684-6.59-2.052c-1.368-1.368-2.052-3.565-2.052-6.59V47.641c0-3.024,0.684-5.221,2.052-6.59
				c1.369-1.368,3.565-2.052,6.59-2.052h8.21c3.025,0,5.221,0.685,6.59,2.052c1.368,1.369,2.052,3.565,2.052,6.59V61.468z
				 M76.027,47.641c0-1.728-0.864-2.592-2.593-2.592h-4.753c-1.729,0-2.593,0.864-2.593,2.592v13.827
				c0,1.729,0.864,2.593,2.593,2.593h4.753c1.729,0,2.593-0.864,2.593-2.593V47.641z"/>
			<path fill="#E11A8E" d="M112.755,61.468c0,3.025-0.684,5.222-2.051,6.59c-1.369,1.369-3.566,2.052-6.59,2.052h-8.211
				c-3.023,0-5.221-0.684-6.589-2.052c-1.368-1.368-2.053-3.565-2.053-6.59V47.641c0-3.024,0.685-5.221,2.053-6.59
				c1.369-1.368,3.566-2.052,6.589-2.052h8.211c3.023,0,5.221,0.685,6.59,2.052c1.367,1.369,2.051,3.565,2.051,6.59V61.468z
				 M104.978,47.641c0-1.728-0.863-2.592-2.592-2.592h-4.754c-1.729,0-2.592,0.864-2.592,2.592v13.827
				c0,1.729,0.863,2.593,2.592,2.593h4.754c1.729,0,2.592-0.864,2.592-2.593V47.641z"/>
			<path fill="#E11A8E" d="M131.337,63.629h-15.988v-6.05l10.371-18.148h8.643l-10.371,18.148h7.346v-6.481h7.777v6.481h3.025v6.05
				h-3.025v6.049h-7.777V63.629z"/>
			<path fill="#E11A8E" d="M54.854,113.753c0,2.449-1.037,4.566-3.111,6.352c-0.634,0.548-1.325,1.096-2.074,1.643l-9.29,6.697
				h14.476v6.05H31.52v-8.21l15.556-11.234v-2.16c0-1.729-0.864-2.594-2.593-2.594h-12.1v-6.049h13.828
				c3.024,0,5.221,0.684,6.589,2.052c1.368,1.368,2.053,3.565,2.053,6.591V113.753z"/>
			<path fill="#E11A8E" d="M83.373,126.285c0,3.025-0.685,5.222-2.052,6.59c-1.369,1.369-3.565,2.052-6.59,2.052h-8.21
				c-3.025,0-5.221-0.683-6.589-2.052c-1.369-1.368-2.052-3.564-2.052-6.59v-13.828c0-3.024,0.684-5.221,2.052-6.59
				c1.368-1.367,3.564-2.053,6.589-2.053h8.21c3.024,0,5.221,0.686,6.59,2.053c1.368,1.369,2.052,3.565,2.052,6.59V126.285z
				 M75.595,112.457c0-1.729-0.864-2.592-2.593-2.592H68.25c-1.729,0-2.593,0.863-2.593,2.592v13.828
				c0,1.729,0.864,2.592,2.593,2.592h4.753c1.729,0,2.593-0.863,2.593-2.592V112.457z"/>
			<path fill="#E11A8E" d="M112.323,126.285c0,3.025-0.684,5.222-2.051,6.59c-1.369,1.369-3.566,2.052-6.59,2.052h-8.211
				c-3.025,0-5.221-0.683-6.589-2.052c-1.369-1.368-2.053-3.564-2.053-6.59v-13.828c0-3.024,0.684-5.221,2.053-6.59
				c1.369-1.367,3.564-2.053,6.589-2.053h8.211c3.023,0,5.221,0.686,6.59,2.053c1.367,1.369,2.051,3.565,2.051,6.59V126.285z
				 M104.546,112.457c0-1.729-0.863-2.592-2.592-2.592H97.2c-1.729,0-2.592,0.863-2.592,2.592v13.828
				c0,1.729,0.863,2.592,2.592,2.592h4.754c1.729,0,2.592-0.863,2.592-2.592V112.457z"/>
			<path fill="#E11A8E" d="M141.708,126.716c0,2.824-0.664,4.898-1.988,6.223c-1.326,1.325-3.4,1.987-6.223,1.987h-9.938
				c-2.824,0-4.898-0.662-6.223-1.987c-1.326-1.324-1.988-3.398-1.988-6.223v-0.432c0-2.188,0.547-4.004,1.643-5.445
				c0.863-1.15,2.045-1.929,3.543-2.332c-1.297-0.434-2.34-1.189-3.133-2.27s-1.188-2.484-1.188-4.213v-0.432
				c0-2.621,0.662-4.573,1.986-5.855c1.324-1.281,3.398-1.924,6.223-1.924h8.211c2.822,0,4.896,0.643,6.221,1.924
				c1.326,1.282,1.988,3.234,1.988,5.855v0.432c0,1.729-0.396,3.133-1.188,4.213c-0.793,1.08-1.836,1.836-3.133,2.27
				c2.332,0.633,3.918,2.189,4.752,4.666c0.287,0.893,0.434,1.93,0.434,3.111V126.716z M125.72,122.396
				c-1.729,0-2.594,0.863-2.594,2.592v1.729c0,0.664,0.195,1.189,0.584,1.578s0.914,0.582,1.578,0.582h6.48
				c0.662,0,1.189-0.193,1.578-0.582s0.582-0.914,0.582-1.578v-1.729c0-1.729-0.863-2.592-2.592-2.592H125.72z M126.583,109.865
				c-1.729,0-2.592,0.863-2.592,2.592v1.297c0,1.729,0.863,2.593,2.592,2.593h3.891c1.727,0,2.592-0.864,2.592-2.593v-1.297
				c0-1.729-0.865-2.592-2.592-2.592H126.583z"/>
		</g>
		<rect x="22.827" y="85.582" fill="#E11A8E" width="127" height="7"/>
	</g>
</g>
</svg>
