<?xml version="1.0" encoding="utf-8"?>
<!-- Generator: Adobe Illustrator 16.0.0, SVG Export Plug-In . SVG Version: 6.00 Build 0)  -->
<!DOCTYPE svg PUBLIC "-//W3C//DTD SVG 1.1//EN" "http://www.w3.org/Graphics/SVG/1.1/DTD/svg11.dtd">
<svg version="1.1" id="레이어_1" xmlns="http://www.w3.org/2000/svg" xmlns:xlink="http://www.w3.org/1999/xlink" x="0px"
	 y="0px" width="974.12px" height="572.08px" viewBox="0 0 974.12 572.08" enable-background="new 0 0 974.12 572.08"
	 xml:space="preserve">
<path fill="#E11A8E" d="M283.88,228.843c-84.665,15.551-113.099-107.645-115.517-119.587c-9.23-45.583-37.704-84.211-84.211-84.211
	c-46.508,0-84.211,37.703-84.211,84.211c0,41.226,29.605,75.656,68.753,82.771c123.2,22.39,107.403,129.258,111.231,160.171
	c7.542,60.9,54.219,109.892,116.353,109.892c53.921,0,100.31-36.283,108.085-97.027c7.776-60.744-3.021-147.238,66.635-149.229
	c47.246-1.35,77.496,43.394,59.998,211.784c-9.087,87.442,60.355,144.461,129.115,144.461c55.168,0,110.024-39.857,124.127-90.168
	c19.418-69.279-15.463-109.775,26.383-179.97c32.839-55.083,70.193-43.194,117.771-82.251
	c28.035-23.015,45.665-55.248,45.665-93.129c0-65.057-52.74-117.796-117.797-117.796c-65.056,0-117.796,52.739-117.796,117.796
	c0,24.588,9.829,169.716-87.729,170.472c-87.78,0.679-101.089-160.791-106.865-196.534C534.987,45.53,497.436,0.002,441.524,0.002
	c-56.538,0-102.37,45.833-102.37,102.37C339.154,130.771,336.67,219.146,283.88,228.843z"/>
</svg>
