<?xml version="1.0" encoding="utf-8"?>
<!-- Generator: Adobe Illustrator 16.0.0, SVG Export Plug-In . SVG Version: 6.00 Build 0)  -->
<!DOCTYPE svg PUBLIC "-//W3C//DTD SVG 1.1//EN" "http://www.w3.org/Graphics/SVG/1.1/DTD/svg11.dtd">
<svg version="1.1" id="레이어_1" xmlns="http://www.w3.org/2000/svg" xmlns:xlink="http://www.w3.org/1999/xlink" x="0px"
	 y="0px" width="199px" height="199px" viewBox="0 0 199 199" enable-background="new 0 0 199 199" xml:space="preserve">
<circle fill="#FFFFFF" cx="99.5" cy="99.5" r="99.5"/>
<g>
	<g enable-background="new    ">
		<path fill="#E11A8E" d="M49.404,79.736V52.897l-5.663,1.97l-2.462-5.663l9.11-3.94h7.879v34.472H49.404z"/>
		<path fill="#E11A8E" d="M64.67,72.596c6.763,0.492,11.523,0.738,14.281,0.738c0.755,0,1.354-0.222,1.797-0.664
			c0.443-0.443,0.665-1.042,0.665-1.798v-4.433c-3.185,0.657-5.976,0.985-8.372,0.985h-3.447c-2.233,0-4.022-0.673-5.368-2.019
			c-1.347-1.347-2.019-3.136-2.019-5.368v-6.402c0-2.987,0.755-5.212,2.265-6.673c1.51-1.46,3.874-2.191,7.092-2.191h9.356
			c3.217,0,5.581,0.731,7.092,2.191c1.51,1.461,2.265,3.686,2.265,6.673v17.236c0,3.218-0.755,5.582-2.265,7.092
			c-1.511,1.51-3.875,2.265-7.092,2.265c-4.498,0-9.915-0.328-16.251-0.984V72.596z M75.504,60.53c1.872,0,3.841-0.164,5.91-0.492
			v-5.417c0-1.97-0.985-2.955-2.955-2.955h-4.432c-1.97,0-2.955,0.985-2.955,2.955v4.186c0,0.493,0.164,0.903,0.493,1.231
			c0.328,0.328,0.739,0.492,1.231,0.492H75.504z"/>
		<path fill="#E11A8E" d="M95.694,72.596c6.763,0.492,11.523,0.738,14.281,0.738c0.755,0,1.354-0.222,1.798-0.664
			c0.442-0.443,0.664-1.042,0.664-1.798v-4.433c-3.185,0.657-5.976,0.985-8.371,0.985h-3.447c-2.233,0-4.022-0.673-5.368-2.019
			c-1.347-1.347-2.019-3.136-2.019-5.368v-6.402c0-2.987,0.755-5.212,2.265-6.673c1.51-1.46,3.874-2.191,7.092-2.191h9.356
			c3.217,0,5.581,0.731,7.092,2.191c1.51,1.461,2.265,3.686,2.265,6.673v17.236c0,3.218-0.755,5.582-2.265,7.092
			c-1.511,1.51-3.875,2.265-7.092,2.265c-4.498,0-9.915-0.328-16.251-0.984V72.596z M106.528,60.53c1.871,0,3.841-0.164,5.909-0.492
			v-5.417c0-1.97-0.984-2.955-2.954-2.955h-4.433c-1.97,0-2.954,0.985-2.954,2.955v4.186c0,0.493,0.163,0.903,0.492,1.231
			c0.327,0.328,0.738,0.492,1.231,0.492H106.528z"/>
		<path fill="#E11A8E" d="M126.719,72.596c6.763,0.492,11.523,0.738,14.281,0.738c0.755,0,1.354-0.222,1.798-0.664
			c0.442-0.443,0.664-1.042,0.664-1.798v-4.433c-3.185,0.657-5.976,0.985-8.371,0.985h-3.447c-2.233,0-4.022-0.673-5.368-2.019
			c-1.347-1.347-2.019-3.136-2.019-5.368v-6.402c0-2.987,0.755-5.212,2.265-6.673c1.51-1.46,3.874-2.191,7.092-2.191h9.356
			c3.217,0,5.581,0.731,7.092,2.191c1.51,1.461,2.265,3.686,2.265,6.673v17.236c0,3.218-0.755,5.582-2.265,7.092
			c-1.511,1.51-3.875,2.265-7.092,2.265c-4.498,0-9.915-0.328-16.251-0.984V72.596z M137.553,60.53c1.871,0,3.841-0.164,5.909-0.492
			v-5.417c0-1.97-0.984-2.955-2.954-2.955h-4.433c-1.97,0-2.954,0.985-2.954,2.955v4.186c0,0.493,0.163,0.903,0.492,1.231
			c0.327,0.328,0.738,0.492,1.231,0.492H137.553z"/>
	</g>
	<g enable-background="new    ">
		<path fill="#E11A8E" d="M62.823,129.967c0,2.791-1.182,5.204-3.545,7.24c-0.723,0.624-1.511,1.248-2.364,1.871l-10.587,7.633
			h16.497v6.895H36.23v-9.356l17.729-12.804v-2.463c0-1.97-0.985-2.955-2.955-2.955H37.215v-6.895h15.759
			c3.447,0,5.95,0.781,7.51,2.34c1.559,1.56,2.339,4.063,2.339,7.51V129.967z"/>
		<path fill="#E11A8E" d="M95.325,144.249c0,3.447-0.78,5.951-2.34,7.51c-1.56,1.56-4.063,2.339-7.51,2.339h-9.357
			c-3.447,0-5.951-0.779-7.51-2.339c-1.56-1.559-2.339-4.063-2.339-7.51V128.49c0-3.447,0.78-5.951,2.339-7.51
			c1.559-1.56,4.063-2.34,7.51-2.34h9.357c3.447,0,5.95,0.78,7.51,2.34c1.56,1.559,2.34,4.063,2.34,7.51V144.249z M86.461,128.49
			c0-1.971-0.985-2.955-2.955-2.955h-5.417c-1.97,0-2.955,0.984-2.955,2.955v15.759c0,1.97,0.985,2.954,2.955,2.954h5.417
			c1.97,0,2.955-0.984,2.955-2.954V128.49z"/>
		<path fill="#E11A8E" d="M128.32,144.249c0,3.447-0.78,5.951-2.34,7.51c-1.56,1.56-4.063,2.339-7.51,2.339h-9.356
			c-3.447,0-5.951-0.779-7.511-2.339c-1.56-1.559-2.339-4.063-2.339-7.51V128.49c0-3.447,0.779-5.951,2.339-7.51
			c1.56-1.56,4.063-2.34,7.511-2.34h9.356c3.447,0,5.95,0.78,7.51,2.34c1.56,1.559,2.34,4.063,2.34,7.51V144.249z M119.456,128.49
			c0-1.971-0.985-2.955-2.955-2.955h-5.417c-1.97,0-2.955,0.984-2.955,2.955v15.759c0,1.97,0.985,2.954,2.955,2.954h5.417
			c1.97,0,2.955-0.984,2.955-2.954V128.49z"/>
		<path fill="#E11A8E" d="M149.495,154.098c-5.483,0-11.557-0.328-18.221-0.984v-6.648c7.255,0.492,12.672,0.738,16.251,0.738
			c0.755,0,1.354-0.222,1.797-0.664c0.443-0.443,0.665-1.042,0.665-1.798v-1.97c0-1.97-0.984-2.955-2.955-2.955h-10.341v-6.895
			h9.356c1.97,0,2.955-0.984,2.955-2.955v-0.984c0-1.97-0.985-2.955-2.955-2.955h-14.281v-6.895h16.743
			c3.218,0,5.581,0.731,7.092,2.191c1.51,1.462,2.266,3.687,2.266,6.674c0,1.969-0.452,3.57-1.354,4.801
			c-0.903,1.231-2.093,2.093-3.57,2.586c2.659,0.723,4.464,2.495,5.417,5.318c0.328,1.018,0.492,2.2,0.492,3.546v0.492
			c0,3.218-0.756,5.582-2.266,7.092S152.712,154.098,149.495,154.098z"/>
	</g>
	<rect x="27" y="96" fill="#E11A8E" width="144" height="8"/>
</g>
</svg>
