<?xml version="1.0" encoding="utf-8"?>
<!-- Generator: Adobe Illustrator 16.0.0, SVG Export Plug-In . SVG Version: 6.00 Build 0)  -->
<!DOCTYPE svg PUBLIC "-//W3C//DTD SVG 1.1//EN" "http://www.w3.org/Graphics/SVG/1.1/DTD/svg11.dtd">
<svg version="1.1" id="레이어_1" xmlns="http://www.w3.org/2000/svg" xmlns:xlink="http://www.w3.org/1999/xlink" x="0px"
	 y="0px" width="47.229px" height="47.229px" viewBox="0 0 47.229 47.229" enable-background="new 0 0 47.229 47.229"
	 xml:space="preserve">
<g>
	<path fill="#FFFFFF" d="M32.568,45.461C20.503,50.405,6.713,44.629,1.769,32.567C-3.174,20.505,2.598,6.713,14.664,1.769
		C26.726-3.175,40.516,2.6,45.46,14.662C50.404,26.725,44.63,40.518,32.568,45.461z"/>
	<path fill="#E11A8E" d="M23.22,0.211v7h0.193c6.772,0,12.904,3.944,15.473,10.211c1.682,4.104,1.713,8.565,0,12.659
		c-1.714,4.093-4.894,7.247-8.998,8.929c-2.017,0.827-4.12,1.232-6.274,1.232c-6.774,0-12.805-4.056-15.374-10.322
		c-1.682-4.104-1.662-8.622,0.052-12.715c1.713-4.094,4.727-7.275,8.833-8.957C19.141,7.421,21.22,7,23.22,7V0.211 M23.604,0
		c-2.98,0-6.013,0.568-8.94,1.769C2.598,6.713-3.174,20.505,1.769,32.567c3.744,9.134,12.559,14.662,21.857,14.662
		c2.98,0,6.013-0.568,8.941-1.769C44.63,40.518,50.404,26.725,45.46,14.662C41.716,5.527,32.902-0.001,23.604,0L23.604,0z"/>
</g>
</svg>
