<?xml version="1.0" encoding="utf-8"?>
<!-- Generator: Adobe Illustrator 16.0.0, SVG Export Plug-In . SVG Version: 6.00 Build 0)  -->
<!DOCTYPE svg PUBLIC "-//W3C//DTD SVG 1.1//EN" "http://www.w3.org/Graphics/SVG/1.1/DTD/svg11.dtd">
<svg version="1.1" id="레이어_1" xmlns="http://www.w3.org/2000/svg" xmlns:xlink="http://www.w3.org/1999/xlink" x="0px"
	 y="0px" width="178px" height="178px" viewBox="0 0 178 178" enable-background="new 0 0 178 178" xml:space="preserve">
<circle fill="#FFFFFF" cx="89" cy="89" r="89"/>
<g>
	<g>
		<path fill="#E11A8E" d="M55.114,49.334c0,2.449-1.038,4.566-3.112,6.352c-0.634,0.547-1.325,1.095-2.074,1.642l-9.291,6.698
			h14.476v6.049H31.78v-8.21l15.556-11.234v-2.16c0-1.729-0.865-2.593-2.593-2.593h-12.1v-6.049h13.828
			c3.025,0,5.221,0.684,6.589,2.052c1.368,1.368,2.053,3.565,2.053,6.59v0.863H55.114z"/>
		<path fill="#E11A8E" d="M83.632,61.865c0,3.025-0.684,5.222-2.052,6.59c-1.369,1.369-3.565,2.052-6.59,2.052h-8.21
			c-3.025,0-5.221-0.684-6.59-2.052c-1.368-1.368-2.052-3.565-2.052-6.59V48.038c0-3.024,0.684-5.221,2.052-6.59
			c1.369-1.368,3.565-2.052,6.59-2.052h8.21c3.025,0,5.221,0.685,6.59,2.052c1.368,1.369,2.052,3.565,2.052,6.59V61.865z
			 M75.854,48.038c0-1.728-0.864-2.592-2.593-2.592h-4.753c-1.729,0-2.593,0.864-2.593,2.592v13.827
			c0,1.729,0.864,2.593,2.593,2.593h4.753c1.729,0,2.593-0.864,2.593-2.593V48.038z"/>
		<path fill="#E11A8E" d="M112.583,61.865c0,3.025-0.685,5.222-2.052,6.59c-1.369,1.369-3.565,2.052-6.59,2.052H95.73
			c-3.023,0-5.222-0.684-6.589-2.052c-1.368-1.368-2.053-3.565-2.053-6.59V48.038c0-3.024,0.685-5.221,2.053-6.59
			c1.368-1.368,3.565-2.052,6.589-2.052h8.211c3.023,0,5.221,0.685,6.59,2.052c1.367,1.369,2.052,3.565,2.052,6.59V61.865z
			 M104.807,48.038c0-1.728-0.865-2.592-2.594-2.592H97.46c-1.729,0-2.593,0.864-2.593,2.592v13.827
			c0,1.729,0.863,2.593,2.593,2.593h4.753c1.729,0,2.594-0.864,2.594-2.593V48.038z"/>
		<path fill="#E11A8E" d="M131.164,64.026h-15.988v-6.05l10.371-18.148h8.643l-10.371,18.148h7.347v-6.481h7.778v6.481h3.023v6.05
			h-3.023v6.049h-7.778L131.164,64.026L131.164,64.026z"/>
		<path fill="#E11A8E" d="M54.682,114.15c0,2.449-1.037,4.565-3.111,6.353c-0.634,0.548-1.325,1.095-2.074,1.642l-9.29,6.697h14.476
			v6.051H31.348v-8.211l15.556-11.233v-2.16c0-1.729-0.864-2.593-2.593-2.593h-12.1v-6.051H46.04c3.024,0,5.221,0.686,6.589,2.053
			c1.368,1.369,2.053,3.564,2.053,6.591V114.15z"/>
		<path fill="#E11A8E" d="M83.201,126.682c0,3.025-0.685,5.223-2.052,6.59c-1.369,1.369-3.565,2.054-6.59,2.054h-8.21
			c-3.025,0-5.221-0.685-6.589-2.054c-1.369-1.367-2.052-3.563-2.052-6.59v-13.826c0-3.024,0.684-5.223,2.052-6.59
			c1.368-1.369,3.564-2.054,6.589-2.054h8.21c3.024,0,5.221,0.685,6.59,2.054c1.368,1.367,2.052,3.564,2.052,6.59V126.682z
			 M75.423,112.854c0-1.729-0.864-2.593-2.593-2.593h-4.753c-1.729,0-2.593,0.864-2.593,2.593v13.828
			c0,1.729,0.864,2.592,2.593,2.592h4.753c1.729,0,2.593-0.863,2.593-2.592V112.854z"/>
		<path fill="#E11A8E" d="M112.15,126.682c0,3.025-0.685,5.223-2.051,6.59c-1.369,1.369-3.565,2.054-6.591,2.054H95.3
			c-3.024,0-5.222-0.685-6.59-2.054c-1.369-1.367-2.053-3.563-2.053-6.59v-13.826c0-3.024,0.684-5.223,2.053-6.59
			c1.368-1.369,3.563-2.054,6.59-2.054h8.21c3.024,0,5.221,0.685,6.59,2.054c1.367,1.367,2.053,3.564,2.053,6.59v13.826H112.15z
			 M104.374,112.854c0-1.729-0.864-2.593-2.593-2.593h-4.754c-1.729,0-2.592,0.864-2.592,2.593v13.828
			c0,1.729,0.863,2.592,2.592,2.592h4.754c1.729,0,2.593-0.863,2.593-2.592V112.854z"/>
		<path fill="#E11A8E" d="M141.535,127.113c0,2.824-0.663,4.898-1.988,6.223c-1.326,1.326-3.398,1.988-6.222,1.988h-9.938
			c-2.824,0-4.896-0.662-6.223-1.988c-1.325-1.324-1.988-3.398-1.988-6.223v-0.432c0-2.188,0.549-4.004,1.643-5.445
			c0.865-1.15,2.045-1.928,3.543-2.332c-1.295-0.434-2.34-1.188-3.133-2.27c-0.793-1.08-1.188-2.484-1.188-4.214v-0.432
			c0-2.621,0.662-4.572,1.986-5.855c1.324-1.28,3.398-1.923,6.223-1.923h8.211c2.822,0,4.896,0.643,6.223,1.923
			c1.324,1.283,1.986,3.234,1.986,5.855v0.432c0,1.729-0.396,3.134-1.188,4.214c-0.793,1.08-1.836,1.836-3.133,2.27
			c2.332,0.634,3.918,2.188,4.752,4.666c0.287,0.894,0.434,1.931,0.434,3.111V127.113L141.535,127.113z M125.547,122.793
			c-1.729,0-2.593,0.864-2.593,2.594v1.729c0,0.662,0.194,1.188,0.583,1.576c0.39,0.39,0.915,0.584,1.578,0.584h6.48
			c0.661,0,1.188-0.194,1.577-0.584c0.39-0.389,0.583-0.914,0.583-1.576v-1.729c0-1.729-0.863-2.594-2.593-2.594H125.547z
			 M126.411,110.262c-1.729,0-2.593,0.864-2.593,2.594v1.295c0,1.729,0.863,2.595,2.593,2.595h3.89c1.729,0,2.592-0.864,2.592-2.595
			v-1.295c0-1.729-0.863-2.594-2.592-2.594H126.411z"/>
	</g>
	<rect x="23" y="86" fill="#E11A8E" width="127" height="7"/>
</g>
</svg>
