<?xml version="1.0" encoding="utf-8"?>
<!-- Generator: Adobe Illustrator 16.0.0, SVG Export Plug-In . SVG Version: 6.00 Build 0)  -->
<!DOCTYPE svg PUBLIC "-//W3C//DTD SVG 1.1//EN" "http://www.w3.org/Graphics/SVG/1.1/DTD/svg11.dtd">
<svg version="1.1" id="레이어_1" xmlns="http://www.w3.org/2000/svg" xmlns:xlink="http://www.w3.org/1999/xlink" x="0px"
	 y="0px" width="178.184px" height="178.184px" viewBox="0 0 178.184 178.184" enable-background="new 0 0 178.184 178.184"
	 xml:space="preserve">
<g>
	<circle fill="#F08DC7" cx="89.092" cy="89.091" r="89.092"/>
	<g>
		<g>
			<path fill="#FFFFFF" d="M46.644,39.431c3.025,0,5.221,0.684,6.589,2.052s2.053,3.565,2.053,6.59v0.864
				c0,2.449-1.038,4.566-3.112,6.352c-0.634,0.547-1.325,1.095-2.074,1.642l-9.291,6.698h14.476v6.049H31.952v-8.21l15.556-11.234
				v-2.16c0-1.729-0.865-2.593-2.593-2.593h-12.1v-6.049H46.644 M46.644,36.431H32.816h-3v3v6.049v3h3h11.692v0.219L30.196,59.036
				l-1.244,0.898v1.534v8.21v3h3h23.334h3v-3v-6.049v-3h-3h-5.185l1.754-1.265c0.818-0.597,1.58-1.2,2.279-1.804
				c2.715-2.338,4.152-5.321,4.152-8.624v-0.864c0-3.835-0.986-6.766-2.932-8.711C53.41,37.417,50.479,36.431,46.644,36.431
				L46.644,36.431z"/>
			<path fill="#FFFFFF" d="M75.163,38.999c3.025,0,5.221,0.685,6.59,2.052c1.368,1.369,2.052,3.565,2.052,6.59v13.827
				c0,3.025-0.684,5.222-2.052,6.59c-1.369,1.369-3.565,2.052-6.59,2.052h-8.21c-3.025,0-5.221-0.684-6.59-2.052
				c-1.368-1.368-2.052-3.565-2.052-6.59V47.641c0-3.024,0.684-5.221,2.052-6.59c1.369-1.368,3.565-2.052,6.59-2.052H75.163
				 M68.681,64.061h4.753c1.729,0,2.593-0.864,2.593-2.593V47.641c0-1.728-0.864-2.592-2.593-2.592h-4.753
				c-1.729,0-2.593,0.864-2.593,2.592v13.827C66.088,63.196,66.953,64.061,68.681,64.061 M75.163,35.999h-8.21
				c-3.834,0-6.765,0.986-8.71,2.93c-1.946,1.947-2.932,4.878-2.932,8.712v13.827c0,3.836,0.986,6.767,2.931,8.712
				c1.945,1.944,4.875,2.931,8.711,2.931h8.21c3.835,0,6.766-0.986,8.711-2.931c1.945-1.945,2.932-4.876,2.932-8.712V47.641
				c0-3.834-0.986-6.765-2.931-8.71C81.927,36.984,78.997,35.999,75.163,35.999L75.163,35.999z M69.088,48.048h3.938v13.012h-3.938
				V48.048L69.088,48.048z"/>
			<path fill="#FFFFFF" d="M104.114,38.999c3.024,0,5.221,0.685,6.59,2.052c1.367,1.369,2.052,3.565,2.052,6.59v13.827
				c0,3.025-0.685,5.222-2.052,6.59c-1.369,1.369-3.565,2.052-6.59,2.052h-8.21c-3.024,0-5.222-0.684-6.59-2.052
				c-1.368-1.368-2.053-3.565-2.053-6.59V47.641c0-3.024,0.685-5.221,2.053-6.59c1.368-1.368,3.565-2.052,6.59-2.052H104.114
				 M97.632,64.061h4.753c1.729,0,2.593-0.864,2.593-2.593V47.641c0-1.728-0.864-2.592-2.593-2.592h-4.753
				c-1.729,0-2.593,0.864-2.593,2.592v13.827C95.04,63.196,95.904,64.061,97.632,64.061 M104.114,35.999h-8.21
				c-3.835,0-6.766,0.986-8.711,2.931c-1.945,1.947-2.932,4.877-2.932,8.711v13.827c0,3.835,0.986,6.767,2.932,8.712
				c1.943,1.944,4.875,2.931,8.711,2.931h8.21c3.835,0,6.766-0.986,8.711-2.931c1.945-1.946,2.931-4.877,2.931-8.712V47.641
				c0-3.833-0.985-6.763-2.929-8.709C110.877,36.984,107.947,35.999,104.114,35.999L104.114,35.999z M98.04,48.048h3.938v13.012
				H98.04V48.048L98.04,48.048z"/>
			<path fill="#FFFFFF" d="M134.362,39.431h0.005 M134.362,39.431l-10.371,18.148h7.346v-6.481h7.778v6.481h3.024v6.05h-3.024v6.049
				h-7.778v-6.049h-15.988v-6.05l10.371-18.148H134.362 M139.532,36.431h-5.17h-8.643h-1.741l-0.863,1.512l-10.371,18.148
				l-0.396,0.691v0.797v6.05v3h3h12.988v3.049v3h3h7.778h3v-3v-3.049h0.024h3v-3v-6.05v-3h-3h-0.024v-3.481v-3h-3h-6.251
				l4.103-7.178L139.532,36.431L139.532,36.431z"/>
			<path fill="#FFFFFF" d="M46.212,104.247c3.024,0,5.221,0.685,6.589,2.053c1.368,1.368,2.053,3.564,2.053,6.59v0.863
				c0,2.449-1.037,4.566-3.111,6.353c-0.634,0.548-1.325,1.095-2.074,1.642l-9.29,6.697h14.476v6.051H31.52v-8.211l15.556-11.234
				v-2.16c0-1.729-0.864-2.593-2.593-2.593h-12.1v-6.05H46.212 M46.212,101.247H32.384h-3v3v6.05v3h3h11.692v0.219l-14.313,10.337
				l-1.244,0.898v1.533v8.211v3h3h23.334h3v-3v-6.051v-3h-3h-5.185l1.753-1.264c0.817-0.596,1.58-1.199,2.28-1.804
				c2.715-2.339,4.151-5.321,4.151-8.624v-0.863c0-3.834-0.986-6.765-2.931-8.711C52.976,102.233,50.045,101.247,46.212,101.247
				L46.212,101.247z"/>
			<path fill="#FFFFFF" d="M74.731,103.814c3.024,0,5.221,0.685,6.59,2.053c1.368,1.368,2.052,3.565,2.052,6.59v13.827
				c0,3.025-0.685,5.223-2.052,6.59c-1.369,1.369-3.565,2.053-6.59,2.053h-8.21c-3.025,0-5.221-0.684-6.589-2.053
				c-1.369-1.367-2.052-3.564-2.052-6.59v-13.827c0-3.024,0.684-5.222,2.052-6.59c1.368-1.368,3.564-2.053,6.589-2.053H74.731
				 M68.25,128.877h4.753c1.729,0,2.593-0.864,2.593-2.593v-13.827c0-1.729-0.864-2.593-2.593-2.593H68.25
				c-1.729,0-2.593,0.864-2.593,2.593v13.827C65.657,128.013,66.521,128.877,68.25,128.877 M74.731,100.814h-8.21
				c-3.835,0-6.766,0.986-8.71,2.932c-1.945,1.944-2.931,4.876-2.931,8.711v13.827c0,3.837,0.986,6.768,2.932,8.712
				c1.942,1.944,4.874,2.931,8.71,2.931h8.21c3.835,0,6.767-0.986,8.711-2.932c1.945-1.944,2.932-4.875,2.932-8.711v-13.827
				c0-3.834-0.986-6.765-2.931-8.71C81.496,101.8,78.565,100.814,74.731,100.814L74.731,100.814z M68.657,112.864h3.938v13.013
				h-3.938V112.864L68.657,112.864z"/>
			<path fill="#FFFFFF" d="M103.682,103.814c3.024,0,5.221,0.685,6.59,2.053c1.367,1.368,2.052,3.565,2.052,6.59v13.827
				c0,3.025-0.685,5.223-2.052,6.59c-1.369,1.369-3.565,2.053-6.59,2.053h-8.21c-3.025,0-5.222-0.684-6.59-2.053
				c-1.369-1.367-2.053-3.564-2.053-6.59v-13.827c0-3.024,0.684-5.222,2.053-6.59c1.368-1.368,3.564-2.053,6.59-2.053H103.682
				 M97.2,128.877h4.754c1.729,0,2.593-0.864,2.593-2.593v-13.827c0-1.729-0.864-2.593-2.593-2.593H97.2
				c-1.728,0-2.592,0.864-2.592,2.593v13.827C94.608,128.013,95.472,128.877,97.2,128.877 M103.682,100.814h-8.21
				c-3.835,0-6.766,0.986-8.711,2.932c-1.945,1.944-2.932,4.875-2.932,8.711v13.827c0,3.838,0.987,6.769,2.933,8.713
				c1.942,1.943,4.873,2.93,8.71,2.93h8.21c3.836,0,6.767-0.986,8.711-2.932c1.945-1.945,2.931-4.875,2.931-8.711v-13.827
				c0-3.834-0.985-6.765-2.93-8.71C110.447,101.8,107.516,100.814,103.682,100.814L103.682,100.814z M97.608,112.864h3.938v13.013
				h-3.938V112.864L97.608,112.864z"/>
			<path fill="#FFFFFF" d="M132.633,103.814c2.822,0,4.896,0.642,6.222,1.923c1.325,1.283,1.987,3.234,1.987,5.855v0.432
				c0,1.729-0.396,3.134-1.188,4.214c-0.792,1.08-1.836,1.836-3.132,2.269c2.332,0.634,3.917,2.189,4.752,4.666
				c0.287,0.894,0.433,1.931,0.433,3.111v0.433c0,2.823-0.663,4.897-1.988,6.222c-1.326,1.326-3.399,1.988-6.222,1.988h-9.938
				c-2.824,0-4.897-0.662-6.223-1.988c-1.325-1.324-1.988-3.398-1.988-6.222v-0.433c0-2.188,0.548-4.003,1.643-5.444
				c0.864-1.151,2.045-1.929,3.543-2.333c-1.296-0.433-2.34-1.188-3.133-2.269s-1.188-2.485-1.188-4.214v-0.432
				c0-2.621,0.662-4.572,1.987-5.855c1.324-1.281,3.398-1.923,6.222-1.923H132.633 M126.583,116.347h3.89
				c1.728,0,2.592-0.864,2.592-2.594v-1.296c0-1.729-0.864-2.593-2.592-2.593h-3.89c-1.729,0-2.593,0.864-2.593,2.593v1.296
				C123.991,115.482,124.855,116.347,126.583,116.347 M125.288,128.877h6.481c0.661,0,1.188-0.194,1.577-0.583
				s0.583-0.914,0.583-1.577v-1.729c0-1.729-0.864-2.593-2.593-2.593h-5.617c-1.729,0-2.593,0.864-2.593,2.593v1.729
				c0,0.663,0.194,1.188,0.583,1.577C124.099,128.683,124.625,128.877,125.288,128.877 M132.633,100.814h-8.211
				c-3.615,0-6.41,0.931-8.308,2.768c-1.925,1.862-2.901,4.558-2.901,8.011v0.432c0,2.375,0.596,4.391,1.77,5.989
				c0.072,0.099,0.146,0.194,0.221,0.29c-0.215,0.232-0.419,0.478-0.612,0.735c-1.485,1.955-2.243,4.397-2.243,7.245v0.433
				c0,3.635,0.965,6.442,2.867,8.344c1.901,1.901,4.709,2.866,8.344,2.866h9.938c3.633,0,6.439-0.965,8.342-2.865
				c1.903-1.902,2.868-4.71,2.868-8.345v-0.433c0-1.483-0.194-2.839-0.576-4.029c-0.527-1.563-1.295-2.885-2.282-3.947
				c0.076-0.097,0.151-0.195,0.225-0.295c1.174-1.604,1.769-3.617,1.769-5.988v-0.432c0-3.453-0.977-6.148-2.901-8.011
				C139.042,101.745,136.247,100.814,132.633,100.814L132.633,100.814z M126.991,112.864h3.074v0.482h-3.074V112.864
				L126.991,112.864z M126.126,125.396h4.803v0.481h-4.803V125.396L126.126,125.396z"/>
		</g>
		<g>
			<path fill="#E11A8E" d="M55.286,48.937c0,2.449-1.038,4.566-3.112,6.352c-0.634,0.547-1.325,1.095-2.074,1.642l-9.291,6.698
				h14.476v6.049H31.952v-8.21l15.556-11.234v-2.16c0-1.729-0.865-2.593-2.593-2.593h-12.1v-6.049h13.828
				c3.025,0,5.221,0.684,6.589,2.052s2.053,3.565,2.053,6.59V48.937z"/>
			<path fill="#E11A8E" d="M83.805,61.468c0,3.025-0.684,5.222-2.052,6.59c-1.369,1.369-3.565,2.052-6.59,2.052h-8.21
				c-3.025,0-5.221-0.684-6.59-2.052c-1.368-1.368-2.052-3.565-2.052-6.59V47.641c0-3.024,0.684-5.221,2.052-6.59
				c1.369-1.368,3.565-2.052,6.59-2.052h8.21c3.025,0,5.221,0.685,6.59,2.052c1.368,1.369,2.052,3.565,2.052,6.59V61.468z
				 M76.027,47.641c0-1.728-0.864-2.592-2.593-2.592h-4.753c-1.729,0-2.593,0.864-2.593,2.592v13.827
				c0,1.729,0.864,2.593,2.593,2.593h4.753c1.729,0,2.593-0.864,2.593-2.593V47.641z"/>
			<path fill="#E11A8E" d="M112.755,61.468c0,3.025-0.685,5.222-2.052,6.59c-1.369,1.369-3.565,2.052-6.59,2.052h-8.21
				c-3.024,0-5.222-0.684-6.59-2.052c-1.368-1.368-2.053-3.565-2.053-6.59V47.641c0-3.024,0.685-5.221,2.053-6.59
				c1.368-1.368,3.565-2.052,6.59-2.052h8.21c3.024,0,5.221,0.685,6.59,2.052c1.367,1.369,2.052,3.565,2.052,6.59V61.468z
				 M104.978,47.641c0-1.728-0.864-2.592-2.593-2.592h-4.753c-1.729,0-2.593,0.864-2.593,2.592v13.827
				c0,1.729,0.864,2.593,2.593,2.593h4.753c1.729,0,2.593-0.864,2.593-2.593V47.641z"/>
			<path fill="#E11A8E" d="M131.336,63.629h-15.988v-6.05l10.371-18.148h8.643l-10.371,18.148h7.346v-6.481h7.778v6.481h3.024v6.05
				h-3.024v6.049h-7.778V63.629z"/>
			<path fill="#E11A8E" d="M54.854,113.753c0,2.449-1.037,4.566-3.111,6.353c-0.634,0.548-1.325,1.095-2.074,1.642l-9.29,6.697
				h14.476v6.051H31.52v-8.211l15.556-11.234v-2.16c0-1.729-0.864-2.593-2.593-2.593h-12.1v-6.05h13.828
				c3.024,0,5.221,0.685,6.589,2.053c1.368,1.368,2.053,3.564,2.053,6.59V113.753z"/>
			<path fill="#E11A8E" d="M83.373,126.284c0,3.025-0.685,5.223-2.052,6.59c-1.369,1.369-3.565,2.053-6.59,2.053h-8.21
				c-3.025,0-5.221-0.684-6.589-2.053c-1.369-1.367-2.052-3.564-2.052-6.59v-13.827c0-3.024,0.684-5.222,2.052-6.59
				c1.368-1.368,3.564-2.053,6.589-2.053h8.21c3.024,0,5.221,0.685,6.59,2.053c1.368,1.368,2.052,3.565,2.052,6.59V126.284z
				 M75.595,112.457c0-1.729-0.864-2.593-2.593-2.593H68.25c-1.729,0-2.593,0.864-2.593,2.593v13.827
				c0,1.729,0.864,2.593,2.593,2.593h4.753c1.729,0,2.593-0.864,2.593-2.593V112.457z"/>
			<path fill="#E11A8E" d="M112.324,126.284c0,3.025-0.685,5.223-2.052,6.59c-1.369,1.369-3.565,2.053-6.59,2.053h-8.21
				c-3.025,0-5.222-0.684-6.59-2.053c-1.369-1.367-2.053-3.564-2.053-6.59v-13.827c0-3.024,0.684-5.222,2.053-6.59
				c1.368-1.368,3.564-2.053,6.59-2.053h8.21c3.024,0,5.221,0.685,6.59,2.053c1.367,1.368,2.052,3.565,2.052,6.59V126.284z
				 M104.546,112.457c0-1.729-0.864-2.593-2.593-2.593H97.2c-1.728,0-2.592,0.864-2.592,2.593v13.827
				c0,1.729,0.864,2.593,2.592,2.593h4.754c1.729,0,2.593-0.864,2.593-2.593V112.457z"/>
			<path fill="#E11A8E" d="M141.708,126.717c0,2.823-0.663,4.897-1.988,6.222c-1.326,1.326-3.399,1.988-6.222,1.988h-9.938
				c-2.824,0-4.897-0.662-6.223-1.988c-1.325-1.324-1.988-3.398-1.988-6.222v-0.433c0-2.188,0.548-4.003,1.643-5.444
				c0.864-1.151,2.045-1.929,3.543-2.333c-1.296-0.433-2.34-1.188-3.133-2.269s-1.188-2.485-1.188-4.214v-0.432
				c0-2.621,0.662-4.572,1.987-5.855c1.324-1.281,3.398-1.923,6.222-1.923h8.211c2.822,0,4.896,0.642,6.222,1.923
				c1.325,1.283,1.987,3.234,1.987,5.855v0.432c0,1.729-0.396,3.134-1.188,4.214c-0.792,1.08-1.836,1.836-3.132,2.269
				c2.332,0.634,3.917,2.189,4.752,4.666c0.287,0.894,0.433,1.931,0.433,3.111V126.717z M125.719,122.396
				c-1.729,0-2.593,0.864-2.593,2.593v1.729c0,0.663,0.194,1.188,0.583,1.577c0.39,0.389,0.915,0.583,1.578,0.583h6.481
				c0.661,0,1.188-0.194,1.577-0.583s0.583-0.914,0.583-1.577v-1.729c0-1.729-0.864-2.593-2.593-2.593H125.719z M126.583,109.864
				c-1.729,0-2.593,0.864-2.593,2.593v1.296c0,1.729,0.864,2.594,2.593,2.594h3.89c1.728,0,2.592-0.864,2.592-2.594v-1.296
				c0-1.729-0.864-2.593-2.592-2.593H126.583z"/>
		</g>
		<g>
			<rect x="23.172" y="85.603" fill="#E11A8E" width="127" height="7"/>
			<path fill="#FFFFFF" d="M150.172,85.603v7h-127v-7H150.172 M153.172,82.603h-2.5h-127h-3.5v2.5v7v3.5h3.5h127h2.5v-3.5v-7V82.603
				L153.172,82.603z"/>
		</g>
	</g>
</g>
</svg>
