<?xml version="1.0" encoding="utf-8"?>
<!-- Generator: Adobe Illustrator 16.0.0, SVG Export Plug-In . SVG Version: 6.00 Build 0)  -->
<!DOCTYPE svg PUBLIC "-//W3C//DTD SVG 1.1//EN" "http://www.w3.org/Graphics/SVG/1.1/DTD/svg11.dtd">
<svg version="1.1" id="레이어_1" xmlns="http://www.w3.org/2000/svg" xmlns:xlink="http://www.w3.org/1999/xlink" x="0px"
	 y="0px" width="143.086px" height="141.737px" viewBox="0 0 143.086 141.737" enable-background="new 0 0 143.086 141.737"
	 xml:space="preserve">
<ellipse fill="#FFFFFF" cx="676.543" cy="419.868" rx="71.543" ry="70.869"/>
<g>
	<g>
		<path fill="#E11A8E" d="M641.9,407.273V388.44l-3.973,1.382l-1.729-3.974l6.393-2.766h5.529v24.19H641.9z"/>
		<path fill="#E11A8E" d="M652.613,402.263c4.746,0.346,8.087,0.519,10.021,0.519c0.53,0,0.951-0.155,1.262-0.467
			s0.467-0.731,0.467-1.261v-3.111c-2.234,0.462-4.193,0.691-5.875,0.691h-2.419c-1.567,0-2.822-0.472-3.767-1.416
			c-0.945-0.945-1.417-2.2-1.417-3.768v-4.492c0-2.096,0.53-3.656,1.59-4.682s2.718-1.538,4.976-1.538h6.566
			c2.258,0,3.916,0.513,4.977,1.538c1.059,1.025,1.59,2.586,1.59,4.682v12.096c0,2.258-0.531,3.916-1.59,4.976
			c-1.061,1.06-2.719,1.59-4.977,1.59c-3.156,0-6.958-0.23-11.404-0.691V402.263z M660.217,393.796c1.313,0,2.695-0.115,4.146-0.346
			v-3.801c0-1.383-0.691-2.073-2.074-2.073h-3.109c-1.383,0-2.074,0.69-2.074,2.073v2.938c0,0.346,0.115,0.634,0.346,0.863
			c0.23,0.23,0.52,0.346,0.864,0.346H660.217z"/>
		<path fill="#E11A8E" d="M674.385,402.263c4.745,0.346,8.086,0.519,10.021,0.519c0.529,0,0.949-0.155,1.261-0.467
			s0.467-0.731,0.467-1.261v-3.111c-2.235,0.462-4.193,0.691-5.875,0.691h-2.419c-1.566,0-2.822-0.472-3.767-1.416
			c-0.944-0.945-1.417-2.2-1.417-3.768v-4.492c0-2.096,0.529-3.656,1.59-4.682c1.06-1.025,2.719-1.538,4.977-1.538h6.565
			c2.257,0,3.916,0.513,4.976,1.538c1.061,1.025,1.59,2.586,1.59,4.682v12.096c0,2.258-0.529,3.916-1.59,4.976
			c-1.06,1.06-2.719,1.59-4.976,1.59c-3.157,0-6.958-0.23-11.403-0.691V402.263z M681.986,393.796c1.313,0,2.695-0.115,4.147-0.346
			v-3.801c0-1.383-0.691-2.073-2.073-2.073h-3.11c-1.382,0-2.073,0.69-2.073,2.073v2.938c0,0.346,0.115,0.634,0.346,0.863
			c0.229,0.23,0.518,0.346,0.863,0.346H681.986z"/>
		<path fill="#E11A8E" d="M707.213,407.619c-3.848,0-8.109-0.23-12.787-0.691v-4.665c5.092,0.346,8.893,0.519,11.404,0.519
			c0.529,0,0.951-0.155,1.262-0.467s0.467-0.731,0.467-1.261v-1.383c0-1.383-0.691-2.073-2.074-2.073h-7.257v-4.838h6.565
			c1.383,0,2.074-0.691,2.074-2.073v-0.691c0-1.383-0.691-2.074-2.074-2.074h-10.021v-4.838h11.75c2.258,0,3.916,0.514,4.977,1.539
			c1.059,1.025,1.59,2.586,1.59,4.682c0,1.383-0.318,2.506-0.951,3.369c-0.634,0.864-1.469,1.469-2.506,1.814
			c1.867,0.508,3.133,1.751,3.802,3.732c0.229,0.715,0.346,1.543,0.346,2.488v0.346c0,2.258-0.53,3.916-1.59,4.976
			S709.471,407.619,707.213,407.619z"/>
		<path fill="#E11A8E" d="M641.9,459.108v-18.834l-3.973,1.383l-1.729-3.975l6.393-2.764h5.529v24.189H641.9z"/>
		<path fill="#E11A8E" d="M652.613,454.098c4.746,0.346,8.087,0.519,10.021,0.519c0.53,0,0.951-0.156,1.262-0.467
			s0.467-0.73,0.467-1.262v-3.109c-2.234,0.461-4.193,0.691-5.875,0.691h-2.419c-1.567,0-2.822-0.473-3.767-1.418
			c-0.945-0.943-1.417-2.199-1.417-3.766v-4.492c0-2.097,0.53-3.658,1.59-4.684c1.06-1.024,2.718-1.537,4.976-1.537h6.566
			c2.258,0,3.916,0.513,4.977,1.537c1.059,1.025,1.59,2.587,1.59,4.684v12.094c0,2.259-0.531,3.918-1.59,4.977
			c-1.061,1.061-2.719,1.59-4.977,1.59c-3.156,0-6.958-0.23-11.404-0.691V454.098z M660.217,445.632
			c1.313,0,2.695-0.115,4.146-0.346v-3.802c0-1.382-0.691-2.073-2.074-2.073h-3.109c-1.383,0-2.074,0.691-2.074,2.073v2.938
			c0,0.345,0.115,0.634,0.346,0.864s0.52,0.346,0.864,0.346H660.217z"/>
		<path fill="#E11A8E" d="M674.385,454.098c4.745,0.346,8.086,0.519,10.021,0.519c0.529,0,0.949-0.156,1.261-0.467
			s0.467-0.73,0.467-1.262v-3.109c-2.235,0.461-4.193,0.691-5.875,0.691h-2.419c-1.566,0-2.822-0.473-3.767-1.418
			c-0.944-0.943-1.417-2.199-1.417-3.766v-4.492c0-2.097,0.529-3.658,1.59-4.684c1.06-1.024,2.719-1.537,4.977-1.537h6.565
			c2.257,0,3.916,0.513,4.976,1.537c1.061,1.025,1.59,2.587,1.59,4.684v12.094c0,2.259-0.529,3.918-1.59,4.977
			c-1.06,1.061-2.719,1.59-4.976,1.59c-3.157,0-6.958-0.23-11.403-0.691V454.098z M681.986,445.632c1.313,0,2.695-0.115,4.147-0.346
			v-3.802c0-1.382-0.691-2.073-2.073-2.073h-3.11c-1.382,0-2.073,0.691-2.073,2.073v2.938c0,0.345,0.115,0.634,0.346,0.864
			c0.229,0.23,0.518,0.346,0.863,0.346H681.986z"/>
		<path fill="#E11A8E" d="M715.852,452.888c0,2.259-0.53,3.918-1.59,4.977c-1.06,1.061-2.719,1.59-4.976,1.59h-7.948
			c-2.258,0-3.917-0.529-4.977-1.59c-1.06-1.059-1.59-2.718-1.59-4.977v-0.346c0-1.75,0.438-3.201,1.314-4.354
			c0.69-0.922,1.635-1.543,2.833-1.866c-1.036-0.345-1.872-0.95-2.505-1.813c-0.635-0.865-0.951-1.988-0.951-3.37v-0.345
			c0-2.097,0.529-3.658,1.59-4.684c1.06-1.024,2.719-1.537,4.977-1.537h6.565c2.258,0,3.917,0.513,4.976,1.537
			c1.061,1.025,1.59,2.587,1.59,4.684v0.345c0,1.382-0.316,2.505-0.949,3.37c-0.635,0.863-1.469,1.469-2.506,1.813
			c1.865,0.507,3.133,1.751,3.801,3.732c0.23,0.714,0.346,1.544,0.346,2.487V452.888z M703.066,449.433
			c-1.383,0-2.074,0.691-2.074,2.073v1.382c0,0.531,0.156,0.951,0.467,1.262s0.73,0.467,1.262,0.467h5.184
			c0.529,0,0.949-0.156,1.261-0.467s0.466-0.73,0.466-1.262v-1.382c0-1.382-0.69-2.073-2.072-2.073H703.066z M703.757,439.411
			c-1.382,0-2.073,0.691-2.073,2.073v1.036c0,1.383,0.691,2.074,2.073,2.074h3.11c1.382,0,2.073-0.691,2.073-2.074v-1.036
			c0-1.382-0.691-2.073-2.073-2.073H703.757z"/>
	</g>
	<rect x="625.557" y="418.249" fill="#E11A8E" width="101" height="6"/>
</g>
<ellipse fill="#FFFFFF" cx="71.543" cy="70.869" rx="71.543" ry="70.869"/>
<g>
	<g>
		<path fill="#E11A8E" d="M36.901,58.273V39.44l-3.974,1.382l-1.728-3.974l6.393-2.765h5.529v24.19H36.901z"/>
		<path fill="#E11A8E" d="M47.614,53.263c4.746,0.346,8.086,0.519,10.021,0.519c0.53,0,0.95-0.156,1.261-0.467
			s0.467-0.731,0.467-1.261v-3.11c-2.235,0.461-4.193,0.691-5.875,0.691h-2.419c-1.567,0-2.822-0.472-3.767-1.417
			c-0.945-0.944-1.417-2.2-1.417-3.767v-4.492c0-2.096,0.53-3.657,1.59-4.683c1.06-1.025,2.718-1.538,4.976-1.538h6.566
			c2.257,0,3.916,0.513,4.976,1.538c1.06,1.025,1.59,2.586,1.59,4.683v12.095c0,2.258-0.53,3.917-1.59,4.976
			c-1.06,1.06-2.719,1.59-4.976,1.59c-3.157,0-6.958-0.23-11.404-0.691V53.263z M55.216,44.796c1.313,0,2.695-0.115,4.147-0.346
			v-3.801c0-1.382-0.691-2.073-2.074-2.073h-3.11c-1.382,0-2.074,0.691-2.074,2.073v2.938c0,0.345,0.115,0.634,0.346,0.864
			c0.23,0.23,0.519,0.346,0.864,0.346H55.216z"/>
		<path fill="#E11A8E" d="M69.384,53.263c4.746,0.346,8.086,0.519,10.022,0.519c0.529,0,0.949-0.156,1.261-0.467
			s0.467-0.731,0.467-1.261v-3.11c-2.235,0.461-4.193,0.691-5.875,0.691H72.84c-1.566,0-2.822-0.472-3.767-1.417
			c-0.945-0.944-1.417-2.2-1.417-3.767v-4.492c0-2.096,0.53-3.657,1.59-4.683c1.06-1.025,2.719-1.538,4.977-1.538h6.565
			c2.257,0,3.916,0.513,4.976,1.538c1.061,1.025,1.59,2.586,1.59,4.683v12.095c0,2.258-0.529,3.917-1.59,4.976
			c-1.06,1.06-2.719,1.59-4.976,1.59c-3.157,0-6.958-0.23-11.404-0.691V53.263z M76.986,44.796c1.313,0,2.695-0.115,4.147-0.346
			v-3.801c0-1.382-0.691-2.073-2.073-2.073h-3.11c-1.382,0-2.073,0.691-2.073,2.073v2.938c0,0.345,0.115,0.634,0.346,0.864
			c0.229,0.23,0.518,0.346,0.863,0.346H76.986z"/>
		<path fill="#E11A8E" d="M102.213,58.619c-3.848,0-8.109-0.23-12.787-0.691v-4.665c5.092,0.346,8.893,0.519,11.404,0.519
			c0.529,0,0.951-0.156,1.262-0.467s0.467-0.731,0.467-1.261v-1.382c0-1.382-0.691-2.073-2.074-2.073h-7.257V43.76h6.565
			c1.383,0,2.074-0.691,2.074-2.074v-0.691c0-1.382-0.691-2.074-2.074-2.074H89.771v-4.838h11.75c2.258,0,3.916,0.513,4.977,1.538
			c1.059,1.025,1.59,2.586,1.59,4.682c0,1.382-0.318,2.505-0.951,3.37c-0.634,0.864-1.469,1.469-2.506,1.814
			c1.867,0.507,3.133,1.751,3.802,3.732c0.229,0.714,0.346,1.543,0.346,2.488v0.346c0,2.258-0.53,3.917-1.59,4.976
			C106.129,58.089,104.471,58.619,102.213,58.619z"/>
		<path fill="#E11A8E" d="M36.901,110.108V91.274l-3.974,1.383l-1.728-3.975l6.393-2.764h5.529v24.189H36.901z"/>
		<path fill="#E11A8E" d="M47.614,105.098c4.746,0.346,8.086,0.519,10.021,0.519c0.53,0,0.95-0.156,1.261-0.467
			s0.467-0.73,0.467-1.262v-3.109c-2.235,0.461-4.193,0.691-5.875,0.691h-2.419c-1.567,0-2.822-0.473-3.767-1.418
			c-0.945-0.943-1.417-2.199-1.417-3.766v-4.492c0-2.097,0.53-3.658,1.59-4.684c1.06-1.024,2.718-1.537,4.976-1.537h6.566
			c2.257,0,3.916,0.513,4.976,1.537c1.06,1.025,1.59,2.587,1.59,4.684v12.094c0,2.259-0.53,3.918-1.59,4.977
			c-1.06,1.061-2.719,1.59-4.976,1.59c-3.157,0-6.958-0.23-11.404-0.691V105.098z M55.216,96.632c1.313,0,2.695-0.115,4.147-0.346
			v-3.802c0-1.382-0.691-2.073-2.074-2.073h-3.11c-1.382,0-2.074,0.691-2.074,2.073v2.938c0,0.345,0.115,0.634,0.346,0.864
			c0.23,0.23,0.519,0.346,0.864,0.346H55.216z"/>
		<path fill="#E11A8E" d="M69.384,105.098c4.746,0.346,8.086,0.519,10.022,0.519c0.529,0,0.949-0.156,1.261-0.467
			s0.467-0.73,0.467-1.262v-3.109c-2.235,0.461-4.193,0.691-5.875,0.691H72.84c-1.566,0-2.822-0.473-3.767-1.418
			c-0.945-0.943-1.417-2.199-1.417-3.766v-4.492c0-2.097,0.53-3.658,1.59-4.684c1.06-1.024,2.719-1.537,4.977-1.537h6.565
			c2.257,0,3.916,0.513,4.976,1.537c1.061,1.025,1.59,2.587,1.59,4.684v12.094c0,2.259-0.529,3.918-1.59,4.977
			c-1.06,1.061-2.719,1.59-4.976,1.59c-3.157,0-6.958-0.23-11.404-0.691V105.098z M76.986,96.632c1.313,0,2.695-0.115,4.147-0.346
			v-3.802c0-1.382-0.691-2.073-2.073-2.073h-3.11c-1.382,0-2.073,0.691-2.073,2.073v2.938c0,0.345,0.115,0.634,0.346,0.864
			c0.229,0.23,0.518,0.346,0.863,0.346H76.986z"/>
		<path fill="#E11A8E" d="M110.852,103.888c0,2.259-0.53,3.918-1.59,4.977c-1.06,1.061-2.719,1.59-4.976,1.59h-7.948
			c-2.258,0-3.917-0.529-4.977-1.59c-1.06-1.059-1.59-2.718-1.59-4.977v-0.346c0-1.75,0.438-3.201,1.314-4.354
			c0.69-0.922,1.635-1.543,2.833-1.866c-1.036-0.345-1.872-0.95-2.505-1.813c-0.635-0.865-0.951-1.988-0.951-3.37v-0.345
			c0-2.097,0.529-3.658,1.59-4.684c1.06-1.024,2.719-1.537,4.977-1.537h6.565c2.258,0,3.917,0.513,4.976,1.537
			c1.061,1.025,1.59,2.587,1.59,4.684v0.345c0,1.382-0.316,2.505-0.949,3.37c-0.635,0.863-1.469,1.469-2.506,1.813
			c1.865,0.507,3.133,1.751,3.801,3.732c0.23,0.714,0.346,1.544,0.346,2.487V103.888z M98.066,100.433
			c-1.383,0-2.074,0.691-2.074,2.073v1.382c0,0.531,0.156,0.951,0.467,1.262s0.73,0.467,1.262,0.467h5.184
			c0.529,0,0.949-0.156,1.261-0.467s0.466-0.73,0.466-1.262v-1.382c0-1.382-0.69-2.073-2.072-2.073H98.066z M98.757,90.411
			c-1.382,0-2.073,0.691-2.073,2.073v1.036c0,1.383,0.691,2.074,2.073,2.074h3.11c1.382,0,2.073-0.691,2.073-2.074v-1.036
			c0-1.382-0.691-2.073-2.073-2.073H98.757z"/>
	</g>
	<rect x="20.557" y="69.249" fill="#E11A8E" width="101" height="6"/>
</g>
</svg>
