<?xml version="1.0" encoding="utf-8"?>
<!-- Generator: Adobe Illustrator 16.0.0, SVG Export Plug-In . SVG Version: 6.00 Build 0)  -->
<!DOCTYPE svg PUBLIC "-//W3C//DTD SVG 1.1//EN" "http://www.w3.org/Graphics/SVG/1.1/DTD/svg11.dtd">
<svg version="1.1" id="레이어_1" xmlns="http://www.w3.org/2000/svg" xmlns:xlink="http://www.w3.org/1999/xlink" x="0px"
	 y="0px" width="199.727px" height="199.728px" viewBox="0 0 199.727 199.728" enable-background="new 0 0 199.727 199.728"
	 xml:space="preserve">
<g>
	<circle fill="#FFFFFF" cx="99.864" cy="99.864" r="99.864"/>
	<g>
		<g>
			<path fill="#E11A8E" d="M49.763,80.146V53.209l-5.684,1.977l-2.471-5.684l9.144-3.954h7.908v34.598H49.763z"/>
			<path fill="#E11A8E" d="M65.085,72.979c6.788,0.494,11.565,0.742,14.333,0.742c0.757,0,1.359-0.223,1.804-0.668
				s0.667-1.045,0.667-1.804v-4.448c-3.196,0.659-5.998,0.988-8.402,0.988h-3.46c-2.241,0-4.037-0.675-5.387-2.026
				c-1.352-1.351-2.027-3.146-2.027-5.388V53.95c0-2.998,0.758-5.23,2.274-6.697c1.515-1.466,3.888-2.199,7.117-2.199h9.391
				c3.229,0,5.601,0.733,7.117,2.199c1.515,1.467,2.273,3.699,2.273,6.697v17.3c0,3.229-0.758,5.603-2.273,7.117
				c-1.516,1.517-3.889,2.273-7.117,2.273c-4.515,0-9.952-0.329-16.311-0.988V72.979z M75.958,60.87
				c1.878,0,3.855-0.164,5.931-0.494v-5.437c0-1.978-0.989-2.966-2.966-2.966h-4.448c-1.977,0-2.965,0.988-2.965,2.966v4.201
				c0,0.494,0.165,0.907,0.494,1.235c0.329,0.33,0.741,0.494,1.236,0.494H75.958z"/>
			<path fill="#E11A8E" d="M96.223,72.979c6.788,0.494,11.565,0.742,14.333,0.742c0.757,0,1.358-0.223,1.804-0.668
				s0.668-1.045,0.668-1.804v-4.448c-3.197,0.659-5.998,0.988-8.402,0.988h-3.461c-2.241,0-4.036-0.675-5.387-2.026
				c-1.352-1.351-2.027-3.146-2.027-5.388V53.95c0-2.998,0.758-5.23,2.274-6.697c1.515-1.466,3.888-2.199,7.117-2.199h9.392
				c3.229,0,5.601,0.733,7.117,2.199c1.515,1.467,2.273,3.699,2.273,6.697v17.3c0,3.229-0.759,5.603-2.273,7.117
				c-1.517,1.517-3.889,2.273-7.117,2.273c-4.516,0-9.952-0.329-16.311-0.988V72.979z M107.096,60.87
				c1.878,0,3.855-0.164,5.932-0.494v-5.437c0-1.978-0.989-2.966-2.967-2.966h-4.447c-1.978,0-2.966,0.988-2.966,2.966v4.201
				c0,0.494,0.165,0.907,0.494,1.235c0.329,0.33,0.741,0.494,1.235,0.494H107.096z"/>
			<path fill="#E11A8E" d="M127.36,72.979c6.788,0.494,11.566,0.742,14.334,0.742c0.758,0,1.359-0.223,1.804-0.668
				s0.667-1.045,0.667-1.804v-4.448c-3.195,0.659-5.997,0.988-8.402,0.988h-3.459c-2.242,0-4.037-0.675-5.388-2.026
				c-1.352-1.351-2.026-3.146-2.026-5.388V53.95c0-2.998,0.758-5.23,2.273-6.697c1.516-1.466,3.888-2.199,7.117-2.199h9.391
				c3.229,0,5.602,0.733,7.117,2.199c1.516,1.467,2.273,3.699,2.273,6.697v17.3c0,3.229-0.758,5.603-2.273,7.117
				c-1.516,1.517-3.889,2.273-7.117,2.273c-4.515,0-9.951-0.329-16.311-0.988V72.979z M138.234,60.87
				c1.878,0,3.854-0.164,5.931-0.494v-5.437c0-1.978-0.988-2.966-2.965-2.966h-4.449c-1.977,0-2.965,0.988-2.965,2.966v4.201
				c0,0.494,0.164,0.907,0.494,1.235c0.329,0.33,0.741,0.494,1.236,0.494H138.234z"/>
			<path fill="#E11A8E" d="M63.231,130.56c0,2.802-1.186,5.223-3.559,7.266c-0.725,0.627-1.516,1.253-2.372,1.878l-10.627,7.661
				h16.558v6.92h-26.69v-9.391l17.793-12.851v-2.472c0-1.978-0.988-2.966-2.965-2.966H37.53v-6.919h15.816
				c3.459,0,5.972,0.782,7.537,2.348c1.565,1.565,2.348,4.077,2.348,7.537V130.56z"/>
			<path fill="#E11A8E" d="M95.852,144.894c0,3.46-0.783,5.973-2.348,7.537c-1.565,1.565-4.078,2.348-7.538,2.348h-9.391
				c-3.46,0-5.973-0.782-7.538-2.348c-1.565-1.564-2.348-4.077-2.348-7.537v-15.816c0-3.46,0.782-5.972,2.348-7.537
				c1.564-1.565,4.078-2.349,7.538-2.349h9.391c3.46,0,5.972,0.783,7.538,2.349c1.564,1.565,2.348,4.077,2.348,7.537V144.894z
				 M86.956,129.078c0-1.978-0.989-2.966-2.966-2.966h-5.437c-1.977,0-2.966,0.988-2.966,2.966v15.816
				c0,1.977,0.989,2.965,2.966,2.965h5.437c1.977,0,2.966-0.988,2.966-2.965V129.078z"/>
			<path fill="#E11A8E" d="M128.967,144.894c0,3.46-0.783,5.973-2.348,7.537c-1.565,1.565-4.078,2.348-7.537,2.348h-9.391
				c-3.461,0-5.974-0.782-7.538-2.348c-1.565-1.564-2.348-4.077-2.348-7.537v-15.816c0-3.46,0.782-5.972,2.348-7.537
				c1.564-1.565,4.077-2.349,7.538-2.349h9.391c3.459,0,5.972,0.783,7.537,2.349c1.564,1.565,2.348,4.077,2.348,7.537V144.894z
				 M120.071,129.078c0-1.978-0.988-2.966-2.966-2.966h-5.437c-1.977,0-2.966,0.988-2.966,2.966v15.816
				c0,1.977,0.989,2.965,2.966,2.965h5.437c1.978,0,2.966-0.988,2.966-2.965V129.078z"/>
			<path fill="#E11A8E" d="M150.22,154.779c-5.503,0-11.599-0.33-18.288-0.988v-6.673c7.283,0.494,12.719,0.741,16.311,0.741
				c0.758,0,1.359-0.222,1.805-0.667c0.445-0.444,0.668-1.046,0.668-1.804v-1.978c0-1.977-0.989-2.965-2.967-2.965H137.37v-6.92
				h9.391c1.978,0,2.966-0.988,2.966-2.966v-0.988c0-1.978-0.988-2.966-2.966-2.966h-14.333v-6.919h16.805
				c3.229,0,5.601,0.733,7.117,2.199c1.515,1.467,2.273,3.699,2.273,6.697c0,1.977-0.453,3.583-1.358,4.818
				c-0.907,1.236-2.102,2.101-3.584,2.596c2.669,0.725,4.48,2.504,5.438,5.338c0.328,1.021,0.494,2.208,0.494,3.559v0.494
				c0,3.229-0.759,5.602-2.273,7.117C155.822,154.021,153.45,154.779,150.22,154.779z"/>
		</g>
		<rect x="27.655" y="96.979" fill="#E11A8E" width="144" height="8"/>
	</g>
</g>
</svg>
