<?xml version="1.0" encoding="utf-8"?>
<!-- Generator: Adobe Illustrator 16.0.0, SVG Export Plug-In . SVG Version: 6.00 Build 0)  -->
<!DOCTYPE svg PUBLIC "-//W3C//DTD SVG 1.1//EN" "http://www.w3.org/Graphics/SVG/1.1/DTD/svg11.dtd">
<svg version="1.1" id="레이어_1" xmlns="http://www.w3.org/2000/svg" xmlns:xlink="http://www.w3.org/1999/xlink" x="0px"
	 y="0px" width="143px" height="143px" viewBox="0 0 143 143" enable-background="new 0 0 143 143" xml:space="preserve">
<g>
	<circle fill="#FFFFFF" cx="71.5" cy="71.5" r="71.5"/>
	<g>
		<g>
			<path fill="#E11A8E" d="M36.878,58.793V39.792l-3.971,1.395l-1.727-4.01l6.389-2.789h5.526v24.405H36.878z"/>
			<path fill="#E11A8E" d="M47.585,53.738c4.743,0.349,8.082,0.523,10.016,0.523c0.529,0,0.949-0.157,1.26-0.471
				c0.311-0.313,0.467-0.737,0.467-1.272v-3.138c-2.234,0.466-4.191,0.698-5.872,0.698h-2.417c-1.566,0-2.821-0.477-3.764-1.43
				c-0.944-0.953-1.417-2.219-1.417-3.8v-4.532c0-2.115,0.53-3.689,1.589-4.724c1.059-1.034,2.717-1.551,4.973-1.551h6.562
				c2.256,0,3.914,0.517,4.973,1.551c1.059,1.035,1.589,2.609,1.589,4.724v12.203c0,2.279-0.53,3.952-1.589,5.021
				c-1.06,1.069-2.717,1.604-4.973,1.604c-3.155,0-6.954-0.232-11.397-0.698V53.738z M55.183,45.195
				c1.312,0,2.693-0.116,4.145-0.349v-3.835c0-1.395-0.691-2.092-2.073-2.092h-3.108c-1.381,0-2.073,0.697-2.073,2.092v2.964
				c0,0.348,0.115,0.639,0.346,0.871c0.23,0.233,0.519,0.349,0.863,0.349H55.183z"/>
			<path fill="#E11A8E" d="M69.342,53.738c4.742,0.349,8.082,0.523,10.016,0.523c0.529,0,0.949-0.157,1.26-0.471
				c0.312-0.313,0.467-0.737,0.467-1.272v-3.138c-2.233,0.466-4.19,0.698-5.871,0.698h-2.418c-1.565,0-2.82-0.477-3.764-1.43
				c-0.944-0.953-1.417-2.219-1.417-3.8v-4.532c0-2.115,0.53-3.689,1.589-4.724c1.059-1.034,2.717-1.551,4.973-1.551h6.562
				c2.256,0,3.914,0.517,4.974,1.551c1.06,1.035,1.589,2.609,1.589,4.724v12.203c0,2.279-0.529,3.952-1.589,5.021
				c-1.06,1.069-2.718,1.604-4.974,1.604c-3.154,0-6.953-0.232-11.396-0.698V53.738z M76.939,45.195
				c1.313,0,2.693-0.116,4.145-0.349v-3.835c0-1.395-0.69-2.092-2.072-2.092h-3.107c-1.382,0-2.072,0.697-2.072,2.092v2.964
				c0,0.348,0.114,0.639,0.345,0.871c0.229,0.233,0.519,0.349,0.863,0.349H76.939z"/>
			<path fill="#E11A8E" d="M102.15,53.912H89.372v-4.881l8.289-14.643h6.907l-8.289,14.643h5.871v-5.23h6.217v5.23h2.418v4.881
				h-2.418v4.881h-6.217V53.912z"/>
			<path fill="#E11A8E" d="M36.878,111.09V92.088l-3.971,1.395l-1.727-4.01l6.389-2.788h5.526v24.405H36.878z"/>
			<path fill="#E11A8E" d="M47.585,106.035c4.743,0.348,8.082,0.522,10.016,0.522c0.529,0,0.949-0.157,1.26-0.472
				c0.311-0.313,0.467-0.736,0.467-1.271v-3.139c-2.234,0.466-4.191,0.697-5.872,0.697h-2.417c-1.566,0-2.821-0.477-3.764-1.429
				c-0.944-0.953-1.417-2.22-1.417-3.801v-4.532c0-2.115,0.53-3.689,1.589-4.725c1.059-1.033,2.717-1.551,4.973-1.551h6.562
				c2.256,0,3.914,0.518,4.973,1.551c1.059,1.035,1.589,2.609,1.589,4.725v12.203c0,2.278-0.53,3.951-1.589,5.02
				c-1.06,1.07-2.717,1.604-4.973,1.604c-3.155,0-6.954-0.232-11.397-0.698V106.035z M55.183,97.492
				c1.312,0,2.693-0.115,4.145-0.349v-3.835c0-1.395-0.691-2.092-2.073-2.092h-3.108c-1.381,0-2.073,0.697-2.073,2.092v2.964
				c0,0.349,0.115,0.64,0.346,0.871c0.23,0.233,0.519,0.349,0.863,0.349H55.183z"/>
			<path fill="#E11A8E" d="M69.342,106.035c4.742,0.348,8.082,0.522,10.016,0.522c0.529,0,0.949-0.157,1.26-0.472
				c0.312-0.313,0.467-0.736,0.467-1.271v-3.139c-2.233,0.466-4.19,0.697-5.871,0.697h-2.418c-1.565,0-2.82-0.477-3.764-1.429
				c-0.944-0.953-1.417-2.22-1.417-3.801v-4.532c0-2.115,0.53-3.689,1.589-4.725c1.059-1.033,2.717-1.551,4.973-1.551h6.562
				c2.256,0,3.914,0.518,4.974,1.551c1.06,1.035,1.589,2.609,1.589,4.725v12.203c0,2.278-0.529,3.951-1.589,5.02
				c-1.06,1.07-2.718,1.604-4.974,1.604c-3.154,0-6.953-0.232-11.396-0.698V106.035z M76.939,97.492
				c1.313,0,2.693-0.115,4.145-0.349v-3.835c0-1.395-0.69-2.092-2.072-2.092h-3.107c-1.382,0-2.072,0.697-2.072,2.092v2.964
				c0,0.349,0.114,0.64,0.345,0.871c0.229,0.233,0.519,0.349,0.863,0.349H76.939z"/>
			<path fill="#E11A8E" d="M110.785,104.814c0,2.278-0.53,3.951-1.589,5.02c-1.06,1.07-2.718,1.604-4.974,1.604h-7.943
				c-2.256,0-3.914-0.534-4.973-1.604c-1.06-1.068-1.589-2.741-1.589-5.02v-0.35c0-1.766,0.437-3.229,1.313-4.393
				c0.69-0.93,1.634-1.557,2.832-1.883c-1.036-0.348-1.871-0.959-2.504-1.83c-0.634-0.871-0.95-2.005-0.95-3.4v-0.348
				c0-2.115,0.529-3.689,1.589-4.725c1.06-1.033,2.717-1.551,4.974-1.551h6.562c2.257,0,3.914,0.518,4.974,1.551
				c1.059,1.035,1.588,2.609,1.588,4.725v0.348c0,1.396-0.316,2.529-0.949,3.4c-0.634,0.871-1.468,1.482-2.504,1.83
				c1.865,0.512,3.131,1.768,3.799,3.766c0.23,0.721,0.346,1.558,0.346,2.51V104.814z M98.007,101.328
				c-1.382,0-2.073,0.697-2.073,2.092v1.395c0,0.535,0.156,0.959,0.467,1.271c0.311,0.314,0.73,0.472,1.261,0.472h5.181
				c0.529,0,0.949-0.157,1.26-0.472c0.312-0.313,0.467-0.736,0.467-1.271v-1.395c0-1.395-0.691-2.092-2.072-2.092H98.007z
				 M98.697,91.217c-1.382,0-2.072,0.697-2.072,2.092v1.046c0,1.395,0.69,2.093,2.072,2.093h3.107c1.382,0,2.072-0.698,2.072-2.093
				v-1.046c0-1.395-0.69-2.092-2.072-2.092H98.697z"/>
		</g>
		<rect x="20.113" y="69.498" fill="#E11A8E" width="101" height="7"/>
	</g>
</g>
</svg>
