<?xml version="1.0" encoding="utf-8"?>
<!-- Generator: Adobe Illustrator 16.0.0, SVG Export Plug-In . SVG Version: 6.00 Build 0)  -->
<!DOCTYPE svg PUBLIC "-//W3C//DTD SVG 1.1//EN" "http://www.w3.org/Graphics/SVG/1.1/DTD/svg11.dtd">
<svg version="1.1" id="레이어_1" xmlns="http://www.w3.org/2000/svg" xmlns:xlink="http://www.w3.org/1999/xlink" x="0px"
	 y="0px" width="222.026px" height="222.027px" viewBox="0 0 222.026 222.027" enable-background="new 0 0 222.026 222.027"
	 xml:space="preserve">
<g>
	<circle fill="#FFFFFF" cx="111.013" cy="111.013" r="111.013"/>
	<g>
		<g>
			<path fill="#E11A8E" d="M69.113,67.879c0,3.091-1.325,5.764-3.977,8.019c-0.811,0.691-1.694,1.382-2.651,2.072L50.61,86.425
				h18.503v7.637H39.287V83.697l19.885-14.182v-2.728c0-2.182-1.105-3.273-3.314-3.273H40.392v-7.637h17.675
				c3.867,0,6.674,0.864,8.424,2.592c1.748,1.728,2.623,4.5,2.623,8.318V67.879z"/>
			<path fill="#E11A8E" d="M105.568,83.697c0,3.818-0.876,6.592-2.624,8.318c-1.749,1.728-4.557,2.592-8.423,2.592H84.026
				c-3.866,0-6.675-0.864-8.423-2.592c-1.749-1.727-2.624-4.5-2.624-8.318V66.242c0-3.818,0.875-6.591,2.624-8.318
				c1.748-1.727,4.557-2.591,8.423-2.591h10.495c3.866,0,6.674,0.864,8.423,2.591c1.748,1.728,2.624,4.5,2.624,8.318V83.697z
				 M95.626,66.242c0-2.182-1.104-3.272-3.314-3.272h-6.075c-2.21,0-3.314,1.091-3.314,3.272v17.455
				c0,2.183,1.104,3.273,3.314,3.273h6.075c2.21,0,3.314-1.091,3.314-3.273V66.242z"/>
			<path fill="#E11A8E" d="M142.575,83.697c0,3.818-0.876,6.592-2.624,8.318c-1.749,1.728-4.557,2.592-8.423,2.592h-10.495
				c-3.866,0-6.675-0.864-8.423-2.592c-1.749-1.727-2.624-4.5-2.624-8.318V66.242c0-3.818,0.875-6.591,2.624-8.318
				c1.748-1.727,4.557-2.591,8.423-2.591h10.495c3.866,0,6.674,0.864,8.423,2.591c1.748,1.728,2.624,4.5,2.624,8.318V83.697z
				 M132.633,66.242c0-2.182-1.104-3.272-3.314-3.272h-6.075c-2.21,0-3.314,1.091-3.314,3.272v17.455
				c0,2.183,1.104,3.273,3.314,3.273h6.075c2.21,0,3.314-1.091,3.314-3.273V66.242z"/>
			<path fill="#E11A8E" d="M148.65,86.152c7.585,0.545,12.925,0.818,16.018,0.818c0.847,0,1.52-0.246,2.017-0.736
				c0.497-0.491,0.745-1.154,0.745-1.991v-4.909c-3.571,0.728-6.702,1.091-9.39,1.091h-3.866c-2.504,0-4.511-0.745-6.021-2.236
				s-2.265-3.473-2.265-5.946v-7.091c0-3.309,0.847-5.772,2.541-7.391c1.693-1.618,4.345-2.428,7.954-2.428h10.494
				c3.608,0,6.26,0.81,7.953,2.428s2.541,4.082,2.541,7.391v19.092c0,3.564-0.848,6.183-2.541,7.854
				c-1.693,1.673-4.345,2.51-7.953,2.51c-5.045,0-11.121-0.364-18.228-1.092V86.152z M160.802,72.788c2.1,0,4.309-0.182,6.628-0.546
				v-6c0-2.182-1.104-3.272-3.313-3.272h-4.971c-2.21,0-3.314,1.091-3.314,3.272v4.637c0,0.546,0.184,1.001,0.553,1.363
				c0.367,0.364,0.828,0.546,1.381,0.546H160.802z"/>
			<path fill="#E11A8E" d="M76.984,149.7c0,3.091-1.325,5.764-3.977,8.019c-0.811,0.691-1.694,1.382-2.651,2.072l-11.875,8.455
				h18.503v7.637H47.158v-10.364l19.885-14.182v-2.728c0-2.182-1.105-3.273-3.314-3.273H48.263v-7.637h17.675
				c3.867,0,6.674,0.864,8.424,2.592c1.748,1.728,2.623,4.5,2.623,8.318V149.7z"/>
			<path fill="#E11A8E" d="M113.439,165.519c0,3.818-0.876,6.592-2.624,8.318c-1.749,1.728-4.557,2.592-8.423,2.592H91.897
				c-3.866,0-6.675-0.864-8.423-2.592c-1.749-1.727-2.624-4.5-2.624-8.318v-17.455c0-3.818,0.875-6.591,2.624-8.318
				c1.748-1.727,4.557-2.591,8.423-2.591h10.495c3.866,0,6.674,0.864,8.423,2.591c1.748,1.728,2.624,4.5,2.624,8.318V165.519z
				 M103.497,148.063c0-2.182-1.104-3.272-3.314-3.272h-6.075c-2.21,0-3.314,1.091-3.314,3.272v17.455
				c0,2.183,1.104,3.273,3.314,3.273h6.075c2.21,0,3.314-1.091,3.314-3.273V148.063z"/>
			<path fill="#E11A8E" d="M124.762,175.883v-29.729l-6.352,2.182l-2.762-6.272l10.219-4.364h8.837v38.184H124.762z"/>
			<path fill="#E11A8E" d="M159.559,176.429c-6.149,0-12.962-0.364-20.437-1.092v-7.363c8.138,0.545,14.214,0.818,18.228,0.818
				c0.847,0,1.519-0.246,2.016-0.736c0.497-0.491,0.746-1.154,0.746-1.991v-2.182c0-2.183-1.104-3.273-3.314-3.273h-11.599v-7.637
				h10.494c2.209,0,3.314-1.091,3.314-3.272v-1.091c0-2.182-1.105-3.273-3.314-3.273h-16.018v-7.637h18.779
				c3.608,0,6.26,0.811,7.954,2.428c1.693,1.618,2.54,4.083,2.54,7.392c0,2.182-0.506,3.954-1.519,5.318
				c-1.013,1.363-2.348,2.318-4.005,2.863c2.983,0.801,5.008,2.764,6.076,5.892c0.367,1.127,0.553,2.437,0.553,3.927v0.546
				c0,3.564-0.848,6.183-2.541,7.854C165.818,175.592,163.167,176.429,159.559,176.429z"/>
		</g>
		<rect x="30.983" y="112.65" fill="#E11A8E" width="161" height="8"/>
	</g>
</g>
</svg>
