<?xml version="1.0" encoding="utf-8"?>
<!-- Generator: Adobe Illustrator 16.0.0, SVG Export Plug-In . SVG Version: 6.00 Build 0)  -->
<!DOCTYPE svg PUBLIC "-//W3C//DTD SVG 1.1//EN" "http://www.w3.org/Graphics/SVG/1.1/DTD/svg11.dtd">
<svg version="1.1" id="레이어_1" xmlns="http://www.w3.org/2000/svg" xmlns:xlink="http://www.w3.org/1999/xlink" x="0px"
	 y="0px" width="980px" height="416px" viewBox="0 0 980 416" enable-background="new 0 0 980 416" xml:space="preserve">
<g>
	
		<linearGradient id="SVGID_1_" gradientUnits="userSpaceOnUse" x1="763.6768" y1="-221.8276" x2="78.7792" y2="463.0699" gradientTransform="matrix(1 0 0 -1 69.04 327.3398)">
		<stop  offset="0" style="stop-color:#5C8AFF"/>
		<stop  offset="1" style="stop-color:#DF41A1"/>
	</linearGradient>
	<path fill="url(#SVGID_1_)" d="M963.271,4C971.771,4,976,8.4,976,17.847v377.1c0,0.387,0.022,0.747,0.086,1.065
		c0.021,0.104,0.025,0.253,0.035,0.33C975.65,404.131,970.385,412,961.262,412h-2.586H22.125H19.54
		c-8.085,0-14.822-6.895-15.341-15.734c-0.029-0.372-0.075-0.724-0.159-1.033C4.01,395.124,4,394.964,4,394.882V17.847
		C4,8.788,8.556,4,17.363,4h24.301h41.514h6.225c6.353,0,8.358,3.095,12.354,9.262c0.881,1.359,1.879,2.899,3.006,4.51
		c0.962,1.374,1.869,2.729,2.747,4.04C112.607,29.425,117.01,36,125.669,36h729.462c9.407,0,14.443-7.983,19.774-16.435
		c0.391-0.619,0.783-1.241,1.182-1.866c0.713-1.121,1.372-2.19,1.997-3.204C882.391,7.507,884.552,4,891.399,4h6.225h41.514H963
		 M963.438,2h-24.302h-41.514h-6.225c-9.097,0-11.308,5.684-16.999,14.625C868.75,25.5,864.067,34,855.132,34H125.669
		c-8.936,0-12.794-8.125-19.269-17.375C100.323,7.941,98.498,2,89.402,2h-6.225H41.664H17.363C7.346,2,2,7.83,2,17.847v377.1
		c0,0.411,0.223,1.067,0.255,1.475C2.81,405.897,9.935,414,19.54,414h2.586h936.55h2.586c9.605,0,16.329-8.103,16.884-17.578
		c0.032-0.406-0.146-1.063-0.146-1.475v-377.1C978,7.83,973.505,2,963.488,2H963.438z"/>
</g>
</svg>
