<?xml version="1.0" encoding="utf-8"?>
<!-- Generator: Adobe Illustrator 16.0.0, SVG Export Plug-In . SVG Version: 6.00 Build 0)  -->
<!DOCTYPE svg PUBLIC "-//W3C//DTD SVG 1.1//EN" "http://www.w3.org/Graphics/SVG/1.1/DTD/svg11.dtd">
<svg version="1.1" id="레이어_1" xmlns="http://www.w3.org/2000/svg" xmlns:xlink="http://www.w3.org/1999/xlink" x="0px"
	 y="0px" width="980px" height="416px" viewBox="0 0 980 416" enable-background="new 0 0 980 416" xml:space="preserve">
<linearGradient id="SVGID_1_" gradientUnits="userSpaceOnUse" x1="832.3975" y1="549.2979" x2="147.6032" y2="-135.4964">
	<stop  offset="0" style="stop-color:#DF41A1"/>
	<stop  offset="1" style="stop-color:#5C8AFF"/>
</linearGradient>
<path fill="url(#SVGID_1_)" d="M963.038,2h-24.301h-41.514h-6.225c-9.096,0-9.858,5.455-15.999,14.625
	C868.666,26.083,863.667,34,854.731,34H125.269C116.333,34,113,26.625,106,16.625C99.922,7.942,98.097,2,89.001,2h-6.225H41.263
	H16.962C6.945,2,2,8.33,2,18.347v377.1c0,0.411,0.022,0.818,0.054,1.225C2.609,406.147,9.534,414,19.139,414h2.586h936.551h2.586
	c9.605,0,16.529-7.853,17.084-17.328c0.032-0.406,0.055-0.813,0.055-1.225v-377.1C978,8.33,973.055,2,963.038,2z"/>
<g>
</g>
<g>
</g>
<g>
</g>
<g>
</g>
<g>
</g>
<g>
</g>
<g>
</g>
<g>
</g>
<g>
</g>
<g>
</g>
<g>
</g>
<g>
</g>
<g>
</g>
<g>
</g>
<g>
</g>
</svg>
