<?xml version="1.0" encoding="utf-8"?>
<!-- Generator: Adobe Illustrator 16.0.0, SVG Export Plug-In . SVG Version: 6.00 Build 0)  -->
<!DOCTYPE svg PUBLIC "-//W3C//DTD SVG 1.1//EN" "http://www.w3.org/Graphics/SVG/1.1/DTD/svg11.dtd">
<svg version="1.1" id="레이어_1" xmlns="http://www.w3.org/2000/svg" xmlns:xlink="http://www.w3.org/1999/xlink" x="0px"
	 y="0px" width="93px" height="28px" viewBox="0 0 93 28" enable-background="new 0 0 93 28" xml:space="preserve">
<path fill="#E6E6E6" d="M83,2c4.411,0,8,3.589,8,8v8c0,4.411-3.589,8-8,8H5c-1.094,0-2.088-0.539-2.594-1.408
	c-0.244-0.419-0.568-1.271-0.001-2.271c1.604-2.826,2.674-4.494,4.616-7.521c0.894-1.393,1.961-3.058,3.336-5.232
	C14.936,2.322,16.451,2,21,2H83 M83,0H21c-5.523,0-7.542,0.917-12.334,8.5c-4.334,6.859-5.614,8.631-8,12.834
	C-1.084,24.416,1.375,28,5,28h78c5.523,0,10-4.477,10-10v-8C93,4.477,88.523,0,83,0L83,0z"/>
<g>
</g>
<g>
</g>
<g>
</g>
<g>
</g>
<g>
</g>
<g>
</g>
<g>
</g>
<g>
</g>
<g>
</g>
<g>
</g>
<g>
</g>
<g>
</g>
<g>
</g>
<g>
</g>
<g>
</g>
</svg>
