<?xml version="1.0" encoding="utf-8"?>
<!-- Generator: Adobe Illustrator 16.0.0, SVG Export Plug-In . SVG Version: 6.00 Build 0)  -->
<!DOCTYPE svg PUBLIC "-//W3C//DTD SVG 1.1//EN" "http://www.w3.org/Graphics/SVG/1.1/DTD/svg11.dtd">
<svg version="1.1" id="레이어_1" xmlns="http://www.w3.org/2000/svg" xmlns:xlink="http://www.w3.org/1999/xlink" x="0px"
	 y="0px" width="107px" height="60px" viewBox="0 0 107 60" enable-background="new 0 0 107 60" xml:space="preserve">
<path fill="#CCCCCC" d="M97,2c4.411,0,8,3.589,8,8v40c0,4.411-3.589,8-8,8H10c-4.411,0-8-3.589-8-8V10c0-4.411,3.589-8,8-8H97 M97,0
	H10C4.477,0,0,4.477,0,10v40c0,5.523,4.477,10,10,10h87c5.523,0,10-4.477,10-10V10C107,4.477,102.523,0,97,0L97,0z"/>
<g>
</g>
<g>
</g>
<g>
</g>
<g>
</g>
<g>
</g>
<g>
</g>
<g>
</g>
<g>
</g>
<g>
</g>
<g>
</g>
<g>
</g>
<g>
</g>
<g>
</g>
<g>
</g>
<g>
</g>
</svg>
