<?xml version="1.0" encoding="utf-8"?>
<!-- Generator: Adobe Illustrator 16.0.0, SVG Export Plug-In . SVG Version: 6.00 Build 0)  -->
<!DOCTYPE svg PUBLIC "-//W3C//DTD SVG 1.1//EN" "http://www.w3.org/Graphics/SVG/1.1/DTD/svg11.dtd">
<svg version="1.1" id="레이어_1" xmlns="http://www.w3.org/2000/svg" xmlns:xlink="http://www.w3.org/1999/xlink" x="0px"
	 y="0px" width="93px" height="28px" viewBox="0 0 93 28" enable-background="new 0 0 93 28" xml:space="preserve">
<path fill="#E6E6E6" d="M72,2c4.549,0,6.064,0.322,10.644,7.568c1.374,2.175,2.441,3.839,3.335,5.232
	c1.942,3.026,3.012,4.694,4.616,7.521c0.567,1,0.243,1.852-0.001,2.271C90.088,25.461,89.095,26,88,26H10c-4.411,0-8-3.589-8-8v-8
	c0-4.411,3.589-8,8-8H72 M72,0H10C4.477,0,0,4.477,0,10v8c0,5.523,4.477,10,10,10h78c3.625,0,6.084-3.584,4.334-6.666
	c-2.386-4.203-3.666-5.975-8-12.834C79.542,0.917,77.523,0,72,0L72,0z"/>
<g>
</g>
<g>
</g>
<g>
</g>
<g>
</g>
<g>
</g>
<g>
</g>
<g>
</g>
<g>
</g>
<g>
</g>
<g>
</g>
<g>
</g>
<g>
</g>
<g>
</g>
<g>
</g>
<g>
</g>
</svg>
