<?xml version="1.0" encoding="utf-8"?>
<!-- Generator: Adobe Illustrator 16.0.0, SVG Export Plug-In . SVG Version: 6.00 Build 0)  -->
<!DOCTYPE svg PUBLIC "-//W3C//DTD SVG 1.1//EN" "http://www.w3.org/Graphics/SVG/1.1/DTD/svg11.dtd">
<svg version="1.1" id="레이어_1" xmlns="http://www.w3.org/2000/svg" xmlns:xlink="http://www.w3.org/1999/xlink" x="0px"
	 y="0px" width="128px" height="128px" viewBox="0 0 128 128" enable-background="new 0 0 128 128" xml:space="preserve">
<path fill="#1EDCDC" d="M25.778,50.35l-14.971-8.427l1.701-3.023l6.648,3.742l-3.21-9.849l2.287-4.064l2.658,8.919l12.485-0.798
	l-2.201,3.911l-9.343,0.16l1.122,3.86l4.524,2.546L25.778,50.35z"/>
<path fill="#1EDCDC" d="M37.044,29.208l2.849-1.719c0.464,1.187,0.555,2.316,0.274,3.387c-0.28,1.069-0.939,2.051-1.977,2.941
	c-1.642,1.41-3.317,1.917-5.026,1.521c-1.36-0.325-2.604-1.143-3.729-2.452c-1.344-1.563-1.987-3.141-1.931-4.729
	c0.056-1.588,0.711-2.921,1.961-3.994c1.404-1.207,2.912-1.695,4.52-1.465c1.609,0.229,3.218,1.318,4.826,3.263l-6.259,5.375
	c0.655,0.726,1.352,1.129,2.09,1.209c0.739,0.081,1.396-0.125,1.971-0.619c0.392-0.336,0.629-0.726,0.712-1.167
	C37.41,30.317,37.316,29.8,37.044,29.208z M35.019,26.562c-0.639-0.708-1.298-1.097-1.977-1.167s-1.273,0.112-1.783,0.55
	c-0.545,0.468-0.825,1.054-0.84,1.756c-0.014,0.703,0.274,1.393,0.865,2.069L35.019,26.562z"/>
<path fill="#1EDCDC" d="M37.181,18.464l3.215-1.395l6.248,6.92l-0.852-9.262l3.128-1.357l0.736,12.735l0.144,2.302
	c0.024,0.781-0.008,1.4-0.096,1.855c-0.088,0.456-0.24,0.86-0.457,1.214c-0.216,0.355-0.525,0.691-0.929,1.01
	c-0.401,0.32-0.89,0.604-1.463,0.852c-0.581,0.251-1.177,0.438-1.788,0.559l-1.296-2.249c0.514-0.112,0.96-0.251,1.341-0.415
	c0.701-0.306,1.132-0.736,1.29-1.295c0.157-0.559,0.188-1.196,0.091-1.911L37.181,18.464z"/>
<path fill="#1EDCDC" d="M54.616,24.689L53.058,7.58l3.28-0.299l0.561,6.163c0.906-1.243,2.052-1.929,3.438-2.054
	c1.509-0.138,2.808,0.295,3.895,1.298c1.088,1.003,1.725,2.528,1.913,4.573c0.192,2.117-0.164,3.792-1.066,5.028
	c-0.904,1.235-2.076,1.919-3.515,2.049c-0.708,0.064-1.422-0.049-2.143-0.341c-0.721-0.291-1.361-0.759-1.922-1.407l0.165,1.819
	L54.616,24.689z M57.284,17.927c0.116,1.284,0.405,2.214,0.865,2.792c0.647,0.82,1.442,1.188,2.384,1.101
	c0.724-0.065,1.312-0.431,1.765-1.096c0.453-0.665,0.62-1.662,0.499-2.993c-0.129-1.416-0.479-2.414-1.049-2.993
	c-0.571-0.58-1.257-0.833-2.059-0.761c-0.786,0.071-1.412,0.437-1.878,1.094C57.346,15.731,57.169,16.682,57.284,17.927z"/>
<path fill="#1EDCDC" d="M68.846,17.424c0.26-1.063,0.771-2.026,1.538-2.893c0.767-0.866,1.694-1.444,2.782-1.733s2.225-0.29,3.407,0
	c1.829,0.447,3.184,1.407,4.063,2.88c0.878,1.473,1.097,3.116,0.653,4.931c-0.446,1.829-1.407,3.2-2.881,4.116
	c-1.475,0.915-3.106,1.153-4.897,0.716c-1.108-0.271-2.104-0.779-2.987-1.526c-0.883-0.747-1.469-1.667-1.756-2.763
	C68.48,20.056,68.506,18.814,68.846,17.424z M72.082,18.396c-0.293,1.2-0.232,2.187,0.182,2.964
	c0.413,0.776,1.037,1.267,1.872,1.471s1.612,0.056,2.335-0.443c0.721-0.5,1.229-1.357,1.525-2.572
	c0.289-1.183,0.229-2.163-0.182-2.938s-1.031-1.265-1.865-1.47c-0.836-0.203-1.615-0.056-2.342,0.443
	C72.884,16.348,72.375,17.197,72.082,18.396z"/>
<path fill="#1EDCDC" d="M87.596,21.376l-2.253-2.036c0.921-0.845,1.882-1.295,2.884-1.353c1.002-0.058,2.189,0.34,3.563,1.195
	c1.247,0.774,2.084,1.501,2.511,2.176c0.428,0.675,0.623,1.316,0.59,1.926c-0.033,0.609-0.43,1.52-1.184,2.734l-2.061,3.246
	c-0.578,0.929-0.959,1.641-1.145,2.138c-0.186,0.498-0.313,1.074-0.38,1.731l-2.767-1.721c0.043-0.231,0.125-0.562,0.246-0.993
	c0.056-0.195,0.09-0.325,0.104-0.391c-0.768,0.167-1.494,0.198-2.184,0.092c-0.688-0.105-1.342-0.352-1.957-0.734
	c-1.088-0.677-1.763-1.506-2.021-2.486c-0.26-0.979-0.107-1.921,0.452-2.824c0.371-0.597,0.846-1.04,1.422-1.33
	c0.575-0.291,1.198-0.4,1.867-0.329s1.545,0.314,2.63,0.731c1.459,0.567,2.507,0.901,3.145,1.003l0.172-0.279
	c0.336-0.538,0.439-1.003,0.317-1.396c-0.123-0.394-0.553-0.821-1.289-1.279c-0.498-0.309-0.946-0.452-1.347-0.43
	S88.073,20.993,87.596,21.376z M89.926,25.972c-0.434-0.104-1.089-0.314-1.969-0.631c-0.879-0.316-1.486-0.47-1.825-0.459
	c-0.524,0.033-0.911,0.248-1.159,0.645c-0.244,0.392-0.309,0.821-0.193,1.288c0.113,0.467,0.396,0.841,0.849,1.122
	c0.504,0.313,1.088,0.446,1.752,0.399c0.495-0.041,0.909-0.211,1.243-0.51c0.223-0.193,0.54-0.625,0.957-1.295L89.926,25.972z"/>
<path fill="#1EDCDC" d="M93.211,36.671l-2.259-2.395l9.053-8.539l2.099,2.225l-1.285,1.214c0.967-0.193,1.689-0.229,2.17-0.107
	c0.479,0.122,0.902,0.376,1.267,0.762c0.517,0.546,0.86,1.214,1.036,2.004l-2.788,1.228c-0.119-0.649-0.343-1.148-0.669-1.495
	c-0.316-0.335-0.677-0.531-1.081-0.59c-0.403-0.059-0.911,0.072-1.521,0.395c-0.609,0.322-1.685,1.21-3.225,2.663L93.211,36.671z"/>
<path fill="#1EDCDC" d="M102.102,50.464l-1.432-2.704l1.615-0.856c-0.866-0.115-1.614-0.397-2.245-0.846
	c-0.63-0.45-1.11-0.984-1.438-1.604c-0.67-1.265-0.731-2.616-0.19-4.057c0.542-1.439,1.725-2.643,3.547-3.608
	c1.864-0.987,3.515-1.298,4.946-0.935c1.436,0.364,2.508,1.216,3.216,2.554c0.651,1.229,0.703,2.564,0.155,4.002l5.47-2.895
	l1.54,2.912L102.102,50.464z M103.727,39.659c-1.174,0.621-1.938,1.232-2.289,1.835c-0.512,0.871-0.545,1.728-0.099,2.57
	c0.354,0.67,0.94,1.089,1.759,1.257c0.818,0.167,1.795-0.048,2.926-0.647c1.265-0.669,2.055-1.378,2.367-2.128
	c0.314-0.75,0.284-1.481-0.092-2.192c-0.365-0.691-0.945-1.124-1.742-1.299C105.762,38.881,104.818,39.082,103.727,39.659z"/>
<path fill="#1EDCDC" d="M101.049,99H26.951C25.324,99,24,97.676,24,96.049V59.951C24,58.324,25.324,57,26.951,57h74.098
	c1.627,0,2.951,1.324,2.951,2.951v36.098C104,97.676,102.676,99,101.049,99z M26.951,59C26.427,59,26,59.427,26,59.951v36.098
	C26,96.573,26.427,97,26.951,97h74.098c0.524,0,0.951-0.427,0.951-0.951V59.951c0-0.524-0.427-0.951-0.951-0.951H26.951z"/>
<path fill="#1EDCDC" d="M39,69c0,1.104-0.896,2-2,2h-6c-1.104,0-2-0.896-2-2v-6c0-1.104,0.896-2,2-2h6c1.104,0,2,0.896,2,2V69z"/>
<path fill="#1EDCDC" d="M51,69c0,1.104-0.896,2-2,2h-6c-1.104,0-2-0.896-2-2v-6c0-1.104,0.896-2,2-2h6c1.104,0,2,0.896,2,2V69z"/>
<path fill="#1EDCDC" d="M63,69c0,1.104-0.896,2-2,2h-6c-1.104,0-2-0.896-2-2v-6c0-1.104,0.896-2,2-2h6c1.104,0,2,0.896,2,2V69z"/>
<path fill="#1EDCDC" d="M75,69c0,1.104-0.896,2-2,2h-6c-1.104,0-2-0.896-2-2v-6c0-1.104,0.896-2,2-2h6c1.104,0,2,0.896,2,2V69z"/>
<path fill="#1EDCDC" d="M87,69c0,1.104-0.896,2-2,2h-6c-1.104,0-2-0.896-2-2v-6c0-1.104,0.896-2,2-2h6c1.104,0,2,0.896,2,2V69z"/>
<path fill="#1EDCDC" d="M39,81c0,1.104-0.896,2-2,2h-6c-1.104,0-2-0.896-2-2v-6c0-1.104,0.896-2,2-2h6c1.104,0,2,0.896,2,2V81z"/>
<path fill="#1EDCDC" d="M51,81c0,1.104-0.896,2-2,2h-6c-1.104,0-2-0.896-2-2v-6c0-1.104,0.896-2,2-2h6c1.104,0,2,0.896,2,2V81z"/>
<path fill="#1EDCDC" d="M63,81c0,1.104-0.896,2-2,2h-6c-1.104,0-2-0.896-2-2v-6c0-1.104,0.896-2,2-2h6c1.104,0,2,0.896,2,2V81z"/>
<path fill="#1EDCDC" d="M75,81c0,1.104-0.896,2-2,2h-6c-1.104,0-2-0.896-2-2v-6c0-1.104,0.896-2,2-2h6c1.104,0,2,0.896,2,2V81z"/>
<path fill="#1EDCDC" d="M39,93c0,1.104-0.896,2-2,2h-6c-1.104,0-2-0.896-2-2v-6c0-1.104,0.896-2,2-2h6c1.104,0,2,0.896,2,2V93z"/>
<path fill="#1EDCDC" d="M85,85h-6H43c-1.104,0-2,0.896-2,2v6c0,1.104,0.896,2,2,2h36h6c1.104,0,2-0.896,2-2v-6
	C87,85.896,86.104,85,85,85z"/>
<path fill="#1EDCDC" d="M99,93c0,1.104-0.896,2-2,2h-6c-1.104,0-2-0.896-2-2v-6c0-1.104,0.896-2,2-2h6c1.104,0,2,0.896,2,2V93z"/>
<path fill="#1EDCDC" d="M97,61h-6c-1.104,0-2,0.896-2,2v10H79c-1.104,0-2,0.896-2,2v6c0,1.104,0.896,2,2,2h18c1.104,0,2-0.896,2-2
	V63C99,61.896,98.104,61,97,61z M97,76.671C97,78.175,95.775,79,94.271,79H91v1.907L87.363,78L91,75.635V77h3.271
	C94.773,77,95,77.172,95,76.671V71h2V76.671z"/>
</svg>
