<?xml version="1.0" encoding="utf-8"?>
<!-- Generator: Adobe Illustrator 16.0.0, SVG Export Plug-In . SVG Version: 6.00 Build 0)  -->
<!DOCTYPE svg PUBLIC "-//W3C//DTD SVG 1.1//EN" "http://www.w3.org/Graphics/SVG/1.1/DTD/svg11.dtd">
<svg version="1.1" id="레이어_1" xmlns="http://www.w3.org/2000/svg" xmlns:xlink="http://www.w3.org/1999/xlink" x="0px"
	 y="0px" width="60px" height="60px" viewBox="0 0 60 60" enable-background="new 0 0 60 60" xml:space="preserve">
<path fill="#FFFFFF" stroke="#000000" stroke-miterlimit="10" d="M25.17,23.512c0.4-0.426,0.867-0.813,1.4-1.159
	c0.533-0.347,1.1-0.624,1.7-0.83c0.6-0.207,1.217-0.337,1.85-0.391c0.633-0.053,1.257,0,1.87,0.16
	c0.561,0.147,1.072,0.374,1.539,0.68c0.467,0.308,0.871,0.678,1.211,1.11c0.34,0.434,0.6,0.91,0.779,1.43
	c0.181,0.521,0.258,1.061,0.229,1.62c-0.026,0.48-0.13,0.924-0.312,1.33c-0.18,0.407-0.401,0.797-0.67,1.17
	c-0.266,0.374-0.568,0.733-0.908,1.08c-0.342,0.347-0.69,0.707-1.051,1.08c-0.268,0.267-0.496,0.51-0.689,0.729
	c-0.193,0.221-0.36,0.461-0.5,0.721c-0.141,0.26-0.25,0.554-0.33,0.88c-0.08,0.327-0.135,0.729-0.159,1.21h-2.52
	c0.026-1.025,0.193-1.916,0.5-2.67c0.306-0.753,0.713-1.43,1.22-2.03c0.68-0.8,1.243-1.486,1.689-2.06
	c0.446-0.573,0.703-1.08,0.771-1.521c0.067-0.586-0.067-1.1-0.399-1.54c-0.334-0.439-0.779-0.739-1.34-0.899
	c-0.361-0.106-0.73-0.13-1.111-0.07c-0.38,0.061-0.75,0.17-1.11,0.33s-0.704,0.36-1.03,0.6c-0.327,0.24-0.624,0.48-0.89,0.721
	L25.17,23.512z M28.15,36.332h3.5v3.26h-3.5V36.332z"/>
</svg>
