<?xml version="1.0" encoding="utf-8"?>
<!-- Generator: Adobe Illustrator 16.0.0, SVG Export Plug-In . SVG Version: 6.00 Build 0)  -->
<!DOCTYPE svg PUBLIC "-//W3C//DTD SVG 1.1//EN" "http://www.w3.org/Graphics/SVG/1.1/DTD/svg11.dtd">
<svg version="1.1" id="레이어_1" xmlns="http://www.w3.org/2000/svg" xmlns:xlink="http://www.w3.org/1999/xlink" x="0px"
	 y="0px" width="60px" height="60px" viewBox="0 0 60 60" enable-background="new 0 0 60 60" xml:space="preserve">
<path fill="#FFFFFF" stroke="#000000" stroke-miterlimit="10" d="M30.19,26.985c0.2-0.346,0.462-0.666,0.791-0.96
	c0.326-0.293,0.689-0.54,1.09-0.739c0.4-0.2,0.82-0.341,1.26-0.42c0.439-0.08,0.88-0.073,1.32,0.02v2.6
	c-0.467-0.079-0.961-0.079-1.48,0c-0.52,0.08-1,0.237-1.439,0.471c-0.439,0.233-0.807,0.55-1.101,0.95
	c-0.293,0.399-0.44,0.887-0.44,1.46v6.9h-3.08V25.145h3.08V26.985z"/>
</svg>
