<?xml version="1.0" encoding="utf-8"?>
<!-- Generator: Adobe Illustrator 16.0.0, SVG Export Plug-In . SVG Version: 6.00 Build 0)  -->
<!DOCTYPE svg PUBLIC "-//W3C//DTD SVG 1.1//EN" "http://www.w3.org/Graphics/SVG/1.1/DTD/svg11.dtd">
<svg version="1.1" id="레이어_1" xmlns="http://www.w3.org/2000/svg" xmlns:xlink="http://www.w3.org/1999/xlink" x="0px"
	 y="0px" width="60px" height="60px" viewBox="0 0 60 60" enable-background="new 0 0 60 60" xml:space="preserve">
<path fill="#FFFFFF" stroke="#000000" stroke-miterlimit="10" d="M31.811,25.845c0.867,0,1.623,0.157,2.271,0.47
	c0.646,0.313,1.188,0.75,1.621,1.311c0.433,0.56,0.756,1.236,0.969,2.03c0.214,0.793,0.32,1.67,0.32,2.629
	c0,2.027-0.427,3.584-1.279,4.67c-0.854,1.086-2.153,1.631-3.899,1.631c-0.801,0-1.463-0.16-1.991-0.48
	c-0.527-0.319-0.95-0.733-1.27-1.239v1.399h-3.08v-17.06h3.08v6.52c0.347-0.573,0.787-1.03,1.32-1.37
	C30.404,26.015,31.051,25.845,31.811,25.845z M31.25,28.166c-0.76,0-1.393,0.319-1.899,0.96c-0.507,0.64-0.773,1.613-0.8,2.919
	v0.201c0,0.559,0.053,1.086,0.16,1.58c0.106,0.492,0.273,0.922,0.5,1.289s0.506,0.656,0.84,0.869c0.333,0.215,0.733,0.32,1.2,0.32
	s0.867-0.123,1.201-0.369c0.332-0.246,0.608-0.563,0.829-0.951c0.22-0.385,0.384-0.818,0.49-1.299
	c0.105-0.481,0.16-0.961,0.16-1.439c0-0.508-0.048-1.004-0.141-1.491c-0.094-0.486-0.248-0.923-0.461-1.311
	c-0.213-0.386-0.49-0.696-0.83-0.93C32.16,28.28,31.744,28.166,31.25,28.166z"/>
</svg>
