<?xml version="1.0" encoding="utf-8"?>
<!-- Generator: Adobe Illustrator 16.0.0, SVG Export Plug-In . SVG Version: 6.00 Build 0)  -->
<!DOCTYPE svg PUBLIC "-//W3C//DTD SVG 1.1//EN" "http://www.w3.org/Graphics/SVG/1.1/DTD/svg11.dtd">
<svg version="1.1" id="레이어_1" xmlns="http://www.w3.org/2000/svg" xmlns:xlink="http://www.w3.org/1999/xlink" x="0px"
	 y="0px" width="60px" height="60px" viewBox="0 0 60 60" enable-background="new 0 0 60 60" xml:space="preserve">
<path fill="#FFFFFF" stroke="#000000" stroke-miterlimit="10" d="M25.959,36.266c1.627-0.307,2.91-0.83,3.85-1.57
	c0.94-0.739,1.644-1.616,2.11-2.631c-0.399,0.201-0.83,0.33-1.29,0.392s-0.917,0.09-1.37,0.09c-0.813,0-1.54-0.146-2.18-0.438
	c-0.64-0.293-1.18-0.685-1.62-1.17c-0.44-0.486-0.777-1.05-1.01-1.689c-0.233-0.641-0.35-1.301-0.35-1.98
	c0-0.8,0.14-1.547,0.42-2.24c0.28-0.692,0.67-1.29,1.17-1.79s1.096-0.893,1.79-1.18c0.693-0.286,1.46-0.43,2.3-0.43
	c1.026,0,1.907,0.18,2.64,0.54c0.731,0.359,1.333,0.85,1.8,1.47c0.467,0.62,0.811,1.337,1.03,2.15s0.33,1.68,0.33,2.6
	c0,1.2-0.188,2.363-0.562,3.49s-0.937,2.154-1.688,3.08c-0.754,0.928-1.69,1.713-2.812,2.358c-1.12,0.646-2.427,1.084-3.919,1.312
	L25.959,36.266z M27.24,27.185c0,0.867,0.2,1.577,0.6,2.13c0.4,0.554,1.033,0.83,1.9,0.83c0.52,0,1.023-0.09,1.51-0.27
	c0.486-0.181,0.902-0.483,1.25-0.91c0.093-0.56,0.109-1.13,0.05-1.71c-0.059-0.58-0.2-1.11-0.42-1.59s-0.521-0.87-0.899-1.17
	c-0.381-0.301-0.836-0.45-1.371-0.45c-0.427,0-0.8,0.08-1.12,0.24c-0.32,0.159-0.593,0.38-0.82,0.659
	c-0.227,0.28-0.397,0.614-0.51,1C27.296,26.333,27.24,26.746,27.24,27.185z"/>
</svg>
