<?xml version="1.0" encoding="utf-8"?>
<!-- Generator: Adobe Illustrator 16.0.0, SVG Export Plug-In . SVG Version: 6.00 Build 0)  -->
<!DOCTYPE svg PUBLIC "-//W3C//DTD SVG 1.1//EN" "http://www.w3.org/Graphics/SVG/1.1/DTD/svg11.dtd">
<svg version="1.1" id="레이어_1" xmlns="http://www.w3.org/2000/svg" xmlns:xlink="http://www.w3.org/1999/xlink" x="0px"
	 y="0px" width="60px" height="60px" viewBox="0 0 60 60" enable-background="new 0 0 60 60" xml:space="preserve">
<path fill="#FFFFFF" stroke="#000000" stroke-miterlimit="10" d="M31.55,20.645c0.827,0,1.601,0.134,2.32,0.4
	c0.719,0.266,1.351,0.634,1.89,1.1c0.54,0.467,0.963,1.027,1.27,1.681c0.308,0.654,0.462,1.359,0.462,2.119
	c0,0.801-0.157,1.534-0.472,2.2c-0.313,0.667-0.735,1.237-1.27,1.71c-0.533,0.474-1.164,0.84-1.891,1.101
	c-0.728,0.259-1.496,0.39-2.311,0.39h-2.82v5.92h-3.08V20.645H31.55z M28.73,23.065v5.82h2.86c0.373,0,0.723-0.07,1.051-0.21
	c0.326-0.14,0.609-0.34,0.851-0.6c0.239-0.261,0.426-0.57,0.56-0.931c0.135-0.359,0.2-0.76,0.2-1.2c0-0.439-0.065-0.836-0.2-1.189
	c-0.134-0.353-0.318-0.656-0.56-0.91c-0.24-0.253-0.523-0.446-0.851-0.58c-0.328-0.133-0.678-0.2-1.051-0.2H28.73z"/>
</svg>
