<?xml version="1.0" encoding="utf-8"?>
<!-- Generator: Adobe Illustrator 16.0.0, SVG Export Plug-In . SVG Version: 6.00 Build 0)  -->
<!DOCTYPE svg PUBLIC "-//W3C//DTD SVG 1.1//EN" "http://www.w3.org/Graphics/SVG/1.1/DTD/svg11.dtd">
<svg version="1.1" id="레이어_1" xmlns="http://www.w3.org/2000/svg" xmlns:xlink="http://www.w3.org/1999/xlink" x="0px"
	 y="0px" width="60px" height="60px" viewBox="0 0 60 60" enable-background="new 0 0 60 60" xml:space="preserve">
<path fill="#FFFFFF" stroke="#000000" stroke-miterlimit="10" d="M37.689,36.705c-1.267-0.467-2.459-1.061-3.58-1.779
	c-1.119-0.721-2.039-1.547-2.76-2.48c-0.693,0.935-1.594,1.746-2.701,2.439s-2.327,1.295-3.66,1.801l-1.88-2
	c0.64-0.227,1.343-0.537,2.11-0.93c0.767-0.395,1.483-0.848,2.15-1.361c0.667-0.512,1.223-1.065,1.67-1.66
	c0.447-0.592,0.67-1.202,0.67-1.828v-1.561h-5.08v-2.38h13.4v2.38h-5.08v1.561c0,0.413,0.109,0.826,0.33,1.239
	c0.22,0.414,0.51,0.811,0.869,1.191c0.359,0.379,0.771,0.746,1.229,1.1c0.459,0.354,0.937,0.674,1.431,0.959
	c0.492,0.287,0.979,0.541,1.459,0.763c0.48,0.219,0.914,0.396,1.301,0.528L37.689,36.705z"/>
</svg>
