<?xml version="1.0" encoding="utf-8"?>
<!-- Generator: Adobe Illustrator 16.0.0, SVG Export Plug-In . SVG Version: 6.00 Build 0)  -->
<!DOCTYPE svg PUBLIC "-//W3C//DTD SVG 1.1//EN" "http://www.w3.org/Graphics/SVG/1.1/DTD/svg11.dtd">
<svg version="1.1" id="레이어_1" xmlns="http://www.w3.org/2000/svg" xmlns:xlink="http://www.w3.org/1999/xlink" x="0px"
	 y="0px" width="60px" height="60px" viewBox="0 0 60 60" enable-background="new 0 0 60 60" xml:space="preserve">
<path fill="#FFFFFF" stroke="#000000" stroke-miterlimit="10" d="M24.08,29.906c0-0.867,0.097-1.79,0.29-2.771
	c0.193-0.979,0.517-1.887,0.97-2.72c0.453-0.833,1.057-1.523,1.81-2.07c0.753-0.547,1.69-0.82,2.81-0.82
	c0.747,0,1.41,0.127,1.99,0.381c0.579,0.253,1.093,0.597,1.54,1.029c0.447,0.434,0.822,0.931,1.13,1.49
	c0.307,0.559,0.56,1.15,0.761,1.77c0.199,0.62,0.342,1.25,0.43,1.891c0.086,0.64,0.131,1.247,0.131,1.82
	c0,0.613-0.037,1.25-0.11,1.908c-0.073,0.66-0.199,1.314-0.38,1.961c-0.182,0.647-0.417,1.261-0.71,1.841
	c-0.293,0.579-0.664,1.09-1.109,1.528c-0.446,0.441-0.975,0.791-1.58,1.051c-0.606,0.261-1.304,0.392-2.09,0.392
	c-0.827,0-1.543-0.137-2.15-0.41c-0.606-0.272-1.126-0.637-1.56-1.09s-0.79-0.978-1.07-1.569c-0.28-0.595-0.503-1.213-0.67-1.859
	c-0.167-0.648-0.28-1.295-0.34-1.941S24.08,30.465,24.08,29.906z M27.18,29.945c0,0.374,0.017,0.788,0.05,1.241
	s0.086,0.914,0.16,1.379c0.073,0.468,0.177,0.918,0.31,1.353c0.133,0.435,0.303,0.815,0.51,1.147c0.207,0.334,0.45,0.604,0.73,0.812
	c0.28,0.207,0.613,0.312,1,0.312c0.574,0,1.046-0.222,1.419-0.66c0.373-0.439,0.664-0.978,0.871-1.609
	c0.207-0.635,0.35-1.307,0.43-2.021c0.08-0.713,0.119-1.349,0.119-1.91c0-0.346-0.016-0.736-0.049-1.17
	c-0.033-0.433-0.095-0.873-0.181-1.319c-0.088-0.447-0.196-0.884-0.329-1.311c-0.135-0.427-0.305-0.803-0.511-1.13
	c-0.207-0.326-0.454-0.59-0.741-0.79c-0.287-0.2-0.617-0.3-0.99-0.3c-0.56,0-1.02,0.21-1.38,0.63c-0.36,0.42-0.643,0.937-0.85,1.55
	s-0.354,1.268-0.44,1.96C27.223,28.798,27.18,29.413,27.18,29.945z"/>
</svg>
