<?xml version="1.0" encoding="utf-8"?>
<!-- Generator: Adobe Illustrator 16.0.0, SVG Export Plug-In . SVG Version: 6.00 Build 0)  -->
<!DOCTYPE svg PUBLIC "-//W3C//DTD SVG 1.1//EN" "http://www.w3.org/Graphics/SVG/1.1/DTD/svg11.dtd">
<svg version="1.1" id="레이어_1" xmlns="http://www.w3.org/2000/svg" xmlns:xlink="http://www.w3.org/1999/xlink" x="0px"
	 y="0px" width="60px" height="60px" viewBox="0 0 60 60" enable-background="new 0 0 60 60" xml:space="preserve">
<path fill="#FFFFFF" stroke="#000000" stroke-miterlimit="10" d="M26.93,22.565c0.573,0,1.106,0.101,1.6,0.301
	c0.493,0.199,0.92,0.473,1.28,0.819c0.36,0.347,0.64,0.764,0.84,1.25c0.199,0.487,0.3,1.01,0.3,1.57s-0.101,1.083-0.3,1.57
	c-0.2,0.486-0.478,0.913-0.831,1.279c-0.354,0.367-0.777,0.657-1.27,0.87c-0.494,0.214-1.033,0.32-1.62,0.32
	c-0.6,0-1.147-0.106-1.64-0.32c-0.494-0.213-0.917-0.5-1.27-0.859c-0.354-0.36-0.63-0.787-0.83-1.28c-0.2-0.493-0.3-1.021-0.3-1.58
	c0-0.573,0.104-1.1,0.31-1.58s0.49-0.894,0.85-1.24c0.36-0.346,0.787-0.62,1.28-0.819C25.823,22.666,26.356,22.565,26.93,22.565z
	 M26.93,24.626c-0.32,0-0.593,0.163-0.82,0.49c-0.227,0.326-0.34,0.79-0.34,1.39c0,0.627,0.106,1.12,0.32,1.479
	c0.213,0.36,0.493,0.54,0.84,0.54c0.387,0,0.687-0.18,0.9-0.54c0.213-0.359,0.32-0.853,0.32-1.479c0-0.561-0.11-1.014-0.33-1.36
	C27.6,24.8,27.303,24.626,26.93,24.626z M33.891,22.146h3.021l-7.76,16.32h-3.04L33.891,22.146z M36.09,30.046
	c0.573,0,1.109,0.106,1.609,0.32c0.5,0.213,0.934,0.503,1.301,0.868c0.366,0.367,0.652,0.798,0.859,1.291
	c0.207,0.494,0.311,1.021,0.311,1.58c0,0.561-0.104,1.084-0.311,1.569c-0.207,0.487-0.493,0.903-0.859,1.25
	c-0.367,0.347-0.801,0.62-1.301,0.82c-0.5,0.198-1.036,0.3-1.609,0.3c-0.6,0-1.146-0.097-1.641-0.29
	c-0.492-0.192-0.916-0.467-1.27-0.819c-0.354-0.354-0.623-0.771-0.812-1.25c-0.187-0.479-0.279-1.006-0.279-1.58
	c0-0.561,0.097-1.086,0.29-1.58c0.191-0.493,0.467-0.924,0.819-1.291c0.354-0.365,0.772-0.655,1.261-0.868
	C34.945,30.152,35.49,30.046,36.09,30.046z M36.09,32.126c-0.347,0-0.623,0.17-0.83,0.51c-0.207,0.341-0.311,0.83-0.311,1.47
	c0,0.602,0.101,1.07,0.301,1.41c0.199,0.34,0.48,0.51,0.84,0.51c0.348,0,0.631-0.17,0.85-0.51c0.222-0.34,0.33-0.81,0.33-1.41
	c0-0.612-0.108-1.097-0.33-1.448C36.721,32.303,36.438,32.126,36.09,32.126z"/>
</svg>
