<?xml version="1.0" encoding="utf-8"?>
<!-- Generator: Adobe Illustrator 16.0.0, SVG Export Plug-In . SVG Version: 6.00 Build 0)  -->
<!DOCTYPE svg PUBLIC "-//W3C//DTD SVG 1.1//EN" "http://www.w3.org/Graphics/SVG/1.1/DTD/svg11.dtd">
<svg version="1.1" id="레이어_1" xmlns="http://www.w3.org/2000/svg" xmlns:xlink="http://www.w3.org/1999/xlink" x="0px"
	 y="0px" width="60px" height="60px" viewBox="0 0 60 60" enable-background="new 0 0 60 60" xml:space="preserve">
<path fill="#FFFFFF" stroke="#000000" stroke-miterlimit="10" d="M32.189,35.064c0,0.36,0.022,0.701,0.069,1.021
	c0.048,0.319,0.144,0.608,0.291,0.869c0.146,0.26,0.354,0.489,0.63,0.688c0.272,0.201,0.644,0.349,1.109,0.441v1.74
	c-0.96-0.094-1.768-0.262-2.42-0.5c-0.653-0.24-1.18-0.551-1.58-0.932c-0.4-0.379-0.687-0.826-0.86-1.341
	c-0.173-0.514-0.26-1.096-0.26-1.75v-1.92c0-0.879-0.187-1.563-0.56-2.049c-0.373-0.487-1.067-0.804-2.08-0.951v-1.56
	c0.52-0.08,0.95-0.203,1.29-0.37c0.34-0.167,0.61-0.377,0.81-0.63c0.2-0.254,0.34-0.551,0.42-0.891c0.08-0.34,0.12-0.71,0.12-1.109
	v-1.341c0-0.8,0.1-1.479,0.3-2.04c0.2-0.56,0.51-1.029,0.93-1.409c0.419-0.38,0.951-0.677,1.59-0.891
	c0.64-0.213,1.405-0.366,2.3-0.46v1.86c-0.533,0.106-0.943,0.25-1.229,0.43c-0.287,0.181-0.494,0.397-0.621,0.65
	s-0.199,0.543-0.219,0.87c-0.021,0.326-0.031,0.689-0.031,1.09v1.18c0,0.987-0.133,1.764-0.399,2.33
	c-0.267,0.567-0.667,1.063-1.2,1.49c0.561,0.453,0.967,0.997,1.221,1.629c0.252,0.636,0.379,1.465,0.379,2.49V35.064L32.189,35.064z
	"/>
</svg>
