<?xml version="1.0" encoding="utf-8"?>
<!-- Generator: Adobe Illustrator 16.0.0, SVG Export Plug-In . SVG Version: 6.00 Build 0)  -->
<!DOCTYPE svg PUBLIC "-//W3C//DTD SVG 1.1//EN" "http://www.w3.org/Graphics/SVG/1.1/DTD/svg11.dtd">
<svg version="1.1" id="레이어_1" xmlns="http://www.w3.org/2000/svg" xmlns:xlink="http://www.w3.org/1999/xlink" x="0px"
	 y="0px" width="107px" height="60px" viewBox="0 0 107 60" enable-background="new 0 0 107 60" xml:space="preserve">
<path fill="#FFFFFF" stroke="#000000" stroke-miterlimit="10" d="M18.429,34.861c-0.635,0.555-1.36,0.994-2.176,1.316
	s-1.729,0.484-2.737,0.484c-1.043,0-1.992-0.189-2.848-0.568c-0.856-0.381-1.589-0.896-2.202-1.547
	c-0.612-0.652-1.085-1.414-1.419-2.287s-0.501-1.802-0.501-2.789c0-1.088,0.176-2.079,0.527-2.975
	c0.351-0.896,0.838-1.666,1.462-2.313c0.623-0.646,1.362-1.145,2.218-1.496c0.855-0.351,1.788-0.526,2.796-0.526
	c0.952,0,1.828,0.113,2.627,0.34c0.799,0.227,1.516,0.556,2.15,0.986l-1.139,1.903c-0.454-0.261-0.978-0.495-1.572-0.705
	c-0.595-0.21-1.29-0.314-2.083-0.314c-0.669,0-1.27,0.133-1.802,0.399s-0.986,0.632-1.36,1.097s-0.663,1.006-0.867,1.623
	c-0.204,0.618-0.306,1.278-0.306,1.98c0,0.681,0.102,1.317,0.306,1.914c0.204,0.594,0.493,1.113,0.867,1.555s0.827,0.797,1.36,1.063
	s1.127,0.41,1.785,0.434c0.634,0.023,1.247-0.07,1.836-0.281c0.589-0.209,1.156-0.568,1.7-1.078L18.429,34.861z"/>
<path fill="#FFFFFF" stroke="#000000" stroke-miterlimit="10" d="M20.417,26.938c0.793-0.464,1.564-0.762,2.312-0.892
	c0.748-0.131,1.422-0.185,2.023-0.162c0.566,0.023,1.096,0.113,1.589,0.272c0.493,0.158,0.924,0.388,1.292,0.688
	c0.368,0.3,0.657,0.666,0.867,1.097c0.209,0.431,0.314,0.935,0.314,1.513v4.59c0,0.248,0.014,0.555,0.042,0.918
	c0.028,0.363,0.139,0.867,0.332,1.512h-2.958l-0.017-1.07c-0.17,0.238-0.366,0.439-0.586,0.604
	c-0.221,0.164-0.457,0.303-0.706,0.416c-0.25,0.113-0.499,0.195-0.748,0.248c-0.25,0.051-0.487,0.076-0.714,0.076
	c-0.499,0-0.983-0.074-1.454-0.221c-0.47-0.148-0.887-0.363-1.25-0.646s-0.654-0.639-0.875-1.063
	c-0.221-0.426-0.332-0.922-0.332-1.488c0-0.703,0.133-1.316,0.399-1.844c0.266-0.528,0.668-0.95,1.207-1.267
	c0.538-0.317,1.221-0.529,2.048-0.638c0.827-0.107,1.802-0.093,2.924,0.043c0.011-0.442-0.119-0.811-0.391-1.105
	c-0.272-0.294-0.612-0.492-1.02-0.595c-0.25-0.057-0.521-0.079-0.816-0.068c-0.295,0.012-0.589,0.052-0.884,0.119
	c-0.294,0.068-0.583,0.153-0.867,0.255c-0.284,0.103-0.533,0.216-0.748,0.341L20.417,26.938z M23.75,34.844
	c0.283,0,0.566-0.057,0.85-0.17s0.539-0.266,0.765-0.459s0.414-0.422,0.561-0.689c0.147-0.266,0.221-0.547,0.221-0.842v-1.291
	c-1.428-0.193-2.479-0.137-3.154,0.17s-1.011,0.781-1.011,1.428c0,0.67,0.17,1.145,0.51,1.428
	C22.832,34.701,23.25,34.844,23.75,34.844z"/>
<path fill="#FFFFFF" stroke="#000000" stroke-miterlimit="10" d="M37.077,25.918c0.737,0,1.38,0.128,1.93,0.383
	s1.009,0.617,1.377,1.088c0.368,0.47,0.643,1.037,0.825,1.7c0.181,0.662,0.272,1.402,0.272,2.217c0,1.723-0.363,3.033-1.088,3.928
	c-0.726,0.895-1.831,1.344-3.315,1.344c-0.68,0-1.241-0.131-1.683-0.393c-0.442-0.26-0.799-0.6-1.071-1.02v5.27h-2.618V26.173h2.618
	v1.275c0.295-0.477,0.666-0.851,1.114-1.122C35.884,26.054,36.431,25.918,37.077,25.918z M36.602,27.89
	c-0.612,0-1.131,0.229-1.556,0.688s-0.666,1.188-0.723,2.185v1.02c0.034,0.408,0.105,0.787,0.212,1.139
	c0.108,0.352,0.255,0.654,0.442,0.91s0.414,0.453,0.68,0.596c0.266,0.141,0.581,0.211,0.944,0.211c0.396,0,0.736-0.098,1.02-0.297
	c0.283-0.197,0.518-0.459,0.705-0.781c0.187-0.324,0.326-0.684,0.417-1.08s0.136-0.799,0.136-1.207c0-0.43-0.04-0.85-0.119-1.258
	c-0.079-0.407-0.209-0.768-0.391-1.079c-0.181-0.312-0.416-0.563-0.705-0.757C37.375,27.987,37.021,27.89,36.602,27.89z"/>
<path fill="#FFFFFF" stroke="#000000" stroke-miterlimit="10" d="M49.504,28.672c-0.159-0.113-0.337-0.218-0.536-0.314
	c-0.198-0.096-0.399-0.179-0.604-0.246c-0.204-0.068-0.399-0.122-0.586-0.162c-0.187-0.039-0.337-0.06-0.45-0.06
	c-0.408,0-0.717,0.08-0.927,0.238c-0.21,0.159-0.314,0.374-0.314,0.646c0,0.146,0.051,0.288,0.153,0.425
	c0.102,0.136,0.238,0.267,0.408,0.391c0.17,0.125,0.365,0.25,0.586,0.374c0.221,0.125,0.456,0.249,0.706,0.374
	c0.385,0.204,0.765,0.408,1.139,0.612c0.374,0.204,0.708,0.43,1.003,0.68c0.294,0.248,0.529,0.533,0.706,0.85
	c0.175,0.316,0.263,0.686,0.263,1.105c0,0.611-0.122,1.121-0.365,1.529c-0.244,0.408-0.553,0.73-0.927,0.969
	s-0.782,0.408-1.224,0.51c-0.442,0.104-0.855,0.154-1.241,0.154c-0.68,0-1.397-0.135-2.15-0.4c-0.754-0.266-1.465-0.723-2.134-1.369
	l1.394-1.699c0.227,0.227,0.465,0.426,0.714,0.596c0.25,0.17,0.496,0.311,0.74,0.424s0.476,0.201,0.697,0.264
	c0.221,0.063,0.417,0.094,0.587,0.094c0.43,0,0.75-0.094,0.96-0.281c0.209-0.186,0.314-0.416,0.314-0.688
	c0-0.316-0.147-0.566-0.442-0.748c-0.295-0.182-0.68-0.391-1.156-0.629c-0.385-0.193-0.773-0.391-1.165-0.596
	c-0.391-0.203-0.748-0.436-1.071-0.697c-0.323-0.259-0.586-0.56-0.791-0.9s-0.306-0.742-0.306-1.207c0-0.556,0.113-1.031,0.34-1.428
	c0.227-0.397,0.516-0.717,0.867-0.961c0.351-0.243,0.745-0.422,1.182-0.535c0.436-0.113,0.864-0.17,1.283-0.17
	c0.624,0,1.258,0.107,1.904,0.322c0.646,0.216,1.207,0.505,1.683,0.867L49.504,28.672z"/>
<path fill="#FFFFFF" stroke="#000000" stroke-miterlimit="10" d="M58.889,21.974h2.617v14.5h-2.617V21.974z"/>
<path fill="#FFFFFF" stroke="#000000" stroke-miterlimit="10" d="M69.02,25.935c0.725,0,1.402,0.122,2.031,0.366
	c0.629,0.243,1.176,0.598,1.641,1.063s0.83,1.037,1.097,1.717s0.399,1.456,0.399,2.33c0,0.861-0.133,1.623-0.399,2.285
	c-0.267,0.664-0.632,1.223-1.097,1.676s-1.012,0.799-1.641,1.037c-0.629,0.236-1.307,0.355-2.031,0.355
	c-0.816,0-1.541-0.145-2.176-0.434s-1.164-0.68-1.59-1.172c-0.425-0.494-0.748-1.063-0.969-1.709s-0.332-1.326-0.332-2.039
	c0-0.884,0.131-1.667,0.392-2.347c0.261-0.68,0.62-1.252,1.079-1.717c0.459-0.464,0.994-0.815,1.607-1.054
	C67.643,26.054,68.306,25.935,69.02,25.935z M69.02,27.856c-0.328,0-0.646,0.083-0.952,0.247s-0.572,0.399-0.799,0.705
	c-0.228,0.307-0.408,0.681-0.544,1.122c-0.137,0.442-0.204,0.936-0.204,1.48c0,0.408,0.057,0.814,0.17,1.223
	s0.274,0.777,0.485,1.105c0.209,0.328,0.469,0.598,0.781,0.809c0.312,0.209,0.666,0.314,1.063,0.314c0.42,0,0.787-0.105,1.105-0.314
	c0.316-0.211,0.586-0.48,0.807-0.809s0.389-0.697,0.502-1.105s0.17-0.814,0.17-1.223c0-0.431-0.054-0.859-0.162-1.285
	c-0.107-0.425-0.269-0.804-0.484-1.139c-0.215-0.334-0.484-0.606-0.807-0.815C69.827,27.961,69.45,27.856,69.02,27.856z"/>
<path fill="#FFFFFF" stroke="#000000" stroke-miterlimit="10" d="M84.915,35.234c-0.544,0.545-1.156,0.932-1.836,1.164
	c-0.681,0.232-1.377,0.35-2.091,0.35c-0.782,0-1.502-0.143-2.159-0.426s-1.228-0.666-1.708-1.146
	c-0.482-0.482-0.856-1.053-1.123-1.709c-0.266-0.658-0.398-1.361-0.398-2.107c0-0.817,0.135-1.562,0.407-2.237
	c0.272-0.674,0.651-1.249,1.14-1.726c0.486-0.476,1.064-0.847,1.733-1.113c0.669-0.266,1.394-0.399,2.177-0.399
	c0.668,0,1.291,0.103,1.869,0.306c0.578,0.204,1.179,0.511,1.803,0.919l-1.088,1.666c-0.397-0.261-0.828-0.477-1.293-0.646
	s-0.895-0.255-1.291-0.255c-0.397,0-0.766,0.085-1.105,0.255s-0.641,0.408-0.901,0.714s-0.465,0.675-0.612,1.105
	c-0.146,0.431-0.221,0.906-0.221,1.427c0,0.545,0.088,1.02,0.264,1.428s0.399,0.754,0.672,1.037
	c0.271,0.283,0.578,0.496,0.918,0.639c0.34,0.141,0.674,0.211,1.002,0.211c0.193,0,0.4-0.014,0.621-0.041
	c0.221-0.029,0.445-0.082,0.672-0.162c0.227-0.078,0.45-0.188,0.672-0.322c0.221-0.137,0.433-0.313,0.637-0.527L84.915,35.234z"/>
<path fill="#FFFFFF" stroke="#000000" stroke-miterlimit="10" d="M87.057,21.974h2.602v7.446l3.332-3.247h3.179l-4.301,4.25
	l4.317,6.036h-2.94l-3.095-4.354L89.658,32.6v3.875h-2.602V21.974z"/>
<g>
</g>
<g>
</g>
<g>
</g>
<g>
</g>
<g>
</g>
<g>
</g>
<g>
</g>
<g>
</g>
<g>
</g>
<g>
</g>
<g>
</g>
<g>
</g>
<g>
</g>
<g>
</g>
<g>
</g>
</svg>
