<?xml version="1.0" encoding="utf-8"?>
<!-- Generator: Adobe Illustrator 16.0.0, SVG Export Plug-In . SVG Version: 6.00 Build 0)  -->
<!DOCTYPE svg PUBLIC "-//W3C//DTD SVG 1.1//EN" "http://www.w3.org/Graphics/SVG/1.1/DTD/svg11.dtd">
<svg version="1.1" id="레이어_1" xmlns="http://www.w3.org/2000/svg" xmlns:xlink="http://www.w3.org/1999/xlink" x="0px"
	 y="0px" width="60px" height="60px" viewBox="0 0 60 60" enable-background="new 0 0 60 60" xml:space="preserve">
<path fill="#FFFFFF" stroke="#000000" stroke-miterlimit="10" d="M32.324,35.725c-0.16,0.293-0.363,0.558-0.609,0.791
	c-0.248,0.232-0.51,0.43-0.791,0.59c-0.279,0.16-0.577,0.283-0.89,0.369c-0.313,0.088-0.617,0.131-0.91,0.131
	c-0.667,0-1.28-0.1-1.84-0.301c-0.56-0.199-1.043-0.496-1.45-0.889c-0.407-0.395-0.724-0.881-0.95-1.461
	c-0.226-0.58-0.34-1.25-0.34-2.01v-7.8h3.06v7.58c0,0.4,0.06,0.758,0.18,1.07c0.12,0.314,0.273,0.578,0.46,0.791
	s0.403,0.373,0.65,0.479c0.247,0.107,0.503,0.16,0.77,0.16c0.413,0,0.783-0.076,1.109-0.229c0.328-0.154,0.606-0.363,0.84-0.631
	c0.234-0.266,0.41-0.584,0.531-0.949c0.119-0.367,0.18-0.764,0.18-1.191v-7.08h3.1v12.121h-3.1V35.725z"/>
</svg>
