<?xml version="1.0" encoding="utf-8"?>
<!-- Generator: Adobe Illustrator 16.0.0, SVG Export Plug-In . SVG Version: 6.00 Build 0)  -->
<!DOCTYPE svg PUBLIC "-//W3C//DTD SVG 1.1//EN" "http://www.w3.org/Graphics/SVG/1.1/DTD/svg11.dtd">
<svg version="1.1" id="레이어_1" xmlns="http://www.w3.org/2000/svg" xmlns:xlink="http://www.w3.org/1999/xlink" x="0px"
	 y="0px" width="60px" height="34px" viewBox="0 0 60 34" enable-background="new 0 0 60 34" xml:space="preserve">
<path fill="#FFFFFF" stroke="#000000" stroke-miterlimit="10" d="M20.7,12.925v-0.66c0-0.813,0.11-1.5,0.33-2.06
	c0.22-0.561,0.517-1.014,0.89-1.36c0.373-0.347,0.803-0.6,1.29-0.76c0.486-0.16,0.997-0.24,1.53-0.24c0.413,0,0.86,0.05,1.34,0.15
	s0.98,0.303,1.5,0.609l-1.1,2.061c-0.347-0.146-0.647-0.243-0.9-0.29s-0.44-0.07-0.56-0.07c-0.4,0-0.704,0.13-0.91,0.39
	c-0.207,0.261-0.31,0.711-0.31,1.351v0.88h2.38v2.4H23.8v9.939h-3.1v-9.939h-1.56v-2.4L20.7,12.925L20.7,12.925z"/>
<path fill="#FFFFFF" stroke="#000000" stroke-miterlimit="10" d="M29.14,11.345v-2.42h10.74v1.92l-6.159,14.401H30.4l6.1-13.901
	H29.14z"/>
</svg>
