<?xml version="1.0" encoding="utf-8"?>
<!-- Generator: Adobe Illustrator 16.0.0, SVG Export Plug-In . SVG Version: 6.00 Build 0)  -->
<!DOCTYPE svg PUBLIC "-//W3C//DTD SVG 1.1//EN" "http://www.w3.org/Graphics/SVG/1.1/DTD/svg11.dtd">
<svg version="1.1" id="레이어_1" xmlns="http://www.w3.org/2000/svg" xmlns:xlink="http://www.w3.org/1999/xlink" x="0px"
	 y="0px" width="60px" height="60px" viewBox="0 0 60 60" enable-background="new 0 0 60 60" xml:space="preserve">
<path fill="#FFFFFF" stroke="#000000" stroke-miterlimit="10" d="M31.79,24.965h7.64v2.38h-2.9v1.66c0,0.52,0.107,1.047,0.32,1.58
	c0.213,0.534,0.504,1.047,0.871,1.54c0.364,0.494,0.793,0.961,1.278,1.4c0.485,0.438,1.004,0.82,1.551,1.141l-1.899,1.939
	c-0.36-0.213-0.715-0.463-1.062-0.75s-0.677-0.584-0.989-0.892c-0.313-0.307-0.606-0.614-0.879-0.93
	c-0.273-0.313-0.519-0.609-0.73-0.892c-0.227,0.32-0.494,0.648-0.801,0.98c-0.308,0.334-0.627,0.654-0.959,0.961
	c-0.334,0.307-0.668,0.59-1,0.85c-0.334,0.26-0.647,0.478-0.94,0.65c-0.319-0.201-0.657-0.43-1.01-0.691
	c-0.354-0.26-0.7-0.539-1.04-0.84c-0.34-0.299-0.657-0.602-0.95-0.91c-0.293-0.307-0.547-0.604-0.76-0.897
	c-0.44,0.571-0.964,1.166-1.57,1.778c-0.607,0.613-1.283,1.146-2.03,1.601l-1.82-2c0.573-0.332,1.104-0.717,1.59-1.149
	c0.486-0.433,0.9-0.894,1.24-1.379c0.34-0.486,0.607-0.994,0.8-1.521c0.193-0.527,0.29-1.051,0.29-1.57v-1.66h-2.86v-2.38h7.54v2.38
	h-1.58v1.86c0,0.387,0.063,0.763,0.19,1.13c0.126,0.367,0.29,0.728,0.49,1.081c0.2,0.354,0.43,0.689,0.69,1.01s0.523,0.619,0.79,0.9
	c0.267-0.281,0.526-0.58,0.78-0.9c0.252-0.32,0.479-0.656,0.68-1.01s0.363-0.717,0.49-1.09s0.189-0.747,0.189-1.12v-1.86h-1.641
	L31.79,24.965L31.79,24.965z"/>
</svg>
