<?xml version="1.0" encoding="utf-8"?>
<!-- Generator: Adobe Illustrator 16.0.0, SVG Export Plug-In . SVG Version: 6.00 Build 0)  -->
<!DOCTYPE svg PUBLIC "-//W3C//DTD SVG 1.1//EN" "http://www.w3.org/Graphics/SVG/1.1/DTD/svg11.dtd">
<svg version="1.1" id="레이어_1" xmlns="http://www.w3.org/2000/svg" xmlns:xlink="http://www.w3.org/1999/xlink" x="0px"
	 y="0px" width="60px" height="34px" viewBox="0 0 60 34" enable-background="new 0 0 60 34" xml:space="preserve">
<path fill="#FFFFFF" stroke="#000000" stroke-miterlimit="10" d="M18.359,24.475H8.601V10.348h9.554v2.058h-6.936v3.723h6.613v2.057
	h-6.613v4.217h7.14V24.475z"/>
<path fill="#FFFFFF" stroke="#000000" stroke-miterlimit="10" d="M26.094,16.672c-0.159-0.113-0.337-0.218-0.536-0.314
	c-0.198-0.096-0.399-0.179-0.604-0.246c-0.204-0.068-0.399-0.122-0.586-0.162c-0.187-0.039-0.337-0.06-0.45-0.06
	c-0.408,0-0.717,0.08-0.927,0.238c-0.21,0.159-0.314,0.374-0.314,0.646c0,0.146,0.051,0.288,0.153,0.425
	c0.102,0.136,0.238,0.267,0.408,0.391c0.17,0.125,0.365,0.25,0.586,0.374c0.221,0.125,0.456,0.249,0.706,0.374
	c0.385,0.205,0.765,0.408,1.139,0.613c0.374,0.203,0.708,0.43,1.003,0.68c0.294,0.248,0.529,0.533,0.706,0.85
	c0.175,0.316,0.263,0.687,0.263,1.105c0,0.611-0.122,1.121-0.365,1.529c-0.244,0.408-0.553,0.73-0.927,0.969
	c-0.374,0.239-0.782,0.408-1.224,0.51c-0.442,0.104-0.855,0.154-1.241,0.154c-0.68,0-1.397-0.135-2.15-0.4
	c-0.754-0.266-1.465-0.723-2.134-1.369l1.394-1.699c0.227,0.228,0.465,0.427,0.714,0.597c0.25,0.17,0.496,0.312,0.74,0.424
	c0.244,0.113,0.476,0.201,0.697,0.265c0.221,0.063,0.417,0.094,0.587,0.094c0.43,0,0.75-0.094,0.96-0.281
	c0.209-0.186,0.314-0.416,0.314-0.688c0-0.316-0.147-0.566-0.442-0.748c-0.295-0.183-0.68-0.392-1.156-0.629
	c-0.385-0.193-0.773-0.392-1.165-0.597c-0.391-0.202-0.748-0.437-1.071-0.696c-0.323-0.261-0.586-0.562-0.791-0.9
	c-0.204-0.34-0.306-0.742-0.306-1.207c0-0.556,0.113-1.031,0.34-1.428s0.516-0.717,0.867-0.961c0.351-0.243,0.745-0.422,1.182-0.535
	c0.436-0.113,0.864-0.17,1.283-0.17c0.624,0,1.258,0.107,1.904,0.322c0.646,0.216,1.207,0.505,1.683,0.867L26.094,16.672z"/>
<path fill="#FFFFFF" stroke="#000000" stroke-miterlimit="10" d="M38.367,23.234c-0.543,0.545-1.156,0.932-1.836,1.164
	c-0.68,0.231-1.377,0.35-2.092,0.35c-0.781,0-1.5-0.143-2.158-0.426c-0.657-0.283-1.227-0.666-1.708-1.146
	c-0.482-0.482-0.856-1.053-1.122-1.709c-0.267-0.658-0.399-1.361-0.399-2.107c0-0.815,0.136-1.562,0.408-2.236
	c0.272-0.674,0.652-1.249,1.14-1.726c0.486-0.476,1.064-0.847,1.732-1.113c0.669-0.266,1.395-0.399,2.177-0.399
	c0.669,0,1.292,0.103,1.87,0.306c0.578,0.204,1.178,0.511,1.803,0.919l-1.089,1.666c-0.397-0.261-0.827-0.477-1.292-0.646
	s-0.896-0.255-1.292-0.255c-0.397,0-0.765,0.085-1.104,0.255s-0.641,0.408-0.901,0.714c-0.26,0.306-0.465,0.676-0.61,1.105
	c-0.147,0.431-0.222,0.906-0.222,1.427c0,0.545,0.088,1.021,0.265,1.429c0.176,0.407,0.397,0.754,0.67,1.036
	c0.273,0.283,0.578,0.496,0.918,0.64c0.342,0.141,0.676,0.211,1.004,0.211c0.193,0,0.399-0.015,0.621-0.041
	c0.221-0.029,0.443-0.082,0.67-0.162c0.228-0.078,0.451-0.188,0.673-0.322c0.221-0.137,0.433-0.313,0.638-0.527L38.367,23.234z"/>
</svg>
