<?xml version="1.0" encoding="utf-8"?>
<!-- Generator: Adobe Illustrator 16.0.0, SVG Export Plug-In . SVG Version: 6.00 Build 0)  -->
<!DOCTYPE svg PUBLIC "-//W3C//DTD SVG 1.1//EN" "http://www.w3.org/Graphics/SVG/1.1/DTD/svg11.dtd">
<svg version="1.1" id="레이어_1" xmlns="http://www.w3.org/2000/svg" xmlns:xlink="http://www.w3.org/1999/xlink" x="0px"
	 y="0px" width="60px" height="60px" viewBox="0 0 60 60" enable-background="new 0 0 60 60" xml:space="preserve">
<path fill="#FFFFFF" stroke="#000000" stroke-miterlimit="10" d="M38.04,30.302c0,0.826-0.173,1.609-0.521,2.351
	c-0.348,0.74-0.84,1.392-1.479,1.949c-0.64,0.561-1.407,1.008-2.3,1.34c-0.895,0.334-1.881,0.5-2.961,0.5
	c-1.079,0-2.066-0.166-2.959-0.5c-0.894-0.332-1.66-0.778-2.3-1.34c-0.64-0.56-1.137-1.209-1.49-1.949
	c-0.354-0.739-0.53-1.522-0.53-2.351c0-0.813,0.176-1.59,0.53-2.33c0.353-0.74,0.85-1.391,1.49-1.95c0.64-0.56,1.406-1.007,2.3-1.34
	c0.893-0.333,1.88-0.5,2.959-0.5c1.094,0,2.088,0.167,2.979,0.5c0.895,0.333,1.657,0.78,2.291,1.34
	c0.635,0.56,1.123,1.21,1.471,1.95C37.867,28.712,38.04,29.488,38.04,30.302z M34.98,30.302c0-0.507-0.107-0.986-0.32-1.44
	c-0.213-0.453-0.508-0.85-0.881-1.189c-0.373-0.341-0.816-0.61-1.329-0.811c-0.513-0.201-1.069-0.3-1.671-0.3
	c-0.612,0-1.179,0.1-1.699,0.3c-0.52,0.2-0.967,0.47-1.34,0.811c-0.374,0.34-0.664,0.736-0.87,1.189
	c-0.207,0.454-0.31,0.934-0.31,1.44c0,0.507,0.107,0.99,0.32,1.45s0.506,0.859,0.88,1.199c0.373,0.341,0.816,0.609,1.33,0.811
	c0.513,0.2,1.077,0.301,1.689,0.301c0.602,0,1.154-0.101,1.66-0.301c0.508-0.199,0.951-0.47,1.33-0.811
	c0.381-0.34,0.678-0.739,0.891-1.199S34.98,30.809,34.98,30.302z"/>
</svg>
