<?xml version="1.0" encoding="utf-8"?>
<!-- Generator: Adobe Illustrator 16.0.0, SVG Export Plug-In . SVG Version: 6.00 Build 0)  -->
<!DOCTYPE svg PUBLIC "-//W3C//DTD SVG 1.1//EN" "http://www.w3.org/Graphics/SVG/1.1/DTD/svg11.dtd">
<svg version="1.1" id="레이어_1" xmlns="http://www.w3.org/2000/svg" xmlns:xlink="http://www.w3.org/1999/xlink" x="0px"
	 y="0px" width="141px" height="60px" viewBox="0 0 141 60" enable-background="new 0 0 141 60" xml:space="preserve">
<path fill="#FFFFFF" stroke="#000000" stroke-miterlimit="10" d="M93.455,36.475h-9.758V22.348h9.553v2.058h-6.936v3.723h6.613
	v2.057h-6.613v4.217h7.141V36.475z"/>
<path fill="#FFFFFF" stroke="#000000" stroke-miterlimit="10" d="M98.299,27.483c0.283-0.487,0.681-0.876,1.19-1.165
	c0.511-0.289,1.021-0.434,1.53-0.434c0.566,0,1.088,0.085,1.564,0.255c0.476,0.17,0.887,0.423,1.232,0.757s0.614,0.748,0.807,1.241
	c0.193,0.493,0.289,1.063,0.289,1.708v6.629h-2.601v-6.442c0-0.34-0.052-0.644-0.153-0.91c-0.102-0.266-0.232-0.489-0.391-0.671
	c-0.159-0.182-0.346-0.317-0.561-0.408c-0.216-0.091-0.432-0.136-0.646-0.136c-0.352,0-0.666,0.065-0.943,0.195
	s-0.516,0.309-0.715,0.535c-0.197,0.228-0.348,0.496-0.449,0.808c-0.103,0.312-0.154,0.649-0.154,1.012v6.017h-2.635V26.173h2.635
	V27.483z"/>
<path fill="#FFFFFF" stroke="#000000" stroke-miterlimit="10" d="M108.109,23.725l2.635-0.833v3.265h2.363v2.04h-2.363v4.93
	c0,0.316,0.064,0.572,0.195,0.764c0.13,0.193,0.303,0.344,0.518,0.451c0.216,0.107,0.46,0.182,0.732,0.221
	c0.271,0.041,0.549,0.061,0.832,0.061v2.09c-0.714,0.08-1.374,0.07-1.98-0.025c-0.605-0.096-1.125-0.285-1.555-0.568
	c-0.432-0.283-0.769-0.654-1.012-1.113c-0.244-0.459-0.365-1.012-0.365-1.658v-5.151h-1.615v-2.04h1.615V23.725z"/>
<path fill="#FFFFFF" stroke="#000000" stroke-miterlimit="10" d="M123.697,35.336c-0.566,0.5-1.179,0.855-1.836,1.072
	c-0.658,0.215-1.406,0.328-2.244,0.34c-0.781,0-1.496-0.113-2.143-0.34c-0.646-0.229-1.197-0.568-1.656-1.021
	s-0.814-1.008-1.063-1.666c-0.25-0.656-0.375-1.41-0.375-2.26c0-0.839,0.116-1.598,0.349-2.279c0.232-0.68,0.563-1.258,0.995-1.733
	c0.43-0.477,0.954-0.845,1.572-1.105c0.617-0.261,1.317-0.391,2.1-0.391c0.759,0,1.434,0.133,2.023,0.399
	c0.588,0.267,1.084,0.635,1.486,1.104c0.402,0.471,0.709,1.021,0.918,1.649c0.21,0.629,0.309,1.307,0.298,2.031
	c0,0.148-0.009,0.324-0.025,0.527c-0.017,0.205-0.037,0.387-0.06,0.545h-7.004c0.045,0.498,0.158,0.908,0.34,1.232
	c0.182,0.322,0.4,0.578,0.654,0.764c0.256,0.188,0.529,0.32,0.824,0.4s0.584,0.119,0.867,0.119c0.227,0,0.468-0.018,0.723-0.051
	c0.256-0.035,0.508-0.092,0.757-0.17c0.249-0.08,0.484-0.184,0.706-0.314c0.221-0.131,0.41-0.287,0.568-0.469L123.697,35.336z
	 M121.59,30.237c-0.012-0.329-0.08-0.635-0.205-0.918s-0.291-0.53-0.501-0.74c-0.21-0.209-0.45-0.374-0.723-0.493
	c-0.272-0.118-0.55-0.178-0.833-0.178c-0.271,0-0.541,0.06-0.808,0.178c-0.267,0.119-0.507,0.284-0.722,0.493
	c-0.216,0.21-0.392,0.457-0.527,0.74c-0.137,0.283-0.21,0.589-0.221,0.918H121.59z"/>
<path fill="#FFFFFF" stroke="#000000" stroke-miterlimit="10" d="M129.035,27.738c0.17-0.295,0.395-0.567,0.672-0.816
	s0.586-0.459,0.926-0.629s0.697-0.289,1.072-0.357c0.373-0.067,0.747-0.062,1.121,0.018v2.21c-0.396-0.068-0.816-0.068-1.258,0
	c-0.441,0.067-0.85,0.201-1.225,0.399c-0.373,0.198-0.686,0.468-0.935,0.808s-0.374,0.754-0.374,1.241v5.864h-2.617V26.173h2.617
	V27.738z"/>
<g>
</g>
<g>
</g>
<g>
</g>
<g>
</g>
<g>
</g>
<g>
</g>
<g>
</g>
<g>
</g>
<g>
</g>
<g>
</g>
<g>
</g>
<g>
</g>
<g>
</g>
<g>
</g>
<g>
</g>
</svg>
