<?xml version="1.0" encoding="utf-8"?>
<!-- Generator: Adobe Illustrator 16.0.0, SVG Export Plug-In . SVG Version: 6.00 Build 0)  -->
<!DOCTYPE svg PUBLIC "-//W3C//DTD SVG 1.1//EN" "http://www.w3.org/Graphics/SVG/1.1/DTD/svg11.dtd">
<svg version="1.1" id="레이어_1" xmlns="http://www.w3.org/2000/svg" xmlns:xlink="http://www.w3.org/1999/xlink" x="0px"
	 y="0px" width="60px" height="60px" viewBox="0 0 60 60" enable-background="new 0 0 60 60" xml:space="preserve">
<path fill="#FFFFFF" stroke="#000000" stroke-miterlimit="10" d="M30.62,26.607h-3.48v-3.181c0-0.333,0.057-0.683,0.17-1.05
	c0.113-0.366,0.276-0.723,0.49-1.07c0.213-0.346,0.47-0.676,0.77-0.989c0.3-0.313,0.643-0.583,1.03-0.811l0.8,0.721
	c-0.6,0.467-1.027,0.939-1.28,1.42c-0.253,0.479-0.347,1.047-0.28,1.699h1.78V26.607z M35.66,26.607h-3.48v-3.181
	c0-0.333,0.057-0.683,0.17-1.05c0.113-0.366,0.277-0.723,0.49-1.07c0.213-0.346,0.471-0.676,0.77-0.989
	c0.302-0.313,0.645-0.583,1.031-0.811l0.799,0.721c-0.6,0.467-1.025,0.939-1.278,1.42c-0.254,0.479-0.349,1.047-0.28,1.699h1.78
	L35.66,26.607L35.66,26.607z"/>
</svg>
