<?xml version="1.0" encoding="utf-8"?>
<!-- Generator: Adobe Illustrator 16.0.0, SVG Export Plug-In . SVG Version: 6.00 Build 0)  -->
<!DOCTYPE svg PUBLIC "-//W3C//DTD SVG 1.1//EN" "http://www.w3.org/Graphics/SVG/1.1/DTD/svg11.dtd">
<svg version="1.1" id="레이어_1" xmlns="http://www.w3.org/2000/svg" xmlns:xlink="http://www.w3.org/1999/xlink" x="0px"
	 y="0px" width="60px" height="60px" viewBox="0 0 60 60" enable-background="new 0 0 60 60" xml:space="preserve">
<path fill="#FFFFFF" stroke="#000000" stroke-miterlimit="10" d="M30.95,24.866c0.854,0,1.649,0.143,2.39,0.43
	s1.385,0.703,1.932,1.25c0.545,0.547,0.977,1.22,1.289,2.02c0.313,0.801,0.471,1.714,0.471,2.741c0,1.014-0.157,1.909-0.471,2.69
	c-0.313,0.778-0.744,1.437-1.289,1.969c-0.547,0.533-1.19,0.941-1.932,1.222c-0.738,0.278-1.535,0.42-2.39,0.42
	c-0.96,0-1.813-0.17-2.56-0.51c-0.747-0.341-1.37-0.802-1.87-1.382s-0.88-1.25-1.14-2.01c-0.26-0.761-0.39-1.562-0.39-2.399
	c0-1.041,0.153-1.959,0.46-2.76c0.307-0.8,0.73-1.474,1.27-2.021c0.54-0.546,1.17-0.96,1.89-1.239
	C29.331,25.005,30.11,24.866,30.95,24.866z M30.95,27.125c-0.388,0-0.76,0.097-1.12,0.29s-0.674,0.47-0.94,0.83
	c-0.267,0.359-0.48,0.8-0.64,1.319c-0.16,0.521-0.24,1.101-0.24,1.741c0,0.479,0.067,0.961,0.2,1.44s0.323,0.912,0.57,1.299
	c0.247,0.388,0.553,0.703,0.92,0.951c0.367,0.246,0.783,0.369,1.25,0.369c0.493,0,0.927-0.123,1.3-0.369
	c0.373-0.248,0.689-0.563,0.95-0.951c0.261-0.387,0.456-0.819,0.591-1.299c0.133-0.479,0.199-0.961,0.199-1.44
	c0-0.507-0.063-1.01-0.189-1.51c-0.127-0.5-0.316-0.946-0.57-1.34s-0.569-0.714-0.949-0.96C31.9,27.249,31.457,27.125,30.95,27.125z
	"/>
</svg>
