<?xml version="1.0" encoding="utf-8"?>
<!-- Generator: Adobe Illustrator 16.0.0, SVG Export Plug-In . SVG Version: 6.00 Build 0)  -->
<!DOCTYPE svg PUBLIC "-//W3C//DTD SVG 1.1//EN" "http://www.w3.org/Graphics/SVG/1.1/DTD/svg11.dtd">
<svg version="1.1" id="레이어_1" xmlns="http://www.w3.org/2000/svg" xmlns:xlink="http://www.w3.org/1999/xlink" x="0px"
	 y="0px" width="60px" height="60px" viewBox="0 0 60 60" enable-background="new 0 0 60 60" xml:space="preserve">
<path fill="#FFFFFF" stroke="#000000" stroke-miterlimit="10" d="M37.604,20.645v11.121c0,0.92-0.162,1.736-0.489,2.449
	c-0.327,0.715-0.78,1.314-1.36,1.801c-0.58,0.487-1.26,0.859-2.039,1.119s-1.624,0.391-2.529,0.391
	c-0.908,0-1.757-0.127-2.551-0.381c-0.793-0.252-1.483-0.623-2.07-1.108c-0.587-0.486-1.047-1.086-1.38-1.802
	c-0.333-0.713-0.5-1.528-0.5-2.448v-11.14h3.08v10.661c0,1.135,0.313,2.022,0.94,2.67c0.626,0.647,1.453,0.971,2.48,0.971
	c1.013,0,1.828-0.326,2.449-0.98c0.619-0.652,0.93-1.547,0.93-2.68v-10.64h3.039V20.645z"/>
</svg>
