<?xml version="1.0" encoding="utf-8"?>
<!-- Generator: Adobe Illustrator 16.0.0, SVG Export Plug-In . SVG Version: 6.00 Build 0)  -->
<!DOCTYPE svg PUBLIC "-//W3C//DTD SVG 1.1//EN" "http://www.w3.org/Graphics/SVG/1.1/DTD/svg11.dtd">
<svg version="1.1" id="레이어_1" xmlns="http://www.w3.org/2000/svg" xmlns:xlink="http://www.w3.org/1999/xlink" x="0px"
	 y="0px" width="60px" height="60px" viewBox="0 0 60 60" enable-background="new 0 0 60 60" xml:space="preserve">
<path fill="#FFFFFF" stroke="#000000" stroke-miterlimit="10" d="M29.92,24.845c0.76,0,1.406,0.17,1.939,0.51s0.975,0.797,1.32,1.37
	v-6.52h3.079v17.061H33.18v-1.4c-0.334,0.506-0.761,0.92-1.279,1.24c-0.52,0.319-1.18,0.479-1.98,0.479
	c-1.747,0-3.047-0.545-3.9-1.631c-0.854-1.086-1.28-2.644-1.28-4.67c0-0.959,0.106-1.836,0.32-2.629
	c0.213-0.794,0.537-1.471,0.97-2.03c0.433-0.561,0.973-0.997,1.62-1.311C28.297,25.002,29.053,24.845,29.92,24.845z M30.48,27.166
	c-0.494,0-0.91,0.116-1.25,0.35c-0.34,0.233-0.617,0.544-0.83,0.93c-0.213,0.388-0.367,0.824-0.46,1.311
	c-0.094,0.486-0.14,0.983-0.14,1.491c0,0.479,0.053,0.959,0.16,1.439c0.106,0.479,0.27,0.914,0.49,1.299
	c0.22,0.389,0.497,0.705,0.83,0.951s0.733,0.369,1.2,0.369c0.454,0,0.85-0.105,1.189-0.32c0.34-0.213,0.623-0.502,0.851-0.869
	s0.395-0.797,0.5-1.289c0.106-0.494,0.16-1.021,0.16-1.58v-0.201c-0.027-1.306-0.293-2.28-0.8-2.919
	C31.873,27.485,31.24,27.166,30.48,27.166z"/>
</svg>
