<?xml version="1.0" encoding="utf-8"?>
<!-- Generator: Adobe Illustrator 16.0.0, SVG Export Plug-In . SVG Version: 6.00 Build 0)  -->
<!DOCTYPE svg PUBLIC "-//W3C//DTD SVG 1.1//EN" "http://www.w3.org/Graphics/SVG/1.1/DTD/svg11.dtd">
<svg version="1.1" id="레이어_1" xmlns="http://www.w3.org/2000/svg" xmlns:xlink="http://www.w3.org/1999/xlink" x="0px"
	 y="0px" width="60px" height="60px" viewBox="0 0 60 60" enable-background="new 0 0 60 60" xml:space="preserve">
<path fill="#FFFFFF" stroke="#000000" stroke-miterlimit="10" d="M34.33,32.646c0.199-0.692,0.34-1.646,0.42-2.859h2.939
	c-0.026,0.387-0.072,0.816-0.14,1.29c-0.067,0.473-0.157,0.948-0.271,1.43c-0.114,0.479-0.243,0.938-0.391,1.38
	c-0.146,0.44-0.313,0.813-0.5,1.12l2.92,3.22h-3.779l-1.041-1.22c-0.652,0.479-1.387,0.866-2.199,1.16
	c-0.813,0.293-1.641,0.438-2.48,0.438c-0.733,0-1.433-0.108-2.1-0.33c-0.667-0.219-1.25-0.535-1.75-0.948s-0.896-0.917-1.19-1.511
	c-0.293-0.594-0.433-1.264-0.42-2.01c0.013-0.561,0.103-1.063,0.27-1.511c0.167-0.446,0.393-0.854,0.68-1.22
	c0.287-0.367,0.623-0.703,1.01-1.011c0.387-0.307,0.813-0.593,1.28-0.859c-0.507-0.641-0.867-1.224-1.08-1.75
	c-0.213-0.526-0.327-1.017-0.34-1.471c-0.027-0.666,0.076-1.256,0.31-1.77c0.233-0.513,0.557-0.943,0.97-1.29
	c0.413-0.347,0.903-0.61,1.47-0.79c0.566-0.18,1.183-0.27,1.851-0.27c0.6,0,1.172,0.093,1.719,0.279
	c0.548,0.188,1.027,0.45,1.439,0.79c0.414,0.34,0.744,0.744,0.99,1.21c0.246,0.467,0.37,0.987,0.37,1.561
	c0,0.547-0.09,1.029-0.271,1.45c-0.181,0.42-0.427,0.797-0.74,1.13c-0.313,0.333-0.676,0.633-1.09,0.899
	c-0.412,0.268-0.854,0.527-1.319,0.78L34.33,32.646z M29.37,31.166c-0.24,0.146-0.48,0.311-0.72,0.49
	c-0.24,0.18-0.454,0.38-0.64,0.6c-0.187,0.221-0.344,0.467-0.47,0.74c-0.127,0.273-0.19,0.568-0.19,0.89
	c0,0.347,0.066,0.663,0.2,0.95c0.133,0.287,0.316,0.53,0.55,0.729c0.233,0.201,0.497,0.357,0.79,0.472
	c0.293,0.112,0.593,0.17,0.9,0.17c0.48,0,0.987-0.097,1.521-0.29s1.014-0.463,1.439-0.811L29.37,31.166z M29.15,25.985
	c0.026,0.24,0.11,0.53,0.25,0.87s0.383,0.73,0.73,1.17c0.28-0.133,0.546-0.27,0.8-0.409c0.254-0.141,0.477-0.301,0.67-0.48
	c0.192-0.179,0.348-0.383,0.461-0.61c0.112-0.227,0.17-0.486,0.17-0.779c0-0.493-0.135-0.887-0.4-1.181
	c-0.268-0.293-0.613-0.439-1.04-0.439c-0.453,0-0.85,0.163-1.19,0.49C29.26,24.942,29.11,25.399,29.15,25.985z"/>
</svg>
