<?xml version="1.0" encoding="utf-8"?>
<!-- Generator: Adobe Illustrator 16.0.0, SVG Export Plug-In . SVG Version: 6.00 Build 0)  -->
<!DOCTYPE svg PUBLIC "-//W3C//DTD SVG 1.1//EN" "http://www.w3.org/Graphics/SVG/1.1/DTD/svg11.dtd">
<svg version="1.1" id="레이어_1" xmlns="http://www.w3.org/2000/svg" xmlns:xlink="http://www.w3.org/1999/xlink" x="0px"
	 y="0px" width="60px" height="60px" viewBox="0 0 60 60" enable-background="new 0 0 60 60" xml:space="preserve">
<path fill="#FFFFFF" stroke="#000000" stroke-miterlimit="10" d="M33.721,23.985c-0.813,0.16-1.537,0.374-2.17,0.641
	c-0.634,0.267-1.188,0.58-1.661,0.939c-0.473,0.36-0.88,0.761-1.22,1.2c-0.34,0.44-0.63,0.914-0.87,1.42
	c0.4-0.2,0.83-0.33,1.29-0.39c0.46-0.061,0.917-0.09,1.37-0.09c0.813,0,1.54,0.146,2.181,0.439c0.641,0.294,1.18,0.684,1.619,1.17
	c0.44,0.487,0.777,1.051,1.01,1.691c0.234,0.64,0.352,1.3,0.352,1.979c0,0.801-0.141,1.547-0.42,2.24
	c-0.28,0.692-0.67,1.291-1.17,1.791s-1.098,0.893-1.79,1.18c-0.693,0.287-1.46,0.43-2.3,0.43c-1.027,0-1.907-0.18-2.64-0.539
	c-0.733-0.361-1.333-0.852-1.8-1.471s-0.81-1.336-1.03-2.15c-0.22-0.813-0.33-1.68-0.33-2.6c0-1.2,0.197-2.363,0.59-3.49
	c0.394-1.127,0.977-2.153,1.75-3.08c0.773-0.927,1.733-1.713,2.88-2.36c1.146-0.646,2.466-1.083,3.959-1.31L33.721,23.985z
	 M32.48,33.064c0-0.865-0.203-1.576-0.61-2.129c-0.407-0.554-1.037-0.831-1.89-0.831c-0.52,0-1.023,0.09-1.51,0.271
	c-0.487,0.181-0.903,0.483-1.25,0.91c-0.093,0.562-0.11,1.131-0.05,1.711s0.2,1.108,0.42,1.59c0.22,0.479,0.517,0.869,0.89,1.17
	c0.374,0.3,0.833,0.449,1.38,0.449c0.413,0,0.783-0.08,1.111-0.24c0.326-0.159,0.603-0.379,0.83-0.659
	c0.227-0.279,0.396-0.613,0.51-1C32.425,33.919,32.48,33.506,32.48,33.064z"/>
</svg>
