<?xml version="1.0" encoding="utf-8"?>
<!-- Generator: Adobe Illustrator 16.0.0, SVG Export Plug-In . SVG Version: 6.00 Build 0)  -->
<!DOCTYPE svg PUBLIC "-//W3C//DTD SVG 1.1//EN" "http://www.w3.org/Graphics/SVG/1.1/DTD/svg11.dtd">
<svg version="1.1" id="레이어_1" xmlns="http://www.w3.org/2000/svg" xmlns:xlink="http://www.w3.org/1999/xlink" x="0px"
	 y="0px" width="60px" height="60px" viewBox="0 0 60 60" enable-background="new 0 0 60 60" xml:space="preserve">
<path fill="#FFFFFF" stroke="#000000" stroke-miterlimit="10" d="M28.67,27.685c0.333-0.573,0.8-1.029,1.4-1.37
	c0.6-0.34,1.2-0.51,1.8-0.51c0.667,0,1.28,0.101,1.84,0.3c0.56,0.2,1.044,0.497,1.45,0.891s0.723,0.88,0.949,1.46
	c0.226,0.58,0.341,1.25,0.341,2.01v7.8h-3.06v-7.58c0-0.399-0.062-0.756-0.182-1.069s-0.273-0.577-0.46-0.79
	c-0.188-0.214-0.406-0.373-0.66-0.48c-0.254-0.106-0.507-0.16-0.76-0.16c-0.414,0-0.784,0.077-1.11,0.23
	c-0.327,0.153-0.607,0.363-0.84,0.63s-0.41,0.583-0.53,0.95c-0.12,0.366-0.18,0.763-0.18,1.189v7.08h-3.1V26.145h3.1L28.67,27.685
	L28.67,27.685z"/>
</svg>
