<?xml version="1.0" encoding="utf-8"?>
<!-- Generator: Adobe Illustrator 16.0.0, SVG Export Plug-In . SVG Version: 6.00 Build 0)  -->
<!DOCTYPE svg PUBLIC "-//W3C//DTD SVG 1.1//EN" "http://www.w3.org/Graphics/SVG/1.1/DTD/svg11.dtd">
<svg version="1.1" id="레이어_1" xmlns="http://www.w3.org/2000/svg" xmlns:xlink="http://www.w3.org/1999/xlink" x="0px"
	 y="0px" width="60px" height="34px" viewBox="0 0 60 34" enable-background="new 0 0 60 34" xml:space="preserve">
<path fill="#FFFFFF" stroke="#000000" stroke-miterlimit="10" d="M20.47,12.925v-0.66c0-0.813,0.11-1.5,0.33-2.06
	c0.22-0.561,0.517-1.014,0.89-1.36c0.373-0.347,0.803-0.6,1.29-0.76c0.486-0.16,0.997-0.24,1.53-0.24c0.413,0,0.86,0.05,1.34,0.15
	s0.98,0.303,1.5,0.609l-1.1,2.061c-0.347-0.146-0.647-0.243-0.9-0.29s-0.44-0.07-0.56-0.07c-0.4,0-0.704,0.13-0.91,0.39
	c-0.207,0.261-0.31,0.711-0.31,1.351v0.88h2.38v2.4h-2.38v9.939h-3.1v-9.939h-1.56v-2.4L20.47,12.925L20.47,12.925z"/>
<path fill="#FFFFFF" stroke="#000000" stroke-miterlimit="10" d="M28.49,20.545c0-0.48,0.08-0.93,0.24-1.35s0.376-0.812,0.65-1.17
	c0.273-0.36,0.587-0.68,0.94-0.96c0.354-0.279,0.729-0.513,1.13-0.699c-0.279-0.187-0.554-0.403-0.82-0.65
	c-0.267-0.247-0.503-0.521-0.71-0.82s-0.377-0.623-0.51-0.97c-0.134-0.347-0.2-0.72-0.2-1.12c0-0.733,0.146-1.373,0.44-1.92
	c0.294-0.547,0.687-1,1.18-1.36c0.493-0.359,1.061-0.63,1.699-0.81c0.642-0.18,1.302-0.271,1.98-0.271c0.693,0,1.363,0.08,2.01,0.24
	c0.647,0.16,1.217,0.417,1.711,0.771c0.492,0.354,0.89,0.803,1.189,1.35c0.301,0.547,0.449,1.2,0.449,1.96
	c0,0.374-0.063,0.733-0.189,1.08c-0.125,0.347-0.293,0.674-0.5,0.98c-0.207,0.306-0.447,0.587-0.721,0.84s-0.557,0.474-0.85,0.66
	c0.412,0.199,0.803,0.443,1.17,0.729c0.367,0.287,0.688,0.61,0.961,0.97c0.271,0.358,0.488,0.756,0.648,1.188
	c0.159,0.435,0.239,0.892,0.239,1.371c0.015,0.813-0.127,1.529-0.42,2.147c-0.293,0.621-0.703,1.146-1.229,1.57
	c-0.525,0.428-1.156,0.75-1.89,0.971c-0.733,0.222-1.541,0.33-2.42,0.33c-0.881,0-1.7-0.104-2.461-0.311
	c-0.76-0.207-1.417-0.516-1.969-0.93c-0.554-0.414-0.987-0.937-1.3-1.57C28.626,22.162,28.476,21.412,28.49,20.545z M31.609,20.605
	c0,0.387,0.076,0.74,0.229,1.061c0.152,0.318,0.363,0.592,0.63,0.818c0.268,0.229,0.576,0.404,0.93,0.531s0.737,0.188,1.149,0.188
	c0.907,0,1.624-0.24,2.15-0.722c0.526-0.479,0.782-1.11,0.771-1.897c0-0.349-0.08-0.67-0.24-0.971
	c-0.16-0.302-0.377-0.572-0.648-0.82c-0.273-0.246-0.588-0.459-0.939-0.64c-0.354-0.18-0.729-0.323-1.131-0.43
	c-0.348,0.106-0.693,0.25-1.039,0.43c-0.348,0.181-0.658,0.396-0.932,0.648c-0.273,0.254-0.496,0.531-0.67,0.83
	C31.695,19.936,31.609,20.258,31.609,20.605z M32.229,12.845c0.014,0.547,0.237,1,0.67,1.36c0.434,0.359,1.012,0.667,1.729,0.92
	c0.667-0.253,1.201-0.561,1.601-0.92c0.399-0.36,0.602-0.84,0.602-1.44c0-0.32-0.07-0.603-0.211-0.85s-0.32-0.45-0.539-0.61
	c-0.221-0.16-0.467-0.283-0.74-0.37c-0.273-0.086-0.544-0.13-0.811-0.13c-0.24,0-0.496,0.04-0.771,0.12
	c-0.274,0.08-0.522,0.207-0.75,0.38c-0.227,0.174-0.413,0.387-0.561,0.64C32.303,12.199,32.229,12.499,32.229,12.845z"/>
</svg>
