<?xml version="1.0" encoding="utf-8"?>
<!-- Generator: Adobe Illustrator 16.0.0, SVG Export Plug-In . SVG Version: 6.00 Build 0)  -->
<!DOCTYPE svg PUBLIC "-//W3C//DTD SVG 1.1//EN" "http://www.w3.org/Graphics/SVG/1.1/DTD/svg11.dtd">
<svg version="1.1" id="레이어_1" xmlns="http://www.w3.org/2000/svg" xmlns:xlink="http://www.w3.org/1999/xlink" x="0px"
	 y="0px" width="60px" height="60px" viewBox="0 0 60 60" enable-background="new 0 0 60 60" xml:space="preserve">
<path fill="#FFFFFF" stroke="#000000" stroke-miterlimit="10" d="M22.222,30.822c-0.014,0.994-0.125,1.865-0.336,2.615
	c-0.209,0.75-0.504,1.41-0.885,1.979c-0.379,0.569-0.831,1.069-1.354,1.5s-1.104,0.817-1.745,1.164l-1.01-1.08
	c0.619-0.34,1.154-0.687,1.605-1.039c0.449-0.354,0.824-0.729,1.125-1.125c0.299-0.396,0.525-0.823,0.68-1.28
	c0.152-0.455,0.243-0.961,0.27-1.515h-3.22V30.82h4.87V30.822z M24.892,30.143v3.52h1.73v1.25h-1.73v4.971h-1.57v-9.74
	L24.892,30.143L24.892,30.143z"/>
<path fill="#FFFFFF" stroke="#000000" stroke-miterlimit="10" d="M32.021,30.182l-3.42,9.531h-1.62l3.41-9.531H32.021z"/>
<g>
	<path fill="#FFFFFF" stroke="#000000" stroke-miterlimit="10" d="M36.504,23.821h2.756l5.908,15.789h-3.039l-1.463-3.875H35.08
		l-1.482,3.875h-3.021L36.504,23.821z M39.85,33.453l-1.977-5.7l-1.938,5.7H39.85z"/>
</g>
</svg>
