<?xml version="1.0" encoding="utf-8"?>
<!-- Generator: Adobe Illustrator 16.0.0, SVG Export Plug-In . SVG Version: 6.00 Build 0)  -->
<!DOCTYPE svg PUBLIC "-//W3C//DTD SVG 1.1//EN" "http://www.w3.org/Graphics/SVG/1.1/DTD/svg11.dtd">
<svg version="1.1" id="레이어_1" xmlns="http://www.w3.org/2000/svg" xmlns:xlink="http://www.w3.org/1999/xlink" x="0px"
	 y="0px" width="93px" height="28px" viewBox="0 0 93 28" enable-background="new 0 0 93 28" xml:space="preserve">
<g>
	<path fill="#FFFFFF" stroke="#000000" stroke-miterlimit="10" d="M36.256,8.861h-6.698v3.842h6.307v2.057h-6.307v6.171H26.94V6.804
		h9.316V8.861z"/>
	<path fill="#FFFFFF" stroke="#000000" stroke-miterlimit="10" d="M42.733,10.391c0.725,0,1.402,0.122,2.032,0.366
		c0.629,0.243,1.175,0.598,1.64,1.063s0.83,1.037,1.097,1.717c0.266,0.68,0.398,1.456,0.398,2.329c0,0.861-0.133,1.623-0.398,2.286
		c-0.268,0.663-0.632,1.222-1.097,1.675s-1.011,0.799-1.64,1.037c-0.629,0.237-1.307,0.356-2.032,0.356
		c-0.816,0-1.542-0.145-2.176-0.434c-0.635-0.289-1.165-0.68-1.59-1.173c-0.425-0.493-0.748-1.063-0.969-1.708
		c-0.221-0.646-0.332-1.326-0.332-2.04c0-0.884,0.13-1.666,0.391-2.347c0.26-0.68,0.62-1.252,1.079-1.717
		c0.459-0.464,0.995-0.815,1.607-1.054C41.356,10.51,42.019,10.391,42.733,10.391z M42.733,12.312c-0.329,0-0.646,0.083-0.952,0.247
		c-0.306,0.164-0.572,0.399-0.799,0.705c-0.227,0.307-0.408,0.681-0.544,1.122c-0.136,0.442-0.204,0.936-0.204,1.479
		c0,0.408,0.057,0.815,0.17,1.224s0.275,0.776,0.485,1.105c0.209,0.328,0.47,0.598,0.782,0.808c0.312,0.209,0.666,0.314,1.063,0.314
		c0.419,0,0.788-0.105,1.105-0.314c0.317-0.21,0.586-0.479,0.808-0.808c0.221-0.329,0.388-0.697,0.501-1.105s0.17-0.815,0.17-1.224
		c0-0.431-0.054-0.858-0.162-1.284c-0.108-0.425-0.269-0.804-0.484-1.139c-0.215-0.334-0.484-0.606-0.808-0.815
		C43.541,12.417,43.164,12.312,42.733,12.312z"/>
	<path fill="#FFFFFF" stroke="#000000" stroke-miterlimit="10" d="M58.628,19.69c-0.544,0.544-1.156,0.932-1.836,1.164
		c-0.681,0.232-1.377,0.349-2.091,0.349c-0.782,0-1.502-0.142-2.159-0.425c-0.657-0.284-1.228-0.666-1.708-1.147
		c-0.482-0.482-0.856-1.052-1.123-1.709c-0.266-0.657-0.398-1.36-0.398-2.107c0-0.816,0.135-1.562,0.407-2.236
		c0.272-0.674,0.651-1.249,1.14-1.726c0.486-0.476,1.064-0.847,1.733-1.113c0.669-0.266,1.394-0.399,2.177-0.399
		c0.668,0,1.291,0.103,1.869,0.306c0.578,0.204,1.179,0.511,1.803,0.919l-1.088,1.666c-0.397-0.261-0.828-0.477-1.293-0.646
		s-0.895-0.255-1.291-0.255c-0.397,0-0.766,0.085-1.105,0.255s-0.641,0.408-0.901,0.714s-0.465,0.675-0.612,1.105
		c-0.146,0.431-0.221,0.906-0.221,1.428c0,0.544,0.088,1.02,0.264,1.428s0.399,0.754,0.672,1.037
		c0.271,0.283,0.578,0.496,0.918,0.638s0.674,0.212,1.002,0.212c0.193,0,0.4-0.014,0.621-0.042s0.445-0.082,0.672-0.161
		s0.45-0.188,0.672-0.323c0.221-0.136,0.433-0.312,0.637-0.527L58.628,19.69z"/>
	<path fill="#FFFFFF" stroke="#000000" stroke-miterlimit="10" d="M67.195,19.622c-0.135,0.249-0.309,0.473-0.518,0.672
		c-0.211,0.197-0.434,0.365-0.672,0.501s-0.49,0.241-0.756,0.314c-0.268,0.073-0.525,0.11-0.773,0.11
		c-0.567,0-1.089-0.085-1.564-0.255c-0.477-0.17-0.887-0.422-1.232-0.757c-0.346-0.334-0.615-0.747-0.808-1.24
		s-0.289-1.063-0.289-1.709v-6.63h2.601v6.443c0,0.34,0.051,0.644,0.153,0.909c0.103,0.267,0.231,0.49,0.392,0.672
		c0.158,0.181,0.342,0.317,0.552,0.407c0.21,0.091,0.428,0.137,0.655,0.137c0.351,0,0.665-0.065,0.943-0.195
		c0.277-0.131,0.516-0.31,0.713-0.536c0.199-0.227,0.35-0.495,0.451-0.808c0.102-0.312,0.152-0.648,0.152-1.011v-6.019h2.636v10.302
		h-2.636V19.622z"/>
	<path fill="#FFFFFF" stroke="#000000" stroke-miterlimit="10" d="M78.381,13.128c-0.158-0.113-0.337-0.218-0.535-0.314
		c-0.198-0.096-0.399-0.179-0.604-0.246c-0.203-0.068-0.399-0.122-0.586-0.162c-0.188-0.039-0.338-0.06-0.451-0.06
		c-0.408,0-0.717,0.08-0.926,0.238c-0.211,0.159-0.314,0.374-0.314,0.646c0,0.146,0.051,0.288,0.152,0.425
		c0.102,0.136,0.238,0.267,0.408,0.391c0.17,0.125,0.365,0.25,0.586,0.374c0.222,0.125,0.457,0.249,0.706,0.374
		c0.386,0.204,0.765,0.408,1.14,0.612c0.373,0.204,0.707,0.431,1.002,0.68s0.529,0.533,0.706,0.85
		c0.175,0.317,0.263,0.687,0.263,1.105c0,0.612-0.121,1.122-0.365,1.53c-0.244,0.407-0.553,0.73-0.926,0.969
		c-0.375,0.238-0.782,0.408-1.225,0.51c-0.441,0.103-0.855,0.153-1.24,0.153c-0.681,0-1.397-0.134-2.15-0.399
		c-0.754-0.267-1.465-0.723-2.135-1.369l1.395-1.699c0.227,0.227,0.465,0.425,0.714,0.595s0.496,0.312,0.739,0.425
		c0.244,0.113,0.477,0.201,0.697,0.264s0.416,0.094,0.587,0.094c0.431,0,0.751-0.094,0.96-0.281c0.21-0.187,0.314-0.416,0.314-0.688
		c0-0.316-0.146-0.566-0.441-0.748c-0.295-0.181-0.68-0.391-1.156-0.629c-0.385-0.192-0.773-0.391-1.164-0.595
		c-0.392-0.204-0.748-0.437-1.071-0.697c-0.323-0.26-0.587-0.561-0.79-0.9c-0.205-0.34-0.307-0.742-0.307-1.207
		c0-0.556,0.113-1.031,0.34-1.428c0.227-0.397,0.516-0.717,0.867-0.961c0.352-0.243,0.745-0.422,1.182-0.535
		c0.436-0.113,0.863-0.17,1.283-0.17c0.623,0,1.258,0.107,1.904,0.322c0.646,0.216,1.207,0.505,1.684,0.867L78.381,13.128z"/>
</g>
<path fill="#FFFFFF" stroke="#000000" stroke-miterlimit="10" d="M11.729,14.413c0-0.338-0.274-0.613-0.614-0.613H6.208
	c-0.338,0-0.613,0.275-0.613,0.613s0.275,0.613,0.613,0.613h4.906C11.454,15.026,11.729,14.751,11.729,14.413z M9.443,15.64H8.188
	c0.448,2.181,2.056,3.931,4.154,4.595V19.32c0-0.122,0.014-0.238,0.036-0.354C10.936,18.395,9.839,17.16,9.443,15.64z M12.342,9.871
	V8.591c-2.099,0.665-3.706,2.414-4.154,4.595h1.255C9.834,11.678,10.917,10.448,12.342,9.871z M18.921,13.187h1.255
	c-0.448-2.181-2.054-3.931-4.154-4.595V9.87C17.446,10.448,18.529,11.678,18.921,13.187z M22.155,13.8h-4.906
	c-0.34,0-0.614,0.275-0.614,0.613s0.274,0.613,0.614,0.613h4.906c0.338,0,0.613-0.275,0.613-0.613S22.493,13.8,22.155,13.8z
	 M15.985,18.967c0.022,0.115,0.036,0.231,0.036,0.354v0.914c2.101-0.664,3.706-2.412,4.154-4.595H18.92
	C18.525,17.16,17.429,18.395,15.985,18.967z M14.182,5.826c-0.339,0-0.613,0.274-0.613,0.613v4.907c0,0.338,0.274,0.613,0.613,0.613
	s0.613-0.275,0.613-0.613V6.439C14.795,6.101,14.521,5.826,14.182,5.826z M14.182,16.867c-0.339,0-0.613,0.274-0.613,0.613v4.906
	c0,0.339,0.274,0.613,0.613,0.613s0.613-0.274,0.613-0.613V17.48C14.795,17.142,14.521,16.867,14.182,16.867z"/>
<g>
</g>
<g>
</g>
<g>
</g>
<g>
</g>
<g>
</g>
<g>
</g>
<g>
</g>
<g>
</g>
<g>
</g>
<g>
</g>
<g>
</g>
<g>
</g>
<g>
</g>
<g>
</g>
<g>
</g>
</svg>
