<?xml version="1.0" encoding="utf-8"?>
<!-- Generator: Adobe Illustrator 16.0.0, SVG Export Plug-In . SVG Version: 6.00 Build 0)  -->
<!DOCTYPE svg PUBLIC "-//W3C//DTD SVG 1.1//EN" "http://www.w3.org/Graphics/SVG/1.1/DTD/svg11.dtd">
<svg version="1.1" id="레이어_1" xmlns="http://www.w3.org/2000/svg" xmlns:xlink="http://www.w3.org/1999/xlink" x="0px"
	 y="0px" width="60px" height="60px" viewBox="0 0 60 60" enable-background="new 0 0 60 60" xml:space="preserve">
<path fill="#FFFFFF" stroke="#000000" stroke-miterlimit="10" d="M36.91,37.326c-0.68,0.6-1.523,1.035-2.529,1.31
	c-1.008,0.273-2.124,0.41-3.352,0.41c-1.386,0-2.632-0.2-3.739-0.601c-1.107-0.399-2.05-0.971-2.83-1.711
	c-0.78-0.738-1.376-1.635-1.79-2.688s-0.62-2.239-0.62-3.561c0-1.213,0.22-2.359,0.66-3.439s1.057-2.023,1.85-2.83
	c0.793-0.807,1.74-1.446,2.84-1.92s2.303-0.71,3.609-0.71c1.334,0,2.537,0.2,3.61,0.6c1.072,0.4,1.99,0.96,2.75,1.681
	c0.761,0.72,1.347,1.573,1.761,2.56c0.412,0.987,0.619,2.066,0.619,3.24c0,0.935-0.197,1.854-0.59,2.76
	c-0.394,0.907-1.037,1.667-1.931,2.28c-0.387,0.253-0.826,0.434-1.319,0.54c-0.494,0.106-0.978,0.13-1.45,0.069
	c-0.475-0.061-0.898-0.211-1.279-0.449c-0.38-0.24-0.656-0.594-0.83-1.061c-0.213,0.307-0.453,0.553-0.72,0.739
	c-0.269,0.187-0.53,0.333-0.791,0.438c-0.26,0.107-0.5,0.182-0.72,0.222c-0.22,0.04-0.383,0.06-0.49,0.06
	c-0.694,0.014-1.28-0.103-1.76-0.35s-0.863-0.57-1.15-0.971c-0.287-0.399-0.483-0.85-0.59-1.35s-0.127-1.004-0.06-1.511
	c0.08-0.68,0.307-1.363,0.68-2.05c0.374-0.687,0.84-1.297,1.4-1.83c0.56-0.533,1.18-0.94,1.86-1.221
	c0.681-0.279,1.373-0.359,2.08-0.239c0.254,0.04,0.511,0.144,0.771,0.31c0.261,0.167,0.418,0.357,0.471,0.57l0.221-0.88h2.34
	c-0.24-0.28-0.508-0.543-0.801-0.79s-0.633-0.467-1.02-0.66s-0.83-0.343-1.33-0.45c-0.5-0.106-1.077-0.16-1.73-0.16
	c-0.919,0-1.77,0.174-2.55,0.521c-0.78,0.347-1.457,0.823-2.03,1.43c-0.573,0.607-1.02,1.327-1.34,2.16
	c-0.32,0.833-0.48,1.729-0.48,2.689c0,0.947,0.16,1.817,0.48,2.611c0.32,0.793,0.763,1.477,1.33,2.049
	c0.566,0.573,1.243,1.019,2.03,1.33c0.787,0.313,1.646,0.471,2.579,0.471c0.828,0,1.641-0.119,2.441-0.359
	c0.799-0.24,1.473-0.554,2.02-0.939L36.91,37.326z M32.45,29.046c0-0.347-0.069-0.623-0.21-0.83s-0.297-0.323-0.471-0.35
	c-0.308-0.04-0.623,0.023-0.949,0.189c-0.327,0.167-0.634,0.407-0.92,0.72c-0.287,0.313-0.537,0.684-0.75,1.11
	c-0.214,0.427-0.347,0.881-0.4,1.36c-0.04,0.267-0.037,0.51,0.01,0.729c0.046,0.219,0.12,0.406,0.22,0.561
	c0.1,0.152,0.213,0.273,0.34,0.359c0.126,0.086,0.25,0.129,0.37,0.129c0.44,0,0.828-0.14,1.16-0.42
	c0.334-0.278,0.617-0.619,0.851-1.02s0.413-0.83,0.54-1.29S32.438,29.419,32.45,29.046z M37.23,29.646c0-0.6-0.078-1.213-0.23-1.84
	c-0.152-0.626-0.41-1.18-0.77-1.66l-1.76,6.36c-0.056,0.2-0.045,0.354,0.028,0.46s0.181,0.177,0.319,0.21
	c0.141,0.033,0.293,0.033,0.461,0c0.166-0.033,0.316-0.104,0.449-0.21c0.199-0.146,0.394-0.343,0.58-0.59s0.346-0.517,0.479-0.812
	c0.134-0.293,0.239-0.605,0.319-0.938C37.189,30.293,37.23,29.966,37.23,29.646z"/>
</svg>
