<?xml version="1.0" encoding="utf-8"?>
<!-- Generator: Adobe Illustrator 16.0.0, SVG Export Plug-In . SVG Version: 6.00 Build 0)  -->
<!DOCTYPE svg PUBLIC "-//W3C//DTD SVG 1.1//EN" "http://www.w3.org/Graphics/SVG/1.1/DTD/svg11.dtd">
<svg version="1.1" id="레이어_1" xmlns="http://www.w3.org/2000/svg" xmlns:xlink="http://www.w3.org/1999/xlink" x="0px"
	 y="0px" width="60px" height="34px" viewBox="0 0 60 34" enable-background="new 0 0 60 34" xml:space="preserve">
<path fill="#FFFFFF" stroke="#000000" stroke-miterlimit="10" d="M15.5,12.925v-0.66c0-0.813,0.11-1.5,0.33-2.06
	c0.22-0.561,0.517-1.014,0.89-1.36c0.373-0.347,0.803-0.6,1.29-0.76c0.486-0.16,0.997-0.24,1.53-0.24c0.413,0,0.86,0.05,1.34,0.15
	s0.98,0.303,1.5,0.609l-1.1,2.061c-0.347-0.146-0.647-0.243-0.9-0.29s-0.44-0.07-0.56-0.07c-0.4,0-0.704,0.13-0.91,0.39
	c-0.207,0.261-0.31,0.711-0.31,1.351v0.88h2.38v2.4H18.6v9.939h-3.1v-9.939h-1.56v-2.4L15.5,12.925L15.5,12.925z"/>
<path fill="#FFFFFF" stroke="#000000" stroke-miterlimit="10" d="M26.48,25.266v-12.64l-2.02,1.68l-1.64-1.899l4.34-3.78h2.38
	v16.641h-3.06V25.266z"/>
<path fill="#FFFFFF" stroke="#000000" stroke-miterlimit="10" d="M33.68,16.906c0-0.867,0.098-1.79,0.291-2.771
	c0.192-0.979,0.516-1.887,0.969-2.72s1.058-1.523,1.812-2.07c0.753-0.547,1.688-0.82,2.812-0.82c0.746,0,1.408,0.127,1.988,0.381
	c0.58,0.253,1.094,0.597,1.54,1.029c0.447,0.434,0.823,0.931,1.13,1.49c0.307,0.559,0.561,1.15,0.762,1.77
	c0.199,0.62,0.342,1.25,0.43,1.891c0.086,0.64,0.13,1.247,0.13,1.82c0,0.613-0.037,1.25-0.11,1.908
	c-0.072,0.66-0.199,1.314-0.38,1.961c-0.181,0.647-0.417,1.261-0.71,1.841c-0.293,0.579-0.664,1.09-1.109,1.528
	c-0.446,0.441-0.975,0.791-1.58,1.051c-0.606,0.261-1.305,0.392-2.09,0.392c-0.828,0-1.543-0.137-2.149-0.41
	c-0.606-0.272-1.127-0.637-1.562-1.09c-0.434-0.453-0.789-0.978-1.069-1.569c-0.279-0.595-0.503-1.213-0.671-1.859
	c-0.166-0.648-0.278-1.295-0.34-1.941C33.71,18.068,33.68,17.465,33.68,16.906z M36.779,16.945c0,0.374,0.018,0.788,0.051,1.241
	s0.086,0.914,0.16,1.379c0.072,0.468,0.176,0.918,0.31,1.353s0.304,0.815,0.511,1.147c0.207,0.334,0.449,0.604,0.729,0.812
	s0.612,0.312,1,0.312c0.573,0,1.046-0.222,1.42-0.66c0.373-0.439,0.663-0.978,0.87-1.609c0.207-0.635,0.35-1.307,0.43-2.021
	c0.08-0.713,0.12-1.349,0.12-1.91c0-0.346-0.017-0.736-0.05-1.17c-0.033-0.433-0.094-0.873-0.18-1.319
	c-0.088-0.447-0.197-0.884-0.33-1.311c-0.135-0.427-0.305-0.803-0.51-1.13c-0.207-0.326-0.455-0.59-0.74-0.79
	c-0.287-0.2-0.617-0.3-0.99-0.3c-0.561,0-1.02,0.21-1.381,0.63c-0.359,0.42-0.643,0.937-0.85,1.55s-0.354,1.268-0.439,1.96
	C36.822,15.798,36.779,16.413,36.779,16.945z"/>
</svg>
