<?xml version="1.0" encoding="utf-8"?>
<!-- Generator: Adobe Illustrator 16.0.0, SVG Export Plug-In . SVG Version: 6.00 Build 0)  -->
<!DOCTYPE svg PUBLIC "-//W3C//DTD SVG 1.1//EN" "http://www.w3.org/Graphics/SVG/1.1/DTD/svg11.dtd">
<svg version="1.1" id="레이어_1" xmlns="http://www.w3.org/2000/svg" xmlns:xlink="http://www.w3.org/1999/xlink" x="0px"
	 y="0px" width="60px" height="60px" viewBox="0 0 60 60" enable-background="new 0 0 60 60" xml:space="preserve">
<path fill="#FFFFFF" stroke="#000000" stroke-miterlimit="10" d="M21.984,23.348h2.465l5.287,14.126h-2.72l-1.309-3.468h-4.998
	l-1.326,3.468H16.68L21.984,23.348z M24.977,31.967l-1.768-5.099l-1.734,5.099H24.977z"/>
<path fill="#FFFFFF" stroke="#000000" stroke-miterlimit="10" d="M31.912,22.974h2.619v14.5h-2.619V22.974z"/>
<path fill="#FFFFFF" stroke="#000000" stroke-miterlimit="10" d="M38.287,24.725l2.635-0.833v3.265h2.363v2.04h-2.363v4.93
	c0,0.316,0.064,0.572,0.195,0.764c0.131,0.193,0.303,0.344,0.52,0.451c0.215,0.107,0.459,0.182,0.73,0.221
	c0.271,0.041,0.549,0.062,0.833,0.062v2.09c-0.714,0.08-1.374,0.07-1.981-0.024c-0.605-0.097-1.123-0.285-1.555-0.568
	s-0.768-0.654-1.012-1.113s-0.365-1.012-0.365-1.658v-5.15h-1.615v-2.04h1.615V24.725L38.287,24.725z"/>
</svg>
