<?xml version="1.0" encoding="utf-8"?>
<!-- Generator: Adobe Illustrator 16.0.0, SVG Export Plug-In . SVG Version: 6.00 Build 0)  -->
<!DOCTYPE svg PUBLIC "-//W3C//DTD SVG 1.1//EN" "http://www.w3.org/Graphics/SVG/1.1/DTD/svg11.dtd">
<svg version="1.1" id="레이어_1" xmlns="http://www.w3.org/2000/svg" xmlns:xlink="http://www.w3.org/1999/xlink" x="0px"
	 y="0px" width="60px" height="60px" viewBox="0 0 60 60" enable-background="new 0 0 60 60" xml:space="preserve">
<path fill="#FFFFFF" stroke="#000000" stroke-miterlimit="10" d="M24.884,39.246c0.56-0.135,1.057-0.287,1.49-0.461
	s0.81-0.379,1.13-0.619c0.32-0.24,0.59-0.523,0.81-0.852c0.22-0.326,0.403-0.703,0.55-1.129l-4.32-11.042h3.26l2.62,7.4l2.6-7.4
	h3.24l-3.921,10.64c-0.227,0.641-0.467,1.202-0.719,1.688c-0.254,0.486-0.534,0.971-0.841,1.451c-0.32,0.48-0.677,0.883-1.07,1.209
	c-0.394,0.326-0.807,0.598-1.24,0.811c-0.434,0.214-0.877,0.388-1.33,0.521c-0.454,0.134-0.9,0.261-1.34,0.382L24.884,39.246z"/>
</svg>
