<?xml version="1.0" encoding="utf-8"?>
<!-- Generator: Adobe Illustrator 16.0.0, SVG Export Plug-In . SVG Version: 6.00 Build 0)  -->
<!DOCTYPE svg PUBLIC "-//W3C//DTD SVG 1.1//EN" "http://www.w3.org/Graphics/SVG/1.1/DTD/svg11.dtd">
<svg version="1.1" id="레이어_1" xmlns="http://www.w3.org/2000/svg" xmlns:xlink="http://www.w3.org/1999/xlink" x="0px"
	 y="0px" width="60px" height="60px" viewBox="0 0 60 60" enable-background="new 0 0 60 60" xml:space="preserve">
<path fill="#FFFFFF" stroke="#000000" stroke-miterlimit="10" d="M21.985,23.348h2.465l5.287,14.126h-2.72l-1.309-3.468H20.71
	l-1.326,3.468h-2.703L21.985,23.348z M24.977,31.967l-1.768-5.099l-1.734,5.099H24.977z"/>
<path fill="#FFFFFF" stroke="#000000" stroke-miterlimit="10" d="M31.913,22.974h2.618v14.5h-2.618V22.974z"/>
<path fill="#FFFFFF" stroke="#000000" stroke-miterlimit="10" d="M38.287,24.725l2.635-0.833v3.265h2.363v2.04h-2.363v4.93
	c0,0.316,0.064,0.572,0.196,0.764c0.13,0.193,0.303,0.344,0.519,0.451c0.215,0.107,0.459,0.182,0.73,0.221
	c0.271,0.041,0.55,0.062,0.834,0.062v2.09c-0.715,0.08-1.375,0.07-1.98-0.024c-0.607-0.096-1.125-0.285-1.557-0.568
	s-0.768-0.654-1.012-1.113c-0.243-0.459-0.365-1.012-0.365-1.658v-5.15h-1.615v-2.04h1.615V24.725L38.287,24.725z"/>
</svg>
