<?xml version="1.0" encoding="utf-8"?>
<!-- Generator: Adobe Illustrator 16.0.0, SVG Export Plug-In . SVG Version: 6.00 Build 0)  -->
<!DOCTYPE svg PUBLIC "-//W3C//DTD SVG 1.1//EN" "http://www.w3.org/Graphics/SVG/1.1/DTD/svg11.dtd">
<svg version="1.1" id="레이어_1" xmlns="http://www.w3.org/2000/svg" xmlns:xlink="http://www.w3.org/1999/xlink" x="0px"
	 y="0px" width="60px" height="60px" viewBox="0 0 60 60" enable-background="new 0 0 60 60" xml:space="preserve">
<path fill="#FFFFFF" stroke="#000000" stroke-miterlimit="10" d="M25.83,27.585c0.12-0.32,0.293-0.59,0.52-0.811
	c0.227-0.22,0.47-0.399,0.73-0.54c0.26-0.14,0.527-0.243,0.8-0.31c0.273-0.066,0.51-0.1,0.71-0.1c0.68,0,1.287,0.177,1.82,0.529
	c0.533,0.354,0.967,0.824,1.301,1.41c0.387-0.64,0.876-1.123,1.469-1.45c0.594-0.326,1.178-0.489,1.75-0.489
	c0.641,0,1.228,0.09,1.762,0.27c0.531,0.18,0.985,0.45,1.359,0.811c0.373,0.359,0.662,0.807,0.869,1.34
	c0.207,0.533,0.311,1.16,0.311,1.88v8.141H36.17v-8.202c0-0.52-0.166-0.953-0.5-1.3c-0.333-0.347-0.746-0.52-1.24-0.52
	c-0.238,0-0.473,0.04-0.699,0.12c-0.227,0.079-0.43,0.203-0.609,0.369c-0.18,0.167-0.323,0.384-0.43,0.65
	c-0.107,0.266-0.16,0.587-0.16,0.96v7.921h-3v-8.021c0-0.653-0.18-1.153-0.54-1.5c-0.36-0.347-0.773-0.521-1.24-0.521
	c-0.214,0-0.434,0.047-0.66,0.141c-0.227,0.093-0.434,0.236-0.62,0.43c-0.187,0.193-0.34,0.43-0.46,0.71
	c-0.12,0.28-0.18,0.606-0.18,0.979v7.782h-3.04V26.145h3.04L25.83,27.585L25.83,27.585z"/>
</svg>
