<?xml version="1.0" encoding="utf-8"?>
<!-- Generator: Adobe Illustrator 16.0.0, SVG Export Plug-In . SVG Version: 6.00 Build 0)  -->
<!DOCTYPE svg PUBLIC "-//W3C//DTD SVG 1.1//EN" "http://www.w3.org/Graphics/SVG/1.1/DTD/svg11.dtd">
<svg version="1.1" id="레이어_1" xmlns="http://www.w3.org/2000/svg" xmlns:xlink="http://www.w3.org/1999/xlink" x="0px"
	 y="0px" width="60px" height="60px" viewBox="0 0 60 60" enable-background="new 0 0 60 60" xml:space="preserve">
<path fill="#FFFFFF" stroke="#000000" stroke-miterlimit="10" d="M32.311,28.286c0.532,0.199,1.006,0.47,1.42,0.81
	c0.412,0.34,0.752,0.724,1.021,1.15c0.267,0.427,0.47,0.889,0.608,1.389c0.142,0.5,0.211,1.018,0.211,1.551
	c0,0.76-0.137,1.459-0.409,2.101c-0.272,0.641-0.644,1.196-1.11,1.67c-0.466,0.474-1.014,0.851-1.64,1.131
	c-0.627,0.279-1.302,0.438-2.021,0.479c-1.133,0.067-2.19-0.068-3.17-0.408c-0.98-0.342-1.93-0.918-2.85-1.73l1.54-1.961
	c0.413,0.4,0.823,0.715,1.23,0.941c0.407,0.226,0.793,0.393,1.16,0.5c0.367,0.105,0.707,0.17,1.02,0.189s0.583,0.016,0.81-0.011
	c0.32-0.026,0.626-0.123,0.92-0.291c0.293-0.166,0.55-0.383,0.771-0.649s0.396-0.568,0.529-0.91c0.133-0.34,0.2-0.695,0.2-1.068
	c0-0.254-0.04-0.521-0.12-0.801c-0.08-0.28-0.193-0.543-0.34-0.789c-0.146-0.248-0.322-0.471-0.529-0.67
	c-0.207-0.2-0.443-0.348-0.711-0.44c-0.827-0.293-1.683-0.423-2.57-0.39c-0.887,0.033-1.79,0.13-2.71,0.29l0.28-8.44h9.041v2.42
	H28.77l-0.14,3.46c0.56-0.013,1.163,0.007,1.81,0.061C31.086,27.918,31.71,28.059,32.311,28.286z"/>
</svg>
