<?xml version="1.0" encoding="utf-8"?>
<!-- Generator: Adobe Illustrator 16.0.0, SVG Export Plug-In . SVG Version: 6.00 Build 0)  -->
<!DOCTYPE svg PUBLIC "-//W3C//DTD SVG 1.1//EN" "http://www.w3.org/Graphics/SVG/1.1/DTD/svg11.dtd">
<svg version="1.1" id="레이어_1" xmlns="http://www.w3.org/2000/svg" xmlns:xlink="http://www.w3.org/1999/xlink" x="0px"
	 y="0px" width="60px" height="60px" viewBox="0 0 60 60" enable-background="new 0 0 60 60" xml:space="preserve">
<path fill="#FFFFFF" stroke="#000000" stroke-miterlimit="10" d="M34.271,24.901c-0.24-0.173-0.521-0.34-0.842-0.5
	c-0.318-0.16-0.646-0.307-0.979-0.439c-0.333-0.134-0.66-0.24-0.979-0.32c-0.32-0.08-0.595-0.12-0.82-0.12
	c-0.813,0-1.417,0.2-1.811,0.6c-0.394,0.4-0.59,0.907-0.59,1.521c0,0.36,0.13,0.677,0.39,0.95c0.26,0.273,0.573,0.52,0.94,0.739
	c0.367,0.221,0.747,0.414,1.141,0.58c0.393,0.167,0.729,0.311,1.01,0.431c0.731,0.333,1.39,0.663,1.97,0.989
	c0.58,0.327,1.063,0.678,1.45,1.051s0.684,0.793,0.89,1.26c0.207,0.467,0.31,1.008,0.31,1.621c0,0.934-0.186,1.709-0.56,2.329
	c-0.373,0.62-0.851,1.116-1.431,1.489c-0.579,0.374-1.223,0.641-1.93,0.801s-1.388,0.239-2.041,0.239
	c-1.04,0-2.087-0.203-3.14-0.608c-1.054-0.408-2.107-1.091-3.16-2.051l1.88-1.98c0.28,0.268,0.6,0.523,0.96,0.771
	c0.36,0.246,0.727,0.463,1.1,0.648c0.373,0.188,0.74,0.334,1.1,0.44c0.36,0.106,0.68,0.16,0.96,0.16c0.333,0,0.677-0.032,1.03-0.101
	c0.354-0.066,0.67-0.188,0.949-0.359c0.279-0.174,0.511-0.402,0.689-0.689c0.182-0.287,0.271-0.65,0.271-1.09
	c0-0.468-0.24-0.9-0.721-1.301c-0.479-0.4-1.146-0.794-2-1.181c-0.613-0.279-1.237-0.566-1.87-0.859
	c-0.634-0.294-1.21-0.634-1.73-1.021c-0.52-0.387-0.944-0.836-1.27-1.35c-0.327-0.514-0.49-1.13-0.49-1.851
	c0-0.866,0.17-1.6,0.51-2.199c0.34-0.601,0.773-1.084,1.3-1.45c0.526-0.367,1.117-0.63,1.77-0.79c0.653-0.16,1.3-0.24,1.94-0.24
	c1.013,0,1.966,0.177,2.86,0.53c0.894,0.354,1.721,0.803,2.479,1.35L34.271,24.901z"/>
</svg>
