<?xml version="1.0" encoding="utf-8"?>
<!-- Generator: Adobe Illustrator 16.0.0, SVG Export Plug-In . SVG Version: 6.00 Build 0)  -->
<!DOCTYPE svg PUBLIC "-//W3C//DTD SVG 1.1//EN" "http://www.w3.org/Graphics/SVG/1.1/DTD/svg11.dtd">
<svg version="1.1" id="레이어_1" xmlns="http://www.w3.org/2000/svg" xmlns:xlink="http://www.w3.org/1999/xlink" x="0px"
	 y="0px" width="60px" height="60px" viewBox="0 0 60 60" enable-background="new 0 0 60 60" xml:space="preserve">
<path fill="#FFFFFF" stroke="#000000" stroke-miterlimit="10" d="M38.09,36.854c-0.652-0.16-1.287-0.395-1.9-0.701
	c-0.61-0.305-1.193-0.65-1.75-1.037c-0.553-0.389-1.06-0.807-1.52-1.25c-0.46-0.446-0.857-0.893-1.189-1.33
	c-0.317,0.41-0.701,0.837-1.141,1.271c-0.44,0.434-0.927,0.848-1.46,1.238c-0.533,0.396-1.117,0.747-1.75,1.063
	c-0.633,0.313-1.31,0.563-2.03,0.75l-1.74-2.119c0.693-0.174,1.38-0.438,2.06-0.791c0.68-0.354,1.307-0.764,1.88-1.229
	c0.573-0.466,1.073-0.978,1.5-1.53c0.427-0.553,0.733-1.123,0.92-1.708h-5.08v-2.359h5.3v-2.84h3.08v2.84h5.301v2.359h-5.1
	c0.133,0.641,0.416,1.241,0.85,1.799c0.436,0.562,0.949,1.066,1.553,1.521c0.604,0.456,1.253,0.85,1.96,1.182
	c0.707,0.334,1.396,0.58,2.063,0.738L38.09,36.854z"/>
</svg>
