<?xml version="1.0" encoding="utf-8"?>
<!-- Generator: Adobe Illustrator 16.0.0, SVG Export Plug-In . SVG Version: 6.00 Build 0)  -->
<!DOCTYPE svg PUBLIC "-//W3C//DTD SVG 1.1//EN" "http://www.w3.org/Graphics/SVG/1.1/DTD/svg11.dtd">
<svg version="1.1" id="레이어_1" xmlns="http://www.w3.org/2000/svg" xmlns:xlink="http://www.w3.org/1999/xlink" x="0px"
	 y="0px" width="60px" height="60px" viewBox="0 0 60 60" enable-background="new 0 0 60 60" xml:space="preserve">
<path fill="#FFFFFF" stroke="#000000" stroke-miterlimit="10" d="M36.51,36.805c-0.64,0.641-1.359,1.098-2.16,1.371
	c-0.8,0.273-1.619,0.41-2.459,0.41c-0.92,0-1.768-0.168-2.541-0.5c-0.773-0.334-1.443-0.783-2.01-1.352
	c-0.567-0.566-1.007-1.236-1.32-2.01c-0.313-0.771-0.47-1.601-0.47-2.479c0-0.961,0.16-1.837,0.48-2.63
	c0.32-0.794,0.767-1.471,1.34-2.03c0.573-0.561,1.253-0.997,2.04-1.311c0.787-0.313,1.64-0.47,2.561-0.47
	c0.785,0,1.521,0.12,2.199,0.36c0.68,0.24,1.387,0.6,2.12,1.08l-1.28,1.96c-0.467-0.307-0.973-0.561-1.52-0.761
	c-0.547-0.199-1.055-0.3-1.52-0.3c-0.469,0-0.9,0.101-1.302,0.3c-0.4,0.2-0.753,0.48-1.06,0.841c-0.307,0.359-0.547,0.793-0.72,1.3
	c-0.173,0.506-0.26,1.066-0.26,1.68c0,0.641,0.103,1.199,0.31,1.68s0.47,0.888,0.79,1.222c0.32,0.332,0.68,0.582,1.08,0.75
	c0.4,0.166,0.793,0.25,1.18,0.25c0.228,0,0.471-0.019,0.73-0.051c0.26-0.033,0.522-0.097,0.789-0.189
	c0.268-0.093,0.53-0.221,0.79-0.381c0.261-0.16,0.511-0.364,0.75-0.619L36.51,36.805z"/>
</svg>
