<?xml version="1.0" encoding="utf-8"?>
<!-- Generator: Adobe Illustrator 16.0.0, SVG Export Plug-In . SVG Version: 6.00 Build 0)  -->
<!DOCTYPE svg PUBLIC "-//W3C//DTD SVG 1.1//EN" "http://www.w3.org/Graphics/SVG/1.1/DTD/svg11.dtd">
<svg version="1.1" id="레이어_1" xmlns="http://www.w3.org/2000/svg" xmlns:xlink="http://www.w3.org/1999/xlink" x="0px"
	 y="0px" width="60px" height="60px" viewBox="0 0 60 60" enable-background="new 0 0 60 60" xml:space="preserve">
<path fill="#FFFFFF" stroke="#000000" stroke-miterlimit="10" d="M39.51,37.266h-3.56l-4.5-6.439h-2.14v6.439h-3.08V20.645h6.081
	c0.787,0,1.539,0.124,2.26,0.37c0.721,0.247,1.351,0.59,1.891,1.03c0.54,0.439,0.971,0.97,1.29,1.59
	c0.319,0.62,0.479,1.31,0.479,2.07c0,1.093-0.313,2.05-0.939,2.87c-0.627,0.819-1.46,1.43-2.5,1.83L39.51,37.266z M32.25,28.385
	c0.348,0,0.684-0.063,1.01-0.19c0.326-0.126,0.62-0.306,0.881-0.539c0.26-0.233,0.467-0.517,0.619-0.851
	c0.153-0.333,0.23-0.7,0.23-1.1c0-0.413-0.074-0.783-0.221-1.11c-0.146-0.326-0.34-0.604-0.58-0.83
	c-0.239-0.227-0.521-0.399-0.84-0.52c-0.32-0.12-0.652-0.181-1-0.181h-3.041v5.32L32.25,28.385L32.25,28.385z"/>
</svg>
