<?xml version="1.0" encoding="utf-8"?>
<!-- Generator: Adobe Illustrator 16.0.0, SVG Export Plug-In . SVG Version: 6.00 Build 0)  -->
<!DOCTYPE svg PUBLIC "-//W3C//DTD SVG 1.1//EN" "http://www.w3.org/Graphics/SVG/1.1/DTD/svg11.dtd">
<svg version="1.1" id="레이어_1" xmlns="http://www.w3.org/2000/svg" xmlns:xlink="http://www.w3.org/1999/xlink" x="0px"
	 y="0px" width="60px" height="60px" viewBox="0 0 60 60" enable-background="new 0 0 60 60" xml:space="preserve">
<path fill="#FFFFFF" stroke="#000000" stroke-miterlimit="10" d="M26.03,26.045c0.933-0.547,1.84-0.896,2.72-1.05
	c0.88-0.153,1.673-0.217,2.38-0.19c0.667,0.027,1.29,0.134,1.87,0.32s1.086,0.457,1.52,0.81c0.434,0.354,0.773,0.783,1.02,1.29
	c0.247,0.507,0.371,1.101,0.371,1.78v5.401c0,0.293,0.016,0.652,0.05,1.078c0.032,0.428,0.163,1.021,0.39,1.781h-3.48l-0.02-1.26
	c-0.199,0.279-0.43,0.516-0.689,0.709s-0.537,0.357-0.83,0.49c-0.294,0.133-0.587,0.23-0.88,0.291
	c-0.293,0.059-0.573,0.09-0.84,0.09c-0.587,0-1.157-0.088-1.71-0.26c-0.554-0.174-1.043-0.428-1.47-0.762
	c-0.427-0.332-0.77-0.75-1.03-1.25c-0.26-0.5-0.39-1.082-0.39-1.75c0-0.826,0.157-1.549,0.47-2.17
	c0.313-0.62,0.787-1.116,1.42-1.489c0.633-0.374,1.437-0.624,2.41-0.75c0.973-0.127,2.12-0.11,3.44,0.05
	c0.013-0.521-0.141-0.953-0.461-1.3c-0.319-0.347-0.719-0.58-1.199-0.7c-0.293-0.066-0.614-0.094-0.96-0.08
	c-0.347,0.014-0.693,0.06-1.04,0.14c-0.347,0.08-0.687,0.18-1.02,0.3c-0.333,0.12-0.627,0.254-0.88,0.4L26.03,26.045z M29.95,35.346
	c0.333,0,0.667-0.066,1-0.201c0.333-0.133,0.633-0.313,0.9-0.539s0.486-0.496,0.66-0.811c0.173-0.313,0.26-0.643,0.26-0.99v-1.52
	c-1.68-0.227-2.917-0.16-3.71,0.199c-0.793,0.361-1.19,0.922-1.19,1.682c0,0.787,0.2,1.346,0.6,1.68S29.363,35.346,29.95,35.346z"/>
<g>
</g>
<g>
</g>
<g>
</g>
<g>
</g>
<g>
</g>
<g>
</g>
<g>
</g>
<g>
</g>
<g>
</g>
<g>
</g>
<g>
</g>
<g>
</g>
<g>
</g>
<g>
</g>
<g>
</g>
</svg>
