<?xml version="1.0" encoding="utf-8"?>
<!-- Generator: Adobe Illustrator 16.0.0, SVG Export Plug-In . SVG Version: 6.00 Build 0)  -->
<!DOCTYPE svg PUBLIC "-//W3C//DTD SVG 1.1//EN" "http://www.w3.org/Graphics/SVG/1.1/DTD/svg11.dtd">
<svg version="1.1" id="레이어_1" xmlns="http://www.w3.org/2000/svg" xmlns:xlink="http://www.w3.org/1999/xlink" x="0px"
	 y="0px" width="60px" height="34px" viewBox="0 0 60 34" enable-background="new 0 0 60 34" xml:space="preserve">
<path fill="#FFFFFF" stroke="#000000" stroke-miterlimit="10" d="M20.47,12.925v-0.66c0-0.813,0.11-1.5,0.33-2.06
	c0.22-0.561,0.517-1.014,0.89-1.36c0.373-0.347,0.803-0.6,1.29-0.76c0.486-0.16,0.997-0.24,1.53-0.24c0.413,0,0.86,0.05,1.34,0.15
	s0.98,0.303,1.5,0.609l-1.1,2.061c-0.347-0.146-0.647-0.243-0.9-0.29s-0.44-0.07-0.56-0.07c-0.4,0-0.704,0.13-0.91,0.39
	c-0.207,0.261-0.31,0.711-0.31,1.351v0.88h2.38v2.4h-2.38v9.939h-3.1v-9.939h-1.56v-2.4L20.47,12.925L20.47,12.925z"/>
<path fill="#FFFFFF" stroke="#000000" stroke-miterlimit="10" d="M30.529,23.266c1.627-0.307,2.91-0.83,3.85-1.57
	c0.939-0.739,1.645-1.616,2.111-2.631c-0.4,0.201-0.83,0.33-1.291,0.392c-0.459,0.062-0.916,0.09-1.369,0.09
	c-0.814,0-1.541-0.146-2.182-0.438c-0.64-0.293-1.18-0.685-1.62-1.17c-0.44-0.486-0.777-1.05-1.01-1.689
	c-0.233-0.641-0.35-1.301-0.35-1.98c0-0.8,0.14-1.547,0.42-2.24c0.28-0.692,0.67-1.29,1.17-1.79s1.097-0.893,1.789-1.18
	c0.693-0.286,1.461-0.43,2.302-0.43c1.025,0,1.905,0.18,2.641,0.54c0.732,0.359,1.332,0.85,1.799,1.47
	c0.467,0.62,0.811,1.337,1.029,2.15c0.22,0.813,0.33,1.68,0.33,2.6c0,1.2-0.187,2.363-0.56,3.49s-0.938,2.154-1.69,3.08
	c-0.752,0.929-1.689,1.713-2.81,2.358c-1.12,0.646-2.428,1.084-3.92,1.312L30.529,23.266z M31.811,14.185
	c0,0.867,0.199,1.577,0.601,2.13c0.399,0.554,1.032,0.83,1.899,0.83c0.521,0,1.021-0.09,1.51-0.27
	c0.486-0.181,0.902-0.483,1.25-0.91c0.093-0.56,0.109-1.13,0.05-1.71s-0.199-1.11-0.42-1.59c-0.22-0.48-0.521-0.87-0.9-1.17
	c-0.379-0.301-0.836-0.45-1.368-0.45c-0.429,0-0.802,0.08-1.121,0.24c-0.318,0.159-0.593,0.38-0.818,0.659
	c-0.229,0.28-0.396,0.614-0.512,1C31.866,13.333,31.811,13.746,31.811,14.185z"/>
</svg>
