<?xml version="1.0" encoding="utf-8"?>
<!-- Generator: Adobe Illustrator 16.0.0, SVG Export Plug-In . SVG Version: 6.00 Build 0)  -->
<!DOCTYPE svg PUBLIC "-//W3C//DTD SVG 1.1//EN" "http://www.w3.org/Graphics/SVG/1.1/DTD/svg11.dtd">
<svg version="1.1" id="레이어_1" xmlns="http://www.w3.org/2000/svg" xmlns:xlink="http://www.w3.org/1999/xlink" x="0px"
	 y="0px" width="90px" height="60px" viewBox="0 0 90 60" enable-background="new 0 0 90 60" xml:space="preserve">
<path fill="#FFFFFF" stroke="#000000" stroke-miterlimit="10" d="M18.205,24.406h-4.097v12.069h-2.618V24.406H7.375v-2.058h10.829
	V24.406z"/>
<path fill="#FFFFFF" stroke="#000000" stroke-miterlimit="10" d="M18.426,26.938c0.793-0.464,1.564-0.762,2.312-0.892
	c0.748-0.131,1.422-0.185,2.023-0.162c0.566,0.023,1.096,0.113,1.589,0.272c0.493,0.158,0.924,0.388,1.292,0.688
	c0.368,0.3,0.657,0.666,0.867,1.097c0.209,0.431,0.314,0.935,0.314,1.513v4.59c0,0.248,0.014,0.555,0.042,0.918
	c0.028,0.363,0.139,0.867,0.332,1.512H24.24l-0.017-1.07c-0.17,0.238-0.366,0.439-0.586,0.604c-0.221,0.164-0.457,0.303-0.706,0.416
	c-0.25,0.113-0.499,0.195-0.748,0.248c-0.25,0.051-0.487,0.076-0.714,0.076c-0.499,0-0.983-0.074-1.454-0.221
	c-0.47-0.148-0.887-0.363-1.25-0.646s-0.654-0.639-0.875-1.063c-0.221-0.426-0.332-0.922-0.332-1.488
	c0-0.703,0.133-1.316,0.399-1.844c0.266-0.528,0.668-0.95,1.207-1.267c0.538-0.317,1.221-0.529,2.048-0.638
	c0.827-0.107,1.802-0.093,2.924,0.043c0.011-0.442-0.119-0.811-0.391-1.105c-0.272-0.294-0.612-0.492-1.02-0.595
	c-0.25-0.057-0.521-0.079-0.816-0.068c-0.295,0.012-0.589,0.052-0.884,0.119c-0.294,0.068-0.583,0.153-0.867,0.255
	c-0.284,0.103-0.533,0.216-0.748,0.341L18.426,26.938z M21.758,34.844c0.283,0,0.566-0.057,0.85-0.17s0.539-0.266,0.765-0.459
	s0.414-0.422,0.561-0.689c0.147-0.266,0.221-0.547,0.221-0.842v-1.291c-1.428-0.193-2.479-0.137-3.154,0.17
	s-1.011,0.781-1.011,1.428c0,0.67,0.17,1.145,0.51,1.428C20.84,34.701,21.259,34.844,21.758,34.844z"/>
<path fill="#FFFFFF" stroke="#000000" stroke-miterlimit="10" d="M35.085,25.918c0.737,0,1.38,0.128,1.93,0.383
	s1.009,0.617,1.377,1.088c0.368,0.47,0.643,1.037,0.825,1.7c0.181,0.662,0.272,1.402,0.272,2.217c0,1.723-0.363,3.033-1.088,3.928
	c-0.726,0.895-1.831,1.344-3.315,1.344c-0.68,0-1.241-0.131-1.683-0.393c-0.442-0.26-0.799-0.6-1.071-1.02v5.27h-2.618V26.173h2.618
	v1.275c0.295-0.477,0.666-0.851,1.114-1.122C33.892,26.054,34.439,25.918,35.085,25.918z M34.609,27.89
	c-0.612,0-1.131,0.229-1.556,0.688s-0.666,1.188-0.723,2.185v1.02c0.034,0.408,0.105,0.787,0.212,1.139
	c0.108,0.352,0.255,0.654,0.442,0.91s0.414,0.453,0.68,0.596c0.266,0.141,0.581,0.211,0.944,0.211c0.396,0,0.736-0.098,1.02-0.297
	c0.283-0.197,0.518-0.459,0.705-0.781c0.187-0.324,0.326-0.684,0.417-1.08s0.136-0.799,0.136-1.207c0-0.43-0.04-0.85-0.119-1.258
	c-0.079-0.407-0.209-0.768-0.391-1.079c-0.181-0.312-0.416-0.563-0.705-0.757C35.383,27.987,35.028,27.89,34.609,27.89z"/>
<g>
</g>
<g>
</g>
<g>
</g>
<g>
</g>
<g>
</g>
<g>
</g>
<g>
</g>
<g>
</g>
<g>
</g>
<g>
</g>
<g>
</g>
<g>
</g>
<g>
</g>
<g>
</g>
<g>
</g>
</svg>
