<?xml version="1.0" encoding="utf-8"?>
<!-- Generator: Adobe Illustrator 16.0.0, SVG Export Plug-In . SVG Version: 6.00 Build 0)  -->
<!DOCTYPE svg PUBLIC "-//W3C//DTD SVG 1.1//EN" "http://www.w3.org/Graphics/SVG/1.1/DTD/svg11.dtd">
<svg version="1.1" id="레이어_1" xmlns="http://www.w3.org/2000/svg" xmlns:xlink="http://www.w3.org/1999/xlink" x="0px"
	 y="0px" width="60px" height="60px" viewBox="0 0 60 60" enable-background="new 0 0 60 60" xml:space="preserve">
<path fill="#FFFFFF" stroke="#000000" stroke-miterlimit="10" d="M24.53,23.385c0.88-0.72,1.76-1.229,2.64-1.53
	c0.88-0.3,1.74-0.442,2.58-0.43c0.747,0,1.443,0.09,2.09,0.27c0.646,0.181,1.207,0.454,1.68,0.82
	c0.475,0.367,0.849,0.827,1.121,1.38c0.272,0.554,0.41,1.204,0.41,1.95c0,0.387-0.07,0.764-0.211,1.13
	c-0.14,0.367-0.33,0.704-0.57,1.01c-0.238,0.308-0.513,0.577-0.818,0.811c-0.309,0.233-0.627,0.417-0.96,0.55
	c0.358,0.08,0.729,0.233,1.108,0.46c0.381,0.227,0.73,0.51,1.051,0.851c0.32,0.34,0.584,0.727,0.789,1.159
	c0.207,0.434,0.312,0.885,0.312,1.352c0,0.693-0.08,1.303-0.24,1.83c-0.159,0.525-0.383,0.988-0.67,1.389
	c-0.286,0.401-0.627,0.736-1.021,1.01s-0.811,0.504-1.25,0.691c-0.68,0.279-1.387,0.445-2.119,0.5
	c-0.733,0.053-1.46,0.01-2.18-0.131s-1.423-0.369-2.11-0.689c-0.687-0.319-1.324-0.713-1.91-1.18l1.44-2.141
	c0.293,0.254,0.64,0.496,1.04,0.729c0.4,0.232,0.82,0.427,1.26,0.58c0.44,0.152,0.89,0.25,1.35,0.289
	c0.46,0.041,0.903-0.006,1.33-0.139c0.681-0.228,1.181-0.546,1.5-0.951c0.32-0.406,0.479-0.99,0.479-1.75
	c0-0.479-0.106-0.877-0.319-1.188c-0.213-0.313-0.483-0.563-0.812-0.75c-0.326-0.188-0.683-0.317-1.068-0.391
	c-0.387-0.072-0.76-0.109-1.12-0.109h-2.54v-2.479h2.54c0.347,0,0.677-0.047,0.99-0.141c0.313-0.093,0.586-0.236,0.82-0.43
	c0.232-0.193,0.42-0.44,0.561-0.74c0.14-0.3,0.21-0.649,0.21-1.05c0-0.307-0.065-0.587-0.2-0.84
	c-0.134-0.253-0.311-0.467-0.529-0.641c-0.221-0.173-0.478-0.306-0.771-0.399c-0.293-0.093-0.607-0.14-0.94-0.14
	c-0.44,0-0.96,0.1-1.56,0.3c-0.6,0.2-1.22,0.553-1.86,1.06L24.53,23.385z"/>
</svg>
