<?xml version="1.0" encoding="utf-8"?>
<!-- Generator: Adobe Illustrator 16.0.0, SVG Export Plug-In . SVG Version: 6.00 Build 0)  -->
<!DOCTYPE svg PUBLIC "-//W3C//DTD SVG 1.1//EN" "http://www.w3.org/Graphics/SVG/1.1/DTD/svg11.dtd">
<svg version="1.1" id="레이어_1" xmlns="http://www.w3.org/2000/svg" xmlns:xlink="http://www.w3.org/1999/xlink" x="0px"
	 y="0px" width="60px" height="60px" viewBox="0 0 60 60" enable-background="new 0 0 60 60" xml:space="preserve">
<path fill="#FFFFFF" stroke="#000000" stroke-miterlimit="10" d="M27.97,22.265l3.1-0.979v3.84h2.779v2.399H31.07v5.801
	c0,0.373,0.076,0.672,0.229,0.898c0.153,0.229,0.355,0.403,0.61,0.53c0.253,0.127,0.539,0.213,0.858,0.261
	c0.32,0.047,0.646,0.069,0.98,0.069v2.459c-0.84,0.095-1.617,0.084-2.33-0.028c-0.713-0.113-1.324-0.339-1.83-0.67
	c-0.507-0.335-0.903-0.771-1.19-1.312c-0.287-0.539-0.43-1.188-0.43-1.949v-6.061h-1.9v-2.399h1.9v-2.86H27.97z"/>
</svg>
