<?xml version="1.0" encoding="utf-8"?>
<!-- Generator: Adobe Illustrator 16.0.0, SVG Export Plug-In . SVG Version: 6.00 Build 0)  -->
<!DOCTYPE svg PUBLIC "-//W3C//DTD SVG 1.1//EN" "http://www.w3.org/Graphics/SVG/1.1/DTD/svg11.dtd">
<svg version="1.1" id="레이어_1" xmlns="http://www.w3.org/2000/svg" xmlns:xlink="http://www.w3.org/1999/xlink" x="0px"
	 y="0px" width="60px" height="60px" viewBox="0 0 60 60" enable-background="new 0 0 60 60" xml:space="preserve">
<path fill="#FFFFFF" stroke="#000000" stroke-miterlimit="10" d="M29.99,24.845c0.76,0,1.406,0.163,1.939,0.49
	c0.532,0.327,0.973,0.77,1.319,1.33v-1.521h3.08v10.74c0,0.826-0.106,1.564-0.32,2.212c-0.213,0.646-0.506,1.209-0.88,1.688
	c-0.373,0.479-0.804,0.873-1.29,1.18c-0.485,0.308-0.996,0.541-1.528,0.701c-0.509,0.146-1.052,0.229-1.631,0.25
	c-0.58,0.021-1.16-0.019-1.74-0.11c-0.58-0.094-1.15-0.24-1.71-0.439s-1.08-0.439-1.56-0.721l0.96-2.14
	c0.307,0.172,0.65,0.336,1.03,0.49c0.38,0.151,0.773,0.274,1.18,0.369c0.406,0.094,0.82,0.146,1.24,0.159
	c0.42,0.015,0.822-0.032,1.21-0.141c0.28-0.08,0.536-0.197,0.771-0.35c0.232-0.152,0.439-0.359,0.619-0.619S33,37.84,33.1,37.473
	c0.102-0.365,0.15-0.809,0.15-1.33v-0.52c-0.334,0.508-0.76,0.928-1.279,1.26c-0.521,0.334-1.181,0.5-1.979,0.5
	c-1.747,0-3.047-0.529-3.9-1.59c-0.854-1.061-1.28-2.604-1.28-4.629c0-0.96,0.106-1.831,0.32-2.611
	c0.214-0.78,0.537-1.443,0.97-1.99c0.433-0.546,0.973-0.97,1.62-1.27C28.367,24.996,29.123,24.845,29.99,24.845z M30.55,27.166
	c-0.494,0-0.91,0.113-1.25,0.34c-0.34,0.227-0.617,0.523-0.83,0.89c-0.213,0.367-0.367,0.79-0.46,1.271
	c-0.094,0.479-0.14,0.974-0.14,1.479c0,0.479,0.053,0.955,0.16,1.42c0.106,0.467,0.27,0.891,0.49,1.271
	c0.22,0.379,0.497,0.687,0.83,0.92c0.333,0.231,0.733,0.351,1.2,0.351c0.44,0,0.827-0.099,1.16-0.291
	c0.333-0.191,0.613-0.455,0.841-0.789c0.227-0.334,0.396-0.73,0.51-1.189c0.113-0.461,0.176-0.963,0.189-1.51v-0.182
	c0-0.692-0.066-1.291-0.199-1.791c-0.135-0.5-0.32-0.913-0.561-1.239c-0.24-0.327-0.527-0.567-0.86-0.721
	S30.938,27.166,30.55,27.166z"/>
</svg>
