<?xml version="1.0" encoding="utf-8"?>
<!-- Generator: Adobe Illustrator 16.0.0, SVG Export Plug-In . SVG Version: 6.00 Build 0)  -->
<!DOCTYPE svg PUBLIC "-//W3C//DTD SVG 1.1//EN" "http://www.w3.org/Graphics/SVG/1.1/DTD/svg11.dtd">
<svg version="1.1" id="레이어_1" xmlns="http://www.w3.org/2000/svg" xmlns:xlink="http://www.w3.org/1999/xlink" x="0px"
	 y="0px" width="60px" height="34px" viewBox="0 0 60 34" enable-background="new 0 0 60 34" xml:space="preserve">
<path fill="#FFFFFF" stroke="#000000" stroke-miterlimit="10" d="M20.47,12.925v-0.66c0-0.813,0.11-1.5,0.33-2.06
	c0.22-0.561,0.517-1.014,0.89-1.36c0.373-0.347,0.803-0.6,1.29-0.76c0.486-0.16,0.997-0.24,1.53-0.24c0.413,0,0.86,0.05,1.34,0.15
	s0.98,0.303,1.5,0.609l-1.1,2.061c-0.347-0.146-0.647-0.243-0.9-0.29s-0.44-0.07-0.56-0.07c-0.4,0-0.704,0.13-0.91,0.39
	c-0.207,0.261-0.31,0.711-0.31,1.351v0.88h2.38v2.4h-2.38v9.939h-3.1v-9.939h-1.56v-2.4L20.47,12.925L20.47,12.925z"/>
<path fill="#FFFFFF" stroke="#000000" stroke-miterlimit="10" d="M38.289,10.985c-0.813,0.16-1.537,0.374-2.17,0.641
	s-1.188,0.58-1.66,0.939c-0.473,0.36-0.879,0.761-1.219,1.2c-0.342,0.44-0.631,0.914-0.871,1.42c0.4-0.2,0.83-0.33,1.291-0.39
	c0.459-0.061,0.916-0.09,1.369-0.09c0.813,0,1.539,0.146,2.18,0.439c0.641,0.294,1.182,0.684,1.621,1.17
	c0.439,0.487,0.775,1.051,1.01,1.691c0.232,0.64,0.35,1.3,0.35,1.979c0,0.801-0.141,1.547-0.42,2.24
	c-0.278,0.692-0.67,1.291-1.17,1.791s-1.098,0.893-1.789,1.18c-0.693,0.287-1.461,0.43-2.301,0.43c-1.027,0-1.906-0.18-2.641-0.539
	c-0.732-0.361-1.333-0.852-1.8-1.471c-0.467-0.619-0.81-1.336-1.03-2.15c-0.22-0.813-0.33-1.68-0.33-2.6
	c0-1.2,0.197-2.363,0.59-3.49c0.394-1.127,0.977-2.153,1.75-3.08c0.773-0.927,1.734-1.713,2.881-2.36
	c1.146-0.646,2.467-1.083,3.961-1.31L38.289,10.985z M37.049,20.064c0-0.865-0.203-1.576-0.609-2.129
	c-0.405-0.554-1.037-0.831-1.891-0.831c-0.52,0-1.023,0.09-1.51,0.271c-0.486,0.181-0.902,0.483-1.25,0.91
	c-0.094,0.562-0.109,1.131-0.049,1.711c0.059,0.58,0.199,1.108,0.42,1.59c0.219,0.479,0.516,0.869,0.889,1.17
	c0.374,0.3,0.834,0.449,1.381,0.449c0.413,0,0.783-0.08,1.109-0.24c0.327-0.159,0.604-0.379,0.83-0.659
	c0.227-0.279,0.396-0.613,0.51-1C36.993,20.919,37.049,20.506,37.049,20.064z"/>
</svg>
