<?xml version="1.0" encoding="utf-8"?>
<!-- Generator: Adobe Illustrator 16.0.0, SVG Export Plug-In . SVG Version: 6.00 Build 0)  -->
<!DOCTYPE svg PUBLIC "-//W3C//DTD SVG 1.1//EN" "http://www.w3.org/Graphics/SVG/1.1/DTD/svg11.dtd">
<svg version="1.1" id="레이어_1" xmlns="http://www.w3.org/2000/svg" xmlns:xlink="http://www.w3.org/1999/xlink" x="0px"
	 y="0px" width="60px" height="60px" viewBox="0 0 60 60" enable-background="new 0 0 60 60" xml:space="preserve">
<path fill="#FFFFFF" stroke="#000000" stroke-miterlimit="10" d="M31.87,24.845c0.866,0,1.623,0.15,2.271,0.45
	c0.646,0.3,1.187,0.727,1.619,1.28c0.434,0.553,0.758,1.22,0.971,2c0.213,0.779,0.319,1.649,0.319,2.61
	c0,2.026-0.427,3.565-1.28,4.619c-0.854,1.055-2.151,1.579-3.898,1.579c-0.801,0-1.46-0.151-1.98-0.459
	c-0.52-0.307-0.94-0.707-1.26-1.2v6.2h-3.08v-16.78h3.08v1.5c0.347-0.56,0.783-1,1.31-1.319
	C30.467,25.005,31.109,24.845,31.87,24.845z M31.311,27.166c-0.721,0-1.331,0.27-1.831,0.81s-0.783,1.397-0.85,2.57v1.201
	c0.04,0.479,0.123,0.926,0.25,1.34c0.126,0.412,0.3,0.771,0.52,1.07c0.22,0.299,0.487,0.532,0.8,0.698
	c0.313,0.166,0.683,0.25,1.11,0.25c0.465,0,0.865-0.116,1.198-0.35c0.334-0.234,0.61-0.541,0.83-0.92
	c0.222-0.381,0.384-0.805,0.49-1.271c0.106-0.465,0.16-0.938,0.16-1.42c0-0.504-0.048-1-0.142-1.479
	c-0.094-0.48-0.246-0.903-0.459-1.271c-0.214-0.366-0.49-0.663-0.83-0.89S31.803,27.166,31.311,27.166z"/>
</svg>
