<?xml version="1.0" encoding="utf-8"?>
<!-- Generator: Adobe Illustrator 16.0.0, SVG Export Plug-In . SVG Version: 6.00 Build 0)  -->
<!DOCTYPE svg PUBLIC "-//W3C//DTD SVG 1.1//EN" "http://www.w3.org/Graphics/SVG/1.1/DTD/svg11.dtd">
<svg version="1.1" id="레이어_1" xmlns="http://www.w3.org/2000/svg" xmlns:xlink="http://www.w3.org/1999/xlink" x="0px"
	 y="0px" width="60px" height="60px" viewBox="0 0 60 60" enable-background="new 0 0 60 60" xml:space="preserve">
<path fill="#FFFFFF" stroke="#000000" stroke-miterlimit="10" d="M23.92,33.545c0-0.48,0.08-0.93,0.24-1.35
	c0.16-0.42,0.376-0.812,0.65-1.17c0.273-0.36,0.587-0.68,0.94-0.96c0.354-0.279,0.73-0.513,1.13-0.699
	c-0.28-0.187-0.554-0.403-0.82-0.65s-0.503-0.521-0.71-0.82s-0.377-0.623-0.51-0.97c-0.134-0.347-0.2-0.72-0.2-1.12
	c0-0.733,0.146-1.373,0.44-1.92c0.294-0.547,0.687-1,1.18-1.36c0.493-0.359,1.06-0.63,1.7-0.81c0.64-0.18,1.3-0.271,1.98-0.271
	c0.693,0,1.362,0.08,2.01,0.24c0.646,0.16,1.217,0.417,1.71,0.771c0.492,0.354,0.891,0.803,1.189,1.35
	c0.301,0.547,0.45,1.2,0.45,1.96c0,0.374-0.063,0.733-0.19,1.08c-0.127,0.347-0.293,0.674-0.5,0.98
	c-0.207,0.307-0.446,0.587-0.719,0.84c-0.273,0.253-0.558,0.474-0.852,0.66c0.413,0.199,0.804,0.443,1.17,0.729
	c0.366,0.287,0.688,0.61,0.96,0.97c0.272,0.358,0.49,0.756,0.649,1.188c0.16,0.433,0.24,0.892,0.24,1.371
	c0.014,0.813-0.127,1.529-0.42,2.147c-0.293,0.621-0.703,1.146-1.229,1.57c-0.527,0.428-1.156,0.75-1.892,0.971
	c-0.731,0.222-1.539,0.33-2.418,0.33c-0.879,0-1.7-0.104-2.46-0.311c-0.76-0.207-1.417-0.516-1.97-0.93
	c-0.554-0.414-0.987-0.937-1.3-1.57C24.057,35.162,23.907,34.412,23.92,33.545z M27.04,33.605c0,0.387,0.077,0.74,0.23,1.061
	c0.153,0.318,0.363,0.592,0.63,0.818c0.267,0.229,0.576,0.404,0.93,0.531c0.353,0.127,0.737,0.188,1.15,0.188
	c0.907,0,1.624-0.24,2.151-0.722c0.525-0.479,0.782-1.11,0.77-1.897c0-0.349-0.08-0.67-0.239-0.971
	c-0.16-0.302-0.377-0.572-0.65-0.82c-0.272-0.246-0.586-0.459-0.938-0.64c-0.354-0.18-0.73-0.323-1.13-0.43
	c-0.347,0.106-0.694,0.25-1.04,0.43c-0.347,0.181-0.657,0.396-0.93,0.648c-0.273,0.254-0.497,0.531-0.67,0.83
	C27.127,32.936,27.04,33.258,27.04,33.605z M27.66,25.845c0.013,0.547,0.237,1,0.67,1.36c0.433,0.359,1.01,0.667,1.73,0.92
	c0.667-0.253,1.2-0.561,1.6-0.92c0.4-0.36,0.6-0.84,0.6-1.44c0-0.32-0.068-0.603-0.209-0.85s-0.32-0.45-0.541-0.61
	c-0.22-0.16-0.467-0.283-0.74-0.37c-0.272-0.086-0.542-0.13-0.81-0.13c-0.24,0-0.497,0.04-0.77,0.12
	c-0.273,0.08-0.523,0.207-0.75,0.38c-0.227,0.174-0.414,0.387-0.56,0.64C27.733,25.199,27.66,25.499,27.66,25.845z"/>
</svg>
