<?xml version="1.0" encoding="utf-8"?>
<!-- Generator: Adobe Illustrator 16.0.0, SVG Export Plug-In . SVG Version: 6.00 Build 0)  -->
<!DOCTYPE svg PUBLIC "-//W3C//DTD SVG 1.1//EN" "http://www.w3.org/Graphics/SVG/1.1/DTD/svg11.dtd">
<svg version="1.1" id="레이어_1" xmlns="http://www.w3.org/2000/svg" xmlns:xlink="http://www.w3.org/1999/xlink" x="0px"
	 y="0px" width="60px" height="60px" viewBox="0 0 60 60" enable-background="new 0 0 60 60" xml:space="preserve">
<path fill="#FFFFFF" stroke="#000000" stroke-miterlimit="10" d="M27.08,39.426c0.547-0.094,1.006-0.211,1.38-0.35
	c0.373-0.141,0.676-0.311,0.91-0.512c0.233-0.199,0.4-0.437,0.5-0.709c0.1-0.273,0.15-0.599,0.15-0.972v-11.74h3.06v11.941
	c0,0.601-0.107,1.166-0.32,1.699c-0.213,0.532-0.537,1.01-0.97,1.43c-0.435,0.42-0.979,0.777-1.64,1.07
	c-0.66,0.293-1.443,0.485-2.35,0.58L27.08,39.426z M29.68,20.206h3.66v3.18h-3.66V20.206z"/>
</svg>
