<?xml version="1.0" encoding="utf-8"?>
<!-- Generator: Adobe Illustrator 16.0.0, SVG Export Plug-In . SVG Version: 6.00 Build 0)  -->
<!DOCTYPE svg PUBLIC "-//W3C//DTD SVG 1.1//EN" "http://www.w3.org/Graphics/SVG/1.1/DTD/svg11.dtd">
<svg version="1.1" id="레이어_1" xmlns="http://www.w3.org/2000/svg" xmlns:xlink="http://www.w3.org/1999/xlink" x="0px"
	 y="0px" width="60px" height="60px" viewBox="0 0 60 60" enable-background="new 0 0 60 60" xml:space="preserve">
<path fill="#FFFFFF" stroke="#000000" stroke-miterlimit="10" d="M33.21,28.965c0,0.773,0.2,1.51,0.601,2.21
	c0.399,0.699,0.916,1.341,1.549,1.921c0.635,0.579,1.341,1.096,2.121,1.549c0.779,0.455,1.549,0.819,2.311,1.102l-1.921,2.02
	c-1.279-0.494-2.481-1.127-3.609-1.899c-1.127-0.773-2.022-1.675-2.688-2.699c-0.348,0.506-0.758,0.985-1.23,1.438
	c-0.474,0.453-0.983,0.873-1.53,1.261c-0.547,0.387-1.117,0.743-1.71,1.069c-0.593,0.326-1.183,0.609-1.77,0.851l-1.9-2
	c0.773-0.308,1.55-0.693,2.33-1.16c0.78-0.467,1.483-0.992,2.11-1.58c0.627-0.586,1.133-1.228,1.52-1.92
	c0.387-0.693,0.581-1.413,0.581-2.16v-3.2h3.239v3.199H33.21z"/>
</svg>
