<?xml version="1.0" encoding="utf-8"?>
<!-- Generator: Adobe Illustrator 16.0.0, SVG Export Plug-In . SVG Version: 6.00 Build 0)  -->
<!DOCTYPE svg PUBLIC "-//W3C//DTD SVG 1.1//EN" "http://www.w3.org/Graphics/SVG/1.1/DTD/svg11.dtd">
<svg version="1.1" id="레이어_1" xmlns="http://www.w3.org/2000/svg" xmlns:xlink="http://www.w3.org/1999/xlink" x="0px"
	 y="0px" width="93px" height="28px" viewBox="0 0 93 28" enable-background="new 0 0 93 28" xml:space="preserve">
<g>
	<path fill="#FFFFFF" stroke="#000000" stroke-miterlimit="10" d="M22.68,13.385c0-0.985,0.133-1.924,0.399-2.813
		s0.668-1.666,1.207-2.329c0.538-0.663,1.215-1.189,2.032-1.581c0.816-0.391,1.768-0.586,2.856-0.586
		c1.065,0,2.011,0.195,2.839,0.586c0.827,0.392,1.521,0.918,2.083,1.581s0.986,1.439,1.275,2.329s0.434,1.828,0.434,2.813
		c0,1.213-0.218,2.335-0.655,3.366c-0.436,1.031-1.091,1.876-1.963,2.533l2.244,2.363l-1.853,1.513l-2.601-2.788
		c-0.283,0.068-0.572,0.122-0.867,0.161c-0.295,0.04-0.606,0.06-0.935,0.06c-1.1,0-2.055-0.195-2.865-0.586
		c-0.811-0.392-1.485-0.915-2.023-1.573c-0.539-0.657-0.941-1.422-1.207-2.295C22.813,15.267,22.68,14.349,22.68,13.385z
		 M29.174,18.502c0.657,0,1.229-0.142,1.717-0.425s0.893-0.663,1.215-1.139c0.323-0.477,0.561-1.023,0.714-1.641
		c0.153-0.618,0.229-1.256,0.229-1.913c0-0.68-0.083-1.331-0.247-1.955c-0.165-0.623-0.408-1.173-0.731-1.648
		c-0.323-0.477-0.726-0.853-1.207-1.131c-0.482-0.277-1.045-0.416-1.691-0.416c-0.635,0-1.193,0.139-1.675,0.416
		c-0.482,0.278-0.884,0.654-1.207,1.131c-0.323,0.476-0.569,1.025-0.739,1.648c-0.17,0.624-0.255,1.275-0.255,1.955
		c0,0.657,0.079,1.295,0.238,1.913c0.159,0.617,0.399,1.164,0.723,1.641c0.323,0.476,0.728,0.855,1.215,1.139
		S28.528,18.502,29.174,18.502z"/>
	<path fill="#FFFFFF" stroke="#000000" stroke-miterlimit="10" d="M45.154,19.08c-0.136,0.249-0.309,0.473-0.519,0.672
		c-0.21,0.197-0.434,0.365-0.671,0.501s-0.49,0.241-0.756,0.314c-0.267,0.073-0.524,0.11-0.773,0.11
		c-0.567,0-1.088-0.085-1.564-0.255c-0.476-0.17-0.887-0.422-1.232-0.757c-0.346-0.334-0.615-0.747-0.807-1.24
		c-0.193-0.493-0.289-1.063-0.289-1.709v-6.63h2.601v6.443c0,0.34,0.051,0.644,0.153,0.909c0.102,0.267,0.232,0.49,0.391,0.672
		c0.158,0.181,0.342,0.317,0.552,0.407c0.209,0.091,0.428,0.137,0.655,0.137c0.351,0,0.666-0.065,0.943-0.195
		c0.277-0.131,0.516-0.31,0.714-0.536s0.349-0.495,0.451-0.808c0.102-0.312,0.153-0.648,0.153-1.011v-6.019h2.635v10.302h-2.635
		V19.08z"/>
	<path fill="#FFFFFF" stroke="#000000" stroke-miterlimit="10" d="M50.576,5.888h3.111v2.703h-3.111V5.888z M50.832,10.087h2.617
		v10.302h-2.617V10.087z"/>
	<path fill="#FFFFFF" stroke="#000000" stroke-miterlimit="10" d="M57.207,7.639l2.635-0.833v3.265h2.363v2.04h-2.363v4.93
		c0,0.317,0.064,0.572,0.195,0.765c0.13,0.193,0.303,0.343,0.518,0.451c0.216,0.107,0.46,0.181,0.732,0.221
		c0.271,0.04,0.549,0.06,0.832,0.06v2.091c-0.714,0.079-1.374,0.07-1.98-0.025c-0.605-0.097-1.125-0.286-1.555-0.569
		c-0.432-0.283-0.769-0.654-1.012-1.113c-0.244-0.459-0.365-1.012-0.365-1.658v-5.15h-1.615v-2.04h1.615V7.639z"/>
</g>
<polygon fill="#FFFFFF" stroke="#000000" stroke-miterlimit="10" points="79.932,10.639 77.346,8.053 73.984,11.415 70.623,8.053 
	68.037,10.639 71.398,14 68.037,17.361 70.623,19.947 73.984,16.586 77.346,19.947 79.932,17.361 76.57,14 "/>
<g>
</g>
<g>
</g>
<g>
</g>
<g>
</g>
<g>
</g>
<g>
</g>
<g>
</g>
<g>
</g>
<g>
</g>
<g>
</g>
<g>
</g>
<g>
</g>
<g>
</g>
<g>
</g>
<g>
</g>
</svg>
