<?xml version="1.0" encoding="utf-8"?>
<!-- Generator: Adobe Illustrator 16.0.0, SVG Export Plug-In . SVG Version: 6.00 Build 0)  -->
<!DOCTYPE svg PUBLIC "-//W3C//DTD SVG 1.1//EN" "http://www.w3.org/Graphics/SVG/1.1/DTD/svg11.dtd">
<svg version="1.1" id="레이어_1" xmlns="http://www.w3.org/2000/svg" xmlns:xlink="http://www.w3.org/1999/xlink" x="0px"
	 y="0px" width="60px" height="60px" viewBox="0 0 60 60" enable-background="new 0 0 60 60" xml:space="preserve">
<path fill="#FFFFFF" stroke="#000000" stroke-miterlimit="10" d="M38.91,36.605c-0.721-0.388-1.424-0.877-2.11-1.472
	c-0.687-0.592-1.257-1.182-1.71-1.77c-0.414,0.6-0.917,1.17-1.51,1.711c-0.594,0.539-1.237,1.028-1.93,1.469
	c-0.36-0.172-0.711-0.379-1.051-0.619c-0.341-0.239-0.667-0.5-0.98-0.78c-0.313-0.279-0.607-0.572-0.88-0.879
	c-0.273-0.308-0.517-0.607-0.73-0.9c-0.44,0.561-0.99,1.133-1.65,1.721c-0.66,0.586-1.357,1.113-2.09,1.58l-1.88-1.881
	c0.587-0.373,1.13-0.773,1.63-1.199c0.5-0.428,0.93-0.873,1.29-1.34s0.644-0.965,0.85-1.491c0.207-0.526,0.31-1.076,0.31-1.65v-4.14
	h3.12v4.14c0,0.521,0.043,0.98,0.13,1.38c0.086,0.4,0.21,0.763,0.37,1.091c0.16,0.326,0.36,0.637,0.601,0.93
	s0.513,0.586,0.819,0.879c0.601-0.572,1.08-1.209,1.439-1.91c0.36-0.699,0.54-1.49,0.54-2.37v-4.14h3.119v4.14
	c0,0.613,0.117,1.193,0.352,1.741c0.232,0.547,0.54,1.057,0.92,1.529c0.38,0.475,0.819,0.914,1.319,1.32s1.011,0.77,1.53,1.09
	L38.91,36.605z"/>
</svg>
