<?xml version="1.0" encoding="utf-8"?>
<!-- Generator: Adobe Illustrator 16.0.0, SVG Export Plug-In . SVG Version: 6.00 Build 0)  -->
<!DOCTYPE svg PUBLIC "-//W3C//DTD SVG 1.1//EN" "http://www.w3.org/Graphics/SVG/1.1/DTD/svg11.dtd">
<svg version="1.1" id="레이어_1" xmlns="http://www.w3.org/2000/svg" xmlns:xlink="http://www.w3.org/1999/xlink" x="0px"
	 y="0px" width="60px" height="60px" viewBox="0 0 60 60" enable-background="new 0 0 60 60" xml:space="preserve">
<path fill="#FFFFFF" stroke="#000000" stroke-miterlimit="10" d="M28.63,33.705c0-1.025,0.127-1.855,0.38-2.49
	c0.253-0.632,0.66-1.176,1.22-1.629c-0.547-0.427-0.95-0.923-1.21-1.49c-0.26-0.566-0.39-1.343-0.39-2.33v-1.18
	c0-0.4-0.01-0.764-0.03-1.09c-0.02-0.327-0.097-0.617-0.23-0.87c-0.133-0.253-0.34-0.47-0.62-0.65s-0.687-0.323-1.22-0.43v-1.86
	c0.893,0.094,1.66,0.247,2.3,0.46c0.64,0.214,1.17,0.511,1.59,0.891s0.73,0.85,0.93,1.409c0.201,0.561,0.301,1.24,0.301,2.04v1.341
	c0,0.399,0.039,0.77,0.119,1.109s0.222,0.637,0.42,0.891c0.201,0.253,0.472,0.463,0.812,0.63s0.771,0.29,1.29,0.37v1.56
	c-1.014,0.146-1.707,0.464-2.08,0.951c-0.374,0.486-0.561,1.17-0.561,2.049v1.92c0,0.654-0.088,1.236-0.26,1.75
	c-0.174,0.514-0.459,0.961-0.859,1.34c-0.4,0.381-0.927,0.691-1.58,0.933c-0.654,0.237-1.46,0.405-2.42,0.5v-1.74
	c0.453-0.094,0.82-0.239,1.1-0.44c0.28-0.199,0.493-0.431,0.64-0.689c0.146-0.26,0.243-0.549,0.29-0.869
	c0.046-0.32,0.07-0.66,0.07-1.021L28.63,33.705L28.63,33.705z"/>
</svg>
