<?xml version="1.0" encoding="utf-8"?>
<!-- Generator: Adobe Illustrator 16.0.0, SVG Export Plug-In . SVG Version: 6.00 Build 0)  -->
<!DOCTYPE svg PUBLIC "-//W3C//DTD SVG 1.1//EN" "http://www.w3.org/Graphics/SVG/1.1/DTD/svg11.dtd">
<svg version="1.1" id="레이어_1" xmlns="http://www.w3.org/2000/svg" xmlns:xlink="http://www.w3.org/1999/xlink" x="0px"
	 y="0px" width="60px" height="60px" viewBox="0 0 60 60" enable-background="new 0 0 60 60" xml:space="preserve">
<path fill="#FFFFFF" stroke="#000000" stroke-miterlimit="10" d="M35.471,35.826v2.439H24.63v-2.121l3.58-3.681
	c0.787-0.799,1.43-1.485,1.93-2.059c0.5-0.573,0.893-1.084,1.18-1.53s0.481-0.854,0.59-1.22c0.105-0.367,0.16-0.743,0.16-1.131
	c0-0.279-0.043-0.56-0.131-0.84c-0.086-0.279-0.219-0.536-0.399-0.77c-0.181-0.233-0.417-0.427-0.71-0.58s-0.64-0.243-1.04-0.271
	c-0.68-0.053-1.354,0.104-2.02,0.471c-0.667,0.366-1.3,0.823-1.9,1.37l-1.62-1.881c0.453-0.413,0.9-0.779,1.34-1.1
	c0.44-0.321,0.89-0.583,1.35-0.79c0.46-0.206,0.94-0.36,1.44-0.46c0.5-0.1,1.043-0.137,1.63-0.11c0.84,0.04,1.574,0.193,2.2,0.46
	c0.627,0.268,1.149,0.62,1.569,1.061c0.421,0.439,0.736,0.957,0.951,1.55c0.213,0.594,0.319,1.23,0.319,1.91
	c0,0.64-0.101,1.25-0.301,1.83c-0.199,0.58-0.496,1.17-0.89,1.77c-0.395,0.601-0.881,1.228-1.461,1.879
	c-0.58,0.654-1.258,1.381-2.029,2.181l-1.54,1.621L35.471,35.826L35.471,35.826z"/>
</svg>
