<?xml version="1.0" encoding="utf-8"?>
<!-- Generator: Adobe Illustrator 16.0.0, SVG Export Plug-In . SVG Version: 6.00 Build 0)  -->
<!DOCTYPE svg PUBLIC "-//W3C//DTD SVG 1.1//EN" "http://www.w3.org/Graphics/SVG/1.1/DTD/svg11.dtd">
<svg version="1.1" id="레이어_1" xmlns="http://www.w3.org/2000/svg" xmlns:xlink="http://www.w3.org/1999/xlink" x="0px"
	 y="0px" width="124px" height="34px" viewBox="0 0 124 34" enable-background="new 0 0 124 34" xml:space="preserve">
<path fill="#FFFFFF" stroke="#000000" stroke-miterlimit="10" d="M59.969,9.348c1.054,0,2,0.193,2.839,0.578
	c0.839,0.386,1.55,0.904,2.134,1.556c0.583,0.651,1.031,1.408,1.343,2.27s0.468,1.763,0.468,2.703s-0.159,1.836-0.477,2.686
	s-0.771,1.596-1.359,2.234c-0.59,0.641-1.304,1.15-2.143,1.531c-0.839,0.379-1.774,0.568-2.805,0.568h-4.811V9.348H59.969z
	 M59.884,21.402c0.68,0,1.275-0.131,1.785-0.393c0.51-0.26,0.941-0.617,1.292-1.07s0.615-0.977,0.791-1.572
	c0.176-0.595,0.264-1.233,0.264-1.913c0-0.748-0.094-1.431-0.28-2.049c-0.188-0.617-0.457-1.147-0.808-1.589
	c-0.352-0.442-0.785-0.788-1.301-1.037c-0.516-0.25-1.096-0.374-1.742-0.374h-2.108v9.997H59.884z"/>
<path fill="#FFFFFF" stroke="#000000" stroke-miterlimit="10" d="M77.801,22.336c-0.566,0.5-1.178,0.855-1.836,1.072
	c-0.657,0.215-1.405,0.328-2.244,0.34c-0.781,0-1.496-0.113-2.142-0.34c-0.646-0.229-1.198-0.568-1.657-1.021
	s-0.813-1.008-1.063-1.666c-0.25-0.656-0.374-1.41-0.374-2.26c0-0.839,0.116-1.598,0.349-2.279c0.232-0.68,0.563-1.258,0.994-1.733
	c0.431-0.477,0.955-0.845,1.572-1.105s1.318-0.391,2.1-0.391c0.76,0,1.434,0.133,2.023,0.399c0.589,0.267,1.085,0.635,1.487,1.104
	c0.402,0.471,0.708,1.021,0.918,1.649s0.309,1.307,0.298,2.031c0,0.148-0.009,0.324-0.025,0.527
	c-0.018,0.205-0.037,0.387-0.061,0.545h-7.004c0.045,0.498,0.159,0.908,0.34,1.232c0.182,0.322,0.4,0.578,0.655,0.764
	c0.255,0.188,0.529,0.32,0.824,0.4s0.583,0.119,0.867,0.119c0.227,0,0.468-0.018,0.723-0.051c0.255-0.035,0.507-0.092,0.757-0.17
	c0.248-0.08,0.484-0.184,0.705-0.314s0.41-0.287,0.569-0.469L77.801,22.336z M75.693,17.237c-0.012-0.329-0.08-0.635-0.204-0.918
	c-0.125-0.283-0.292-0.53-0.501-0.74c-0.211-0.209-0.451-0.374-0.723-0.493c-0.272-0.118-0.551-0.178-0.834-0.178
	c-0.271,0-0.541,0.06-0.807,0.178c-0.267,0.119-0.508,0.284-0.723,0.493c-0.215,0.21-0.391,0.457-0.527,0.74
	c-0.136,0.283-0.209,0.589-0.221,0.918H75.693z"/>
<path fill="#FFFFFF" stroke="#000000" stroke-miterlimit="10" d="M80.691,8.974h2.618v14.5h-2.618V8.974z"/>
<path fill="#FFFFFF" stroke="#000000" stroke-miterlimit="10" d="M95.09,22.336c-0.566,0.5-1.178,0.855-1.836,1.072
	c-0.657,0.215-1.405,0.328-2.244,0.34c-0.781,0-1.496-0.113-2.142-0.34c-0.646-0.229-1.198-0.568-1.657-1.021
	s-0.813-1.008-1.063-1.666c-0.25-0.656-0.374-1.41-0.374-2.26c0-0.839,0.116-1.598,0.349-2.279c0.232-0.68,0.563-1.258,0.994-1.733
	c0.431-0.477,0.955-0.845,1.572-1.105s1.318-0.391,2.1-0.391c0.76,0,1.434,0.133,2.023,0.399c0.589,0.267,1.085,0.635,1.487,1.104
	c0.402,0.471,0.708,1.021,0.918,1.649s0.309,1.307,0.298,2.031c0,0.148-0.009,0.324-0.025,0.527
	c-0.018,0.205-0.037,0.387-0.061,0.545h-7.004c0.045,0.498,0.159,0.908,0.34,1.232c0.182,0.322,0.4,0.578,0.655,0.764
	c0.255,0.188,0.529,0.32,0.824,0.4s0.583,0.119,0.867,0.119c0.227,0,0.468-0.018,0.723-0.051c0.255-0.035,0.507-0.092,0.757-0.17
	c0.248-0.08,0.484-0.184,0.705-0.314s0.41-0.287,0.569-0.469L95.09,22.336z M92.982,17.237c-0.012-0.329-0.08-0.635-0.204-0.918
	c-0.125-0.283-0.292-0.53-0.501-0.74c-0.211-0.209-0.451-0.374-0.723-0.493c-0.272-0.118-0.551-0.178-0.834-0.178
	c-0.271,0-0.541,0.06-0.807,0.178c-0.267,0.119-0.508,0.284-0.723,0.493c-0.215,0.21-0.391,0.457-0.527,0.74
	c-0.136,0.283-0.209,0.589-0.221,0.918H92.982z"/>
<path fill="#FFFFFF" stroke="#000000" stroke-miterlimit="10" d="M98.371,10.725l2.635-0.833v3.265h2.363v2.04h-2.363v4.93
	c0,0.316,0.064,0.572,0.195,0.764c0.131,0.193,0.303,0.344,0.519,0.451s0.46,0.182,0.731,0.221c0.271,0.041,0.549,0.061,0.833,0.061
	v2.09c-0.714,0.08-1.374,0.07-1.981-0.025c-0.605-0.096-1.124-0.285-1.555-0.568c-0.432-0.283-0.768-0.654-1.012-1.113
	s-0.365-1.012-0.365-1.658v-5.151h-1.615v-2.04h1.615V10.725z"/>
<path fill="#FFFFFF" stroke="#000000" stroke-miterlimit="10" d="M113.96,22.336c-0.567,0.5-1.179,0.855-1.836,1.072
	c-0.657,0.215-1.405,0.328-2.244,0.34c-0.782,0-1.496-0.113-2.142-0.34c-0.646-0.229-1.199-0.568-1.658-1.021
	s-0.813-1.008-1.063-1.666c-0.249-0.656-0.373-1.41-0.373-2.26c0-0.839,0.115-1.598,0.348-2.279c0.232-0.68,0.564-1.258,0.994-1.733
	c0.432-0.477,0.955-0.845,1.573-1.105c0.617-0.261,1.317-0.391,2.099-0.391c0.76,0,1.434,0.133,2.023,0.399s1.086,0.635,1.488,1.104
	c0.402,0.471,0.707,1.021,0.918,1.649c0.209,0.629,0.309,1.307,0.297,2.031c0,0.148-0.008,0.324-0.025,0.527
	c-0.018,0.205-0.037,0.387-0.06,0.545h-7.004c0.045,0.498,0.159,0.908,0.34,1.232c0.181,0.322,0.399,0.578,0.655,0.764
	c0.254,0.188,0.529,0.32,0.824,0.4s0.583,0.119,0.867,0.119c0.227,0,0.467-0.018,0.723-0.051c0.254-0.035,0.506-0.092,0.756-0.17
	c0.249-0.08,0.484-0.184,0.705-0.314s0.411-0.287,0.57-0.469L113.96,22.336z M111.852,17.237c-0.012-0.329-0.079-0.635-0.203-0.918
	c-0.125-0.283-0.293-0.53-0.502-0.74c-0.21-0.209-0.451-0.374-0.723-0.493c-0.271-0.118-0.55-0.178-0.833-0.178
	c-0.272,0-0.541,0.06-0.808,0.178c-0.266,0.119-0.508,0.284-0.723,0.493c-0.215,0.21-0.391,0.457-0.527,0.74
	c-0.135,0.283-0.209,0.589-0.221,0.918H111.852z"/>
<g>
</g>
<g>
</g>
<g>
</g>
<g>
</g>
<g>
</g>
<g>
</g>
<g>
</g>
<g>
</g>
<g>
</g>
<g>
</g>
<g>
</g>
<g>
</g>
<g>
</g>
<g>
</g>
<g>
</g>
</svg>
