<?xml version="1.0" encoding="utf-8"?>
<!-- Generator: Adobe Illustrator 16.0.0, SVG Export Plug-In . SVG Version: 6.00 Build 0)  -->
<!DOCTYPE svg PUBLIC "-//W3C//DTD SVG 1.1//EN" "http://www.w3.org/Graphics/SVG/1.1/DTD/svg11.dtd">
<svg version="1.1" id="레이어_1" xmlns="http://www.w3.org/2000/svg" xmlns:xlink="http://www.w3.org/1999/xlink" x="0px"
	 y="0px" width="60px" height="34px" viewBox="0 0 60 34" enable-background="new 0 0 60 34" xml:space="preserve">
<path fill="#FFFFFF" stroke="#000000" stroke-miterlimit="10" d="M20.62,12.925v-0.66c0-0.813,0.11-1.5,0.33-2.06
	c0.22-0.561,0.517-1.014,0.89-1.36c0.373-0.347,0.803-0.6,1.29-0.76c0.486-0.16,0.997-0.24,1.53-0.24c0.413,0,0.86,0.05,1.34,0.15
	s0.98,0.303,1.5,0.609l-1.1,2.061c-0.347-0.146-0.647-0.243-0.9-0.29s-0.44-0.07-0.56-0.07c-0.4,0-0.704,0.13-0.91,0.39
	c-0.207,0.261-0.31,0.711-0.31,1.351v0.88h2.38v2.4h-2.38v9.939h-3.1v-9.939h-1.56v-2.4L20.62,12.925L20.62,12.925z"/>
<path fill="#FFFFFF" stroke="#000000" stroke-miterlimit="10" d="M29.1,10.385c0.88-0.72,1.759-1.229,2.64-1.53
	c0.88-0.3,1.74-0.442,2.58-0.43c0.746,0,1.443,0.09,2.09,0.27c0.646,0.181,1.207,0.454,1.68,0.82c0.473,0.367,0.848,0.827,1.12,1.38
	c0.272,0.554,0.41,1.204,0.41,1.95c0,0.387-0.07,0.764-0.21,1.13c-0.141,0.367-0.33,0.704-0.57,1.01
	c-0.24,0.308-0.514,0.577-0.82,0.811c-0.306,0.234-0.627,0.417-0.959,0.55c0.359,0.08,0.729,0.233,1.109,0.46s0.73,0.51,1.051,0.851
	c0.319,0.34,0.582,0.727,0.789,1.159c0.207,0.434,0.311,0.885,0.311,1.352c0,0.693-0.079,1.303-0.239,1.83
	c-0.16,0.525-0.384,0.988-0.67,1.389c-0.287,0.4-0.627,0.736-1.021,1.01c-0.395,0.273-0.811,0.504-1.25,0.691
	c-0.681,0.279-1.388,0.445-2.121,0.5c-0.731,0.053-1.459,0.01-2.18-0.131c-0.72-0.141-1.424-0.369-2.109-0.689
	c-0.688-0.319-1.324-0.713-1.911-1.18l1.44-2.141c0.293,0.254,0.641,0.496,1.04,0.729c0.399,0.232,0.82,0.427,1.261,0.58
	c0.439,0.152,0.89,0.25,1.351,0.289c0.46,0.041,0.901-0.006,1.33-0.139c0.68-0.228,1.18-0.546,1.5-0.951
	c0.319-0.406,0.479-0.99,0.479-1.75c0-0.479-0.106-0.877-0.32-1.188c-0.213-0.313-0.483-0.563-0.811-0.75
	c-0.326-0.188-0.684-0.317-1.07-0.391c-0.386-0.072-0.76-0.109-1.119-0.109h-2.541v-2.479H33.9c0.346,0,0.676-0.047,0.99-0.141
	c0.313-0.093,0.586-0.236,0.818-0.43c0.232-0.194,0.42-0.44,0.561-0.74c0.141-0.3,0.211-0.649,0.211-1.05
	c0-0.307-0.067-0.587-0.201-0.84c-0.133-0.253-0.311-0.467-0.529-0.641c-0.221-0.173-0.477-0.306-0.77-0.399
	c-0.295-0.093-0.607-0.14-0.94-0.14c-0.44,0-0.96,0.1-1.56,0.3c-0.602,0.2-1.222,0.553-1.86,1.06L29.1,10.385z"/>
</svg>
