<?xml version="1.0" encoding="utf-8"?>
<!-- Generator: Adobe Illustrator 16.0.0, SVG Export Plug-In . SVG Version: 6.00 Build 0)  -->
<!DOCTYPE svg PUBLIC "-//W3C//DTD SVG 1.1//EN" "http://www.w3.org/Graphics/SVG/1.1/DTD/svg11.dtd">
<svg version="1.1" id="레이어_1" xmlns="http://www.w3.org/2000/svg" xmlns:xlink="http://www.w3.org/1999/xlink" x="0px"
	 y="0px" width="60px" height="60px" viewBox="0 0 60 60" enable-background="new 0 0 60 60" xml:space="preserve">
<path fill="#FFFFFF" stroke="#000000" stroke-miterlimit="10" d="M34.95,31.502h-3.921v-2.44h7.041v7.56
	c-0.6,0.294-1.16,0.537-1.68,0.729c-0.521,0.193-1.021,0.348-1.5,0.461c-0.48,0.112-0.947,0.192-1.4,0.239
	c-0.453,0.046-0.907,0.069-1.36,0.069c-1.239,0-2.363-0.217-3.37-0.648c-1.007-0.435-1.87-1.031-2.59-1.791
	c-0.72-0.76-1.277-1.646-1.67-2.66c-0.394-1.013-0.59-2.1-0.59-3.259c0-1.28,0.203-2.45,0.61-3.51c0.407-1.061,0.97-1.974,1.69-2.74
	c0.72-0.767,1.577-1.363,2.57-1.79c0.993-0.427,2.083-0.646,3.271-0.66c1.146-0.013,2.186,0.113,3.119,0.38s1.801,0.653,2.6,1.16
	l-1.34,2.26c-0.627-0.347-1.289-0.64-1.99-0.88c-0.698-0.24-1.502-0.347-2.408-0.32c-0.801,0.027-1.51,0.204-2.13,0.53
	c-0.62,0.327-1.14,0.767-1.56,1.32c-0.42,0.554-0.74,1.193-0.96,1.92c-0.22,0.727-0.33,1.503-0.33,2.33c0,0.8,0.12,1.55,0.36,2.25
	c0.24,0.7,0.583,1.311,1.03,1.83c0.447,0.52,0.983,0.93,1.61,1.229c0.626,0.301,1.333,0.451,2.12,0.451
	c0.399,0,0.856-0.043,1.37-0.131c0.514-0.086,0.982-0.203,1.41-0.35L34.95,31.502L34.95,31.502z"/>
</svg>
