<?xml version="1.0" encoding="utf-8"?>
<!-- Generator: Adobe Illustrator 16.0.0, SVG Export Plug-In . SVG Version: 6.00 Build 0)  -->
<!DOCTYPE svg PUBLIC "-//W3C//DTD SVG 1.1//EN" "http://www.w3.org/Graphics/SVG/1.1/DTD/svg11.dtd">
<svg version="1.1" id="레이어_1" xmlns="http://www.w3.org/2000/svg" xmlns:xlink="http://www.w3.org/1999/xlink" x="0px"
	 y="0px" width="60px" height="60px" viewBox="0 0 60 60" enable-background="new 0 0 60 60" xml:space="preserve">
<path fill="#FFFFFF" stroke="#000000" stroke-miterlimit="10" d="M23.311,29.025c0-1.159,0.156-2.263,0.47-3.31
	c0.313-1.047,0.787-1.96,1.42-2.74c0.633-0.78,1.43-1.399,2.39-1.859s2.08-0.69,3.36-0.69c1.253,0,2.365,0.23,3.341,0.69
	c0.974,0.46,1.789,1.079,2.449,1.859c0.659,0.78,1.159,1.693,1.5,2.74c0.34,1.047,0.51,2.15,0.51,3.31
	c0,1.134-0.166,2.213-0.5,3.241c-0.333,1.027-0.826,1.926-1.479,2.699c-0.652,0.773-1.467,1.391-2.439,1.85
	c-0.973,0.461-2.1,0.691-3.38,0.691c-1.293,0-2.417-0.23-3.37-0.691c-0.954-0.459-1.747-1.076-2.38-1.85
	c-0.633-0.773-1.107-1.672-1.42-2.699C23.467,31.238,23.311,30.159,23.311,29.025z M30.95,35.025c0.772,0,1.446-0.166,2.021-0.5
	c0.572-0.334,1.051-0.779,1.43-1.34c0.381-0.562,0.66-1.201,0.841-1.92c0.18-0.721,0.27-1.468,0.27-2.242
	c0-0.8-0.096-1.566-0.288-2.3c-0.193-0.734-0.48-1.38-0.861-1.939c-0.379-0.561-0.854-1.004-1.42-1.33
	c-0.566-0.327-1.229-0.49-1.989-0.49c-0.747,0-1.403,0.163-1.97,0.49c-0.567,0.326-1.04,0.77-1.42,1.33s-0.67,1.206-0.87,1.939
	c-0.2,0.733-0.3,1.5-0.3,2.3c0,0.773,0.093,1.521,0.28,2.242c0.187,0.719,0.47,1.358,0.85,1.92c0.38,0.561,0.856,1.006,1.43,1.34
	C29.526,34.859,30.19,35.025,30.95,35.025z"/>
</svg>
