<?xml version="1.0" encoding="utf-8"?>
<!-- Generator: Adobe Illustrator 16.0.0, SVG Export Plug-In . SVG Version: 6.00 Build 0)  -->
<!DOCTYPE svg PUBLIC "-//W3C//DTD SVG 1.1//EN" "http://www.w3.org/Graphics/SVG/1.1/DTD/svg11.dtd">
<svg version="1.1" id="레이어_1" xmlns="http://www.w3.org/2000/svg" xmlns:xlink="http://www.w3.org/1999/xlink" x="0px"
	 y="0px" width="60px" height="60px" viewBox="0 0 60 60" enable-background="new 0 0 60 60" xml:space="preserve">
<path fill="#FFFFFF" stroke="#000000" stroke-miterlimit="10" d="M28.99,24.845c0.76,0,1.406,0.163,1.939,0.49
	c0.533,0.327,0.973,0.77,1.32,1.33v-1.54h3.1v16.8h-3.1v-6.221c-0.334,0.506-0.76,0.914-1.279,1.221
	c-0.521,0.308-1.181,0.459-1.98,0.459c-1.747,0-3.047-0.524-3.9-1.579c-0.854-1.054-1.28-2.593-1.28-4.619
	c0-0.96,0.106-1.832,0.32-2.61c0.213-0.78,0.537-1.447,0.97-2c0.433-0.554,0.973-0.98,1.62-1.28
	C27.367,24.996,28.123,24.845,28.99,24.845z M29.55,27.166c-0.494,0-0.91,0.113-1.25,0.34c-0.34,0.227-0.617,0.523-0.83,0.89
	c-0.213,0.367-0.367,0.79-0.46,1.271c-0.094,0.479-0.14,0.974-0.14,1.479c0,0.479,0.053,0.955,0.16,1.42
	c0.106,0.467,0.27,0.891,0.49,1.271c0.22,0.379,0.497,0.687,0.83,0.92c0.333,0.231,0.733,0.351,1.2,0.351
	c0.453,0,0.85-0.101,1.19-0.301c0.34-0.199,0.623-0.479,0.85-0.841c0.227-0.358,0.395-0.778,0.5-1.26c0.107-0.479,0.16-1,0.16-1.562
	v-0.199c-0.027-1.306-0.293-2.263-0.8-2.869C30.943,27.468,30.31,27.166,29.55,27.166z"/>
</svg>
