<?xml version="1.0" encoding="utf-8"?>
<!-- Generator: Adobe Illustrator 16.0.0, SVG Export Plug-In . SVG Version: 6.00 Build 0)  -->
<!DOCTYPE svg PUBLIC "-//W3C//DTD SVG 1.1//EN" "http://www.w3.org/Graphics/SVG/1.1/DTD/svg11.dtd">
<svg version="1.1" id="레이어_1" xmlns="http://www.w3.org/2000/svg" xmlns:xlink="http://www.w3.org/1999/xlink" x="0px"
	 y="0px" width="124px" height="60px" viewBox="0 0 124 60" enable-background="new 0 0 124 60" xml:space="preserve">
<path fill="#FFFFFF" stroke="#000000" stroke-miterlimit="10" d="M16.113,26.425c-0.204-0.147-0.442-0.289-0.714-0.425
	s-0.55-0.261-0.833-0.374c-0.284-0.113-0.561-0.204-0.833-0.272c-0.272-0.067-0.504-0.102-0.697-0.102
	c-0.691,0-1.204,0.17-1.538,0.51c-0.334,0.34-0.501,0.771-0.501,1.292c0,0.307,0.11,0.575,0.331,0.808
	c0.221,0.232,0.487,0.442,0.799,0.629c0.312,0.188,0.634,0.352,0.969,0.493s0.621,0.264,0.859,0.365
	c0.623,0.284,1.181,0.564,1.674,0.842c0.493,0.278,0.904,0.575,1.232,0.893c0.329,0.316,0.581,0.674,0.756,1.07
	s0.264,0.855,0.264,1.377c0,0.793-0.159,1.453-0.476,1.98s-0.722,0.949-1.215,1.268c-0.493,0.316-1.04,0.543-1.641,0.68
	c-0.601,0.135-1.179,0.203-1.734,0.203c-0.884,0-1.774-0.172-2.669-0.518c-0.896-0.346-1.791-0.928-2.686-1.742l1.598-1.684
	c0.238,0.227,0.51,0.445,0.816,0.654c0.306,0.209,0.618,0.395,0.935,0.553c0.317,0.158,0.629,0.283,0.935,0.373
	c0.306,0.092,0.578,0.137,0.816,0.137c0.283,0,0.575-0.027,0.875-0.086c0.3-0.057,0.569-0.158,0.807-0.305
	c0.238-0.148,0.434-0.344,0.587-0.588c0.153-0.242,0.229-0.551,0.229-0.926c0-0.396-0.204-0.766-0.612-1.105
	c-0.408-0.34-0.975-0.674-1.7-1.002c-0.521-0.238-1.052-0.482-1.59-0.731c-0.538-0.25-1.028-0.539-1.47-0.867
	c-0.442-0.329-0.802-0.711-1.08-1.147c-0.278-0.437-0.417-0.961-0.417-1.573c0-0.736,0.145-1.359,0.434-1.869
	c0.289-0.511,0.657-0.921,1.105-1.233c0.447-0.312,0.949-0.535,1.504-0.671c0.555-0.136,1.105-0.204,1.649-0.204
	c0.861,0,1.672,0.15,2.431,0.45c0.759,0.301,1.462,0.684,2.108,1.147L16.113,26.425z"/>
<path fill="#FFFFFF" stroke="#000000" stroke-miterlimit="10" d="M22.981,28.483c0.283-0.487,0.68-0.876,1.19-1.165
	c0.51-0.289,1.02-0.434,1.53-0.434c0.566,0,1.088,0.085,1.564,0.255s0.887,0.423,1.232,0.757s0.615,0.748,0.808,1.241
	c0.192,0.493,0.289,1.063,0.289,1.708v6.629h-2.601v-6.441c0-0.34-0.051-0.644-0.153-0.911c-0.102-0.266-0.232-0.489-0.391-0.671
	c-0.159-0.182-0.346-0.317-0.561-0.408c-0.215-0.091-0.431-0.136-0.646-0.136c-0.352,0-0.666,0.065-0.943,0.195
	c-0.278,0.13-0.516,0.309-0.714,0.535c-0.198,0.228-0.348,0.496-0.45,0.808s-0.153,0.65-0.153,1.011v6.018h-2.635v-14.5h2.635
	V28.483z"/>
<path fill="#FFFFFF" stroke="#000000" stroke-miterlimit="10" d="M32.331,22.974h3.111v2.703h-3.111V22.974z M32.586,27.173h2.618
	v10.301h-2.618V27.173z"/>
<path fill="#FFFFFF" stroke="#000000" stroke-miterlimit="10" d="M38.893,26.987v-0.562c0-0.691,0.094-1.274,0.281-1.751
	c0.187-0.476,0.439-0.861,0.756-1.156c0.317-0.294,0.683-0.51,1.097-0.646c0.414-0.136,0.847-0.204,1.3-0.204
	c0.351,0,0.731,0.042,1.139,0.128c0.408,0.085,0.833,0.258,1.275,0.518l-0.935,1.751c-0.295-0.124-0.55-0.206-0.765-0.246
	c-0.216-0.039-0.374-0.06-0.476-0.06c-0.34,0-0.598,0.11-0.773,0.332c-0.176,0.221-0.264,0.604-0.264,1.147v0.748h2.023v2.04h-2.023
	v8.448h-2.635v-8.448h-1.326v-2.04H38.893z"/>
<path fill="#FFFFFF" stroke="#000000" stroke-miterlimit="10" d="M46.73,24.725l2.635-0.833v3.265h2.363v2.04h-2.363v4.93
	c0,0.316,0.065,0.572,0.196,0.764c0.13,0.193,0.303,0.344,0.518,0.451s0.459,0.182,0.731,0.221c0.272,0.041,0.549,0.061,0.833,0.061
	v2.09c-0.714,0.08-1.375,0.07-1.981-0.025c-0.606-0.096-1.125-0.285-1.555-0.568c-0.431-0.283-0.768-0.654-1.012-1.113
	s-0.365-1.012-0.365-1.658v-5.151h-1.615v-2.04h1.615V24.725z"/>
<g>
</g>
<g>
</g>
<g>
</g>
<g>
</g>
<g>
</g>
<g>
</g>
<g>
</g>
<g>
</g>
<g>
</g>
<g>
</g>
<g>
</g>
<g>
</g>
<g>
</g>
<g>
</g>
<g>
</g>
</svg>
