<?xml version="1.0" encoding="utf-8"?>
<!-- Generator: Adobe Illustrator 16.0.0, SVG Export Plug-In . SVG Version: 6.00 Build 0)  -->
<!DOCTYPE svg PUBLIC "-//W3C//DTD SVG 1.1//EN" "http://www.w3.org/Graphics/SVG/1.1/DTD/svg11.dtd">
<svg version="1.1" id="레이어_1" xmlns="http://www.w3.org/2000/svg" xmlns:xlink="http://www.w3.org/1999/xlink" x="0px"
	 y="0px" width="124px" height="60px" viewBox="0 0 124 60" enable-background="new 0 0 124 60" xml:space="preserve">
<g>
	<path fill="#FFFFFF" stroke="#000000" stroke-miterlimit="10" d="M18.887,35.861c-0.635,0.555-1.36,0.994-2.176,1.316
		s-1.729,0.484-2.737,0.484c-1.043,0-1.992-0.189-2.848-0.568c-0.856-0.381-1.589-0.896-2.202-1.547
		c-0.612-0.652-1.085-1.414-1.419-2.287s-0.501-1.803-0.501-2.789c0-1.088,0.176-2.079,0.527-2.975
		c0.351-0.896,0.838-1.666,1.462-2.313c0.623-0.646,1.362-1.145,2.218-1.496c0.855-0.351,1.788-0.526,2.796-0.526
		c0.952,0,1.828,0.113,2.627,0.34c0.799,0.227,1.516,0.556,2.15,0.986l-1.139,1.903c-0.454-0.261-0.978-0.495-1.572-0.705
		c-0.595-0.21-1.29-0.314-2.083-0.314c-0.669,0-1.27,0.133-1.802,0.399s-0.986,0.632-1.36,1.097s-0.663,1.006-0.867,1.623
		c-0.204,0.618-0.306,1.278-0.306,1.98c0,0.681,0.102,1.318,0.306,1.914c0.204,0.594,0.493,1.113,0.867,1.555
		s0.827,0.797,1.36,1.063s1.127,0.41,1.785,0.434c0.634,0.023,1.247-0.07,1.836-0.281c0.589-0.209,1.156-0.568,1.7-1.078
		L18.887,35.861z"/>
	<path fill="#FFFFFF" stroke="#000000" stroke-miterlimit="10" d="M21.606,24.725l2.635-0.833v3.265h2.363v2.04h-2.363v4.93
		c0,0.316,0.065,0.572,0.196,0.764c0.13,0.193,0.303,0.344,0.518,0.451s0.459,0.182,0.731,0.221
		c0.272,0.041,0.549,0.061,0.833,0.061v2.09c-0.714,0.08-1.375,0.07-1.981-0.025c-0.606-0.096-1.125-0.285-1.555-0.568
		c-0.431-0.283-0.768-0.654-1.012-1.113s-0.365-1.012-0.365-1.658v-5.151h-1.615v-2.04h1.615V24.725z"/>
	<path fill="#FFFFFF" stroke="#000000" stroke-miterlimit="10" d="M31.228,28.738c0.17-0.295,0.394-0.567,0.672-0.816
		c0.277-0.249,0.586-0.459,0.926-0.629s0.697-0.289,1.071-0.357c0.374-0.067,0.748-0.062,1.122,0.018v2.21
		c-0.396-0.068-0.816-0.068-1.258,0c-0.442,0.067-0.85,0.201-1.224,0.399s-0.686,0.468-0.935,0.808
		c-0.249,0.34-0.374,0.753-0.374,1.242v5.863H28.61V27.173h2.618V28.738z"/>
	<path fill="#FFFFFF" stroke="#000000" stroke-miterlimit="10" d="M35.58,22.974h2.618v14.5H35.58V22.974z"/>
</g>
<g>
</g>
<g>
</g>
<g>
</g>
<g>
</g>
<g>
</g>
<g>
</g>
<g>
</g>
<g>
</g>
<g>
</g>
<g>
</g>
<g>
</g>
<g>
</g>
<g>
</g>
<g>
</g>
<g>
</g>
</svg>
