<?xml version="1.0" encoding="utf-8"?>
<!-- Generator: Adobe Illustrator 16.0.0, SVG Export Plug-In . SVG Version: 6.00 Build 0)  -->
<!DOCTYPE svg PUBLIC "-//W3C//DTD SVG 1.1//EN" "http://www.w3.org/Graphics/SVG/1.1/DTD/svg11.dtd">
<svg version="1.1" id="레이어_1" xmlns="http://www.w3.org/2000/svg" xmlns:xlink="http://www.w3.org/1999/xlink" x="0px"
	 y="0px" width="60px" height="60px" viewBox="0 0 60 60" enable-background="new 0 0 60 60" xml:space="preserve">
<path fill="#FFFFFF" stroke="#000000" stroke-miterlimit="10" d="M37.131,25.832c0,0.653-0.134,1.28-0.4,1.88
	c-0.268,0.601-0.699,1.113-1.299,1.54c0.359,0.24,0.691,0.523,1,0.851c0.305,0.326,0.568,0.67,0.789,1.029
	c0.221,0.36,0.391,0.737,0.51,1.13c0.121,0.395,0.174,0.777,0.16,1.15c-0.027,0.68-0.156,1.316-0.391,1.91
	c-0.232,0.594-0.59,1.105-1.068,1.539c-0.479,0.434-1.095,0.772-1.842,1.021c-0.746,0.247-1.639,0.37-2.68,0.37h-6.32v-16.62h6.16
	c0.707,0,1.384,0.08,2.029,0.24c0.647,0.16,1.221,0.41,1.721,0.75s0.896,0.777,1.189,1.31
	C36.982,24.466,37.131,25.099,37.131,25.832z M28.67,24.052v4.24h3.281c0.706,0,1.227-0.196,1.559-0.59
	c0.334-0.394,0.5-0.95,0.5-1.67c0-0.653-0.199-1.146-0.6-1.48c-0.4-0.333-0.913-0.5-1.539-0.5H28.67z M31.971,35.813
	c0.906,0,1.596-0.224,2.07-0.67c0.473-0.447,0.709-1.091,0.709-1.931c0-0.733-0.253-1.333-0.76-1.8c-0.508-0.467-1.166-0.7-1.98-0.7
	h-3.34v5.101H31.971z"/>
</svg>
