<?xml version="1.0" encoding="utf-8"?>
<!-- Generator: Adobe Illustrator 16.0.0, SVG Export Plug-In . SVG Version: 6.00 Build 0)  -->
<!DOCTYPE svg PUBLIC "-//W3C//DTD SVG 1.1//EN" "http://www.w3.org/Graphics/SVG/1.1/DTD/svg11.dtd">
<svg version="1.1" id="레이어_1" xmlns="http://www.w3.org/2000/svg" xmlns:xlink="http://www.w3.org/1999/xlink" x="0px"
	 y="0px" width="60px" height="60px" viewBox="0 0 60 60" enable-background="new 0 0 60 60" xml:space="preserve">
<path fill="#FFFFFF" stroke="#000000" stroke-miterlimit="10" d="M34.52,26.186c-0.307-0.173-0.615-0.347-0.93-0.52
	c-0.313-0.174-0.637-0.32-0.97-0.44v3.96c0.228,0.107,0.45,0.21,0.67,0.311c0.22,0.1,0.437,0.203,0.649,0.31
	c0.854,0.427,1.511,0.977,1.971,1.65s0.65,1.391,0.57,2.148c-0.055,0.535-0.197,1.012-0.431,1.432s-0.522,0.779-0.87,1.08
	c-0.347,0.3-0.74,0.547-1.181,0.738c-0.438,0.193-0.899,0.338-1.38,0.432v2.08h-2.8v-2.102c-0.8-0.173-1.537-0.449-2.21-0.83
	c-0.674-0.379-1.237-0.83-1.69-1.35l1.42-1.62c0.346,0.388,0.74,0.71,1.18,0.97s0.874,0.457,1.3,0.59v-4.398
	c-0.08-0.025-0.134-0.047-0.16-0.061c-1.173-0.466-2.037-1.076-2.59-1.831c-0.554-0.753-0.777-1.563-0.67-2.43
	c0.106-0.96,0.473-1.72,1.1-2.28s1.4-0.926,2.32-1.1v-1.86h2.8v1.92c1.173,0.268,2.232,0.801,3.181,1.601L34.52,26.186z
	 M28.86,26.445c-0.027,0.268,0.06,0.53,0.26,0.79c0.2,0.261,0.433,0.478,0.7,0.65v-2.68c-0.267,0.133-0.487,0.307-0.66,0.52
	C28.987,25.939,28.887,26.18,28.86,26.445z M33.7,33.484c0.04-0.305-0.048-0.6-0.261-0.879s-0.486-0.514-0.819-0.699v3
	c0.333-0.147,0.587-0.342,0.761-0.58C33.553,34.086,33.66,33.807,33.7,33.484z"/>
</svg>
