<?xml version="1.0" encoding="utf-8"?>
<!-- Generator: Adobe Illustrator 16.0.0, SVG Export Plug-In . SVG Version: 6.00 Build 0)  -->
<!DOCTYPE svg PUBLIC "-//W3C//DTD SVG 1.1//EN" "http://www.w3.org/Graphics/SVG/1.1/DTD/svg11.dtd">
<svg version="1.1" id="레이어_1" xmlns="http://www.w3.org/2000/svg" xmlns:xlink="http://www.w3.org/1999/xlink" x="0px"
	 y="0px" width="60px" height="60px" viewBox="0 0 60 60" enable-background="new 0 0 60 60" xml:space="preserve">
<path fill="#FFFFFF" stroke="#000000" stroke-miterlimit="10" d="M38.83,28.521H24.85v-2.36h5.46v-2.38h3.081v2.38h5.439V28.521z
	 M38.051,33.063c0,0.506-0.135,0.986-0.4,1.439c-0.268,0.453-0.658,0.854-1.18,1.199c-0.521,0.348-1.168,0.619-1.938,0.82
	c-0.773,0.199-1.669,0.299-2.683,0.299c-1.013,0-1.906-0.1-2.68-0.299c-0.774-0.201-1.423-0.475-1.95-0.82
	c-0.527-0.348-0.923-0.746-1.19-1.199c-0.267-0.453-0.4-0.934-0.4-1.439c0-0.521,0.133-1.011,0.4-1.471
	c0.267-0.46,0.663-0.859,1.19-1.2c0.526-0.34,1.176-0.61,1.95-0.811c0.773-0.199,1.667-0.3,2.68-0.3
	c1.014,0,1.907,0.104,2.683,0.311c0.771,0.207,1.42,0.486,1.938,0.84c0.521,0.354,0.912,0.757,1.18,1.21
	C37.916,32.096,38.051,32.568,38.051,33.063z M34.891,33.081c0-0.466-0.277-0.836-0.83-1.108c-0.554-0.272-1.291-0.41-2.211-0.41
	c-0.918,0-1.663,0.138-2.229,0.41c-0.567,0.272-0.85,0.645-0.85,1.108c0,0.414,0.283,0.761,0.85,1.04
	c0.566,0.279,1.311,0.421,2.229,0.421c0.92,0,1.657-0.142,2.211-0.421C34.613,33.842,34.891,33.495,34.891,33.081z"/>
</svg>
