<?xml version="1.0" encoding="utf-8"?>
<!-- Generator: Adobe Illustrator 16.0.0, SVG Export Plug-In . SVG Version: 6.00 Build 0)  -->
<!DOCTYPE svg PUBLIC "-//W3C//DTD SVG 1.1//EN" "http://www.w3.org/Graphics/SVG/1.1/DTD/svg11.dtd">
<svg version="1.1" id="레이어_1" xmlns="http://www.w3.org/2000/svg" xmlns:xlink="http://www.w3.org/1999/xlink" x="0px"
	 y="0px" width="60px" height="60px" viewBox="0 0 60 60" enable-background="new 0 0 60 60" xml:space="preserve">
<path fill="#FFFFFF" stroke="#000000" stroke-miterlimit="10" d="M33.79,28.085c-0.187-0.133-0.396-0.257-0.63-0.37
	c-0.234-0.113-0.471-0.21-0.71-0.29c-0.239-0.08-0.47-0.144-0.69-0.19c-0.22-0.046-0.396-0.069-0.529-0.069
	c-0.479,0-0.843,0.093-1.089,0.279c-0.247,0.188-0.37,0.44-0.37,0.761c0,0.173,0.06,0.34,0.18,0.5c0.12,0.16,0.28,0.313,0.48,0.46
	c0.2,0.146,0.43,0.293,0.69,0.439c0.261,0.147,0.536,0.294,0.83,0.44c0.453,0.24,0.898,0.479,1.34,0.721
	c0.439,0.24,0.833,0.506,1.182,0.799c0.346,0.295,0.623,0.627,0.829,1c0.206,0.375,0.31,0.809,0.31,1.301
	c0,0.721-0.144,1.32-0.43,1.801c-0.287,0.479-0.649,0.859-1.091,1.139c-0.438,0.281-0.92,0.48-1.438,0.603
	c-0.521,0.118-1.008,0.18-1.461,0.18c-0.799,0-1.644-0.157-2.529-0.471c-0.886-0.313-1.723-0.851-2.51-1.609l1.64-2
	c0.267,0.267,0.547,0.5,0.84,0.699c0.293,0.201,0.583,0.367,0.87,0.5c0.286,0.133,0.56,0.235,0.82,0.312
	c0.26,0.071,0.491,0.108,0.69,0.108c0.506,0,0.883-0.108,1.131-0.33c0.246-0.219,0.369-0.489,0.369-0.812
	c0-0.373-0.174-0.666-0.521-0.879s-0.8-0.461-1.36-0.739c-0.454-0.228-0.91-0.459-1.37-0.699c-0.46-0.24-0.88-0.515-1.26-0.821
	s-0.69-0.66-0.93-1.06c-0.24-0.4-0.36-0.873-0.36-1.42c0-0.653,0.133-1.214,0.4-1.681c0.267-0.467,0.606-0.843,1.02-1.13
	c0.413-0.286,0.876-0.496,1.39-0.63c0.513-0.133,1.016-0.2,1.51-0.2c0.732,0,1.479,0.127,2.24,0.38
	c0.76,0.254,1.42,0.594,1.979,1.021L33.79,28.085z"/>
</svg>
