<?xml version="1.0" encoding="utf-8"?>
<!-- Generator: Adobe Illustrator 16.0.0, SVG Export Plug-In . SVG Version: 6.00 Build 0)  -->
<!DOCTYPE svg PUBLIC "-//W3C//DTD SVG 1.1//EN" "http://www.w3.org/Graphics/SVG/1.1/DTD/svg11.dtd">
<svg version="1.1" id="레이어_1" xmlns="http://www.w3.org/2000/svg" xmlns:xlink="http://www.w3.org/1999/xlink" x="0px"
	 y="0px" width="60px" height="60px" viewBox="0 0 60 60" enable-background="new 0 0 60 60" xml:space="preserve">
<path fill="#FFFFFF" stroke="#000000" stroke-miterlimit="10" d="M28.73,24.925v-0.66c0-0.813,0.11-1.5,0.33-2.06
	c0.22-0.561,0.517-1.014,0.89-1.36c0.373-0.347,0.803-0.6,1.29-0.76c0.486-0.16,0.996-0.24,1.529-0.24c0.414,0,0.86,0.05,1.34,0.15
	s0.979,0.303,1.5,0.609l-1.101,2.061c-0.347-0.146-0.646-0.243-0.899-0.29c-0.252-0.047-0.439-0.07-0.56-0.07
	c-0.399,0-0.704,0.13-0.909,0.39c-0.207,0.261-0.312,0.711-0.312,1.351v0.88h2.38v2.4h-2.38v9.939h-3.1v-9.939h-1.56v-2.4
	L28.73,24.925L28.73,24.925z"/>
</svg>
