<?xml version="1.0" encoding="utf-8"?>
<!-- Generator: Adobe Illustrator 16.0.0, SVG Export Plug-In . SVG Version: 6.00 Build 0)  -->
<!DOCTYPE svg PUBLIC "-//W3C//DTD SVG 1.1//EN" "http://www.w3.org/Graphics/SVG/1.1/DTD/svg11.dtd">
<svg version="1.1" id="레이어_1" xmlns="http://www.w3.org/2000/svg" xmlns:xlink="http://www.w3.org/1999/xlink" x="0px"
	 y="0px" width="60px" height="60px" viewBox="0 0 60 60" enable-background="new 0 0 60 60" xml:space="preserve">
<path fill="#FFFFFF" stroke="#000000" stroke-miterlimit="10" d="M30.32,21.281c1.241,0,2.354,0.228,3.34,0.681
	s1.822,1.063,2.51,1.83s1.213,1.656,1.58,2.67c0.367,1.013,0.551,2.073,0.551,3.18s-0.188,2.16-0.561,3.16s-0.906,1.878-1.6,2.63
	c-0.695,0.754-1.533,1.354-2.521,1.801c-0.987,0.445-2.087,0.67-3.3,0.67h-5.66v-16.62L30.32,21.281L30.32,21.281z M30.22,35.462
	c0.799,0,1.5-0.153,2.1-0.46s1.105-0.727,1.52-1.261c0.414-0.533,0.725-1.149,0.932-1.851c0.205-0.699,0.31-1.45,0.31-2.25
	c0-0.88-0.108-1.684-0.33-2.41c-0.22-0.727-0.537-1.35-0.949-1.87c-0.413-0.52-0.924-0.927-1.53-1.22
	c-0.605-0.293-1.289-0.44-2.049-0.44h-2.48v11.761H30.22z"/>
</svg>
