<?xml version="1.0" encoding="utf-8"?>
<!-- Generator: Adobe Illustrator 16.0.0, SVG Export Plug-In . SVG Version: 6.00 Build 0)  -->
<!DOCTYPE svg PUBLIC "-//W3C//DTD SVG 1.1//EN" "http://www.w3.org/Graphics/SVG/1.1/DTD/svg11.dtd">
<svg version="1.1" id="레이어_1" xmlns="http://www.w3.org/2000/svg" xmlns:xlink="http://www.w3.org/1999/xlink" x="0px"
	 y="0px" width="60px" height="60px" viewBox="0 0 60 60" enable-background="new 0 0 60 60" xml:space="preserve">
<path fill="#FFFFFF" stroke="#000000" stroke-miterlimit="10" d="M37.79,36.354c-0.747,0.651-1.601,1.17-2.56,1.549
	c-0.961,0.381-2.033,0.57-3.222,0.57c-1.227,0-2.343-0.224-3.35-0.671c-1.007-0.446-1.87-1.053-2.59-1.819
	c-0.72-0.767-1.277-1.662-1.67-2.689c-0.394-1.025-0.59-2.12-0.59-3.28c0-1.279,0.207-2.446,0.62-3.5
	c0.413-1.053,0.986-1.96,1.72-2.72c0.734-0.76,1.603-1.347,2.61-1.76c1.007-0.413,2.104-0.62,3.29-0.62c1.12,0,2.15,0.134,3.092,0.4
	c0.938,0.267,1.782,0.653,2.528,1.159l-1.34,2.24c-0.533-0.307-1.149-0.583-1.851-0.83c-0.701-0.246-1.518-0.37-2.451-0.37
	c-0.785,0-1.492,0.157-2.118,0.471c-0.627,0.313-1.16,0.743-1.6,1.29s-0.78,1.183-1.02,1.909c-0.24,0.728-0.36,1.504-0.36,2.33
	c0,0.8,0.12,1.55,0.36,2.25c0.24,0.7,0.58,1.312,1.02,1.83c0.44,0.521,0.973,0.938,1.6,1.25c0.626,0.313,1.325,0.483,2.1,0.512
	c0.746,0.025,1.468-0.084,2.16-0.33c0.692-0.248,1.358-0.67,2-1.271L37.79,36.354z"/>
</svg>
