<?xml version="1.0" encoding="utf-8"?>
<!-- Generator: Adobe Illustrator 16.0.0, SVG Export Plug-In . SVG Version: 6.00 Build 0)  -->
<!DOCTYPE svg PUBLIC "-//W3C//DTD SVG 1.1//EN" "http://www.w3.org/Graphics/SVG/1.1/DTD/svg11.dtd">
<svg version="1.1" id="레이어_1" xmlns="http://www.w3.org/2000/svg" xmlns:xlink="http://www.w3.org/1999/xlink" x="0px"
	 y="0px" width="60px" height="60px" viewBox="0 0 60 60" enable-background="new 0 0 60 60" xml:space="preserve">
<path fill="#FFFFFF" stroke="#000000" stroke-miterlimit="10" d="M28.24,34.563c0.253,0.199,0.543,0.39,0.87,0.569
	c0.327,0.181,0.663,0.316,1.01,0.41c0.346,0.093,0.7,0.133,1.06,0.119c0.36-0.013,0.713-0.101,1.062-0.261
	c0.293-0.146,0.513-0.373,0.659-0.68s0.221-0.753,0.221-1.34v-12.1h3.1v12.32c0,0.986-0.229,1.822-0.689,2.51
	c-0.459,0.687-1.083,1.224-1.869,1.609c-0.508,0.254-1.057,0.41-1.65,0.471s-1.193,0.037-1.8-0.07
	c-0.607-0.105-1.197-0.279-1.77-0.52c-0.574-0.24-1.1-0.533-1.58-0.881L28.24,34.563z"/>
</svg>
