<?xml version="1.0" encoding="utf-8"?>
<!-- Generator: Adobe Illustrator 16.0.0, SVG Export Plug-In . SVG Version: 6.00 Build 0)  -->
<!DOCTYPE svg PUBLIC "-//W3C//DTD SVG 1.1//EN" "http://www.w3.org/Graphics/SVG/1.1/DTD/svg11.dtd">
<svg version="1.1" id="레이어_1" xmlns="http://www.w3.org/2000/svg" xmlns:xlink="http://www.w3.org/1999/xlink" x="0px"
	 y="0px" width="60px" height="60px" viewBox="0 0 60 60" enable-background="new 0 0 60 60" xml:space="preserve">
<g>
	<path fill="#FFFFFF" stroke="#000000" stroke-miterlimit="10" d="M24.05,29.025c0-1.159,0.156-2.263,0.47-3.31
		c0.313-1.047,0.787-1.96,1.42-2.74s1.43-1.399,2.39-1.859s2.08-0.69,3.359-0.69c1.254,0,2.367,0.23,3.341,0.69
		s1.79,1.079,2.45,1.859s1.16,1.693,1.5,2.74s0.51,2.15,0.51,3.31c0,1.428-0.257,2.747-0.77,3.959
		c-0.514,1.215-1.284,2.207-2.311,2.98l2.641,2.781l-2.181,1.779l-3.06-3.279c-0.334,0.08-0.674,0.143-1.021,0.189
		s-0.714,0.07-1.101,0.07c-1.293,0-2.416-0.23-3.369-0.691c-0.954-0.459-1.747-1.076-2.38-1.85s-1.107-1.672-1.42-2.699
		C24.207,31.238,24.05,30.159,24.05,29.025z M31.689,35.045c0.773,0,1.447-0.166,2.021-0.5c0.573-0.332,1.05-0.779,1.431-1.34
		c0.379-0.561,0.66-1.203,0.84-1.93c0.18-0.727,0.27-1.477,0.27-2.25c0-0.8-0.097-1.566-0.29-2.3s-0.479-1.38-0.86-1.939
		c-0.379-0.561-0.854-1.004-1.42-1.33c-0.566-0.327-1.229-0.49-1.99-0.49c-0.746,0-1.403,0.163-1.969,0.49
		c-0.567,0.326-1.04,0.77-1.42,1.33c-0.38,0.56-0.67,1.206-0.87,1.939c-0.2,0.733-0.3,1.5-0.3,2.3c0,0.773,0.093,1.523,0.28,2.25
		c0.187,0.727,0.47,1.369,0.85,1.93c0.38,0.561,0.856,1.008,1.43,1.34C30.263,34.879,30.93,35.045,31.689,35.045z"/>
</g>
<g>
</g>
<g>
</g>
<g>
</g>
<g>
</g>
<g>
</g>
<g>
</g>
<g>
</g>
<g>
</g>
<g>
</g>
<g>
</g>
<g>
</g>
<g>
</g>
<g>
</g>
<g>
</g>
<g>
</g>
</svg>
