<?xml version="1.0" encoding="utf-8"?>
<!-- Generator: Adobe Illustrator 16.0.0, SVG Export Plug-In . SVG Version: 6.00 Build 0)  -->
<!DOCTYPE svg PUBLIC "-//W3C//DTD SVG 1.1//EN" "http://www.w3.org/Graphics/SVG/1.1/DTD/svg11.dtd">
<svg version="1.1" id="레이어_1" xmlns="http://www.w3.org/2000/svg" xmlns:xlink="http://www.w3.org/1999/xlink" x="0px"
	 y="0px" width="60px" height="60px" viewBox="0 0 60 60" enable-background="new 0 0 60 60" xml:space="preserve">
<path fill="#FFFFFF" stroke="#000000" stroke-miterlimit="10" d="M37.021,30.235l-3.42,9.529h-1.62l3.41-9.529H37.021z"/>
<path fill="#FFFFFF" stroke="#000000" stroke-miterlimit="10" d="M40.721,31.376h1.449l3.11,8.309H43.68l-0.77-2.039h-2.939
	l-0.78,2.039H37.6L40.721,31.376z M42.48,36.444l-1.04-3l-1.021,3H42.48z"/>
<g>
	<path fill="#FFFFFF" stroke="#000000" stroke-miterlimit="10" d="M24.745,24.199c-0.023,1.688-0.213,3.17-0.57,4.445
		c-0.357,1.274-0.858,2.397-1.504,3.366s-1.414,1.818-2.304,2.551c-0.89,0.73-1.878,1.391-2.966,1.98l-1.717-1.836
		c1.054-0.578,1.963-1.168,2.729-1.77c0.765-0.6,1.402-1.236,1.912-1.912c0.51-0.673,0.896-1.399,1.156-2.175
		s0.414-1.635,0.459-2.576h-5.474v-2.073H24.745z M29.283,23.042v5.984h2.941v2.125h-2.941V39.6h-2.669V23.042H29.283z"/>
</g>
<g>
</g>
<g>
</g>
<g>
</g>
<g>
</g>
<g>
</g>
<g>
</g>
<g>
</g>
<g>
</g>
<g>
</g>
<g>
</g>
<g>
</g>
<g>
</g>
<g>
</g>
<g>
</g>
<g>
</g>
</svg>
