<?xml version="1.0" encoding="utf-8"?>
<!-- Generator: Adobe Illustrator 16.0.0, SVG Export Plug-In . SVG Version: 6.00 Build 0)  -->
<!DOCTYPE svg PUBLIC "-//W3C//DTD SVG 1.1//EN" "http://www.w3.org/Graphics/SVG/1.1/DTD/svg11.dtd">
<svg version="1.1" id="레이어_1" xmlns="http://www.w3.org/2000/svg" xmlns:xlink="http://www.w3.org/1999/xlink" x="0px"
	 y="0px" width="60px" height="60px" viewBox="0 0 60 60" enable-background="new 0 0 60 60" xml:space="preserve">
<path fill="#FFFFFF" stroke="#000000" stroke-miterlimit="10" d="M28.34,27.766c0.56,0,1.09,0.13,1.59,0.391
	c0.5,0.26,1.003,0.563,1.509,0.909c0.254,0.16,0.523,0.29,0.811,0.391c0.287,0.1,0.504,0.144,0.65,0.13
	c0.439-0.04,0.793-0.271,1.06-0.69s0.433-0.93,0.5-1.529l2.601,0.56c-0.094,0.533-0.254,1.047-0.48,1.54s-0.51,0.93-0.85,1.31
	c-0.34,0.381-0.73,0.688-1.17,0.92c-0.44,0.234-0.92,0.357-1.44,0.37c-0.413,0.014-0.897-0.073-1.45-0.26s-1.063-0.427-1.53-0.72
	c-0.267-0.173-0.56-0.36-0.88-0.561c-0.32-0.199-0.667-0.293-1.04-0.279c-0.16,0.013-0.327,0.08-0.5,0.199
	c-0.174,0.12-0.344,0.277-0.51,0.471c-0.167,0.193-0.313,0.413-0.44,0.66c-0.127,0.246-0.217,0.496-0.27,0.75l-2.5-0.9
	c0.146-0.427,0.35-0.856,0.61-1.29c0.26-0.433,0.57-0.826,0.93-1.18s0.776-0.641,1.25-0.86C27.263,27.876,27.78,27.766,28.34,27.766
	z"/>
<g>
</g>
<g>
</g>
<g>
</g>
<g>
</g>
<g>
</g>
<g>
</g>
<g>
</g>
<g>
</g>
<g>
</g>
<g>
</g>
<g>
</g>
<g>
</g>
<g>
</g>
<g>
</g>
<g>
</g>
</svg>
