<?xml version="1.0" encoding="utf-8"?>
<!-- Generator: Adobe Illustrator 16.0.0, SVG Export Plug-In . SVG Version: 6.00 Build 0)  -->
<!DOCTYPE svg PUBLIC "-//W3C//DTD SVG 1.1//EN" "http://www.w3.org/Graphics/SVG/1.1/DTD/svg11.dtd">
<svg version="1.1" id="레이어_1" xmlns="http://www.w3.org/2000/svg" xmlns:xlink="http://www.w3.org/1999/xlink" x="0px"
	 y="0px" width="60px" height="34px" viewBox="0 0 60 34" enable-background="new 0 0 60 34" xml:space="preserve">
<path fill="#FFFFFF" stroke="#000000" stroke-miterlimit="10" d="M20.82,12.925v-0.66c0-0.813,0.11-1.5,0.33-2.06
	c0.22-0.561,0.517-1.014,0.89-1.36c0.373-0.347,0.803-0.6,1.29-0.76c0.486-0.16,0.997-0.24,1.53-0.24c0.413,0,0.86,0.05,1.34,0.15
	s0.98,0.303,1.5,0.609l-1.1,2.061c-0.347-0.146-0.647-0.243-0.9-0.29c-0.253-0.047-0.44-0.07-0.56-0.07c-0.4,0-0.704,0.13-0.91,0.39
	c-0.207,0.261-0.31,0.711-0.31,1.351v0.88h2.38v2.4h-2.38v9.939h-3.1v-9.939h-1.56v-2.4L20.82,12.925L20.82,12.925z"/>
<path fill="#FFFFFF" stroke="#000000" stroke-miterlimit="10" d="M36.88,15.286c0.533,0.199,1.007,0.47,1.421,0.81
	c0.412,0.34,0.752,0.724,1.02,1.15c0.268,0.427,0.471,0.889,0.609,1.389c0.141,0.5,0.211,1.018,0.211,1.551
	c0,0.76-0.137,1.459-0.41,2.101c-0.272,0.641-0.644,1.196-1.109,1.67c-0.467,0.474-1.014,0.851-1.641,1.131
	c-0.627,0.279-1.301,0.438-2.021,0.479c-1.134,0.067-2.19-0.068-3.17-0.408c-0.979-0.342-1.93-0.918-2.85-1.73l1.54-1.961
	c0.413,0.4,0.823,0.715,1.23,0.941c0.407,0.226,0.794,0.393,1.16,0.5c0.366,0.105,0.706,0.17,1.021,0.189
	c0.313,0.02,0.582,0.016,0.811-0.011c0.318-0.026,0.626-0.123,0.92-0.291c0.293-0.166,0.55-0.383,0.771-0.649
	c0.219-0.267,0.396-0.568,0.528-0.91c0.134-0.34,0.2-0.695,0.2-1.068c0-0.254-0.04-0.521-0.12-0.801
	c-0.08-0.28-0.192-0.543-0.34-0.789c-0.146-0.248-0.323-0.471-0.53-0.67c-0.206-0.2-0.443-0.348-0.71-0.44
	c-0.825-0.293-1.685-0.423-2.569-0.39c-0.887,0.033-1.789,0.13-2.709,0.29l0.28-8.44h9.04v2.42h-6.12l-0.14,3.46
	c0.56-0.013,1.163,0.007,1.81,0.061C35.656,14.918,36.279,15.059,36.88,15.286z"/>
</svg>
