<?xml version="1.0" encoding="utf-8"?>
<!-- Generator: Adobe Illustrator 16.0.0, SVG Export Plug-In . SVG Version: 6.00 Build 0)  -->
<!DOCTYPE svg PUBLIC "-//W3C//DTD SVG 1.1//EN" "http://www.w3.org/Graphics/SVG/1.1/DTD/svg11.dtd">
<svg version="1.1" id="레이어_1" xmlns="http://www.w3.org/2000/svg" xmlns:xlink="http://www.w3.org/1999/xlink" x="0px"
	 y="0px" width="60px" height="34px" viewBox="0 0 60 34" enable-background="new 0 0 60 34" xml:space="preserve">
<path fill="#FFFFFF" stroke="#000000" stroke-miterlimit="10" d="M20.7,12.925v-0.66c0-0.813,0.11-1.5,0.33-2.06
	c0.22-0.561,0.517-1.014,0.89-1.36c0.373-0.347,0.803-0.6,1.29-0.76c0.486-0.16,0.997-0.24,1.53-0.24c0.413,0,0.86,0.05,1.34,0.15
	s0.98,0.303,1.5,0.609l-1.1,2.061c-0.347-0.146-0.647-0.243-0.9-0.29s-0.44-0.07-0.56-0.07c-0.4,0-0.704,0.13-0.91,0.39
	c-0.207,0.261-0.31,0.711-0.31,1.351v0.88h2.38v2.4H23.8v9.939h-3.1v-9.939h-1.56v-2.4L20.7,12.925L20.7,12.925z"/>
<path fill="#FFFFFF" stroke="#000000" stroke-miterlimit="10" d="M40.04,22.826v2.439H29.2v-2.121l3.579-3.681
	c0.787-0.799,1.431-1.485,1.931-2.059c0.5-0.573,0.894-1.084,1.181-1.53c0.286-0.446,0.482-0.854,0.59-1.22
	c0.105-0.367,0.16-0.743,0.16-1.131c0-0.279-0.043-0.56-0.131-0.84c-0.086-0.279-0.22-0.536-0.4-0.77
	c-0.18-0.233-0.416-0.427-0.709-0.58s-0.641-0.243-1.041-0.271c-0.68-0.053-1.354,0.104-2.02,0.471c-0.666,0.366-1.3,0.823-1.9,1.37
	l-1.62-1.881c0.453-0.413,0.9-0.779,1.34-1.1c0.439-0.321,0.89-0.583,1.35-0.79c0.461-0.206,0.94-0.36,1.44-0.46
	c0.5-0.1,1.043-0.137,1.63-0.11c0.84,0.04,1.572,0.193,2.199,0.46c0.627,0.268,1.15,0.62,1.57,1.061
	c0.42,0.439,0.735,0.957,0.949,1.55c0.215,0.594,0.32,1.23,0.32,1.91c0,0.64-0.102,1.25-0.301,1.83s-0.496,1.17-0.891,1.77
	c-0.393,0.601-0.88,1.228-1.459,1.879c-0.58,0.654-1.258,1.381-2.031,2.181L33.4,22.826H40.04z"/>
</svg>
