<?xml version="1.0" encoding="utf-8"?>
<!-- Generator: Adobe Illustrator 16.0.0, SVG Export Plug-In . SVG Version: 6.00 Build 0)  -->
<!DOCTYPE svg PUBLIC "-//W3C//DTD SVG 1.1//EN" "http://www.w3.org/Graphics/SVG/1.1/DTD/svg11.dtd">
<svg version="1.1" id="레이어_1" xmlns="http://www.w3.org/2000/svg" xmlns:xlink="http://www.w3.org/1999/xlink" x="0px"
	 y="0px" width="60px" height="60px" viewBox="0 0 60 60" enable-background="new 0 0 60 60" xml:space="preserve">
<path fill="#FFFFFF" stroke="#000000" stroke-miterlimit="10" d="M35.21,35.926c-0.667,0.586-1.387,1.006-2.159,1.26
	c-0.773,0.252-1.654,0.388-2.641,0.4c-0.92,0-1.76-0.135-2.52-0.4c-0.76-0.268-1.41-0.668-1.95-1.201
	c-0.54-0.53-0.957-1.186-1.25-1.959c-0.293-0.772-0.44-1.659-0.44-2.659c0-0.987,0.137-1.88,0.41-2.68
	c0.273-0.8,0.663-1.479,1.17-2.04c0.506-0.56,1.123-0.993,1.85-1.3c0.727-0.307,1.55-0.46,2.47-0.46c0.893,0,1.686,0.157,2.379,0.47
	s1.277,0.747,1.75,1.301c0.475,0.553,0.834,1.199,1.08,1.939c0.246,0.74,0.363,1.537,0.351,2.39c0,0.173-0.01,0.38-0.03,0.621
	c-0.02,0.24-0.043,0.453-0.07,0.641H27.37c0.053,0.586,0.187,1.068,0.4,1.449s0.47,0.68,0.77,0.9c0.3,0.219,0.623,0.377,0.97,0.469
	c0.346,0.094,0.687,0.141,1.02,0.141c0.268,0,0.551-0.02,0.851-0.061c0.3-0.039,0.597-0.105,0.89-0.199s0.57-0.217,0.83-0.369
	c0.26-0.154,0.483-0.338,0.67-0.551L35.21,35.926z M32.73,29.925c-0.015-0.387-0.094-0.746-0.24-1.08
	c-0.146-0.333-0.344-0.623-0.59-0.87c-0.248-0.246-0.53-0.439-0.851-0.58c-0.321-0.14-0.647-0.21-0.98-0.21
	c-0.32,0-0.637,0.07-0.95,0.21c-0.313,0.141-0.597,0.334-0.85,0.58c-0.253,0.247-0.46,0.537-0.62,0.87
	c-0.16,0.334-0.247,0.693-0.26,1.08H32.73z"/>
</svg>
