<?xml version="1.0" encoding="utf-8"?>
<!-- Generator: Adobe Illustrator 16.0.0, SVG Export Plug-In . SVG Version: 6.00 Build 0)  -->
<!DOCTYPE svg PUBLIC "-//W3C//DTD SVG 1.1//EN" "http://www.w3.org/Graphics/SVG/1.1/DTD/svg11.dtd">
<svg version="1.1" id="레이어_1" xmlns="http://www.w3.org/2000/svg" xmlns:xlink="http://www.w3.org/1999/xlink" x="0px"
	 y="0px" width="236px" height="236px" viewBox="0 0 236 236" enable-background="new 0 0 236 236" xml:space="preserve">
<path fill="#ECE1EE" d="M36.534,151.234c0,0.379-0.308,0.689-0.69,0.689s-0.692-0.311-0.692-0.689c0-0.381,0.31-0.691,0.692-0.691
	S36.534,150.854,36.534,151.234"/>
<path fill="#ECE1EE" d="M40.85,159.514c0,0.379-0.308,0.689-0.69,0.689s-0.692-0.311-0.692-0.689c0-0.381,0.31-0.691,0.692-0.691
	S40.85,159.133,40.85,159.514"/>
<path fill="#ECE1EE" d="M33.964,142.701c0,0.381-0.308,0.691-0.69,0.691s-0.692-0.311-0.692-0.691c0-0.379,0.31-0.689,0.692-0.689
	S33.964,142.322,33.964,142.701"/>
<path fill="#ECE1EE" d="M197.977,151.234c0,0.379,0.309,0.689,0.69,0.689s0.692-0.311,0.692-0.689c0-0.381-0.311-0.691-0.692-0.691
	S197.977,150.854,197.977,151.234"/>
<path fill="#ECE1EE" d="M193.66,159.514c0,0.379,0.309,0.689,0.69,0.689s0.692-0.311,0.692-0.689c0-0.381-0.311-0.691-0.692-0.691
	S193.66,159.133,193.66,159.514"/>
<path fill="#ECE1EE" d="M200.547,142.701c0,0.381,0.308,0.691,0.689,0.691c0.383,0,0.692-0.311,0.692-0.691
	c0-0.379-0.31-0.689-0.692-0.689C200.854,142.012,200.547,142.322,200.547,142.701"/>
<path fill="#0FFFFF" d="M118,236C52.935,236,0,183.066,0,118C0,52.936,52.935,0,118,0s118,52.936,118,118
	C236,183.066,183.065,236,118,236z M118,2.035C54.056,2.035,2.035,54.057,2.035,118S54.056,233.965,118,233.965
	c63.943,0,115.965-52.021,115.965-115.965S181.943,2.035,118,2.035z"/>
<polygon fill="#54E8F4" points="118.175,226.422 117.662,226.42 117.671,225.404 118.175,225.404 "/>
<rect x="118.936" y="225.651" transform="matrix(0.0125 0.9999 -0.9999 0.0125 343.841 103.6492)" fill="#54E8F4" width="1.018" height="0.505"/>
<polygon fill="#54E8F4" points="116.644,226.414 116.133,226.406 116.151,225.389 116.656,225.396 "/>
<polygon fill="#54E8F4" points="120.728,226.389 120.703,225.371 121.207,225.357 121.237,226.373 "/>
<polygon fill="#54E8F4" points="115.113,226.385 114.602,226.369 114.631,225.354 115.137,225.367 "/>
<rect x="121.98" y="225.568" transform="matrix(0.0412 0.9991 -0.9991 0.0412 343.0676 94.1257)" fill="#54E8F4" width="1.018" height="0.506"/>
<polygon fill="#54E8F4" points="113.579,226.334 113.068,226.311 113.115,225.297 113.621,225.316 "/>
<polygon fill="#54E8F4" points="123.785,226.27 123.731,225.254 124.236,225.227 124.297,226.242 "/>
<polygon fill="#54E8F4" points="112.049,226.26 111.539,226.232 111.598,225.217 112.103,225.246 "/>
<polygon fill="#54E8F4" points="125.313,226.178 125.248,225.162 125.752,225.129 125.824,226.143 "/>
<rect x="110.045" y="225.134" transform="matrix(0.9976 0.0692 -0.0692 0.9976 15.8784 -7.0916)" fill="#54E8F4" width="0.508" height="1.018"/>
<polygon fill="#54E8F4" points="126.844,226.066 126.761,225.053 127.266,225.01 127.354,226.023 "/>
<polygon fill="#54E8F4" points="108.99,226.053 108.48,226.01 108.57,224.996 109.073,225.039 "/>
<polygon fill="#54E8F4" points="128.371,225.934 128.275,224.92 128.778,224.871 128.88,225.883 "/>
<polygon fill="#54E8F4" points="107.464,225.918 106.955,225.867 107.056,224.855 107.56,224.904 "/>
<rect x="129.584" y="224.989" transform="matrix(0.1113 0.9938 -0.9938 0.1113 339.4612 70.8947)" fill="#54E8F4" width="1.018" height="0.509"/>
<rect x="105.488" y="224.715" transform="matrix(0.9938 0.1115 -0.1115 0.9938 25.7686 -10.3847)" fill="#54E8F4" width="0.508" height="1.018"/>
<rect x="131.099" y="224.81" transform="matrix(0.124 0.9923 -0.9923 0.124 338.6086 66.5571)" fill="#54E8F4" width="1.016" height="0.506"/>
<polygon fill="#54E8F4" points="104.416,225.58 103.909,225.516 104.041,224.506 104.542,224.57 "/>
<polygon fill="#54E8F4" points="132.938,225.4 132.801,224.393 133.301,224.322 133.443,225.33 "/>
<rect x="102.46" y="224.329" transform="matrix(0.9904 0.1382 -0.1382 0.9904 32.0573 -12.0374)" fill="#54E8F4" width="0.509" height="1.018"/>
<rect x="134.121" y="224.384" transform="matrix(0.1526 0.9883 -0.9883 0.1526 336.0995 57.3135)" fill="#54E8F4" width="1.018" height="0.509"/>
<polygon fill="#54E8F4" points="101.379,225.154 100.875,225.076 101.035,224.07 101.534,224.15 "/>
<rect x="135.627" y="224.141" transform="matrix(0.1697 0.9855 -0.9855 0.1697 334.1779 52.1575)" fill="#54E8F4" width="1.019" height="0.509"/>
<polygon fill="#54E8F4" points="99.867,224.912 99.363,224.826 99.536,223.822 100.034,223.908 "/>
<rect x="137.131" y="223.876" transform="matrix(0.1809 0.9835 -0.9835 0.1809 333.1688 48.2135)" fill="#54E8F4" width="1.015" height="0.509"/>
<rect x="97.943" y="223.592" transform="matrix(0.9836 0.1806 -0.1806 0.9836 42.0812 -14.0481)" fill="#54E8F4" width="0.508" height="1.015"/>
<polygon fill="#54E8F4" points="138.986,224.393 138.789,223.395 139.285,223.295 139.488,224.293 "/>
<polygon fill="#54E8F4" points="96.851,224.359 96.349,224.26 96.551,223.262 97.047,223.361 "/>
<polygon fill="#54E8F4" points="140.487,224.086 140.278,223.09 140.773,222.984 140.988,223.98 "/>
<polygon fill="#54E8F4" points="95.35,224.051 94.85,223.943 95.064,222.951 95.559,223.057 "/>
<rect x="141.613" y="222.952" transform="matrix(0.223 0.9748 -0.9748 0.223 328.007 34.8824)" fill="#54E8F4" width="1.016" height="0.509"/>
<polygon fill="#54E8F4" points="93.852,223.721 93.353,223.605 93.585,222.617 94.078,222.73 "/>
<polygon fill="#54E8F4" points="143.479,223.41 143.24,222.422 143.73,222.303 143.976,223.289 "/>
<polygon fill="#54E8F4" points="92.359,223.371 91.862,223.25 92.107,222.262 92.598,222.383 "/>
<polygon fill="#54E8F4" points="144.965,223.041 144.715,222.057 145.204,221.93 145.461,222.912 "/>
<rect x="90.498" y="221.937" transform="matrix(0.9674 0.2531 -0.2531 0.9674 59.2616 -15.7275)" fill="#54E8F4" width="0.509" height="1.015"/>
<rect x="146.052" y="221.839" transform="matrix(0.2633 0.9647 -0.9647 0.2633 322.2313 22.2304)" fill="#54E8F4" width="1.016" height="0.508"/>
<polygon fill="#54E8F4" points="89.39,222.607 88.896,222.471 89.17,221.492 89.658,221.625 "/>
<rect x="147.52" y="221.427" transform="matrix(0.2768 0.9609 -0.9609 0.2768 320.0826 18.083)" fill="#54E8F4" width="1.016" height="0.506"/>
<polygon fill="#54E8F4" points="87.915,222.193 87.424,222.049 87.71,221.074 88.195,221.215 "/>
<polygon fill="#54E8F4" points="149.395,221.807 149.104,220.832 149.586,220.686 149.885,221.658 "/>
<rect x="86.092" y="220.687" transform="matrix(0.9562 0.2927 -0.2927 0.9562 68.5382 -15.5877)" fill="#54E8F4" width="0.514" height="1.018"/>
<rect x="150.44" y="220.536" transform="matrix(0.3053 0.9523 -0.9523 0.3053 315.1206 9.6478)" fill="#54E8F4" width="1.017" height="0.508"/>
<polygon fill="#54E8F4" points="84.975,221.299 84.485,221.143 84.8,220.174 85.282,220.33 "/>
<rect x="151.888" y="220.062" transform="matrix(0.3168 0.9485 -0.9485 0.3168 313.0833 5.9709)" fill="#54E8F4" width="1.017" height="0.506"/>
<rect x="83.175" y="219.748" transform="matrix(0.9471 0.3208 -0.3208 0.9471 75.0697 -15.1235)" fill="#54E8F4" width="0.511" height="1.017"/>
<rect x="153.33" y="219.566" transform="matrix(0.3277 0.9448 -0.9448 0.3277 311.1068 2.4394)" fill="#54E8F4" width="1.019" height="0.506"/>
<rect x="81.727" y="219.247" transform="matrix(0.9429 0.3331 -0.3331 0.9429 77.8877 -14.7585)" fill="#54E8F4" width="0.51" height="1.017"/>
<rect x="154.767" y="219.048" transform="matrix(0.3431 0.9393 -0.9393 0.3431 307.9844 -1.7961)" fill="#54E8F4" width="1.019" height="0.507"/>
<polygon fill="#54E8F4" points="80.606,219.801 80.124,219.623 80.481,218.67 80.956,218.846 "/>
<polygon fill="#54E8F4" points="156.648,219.33 156.285,218.381 156.757,218.199 157.127,219.146 "/>
<polygon fill="#54E8F4" points="79.167,219.26 78.687,219.074 79.056,218.127 79.529,218.311 "/>
<rect x="157.615" y="217.952" transform="matrix(0.3729 0.9279 -0.9279 0.3729 301.6326 -9.8788)" fill="#54E8F4" width="1.019" height="0.507"/>
<rect x="77.43" y="217.621" transform="matrix(0.9272 0.3747 -0.3747 0.9272 87.3891 -13.2174)" fill="#54E8F4" width="0.511" height="1.017"/>
<polygon fill="#54E8F4" points="159.565,218.168 159.107,217.256 159.571,217.063 159.967,218 "/>
<polygon fill="#54E8F4" points="76.309,218.115 75.835,217.918 76.234,216.98 76.701,217.178 "/>
<rect x="160.424" y="216.784" transform="matrix(0.3958 0.9183 -0.9183 0.3958 296.5533 -16.6533)" fill="#54E8F4" width="1.017" height="0.503"/>
<rect x="74.608" y="216.437" transform="matrix(0.9174 0.398 -0.398 0.9174 92.5181 -11.8734)" fill="#54E8F4" width="0.51" height="1.018"/>
<rect x="161.813" y="216.168" transform="matrix(0.4108 0.9117 -0.9117 0.4108 292.9662 -20.4729)" fill="#54E8F4" width="1.018" height="0.505"/>
<polygon fill="#54E8F4" points="73.489,216.893 73.021,216.68 73.443,215.754 73.905,215.965 "/>
<rect x="163.195" y="215.533" transform="matrix(0.4233 0.906 -0.906 0.4233 289.9194 -23.864)" fill="#54E8F4" width="1.018" height="0.505"/>
<rect x="71.82" y="215.172" transform="matrix(0.9038 0.428 -0.428 0.9038 99.2476 -10.0951)" fill="#54E8F4" width="0.511" height="1.017"/>
<polygon fill="#54E8F4" points="165.07,215.699 164.627,214.783 165.079,214.564 165.528,215.477 "/>
<rect x="70.442" y="214.511" transform="matrix(0.8999 0.4361 -0.4361 0.8999 100.8434 -9.3076)" fill="#54E8F4" width="0.511" height="1.018"/>
<polygon fill="#54E8F4" points="166.439,215.025 165.985,214.115 166.435,213.891 166.896,214.797 "/>
<polygon fill="#54E8F4" points="69.326,214.906 68.868,214.676 69.331,213.77 69.783,214 "/>
<polygon fill="#54E8F4" points="167.801,214.334 167.334,213.43 167.78,213.197 168.253,214.096 "/>
<polygon fill="#54E8F4" points="67.958,214.207 67.504,213.969 67.979,213.07 68.428,213.305 "/>
<polygon fill="#54E8F4" points="169.152,213.619 168.674,212.723 169.116,212.482 169.602,213.377 "/>
<polygon fill="#54E8F4" points="66.602,213.488 66.15,213.242 66.638,212.35 67.083,212.592 "/>
<rect x="169.96" y="212.068" transform="matrix(0.4874 0.8732 -0.8732 0.4874 272.7671 -40.0182)" fill="#54E8F4" width="1.018" height="0.506"/>
<polygon fill="#54E8F4" points="65.254,212.75 64.807,212.498 65.307,211.611 65.748,211.859 "/>
<rect x="171.283" y="211.318" transform="matrix(0.4979 0.8672 -0.8672 0.4979 269.7404 -42.7533)" fill="#54E8F4" width="1.018" height="0.506"/>
<rect x="63.696" y="210.916" transform="matrix(0.8645 0.5027 -0.5027 0.8645 114.9474 -3.4933)" fill="#54E8F4" width="0.513" height="1.017"/>
<rect x="172.597" y="210.548" transform="matrix(0.5114 0.8594 -0.8594 0.5114 265.7345 -45.7574)" fill="#54E8F4" width="1.016" height="0.506"/>
<rect x="62.38" y="210.138" transform="matrix(0.8584 0.5129 -0.5129 0.8584 116.9183 -2.3051)" fill="#54E8F4" width="0.51" height="1.017"/>
<rect x="173.899" y="209.762" transform="matrix(0.5238 0.8519 -0.8519 0.5238 261.9595 -48.5567)" fill="#54E8F4" width="1.018" height="0.506"/>
<rect x="61.074" y="209.343" transform="matrix(0.851 0.5252 -0.5252 0.851 119.345 -0.9399)" fill="#54E8F4" width="0.51" height="1.018"/>
<rect x="175.191" y="208.956" transform="matrix(0.5364 0.844 -0.844 0.5364 258.0258 -51.2923)" fill="#54E8F4" width="1.016" height="0.507"/>
<rect x="59.78" y="208.529" transform="matrix(0.8439 0.5364 -0.5364 0.8439 121.5059 0.4179)" fill="#54E8F4" width="0.51" height="1.017"/>
<rect x="176.47" y="208.133" transform="matrix(0.5471 0.837 -0.837 0.5471 254.5721 -53.7693)" fill="#54E8F4" width="1.017" height="0.505"/>
<rect x="58.497" y="207.699" transform="matrix(0.835 0.5503 -0.5503 0.835 124.2688 2.0284)" fill="#54E8F4" width="0.511" height="1.018"/>
<polygon fill="#54E8F4" points="178.32,208.105 177.754,207.262 178.172,206.979 178.744,207.818 "/>
<rect x="57.227" y="206.851" transform="matrix(0.8267 0.5626 -0.5626 0.8267 126.6263 3.5917)" fill="#54E8F4" width="0.51" height="1.017"/>
<polygon fill="#54E8F4" points="179.586,207.246 179.006,206.408 179.42,206.121 180.005,206.953 "/>
<rect x="55.97" y="205.984" transform="matrix(0.8186 0.5744 -0.5744 0.8186 128.816 5.1698)" fill="#54E8F4" width="0.51" height="1.016"/>
<rect x="180.24" y="205.55" transform="matrix(0.5814 0.8136 -0.8136 0.5814 243.1004 -60.9123)" fill="#54E8F4" width="1.018" height="0.508"/>
<rect x="54.724" y="205.1" transform="matrix(0.8106 0.5857 -0.5857 0.8106 130.8333 6.7526)" fill="#54E8F4" width="0.51" height="1.017"/>
<rect x="181.471" y="204.655" transform="matrix(0.5926 0.8055 -0.8055 0.5926 239.1884 -63.1058)" fill="#54E8F4" width="1.018" height="0.507"/>
<polygon fill="#54E8F4" points="53.65,205.268 53.238,204.963 53.846,204.146 54.252,204.447 "/>
<rect x="182.691" y="203.744" transform="matrix(0.6025 0.7982 -0.7982 0.6025 235.6516 -65.1232)" fill="#54E8F4" width="1.018" height="0.507"/>
<polygon fill="#54E8F4" points="52.422,204.348 52.015,204.037 52.634,203.23 53.036,203.537 "/>
<rect x="183.897" y="202.814" transform="matrix(0.6149 0.7886 -0.7886 0.6149 231.1424 -67.2246)" fill="#54E8F4" width="1.018" height="0.507"/>
<rect x="51.066" y="202.344" transform="matrix(0.7861 0.6182 -0.6182 0.7861 136.3751 11.6748)" fill="#54E8F4" width="0.512" height="1.018"/>
<rect x="185.091" y="201.868" transform="matrix(0.624 0.7814 -0.7814 0.624 227.7299 -69.0349)" fill="#54E8F4" width="1.017" height="0.505"/>
<rect x="49.872" y="201.392" transform="matrix(0.779 0.627 -0.627 0.779 137.6745 13.1887)" fill="#54E8F4" width="0.511" height="1.018"/>
<polygon fill="#54E8F4" points="186.908,201.709 186.264,200.924 186.652,200.602 187.303,201.385 "/>
<polygon fill="#54E8F4" points="48.819,201.484 48.425,201.156 49.081,200.379 49.467,200.701 "/>
<rect x="187.438" y="199.923" transform="matrix(0.6456 0.7636 -0.7636 0.6456 219.463 -72.5898)" fill="#54E8F4" width="1.018" height="0.506"/>
<polygon fill="#54E8F4" points="47.645,200.496 47.256,200.164 47.922,199.395 48.306,199.725 "/>
<polygon fill="#54E8F4" points="189.244,199.73 188.577,198.961 188.956,198.629 189.629,199.393 "/>
<rect x="46.376" y="198.435" transform="matrix(0.7501 0.6613 -0.6613 0.7501 143.2072 18.8708)" fill="#54E8F4" width="0.511" height="1.016"/>
<rect x="189.732" y="197.913" transform="matrix(0.6677 0.7444 -0.7444 0.6677 210.7409 -75.7702)" fill="#54E8F4" width="1.018" height="0.507"/>
<rect x="45.239" y="197.418" transform="matrix(0.7406 0.6719 -0.6719 0.7406 144.7895 20.7674)" fill="#54E8F4" width="0.512" height="1.018"/>
<rect x="190.856" y="196.884" transform="matrix(0.6782 0.7348 -0.7348 0.6782 206.4383 -77.1919)" fill="#54E8F4" width="1.018" height="0.507"/>
<polygon fill="#54E8F4" points="44.211,197.438 43.836,197.088 44.535,196.348 44.903,196.693 "/>
<polygon fill="#54E8F4" points="192.643,196.637 191.943,195.898 192.309,195.551 193.014,196.283 "/>
<polygon fill="#54E8F4" points="43.096,196.387 42.726,196.031 43.435,195.303 43.798,195.652 "/>
<polygon fill="#54E8F4" points="193.746,195.574 193.036,194.844 193.396,194.492 194.111,195.215 "/>
<rect x="41.916" y="194.271" transform="matrix(0.71 0.7042 -0.7042 0.71 149.4003 26.7934)" fill="#54E8F4" width="0.51" height="1.018"/>
<rect x="194.145" y="193.701" transform="matrix(0.7095 0.7047 -0.7047 0.7095 193.227 -80.8297)" fill="#54E8F4" width="1.017" height="0.508"/>
<polygon fill="#54E8F4" points="40.911,194.24 40.552,193.875 41.279,193.162 41.633,193.521 "/>
<polygon fill="#54E8F4" points="195.907,193.4 195.18,192.691 195.529,192.33 196.264,193.033 "/>
<rect x="39.776" y="192.098" transform="matrix(0.6912 0.7227 -0.7227 0.6912 151.561 30.5539)" fill="#54E8F4" width="0.511" height="1.016"/>
<polygon fill="#54E8F4" points="196.965,192.293 196.229,191.592 196.572,191.227 197.316,191.92 "/>
<rect x="38.729" y="190.987" transform="matrix(0.6813 0.732 -0.732 0.6813 152.6083 32.4993)" fill="#54E8F4" width="0.51" height="1.017"/>
<rect x="197.297" y="190.385" transform="matrix(0.7372 0.6757 -0.6757 0.7372 180.8116 -83.5536)" fill="#54E8F4" width="1.017" height="0.507"/>
<polygon fill="#54E8F4" points="37.747,190.902 37.403,190.521 38.163,189.846 38.5,190.219 "/>
<rect x="198.316" y="189.25" transform="matrix(0.7462 0.6657 -0.6657 0.7462 176.6 -84.265)" fill="#54E8F4" width="1.018" height="0.506"/>
<rect x="36.685" y="188.727" transform="matrix(0.6607 0.7507 -0.7507 0.6607 154.5891 36.4833)" fill="#54E8F4" width="0.51" height="1.018"/>
<polygon fill="#54E8F4" points="200.048,188.877 199.277,188.211 199.607,187.83 200.382,188.488 "/>
<polygon fill="#54E8F4" points="35.72,188.609 35.387,188.219 36.164,187.563 36.491,187.945 "/>
<polygon fill="#54E8F4" points="201.043,187.711 200.264,187.057 200.589,186.67 201.371,187.318 "/>
<rect x="34.704" y="186.409" transform="matrix(0.6396 0.7687 -0.7687 0.6396 156.2807 40.4888)" fill="#54E8F4" width="0.511" height="1.017"/>
<polygon fill="#54E8F4" points="202.02,186.531 201.234,185.883 201.553,185.492 202.344,186.133 "/>
<polygon fill="#54E8F4" points="33.757,186.258 33.436,185.859 34.229,185.223 34.546,185.615 "/>
<rect x="202.232" y="184.567" transform="matrix(0.7831 0.6219 -0.6219 0.7831 158.9088 -85.9956)" fill="#54E8F4" width="1.018" height="0.508"/>
<rect x="32.789" y="184.039" transform="matrix(0.6171 0.7869 -0.7869 0.6171 157.8776 44.6686)" fill="#54E8F4" width="0.509" height="1.018"/>
<polygon fill="#54E8F4" points="203.926,184.129 203.124,183.504 203.43,183.105 204.24,183.721 "/>
<polygon fill="#54E8F4" points="31.861,183.854 31.551,183.445 32.364,182.832 32.669,183.232 "/>
<rect x="204.091" y="182.145" transform="matrix(0.8007 0.5991 -0.5991 0.8007 150.0495 -86.2174)" fill="#54E8F4" width="1.017" height="0.507"/>
<rect x="30.943" y="181.615" transform="matrix(0.5939 0.8046 -0.8046 0.5939 159.2031 48.8685)" fill="#54E8F4" width="0.51" height="1.017"/>
<rect x="204.995" y="180.913" transform="matrix(0.8089 0.5879 -0.5879 0.8089 145.7865 -86.2036)" fill="#54E8F4" width="1.017" height="0.506"/>
<rect x="30.046" y="180.386" transform="matrix(0.584 0.8118 -0.8118 0.584 159.4546 50.6633)" fill="#54E8F4" width="0.51" height="1.017"/>
<rect x="205.88" y="179.67" transform="matrix(0.8161 0.578 -0.578 0.8161 141.9516 -86.1906)" fill="#54E8F4" width="1.017" height="0.506"/>
<rect x="29.166" y="179.142" transform="matrix(0.5727 0.8198 -0.8198 0.5727 159.845 52.6481)" fill="#54E8F4" width="0.51" height="1.018"/>
<rect x="206.75" y="178.411" transform="matrix(0.8255 0.5644 -0.5644 0.8255 137.0071 -85.801)" fill="#54E8F4" width="1.017" height="0.507"/>
<rect x="28.303" y="177.887" transform="matrix(0.5593 0.8289 -0.8289 0.5593 160.4629 54.9391)" fill="#54E8F4" width="0.509" height="1.017"/>
<polygon fill="#54E8F4" points="208.393,177.891 207.546,177.326 207.824,176.904 208.675,177.463 "/>
<polygon fill="#54E8F4" points="27.428,177.619 27.148,177.191 28,176.637 28.277,177.059 "/>
<rect x="208.434" y="175.862" transform="matrix(0.8414 0.5405 -0.5405 0.8414 128.3307 -84.9888)" fill="#54E8F4" width="1.019" height="0.509"/>
<rect x="26.633" y="175.339" transform="matrix(0.5369 0.8437 -0.8437 0.5369 160.8091 58.7557)" fill="#54E8F4" width="0.509" height="1.018"/>
<rect x="209.249" y="174.568" transform="matrix(0.8491 0.5283 -0.5283 0.8491 124.011 -84.4238)" fill="#54E8F4" width="1.017" height="0.508"/>
<rect x="25.825" y="174.05" transform="matrix(0.5245 0.8514 -0.8514 0.5245 161.0257 60.8024)" fill="#54E8F4" width="0.509" height="1.017"/>
<polygon fill="#54E8F4" points="210.857,174.002 209.989,173.473 210.248,173.041 211.123,173.561 "/>
<rect x="25.035" y="172.75" transform="matrix(0.5134 0.8582 -0.8582 0.5134 160.992 62.6103)" fill="#54E8F4" width="0.51" height="1.017"/>
<polygon fill="#54E8F4" points="211.643,172.682 210.766,172.166 211.02,171.729 211.901,172.238 "/>
<rect x="24.265" y="171.437" transform="matrix(0.5024 0.8646 -0.8646 0.5024 160.8669 64.3546)" fill="#54E8F4" width="0.508" height="1.018"/>
<rect x="211.583" y="170.622" transform="matrix(0.8719 0.4897 -0.4897 0.8719 110.8534 -81.9721)" fill="#54E8F4" width="1.017" height="0.509"/>
<polygon fill="#54E8F4" points="23.446,171.094 23.196,170.648 24.086,170.154 24.333,170.594 "/>
<rect x="212.324" y="169.285" transform="matrix(0.8775 0.4795 -0.4795 0.8775 107.364 -81.2949)" fill="#54E8F4" width="1.018" height="0.507"/>
<polygon fill="#54E8F4" points="22.707,169.758 22.464,169.309 23.36,168.828 23.599,169.27 "/>
<polygon fill="#54E8F4" points="213.886,168.654 212.986,168.178 213.223,167.729 214.125,168.199 "/>
<polygon fill="#54E8F4" points="21.986,168.41 21.75,167.959 22.652,167.49 22.886,167.936 "/>
<polygon fill="#54E8F4" points="214.594,167.291 213.689,166.824 213.918,166.375 214.827,166.832 "/>
<rect x="21.368" y="166.088" transform="matrix(0.4503 0.8929 -0.8929 0.4503 160.6392 72.2749)" fill="#54E8F4" width="0.51" height="1.017"/>
<polygon fill="#54E8F4" points="215.284,165.918 214.373,165.465 214.596,165.012 215.511,165.457 "/>
<polygon fill="#54E8F4" points="20.602,165.686 20.378,165.227 21.294,164.785 21.515,165.238 "/>
<polygon fill="#54E8F4" points="215.955,164.535 215.037,164.096 215.254,163.639 216.174,164.07 "/>
<rect x="20.037" y="163.355" transform="matrix(0.4248 0.9053 -0.9053 0.4248 160.0131 75.8811)" fill="#54E8F4" width="0.509" height="1.018"/>
<polygon fill="#54E8F4" points="216.605,163.143 215.682,162.717 215.892,162.256 216.818,162.676 "/>
<rect x="19.4" y="161.976" transform="matrix(0.4108 0.9117 -0.9117 0.4108 159.7177 77.8097)" fill="#54E8F4" width="0.51" height="1.017"/>
<polygon fill="#54E8F4" points="217.26,161.688 216.306,161.328 216.51,160.863 217.443,161.27 "/>
<rect x="18.782" y="160.587" transform="matrix(0.3998 0.9166 -0.9166 0.3998 159.0855 79.2385)" fill="#54E8F4" width="0.509" height="1.017"/>
<polygon fill="#54E8F4" points="217.848,160.328 216.912,159.93 217.108,159.463 218.047,159.855 "/>
<polygon fill="#54E8F4" points="18.068,160.131 17.872,159.66 18.811,159.27 19.005,159.734 "/>
<polygon fill="#54E8F4" points="218.47,158.83 217.496,158.523 217.688,158.053 218.631,158.432 "/>
<polygon fill="#54E8F4" points="17.485,158.721 17.293,158.246 18.238,157.869 18.428,158.338 "/>
<rect x="218.118" y="156.803" transform="matrix(0.931 0.3651 -0.3651 0.931 72.4309 -68.9766)" fill="#54E8F4" width="1.016" height="0.509"/>
<polygon fill="#54E8F4" points="16.919,157.295 16.734,156.816 17.685,156.455 17.867,156.926 "/>
<polygon fill="#54E8F4" points="219.559,156.043 218.607,155.684 218.783,155.209 219.738,155.561 "/>
<rect x="16.507" y="154.938" transform="matrix(0.3473 0.9377 -0.9377 0.3473 156.7077 85.7342)" fill="#54E8F4" width="0.51" height="1.017"/>
<rect x="219.186" y="153.934" transform="matrix(0.942 0.3357 -0.3357 0.942 64.5166 -64.8088)" fill="#54E8F4" width="1.018" height="0.508"/>
<rect x="15.988" y="153.504" transform="matrix(0.3351 0.9422 -0.9422 0.3351 155.9065 87.0956)" fill="#54E8F4" width="0.51" height="1.018"/>
<rect x="219.689" y="152.484" transform="matrix(0.946 0.3243 -0.3243 0.946 61.4281 -63.1513)" fill="#54E8F4" width="1.018" height="0.51"/>
<rect x="15.489" y="152.062" transform="matrix(0.32 0.9474 -0.9474 0.32 155.2572 88.8389)" fill="#54E8F4" width="0.511" height="1.017"/>
<rect x="220.172" y="151.03" transform="matrix(0.951 0.3093 -0.3093 0.951 57.6141 -60.8388)" fill="#54E8F4" width="1.017" height="0.509"/>
<polygon fill="#54E8F4" points="14.86,151.52 14.703,151.031 15.673,150.725 15.828,151.205 "/>
<polygon fill="#54E8F4" points="221.555,150.217 220.582,149.916 220.732,149.43 221.705,149.725 "/>
<polygon fill="#54E8F4" points="14.397,150.059 14.247,149.57 15.22,149.275 15.368,149.758 "/>
<rect x="221.074" y="148.107" transform="matrix(0.9599 0.2803 -0.2803 0.9599 50.4673 -56.1612)" fill="#54E8F4" width="1.017" height="0.508"/>
<rect x="14.117" y="147.694" transform="matrix(0.2794 0.9602 -0.9602 0.2794 152.6563 92.9947)" fill="#54E8F4" width="0.509" height="1.017"/>
<polygon fill="#54E8F4" points="222.423,147.275 221.443,147.002 221.578,146.514 222.559,146.781 "/>
<polygon fill="#54E8F4" points="13.533,147.117 13.398,146.625 14.378,146.357 14.514,146.844 "/>
<rect x="221.889" y="145.166" transform="matrix(0.9674 0.2531 -0.2531 0.9674 44.052 -51.5586)" fill="#54E8F4" width="1.019" height="0.509"/>
<polygon fill="#54E8F4" points="13.133,145.639 13.004,145.143 13.99,144.889 14.117,145.377 "/>
<polygon fill="#54E8F4" points="223.207,144.313 222.219,144.066 222.34,143.574 223.328,143.814 "/>
<rect x="12.932" y="143.275" transform="matrix(0.2371 0.9715 -0.9715 0.2371 149.7421 96.8767)" fill="#54E8F4" width="0.511" height="1.017"/>
<rect x="222.62" y="142.204" transform="matrix(0.974 0.2267 -0.2267 0.974 38.1012 -46.871)" fill="#54E8F4" width="1.017" height="0.507"/>
<rect x="12.579" y="141.791" transform="matrix(0.2236 0.9747 -0.9747 0.2236 148.6613 97.9719)" fill="#54E8F4" width="0.511" height="1.017"/>
<rect x="222.954" y="140.714" transform="matrix(0.977 0.2133 -0.2133 0.977 35.205 -44.414)" fill="#54E8F4" width="1.017" height="0.509"/>
<polygon fill="#54E8F4" points="12.06,141.166 11.952,140.666 12.946,140.455 13.053,140.949 "/>
<rect x="223.267" y="139.22" transform="matrix(0.9806 0.1959 -0.1959 0.9806 31.6648 -41.1412)" fill="#54E8F4" width="1.017" height="0.51"/>
<polygon fill="#54E8F4" points="11.745,139.666 11.644,139.164 12.642,138.967 12.741,139.463 "/>
<rect x="223.558" y="137.724" transform="matrix(0.9828 0.1845 -0.1845 0.9828 29.297 -38.9641)" fill="#54E8F4" width="1.016" height="0.509"/>
<rect x="11.649" y="137.309" transform="matrix(0.1834 0.983 -0.983 0.1834 145.2015 100.8455)" fill="#54E8F4" width="0.509" height="1.018"/>
<polygon fill="#54E8F4" points="224.795,136.814 223.792,136.639 223.878,136.141 224.881,136.311 "/>
<rect x="11.381" y="135.806" transform="matrix(0.1697 0.9855 -0.9855 0.1697 144.0001 101.7181)" fill="#54E8F4" width="0.509" height="1.018"/>
<polygon fill="#54E8F4" points="225.049,135.303 224.044,135.141 224.123,134.643 225.128,134.797 "/>
<rect x="11.134" y="134.302" transform="matrix(0.1551 0.9879 -0.9879 0.1551 142.8026 102.6531)" fill="#54E8F4" width="0.51" height="1.017"/>
<rect x="224.304" y="133.208" transform="matrix(0.9898 0.1422 -0.1422 0.9898 21.2676 -30.6179)" fill="#54E8F4" width="1.016" height="0.507"/>
<rect x="10.909" y="132.793" transform="matrix(0.1405 0.9901 -0.9901 0.1405 141.5755 103.5215)" fill="#54E8F4" width="0.511" height="1.017"/>
<rect x="224.51" y="131.696" transform="matrix(0.9917 0.1286 -0.1286 0.9917 18.8439 -27.8504)" fill="#54E8F4" width="1.017" height="0.508"/>
<rect x="10.705" y="131.28" transform="matrix(0.1273 0.9919 -0.9919 0.1273 140.2811 104.1367)" fill="#54E8F4" width="0.51" height="1.017"/>
<rect x="224.695" y="130.182" transform="matrix(0.9933 0.1153 -0.1153 0.9933 16.5381 -25.0919)" fill="#54E8F4" width="1.017" height="0.507"/>
<rect x="10.524" y="129.765" transform="matrix(0.1136 0.9935 -0.9935 0.1136 138.9838 104.766)" fill="#54E8F4" width="0.507" height="1.017"/>
<polygon fill="#54E8F4" points="225.848,129.225 224.834,129.121 224.885,128.617 225.897,128.715 "/>
<rect x="10.362" y="128.248" transform="matrix(0.0986 0.9951 -0.9951 0.0986 137.7008 105.5015)" fill="#54E8F4" width="0.51" height="1.017"/>
<rect x="225" y="127.147" transform="matrix(0.9963 0.0864 -0.0864 0.9963 11.8479 -19.0035)" fill="#54E8F4" width="1.017" height="0.508"/>
<polygon fill="#54E8F4" points="9.993,127.535 9.949,127.025 10.964,126.941 11.006,127.445 "/>
<rect x="225.12" y="125.625" transform="matrix(0.9975 0.0711 -0.0711 0.9975 9.5225 -15.7259)" fill="#54E8F4" width="1.016" height="0.507"/>
<polygon fill="#54E8F4" points="9.871,126.006 9.834,125.496 10.85,125.428 10.885,125.932 "/>
<polygon fill="#54E8F4" points="226.225,124.586 225.205,124.58 225.234,124.072 226.25,124.131 "/>
<polygon fill="#54E8F4" points="9.77,124.477 9.741,123.967 10.756,123.912 10.785,124.416 "/>
<polygon fill="#54E8F4" points="226.303,123.109 225.286,123.063 225.309,122.557 226.324,122.598 "/>
<rect x="9.932" y="122.161" transform="matrix(0.0421 0.9991 -0.9991 0.0421 132.3194 107.3263)" fill="#54E8F4" width="0.51" height="1.017"/>
<polygon fill="#54E8F4" points="226.362,121.58 225.346,121.547 225.361,121.041 226.378,121.066 "/>
<polygon fill="#54E8F4" points="9.632,121.418 9.617,120.908 10.634,120.881 10.648,121.385 "/>
<rect x="225.389" y="119.529" transform="matrix(0.9999 0.0154 -0.0154 0.9999 1.8657 -3.4541)" fill="#54E8F4" width="1.018" height="0.508"/>
<polygon fill="#54E8F4" points="9.595,119.889 9.588,119.379 10.605,119.367 10.612,119.871 "/>
<rect x="225.403" y="118.004" fill="#54E8F4" width="1.018" height="0.508"/>
<rect x="9.58" y="117.846" fill="#54E8F4" width="1.017" height="0.512"/>
<rect x="225.403" y="117.294" fill="#54E8F4" width="1.017" height="0.51"/>
<rect x="9.589" y="116.318" transform="matrix(0.9999 0.0115 -0.0115 0.9999 1.3437 -0.1086)" fill="#54E8F4" width="1.017" height="0.512"/>
<rect x="225.642" y="115.515" transform="matrix(0.0193 0.9998 -0.9998 0.0193 337.5363 -112.0684)" fill="#54E8F4" width="0.506" height="1.018"/>
<polygon fill="#54E8F4" points="10.63,115.316 9.613,115.293 9.626,114.781 10.643,114.811 "/>
<polygon fill="#54E8F4" points="225.355,114.77 225.34,114.266 226.355,114.23 226.373,114.74 "/>
<rect x="9.671" y="113.268" transform="matrix(0.9993 0.0365 -0.0365 0.9993 4.148 -0.2958)" fill="#54E8F4" width="1.017" height="0.51"/>
<rect x="225.544" y="112.472" transform="matrix(0.0463 0.9989 -0.9989 0.0463 328.2058 -117.8034)" fill="#54E8F4" width="0.506" height="1.017"/>
<polygon fill="#54E8F4" points="10.746,112.281 9.73,112.229 9.755,111.77 10.773,111.775 "/>
<polygon fill="#54E8F4" points="225.225,111.74 225.193,111.236 226.209,111.172 226.239,111.682 "/>
<rect x="9.838" y="110.221" transform="matrix(0.9977 0.0672 -0.0672 0.9977 7.4461 -0.4455)" fill="#54E8F4" width="1.017" height="0.511"/>
<rect x="225.362" y="109.426" transform="matrix(0.0751 0.9972 -0.9972 0.0751 318.301 -123.2975)" fill="#54E8F4" width="0.507" height="1.018"/>
<rect x="9.953" y="108.7" transform="matrix(0.9967 0.0806 -0.0806 0.9967 8.8184 -0.4888)" fill="#54E8F4" width="1.017" height="0.511"/>
<rect x="225.238" y="107.905" transform="matrix(0.0885 0.9961 -0.9961 0.0885 313.5354 -125.784)" fill="#54E8F4" width="0.508" height="1.018"/>
<polygon fill="#54E8F4" points="11.081,107.738 10.068,107.643 10.117,107.133 11.129,107.234 "/>
<rect x="225.094" y="106.387" transform="matrix(0.1022 0.9948 -0.9948 0.1022 308.6587 -128.1949)" fill="#54E8F4" width="0.507" height="1.018"/>
<rect x="10.248" y="105.663" transform="matrix(0.9942 0.1075 -0.1075 0.9942 11.4521 -0.5425)" fill="#54E8F4" width="1.017" height="0.511"/>
<rect x="224.928" y="104.871" transform="matrix(0.1174 0.9931 -0.9931 0.1174 303.3965 -130.6161)" fill="#54E8F4" width="0.507" height="1.018"/>
<rect x="10.428" y="104.151" transform="matrix(0.9922 0.1248 -0.1248 0.9922 13.1156 -0.5486)" fill="#54E8F4" width="1.017" height="0.508"/>
<polygon fill="#54E8F4" points="224.523,104.182 224.457,103.682 225.465,103.545 225.531,104.051 "/>
<rect x="10.629" y="102.638" transform="matrix(0.9904 0.1383 -0.1383 0.9904 14.3331 -0.5517)" fill="#54E8F4" width="1.017" height="0.509"/>
<rect x="224.532" y="101.844" transform="matrix(0.1444 0.9895 -0.9895 0.1444 293.6099 -134.8559)" fill="#54E8F4" width="0.507" height="1.017"/>
<polygon fill="#54E8F4" points="11.824,101.709 10.818,101.559 10.896,101.053 11.901,101.211 "/>
<rect x="224.302" y="100.335" transform="matrix(0.1581 0.9874 -0.9874 0.1581 288.619 -136.8338)" fill="#54E8F4" width="0.506" height="1.017"/>
<rect x="11.095" y="99.622" transform="matrix(0.9866 0.1632 -0.1632 0.9866 16.4586 -0.5545)" fill="#54E8F4" width="1.017" height="0.509"/>
<rect x="224.05" y="98.831" transform="matrix(0.1713 0.9852 -0.9852 0.1713 283.7621 -138.6634)" fill="#54E8F4" width="0.507" height="1.017"/>
<rect x="11.36" y="98.118" transform="matrix(0.9839 0.1785 -0.1785 0.9839 17.7465 -0.539)" fill="#54E8F4" width="1.018" height="0.51"/>
<rect x="223.777" y="97.33" transform="matrix(0.185 0.9827 -0.9827 0.185 278.7384 -140.4242)" fill="#54E8F4" width="0.507" height="1.017"/>
<rect x="11.647" y="96.619" transform="matrix(0.981 0.1938 -0.1938 0.981 19.0056 -0.5191)" fill="#54E8F4" width="1.018" height="0.51"/>
<polygon fill="#54E8F4" points="223.29,96.691 223.188,96.197 224.185,95.99 224.286,96.49 "/>
<polygon fill="#54E8F4" points="12.908,95.734 11.913,95.525 12.019,95.023 13.013,95.238 "/>
<polygon fill="#54E8F4" points="222.979,95.205 222.871,94.711 223.865,94.49 223.975,94.99 "/>
<polygon fill="#54E8F4" points="13.231,94.25 12.239,94.027 12.353,93.527 13.344,93.756 "/>
<rect x="222.832" y="92.853" transform="matrix(0.2271 0.9739 -0.9739 0.2271 263.3431 -145.0984)" fill="#54E8F4" width="0.507" height="1.017"/>
<rect x="12.634" y="92.151" transform="matrix(0.9722 0.2343 -0.2343 0.9722 22.0145 -0.5073)" fill="#54E8F4" width="1.017" height="0.509"/>
<rect x="222.475" y="91.368" transform="matrix(0.2398 0.9708 -0.9708 0.2398 258.5126 -146.3842)" fill="#54E8F4" width="0.505" height="1.017"/>
<rect x="13.004" y="90.673" transform="matrix(0.9679 0.2513 -0.2513 0.9679 23.2862 -0.4777)" fill="#54E8F4" width="1.018" height="0.508"/>
<rect x="222.095" y="89.891" transform="matrix(0.2543 0.9671 -0.9671 0.2543 253.2321 -147.6283)" fill="#54E8F4" width="0.507" height="1.017"/>
<polygon fill="#54E8F4" points="14.33,89.828 13.347,89.564 13.482,89.07 14.463,89.342 "/>
<polygon fill="#54E8F4" points="221.528,89.309 221.393,88.822 222.371,88.545 222.509,89.037 "/>
<rect x="13.81" y="87.727" transform="matrix(0.9615 0.2747 -0.2747 0.9615 24.7216 -0.5484)" fill="#54E8F4" width="1.017" height="0.51"/>
<rect x="221.274" y="86.954" transform="matrix(0.2828 0.9592 -0.9592 0.2828 242.7766 -149.7576)" fill="#54E8F4" width="0.511" height="1.018"/>
<rect x="14.245" y="86.263" transform="matrix(0.957 0.29 -0.29 0.957 25.7278 -0.56)" fill="#54E8F4" width="1.017" height="0.512"/>
<rect x="220.834" y="85.491" transform="matrix(0.2965 0.955 -0.955 0.2965 237.6631 -150.6456)" fill="#54E8F4" width="0.507" height="1.017"/>
<rect x="14.701" y="84.801" transform="matrix(0.9524 0.305 -0.305 0.9524 26.6656 -0.5864)" fill="#54E8F4" width="1.018" height="0.511"/>
<polygon fill="#54E8F4" points="220.22,84.943 220.063,84.463 221.029,84.146 221.188,84.633 "/>
<polygon fill="#54E8F4" points="16.09,84.002 15.124,83.684 15.288,83.195 16.251,83.523 "/>
<polygon fill="#54E8F4" points="219.743,83.504 219.58,83.025 220.541,82.693 220.707,83.178 "/>
<polygon fill="#54E8F4" points="16.582,82.561 15.621,82.225 15.792,81.742 16.75,82.084 "/>
<polygon fill="#54E8F4" points="219.245,82.07 219.075,81.594 220.031,81.248 220.204,81.73 "/>
<rect x="16.197" y="80.454" transform="matrix(0.939 0.3439 -0.3439 0.939 28.7752 -0.8221)" fill="#54E8F4" width="1.017" height="0.512"/>
<rect x="218.86" y="79.717" transform="matrix(0.3511 0.9363 -0.9363 0.3511 217.2969 -153.1064)" fill="#54E8F4" width="0.509" height="1.019"/>
<polygon fill="#54E8F4" points="17.628,79.695 16.678,79.334 16.862,78.855 17.81,79.225 "/>
<polygon fill="#54E8F4" points="218.189,79.221 218.005,78.75 218.951,78.377 219.138,78.854 "/>
<polygon fill="#54E8F4" points="18.182,78.279 17.237,77.9 17.396,77.504 18.372,77.807 "/>
<rect x="217.752" y="76.874" transform="matrix(0.3767 0.9263 -0.9263 0.3767 207.5689 -153.714)" fill="#54E8F4" width="0.508" height="1.017"/>
<polygon fill="#54E8F4" points="18.756,76.865 17.816,76.477 18.014,76.002 18.952,76.398 "/>
<polygon fill="#54E8F4" points="217.053,76.408 216.857,75.945 217.793,75.547 217.992,76.018 "/>
<polygon fill="#54E8F4" points="19.35,75.463 18.416,75.061 18.62,74.59 19.553,74.998 "/>
<polygon fill="#54E8F4" points="216.457,75.021 216.256,74.561 217.184,74.146 217.391,74.613 "/>
<rect x="19.097" y="73.372" transform="matrix(0.9117 0.4108 -0.4108 0.9117 31.974 -1.5549)" fill="#54E8F4" width="1.018" height="0.512"/>
<rect x="215.947" y="72.689" transform="matrix(0.4144 0.9101 -0.9101 0.4144 193.2261 -153.8978)" fill="#54E8F4" width="0.504" height="1.016"/>
<rect x="19.736" y="71.98" transform="matrix(0.9056 0.424 -0.424 0.9056 32.5414 -1.7689)" fill="#54E8F4" width="1.018" height="0.512"/>
<polygon fill="#54E8F4" points="215.207,72.266 214.991,71.811 215.909,71.373 216.127,71.834 "/>
<rect x="20.396" y="70.602" transform="matrix(0.9001 0.4357 -0.4357 0.9001 32.958 -2.0295)" fill="#54E8F4" width="1.018" height="0.511"/>
<polygon fill="#54E8F4" points="214.552,70.902 214.33,70.451 215.24,69.998 215.467,70.457 "/>
<polygon fill="#54E8F4" points="21.923,69.941 21.013,69.486 21.244,69.027 22.15,69.49 "/>
<polygon fill="#54E8F4" points="213.878,69.547 213.648,69.098 214.555,68.633 214.785,69.088 "/>
<polygon fill="#54E8F4" points="22.615,68.586 21.712,68.117 21.949,67.662 22.849,68.137 "/>
<polygon fill="#54E8F4" points="213.184,68.201 212.949,67.756 213.849,67.279 214.087,67.732 "/>
<rect x="22.491" y="66.52" transform="matrix(0.8813 0.4726 -0.4726 0.8813 34.2871 -2.9419)" fill="#54E8F4" width="1.017" height="0.511"/>
<polygon fill="#54E8F4" points="212.473,66.865 212.231,66.424 213.123,65.934 213.367,66.383 "/>
<polygon fill="#54E8F4" points="24.056,65.904 23.166,65.412 23.417,64.965 24.303,65.463 "/>
<polygon fill="#54E8F4" points="211.74,65.541 211.494,65.102 212.379,64.6 212.63,65.045 "/>
<rect x="23.982" y="63.852" transform="matrix(0.8667 0.4988 -0.4988 0.8667 35.2428 -3.6715)" fill="#54E8F4" width="1.018" height="0.51"/>
<rect x="211.05" y="63.242" transform="matrix(0.5048 0.8632 -0.8632 0.5048 159.6625 -150.8338)" fill="#54E8F4" width="0.507" height="1.018"/>
<rect x="24.756" y="62.533" transform="matrix(0.8589 0.5122 -0.5122 0.8589 35.7232 -4.0796)" fill="#54E8F4" width="1.018" height="0.51"/>
<polygon fill="#54E8F4" points="210.222,62.92 209.962,62.488 210.833,61.963 211.096,62.4 "/>
<polygon fill="#54E8F4" points="26.356,61.965 25.489,61.432 25.759,60.996 26.621,61.535 "/>
<rect x="209.482" y="60.634" transform="matrix(0.5272 0.8497 -0.8497 0.5272 151.1134 -149.3109)" fill="#54E8F4" width="0.506" height="1.018"/>
<rect x="26.358" y="59.931" transform="matrix(0.8434 0.5373 -0.5373 0.8434 36.5461 -5.01)" fill="#54E8F4" width="1.018" height="0.509"/>
<rect x="208.669" y="59.349" transform="matrix(0.539 0.8423 -0.8423 0.539 146.7307 -148.3824)" fill="#54E8F4" width="0.505" height="1.016"/>
<polygon fill="#54E8F4" points="27.982,59.393 27.131,58.836 27.412,58.408 28.26,58.971 "/>
<rect x="207.839" y="58.071" transform="matrix(0.5507 0.8347 -0.8347 0.5507 142.3974 -147.3764)" fill="#54E8F4" width="0.505" height="1.018"/>
<polygon fill="#54E8F4" points="28.822,58.125 27.978,57.557 28.266,57.133 29.105,57.709 "/>
<rect x="206.99" y="56.808" transform="matrix(0.5605 0.8282 -0.8282 0.5605 138.5589 -146.4417)" fill="#54E8F4" width="0.507" height="1.017"/>
<rect x="28.899" y="56.116" transform="matrix(0.8202 0.5721 -0.5721 0.8202 37.5361 -6.688)" fill="#54E8F4" width="1.017" height="0.51"/>
<rect x="206.125" y="55.555" transform="matrix(0.5742 0.8187 -0.8187 0.5742 133.7645 -145.0879)" fill="#54E8F4" width="0.503" height="1.017"/>
<rect x="29.781" y="54.87" transform="matrix(0.8125 0.5829 -0.5829 0.8125 37.8116 -7.3226)" fill="#54E8F4" width="1.019" height="0.511"/>
<rect x="205.24" y="54.316" transform="matrix(0.5851 0.811 -0.811 0.5851 129.7264 -143.9034)" fill="#54E8F4" width="0.506" height="1.015"/>
<polygon fill="#54E8F4" points="31.448,54.396 30.628,53.795 30.933,53.383 31.749,53.99 "/>
<rect x="204.339" y="53.086" transform="matrix(0.5994 0.8005 -0.8005 0.5994 124.864 -142.2973)" fill="#54E8F4" width="0.505" height="1.017"/>
<polygon fill="#54E8F4" points="32.357,53.178 31.546,52.564 31.857,52.158 32.663,52.777 "/>
<rect x="203.419" y="51.872" transform="matrix(0.6062 0.7953 -0.7953 0.6062 121.8744 -141.3601)" fill="#54E8F4" width="0.506" height="1.016"/>
<rect x="32.531" y="51.203" transform="matrix(0.789 0.6143 -0.6143 0.789 38.5833 -9.4421)" fill="#54E8F4" width="1.017" height="0.511"/>
<polygon fill="#54E8F4" points="202.495,51.691 202.182,51.297 202.979,50.662 203.295,51.063 "/>
<rect x="33.483" y="50.01" transform="matrix(0.7786 0.6275 -0.6275 0.7786 39.0668 -10.2018)" fill="#54E8F4" width="1.018" height="0.511"/>
<rect x="201.531" y="49.48" transform="matrix(0.6299 0.7767 -0.7767 0.6299 113.5134 -138.2239)" fill="#54E8F4" width="0.505" height="1.017"/>
<rect x="34.45" y="48.829" transform="matrix(0.7708 0.637 -0.637 0.7708 39.2788 -11.0213)" fill="#54E8F4" width="1.018" height="0.511"/>
<polygon fill="#54E8F4" points="200.588,49.334 200.264,48.947 201.041,48.291 201.369,48.684 "/>
<polygon fill="#54E8F4" points="36.163,48.441 35.388,47.783 35.722,47.393 36.492,48.059 "/>
<polygon fill="#54E8F4" points="199.608,48.174 199.279,47.793 200.049,47.127 200.383,47.516 "/>
<rect x="36.433" y="46.51" transform="matrix(0.751 0.6603 -0.6603 0.751 40.0781 -12.7483)" fill="#54E8F4" width="1.018" height="0.511"/>
<polygon fill="#54E8F4" points="198.613,47.029 198.279,46.652 199.037,45.975 199.377,46.357 "/>
<polygon fill="#54E8F4" points="38.165,46.154 37.407,45.477 37.752,45.094 38.501,45.783 "/>
<rect x="197.554" y="44.86" transform="matrix(0.6736 0.7391 -0.7391 0.6736 98.0888 -131.387)" fill="#54E8F4" width="0.507" height="1.017"/>
<rect x="38.48" y="44.246" transform="matrix(0.7335 0.6797 -0.6797 0.7335 40.6399 -14.6401)" fill="#54E8F4" width="1.017" height="0.511"/>
<polygon fill="#54E8F4" points="196.573,44.779 196.23,44.412 196.971,43.715 197.321,44.09 "/>
<polygon fill="#54E8F4" points="40.229,43.926 39.491,43.227 39.845,42.855 40.578,43.561 "/>
<rect x="195.47" y="42.634" transform="matrix(0.6935 0.7205 -0.7205 0.6935 91.0732 -127.7881)" fill="#54E8F4" width="0.507" height="1.017"/>
<polygon fill="#54E8F4" points="41.283,42.836 40.556,42.123 40.915,41.758 41.637,42.477 "/>
<polygon fill="#54E8F4" points="194.474,42.588 194.119,42.23 194.84,41.514 195.201,41.877 "/>
<polygon fill="#54E8F4" points="42.353,41.76 41.637,41.037 42.002,40.678 42.712,41.406 "/>
<polygon fill="#54E8F4" points="193.398,41.514 193.04,41.162 193.75,40.434 194.117,40.795 "/>
<rect x="42.761" y="39.899" transform="matrix(0.6933 0.7207 -0.7207 0.6933 42.2092 -18.8663)" fill="#54E8F4" width="1.016" height="0.51"/>
<rect x="192.226" y="39.408" transform="matrix(0.7223 0.6916 -0.6916 0.7223 81.0551 -122.0296)" fill="#54E8F4" width="0.508" height="1.017"/>
<rect x="43.867" y="38.852" transform="matrix(0.6842 0.7293 -0.7293 0.6842 42.5351 -20.0132)" fill="#54E8F4" width="1.018" height="0.51"/>
<rect x="191.116" y="38.359" transform="matrix(0.7336 0.6796 -0.6796 0.7336 77.3905 -119.6931)" fill="#54E8F4" width="0.506" height="1.018"/>
<rect x="44.99" y="37.817" transform="matrix(0.6737 0.739 -0.739 0.6737 42.9806 -21.2003)" fill="#54E8F4" width="1.018" height="0.512"/>
<polygon fill="#54E8F4" points="190.09,38.387 189.715,38.049 190.395,37.291 190.775,37.635 "/>
<polygon fill="#54E8F4" points="46.78,37.605 46.105,36.846 46.49,36.506 47.159,37.273 "/>
<polygon fill="#54E8F4" points="188.958,37.375 188.578,37.041 189.246,36.275 189.632,36.613 "/>
<rect x="47.275" y="35.8" transform="matrix(0.6521 0.7581 -0.7581 0.6521 43.9595 -23.6828)" fill="#54E8F4" width="1.018" height="0.51"/>
<rect x="187.695" y="35.319" transform="matrix(0.7601 0.6498 -0.6498 0.7601 68.375 -113.5389)" fill="#54E8F4" width="0.505" height="1.016"/>
<rect x="48.44" y="34.818" transform="matrix(0.6407 0.7678 -0.7678 0.6407 44.5195 -24.9805)" fill="#54E8F4" width="1.017" height="0.51"/>
<rect x="186.525" y="34.338" transform="matrix(0.7695 0.6387 -0.6387 0.7695 65.3116 -111.2574)" fill="#54E8F4" width="0.508" height="1.017"/>
<polygon fill="#54E8F4" points="50.249,34.658 49.605,33.871 50.003,33.549 50.641,34.342 "/>
<rect x="185.343" y="33.371" transform="matrix(0.7809 0.6247 -0.6247 0.7809 61.8346 -108.5172)" fill="#54E8F4" width="0.506" height="1.018"/>
<polygon fill="#54E8F4" points="51.432,33.711 50.799,32.914 51.202,32.598 51.828,33.4 "/>
<polygon fill="#54E8F4" points="184.285,33.49 183.888,33.178 184.513,32.375 184.916,32.691 "/>
<polygon fill="#54E8F4" points="52.628,32.777 52.007,31.971 52.415,31.662 53.029,32.473 "/>
<polygon fill="#54E8F4" points="183.085,32.557 182.683,32.252 183.296,31.439 183.704,31.75 "/>
<rect x="53.229" y="31.047" transform="matrix(0.5988 0.8009 -0.8009 0.5988 46.6311 -30.4799)" fill="#54E8F4" width="1.017" height="0.51"/>
<rect x="181.714" y="30.577" transform="matrix(0.8051 0.5932 -0.5932 0.8051 53.9137 -101.8831)" fill="#54E8F4" width="0.507" height="1.017"/>
<polygon fill="#54E8F4" points="55.058,30.965 54.461,30.141 54.876,29.842 55.467,30.67 "/>
<rect x="180.479" y="29.68" transform="matrix(0.8139 0.5811 -0.5811 0.8139 51.1821 -99.3965)" fill="#54E8F4" width="0.508" height="1.017"/>
<rect x="55.699" y="29.269" transform="matrix(0.5742 0.8187 -0.8187 0.5742 48.1021 -33.4471)" fill="#54E8F4" width="1.019" height="0.509"/>
<rect x="179.23" y="28.798" transform="matrix(0.8212 0.5706 -0.5706 0.8212 48.8109 -97.176)" fill="#54E8F4" width="0.507" height="1.016"/>
<polygon fill="#54E8F4" points="57.538,29.221 56.963,28.381 57.386,28.094 57.955,28.938 "/>
<rect x="177.97" y="27.937" transform="matrix(0.8291 0.5591 -0.5591 0.8291 46.3683 -94.7899)" fill="#54E8F4" width="0.506" height="1.017"/>
<rect x="58.219" y="27.555" transform="matrix(0.5523 0.8337 -0.8337 0.5523 49.4797 -36.5078)" fill="#54E8F4" width="1.017" height="0.511"/>
<rect x="176.697" y="27.091" transform="matrix(0.8391 0.544 -0.544 0.8391 43.4839 -91.8151)" fill="#54E8F4" width="0.506" height="1.017"/>
<rect x="59.496" y="26.73" transform="matrix(0.5394 0.842 -0.842 0.5394 50.3577 -38.0975)" fill="#54E8F4" width="1.018" height="0.51"/>
<rect x="175.412" y="26.264" transform="matrix(0.8448 0.535 -0.535 0.8448 41.5788 -89.8282)" fill="#54E8F4" width="0.507" height="1.018"/>
<rect x="60.785" y="25.918" transform="matrix(0.5283 0.8491 -0.8491 0.5283 51.1366 -39.6963)" fill="#54E8F4" width="1.017" height="0.51"/>
<rect x="174.114" y="25.457" transform="matrix(0.8527 0.5224 -0.5224 0.8527 39.246 -87.2625)" fill="#54E8F4" width="0.508" height="1.016"/>
<polygon fill="#54E8F4" points="62.638,25.947 62.111,25.078 62.549,24.814 63.069,25.688 "/>
<rect x="172.807" y="24.665" transform="matrix(0.861 0.5085 -0.5085 0.861 36.8505 -84.509)" fill="#54E8F4" width="0.507" height="1.019"/>
<polygon fill="#54E8F4" points="63.94,25.176 63.427,24.297 63.868,24.041 64.376,24.924 "/>
<rect x="171.486" y="23.895" transform="matrix(0.8659 0.5003 -0.5003 0.8659 35.2448 -82.6444)" fill="#54E8F4" width="0.508" height="1.016"/>
<rect x="64.716" y="23.6" transform="matrix(0.4931 0.87 -0.87 0.4931 53.8164 -44.6522)" fill="#54E8F4" width="1.017" height="0.51"/>
<rect x="170.157" y="23.139" transform="matrix(0.8743 0.4853 -0.4853 0.8743 32.8909 -79.7311)" fill="#54E8F4" width="0.507" height="1.019"/>
<rect x="66.047" y="22.864" transform="matrix(0.4803 0.8771 -0.8771 0.4803 54.8674 -46.3617)" fill="#54E8F4" width="1.018" height="0.51"/>
<rect x="168.816" y="22.407" transform="matrix(0.8814 0.4724 -0.4724 0.8814 30.8777 -77.1474)" fill="#54E8F4" width="0.509" height="1.017"/>
<rect x="67.388" y="22.149" transform="matrix(0.4648 0.8854 -0.8854 0.4648 56.1736 -48.1265)" fill="#54E8F4" width="1.017" height="0.507"/>
<rect x="167.464" y="21.693" transform="matrix(0.8878 0.4602 -0.4602 0.8878 29.033 -74.6941)" fill="#54E8F4" width="0.509" height="1.017"/>
<rect x="68.74" y="21.451" transform="matrix(0.4534 0.8913 -0.8913 0.4534 57.201 -49.8582)" fill="#54E8F4" width="1.017" height="0.508"/>
<rect x="166.102" y="20.996" transform="matrix(0.8944 0.4472 -0.4472 0.8944 27.1798 -72.1259)" fill="#54E8F4" width="0.507" height="1.018"/>
<polygon fill="#54E8F4" points="70.605,21.594 70.156,20.682 70.614,20.457 71.058,21.373 "/>
<rect x="164.729" y="20.32" transform="matrix(0.9005 0.4349 -0.4349 0.9005 25.4731 -69.6715)" fill="#54E8F4" width="0.508" height="1.016"/>
<polygon fill="#54E8F4" points="71.968,20.936 71.531,20.018 71.992,19.799 72.423,20.721 "/>
<rect x="163.349" y="19.661" transform="matrix(0.9075 0.42 -0.42 0.9075 23.604 -66.8531)" fill="#54E8F4" width="0.507" height="1.018"/>
<polygon fill="#54E8F4" points="73.339,20.297 72.914,19.373 73.378,19.16 73.796,20.088 "/>
<rect x="161.957" y="19.025" transform="matrix(0.9114 0.4115 -0.4115 0.9114 22.4067 -65.0168)" fill="#54E8F4" width="0.508" height="1.017"/>
<polygon fill="#54E8F4" points="74.719,19.676 74.306,18.746 74.773,18.541 75.18,19.473 "/>
<rect x="160.557" y="18.408" transform="matrix(0.9173 0.3983 -0.3983 0.9173 20.8411 -62.4869)" fill="#54E8F4" width="0.51" height="1.017"/>
<rect x="75.631" y="18.258" transform="matrix(0.388 0.9217 -0.9217 0.388 63.6573 -58.8467)" fill="#54E8F4" width="1.019" height="0.506"/>
<polygon fill="#54E8F4" points="159.442,18.885 158.974,18.691 159.36,17.748 159.834,17.947 "/>
<rect x="77.036" y="17.674" transform="matrix(0.3748 0.9271 -0.9271 0.3748 65.1047 -60.6838)" fill="#54E8F4" width="1.018" height="0.509"/>
<polygon fill="#54E8F4" points="158.032,18.307 157.561,18.119 157.934,17.172 158.412,17.363 "/>
<rect x="78.457" y="17.111" transform="matrix(0.3635 0.9316 -0.9316 0.3635 66.4394 -62.509)" fill="#54E8F4" width="1.017" height="0.511"/>
<rect x="156.303" y="16.675" transform="matrix(0.9339 0.3574 -0.3574 0.9339 16.484 -54.8236)" fill="#54E8F4" width="0.508" height="1.016"/>
<rect x="79.882" y="16.572" transform="matrix(0.3518 0.9361 -0.9361 0.3518 67.8632 -64.3449)" fill="#54E8F4" width="1.016" height="0.509"/>
<rect x="154.868" y="16.137" transform="matrix(0.9389 0.3442 -0.3442 0.9389 15.2079 -52.3762)" fill="#54E8F4" width="0.511" height="1.017"/>
<polygon fill="#54E8F4" points="81.757,16.867 81.411,15.91 81.894,15.738 82.233,16.697 "/>
<rect x="153.427" y="15.62" transform="matrix(0.9438 0.3306 -0.3306 0.9438 13.974 -49.901)" fill="#54E8F4" width="0.508" height="1.017"/>
<rect x="82.757" y="15.547" transform="matrix(0.3226 0.9466 -0.9466 0.3226 71.3646 -68.1098)" fill="#54E8F4" width="1.017" height="0.51"/>
<rect x="151.977" y="15.125" transform="matrix(0.9479 0.3185 -0.3185 0.9479 12.9091 -47.6759)" fill="#54E8F4" width="0.509" height="1.017"/>
<polygon fill="#54E8F4" points="84.629,15.885 84.313,14.916 84.8,14.76 85.109,15.729 "/>
<rect x="150.521" y="14.649" transform="matrix(0.9532 0.3024 -0.3024 0.9532 11.6436 -44.887)" fill="#54E8F4" width="0.51" height="1.016"/>
<polygon fill="#54E8F4" points="86.077,15.424 85.772,14.451 86.261,14.303 86.56,15.273 "/>
<polygon fill="#54E8F4" points="149.408,15.264 148.922,15.117 149.213,14.141 149.705,14.289 "/>
<rect x="87.121" y="14.169" transform="matrix(0.2817 0.9595 -0.9595 0.2817 76.7834 -73.7191)" fill="#54E8F4" width="1.016" height="0.509"/>
<rect x="147.593" y="13.762" transform="matrix(0.9611 0.2762 -0.2762 0.9611 9.6951 -40.2863)" fill="#54E8F4" width="0.509" height="1.018"/>
<polygon fill="#54E8F4" points="88.988,14.563 88.713,13.582 89.207,13.445 89.475,14.428 "/>
<polygon fill="#54E8F4" points="146.489,14.418 146.002,14.285 146.264,13.303 146.758,13.438 "/>
<polygon fill="#54E8F4" points="90.454,14.164 90.192,13.18 90.687,13.051 90.943,14.035 "/>
<rect x="144.649" y="12.963" transform="matrix(0.969 0.2471 -0.2471 0.969 7.8208 -35.384)" fill="#54E8F4" width="0.506" height="1.016"/>
<rect x="91.538" y="12.977" transform="matrix(0.2403 0.9707 -0.9707 0.2403 82.7742 -79.2985)" fill="#54E8F4" width="1.018" height="0.509"/>
<rect x="143.169" y="12.592" transform="matrix(0.9721 0.2344 -0.2344 0.9721 7.0663 -33.2519)" fill="#54E8F4" width="0.508" height="1.018"/>
<polygon fill="#54E8F4" points="93.4,13.43 93.167,12.439 93.667,12.322 93.892,13.314 "/>
<polygon fill="#54E8F4" points="142.072,13.307 141.579,13.195 141.799,12.201 142.298,12.314 "/>
<polygon fill="#54E8F4" points="94.882,13.094 94.661,12.1 95.161,11.99 95.376,12.986 "/>
<polygon fill="#54E8F4" points="140.588,12.977 140.094,12.873 140.303,11.877 140.803,11.982 "/>
<rect x="96.004" y="11.975" transform="matrix(0.199 0.98 -0.98 0.199 89.295 -84.7877)" fill="#54E8F4" width="1.018" height="0.509"/>
<rect x="138.697" y="11.613" transform="matrix(0.9815 0.1917 -0.1917 0.9815 4.9005 -26.411)" fill="#54E8F4" width="0.509" height="1.017"/>
<polygon fill="#54E8F4" points="97.856,12.484 97.666,11.486 98.169,11.391 98.353,12.393 "/>
<rect x="137.199" y="11.328" transform="matrix(0.9841 0.1775 -0.1775 0.9841 4.2847 -24.2134)" fill="#54E8F4" width="0.506" height="1.018"/>
<rect x="99.003" y="11.414" transform="matrix(0.1697 0.9855 -0.9855 0.1697 94.1259 -88.3815)" fill="#54E8F4" width="1.019" height="0.508"/>
<rect x="135.695" y="11.068" transform="matrix(0.9863 0.165 -0.165 0.9863 3.7742 -22.2759)" fill="#54E8F4" width="0.509" height="1.016"/>
<polygon fill="#54E8F4" points="100.848,11.961 100.687,10.955 101.192,10.875 101.347,11.881 "/>
<rect x="134.189" y="10.828" transform="matrix(0.988 0.1544 -0.1544 0.988 3.3617 -20.6188)" fill="#54E8F4" width="0.506" height="1.015"/>
<polygon fill="#54E8F4" points="102.35,11.73 102.201,10.725 102.707,10.65 102.85,11.658 "/>
<polygon fill="#54E8F4" points="133.113,11.654 132.613,11.584 132.75,10.576 133.257,10.646 "/>
<rect x="103.53" y="10.73" transform="matrix(0.1292 0.9916 -0.9916 0.1292 101.485 -93.6011)" fill="#54E8F4" width="1.016" height="0.509"/>
<rect x="131.166" y="10.408" transform="matrix(0.9924 0.1229 -0.1229 0.9924 2.3366 -16.0627)" fill="#54E8F4" width="0.509" height="1.016"/>
<rect x="105.046" y="10.546" transform="matrix(0.1174 0.9931 -0.9931 0.1174 103.8874 -95.2905)" fill="#54E8F4" width="1.015" height="0.509"/>
<polygon fill="#54E8F4" points="130.102,11.273 129.6,11.217 129.707,10.207 130.215,10.262 "/>
<rect x="106.563" y="10.383" transform="matrix(0.1001 0.995 -0.995 0.1001 106.9393 -96.9594)" fill="#54E8F4" width="1.015" height="0.509"/>
<polygon fill="#54E8F4" points="128.59,11.113 128.086,11.066 128.182,10.053 128.691,10.104 "/>
<polygon fill="#54E8F4" points="108.38,11.023 108.291,10.01 108.801,9.967 108.884,10.98 "/>
<polygon fill="#54E8F4" points="127.079,10.977 126.576,10.936 126.652,9.922 127.162,9.963 "/>
<polygon fill="#54E8F4" points="109.895,10.9 109.817,9.885 110.328,9.848 110.399,10.863 "/>
<rect x="125.092" y="9.829" transform="matrix(0.9976 0.0695 -0.0695 0.9976 1.0208 -8.682)" fill="#54E8F4" width="0.506" height="1.016"/>
<rect x="111.124" y="10.02" transform="matrix(0.0586 0.9983 -0.9983 0.0586 115.3529 -101.7682)" fill="#54E8F4" width="1.017" height="0.509"/>
<rect x="123.569" y="9.736" transform="matrix(0.9986 0.0538 -0.0538 0.9986 0.7299 -6.6429)" fill="#54E8F4" width="0.509" height="1.017"/>
<polygon fill="#54E8F4" points="112.926,10.715 112.878,9.701 113.389,9.676 113.431,10.693 "/>
<polygon fill="#54E8F4" points="122.532,10.693 122.027,10.674 122.063,9.656 122.574,9.676 "/>
<polygon fill="#54E8F4" points="114.44,10.656 114.405,9.641 114.915,9.623 114.945,10.641 "/>
<polygon fill="#54E8F4" points="121.014,10.641 120.508,10.627 120.531,9.609 121.043,9.623 "/>
<rect x="115.689" y="9.85" transform="matrix(0.0178 0.9998 -0.9998 0.0178 124.2384 -106.2548)" fill="#54E8F4" width="1.018" height="0.508"/>
<rect x="118.994" y="9.589" transform="matrix(0.9999 0.0115 -0.0115 0.9999 0.1244 -1.3752)" fill="#54E8F4" width="0.508" height="1.018"/>
<polygon fill="#54E8F4" points="117.472,10.6 117.465,9.582 117.977,9.582 117.977,10.598 "/>
<path fill="#0FFFFF" d="M63.92,176.977l-2.592,2.848l3.607,3.284l-1.302,1.43l-3.608-3.282l-3.568,3.922l-1.797-1.637l8.759-9.626
	l6.071,5.525l-1.296,1.424L63.92,176.977z"/>
<path fill="#0FFFFF" d="M64.961,192.163l-1.954-1.443l7.735-10.465l1.954,1.444L64.961,192.163z"/>
<path fill="#0FFFFF" d="M75.582,196.486l-1.021,1.719l-6.553-3.894l6.648-11.188l2.082,1.237l-5.627,9.47L75.582,196.486z"/>
<path fill="#0FFFFF" d="M83.67,190.179l-1.408,3.323l4.194,1.775l-0.727,1.715l-4.193-1.775l-1.435,3.39l5.32,2.253l-0.754,1.781
	l-7.558-3.199l5.074-11.983l7.559,3.199l-0.751,1.773L83.67,190.179z"/>
<path fill="#0FFFFF" d="M99.464,193.162c0.835,0.169,1.533,0.392,2.096,0.671c0.562,0.279,1.002,0.604,1.322,0.975
	c0.32,0.37,0.526,0.783,0.618,1.235c0.092,0.453,0.085,0.942-0.021,1.465c-0.061,0.301-0.163,0.579-0.306,0.834
	c-0.144,0.256-0.333,0.484-0.566,0.685s-0.512,0.369-0.836,0.506c-0.325,0.136-0.698,0.231-1.119,0.287
	c1.672,0.75,2.357,1.873,2.054,3.373c-0.11,0.541-0.313,1.02-0.612,1.437s-0.678,0.752-1.14,1.005
	c-0.461,0.253-0.999,0.414-1.614,0.486c-0.614,0.072-1.292,0.032-2.033-0.117l-4.816-0.974l2.579-12.756L99.464,193.162z
	 M97.639,204.142c0.441,0.089,0.823,0.111,1.144,0.066s0.589-0.139,0.805-0.278c0.215-0.141,0.386-0.32,0.513-0.539
	c0.127-0.219,0.217-0.461,0.271-0.726c0.056-0.277,0.062-0.535,0.019-0.772c-0.044-0.238-0.144-0.454-0.301-0.648
	c-0.156-0.194-0.375-0.362-0.655-0.505c-0.28-0.142-0.629-0.255-1.047-0.34l-2.39-0.483l-0.756,3.74L97.639,204.142z
	 M97.074,194.588l-0.746,3.687l1.888,0.383c0.812,0.164,1.454,0.141,1.928-0.069s0.776-0.636,0.906-1.276
	c0.134-0.665,0.042-1.177-0.278-1.534c-0.319-0.359-0.878-0.619-1.679-0.781L97.074,194.588z"/>
<path fill="#0FFFFF" d="M115.357,207.991l-2.182-0.148c-0.413-0.027-0.702-0.21-0.866-0.545l-2.448-4.343
	c-0.091-0.162-0.196-0.28-0.314-0.354c-0.119-0.074-0.297-0.119-0.537-0.136l-1.033-0.07l-0.343,5.073l-2.416-0.163l0.878-12.983
	l3.96,0.268c0.88,0.06,1.629,0.202,2.249,0.428c0.619,0.224,1.12,0.516,1.502,0.872c0.382,0.356,0.653,0.771,0.813,1.241
	c0.16,0.471,0.222,0.981,0.185,1.532c-0.029,0.438-0.122,0.847-0.277,1.227c-0.155,0.38-0.365,0.721-0.628,1.021
	c-0.264,0.302-0.582,0.559-0.954,0.773c-0.373,0.217-0.791,0.378-1.255,0.484c0.149,0.102,0.286,0.217,0.409,0.348
	c0.124,0.132,0.233,0.285,0.33,0.461L115.357,207.991z M109.604,200.764c0.455,0.031,0.855,0.001,1.201-0.09
	c0.346-0.091,0.635-0.229,0.867-0.416c0.231-0.185,0.411-0.41,0.538-0.68c0.126-0.268,0.201-0.567,0.223-0.896
	c0.044-0.658-0.139-1.179-0.548-1.562c-0.411-0.383-1.062-0.604-1.953-0.665l-1.545-0.104l-0.292,4.311L109.604,200.764z"/>
<path fill="#0FFFFF" d="M129.621,200.777c0.056,0.953-0.05,1.844-0.317,2.673c-0.267,0.832-0.671,1.56-1.211,2.186
	c-0.54,0.627-1.205,1.131-1.995,1.509c-0.789,0.381-1.678,0.6-2.666,0.657c-0.982,0.057-1.887-0.057-2.715-0.342
	c-0.828-0.286-1.549-0.708-2.162-1.268c-0.612-0.559-1.101-1.234-1.465-2.028c-0.365-0.792-0.575-1.665-0.63-2.618
	c-0.056-0.952,0.051-1.843,0.322-2.673c0.27-0.831,0.676-1.559,1.22-2.186s1.21-1.131,2-1.51c0.788-0.38,1.674-0.599,2.656-0.656
	c0.659-0.038,1.283,0.002,1.873,0.12c0.59,0.119,1.137,0.305,1.638,0.555s0.957,0.563,1.366,0.938
	c0.41,0.376,0.764,0.802,1.063,1.277c0.298,0.476,0.534,0.996,0.709,1.563C129.479,199.541,129.584,200.143,129.621,200.777z
	 M127.15,200.922c-0.041-0.713-0.176-1.347-0.399-1.9c-0.226-0.557-0.526-1.02-0.901-1.395c-0.377-0.375-0.824-0.653-1.344-0.833
	c-0.518-0.179-1.094-0.251-1.729-0.214c-0.636,0.037-1.2,0.175-1.693,0.413c-0.494,0.24-0.908,0.567-1.241,0.983
	c-0.333,0.417-0.579,0.913-0.737,1.49c-0.159,0.577-0.218,1.223-0.176,1.936c0.041,0.713,0.174,1.347,0.398,1.9
	c0.226,0.556,0.527,1.019,0.906,1.39c0.379,0.372,0.828,0.647,1.348,0.827c0.518,0.182,1.095,0.252,1.73,0.216
	c0.635-0.038,1.198-0.176,1.692-0.414c0.493-0.24,0.905-0.565,1.236-0.979c0.331-0.412,0.575-0.908,0.733-1.484
	C127.133,202.279,127.192,201.636,127.15,200.922z"/>
<path fill="#0FFFFF" d="M147.092,190.188l-0.838,13.602l-2.124,0.518l-4.873-7.963c-0.127-0.191-0.26-0.43-0.397-0.717
	c0,0.154-0.001,0.3-0.004,0.437c-0.004,0.136-0.014,0.265-0.027,0.386l-0.678,9.319l-2.135,0.521l-7.004-11.686l1.967-0.48
	c0.205-0.05,0.387-0.043,0.547,0.02s0.283,0.17,0.37,0.322l3.999,7.037c0.092,0.176,0.186,0.367,0.283,0.574
	c0.097,0.207,0.198,0.426,0.303,0.652c-0.013-0.256-0.018-0.498-0.016-0.727c0.004-0.229,0.014-0.445,0.033-0.647l0.635-8.169
	c0.014-0.146,0.076-0.291,0.186-0.436c0.11-0.144,0.264-0.24,0.463-0.288l0.69-0.169c0.204-0.049,0.382-0.04,0.534,0.027
	s0.28,0.172,0.383,0.313l4.321,6.959c0.211,0.332,0.423,0.721,0.638,1.169c-0.037-0.479-0.055-0.916-0.053-1.313l0.305-8.087
	c-0.002-0.155,0.057-0.303,0.174-0.441c0.117-0.14,0.275-0.234,0.474-0.283L147.092,190.188z"/>
<path fill="#0FFFFF" d="M154.84,188.893c-0.016,0.145-0.049,0.26-0.1,0.345c-0.052,0.085-0.133,0.15-0.242,0.198
	c-0.115,0.051-0.259,0.063-0.431,0.037c-0.173-0.025-0.374-0.05-0.606-0.072c-0.233-0.022-0.493-0.021-0.781,0.004
	c-0.287,0.024-0.602,0.111-0.941,0.262c-0.308,0.134-0.561,0.29-0.758,0.466c-0.199,0.176-0.348,0.362-0.445,0.563
	c-0.1,0.201-0.146,0.41-0.143,0.629c0.004,0.217,0.055,0.436,0.15,0.655c0.123,0.28,0.305,0.479,0.543,0.598
	s0.516,0.187,0.832,0.205s0.662,0.007,1.037-0.033c0.375-0.041,0.762-0.078,1.16-0.112c0.398-0.033,0.795-0.045,1.195-0.033
	c0.397,0.013,0.777,0.081,1.142,0.206c0.362,0.126,0.698,0.326,1.007,0.604c0.309,0.277,0.572,0.663,0.789,1.157
	c0.236,0.538,0.366,1.083,0.389,1.633c0.021,0.552-0.068,1.078-0.269,1.583c-0.201,0.505-0.513,0.97-0.936,1.395
	s-0.964,0.781-1.624,1.072c-0.378,0.166-0.768,0.292-1.168,0.38c-0.401,0.088-0.801,0.137-1.199,0.148
	c-0.397,0.011-0.787-0.015-1.169-0.077c-0.381-0.062-0.739-0.16-1.073-0.295l0.185-1.349c0.021-0.101,0.063-0.196,0.129-0.288
	c0.064-0.09,0.146-0.157,0.245-0.201c0.138-0.061,0.311-0.069,0.52-0.026c0.209,0.042,0.453,0.084,0.733,0.125
	s0.592,0.054,0.936,0.037c0.343-0.017,0.72-0.115,1.132-0.297c0.633-0.277,1.056-0.642,1.27-1.094
	c0.215-0.451,0.199-0.956-0.047-1.517c-0.138-0.313-0.328-0.534-0.571-0.663c-0.243-0.13-0.524-0.204-0.841-0.226
	c-0.317-0.021-0.662-0.006-1.032,0.045c-0.37,0.052-0.75,0.098-1.14,0.137c-0.389,0.04-0.781,0.057-1.178,0.046
	c-0.398-0.009-0.779-0.079-1.146-0.213c-0.367-0.135-0.71-0.353-1.029-0.654s-0.6-0.726-0.838-1.269
	c-0.19-0.435-0.29-0.896-0.298-1.384c-0.009-0.487,0.083-0.964,0.272-1.427c0.19-0.463,0.484-0.898,0.883-1.302
	c0.398-0.405,0.912-0.745,1.538-1.02c0.703-0.309,1.399-0.483,2.089-0.524c0.691-0.041,1.331,0.045,1.922,0.257L154.84,188.893z"/>
<path fill="#0FFFFF" d="M159.049,186.068l1.855,3.097l3.906-2.341l0.957,1.599l-3.906,2.34l1.892,3.157l4.956-2.968l0.994,1.659
	l-7.041,4.219l-6.688-11.165l7.041-4.219l0.99,1.653L159.049,186.068z"/>
<path fill="#0FFFFF" d="M180.301,184.449l-1.713,1.359c-0.324,0.258-0.66,0.317-1.007,0.18l-4.733-1.563
	c-0.178-0.059-0.335-0.076-0.472-0.051c-0.138,0.024-0.3,0.112-0.488,0.261l-0.811,0.644l3.161,3.982l-1.896,1.506l-8.091-10.193
	l3.108-2.468c0.691-0.549,1.342-0.947,1.951-1.198c0.609-0.249,1.176-0.372,1.697-0.364c0.523,0.006,1.002,0.13,1.438,0.37
	s0.826,0.576,1.168,1.009c0.273,0.343,0.48,0.707,0.621,1.093c0.142,0.386,0.216,0.779,0.224,1.18
	c0.007,0.399-0.054,0.805-0.185,1.215c-0.131,0.408-0.332,0.811-0.603,1.202c0.178-0.026,0.356-0.033,0.536-0.019
	c0.181,0.015,0.365,0.054,0.555,0.117L180.301,184.449z M171.182,182.978c0.356-0.283,0.633-0.574,0.827-0.875
	c0.194-0.3,0.315-0.598,0.362-0.89c0.047-0.294,0.026-0.583-0.061-0.866c-0.088-0.282-0.233-0.554-0.438-0.813
	c-0.41-0.518-0.896-0.778-1.457-0.785s-1.19,0.267-1.892,0.823l-1.213,0.962l2.687,3.384L171.182,182.978z"/>
<path fill="#0782C1" d="M107.001,38.283c0.092-5.212,4.403-9.379,9.615-9.287c5.218,0.089,9.382,4.403,9.292,9.618
	c-0.091,5.212-4.406,9.38-9.618,9.288C111.08,47.813,106.909,43.498,107.001,38.283 M109.16,38.321
	c-0.068,4.022,3.145,7.351,7.169,7.423c4.019,0.069,7.35-3.144,7.417-7.168c0.071-4.023-3.144-7.348-7.164-7.42
	C112.559,31.086,109.229,34.301,109.16,38.321"/>
<polygon fill="#0782C1" points="139.369,41.639 141.068,39.059 139.463,36.422 137.77,38.999 "/>
<polygon fill="#0782C1" points="142.84,41.701 144.538,39.115 142.933,36.479 141.238,39.063 "/>
<polygon fill="#0782C1" points="135.9,41.579 137.599,38.995 135.992,36.358 134.299,38.939 "/>
<polygon fill="#0782C1" points="132.429,41.52 134.129,38.936 132.523,36.299 130.83,38.88 "/>
<polygon fill="#0782C1" points="96.912,40.899 98.605,38.319 97,35.683 95.305,38.263 "/>
<polygon fill="#0782C1" points="100.38,40.959 102.076,38.379 100.469,35.742 98.775,38.323 "/>
<polygon fill="#0782C1" points="93.44,40.837 95.135,38.259 93.53,35.622 91.836,38.2 "/>
<polygon fill="#0782C1" points="89.972,40.78 91.666,38.196 90.059,35.56 88.366,38.144 "/>
<polygon fill="#0782C1" points="131.89,45.839 132.832,45.305 129.146,38.856 133.052,32.623 132.135,32.05 127.887,38.827 "/>
<polygon fill="#0782C1" points="100.44,45.29 104.683,38.421 100.675,31.498 99.741,32.042 103.424,38.405 99.516,44.723 "/>
<g>
	<path fill="#0FFFFF" d="M49.604,121.743c-1.022-0.653-2.467-0.329-3.117,0.686c-0.325,0.506-0.433,1.108-0.304,1.697
		c0.129,0.591,0.481,1.096,0.991,1.422c0.364,0.231,0.783,0.354,1.213,0.354c0.777,0,1.489-0.391,1.905-1.045
		C50.961,123.811,50.652,122.413,49.604,121.743z M49.449,124.32c-0.359,0.565-1.168,0.747-1.737,0.385
		c-0.284-0.182-0.48-0.463-0.552-0.793c-0.072-0.327-0.012-0.662,0.169-0.943c0.233-0.365,0.629-0.582,1.06-0.582
		c0.238,0,0.472,0.068,0.676,0.198C49.649,122.959,49.822,123.736,49.449,124.32z"/>
	<path fill="#0FFFFF" d="M73.581,123.117l-0.041-1l-21.388,0.874c-0.178-1.025-0.756-1.977-1.699-2.579
		c-0.619-0.395-1.333-0.604-2.063-0.604c-1.317,0-2.526,0.662-3.234,1.771c-0.351,0.549-0.534,1.166-0.577,1.798l-6.262,0.262
		l-0.05-1.221l-0.999,0.041l0.147,3.623l0.999-0.041l-0.057-1.402l6.275-0.263c0.006,0.031,0.004,0.062,0.011,0.092
		c0.221,1,0.818,1.854,1.682,2.405c0.618,0.396,1.332,0.604,2.063,0.604c1.316,0,2.525-0.661,3.233-1.77
		c0.341-0.535,0.515-1.125,0.567-1.717L73.581,123.117z M50.779,125.171c-0.523,0.819-1.417,1.308-2.39,1.308
		c-0.54,0-1.067-0.154-1.524-0.447c-0.639-0.407-1.081-1.039-1.244-1.778c-0.163-0.738-0.029-1.496,0.379-2.134
		c0.524-0.82,1.418-1.311,2.392-1.311c0.539,0,1.066,0.154,1.524,0.447C51.23,122.095,51.618,123.853,50.779,125.171z"/>
	
		<rect x="34.588" y="123.808" transform="matrix(-0.0407 -0.9992 0.9992 -0.0407 -86.3236 165.7336)" fill="#0FFFFF" width="3.626" height="1"/>
</g>
<polyline fill="none" stroke="#0782C1" stroke-miterlimit="10" points="164.281,141.162 187.535,142.271 172.408,130.717 
	170.383,131.124 180.855,139.33 "/>
<path fill="#0FFFFF" d="M87.736,101.98c0.745-2.087,2.683-3.577,4.919-3.577h64.03c0.507,0,0.907-0.459,0.836-0.962
	c-1.399-9.748-6.608-13.943-16.571-13.943h-15.203c-1.938,0-3.13-1.044-3.13-1.64c0-6.708-6.112-12.074-13.565-12.074H86.692
	c-7.453,0-13.564,5.366-13.564,12.074v59.314c0,0.952,1.335,1.167,1.632,0.263L87.736,101.98z"/>
<path fill="#0FFFFF" d="M92.662,107.179l-13.5,40.767c-0.866,2.616,1.081,5.312,3.836,5.312h63.396c2.378,0,4.599-1.585,5.233-3.965
	l12.463-39.631c0.819-2.604-1.127-5.252-3.855-5.252H96.5C94.757,104.409,93.211,105.524,92.662,107.179"/>
<path fill="#0782C1" d="M156.685,98.403c0.507,0,0.907-0.459,0.836-0.962c-0.194-1.352-0.47-2.586-0.813-3.728
	c-4.074,1.448-8.087,3.009-12.028,4.69H156.685z"/>
<path fill="#0782C1" d="M172.056,104.409h-40.214c-18.55,9.458-35.303,21.541-49.678,35.704l-2.971,7.832
	c-0.992,2.616,1.238,5.312,4.394,5.312h72.615c2.725,0,5.267-1.585,5.994-3.965l14.276-39.631
	C177.41,107.057,175.182,104.409,172.056,104.409z"/>
</svg>
