<?xml version="1.0" encoding="utf-8"?>
<!-- Generator: Adobe Illustrator 16.0.0, SVG Export Plug-In . SVG Version: 6.00 Build 0)  -->
<!DOCTYPE svg PUBLIC "-//W3C//DTD SVG 1.1//EN" "http://www.w3.org/Graphics/SVG/1.1/DTD/svg11.dtd">
<svg version="1.1" id="레이어_1" xmlns="http://www.w3.org/2000/svg" xmlns:xlink="http://www.w3.org/1999/xlink" x="0px"
	 y="0px" width="231px" height="133px" viewBox="0 0 231 133" enable-background="new 0 0 231 133" xml:space="preserve">
<path fill="#4582B9" d="M148.711,14.196h-28.928h-12.366c-2.103,0-3.877-1.559-4.149-3.644l-0.663-5.078
	c-0.356-2.74-2.691-4.791-5.456-4.791H49.388c-3.169,0-5.832,2.383-6.185,5.532l-0.812,7.264c-0.046,0.407-0.39,0.717-0.801,0.717
	c-4.453,0-7.986,3.747-7.727,8.191l4.706,80.321c0.24,4.092,3.627,7.287,7.726,7.287h73.488h28.928h36.121
	c4.099,0,7.486-3.195,7.726-7.287l4.705-80.321c0.261-4.445-3.274-8.191-7.726-8.191H148.711z"/>
<path fill="#3E76A7" d="M145.542,15.621h-27.774h-11.871c-2.019,0-3.723-1.952-3.984-3.954l-0.745-5.21
	c-0.343-2.63-2.584-4.6-5.238-4.6H50.074c-3.043,0-5.508,1.717-5.847,4.742l-0.762,7.879c-0.044,0.392-0.375,0.688-0.77,0.688
	l-0.572,0.101c-4.274,0-7.752,2.872-7.417,7.865l5.089,77.014c0.231,3.929,3.483,6.997,7.417,6.997h70.555h27.774h34.678
	c3.936,0,8.467-3.334,8.697-7.262l6.985-76.519c0.25-4.265-2.513-7.742-6.787-7.742H145.542z"/>
<path fill="#71B2CD" d="M197.15,20.031c-0.462-1.939-1.702-3.684-3.391-4.769c-0.843-0.545-1.789-0.929-2.777-1.119
	c-0.998-0.208-2.001-0.146-2.973-0.168l-23.57-0.137c-15.714-0.11-31.428-0.084-47.144-0.127l-5.892-0.01l-2.946-0.005l-0.737-0.001
	l-0.345-0.003c-0.119-0.008-0.253-0.009-0.361-0.021c-0.387-0.041-0.84-0.162-1.219-0.351c-0.778-0.378-1.417-1.04-1.761-1.835
	c-0.181-0.411-0.258-0.792-0.317-1.29l-0.193-1.46l-0.386-2.921c-0.057-0.482-0.144-1-0.317-1.532
	c-0.171-0.506-0.415-0.986-0.708-1.433c-0.601-0.884-1.436-1.603-2.401-2.061c-0.481-0.23-0.997-0.383-1.521-0.484
	c-0.522-0.094-1.079-0.094-1.551-0.09l-5.892,0.01L78.965,0.245L55.393,0.34l-5.892,0.031c-2.059-0.035-4.11,0.979-5.321,2.644
	c-0.606,0.827-1.029,1.793-1.184,2.807c-0.141,1.002-0.219,1.959-0.329,2.943l-0.3,2.93l-0.15,1.467l-0.04,0.356
	c-0.014,0.074-0.055,0.17-0.108,0.24c-0.112,0.149-0.292,0.242-0.48,0.244c-0.438,0.028-0.876,0.038-1.306,0.129
	c-0.435,0.059-0.854,0.196-1.269,0.329l-0.61,0.24L37.821,15c-0.375,0.221-0.75,0.447-1.082,0.731
	c-0.349,0.261-0.652,0.576-0.952,0.892c-0.291,0.326-0.554,0.669-0.787,1.037c-0.224,0.371-0.447,0.747-0.602,1.153
	c-0.184,0.394-0.297,0.814-0.412,1.23c-0.092,0.424-0.167,0.851-0.189,1.283c-0.037,0.43-0.012,0.868,0.008,1.293l0.173,2.561
	l0.35,5.122l-0.253-5.127l-0.126-2.563c-0.011-0.427-0.027-0.85,0.017-1.271c0.029-0.423,0.111-0.838,0.208-1.249
	c0.121-0.404,0.238-0.811,0.424-1.191c0.158-0.391,0.381-0.752,0.604-1.107c0.233-0.354,0.495-0.682,0.781-0.991
	c0.294-0.298,0.593-0.597,0.934-0.841c0.324-0.268,0.691-0.478,1.054-0.684l0.564-0.277l0.588-0.218
	c0.4-0.119,0.802-0.245,1.217-0.291c0.413-0.081,0.831-0.081,1.248-0.1c0.306,0.004,0.609-0.143,0.797-0.386
	c0.094-0.125,0.16-0.255,0.194-0.422l0.049-0.375l0.177-1.462l0.355-2.924c0.124-0.968,0.215-1.968,0.358-2.91
	c0.151-0.93,0.55-1.809,1.111-2.558c1.128-1.51,2.986-2.406,4.87-2.355l5.892,0.031l23.572,0.096L90.75,1.145l5.892,0.01
	c1.886-0.135,3.666,0.716,4.674,2.232c0.243,0.377,0.447,0.778,0.59,1.204c0.129,0.402,0.216,0.855,0.27,1.349l0.375,2.923
	l0.188,1.461c0.052,0.476,0.163,1.069,0.387,1.56c0.434,1.011,1.239,1.854,2.229,2.338c0.502,0.242,1.01,0.396,1.599,0.454
	c0.138,0.015,0.25,0.014,0.376,0.021l0.391,0.003l0.737-0.001l2.946-0.005l5.892-0.011c15.716-0.043,31.43-0.017,47.144-0.126
	l23.57-0.139c0.987,0.003,1.968-0.074,2.902,0.106c0.942,0.166,1.855,0.513,2.671,1.02c1.637,1.008,2.868,2.667,3.354,4.543
	c0.266,0.932,0.271,1.918,0.208,2.895L197,25.923l-0.288,5.887l0.398-5.88l0.2-2.939C197.392,22.013,197.405,21.006,197.15,20.031z"
	/>
<path fill="#3869A9" d="M152.324,26.234h-32.082H32.576c-4.422,0-7.933,3.722-7.674,8.138l5.323,90.867
	c0.238,4.064,3.604,7.239,7.676,7.239h82.342h32.082h40.903c4.07,0,7.436-3.175,7.675-7.239l5.322-90.867
	c0.259-4.416-3.251-8.138-7.675-8.138H152.324z"/>
<path fill="#37629D" d="M198.55,26.375c4.424,0,7.934,3.723,7.675,8.138l-5.322,90.867c-0.239,4.065-3.604,7.237-7.674,7.237
	h-40.904h-32.082H37.9c-4.072,0-7.438-3.172-7.676-7.237L198.55,26.375z"/>
<g>
	<path fill="none" d="M45.964,26.427c-3.485,0.006-7.029,0.014-10.626,0.02c-1.795,0.049-3.656-0.187-5.308,0.465
		c-1.672,0.591-3.112,1.836-3.972,3.411c-0.433,0.786-0.724,1.651-0.854,2.545c-0.144,0.891-0.03,1.808,0.015,2.752
		c0.113,1.874,0.227,3.759,0.342,5.655c0.228,3.794,0.461,7.633,0.695,11.516c0.469,7.763,0.948,15.695,1.435,23.76
		c0.487,8.067,0.983,16.267,1.483,24.568c0.251,4.15,0.504,8.326,0.757,12.523c0.127,2.099,0.254,4.203,0.381,6.31l0.191,3.167
		c0.083,1.06,0.077,2.121,0.27,3.118c0.388,1.946,1.638,3.754,3.378,4.771c0.863,0.517,1.833,0.853,2.832,0.977
		c0.975,0.108,2.089,0.044,3.145,0.06c4.272-0.008,8.557-0.016,12.85-0.023c8.586-0.017,17.205-0.032,25.824-0.047
		c34.477,0.062,68.954,0.124,101.277,0.182c4.039,0.007,8.047,0.014,12.018,0.021c0.992,0.008,1.973,0.023,2.88-0.212
		c0.922-0.221,1.799-0.623,2.566-1.175c1.542-1.097,2.628-2.8,2.964-4.645c0.159-0.909,0.166-1.903,0.238-2.863
		c0.058-0.966,0.115-1.926,0.175-2.887c0.115-1.919,0.23-3.828,0.346-5.724c0.229-3.795,0.455-7.541,0.679-11.239
		c0.895-14.786,1.738-28.767,2.519-41.673c0.39-6.453,0.763-12.637,1.118-18.518c0.177-2.941,0.35-5.805,0.52-8.592
		c0.125-1.392-0.129-2.745-0.691-3.965c-0.568-1.211-1.46-2.239-2.513-2.992c-1.07-0.734-2.301-1.194-3.55-1.332
		c-1.25-0.085-2.514-0.028-3.736-0.048c-2.453-0.006-4.819-0.01-7.091-0.014c-4.545-0.008-8.721-0.016-12.491-0.022
		c-15.084-0.028-23.704-0.044-23.704-0.044s-34.478,0.063-86.193,0.157C59.667,26.402,52.933,26.415,45.964,26.427z"/>
	<path fill="#27517B" d="M205.59,30.6c-0.586-1.242-1.506-2.292-2.588-3.058c-1.098-0.75-2.36-1.215-3.638-1.351
		c-1.286-0.084-2.522-0.02-3.754-0.036c-2.453,0.005-4.819,0.009-7.091,0.013c-4.545,0.008-8.721,0.016-12.491,0.023
		c-15.084,0.026-23.704,0.043-23.704,0.043s8.62,0.016,23.704,0.044c3.771,0.007,7.946,0.015,12.491,0.022
		c2.271,0.004,4.638,0.008,7.091,0.014c1.223,0.02,2.486-0.038,3.736,0.048c1.249,0.138,2.479,0.597,3.55,1.332
		c1.053,0.753,1.944,1.781,2.513,2.992c0.563,1.22,0.816,2.573,0.691,3.965c-0.17,2.787-0.343,5.651-0.52,8.592
		c-0.355,5.881-0.729,12.065-1.118,18.518c-0.78,12.907-1.624,26.887-2.519,41.673c-0.224,3.698-0.449,7.444-0.679,11.239
		c-0.115,1.896-0.23,3.805-0.346,5.724c-0.06,0.961-0.117,1.921-0.175,2.887c-0.072,0.96-0.079,1.954-0.238,2.863
		c-0.336,1.845-1.422,3.548-2.964,4.645c-0.768,0.552-1.645,0.954-2.566,1.175c-0.907,0.235-1.888,0.22-2.88,0.212
		c-3.971-0.008-7.979-0.015-12.018-0.021c-32.323-0.058-66.8-0.12-101.277-0.182c-8.62,0.015-17.238,0.03-25.824,0.047
		c-4.293,0.008-8.577,0.016-12.85,0.023c-1.056-0.016-2.17,0.049-3.145-0.06c-0.999-0.124-1.969-0.46-2.832-0.977
		c-1.74-1.018-2.99-2.825-3.378-4.771c-0.193-0.997-0.187-2.059-0.27-3.118l-0.191-3.167c-0.127-2.106-0.254-4.211-0.381-6.31
		c-0.253-4.197-0.506-8.373-0.757-12.523c-0.5-8.302-0.996-16.501-1.483-24.568c-0.487-8.064-0.966-15.997-1.435-23.76
		c-0.234-3.883-0.467-7.722-0.695-11.516c-0.115-1.896-0.229-3.782-0.342-5.655c-0.045-0.944-0.159-1.861-0.015-2.752
		c0.13-0.894,0.421-1.759,0.854-2.545c0.86-1.574,2.3-2.82,3.972-3.411c1.652-0.652,3.513-0.416,5.308-0.465
		c3.598-0.006,7.142-0.014,10.626-0.02c6.969-0.012,13.703-0.024,20.167-0.036c51.715-0.094,86.193-0.157,86.193-0.157
		s-34.478-0.063-86.193-0.157c-6.464-0.011-13.198-0.024-20.167-0.037c-3.485-0.006-7.029-0.013-10.626-0.019
		c-0.901-0.002-1.803-0.005-2.71-0.006c-0.912,0.005-1.872,0.158-2.75,0.477c-1.775,0.622-3.307,1.935-4.228,3.604
		c-0.463,0.833-0.777,1.754-0.917,2.704c-0.156,0.959-0.039,1.923,0.001,2.848c0.105,1.874,0.213,3.759,0.321,5.656
		c0.215,3.794,0.433,7.635,0.654,11.517c0.439,7.766,0.89,15.699,1.348,23.767c0.458,8.067,0.923,16.27,1.395,24.572
		c0.236,4.151,0.473,8.329,0.711,12.526c0.119,2.099,0.239,4.203,0.359,6.312l0.179,3.167c0.079,1.048,0.065,2.118,0.269,3.209
		c0.431,2.216,1.812,4.2,3.749,5.353c0.96,0.582,2.043,0.961,3.159,1.104c1.146,0.126,2.174,0.055,3.251,0.078
		c4.272,0.007,8.557,0.015,12.85,0.022c8.586,0.016,17.205,0.031,25.824,0.046c34.477-0.061,68.954-0.123,101.277-0.182
		c4.039-0.007,8.047-0.014,12.018-0.021c0.983,0,2.005,0.021,3.019-0.24c0.994-0.242,1.938-0.682,2.763-1.278
		c1.658-1.189,2.818-3.025,3.171-5.01c0.172-1.009,0.167-1.964,0.237-2.932c0.056-0.966,0.109-1.928,0.163-2.888
		c0.109-1.919,0.218-3.829,0.325-5.725c0.216-3.796,0.428-7.544,0.638-11.24c0.839-14.791,1.633-28.775,2.366-41.684
		c0.365-6.454,0.717-12.64,1.049-18.522c0.168-2.942,0.332-5.806,0.489-8.592C206.438,33.27,206.174,31.833,205.59,30.6z"/>
</g>
<path fill="#71B2CD" d="M206.203,33.153c-0.012-0.268-0.061-0.574-0.135-0.917c-0.271-1.339-1.133-3.431-3.386-4.886
	c-1.097-0.732-2.542-1.209-4.143-1.245c-1.574-0.016-3.276-0.033-5.095-0.052c-3.639-0.031-7.742-0.065-12.219-0.103
	c-8.956-0.044-19.401-0.096-30.593-0.152c-11.193-0.022-23.132-0.044-35.07-0.068c-11.939,0.023-23.877,0.045-35.07,0.067
	C69.301,25.854,58.855,25.905,49.9,25.95c-4.476,0.037-8.581,0.072-12.218,0.103c-1.818,0.019-3.521,0.036-5.096,0.052
	c-1.593,0.035-3.05,0.514-4.143,1.246c-2.252,1.454-3.115,3.547-3.384,4.886c-0.076,0.343-0.123,0.649-0.136,0.916
	c-0.029,0.266-0.042,0.491-0.031,0.672c0.006,0.362,0.009,0.548,0.009,0.548s0.001-0.186,0.002-0.548
	c-0.007-0.181,0.011-0.404,0.045-0.669c0.018-0.267,0.072-0.57,0.153-0.91c0.293-1.326,1.197-3.375,3.431-4.753
	c1.094-0.695,2.495-1.125,4.053-1.129c1.574,0.017,3.277,0.035,5.096,0.052c3.638,0.03,7.742,0.065,12.218,0.102
	c8.955,0.045,19.401,0.098,30.593,0.152c11.193,0.021,23.131,0.045,35.07,0.067c11.938-0.023,23.877-0.045,35.07-0.067
	c11.191-0.056,21.637-0.108,30.593-0.153c4.477-0.037,8.58-0.072,12.219-0.102c1.818-0.018,3.521-0.035,5.095-0.052
	c1.55,0.003,2.965,0.435,4.053,1.13c2.235,1.377,3.138,3.427,3.432,4.753c0.083,0.34,0.136,0.643,0.153,0.91
	c0.034,0.264,0.052,0.488,0.045,0.669c0.001,0.362,0.002,0.548,0.002,0.548s0.003-0.186,0.01-0.548
	C206.245,33.643,206.232,33.418,206.203,33.153z"/>
<path fill="#37629D" d="M30.225,125.238"/>
<path fill="#37629D" d="M30.225,125.238"/>
</svg>
