<?xml version="1.0" encoding="utf-8"?>
<!-- Generator: Adobe Illustrator 16.0.0, SVG Export Plug-In . SVG Version: 6.00 Build 0)  -->
<!DOCTYPE svg PUBLIC "-//W3C//DTD SVG 1.1//EN" "http://www.w3.org/Graphics/SVG/1.1/DTD/svg11.dtd">
<svg version="1.1" id="레이어_1" xmlns="http://www.w3.org/2000/svg" xmlns:xlink="http://www.w3.org/1999/xlink" x="0px"
	 y="0px" width="200px" height="200px" viewBox="0 0 200 200" enable-background="new 0 0 200 200" xml:space="preserve">
<g>
	<path fill="#FFFFFF" d="M160.251,84.959c-5.063,0-9.849,2.716-11.964,7.396c-0.778,1.72-0.396,3.753-0.379,5.561
		c0.006,1.09-0.244,2.421-1.449,2.731c-1.416,0.363-2.529-0.678-2.529-2.088c0-0.816,0-20.362,0-36.266
		c0.541,0,1.088-0.158,1.564-0.501c6.237-4.607,9.958-11.983,9.958-19.734c0-13.501-10.958-24.488-24.418-24.488
		c-1.671,0-3.331,0.172-4.963,0.511C122.7,8.332,113.345,1.5,102.869,1.5c-10.872,0-20.446,7.348-23.516,17.553
		c-2.671-0.972-5.51-1.483-8.364-1.483c-13.466,0-24.419,10.987-24.419,24.488c0,10.186,6.395,19.416,15.922,22.956
		c0.297,0.118,0.609,0.167,0.912,0.167h0.004c0,27.435,0,69.962,0,70.381c0,1.468-0.836,1.094-1.684,0.354
		c-0.737-0.649-1.486-1.577-1.699-1.818c-1.726-1.919-3.444-3.851-5.192-5.756c-3.045-3.334-5.795-7.075-9.211-10.049
		c-5.661-4.926-15.074-1.864-17.74,5.025c-1.308,3.373-0.47,7.249,1.002,10.421c0.798,1.709,1.869,3.213,2.898,4.779
		c1.897,2.903,45.699,52.351,45.699,52.351s5.461,7.632,18.236,7.632c12.77,0,43.184,0,43.209,0c3.614,0,7.043-0.265,10.601-1.149
		c7.006-1.734,15.264-5.181,18.474-12.013c4.663-9.926,4.736-21.998,4.736-32.637c0-3.35,0-6.703,0-10.053
		c0-9.542-0.039-19.085,0.021-28.629c0.038-6.173-0.021-12.344-0.021-18.516C172.736,87.685,164.831,84.959,160.251,84.959z
		 M132.277,31.509c0,0-11.513-0.104-11.513,9.542c0,8.787,0,66.171,0,66.171s-0.503,2.13-2.38,2.13
		c-1.875,0-3.257-0.501-3.257-4.771c0-4.259,0-77.458,0-77.591c0-8.158-8.377-10.171-12.237-10.171
		c-5.948,0-12.183,3.738-12.183,10.672c0,9.4,0,84.177,0,84.451c0,1.321,0.154,3.759-2.751,3.759c-2.233,0-2.383-2.331-2.383-3.862
		c0-2.147,0-4.286,0-6.434c-0.005-4.651-0.005-9.302,0-13.958c0.007-5.781,0.007-11.566-0.005-17.352
		c-0.008-5.422-0.015-10.849,0.01-16.271c0.02-4.229-0.052-9.381-0.052-13.614c0-8.315-4.066-11.65-10.828-11.65
		c-5.171,0-11.292,2.098-11.292,10.009c0,1.037,0,7.746,0,17.127c-6.959-3.021-11.579-9.976-11.579-17.638
		c0-10.594,8.596-19.213,19.161-19.213c3.131,0,6.234,0.776,8.984,2.245c0.75,0.397,1.651,0.407,2.416,0.024
		c0.759-0.383,1.289-1.11,1.418-1.955c1.423-9.341,9.621-16.384,19.062-16.384c8.957,0,16.864,6.345,18.818,15.093
		c0.161,0.727,0.62,1.346,1.263,1.714c0.647,0.373,1.416,0.447,2.121,0.221c1.931-0.633,3.935-0.958,5.963-0.958
		c10.564,0,19.159,8.619,19.159,19.213c0,5.407-2.314,10.574-6.264,14.195c0-8.208,0-14.322,0-14.322S144.353,31.509,132.277,31.509
		z"/>
	<path fill="#FFFFFF" d="M187.041,37.221l-13.1-11.021c-1.137-0.958-2.841-0.806-3.796,0.329c-0.955,1.149-0.804,2.849,0.336,3.807
		l7.428,6.248l-17.686-0.006c-1.478,0-2.692,1.208-2.692,2.697c0.004,1.493,1.209,2.701,2.692,2.701l17.686,0.015l-7.436,6.232
		c-1.142,0.958-1.295,2.657-0.338,3.807c0.534,0.628,1.297,0.962,2.06,0.962c0.613,0,1.227-0.202,1.73-0.628l13.109-11.007
		c0.607-0.51,0.965-1.271,0.965-2.072C188,38.488,187.654,37.731,187.041,37.221z"/>
	<path fill="#FFFFFF" d="M29.851,52.029c0.957-1.145,0.809-2.845-0.33-3.802l-7.435-6.251l17.688,0.01
		c1.484,0,2.692-1.204,2.692-2.696c0-1.494-1.205-2.696-2.692-2.696l-17.68-0.016l7.434-6.242c1.14-0.958,1.294-2.657,0.336-3.801
		c-0.534-0.634-1.296-0.964-2.06-0.969c-0.615,0.005-1.227,0.207-1.731,0.634l-13.11,11.006C12.354,37.716,12,38.474,12,39.278
		c0,0.796,0.347,1.552,0.957,2.063l13.105,11.021C27.2,53.32,28.896,53.163,29.851,52.029z"/>
</g>
</svg>
