<?xml version="1.0" encoding="utf-8"?>
<!-- Generator: Adobe Illustrator 16.0.0, SVG Export Plug-In . SVG Version: 6.00 Build 0)  -->
<!DOCTYPE svg PUBLIC "-//W3C//DTD SVG 1.1//EN" "http://www.w3.org/Graphics/SVG/1.1/DTD/svg11.dtd">
<svg version="1.1" id="레이어_1" xmlns="http://www.w3.org/2000/svg" xmlns:xlink="http://www.w3.org/1999/xlink" x="0px"
	 y="0px" width="181px" height="89px" viewBox="0 0 181 89" enable-background="new 0 0 181 89" xml:space="preserve">
<g>
	<g>
		<g>
			<path fill="#FFFFFF" d="M29.558,36.875h-7.483v-7.481H3.056v-6.191h44.065v6.191H29.558V36.875z M8.409,32.799h7.431v8.719
				h26.502v6.191H8.409V32.799z M8.824,2.151h32.53v17.646H8.824V2.151z M16.204,8.24v5.469h17.771V8.24H16.204z"/>
			<path fill="#FFFFFF" d="M73.932,23.357c0,3.766-2.858,7.068-7.795,8.204v3.25c4.054-0.205,7.587-0.413,9.717-0.67l0.572,5.779
				c-5.768,0.67-20.682,1.651-28.476,1.806l-1.143-6.449c3.429,0,7.586-0.052,11.691-0.207v-3.508
				c-4.988-1.136-7.847-4.438-7.847-8.204c0-4.644,4.365-8.564,11.691-8.564C69.567,14.792,73.932,18.559,73.932,23.357z
				 M48.47,8.291h27.592v5.676H48.47V8.291z M55.017,0.759h14.446v5.779H55.017V0.759z M57.563,23.357
				c0,1.806,1.871,3.251,4.78,3.251c2.858,0,4.677-1.445,4.677-3.251s-1.819-3.302-4.677-3.302
				C59.434,20.055,57.563,21.551,57.563,23.357z M85.728,48.123h-7.483V0.5h7.483v19.297h6.34v6.553h-6.34V48.123z"/>
			<path fill="#FFFFFF" d="M111.652,28.465c-3.429-1.91-6.442-5.16-7.898-8.204c-1.247,3.199-4.467,7.275-8.105,9.391l-4.625-5.108
				c6.392-3.457,9.042-9.236,9.042-16.614V2.977h7.43v5.004c0,7.225,2.859,12.125,8.211,14.808L111.652,28.465z M99.962,31.406
				h7.327v9.751h26.346v6.449H99.962V31.406z M116.746,16.289h-5.716v-5.934h5.716V1.119h6.806v32.608h-6.806V16.289z M126.151,0.5
				h7.067v34.878h-7.067V0.5z"/>
			<path fill="#FFFFFF" d="M138.463,4.061h22.188v6.345h-14.758v6.656h13.408v6.244h-13.408v8.255
				c3.378,0,11.277-0.258,16.212-1.032l0.781,6.294c-6.236,0.98-16.421,1.29-24.423,1.29V4.061z M169.019,23.048h-7.12v-6.501h7.12
				V0.5h7.377v47.623h-7.377V23.048z"/>
		</g>
	</g>
	<g>
		<path fill="#FFFFFF" d="M16.239,83.654l0.831,3.304c-1.169,0.692-2.891,1.479-5.995,1.479C3.973,88.437,0.5,82.932,0.5,76.356
			c0-7.047,3.965-12.018,10.575-12.018c3.29,0,4.333,0.692,5.84,1.416l-0.83,3.051c-1.476-0.818-2.552-1.321-5.011-1.321
			c-4.765,0-7.255,4.121-7.255,8.872c0,4.908,2.183,8.935,7.255,8.935C13.226,85.291,14.979,84.599,16.239,83.654z"/>
		<path fill="#FFFFFF" d="M32.003,88.154h-3.257v-1.763c-0.984,1.542-2.521,2.045-4.212,2.045c-3.873,0-5.81-2.611-5.81-6.449
			V70.977h3.29v10.381c0,2.8,0.954,4.122,2.828,4.122c2.521,0,3.719-2.108,3.719-4.594v-9.909h3.259v12.835
			C31.82,85.354,31.88,86.8,32.003,88.154z"/>
		<path fill="#FFFFFF" d="M38.701,88.122h-3.35V64.653h3.35V88.122z"/>
		<path fill="#FFFFFF" d="M49.857,85.071l0.369,2.925c-0.799,0.346-1.813,0.504-2.767,0.504c-3.35,0-4.427-1.291-4.427-5.097v-9.406
			h-2.336v-3.02h2.336v-4.122l3.259-1.258v5.38h3.32v3.02h-3.32v9.657c0,1.322,0.615,1.826,1.69,1.826
			C48.689,85.48,49.304,85.354,49.857,85.071z"/>
		<path fill="#FFFFFF" d="M65.04,88.154h-3.257v-1.763c-0.983,1.542-2.521,2.045-4.211,2.045c-3.874,0-5.811-2.611-5.811-6.449
			V70.977h3.29v10.381c0,2.8,0.954,4.122,2.828,4.122c2.521,0,3.719-2.108,3.719-4.594v-9.909h3.259v12.835
			C64.856,85.354,64.917,86.8,65.04,88.154z"/>
		<path fill="#FFFFFF" d="M76.379,70.851v3.303c-0.492-0.125-0.953-0.157-1.415-0.157c-2.705,0-3.442,3.24-3.442,5.693v8.432h-3.289
			v-12.93c0-1.604-0.062-2.988-0.154-4.215h3.32v2.17c0.953-1.667,2.153-2.485,3.597-2.485
			C75.456,70.662,75.917,70.725,76.379,70.851z"/>
		<path fill="#FFFFFF" d="M84.245,85.543c1.845,0,3.473-0.41,4.888-1.228v3.178c-1.629,0.629-3.136,0.944-4.98,0.944
			c-5.44,0-7.592-3.776-7.592-8.935c0-4.562,2.182-8.936,6.917-8.936c4.825,0,6.792,3.776,6.792,8.401v1.761H79.942
			C80.218,84.032,81.633,85.543,84.245,85.543z M86.92,77.74c0.03-2.107-1.169-4.215-3.32-4.215c-1.752,0-3.197,1.101-3.597,4.215
			H86.92z"/>
		<path fill="#FFFFFF" d="M114.15,83.654l0.83,3.304c-1.167,0.692-2.889,1.479-5.994,1.479c-7.1,0-10.574-5.505-10.574-12.081
			c0-7.047,3.966-12.018,10.574-12.018c3.289,0,4.335,0.692,5.839,1.416l-0.829,3.051c-1.476-0.818-2.551-1.321-5.01-1.321
			c-4.764,0-7.254,4.121-7.254,8.872c0,4.908,2.182,8.935,7.254,8.935C111.137,85.291,112.89,84.599,114.15,83.654z"/>
		<path fill="#FFFFFF" d="M123.246,85.543c1.844,0,3.474-0.41,4.887-1.228v3.178c-1.629,0.629-3.134,0.944-4.979,0.944
			c-5.441,0-7.594-3.776-7.594-8.935c0-4.562,2.184-8.936,6.917-8.936c4.827,0,6.794,3.776,6.794,8.401v1.761h-10.329
			C119.219,84.032,120.632,85.543,123.246,85.543z M125.919,77.74c0.031-2.107-1.167-4.215-3.32-4.215
			c-1.753,0-3.197,1.101-3.597,4.215H125.919z"/>
		<path fill="#FFFFFF" d="M144.667,88.122h-3.197V77.614c0-2.673-0.952-3.995-2.89-3.995c-2.611,0-3.812,2.17-3.812,5.097v9.406
			h-3.197V75.35c0-1.636-0.061-3.083-0.152-4.373h3.074v1.792c1.013-1.321,2.52-2.107,4.456-2.107c3.812,0,5.718,2.265,5.718,6.449
			V88.122z"/>
		<path fill="#FFFFFF" d="M155.513,85.071l0.369,2.925c-0.798,0.346-1.813,0.504-2.766,0.504c-3.351,0-4.427-1.291-4.427-5.097
			v-9.406h-2.336v-3.02h2.336v-4.122l3.258-1.258v5.38h3.319v3.02h-3.319v9.657c0,1.322,0.615,1.826,1.692,1.826
			C154.346,85.48,154.96,85.354,155.513,85.071z"/>
		<path fill="#FFFFFF" d="M164.026,85.543c1.844,0,3.474-0.41,4.887-1.228v3.178c-1.63,0.629-3.134,0.944-4.979,0.944
			c-5.441,0-7.594-3.776-7.594-8.935c0-4.562,2.184-8.936,6.917-8.936c4.827,0,6.794,3.776,6.794,8.401v1.761h-10.328
			C160,84.032,161.413,85.543,164.026,85.543z M166.7,77.74c0.031-2.107-1.167-4.215-3.32-4.215c-1.752,0-3.197,1.101-3.597,4.215
			H166.7z"/>
		<path fill="#FFFFFF" d="M180.5,70.851v3.303c-0.492-0.125-0.954-0.157-1.415-0.157c-2.705,0-3.443,3.24-3.443,5.693v8.432h-3.289
			v-12.93c0-1.604-0.063-2.988-0.154-4.215h3.32v2.17c0.953-1.667,2.153-2.485,3.597-2.485
			C179.577,70.662,180.038,70.725,180.5,70.851z"/>
	</g>
</g>
</svg>
