<?xml version="1.0" encoding="utf-8"?>
<!-- Generator: Adobe Illustrator 16.0.0, SVG Export Plug-In . SVG Version: 6.00 Build 0)  -->
<!DOCTYPE svg PUBLIC "-//W3C//DTD SVG 1.1//EN" "http://www.w3.org/Graphics/SVG/1.1/DTD/svg11.dtd">
<svg version="1.1" id="레이어_1" xmlns="http://www.w3.org/2000/svg" xmlns:xlink="http://www.w3.org/1999/xlink" x="0px"
	 y="0px" width="116px" height="116px" viewBox="0 0 116 116" enable-background="new 0 0 116 116" xml:space="preserve">
<path fill="#FFFFFF" d="M96.628-2203.346H20.114c-7.996,0-14.5,6.505-14.5,14.5v76.513c0,7.996,6.504,14.5,14.5,14.5l76.514,0
	c7.994,0,14.5-6.505,14.5-14.5v-76.513C111.128-2196.841,104.622-2203.346,96.628-2203.346z M100.128-2112.333
	c0,1.897-1.604,3.5-3.5,3.5H20.114c-1.898,0-3.5-1.602-3.5-3.5v-76.513c0-1.896,1.602-3.5,3.5-3.5l76.514,0
	c1.896,0,3.5,1.603,3.5,3.5V-2112.333z"/>
<path fill="#FFFFFF" d="M58.37-2159.896c-5.137,0-9.305,4.167-9.305,9.306c0,5.141,4.168,9.305,9.305,9.305
	c5.143,0,9.309-4.164,9.309-9.306C67.679-2155.729,63.513-2159.896,58.37-2159.896z"/>
<path fill="#FFFFFF" d="M38.237-2181.218c-5.144,0-9.312,4.167-9.311,9.307c0,5.139,4.167,9.307,9.311,9.306
	c5.137,0,9.305-4.167,9.305-9.307S43.374-2181.218,38.237-2181.218z"/>
<circle fill="#FFFFFF" cx="78.509" cy="-2171.911" r="9.307"/>
<path fill="#FFFFFF" d="M38.237-2138.576c-5.143,0-9.311,4.167-9.311,9.307c0,5.141,4.168,9.307,9.311,9.307
	c5.137,0,9.305-4.166,9.305-9.307C47.542-2134.409,43.374-2138.576,38.237-2138.576z"/>
<circle fill="#FFFFFF" cx="78.509" cy="-2129.269" r="9.307"/>
<path fill="#FFFFFF" d="M96.628,4.654H20.114c-7.996,0-14.5,6.505-14.5,14.5v76.512c0,7.996,6.504,14.5,14.5,14.501l76.514-0.001
	c7.994,0,14.5-6.504,14.5-14.5V19.154C111.128,11.159,104.622,4.654,96.628,4.654z M100.128,95.667c0,1.897-1.604,3.499-3.5,3.499
	H20.114c-1.898,0.001-3.5-1.602-3.5-3.5V19.154c0-1.896,1.602-3.5,3.5-3.5l76.514,0c1.896,0,3.5,1.603,3.5,3.5V95.667z"/>
<path fill="#FFFFFF" d="M58.37,48.104c-5.137,0-9.305,4.167-9.305,9.306c0,5.141,4.168,9.305,9.305,9.305
	c5.143,0,9.309-4.163,9.309-9.305C67.679,52.271,63.513,48.104,58.37,48.104z"/>
<path fill="#FFFFFF" d="M38.237,26.782c-5.144,0-9.312,4.167-9.311,9.307c0,5.139,4.167,9.307,9.311,9.306
	c5.137,0,9.305-4.167,9.305-9.307S43.374,26.782,38.237,26.782z"/>
<circle fill="#FFFFFF" cx="78.509" cy="36.089" r="9.307"/>
<path fill="#FFFFFF" d="M38.237,69.424c-5.143,0-9.311,4.168-9.311,9.307c0,5.141,4.168,9.307,9.311,9.307
	c5.137,0,9.305-4.166,9.305-9.307C47.542,73.592,43.374,69.424,38.237,69.424z"/>
<circle fill="#FFFFFF" cx="78.509" cy="78.731" r="9.307"/>
</svg>
