<?xml version="1.0" encoding="utf-8"?>
<!-- Generator: Adobe Illustrator 16.0.0, SVG Export Plug-In . SVG Version: 6.00 Build 0)  -->
<!DOCTYPE svg PUBLIC "-//W3C//DTD SVG 1.1//EN" "http://www.w3.org/Graphics/SVG/1.1/DTD/svg11.dtd">
<svg version="1.1" id="레이어_1" xmlns="http://www.w3.org/2000/svg" xmlns:xlink="http://www.w3.org/1999/xlink" x="0px"
	 y="0px" width="271px" height="93px" viewBox="0 0 271 93" enable-background="new 0 0 271 93" xml:space="preserve">
<g>
	<path fill="none" d="M90.66,89.268c0-0.832-0.27-1.53-0.808-2.096c-0.604-0.614-1.433-0.922-2.483-0.922h-4.441v6.283h4.28
		c1.077,0,1.938-0.34,2.584-1.021C90.37,90.88,90.66,90.132,90.66,89.268z"/>
	<g>
		<g>
			<g>
				<g>
					<path fill="#FFFFFF" d="M12.66,71.926c-1.536-1.729-3.607-2.593-6.213-2.593H0.5v16.559h5.947c2.605,0,4.677-0.864,6.213-2.593
						c1.376-1.547,2.063-3.434,2.063-5.662C14.724,75.393,14.036,73.488,12.66,71.926z M10.895,82.15
						c-1.183,1.381-2.771,2.07-4.769,2.07H2.843V71.004h3.283c1.997,0,3.586,0.689,4.769,2.068c1.054,1.231,1.582,2.744,1.582,4.539
						C12.477,79.408,11.948,80.92,10.895,82.15z"/>
				</g>
			</g>
			<path fill="#FFFFFF" d="M32.074,85.892H21.213V69.333h10.715v1.671h-8.859v5.51h8.421v1.646h-8.421v6.061h9.006V85.892z"/>
			<g>
				<g>
					<path fill="#FFFFFF" d="M46.127,70.879c-0.813-1.031-1.918-1.546-3.315-1.546h-5.465v16.559h1.595v-7.058h3.87
						c1.386,0,2.484-0.418,3.298-1.465c0.739-0.947,1.111-1.686,1.111-3.049C47.221,72.958,46.855,71.811,46.127,70.879z
						 M44.258,76.021c-0.46,0.549-1.075,0.824-1.849,0.824h-3.064v-5.565h3.064c0.783,0,1.399,0.268,1.849,0.804
						c0.411,0.498,0.616,1.099,0.616,1.805S44.669,75.512,44.258,76.021z"/>
				</g>
			</g>
			<path fill="#FFFFFF" d="M60.171,81.602H53.25l-1.771,4.29h-1.979l7.212-17.308l7.212,17.308h-2.001L60.171,81.602z
				 M53.917,79.981h5.607l-2.793-6.858L53.917,79.981z"/>
			<path fill="#FFFFFF" d="M95.864,71.004h-5.211v14.888H88.84V71.004h-5.212v-1.671h12.236V71.004z"/>
			<polygon fill="#FFFFFF" points="119.541,86.078 117.334,86.078 116.433,74.695 109.962,86.518 103.49,74.719 102.691,86.031 
				100.483,86.031 101.626,69.221 103.257,69.232 109.986,82.365 116.716,69.205 118.448,69.221 			"/>
			<path fill="#FFFFFF" d="M136.803,85.892h-10.86V69.333h10.715v1.671h-8.859v5.51h8.421v1.646h-8.421v6.061h9.005V85.892z"/>
			<path fill="#FFFFFF" d="M156.74,86.291l-11.93-12.445v12.495h-2.172V68.934l11.955,12.494V68.884h2.146V86.291z"/>
			<path fill="#FFFFFF" d="M175.568,71.004h-5.213v14.888h-1.813V71.004h-5.211v-1.671h12.236V71.004z"/>
			<path fill="#FFFFFF" d="M216.259,71.004h-5.212v14.888h-1.814V71.004h-5.211v-1.671h12.237V71.004z"/>
			<path fill="#FFFFFF" d="M237.21,77.637c0,2.395-0.89,4.439-2.675,6.135c-1.782,1.695-3.926,2.544-6.428,2.544
				s-4.64-0.849-6.414-2.544c-1.775-1.695-2.661-3.74-2.661-6.135c0-2.394,0.886-4.439,2.661-6.135
				c1.774-1.695,3.912-2.544,6.414-2.544s4.646,0.849,6.428,2.544C236.32,73.197,237.21,75.243,237.21,77.637z M234.683,77.637
				c0-1.929-0.646-3.578-1.93-4.95c-1.287-1.372-2.837-2.058-4.646-2.058c-1.793,0-3.336,0.686-4.631,2.058s-1.943,3.021-1.943,4.95
				s0.648,3.579,1.943,4.95c1.295,1.372,2.838,2.059,4.631,2.059c1.809,0,3.358-0.687,4.646-2.059
				C234.037,81.216,234.683,79.565,234.683,77.637z"/>
			<path fill="#FFFFFF" d="M270.5,85.892h-10.86V69.333h10.714v1.671h-8.859v5.51h8.422v1.646h-8.422v6.061h9.006V85.892z"/>
			<path fill="#FFFFFF" d="M81.652,86.018l-5.438-7.408c0.685-0.222,1.271-0.618,1.755-1.24c0.739-0.947,1.11-1.686,1.11-3.049
				c0-1.362-0.364-2.51-1.093-3.441c-0.813-1.031-1.918-1.546-3.314-1.546h-5.466v16.559h1.596v-7.058h3.394l5.074,7.203
				L81.652,86.018z M71.206,71.279h3.064c0.782,0,1.398,0.268,1.848,0.804c0.411,0.498,0.617,1.099,0.617,1.805
				s-0.206,1.624-0.617,2.133c-0.46,0.549-1.075,0.824-1.848,0.824h-3.064V71.279z"/>
			<path fill="#FFFFFF" d="M254.865,86.018l-5.438-7.408c0.684-0.222,1.271-0.618,1.754-1.24c0.741-0.947,1.11-1.686,1.11-3.049
				c0-1.362-0.364-2.51-1.093-3.441c-0.812-1.031-1.917-1.546-3.314-1.546h-5.465v16.559h1.595v-7.058h3.394l5.074,7.203
				L254.865,86.018z M244.418,71.279h3.065c0.782,0,1.398,0.268,1.847,0.804c0.412,0.498,0.617,1.099,0.617,1.805
				s-0.205,1.624-0.617,2.133c-0.459,0.549-1.074,0.824-1.847,0.824h-3.065V71.279z"/>
			<path fill="#FFFFFF" d="M199.354,77.836c-0.626-0.314-0.789-0.682-2.303-1.13c-1.391-0.416-2.35-0.79-2.877-1.122
				c-0.82-0.516-1.224-1.189-1.209-2.021c0.014-0.88,0.375-1.596,1.084-2.145c0.652-0.498,1.438-0.748,2.355-0.748
				c0.931,0,1.73,0.266,2.398,0.799c0.277,0.227,0.494,0.498,0.683,0.793v-2.461c-0.933-0.548-1.999-0.826-3.207-0.826
				c-1.445,0-2.667,0.382-3.669,1.146c-1.111,0.832-1.693,1.971-1.75,3.417c-0.083,1.929,0.792,3.259,2.627,3.99
				c1.514,0.449,2.121,0.882,3.637,1.331c1.557,0.564,2.334,1.445,2.334,2.643c0,0.134-0.007,0.268-0.021,0.398
				c-0.097,0.865-0.492,1.539-1.188,2.021c-0.625,0.465-2.014,0.59-2.915,0.59c-1.126,0-2.12-0.341-2.981-1.022
				c-0.608-0.474-1.048-1.061-1.32-1.756v3.138c1.232,0.975,2.682,1.461,4.343,1.461c1.444,0,3.291-0.273,4.291-1.039
				c1.112-0.832,1.737-1.986,1.876-3.467c0.014-0.182,0.021-0.365,0.021-0.549C201.563,79.731,200.824,78.585,199.354,77.836z"/>
		</g>
		<g>
			<g>
				<path fill="#FFFFFF" d="M42.634,50.413H8.644c-2.038,0-3.823-0.54-5.354-1.62c-1.528-1.08-2.294-2.466-2.294-4.156L0.992,2.657
					h13.684v39.796c0,1.503,1.048,2.255,3.144,2.255h24.809L42.634,50.413z"/>
				<g>
					<g>
						<path fill="#FFFFFF" d="M97.277,7.651c-5.271-4.79-12.769-7.186-22.488-7.186c-19.678,0-29.517,8.704-29.517,26.108
							c0,7.779,2.548,13.968,7.644,18.568c5.328,4.79,12.766,7.137,22.313,7.043c9.312-0.097,16.572-2.467,21.785-7.115
							c5.213-4.646,7.819-10.859,7.819-18.638C104.833,18.465,102.313,12.204,97.277,7.651z M86.444,40.553
							c-2.918,4.463-6.771,6.64-11.564,6.531c-4.892-0.108-8.797-2.258-11.712-6.45c-2.718-3.918-4.028-8.625-3.929-14.123
							C59.437,12.959,64.65,6.184,74.88,6.184c5.337,0,9.314,1.933,11.934,5.796c2.372,3.43,3.559,8.219,3.559,14.368
							C90.372,31.791,89.062,36.525,86.444,40.553z"/>
					</g>
				</g>
				<path fill="#FFFFFF" d="M159.21,7.797h-16.849v42.4h-15.1v-42.4h-19.373v-5.14h51.321V7.797z"/>
				<path fill="#FFFFFF" d="M164.653,2.657h51.323v5.14h-19.373v42.4h-15.1v-42.4h-16.851V2.657z"/>
				<path fill="#FFFFFF" d="M269.021,2.413h-39.776c-2.727,0-4.935,2.21-4.935,4.936v37.563c0,1.406,0.596,2.614,1.791,3.624
					s4.469,1.516,6.191,1.516l36.729-0.066v-5.393h-28.971c-1.113,0-1.668-0.504-1.668-1.515v-15.49h30.011v-5.406l-29.718-0.018
					V12.6v-0.973v-0.935c0.192-1.362,1.208-2.457,2.528-2.766l1.519,0.001c0.024,0.006,0.051,0.014,0.076,0.02
					c-0.004-0.006-0.006-0.014-0.011-0.02l26.233,0.015V2.413z"/>
			</g>
		</g>
	</g>
</g>
</svg>
