<?xml version="1.0" encoding="utf-8"?>
<!-- Generator: Adobe Illustrator 16.0.0, SVG Export Plug-In . SVG Version: 6.00 Build 0)  -->
<!DOCTYPE svg PUBLIC "-//W3C//DTD SVG 1.1//EN" "http://www.w3.org/Graphics/SVG/1.1/DTD/svg11.dtd">
<svg version="1.1" id="레이어_1" xmlns="http://www.w3.org/2000/svg" xmlns:xlink="http://www.w3.org/1999/xlink" x="0px"
	 y="0px" width="200px" height="200px" viewBox="0 0 200 200" enable-background="new 0 0 200 200" xml:space="preserve">
<g>
	<path fill="#FFFFFF" d="M60.081,93.605c0,0-4.1,4.35-0.722,10.01c3.384,5.658,30.756,50.234,30.756,50.234
		s-9.783,18.017,0.854,23.711c10.641,5.699,22,11.988,26.589,15.204c4.592,3.212,7.55,5.187,9.819,4.647
		c2.26-0.537,28.062-14.799,37.71-24.934c0,0,3.015-1.003,1.475-6.281c-1.548-5.279-12.354-41.612-24.593-50.702
		c0,0-8.65-6.016-12.159,1.46c0,0-0.726,1.749-2.26,0.109c-1.532-1.636-10.448-7.872-15.534,2.905c0,0-6.631-3.708-10.855-0.205
		c0,0-4.156,2.275-5.16,7.227L70.196,94.059C70.196,94.059,65.518,88.814,60.081,93.605z"/>
	<path fill="#FFFFFF" d="M59.317,115.898L59.317,115.898l0.297-0.546l0.454-1.703c-2.647-4.102-4.818-8.128-5.561-9.438
		c-3.431-6.025,1.032-12.073,1.032-12.073c1.009-1.547,2.27-2.516,3.616-3.151L52.562,3.229c-0.048-0.463-0.106-0.687-0.16-0.729
		c-0.054,0.042-0.112,0.265-0.16,0.729l-9.578,91.29c-0.108,1.02-1.037,1.854-2.063,1.854h-6.425c-1.026,0-1.464,0.739-0.975,1.636
		l16.642,30.61v0.073l0.362,0.607c0.086,0.144,0.188,0.228,0.289,0.323c0.047,0.048,0.087,0.122,0.139,0.157
		c0.076,0.055,0.158,0.058,0.237,0.086c0.085,0.028,0.167,0.08,0.253,0.08s0.168-0.052,0.253-0.08
		c0.08-0.029,0.162-0.032,0.238-0.086c0.051-0.035,0.092-0.109,0.139-0.157c0.1-0.095,0.202-0.179,0.289-0.323l0.361-0.607v-0.073
		L59.317,115.898L59.317,115.898z"/>
</g>
</svg>
