<?xml version="1.0" encoding="utf-8"?>
<!-- Generator: Adobe Illustrator 16.0.0, SVG Export Plug-In . SVG Version: 6.00 Build 0)  -->
<!DOCTYPE svg PUBLIC "-//W3C//DTD SVG 1.1//EN" "http://www.w3.org/Graphics/SVG/1.1/DTD/svg11.dtd">
<svg version="1.1" id="레이어_1" xmlns="http://www.w3.org/2000/svg" xmlns:xlink="http://www.w3.org/1999/xlink" x="0px"
	 y="0px" width="115px" height="115px" viewBox="0 0 115 115" enable-background="new 0 0 115 115" xml:space="preserve">
<path fill="#FFFFFF" d="M111.363,29.664c-0.13-3.355-2.857-5.982-6.216-5.982H89.414C85.256,12.893,77.572,6.124,69.124,6.124
	c-8.45,0-16.132,6.77-20.291,17.558H33.099c-3.358,0-6.088,2.626-6.216,5.981l-2.101,55.082c1.727,0.084,3.391,0.361,4.949,0.85
	c0.59,0.187,1.239,0.279,1.928,0.279c0.822,0,1.67-0.131,2.525-0.353l2-52.414h11.239l0,11.86c0,1.697,1.376,3.072,3.072,3.072
	c1.697,0,3.072-1.375,3.071-3.072l0.001-11.861h48.496l2.524,66.181H91.159l-0.75,8.77l-0.057,0.654h17.679
	c1.654,0,3.259-0.682,4.404-1.869c1.143-1.189,1.764-2.818,1.7-4.471L111.363,29.664z M55.492,23.681
	c3.279-7.081,8.309-11.414,13.631-11.414s10.35,4.334,13.63,11.414H55.492z"/>
<path fill="#FFFFFF" d="M86.496,45.806c-0.578-0.305-1.237-0.445-1.959-0.445c-5.498,0-14.637,8.231-19.27,15.647
	c-6.93,11.084-17.242,26.967-31.269,29.376c-0.348,0.06-0.697,0.104-1.044,0.138c-0.081,0.008-0.163,0.016-0.244,0.021
	c-0.351,0.029-0.701,0.049-1.052,0.049c-1.13,0-2.251-0.154-3.342-0.498c-0.34-0.105-0.681-0.195-1.025-0.275
	c-0.153-0.035-0.309-0.063-0.464-0.092c-0.175-0.035-0.35-0.069-0.527-0.098c-0.209-0.033-0.419-0.061-0.629-0.084
	c-0.103-0.014-0.205-0.023-0.308-0.033c-0.545-0.053-1.091-0.088-1.637-0.088c-7.821,0-15.328,5.125-15.328,5.125
	c-3.016,2.012-7.51,5.414-5.301,9.574c1.701,3.203,5.917,3.573,9.623,3.572c1.117,0.001,2.188-0.032,3.129-0.032
	c0.181-0.001,0.355,0.001,0.526,0.003c1.571,0.027,3.145,0.037,4.72,0.037c2.253,0,4.506-0.02,6.755-0.033
	c2.923-0.016,5.845-0.019,8.769-0.019c2.211-0.001,4.423,0.003,6.634,0.003c0.185,0,0.371-0.021,0.554-0.049
	c0.05-0.006,0.099-0.016,0.149-0.025c0.153-0.029,0.305-0.065,0.457-0.112c0.032-0.011,0.065-0.019,0.096-0.028
	c0.179-0.06,0.356-0.133,0.532-0.215c0.044-0.021,0.087-0.043,0.131-0.066c0.141-0.07,0.282-0.148,0.422-0.232
	c0.043-0.025,0.085-0.051,0.129-0.076c0.17-0.111,0.34-0.227,0.508-0.355c0.034-0.025,0.064-0.053,0.097-0.076
	c0.142-0.111,0.281-0.227,0.421-0.348c0.046-0.041,0.091-0.082,0.137-0.123c0.166-0.15,0.33-0.305,0.5-0.479
	c0.161-0.164,0.32-0.336,0.478-0.512c0.042-0.051,0.087-0.1,0.13-0.148c0.133-0.154,0.266-0.311,0.396-0.471
	c0.027-0.033,0.054-0.064,0.082-0.098c0.154-0.191,0.306-0.389,0.457-0.59c0.036-0.049,0.073-0.1,0.109-0.147
	c0.123-0.165,0.244-0.333,0.362-0.501c0.036-0.051,0.07-0.098,0.104-0.146c0.146-0.209,0.291-0.42,0.432-0.635
	c0.025-0.037,0.048-0.072,0.072-0.109c0.122-0.186,0.242-0.37,0.361-0.557c0.035-0.055,0.068-0.108,0.103-0.164
	c0.278-0.44,0.548-0.885,0.807-1.322c0.03-0.051,0.059-0.102,0.089-0.152c0.119-0.2,0.236-0.402,0.352-0.602
	c0.005-0.009,0.011-0.018,0.017-0.027c0.877-1.517,1.632-2.91,2.243-3.84c3.746-5.713,8.114-11.285,13.907-15.049
	c1.867-1.215,3.367-1.711,4.573-1.711c5.567,0,5.646,10.621,5.646,10.621l0.524,18.346h7.075l0.787-18.346
	c0-8.647,4.192-15.725,4.192-15.725C95.666,63.365,91.474,48.426,86.496,45.806z"/>
</svg>
