<?xml version="1.0" encoding="utf-8"?>
<!-- Generator: Adobe Illustrator 16.0.0, SVG Export Plug-In . SVG Version: 6.00 Build 0)  -->
<!DOCTYPE svg PUBLIC "-//W3C//DTD SVG 1.1//EN" "http://www.w3.org/Graphics/SVG/1.1/DTD/svg11.dtd">
<svg version="1.1" id="레이어_1" xmlns="http://www.w3.org/2000/svg" xmlns:xlink="http://www.w3.org/1999/xlink" x="0px"
	 y="0px" width="115px" height="115px" viewBox="0 0 115 115" enable-background="new 0 0 115 115" xml:space="preserve">
<g>
	<path fill="#FFFFFF" d="M103.404,18.246c-0.141-3.626-3.092-6.464-6.719-6.464H18.315c-3.628-0.001-6.58,2.838-6.719,6.464
		L8.58,96.361c-0.069,1.787,0.601,3.549,1.837,4.834c1.237,1.287,2.972,2.023,4.76,2.023h84.646c1.789,0,3.524-0.736,4.762-2.023
		c1.236-1.285,1.906-3.047,1.836-4.834L103.404,18.246z M18.905,93.029l2.744-71.06h71.703l2.743,71.06H18.905z"/>
	<path fill="#FFFFFF" d="M78.851,29.693c-1.687,0.122-2.955,1.588-2.831,3.275c0.641,8.825-3.473,17.889-10,22.041
		c-7.164,4.559-16.056,1.619-20.784-3.458c-3.544-3.807-5.564-8.751-6.177-15.141c-0.111-1.163-0.216-2.262-0.069-3.182
		c0.266-1.671-0.872-3.24-2.541-3.506c-1.673-0.268-3.24,0.871-3.506,2.541c-0.27,1.692-0.115,3.306,0.023,4.757
		c0.733,7.647,3.354,13.94,7.788,18.704c4.696,5.042,11.023,7.699,17.265,7.699c3.942,0,7.851-1.061,11.288-3.248
		c8.346-5.308,13.617-16.679,12.819-27.651C82.004,30.837,80.537,29.571,78.851,29.693z"/>
</g>
</svg>
