<?xml version="1.0" encoding="utf-8"?>
<!-- Generator: Adobe Illustrator 16.0.0, SVG Export Plug-In . SVG Version: 6.00 Build 0)  -->
<!DOCTYPE svg PUBLIC "-//W3C//DTD SVG 1.1//EN" "http://www.w3.org/Graphics/SVG/1.1/DTD/svg11.dtd">
<svg version="1.1" id="레이어_1" xmlns="http://www.w3.org/2000/svg" xmlns:xlink="http://www.w3.org/1999/xlink" x="0px"
	 y="0px" width="115px" height="115px" viewBox="0 0 115 115" enable-background="new 0 0 115 115" xml:space="preserve">
<path fill="#FFFFFF" d="M68.656,55.843v-0.128c2.084-0.85,3.676-2.104,4.783-3.761c1.104-1.659,1.656-3.507,1.656-5.547
	c0-2.423-0.488-4.42-1.465-5.993c-0.979-1.572-2.275-2.784-3.891-3.635c-1.615-0.85-3.379-1.435-5.291-1.753
	c-1.912-0.319-3.953-0.479-6.121-0.479H44.431c-1.998,0.001-3.518,0.468-4.559,1.403c-1.043,0.936-1.563,2.508-1.563,4.718l0,33.662
	c0,2.211,0.519,3.784,1.562,4.719c1.041,0.935,2.561,1.402,4.559,1.402h15.364c2.336,0,4.516-0.266,6.535-0.798
	c2.02-0.53,3.814-1.348,5.387-2.454c1.574-1.104,2.795-2.519,3.666-4.239c0.873-1.722,1.307-3.75,1.307-6.089
	c0-3.061-0.699-5.493-2.102-7.3C73.184,57.766,71.207,56.523,68.656,55.843z M48.767,42.198h8.287c2.253,0,4.081,0.426,5.483,1.276
	c1.402,0.85,2.104,2.294,2.104,4.335c0,3.74-2.422,5.61-7.268,5.61h-8.606V42.198z M65.502,69.421
	c-0.49,0.81-1.148,1.425-1.977,1.851c-0.83,0.425-1.744,0.723-2.742,0.894c-0.998,0.169-2.072,0.254-3.219,0.254h-8.798V60.051
	h7.523c1.443,0,2.739,0.074,3.888,0.223s2.18,0.437,3.092,0.86c0.914,0.426,1.635,1.063,2.168,1.913
	c0.531,0.851,0.797,1.935,0.797,3.251C66.234,67.574,65.988,68.615,65.502,69.421z"/>
<path fill="#FFFFFF" d="M108.175,99.979l-13.8-14.865c6.038-8.174,9.614-18.271,9.614-29.19c0-27.154-22.091-49.245-49.244-49.245
	C27.592,6.678,5.5,28.769,5.5,55.923c0,27.153,22.092,49.245,49.245,49.245c12.654,0,24.204-4.801,32.935-12.67l13.215,14.236
	c0.979,1.055,2.309,1.588,3.641,1.588c1.21,0,2.422-0.439,3.377-1.326C109.922,105.129,110.04,101.988,108.175,99.979z
	 M54.745,95.236c-21.676,0-39.313-17.637-39.313-39.313c0-21.679,17.637-39.314,39.313-39.314
	c21.678,0.001,39.313,17.637,39.313,39.314C94.059,77.6,76.423,95.236,54.745,95.236z"/>
</svg>
