<?xml version="1.0" encoding="utf-8"?>
<!-- Generator: Adobe Illustrator 16.0.0, SVG Export Plug-In . SVG Version: 6.00 Build 0)  -->
<!DOCTYPE svg PUBLIC "-//W3C//DTD SVG 1.1//EN" "http://www.w3.org/Graphics/SVG/1.1/DTD/svg11.dtd">
<svg version="1.1" id="레이어_1" xmlns="http://www.w3.org/2000/svg" xmlns:xlink="http://www.w3.org/1999/xlink" x="0px"
	 y="0px" width="218px" height="96px" viewBox="0 0 218 96" enable-background="new 0 0 218 96" xml:space="preserve">
<g>
	<g>
		<g>
			<path fill="#FFFFFF" d="M0.5,35.474h44.067v6.442H0.5V35.474z M39.948,29.081c-5.243-1.091-13.443-5.301-17.44-12.212
				C18.303,23.78,10.154,27.99,5.016,29.081l-3.529-5.768c6.177-1.143,17.284-6.808,17.284-16.629V3.879h7.526v2.806
				c0,9.77,11.056,15.692,17.284,16.629L39.948,29.081z"/>
			<path fill="#FFFFFF" d="M46.225,4.554h23.513V37.24H46.225V4.554z M53.699,10.946v19.901h8.668V10.946H53.699z M82.817,48.464
				h-7.422V0.5h7.422v17.253h6.696v6.548h-6.696V48.464z"/>
			<path fill="#FFFFFF" d="M88.68,35.577h44.066v6.339H88.68V35.577z M94.129,3.723h33.167v6.183h-25.849v4.003h25.122v5.871
				h-25.122v4.209h26.264v6.133H94.129V3.723z"/>
			<path fill="#FFFFFF" d="M132.795,36.148h10.745V26.95h7.317v9.198h8.149V26.95h7.215v9.198h10.691v6.288h-44.118V36.148z
				 M172.294,28.25c-6.385-1.56-13.807-5.769-17.439-12.212c-3.426,6.235-11.004,10.496-17.492,12.212l-3.529-5.769
				c6.176-1.143,17.232-6.808,17.232-16.629V3.358h7.526v2.494c0,9.77,11.106,15.693,17.335,16.629L172.294,28.25z"/>
			<path fill="#FFFFFF" d="M190.146,21.286c1.349,0,2.647-0.052,3.944-0.104l0.727-10.705l7.423,0.779l-1.35,9.613
				c2.595-0.155,4.775-0.362,6.332-0.571l0.467,5.873c-5.813,0.727-20.398,1.507-28.442,1.766l-1.143-6.495h5.347l-0.986-10.186
				l7.215-0.779L190.146,21.286z M179.038,2.371h26.68v6.34h-26.68V2.371z M217.5,39.11c0,5.196-4.516,9.821-16.039,9.821
				c-11.574,0-15.985-4.625-15.985-9.821c0-5.353,4.463-10.029,15.985-10.029C212.984,29.081,217.5,33.758,217.5,39.11z
				 M193.001,39.11c0,1.923,2.024,3.638,8.46,3.638c6.541,0,8.565-1.767,8.565-3.638c0-2.078-2.024-3.846-8.565-3.846
				C195.025,35.265,193.001,37.032,193.001,39.11z M209.922,0.5h7.423v28.426h-7.423V0.5z"/>
		</g>
	</g>
	<g>
		<g>
			<path fill="#FFFFFF" d="M23.445,65.779l-0.829,3.074c-1.044-0.539-2.303-0.887-3.991-0.887c-2.671,0-3.93,1.014-3.93,3.041
				c0,1.553,1.136,2.503,3.807,3.96c3.623,1.965,5.803,3.327,5.803,7.415c0,4.499-3.163,6.686-7.461,6.686
				c-1.812,0-4.053-0.761-5.681-1.68l0.707-3.295c1.504,0.95,3.254,1.743,5.097,1.743c2.825,0,4.083-1.553,4.083-3.613
				c0-2.027-1.443-3.357-4.452-4.752c-3.071-1.426-5.128-3.422-5.128-6.464c0-4.246,3.408-6.21,7.185-6.21
				C20.866,64.798,22.187,65.24,23.445,65.779z"/>
			<path fill="#FFFFFF" d="M47.483,88.751H44.29V77.472c0-2.25-0.798-3.327-2.579-3.327c-2.518,0-3.132,2.63-3.132,5.101v9.506
				h-3.224V77.472c0-2.25-0.798-3.327-2.579-3.327c-2.425,0-3.07,2.598-3.07,5.101v9.506h-3.254V75.824
				c0-1.934-0.031-3.391-0.123-4.341h3.193v1.647c0.921-1.235,2.057-1.965,4.022-1.965c1.658,0,3.377,1.172,4.022,2.82
				c1.136-1.807,2.548-2.82,4.82-2.82c3.439,0,5.097,2.219,5.097,5.672V88.751z"/>
			<path fill="#FFFFFF" d="M62.339,88.751h-3.071v-1.646c-1.013,1.362-2.333,1.964-4.206,1.964c-3.255,0-5.588-1.616-5.588-4.879
				c0-4.31,2.948-6.434,9.088-6.434h0.46v-0.602c0-2.06-0.859-3.104-2.732-3.104c-1.658,0-3.255,0.443-4.913,1.362v-3.105
				c1.566-0.823,3.224-1.236,5.097-1.236c1.965,0,3.347,0.476,4.237,1.427c0.952,1.014,1.443,2.629,1.443,4.816v7.351
				C62.155,86.597,62.216,87.959,62.339,88.751z M59.023,80.672h-0.645c-1.627,0-2.733,0.126-3.562,0.412
				c-1.381,0.476-2.057,1.426-2.057,2.788c0,1.521,0.86,2.218,2.549,2.218c2.548,0,3.715-1.553,3.715-4.753V80.672z"/>
			<path fill="#FFFFFF" d="M73.358,71.356v3.327c-0.491-0.127-0.952-0.158-1.412-0.158c-2.702,0-3.439,3.263-3.439,5.734v8.491
				h-3.286V75.729c0-1.616-0.061-3.01-0.153-4.245h3.316v2.186c0.952-1.679,2.149-2.503,3.592-2.503
				C72.438,71.166,72.898,71.229,73.358,71.356z"/>
			<path fill="#FFFFFF" d="M82.813,85.679l0.368,2.945c-0.798,0.349-1.812,0.508-2.763,0.508c-3.347,0-4.421-1.3-4.421-5.133v-9.474
				h-2.333v-3.042h2.333v-4.151l3.254-1.268v5.419h3.316v3.042h-3.316v9.727c0,1.331,0.614,1.838,1.689,1.838
				C81.646,86.09,82.261,85.963,82.813,85.679z"/>
			<path fill="#FFFFFF" d="M102.981,65.779l-0.829,3.074c-1.044-0.539-2.303-0.887-3.991-0.887c-2.671,0-3.93,1.014-3.93,3.041
				c0,1.553,1.136,2.503,3.807,3.96c3.623,1.965,5.803,3.327,5.803,7.415c0,4.499-3.163,6.686-7.461,6.686
				c-1.812,0-4.053-0.761-5.681-1.68l0.707-3.295c1.504,0.95,3.254,1.743,5.097,1.743c2.825,0,4.083-1.553,4.083-3.613
				c0-2.027-1.443-3.357-4.452-4.752c-3.071-1.426-5.128-3.422-5.128-6.464c0-4.246,3.408-6.21,7.185-6.21
				C100.402,64.798,101.723,65.24,102.981,65.779z"/>
			<path fill="#FFFFFF" d="M119.251,88.751h-3.284V78.549c0-2.63-0.583-4.214-2.825-4.214c-2.303,0-3.715,2.376-3.715,5.069v9.347
				h-3.285V65.114h3.285v8.364c0.799-1.331,2.487-2.313,4.052-2.313c3.993,0,5.772,2.693,5.772,7.256V88.751z"/>
			<path fill="#FFFFFF" d="M128.767,71.166c5.004,0,7.369,3.992,7.369,8.936c0,4.942-2.365,8.967-7.369,8.967
				c-5.066,0-7.369-3.992-7.369-8.967C121.397,75.126,123.7,71.166,128.767,71.166z M128.767,74.145
				c-3.163,0-4.146,2.884-4.146,5.957s0.982,5.988,4.146,5.988c3.131,0,4.145-2.947,4.145-5.988
				C132.911,77.06,131.897,74.145,128.767,74.145z"/>
			<path fill="#FFFFFF" d="M138.128,71.483h3.101v1.615c1.013-1.299,2.395-1.933,4.206-1.933c4.943,0,6.909,4.023,6.909,8.841
				c0,4.974-1.751,9.062-6.909,9.062c-1.627,0-3.193-0.729-4.206-2.218v8.333h-3.101V71.483z M145.128,86.058
				c3.131,0,3.961-3.104,3.961-6.051c0-4.024-1.321-5.768-3.961-5.768c-2.917,0-3.899,3.138-3.899,5.862
				S142.211,86.058,145.128,86.058z"/>
			<path fill="#FFFFFF" d="M154.642,71.483h3.102v1.615c1.012-1.299,2.395-1.933,4.205-1.933c4.944,0,6.909,4.023,6.909,8.841
				c0,4.974-1.751,9.062-6.909,9.062c-1.626,0-3.193-0.729-4.205-2.218v8.333h-3.102V71.483z M161.643,86.058
				c3.131,0,3.961-3.104,3.961-6.051c0-4.024-1.321-5.768-3.961-5.768c-2.917,0-3.899,3.138-3.899,5.862
				S158.726,86.058,161.643,86.058z"/>
			<path fill="#FFFFFF" d="M174.749,69.075h-3.285v-3.961h3.285V69.075z M174.749,88.751h-3.285V71.483h3.285V88.751z"/>
			<path fill="#FFFFFF" d="M191.358,88.751h-3.193V78.168c0-2.692-0.953-4.023-2.888-4.023c-2.61,0-3.807,2.186-3.807,5.133v9.474
				h-3.193V75.888c0-1.648-0.061-3.105-0.154-4.404h3.07v1.806c1.014-1.33,2.519-2.123,4.453-2.123c3.807,0,5.712,2.282,5.712,6.495
				V88.751z"/>
			<path fill="#FFFFFF" d="M207.565,71.483v13.593c0,6.526-2.579,10.424-7.737,10.424c-1.873,0-3.685-0.411-5.25-1.141l0.491-3.199
				c1.443,0.887,3.04,1.33,4.79,1.33c2.948,0,4.636-2.155,4.636-6.623c-1.105,1.585-2.519,2.124-4.053,2.124
				c-4.667,0-7.092-3.865-7.092-8.365c0-4.879,2.271-8.46,6.906-8.46c1.874,0,3.256,0.729,4.207,1.933v-1.615H207.565z
				 M200.565,74.239c-2.61,0-3.992,1.585-3.992,5.387c0,3.423,1.351,5.291,3.869,5.291c2.916,0,4.021-2.439,4.021-5.291
				C204.464,75.824,202.808,74.239,200.565,74.239z"/>
		</g>
	</g>
</g>
</svg>
