<?xml version="1.0" encoding="utf-8"?>
<!-- Generator: Adobe Illustrator 16.0.0, SVG Export Plug-In . SVG Version: 6.00 Build 0)  -->
<!DOCTYPE svg PUBLIC "-//W3C//DTD SVG 1.1//EN" "http://www.w3.org/Graphics/SVG/1.1/DTD/svg11.dtd">
<svg version="1.1" id="레이어_1" xmlns="http://www.w3.org/2000/svg" xmlns:xlink="http://www.w3.org/1999/xlink" x="0px"
	 y="0px" width="116px" height="116px" viewBox="0 0 116 116" enable-background="new 0 0 116 116" xml:space="preserve">
<path fill="#FFFFFF" d="M58.348,112.217c-29.941,0-54.301-24.357-54.3-54.299c0-29.94,24.358-54.299,54.3-54.299
	c29.941,0,54.301,24.358,54.301,54.299C112.649,87.859,88.289,112.217,58.348,112.217z M58.348,12.557
	c-25.013,0-45.362,20.349-45.362,45.361c0,25.012,20.349,45.362,45.363,45.362c25.014,0,45.363-20.35,45.362-45.362
	C103.712,32.906,83.361,12.557,58.348,12.557z"/>
<g>
	<path fill="#FFFFFF" d="M58.349,110.217c-0.828,0-1.501-0.671-1.5-1.5L56.848,7.119c0.001-0.829,0.672-1.5,1.5-1.5
		c0.829,0,1.5,0.671,1.501,1.5v101.598C59.848,109.545,59.177,110.217,58.349,110.217z"/>
	<path fill="#FFFFFF" d="M75.721,107.155c-0.612-0.001-1.187-0.378-1.409-0.987L39.563,10.695c-0.282-0.78,0.119-1.639,0.896-1.923
		c0.775-0.282,1.64,0.118,1.923,0.896l34.747,95.473c0.283,0.778-0.118,1.64-0.896,1.923
		C76.064,107.125,75.893,107.154,75.721,107.155z"/>
	<path fill="#FFFFFF" d="M91.002,98.332c-0.43,0-0.854-0.182-1.151-0.535L24.546,19.968c-0.532-0.635-0.449-1.581,0.187-2.114
		c0.633-0.533,1.58-0.449,2.113,0.185L92.15,95.867c0.532,0.635,0.448,1.582-0.187,2.113C91.684,98.217,91.342,98.332,91.002,98.332
		z"/>
	<path fill="#FFFFFF" d="M102.339,84.818c-0.255,0-0.512-0.064-0.749-0.201L13.604,33.816c-0.718-0.414-0.963-1.332-0.55-2.049
		c0.414-0.718,1.332-0.963,2.05-0.549L103.09,82.02c0.719,0.414,0.964,1.33,0.55,2.049
		C103.362,84.549,102.856,84.818,102.339,84.818z"/>
	<path fill="#FFFFFF" d="M108.377,68.24c-0.086,0-0.174-0.008-0.262-0.023L8.058,50.571c-0.814-0.144-1.36-0.922-1.216-1.737
		c0.145-0.816,0.931-1.361,1.737-1.217l100.057,17.647c0.816,0.143,1.36,0.922,1.217,1.738
		C109.725,67.729,109.091,68.24,108.377,68.24z"/>
	<path fill="#FFFFFF" d="M8.317,68.238c-0.714,0-1.348-0.512-1.477-1.24c-0.144-0.816,0.401-1.594,1.217-1.737L108.115,47.62
		c0.82-0.144,1.593,0.4,1.737,1.217c0.145,0.815-0.4,1.594-1.216,1.737L8.58,68.215C8.491,68.23,8.403,68.238,8.317,68.238z"/>
	<path fill="#FFFFFF" d="M14.353,84.814c-0.517,0.001-1.022-0.268-1.3-0.75c-0.413-0.717-0.169-1.635,0.549-2.049l87.99-50.795
		c0.717-0.412,1.636-0.17,2.049,0.549c0.415,0.719,0.169,1.635-0.549,2.05l-87.99,50.795C14.865,84.75,14.607,84.815,14.353,84.814z
		"/>
	<path fill="#FFFFFF" d="M25.69,98.332c-0.34,0-0.683-0.115-0.962-0.352c-0.636-0.532-0.718-1.479-0.187-2.113l65.312-77.829
		c0.532-0.634,1.479-0.718,2.113-0.185c0.634,0.532,0.718,1.479,0.185,2.113l-65.31,77.828
		C26.544,98.149,26.119,98.332,25.69,98.332z"/>
	<path fill="#FFFFFF" d="M40.971,107.154c-0.171,0-0.344-0.029-0.513-0.092c-0.778-0.283-1.181-1.143-0.896-1.922L74.314,9.668
		c0.284-0.778,1.147-1.179,1.921-0.896c0.779,0.284,1.181,1.144,0.896,1.923L42.38,106.167
		C42.159,106.775,41.584,107.154,40.971,107.154z"/>
</g>
<g>
	<path fill="#FFFFFF" d="M63.215,4.556c0,0.55-0.45,1-1,1l-7.734,0c-0.55,0-1-0.45-1-1V1.246c0-0.55,0.45-1,1-1l7.734,0
		c0.55,0,1,0.45,1,1V4.556z"/>
</g>
<g>
	<path fill="#FFFFFF" d="M44.671,6.109c0.188,0.517-0.081,1.094-0.598,1.282l-7.271,2.646c-0.517,0.188-1.094-0.081-1.281-0.598
		l-1.131-3.11c-0.188-0.517,0.081-1.094,0.598-1.282L42.259,2.4c0.517-0.188,1.093,0.081,1.281,0.598L44.671,6.109z"/>
</g>
<g>
	<path fill="#FFFFFF" d="M27.776,13.911c0.354,0.421,0.298,1.056-0.123,1.409l-5.927,4.973c-0.421,0.354-1.055,0.298-1.408-0.124
		l-2.129-2.536c-0.354-0.421-0.298-1.055,0.123-1.409l5.926-4.972c0.421-0.354,1.055-0.298,1.408,0.123L27.776,13.911z"/>
</g>
<g>
	<path fill="#FFFFFF" d="M14.567,27.021c0.477,0.275,0.642,0.89,0.366,1.366l-3.866,6.699c-0.275,0.477-0.89,0.641-1.366,0.366
		l-2.866-1.654c-0.477-0.275-0.642-0.89-0.366-1.366l3.868-6.699c0.275-0.477,0.89-0.641,1.366-0.366L14.567,27.021z"/>
</g>
<g>
	<path fill="#FFFFFF" d="M6.641,43.857c0.541,0.095,0.906,0.617,0.811,1.158l-1.342,7.62c-0.096,0.542-0.617,0.907-1.158,0.811
		l-3.26-0.576c-0.541-0.096-0.906-0.617-0.811-1.159l1.342-7.618c0.096-0.542,0.617-0.907,1.158-0.812L6.641,43.857z"/>
</g>
<g>
	<path fill="#FFFFFF" d="M4.951,62.392c0.542-0.095,1.063,0.271,1.159,0.812l1.341,7.617c0.096,0.541-0.27,1.063-0.811,1.158
		l-3.26,0.574c-0.541,0.096-1.063-0.27-1.158-0.811l-1.342-7.619c-0.096-0.541,0.27-1.063,0.811-1.158L4.951,62.392z"/>
</g>
<g>
	<path fill="#FFFFFF" d="M9.701,80.384c0.477-0.274,1.091-0.11,1.366,0.366l3.867,6.697c0.275,0.477,0.11,1.092-0.366,1.367
		l-2.866,1.654c-0.477,0.274-1.091,0.109-1.366-0.367l-3.868-6.699c-0.275-0.477-0.11-1.09,0.366-1.365L9.701,80.384z"/>
</g>
<g>
	<path fill="#FFFFFF" d="M20.318,95.668c0.354-0.422,0.987-0.477,1.408-0.123l5.926,4.971c0.422,0.354,0.478,0.986,0.124,1.408
		l-2.129,2.536c-0.354,0.421-0.987,0.477-1.408,0.123l-5.926-4.972c-0.421-0.354-0.477-0.987-0.123-1.408L20.318,95.668z"/>
</g>
<g>
	<path fill="#FFFFFF" d="M35.522,106.398c0.188-0.518,0.765-0.786,1.281-0.598l7.269,2.646c0.517,0.188,0.785,0.765,0.598,1.281
		l-1.131,3.109c-0.188,0.517-0.765,0.785-1.281,0.598l-7.271-2.646c-0.517-0.188-0.785-0.766-0.598-1.281L35.522,106.398z"/>
</g>
<g>
	<path fill="#FFFFFF" d="M53.481,111.281c0-0.551,0.45-1,1-1h7.734c0.55,0,1,0.449,1,1l-0.001,3.309c0,0.549-0.45,1-1,1h-7.735
		c-0.55,0-1-0.451-1-1L53.481,111.281z"/>
</g>
<g>
	<path fill="#FFFFFF" d="M72.023,109.729c-0.188-0.517,0.081-1.094,0.598-1.281l7.271-2.646c0.517-0.188,1.094,0.08,1.281,0.598
		l1.133,3.109c0.188,0.516-0.081,1.093-0.598,1.281l-7.272,2.646c-0.517,0.188-1.094-0.081-1.281-0.598L72.023,109.729z"/>
</g>
<g>
	<path fill="#FFFFFF" d="M88.92,101.924c-0.354-0.421-0.298-1.055,0.123-1.408l5.926-4.971c0.422-0.354,1.056-0.299,1.409,0.123
		l2.126,2.533c0.354,0.421,0.298,1.055-0.123,1.408l-5.925,4.974c-0.421,0.354-1.055,0.298-1.408-0.123L88.92,101.924z"/>
</g>
<g>
	<path fill="#FFFFFF" d="M102.128,88.814c-0.477-0.275-0.642-0.89-0.366-1.366l3.867-6.697c0.275-0.477,0.89-0.642,1.366-0.366
		l2.865,1.652c0.477,0.274,0.642,0.889,0.366,1.365l-3.867,6.702c-0.275,0.477-0.89,0.642-1.366,0.366L102.128,88.814z"/>
</g>
<g>
	<path fill="#FFFFFF" d="M110.054,71.979c-0.541-0.096-0.906-0.617-0.811-1.158l1.343-7.617c0.096-0.541,0.617-0.906,1.158-0.812
		l3.258,0.573c0.541,0.096,0.906,0.617,0.811,1.158l-1.34,7.62c-0.096,0.542-0.617,0.907-1.158,0.812L110.054,71.979z"/>
</g>
<g>
	<path fill="#FFFFFF" d="M111.744,53.445c-0.541,0.095-1.063-0.27-1.158-0.812l-1.343-7.618c-0.096-0.542,0.27-1.063,0.812-1.158
		l3.256-0.574c0.542-0.096,1.063,0.27,1.159,0.811l1.346,7.62c0.096,0.542-0.27,1.063-0.812,1.158L111.744,53.445z"/>
</g>
<g>
	<path fill="#FFFFFF" d="M106.995,35.452c-0.477,0.275-1.091,0.11-1.366-0.367l-3.866-6.697c-0.275-0.477-0.11-1.091,0.366-1.367
		l2.861-1.654c0.477-0.275,1.092-0.111,1.366,0.365l3.87,6.7c0.275,0.477,0.11,1.091-0.366,1.366L106.995,35.452z"/>
</g>
<g>
	<path fill="#FFFFFF" d="M96.378,20.167c-0.354,0.421-0.987,0.477-1.409,0.124l-5.926-4.971c-0.421-0.354-0.477-0.987-0.123-1.409
		l2.126-2.534c0.354-0.421,0.987-0.477,1.409-0.124l5.926,4.971c0.421,0.354,0.477,0.987,0.123,1.409L96.378,20.167z"/>
</g>
<g>
	<path fill="#FFFFFF" d="M81.173,9.438c-0.188,0.517-0.765,0.786-1.281,0.598l-7.271-2.647c-0.517-0.188-0.785-0.765-0.598-1.282
		L73.155,3c0.188-0.517,0.765-0.786,1.281-0.598l7.271,2.645c0.517,0.188,0.785,0.765,0.598,1.282L81.173,9.438z"/>
</g>
</svg>
