<?xml version="1.0" encoding="utf-8"?>
<!-- Generator: Adobe Illustrator 16.0.0, SVG Export Plug-In . SVG Version: 6.00 Build 0)  -->
<!DOCTYPE svg PUBLIC "-//W3C//DTD SVG 1.1//EN" "http://www.w3.org/Graphics/SVG/1.1/DTD/svg11.dtd">
<svg version="1.1" id="레이어_1" xmlns="http://www.w3.org/2000/svg" xmlns:xlink="http://www.w3.org/1999/xlink" x="0px"
	 y="0px" width="85px" height="50px" viewBox="0 0 85 50" enable-background="new 0 0 85 50" xml:space="preserve">
<path fill="#F4EBE2" d="M85,37.303C85,44.199,80.855,50,75.333,50H10.332C4.809,50,0,44.199,0,37.303V12.282
	C0,5.383,4.809,0,10.332,0h65.001C80.855,0,85,5.383,85,12.282V37.303z"/>
<path fill="#F79C7C" d="M75.166,4C78.344,4,81,7.638,81,12.282v25.02C81,42.018,78.404,46,75.333,46H10.332
	C7.343,46,4,42.279,4,37.302v-25.02C4,7.328,7.274,4,10.332,4H75 M75.333,0H10.332C4.809,0,0,5.383,0,12.282v25.02
	C0,44.199,4.809,50,10.332,50h65.001C80.855,50,85,44.199,85,37.302v-25.02C85,5.383,80.855,0,75.333,0L75.333,0z"/>
<g>
	<path fill="#754C24" d="M25.556,19.187h3.273c2.21,0,3.907,0.969,3.907,3.943c0,2.873-1.711,4.165-3.854,4.165h-1.334v4.471h-1.993
		L25.556,19.187L25.556,19.187z M28.748,25.306c1.375,0,2.035-0.731,2.035-2.176c0-1.462-0.728-1.955-2.103-1.955h-1.132v4.13
		L28.748,25.306L28.748,25.306z"/>
	<path fill="#754C24" d="M33.452,29.182c0-2.039,1.307-3.109,4.338-3.519c-0.026-0.935-0.35-1.648-1.279-1.648
		c-0.701,0-1.375,0.391-2.075,0.901l-0.714-1.649c0.889-0.697,1.967-1.258,3.152-1.258c1.913,0,2.896,1.445,2.896,4.198v5.559
		h-1.616l-0.148-1.021h-0.04c-0.66,0.715-1.415,1.258-2.277,1.258C34.341,32.003,33.452,30.797,33.452,29.182z M37.79,29.114v-1.923
		c-1.832,0.308-2.452,0.937-2.452,1.785c0,0.748,0.418,1.071,0.997,1.071C36.901,30.049,37.318,29.709,37.79,29.114z"/>
	<path fill="#754C24" d="M41.079,30.661l0.902-1.563c0.674,0.662,1.32,1.036,2.021,1.036c0.754,0,1.091-0.407,1.091-1.003
		c0-0.714-0.78-1.037-1.575-1.428c-0.958-0.459-2.063-1.189-2.063-2.771c0-1.717,1.104-2.923,2.803-2.923
		c1.104,0,1.94,0.578,2.573,1.173l-0.89,1.513c-0.539-0.476-1.064-0.816-1.631-0.816c-0.674,0-0.996,0.374-0.996,0.918
		c0,0.697,0.74,0.952,1.535,1.326c0.998,0.477,2.103,1.105,2.103,2.873c0,1.666-1.037,3.008-3.005,3.008
		C42.938,32.003,41.82,31.441,41.079,30.661z"/>
	<path fill="#754C24" d="M48.438,28.436v-4.217h-1.064v-1.853l1.158-0.119l0.229-2.55h1.657v2.55h1.858v1.972h-1.858v4.217
		c0,1.088,0.351,1.598,1.022,1.598c0.244,0,0.539-0.104,0.742-0.205l0.322,1.818c-0.404,0.17-0.93,0.356-1.59,0.356
		C49.123,32.003,48.438,30.575,48.438,28.436z"/>
	<path fill="#754C24" d="M53.126,29.182c0-2.039,1.308-3.109,4.338-3.519c-0.026-0.935-0.35-1.648-1.278-1.648
		c-0.701,0-1.375,0.391-2.076,0.901l-0.713-1.649c0.889-0.697,1.967-1.258,3.151-1.258c1.913,0,2.896,1.445,2.896,4.198v5.559
		h-1.615l-0.148-1.021h-0.039c-0.66,0.715-1.416,1.258-2.277,1.258C54.016,32.003,53.126,30.797,53.126,29.182z M57.464,29.114
		v-1.923c-1.832,0.308-2.452,0.937-2.452,1.785c0,0.748,0.418,1.071,0.997,1.071C56.575,30.049,56.992,29.709,57.464,29.114z"/>
</g>
</svg>
