<?xml version="1.0" encoding="utf-8"?>
<!-- Generator: Adobe Illustrator 16.0.0, SVG Export Plug-In . SVG Version: 6.00 Build 0)  -->
<!DOCTYPE svg PUBLIC "-//W3C//DTD SVG 1.1//EN" "http://www.w3.org/Graphics/SVG/1.1/DTD/svg11.dtd">
<svg version="1.1" id="레이어_1" xmlns="http://www.w3.org/2000/svg" xmlns:xlink="http://www.w3.org/1999/xlink" x="0px"
	 y="0px" width="85px" height="50px" viewBox="0 0 85 50" enable-background="new 0 0 85 50" xml:space="preserve">
<path fill="#F4EBE2" d="M85,37.303C85,44.199,80.855,50,75.333,50H10.332C4.809,50,0,44.199,0,37.303V12.282
	C0,5.383,4.809,0,10.332,0h65.001C80.855,0,85,5.383,85,12.282V37.303z"/>
<path fill="#F79C7C" d="M75.166,4C78.344,4,81,7.638,81,12.282v25.02C81,42.018,78.404,46,75.333,46H10.332
	C7.343,46,4,42.279,4,37.302v-25.02C4,7.328,7.274,4,10.332,4H75 M75.333,0H10.332C4.809,0,0,5.383,0,12.282v25.02
	C0,44.199,4.809,50,10.332,50h65.001C80.855,50,85,44.199,85,37.302v-25.02C85,5.383,80.855,0,75.333,0L75.333,0z"/>
<g>
	<path fill="#754C24" d="M44.217,10.103h1.59l-4.021,13.795h-1.589L44.217,10.103z"/>
	<path fill="#754C24" d="M16.49,23.266l-2.047-4.76h-1.389v4.76H11.06V10.687h3.477c2.088,0,3.746,0.918,3.746,3.808
		c0,1.887-0.755,3.06-1.9,3.621l2.331,5.15H16.49z M13.055,16.517h1.294c1.28,0,1.98-0.68,1.98-2.022c0-1.36-0.7-1.819-1.98-1.819
		h-1.294V16.517z"/>
	<path fill="#754C24" d="M19.9,10.857c0-0.816,0.499-1.36,1.186-1.36c0.674,0,1.173,0.544,1.173,1.36c0,0.782-0.499,1.36-1.173,1.36
		C20.399,12.217,19.9,11.639,19.9,10.857z M20.09,13.747h1.967v9.519H20.09V13.747z"/>
	<path fill="#754C24" d="M23.715,18.523c0-3.179,1.805-5.014,3.854-5.014c0.93,0,1.643,0.459,2.195,1.054l-0.943,1.615
		c-0.377-0.408-0.727-0.629-1.158-0.629c-1.145,0-1.927,1.173-1.927,2.975c0,1.785,0.782,2.941,1.873,2.941
		c0.538,0,1.051-0.323,1.468-0.765l0.782,1.649c-0.714,0.799-1.63,1.156-2.466,1.156C25.305,23.503,23.715,21.668,23.715,18.523z"/>
	<path fill="#754C24" d="M30.411,18.523c0-3.094,1.712-5.014,3.517-5.014c2.075,0,3.152,1.92,3.152,4.555
		c0,0.459-0.04,0.918-0.094,1.139h-4.648c0.162,1.564,0.971,2.38,2.088,2.38c0.62,0,1.159-0.238,1.698-0.663l0.674,1.53
		c-0.741,0.646-1.698,1.054-2.642,1.054C32.055,23.503,30.411,21.651,30.411,18.523z M35.383,17.554
		c0-1.292-0.458-2.108-1.428-2.108c-0.795,0-1.496,0.714-1.645,2.108H35.383z"/>
	<path fill="#754C24" d="M36.363,40.266l-2.049-4.76h-1.387v4.76h-1.994V27.688h3.476c2.089,0,3.745,0.918,3.745,3.81
		c0,1.887-0.754,3.06-1.898,3.62l2.33,5.148H36.363z M32.928,33.518h1.293c1.279,0,1.98-0.681,1.98-2.021
		c0-1.36-0.701-1.819-1.98-1.819h-1.293V33.518z"/>
	<path fill="#754C24" d="M39.773,27.855c0-0.814,0.498-1.358,1.186-1.358c0.674,0,1.172,0.544,1.172,1.358
		c0,0.783-0.498,1.359-1.172,1.359C40.271,29.217,39.773,28.639,39.773,27.855z M39.961,30.747h1.968v9.519h-1.968V30.747z"/>
	<path fill="#754C24" d="M43.344,39.161l0.902-1.563c0.674,0.662,1.32,1.036,2.021,1.036c0.754,0,1.092-0.407,1.092-1.003
		c0-0.714-0.781-1.037-1.576-1.428c-0.957-0.459-2.063-1.189-2.063-2.771c0-1.717,1.104-2.924,2.803-2.924
		c1.104,0,1.938,0.578,2.574,1.174l-0.892,1.512c-0.539-0.477-1.063-0.814-1.63-0.814c-0.676,0-0.998,0.375-0.998,0.918
		c0,0.697,0.74,0.952,1.537,1.326c0.994,0.479,2.102,1.104,2.102,2.873c0,1.666-1.035,3.008-3.005,3.008
		C45.203,40.503,44.085,39.941,43.344,39.161z"/>
	<path fill="#754C24" d="M50.256,35.521c0-3.179,1.738-5.015,3.625-5.015s3.625,1.836,3.625,5.015c0,3.146-1.738,4.979-3.625,4.979
		S50.256,38.668,50.256,35.521z M55.484,35.521c0-1.801-0.58-2.976-1.604-2.976s-1.604,1.175-1.604,2.976
		c0,1.785,0.58,2.94,1.604,2.94S55.484,37.309,55.484,35.521z"/>
	<path fill="#754C24" d="M59.068,36.936v-4.218h-1.064v-1.852l1.16-0.119l0.229-2.552h1.657v2.552h1.859v1.971H61.05v4.218
		c0,1.088,0.351,1.599,1.024,1.599c0.242,0,0.539-0.104,0.74-0.205l0.324,1.817c-0.404,0.17-0.932,0.356-1.592,0.356
		C59.756,40.503,59.068,39.075,59.068,36.936z"/>
	<path fill="#754C24" d="M64.419,36.936v-4.218h-1.063v-1.852l1.158-0.119l0.229-2.552H66.4v2.552h1.857v1.971H66.4v4.218
		c0,1.088,0.35,1.599,1.021,1.599c0.242,0,0.539-0.104,0.74-0.205l0.322,1.817c-0.402,0.17-0.93,0.356-1.59,0.356
		C65.105,40.503,64.419,39.075,64.419,36.936z"/>
	<path fill="#754C24" d="M69.068,35.521c0-3.179,1.738-5.015,3.623-5.015c1.887,0,3.625,1.836,3.625,5.015
		c0,3.146-1.738,4.979-3.625,4.979C70.807,40.502,69.068,38.668,69.068,35.521z M74.296,35.521c0-1.801-0.579-2.976-1.604-2.976
		c-1.023,0-1.604,1.175-1.604,2.976c0,1.785,0.579,2.94,1.604,2.94C73.717,38.463,74.296,37.309,74.296,35.521z"/>
</g>
</svg>
