<?xml version="1.0" encoding="utf-8"?>
<!-- Generator: Adobe Illustrator 16.0.0, SVG Export Plug-In . SVG Version: 6.00 Build 0)  -->
<!DOCTYPE svg PUBLIC "-//W3C//DTD SVG 1.1//EN" "http://www.w3.org/Graphics/SVG/1.1/DTD/svg11.dtd">
<svg version="1.1" id="레이어_1" xmlns="http://www.w3.org/2000/svg" xmlns:xlink="http://www.w3.org/1999/xlink" x="0px"
	 y="0px" width="85px" height="50px" viewBox="0 0 85 50" enable-background="new 0 0 85 50" xml:space="preserve">
<path fill="#F4EBE2" d="M85,37.303C85,44.199,80.855,50,75.333,50H10.332C4.809,50,0,44.199,0,37.303V12.282
	C0,5.383,4.809,0,10.332,0h65.001C80.855,0,85,5.383,85,12.282V37.303z"/>
<path fill="#F79C7C" d="M75.166,4C78.344,4,81,7.638,81,12.282v25.02C81,42.018,78.404,46,75.333,46H10.332
	C7.343,46,4,42.279,4,37.302v-25.02C4,7.328,7.274,4,10.332,4H75 M75.333,0H10.332C4.809,0,0,5.383,0,12.282v25.02
	C0,44.199,4.809,50,10.332,50h65.001C80.855,50,85,44.199,85,37.302v-25.02C85,5.383,80.855,0,75.333,0L75.333,0z"/>
<g>
	<path fill="#754C24" d="M64.217,10.103h1.59l-4.021,13.795h-1.59L64.217,10.103z"/>
	<path fill="#754C24" d="M18.159,27.342h3.302c2.048,0,3.61,0.748,3.61,3.094c0,1.156-0.512,2.348-1.36,2.723v0.084
		c1.077,0.322,1.872,1.273,1.872,2.975c0,2.533-1.67,3.706-3.866,3.706h-3.558V27.342z M21.313,32.459
		c1.267,0,1.819-0.646,1.819-1.648c0-1.104-0.594-1.547-1.793-1.547h-1.186v3.195H21.313z M21.542,37.982
		c1.36,0,2.102-0.611,2.102-1.92c0-1.227-0.728-1.734-2.102-1.734h-1.389v3.654H21.542z"/>
	<path fill="#754C24" d="M26.703,35.178c0-3.094,1.712-5.014,3.517-5.014c2.075,0,3.152,1.92,3.152,4.555
		c0,0.459-0.04,0.918-0.094,1.141H28.63c0.162,1.563,0.971,2.381,2.088,2.381c0.62,0,1.159-0.238,1.698-0.663l0.674,1.528
		c-0.741,0.646-1.698,1.055-2.642,1.055C28.347,40.158,26.703,38.307,26.703,35.178z M31.675,34.209
		c0-1.291-0.458-2.107-1.428-2.107c-0.795,0-1.496,0.715-1.645,2.107H31.675z"/>
	<path fill="#754C24" d="M34.074,30.402h1.994l1.104,4.742c0.189,0.935,0.404,1.92,0.607,2.89h0.066
		c0.189-0.97,0.404-1.955,0.606-2.89l1.104-4.742h1.9l-2.52,9.519h-2.291L34.074,30.402z"/>
	<path fill="#754C24" d="M42.132,35.178c0-3.094,1.712-5.014,3.519-5.014c2.074,0,3.151,1.92,3.151,4.555
		c0,0.459-0.041,0.918-0.094,1.141h-4.647c0.16,1.563,0.969,2.381,2.088,2.381c0.619,0,1.158-0.238,1.697-0.663l0.674,1.528
		c-0.74,0.646-1.696,1.055-2.642,1.055C43.775,40.158,42.132,38.307,42.132,35.178z M47.104,34.209c0-1.291-0.459-2.107-1.429-2.107
		c-0.795,0-1.495,0.715-1.644,2.107H47.104z"/>
	<path fill="#754C24" d="M50.434,30.402h1.616l0.136,1.682h0.055c0.553-1.24,1.359-1.92,2.143-1.92c0.417,0,0.66,0.085,0.891,0.203
		l-0.352,2.16c-0.257-0.104-0.472-0.154-0.781-0.154c-0.593,0-1.308,0.494-1.736,1.871v5.677h-1.969v-9.519H50.434z"/>
	<path fill="#754C24" d="M55.514,37.337c0-2.04,1.307-3.11,4.338-3.519c-0.024-0.937-0.351-1.648-1.278-1.648
		c-0.7,0-1.374,0.391-2.074,0.9l-0.715-1.648c0.89-0.697,1.968-1.258,3.151-1.258c1.914,0,2.897,1.445,2.897,4.197v5.56h-1.617
		L60.066,38.9h-0.041c-0.659,0.715-1.414,1.258-2.275,1.258C56.402,40.158,55.514,38.952,55.514,37.337z M59.852,37.27v-1.922
		c-1.832,0.307-2.451,0.938-2.451,1.785c0,0.748,0.418,1.071,0.996,1.071C58.962,38.204,59.38,37.864,59.852,37.27z"/>
	<path fill="#754C24" d="M63.355,41.604c0-0.799,0.392-1.479,1.078-1.972v-0.085c-0.393-0.322-0.688-0.816-0.688-1.598
		c0-0.715,0.391-1.377,0.835-1.785v-0.068c-0.514-0.476-0.997-1.377-0.997-2.479c0-2.244,1.44-3.451,3.045-3.451
		c0.418,0,0.822,0.104,1.132,0.236h2.723v1.838h-1.293c0.201,0.32,0.351,0.85,0.351,1.443c0,2.143-1.293,3.229-2.91,3.229
		c-0.297,0-0.646-0.085-0.971-0.222c-0.216,0.222-0.322,0.44-0.322,0.815c0,0.511,0.296,0.781,1.187,0.781h1.278
		c1.819,0,2.804,0.714,2.804,2.38c0,1.921-1.576,3.382-4.097,3.382C64.73,44.051,63.355,43.287,63.355,41.604z M68.718,41.094
		c0-0.68-0.442-0.85-1.252-0.85H66.55c-0.459,0-0.782-0.051-1.052-0.137c-0.337,0.34-0.499,0.715-0.499,1.104
		c0,0.799,0.701,1.26,1.808,1.26C67.938,42.471,68.718,41.842,68.718,41.094z M67.802,33.615c0-1.123-0.497-1.752-1.172-1.752
		c-0.674,0-1.187,0.629-1.187,1.752c0,1.121,0.524,1.75,1.187,1.75S67.802,34.736,67.802,33.615z"/>
	<path fill="#754C24" d="M71.171,35.178c0-3.094,1.712-5.014,3.519-5.014c2.074,0,3.151,1.92,3.151,4.555
		c0,0.459-0.041,0.918-0.094,1.141H73.1c0.16,1.563,0.969,2.381,2.088,2.381c0.619,0,1.158-0.238,1.696-0.663l0.675,1.528
		c-0.74,0.646-1.697,1.055-2.642,1.055C72.814,40.158,71.171,38.307,71.171,35.178z M76.145,34.209c0-1.291-0.459-2.107-1.43-2.107
		c-0.795,0-1.494,0.715-1.645,2.107H76.145z"/>
	<path fill="#754C24" d="M7.657,10.01h2.736c3.045,0,4.931,1.989,4.931,6.238c0,4.232-1.886,6.34-4.823,6.34H7.657V10.01z
		 M10.271,20.566c1.859,0,3.019-1.258,3.019-4.317c0-3.077-1.159-4.232-3.019-4.232h-0.62v8.55L10.271,20.566L10.271,20.566z"/>
	<path fill="#754C24" d="M16.646,17.846c0-3.094,1.711-5.014,3.517-5.014c2.075,0,3.153,1.92,3.153,4.555
		c0,0.459-0.041,0.918-0.095,1.139h-4.648c0.161,1.564,0.97,2.38,2.089,2.38c0.619,0,1.158-0.238,1.697-0.663l0.674,1.53
		c-0.741,0.646-1.697,1.054-2.641,1.054C18.29,22.827,16.646,20.974,16.646,17.846z M21.617,16.877c0-1.292-0.458-2.108-1.429-2.108
		c-0.795,0-1.495,0.714-1.643,2.108H21.617z"/>
	<path fill="#754C24" d="M24.231,21.484l0.903-1.564c0.674,0.663,1.32,1.037,2.021,1.037c0.756,0,1.092-0.408,1.092-1.003
		c0-0.714-0.781-1.037-1.576-1.428c-0.957-0.459-2.062-1.19-2.062-2.771c0-1.717,1.104-2.923,2.803-2.923
		c1.104,0,1.94,0.578,2.573,1.173l-0.889,1.513c-0.539-0.476-1.064-0.816-1.631-0.816c-0.674,0-0.997,0.374-0.997,0.918
		c0,0.697,0.741,0.952,1.536,1.326c0.997,0.476,2.102,1.105,2.102,2.873c0,1.666-1.037,3.008-3.004,3.008
		C26.091,22.827,24.974,22.266,24.231,21.484z"/>
	<path fill="#754C24" d="M30.902,21.484l0.903-1.564c0.674,0.663,1.32,1.037,2.021,1.037c0.755,0,1.091-0.408,1.091-1.003
		c0-0.714-0.781-1.037-1.576-1.428c-0.956-0.459-2.061-1.19-2.061-2.771c0-1.717,1.104-2.923,2.803-2.923
		c1.104,0,1.939,0.578,2.572,1.173l-0.889,1.513c-0.539-0.476-1.064-0.816-1.631-0.816c-0.674,0-0.996,0.374-0.996,0.918
		c0,0.697,0.74,0.952,1.535,1.326c0.998,0.476,2.102,1.105,2.102,2.873c0,1.666-1.037,3.008-3.004,3.008
		C32.762,22.827,31.644,22.266,30.902,21.484z"/>
	<path fill="#754C24" d="M37.815,17.846c0-3.094,1.711-5.014,3.517-5.014c2.075,0,3.152,1.92,3.152,4.555
		c0,0.459-0.041,0.918-0.094,1.139h-4.648c0.161,1.564,0.97,2.38,2.089,2.38c0.619,0,1.158-0.238,1.696-0.663l0.675,1.53
		c-0.741,0.646-1.697,1.054-2.641,1.054C39.46,22.827,37.815,20.974,37.815,17.846z M42.787,16.877c0-1.292-0.458-2.108-1.429-2.108
		c-0.795,0-1.495,0.714-1.643,2.108H42.787z"/>
	<path fill="#754C24" d="M46.116,13.07h1.616l0.136,1.683h0.053c0.554-1.241,1.361-1.92,2.144-1.92c0.418,0,0.66,0.085,0.891,0.204
		l-0.352,2.159c-0.256-0.102-0.472-0.153-0.78-0.153c-0.595,0-1.308,0.493-1.738,1.87v5.677h-1.967L46.116,13.07L46.116,13.07z"/>
	<path fill="#754C24" d="M52.273,19.257v-4.216H51.21v-1.853l1.158-0.119l0.229-2.55h1.655v2.55h1.858v1.972h-1.858v4.216
		c0,1.088,0.351,1.598,1.022,1.598c0.242,0,0.539-0.102,0.74-0.204l0.323,1.819c-0.403,0.17-0.93,0.357-1.59,0.357
		C52.962,22.827,52.273,21.399,52.273,19.257z"/>
</g>
</svg>
