<?xml version="1.0" encoding="utf-8"?>
<!-- Generator: Adobe Illustrator 16.0.0, SVG Export Plug-In . SVG Version: 6.00 Build 0)  -->
<!DOCTYPE svg PUBLIC "-//W3C//DTD SVG 1.1//EN" "http://www.w3.org/Graphics/SVG/1.1/DTD/svg11.dtd">
<svg version="1.1" id="레이어_1" xmlns="http://www.w3.org/2000/svg" xmlns:xlink="http://www.w3.org/1999/xlink" x="0px"
	 y="0px" width="72px" height="72px" viewBox="0 0 72 72" enable-background="new 0 0 72 72" xml:space="preserve">
<g>
	<path opacity="0.8" fill="#E8F4D9" d="M8.297,70C4.884,70,2,66.907,2,63.247V8.19C2,4.661,4.707,2,8.297,2h55.125
		C67.11,2,70,4.719,70,8.19v55.057C70,66.845,66.926,70,63.422,70H8.297z"/>
	<path fill="#ED1C24" d="M63.211,4C65.778,4,68,5.84,68,8.19v55.057C68,65.734,65.818,68,63.422,68H8.297
		C5.968,68,4,65.823,4,63.247V8.19C4,5.762,5.807,4,8.297,4H63 M63.422,0H8.297C3.638,0,0,3.512,0,8.19v55.057
		C0,67.925,3.638,72,8.297,72h55.125C68.083,72,72,67.925,72,63.247V8.19C72,3.512,68.083,0,63.422,0L63.422,0z"/>
</g>
<g>
	<path fill="#754C24" d="M35.062,25.281h-8.101v7.105h-3.029v-7.105h-7.964v-2.414h19.094V25.281z M16.863,19.279
		c4.314-0.528,6.563-2.598,6.861-4.622h-6.081v-2.414h15.674v2.414h-5.989c0.298,2.024,2.524,4.094,6.815,4.622l-1.078,2.369
		c-3.695-0.506-6.288-2.093-7.551-4.254c-1.262,2.161-3.855,3.748-7.55,4.254L16.863,19.279z"/>
	<path fill="#754C24" d="M56.17,21.625v2.392h-7.78v3.61H45.36v-3.61h-8.33v-2.392H56.17z M42.286,29.559h11.772v2.414H39.257v-6.14
		h3.029V29.559z M53.737,19.946H39.394V12.06h14.344V19.946z M50.754,14.428h-8.376v3.127h8.376V14.428z"/>
	<path fill="#754C24" d="M23.541,41.89h4.59v2.414H15.83V41.89h4.682v-2.76h3.029V41.89z M27.374,50.536
		c0,2.988-2.272,5.082-5.324,5.082c-3.075,0-5.37-2.094-5.37-5.082c0-2.943,2.295-5.035,5.37-5.035
		C25.102,45.501,27.374,47.593,27.374,50.536z M24.505,50.536c0-1.586-1.032-2.576-2.455-2.576s-2.479,0.99-2.479,2.6
		s1.056,2.574,2.479,2.574S24.505,52.169,24.505,50.536z M35.567,49.548h-3.029V59.94h-3.03V38.763h3.03v8.277h3.029V49.548z"/>
	<path fill="#754C24" d="M48.367,40.946c0,6.486-2.181,11.773-9.685,15.408l-1.584-2.393c5.394-2.598,7.734-5.91,8.17-10.6h-7.045
		v-2.416H48.367z M54.655,38.739v21.178h-3.053V38.739H54.655z"/>
</g>
<text transform="matrix(0.9975 0 0 1 -57.9409 31.2905)"><tspan x="0" y="0" fill="#754C24" font-family="'NotoSansCJKkr-Bold-KSCpc-EUC-H'" font-size="23">주문</tspan><tspan x="0" y="27.6" fill="#754C24" font-family="'NotoSansCJKkr-Bold-KSCpc-EUC-H'" font-size="23">하기</tspan></text>
</svg>
