<?xml version="1.0" encoding="utf-8"?>
<!-- Generator: Adobe Illustrator 16.0.0, SVG Export Plug-In . SVG Version: 6.00 Build 0)  -->
<!DOCTYPE svg PUBLIC "-//W3C//DTD SVG 1.1//EN" "http://www.w3.org/Graphics/SVG/1.1/DTD/svg11.dtd">
<svg version="1.1" id="레이어_1" xmlns="http://www.w3.org/2000/svg" xmlns:xlink="http://www.w3.org/1999/xlink" x="0px"
	 y="0px" width="645px" height="251px" viewBox="0 0 645 251" enable-background="new 0 0 645 251" xml:space="preserve">
<g>
	<g>
		<g>
			<rect x="115.797" y="77.871" fill="#FFFFFF" width="413.387" height="18.423"/>
		</g>
		<g>
			<g>
				<g>
					<rect x="218.572" y="153.27" fill="#FFFFFF" width="16.16" height="76.158"/>
				</g>
				<g>
					<rect x="218.572" y="213.274" fill="#FFFFFF" width="41.075" height="16.153"/>
				</g>
				<g>
					<rect x="253.289" y="209.09" fill="#1A3B86" width="12.699" height="24.517"/>
				</g>
				<g>
					
						<rect x="243.13" y="93.98" transform="matrix(0.7071 0.7071 -0.7071 0.7071 166.9501 -138.9511)" fill="#FFFFFF" width="16.159" height="76.155"/>
				</g>
			</g>
			<g>
				<g>
					<rect x="410.268" y="153.27" fill="#FFFFFF" width="16.154" height="76.158"/>
				</g>
				<g>
					<rect x="385.355" y="213.274" fill="#FFFFFF" width="41.066" height="16.153"/>
				</g>
				<g>
					<rect x="378.996" y="209.09" fill="#1A3B86" width="12.699" height="24.517"/>
				</g>
				<g>
					<polygon fill="#FFFFFF" points="414.996,164.695 426.422,153.27 372.561,99.419 361.146,110.845 					"/>
				</g>
			</g>
		</g>
		<g>
			<path fill="#1A3B86" d="M322.496,7.125c-35.48,0-66.222,20.269-81.288,49.87h162.568C388.721,27.394,357.98,7.125,322.496,7.125z
				"/>
		</g>
		<g>
			<g>
				<rect x="220.154" y="56.995" fill="#285DA0" width="204.672" height="60.356"/>
			</g>
			<g>
				<path fill="#285DA0" d="M250.331,87.171c0,16.672-13.497,30.179-30.177,30.179c-16.664,0-30.179-13.507-30.179-30.179
					c0-16.664,13.516-30.177,30.179-30.177C236.833,56.995,250.331,70.507,250.331,87.171z"/>
			</g>
			<g>
				<path fill="#285DA0" d="M455.002,87.171c0,16.672-13.508,30.179-30.176,30.179c-16.66,0-30.174-13.507-30.174-30.179
					c0-16.664,13.514-30.177,30.174-30.177C441.494,56.995,455.002,70.507,455.002,87.171z"/>
			</g>
		</g>
		<g>
			<rect x="109.529" y="17.457" fill="#C4C5C4" width="12.551" height="44.21"/>
		</g>
		<g>
			<path fill="#FFFFFF" d="M115.797,11.863c0,0,115.606,25.562,115.606,0C231.403-13.705,115.797,11.863,115.797,11.863z"/>
		</g>
		<g>
			<path fill="#FFFFFF" d="M115.797,11.863c0,0-115.59-25.568-115.59,0C0.207,37.425,115.797,11.863,115.797,11.863z"/>
		</g>
		<g>
			<rect x="522.914" y="17.457" fill="#C4C5C4" width="12.551" height="44.21"/>
		</g>
		<g>
			<path fill="#FFFFFF" d="M529.184,11.863c0,0,115.609,25.562,115.609,0C644.793-13.705,529.184,11.863,529.184,11.863z"/>
		</g>
		<g>
			<path fill="#FFFFFF" d="M529.184,11.863c0,0-115.592-25.568-115.592,0C413.592,37.425,529.184,11.863,529.184,11.863z"/>
		</g>
		<g>
			<g>
				<rect x="266.477" y="192.566" fill="#F4BB26" width="113.021" height="57.934"/>
			</g>
			<g>
				<polygon fill="#F4BB26" points="379.498,192.566 266.477,192.566 285.626,162.202 360.348,162.202 				"/>
			</g>
			<g>
				<polygon fill="#EEEEEF" points="328.727,250.5 317.25,250.5 317.25,192.566 319.157,162.202 326.814,162.202 328.727,192.566 
									"/>
			</g>
			<g>
				<polygon fill="#EEEEEF" points="368.113,174.511 277.861,174.511 272.436,183.121 373.533,183.121 				"/>
			</g>
			<g opacity="0.3">
				<polygon fill="#FFFFFF" points="379.498,192.566 266.477,192.566 285.626,162.202 360.348,162.202 				"/>
			</g>
		</g>
		<g>
			<path fill="#1A3B86" d="M448.932,68.994H196.065c-3.811,5.055-6.091,11.354-6.091,18.177c0,6.505,2.074,12.522,5.576,17.461
				h253.893c3.508-4.939,5.559-10.956,5.559-17.461C455.002,80.349,452.74,74.049,448.932,68.994z"/>
		</g>
		<g>
			<path fill="#FFFFFF" d="M299.419,86.817c0-13.027,10.544-23.584,23.565-23.584c13.027,0,23.586,10.557,23.586,23.584
				c0,13.019-10.559,23.571-23.586,23.571C309.963,110.388,299.419,99.836,299.419,86.817z"/>
		</g>
		<g>
			<path fill="#285DA0" d="M312.813,86.817c0-5.628,4.556-10.188,10.171-10.188c5.621,0,10.189,4.559,10.189,10.188
				c0,5.621-4.568,10.171-10.189,10.171C317.369,96.989,312.813,92.438,312.813,86.817z"/>
		</g>
		<g>
			<path fill="#285DA0" d="M115.797,7.713c-4.155,0-7.705,3.452-9.091,8.296h18.186C123.515,11.166,119.968,7.713,115.797,7.713z"/>
		</g>
		<g>
			<path fill="#285DA0" d="M529.184,7.713c-4.152,0-7.701,3.452-9.092,8.296h18.184C536.902,11.166,533.352,7.713,529.184,7.713z"/>
		</g>
		<g>
			<rect x="97.139" y="72.01" fill="#1A3B86" width="37.316" height="29.606"/>
		</g>
		<g>
			<rect x="510.525" y="72.01" fill="#1A3B86" width="37.316" height="29.606"/>
		</g>
		<g>
			<rect x="92.939" y="60.315" fill="#285DA0" width="45.715" height="14.601"/>
		</g>
		<g>
			<rect x="506.326" y="60.315" fill="#285DA0" width="45.715" height="14.601"/>
		</g>
		<g>
			<rect x="104.857" y="13.562" fill="#1A3B86" width="21.896" height="7.784"/>
		</g>
		<g>
			<rect x="518.244" y="13.562" fill="#285DA0" width="21.896" height="7.784"/>
		</g>
		<g>
			<path fill="#285DA0" d="M259.868,32.05h125.261c-16.334-15.449-38.367-24.926-62.633-24.926
				C298.236,7.125,276.191,16.602,259.868,32.05z"/>
		</g>
	</g>
	<g>
		<rect x="115.797" y="21.345" fill="#AEAFAE" width="6.284" height="38.97"/>
	</g>
	<g>
		<rect x="522.914" y="21.345" fill="#AEAFAE" width="6.27" height="38.97"/>
	</g>
</g>
</svg>
