<?xml version="1.0" encoding="utf-8"?>
<!-- Generator: Adobe Illustrator 16.0.0, SVG Export Plug-In . SVG Version: 6.00 Build 0)  -->
<!DOCTYPE svg PUBLIC "-//W3C//DTD SVG 1.1//EN" "http://www.w3.org/Graphics/SVG/1.1/DTD/svg11.dtd">
<svg version="1.1" id="레이어_1" xmlns="http://www.w3.org/2000/svg" xmlns:xlink="http://www.w3.org/1999/xlink" x="0px"
	 y="0px" width="182px" height="202px" viewBox="0 0 182 202" enable-background="new 0 0 182 202" xml:space="preserve">
<g>
	<g>
		<g>
			<g>
				<g>
					<g>
						<path fill="#5C5B5B" d="M46.35,16.765c-19.379,0-35.134,15.761-35.134,35.131c0,19.371,15.755,35.133,35.134,35.133
							c19.367,0,35.129-15.762,35.129-35.133C81.479,32.526,65.717,16.765,46.35,16.765z M46.35,23.369
							c13.525,0,24.879,9.461,27.79,22.112c-3.406-1.524-12.291-4.65-27.79-4.65c-15.506,0-24.394,3.126-27.802,4.65
							C21.458,32.83,32.817,23.369,46.35,23.369z M17.887,53.881l15.324-4.493c1.481-0.44,3.455,0.21,4.387,1.441l3.213,4.243
							c0.931,1.235,1.493,3.488,1.239,5.012l-3.144,19.353C27.387,76.325,18.736,66.162,17.887,53.881z M53.782,79.438
							l-3.148-19.353c-0.246-1.524,0.313-3.776,1.244-5.012l3.21-4.243c0.935-1.231,2.904-1.881,4.39-1.441l15.327,4.493
							C73.953,66.162,65.303,76.325,53.782,79.438z"/>
					</g>
				</g>
			</g>
			<g>
				<g>
					<g>
						<g>
							<path fill="#AEAFAE" d="M17.655,23.305c-0.5,0-1.002-0.201-1.369-0.593c-0.713-0.756-0.677-1.947,0.082-2.656
								C24.506,12.386,35.152,8.164,46.35,8.164c7.787,0,15.432,2.071,22.113,5.998c0.897,0.524,1.199,1.677,0.672,2.576
								c-0.531,0.895-1.684,1.195-2.579,0.669c-6.1-3.584-13.09-5.48-20.207-5.48c-10.231,0-19.96,3.86-27.408,10.868
								C18.581,23.134,18.119,23.305,17.655,23.305z"/>
						</g>
					</g>
				</g>
				<g>
					<g>
						<g>
							<path fill="#AEAFAE" d="M4.914,47.822c-0.086,0-0.179-0.007-0.266-0.019c-1.031-0.147-1.749-1.101-1.593-2.13
								c0.921-6.495,3.351-12.805,7.045-18.251c0.579-0.86,1.744-1.086,2.607-0.502c0.859,0.578,1.086,1.751,0.502,2.615
								c-3.414,5.044-5.574,10.652-6.433,16.67C6.642,47.143,5.835,47.822,4.914,47.822z"/>
						</g>
					</g>
				</g>
				<g>
					<g>
						<g>
							<path fill="#AEAFAE" d="M34.389,93.897c-0.18,0-0.361-0.026-0.534-0.079c-8.349-2.485-15.709-7.367-21.271-14.126
								C6.936,72.85,3.548,64.573,2.78,55.76c-0.096-1.036,0.677-1.95,1.706-2.041c1.034-0.089,1.947,0.673,2.043,1.708
								C7.943,71.602,19.351,85.577,34.924,90.21c0.993,0.299,1.56,1.345,1.266,2.342C35.951,93.365,35.2,93.897,34.389,93.897z"/>
						</g>
					</g>
				</g>
				<g>
					<g>
						<g>
							<path fill="#AEAFAE" d="M63.777,91.833c-0.71,0-1.392-0.403-1.706-1.097c-0.428-0.944-0.021-2.062,0.923-2.494
								c14.167-6.499,23.322-20.767,23.322-36.347c0-10.238-3.866-19.973-10.89-27.418c-0.71-0.753-0.677-1.945,0.082-2.658
								c0.756-0.714,1.947-0.679,2.655,0.077c7.684,8.146,11.916,18.8,11.916,30c0,17.047-10.019,32.658-25.511,39.769
								C64.315,91.782,64.045,91.833,63.777,91.833z"/>
						</g>
					</g>
				</g>
			</g>
			<g>
				<g>
					<g>
						<g>
							<path fill="#D9DADA" d="M83.75,22.505c-0.543,0-1.079-0.235-1.452-0.683c-5.33-6.438-12.32-11.349-20.214-14.214
								C50.732,3.491,38.388,3.855,27.305,8.636c-0.955,0.412-2.062-0.031-2.471-0.984c-0.416-0.952,0.029-2.06,0.979-2.471
								c11.966-5.162,25.297-5.557,37.55-1.113c8.526,3.095,16.081,8.404,21.832,15.359c0.665,0.795,0.55,1.982-0.247,2.645
								C84.601,22.362,84.17,22.505,83.75,22.505z"/>
						</g>
					</g>
				</g>
				<g>
					<g>
						<g>
							<path fill="#D9DADA" d="M2.718,30.708c-0.302,0-0.601-0.07-0.883-0.221c-0.916-0.489-1.266-1.627-0.777-2.548
								c3.595-6.742,8.765-12.685,14.965-17.181c0.837-0.612,2.017-0.428,2.625,0.416c0.617,0.84,0.431,2.018-0.417,2.628
								C12.414,18.027,7.754,23.379,4.381,29.71C4.039,30.347,3.39,30.708,2.718,30.708z"/>
						</g>
					</g>
				</g>
				<g>
					<g>
						<g>
							<path fill="#D9DADA" d="M49.983,102.738c-0.964,0-1.79-0.742-1.868-1.727c-0.086-1.035,0.684-1.943,1.715-2.028
								c10.947-0.906,21.298-5.624,29.151-13.302c0.744-0.723,1.936-0.713,2.665,0.035c0.732,0.739,0.71,1.935-0.031,2.661
								c-8.485,8.283-19.661,13.38-31.472,14.354C50.093,102.733,50.039,102.738,49.983,102.738z"/>
						</g>
					</g>
				</g>
				<g>
					<g>
						<g>
							<path fill="#D9DADA" d="M92.108,70.563c-0.216,0-0.438-0.036-0.646-0.115c-0.976-0.351-1.479-1.432-1.122-2.406
								c4.114-11.359,3.749-23.717-1.045-34.8c-0.407-0.955,0.026-2.062,0.976-2.474c0.959-0.413,2.063,0.024,2.479,0.977
								c5.174,11.971,5.571,25.316,1.124,37.578C93.601,70.087,92.878,70.563,92.108,70.563z"/>
						</g>
					</g>
				</g>
			</g>
		</g>
		<g>
			<g>
				<g>
					<g>
						<rect x="99.258" y="29.482" fill="#FFFFFF" width="81.904" height="57.416"/>
					</g>
				</g>
			</g>
			<g>
				<g>
					<g>
						<polygon fill="#FFFFFF" points="100.626,53.228 65.351,53.228 100.626,34.451 						"/>
					</g>
				</g>
			</g>
			<g>
				<g>
					<g>
						<g>
							<polygon fill="#D9DADA" points="126.9,33.028 138.076,50.007 145.758,50.007 145.758,33.028 							"/>
						</g>
					</g>
				</g>
				<g>
					<g>
						<g>
							<polygon fill="#D9DADA" points="122.905,33.028 131.02,45.69 112.113,45.69 112.113,33.028 							"/>
						</g>
					</g>
				</g>
				<g>
					<g>
						<g>
							<rect x="103.976" y="33.028" fill="#D9DADA" width="6.117" height="23.598"/>
						</g>
					</g>
				</g>
				<g>
					<g>
						<g>
							<polygon fill="#D9DADA" points="130.551,58.19 112.113,69.337 112.113,50.007 130.551,50.007 							"/>
						</g>
					</g>
				</g>
				<g>
					<g>
						<g>
							<polygon fill="#D9DADA" points="112.113,75.117 130.551,63.968 130.551,83.298 112.113,83.298 							"/>
						</g>
					</g>
				</g>
				<g>
					<g>
						<g>
							<rect x="128.902" y="73.945" fill="#D9DADA" width="9.798" height="9.354"/>
						</g>
					</g>
				</g>
				<g>
					<g>
						<g>
							<rect x="133.531" y="53.195" fill="#D9DADA" width="12.227" height="18.295"/>
						</g>
					</g>
				</g>
				<g>
					<g>
						<g>
							<rect x="141.057" y="73.945" fill="#D9DADA" width="4.701" height="9.354"/>
						</g>
					</g>
				</g>
				<g>
					<g>
						<g>
							<polygon fill="#D9DADA" points="107.03,78.994 103.976,78.994 103.976,58.926 108.758,58.926 							"/>
						</g>
					</g>
				</g>
			</g>
			<g>
				<g>
					<g>
						<g>
							<path fill="#999A99" d="M113.23,47.707h-0.476c-0.127,0-0.234-0.103-0.234-0.234c0-0.127,0.107-0.233,0.234-0.233h0.476
								c0.13,0,0.234,0.106,0.234,0.233C113.465,47.604,113.36,47.707,113.23,47.707z"/>
						</g>
					</g>
				</g>
				<g>
					<g>
						<g>
							<path fill="#999A99" d="M130.947,47.707h-0.883c-0.136,0-0.241-0.103-0.241-0.234c0-0.127,0.105-0.233,0.241-0.233h0.883
								c0.127,0,0.232,0.106,0.232,0.233C131.18,47.604,131.074,47.707,130.947,47.707z M128.729,47.707h-0.882
								c-0.137,0-0.239-0.103-0.239-0.234c0-0.127,0.103-0.233,0.239-0.233h0.882c0.137,0,0.235,0.106,0.235,0.233
								C128.965,47.604,128.866,47.707,128.729,47.707z M126.515,47.707h-0.885c-0.125,0-0.234-0.103-0.234-0.234
								c0-0.127,0.109-0.233,0.234-0.233h0.885c0.132,0,0.242,0.106,0.242,0.233C126.757,47.604,126.646,47.707,126.515,47.707z
								 M124.307,47.707h-0.893c-0.126,0-0.236-0.103-0.236-0.234c0-0.127,0.11-0.233,0.236-0.233h0.893
								c0.125,0,0.232,0.106,0.232,0.233C124.539,47.604,124.432,47.707,124.307,47.707z M122.089,47.707h-0.892
								c-0.127,0-0.234-0.103-0.234-0.234c0-0.127,0.107-0.233,0.234-0.233h0.892c0.127,0,0.234,0.106,0.234,0.233
								C122.323,47.604,122.216,47.707,122.089,47.707z M119.874,47.707h-0.885c-0.132,0-0.242-0.103-0.242-0.234
								c0-0.127,0.11-0.233,0.242-0.233h0.885c0.127,0,0.234,0.106,0.234,0.233C120.108,47.604,120.001,47.707,119.874,47.707z
								 M117.654,47.707h-0.881c-0.134,0-0.236-0.103-0.236-0.234c0-0.127,0.103-0.233,0.236-0.233h0.881
								c0.136,0,0.236,0.106,0.236,0.233C117.891,47.604,117.79,47.707,117.654,47.707z M115.438,47.707h-0.883
								c-0.136,0-0.234-0.103-0.234-0.234c0-0.127,0.099-0.233,0.234-0.233h0.883c0.127,0,0.234,0.106,0.234,0.233
								C115.673,47.604,115.565,47.707,115.438,47.707z"/>
						</g>
					</g>
				</g>
				<g>
					<g>
						<g>
							<path fill="#999A99" d="M132.746,48.181c-0.129,0-0.231-0.104-0.231-0.238v-0.236h-0.242c-0.126,0-0.234-0.103-0.234-0.234
								c0-0.127,0.108-0.233,0.234-0.233h0.474c0.13,0,0.237,0.106,0.237,0.233v0.47C132.983,48.077,132.876,48.181,132.746,48.181z
								"/>
						</g>
					</g>
				</g>
				<g>
					<g>
						<g>
							<path fill="#999A99" d="M132.746,50.042c-0.129,0-0.231-0.109-0.231-0.234v-0.747c0-0.131,0.103-0.236,0.231-0.236
								c0.13,0,0.237,0.104,0.237,0.236v0.747C132.983,49.933,132.876,50.042,132.746,50.042z"/>
						</g>
					</g>
				</g>
				<g>
					<g>
						<g>
							<path fill="#999A99" d="M133.216,51.628h-0.47c-0.129,0-0.231-0.103-0.231-0.233v-0.469c0-0.135,0.103-0.238,0.231-0.238
								c0.13,0,0.237,0.103,0.237,0.238v0.231h0.232c0.129,0,0.236,0.106,0.236,0.238C133.452,51.525,133.345,51.628,133.216,51.628
								z"/>
						</g>
					</g>
				</g>
				<g>
					<g>
						<g>
							<path fill="#999A99" d="M140.401,51.628h-0.959c-0.127,0-0.232-0.103-0.232-0.233c0-0.131,0.105-0.238,0.232-0.238h0.959
								c0.134,0,0.232,0.106,0.232,0.238C140.634,51.525,140.535,51.628,140.401,51.628z M138.005,51.628h-0.957
								c-0.129,0-0.237-0.103-0.237-0.233c0-0.131,0.108-0.238,0.237-0.238h0.957c0.131,0,0.239,0.106,0.239,0.238
								C138.244,51.525,138.136,51.628,138.005,51.628z M135.614,51.628h-0.966c-0.127,0-0.234-0.103-0.234-0.233
								c0-0.131,0.107-0.238,0.234-0.238h0.966c0.127,0,0.235,0.106,0.235,0.238C135.85,51.525,135.741,51.628,135.614,51.628z"/>
						</g>
					</g>
				</g>
				<g>
					<g>
						<g>
							<path fill="#999A99" d="M142.309,51.628h-0.47c-0.126,0-0.231-0.103-0.231-0.233c0-0.131,0.105-0.238,0.231-0.238h0.47
								c0.134,0,0.236,0.106,0.236,0.238C142.545,51.525,142.442,51.628,142.309,51.628z"/>
						</g>
					</g>
				</g>
			</g>
			<g>
				<g>
					<g>
						<path fill="#DE5D3A" d="M135.191,52.504c-0.063,0-0.117-0.022-0.165-0.069c-0.096-0.091-0.096-0.241,0-0.333l0.708-0.708
							l-0.708-0.714c-0.096-0.091-0.096-0.238,0-0.332c0.093-0.091,0.239-0.091,0.335,0l0.875,0.877c0.089,0.09,0.089,0.24,0,0.335
							l-0.875,0.874C135.313,52.482,135.251,52.504,135.191,52.504z"/>
					</g>
				</g>
			</g>
			<g>
				<g>
					<g>
						<rect x="103.976" y="80.791" fill="#D9DADA" width="3.055" height="2.507"/>
					</g>
				</g>
			</g>
			<g opacity="0.2">
				<g>
					<g>
						<path fill="#4AADC8" d="M150.779,50.62c0-7.124,5.779-12.899,12.9-12.899c7.127,0,12.899,5.775,12.899,12.899"/>
					</g>
				</g>
			</g>
			<g>
				<g>
					<g>
						<path fill="#4AADC8" d="M154.661,50.62c0-4.984,4.038-9.019,9.019-9.019c4.983,0,9.019,4.034,9.019,9.019"/>
					</g>
				</g>
			</g>
			<g>
				<g>
					<g>
						<path fill="#999A99" d="M163.68,50.854c-0.091,0-0.187-0.06-0.218-0.151l-2.88-7.51c-0.048-0.118,0.012-0.259,0.139-0.306
							c0.122-0.04,0.254,0.021,0.302,0.139l2.878,7.509c0.048,0.12-0.017,0.256-0.132,0.303
							C163.735,50.848,163.709,50.854,163.68,50.854z"/>
					</g>
				</g>
			</g>
			<g>
				<g>
					<g>
						<g>
							<g>
								<path fill="#999A99" d="M163.68,39.245c-0.131,0-0.231-0.107-0.231-0.238v-1.765c0-0.126,0.101-0.233,0.231-0.233
									c0.13,0,0.234,0.106,0.234,0.233v1.765C163.914,39.137,163.81,39.245,163.68,39.245z"/>
							</g>
						</g>
					</g>
				</g>
				<g>
					<g>
						<g>
							<g>
								<path fill="#999A99" d="M168.127,40.125c-0.033,0-0.066-0.002-0.091-0.017c-0.124-0.048-0.175-0.187-0.129-0.308l0.677-1.63
									c0.046-0.117,0.187-0.174,0.307-0.123c0.119,0.045,0.175,0.187,0.126,0.306l-0.674,1.626
									C168.302,40.071,168.213,40.125,168.127,40.125z"/>
							</g>
						</g>
					</g>
				</g>
				<g>
					<g>
						<g>
							<g>
								<path fill="#999A99" d="M171.888,42.644c-0.058,0-0.117-0.021-0.165-0.068c-0.091-0.091-0.091-0.242,0-0.331l1.246-1.249
									c0.094-0.093,0.239-0.093,0.335,0c0.094,0.09,0.094,0.237,0,0.332l-1.246,1.249
									C172.012,42.623,171.95,42.644,171.888,42.644z"/>
							</g>
						</g>
					</g>
				</g>
				<g>
					<g>
						<g>
							<g>
								<path fill="#999A99" d="M174.407,46.409c-0.094,0-0.18-0.054-0.221-0.145c-0.048-0.12,0.015-0.257,0.127-0.304l1.634-0.676
									c0.122-0.052,0.254,0.002,0.309,0.123c0.048,0.125-0.012,0.258-0.127,0.307l-1.634,0.68
									C174.467,46.407,174.433,46.409,174.407,46.409z"/>
							</g>
						</g>
					</g>
				</g>
				<g>
					<g>
						<g>
							<g>
								<path fill="#999A99" d="M175.292,50.852c-0.137,0-0.232-0.104-0.232-0.232c0-0.133,0.096-0.237,0.232-0.237h1.761l0,0
									c0.134,0,0.241,0.104,0.241,0.234s-0.107,0.234-0.241,0.234H175.292L175.292,50.852z"/>
							</g>
						</g>
					</g>
					<g>
						<g>
							<g>
								<path fill="#999A99" d="M152.08,50.852h-1.771c-0.129,0-0.231-0.104-0.231-0.234s0.103-0.234,0.231-0.234h1.771
									c0.125,0,0.225,0.104,0.225,0.234S152.205,50.852,152.08,50.852z"/>
							</g>
						</g>
					</g>
				</g>
				<g>
					<g>
						<g>
							<g>
								<path fill="none" stroke="#999A99" stroke-linecap="round" stroke-linejoin="round" stroke-miterlimit="10" d="
									M174.407,55.06"/>
							</g>
						</g>
					</g>
					<g>
						<g>
							<g>
								<path fill="#999A99" d="M152.956,46.409c-0.029,0-0.063-0.007-0.086-0.017l-1.63-0.677
									c-0.126-0.049-0.179-0.183-0.131-0.307c0.05-0.121,0.193-0.175,0.304-0.123l1.639,0.672c0.117,0.05,0.172,0.188,0.124,0.304
									C153.136,46.355,153.052,46.409,152.956,46.409z"/>
							</g>
						</g>
					</g>
				</g>
				<g>
					<g>
						<g>
							<g>
								<path fill="#999A99" d="M155.473,42.644c-0.06,0-0.12-0.021-0.168-0.068l-1.243-1.249c-0.096-0.095-0.096-0.242,0-0.332
									c0.091-0.093,0.238-0.093,0.332,0l1.244,1.249c0.096,0.089,0.096,0.24,0,0.331
									C155.595,42.623,155.534,42.644,155.473,42.644z"/>
							</g>
						</g>
					</g>
				</g>
				<g>
					<g>
						<g>
							<g>
								<path fill="#999A99" d="M159.242,40.125c-0.096,0-0.179-0.054-0.222-0.145l-0.668-1.626c-0.053-0.12,0-0.261,0.125-0.306
									c0.117-0.051,0.256,0.006,0.304,0.123l0.674,1.634c0.048,0.117-0.007,0.256-0.126,0.304
									C159.305,40.123,159.271,40.125,159.242,40.125z"/>
							</g>
						</g>
					</g>
				</g>
			</g>
			<g>
				<g>
					<g>
						<g>
							<rect x="150.31" y="55.086" fill="#858585" width="23.588" height="1.179"/>
						</g>
					</g>
				</g>
				<g>
					<g>
						<g>
							<rect x="150.31" y="57.75" fill="#858585" width="16.847" height="1.183"/>
						</g>
					</g>
				</g>
				<g>
					<g>
						<g>
							<rect x="150.31" y="60.416" fill="#858585" width="19.98" height="1.182"/>
						</g>
					</g>
				</g>
				<g>
					<g>
						<g>
							<rect x="150.31" y="63.08" fill="#858585" width="25.724" height="1.184"/>
						</g>
					</g>
				</g>
			</g>
			<g>
				<g>
					<g>
						<rect x="150.31" y="67.251" fill="#4AADC8" width="26.743" height="15.736"/>
					</g>
				</g>
			</g>
			<g opacity="0.3">
				<defs>
					<rect id="SVGID_1_" x="150.31" y="67.251" opacity="0.3" width="26.743" height="15.736"/>
				</defs>
				<clipPath id="SVGID_2_">
					<use xlink:href="#SVGID_1_"  overflow="visible"/>
				</clipPath>
				<g clip-path="url(#SVGID_2_)">
					<g>
						<g>
							<g>
								<g>
									<path fill="#251D1D" d="M179.349,68.943h-30.101c-0.069,0-0.122-0.054-0.122-0.117c0-0.067,0.053-0.121,0.122-0.121h30.101
										c0.067,0,0.12,0.054,0.12,0.121C179.469,68.889,179.416,68.943,179.349,68.943z"/>
								</g>
							</g>
						</g>
						<g>
							<g>
								<g>
									<path fill="#251D1D" d="M179.349,70.517h-30.101c-0.069,0-0.122-0.054-0.122-0.121c0-0.063,0.053-0.117,0.122-0.117h30.101
										c0.067,0,0.12,0.054,0.12,0.117C179.469,70.463,179.416,70.517,179.349,70.517z"/>
								</g>
							</g>
						</g>
						<g>
							<g>
								<g>
									<path fill="#251D1D" d="M179.349,72.09h-30.101c-0.069,0-0.122-0.054-0.122-0.118c0-0.067,0.053-0.121,0.122-0.121h30.101
										c0.067,0,0.12,0.054,0.12,0.121C179.469,72.036,179.416,72.09,179.349,72.09z"/>
								</g>
							</g>
						</g>
						<g>
							<g>
								<g>
									<path fill="#251D1D" d="M179.349,73.66h-30.101c-0.069,0-0.122-0.05-0.122-0.114c0-0.067,0.053-0.12,0.122-0.12h30.101
										c0.067,0,0.12,0.053,0.12,0.12C179.469,73.61,179.416,73.66,179.349,73.66z"/>
								</g>
							</g>
						</g>
						<g>
							<g>
								<g>
									<path fill="#251D1D" d="M179.349,75.236h-30.101c-0.069,0-0.122-0.052-0.122-0.12c0-0.063,0.053-0.118,0.122-0.118h30.101
										c0.067,0,0.12,0.055,0.12,0.118C179.469,75.184,179.416,75.236,179.349,75.236z"/>
								</g>
							</g>
						</g>
						<g>
							<g>
								<g>
									<path fill="#251D1D" d="M179.349,76.812h-30.101c-0.069,0-0.122-0.055-0.122-0.12c0-0.067,0.053-0.116,0.122-0.116h30.101
										c0.067,0,0.12,0.049,0.12,0.116C179.469,76.757,179.416,76.812,179.349,76.812z"/>
								</g>
							</g>
						</g>
						<g>
							<g>
								<g>
									<path fill="#251D1D" d="M179.349,78.38h-30.101c-0.069,0-0.122-0.05-0.122-0.114c0-0.067,0.053-0.121,0.122-0.121h30.101
										c0.067,0,0.12,0.054,0.12,0.121C179.469,78.33,179.416,78.38,179.349,78.38z"/>
								</g>
							</g>
						</g>
						<g>
							<g>
								<g>
									<path fill="#251D1D" d="M179.349,79.957h-30.101c-0.069,0-0.122-0.053-0.122-0.12c0-0.063,0.053-0.119,0.122-0.119h30.101
										c0.067,0,0.12,0.055,0.12,0.119C179.469,79.904,179.416,79.957,179.349,79.957z"/>
								</g>
							</g>
						</g>
						<g>
							<g>
								<g>
									<path fill="#251D1D" d="M179.349,81.528h-30.101c-0.069,0-0.122-0.055-0.122-0.118s0.053-0.116,0.122-0.116h30.101
										c0.067,0,0.12,0.053,0.12,0.116S179.416,81.528,179.349,81.528z"/>
								</g>
							</g>
						</g>
					</g>
					<g>
						<g>
							<g>
								<g>
									<g>
										<path fill="#251D1D" d="M151.884,84.4c-0.066,0-0.119-0.054-0.119-0.12V65.954c0-0.067,0.053-0.119,0.119-0.119
											c0.061,0,0.115,0.052,0.115,0.119V84.28C151.999,84.346,151.944,84.4,151.884,84.4z"/>
									</g>
								</g>
							</g>
							<g>
								<g>
									<g>
										<path fill="#251D1D" d="M153.458,84.4c-0.064,0-0.119-0.054-0.119-0.12V65.954c0-0.067,0.055-0.119,0.119-0.119
											s0.112,0.052,0.112,0.119V84.28C153.57,84.346,153.522,84.4,153.458,84.4z"/>
									</g>
								</g>
							</g>
							<g>
								<g>
									<g>
										<path fill="#251D1D" d="M155.032,84.4c-0.069,0-0.122-0.054-0.122-0.12V65.954c0-0.067,0.053-0.119,0.122-0.119
											c0.067,0,0.11,0.052,0.11,0.119V84.28C155.143,84.346,155.1,84.4,155.032,84.4z"/>
									</g>
								</g>
							</g>
							<g>
								<g>
									<g>
										<path fill="#251D1D" d="M156.6,84.4c-0.063,0-0.118-0.054-0.118-0.12V65.954c0-0.067,0.056-0.119,0.118-0.119
											c0.064,0,0.119,0.052,0.119,0.119V84.28C156.719,84.346,156.664,84.4,156.6,84.4z"/>
									</g>
								</g>
							</g>
							<g>
								<g>
									<g>
										<path fill="#251D1D" d="M158.176,84.4c-0.064,0-0.12-0.054-0.12-0.12V65.954c0-0.067,0.056-0.119,0.12-0.119
											c0.063,0,0.117,0.052,0.117,0.119V84.28C158.293,84.346,158.238,84.4,158.176,84.4z"/>
									</g>
								</g>
							</g>
							<g>
								<g>
									<g>
										<path fill="#251D1D" d="M159.75,84.4c-0.064,0-0.12-0.054-0.12-0.12V65.954c0-0.067,0.056-0.119,0.12-0.119
											c0.062,0,0.117,0.052,0.117,0.119V84.28C159.867,84.346,159.812,84.4,159.75,84.4z"/>
									</g>
								</g>
							</g>
							<g>
								<g>
									<g>
										<path fill="#251D1D" d="M161.319,84.4c-0.061,0-0.115-0.054-0.115-0.12V65.954c0-0.067,0.055-0.119,0.115-0.119
											c0.066,0,0.117,0.052,0.117,0.119V84.28C161.437,84.346,161.386,84.4,161.319,84.4z"/>
									</g>
								</g>
							</g>
							<g>
								<g>
									<g>
										<path fill="#251D1D" d="M162.897,84.4c-0.066,0-0.119-0.054-0.119-0.12V65.954c0-0.067,0.053-0.119,0.119-0.119
											c0.061,0,0.115,0.052,0.115,0.119V84.28C163.013,84.346,162.958,84.4,162.897,84.4z"/>
									</g>
								</g>
							</g>
						</g>
						<g>
							<g>
								<g>
									<g>
										<path fill="#251D1D" d="M164.472,84.4c-0.069,0-0.119-0.054-0.119-0.12V65.954c0-0.067,0.05-0.119,0.119-0.119
											c0.06,0,0.115,0.052,0.115,0.119V84.28C164.587,84.346,164.531,84.4,164.472,84.4z"/>
									</g>
								</g>
							</g>
							<g>
								<g>
									<g>
										<path fill="#251D1D" d="M166.039,84.4c-0.063,0-0.115-0.054-0.115-0.12V65.954c0-0.067,0.053-0.119,0.115-0.119
											c0.066,0,0.119,0.052,0.119,0.119V84.28C166.158,84.346,166.105,84.4,166.039,84.4z"/>
									</g>
								</g>
							</g>
							<g>
								<g>
									<g>
										<path fill="#251D1D" d="M167.62,84.4c-0.067,0-0.122-0.054-0.122-0.12V65.954c0-0.067,0.055-0.119,0.122-0.119
											c0.058,0,0.112,0.052,0.112,0.119V84.28C167.732,84.346,167.678,84.4,167.62,84.4z"/>
									</g>
								</g>
							</g>
							<g>
								<g>
									<g>
										<path fill="#251D1D" d="M169.185,84.4c-0.064,0-0.112-0.054-0.112-0.12V65.954c0-0.067,0.048-0.119,0.112-0.119
											c0.069,0,0.119,0.052,0.119,0.119V84.28C169.304,84.346,169.254,84.4,169.185,84.4z"/>
									</g>
								</g>
							</g>
							<g>
								<g>
									<g>
										<path fill="#251D1D" d="M170.759,84.4c-0.06,0-0.115-0.054-0.115-0.12V65.954c0-0.067,0.056-0.119,0.115-0.119
											c0.069,0,0.122,0.052,0.122,0.119V84.28C170.881,84.346,170.828,84.4,170.759,84.4z"/>
									</g>
								</g>
							</g>
							<g>
								<g>
									<g>
										<path fill="#251D1D" d="M172.333,84.4c-0.063,0-0.115-0.054-0.115-0.12V65.954c0-0.067,0.053-0.119,0.115-0.119
											c0.064,0,0.119,0.052,0.119,0.119V84.28C172.452,84.346,172.397,84.4,172.333,84.4z"/>
									</g>
								</g>
							</g>
							<g>
								<g>
									<g>
										<path fill="#251D1D" d="M173.911,84.4c-0.071,0-0.119-0.054-0.119-0.12V65.954c0-0.067,0.048-0.119,0.119-0.119
											c0.061,0,0.115,0.052,0.115,0.119V84.28C174.026,84.346,173.972,84.4,173.911,84.4z"/>
									</g>
								</g>
							</g>
							<g>
								<g>
									<g>
										<path fill="#251D1D" d="M175.48,84.4c-0.062,0-0.114-0.054-0.114-0.12V65.954c0-0.067,0.053-0.119,0.114-0.119
											c0.067,0,0.12,0.052,0.12,0.119V84.28C175.601,84.346,175.548,84.4,175.48,84.4z"/>
									</g>
								</g>
							</g>
						</g>
					</g>
				</g>
			</g>
		</g>
	</g>
	<g>
		<g>
			<g>
				<g>
					<g>
						<g>
							<path fill="#DE5D3A" d="M55.517,96.368c-0.993-2.866-2.447-5.453-5.459-5.453s-4.466,2.587-5.457,5.453
								c-0.584,1.687-1.909,5.523-2.907,8.405h16.727C57.421,101.892,56.098,98.055,55.517,96.368z"/>
						</g>
					</g>
				</g>
			</g>
			<g opacity="0.1">
				<g>
					<g>
						<path fill="#251D1D" d="M50.058,104.773h8.363c-1-2.882-2.323-6.719-2.904-8.405c-0.993-2.866-2.447-5.453-5.459-5.453"/>
					</g>
				</g>
			</g>
			<g>
				<g>
					<g>
						<g>
							<rect x="39.699" y="103.652" fill="#FFFFFF" width="20.716" height="2.251"/>
						</g>
					</g>
				</g>
				<g>
					<g>
						<g>
							
								<rect x="26.416" y="112.529" transform="matrix(-0.3826 0.9239 -0.9239 -0.3826 155.8503 123.1571)" fill="#FFFFFF" width="20.717" height="2.248"/>
						</g>
					</g>
				</g>
				<g>
					<g>
						<g>
							
								<rect x="52.98" y="112.527" transform="matrix(0.3827 0.9239 -0.9239 0.3827 144.1042 11.6444)" fill="#FFFFFF" width="20.717" height="2.252"/>
						</g>
					</g>
				</g>
			</g>
		</g>
		<g>
			<g>
				<g>
					<g>
						<path fill="#DE5D3A" d="M116.912,148.529H9.83v40.488h133.604V175.05C143.435,160.404,131.563,148.529,116.912,148.529z"/>
					</g>
				</g>
			</g>
			<g>
				<g>
					<g>
						<polygon fill="#DE5D3A" points="86.623,110.694 17.866,110.694 9.83,148.529 113.986,148.529 						"/>
					</g>
				</g>
			</g>
			<g>
				<g>
					<g>
						<circle fill="#FFFFFF" cx="113.985" cy="181.939" r="19.063"/>
					</g>
				</g>
			</g>
			<g>
				<g>
					<g>
						<path fill="#FFFFFF" d="M18.681,181.939c0-10.526,8.538-19.062,19.061-19.062c10.528,0,19.057,8.535,19.057,19.062
							c0,10.525-8.528,19.061-19.057,19.061C27.219,201,18.681,192.465,18.681,181.939z"/>
					</g>
				</g>
			</g>
			<g>
				<g>
					<g>
						<path fill="#D9DADA" d="M37.742,197.996c-8.854,0-16.061-7.206-16.061-16.057c0-8.856,7.208-16.062,16.061-16.062
							c8.854,0,16.059,7.205,16.059,16.062C53.801,190.79,46.596,197.996,37.742,197.996z M37.742,168.657
							c-7.322,0-13.284,5.957-13.284,13.282c0,7.324,5.961,13.276,13.284,13.276c7.323,0,13.279-5.952,13.279-13.276
							C51.021,174.614,45.065,168.657,37.742,168.657z"/>
					</g>
				</g>
			</g>
			<g>
				<g>
					<g>
						<path fill="#D9DADA" d="M113.986,197.996c-8.86,0-16.063-7.206-16.063-16.057c0-8.856,7.203-16.062,16.063-16.062
							c8.858,0,16.064,7.205,16.064,16.062C130.051,190.79,122.845,197.996,113.986,197.996z M113.986,168.657
							c-7.324,0-13.276,5.957-13.276,13.282c0,7.324,5.952,13.276,13.276,13.276c7.32,0,13.277-5.952,13.277-13.276
							C127.264,174.614,121.307,168.657,113.986,168.657z"/>
					</g>
				</g>
			</g>
			<g>
				<g>
					<g>
						<polygon fill="#FFFFFF" points="46.89,143.102 15.395,143.102 21.617,116.115 46.89,116.115 						"/>
					</g>
				</g>
			</g>
			<g>
				<g>
					<g>
						<polygon fill="#FFFFFF" points="100.301,143.102 51.885,143.102 51.885,116.115 80.831,116.115 						"/>
					</g>
				</g>
			</g>
			<g>
				<g>
					<g>
						<rect x="52.005" y="148.529" fill="#AEAFAE" width="6.074" height="1.807"/>
					</g>
				</g>
			</g>
			<g>
				<g>
					<g>
						<rect x="14.323" y="148.529" fill="#AEAFAE" width="6.079" height="1.807"/>
					</g>
				</g>
			</g>
			<g>
				<g>
					<g>
						<rect x="9.83" y="176.679" fill="#F4BB26" width="4.493" height="10.521"/>
					</g>
				</g>
			</g>
			<g>
				<g>
					<g>
						<rect x="138.939" y="176.679" fill="#F4BB26" width="4.495" height="10.521"/>
					</g>
				</g>
			</g>
		</g>
	</g>
</g>
</svg>
