<?xml version="1.0" encoding="utf-8"?>
<!-- Generator: Adobe Illustrator 16.0.0, SVG Export Plug-In . SVG Version: 6.00 Build 0)  -->
<!DOCTYPE svg PUBLIC "-//W3C//DTD SVG 1.1//EN" "http://www.w3.org/Graphics/SVG/1.1/DTD/svg11.dtd">
<svg version="1.1" id="레이어_1" xmlns="http://www.w3.org/2000/svg" xmlns:xlink="http://www.w3.org/1999/xlink" x="0px"
	 y="0px" width="251px" height="200px" viewBox="0 0 251 200" enable-background="new 0 0 251 200" xml:space="preserve">
<g>
	<g>
		<g>
			<g>
				<path fill="#1A3B86" d="M137.465,11.958C135.279,5.672,132.107,0,125.501,0c-6.61,0-9.795,5.672-11.967,11.958
					c-1.272,3.692-4.192,12.109-6.376,18.424h36.668C141.641,24.067,138.738,15.65,137.465,11.958z"/>
			</g>
		</g>
	</g>
	<g opacity="0.2">
		<g>
			<g>
				<path fill="#251D1D" d="M125.501,30.382h18.325c-2.186-6.314-5.088-14.731-6.361-18.424C135.279,5.672,132.107,0,125.501,0"/>
			</g>
		</g>
	</g>
	<g>
		<g>
			<g>
				<g>
					<rect x="102.789" y="27.92" fill="#5C5B5B" width="45.418" height="4.933"/>
				</g>
			</g>
		</g>
		<g>
			<g>
				<g>
					<polygon fill="#5C5B5B" points="89.974,71.766 107.348,29.803 102.789,27.92 85.412,69.878 					"/>
				</g>
			</g>
		</g>
		<g>
			<g>
				<g>
					<polygon fill="#5C5B5B" points="161.027,71.766 143.646,29.803 148.207,27.92 165.592,69.878 					"/>
				</g>
			</g>
		</g>
	</g>
	<g>
		<g>
			<g>
				<g>
					<path fill="#4AADC8" d="M42.544,120.672c0-45.807,37.146-82.947,82.957-82.947c45.804,0,82.937,37.141,82.937,82.947"/>
				</g>
			</g>
		</g>
		<g>
			<g>
				<g>
					<path fill="#4AADC8" d="M175.125,97.932h-49.624H75.874c-41.513,0-75.177,33.651-75.177,75.168h124.804h124.802
						C250.303,131.583,216.639,97.932,175.125,97.932z"/>
				</g>
			</g>
		</g>
	</g>
	<g opacity="0.1">
		<g>
			<g>
				<path fill="#251D1D" d="M250.303,173.1c0-30.133-17.738-56.129-43.346-68.114c-7.332-38.308-41.006-67.261-81.456-67.261l0,0
					V173.1l0,0H250.303z"/>
			</g>
		</g>
	</g>
	<g>
		<g>
			<g>
				<g>
					<path fill="#B9DFEC" d="M132.244,50.844c31.336,0,56.723,25.395,56.723,56.718h-56.723V50.844z"/>
				</g>
			</g>
		</g>
		<g>
			<g>
				<g>
					<path fill="#B9DFEC" d="M118.739,50.844c-31.325,0-56.72,25.395-56.72,56.718h56.72V50.844z"/>
				</g>
			</g>
		</g>
	</g>
	<g opacity="0.4">
		<g>
			<g>
				<path fill="#434141" d="M187.717,139.008c-18.828,0-34.082,15.265-34.082,34.092h68.184
					C221.818,154.272,206.549,139.008,187.717,139.008z"/>
			</g>
		</g>
	</g>
	<g opacity="0.4">
		<g>
			<g>
				<path fill="#434141" d="M63.267,139.008c-18.83,0-34.087,15.265-34.087,34.092h68.184
					C97.363,154.272,82.094,139.008,63.267,139.008z"/>
			</g>
		</g>
	</g>
	<g>
		<g>
			<g>
				<path fill="#5C5B5B" d="M36.364,173.1c0-14.851,12.045-26.9,26.903-26.9c14.855,0,26.898,12.05,26.898,26.9
					c0,14.855-12.042,26.9-26.898,26.9C48.409,200,36.364,187.955,36.364,173.1z"/>
			</g>
		</g>
	</g>
	<g>
		<g>
			<g>
				<path fill="#5C5B5B" d="M160.834,173.1c0-14.851,12.041-26.9,26.883-26.9c14.859,0,26.9,12.05,26.9,26.9
					c0,14.855-12.041,26.9-26.9,26.9C172.875,200,160.834,187.955,160.834,173.1z"/>
			</g>
		</g>
	</g>
	<g>
		<g>
			<g>
				<path fill="#1A3B86" d="M240.43,148.923c-2.723,0-4.945,2.231-4.945,4.954v7.573c0,2.718,2.223,4.95,4.945,4.95h9.566
					c-0.533-6.058-1.791-11.917-3.68-17.478H240.43z"/>
			</g>
		</g>
	</g>
	<g>
		<g>
			<g>
				<path fill="#1A3B86" d="M15.515,161.45v-7.573c0-2.723-2.225-4.954-4.959-4.954H4.669c-1.89,5.561-3.137,11.42-3.676,17.478
					h9.563C13.291,166.4,15.515,164.168,15.515,161.45z"/>
			</g>
		</g>
	</g>
	<g>
		<g>
			<g>
				<path fill="#434141" d="M46.737,173.1c0-9.129,7.4-16.522,16.529-16.522c9.125,0,16.527,7.394,16.527,16.522
					c0,9.13-7.402,16.527-16.527,16.527C54.137,189.627,46.737,182.229,46.737,173.1z"/>
			</g>
		</g>
	</g>
	<g>
		<g>
			<g>
				<path fill="#5C5B5B" d="M57.416,173.1c0-3.232,2.625-5.859,5.851-5.859c3.237,0,5.862,2.627,5.862,5.859
					c0,3.237-2.625,5.864-5.862,5.864C60.041,178.964,57.416,176.337,57.416,173.1z"/>
			</g>
		</g>
	</g>
	<g>
		<g>
			<g>
				<path fill="#434141" d="M171.203,173.1c0-9.129,7.389-16.522,16.514-16.522c9.139,0,16.531,7.394,16.531,16.522
					c0,9.13-7.393,16.527-16.531,16.527C178.592,189.627,171.203,182.229,171.203,173.1z"/>
			</g>
		</g>
	</g>
	<g>
		<g>
			<g>
				<path fill="#5C5B5B" d="M181.875,173.1c0-3.232,2.619-5.859,5.842-5.859c3.242,0,5.865,2.627,5.865,5.859
					c0,3.237-2.623,5.864-5.865,5.864C184.494,178.964,181.875,176.337,181.875,173.1z"/>
			</g>
		</g>
	</g>
	<g opacity="0.4">
		<g>
			<g>
				<rect x="132.244" y="116.222" fill="#434141" width="13.74" height="4.45"/>
			</g>
		</g>
	</g>
	<g opacity="0.4">
		<g>
			<g>
				<rect x="62.261" y="116.222" fill="#434141" width="13.73" height="4.45"/>
			</g>
		</g>
	</g>
	<g>
		<g opacity="0.4">
			<g>
				<g>
					<g>
						<path fill="#FFFFFF" d="M159.086,91.7c-0.258,0-0.502-0.092-0.693-0.285l-17.275-17.271c-0.387-0.381-0.387-1.006,0-1.387
							c0.385-0.386,1.01-0.386,1.4,0l17.262,17.262c0.385,0.381,0.385,1.015,0,1.396C159.586,91.608,159.328,91.7,159.086,91.7z"/>
					</g>
				</g>
			</g>
			<g>
				<g>
					<g>
						<path fill="#FFFFFF" d="M167.41,91.7c-0.238,0-0.5-0.092-0.688-0.285L153.258,77.96c-0.367-0.386-0.367-1.01,0-1.391
							c0.4-0.391,1.02-0.391,1.404,0l13.455,13.45c0.377,0.381,0.377,1.015,0,1.396C167.926,91.608,167.668,91.7,167.41,91.7z"/>
					</g>
				</g>
			</g>
			<g>
				<g>
					<g>
						<path fill="#FFFFFF" d="M151.977,76.266c-0.262,0-0.5-0.096-0.693-0.294l-1.828-1.827c-0.385-0.381-0.385-1.006,0-1.387
							c0.387-0.386,1.002-0.386,1.387,0l1.828,1.823c0.387,0.386,0.387,1.015,0,1.391C152.477,76.17,152.229,76.266,151.977,76.266z
							"/>
					</g>
				</g>
			</g>
		</g>
		<g opacity="0.4">
			<g>
				<g>
					<g>
						<path fill="#FFFFFF" d="M100.848,91.7c-0.259,0-0.5-0.092-0.696-0.285L82.877,74.145c-0.386-0.381-0.386-1.006,0-1.387
							c0.388-0.386,1.017-0.386,1.401,0l17.264,17.262c0.386,0.381,0.386,1.015,0,1.396C101.346,91.608,101.103,91.7,100.848,91.7z"
							/>
					</g>
				</g>
			</g>
			<g>
				<g>
					<g>
						<path fill="#FFFFFF" d="M106.219,88.747c-0.255,0-0.5-0.097-0.693-0.294l-13.458-13.45c-0.386-0.386-0.386-1.015,0-1.396
							c0.386-0.382,1.018-0.382,1.401,0l13.443,13.454c0.388,0.382,0.388,1.006,0,1.392
							C106.722,88.65,106.476,88.747,106.219,88.747z"/>
					</g>
				</g>
			</g>
		</g>
	</g>
	<g>
		<g>
			<g>
				<rect x="62.02" y="105.431" fill="#FFFFFF" width="56.72" height="2.131"/>
			</g>
		</g>
	</g>
	<g>
		<g>
			<g>
				<rect x="132.244" y="105.431" fill="#FFFFFF" width="56.723" height="2.131"/>
			</g>
		</g>
	</g>
</g>
</svg>
