<?xml version="1.0" encoding="utf-8"?>
<!-- Generator: Adobe Illustrator 16.0.0, SVG Export Plug-In . SVG Version: 6.00 Build 0)  -->
<!DOCTYPE svg PUBLIC "-//W3C//DTD SVG 1.1//EN" "http://www.w3.org/Graphics/SVG/1.1/DTD/svg11.dtd">
<svg version="1.1" id="레이어_1" xmlns="http://www.w3.org/2000/svg" xmlns:xlink="http://www.w3.org/1999/xlink" x="0px"
	 y="0px" width="71px" height="201px" viewBox="0 0 71 201" enable-background="new 0 0 71 201" xml:space="preserve">
<g>
	<g>
		<g>
			<g>
				<path fill="#5C5B5B" d="M1.855,191.983h9.577c0,0,14.054,4.257,14.054,8.517c-13.711,0-23.631,0-23.631,0V191.983z"/>
			</g>
		</g>
	</g>
	<g>
		<g>
			<g>
				<rect x="1.855" y="188.072" fill="#FFFFFF" width="9.577" height="3.911"/>
			</g>
		</g>
	</g>
	<g>
		<g>
			<g>
				<path fill="#5C5B5B" d="M22.626,185.772h9.579c0,0,14.059,4.257,14.059,8.511c-13.71,0-23.638,0-23.638,0V185.772z"/>
			</g>
		</g>
	</g>
	<g>
		<g>
			<g>
				<rect x="22.626" y="181.858" fill="#FFFFFF" width="9.579" height="3.914"/>
			</g>
		</g>
	</g>
	<g>
		<g>
			<g>
				<polygon fill="#F7CDAF" points="19.886,35.649 11.289,35.649 15.991,24.896 24.588,24.896 				"/>
			</g>
		</g>
	</g>
	<g>
		<g>
			<g>
				<polygon fill="#F7CDAF" points="57.577,50.098 60.431,45.436 60.926,40.636 65.552,37.954 70.217,41.079 69.064,47.372 
					64.476,48.763 61.519,53.15 				"/>
			</g>
		</g>
	</g>
	<g>
		<g>
			<g>
				<polygon fill="#F7CDAF" points="27.121,27.525 12.217,26.235 14.324,1.843 34.844,3.615 				"/>
			</g>
		</g>
	</g>
	<g>
		<g>
			<g>
				<polygon fill="#F7CDAF" points="30.835,13.897 33.468,19.589 28.043,19.118 				"/>
			</g>
		</g>
	</g>
	<g>
		<g>
			<g>
				<polygon fill="#D9DADA" points="17.231,38.754 46.019,62.597 58.507,46.097 63.899,51.014 48.552,75.5 10.255,49.013 				"/>
			</g>
		</g>
	</g>
	<g>
		<g>
			<g>
				<polygon fill="#AEAFAE" points="3.855,90.589 1.855,188.072 12.643,188.072 33.893,83.516 				"/>
			</g>
		</g>
	</g>
	<g>
		<g>
			<g>
				<polygon fill="#AEAFAE" points="21.721,90.589 21.721,182.299 33.893,182.299 43.176,90.589 				"/>
			</g>
		</g>
	</g>
	<g>
		<g>
			<g>
				<rect x="11.602" y="29.261" fill="#D9DADA" width="12.841" height="3.448"/>
			</g>
		</g>
	</g>
	<g>
		<g>
			<g>
				<path fill="#EEEEEF" d="M24.428,31.665h-0.912h-11.58c-4.458,0-8.08,3.62-8.08,8.079v50.845h19.66l0,0h19.66V78.036V65.342
					C43.176,49.948,39.433,31.665,24.428,31.665z"/>
			</g>
		</g>
	</g>
	<g>
		<g>
			<g>
				<g>
					<path d="M18.585,0.523c-3.378-0.292-6.353,2.206-6.643,5.583l-0.919,10.664l3.613,0.311l1.833-4.531l2.039-5.017l5.5,0.476
						l10.379,0.898l6.534-6.46L18.585,0.523z"/>
				</g>
			</g>
		</g>
		<g>
			<g>
				<g>
					<path fill="#221714" d="M18.585,0.523c-3.378-0.292-6.353,2.206-6.643,5.583l-0.919,10.664l3.613,0.311l1.833-4.531
						l2.039-5.017l5.5,0.476l10.379,0.898l6.534-6.46L18.585,0.523z"/>
				</g>
			</g>
		</g>
	</g>
	<g>
		<g>
			<g>
				<polygon fill="#F7CDAF" points="16.591,92.77 19.71,97.252 23.903,99.633 24.505,104.939 19.772,107.959 14.477,104.382 
					15.047,99.622 12.217,95.156 				"/>
			</g>
		</g>
	</g>
	<g>
		<g>
			<g>
				<path fill="#858585" d="M58.094,37.073c-0.373,0.815-0.196,2.04,0.391,2.72l3.901,4.501c0.584,0.682,1.378,0.571,1.748-0.25
					l5.563-12.178c0.373-0.817,0.199-2.044-0.389-2.726l-3.895-4.496c-0.593-0.68-1.379-0.565-1.759,0.251L58.094,37.073z"/>
			</g>
		</g>
	</g>
	<g>
		<g>
			<g>
				<path fill="#D9DADA" d="M8.519,40.369c0.754-3.339,4.079-5.464,7.419-4.712c3.341,0.758,5.448,4.043,4.694,7.387l-7.13,30.292
					l6.309,21.344l-7.055,4.708L0.783,73.312L8.519,40.369z"/>
			</g>
		</g>
	</g>
	<g>
		<g>
			<g>
				<polygon fill="#FFFFFF" points="59.572,37.954 63.133,42.354 68.222,30.986 64.661,26.586 				"/>
			</g>
		</g>
	</g>
</g>
</svg>
