<?xml version="1.0" encoding="utf-8"?>
<!-- Generator: Adobe Illustrator 16.0.0, SVG Export Plug-In . SVG Version: 6.00 Build 0)  -->
<!DOCTYPE svg PUBLIC "-//W3C//DTD SVG 1.1//EN" "http://www.w3.org/Graphics/SVG/1.1/DTD/svg11.dtd">
<svg version="1.1" id="레이어_1" xmlns="http://www.w3.org/2000/svg" xmlns:xlink="http://www.w3.org/1999/xlink" x="0px"
	 y="0px" width="775px" height="61px" viewBox="0 0 775 61" enable-background="new 0 0 775 61" xml:space="preserve">
<path fill="#FFFFFF" d="M2.146,48.91c2.769,1.415,7.198,2.832,11.697,2.832c4.846,0,7.405-1.955,7.405-4.99
	c0-2.765-2.215-4.451-7.821-6.342C5.676,37.711,0.555,33.53,0.555,26.852c0-7.758,6.713-13.626,17.648-13.626
	c5.329,0,9.136,1.013,11.903,2.294l-2.353,8.229c-1.8-0.876-5.191-2.158-9.69-2.158c-4.566,0-6.781,2.09-6.781,4.384
	c0,2.902,2.561,4.182,8.651,6.478c8.235,2.968,12.043,7.148,12.043,13.625c0,7.623-5.952,14.097-18.757,14.097
	c-5.329,0-10.59-1.416-13.22-2.83L2.146,48.91z"/>
<path fill="#FFFFFF" d="M70.508,44.645c-0.221-4.681-0.496-10.328-0.441-15.223h-0.165c-1.214,4.411-2.76,9.305-4.416,13.876
	l-5.409,15.705h-5.245l-4.968-15.489c-1.436-4.627-2.76-9.573-3.754-14.092h-0.11c-0.165,4.733-0.385,10.488-0.661,15.437
	L44.51,59.434h-6.348l2.483-36.25h8.942l4.857,14.576c1.324,4.248,2.483,8.551,3.423,12.583h0.164
	c0.994-3.924,2.265-8.391,3.699-12.638l5.134-14.521h8.831l2.153,36.25h-6.624L70.508,44.645z"/>
<path fill="#FFFFFF" d="M91.865,49.161l-3.202,10.272h-7.011l11.924-36.25h8.666l12.089,36.25h-7.286l-3.368-10.272H91.865z
	 M102.518,44.158l-2.925-8.928c-0.718-2.204-1.324-4.68-1.877-6.776h-0.11c-0.552,2.096-1.104,4.625-1.766,6.776l-2.872,8.928
	H102.518z"/>
<path fill="#FFFFFF" d="M119.515,23.666c2.538-0.43,6.348-0.751,10.267-0.751c5.355,0,8.998,0.86,11.482,2.903
	c2.042,1.667,3.2,4.197,3.2,7.262c0,4.68-3.255,7.851-6.733,9.088v0.164c2.649,0.966,4.25,3.492,5.188,6.99
	c1.158,4.518,2.154,8.712,2.927,10.111h-7.011c-0.553-1.076-1.436-4.032-2.484-8.552c-1.049-4.731-2.814-6.237-6.68-6.348h-3.422
	v14.899h-6.734V23.666z M126.249,39.695h4.029c4.582,0,7.452-2.367,7.452-5.971c0-3.979-2.87-5.808-7.286-5.808
	c-2.153,0-3.532,0.162-4.195,0.322V39.695z"/>
<path fill="#FFFFFF" d="M158.315,28.725h-10.599v-5.541h28.097v5.541h-10.709v30.709h-6.789V28.725z"/>
<path fill="#FFFFFF" d="M231.209,57.344c-3.253,1.076-9.412,2.561-15.572,2.561c-8.514,0-14.672-2.09-18.964-6.069
	c-4.223-3.979-6.576-9.916-6.576-16.594c0.07-15.111,11.352-23.744,26.647-23.744c6.021,0,10.659,1.145,12.942,2.158l-2.215,8.298
	c-2.561-1.149-5.675-1.957-10.796-1.957c-8.791,0-15.504,4.856-15.504,14.704c0,9.445,6.09,14.908,14.742,14.908
	c2.353,0,4.291-0.269,5.122-0.608v-9.577h-7.199v-8.028h17.372V57.344z"/>
<path fill="#FFFFFF" d="M259.61,43.353H245.59v10.646h15.677v5.435h-22.466v-36.25h21.638v5.432H245.59v9.359h14.021V43.353z"/>
<path fill="#FFFFFF" d="M300.234,40.931c0,12.155-7.562,19.095-17.829,19.095c-10.488,0-17.112-7.8-17.112-18.448
	c0-11.133,7.176-18.987,17.664-18.987C293.831,22.59,300.234,30.605,300.234,40.931z M272.469,41.471
	c0,7.366,3.809,13.229,10.322,13.229c6.568,0,10.267-5.915,10.267-13.499c0-6.831-3.477-13.285-10.267-13.285
	C276.057,27.917,272.469,33.993,272.469,41.471z"/>
<path fill="#FFFFFF" d="M305.915,52.226c2.208,1.239,5.52,2.314,8.997,2.314c4.361,0,6.79-1.991,6.79-4.948
	c0-2.743-1.877-4.356-6.624-6.023c-6.127-2.151-10.046-5.326-10.046-10.542c0-5.917,5.078-10.436,13.138-10.436
	c4.029,0,7.01,0.862,8.941,1.83l-1.656,5.325c-1.324-0.7-3.919-1.72-7.396-1.72c-4.306,0-6.183,2.257-6.183,4.356
	c0,2.796,2.153,4.087,7.121,5.969c6.458,2.366,9.604,5.539,9.604,10.759c0,5.807-4.525,10.862-14.131,10.862
	c-3.919,0-8.004-1.076-10.046-2.258L305.915,52.226z"/>
<path fill="#FFFFFF" d="M334.726,23.666c2.429-0.43,5.795-0.751,10.377-0.751c4.968,0,8.611,1.022,10.984,2.958
	c2.208,1.775,3.644,4.625,3.644,8.014c0,3.441-1.104,6.293-3.201,8.229c-2.705,2.633-6.955,3.872-11.758,3.872
	c-1.27,0-2.428-0.055-3.312-0.215v13.66h-6.734V23.666z M341.46,40.556c0.828,0.216,1.932,0.27,3.312,0.27
	c5.079,0,8.17-2.421,8.17-6.67c0-4.033-2.871-6.184-7.563-6.184c-1.876,0-3.2,0.159-3.918,0.322V40.556z"/>
<path fill="#FFFFFF" d="M369.111,49.161l-3.202,10.272h-7.011l11.923-36.25h8.667l12.089,36.25h-7.287l-3.367-10.272H369.111z
	 M379.764,44.158l-2.926-8.928c-0.718-2.204-1.324-4.68-1.877-6.776h-0.109c-0.552,2.096-1.104,4.625-1.767,6.776l-2.87,8.928
	H379.764z"/>
<path fill="#FFFFFF" d="M399.41,28.725h-10.598v-5.541h28.097v5.541H406.2v30.709h-6.79V28.725z"/>
<rect x="421.266" y="23.184" fill="#FFFFFF" width="6.788" height="36.25"/>
<path fill="#FFFFFF" d="M443.288,49.161l-3.202,10.272h-7.009L445,23.184h8.665l12.09,36.25h-7.285l-3.367-10.272H443.288z
	 M453.942,44.158l-2.925-8.928c-0.719-2.204-1.326-4.68-1.878-6.776h-0.11c-0.552,2.096-1.104,4.625-1.767,6.776l-2.869,8.928
	H453.942z"/>
<path fill="#FFFFFF" d="M470.939,23.184h6.788v30.71h15.29v5.54h-22.078V23.184z"/>
<path fill="#FFFFFF" d="M537.974,40.207H520.81V51h19.173v8.434h-29.693V13.967h28.724V22.4H520.81v9.446h17.164V40.207z"/>
<path fill="#FFFFFF" d="M566.461,59.434l-4.029-7.208c-1.601-2.796-2.649-4.731-3.698-6.83h-0.165
	c-0.883,2.099-1.877,4.034-3.368,6.83l-3.697,7.208h-7.784l11.041-18.341l-10.599-17.909h7.783l4.029,7.476
	c1.214,2.259,2.098,4.033,3.091,6.077h0.112c0.991-2.258,1.763-3.873,2.924-6.077l3.975-7.476h7.783l-10.874,17.695l11.316,18.555
	H566.461z"/>
<path fill="#FFFFFF" d="M579.318,23.666c2.43-0.43,5.798-0.751,10.378-0.751c4.968,0,8.611,1.022,10.986,2.958
	c2.207,1.775,3.642,4.625,3.642,8.014c0,3.441-1.102,6.293-3.202,8.229c-2.705,2.633-6.955,3.872-11.757,3.872
	c-1.269,0-2.428-0.055-3.311-0.215v13.66h-6.736V23.666z M586.055,40.556c0.826,0.216,1.932,0.27,3.311,0.27
	c5.079,0,8.168-2.421,8.168-6.67c0-4.033-2.869-6.184-7.56-6.184c-1.877,0-3.203,0.159-3.919,0.322V40.556z"/>
<path fill="#FFFFFF" d="M643.182,40.931c0,12.155-7.563,19.095-17.831,19.095c-10.487,0-17.111-7.8-17.111-18.448
	c0-11.133,7.176-18.987,17.663-18.987C636.778,22.59,643.182,30.605,643.182,40.931z M615.415,41.471
	c0,7.366,3.81,13.229,10.322,13.229c6.568,0,10.267-5.915,10.267-13.499c0-6.831-3.478-13.285-10.267-13.285
	C619.005,27.917,615.415,33.993,615.415,41.471z"/>
<path fill="#FFFFFF" d="M655.027,59.434v-4.032l4.25-3.822c8.444-7.635,12.422-11.829,12.475-16.457c0-3.119-1.71-5.862-6.403-5.862
	c-3.146,0-5.85,1.561-7.674,2.906l-1.986-4.681c2.596-2.042,6.515-3.604,11.04-3.604c7.949,0,11.813,4.896,11.813,10.598
	c0,6.131-4.524,11.079-10.763,16.725l-3.146,2.637v0.106h14.737v5.487H655.027z"/>
<path fill="#FFFFFF" d="M709.944,41.738c0,11.242-4.524,18.287-13.08,18.287c-8.28,0-12.696-7.315-12.75-17.963
	c0-10.866,4.747-18.182,13.137-18.182C705.918,23.881,709.944,31.412,709.944,41.738z M690.956,42.063
	c-0.054,8.495,2.375,12.907,6.13,12.907c3.975,0,6.07-4.732,6.07-13.124c0-8.121-1.985-12.907-6.07-12.907
	C693.441,28.938,690.902,33.295,690.956,42.063z"/>
<path fill="#FFFFFF" d="M724.848,30.444h-0.112l-6.569,3.228l-1.158-5.002l8.722-4.196h5.687v34.959h-6.568V30.444z"/>
<path fill="#FFFFFF" d="M765.636,29.153c-0.992,0-2.099,0-3.478,0.162c-7.508,0.86-11.151,5.377-12.035,10.218h0.168
	c1.766-1.989,4.471-3.388,8.058-3.388c6.184,0,10.985,4.302,10.985,11.401c0,6.668-5.023,12.479-12.642,12.479
	c-8.72,0-13.524-6.455-13.524-15.062c0-6.722,2.485-12.207,6.239-15.704c3.312-3.012,7.616-4.733,12.751-5.163
	c1.49-0.16,2.595-0.16,3.423-0.107L765.636,29.153z M762.434,47.925c0-4.036-2.263-6.939-6.237-6.939
	c-2.541,0-4.803,1.506-5.852,3.604c-0.275,0.538-0.441,1.184-0.441,2.097c0.11,4.627,2.372,8.391,6.733,8.391
	C760.171,55.077,762.434,52.119,762.434,47.925z"/>
</svg>
