<?xml version="1.0" encoding="utf-8"?>
<!-- Generator: Adobe Illustrator 16.0.0, SVG Export Plug-In . SVG Version: 6.00 Build 0)  -->
<!DOCTYPE svg PUBLIC "-//W3C//DTD SVG 1.1//EN" "http://www.w3.org/Graphics/SVG/1.1/DTD/svg11.dtd">
<svg version="1.1" id="레이어_1" xmlns="http://www.w3.org/2000/svg" xmlns:xlink="http://www.w3.org/1999/xlink" x="0px"
	 y="0px" width="816px" height="61px" viewBox="0 0 816 61" enable-background="new 0 0 816 61" xml:space="preserve">
<g>
	<path fill="#FFFFFF" d="M61.962,38.613c0-6.409,2.133-11.696,6.395-15.85c4.265-4.159,10.02-6.235,17.272-6.235
		c8.29,0,14.556,2.445,18.79,7.321c3.406,3.933,5.107,8.777,5.107,14.53c0,6.462-2.11,11.757-6.334,15.888
		c-4.225,4.131-10.067,6.196-17.524,6.196c-6.655,0-12.034-1.716-16.143-5.146C64.481,51.068,61.962,45.505,61.962,38.613z
		 M77.87,38.571c0,3.752,0.746,6.521,2.241,8.315c1.493,1.79,3.372,2.688,5.635,2.688c2.287,0,4.164-0.883,5.633-2.651
		c1.468-1.765,2.202-4.6,2.202-8.506c0-3.642-0.741-6.354-2.222-8.138c-1.479-1.779-3.314-2.671-5.498-2.671
		c-2.313,0-4.226,0.905-5.731,2.709C78.621,32.126,77.87,34.878,77.87,38.571z"/>
	<path fill="#FFFFFF" d="M117.172,17.478h14.775v6.847c2.21-2.794,4.443-4.795,6.707-5.998c2.261-1.199,5.016-1.799,8.264-1.799
		c4.394,0,7.831,1.326,10.313,3.979c2.481,2.651,3.726,6.75,3.726,12.286v26.725h-15.949V36.401c0-2.645-0.478-4.508-1.439-5.605
		c-0.962-1.094-2.313-1.643-4.054-1.643c-1.927,0-3.484,0.741-4.683,2.216c-1.195,1.479-1.792,4.134-1.792,7.956v20.191h-15.867
		V17.478z"/>
	<path fill="#FFFFFF" d="M170.428,17.478h14.775v6.847c2.211-2.794,4.444-4.795,6.706-5.998c2.264-1.199,5.019-1.799,8.265-1.799
		c4.394,0,7.832,1.326,10.314,3.979c2.482,2.651,3.725,6.75,3.725,12.286v26.725h-15.947V36.401c0-2.645-0.479-4.508-1.441-5.605
		c-0.962-1.094-2.313-1.643-4.055-1.643c-1.923,0-3.484,0.741-4.681,2.216c-1.193,1.479-1.792,4.134-1.792,7.956v20.191h-15.869
		V17.478z"/>
	<path fill="#FFFFFF" d="M269.652,42.497h-31.815c0.288,2.583,0.979,4.507,2.067,5.778c1.534,1.819,3.535,2.728,6.006,2.728
		c1.56,0,3.039-0.4,4.445-1.189c0.855-0.498,1.78-1.382,2.768-2.651l15.635,1.46c-2.392,4.227-5.278,7.256-8.656,9.09
		c-3.379,1.836-8.229,2.751-14.542,2.751c-5.488,0-9.8-0.791-12.943-2.358c-3.148-1.564-5.754-4.06-7.819-7.482
		c-2.067-3.41-3.101-7.432-3.101-12.051c0-6.567,2.073-11.886,6.221-15.946c4.146-4.064,9.869-6.098,17.175-6.098
		c5.926,0,10.604,0.909,14.035,2.729c3.432,1.82,6.042,4.46,7.837,7.918c1.794,3.457,2.688,7.955,2.688,13.497V42.497z
		 M253.511,34.775c-0.313-3.113-1.134-5.344-2.473-6.688c-1.341-1.349-3.101-2.02-5.283-2.02c-2.523,0-4.537,1.016-6.044,3.045
		c-0.963,1.266-1.573,3.151-1.835,5.662H253.511z"/>
	<path fill="#FFFFFF" d="M307.825,43.049l15.089,1.738c-0.832,3.195-2.197,5.957-4.094,8.291c-1.901,2.339-4.324,4.153-7.273,5.444
		c-2.951,1.289-6.699,1.94-11.249,1.94c-4.392,0-8.05-0.415-10.974-1.245c-2.925-0.832-5.438-2.173-7.544-4.037
		c-2.105-1.856-3.756-4.039-4.951-6.544c-1.197-2.502-1.794-5.825-1.794-9.963c0-4.323,0.727-7.925,2.183-10.799
		c1.067-2.106,2.522-4,4.367-5.672c1.846-1.672,3.742-2.918,5.693-3.735c3.092-1.294,7.057-1.939,11.89-1.939
		c6.761,0,11.914,1.228,15.46,3.679c3.549,2.458,6.038,6.045,7.467,10.768l-14.932,2.018c-0.47-1.794-1.32-3.143-2.555-4.055
		c-1.235-0.911-2.893-1.37-4.972-1.37c-2.626,0-4.752,0.959-6.375,2.869c-1.627,1.911-2.436,4.8-2.436,8.675
		c0,3.449,0.803,6.066,2.415,7.86c1.611,1.79,3.666,2.684,6.161,2.684c2.08,0,3.827-0.535,5.243-1.619
		C306.063,46.95,307.123,45.29,307.825,43.049z"/>
	<path fill="#FFFFFF" d="M349.347,1.489v15.989h8.734v11.795h-8.734v14.894c0,1.787,0.169,2.974,0.505,3.555
		c0.521,0.894,1.431,1.343,2.729,1.343c1.171,0,2.808-0.342,4.913-1.028l1.171,11.123c-3.925,0.87-7.59,1.304-10.995,1.304
		c-3.952,0-6.861-0.515-8.734-1.54c-1.871-1.028-3.254-2.591-4.151-4.688c-0.896-2.095-1.345-5.488-1.345-10.176V29.273h-5.85
		V17.478h5.85V9.761L349.347,1.489z"/>
	<path fill="#FFFFFF" d="M427.715,1.489h15.871V22.86c2.15-2.269,4.297-3.887,6.433-4.866c2.127-0.975,4.649-1.466,7.562-1.466
		c4.312,0,7.708,1.333,10.195,4c2.48,2.663,3.718,6.758,3.718,12.264v26.725h-15.942V36.401c0-2.645-0.478-4.508-1.439-5.605
		c-0.963-1.094-2.313-1.643-4.054-1.643c-1.928,0-3.483,0.741-4.685,2.216c-1.193,1.479-1.787,4.134-1.787,7.956v20.191h-15.871
		V1.489z"/>
	<path fill="#FFFFFF" d="M526.94,42.497h-31.812c0.283,2.583,0.969,4.507,2.067,5.778c1.526,1.819,3.528,2.728,5.994,2.728
		c1.564,0,3.042-0.4,4.448-1.189c0.856-0.498,1.774-1.382,2.769-2.651l15.637,1.46c-2.39,4.227-5.275,7.256-8.659,9.09
		c-3.374,1.836-8.228,2.751-14.544,2.751c-5.48,0-9.797-0.791-12.939-2.358c-3.146-1.564-5.754-4.06-7.822-7.482
		c-2.063-3.41-3.098-7.432-3.098-12.051c0-6.567,2.075-11.886,6.221-15.946c4.143-4.064,9.873-6.098,17.17-6.098
		c5.931,0,10.605,0.909,14.036,2.729c3.435,1.82,6.047,4.46,7.842,7.918c1.794,3.457,2.69,7.955,2.69,13.497V42.497z
		 M510.798,34.775c-0.313-3.113-1.14-5.344-2.473-6.688c-1.344-1.349-3.104-2.02-5.288-2.02c-2.52,0-4.534,1.016-6.041,3.045
		c-0.964,1.266-1.569,3.151-1.831,5.662H510.798z"/>
	<path fill="#FFFFFF" d="M636.94,59.517h-14.814v-6.812c-2.212,2.798-4.443,4.79-6.689,5.979c-2.249,1.185-5.008,1.779-8.284,1.779
		c-4.367,0-7.793-1.325-10.269-3.979c-2.484-2.651-3.726-6.738-3.726-12.252V17.478h15.94v23.117c0,2.635,0.483,4.51,1.45,5.618
		c0.957,1.113,2.308,1.66,4.053,1.66c1.892,0,3.447-0.734,4.658-2.212c1.211-1.481,1.814-4.131,1.814-7.956V17.478h15.866V59.517z"
		/>
	<path fill="#FFFFFF" d="M665.718,1.489v15.989h8.732v11.795h-8.732v14.894c0,1.787,0.168,2.974,0.505,3.555
		c0.521,0.894,1.429,1.343,2.731,1.343c1.175,0,2.806-0.342,4.913-1.028l1.169,11.123c-3.928,0.87-7.593,1.304-10.998,1.304
		c-3.945,0-6.858-0.515-8.736-1.54c-1.869-1.028-3.254-2.591-4.152-4.688c-0.892-2.095-1.343-5.488-1.343-10.176V29.273h-5.85
		V17.478h5.85V9.761L665.718,1.489z"/>
	<path fill="#FFFFFF" d="M725.637,59.517h-14.814v-6.812c-2.209,2.798-4.44,4.79-6.685,5.979c-2.248,1.185-5.013,1.779-8.289,1.779
		c-4.365,0-7.793-1.325-10.271-3.979c-2.487-2.651-3.724-6.738-3.724-12.252V17.478H697.8v23.117c0,2.635,0.48,4.51,1.445,5.618
		c0.96,1.113,2.314,1.66,4.055,1.66c1.895,0,3.453-0.734,4.661-2.212c1.206-1.481,1.81-4.131,1.81-7.956V17.478h15.866V59.517z"/>
	<path fill="#FFFFFF" d="M735.427,17.478h14.858v6.888c1.426-2.983,2.9-5.034,4.421-6.155c1.512-1.118,3.398-1.683,5.628-1.683
		c2.349,0,4.905,0.74,7.686,2.217l-4.914,11.479c-1.873-0.792-3.357-1.187-4.444-1.187c-2.082,0-3.688,0.869-4.831,2.612
		c-1.638,2.449-2.456,7.041-2.456,13.775v14.092h-15.947V17.478z"/>
	<path fill="#FFFFFF" d="M815.21,42.497h-31.819c0.29,2.583,0.979,4.507,2.07,5.778c1.533,1.819,3.532,2.728,6.004,2.728
		c1.553,0,3.036-0.4,4.445-1.189c0.857-0.498,1.772-1.382,2.764-2.651l15.635,1.46c-2.391,4.227-5.273,7.256-8.657,9.09
		c-3.374,1.836-8.228,2.751-14.536,2.751c-5.491,0-9.802-0.791-12.944-2.358c-3.146-1.564-5.754-4.06-7.82-7.482
		c-2.067-3.41-3.096-7.432-3.096-12.051c0-6.567,2.073-11.886,6.222-15.946c4.143-4.064,9.865-6.098,17.165-6.098
		c5.928,0,10.604,0.909,14.038,2.729c3.43,1.82,6.045,4.46,7.837,7.918c1.792,3.457,2.693,7.955,2.693,13.497V42.497z
		 M799.067,34.775c-0.313-3.113-1.141-5.344-2.479-6.688c-1.336-1.349-3.096-2.02-5.285-2.02c-2.513,0-4.534,1.016-6.035,3.045
		c-0.965,1.266-1.575,3.151-1.834,5.662H799.067z"/>
	<g>
		<g>
			<path fill="#EB5A22" d="M0.8,30.085c-0.002,0.096-0.01,0.182-0.01,0.272c0,7.206,1.427,13.112,4.287,17.726
				c2.859,4.616,6.26,7.839,10.197,9.67c3.938,1.834,9.013,2.747,15.224,2.747c5.121,0,9.338-0.752,12.65-2.254
				c3.315-1.504,6.09-3.735,8.326-6.691c2.237-2.949,3.872-6.636,4.911-11.04l-15.479-4.754c-0.776,3.67-2.032,6.473-3.762,8.392
				c-1.728,1.929-4.282,2.893-7.66,2.893c-3.484,0-6.189-1.184-8.111-3.576c-1.923-2.386-2.885-6.797-2.885-13.223
				c0-0.057,0.008-0.105,0.008-0.161H0.8z"/>
			<path fill="#00ACA5" d="M20.908,18.818c2.132-3.269,5.198-4.905,9.201-4.905c1.768,0,3.365,0.372,4.796,1.112
				c1.428,0.738,2.637,1.794,3.627,3.167c0.596,0.821,1.168,2.11,1.714,3.875l15.596-3.52c-2.001-6.121-5.063-10.659-9.184-13.616
				C42.538,1.973,36.879,0.5,29.68,0.5c-9.201,0-16.315,2.577-21.347,7.729C3.354,13.337,0.848,20.625,0.8,30.085h17.697
				C18.516,24.978,19.313,21.215,20.908,18.818z"/>
		</g>
	</g>
	<g>
		<g>
			<path fill="#EA63A0" d="M419.567,48.036c-2.109,0.687-3.743,1.028-4.915,1.028c-1.301,0-2.212-0.449-2.729-1.343
				c-0.343-0.581-0.506-1.768-0.506-3.555V29.273h8.73V17.478h-8.73v-5.706l-15.907,19.089V44.06c0,4.688,0.447,8.081,1.344,10.176
				c0.898,2.097,2.28,3.659,4.15,4.688c1.874,1.025,4.784,1.54,8.736,1.54c3.405,0,7.07-0.434,10.993-1.304L419.567,48.036z"/>
			<polygon fill="#4963AD" points="411.418,1.489 395.511,9.761 395.511,17.478 389.661,17.478 389.661,29.273 395.511,29.273 
				395.511,30.861 411.418,11.772 			"/>
		</g>
	</g>
	<g>
		<g>
			<path fill="#0090A8" d="M578.522,29.273h7.561V17.478h-7.561c0-1.874,0.061-3.099,0.195-3.683
				c0.259-1.052,0.703-1.827,1.323-2.312c0.622-0.491,1.65-0.734,3.081-0.734c1.172,0,2.702,0.158,4.6,0.474l1.756-9.734
				c-5.306-0.662-9.346-0.989-12.122-0.989c-3.489,0-6.136,0.399-7.942,1.208c-1.799,0.806-3.208,1.857-4.206,3.163
				c-1.001,1.307-1.685,2.991-2.044,5.048c-0.366,2.055-0.544,3.944-0.544,5.66v1.899h-5.925v11.795h5.925v12.594l15.903-8.538
				V29.273z"/>
			<polygon fill="#9E61A4" points="578.522,59.517 578.522,33.329 562.619,41.867 562.619,59.517 			"/>
		</g>
	</g>
</g>
</svg>
