<?xml version="1.0" encoding="utf-8"?>
<!-- Generator: Adobe Illustrator 16.0.0, SVG Export Plug-In . SVG Version: 6.00 Build 0)  -->
<!DOCTYPE svg PUBLIC "-//W3C//DTD SVG 1.1//EN" "http://www.w3.org/Graphics/SVG/1.1/DTD/svg11.dtd">
<svg version="1.1" id="레이어_1" xmlns="http://www.w3.org/2000/svg" xmlns:xlink="http://www.w3.org/1999/xlink" x="0px"
	 y="0px" width="152px" height="84px" viewBox="0 0 152 84" enable-background="new 0 0 152 84" xml:space="preserve">
<g>
	<path fill="#CDDB28" d="M44.283,84C30.957,84,16.196,83.21,0,81.634V65.661c17.633,1.184,30.798,1.775,39.496,1.775
		c1.835,0,3.291-0.533,4.368-1.598s1.616-2.503,1.616-4.318v-4.732c0-4.731-2.395-7.099-7.182-7.099H13.164V33.127h22.742
		c4.787,0,7.18-2.366,7.18-7.099v-2.366c0-4.732-2.393-7.099-7.18-7.099H1.196V0h40.694c7.818,0,13.563,1.756,17.233,5.266
		c3.67,3.51,5.507,8.854,5.507,16.03c0,4.732-1.098,8.577-3.292,11.535c-2.195,2.958-5.087,5.028-8.677,6.211
		c6.462,1.736,10.851,5.995,13.165,12.777c0.797,2.446,1.196,5.285,1.196,8.519v1.183c0,7.731-1.836,13.41-5.505,17.037
		C57.848,82.186,52.103,84,44.283,84z"/>
	<path fill="#CDDB28" d="M124.472,0c9.016,0,15.859,2.308,20.526,6.921c4.668,4.614,7.002,11.378,7.002,20.29v28.395
		c0,8.914-2.334,15.677-7.002,20.29c-4.667,4.614-11.511,6.921-20.526,6.921H77.794V0H124.472z M130.456,27.211
		c0-7.099-3.59-10.647-10.771-10.647H99.338v49.69h20.347c7.182,0,10.771-3.55,10.771-10.648V27.211z"/>
</g>
</svg>
