<?xml version="1.0" encoding="utf-8"?>
<!-- Generator: Adobe Illustrator 16.0.0, SVG Export Plug-In . SVG Version: 6.00 Build 0)  -->
<!DOCTYPE svg PUBLIC "-//W3C//DTD SVG 1.1//EN" "http://www.w3.org/Graphics/SVG/1.1/DTD/svg11.dtd">
<svg version="1.1" id="레이어_1" xmlns="http://www.w3.org/2000/svg" xmlns:xlink="http://www.w3.org/1999/xlink" x="0px"
	 y="0px" width="628px" height="562px" viewBox="0 0 628 562" enable-background="new 0 0 628 562" xml:space="preserve">
<path opacity="0.5" fill="#E11A8E" d="M32.202,396.381c-18.114,15.252-28.298,32.441-28.298,50.621
	c0,62.984,122.209,114.042,272.961,114.042c150.75,0,272.959-51.058,272.959-114.042c0.002-13.89-5.942-27.197-16.824-39.506
	c-2.84-3.215-6.023-6.356-9.52-9.426l0.336-0.043l-1.637-1.082c-8.683-7.416-19.231-14.376-31.396-20.779
	c0,0-47.836-18.127-48.758-32.271c-2.271-34.814,86.702-89.436,106.688-93.209c0.125-0.024-0.705,0.321-0.325,0.203
	c46.653-14.462,79.697-61.882,79.697-100.396c0-83.642-140.582-151.448-314-151.448c-173.416,0-314,67.806-314,151.448
	c0,7.644,2.637,58.306,26.577,98.486c20.731,34.794,62.997,59.425,65.64,69.567C104.802,366.508,54.299,377.511,32.202,396.381"/>
</svg>
