<?xml version="1.0" encoding="utf-8"?>
<!-- Generator: Adobe Illustrator 16.0.0, SVG Export Plug-In . SVG Version: 6.00 Build 0)  -->
<!DOCTYPE svg PUBLIC "-//W3C//DTD SVG 1.1//EN" "http://www.w3.org/Graphics/SVG/1.1/DTD/svg11.dtd">
<svg version="1.1" id="레이어_1" xmlns="http://www.w3.org/2000/svg" xmlns:xlink="http://www.w3.org/1999/xlink" x="0px"
	 y="0px" width="50px" height="80px" viewBox="0 0 50 80" enable-background="new 0 0 50 80" xml:space="preserve">
<path fill="#111111" d="M6.32,6.242h23.136c5.207,0,9.063,2.38,11.567,7.139c1.748,3.359,2.623,7.195,2.623,11.506
	c0,3.695-0.615,6.943-1.849,9.742c-1.272,2.912-3.002,4.9-5.188,5.963c2.106,1.289,3.52,2.829,4.234,4.62
	c1.033,2.408,1.551,6.468,1.551,12.179c0,5.15,0.078,8.371,0.237,9.657c0.239,1.736,0.854,2.854,1.849,3.358v1.681H33.868
	c-0.357-1.681-0.597-3.442-0.716-5.291c-0.158-2.127-0.237-4.786-0.237-7.979c0-4.981-0.358-8.201-1.074-9.657
	c-0.914-1.903-3.002-2.854-6.261-2.854h-9.898v25.782H6.32V6.242z M26.832,35.384c2.505,0,4.333-0.699,5.486-2.1
	c1.191-1.455,1.789-3.807,1.789-7.055c0-2.352-0.398-4.254-1.192-5.711c-1.114-1.959-2.883-2.939-5.308-2.939H15.682v17.805
	L26.832,35.384L26.832,35.384z"/>
</svg>
