<?xml version="1.0" encoding="utf-8"?>
<!-- Generator: Adobe Illustrator 16.0.0, SVG Export Plug-In . SVG Version: 6.00 Build 0)  -->
<!DOCTYPE svg PUBLIC "-//W3C//DTD SVG 1.1//EN" "http://www.w3.org/Graphics/SVG/1.1/DTD/svg11.dtd">
<svg version="1.1" id="레이어_1" xmlns="http://www.w3.org/2000/svg" xmlns:xlink="http://www.w3.org/1999/xlink" x="0px"
	 y="0px" width="50px" height="80px" viewBox="0 0 50 80" enable-background="new 0 0 50 80" xml:space="preserve">
<path fill="#111111" d="M14.812,51.846c0.039,2.633,0.597,4.787,1.67,6.467c1.63,2.576,4.313,3.863,8.05,3.863
	c2.663,0,4.79-0.531,6.38-1.596c2.066-1.398,3.102-3.639,3.102-6.719c0-2.353-0.774-4.172-2.326-5.459
	c-1.112-0.896-3.08-1.764-5.902-2.604l-4.89-1.764c-2.465-0.841-4.273-1.513-5.426-2.017c-1.869-0.896-3.399-1.932-4.592-3.107
	c-1.471-1.455-2.563-3.247-3.279-5.375c-0.796-2.407-1.192-5.318-1.192-8.734c-0.04-5.039,1.014-9.322,3.16-12.85
	c3.021-4.926,7.791-7.391,14.311-7.391c6.162,0,10.832,2.548,14.014,7.643c2.385,3.808,3.616,8.343,3.696,13.605h-9.004
	c-0.238-2.52-0.796-4.506-1.67-5.963c-1.59-2.52-4.174-3.779-7.751-3.779c-2.107,0-3.876,0.561-5.308,1.68
	c-1.749,1.4-2.623,3.443-2.623,6.131c0,2.128,0.536,3.752,1.609,4.871c0.636,0.672,1.67,1.289,3.101,1.848l0.119,0.084l11.151,4.031
	c3.696,1.232,6.439,2.912,8.229,5.039c2.465,2.913,3.697,7.111,3.697,12.598c0,8.344-2.505,14.334-7.514,17.973
	c-3.063,2.238-6.539,3.359-10.435,3.359c-7.355,0-12.682-2.658-15.98-7.979c-2.347-3.751-3.519-8.37-3.519-13.857h9.123V51.846z"/>
</svg>
