<?xml version="1.0" encoding="utf-8"?>
<!-- Generator: Adobe Illustrator 16.0.0, SVG Export Plug-In . SVG Version: 6.00 Build 0)  -->
<!DOCTYPE svg PUBLIC "-//W3C//DTD SVG 1.1//EN" "http://www.w3.org/Graphics/SVG/1.1/DTD/svg11.dtd">
<svg version="1.1" id="레이어_1" xmlns="http://www.w3.org/2000/svg" xmlns:xlink="http://www.w3.org/1999/xlink" x="0px"
	 y="0px" width="50px" height="80px" viewBox="0 0 50 80" enable-background="new 0 0 50 80" xml:space="preserve">
<path fill="#111111" d="M5.57,6.242h20.095c6.798,0,11.786,3.668,14.967,11.002c2.345,5.432,3.519,12.234,3.519,20.408
	c0,8.903-1.272,16.407-3.815,22.508c-3.301,7.951-8.289,11.926-14.967,11.926H5.57V6.242z M14.932,60.832h9.242
	c3.538,0,6.182-2.352,7.932-7.055c1.511-3.863,2.267-8.902,2.267-15.118c0-8.622-1.231-14.584-3.697-17.889
	c-1.591-2.127-3.837-3.191-6.738-3.191h-9.004L14.932,60.832L14.932,60.832z"/>
</svg>
