<?xml version="1.0" encoding="utf-8"?>
<!-- Generator: Adobe Illustrator 16.0.0, SVG Export Plug-In . SVG Version: 6.00 Build 0)  -->
<!DOCTYPE svg PUBLIC "-//W3C//DTD SVG 1.1//EN" "http://www.w3.org/Graphics/SVG/1.1/DTD/svg11.dtd">
<svg version="1.1" id="레이어_1" xmlns="http://www.w3.org/2000/svg" xmlns:xlink="http://www.w3.org/1999/xlink" x="0px"
	 y="0px" width="305px" height="30px" viewBox="0 0 305 30" enable-background="new 0 0 305 30" xml:space="preserve">
<g>
	<path fill="#111111" d="M24.056,22.953h-3.31v-7.848c0-0.895-0.187-1.558-0.559-1.99c-0.313-0.373-0.738-0.559-1.274-0.559
		c-0.791,0-1.372,0.246-1.744,0.738c-0.344,0.462-0.515,1.096-0.515,1.901v7.759H13.39v-7.781c-0.015-0.79-0.104-1.364-0.269-1.722
		c-0.298-0.596-0.887-0.895-1.767-0.895c-0.745,0-1.289,0.246-1.632,0.738c-0.299,0.417-0.447,1.014-0.447,1.789v7.871h-3.31V10.029
		h3.198v1.901h0.021c0.313-0.626,0.693-1.118,1.141-1.476c0.656-0.521,1.483-0.782,2.482-0.782c0.879,0,1.587,0.171,2.124,0.514
		c0.462,0.298,0.917,0.82,1.364,1.565l0.089-0.134c0.388-0.551,0.761-0.961,1.118-1.23c0.626-0.477,1.349-0.715,2.169-0.715
		c1.267,0,2.303,0.365,3.108,1.096c0.85,0.79,1.274,1.878,1.274,3.264v8.921H24.056z"/>
	<path fill="#111111" d="M38.434,20.471c0,0.688,0.066,1.186,0.201,1.498c0.104,0.225,0.275,0.396,0.514,0.516v0.47h-3.555
		c-0.104-0.298-0.179-0.537-0.224-0.716c-0.03-0.18-0.06-0.432-0.09-0.76c-0.566,0.565-1.065,0.977-1.498,1.229
		c-0.76,0.447-1.625,0.671-2.594,0.671c-1.059,0-1.938-0.306-2.639-0.917c-0.805-0.686-1.207-1.654-1.207-2.906
		c0-1.207,0.35-2.177,1.051-2.906c0.626-0.672,1.498-1.088,2.616-1.252l2.996-0.447c0.343-0.074,0.604-0.171,0.783-0.291
		c0.268-0.179,0.402-0.417,0.402-0.716c0-0.641-0.262-1.073-0.783-1.297c-0.313-0.149-0.775-0.224-1.386-0.224
		c-0.761,0-1.305,0.201-1.633,0.604c-0.254,0.298-0.395,0.701-0.425,1.208h-3.197c0.164-1.804,0.819-3.063,1.968-3.779
		c0.85-0.521,2.071-0.782,3.667-0.782c1.237,0,2.295,0.224,3.175,0.67c1.237,0.656,1.856,1.692,1.856,3.108v7.021H38.434z
		 M35.191,16.646c-0.164,0.149-0.41,0.276-0.738,0.381c-0.343,0.119-0.843,0.23-1.498,0.336c-0.761,0.148-1.297,0.328-1.61,0.537
		c-0.447,0.313-0.671,0.789-0.671,1.431c0,0.552,0.172,0.969,0.515,1.252c0.283,0.224,0.626,0.335,1.028,0.335
		c0.79,0,1.469-0.23,2.035-0.693c0.626-0.49,0.939-1.117,0.939-1.877V16.646z"/>
	<path fill="#111111" d="M45.477,11.885h0.022c0.433-0.671,0.864-1.163,1.297-1.476c0.686-0.492,1.521-0.738,2.505-0.738
		c1.476,0,2.697,0.551,3.667,1.654c1.058,1.208,1.587,2.885,1.587,5.032c0,1.967-0.425,3.584-1.274,4.852
		c-0.954,1.445-2.303,2.169-4.047,2.169c-1.014,0-1.849-0.253-2.505-0.761c-0.372-0.282-0.737-0.707-1.096-1.273h-0.021v4.807h-3.31
		V10.029h3.175V11.885z M46.147,19.398c0.507,0.774,1.252,1.162,2.236,1.162c0.954,0,1.677-0.47,2.169-1.408
		c0.388-0.717,0.581-1.559,0.581-2.527c0-1.163-0.209-2.086-0.626-2.772c-0.492-0.805-1.223-1.208-2.191-1.208
		c-1.059,0-1.818,0.425-2.28,1.274c-0.373,0.686-0.56,1.64-0.56,2.862C45.477,17.84,45.7,18.713,46.147,19.398z"/>
	<path fill="#111111" d="M75.238,21.701c-1.147,1.117-2.594,1.677-4.338,1.677c-1.788,0-3.265-0.56-4.427-1.677
		c-1.297-1.237-1.945-2.959-1.945-5.166c0-2.22,0.648-3.957,1.945-5.209c1.162-1.103,2.639-1.654,4.427-1.654
		c1.744,0,3.19,0.551,4.338,1.654c1.297,1.252,1.946,2.989,1.946,5.209C77.185,18.742,76.535,20.464,75.238,21.701z M73.249,13.897
		c-0.492-0.895-1.274-1.342-2.349-1.342c-1.117,0-1.923,0.447-2.414,1.342c-0.344,0.656-0.515,1.535-0.515,2.638
		c0,1.045,0.171,1.9,0.515,2.572c0.491,0.908,1.297,1.363,2.414,1.363c1.074,0,1.856-0.455,2.349-1.363
		c0.357-0.672,0.536-1.527,0.536-2.572C73.785,15.448,73.606,14.568,73.249,13.897z"/>
	<path fill="#111111" d="M83.954,22.953h-3.31V12.22H78.81V9.783h1.834V8.709c0-1.312,0.32-2.273,0.961-2.884
		c0.611-0.566,1.514-0.85,2.706-0.85c0.447,0,0.827,0.008,1.141,0.022c0.238,0.015,0.432,0.037,0.581,0.067v2.75h-0.939
		c-0.536,0-0.872,0.104-1.006,0.313c-0.09,0.149-0.134,0.522-0.134,1.118v0.537h2.169v2.438h-2.169V22.953z"/>
	<path fill="#111111" d="M100.188,22.953h-3.556V5.423h3.556v7.155l6.507-7.155h4.583l-6.932,7.2l7.356,10.331h-4.628l-5.21-7.692
		l-1.677,1.765L100.188,22.953L100.188,22.953z"/>
	<path fill="#111111" d="M125.512,20.471c0,0.688,0.066,1.186,0.201,1.498c0.104,0.225,0.275,0.396,0.514,0.516v0.47h-3.555
		c-0.104-0.298-0.179-0.537-0.224-0.716c-0.03-0.18-0.06-0.432-0.09-0.76c-0.566,0.565-1.065,0.977-1.498,1.229
		c-0.76,0.447-1.625,0.671-2.594,0.671c-1.059,0-1.938-0.306-2.639-0.917c-0.805-0.686-1.207-1.654-1.207-2.906
		c0-1.207,0.35-2.177,1.051-2.906c0.626-0.672,1.498-1.088,2.616-1.252l2.996-0.447c0.343-0.074,0.604-0.171,0.783-0.291
		c0.268-0.179,0.402-0.417,0.402-0.716c0-0.641-0.262-1.073-0.783-1.297c-0.313-0.149-0.775-0.224-1.386-0.224
		c-0.761,0-1.305,0.201-1.633,0.604c-0.254,0.298-0.395,0.701-0.425,1.208h-3.197c0.164-1.804,0.819-3.063,1.968-3.779
		c0.85-0.521,2.071-0.782,3.667-0.782c1.237,0,2.295,0.224,3.175,0.67c1.237,0.656,1.856,1.692,1.856,3.108v7.021H125.512z
		 M122.27,16.646c-0.164,0.149-0.41,0.276-0.738,0.381c-0.343,0.119-0.843,0.23-1.498,0.336c-0.761,0.148-1.297,0.328-1.61,0.537
		c-0.447,0.313-0.671,0.789-0.671,1.431c0,0.552,0.172,0.969,0.515,1.252c0.283,0.224,0.626,0.335,1.028,0.335
		c0.79,0,1.469-0.23,2.035-0.693c0.626-0.49,0.939-1.117,0.939-1.877V16.646z"/>
	<path fill="#111111" d="M129.425,10.029h3.197v2.259h0.022c0.432-0.865,0.85-1.476,1.252-1.834
		c0.596-0.521,1.371-0.782,2.325-0.782l0.648,0.044v3.511c-0.148-0.045-0.313-0.075-0.491-0.089c-0.104,0-0.246,0-0.425,0
		c-1.238,0-2.117,0.335-2.639,1.006c-0.373,0.492-0.56,1.193-0.56,2.102v6.708h-3.331V10.029H129.425z"/>
	<path fill="#111111" d="M143.825,8.62h-3.332V5.423h3.332V8.62z M143.825,10.141v12.813h-3.332V10.141H143.825z"/>
	<path fill="#111111" d="M166.453,22.953h-3.311v-7.848c0-0.895-0.187-1.558-0.559-1.99c-0.313-0.373-0.738-0.559-1.273-0.559
		c-0.791,0-1.373,0.246-1.744,0.738c-0.344,0.462-0.516,1.096-0.516,1.901v7.759h-3.265v-7.781c-0.015-0.79-0.104-1.364-0.269-1.722
		c-0.299-0.596-0.888-0.895-1.768-0.895c-0.745,0-1.289,0.246-1.632,0.738c-0.299,0.417-0.447,1.014-0.447,1.789v7.871h-3.31V10.029
		h3.198v1.901h0.021c0.313-0.626,0.693-1.118,1.141-1.476c0.656-0.521,1.483-0.782,2.482-0.782c0.879,0,1.587,0.171,2.124,0.514
		c0.462,0.298,0.917,0.82,1.364,1.565l0.088-0.134c0.389-0.551,0.762-0.961,1.119-1.23c0.625-0.477,1.349-0.715,2.168-0.715
		c1.268,0,2.304,0.365,3.108,1.096c0.851,0.79,1.274,1.878,1.274,3.264v8.921H166.453z"/>
	<path fill="#111111" d="M173.156,7.815c0,1.401-0.344,2.49-1.028,3.265c-0.552,0.626-1.387,1.081-2.505,1.364h-0.021v-1.319
		c0.597-0.208,1.028-0.462,1.297-0.76c0.402-0.447,0.642-1.125,0.716-2.035h-2.013V4.752h3.556L173.156,7.815L173.156,7.815z"/>
	<path fill="#111111" d="M199.453,14.009c-0.089-0.551-0.253-0.954-0.491-1.208c-0.358-0.343-0.946-0.514-1.767-0.514
		s-1.387,0.142-1.7,0.425c-0.224,0.194-0.335,0.477-0.335,0.85c0,0.357,0.27,0.641,0.805,0.85c0.328,0.149,0.969,0.321,1.924,0.514
		c1.609,0.328,2.75,0.685,3.422,1.073c1.162,0.642,1.744,1.595,1.744,2.862c0,1.67-0.672,2.893-2.014,3.666
		c-0.971,0.566-2.141,0.851-3.511,0.851c-1.671,0-3.033-0.328-4.093-0.983c-1.297-0.789-1.959-1.976-1.989-3.556h3.442
		c0,0.611,0.193,1.073,0.582,1.386c0.447,0.373,1.17,0.561,2.17,0.561c0.744,0,1.312-0.163,1.698-0.491
		c0.298-0.254,0.447-0.545,0.447-0.873c0-0.401-0.283-0.724-0.851-0.961c-0.344-0.135-1.006-0.306-1.989-0.515
		c-1.58-0.327-2.698-0.678-3.354-1.051c-1.117-0.642-1.677-1.596-1.677-2.863c0-1.163,0.356-2.131,1.073-2.907
		c0.895-0.969,2.242-1.453,4.047-1.453c1.521,0,2.734,0.261,3.646,0.782c1.221,0.701,1.893,1.886,2.012,3.556h-3.242V14.009z"/>
	<path fill="#111111" d="M217.789,9.873h2.057v2.437h-2.057v7.424c0,0.433,0.061,0.699,0.179,0.805
		c0.164,0.165,0.566,0.246,1.207,0.246l0.671-0.044v2.549l-0.647,0.021l-0.916,0.067h-0.403c-1.355,0-2.295-0.261-2.816-0.782
		c-0.418-0.418-0.627-1.096-0.627-2.035v-8.25h-1.677V9.873h1.677V6.339h3.354L217.789,9.873L217.789,9.873z"/>
	<path fill="#111111" d="M234.273,20.471c0,0.688,0.065,1.186,0.201,1.498c0.104,0.225,0.274,0.396,0.514,0.516v0.47h-3.555
		c-0.104-0.298-0.18-0.537-0.225-0.716c-0.029-0.18-0.061-0.432-0.09-0.76c-0.566,0.565-1.064,0.977-1.498,1.229
		c-0.76,0.447-1.625,0.671-2.594,0.671c-1.06,0-1.938-0.306-2.639-0.917c-0.806-0.686-1.207-1.654-1.207-2.906
		c0-1.207,0.35-2.177,1.051-2.906c0.625-0.672,1.498-1.088,2.615-1.252l2.996-0.447c0.344-0.074,0.604-0.171,0.783-0.291
		c0.268-0.179,0.402-0.417,0.402-0.716c0-0.641-0.262-1.073-0.783-1.297c-0.313-0.149-0.775-0.224-1.387-0.224
		c-0.76,0-1.305,0.201-1.633,0.604c-0.254,0.298-0.395,0.701-0.425,1.208h-3.196c0.164-1.804,0.818-3.063,1.968-3.779
		c0.85-0.521,2.071-0.782,3.667-0.782c1.236,0,2.295,0.224,3.175,0.67c1.237,0.656,1.856,1.692,1.856,3.108v7.021H234.273z
		 M231.031,16.646c-0.164,0.149-0.41,0.276-0.738,0.381c-0.343,0.119-0.843,0.23-1.498,0.336c-0.761,0.148-1.297,0.328-1.609,0.537
		c-0.447,0.313-0.672,0.789-0.672,1.431c0,0.552,0.172,0.969,0.516,1.252c0.283,0.224,0.626,0.335,1.027,0.335
		c0.791,0,1.469-0.23,2.035-0.693c0.626-0.49,0.939-1.117,0.939-1.877V16.646z"/>
	<path fill="#111111" d="M241.625,9.873h2.057v2.437h-2.057v7.424c0,0.433,0.061,0.699,0.18,0.805
		c0.163,0.165,0.565,0.246,1.206,0.246l0.671-0.044v2.549l-0.647,0.021l-0.916,0.067h-0.403c-1.355,0-2.295-0.261-2.816-0.782
		c-0.418-0.418-0.627-1.096-0.627-2.035v-8.25h-1.677V9.873h1.677V6.339h3.354L241.625,9.873L241.625,9.873z"/>
	<path fill="#111111" d="M251.036,9.873h2.057v2.437h-2.057v7.424c0,0.433,0.06,0.699,0.179,0.805
		c0.164,0.165,0.566,0.246,1.207,0.246l0.671-0.044v2.549l-0.647,0.021l-0.916,0.067h-0.403c-1.356,0-2.295-0.261-2.817-0.782
		c-0.416-0.418-0.625-1.096-0.625-2.035v-8.25h-1.678V9.873h1.678V6.339h3.354L251.036,9.873L251.036,9.873z"/>
	<path fill="#111111" d="M266.818,21.701c-1.146,1.117-2.594,1.677-4.338,1.677c-1.787,0-3.265-0.56-4.427-1.677
		c-1.297-1.237-1.944-2.959-1.944-5.166c0-2.22,0.647-3.957,1.944-5.209c1.162-1.103,2.64-1.654,4.427-1.654
		c1.744,0,3.19,0.551,4.338,1.654c1.298,1.252,1.947,2.989,1.947,5.209C268.766,18.742,268.116,20.464,266.818,21.701z
		 M264.83,13.897c-0.492-0.895-1.273-1.342-2.35-1.342c-1.116,0-1.922,0.447-2.414,1.342c-0.344,0.656-0.515,1.535-0.515,2.638
		c0,1.045,0.171,1.9,0.515,2.572c0.492,0.908,1.298,1.363,2.414,1.363c1.074,0,1.856-0.455,2.35-1.363
		c0.357-0.672,0.536-1.527,0.536-2.572C265.366,15.448,265.188,14.568,264.83,13.897z"/>
	<path fill="#111111" d="M282.068,21.701c-1.146,1.117-2.594,1.677-4.338,1.677c-1.787,0-3.265-0.56-4.427-1.677
		c-1.297-1.237-1.944-2.959-1.944-5.166c0-2.22,0.647-3.957,1.944-5.209c1.162-1.103,2.64-1.654,4.427-1.654
		c1.744,0,3.19,0.551,4.338,1.654c1.298,1.252,1.947,2.989,1.947,5.209C284.016,18.742,283.366,20.464,282.068,21.701z
		 M280.08,13.897c-0.492-0.895-1.273-1.342-2.35-1.342c-1.116,0-1.922,0.447-2.414,1.342c-0.344,0.656-0.515,1.535-0.515,2.638
		c0,1.045,0.171,1.9,0.515,2.572c0.492,0.908,1.298,1.363,2.414,1.363c1.074,0,1.856-0.455,2.35-1.363
		c0.357-0.672,0.536-1.527,0.536-2.572C280.616,15.448,280.438,14.568,280.08,13.897z"/>
	<path fill="#111111" d="M294.546,14.009c-0.089-0.551-0.253-0.954-0.491-1.208c-0.357-0.343-0.947-0.514-1.767-0.514
		c-0.82,0-1.388,0.142-1.7,0.425c-0.223,0.194-0.335,0.477-0.335,0.85c0,0.357,0.269,0.641,0.806,0.85
		c0.327,0.149,0.969,0.321,1.922,0.514c1.61,0.328,2.752,0.685,3.422,1.073c1.162,0.642,1.744,1.595,1.744,2.862
		c0,1.67-0.67,2.893-2.013,3.666c-0.97,0.566-2.14,0.851-3.511,0.851c-1.67,0-3.033-0.328-4.092-0.983
		c-1.297-0.789-1.961-1.976-1.99-3.556h3.443c0,0.611,0.192,1.073,0.582,1.386c0.446,0.373,1.17,0.561,2.168,0.561
		c0.746,0,1.313-0.163,1.699-0.491c0.299-0.254,0.447-0.545,0.447-0.873c0-0.401-0.283-0.724-0.85-0.961
		c-0.344-0.135-1.008-0.306-1.99-0.515c-1.58-0.327-2.698-0.678-3.354-1.051c-1.119-0.642-1.678-1.596-1.678-2.863
		c0-1.163,0.357-2.131,1.073-2.907c0.896-0.969,2.243-1.453,4.047-1.453c1.521,0,2.735,0.261,3.646,0.782
		c1.223,0.701,1.894,1.886,2.013,3.556h-3.242V14.009z"/>
</g>
</svg>
