<?xml version="1.0" encoding="utf-8"?>
<!-- Generator: Adobe Illustrator 16.0.0, SVG Export Plug-In . SVG Version: 6.00 Build 0)  -->
<!DOCTYPE svg PUBLIC "-//W3C//DTD SVG 1.1//EN" "http://www.w3.org/Graphics/SVG/1.1/DTD/svg11.dtd">
<svg version="1.1" id="레이어_1" xmlns="http://www.w3.org/2000/svg" xmlns:xlink="http://www.w3.org/1999/xlink" x="0px"
	 y="0px" width="225px" height="30px" viewBox="0 0 225 30" enable-background="new 0 0 225 30" xml:space="preserve">
<g>
	<path fill="#111111" d="M16.498,20.598c0,0.687,0.066,1.184,0.201,1.498c0.104,0.223,0.275,0.396,0.514,0.514v0.47h-3.555
		c-0.104-0.298-0.179-0.536-0.224-0.716c-0.03-0.18-0.06-0.432-0.09-0.76c-0.566,0.566-1.065,0.978-1.498,1.229
		c-0.76,0.446-1.625,0.672-2.594,0.672c-1.059,0-1.938-0.308-2.639-0.917c-0.805-0.686-1.207-1.654-1.207-2.906
		c0-1.207,0.35-2.177,1.051-2.906c0.626-0.672,1.498-1.088,2.616-1.252l2.996-0.447c0.343-0.074,0.604-0.171,0.783-0.291
		c0.268-0.179,0.402-0.417,0.402-0.716c0-0.641-0.262-1.073-0.783-1.297c-0.313-0.149-0.775-0.224-1.386-0.224
		c-0.761,0-1.305,0.201-1.633,0.604c-0.252,0.297-0.392,0.7-0.423,1.206H5.832c0.164-1.804,0.819-3.063,1.968-3.779
		c0.85-0.521,2.071-0.782,3.667-0.782c1.237,0,2.295,0.224,3.175,0.67c1.237,0.656,1.856,1.692,1.856,3.108V20.598z M13.256,16.773
		c-0.164,0.147-0.41,0.274-0.738,0.379c-0.343,0.121-0.843,0.231-1.498,0.336c-0.761,0.148-1.297,0.328-1.61,0.537
		c-0.447,0.313-0.671,0.789-0.671,1.432c0,0.551,0.172,0.969,0.515,1.252c0.283,0.223,0.626,0.335,1.028,0.335
		c0.79,0,1.469-0.231,2.035-0.692c0.626-0.492,0.939-1.119,0.939-1.879V16.773z"/>
	<path fill="#111111" d="M31.703,23.078h-3.31V15.23c-0.016-0.716-0.12-1.26-0.313-1.632c-0.328-0.611-0.938-0.917-1.833-0.917
		c-0.775,0-1.409,0.254-1.901,0.76c-0.507,0.537-0.76,1.282-0.76,2.237v7.4h-3.31V10.154h3.198v1.901h0.021
		c0.373-0.626,0.768-1.103,1.186-1.431c0.716-0.551,1.588-0.827,2.616-0.827c1.297,0,2.34,0.365,3.13,1.096
		c0.851,0.775,1.275,1.863,1.275,3.264L31.703,23.078L31.703,23.078z"/>
	<path fill="#111111" d="M46.953,23.078h-3.242v-1.564c-0.389,0.67-0.933,1.178-1.633,1.521c-0.626,0.313-1.305,0.47-2.035,0.47
		c-1.788,0-3.16-0.724-4.114-2.17c-0.835-1.267-1.252-2.884-1.252-4.853c0-2.146,0.529-3.823,1.588-5.03
		c0.969-1.103,2.191-1.654,3.667-1.654c0.954,0,1.773,0.238,2.46,0.715c0.462,0.313,0.864,0.753,1.207,1.319h0.045V5.548h3.31
		L46.953,23.078L46.953,23.078z M38.657,19.277c0.477,0.938,1.207,1.408,2.191,1.408c0.998,0,1.767-0.388,2.303-1.162
		c0.462-0.687,0.693-1.559,0.693-2.617c0-1.207-0.201-2.16-0.604-2.861c-0.478-0.85-1.23-1.274-2.259-1.274
		c-0.999,0-1.744,0.402-2.236,1.208c-0.417,0.686-0.626,1.61-0.626,2.773C38.12,17.721,38.299,18.563,38.657,19.277z"/>
	<path fill="#111111" d="M62.18,9.998h2.057v2.437H62.18v7.424c0,0.432,0.06,0.699,0.179,0.805c0.164,0.164,0.566,0.246,1.207,0.246
		l0.671-0.045v2.549l-0.648,0.021l-0.916,0.067H62.27c-1.356,0-2.295-0.262-2.817-0.782c-0.417-0.418-0.626-1.097-0.626-2.035v-8.25
		H57.15V9.998h1.677V6.465h3.354L62.18,9.998L62.18,9.998z"/>
	<path fill="#111111" d="M79.42,23.078h-3.309V15.23c-0.016-0.73-0.112-1.275-0.291-1.632c-0.328-0.611-0.962-0.917-1.9-0.917
		c-0.761,0-1.387,0.254-1.879,0.76c-0.507,0.552-0.76,1.297-0.76,2.237v7.4h-3.31V5.548h3.31v6.283h0.045
		c0.224-0.566,0.663-1.043,1.319-1.431c0.715-0.402,1.52-0.604,2.414-0.604c1.282,0,2.318,0.365,3.108,1.096
		c0.835,0.775,1.252,1.863,1.252,3.264L79.42,23.078L79.42,23.078z"/>
	<path fill="#111111" d="M94.199,19.322c-0.402,1.432-1.162,2.512-2.28,3.242c-0.925,0.625-1.99,0.938-3.197,0.938
		c-1.894,0-3.369-0.521-4.428-1.565c-1.192-1.207-1.789-3.063-1.789-5.566c-0.015-1.461,0.299-2.758,0.939-3.891
		c1.014-1.789,2.69-2.683,5.031-2.683c1.565,0,2.847,0.447,3.846,1.341c1.327,1.208,1.99,3.13,1.99,5.768v0.672h-8.497v0.09
		c0.119,0.85,0.313,1.49,0.581,1.922c0.462,0.775,1.237,1.164,2.326,1.164c0.462,0,0.887-0.127,1.274-0.381
		c0.402-0.268,0.686-0.618,0.85-1.051H94.199z M90.957,15.32c-0.089-0.939-0.402-1.647-0.938-2.125
		c-0.447-0.372-0.97-0.559-1.565-0.559c-0.73,0-1.312,0.239-1.744,0.716c-0.418,0.462-0.671,1.118-0.761,1.968H90.957z"/>
	<path fill="#111111" d="M101.534,8.746h-3.332V5.548h3.332V8.746z M101.534,10.266v12.812h-3.332V10.266H101.534z"/>
	<path fill="#111111" d="M106.208,10.154h3.197v2.259h0.021c0.432-0.865,0.85-1.476,1.252-1.834
		c0.596-0.521,1.371-0.782,2.325-0.782l0.648,0.044v3.511c-0.148-0.045-0.313-0.075-0.491-0.089c-0.104,0-0.246,0-0.425,0
		c-1.238,0-2.117,0.335-2.639,1.006c-0.373,0.492-0.56,1.193-0.56,2.103v6.707h-3.331V10.154H106.208z"/>
	<path fill="#111111" d="M134.336,21.826c-1.146,1.117-2.594,1.678-4.338,1.678c-1.788,0-3.266-0.561-4.428-1.678
		c-1.297-1.236-1.944-2.959-1.944-5.165c0-2.221,0.647-3.958,1.944-5.21c1.162-1.103,2.64-1.654,4.428-1.654
		c1.744,0,3.189,0.551,4.338,1.654c1.297,1.252,1.946,2.989,1.946,5.21C136.282,18.867,135.633,20.59,134.336,21.826z
		 M132.348,14.023c-0.492-0.895-1.274-1.342-2.35-1.342c-1.117,0-1.923,0.447-2.414,1.342c-0.344,0.656-0.516,1.536-0.516,2.638
		c0,1.044,0.172,1.901,0.516,2.571c0.491,0.91,1.297,1.363,2.414,1.363c1.074,0,1.855-0.453,2.35-1.363
		c0.356-0.67,0.535-1.527,0.535-2.571C132.883,15.572,132.704,14.693,132.348,14.023z"/>
	<path fill="#111111" d="M139.568,10.154h3.197v2.259h0.022c0.433-0.865,0.851-1.476,1.252-1.834
		c0.596-0.521,1.371-0.782,2.325-0.782l0.648,0.044v3.511c-0.148-0.045-0.313-0.075-0.492-0.089c-0.104,0-0.246,0-0.424,0
		c-1.238,0-2.117,0.335-2.64,1.006c-0.373,0.492-0.56,1.193-0.56,2.103v6.707h-3.332V10.154H139.568z"/>
	<path fill="#111111" d="M153.97,8.746h-3.331V5.548h3.331V8.746z M153.97,10.266v12.812h-3.331V10.266H153.97z"/>
	<path fill="#111111" d="M170.136,10.154v11.069c-0.016,1.356-0.313,2.399-0.895,3.131c-0.984,1.235-2.825,1.854-5.523,1.854
		c-1.489,0-2.704-0.254-3.645-0.761c-1.134-0.581-1.753-1.461-1.855-2.639h3.577c0.209,0.269,0.425,0.455,0.648,0.56
		c0.371,0.18,0.945,0.269,1.722,0.269c0.851,0,1.498-0.156,1.944-0.47c0.479-0.328,0.717-0.827,0.717-1.498v-1.297l-0.09-0.045
		c-0.313,0.597-0.692,1.051-1.141,1.364c-0.566,0.402-1.305,0.604-2.214,0.604c-1.61,0-2.907-0.544-3.891-1.632
		c-1.06-1.147-1.589-2.742-1.589-4.785c0-1.878,0.529-3.384,1.589-4.517c0.998-1.043,2.229-1.565,3.688-1.565
		c1.028,0,1.887,0.268,2.571,0.805c0.462,0.358,0.851,0.85,1.163,1.476h0.044v-1.923H170.136z M161.93,18.249
		c0.478,0.774,1.162,1.163,2.057,1.163c1.015,0,1.768-0.396,2.26-1.186c0.387-0.611,0.581-1.371,0.581-2.281
		c0-0.82-0.254-1.535-0.761-2.146c-0.551-0.686-1.252-1.029-2.103-1.029c-0.716,0-1.312,0.254-1.789,0.76
		c-0.552,0.597-0.827,1.454-0.827,2.572C161.348,16.922,161.541,17.639,161.93,18.249z"/>
	<path fill="#111111" d="M177.807,8.746h-3.332V5.548h3.332V8.746z M177.807,10.266v12.812h-3.332V10.266H177.807z"/>
	<path fill="#111111" d="M193.771,23.078h-3.311V15.23c-0.016-0.716-0.12-1.26-0.313-1.632c-0.328-0.611-0.938-0.917-1.834-0.917
		c-0.774,0-1.408,0.254-1.9,0.76c-0.507,0.537-0.76,1.282-0.76,2.237v7.4h-3.311V10.154h3.198v1.901h0.021
		c0.373-0.626,0.769-1.103,1.187-1.431c0.716-0.551,1.588-0.827,2.616-0.827c1.297,0,2.34,0.365,3.13,1.096
		c0.851,0.775,1.274,1.863,1.274,3.264v8.921H193.771z"/>
	<path fill="#111111" d="M204.973,14.135c-0.089-0.551-0.253-0.954-0.49-1.208c-0.358-0.343-0.947-0.514-1.768-0.514
		s-1.387,0.142-1.699,0.425c-0.224,0.194-0.336,0.477-0.336,0.85c0,0.357,0.27,0.641,0.805,0.85c0.328,0.149,0.97,0.321,1.924,0.514
		c1.609,0.328,2.751,0.686,3.422,1.074c1.162,0.642,1.744,1.595,1.744,2.86c0,1.67-0.672,2.894-2.014,3.668
		c-0.97,0.566-2.14,0.851-3.511,0.851c-1.67,0-3.032-0.327-4.092-0.983c-1.297-0.789-1.96-1.976-1.99-3.556h3.443
		c0,0.611,0.192,1.072,0.582,1.386c0.446,0.373,1.17,0.561,2.169,0.561c0.745,0,1.313-0.164,1.699-0.492
		c0.298-0.254,0.447-0.544,0.447-0.872c0-0.403-0.283-0.724-0.851-0.962c-0.344-0.134-1.007-0.305-1.99-0.514
		c-1.579-0.328-2.698-0.678-3.354-1.051c-1.118-0.642-1.677-1.595-1.677-2.863c0-1.163,0.356-2.131,1.072-2.907
		c0.896-0.969,2.243-1.453,4.047-1.453c1.521,0,2.735,0.261,3.646,0.782c1.222,0.701,1.893,1.886,2.012,3.556L204.973,14.135
		L204.973,14.135z"/>
	<path fill="#111111" d="M216.178,23.078h-3.556v-3.555h3.556V23.078z"/>
</g>
</svg>
