<?xml version="1.0" encoding="utf-8"?>
<!-- Generator: Adobe Illustrator 16.0.0, SVG Export Plug-In . SVG Version: 6.00 Build 0)  -->
<!DOCTYPE svg PUBLIC "-//W3C//DTD SVG 1.1//EN" "http://www.w3.org/Graphics/SVG/1.1/DTD/svg11.dtd">
<svg version="1.1" id="레이어_1" xmlns="http://www.w3.org/2000/svg" xmlns:xlink="http://www.w3.org/1999/xlink" x="0px"
	 y="0px" width="136px" height="54px" viewBox="0 0 136 54" enable-background="new 0 0 136 54" xml:space="preserve">
<path fill="#111111" d="M42.24,34.75c-2.175,1.113-4.36,2.063-6.524,2.859c0.162-1.328,0.81-2.824,1.893-4.301
	c1.296-1.765,3.807-4.313,8.417-6.375c1.871-0.838,3.596-1.04,4.391-0.528c0.191,0.128,0.439,0.352,0.439,0.936
	C50.855,29.453,48.279,31.666,42.24,34.75 M39.882,41.666c-2.226,0.128-3.686-0.725-4.086-2.415
	c-0.015-0.056-0.024-0.122-0.038-0.183c2.36-0.852,4.75-1.873,7.11-3.076c2.593-1.32,4.569-2.496,6.022-3.596
	C47.296,35.377,43.337,41.473,39.882,41.666 M19.998,40.402c-3.795-0.189-5.176-0.986-5.663-1.639
	c-0.303-0.395-0.381-0.882-0.232-1.515c0.289-1.289,2.975-3.375,8.975-6.978c0.238-0.141,0.465-0.273,0.702-0.42
	c0.393,3.104,0.922,6.795,1.584,10.33C23.503,40.408,21.708,40.48,19.998,40.402 M126.499,32.396
	c-0.037-0.385-0.377-0.664-0.754-0.629c-0.362,0.037-0.632,0.342-0.632,0.696c0,0.017,0,0.048,0.006,0.065
	c0.005,0.084,0.017,0.171,0.021,0.261c-3.69-4.823-9.718-8.832-14.015-9.184c-3.185-0.263-6.226,2.256-9.03,7.488
	c-1.466,2.727-2.56,5.62-3.248,7.627c-0.961-4.604-2.921-13.436-3.181-14.173c-0.115-0.316-0.394-0.528-0.715-0.528
	c-0.541,0-0.836,0.443-1.403,1.686c-0.347,0.76-0.79,1.831-1.35,3.267c-1.01,2.619-2.199,5.898-3.246,8.799
	c-0.491,1.357-0.987,2.732-1.393,3.822c-0.186-3-0.252-8.342-0.297-11.928c-0.021-1.941-0.047-3.608-0.07-4.849
	c-0.024-0.663-0.043-1.143-0.067-1.479c-0.024-0.473-0.073-1.192-0.76-1.192c-0.48,0-0.662,0.354-1.017,1.064l-0.871,1.802
	c-1.057,2.208-2.655,5.56-4.299,8.442c-2.471,4.36-3.705,5.304-4.217,5.479c-0.061,0.023-0.141,0.035-0.298-0.055
	c-0.448-0.287-1.633-1.66-2.915-8.176c-0.73-3.686-1.129-7.214-1.135-7.25L70.389,23.4c1.125-1.168,2.447-2.513,3.893-3.948
	c2.285,0.116,4.258,0.16,5.226,0.067c0.382-0.038,0.666-0.377,0.632-0.753c-0.047-0.384-0.385-0.656-0.763-0.627
	c-0.741,0.073-2.106,0.055-3.757-0.011c4.654-4.563,10.206-9.654,14.264-12.238c0.174,0.109,0.456,0.357,0.666,0.595
	C90.8,6.77,91.238,6.8,91.525,6.546c0.285-0.252,0.32-0.694,0.063-0.981c-0.503-0.57-1.476-1.459-2.272-0.96
	c-4.488,2.811-10.672,8.545-15.594,13.431c-4.435-0.25-9.844-0.754-11.224-1.064c-0.371-0.074-0.746,0.156-0.828,0.533
	c-0.083,0.367,0.151,0.744,0.522,0.828c1.356,0.292,5.991,0.743,10.219,1.018c-3.746,3.759-6.508,6.755-6.771,7.038
	c-0.255,0.278-0.236,0.721,0.043,0.979c0.284,0.261,0.725,0.237,0.979-0.043c0.05-0.043,1.419-1.539,3.549-3.741
	c-1.723,8.225-3.449,15.328-4.267,17.615c-0.765-1.666-2.055-5.998-2.956-9.026c-2.305-7.748-2.846-9.167-3.63-9.446
	c-0.243-0.085-0.515-0.049-0.727,0.102c-1.116,0.769-1.906,3.743-3.1,8.534c-0.876,3.523-2.068,8.347-3.145,9.119
	c-0.005,0.006-0.005,0.006-0.013,0.02c-0.127-0.122-0.492-0.607-0.93-2.557c-0.374-1.68-0.682-3.928-0.936-5.918
	c0,0-0.063-0.469-0.116-0.905c1.276-1.283,1.849-2.487,1.849-3.778c0-1.161-0.578-1.78-1.069-2.097
	c-1.218-0.792-3.359-0.628-5.719,0.431c-7.439,3.326-11.06,8.552-11.153,12.433c-2.58,0.869-5.117,1.496-7.563,1.887
	c-0.701-3.741-1.257-7.671-1.655-10.877C33.076,24.69,44.786,20,46.866,20c0.39,0,0.692-0.311,0.692-0.688
	c0-0.39-0.303-0.699-0.692-0.699c-2.451,0-13.924,4.627-21.962,9.021c-0.373-3.152-0.568-5.312-0.568-5.366
	c-0.036-0.383-0.371-0.663-0.754-0.632c-0.385,0.037-0.663,0.371-0.634,0.755c0.006,0.061,0.227,2.487,0.649,5.966
	c-0.429,0.25-0.832,0.486-1.233,0.725c-6.697,4.02-9.215,6.076-9.622,7.871c-0.231,1.021-0.069,1.922,0.492,2.65
	c0.975,1.297,3.172,2.015,6.698,2.176c1.811,0.099,3.722,0.01,5.697-0.229c0.352,1.752,0.738,3.436,1.145,4.971
	c0.102,0.369,0.48,0.59,0.854,0.486c0.373-0.099,0.584-0.48,0.491-0.854c-0.401-1.484-0.772-3.106-1.113-4.805
	c2.403-0.377,4.903-0.992,7.431-1.824c0.003,0.022,0.003,0.041,0.009,0.055c0.566,2.342,2.627,3.631,5.523,3.468
	c3.911-0.221,7.683-5.769,9.445-8.755c0.207,1.455,0.432,2.854,0.694,4.027c0.48,2.117,1.004,3.152,1.754,3.479
	c0.255,0.104,0.764,0.225,1.345-0.195c1.371-1.002,2.345-4.572,3.674-9.908c0.642-2.555,1.469-5.9,2.163-7.213
	c0.637,1.431,1.762,5.202,2.621,8.084c2.295,7.738,3.1,10.049,3.977,10.475c0.232,0.104,0.48,0.119,0.7,0.029
	c0.44-0.182,0.851-0.346,2.639-7.684c0.658-2.711,1.305-5.584,1.807-7.846c0.156,1.046,0.361,2.23,0.6,3.425
	c1.537,7.812,3.041,8.765,3.54,9.074c0.474,0.312,0.983,0.378,1.489,0.207c2.566-0.869,6.148-8.011,9.314-14.634
	c0.028-0.062,0.055-0.121,0.086-0.182c0.026,1.223,0.039,2.75,0.063,4.25c0.035,3.092,0.073,6.6,0.183,9.422
	c0.056,1.545,0.117,2.713,0.194,3.563c0.134,1.509,0.306,1.856,0.62,2.063l0.275,0.188l0.33-0.096
	c0.451-0.154,0.451-0.154,2.781-6.577c1.238-3.442,3.342-9.263,4.461-11.801c0.941,3.96,3.184,14.429,3.262,15.074l0.027,0.504
	l0.561,0.123c0.218,0.03,0.619,0.006,0.812-0.584l0.103-0.334c3.332-10.646,7.527-16.568,11.523-16.242
	c4.195,0.347,10.52,4.792,13.807,9.725c0.418,0.621,0.865,0.577,1.095,0.493C126.335,35.061,126.729,34.713,126.499,32.396"/>
</svg>
