<?xml version="1.0" encoding="utf-8"?>
<!-- Generator: Adobe Illustrator 16.0.0, SVG Export Plug-In . SVG Version: 6.00 Build 0)  -->
<!DOCTYPE svg PUBLIC "-//W3C//DTD SVG 1.1//EN" "http://www.w3.org/Graphics/SVG/1.1/DTD/svg11.dtd">
<svg version="1.1" id="레이어_1" xmlns="http://www.w3.org/2000/svg" xmlns:xlink="http://www.w3.org/1999/xlink" x="0px"
	 y="0px" width="180px" height="90px" viewBox="0 0 180 90" enable-background="new 0 0 180 90" xml:space="preserve">
<path fill="#CCCCCC" d="M148.123,24H23.25l13.315-11.67l-3.289-3.705L13.073,26.343l20.202,17.749l3.289-3.033L23.017,30h125.106
	C156.662,30,164,36.038,164,44.764v9.719C164,63.211,156.662,71,148.123,71H32.313c-8.698,0-15.771-8-15.771-16H11
	c0,12,9.56,21,21.313,21h115.81C159.719,76,169,66.277,169,54.482v-9.719C169,32.968,159.719,24,148.123,24z"/>
</svg>
