<?xml version="1.0" encoding="utf-8"?>
<!-- Generator: Adobe Illustrator 16.0.0, SVG Export Plug-In . SVG Version: 6.00 Build 0)  -->
<!DOCTYPE svg PUBLIC "-//W3C//DTD SVG 1.1//EN" "http://www.w3.org/Graphics/SVG/1.1/DTD/svg11.dtd">
<svg version="1.1" id="레이어_1" xmlns="http://www.w3.org/2000/svg" xmlns:xlink="http://www.w3.org/1999/xlink" x="0px"
	 y="0px" width="20px" height="20px" viewBox="0 0 20 20" enable-background="new 0 0 20 20" xml:space="preserve">
<path fill="#111111" d="M12.093,10l5.66-5.66c0.578-0.578,0.578-1.515,0-2.093c-0.577-0.578-1.517-0.578-2.093,0L10,7.908
	L4.34,2.247c-0.578-0.578-1.515-0.578-2.094,0c-0.578,0.578-0.578,1.515,0,2.093L7.908,10l-5.661,5.66
	c-0.578,0.576-0.578,1.515,0,2.092c0.289,0.289,0.668,0.436,1.046,0.436c0.38,0,0.758-0.146,1.047-0.436L10,12.094l5.66,5.658
	c0.289,0.289,0.667,0.436,1.047,0.436c0.379,0,0.758-0.146,1.046-0.436c0.578-0.577,0.578-1.516,0-2.092L12.093,10z"/>
</svg>
