<?xml version="1.0" encoding="utf-8"?>
<!-- Generator: Adobe Illustrator 16.0.0, SVG Export Plug-In . SVG Version: 6.00 Build 0)  -->
<!DOCTYPE svg PUBLIC "-//W3C//DTD SVG 1.1//EN" "http://www.w3.org/Graphics/SVG/1.1/DTD/svg11.dtd">
<svg version="1.1" id="레이어_1" xmlns="http://www.w3.org/2000/svg" xmlns:xlink="http://www.w3.org/1999/xlink" x="0px"
	 y="0px" width="256px" height="256px" viewBox="0 0 256 256" enable-background="new 0 0 256 256" xml:space="preserve">
<path fill="#FFFFFF" stroke="#000000" stroke-miterlimit="10" d="M79.598,198.744l-0.71-1.401c-0.444-0.881-0.686-1.626-0.726-2.236
	c-0.041-0.611,0.11-1.191,0.451-1.741c0.513-0.825,1.215-1.318,2.108-1.478c0.893-0.16,1.796,0.045,2.712,0.613
	c0.875,0.543,1.525,1.287,1.951,2.231l-1.057,1.703c-0.304-1.195-0.892-2.063-1.762-2.603c-0.49-0.305-0.963-0.441-1.419-0.411
	c-0.456,0.032-0.793,0.224-1.013,0.577c-0.195,0.314-0.261,0.682-0.2,1.1c0.062,0.417,0.257,0.938,0.584,1.558l0.725,1.39
	c0.804,1.557,0.84,2.927,0.108,4.106c-0.521,0.841-1.227,1.349-2.116,1.524c-0.889,0.176-1.784-0.016-2.684-0.574
	c-1.036-0.643-1.78-1.547-2.236-2.711l1.183-1.905c0.173,1.529,0.792,2.624,1.857,3.286c0.47,0.291,0.943,0.404,1.418,0.336
	c0.475-0.067,0.834-0.298,1.079-0.691C80.247,200.778,80.163,199.888,79.598,198.744z"/>
<path fill="#FFFFFF" stroke="#000000" stroke-miterlimit="10" d="M93.709,198.361l1.967,1.003l-7.427,2.785l2.996,8.803
	l-2.148-1.095l-2.85-8.293l-2.768,5.429l-1.573-0.802l5.603-10.991l1.573,0.803l-2.563,5.026L93.709,198.361z"/>
<text transform="matrix(0.8074 -0.59 0.59 0.8074 178.2656 197.9297)" fill="#FFFFFF" stroke="#000000" stroke-miterlimit="10" font-family="'GillSansMT'" font-size="18.0866"> </text>
<polygon fill="#FFFFFF" stroke="#000000" stroke-miterlimit="10" points="46.408,83.049 49.494,83.049 52.2,91.899 55.133,83.012 
	57.597,83.012 60.526,91.899 63.238,83.049 66.243,83.049 61.778,96.214 59.275,96.214 56.324,87.661 53.377,96.214 50.878,96.214 
	"/>
<path fill="#FFFFFF" stroke="#000000" stroke-miterlimit="10" d="M70.674,96.345c-0.748,0-1.438-0.124-2.078-0.373
	c-0.646-0.252-1.2-0.604-1.662-1.064c-0.47-0.462-0.833-1.007-1.099-1.637c-0.256-0.627-0.386-1.326-0.386-2.1v-0.037
	c0-0.709,0.119-1.381,0.364-2.018c0.243-0.635,0.577-1.187,1.016-1.66c0.436-0.473,0.952-0.848,1.563-1.123
	c0.6-0.274,1.27-0.41,2.007-0.41c0.834,0,1.553,0.152,2.161,0.451c0.614,0.298,1.122,0.699,1.518,1.203
	c0.408,0.504,0.711,1.082,0.901,1.736c0.195,0.655,0.289,1.334,0.289,2.043c0,0.117,0,0.235-0.006,0.359
	c-0.01,0.122-0.018,0.253-0.029,0.389h-6.963c0.134,0.646,0.417,1.138,0.848,1.467c0.424,0.33,0.961,0.495,1.596,0.495
	c0.469,0,0.895-0.081,1.269-0.243c0.374-0.161,0.76-0.423,1.158-0.783l1.625,1.435c-0.476,0.588-1.048,1.045-1.718,1.374
	C72.375,96.18,71.583,96.345,70.674,96.345 M72.505,90.329c-0.083-0.632-0.311-1.145-0.673-1.54c-0.36-0.392-0.84-0.587-1.433-0.587
	c-0.602,0-1.083,0.194-1.449,0.578c-0.373,0.386-0.608,0.904-0.721,1.549H72.505z"/>
<rect x="76.378" y="82.487" fill="#FFFFFF" stroke="#000000" stroke-miterlimit="10" width="2.842" height="13.631"/>
<path fill="#FFFFFF" stroke="#000000" stroke-miterlimit="10" d="M85.284,96.345c-0.747,0-1.44-0.14-2.083-0.41
	c-0.642-0.274-1.19-0.644-1.65-1.113c-0.465-0.467-0.822-1.014-1.087-1.645c-0.257-0.628-0.39-1.297-0.39-2.006v-0.037
	c0-0.709,0.133-1.381,0.39-2.018c0.265-0.634,0.622-1.187,1.087-1.66c0.46-0.472,1.008-0.847,1.65-1.123
	c0.643-0.273,1.35-0.41,2.116-0.41c0.95,0,1.734,0.152,2.356,0.451c0.625,0.298,1.172,0.709,1.642,1.232l-1.734,1.868
	c-0.328-0.339-0.658-0.604-1.003-0.805c-0.337-0.196-0.767-0.298-1.276-0.298c-0.361,0-0.684,0.071-0.985,0.215
	c-0.284,0.142-0.542,0.337-0.761,0.588c-0.221,0.249-0.387,0.539-0.502,0.865c-0.117,0.333-0.181,0.685-0.181,1.058v0.037
	c0,0.388,0.064,0.746,0.181,1.084c0.115,0.334,0.288,0.631,0.512,0.878c0.223,0.249,0.49,0.444,0.802,0.588
	c0.311,0.14,0.662,0.214,1.043,0.214c0.479,0,0.891-0.096,1.243-0.29c0.357-0.194,0.706-0.45,1.054-0.775l1.667,1.681
	c-0.488,0.535-1.042,0.977-1.667,1.317C87.09,96.171,86.281,96.345,85.284,96.345"/>
<path fill="#FFFFFF" stroke="#000000" stroke-miterlimit="10" d="M95,96.345c-0.772,0-1.486-0.136-2.147-0.401
	c-0.663-0.27-1.227-0.637-1.707-1.101c-0.482-0.468-0.856-1.019-1.126-1.644c-0.278-0.631-0.413-1.303-0.413-2.028v-0.037
	c0-0.72,0.135-1.392,0.413-2.023c0.27-0.632,0.651-1.182,1.135-1.654c0.486-0.473,1.055-0.848,1.718-1.123
	c0.659-0.274,1.379-0.411,2.167-0.411c0.769,0,1.484,0.137,2.147,0.402c0.658,0.27,1.227,0.636,1.708,1.103
	c0.478,0.467,0.852,1.014,1.132,1.644c0.269,0.629,0.407,1.304,0.407,2.025v0.037c0,0.722-0.138,1.398-0.407,2.028
	c-0.28,0.628-0.654,1.178-1.144,1.65c-0.485,0.476-1.052,0.85-1.719,1.123C96.509,96.206,95.786,96.345,95,96.345 M95.041,93.897
	c0.407,0,0.774-0.074,1.09-0.214c0.315-0.143,0.593-0.339,0.813-0.588c0.221-0.247,0.395-0.541,0.511-0.869
	c0.122-0.328,0.176-0.683,0.176-1.056v-0.037c0-0.374-0.062-0.724-0.182-1.056c-0.124-0.327-0.308-0.619-0.546-0.874
	c-0.232-0.255-0.512-0.457-0.836-0.61c-0.326-0.149-0.68-0.222-1.066-0.222c-0.412,0-0.774,0.07-1.092,0.214
	c-0.313,0.142-0.589,0.337-0.817,0.588c-0.218,0.249-0.392,0.539-0.508,0.866c-0.117,0.333-0.179,0.684-0.179,1.057v0.037
	c0,0.373,0.062,0.723,0.187,1.054c0.122,0.331,0.305,0.625,0.544,0.882c0.234,0.253,0.51,0.455,0.828,0.604
	C94.281,93.824,94.639,93.897,95.041,93.897"/>
<path fill="#FFFFFF" stroke="#000000" stroke-miterlimit="10" d="M101.163,86.112h2.836v1.431c0.159-0.215,0.339-0.42,0.533-0.613
	c0.193-0.193,0.408-0.367,0.642-0.516c0.243-0.151,0.499-0.271,0.798-0.358c0.291-0.09,0.615-0.133,0.977-0.133
	c0.661,0,1.229,0.139,1.705,0.414c0.483,0.277,0.857,0.671,1.115,1.187c0.437-0.528,0.92-0.927,1.454-1.197
	c0.541-0.268,1.145-0.404,1.83-0.404c1.059,0,1.888,0.312,2.487,0.935c0.597,0.624,0.896,1.538,0.896,2.744v6.516h-2.839v-5.569
	c0-0.668-0.147-1.175-0.429-1.517c-0.283-0.342-0.7-0.513-1.234-0.513c-0.536,0-0.956,0.171-1.258,0.513
	c-0.303,0.342-0.459,0.849-0.459,1.517v5.569h-2.838v-5.569c0-0.668-0.144-1.175-0.43-1.517c-0.282-0.342-0.698-0.513-1.232-0.513
	c-0.533,0-0.953,0.171-1.258,0.513c-0.31,0.342-0.46,0.849-0.46,1.517v5.569h-2.836V86.112z"/>
<path fill="#FFFFFF" stroke="#000000" stroke-miterlimit="10" d="M122.515,96.345c-0.751,0-1.441-0.124-2.087-0.373
	c-0.639-0.252-1.193-0.604-1.655-1.064c-0.475-0.462-0.836-1.007-1.098-1.637c-0.258-0.627-0.393-1.326-0.393-2.1v-0.037
	c0-0.709,0.123-1.381,0.364-2.018c0.244-0.635,0.584-1.187,1.021-1.66c0.435-0.473,0.954-0.848,1.558-1.123
	c0.604-0.274,1.271-0.41,2.007-0.41c0.835,0,1.555,0.152,2.164,0.451c0.613,0.298,1.117,0.699,1.523,1.203
	c0.406,0.504,0.703,1.082,0.899,1.736c0.191,0.655,0.284,1.334,0.284,2.043c0,0.117,0,0.235-0.006,0.359
	c-0.007,0.122-0.018,0.253-0.029,0.389h-6.968c0.144,0.646,0.426,1.138,0.853,1.467c0.432,0.33,0.967,0.495,1.598,0.495
	c0.472,0,0.896-0.081,1.268-0.243c0.371-0.161,0.757-0.423,1.158-0.783l1.629,1.435c-0.478,0.588-1.053,1.045-1.723,1.374
	C124.209,96.18,123.417,96.345,122.515,96.345 M124.346,90.329c-0.09-0.632-0.315-1.145-0.678-1.54
	c-0.361-0.392-0.84-0.587-1.436-0.587c-0.597,0-1.085,0.194-1.447,0.578c-0.368,0.386-0.612,0.904-0.719,1.549H124.346z"/>
<path fill="#FFFFFF" stroke="#000000" stroke-miterlimit="10" d="M134.793,96.281c-0.438,0-0.828-0.049-1.184-0.142
	c-0.356-0.093-0.664-0.257-0.919-0.494c-0.253-0.235-0.455-0.545-0.596-0.924c-0.143-0.378-0.215-0.861-0.215-1.449v-4.741h-1.195
	v-2.428h1.195v-2.557h2.84v2.557h2.349v2.428h-2.349v4.291c0,0.649,0.302,0.978,0.913,0.978c0.499,0,0.964-0.129,1.397-0.374v2.275
	c-0.298,0.174-0.626,0.317-0.985,0.421C135.684,96.23,135.266,96.281,134.793,96.281"/>
<path fill="#FFFFFF" stroke="#000000" stroke-miterlimit="10" d="M143.14,96.337c-0.773,0-1.489-0.135-2.147-0.402
	c-0.662-0.268-1.23-0.635-1.71-1.104c-0.479-0.463-0.853-1.012-1.128-1.64c-0.271-0.629-0.413-1.308-0.413-2.028v-0.035
	c0-0.721,0.142-1.399,0.413-2.029c0.275-0.625,0.651-1.178,1.134-1.652c0.487-0.473,1.063-0.844,1.724-1.119
	c0.658-0.274,1.38-0.412,2.166-0.412c0.771,0,1.484,0.135,2.146,0.402c0.66,0.269,1.228,0.636,1.709,1.104
	c0.481,0.466,0.855,1.017,1.129,1.642c0.272,0.631,0.411,1.306,0.411,2.025v0.039c0,0.72-0.139,1.398-0.411,2.024
	c-0.273,0.63-0.656,1.178-1.141,1.652c-0.482,0.475-1.06,0.848-1.715,1.121C144.643,96.199,143.927,96.337,143.14,96.337
	 M143.178,93.892c0.405,0,0.772-0.073,1.094-0.218c0.314-0.139,0.586-0.337,0.806-0.588c0.229-0.245,0.4-0.537,0.518-0.867
	c0.115-0.329,0.179-0.681,0.179-1.056v-0.035c0-0.373-0.065-0.726-0.189-1.055c-0.126-0.328-0.302-0.623-0.539-0.879
	c-0.237-0.255-0.517-0.454-0.846-0.603c-0.317-0.152-0.673-0.23-1.06-0.23c-0.41,0-0.773,0.078-1.092,0.219
	c-0.316,0.142-0.59,0.336-0.814,0.586c-0.222,0.248-0.393,0.539-0.516,0.868c-0.115,0.329-0.172,0.68-0.172,1.055v0.039
	c0,0.373,0.062,0.723,0.184,1.054c0.125,0.329,0.306,0.622,0.542,0.88c0.236,0.255,0.512,0.454,0.828,0.603
	C142.421,93.818,142.779,93.892,143.178,93.892"/>
<polygon fill="#FFFFFF" stroke="#000000" stroke-miterlimit="10" points="120.953,122.087 125.295,122.087 125.295,130.723 
	133.311,122.087 138.558,122.087 130.518,130.465 138.928,141.841 133.707,141.841 127.584,133.431 125.295,135.8 125.295,141.841 
	120.953,141.841 "/>
<path fill="#FFFFFF" stroke="#000000" stroke-miterlimit="10" d="M147.229,142.177c-1.525,0-2.928-0.268-4.205-0.802
	c-1.281-0.538-2.39-1.263-3.317-2.177c-0.93-0.911-1.654-1.98-2.169-3.214c-0.524-1.231-0.776-2.554-0.776-3.963v-0.061
	c0-1.409,0.256-2.73,0.787-3.965c0.527-1.231,1.257-2.31,2.187-3.241c0.931-0.935,2.038-1.665,3.331-2.203
	c1.289-0.534,2.699-0.806,4.216-0.806c1.521,0,2.926,0.272,4.207,0.806c1.279,0.538,2.384,1.261,3.316,2.174
	c0.929,0.914,1.653,1.986,2.17,3.215c0.517,1.233,0.776,2.555,0.776,3.964v0.056c0,1.413-0.267,2.735-0.788,3.967
	c-0.524,1.23-1.254,2.313-2.187,3.244c-0.933,0.934-2.044,1.665-3.333,2.203C150.158,141.909,148.752,142.177,147.229,142.177
	 M147.281,138.172c0.871,0,1.666-0.159,2.4-0.479c0.735-0.323,1.356-0.765,1.88-1.327c0.516-0.566,0.914-1.219,1.209-1.963
	c0.291-0.743,0.439-1.537,0.439-2.382v-0.061c0-0.847-0.148-1.644-0.439-2.397c-0.295-0.753-0.702-1.411-1.237-1.975
	c-0.54-0.563-1.169-1.009-1.907-1.341c-0.735-0.326-1.535-0.494-2.397-0.494c-0.885,0-1.69,0.16-2.415,0.482
	c-0.723,0.317-1.342,0.76-1.863,1.325c-0.516,0.564-0.92,1.218-1.214,1.962c-0.291,0.742-0.436,1.535-0.436,2.382v0.056
	c0,0.848,0.145,1.647,0.436,2.399c0.294,0.753,0.709,1.411,1.242,1.978c0.54,0.565,1.168,1.011,1.892,1.337
	C145.594,138.006,146.397,138.172,147.281,138.172"/>
<path fill="#FFFFFF" stroke="#000000" stroke-miterlimit="10" d="M159.365,122.087h9.029c2.498,0,4.416,0.666,5.75,2.005
	c1.135,1.127,1.695,2.634,1.695,4.514v0.057c0,1.598-0.387,2.901-1.17,3.907c-0.781,1.007-1.8,1.744-3.063,2.215l4.824,7.057h-5.077
	l-4.228-6.321h-0.063h-3.354v6.321h-4.345V122.087z M168.114,131.684c1.066,0,1.892-0.258,2.462-0.765
	c0.576-0.506,0.862-1.184,0.862-2.032v-0.055c0-0.94-0.299-1.647-0.901-2.117c-0.603-0.472-1.44-0.706-2.51-0.706h-4.317v5.675
	H168.114z"/>
<polygon fill="#FFFFFF" stroke="#000000" stroke-miterlimit="10" points="178.035,122.087 192.906,122.087 192.906,125.953 
	182.327,125.953 182.327,129.961 191.64,129.961 191.64,133.825 182.327,133.825 182.327,137.974 193.048,137.974 193.048,141.841 
	178.035,141.841 "/>
<path fill="#FFFFFF" stroke="#000000" stroke-miterlimit="10" d="M202.407,121.945h4.01l8.464,19.896h-4.544l-1.808-4.432h-8.35
	l-1.805,4.432h-4.431L202.407,121.945z M206.981,133.572l-2.623-6.406l-2.627,6.406H206.981z"/>
<path fill="#FFFFFF" stroke="#000000" stroke-miterlimit="10" d="M76.28,126.789c-0.844-1.863-2.005-3.394-3.492-4.58
	c-1.487-1.186-3.207-2.064-5.173-2.633c-1.968-0.575-4.073-0.859-6.317-0.859c-1.28,0-2.374,0.076-3.305,0.229
	c-0.922,0.156-1.848,0.338-2.771,0.556l0.526-8.569H76.71v-8.914H47.03l-1.318,23.303l5.876,3.897
	c1.097-0.483,2.3-0.893,3.597-1.224c1.304-0.328,2.677-0.494,4.132-0.494c2.419,0,4.387,0.553,5.907,1.66
	c1.521,1.104,2.281,2.652,2.281,4.643v0.136c0,2.079-0.694,3.672-2.079,4.779c-1.392,1.104-3.271,1.66-5.651,1.66
	c-2.065,0-3.982-0.443-5.747-1.322c-1.757-0.878-3.519-2.115-5.279-3.699l-6.141,7.314c2.242,2.141,4.758,3.825,7.529,5.052
	c2.775,1.221,6.034,1.834,9.774,1.834c2.637,0,5.054-0.374,7.238-1.12c2.189-0.75,4.041-1.813,5.572-3.199
	c1.533-1.38,2.715-3.052,3.559-5.005c0.842-1.957,1.261-4.164,1.261-6.623v-0.133C77.541,130.886,77.122,128.655,76.28,126.789"/>
<path fill="#FFFFFF" stroke="#000000" stroke-miterlimit="10" d="M96.777,102.291c-3.337,0-6.451,0.626-9.256,1.857
	c-2.8,1.235-5.254,2.944-7.297,5.084c-2.04,2.133-3.661,4.652-4.806,7.471c-1.143,2.82-1.726,5.888-1.726,9.116v0.131
	c0,3.352,0.573,6.494,1.699,9.337c1.124,2.852,2.718,5.344,4.741,7.413c2.026,2.077,4.491,3.724,7.305,4.89
	c2.816,1.166,5.986,1.761,9.404,1.761c3.998,0,7.607-0.712,10.719-2.115c3.097-1.399,5.803-3.112,8.05-5.095l0.106-0.088v-19.939
	H96.194v9.144h9.606v6.032l-0.508,0.329c-2.256,1.464-4.991,2.205-8.137,2.205c-1.891,0-3.622-0.345-5.155-1.029
	c-1.533-0.688-2.894-1.663-4.04-2.91c-1.141-1.251-2.038-2.744-2.659-4.434c-0.629-1.7-0.948-3.582-0.948-5.596v-0.128
	c0-1.89,0.319-3.687,0.948-5.341c0.622-1.652,1.495-3.113,2.608-4.341c1.1-1.225,2.396-2.216,3.858-2.945
	c1.453-0.725,3.037-1.089,4.705-1.089c1.202,0,2.324,0.107,3.33,0.312c1.006,0.209,1.952,0.504,2.816,0.877
	c0.853,0.369,1.704,0.835,2.513,1.381c0.812,0.544,1.634,1.185,2.443,1.898l0.283,0.249l6.414-8.008l-0.207-0.18
	c-1.111-0.982-2.294-1.878-3.515-2.662c-1.212-0.78-2.528-1.44-3.907-1.958c-1.375-0.52-2.889-0.924-4.497-1.206
	C100.534,102.433,98.728,102.291,96.777,102.291"/>
<path fill="#FFFFFF" stroke="#000000" stroke-miterlimit="10" d="M96.652,199.709l9.76,3.312l-0.506,1.488l-4.072-1.382
	l-3.465,10.212l-1.681-0.57l3.465-10.212l-4.007-1.359L96.652,199.709z"/>
<path fill="#FFFFFF" stroke="#000000" stroke-miterlimit="10" d="M107.476,203.222l6.851,1.414l-0.317,1.54l-5.12-1.058
	l-0.761,3.686l4.947,1.021l-0.32,1.547l-4.946-1.021l-0.775,3.754l5.285,1.092l-0.318,1.539l-7.015-1.448L107.476,203.222z"/>
<path fill="#FFFFFF" stroke="#000000" stroke-miterlimit="10" d="M115.756,204.799l1.762,0.125l-0.758,10.704l5.541,0.392
	l-0.113,1.604l-7.303-0.517L115.756,204.799z"/>
<path fill="#FFFFFF" stroke="#000000" stroke-miterlimit="10" d="M124.011,205.188l6.981-0.416l0.094,1.57l-5.217,0.311l0.223,3.756
	l5.042-0.3l0.094,1.577l-5.042,0.3l0.228,3.826l5.384-0.319l0.094,1.568l-7.149,0.426L124.011,205.188z"/>
<path fill="#FFFFFF" stroke="#000000" stroke-miterlimit="10" d="M144.588,212.256l0.322,1.916c-1.16,0.912-2.576,1.509-4.248,1.791
	c-1.357,0.229-2.557,0.149-3.594-0.235c-1.039-0.388-1.916-1.014-2.629-1.879c-0.711-0.864-1.162-1.854-1.35-2.969
	c-0.299-1.771,0.082-3.366,1.141-4.787c1.061-1.42,2.516-2.285,4.367-2.598c1.277-0.215,2.752-0.121,4.428,0.284l0.314,1.872
	c-1.559-0.574-3.018-0.746-4.377-0.517c-1.393,0.235-2.475,0.87-3.246,1.903c-0.773,1.035-1.049,2.214-0.824,3.538
	c0.225,1.336,0.863,2.356,1.912,3.063c1.051,0.708,2.281,0.942,3.691,0.704C141.973,214.095,143.336,213.397,144.588,212.256z"/>
<path fill="#FFFFFF" stroke="#000000" stroke-miterlimit="10" d="M150.131,200.534c1.809-0.604,3.506-0.533,5.09,0.21
	s2.666,1.978,3.242,3.704c0.574,1.725,0.445,3.355-0.393,4.891c-0.836,1.537-2.178,2.613-4.023,3.229
	c-1.764,0.589-3.422,0.513-4.977-0.226c-1.551-0.738-2.611-1.959-3.18-3.662c-0.584-1.748-0.475-3.393,0.326-4.932
	C147.018,202.209,148.322,201.138,150.131,200.534z M150.729,202.103c-1.338,0.447-2.299,1.232-2.881,2.357
	c-0.584,1.127-0.658,2.34-0.223,3.641c0.422,1.264,1.203,2.168,2.348,2.717c1.145,0.551,2.367,0.607,3.668,0.174
	c1.305-0.436,2.252-1.227,2.84-2.373c0.588-1.145,0.67-2.355,0.244-3.629c-0.414-1.24-1.197-2.137-2.354-2.691
	S152.002,201.679,150.729,202.103z"/>
<path fill="#FFFFFF" stroke="#000000" stroke-miterlimit="10" d="M166.303,193.262l1.445-0.797l5.953,10.808l-1.557,0.856
	l-4.631-8.409l-1.021,6.008l-0.287,0.157l-5.66-2.326l4.631,8.409l-1.549,0.852l-5.951-10.807l1.465-0.808l6.037,2.462
	L166.303,193.262z"/>
</svg>
