<?xml version="1.0" encoding="utf-8"?>
<!-- Generator: Adobe Illustrator 16.0.0, SVG Export Plug-In . SVG Version: 6.00 Build 0)  -->
<!DOCTYPE svg PUBLIC "-//W3C//DTD SVG 1.1//EN" "http://www.w3.org/Graphics/SVG/1.1/DTD/svg11.dtd">
<svg version="1.1" id="레이어_1" xmlns="http://www.w3.org/2000/svg" xmlns:xlink="http://www.w3.org/1999/xlink" x="0px"
	 y="0px" width="100px" height="100px" viewBox="0 0 100 100" enable-background="new 0 0 100 100" xml:space="preserve">
<path fill="#E9E0D6" d="M23.583,37c0.688-0.021,1.126,0.425,1.407,0.875c0.373,0.604,0.131,1.252-0.324,1.79
	c-1.572,1.832-2.716,3.9-3.35,6.221c-1.616,5.927-0.625,11.355,3.229,16.189c0.722,0.897,0.69,1.817-0.091,2.459
	c-0.718,0.577-1.604,0.442-2.29-0.425c-2.389-3.016-3.975-6.392-4.474-10.245c-0.75-5.976,0.692-11.328,4.452-16.021
	C22.488,37.409,22.873,37.021,23.583,37z"/>
<path fill="#E9E0D6" d="M82.5,51.109c-0.045,4.925-1.68,9.25-4.713,13.065c-0.738,0.925-1.584,1.117-2.329,0.528
	c-0.851-0.686-0.869-1.557-0.091-2.516c2.549-3.127,3.886-6.685,3.976-10.742c0.104-4.38-1.235-8.221-3.968-11.609
	c-0.712-0.88-0.663-1.761,0.086-2.396c0.675-0.577,1.602-0.46,2.287,0.391c2.432,2.992,4.004,6.378,4.484,10.231
	C82.359,49.077,82.414,50.096,82.5,51.109z"/>
<path fill="#E9E0D6" d="M23.619,50.9c-0.016-3.5,1.113-6.591,3.161-9.375c0.651-0.884,1.321-1.151,1.992-0.81
	c0.911,0.465,1.159,1.455,0.563,2.284c-1.753,2.436-2.673,5.13-2.631,8.149c0.051,2.769,0.883,5.26,2.436,7.521
	c0.626,0.895,0.602,1.698-0.085,2.239c-0.776,0.6-1.537,0.448-2.233-0.491C24.704,57.598,23.595,54.441,23.619,50.9z"/>
<path fill="#E9E0D6" d="M76.41,51.057c-0.071,3.539-1.215,6.651-3.296,9.452c-0.726,0.978-1.524,1.123-2.292,0.513
	c-0.75-0.597-0.535-1.765,0.033-2.467c1.227-1.547,1.986-3.367,2.172-5.324c0.166-1.82,0.221-3.689-0.022-5.493
	c-0.155-1.145-0.922-2.217-1.469-3.294c-0.259-0.496-0.697-0.899-0.985-1.381c-0.435-0.727-0.253-1.539,0.407-2.047
	c0.653-0.499,1.319-0.448,1.928,0.266c1.563,1.847,2.568,3.986,3.068,6.334C76.193,48.742,76.264,49.905,76.41,51.057z"/>
<path fill="#E9E0D6" d="M66.98,62.497c-0.072-2.111-0.978-3.979-2.48-5.341c-1.389-1.258-1.977-2.807-2.434-4.467
	c-0.953-3.482-1.237-7.075-1.49-10.65c-0.307-4.225-2.932-7.791-6.92-9.154c-0.506-0.178-0.777-0.407-0.891-0.935
	c-0.287-1.366-1.471-1.959-2.44-1.951c-1.023,0.016-2.183,0.716-2.386,1.929c-0.098,0.597-0.472,0.762-0.971,0.946
	c-4.003,1.468-6.228,4.426-6.848,8.586c-0.442,2.993-0.673,6.021-1.089,9.01c-0.387,2.749-1.36,5.221-3.388,7.225
	c-1.311,1.303-1.893,3.041-2.005,4.877c-0.067,1.039,0.331,1.641,1.297,1.643l25.645,0.076c0.253,0.004,0.707,0,0.955-0.004
	L66,64.309v-0.104C67,64.063,67.008,63.34,66.98,62.497z"/>
<path fill="#E9E0D6" d="M46.015,66.227c0.416,0.994,1.987,3.746,3.943,3.772c2.45,0.044,4.015-1.772,4.537-3.745L46.015,66.227z"/>
</svg>
