<?xml version="1.0" encoding="utf-8"?>
<!-- Generator: Adobe Illustrator 16.0.0, SVG Export Plug-In . SVG Version: 6.00 Build 0)  -->
<!DOCTYPE svg PUBLIC "-//W3C//DTD SVG 1.1//EN" "http://www.w3.org/Graphics/SVG/1.1/DTD/svg11.dtd">
<svg version="1.1" id="레이어_1" xmlns="http://www.w3.org/2000/svg" xmlns:xlink="http://www.w3.org/1999/xlink" x="0px"
	 y="0px" width="90px" height="90px" viewBox="0 0 90 90" enable-background="new 0 0 90 90" xml:space="preserve">
<path fill="#F4EBE2" d="M89.5,45c0,24.581-19.919,44.5-44.5,44.5S0.5,69.581,0.5,45S20.419,0.5,45,0.5S89.5,20.419,89.5,45z"/>
<g>
	<path fill="#484949" d="M31.311,61.145h-2.88v-1.207h-4.86v-2.213h12.6v2.213h-4.86V61.145z M35.829,57.039H23.913v-5.398h11.916
		V57.039L35.829,57.039z M35.829,68.648H23.913v-4.571h9.018v-0.36h-9.018v-2.124h11.916v4.591h-9.018v0.359h9.018V68.648
		L35.829,68.648z M32.931,54.879v-1.1h-6.12v1.1H32.931z"/>
	<path fill="#484949" d="M47.313,66.381l-9.162,0.938V51.621h8.658v2.195H41.03v3.815h5.617v2.196H41.03v4.968l6.283-0.647V66.381z
		 M51.184,68.631h-2.897V51.352h2.897V68.631z"/>
	<path fill="#484949" d="M66.43,60.514h-3.24l-3.402-3.996l-3.4,3.996h-3.24l5.185-6.175v-2.899h2.897v2.898L66.43,60.514z
		 M58.852,68.325h-2.898v-4.429h-2.375v-2.215h12.365v2.215H63.62v4.429h-2.897v-4.429h-1.871V68.325z"/>
</g>
<g>
	<path fill="#484949" d="M65,17h-5.092c-0.207,0.581-0.756,1-1.408,1h-29c-0.652,0-1.201-0.419-1.408-1H24v0.815L25.414,19
		L24,20.185v0.631L25.414,22L24,23.185v0.631L25.414,25L24,26.185v0.631L25.414,28L24,29.185v0.631L25.414,31L24,32.185v0.631
		L25.414,34L24,35.185v0.631L25.414,37L24,38.185V39h4.092c0.207-0.581,0.756-1,1.408-1h29c0.652,0,1.201,0.419,1.408,1H65v-0.586
		L63.313,37L65,35.586v-0.172L63.313,34L65,32.586v-0.172L63.313,31L65,29.586v-0.172L63.313,28L65,26.586v-0.172L63.313,25
		L65,23.586v-0.172L63.313,22L65,20.586v-0.172L63.313,19L65,17.586V17z M51,32H38c-2.209,0-4-1.791-4-4s1.791-4,4-4h13
		c2.209,0,4,1.791,4,4S53.209,32,51,32z"/>
	<path fill="#484949" d="M53.667,28.167c0,1.657-1.343,3-3,3H38.333c-1.657,0-3-1.343-3-3l0,0c0-1.657,1.343-3,3-3h12.334
		C52.324,25.167,53.667,26.51,53.667,28.167L53.667,28.167z"/>
</g>
</svg>
