<?xml version="1.0" encoding="utf-8"?>
<!-- Generator: Adobe Illustrator 16.0.0, SVG Export Plug-In . SVG Version: 6.00 Build 0)  -->
<!DOCTYPE svg PUBLIC "-//W3C//DTD SVG 1.1//EN" "http://www.w3.org/Graphics/SVG/1.1/DTD/svg11.dtd">
<svg version="1.1" id="레이어_1" xmlns="http://www.w3.org/2000/svg" xmlns:xlink="http://www.w3.org/1999/xlink" x="0px"
	 y="0px" width="90px" height="90px" viewBox="0 0 90 90" enable-background="new 0 0 90 90" xml:space="preserve">
<path fill="#F4EBE2" d="M89.5,45c0,24.581-19.919,44.5-44.5,44.5S0.5,69.581,0.5,45S20.419,0.5,45,0.5S89.5,20.419,89.5,45z"/>
<g>
	<path fill="#484949" d="M25.074,61.872H22.14l-1.871-3.132l-1.908,3.132h-2.898l3.349-5.599v-2.557H15.75v-2.195h9.019v2.195
		h-3.061v2.538L25.074,61.872z M28.782,68.514h-2.898v-3.258h-9.378v-2.195h12.276V68.514z M28.782,62.052h-2.898v-10.8h2.898
		V62.052z"/>
	<path fill="#484949" d="M39.438,52.674c0.587,0.756,0.882,1.584,0.882,2.484c0,0.898-0.297,1.707-0.892,2.42
		c-0.594,0.715-1.347,1.072-2.259,1.072h-2.88c-0.924,0-1.681-0.357-2.268-1.072c-0.589-0.713-0.883-1.521-0.883-2.42
		c0-0.9,0.294-1.729,0.883-2.484c0.587-0.756,1.344-1.134,2.268-1.134h2.88C38.094,51.54,38.85,51.918,39.438,52.674z M37.368,63.51
		H34.47v-1.8h-3.312v-2.214h9.792v2.214h-3.582V63.51z M44.748,67.074c-0.168,0.06-0.444,0.141-0.828,0.242
		c-0.384,0.101-1.092,0.258-2.124,0.469c-1.032,0.209-2.424,0.384-4.176,0.521c-1.752,0.139-3.66,0.207-5.725,0.207v-4.734h2.881
		v2.539c1.655-0.025,3.314-0.176,4.977-0.451c1.662-0.275,2.907-0.545,3.735-0.811l1.26-0.396V67.074z M34.632,56.4h2.196
		c0.288,0,0.492-0.219,0.612-0.658c0.119-0.438,0.119-0.873,0-1.305c-0.12-0.433-0.324-0.647-0.612-0.647h-2.196
		c-0.288,0-0.489,0.216-0.603,0.647c-0.114,0.432-0.111,0.867,0.009,1.305C34.158,56.182,34.355,56.4,34.632,56.4z M44.658,63.96
		H41.76v-5.202L40.176,59.1v-2.34l1.584-0.342v-5.166h2.898V63.96L44.658,63.96z"/>
	<path fill="#484949" d="M59.868,68.208H47.089v-2.214h4.949v-1.566h2.88v1.566h4.95V68.208L59.868,68.208z M59.688,56.148h-12.42
		v-2.106h12.42V56.148L59.688,56.148z M58.591,60.973c0,0.479-0.11,0.905-0.334,1.277c-0.222,0.372-0.504,0.663-0.846,0.873
		c-0.343,0.21-0.75,0.378-1.226,0.504c-0.474,0.126-0.924,0.21-1.35,0.252s-0.879,0.063-1.359,0.063
		c-0.588,0-1.146-0.039-1.674-0.116c-0.527-0.077-1.068-0.214-1.619-0.404c-0.553-0.19-0.994-0.498-1.322-0.918
		c-0.332-0.42-0.495-0.93-0.495-1.53v-1.332c0-0.601,0.163-1.111,0.495-1.531c0.328-0.42,0.771-0.729,1.322-0.926
		c0.551-0.199,1.092-0.34,1.619-0.424c0.528-0.084,1.086-0.126,1.674-0.126c0.469,0,0.918,0.021,1.352,0.063
		c0.434,0.042,0.885,0.132,1.357,0.27c0.476,0.139,0.883,0.313,1.226,0.521c0.342,0.211,0.624,0.502,0.846,0.873
		c0.224,0.373,0.334,0.799,0.334,1.277V60.973z M57.223,53.447h-7.488v-2.105h7.488V53.447z M55.691,60.576v-0.559
		c0-0.275-0.065-0.504-0.197-0.685c-0.133-0.181-0.324-0.31-0.576-0.388c-0.252-0.077-0.479-0.127-0.684-0.145
		s-0.457-0.027-0.758-0.027c-0.287,0-0.533,0.011-0.736,0.027c-0.204,0.018-0.436,0.066-0.692,0.145
		c-0.259,0.078-0.452,0.207-0.586,0.388c-0.132,0.181-0.196,0.408-0.196,0.685v0.559c0,0.275,0.064,0.504,0.196,0.684
		c0.134,0.18,0.327,0.309,0.586,0.387s0.488,0.127,0.692,0.146c0.203,0.019,0.449,0.026,0.736,0.026c0.301,0,0.553-0.01,0.758-0.026
		c0.203-0.017,0.432-0.065,0.684-0.146c0.252-0.078,0.443-0.207,0.576-0.387C55.626,61.08,55.691,60.852,55.691,60.576z"/>
	<path fill="#484949" d="M74.538,58.758h-3.744l-2.81-2.25l-2.808,2.25H61.38l3.601-2.934h-2.951v-1.926h11.861v1.926h-2.951
		L74.538,58.758z M73.926,68.748H62.01v-4.303h8.965v-0.414H62.01v-1.943h4.52v-0.863h-4.842v-1.963h12.545v1.963h-4.807v0.863
		h4.446v4.303h-8.965v0.414h9.019V68.748z M71.676,53.195h-7.435v-1.943h7.435V53.195z"/>
</g>
<g>
	<path fill="#484949" d="M44.894,43.107c-2.15,0-8.18-0.836-9.993-1.38c-1.813-0.545-4.006-1.674-4.386-2.009
		c-0.379-0.334-0.379-0.502-0.379-0.502v-2.803c0,0,0.084-0.837,0.464-1.548c0.379-0.711,2.116-1.354,2.116-1.354l6.569-2.202
		l5.608,9.288h0.212l5.607-9.288l6.537,2.133c0,0,1.771,0.712,2.149,1.423c0.379,0.711,0.463,1.548,0.463,1.548v2.803
		c0,0,0,0.168-0.379,0.502c-0.379,0.335-2.571,1.464-4.385,2.009c-1.813,0.544-7.844,1.38-9.994,1.38H44.894z M51.979,38.401h-3.5
		v1.129h3.5V38.401z"/>
	<path fill="#484949" d="M46.725,34.385c0,0,0.381,0.393,0.721,0.412c0.328,0.019,0.535-0.362,0.535-0.362V31.59
		c0,0-0.196-0.266-0.506-0.28c-0.311-0.014-0.24,0.001-0.479,0.085c-0.24,0.083-0.938,0.818-0.938,0.818
		c-0.23-0.337-0.62-0.558-1.06-0.558c-0.451,0-0.849,0.233-1.075,0.586c0,0-0.717-0.764-0.955-0.847
		c-0.239-0.084-0.169-0.099-0.479-0.085c-0.309,0.015-0.506,0.28-0.506,0.28v2.845c0,0,0.207,0.381,0.534,0.362
		c0.341-0.02,0.721-0.412,0.721-0.412l0.772-0.663c0.234,0.283,0.59,0.464,0.987,0.464c0.39,0,0.738-0.173,0.973-0.446
		L46.725,34.385z"/>
	<path fill="#484949" d="M52.076,18.438l-0.141,1.869c0,0,0.612,0.179,0.787,0.456c0.186,0.298,0.364,1.636,0.084,2.417
		c-0.281,0.78-0.396,0.974-0.73,1.282c-0.354,0.326-0.607,0.426-0.76,0.475c-0.533,0.17-0.336,0.211-0.59,0.837
		c-0.248,0.609-0.168,1.004-1.152,1.98s-2.053,1.59-2.67,1.841c-0.619,0.251-1.631,0.446-1.631,0.446h-0.42
		c0,0-1.013-0.195-1.631-0.446c-0.618-0.251-1.687-0.865-2.67-1.841c-0.984-0.977-0.905-1.371-1.153-1.98
		c-0.254-0.626-0.057-0.667-0.59-0.837c-0.151-0.049-0.406-0.148-0.759-0.475c-0.335-0.309-0.45-0.502-0.73-1.282
		c-0.281-0.781-0.101-2.119,0.084-2.417c0.174-0.277,0.787-0.456,0.787-0.456l-0.141-1.869c0,0-0.05-2.461-0.028-2.879
		c0.021-0.419,0.147-1.004,0.316-1.234s1.117-1.256,1.35-1.443c0.232-0.188,0.152-0.12,0.316-0.308
		c0.139-0.157-0.063-0.181-0.169-0.243c-0.104-0.063-0.147-0.035,0.38-0.203c0.527-0.167,1.082-0.46,1.546-0.585
		c0.464-0.126,1.427-0.21,2.396-0.23c0.969-0.02,0.442-0.125,0.253-0.313s0.548-0.084,1.455,0c0.906,0.084,1.201,0.042,1.833,0.293
		c0.633,0.25,1.25,0.979,1.518,1.339c0.111,0.146,0.104,0.188,0.104,0.188s0.507-0.021,1.033,0c0.527,0.021,0.654,0.042,0.929,0.355
		c0.274,0.314,0.569,0.837,0.653,1.653s0.211,1.317,0.211,2.05S52.076,18.438,52.076,18.438z"/>
</g>
</svg>
