<?xml version="1.0" encoding="utf-8"?>
<!-- Generator: Adobe Illustrator 16.0.0, SVG Export Plug-In . SVG Version: 6.00 Build 0)  -->
<!DOCTYPE svg PUBLIC "-//W3C//DTD SVG 1.1//EN" "http://www.w3.org/Graphics/SVG/1.1/DTD/svg11.dtd">
<svg version="1.1" id="레이어_1" xmlns="http://www.w3.org/2000/svg" xmlns:xlink="http://www.w3.org/1999/xlink" x="0px"
	 y="0px" width="440px" height="140px" viewBox="0 0 440 140" enable-background="new 0 0 440 140" xml:space="preserve">
<path fill="#FFFFFF" fill-opacity="0.23" stroke-width="3" stroke="#F7ACB8" stroke-miterlimit="10" stroke-opacity="0.53" d="M359.77,8.252
	c-18.154,0-33.14,2.652-51.69,18.953c-6.931,6.09-13.388,13.377-23.172,13.377c-9.783,0-19.888-9.145-21.353-10.726
	c-10.666-11.879-22.914-20.488-41.068-20.488s-30.986,9.449-40.472,20.488c-9.149,10.648-18.388,11.967-25.416,12.154
	c-7.027,0.188-13.801-3.382-23.235-11.745C119.223,17.768,96.058,9.45,77.903,9.45c-33.757,0-61.123,27.406-61.123,61.163
	c0,33.759,27.366,61.113,61.123,61.113c17.344,0,37.273-4.449,53.771-18.235c10.029-8.38,14.27-12.478,24.516-12.833
	c11.315-0.408,19.764,3.921,27.896,13.445c9.965,11.67,17.588,17.457,34.931,17.457c17.342,0,32.324-8.011,43-18.681
	c2.52-2.448,13.239-11.278,23.494-11.278c10.256,0,14.705,5.051,21.17,11.891c15.032,15.992,38.068,18.256,55.412,18.256
	c33.759,0,61.124-27.393,61.124-61.148C423.218,36.842,393.527,8.252,359.77,8.252z"/>
</svg>
