<?xml version="1.0" encoding="utf-8"?>
<!-- Generator: Adobe Illustrator 16.0.0, SVG Export Plug-In . SVG Version: 6.00 Build 0)  -->
<!DOCTYPE svg PUBLIC "-//W3C//DTD SVG 1.1//EN" "http://www.w3.org/Graphics/SVG/1.1/DTD/svg11.dtd">
<svg version="1.1" id="레이어_1" xmlns="http://www.w3.org/2000/svg" xmlns:xlink="http://www.w3.org/1999/xlink" x="0px"
	 y="0px" width="90px" height="90px" viewBox="0 0 90 90" enable-background="new 0 0 90 90" xml:space="preserve">
<path fill="#F7ACB8" stroke="#F7ACB8" stroke-miterlimit="10" d="M78.793,28.425c-3.794-1.952-8.454-0.46-10.407,3.335
	c-1.05,2.041-1.003,4.416-0.338,6.316c0.397,1.137,1.644,2.872-0.2,6.451c-1.331,2.589-4.216,4.281-5.578,4.773
	c-0.049,0.017-0.1,0.041-0.147,0.059c-1.209,0.237-2.963,0.418-5.502-1.591c-2.145-1.699-3.25-5.885-3.557-7.571
	c-0.001-1.761-0.596-3.53-1.82-4.981c-2.753-3.26-7.63-3.671-10.89-0.918c-0.716,0.604-1.276,1.334-1.706,2.118
	c-0.853,1.438-1.19,3.066-1.041,4.65c-0.017,1.617-0.234,4.241-2.651,6.283c-1.719,1.451-4.083,2.051-5.738,2.218
	c-0.193-0.064-0.385-0.128-0.576-0.178c-1.166-0.3-3.301-0.229-5.254-3.75c-1.412-2.546-1.216-5.886-0.868-7.291
	c0.43-1.735,0.576-4.303-0.536-6.312c-2.07-3.731-6.773-5.08-10.506-3.01c-3.732,2.069-5.081,6.771-3.012,10.504
	c1.063,1.918,2.747,3.161,4.681,3.716c1.492,0.428,3.851,1.799,5.604,4.964c1.491,2.689,1.088,5.446,0.816,6.433
	c-0.033,0.121-0.059,0.251-0.087,0.378c-0.734,2.422-0.27,5.154,1.485,7.232c2.753,3.261,7.629,3.672,10.89,0.919
	c1.503-1.271,2.372-2.926,2.657-4.7c0.076-0.376,0.123-0.755,0.143-1.139c0.262-1.8,1.227-5.295,3.721-7.402
	c1.822-1.539,3.901-1.967,5.221-2.046c0.87,0.197,1.763,0.248,2.65,0.145c1.543-0.18,4.246,0.18,7.083,2.425
	c2.073,1.642,2.871,4.947,3.136,6.489c0.058,2.744,1.578,5.372,4.19,6.718c0.017,0.009,0.036,0.015,0.054,0.023
	c3.218,1.663,7.265,0.876,9.598-2.07c1.75-2.212,2.089-5.08,1.157-7.54c-0.401-1.529-0.451-4.108,1.099-7.122
	c1.408-2.732,3.924-3.93,4.895-4.251c1.75-0.581,3.667-1.919,4.671-3.869C84.081,35.038,82.588,30.379,78.793,28.425z"/>
</svg>
