<?xml version="1.0" encoding="utf-8"?>
<!-- Generator: Adobe Illustrator 16.0.0, SVG Export Plug-In . SVG Version: 6.00 Build 0)  -->
<!DOCTYPE svg PUBLIC "-//W3C//DTD SVG 1.1//EN" "http://www.w3.org/Graphics/SVG/1.1/DTD/svg11.dtd">
<svg version="1.1" id="레이어_1" xmlns="http://www.w3.org/2000/svg" xmlns:xlink="http://www.w3.org/1999/xlink" x="0px"
	 y="0px" width="90px" height="90px" viewBox="0 0 90 90" enable-background="new 0 0 90 90" xml:space="preserve">
<path fill="#F7ACB8" stroke="#F7ACB8" stroke-miterlimit="10" d="M51.983,65.403c5.597,2.104,3.851-8.237,10.683-15.57
	C69.5,42.5,74.5,44.5,78.666,42.5c4.167-2,7.622-9.025,2-12.667C75.045,26.191,43.879,26.738,42.5,32s2.442,7.756,3.167,12.5
	S49.68,64.542,51.983,65.403z"/>
<path fill="#F7ACB8" stroke="#F7ACB8" stroke-miterlimit="10" d="M78.406,58.342c-1.918-4.734-13.165,1.145-10.702,4.984
	S82.242,66.81,78.406,58.342C77.926,57.156,79.078,59.824,78.406,58.342z"/>
<path fill="#F7ACB8" stroke="#F7ACB8" stroke-miterlimit="10" d="M36.333,53.5c-1.38-4.384-19.507-5.817-16.729-10.146
	c1.302-2.031,11.562-4.021,13.395-6.521s1.43-4.904-0.035-6.035s-25.269-7.684-24.7-1.657s20.082,43.364,22.159,43.445
	S39.167,62.5,36.333,53.5z"/>
<path fill="#F7ACB8" stroke="#F7ACB8" stroke-miterlimit="10" d="M43.5,22.333c5.867-4.89-9.451-2.584-10.125-0.653
	s1.208,5.165,2.495,5.191C36.312,26.882,37.632,27.223,43.5,22.333z"/>
</svg>
