<?xml version="1.0" encoding="utf-8"?>
<!-- Generator: Adobe Illustrator 16.0.0, SVG Export Plug-In . SVG Version: 6.00 Build 0)  -->
<!DOCTYPE svg PUBLIC "-//W3C//DTD SVG 1.1//EN" "http://www.w3.org/Graphics/SVG/1.1/DTD/svg11.dtd">
<svg version="1.1" id="레이어_1" xmlns="http://www.w3.org/2000/svg" xmlns:xlink="http://www.w3.org/1999/xlink" x="0px"
	 y="0px" width="128px" height="128px" viewBox="0 0 128 128" enable-background="new 0 0 128 128" xml:space="preserve">
<g>
	<g>
		<path fill="#F04E98" d="M35.969,87.84h9.004c1.473,0,2.551,0.336,3.242,1.004c0.688,0.668,1.035,1.684,1.035,3.051
			c0,0.898-0.195,1.633-0.586,2.195s-0.871,0.953-1.441,1.18c1.215,0.332,2.039,1.141,2.477,2.434
			c0.148,0.465,0.227,1.004,0.227,1.621c0,1.469-0.348,2.551-1.035,3.238c-0.691,0.691-1.773,1.039-3.242,1.039h-9.68V87.84z
			 M45.195,92.344c0-0.898-0.449-1.352-1.352-1.352H40.02v3.152h3.824c0.902,0,1.352-0.449,1.352-1.352V92.344z M45.871,98.648
			c0-0.902-0.449-1.352-1.352-1.352h-4.5v3.152h4.5c0.902,0,1.352-0.449,1.352-1.352V98.648z"/>
		<path fill="#F04E98" d="M54.766,103.602h-4.391L56.34,87.84h4.504l5.965,15.762h-4.391l-1.012-2.816h-5.629L54.766,103.602z
			 M56.789,97.859h3.605L58.59,92.57L56.789,97.859z"/>
		<path fill="#F04E98" d="M79.641,103.375c-3.348,0.301-6.125,0.449-8.332,0.449c-1.469,0-2.551-0.344-3.242-1.035
			c-0.688-0.691-1.035-1.77-1.035-3.242v-7.203c0-1.574,0.359-2.719,1.07-3.434c0.715-0.711,1.859-1.07,3.434-1.07h8.105v3.152
			h-7.203c-0.902,0-1.352,0.453-1.352,1.352v7.203c0,0.348,0.102,0.621,0.305,0.82c0.199,0.203,0.461,0.305,0.777,0.305
			c0.313,0,0.66-0.004,1.035-0.012c0.371-0.004,0.766-0.016,1.168-0.031c0.406-0.016,0.816-0.031,1.227-0.047
			c0.414-0.016,0.945-0.043,1.598-0.09c0.656-0.043,1.469-0.098,2.445-0.156V103.375z"/>
		<path fill="#F04E98" d="M85.492,103.602h-4.051V87.84h4.051v6.191h2.023l3.516-6.191h4.277l-4.414,7.77l4.391,7.992h-4.277
			l-3.492-6.418h-2.023V103.602z"/>
	</g>
	<path fill="#F04E98" d="M87.641,45.406H77.297l6.102-5.523c1.246-1.137,1.34-3.063,0.211-4.313
		c-1.133-1.242-3.055-1.344-4.309-0.207L67.164,46.352c-0.66,0.598-1.016,1.457-1,2.348c0.027,0.879,0.441,1.719,1.137,2.281
		l12.129,9.84c0.566,0.457,1.242,0.684,1.914,0.684c0.887,0,1.77-0.383,2.367-1.129c1.063-1.309,0.863-3.227-0.445-4.289
		l-5.648-4.582h10.023c4.895,0,8.883,3.992,8.883,8.895s-3.988,8.895-8.883,8.895H42.988c-4.902,0-8.891-3.992-8.891-8.895
		s3.988-8.895,8.891-8.895c1.688,0,3.051-1.363,3.051-3.051s-1.363-3.047-3.051-3.047C34.727,45.406,28,52.133,28,60.398
		c0,8.262,6.727,14.992,14.988,14.992h44.652c8.266,0,14.984-6.73,14.984-14.992C102.625,52.133,95.906,45.406,87.641,45.406z"/>
</g>
</svg>
