<?xml version="1.0" encoding="utf-8"?>
<!-- Generator: Adobe Illustrator 16.0.0, SVG Export Plug-In . SVG Version: 6.00 Build 0)  -->
<!DOCTYPE svg PUBLIC "-//W3C//DTD SVG 1.1//EN" "http://www.w3.org/Graphics/SVG/1.1/DTD/svg11.dtd">
<svg version="1.1" id="레이어_1" xmlns="http://www.w3.org/2000/svg" xmlns:xlink="http://www.w3.org/1999/xlink" x="0px"
	 y="0px" width="480px" height="216px" viewBox="0 0 480 216" enable-background="new 0 0 480 216" xml:space="preserve">
<path fill="#F7F8F8" d="M343.156,187.844c42.809,0,77.836-36.27,78.094-79.85c0.254-43.658-34.77-79.063-78.094-79.063
	c-17.879,0-28.422,6.484-45.039,15.965l-6.051,3.58l-28.18,19.328l-0.34,0.373c-6.137,4.105-14.234,6.641-23.016,6.568
	c-8.65,0-16.617-2.689-22.752-6.789l-0.768-0.525l-19.693-13.807l-8.955-6.715c-17.814-11.564-33.762-17.844-57.707-17.844
	c-35.666,0-71.693,35.346-72.072,78.928c-0.129,43.654,34.139,78.986,72.666,78.986c26.078,0,39.982-7.605,58.307-18.879
	l5.883-4.254l19.691-13.652l1.111-0.563c5.875-4.141,13.934-6.605,22.801-6.527h1.064c8.861,0,16.795,2.613,22.842,6.793
	l0.512,0.371l27.707,19.551l2.988,1.715l-0.473-0.148C311.883,183.031,320.277,187.844,343.156,187.844z"/>
<path fill="#F04E98" d="M131.195,3C70.063,2.777,20.258,49.326,20.004,107.012c-0.422,57.688,48.832,104.664,110.008,104.965
	L348.68,213c61.262,0.148,110.938-46.398,111.316-104.086C460.418,51.227,411.082,4.242,349.949,3.953L131.195,3z M263.355,68.893
	l0.34-0.365l27.949-18.986l6.004-3.516c16.484-9.311,26.941-15.68,44.676-15.68c42.977,0,77.723,34.773,77.469,77.654
	c-0.258,42.805-35.004,78.43-77.469,78.43c-22.691,0-31.02-4.727-49.074-16.164l0.469,0.145l-2.965-1.684l-27.48-19.199
	l-0.508-0.367c-6-4.105-13.867-6.676-22.66-6.676h-1.055c-8.797-0.074-16.789,2.348-22.617,6.414l-1.102,0.555l-19.535,13.406
	l-5.836,4.18c-18.176,11.074-31.969,18.543-57.836,18.543c-38.219,0-72.211-34.703-72.082-77.582
	c0.375-42.807,36.113-77.521,71.492-77.521c23.754,0,39.57,6.166,57.242,17.525l8.883,6.596l19.535,13.561l0.762,0.516
	c6.086,4.027,13.988,6.668,22.57,6.668C249.238,75.414,257.27,72.924,263.355,68.893z"/>
</svg>
