<?xml version="1.0" encoding="utf-8"?>
<!-- Generator: Adobe Illustrator 16.0.0, SVG Export Plug-In . SVG Version: 6.00 Build 0)  -->
<!DOCTYPE svg PUBLIC "-//W3C//DTD SVG 1.1//EN" "http://www.w3.org/Graphics/SVG/1.1/DTD/svg11.dtd">
<svg version="1.1" id="레이어_1" xmlns="http://www.w3.org/2000/svg" xmlns:xlink="http://www.w3.org/1999/xlink" x="0px"
	 y="0px" width="128px" height="128px" viewBox="0 0 128 128" enable-background="new 0 0 128 128" xml:space="preserve">
<g>
	<g>
		<path fill="#F04E98" d="M45.371,103.602h-4.055v-6.418h-5.625v6.418h-4.055V87.84h4.055v6.191h5.625V87.84h4.055V103.602z"/>
		<path fill="#F04E98" d="M62.254,99.324c0,1.574-0.355,2.719-1.07,3.43c-0.711,0.715-1.855,1.07-3.434,1.07h-5.629
			c-1.574,0-2.719-0.355-3.43-1.07c-0.715-0.711-1.07-1.855-1.07-3.43v-7.207c0-1.574,0.355-2.719,1.07-3.434
			c0.711-0.711,1.855-1.066,3.43-1.066h5.629c1.578,0,2.723,0.355,3.434,1.066c0.715,0.715,1.07,1.859,1.07,3.434V99.324z
			 M58.203,92.117c0-0.898-0.453-1.348-1.352-1.348h-3.828c-0.902,0-1.352,0.449-1.352,1.348v7.207c0,0.898,0.449,1.348,1.352,1.348
			h3.828c0.898,0,1.352-0.449,1.352-1.348V92.117z"/>
		<path fill="#F04E98" d="M78.012,94.82l-3.152,5.629h-3.152l-3.152-5.629v8.781h-4.051V87.84h4.277l4.504,8.332l4.5-8.332h4.277
			v15.762h-4.051V94.82z"/>
		<path fill="#F04E98" d="M97.258,103.602H84.766V87.84h12.492v3.152h-8.441v3.039h6.641v3.152h-6.641v3.266h8.441V103.602z"/>
	</g>
	<path fill="#F04E98" d="M99.719,43.898c-4.504,0-8.609,2.219-11.328,5.086c-1.633,1.715-3.832,2.566-6.262,2.566
		s-5-1.203-6.262-2.566c-2.32-2.504-6.824-5.086-11.332-5.086s-8.27,2.031-11.328,5.086c-1.852,1.848-4.012,2.566-6.441,2.566
		s-4.16-0.629-6.246-2.566c-2.574-2.387-6.836-5.086-11.348-5.086C20.793,43.898,14,50.691,14,59.07
		c0,8.383,6.793,15.176,15.172,15.176c4.305,0,8.047-1.707,10.836-4.5c2.156-2.152,4.215-2.977,6.758-2.977
		c2.547,0,4.859,0.824,6.82,2.797c2.809,2.836,6.641,4.68,10.949,4.68c4.305,0,7.992-1.809,10.953-4.68
		c2.168-2.105,4.09-2.797,6.641-2.797c2.547,0,5.203,1.391,6.641,2.797c2.586,2.535,6.648,4.68,10.949,4.68
		c8.383,0,15.176-6.793,15.176-15.176C114.895,50.691,108.102,43.898,99.719,43.898z"/>
</g>
</svg>
