<?xml version="1.0" encoding="utf-8"?>
<!-- Generator: Adobe Illustrator 16.0.0, SVG Export Plug-In . SVG Version: 6.00 Build 0)  -->
<!DOCTYPE svg PUBLIC "-//W3C//DTD SVG 1.1//EN" "http://www.w3.org/Graphics/SVG/1.1/DTD/svg11.dtd">
<svg version="1.1" id="레이어_1" xmlns="http://www.w3.org/2000/svg" xmlns:xlink="http://www.w3.org/1999/xlink" x="0px"
	 y="0px" width="440px" height="140px" viewBox="0 0 440 140" enable-background="new 0 0 440 140" xml:space="preserve">
<path fill="#FFFFFF" fill-opacity="0.17" stroke="#F04E98" stroke-miterlimit="10" stroke-opacity="0.42" d="M364.037,6.01
	c-18.773,0-33.868,1.466-54.761,19.269c-7.221,6.151-13.401,14.49-23.52,14.49s-20.513-10.386-21.246-11.176
	c-11.313-12.672-22.706-21.188-41.479-21.188c-18.774,0-31.491,10.094-40.737,21.188c-9.786,11.741-19.499,12.728-26.171,12.962
	c-6.672,0.234-13.632-3.68-23.615-12.451C117.07,15.561,91.828,7.507,73.054,7.507c-34.909,0-63.208,28.351-63.208,63.259
	c0,34.911,28.299,63.198,63.208,63.198c17.936,0,39.54-4.146,57.791-18.881c10.627-8.646,14.175-13.01,24.769-13.455
	c11.93-0.509,20.51,4.166,28.941,14.372c10.044,12.098,16.207,17.756,34.142,17.756c17.936,0,33.45-8.441,44.229-19.285
	c1.26-1.224,12.987-11.662,23.592-11.662c10.606,0,13.854,5.104,20.687,12.428c16.542,17.789,41.809,18.753,59.744,18.753
	c34.909,0,63.209-28.331,63.209-63.241C430.155,35.839,398.947,6.01,364.037,6.01z"/>
</svg>
