<?xml version="1.0" encoding="utf-8"?>
<!-- Generator: Adobe Illustrator 16.0.0, SVG Export Plug-In . SVG Version: 6.00 Build 0)  -->
<!DOCTYPE svg PUBLIC "-//W3C//DTD SVG 1.1//EN" "http://www.w3.org/Graphics/SVG/1.1/DTD/svg11.dtd">
<svg version="1.1" id="레이어_1" xmlns="http://www.w3.org/2000/svg" xmlns:xlink="http://www.w3.org/1999/xlink" x="0px"
	 y="0px" width="90px" height="90px" viewBox="0 0 90 90" enable-background="new 0 0 90 90" xml:space="preserve">
<path fill="#FFFFFF" d="M52.055,65.402c5.598,2.104,3.852-8.236,10.684-15.569c6.834-7.333,11.834-5.333,16-7.333
	c4.167-2,7.621-9.025,2-12.667C75.116,26.191,43.951,26.738,42.571,32c-1.38,5.262,2.442,7.756,3.166,12.5
	C46.462,49.244,49.751,64.542,52.055,65.402z"/>
<path fill="#FFFFFF" d="M78.479,58.342c-1.918-4.734-13.166,1.145-10.703,4.984C70.239,67.165,82.313,66.811,78.479,58.342
	C77.997,57.156,79.148,59.824,78.479,58.342z"/>
<path fill="#FFFFFF" d="M36.405,53.5c-1.38-4.384-19.507-5.816-16.729-10.146c1.302-2.031,11.562-4.021,13.395-6.521
	s1.43-4.904-0.035-6.035c-1.465-1.131-25.269-7.684-24.7-1.657c0.569,6.027,20.082,43.364,22.159,43.445S39.238,62.5,36.405,53.5z"
	/>
<path fill="#FFFFFF" d="M43.571,22.333c5.867-4.89-9.451-2.584-10.125-0.653c-0.674,1.931,1.208,5.165,2.495,5.191
	C36.383,26.882,37.704,27.223,43.571,22.333z"/>
<path fill="#FFFFFF" d="M20.202,78.451h5.46c0.91,0,1.57,0.205,1.982,0.617c0.411,0.412,0.617,1.072,0.617,1.981v1.171
	c0,0.719-0.119,1.276-0.357,1.676c-0.238,0.399-0.617,0.664-1.137,0.793l1.625,2.86h-2.535l-1.495-2.729h-1.82v2.729h-2.34V78.451z
	 M25.922,81.051c0-0.52-0.26-0.781-0.78-0.781h-2.6V83h2.6c0.52,0,0.78-0.26,0.78-0.779V81.051z"/>
<path fill="#FFFFFF" d="M36.777,87.551h-7.215v-9.1h7.215v1.818h-4.875v1.756h3.835v1.82h-3.835v1.885h4.875V87.551z"/>
<path fill="#FFFFFF" d="M45.617,87.355c-2.028,0.217-3.892,0.324-5.59,0.324c-0.85,0-1.474-0.199-1.872-0.599
	c-0.399-0.397-0.598-1.021-0.598-1.871v-4.16c0-0.909,0.206-1.569,0.618-1.981c0.411-0.412,1.072-0.617,1.982-0.617h4.68v1.818
	h-4.16c-0.52,0-0.78,0.262-0.78,0.78v4.16c0,0.199,0.059,0.356,0.176,0.476c0.117,0.117,0.275,0.174,0.474,0.174
	c0.997,0,1.907-0.021,2.73-0.064V83.91h-1.69V82.35h4.03V87.355z"/>
<path fill="#FFFFFF" d="M51.207,87.551h-4.68v-1.82h1.17V80.27h-1.17v-1.817h4.68v1.817h-1.17v5.461h1.17V87.551z"/>
<path fill="#FFFFFF" d="M60.566,85.08c0,0.91-0.205,1.57-0.617,1.982c-0.411,0.412-1.072,0.617-1.982,0.617h-3.25
	c-0.91,0-1.57-0.205-1.982-0.617c-0.411-0.412-0.616-1.072-0.616-1.982v-4.16c0-0.91,0.205-1.57,0.616-1.982
	c0.412-0.412,1.072-0.617,1.982-0.617h3.25c0.91,0,1.571,0.205,1.982,0.617c0.412,0.412,0.617,1.072,0.617,1.982V85.08z
	 M58.227,80.92c0-0.52-0.26-0.779-0.778-0.779h-2.21c-0.521,0-0.78,0.26-0.78,0.779v4.16c0,0.52,0.26,0.779,0.78,0.779h2.21
	c0.52,0,0.778-0.26,0.778-0.779V80.92z"/>
<path fill="#FFFFFF" d="M69.797,87.551h-2.47l-3.12-5.461v5.461h-2.34v-9.1h2.47l3.12,5.459v-5.459h2.34V87.551z"/>
</svg>
