<?xml version="1.0" encoding="utf-8"?>
<!-- Generator: Adobe Illustrator 16.0.0, SVG Export Plug-In . SVG Version: 6.00 Build 0)  -->
<!DOCTYPE svg PUBLIC "-//W3C//DTD SVG 1.1//EN" "http://www.w3.org/Graphics/SVG/1.1/DTD/svg11.dtd">
<svg version="1.1" id="레이어_1" xmlns="http://www.w3.org/2000/svg" xmlns:xlink="http://www.w3.org/1999/xlink" x="0px"
	 y="0px" width="440px" height="140px" viewBox="0 0 440 140" enable-background="new 0 0 440 140" xml:space="preserve">
<path fill="#FFFFFF" fill-opacity="0.5" stroke="#F04E98" stroke-miterlimit="10" d="M342.698,17.221
	c-15.677,0-29.946,7.711-39.415,17.692c-5.66,5.967-13.332,8.924-21.781,8.924c-8.447,0-17.384-4.181-21.78-8.924
	c-8.075-8.709-23.739-17.692-39.416-17.692c-15.676,0-28.77,7.046-39.415,17.692c-6.424,6.426-13.945,8.924-22.393,8.924
	s-14.476-2.191-21.718-8.924c-8.946-8.315-23.802-17.692-39.478-17.692c-29.149,0-52.779,23.63-52.779,52.779
	s23.63,52.779,52.779,52.779c14.976,0,27.978-5.938,37.693-15.654c7.497-7.496,14.648-10.35,23.503-10.35
	c8.855,0,16.887,2.854,23.718,9.738c9.78,9.855,23.115,16.266,38.09,16.266s27.817-6.285,38.091-16.266
	c7.558-7.344,14.251-9.738,23.105-9.738c8.855,0,18.11,4.842,23.106,9.738c8.991,8.812,23.114,16.266,38.09,16.266
	c29.149,0,52.779-23.63,52.779-52.779S371.848,17.221,342.698,17.221z"/>
</svg>
