<?xml version="1.0" encoding="utf-8"?>
<!-- Generator: Adobe Illustrator 16.0.0, SVG Export Plug-In . SVG Version: 6.00 Build 0)  -->
<!DOCTYPE svg PUBLIC "-//W3C//DTD SVG 1.1//EN" "http://www.w3.org/Graphics/SVG/1.1/DTD/svg11.dtd">
<svg version="1.1" id="레이어_1" xmlns="http://www.w3.org/2000/svg" xmlns:xlink="http://www.w3.org/1999/xlink" x="0px"
	 y="0px" width="440px" height="140px" viewBox="0 0 440 140" enable-background="new 0 0 440 140" xml:space="preserve">
<path fill="#FFFFFF" fill-opacity="0.3" stroke-width="3" stroke="#F7ACB8" stroke-miterlimit="10" stroke-opacity="0.65" d="M355.501,10.494
	c-17.535,0-32.388,3.868-48.622,18.638c-6.636,6.037-13.374,12.264-22.824,12.264c-9.449,0-19.262-7.903-21.459-10.275
	c-10.018-11.086-23.119-19.789-40.654-19.789s-30.467,8.815-40.208,19.789c-8.494,9.568-17.277,11.206-24.66,11.347
	c-7.383,0.141-13.97-3.084-22.856-11.04c-12.841-11.452-33.929-20.034-51.463-20.034c-32.605,0-59.037,26.462-59.037,59.067
	c0,32.605,26.432,59.03,59.037,59.03c16.751,0,34.97-4.8,49.751-17.591c9.41-8.145,14.364-11.945,24.263-12.213
	c10.7-0.307,19.037,3.662,26.852,12.519c9.909,11.229,18.97,17.16,35.721,17.16s31.196-7.579,41.773-18.077
	c3.778-3.672,13.491-10.895,23.396-10.895c9.906,0,15.558,5,21.654,11.354c13.521,14.197,34.33,17.758,51.082,17.758
	c32.604,0,59.037-26.449,59.037-59.057C416.283,37.843,388.107,10.494,355.501,10.494z"/>
</svg>
