<?xml version="1.0" encoding="utf-8"?>
<!-- Generator: Adobe Illustrator 16.0.0, SVG Export Plug-In . SVG Version: 6.00 Build 0)  -->
<!DOCTYPE svg PUBLIC "-//W3C//DTD SVG 1.1//EN" "http://www.w3.org/Graphics/SVG/1.1/DTD/svg11.dtd">
<svg version="1.1" id="레이어_1" xmlns="http://www.w3.org/2000/svg" xmlns:xlink="http://www.w3.org/1999/xlink" x="0px"
	 y="0px" width="440px" height="140px" viewBox="0 0 440 140" enable-background="new 0 0 440 140" xml:space="preserve">
<path fill="#FFFFFF" fill-opacity="0.43" stroke="#F04E98" stroke-miterlimit="10" stroke-opacity="0.88" d="M346.966,14.979
	c-16.296,0-30.796,6.397-42.483,18.008c-6.01,5.968-13.347,10.037-22.129,10.037c-8.78,0-18.01-5.422-21.674-9.375
	c-8.723-9.501-23.533-18.391-39.828-18.391c-16.295,0-29.367,7.604-39.68,18.391c-7.129,7.457-15.055,9.685-23.149,9.731
	c-8.093,0.047-14.307-2.489-22.098-9.629c-10.244-9.361-27.177-18.473-43.473-18.473c-30.301,0-54.865,24.574-54.865,54.875
	c0,30.302,24.564,54.863,54.865,54.863c15.568,0,30.326-5.541,41.713-16.3c8.148-7.698,14.553-10.882,23.756-10.971
	c9.471-0.103,17.611,3.116,24.763,10.665c9.833,10.304,21.733,16.563,37.3,16.563s28.944-6.717,39.318-16.869
	c6.3-6.119,13.999-10.123,23.203-10.123c9.206,0,17.259,4.895,22.622,10.275c10.502,10.607,26.854,16.764,42.421,16.764
	c30.302,0,54.865-24.569,54.865-54.872C402.413,39.848,377.268,14.979,346.966,14.979z"/>
</svg>
