<?xml version="1.0" encoding="utf-8"?>
<!-- Generator: Adobe Illustrator 16.0.0, SVG Export Plug-In . SVG Version: 6.00 Build 0)  -->
<!DOCTYPE svg PUBLIC "-//W3C//DTD SVG 1.1//EN" "http://www.w3.org/Graphics/SVG/1.1/DTD/svg11.dtd">
<svg version="1.1" id="레이어_1" xmlns="http://www.w3.org/2000/svg" xmlns:xlink="http://www.w3.org/1999/xlink" x="0px"
	 y="0px" width="90px" height="90px" viewBox="0 0 90 90" enable-background="new 0 0 90 90" xml:space="preserve">
<path fill="#F7ACB8" stroke="#F7ACB8" stroke-miterlimit="10" d="M68.013,56.413c-0.529,0-1.09-0.031-1.687-0.099
	c-6.466-0.727-8.514-5.201-10.32-9.148c-1.885-4.12-3.665-8.01-10.216-8.78c-2.82-0.331-4.392,2.458-6.739,6.511
	C36.398,49.48,33.096,55.5,25.708,55.5c-0.013,0-0.026,0-0.039,0c-4.704,0-8.226-3.149-11.631-5.876
	c-3.081-2.466-5.993-4.962-9.338-4.664l-0.259-3.069c4.545-0.388,8.066,2.705,11.472,5.431c3.142,2.515,6.108,5.178,9.765,5.178
	c0.009,0,0.02,0,0.029,0c5.661,0,8.247-4.785,10.749-9.106c2.347-4.053,4.783-8.403,9.685-7.828
	c8.228,0.966,10.648,6.179,12.595,10.431c1.759,3.843,3.147,6.839,7.928,7.377c3.059,0.343,4.747-0.491,6.883-1.524
	c2.825-1.366,6.03-2.925,12.721-2.204l-0.32,2.978c-5.838-0.628-8.511,0.661-11.095,1.911
	C72.933,55.462,70.958,56.413,68.013,56.413z"/>
<path fill="#F7ACB8" stroke="#F7ACB8" stroke-miterlimit="10" d="M48.542,60.756c-0.063,0.303-0.138,0.745-0.253,1.177
	c-0.243,0.915,0.004,1.606,0.719,2.269c1.845,1.71,1.417,3.589-1.008,4.299c-1.215,0.356-1.871,0.936-2.118,2.237
	c-0.369,1.944-2.325,2.599-3.78,1.227c-1.134-1.067-2.144-1.444-3.706-0.95c-1.662,0.524-3.04-0.906-2.614-2.662
	c0.365-1.502,0.216-2.585-1.007-3.69c-1.299-1.177-0.78-3.097,0.941-3.603c1.536-0.452,2.401-1.186,2.769-2.823
	c0.375-1.666,2.217-2.166,3.503-0.969c1.244,1.159,2.373,1.616,4.07,0.972C47.344,57.75,48.626,59.122,48.542,60.756z"/>
<path fill="#F7ACB8" stroke="#F7ACB8" stroke-miterlimit="10" d="M86.357,38.513c-0.235,2.39-0.789,4.73-3.257,5.876
	c-2.384,1.108-4.329-0.121-6.109-1.594c-2.791-2.313-2.999-2.328-5.857-0.051c-3.366,2.682-5.894,2.65-7.987-0.1
	c-2.113-2.776-1.578-7.753,1.056-9.73c1.488-1.118,3.116-1.21,4.757-0.452c0.811,0.378,1.557,0.932,2.267,1.491
	c2.774,2.185,3.058,2.198,5.736,0.031c1.819-1.472,3.812-2.565,6.155-1.477C85.569,33.649,86.197,35.956,86.357,38.513z"/>
<path fill="#F7ACB8" stroke="#F7ACB8" stroke-miterlimit="10" d="M16.952,37.312c-1.936-2.081-1.794-3.508,0.56-5.042
	c1.041-0.679,2.13-1.287,3.222-1.882c0.925-0.505,1.114-1.171,0.664-2.103c-0.692-1.435-1.354-2.884-2.02-4.331
	c-0.587-1.277-0.182-2.392,1.003-2.879c1.198-0.492,2.558-0.713,3.862-0.791c1.139-0.069,1.84,0.719,1.907,1.882
	c0.092,1.59,0.193,3.187,0.138,4.773c-0.046,1.327,0.556,1.753,1.761,1.8c1.392,0.054,2.788,0.146,4.168,0.333
	c1.856,0.248,2.511,1.1,2.298,2.954c-0.084,0.73-0.281,1.477-0.577,2.149c-0.873,1.979-1.964,2.368-3.907,1.408
	c-1.07-0.528-2.1-1.141-3.133-1.738c-1.674-0.969-1.958-0.914-3.015,0.648c-0.585,0.866-1.153,1.746-1.776,2.585
	C20.367,39.424,18.966,39.478,16.952,37.312z"/>
</svg>
