<?xml version="1.0" encoding="utf-8"?>
<!-- Generator: Adobe Illustrator 16.0.0, SVG Export Plug-In . SVG Version: 6.00 Build 0)  -->
<!DOCTYPE svg PUBLIC "-//W3C//DTD SVG 1.1//EN" "http://www.w3.org/Graphics/SVG/1.1/DTD/svg11.dtd">
<svg version="1.1" id="레이어_1" xmlns="http://www.w3.org/2000/svg" xmlns:xlink="http://www.w3.org/1999/xlink" x="0px"
	 y="0px" width="440px" height="140px" viewBox="0 0 440 140" enable-background="new 0 0 440 140" xml:space="preserve">
<path fill="#FFFFFF" fill-opacity="0.37" stroke="#F04E98" stroke-miterlimit="10" stroke-opacity="0.77" d="M351.234,12.736
	c-16.916,0-31.608,5.116-45.555,18.323c-6.33,5.995-13.359,11.15-22.477,11.15c-9.115,0-18.637-6.663-21.566-9.825
	c-9.369-10.294-23.326-19.091-40.242-19.091c-16.915,0-29.928,8.199-39.942,19.091c-7.82,8.504-16.166,10.445-23.904,10.539
	c-7.738,0.094-14.139-2.787-22.477-10.335c-11.543-10.406-30.554-19.254-47.469-19.254c-31.453,0-56.951,25.519-56.951,56.972
	c0,31.454,25.498,56.946,56.951,56.946c16.159,0,32.656-5.162,45.732-16.943c8.785-7.916,14.458-11.414,24.009-11.593
	c10.085-0.204,18.314,3.397,25.808,11.593c9.857,10.777,20.351,16.86,36.511,16.86c16.158,0,30.07-7.147,40.546-17.474
	c5.038-4.896,13.745-10.508,23.3-10.508c9.557,0,16.419,4.935,22.139,10.813c12.036,12.378,30.592,17.261,46.752,17.261
	c31.452,0,56.95-25.511,56.95-56.964C409.349,38.845,382.688,12.736,351.234,12.736z"/>
</svg>
