<?xml version="1.0" encoding="utf-8"?>
<!-- Generator: Adobe Illustrator 16.0.0, SVG Export Plug-In . SVG Version: 6.00 Build 0)  -->
<!DOCTYPE svg PUBLIC "-//W3C//DTD SVG 1.1//EN" "http://www.w3.org/Graphics/SVG/1.1/DTD/svg11.dtd">
<svg version="1.1" id="레이어_1" xmlns="http://www.w3.org/2000/svg" xmlns:xlink="http://www.w3.org/1999/xlink" x="0px"
	 y="0px" width="440px" height="140px" viewBox="0 0 440 140" enable-background="new 0 0 440 140" xml:space="preserve">
<path fill="#FFFFFF" fill-opacity="0.1" stroke-width="3" stroke="#F7ACB8" stroke-miterlimit="10" stroke-opacity="0.3" d="M368.305,3.768
	c-19.394,0-34.576,0.307-57.83,19.584c-7.505,6.22-13.414,15.604-23.865,15.604s-21.139-11.628-21.139-11.628
	c-11.961-13.464-22.5-21.887-41.895-21.887c-19.394,0-31.983,10.747-41.001,21.887c-10.403,12.851-20.609,13.488-26.926,13.77
	c-6.317,0.282-13.463-3.978-23.995-13.156C114.918,13.353,87.598,5.564,68.204,5.564c-36.062,0-65.295,29.295-65.295,65.355
	c0,36.063,29.233,65.281,65.295,65.281c18.527,0,41.852-3.788,61.81-19.526c11.253-8.873,14.081-13.541,25.022-14.074
	c12.545-0.611,21.235,4.428,29.986,15.299c10.097,12.545,14.825,18.054,33.352,18.054c18.526,0,34.576-8.873,45.456-19.89
	c0,0,12.734-12.047,23.689-12.047s13.002,5.154,20.2,12.965c18.054,19.584,45.547,19.25,64.074,19.25
	c36.063,0,65.296-29.271,65.296-65.334C437.091,34.836,404.367,3.768,368.305,3.768z"/>
</svg>
