<?xml version="1.0" encoding="utf-8"?>
<!-- Generator: Adobe Illustrator 16.0.0, SVG Export Plug-In . SVG Version: 6.00 Build 0)  -->
<!DOCTYPE svg PUBLIC "-//W3C//DTD SVG 1.1//EN" "http://www.w3.org/Graphics/SVG/1.1/DTD/svg11.dtd">
<svg version="1.1" id="레이어_1" xmlns="http://www.w3.org/2000/svg" xmlns:xlink="http://www.w3.org/1999/xlink" x="0px"
	 y="0px" width="90px" height="90px" viewBox="0 0 90 90" enable-background="new 0 0 90 90" xml:space="preserve">
<path fill="#FFFFFF" d="M68.613,55.927c-0.529,0-1.09-0.031-1.687-0.099c-6.466-0.727-8.514-5.201-10.32-9.148
	c-1.885-4.119-3.665-8.01-10.216-8.78c-2.82-0.331-4.392,3.201-6.738,7.253C36.999,49.737,33.697,56.5,26.309,56.5
	c-0.013,0-0.025,0-0.039,0c-4.704,0-8.226-3.893-11.631-6.619c-3.08-2.466-5.993-5.333-9.338-5.036L5.042,41.59
	c4.545-0.387,8.066,3.355,11.472,6.082c3.142,2.515,6.108,5.828,9.765,5.828c0.009,0,0.02,0,0.029,0
	c5.66,0,8.247-5.528,10.748-9.849c2.348-4.054,4.783-8.775,9.685-8.2c8.228,0.966,10.648,5.992,12.595,10.245
	c1.759,3.843,3.147,6.746,7.928,7.284c3.059,0.343,4.747-0.537,6.883-1.57c2.825-1.366,6.03-2.948,12.721-2.228l-0.32,2.966
	c-5.838-0.628-8.511,0.655-11.095,1.905C73.533,54.981,71.559,55.927,68.613,55.927z"/>
<path fill="#FFFFFF" d="M49.143,60.27c-0.063,0.303-0.138,0.745-0.253,1.177c-0.243,0.915,0.004,1.606,0.719,2.269
	c1.845,1.71,1.417,3.589-1.008,4.299c-1.215,0.356-1.871,0.936-2.118,2.237c-0.368,1.944-2.325,2.599-3.78,1.227
	c-1.134-1.067-2.144-1.444-3.706-0.95c-1.661,0.524-3.04-0.906-2.613-2.662c0.365-1.502,0.216-2.585-1.008-3.69
	c-1.299-1.177-0.779-3.097,0.941-3.603c1.535-0.452,2.4-1.186,2.769-2.823c0.376-1.666,2.217-2.166,3.503-0.969
	c1.244,1.159,2.373,1.616,4.07,0.972C47.944,57.264,49.227,58.636,49.143,60.27z"/>
<path fill="#FFFFFF" d="M86.958,38.026c-0.235,2.39-0.789,4.73-3.257,5.876c-2.384,1.108-4.329-0.121-6.109-1.594
	c-2.791-2.313-2.999-2.328-5.857-0.051c-3.366,2.682-5.894,2.65-7.987-0.1c-2.113-2.776-1.578-7.753,1.056-9.73
	c1.488-1.118,3.116-1.21,4.757-0.452c0.811,0.378,1.557,0.932,2.267,1.491c2.774,2.185,3.058,2.198,5.736,0.031
	c1.819-1.472,3.812-2.565,6.155-1.477C86.17,33.163,86.798,35.47,86.958,38.026z"/>
<path fill="#FFFFFF" d="M17.553,36.825c-1.937-2.081-1.795-3.508,0.56-5.042c1.04-0.679,2.13-1.287,3.222-1.882
	c0.925-0.505,1.114-1.171,0.664-2.103c-0.692-1.435-1.354-2.884-2.02-4.331c-0.587-1.277-0.182-2.392,1.003-2.879
	c1.198-0.492,2.558-0.713,3.862-0.791c1.14-0.069,1.84,0.719,1.907,1.882c0.092,1.59,0.193,3.187,0.138,4.773
	c-0.046,1.327,0.556,1.753,1.761,1.8c1.392,0.054,2.788,0.146,4.168,0.333c1.856,0.248,2.512,1.1,2.299,2.954
	c-0.085,0.73-0.281,1.477-0.577,2.149c-0.873,1.979-1.965,2.368-3.907,1.408c-1.07-0.528-2.1-1.141-3.133-1.738
	c-1.674-0.969-1.959-0.914-3.015,0.648c-0.586,0.866-1.153,1.746-1.776,2.585C20.968,38.938,19.566,38.991,17.553,36.825z"/>
<path fill="#FFFFFF" d="M32.286,78.45l1.56,5.85l1.365-5.85h2.535l-2.47,9.1h-2.47l-1.56-5.654l-1.56,5.654h-2.47l-2.47-9.1h2.535
	l1.365,5.85l1.56-5.85H32.286z"/>
<path fill="#FFFFFF" d="M46.586,85.081c0,0.91-0.206,1.57-0.617,1.982c-0.412,0.41-1.073,0.617-1.983,0.617h-3.25
	c-0.91,0-1.571-0.207-1.982-0.617c-0.412-0.412-0.618-1.072-0.618-1.982v-4.16c0-0.91,0.206-1.572,0.618-1.982
	c0.411-0.412,1.072-0.619,1.982-0.619h3.25c0.91,0,1.571,0.207,1.983,0.619c0.411,0.41,0.617,1.072,0.617,1.982V85.081z
	 M44.246,80.921c0-0.521-0.26-0.781-0.78-0.781h-2.21c-0.52,0-0.78,0.26-0.78,0.781v4.16c0,0.52,0.26,0.779,0.78,0.779h2.21
	c0.52,0,0.78-0.26,0.78-0.779V80.921z"/>
<path fill="#FFFFFF" d="M47.886,78.45h5.46c0.91,0,1.57,0.207,1.982,0.617c0.412,0.412,0.617,1.072,0.617,1.982v1.17
	c0,0.721-0.119,1.279-0.357,1.678s-0.617,0.662-1.137,0.793l1.625,2.859h-2.535l-1.495-2.73h-1.819v2.73h-2.341V78.45z
	 M53.605,81.05c0-0.52-0.26-0.779-0.779-0.779h-2.6v2.73h2.6c0.52,0,0.779-0.26,0.779-0.781V81.05z"/>
<path fill="#FFFFFF" d="M59.586,87.55h-2.34v-9.1h2.34v3.574h1.17l2.027-3.574h2.471l-2.548,4.484l2.534,4.615h-2.469l-2.016-3.705
	h-1.17V87.55z"/>
</svg>
