<?xml version="1.0" encoding="utf-8"?>
<!-- Generator: Adobe Illustrator 16.0.0, SVG Export Plug-In . SVG Version: 6.00 Build 0)  -->
<!DOCTYPE svg PUBLIC "-//W3C//DTD SVG 1.1//EN" "http://www.w3.org/Graphics/SVG/1.1/DTD/svg11.dtd">
<svg version="1.1" id="레이어_1" xmlns="http://www.w3.org/2000/svg" xmlns:xlink="http://www.w3.org/1999/xlink" x="0px"
	 y="0px" width="660px" height="220px" viewBox="0 0 660 220" enable-background="new 0 0 660 220" xml:space="preserve">
<path fill="#00FFFF" stroke="#000000" stroke-miterlimit="10" d="M590.013,207H86.199L23,156.209V60.221L86.246,15h503.619
	L652,60.232v95.963L590.013,207z M87.607,203h500.976L648,154.305V62.268L588.563,19H87.529L27,62.279v92.012L87.607,203z"/>
<polygon fill="#00FFFF" stroke="#000000" stroke-miterlimit="10" points="17,177 14,177 14,53.949 80.991,5 590,5 590,8 81.971,8 
	17,55.473 "/>
<polygon fill="#00FFFF" stroke="#000000" stroke-miterlimit="10" points="592.546,218 87,218 87,215 591.489,215 656,163.068 
	656,64 659,64 659,164.505 "/>
<path fill="#00FFFF" stroke="#000000" stroke-miterlimit="10" d="M16,203c-7.995,0-14.5-6.505-14.5-14.5S8.005,174,16,174
	s14.5,6.505,14.5,14.5S23.995,203,16,203z M16,179c-5.238,0-9.5,4.262-9.5,9.5s4.262,9.5,9.5,9.5s9.5-4.262,9.5-9.5
	S21.238,179,16,179z"/>
<polygon fill="#00FFFF" stroke="#000000" stroke-miterlimit="10" points="312,200 252,200 277,182 337,182 "/>
<polygon fill="#00FFFF" stroke="#000000" stroke-miterlimit="10" points="416,200 323,200 348,182 441,182 "/>
<polygon fill="#00FFFF" stroke="#000000" stroke-miterlimit="10" points="559,200 427,200 452,182 584,182 "/>
<polygon fill="#00FFFF" stroke="#000000" stroke-miterlimit="10" points="89.384,205.044 88.167,203.456 122.661,177 587.057,177 
	626,140.559 626,76.482 586,45.49 586,17 588,17 588,44.51 628,75.502 628,141.425 627.684,141.723 587.846,179 123.339,179 "/>
<path fill="#00FFFF" stroke="#000000" stroke-miterlimit="10" d="M479.629,23.508v1.404c-0.505,0.139-0.89,0.352-1.154,0.641
	c-0.265,0.289-0.396,0.646-0.396,1.068c0,0.407,0.108,0.763,0.33,1.068c0.219,0.306,0.577,0.597,1.074,0.873
	c0.342,0.188,1.112,0.545,2.316,1.074c0.732,0.317,1.301,0.604,1.703,0.86c0.403,0.257,0.783,0.576,1.142,0.958
	c0.961,1.009,1.44,2.209,1.44,3.601c0,1.05-0.261,2.01-0.781,2.881c-0.52,0.871-1.235,1.555-2.146,2.051
	c-0.488,0.261-1.023,0.466-1.605,0.616c-0.582,0.151-1.125,0.226-1.629,0.226v-1.392c0.707-0.171,1.218-0.409,1.531-0.714
	c0.313-0.305,0.471-0.718,0.471-1.239c0-0.545-0.244-1.025-0.73-1.44c-0.326-0.269-0.944-0.602-1.855-1.001
	c-1.002-0.439-1.688-0.752-2.058-0.94c-0.37-0.187-0.728-0.407-1.067-0.659c-1.53-1.09-2.295-2.543-2.295-4.358
	c0-0.928,0.19-1.784,0.573-2.57c0.383-0.785,0.915-1.417,1.599-1.898C477.041,23.952,478.221,23.581,479.629,23.508z
	 M478.994,39.438v1.392c-0.668,0-1.404-0.191-2.21-0.574c-0.301-0.138-0.509-0.228-0.622-0.269c-0.114-0.041-0.227-0.061-0.33-0.061
	c-0.163,0-0.285,0.026-0.366,0.08c-0.081,0.053-0.212,0.185-0.391,0.396c-0.146,0.179-0.308,0.269-0.478,0.269
	c-0.456,0-0.684-0.35-0.684-1.05v-4.443c0-0.228,0.064-0.421,0.195-0.58c0.13-0.158,0.293-0.242,0.486-0.25
	c0.181-0.008,0.318,0.043,0.421,0.152c0.104,0.11,0.188,0.304,0.265,0.58c0.187,0.7,0.457,1.355,0.812,1.965
	c0.355,0.61,0.769,1.127,1.239,1.55C477.813,39.035,478.367,39.316,478.994,39.438z M480.593,24.912v-1.343
	c0.488,0.033,0.911,0.096,1.271,0.189c0.356,0.094,0.864,0.279,1.524,0.556c0.162,0.065,0.297,0.098,0.402,0.098
	c0.154,0,0.269-0.053,0.342-0.159l0.271-0.354c0.13-0.179,0.289-0.269,0.476-0.269c0.221,0,0.381,0.079,0.482,0.238
	c0.102,0.158,0.15,0.409,0.15,0.75v4.028c0,0.236-0.064,0.429-0.199,0.58c-0.136,0.151-0.309,0.226-0.521,0.226
	c-0.163,0-0.313-0.053-0.452-0.159c-0.072-0.065-0.132-0.145-0.177-0.238c-0.045-0.093-0.087-0.25-0.128-0.47
	c-0.09-0.398-0.244-0.81-0.464-1.233c-0.222-0.423-0.478-0.801-0.771-1.135C482.217,25.559,481.479,25.124,480.593,24.912z"/>
<path fill="#00FFFF" stroke="#000000" stroke-miterlimit="10" d="M494.668,23.837V40.5h-5.432h-0.318
	c-0.293,0-0.519-0.055-0.677-0.165c-0.159-0.109-0.238-0.266-0.238-0.47c0-0.333,0.163-0.553,0.488-0.659
	c0.269-0.089,0.425-0.145,0.47-0.165s0.092-0.067,0.141-0.14c0.1-0.13,0.146-0.337,0.146-0.623V26.059
	c0-0.285-0.049-0.492-0.146-0.623c-0.049-0.073-0.096-0.12-0.141-0.141c-0.045-0.02-0.201-0.075-0.47-0.165
	c-0.325-0.105-0.488-0.325-0.488-0.659c0-0.203,0.079-0.36,0.238-0.47c0.158-0.109,0.384-0.165,0.677-0.165h0.318L494.668,23.837
	L494.668,23.837z M495.693,32.724v-1.416c0.472-0.228,0.82-0.476,1.05-0.745c0.228-0.269,0.395-0.626,0.501-1.074
	c0.063-0.309,0.148-0.523,0.256-0.641c0.105-0.118,0.256-0.177,0.451-0.177c0.261,0,0.438,0.102,0.537,0.305
	c0.058,0.106,0.086,0.346,0.086,0.72v4.651c0,0.383-0.043,0.647-0.128,0.793c-0.086,0.146-0.242,0.22-0.472,0.22
	c-0.188,0-0.334-0.057-0.438-0.171c-0.106-0.114-0.191-0.305-0.257-0.574c-0.141-0.563-0.336-0.993-0.593-1.294
	C496.432,33.021,496.101,32.822,495.693,32.724z M495.754,23.837h4.92v4.321c0,0.252-0.049,0.436-0.146,0.549
	c-0.1,0.114-0.252,0.171-0.464,0.171c-0.181,0-0.312-0.037-0.393-0.11c-0.081-0.073-0.159-0.224-0.229-0.452
	c-0.312-0.944-0.766-1.664-1.361-2.161c-0.599-0.496-1.373-0.793-2.326-0.891L495.754,23.837L495.754,23.837z M495.767,40.5v-1.318
	c0.529-0.081,0.968-0.195,1.313-0.342c0.346-0.146,0.693-0.37,1.044-0.671c0.35-0.301,0.628-0.612,0.836-0.934
	c0.207-0.321,0.404-0.746,0.592-1.275c0.09-0.26,0.186-0.438,0.281-0.531c0.098-0.093,0.231-0.14,0.402-0.14
	c0.228,0,0.387,0.067,0.477,0.202c0.089,0.134,0.134,0.368,0.134,0.702V40.5H495.767z"/>
<path fill="#00FFFF" stroke="#000000" stroke-miterlimit="10" d="M504.469,28.122l1.295,2.148v6.543c0,0.57,0.097,1.038,0.286,1.404
	c0.191,0.366,0.495,0.667,0.909,0.903l0.367,0.208c0.211,0.122,0.314,0.305,0.314,0.549c0,0.188-0.075,0.342-0.229,0.464
	c-0.13,0.106-0.398,0.159-0.806,0.159h-2.82c-0.74,0-1.11-0.211-1.11-0.635c0-0.146,0.038-0.263,0.116-0.348
	c0.077-0.086,0.246-0.202,0.506-0.348c0.781-0.431,1.172-1.216,1.172-2.356V28.122L504.469,28.122z M509.584,23.837l6.494,11.279
	V40.5h-3.332l-8.289-14.282c-0.179-0.309-0.325-0.525-0.439-0.647c-0.112-0.122-0.261-0.211-0.438-0.269l-0.464-0.171
	c-0.122-0.041-0.22-0.114-0.293-0.22c-0.073-0.105-0.11-0.224-0.11-0.354c0-0.138,0.037-0.267,0.11-0.385
	c0.073-0.118,0.171-0.201,0.293-0.25c0.139-0.057,0.513-0.085,1.123-0.085H509.584z M516.078,33.164l-1.294-2.185v-3.381
	c0-0.684-0.102-1.207-0.299-1.569c-0.2-0.362-0.554-0.673-1.058-0.934c-0.172-0.081-0.289-0.169-0.354-0.263
	c-0.065-0.093-0.1-0.213-0.1-0.36c0-0.22,0.071-0.38,0.215-0.482c0.143-0.102,0.371-0.153,0.688-0.153h3.052
	c0.415,0,0.688,0.065,0.817,0.195c0.139,0.13,0.208,0.285,0.208,0.464c0,0.171-0.039,0.299-0.116,0.384
	c-0.077,0.086-0.262,0.202-0.555,0.348c-0.434,0.22-0.758,0.558-0.979,1.013c-0.153,0.334-0.23,0.786-0.23,1.355L516.078,33.164
	L516.078,33.164z"/>
<path fill="#00FFFF" stroke="#000000" stroke-miterlimit="10" d="M525.088,23.508v1.404c-0.505,0.139-0.89,0.352-1.154,0.641
	c-0.265,0.289-0.396,0.646-0.396,1.068c0,0.407,0.109,0.763,0.33,1.068c0.219,0.306,0.577,0.597,1.074,0.873
	c0.342,0.188,1.112,0.545,2.316,1.074c0.732,0.317,1.302,0.604,1.703,0.86c0.403,0.257,0.783,0.576,1.144,0.958
	c0.96,1.009,1.438,2.209,1.438,3.601c0,1.05-0.261,2.01-0.781,2.881c-0.52,0.871-1.235,1.555-2.146,2.051
	c-0.488,0.261-1.023,0.466-1.605,0.616c-0.582,0.151-1.125,0.226-1.629,0.226v-1.392c0.707-0.171,1.218-0.409,1.531-0.714
	c0.313-0.305,0.471-0.718,0.471-1.239c0-0.545-0.244-1.025-0.73-1.44c-0.326-0.269-0.944-0.602-1.855-1.001
	c-1.002-0.439-1.688-0.752-2.058-0.94c-0.37-0.187-0.728-0.407-1.067-0.659c-1.53-1.09-2.295-2.543-2.295-4.358
	c0-0.928,0.19-1.784,0.573-2.57c0.383-0.785,0.915-1.417,1.599-1.898C522.5,23.952,523.68,23.581,525.088,23.508z M524.453,39.438
	v1.392c-0.668,0-1.404-0.191-2.21-0.574c-0.301-0.138-0.509-0.228-0.622-0.269c-0.114-0.041-0.227-0.061-0.33-0.061
	c-0.163,0-0.285,0.026-0.366,0.08c-0.081,0.053-0.212,0.185-0.391,0.396c-0.146,0.179-0.308,0.269-0.478,0.269
	c-0.456,0-0.684-0.35-0.684-1.05v-4.443c0-0.228,0.063-0.421,0.195-0.58c0.13-0.158,0.293-0.242,0.486-0.25
	c0.181-0.008,0.318,0.043,0.421,0.152c0.104,0.11,0.188,0.304,0.265,0.58c0.187,0.7,0.457,1.355,0.812,1.965
	c0.355,0.61,0.769,1.127,1.239,1.55C523.271,39.035,523.826,39.316,524.453,39.438z M526.052,24.912v-1.343
	c0.488,0.033,0.911,0.096,1.271,0.189c0.356,0.094,0.866,0.279,1.524,0.556c0.162,0.065,0.299,0.098,0.402,0.098
	c0.154,0,0.269-0.053,0.342-0.159l0.271-0.354c0.13-0.179,0.289-0.269,0.476-0.269c0.221,0,0.381,0.079,0.482,0.238
	c0.102,0.158,0.15,0.409,0.15,0.75v4.028c0,0.236-0.064,0.429-0.201,0.58c-0.134,0.151-0.307,0.226-0.519,0.226
	c-0.163,0-0.313-0.053-0.452-0.159c-0.072-0.065-0.132-0.145-0.177-0.238c-0.045-0.093-0.087-0.25-0.128-0.47
	c-0.09-0.398-0.244-0.81-0.464-1.233c-0.222-0.423-0.478-0.801-0.771-1.135C527.676,25.559,526.938,25.124,526.052,24.912z"/>
<path fill="#00FFFF" stroke="#000000" stroke-miterlimit="10" d="M539.883,24.826c-0.415,0.146-0.708,0.346-0.879,0.598
	s-0.256,0.623-0.256,1.111v10.913c0,0.716,0.098,1.221,0.293,1.514c0.154,0.244,0.435,0.419,0.842,0.525v1.343
	c-1.807-0.146-3.318-0.826-4.541-2.039c-1.587-1.579-2.381-3.78-2.381-6.604c0-1.416,0.21-2.696,0.629-3.839s1.04-2.113,1.861-2.911
	c0.627-0.61,1.303-1.074,2.025-1.392c0.726-0.317,1.525-0.496,2.404-0.537L539.883,24.826L539.883,24.826z M540.884,24.826v-1.318
	c0.879,0.041,1.685,0.22,2.411,0.537c0.729,0.317,1.405,0.781,2.032,1.392c1.66,1.62,2.49,3.87,2.49,6.75
	c0,2.824-0.796,5.025-2.382,6.604c-1.221,1.221-2.737,1.9-4.554,2.039v-1.343c0.212-0.049,0.376-0.112,0.494-0.189
	c0.118-0.078,0.226-0.189,0.323-0.336c0.221-0.333,0.33-0.838,0.33-1.514V26.535c0-0.431-0.073-0.773-0.222-1.025
	c-0.098-0.171-0.214-0.305-0.348-0.403C541.329,25.009,541.136,24.916,540.884,24.826z"/>
<path fill="#00FFFF" stroke="#000000" stroke-miterlimit="10" d="M555.983,23.837V38.18c0,0.317,0.061,0.545,0.184,0.684
	c0.064,0.082,0.126,0.132,0.183,0.152c0.059,0.021,0.244,0.072,0.563,0.153c0.391,0.09,0.586,0.313,0.586,0.671
	c0,0.212-0.105,0.383-0.317,0.513c-0.152,0.098-0.411,0.146-0.769,0.146h-0.416h-5.443h-0.316c-0.293,0-0.521-0.055-0.679-0.165
	c-0.157-0.109-0.236-0.266-0.236-0.47c0-0.333,0.163-0.553,0.486-0.659c0.271-0.089,0.427-0.145,0.472-0.165s0.092-0.067,0.141-0.14
	c0.098-0.13,0.146-0.337,0.146-0.623V26.059c0-0.285-0.051-0.492-0.146-0.623c-0.049-0.073-0.096-0.12-0.141-0.141
	c-0.045-0.02-0.201-0.075-0.472-0.165c-0.323-0.105-0.486-0.325-0.486-0.659c0-0.203,0.079-0.36,0.236-0.47
	c0.158-0.109,0.386-0.165,0.679-0.165h0.316L555.983,23.837L555.983,23.837z M559.731,32.333c0.747,0.114,1.322,0.24,1.727,0.378
	c0.403,0.139,0.768,0.326,1.093,0.562c0.342,0.252,0.604,0.554,0.787,0.903c0.186,0.35,0.274,0.72,0.274,1.111v2.527
	c0,0.261,0.086,0.391,0.257,0.391c0.063,0,0.12-0.019,0.165-0.055c0.044-0.037,0.105-0.108,0.188-0.214
	c0.203-0.276,0.41-0.415,0.622-0.415c0.141,0,0.276,0.073,0.415,0.22c0.141,0.147,0.207,0.293,0.207,0.439
	c0,0.252-0.12,0.56-0.357,0.922c-0.24,0.362-0.539,0.686-0.897,0.97c-0.334,0.269-0.696,0.462-1.087,0.58
	c-0.391,0.118-0.85,0.177-1.379,0.177c-1.074,0-1.912-0.307-2.517-0.921c-0.603-0.615-0.901-1.471-0.901-2.57v-2.051
	c0-0.456-0.004-0.72-0.012-0.793c-0.041-0.325-0.155-0.606-0.344-0.842c-0.234-0.285-0.572-0.452-1.014-0.5v-1.306
	c0.439-0.065,0.753-0.179,0.939-0.342c0.163-0.146,0.273-0.313,0.336-0.5c0.062-0.187,0.092-0.464,0.092-0.83v-3.235
	c0-0.513-0.102-0.895-0.299-1.147c-0.2-0.252-0.562-0.452-1.08-0.598v-1.355h0.314c0.904,0,1.673,0.033,2.31,0.098
	c0.942,0.09,1.785,0.399,2.524,0.928c1.066,0.757,1.602,1.835,1.602,3.235c0,1.147-0.358,2.087-1.074,2.82
	c-0.301,0.31-0.653,0.562-1.056,0.757C561.165,31.87,560.553,32.089,559.731,32.333z"/>
<path fill="#00FFFF" stroke="#000000" stroke-miterlimit="10" d="M572.427,23.508v1.404c-0.505,0.139-0.89,0.352-1.152,0.641
	c-0.267,0.289-0.396,0.646-0.396,1.068c0,0.407,0.109,0.763,0.33,1.068c0.219,0.306,0.577,0.597,1.074,0.873
	c0.342,0.188,1.114,0.545,2.316,1.074c0.732,0.317,1.303,0.604,1.703,0.86c0.403,0.257,0.783,0.576,1.144,0.958
	c0.96,1.009,1.438,2.209,1.438,3.601c0,1.05-0.261,2.01-0.78,2.881c-0.521,0.871-1.236,1.555-2.147,2.051
	c-0.488,0.261-1.023,0.466-1.604,0.616c-0.581,0.151-1.125,0.226-1.63,0.226v-1.392c0.707-0.171,1.22-0.409,1.531-0.714
	c0.313-0.305,0.471-0.718,0.471-1.239c0-0.545-0.242-1.025-0.73-1.44c-0.326-0.269-0.944-0.602-1.855-1.001
	c-1.002-0.439-1.688-0.752-2.058-0.94c-0.37-0.187-0.726-0.407-1.067-0.659c-1.528-1.09-2.295-2.543-2.295-4.358
	c0-0.928,0.19-1.784,0.573-2.57c0.383-0.785,0.915-1.417,1.599-1.898C569.839,23.952,571.019,23.581,572.427,23.508z
	 M571.792,39.438v1.392c-0.668,0-1.404-0.191-2.21-0.574c-0.301-0.138-0.509-0.228-0.622-0.269c-0.114-0.041-0.225-0.061-0.33-0.061
	c-0.163,0-0.285,0.026-0.366,0.08c-0.081,0.053-0.212,0.185-0.391,0.396c-0.146,0.179-0.307,0.269-0.478,0.269
	c-0.456,0-0.684-0.35-0.684-1.05v-4.443c0-0.228,0.064-0.421,0.195-0.58c0.13-0.158,0.293-0.242,0.486-0.25
	c0.181-0.008,0.318,0.043,0.423,0.152c0.102,0.11,0.188,0.304,0.263,0.58c0.187,0.7,0.457,1.355,0.812,1.965
	c0.355,0.61,0.769,1.127,1.239,1.55C570.611,39.035,571.165,39.316,571.792,39.438z M573.391,24.912v-1.343
	c0.488,0.033,0.911,0.096,1.271,0.189c0.356,0.094,0.866,0.279,1.525,0.556c0.161,0.065,0.298,0.098,0.401,0.098
	c0.154,0,0.271-0.053,0.342-0.159l0.271-0.354c0.13-0.179,0.289-0.269,0.476-0.269c0.223,0,0.381,0.079,0.482,0.238
	c0.102,0.158,0.15,0.409,0.15,0.75v4.028c0,0.236-0.064,0.429-0.199,0.58c-0.136,0.151-0.309,0.226-0.521,0.226
	c-0.163,0-0.313-0.053-0.452-0.159c-0.071-0.065-0.132-0.145-0.177-0.238c-0.045-0.093-0.087-0.25-0.128-0.47
	c-0.09-0.398-0.244-0.81-0.464-1.233s-0.478-0.801-0.771-1.135C575.015,25.559,574.277,25.124,573.391,24.912z"/>
</svg>
