<?xml version="1.0" encoding="utf-8"?>
<!-- Generator: Adobe Illustrator 16.0.0, SVG Export Plug-In . SVG Version: 6.00 Build 0)  -->
<!DOCTYPE svg PUBLIC "-//W3C//DTD SVG 1.1//EN" "http://www.w3.org/Graphics/SVG/1.1/DTD/svg11.dtd">
<svg version="1.1" id="레이어_1" xmlns="http://www.w3.org/2000/svg" xmlns:xlink="http://www.w3.org/1999/xlink" x="0px"
	 y="0px" width="660px" height="220px" viewBox="0 0 660 220" enable-background="new 0 0 660 220" xml:space="preserve">
<path fill="#00FFFF" stroke="#000000" stroke-miterlimit="10" d="M575.305,207H71.492L9,156.202V60.227L71.64,15h503.619
	l0.524,0.377L638,60.226v95.978l-0.741,0.601L575.305,207z M72.913,203h500.975L634,154.296V62.274L573.968,19H72.933L13,62.273
	v92.026L72.913,203z"/>
<polygon fill="#00FFFF" stroke="#000000" stroke-miterlimit="10" points="647,177 644,177 644,55.469 579.526,8 71,8 71,5 
	580.511,5 580.908,5.292 647,53.953 "/>
<polygon fill="#00FFFF" stroke="#000000" stroke-miterlimit="10" points="574,218 68.957,218 2,164.509 2,64 5,64 5,163.064 
	70.007,215 574,215 "/>
<path fill="#00FFFF" stroke="#000000" stroke-miterlimit="10" d="M644.5,203c-7.995,0-14.5-6.505-14.5-14.5s6.505-14.5,14.5-14.5
	s14.5,6.505,14.5,14.5S652.495,203,644.5,203z M644.5,179c-5.238,0-9.5,4.262-9.5,9.5s4.262,9.5,9.5,9.5s9.5-4.262,9.5-9.5
	S649.738,179,644.5,179z"/>
<polygon fill="#00FFFF" stroke="#000000" stroke-miterlimit="10" points="349.5,200 409.5,200 384.5,182 324.5,182 "/>
<polygon fill="#00FFFF" stroke="#000000" stroke-miterlimit="10" points="245.5,200 338.5,200 313.5,182 220.5,182 "/>
<polygon fill="#00FFFF" stroke="#000000" stroke-miterlimit="10" points="102.5,200 234.5,200 209.5,182 77.5,182 "/>
<polygon fill="#00FFFF" stroke="#000000" stroke-miterlimit="10" points="571.862,205.041 538.159,179 73.658,179 33,141.43 
	33,75.502 73,44.51 73,17 75,17 75,45.49 35,76.482 35,140.555 74.44,177 538.842,177 539.111,177.209 573.085,203.459 "/>
<path fill="#00FFFF" stroke="#000000" stroke-miterlimit="10" d="M88.749,23.508v1.404c-0.505,0.139-0.89,0.352-1.154,0.641
	c-0.265,0.289-0.396,0.646-0.396,1.068c0,0.407,0.109,0.763,0.33,1.068c0.219,0.306,0.577,0.597,1.074,0.873
	c0.342,0.188,1.114,0.545,2.318,1.074c0.732,0.317,1.301,0.604,1.703,0.86c0.403,0.257,0.783,0.576,1.142,0.958
	c0.96,1.009,1.44,2.209,1.44,3.601c0,1.05-0.261,2.01-0.781,2.881c-0.521,0.871-1.237,1.555-2.148,2.051
	c-0.488,0.261-1.023,0.466-1.605,0.616c-0.582,0.151-1.125,0.226-1.629,0.226v-1.392c0.707-0.171,1.218-0.409,1.531-0.714
	c0.313-0.305,0.471-0.718,0.471-1.239c0-0.545-0.244-1.025-0.732-1.44c-0.326-0.269-0.944-0.602-1.855-1.001
	c-1.002-0.439-1.688-0.752-2.058-0.94c-0.37-0.187-0.726-0.407-1.067-0.659c-1.53-1.09-2.295-2.543-2.295-4.358
	c0-0.928,0.19-1.784,0.573-2.57c0.383-0.785,0.915-1.417,1.599-1.898C86.161,23.952,87.34,23.581,88.749,23.508z M88.114,39.438
	v1.392c-0.668,0-1.404-0.191-2.21-0.574c-0.301-0.138-0.509-0.228-0.622-0.269c-0.114-0.041-0.225-0.061-0.33-0.061
	c-0.163,0-0.285,0.026-0.366,0.08c-0.081,0.053-0.212,0.185-0.391,0.396c-0.146,0.179-0.306,0.269-0.476,0.269
	c-0.456,0-0.684-0.35-0.684-1.05v-4.443c0-0.228,0.064-0.421,0.195-0.58c0.13-0.158,0.293-0.242,0.488-0.25
	c0.179-0.008,0.318,0.043,0.421,0.152c0.102,0.11,0.188,0.304,0.263,0.58c0.187,0.7,0.457,1.355,0.812,1.965
	c0.354,0.61,0.767,1.127,1.239,1.55C86.933,39.035,87.487,39.316,88.114,39.438z M89.712,24.912v-1.343
	c0.488,0.033,0.911,0.096,1.27,0.189c0.358,0.094,0.866,0.279,1.526,0.556c0.162,0.065,0.297,0.098,0.402,0.098
	c0.154,0,0.269-0.053,0.342-0.159l0.269-0.354c0.13-0.179,0.289-0.269,0.476-0.269c0.221,0,0.381,0.079,0.482,0.238
	c0.102,0.158,0.152,0.409,0.152,0.75v4.028c0,0.236-0.066,0.429-0.201,0.58c-0.134,0.151-0.307,0.226-0.519,0.226
	c-0.163,0-0.313-0.053-0.452-0.159c-0.072-0.065-0.132-0.145-0.177-0.238c-0.045-0.093-0.087-0.25-0.128-0.47
	c-0.09-0.398-0.244-0.81-0.464-1.233c-0.22-0.423-0.476-0.801-0.769-1.135C91.336,25.559,90.599,25.124,89.712,24.912z"/>
<path fill="#00FFFF" stroke="#000000" stroke-miterlimit="10" d="M103.788,23.837V40.5h-5.432h-0.318
	c-0.293,0-0.519-0.055-0.677-0.165c-0.159-0.109-0.238-0.266-0.238-0.47c0-0.333,0.163-0.553,0.488-0.659
	c0.269-0.089,0.425-0.145,0.47-0.165s0.092-0.067,0.141-0.14c0.098-0.13,0.146-0.337,0.146-0.623V26.059
	c0-0.285-0.049-0.492-0.146-0.623c-0.049-0.073-0.096-0.12-0.141-0.141c-0.045-0.02-0.201-0.075-0.47-0.165
	c-0.325-0.105-0.488-0.325-0.488-0.659c0-0.203,0.079-0.36,0.238-0.47c0.158-0.109,0.384-0.165,0.677-0.165h0.318L103.788,23.837
	L103.788,23.837z M104.813,32.724v-1.416c0.472-0.228,0.822-0.476,1.05-0.745s0.395-0.626,0.501-1.074
	c0.064-0.309,0.15-0.523,0.256-0.641c0.105-0.118,0.256-0.177,0.451-0.177c0.261,0,0.439,0.102,0.537,0.305
	c0.058,0.106,0.086,0.346,0.086,0.72v4.651c0,0.383-0.043,0.647-0.128,0.793c-0.086,0.146-0.242,0.22-0.47,0.22
	c-0.188,0-0.334-0.057-0.439-0.171c-0.106-0.114-0.191-0.305-0.257-0.574c-0.139-0.563-0.336-0.993-0.592-1.294
	C105.551,33.021,105.22,32.822,104.813,32.724z M104.874,23.837h4.92v4.321c0,0.252-0.049,0.436-0.146,0.549
	c-0.098,0.114-0.252,0.171-0.464,0.171c-0.179,0-0.31-0.037-0.391-0.11c-0.081-0.073-0.159-0.224-0.231-0.452
	c-0.31-0.944-0.764-1.664-1.361-2.161c-0.599-0.496-1.373-0.793-2.326-0.891L104.874,23.837L104.874,23.837z M104.886,40.5v-1.318
	c0.529-0.081,0.966-0.195,1.313-0.342c0.346-0.146,0.693-0.37,1.044-0.671c0.35-0.301,0.628-0.612,0.836-0.934
	c0.207-0.321,0.404-0.746,0.592-1.275c0.09-0.26,0.184-0.438,0.281-0.531c0.098-0.093,0.231-0.14,0.402-0.14
	c0.228,0,0.387,0.067,0.477,0.202c0.089,0.134,0.134,0.368,0.134,0.702V40.5H104.886z"/>
<path fill="#00FFFF" stroke="#000000" stroke-miterlimit="10" d="M113.588,28.122l1.295,2.148v6.543c0,0.57,0.095,1.038,0.286,1.404
	c0.191,0.366,0.495,0.667,0.909,0.903l0.367,0.208c0.211,0.122,0.316,0.305,0.316,0.549c0,0.188-0.077,0.342-0.231,0.464
	c-0.13,0.106-0.398,0.159-0.806,0.159h-2.82c-0.74,0-1.11-0.211-1.11-0.635c0-0.146,0.038-0.263,0.116-0.348
	c0.077-0.086,0.246-0.202,0.506-0.348c0.781-0.431,1.172-1.216,1.172-2.356V28.122L113.588,28.122z M118.704,23.837l6.494,11.279
	V40.5h-3.332l-8.289-14.282c-0.179-0.309-0.325-0.525-0.439-0.647c-0.114-0.122-0.261-0.211-0.439-0.269l-0.464-0.171
	c-0.122-0.041-0.22-0.114-0.293-0.22c-0.073-0.105-0.11-0.224-0.11-0.354c0-0.138,0.037-0.267,0.11-0.385
	c0.073-0.118,0.171-0.201,0.293-0.25c0.139-0.057,0.513-0.085,1.123-0.085H118.704z M125.198,33.164l-1.294-2.185v-3.381
	c0-0.684-0.1-1.207-0.299-1.569c-0.2-0.362-0.552-0.673-1.056-0.934c-0.172-0.081-0.289-0.169-0.354-0.263
	c-0.065-0.093-0.098-0.213-0.098-0.36c0-0.22,0.071-0.38,0.214-0.482c0.142-0.102,0.372-0.153,0.689-0.153h3.052
	c0.415,0,0.688,0.065,0.817,0.195c0.139,0.13,0.208,0.285,0.208,0.464c0,0.171-0.039,0.299-0.116,0.384
	c-0.077,0.086-0.262,0.202-0.555,0.348c-0.432,0.22-0.758,0.558-0.977,1.013c-0.155,0.334-0.232,0.786-0.232,1.355v5.568H125.198z"
	/>
<path fill="#00FFFF" stroke="#000000" stroke-miterlimit="10" d="M134.208,23.508v1.404c-0.505,0.139-0.89,0.352-1.154,0.641
	c-0.265,0.289-0.396,0.646-0.396,1.068c0,0.407,0.109,0.763,0.33,1.068c0.219,0.306,0.577,0.597,1.074,0.873
	c0.342,0.188,1.114,0.545,2.318,1.074c0.732,0.317,1.301,0.604,1.703,0.86c0.403,0.257,0.783,0.576,1.142,0.958
	c0.96,1.009,1.44,2.209,1.44,3.601c0,1.05-0.261,2.01-0.781,2.881c-0.521,0.871-1.237,1.555-2.148,2.051
	c-0.488,0.261-1.023,0.466-1.605,0.616c-0.582,0.151-1.125,0.226-1.629,0.226v-1.392c0.707-0.171,1.218-0.409,1.531-0.714
	c0.313-0.305,0.471-0.718,0.471-1.239c0-0.545-0.244-1.025-0.732-1.44c-0.326-0.269-0.944-0.602-1.855-1.001
	c-1.002-0.439-1.688-0.752-2.058-0.94c-0.37-0.187-0.726-0.407-1.067-0.659c-1.53-1.09-2.295-2.543-2.295-4.358
	c0-0.928,0.19-1.784,0.573-2.57c0.383-0.785,0.915-1.417,1.599-1.898C131.62,23.952,132.799,23.581,134.208,23.508z M133.573,39.438
	v1.392c-0.668,0-1.404-0.191-2.21-0.574c-0.301-0.138-0.509-0.228-0.622-0.269c-0.114-0.041-0.225-0.061-0.33-0.061
	c-0.163,0-0.285,0.026-0.366,0.08c-0.081,0.053-0.212,0.185-0.391,0.396c-0.146,0.179-0.306,0.269-0.476,0.269
	c-0.456,0-0.684-0.35-0.684-1.05v-4.443c0-0.228,0.064-0.421,0.195-0.58c0.13-0.158,0.293-0.242,0.488-0.25
	c0.179-0.008,0.318,0.043,0.421,0.152c0.102,0.11,0.188,0.304,0.263,0.58c0.187,0.7,0.457,1.355,0.812,1.965
	c0.354,0.61,0.767,1.127,1.239,1.55C132.392,39.035,132.946,39.316,133.573,39.438z M135.171,24.912v-1.343
	c0.488,0.033,0.911,0.096,1.27,0.189c0.358,0.094,0.866,0.279,1.526,0.556c0.162,0.065,0.297,0.098,0.402,0.098
	c0.154,0,0.269-0.053,0.342-0.159l0.269-0.354c0.13-0.179,0.289-0.269,0.476-0.269c0.221,0,0.381,0.079,0.482,0.238
	c0.102,0.158,0.152,0.409,0.152,0.75v4.028c0,0.236-0.066,0.429-0.201,0.58c-0.134,0.151-0.307,0.226-0.519,0.226
	c-0.163,0-0.313-0.053-0.452-0.159c-0.072-0.065-0.132-0.145-0.177-0.238c-0.045-0.093-0.087-0.25-0.128-0.47
	c-0.09-0.398-0.244-0.81-0.464-1.233c-0.22-0.423-0.476-0.801-0.769-1.135C136.795,25.559,136.058,25.124,135.171,24.912z"/>
<path fill="#00FFFF" stroke="#000000" stroke-miterlimit="10" d="M149.002,24.826c-0.415,0.146-0.708,0.346-0.879,0.598
	s-0.256,0.623-0.256,1.111v10.913c0,0.716,0.098,1.221,0.293,1.514c0.154,0.244,0.435,0.419,0.842,0.525v1.343
	c-1.807-0.146-3.32-0.826-4.541-2.039c-1.587-1.579-2.381-3.78-2.381-6.604c0-1.416,0.21-2.696,0.629-3.839s1.04-2.113,1.861-2.911
	c0.627-0.61,1.303-1.074,2.027-1.392c0.724-0.317,1.525-0.496,2.404-0.537L149.002,24.826L149.002,24.826z M150.003,24.826v-1.318
	c0.879,0.041,1.683,0.22,2.411,0.537s1.405,0.781,2.032,1.392c1.66,1.62,2.49,3.87,2.49,6.75c0,2.824-0.794,5.025-2.38,6.604
	c-1.221,1.221-2.739,1.9-4.554,2.039v-1.343c0.212-0.049,0.376-0.112,0.494-0.189c0.118-0.078,0.226-0.189,0.323-0.336
	c0.221-0.333,0.33-0.838,0.33-1.514V26.535c0-0.431-0.073-0.773-0.22-1.025c-0.098-0.171-0.214-0.305-0.348-0.403
	C150.449,25.009,150.255,24.916,150.003,24.826z"/>
<path fill="#00FFFF" stroke="#000000" stroke-miterlimit="10" d="M165.103,23.837V38.18c0,0.317,0.061,0.545,0.184,0.684
	c0.064,0.082,0.126,0.132,0.183,0.152c0.057,0.021,0.244,0.072,0.562,0.153c0.391,0.09,0.586,0.313,0.586,0.671
	c0,0.212-0.105,0.383-0.317,0.513c-0.154,0.098-0.411,0.146-0.769,0.146h-0.416h-5.443h-0.318c-0.293,0-0.519-0.055-0.677-0.165
	c-0.159-0.109-0.238-0.266-0.238-0.47c0-0.333,0.163-0.553,0.488-0.659c0.269-0.089,0.425-0.145,0.47-0.165s0.092-0.067,0.141-0.14
	c0.098-0.13,0.146-0.337,0.146-0.623V26.059c0-0.285-0.049-0.492-0.146-0.623c-0.049-0.073-0.096-0.12-0.141-0.141
	c-0.045-0.02-0.201-0.075-0.47-0.165c-0.325-0.105-0.488-0.325-0.488-0.659c0-0.203,0.079-0.36,0.238-0.47
	c0.158-0.109,0.384-0.165,0.677-0.165h0.318L165.103,23.837L165.103,23.837z M168.851,32.333c0.748,0.114,1.324,0.24,1.727,0.378
	c0.403,0.139,0.768,0.326,1.093,0.562c0.342,0.252,0.604,0.554,0.787,0.903c0.184,0.35,0.274,0.72,0.274,1.111v2.527
	c0,0.261,0.086,0.391,0.257,0.391c0.065,0,0.12-0.019,0.165-0.055c0.044-0.037,0.107-0.108,0.189-0.214
	c0.203-0.276,0.41-0.415,0.622-0.415c0.139,0,0.276,0.073,0.415,0.22c0.139,0.147,0.207,0.293,0.207,0.439
	c0,0.252-0.12,0.56-0.359,0.922c-0.24,0.362-0.539,0.686-0.897,0.97c-0.334,0.269-0.696,0.462-1.087,0.58
	c-0.391,0.118-0.85,0.177-1.379,0.177c-1.074,0-1.912-0.307-2.515-0.921c-0.603-0.615-0.903-1.471-0.903-2.57v-2.051
	c0-0.456-0.004-0.72-0.012-0.793c-0.041-0.325-0.155-0.606-0.342-0.842c-0.236-0.285-0.574-0.452-1.014-0.5v-1.306
	c0.439-0.065,0.753-0.179,0.939-0.342c0.163-0.146,0.275-0.313,0.336-0.5c0.062-0.187,0.092-0.464,0.092-0.83v-3.235
	c0-0.513-0.1-0.895-0.299-1.147c-0.2-0.252-0.56-0.452-1.08-0.598v-1.355h0.316c0.904,0,1.673,0.033,2.308,0.098
	c0.944,0.09,1.786,0.399,2.526,0.928c1.066,0.757,1.6,1.835,1.6,3.235c0,1.147-0.358,2.087-1.074,2.82
	c-0.301,0.31-0.653,0.562-1.056,0.757C170.285,31.87,169.672,32.089,168.851,32.333z"/>
<path fill="#00FFFF" stroke="#000000" stroke-miterlimit="10" d="M181.546,23.508v1.404c-0.505,0.139-0.89,0.352-1.154,0.641
	c-0.265,0.289-0.396,0.646-0.396,1.068c0,0.407,0.109,0.763,0.33,1.068c0.219,0.306,0.577,0.597,1.074,0.873
	c0.342,0.188,1.114,0.545,2.318,1.074c0.732,0.317,1.301,0.604,1.703,0.86c0.403,0.257,0.783,0.576,1.142,0.958
	c0.96,1.009,1.44,2.209,1.44,3.601c0,1.05-0.261,2.01-0.781,2.881c-0.521,0.871-1.237,1.555-2.148,2.051
	c-0.488,0.261-1.023,0.466-1.605,0.616c-0.582,0.151-1.125,0.226-1.629,0.226v-1.392c0.707-0.171,1.218-0.409,1.531-0.714
	c0.313-0.305,0.471-0.718,0.471-1.239c0-0.545-0.244-1.025-0.732-1.44c-0.326-0.269-0.944-0.602-1.855-1.001
	c-1.002-0.439-1.688-0.752-2.058-0.94c-0.37-0.187-0.726-0.407-1.067-0.659c-1.53-1.09-2.295-2.543-2.295-4.358
	c0-0.928,0.19-1.784,0.573-2.57c0.383-0.785,0.915-1.417,1.599-1.898C178.958,23.952,180.138,23.581,181.546,23.508z
	 M180.912,39.438v1.392c-0.668,0-1.404-0.191-2.21-0.574c-0.301-0.138-0.509-0.228-0.622-0.269c-0.114-0.041-0.225-0.061-0.33-0.061
	c-0.163,0-0.285,0.026-0.366,0.08c-0.081,0.053-0.212,0.185-0.391,0.396c-0.146,0.179-0.306,0.269-0.476,0.269
	c-0.456,0-0.684-0.35-0.684-1.05v-4.443c0-0.228,0.064-0.421,0.195-0.58c0.13-0.158,0.293-0.242,0.488-0.25
	c0.179-0.008,0.318,0.043,0.421,0.152c0.102,0.11,0.188,0.304,0.263,0.58c0.187,0.7,0.457,1.355,0.812,1.965
	c0.354,0.61,0.767,1.127,1.239,1.55C179.731,39.035,180.285,39.316,180.912,39.438z M182.51,24.912v-1.343
	c0.488,0.033,0.911,0.096,1.27,0.189c0.358,0.094,0.866,0.279,1.526,0.556c0.162,0.065,0.297,0.098,0.402,0.098
	c0.154,0,0.269-0.053,0.342-0.159l0.269-0.354c0.13-0.179,0.289-0.269,0.476-0.269c0.221,0,0.381,0.079,0.482,0.238
	c0.102,0.158,0.152,0.409,0.152,0.75v4.028c0,0.236-0.066,0.429-0.201,0.58c-0.134,0.151-0.307,0.226-0.519,0.226
	c-0.163,0-0.313-0.053-0.452-0.159c-0.072-0.065-0.132-0.145-0.177-0.238c-0.045-0.093-0.087-0.25-0.128-0.47
	c-0.09-0.398-0.244-0.81-0.464-1.233c-0.22-0.423-0.476-0.801-0.769-1.135C184.134,25.559,183.397,25.124,182.51,24.912z"/>
</svg>
