<?xml version="1.0" encoding="utf-8"?>
<!-- Generator: Adobe Illustrator 16.0.0, SVG Export Plug-In . SVG Version: 6.00 Build 0)  -->
<!DOCTYPE svg PUBLIC "-//W3C//DTD SVG 1.1//EN" "http://www.w3.org/Graphics/SVG/1.1/DTD/svg11.dtd">
<svg version="1.1" id="레이어_1" xmlns="http://www.w3.org/2000/svg" xmlns:xlink="http://www.w3.org/1999/xlink" x="0px"
	 y="0px" width="400px" height="86px" viewBox="0 0 400 86" enable-background="new 0 0 400 86" xml:space="preserve">
<path fill="#F15A24" stroke="#F15A24" stroke-miterlimit="10" d="M26.311,18.301l2.988,12.129L18.928,68.281
	c-0.313,1.095-0.469,2.109-0.469,3.047c0,2.461,1.151,4.219,3.457,5.273l2.051,0.938c1.289,0.586,1.934,1.563,1.934,2.93
	c0,1.954-1.427,2.93-4.277,2.93H6.741c-1.445,0-2.588-0.301-3.428-0.906c-0.841-0.604-1.26-1.438-1.26-2.49
	c0-1.132,0.858-2.068,2.578-2.813c1.602-0.703,2.783-1.336,3.545-1.903c0.762-0.565,1.494-1.337,2.197-2.313
	c1.093-1.602,1.992-3.729,2.695-6.388L26.311,18.301z M30.354,3.418h23.613l16.289,68.848c0.313,1.211,0.664,2.284,1.055,3.224
	c0.352,0.741,1.133,1.348,2.344,1.815c1.016,0.43,1.719,0.859,2.109,1.288c0.39,0.431,0.586,1.017,0.586,1.759
	c0,2.031-1.523,3.047-4.57,3.047H42.542c-1.172,0-2.109-0.281-2.813-0.851c-0.703-0.565-1.055-1.317-1.055-2.256
	c0-0.78,0.155-1.366,0.469-1.758c0.313-0.39,1.016-0.88,2.109-1.466c0.781-0.389,1.327-0.819,1.641-1.289
	c0.313-0.469,0.469-1.055,0.469-1.758c0-0.662-0.059-1.248-0.176-1.758l-1.875-8.496H24.963l1.582-6.974H39.67L28.889,9.161
	L30.354,3.418z"/>
<path fill="#F15A24" stroke="#F15A24" stroke-miterlimit="10" d="M113.147,3.418v68.848c0,1.522,0.293,2.617,0.879,3.28
	c0.313,0.392,0.605,0.636,0.879,0.731c0.272,0.1,1.172,0.344,2.695,0.731c1.875,0.433,2.813,1.507,2.813,3.224
	c0,1.018-0.508,1.838-1.523,2.461c-0.742,0.47-1.973,0.703-3.691,0.703h-1.992H87.073H85.55c-1.406,0-2.49-0.265-3.252-0.791
	c-0.762-0.526-1.143-1.277-1.143-2.256c0-1.602,0.781-2.654,2.344-3.164c1.289-0.43,2.041-0.691,2.256-0.791
	c0.214-0.098,0.439-0.321,0.674-0.675c0.469-0.622,0.703-1.618,0.703-2.987V14.083c0-1.367-0.234-2.363-0.703-2.988
	c-0.234-0.352-0.46-0.576-0.674-0.674c-0.215-0.097-0.967-0.361-2.256-0.791c-1.563-0.507-2.344-1.562-2.344-3.164
	c0-0.976,0.381-1.729,1.143-2.256c0.762-0.527,1.846-0.791,3.252-0.791h1.523L113.147,3.418L113.147,3.418z M131.135,44.199
	c3.594,0.548,6.357,1.152,8.291,1.816c1.934,0.664,3.682,1.563,5.244,2.693c1.641,1.212,2.9,2.657,3.779,4.336
	c0.879,1.682,1.318,3.457,1.318,5.332v12.129c0,1.251,0.41,1.875,1.23,1.875c0.313,0,0.576-0.088,0.791-0.264
	c0.214-0.178,0.518-0.518,0.908-1.025c0.976-1.326,1.972-1.99,2.988-1.99c0.664,0,1.327,0.352,1.992,1.055
	c0.664,0.703,0.996,1.406,0.996,2.109c0,1.211-0.577,2.687-1.729,4.424c-1.152,1.737-2.588,3.291-4.307,4.658
	c-1.603,1.287-3.34,2.217-5.215,2.781s-4.082,0.852-6.621,0.852c-5.156,0-9.18-1.477-12.07-4.424
	c-2.892-2.949-4.336-7.063-4.336-12.334v-9.846c0-2.188-0.021-3.457-0.059-3.811c-0.196-1.562-0.742-2.907-1.641-4.043
	c-1.134-1.364-2.754-2.168-4.863-2.4v-6.269c2.109-0.312,3.612-0.859,4.512-1.641c0.781-0.703,1.318-1.503,1.611-2.402
	c0.293-0.898,0.439-2.227,0.439-3.984V18.301c0-2.461-0.479-4.296-1.436-5.508c-0.958-1.21-2.687-2.168-5.186-2.871V3.418h1.523
	c4.336,0,8.027,0.157,11.074,0.469c4.531,0.43,8.574,1.915,12.129,4.453c5.117,3.633,7.676,8.809,7.676,15.527
	c0,5.508-1.72,10.02-5.156,13.535c-1.445,1.485-3.135,2.695-5.068,3.633C138.016,41.973,135.081,43.028,131.135,44.199z"/>
<path fill="#F15A24" stroke="#F15A24" stroke-miterlimit="10" d="M197.053,3.418v79.98h-26.074h-1.523
	c-1.406,0-2.49-0.266-3.252-0.791c-0.762-0.527-1.143-1.278-1.143-2.256c0-1.603,0.781-2.656,2.344-3.164
	c1.289-0.431,2.041-0.692,2.256-0.791c0.214-0.099,0.439-0.322,0.674-0.674c0.469-0.625,0.703-1.621,0.703-2.988V14.083
	c0-1.367-0.234-2.363-0.703-2.988c-0.234-0.352-0.46-0.576-0.674-0.674c-0.215-0.097-0.967-0.361-2.256-0.791
	c-1.563-0.507-2.344-1.562-2.344-3.164c0-0.976,0.381-1.729,1.143-2.256c0.762-0.527,1.846-0.791,3.252-0.791h1.523L197.053,3.418
	L197.053,3.418z M201.975,46.074v-6.796c2.268-1.093,3.945-2.285,5.039-3.574s1.896-3.007,2.402-5.156
	c0.313-1.484,0.723-2.509,1.23-3.076c0.508-0.566,1.229-0.85,2.168-0.85c1.25,0,2.107,0.489,2.578,1.465
	c0.271,0.508,0.408,1.661,0.408,3.457v22.324c0,1.837-0.203,3.104-0.613,3.809c-0.41,0.705-1.162,1.056-2.256,1.056
	c-0.898,0-1.604-0.271-2.109-0.819c-0.508-0.546-0.918-1.465-1.23-2.754c-0.664-2.695-1.611-4.767-2.842-6.211
	C205.52,47.501,203.928,46.543,201.975,46.074z M202.268,3.418h23.613V24.16c0,1.211-0.234,2.09-0.703,2.637s-1.211,0.82-2.227,0.82
	c-0.859,0-1.484-0.176-1.875-0.527c-0.391-0.351-0.762-1.074-1.113-2.168c-1.484-4.531-3.662-7.988-6.533-10.371
	c-2.871-2.382-6.592-3.809-11.162-4.277V3.418L202.268,3.418z M202.326,83.398V77.07c2.539-0.391,4.639-0.938,6.299-1.641
	c1.66-0.703,3.33-1.777,5.01-3.225c1.68-1.444,3.018-2.938,4.014-4.48s1.943-3.584,2.844-6.123c0.43-1.25,0.879-2.101,1.348-2.551
	c0.471-0.447,1.113-0.674,1.936-0.674c1.094,0,1.854,0.322,2.285,0.968c0.43,0.646,0.645,1.77,0.645,3.368v20.686H202.326z"/>
<path fill="#F15A24" stroke="#F15A24" stroke-miterlimit="10" d="M254.943,18.301l2.988,12.129l-10.371,37.851
	c-0.313,1.095-0.471,2.109-0.471,3.047c0,2.461,1.152,4.219,3.457,5.273l2.053,0.938c1.289,0.586,1.934,1.563,1.934,2.93
	c0,1.954-1.426,2.93-4.277,2.93h-14.883c-1.445,0-2.588-0.301-3.428-0.906c-0.84-0.604-1.26-1.438-1.26-2.49
	c0-1.132,0.857-2.068,2.578-2.813c1.602-0.703,2.781-1.336,3.545-1.903c0.762-0.565,1.494-1.337,2.195-2.313
	c1.096-1.602,1.992-3.729,2.695-6.388L254.943,18.301z M258.986,3.418H282.6l16.289,68.848c0.313,1.211,0.664,2.284,1.056,3.224
	c0.353,0.741,1.134,1.348,2.345,1.815c1.017,0.43,1.719,0.859,2.108,1.288c0.392,0.431,0.586,1.017,0.586,1.759
	c0,2.031-1.522,3.047-4.569,3.047h-29.238c-1.172,0-2.107-0.281-2.813-0.851c-0.702-0.565-1.055-1.317-1.055-2.256
	c0-0.78,0.155-1.366,0.469-1.758c0.313-0.39,1.017-0.88,2.109-1.466c0.78-0.389,1.327-0.819,1.641-1.289
	c0.313-0.469,0.47-1.055,0.47-1.758c0-0.662-0.06-1.248-0.177-1.758l-1.875-8.496h-16.348l1.582-6.974h13.125L257.521,9.161
	L258.986,3.418z"/>
<path fill="#F15A24" stroke="#F15A24" stroke-miterlimit="10" d="M334.982,39.571v7.91c0,0.899-0.177,1.517-0.527,1.848
	c-0.353,0.333-0.978,0.498-1.875,0.498h-25.195c-0.897,0-1.522-0.165-1.875-0.498c-0.352-0.331-0.526-0.946-0.526-1.848v-7.91
	c0-0.898,0.177-1.513,0.526-1.846c0.353-0.332,0.978-0.498,1.875-0.498h25.195c0.897,0,1.522,0.167,1.875,0.498
	C334.807,38.058,334.982,38.673,334.982,39.571z"/>
<path fill="#F15A24" stroke="#F15A24" stroke-miterlimit="10" d="M380.803,3.418v68.848c0,1.522,0.293,2.617,0.879,3.28
	c0.313,0.392,0.605,0.636,0.879,0.731c0.273,0.1,1.173,0.344,2.695,0.731c1.875,0.433,2.813,1.507,2.813,3.224
	c0,1.018-0.509,1.838-1.522,2.461c-0.741,0.47-1.973,0.703-3.689,0.703h-1.992h-22.5h-1.935c-1.759,0-2.987-0.233-3.69-0.703
	c-1.017-0.623-1.523-1.443-1.523-2.461c0-1.717,0.938-2.791,2.813-3.224c1.522-0.39,2.423-0.634,2.694-0.731
	c0.273-0.096,0.547-0.34,0.82-0.731c0.586-0.663,0.879-1.758,0.879-3.28V17.422c0-2.031-0.205-3.516-0.615-4.453
	c-0.409-0.937-1.063-1.465-1.963-1.582l-2.051-0.293c-1.836-0.273-2.754-1.21-2.754-2.813c0-1.25,0.586-2.227,1.758-2.93
	c0.586-0.312,1.797-0.527,3.633-0.645L380.803,3.418z"/>
</svg>
