<?xml version="1.0" encoding="utf-8"?>
<!-- Generator: Adobe Illustrator 16.0.0, SVG Export Plug-In . SVG Version: 6.00 Build 0)  -->
<!DOCTYPE svg PUBLIC "-//W3C//DTD SVG 1.1//EN" "http://www.w3.org/Graphics/SVG/1.1/DTD/svg11.dtd">
<svg version="1.1" id="레이어_1" xmlns="http://www.w3.org/2000/svg" xmlns:xlink="http://www.w3.org/1999/xlink" x="0px"
	 y="0px" width="100px" height="100px" viewBox="0 0 100 100" enable-background="new 0 0 100 100" xml:space="preserve">
<path fill="#F15A24" stroke="#F15A24" stroke-miterlimit="10" d="M50,94.5C25.462,94.5,5.5,74.537,5.5,50
	C5.5,25.462,25.462,5.5,50,5.5c24.537,0,44.5,19.962,44.5,44.5C94.5,74.537,74.537,94.5,50,94.5z M50,10.5
	c-21.78,0-39.5,17.72-39.5,39.5c0,21.779,17.72,39.5,39.5,39.5c21.779,0,39.5-17.721,39.5-39.5C89.5,28.22,71.779,10.5,50,10.5z"/>
<path fill="#F15A24" stroke="#F15A24" stroke-miterlimit="10" d="M49.995,84.509c-14.938,0-28.109-9.542-32.773-23.743l2.816-1.041
	l0.042,0.127c4.251,12.944,16.276,21.657,29.916,21.657c3.331,0,6.641-0.532,9.834-1.581C69.354,76.8,76.887,69.23,79.979,59.68
	l2.854,0.924c-3.386,10.459-11.636,18.75-22.067,22.174C57.268,83.927,53.645,84.509,49.995,84.509z M20.038,40.271l-2.853-0.929
	c3.397-10.433,11.64-18.702,22.05-22.121c3.497-1.148,7.12-1.73,10.768-1.73c14.938,0,28.11,9.542,32.774,23.745l-2.827,1.006
	l-0.043-0.137c-4.238-12.901-16.265-21.614-29.904-21.614c-3.33,0-6.638,0.532-9.832,1.581
	C30.667,23.194,23.14,30.745,20.038,40.271z"/>
</svg>
