<?xml version="1.0" encoding="utf-8"?>
<!-- Generator: Adobe Illustrator 16.0.0, SVG Export Plug-In . SVG Version: 6.00 Build 0)  -->
<!DOCTYPE svg PUBLIC "-//W3C//DTD SVG 1.1//EN" "http://www.w3.org/Graphics/SVG/1.1/DTD/svg11.dtd">
<svg version="1.1" id="레이어_1" xmlns="http://www.w3.org/2000/svg" xmlns:xlink="http://www.w3.org/1999/xlink" x="0px"
	 y="0px" width="460px" height="168px" viewBox="0 0 460 168" enable-background="new 0 0 460 168" xml:space="preserve">
<g>
	<path fill="#FFFFFF" d="M62.886,166.221c-0.184,0-0.375-0.011-0.573-0.033c-2.131-0.243-2.59-2.021-2.836-2.976
		c-0.292-1.145-0.587-2.287-0.882-3.43c-1.075-4.161-2.187-8.464-3.097-12.736c-0.292-1.375-0.615-1.504-1.399-1.504
		c-0.224,0-0.477,0.019-0.764,0.049c-5.435,0.594-10.403,0.882-15.189,0.882c-6.539,0-12.548-0.537-18.372-1.644
		c-4.372-0.837-7.672-2.082-10.386-3.919c-3.256-2.194-5.311-5.356-5.783-8.906c-0.5-3.751,0.781-7.615,3.607-10.881
		c4.515-5.218,10.37-9.118,15.536-12.56c6.56-4.361,13.949-8.83,22.588-13.661c1.129-0.634,1.436-1.243,1.261-2.511
		c-0.681-4.997-1.265-10.087-1.829-15.01l-0.5-4.331c-0.068-0.553-0.138-1.125-0.066-1.703c0.233-1.919,1.232-2.966,2.971-3.11
		c0.166-0.013,0.326-0.02,0.48-0.02c1.817,0,2.89,0.938,3.101,2.711c0.574,4.542,1.125,9.083,1.67,13.646l0.096,0.771
		c0.169,1.345,0.343,2.736,0.401,4.115c0.026,0.645,0.125,0.97,0.293,0.97c0.132,0,0.4-0.057,0.928-0.328
		c2.65-1.368,5.322-2.701,7.994-4.034c2.076-1.035,4.152-2.071,6.217-3.123c8.695-4.448,17.856-8.29,26.716-12.004
		c5.602-2.341,12.09-5.025,18.651-7.43c6.43-2.356,13.078-4.792,20.062-6.41c1.584-0.367,3.454-0.746,5.309-0.771l0.341-0.002
		c0.949,0,3.17,0,3.402,2.477c0.129,1.314-0.094,2.33-0.663,3.015c-0.474,0.57-1.171,0.899-2.073,0.977
		c-5.164,0.447-10.063,2.161-14.801,3.818l-1.153,0.403c-19.302,6.701-37.863,15.023-51.876,21.524
		c-4.964,2.3-9.933,4.779-14.738,7.177l-2.205,1.099c-1.015,0.511-1.281,1.009-1.134,2.132c1.239,9.378,2.357,17.251,3.788,25.194
		c0.796,4.431,1.465,8.439,2.045,12.255c0.217,1.396,0.57,1.633,1.278,1.633c0.183,0,0.387-0.021,0.617-0.062
		c9.202-1.648,18.062-3.866,26.332-6.59c0.809-0.26,1.096-0.4,1.149-0.965c1.04-10.774,6.354-20.021,17.234-29.982
		c9.57-8.764,20.929-15.319,33.762-19.485c3.219-1.046,5.883-1.533,8.385-1.533c2.784,0,5.275,0.61,7.617,1.865
		c3.069,1.644,4.708,4.168,5.014,7.716c0.455,5.216-1.393,9.778-5.991,14.793c-0.755,0.816-0.992,1.605-0.845,2.819
		c1.005,8.694,2.396,17.14,4.136,25.104c0.5,2.293,1.469,4.581,2.324,6.599c0.402,0.952,0.667,0.963,0.678,0.963
		c0.031,0,0.32-0.025,0.908-0.925c2.436-3.755,3.793-8.022,5.106-12.15c2.174-6.848,3.987-13.925,5.74-20.77
		c1.636-6.383,3.327-12.983,5.31-19.397c1-3.242,2.16-6.7,3.854-10.021c0.144-0.289,0.328-0.543,0.505-0.79l0.147-0.206
		c1.58-2.314,3.188-3.49,4.775-3.49c1.65,0,3.187,1.257,4.566,3.737c2.542,4.587,4.134,9.6,5.674,14.448
		c0.231,0.729,0.463,1.458,0.697,2.185c1.414,4.391,2.806,8.866,4.151,13.195c3.313,10.655,6.739,21.673,10.777,32.296
		c0.394,1.021,0.803,1.883,1.279,2.686c6.69-20.259,11.087-40.818,15.305-61.83l-1.895,1.929c-1.941,1.977-3.882,3.953-5.818,5.936
		c-0.547,0.56-1.084,1.126-1.621,1.692c-0.65,0.687-1.301,1.372-1.97,2.048c-0.919,0.922-2.186,1.472-3.389,1.472
		c-0.795,0-1.488-0.236-2.003-0.686c-0.646-0.557-1.007-1.298-1.042-2.141c-0.045-1.065,0.442-2.177,1.372-3.13
		c4.966-5.054,9.948-10.089,14.932-15.126l4.713-4.764c0.799-0.803,1.604-1.597,2.411-2.392c0.851-0.838,1.701-1.676,2.543-2.524
		c0.069-0.07,0.15-0.14,0.234-0.21c0.088-0.074,0.252-0.212,0.268-0.271c-0.033-0.081-0.053-0.123-0.353-0.123l-0.262,0.003
		c-0.07,0-0.139-0.002-0.205-0.007c-2.534-0.189-5.069-0.37-7.604-0.55c-5.326-0.379-10.833-0.771-16.249-1.247
		c-4.686-0.417-9.259-1.066-13.921-1.752c-1.1-0.166-1.955-0.631-2.475-1.346c-0.491-0.675-0.663-1.555-0.499-2.546
		c0.297-1.751,1.433-2.715,3.198-2.715c0.294,0,0.61,0.027,0.938,0.08c9.87,1.588,20.009,2.314,29.813,3.017l4.811,0.348
		c2.498,0.185,5.081,0.375,7.63,0.473l0.225,0.005c1.049,0,1.844-0.33,2.658-1.102c11.545-10.967,21.343-20.048,31.631-28.716
		c8.438-7.103,17.653-14.568,27.863-21.037c1.134-0.717,2.292-1.081,3.445-1.081c1.188,0,2.37,0.386,3.517,1.146
		c1.362,0.921,2.766,1.97,3.827,3.412c1.154,1.553,1.069,3.112-0.235,4.274c-0.709,0.633-1.482,0.955-2.298,0.955
		c-0.771,0-1.544-0.29-2.295-0.862c-1.401-1.06-2.096-1.584-2.692-1.584c-0.575,0-1.295,0.479-2.738,1.476
		c-9.663,6.668-19.332,14.311-30.429,24.054c-5.932,5.214-12.11,10.835-20.034,18.228c-0.142,0.132-0.317,0.263-0.497,0.396
		c-0.489,0.36-0.711,0.561-0.648,0.729c0.093,0.251,0.41,0.354,1.097,0.354l0.676-0.006c1.19,0.019,2.383,0.03,3.575,0.03
		c2.444,0,4.65-0.047,6.744-0.143c0.181-0.008,0.355-0.012,0.522-0.012c1.551,0,3.637,0.295,3.853,2.846
		c0.096,1.132-0.12,1.978-0.659,2.583c-0.627,0.705-1.646,1.055-3.204,1.104c-2.563,0.079-5.054,0.12-7.4,0.12
		c-3.742,0-7.208-0.097-10.596-0.296c-0.158-0.009-0.311-0.015-0.458-0.015c-0.763,0-1.235,0.167-1.685,0.597
		c-3.428,3.294-6.865,6.578-10.252,9.813l-3.225,3.081c0.106,0.21,0.248,0.224,0.518,0.25c0.145,0.014,0.309,0.029,0.472,0.086
		c2.147,0.717,3.117,1.948,3.455,4.389c1.021,7.406,2.324,16.152,4.249,24.87c1.73,7.826,3.541,15.463,6.635,22.836
		c0.782,1.866,1.917,4.271,3.768,6.323c0.602,0.665,1.029,0.742,1.299,0.742c0.389,0,0.845-0.195,1.392-0.597
		c4.014-2.938,6.821-6.961,9.138-10.501c8.036-12.264,15.413-25.863,23.216-42.801c1.014-2.21,2.212-4.553,3.772-7.374
		c0.63-1.139,1.698-2.654,3.694-2.654c0.265,0,0.542,0.027,0.824,0.081c2.423,0.454,2.632,2.298,2.816,3.925
		c0.832,7.265,0.804,14.655,0.777,21.803c-0.011,2.832-0.022,5.761,0.021,8.638c0.175,11.924,0.53,24.224,1.086,37.567
		c0.211-0.307,0.325-0.669,0.443-1.043c0.05-0.157,0.099-0.309,0.151-0.449c0.631-1.662,1.267-3.321,1.902-4.98
		c2.471-6.45,5.026-13.119,7.214-19.771c2.37-7.209,5.307-14.331,8.147-21.219c1.345-3.263,2.736-6.636,4.047-9.971
		c0.812-2.082,1.786-4.268,3.406-6.133c0.923-1.06,2.003-1.574,3.305-1.574c0.328,0,0.679,0.033,1.042,0.099
		c1.484,0.264,2.417,1.24,2.847,2.985l1.007,4.107c1.371,5.597,2.743,11.191,4.08,16.796c1.566,6.572,3.216,13.617,5.347,22.844
		c0.446,1.95,0.843,3.915,1.264,5.994c0.068,0.34,0.138,0.684,0.208,1.031c0.479-1.178,0.948-2.339,1.411-3.486
		c1.293-3.205,2.514-6.232,3.833-9.269c4.629-10.607,10.658-22.788,20.28-32.704l0.592-0.61c2.57-2.654,4.601-4.75,9.198-6.888
		c3.688-1.717,7.754-2.624,11.757-2.624c1.885,0,3.746,0.204,5.531,0.607c5.897,1.332,11.317,3.258,16.57,5.888
		c4.914,2.449,9.972,5.587,15.462,9.593c8.066,5.89,13.707,11.694,18.239,16.358l0.269,0.275c0.693-1.016,1.66-1.623,2.883-1.809
		c0.184-0.021,0.342-0.03,0.495-0.03c1.771,0,2.756,1.199,3.613,2.429l0.07,0.101l0.016,0.122c0.444,3.461,0.743,6.848-0.459,10.215
		c-0.473,1.32-1.639,2.076-3.199,2.077c-0.895,0-1.91-0.253-2.936-0.731l-0.122-0.057l-0.077-0.11
		c-6.975-9.993-15.812-18.73-26.264-25.967c-8.582-5.938-16.292-9.647-24.263-11.677l-0.393-0.1
		c-1.598-0.411-3.106-0.798-5.089-0.798c-1.742,0-3.736,0.304-6.096,0.93c-5.136,1.361-8.925,5.086-11.2,7.971
		c-10.604,13.451-15.442,24.223-17.265,28.277l-0.292,0.655c-2.742,6.308-5.209,13.353-7.011,18.496
		c-1.727,4.931-2.653,7.538-3.219,8.289c-0.978,1.084-2.172,1.219-3.105,1.219c-0.335,0-0.675-0.019-1.015-0.037l-0.347-0.019
		c-1.107-0.046-1.704-0.575-1.929-1.718l-0.782-3.766c-1.545-7.439-3.142-15.133-4.846-22.669
		c-1.592-7.025-3.329-14.146-5.009-21.033l-1.071-4.397c-0.098-0.408-0.168-0.823-0.238-1.241c-0.164-0.98-0.321-1.917-0.839-2.768
		c-1.71,3.451-3.081,7.032-4.409,10.503c-0.361,0.944-0.723,1.889-1.09,2.83c-0.882,2.255-1.772,4.507-2.663,6.758
		c-2.46,6.218-5.004,12.647-7.289,19.036c-2.011,5.611-4.209,11.249-6.335,16.702c-1.089,2.791-2.178,5.582-3.247,8.383
		c-0.468,1.238-0.991,2.625-2.663,3.133c-0.574,0.177-1.125,0.267-1.636,0.267c-1.802,0-3.049-1.076-3.512-3.03
		c-0.651-2.782-1.012-5.028-1.134-7.07c-1.042-17.754-1.213-35.246-1.308-53.097c-0.016-2.012-0.138-4.063-0.256-6.049
		c-0.049-0.818-0.098-1.637-0.14-2.456c-0.053,0.069-0.108,0.186-0.188,0.377c-0.041,0.099-0.082,0.196-0.128,0.289
		c-5.865,11.871-12.514,25.327-20.533,37.825c-2.83,4.413-5.947,9.047-10.187,12.932c-1.579,1.441-3.483,3.012-6.123,3.408
		c-0.519,0.078-1.031,0.118-1.523,0.118c-2.981,0-5.456-1.393-7.563-4.257c-3.196-4.305-4.906-9.292-6.517-14.451
		c-2.54-8.167-4.516-16.835-5.872-25.765c-0.073-0.463-0.22-0.926-0.409-1.467c-0.24,1.032-0.475,2.05-0.707,3.055
		c-0.785,3.392-1.538,6.648-2.332,9.898c-0.501,2.066-0.995,4.135-1.487,6.202c-1.165,4.888-2.37,9.941-3.683,14.888
		c-0.344,1.302-0.671,2.606-0.998,3.91c-0.865,3.45-1.759,7.018-2.963,10.454l-0.313,0.91c-0.586,1.716-1.193,3.489-2.184,5.1
		c-0.97,1.578-2.426,2.483-3.994,2.483c-1.402,0-2.744-0.719-3.78-2.025c-2.339-2.96-3.671-6.475-4.469-8.861
		c-1.544-4.595-3.028-9.293-4.464-13.837c-1.296-4.104-2.637-8.346-4.017-12.499c-1.116-3.36-2.167-6.798-3.184-10.122
		c-1.997-6.529-4.062-13.281-6.705-19.721c-0.153-0.375-0.275-0.759-0.4-1.151c-0.204-0.641-0.413-1.298-0.781-1.941
		c-1.623,2.995-2.542,6.177-3.433,9.262l-0.087,0.302c-1.572,5.462-3.012,11.061-4.405,16.476
		c-2.049,7.964-4.168,16.199-6.75,24.181c-1.291,3.994-2.942,7.712-4.908,11.05c-1.438,2.437-3.344,3.827-5.666,4.133
		c-0.36,0.049-0.72,0.074-1.068,0.074c-2.943,0-5.241-1.716-6.644-4.961c-2.665-6.138-3.795-12.649-4.725-18.792
		c-0.195-1.3-0.421-2.483-0.834-3.825c-1.042,1.559-1.974,2.955-2.906,4.353c-5.25,7.795-11.942,16.66-21.784,23.332
		c-4.281,2.906-9.507,4.508-14.715,4.508c-5.216,0-10.062-1.528-14.011-4.421c-2.435-1.79-4.252-4.263-5.402-7.348
		c-0.393-1.07-0.585-1.231-1.043-1.231c-0.259,0-0.61,0.065-1.074,0.201c-9.222,2.67-16.936,4.791-25.249,5.792
		c-0.602,0.077-0.99,0.236-1.151,0.474c-0.169,0.25-0.166,0.686,0.011,1.37c0.917,3.587,1.798,7.179,2.679,10.771l1.166,4.74
		c0.382,1.526,0.224,2.794-0.457,3.667C64.846,165.84,63.974,166.221,62.886,166.221z M145.655,111.79
		c-13.255,8.727-28.799,16.328-47.521,23.239c-0.729,0.268-1.175,0.601-1.328,0.989c-0.159,0.407-0.042,0.974,0.371,1.781
		c1.232,2.433,3.086,4.194,5.512,5.237c2.525,1.082,5.052,1.631,7.508,1.631c0,0,0,0,0.001,0c4.542,0,8.997-1.816,13.618-5.555
		c7.817-6.337,13.507-14.246,18.041-21.148c0.335-0.511,0.686-1.015,1.039-1.521C143.901,114.998,144.936,113.511,145.655,111.79z
		 M47.505,101.296c-0.13,0-0.404,0.071-0.976,0.409l-3.054,1.803c-5.588,3.296-11.368,6.705-16.834,10.37l-0.67,0.45
		c-4.938,3.315-10.044,6.743-13.942,11.332c-1.543,1.817-2.185,3.858-1.808,5.747c0.38,1.906,1.776,3.563,3.929,4.664
		c1.501,0.767,2.922,1.334,4.343,1.733c6.347,1.796,12.809,1.963,20.292,2.157l1.038,0.026c0.845-0.048,1.796-0.108,2.796-0.172
		c2.846-0.18,6.072-0.384,9.31-0.425c0.777-0.012,1.283-0.153,1.502-0.419c0.205-0.248,0.241-0.695,0.114-1.409
		c-0.212-1.171-0.44-2.342-0.667-3.514c-0.385-1.983-0.783-4.035-1.102-6.067c-1.551-9.859-2.781-17.991-3.87-25.593
		C47.835,101.89,47.708,101.296,47.505,101.296z M96.516,128.521c0.011,0,0.041,0.006,0.094,0.006c0.137,0,0.404-0.039,0.898-0.228
		c18.629-7.144,33.094-14.384,45.521-22.784c3.583-2.418,8.015-5.832,10.511-10.809c0.964-1.924,1.887-4.584,0.806-6.337
		c-0.825-1.337-2.73-2.014-5.662-2.014c-0.193,0-0.391,0.003-0.594,0.009c-0.205-0.007-0.379-0.01-0.552-0.01
		c-2.421,0-5.047,0.571-8.029,1.745c-13.521,5.347-24.104,12.256-32.352,21.122c-5.703,6.138-9.053,11.957-10.545,18.313
		c-0.174,0.742-0.118,0.942-0.097,0.986C96.514,128.521,96.515,128.521,96.516,128.521z"/>
	<path d="M309.887,2.279c1.089,0,2.172,0.354,3.24,1.063c1.379,0.933,2.711,1.947,3.701,3.292c0.91,1.225,1.041,2.529-0.166,3.604
		c-0.622,0.556-1.286,0.828-1.965,0.828c-0.659,0-1.332-0.257-1.992-0.76c-1.489-1.126-2.228-1.687-2.995-1.687
		c-0.743,0-1.515,0.523-3.022,1.564c-10.709,7.39-20.742,15.545-30.475,24.09c-6.787,5.966-13.438,12.073-20.045,18.237
		c-0.52,0.484-1.545,0.932-1.273,1.664c0.224,0.608,0.917,0.68,1.566,0.68c0.197,0,0.392-0.007,0.566-0.007
		c0.034,0,0.067,0,0.1,0.001c1.194,0.019,2.389,0.03,3.584,0.03c2.258,0,4.515-0.04,6.768-0.144
		c0.172-0.007,0.339-0.011,0.499-0.011c2.119,0,3.209,0.673,3.354,2.388c0.176,2.081-0.768,3.063-3.381,3.146
		c-2.46,0.076-4.924,0.119-7.385,0.119c-3.526,0-7.051-0.088-10.566-0.295c-0.168-0.01-0.33-0.016-0.487-0.016
		c-0.771,0-1.417,0.149-2.03,0.736c-4.602,4.422-9.219,8.824-13.707,13.115c0.277,1.07,0.965,0.798,1.402,0.949
		c1.986,0.663,2.816,1.768,3.123,3.984c1.15,8.345,2.438,16.673,4.256,24.909c1.719,7.772,3.555,15.518,6.662,22.922
		c0.977,2.33,2.131,4.55,3.857,6.465c0.561,0.62,1.101,0.907,1.67,0.907c0.524,0,1.074-0.244,1.688-0.693
		c3.928-2.876,6.695-6.712,9.26-10.631c8.959-13.67,16.449-28.098,23.252-42.866c1.143-2.491,2.424-4.933,3.756-7.341
		c0.713-1.29,1.665-2.396,3.257-2.396c0.23,0,0.474,0.023,0.731,0.072c2.021,0.379,2.221,1.8,2.412,3.49
		c1.158,10.111,0.645,20.253,0.795,30.392c0.188,12.8,0.58,25.601,1.129,38.589c1.109-0.543,1.24-1.604,1.52-2.346
		c3.125-8.231,6.379-16.425,9.123-24.771c3.486-10.604,8.105-20.785,12.186-31.163c0.816-2.096,1.77-4.206,3.318-5.989
		c0.851-0.978,1.806-1.402,2.927-1.402c0.305,0,0.622,0.031,0.952,0.091c1.498,0.266,2.135,1.329,2.451,2.612
		c1.705,6.967,3.422,13.926,5.086,20.9c1.813,7.604,3.586,15.222,5.346,22.84c0.627,2.741,1.154,5.498,1.799,8.626
		c2.051-4.988,3.863-9.667,5.863-14.269c5.133-11.763,11.01-23.104,20.18-32.555c2.852-2.928,4.785-5.134,9.643-7.393
		c3.39-1.578,7.397-2.577,11.545-2.577c1.794,0,3.614,0.187,5.422,0.595c5.76,1.301,11.225,3.228,16.457,5.848
		c5.447,2.715,10.518,5.995,15.391,9.55c8.477,6.188,14.369,12.393,18.899,17.047c0.611-1.196,1.551-1.933,2.861-2.132
		c0.146-0.017,0.285-0.024,0.42-0.024c1.546-0.001,2.401,1.065,3.203,2.215c0.43,3.348,0.736,6.706-0.434,9.983
		c-0.414,1.154-1.416,1.745-2.729,1.745c-0.812,0-1.742-0.227-2.725-0.685c-7.149-10.243-15.997-18.896-26.39-26.092
		c-7.482-5.177-15.471-9.471-24.424-11.75c-1.788-0.456-3.397-0.914-5.604-0.914c-1.639,0-3.607,0.252-6.224,0.946
		c-5.412,1.435-9.27,5.361-11.465,8.145c-11.27,14.295-15.992,25.444-17.631,29.055l0.008-0.012
		c-4.994,11.49-8.959,25.074-10.17,26.684c-0.77,0.851-1.716,1.02-2.706,1.02c-0.44,0-0.891-0.033-1.337-0.055
		c-0.895-0.037-1.283-0.403-1.463-1.315c-1.838-8.832-3.643-17.656-5.631-26.448c-1.926-8.5-4.021-16.965-6.082-25.438
		c-0.383-1.605-0.33-3.364-1.645-4.838c-2.367,4.616-4.043,9.388-5.883,14.099c-3.357,8.591-6.855,17.135-9.957,25.808
		c-3.02,8.427-6.385,16.712-9.578,25.074c-0.445,1.179-0.898,2.395-2.342,2.833c-0.53,0.163-1.03,0.245-1.49,0.245
		c-1.511,0-2.606-0.878-3.025-2.646c-0.537-2.295-0.98-4.64-1.121-6.985c-1.037-17.674-1.213-35.374-1.307-53.069
		c-0.023-3.027-0.281-6.05-0.424-9.087c-0.083-0.013-0.159-0.02-0.229-0.02c-0.688,0-0.783,0.598-1.007,1.048
		c-6.348,12.848-12.734,25.666-20.506,37.778c-2.936,4.578-6.014,9.085-10.104,12.832c-1.664,1.52-3.447,2.921-5.859,3.283
		c-0.502,0.075-0.984,0.112-1.449,0.112c-3.058,0-5.343-1.583-7.16-4.053c-3.203-4.315-4.881-9.305-6.441-14.305
		c-2.617-8.415-4.533-16.988-5.855-25.69c-0.148-0.937-0.559-1.833-0.998-3.188c-1.205,5.155-2.275,9.9-3.43,14.631
		c-1.709,7.032-3.311,14.083-5.168,21.08c-1.268,4.797-2.307,9.637-3.949,14.327c-0.705,2.017-1.318,4.072-2.451,5.913
		c-0.911,1.481-2.225,2.245-3.569,2.245c-1.192,0-2.408-0.601-3.388-1.836c-2.051-2.596-3.359-5.639-4.387-8.709
		c-2.938-8.741-5.57-17.579-8.48-26.336c-3.309-9.96-5.902-20.133-9.9-29.875c-0.494-1.213-0.666-2.555-1.682-3.854
		c-1.961,3.346-2.953,6.883-3.963,10.376c-3.885,13.501-6.818,27.249-11.15,40.641c-1.229,3.803-2.82,7.482-4.863,10.95
		c-1.146,1.942-2.801,3.562-5.301,3.891c-0.342,0.047-0.677,0.07-1.002,0.07c-2.728,0-4.873-1.625-6.185-4.659
		c-2.594-5.974-3.727-12.304-4.689-18.669c-0.229-1.524-0.518-3.024-1.176-4.877c-1.279,1.911-2.377,3.556-3.475,5.202
		c-5.951,8.836-12.578,17.047-21.648,23.195c-4.33,2.939-9.426,4.422-14.435,4.422c-4.926,0-9.768-1.434-13.715-4.324
		c-2.52-1.853-4.18-4.304-5.229-7.119c-0.382-1.041-0.679-1.557-1.512-1.557c-0.316,0-0.709,0.073-1.214,0.222
		c-8.266,2.393-16.566,4.739-25.168,5.775c-1.699,0.216-1.934,1.032-1.564,2.465c1.32,5.161,2.564,10.333,3.844,15.507
		c0.634,2.532-0.38,4.147-2.493,4.147c-0.166,0-0.338-0.01-0.517-0.03c-1.627-0.186-2.088-1.361-2.408-2.604
		c-1.369-5.369-2.82-10.73-3.975-16.146c-0.313-1.473-0.763-1.899-1.888-1.899c-0.24,0-0.51,0.019-0.817,0.052
		c-5.047,0.551-10.097,0.879-15.136,0.879c-6.113,0-12.211-0.482-18.278-1.635c-3.602-0.689-7.15-1.778-10.199-3.842
		c-6.689-4.507-7.555-12.716-2.078-19.046c4.367-5.047,9.898-8.782,15.436-12.471c7.313-4.861,14.871-9.344,22.555-13.641
		c1.281-0.719,1.721-1.504,1.512-3.016c-0.867-6.368-1.563-12.758-2.305-19.138c-0.07-0.591-0.162-1.194-0.09-1.775
		c0.176-1.446,0.805-2.531,2.516-2.673c0.151-0.012,0.298-0.018,0.439-0.018c1.485,0,2.415,0.68,2.604,2.27
		c0.574,4.545,1.125,9.085,1.67,13.646c0.197,1.612,0.426,3.231,0.494,4.849c0.04,0.984,0.253,1.448,0.792,1.448
		c0.286,0,0.665-0.131,1.157-0.384c4.709-2.432,9.486-4.75,14.209-7.156c8.689-4.445,17.703-8.224,26.717-12.003
		c6.152-2.571,12.33-5.11,18.596-7.407c6.563-2.404,13.148-4.804,20.002-6.392c1.707-0.396,3.467-0.734,5.203-0.758
		c0.109-0.001,0.221-0.002,0.334-0.002c1.288,0,2.73,0.16,2.904,2.023c0.172,1.75-0.273,3.273-2.281,3.447
		c-5.641,0.488-10.846,2.427-16.076,4.247c-17.752,6.163-34.924,13.657-51.922,21.543c-5.717,2.648-11.324,5.477-16.955,8.281
		c-1.188,0.598-1.582,1.301-1.406,2.644c1.113,8.429,2.283,16.847,3.791,25.219c0.732,4.076,1.422,8.156,2.043,12.241
		c0.197,1.271,0.542,2.058,1.772,2.058c0.208,0,0.441-0.022,0.704-0.069c8.971-1.607,17.77-3.765,26.4-6.607
		c0.793-0.254,1.404-0.476,1.49-1.393c1.188-12.307,8.191-21.527,17.074-29.66c9.678-8.863,20.973-15.287,33.578-19.378
		c2.677-0.87,5.451-1.509,8.231-1.509c2.475,0,4.956,0.506,7.38,1.806c2.986,1.6,4.465,3.978,4.752,7.318
		c0.506,5.798-2.104,10.314-5.861,14.412c-0.918,0.992-1.125,1.956-0.973,3.217c0.977,8.45,2.328,16.838,4.145,25.15
		c0.5,2.291,1.432,4.515,2.352,6.688c0.36,0.853,0.729,1.268,1.138,1.268c0.396,0,0.829-0.39,1.327-1.151
		c2.461-3.793,3.818-8.041,5.164-12.272c4.205-13.248,6.945-26.889,11.051-40.171c1.047-3.391,2.199-6.759,3.822-9.941
		c0.166-0.333,0.4-0.627,0.617-0.937c1.485-2.176,2.952-3.277,4.365-3.277c1.445,0,2.833,1.151,4.129,3.48
		c2.893,5.219,4.521,10.927,6.332,16.542c4.896,15.2,9.252,30.562,14.938,45.516c0.473,1.226,1.035,2.418,1.891,3.659
		c7.045-21.086,11.613-42.708,15.98-64.531c-2.967,3.025-5.934,6.037-8.891,9.065c-1.209,1.237-2.367,2.506-3.588,3.738
		c-0.861,0.864-2.012,1.323-3.034,1.323c-0.645,0-1.239-0.183-1.675-0.563c-1.258-1.086-1.174-2.974,0.359-4.544
		c6.529-6.646,13.09-13.261,19.643-19.888c1.639-1.647,3.314-3.264,4.953-4.915c0.291-0.294,0.826-0.556,0.588-1.083
		c-0.158-0.337-0.472-0.374-0.793-0.374c-0.088,0-0.176,0.003-0.262,0.003c-0.058,0-0.113-0.001-0.168-0.005
		c-7.947-0.595-15.9-1.098-23.846-1.797c-4.646-0.413-9.271-1.069-13.893-1.749c-1.797-0.271-2.867-1.419-2.553-3.316
		c0.277-1.637,1.314-2.296,2.705-2.296c0.273,0,0.56,0.025,0.857,0.074c11.129,1.79,22.371,2.472,33.602,3.292
		c2.898,0.212,5.799,0.44,8.713,0.552c0.083,0.003,0.164,0.005,0.244,0.005c1.227,0,2.139-0.42,3.002-1.239
		c10.313-9.796,20.713-19.516,31.609-28.696c8.879-7.475,17.934-14.74,27.809-20.997C307.766,2.613,308.828,2.279,309.887,2.279
		 M96.61,129.026c0.258,0,0.609-0.083,1.076-0.26c16.004-6.138,31.477-13.275,45.623-22.838c4.322-2.917,8.311-6.277,10.678-10.999
		c2.378-4.741,2.17-9.074-5.303-9.074c-0.198,0-0.4,0.003-0.609,0.009c-0.179-0.006-0.358-0.01-0.538-0.01
		c-2.777,0-5.568,0.739-8.212,1.78c-12.369,4.891-23.531,11.567-32.535,21.246c-4.994,5.376-8.98,11.359-10.666,18.539
		C95.891,128.407,95.903,129.026,96.61,129.026 M39.811,140.488c3.398-0.188,7.762-0.542,12.125-0.597
		c2-0.031,2.381-0.846,2.102-2.416c-0.578-3.188-1.266-6.367-1.768-9.57c-1.342-8.526-2.646-17.051-3.869-25.587
		c-0.146-1.032-0.375-1.522-0.895-1.522c-0.3,0-0.697,0.163-1.23,0.479c-6.701,3.969-13.453,7.857-19.912,12.188
		c-5.266,3.539-10.598,7.026-14.715,11.874c-3.416,4.023-2.439,8.768,2.275,11.18c1.414,0.722,2.885,1.333,4.436,1.77
		C25.063,140.183,31.953,140.281,39.811,140.488 M146.475,111.027c-0.531,0.16-0.852,0.186-1.076,0.333
		c-14.768,9.725-30.791,17.055-47.438,23.2c-2.115,0.776-1.965,2.024-1.229,3.467c1.24,2.449,3.145,4.345,5.76,5.469
		c2.681,1.149,5.245,1.672,7.705,1.672c5.03,0,9.629-2.185,13.934-5.666c7.398-5.997,13.02-13.462,18.145-21.263
		C143.756,115.986,145.537,113.854,146.475,111.027 M309.887,1.279c-1.249,0-2.498,0.39-3.712,1.158
		c-10.236,6.486-19.468,13.963-27.918,21.077c-10.298,8.676-20.103,17.763-31.654,28.736c-0.722,0.685-1.393,0.964-2.313,0.964
		c-0.065,0-0.133-0.001-0.201-0.004c-2.545-0.097-5.126-0.288-7.621-0.472l-1.062-0.078c-1.248-0.091-2.496-0.18-3.744-0.27
		c-9.794-0.702-19.922-1.428-29.772-3.012c-0.352-0.057-0.695-0.086-1.016-0.086c-2.009,0-3.354,1.141-3.691,3.129
		c-0.188,1.13,0.016,2.14,0.586,2.926c0.601,0.826,1.57,1.361,2.803,1.546c4.674,0.688,9.256,1.339,13.953,1.756
		c5.42,0.477,10.93,0.869,16.258,1.248c2.459,0.175,4.918,0.35,7.376,0.533c-0.767,0.77-1.541,1.533-2.315,2.295
		c-0.807,0.795-1.614,1.59-2.412,2.393l-4.729,4.78c-4.896,4.947-9.957,10.063-14.918,15.112c-1.03,1.055-1.567,2.298-1.516,3.502
		c0.041,0.971,0.473,1.858,1.217,2.5c0.605,0.526,1.411,0.806,2.329,0.806c1.334,0,2.733-0.604,3.742-1.617
		c0.674-0.681,1.327-1.369,1.979-2.059c0.535-0.564,1.07-1.129,1.615-1.687c1.936-1.983,3.876-3.958,5.817-5.935l0.715-0.729
		c-4.038,20.042-8.29,39.674-14.596,59.02c-0.245-0.495-0.475-1.024-0.7-1.608c-4.032-10.604-7.455-21.615-10.766-32.263
		c-1.346-4.33-2.738-8.808-4.153-13.2c-0.234-0.727-0.465-1.454-0.696-2.182c-1.547-4.872-3.146-9.909-5.713-14.539
		c-1.475-2.651-3.158-3.995-5.003-3.995c-1.763,0-3.509,1.25-5.191,3.713l-0.137,0.191c-0.181,0.25-0.386,0.534-0.55,0.863
		c-1.707,3.347-2.875,6.829-3.883,10.092c-1.986,6.426-3.679,13.032-5.316,19.421c-1.751,6.838-3.563,13.908-5.732,20.742
		c-1.303,4.096-2.649,8.331-5.05,12.031c-0.19,0.291-0.335,0.467-0.436,0.571c-0.068-0.107-0.16-0.275-0.269-0.533
		c-0.846-1.998-1.805-4.264-2.295-6.511c-1.737-7.947-3.125-16.376-4.128-25.053c-0.13-1.08,0.057-1.712,0.713-2.423
		c4.705-5.129,6.592-9.81,6.124-15.178c-0.32-3.729-2.046-6.382-5.276-8.112c-2.416-1.295-4.984-1.924-7.853-1.924
		c-2.556,0-5.27,0.495-8.54,1.558c-12.901,4.188-24.321,10.779-33.944,19.592c-10.978,10.051-16.342,19.396-17.394,30.302
		c-0.022,0.239-0.027,0.288-0.8,0.536c-8.255,2.719-17.092,4.931-26.271,6.575c-0.199,0.035-0.377,0.054-0.528,0.054
		c-0.397,0-0.597,0-0.784-1.211c-0.581-3.817-1.25-7.83-2.047-12.265c-1.429-7.935-2.546-15.802-3.784-25.173
		c-0.118-0.903,0.043-1.206,0.865-1.619l2.195-1.095c4.804-2.396,9.771-4.875,14.73-7.173c14.003-6.497,32.549-14.812,51.83-21.506
		l1.155-0.403c4.709-1.647,9.579-3.351,14.68-3.792c1.04-0.09,1.852-0.479,2.415-1.156c0.657-0.792,0.918-1.93,0.775-3.385
		c-0.273-2.925-3.003-2.925-3.899-2.925l-0.347,0.002c-1.904,0.026-3.806,0.411-5.416,0.784c-7.014,1.625-13.677,4.066-20.121,6.427
		c-6.571,2.409-13.065,5.095-18.637,7.423c-8.904,3.733-18.074,7.579-26.787,12.036c-2.063,1.051-4.137,2.085-6.212,3.12
		c-2.628,1.312-5.345,2.667-8,4.037c-0.2,0.103-0.348,0.167-0.455,0.207c-0.015-0.1-0.028-0.237-0.036-0.423
		c-0.059-1.402-0.235-2.804-0.405-4.159l-0.096-0.771c-0.652-5.454-1.167-9.665-1.67-13.65c-0.241-2.025-1.518-3.145-3.596-3.145
		c-0.167,0-0.34,0.007-0.519,0.021c-1.382,0.114-3.097,0.823-3.428,3.549c-0.079,0.637-0.002,1.267,0.066,1.823l0.023,0.191
		c0.16,1.376,0.318,2.756,0.477,4.136c0.565,4.925,1.149,10.017,1.831,15.019c0.148,1.076-0.05,1.47-1.01,2.009
		c-8.649,4.837-16.049,9.312-22.619,13.68c-5.193,3.46-11.078,7.38-15.638,12.649c-2.92,3.375-4.243,7.379-3.724,11.274
		c0.492,3.692,2.623,6.979,6,9.255c2.77,1.875,6.129,3.145,10.57,3.995c5.855,1.112,11.896,1.652,18.466,1.652
		c4.804,0,9.79-0.289,15.244-0.885c0.291-0.031,0.523-0.046,0.708-0.046c0.545,0,0.675,0,0.91,1.106
		c0.913,4.284,2.026,8.593,3.102,12.759c0.295,1.143,0.59,2.284,0.881,3.427c0.257,0.998,0.792,3.068,3.264,3.35
		c0.216,0.024,0.427,0.037,0.63,0.037c1.576,0,2.456-0.703,2.916-1.293c0.543-0.696,1.079-1.972,0.547-4.098
		c-0.39-1.577-0.777-3.156-1.165-4.735c-0.867-3.533-1.762-7.187-2.681-10.776c-0.197-0.766-0.094-0.948-0.081-0.967
		c0.004-0.007,0.124-0.172,0.803-0.258c8.344-1.005,16.078-3.132,25.32-5.807c0.415-0.122,0.729-0.184,0.936-0.183
		c0.157,0,0.243,0,0.574,0.901c1.186,3.183,3.061,5.731,5.575,7.58c4.037,2.956,8.984,4.519,14.308,4.519
		c5.307,0,10.632-1.632,14.997-4.595c9.912-6.719,16.641-15.631,21.917-23.464c0.75-1.125,1.499-2.247,2.304-3.453
		c0.232,0.914,0.388,1.786,0.528,2.718c0.934,6.177,2.071,12.725,4.761,18.919c1.467,3.392,3.989,5.261,7.103,5.261
		c0.371,0,0.753-0.027,1.138-0.079c2.477-0.326,4.506-1.798,6.026-4.374c1.985-3.369,3.652-7.121,4.954-11.15
		c2.586-7.995,4.707-16.238,6.758-24.209c1.393-5.411,2.832-11.007,4.402-16.463l0.087-0.301c0.795-2.752,1.612-5.582,2.932-8.269
		c0.12,0.314,0.222,0.634,0.326,0.961c0.124,0.388,0.251,0.789,0.413,1.187c2.635,6.421,4.697,13.161,6.69,19.68
		c1.018,3.327,2.07,6.768,3.188,10.133c1.379,4.15,2.719,8.392,4.015,12.492c1.436,4.546,2.921,9.247,4.467,13.847
		c0.81,2.421,2.163,5.989,4.55,9.011c1.134,1.43,2.616,2.216,4.173,2.216c1.746,0,3.357-0.992,4.421-2.722
		c1.02-1.658,1.636-3.458,2.231-5.199c0.103-0.303,0.207-0.605,0.312-0.907c1.211-3.458,2.108-7.037,2.976-10.497
		c0.327-1.303,0.653-2.605,0.997-3.904c1.314-4.952,2.52-10.009,3.686-14.899c0.493-2.067,0.985-4.135,1.487-6.2
		c0.794-3.253,1.541-6.484,2.332-9.904c0.077-0.332,0.154-0.665,0.231-0.999c1.356,8.729,3.305,17.21,5.793,25.211
		c1.624,5.203,3.35,10.234,6.594,14.604c2.205,2.998,4.811,4.457,7.963,4.457c0.518,0,1.056-0.042,1.599-0.123
		c2.777-0.418,4.752-2.043,6.384-3.534c4.285-3.926,7.424-8.59,10.271-13.03c7.797-12.151,14.294-25.194,20.037-36.815
		c0.011,0.18,0.021,0.359,0.032,0.54c0.117,1.979,0.239,4.023,0.255,6.023c0.095,17.854,0.266,35.355,1.309,53.12
		c0.124,2.072,0.488,4.346,1.146,7.154c0.515,2.173,1.973,3.418,3.999,3.418c0.56,0,1.16-0.098,1.784-0.289
		c1.904-0.579,2.499-2.153,2.977-3.419c1.074-2.813,2.163-5.603,3.251-8.393c2.127-5.456,4.327-11.098,6.34-16.715
		c2.282-6.382,4.824-12.807,7.283-19.021c0.892-2.252,1.782-4.505,2.664-6.76c0.368-0.943,0.729-1.888,1.092-2.834
		c1.201-3.14,2.438-6.37,3.927-9.505c0.167,0.52,0.261,1.076,0.36,1.674c0.07,0.415,0.143,0.845,0.244,1.272l1.072,4.401
		c1.68,6.885,3.416,14.004,5.007,21.025c1.703,7.532,3.3,15.223,4.844,22.66l0.784,3.771c0.268,1.36,1.054,2.055,2.4,2.11
		l0.336,0.018c0.349,0.02,0.698,0.038,1.042,0.038c1.037,0,2.367-0.153,3.448-1.349l0.03-0.034l0.026-0.035
		c0.611-0.812,1.499-3.308,3.292-8.425c1.799-5.137,4.262-12.171,6.996-18.462l-0.002-0.001l0.292-0.648
		c1.814-4.04,6.636-14.771,17.201-28.173c2.228-2.825,5.934-6.472,10.936-7.797c2.317-0.614,4.269-0.913,5.968-0.913
		c1.919,0,3.331,0.363,4.965,0.783l0.393,0.101c7.912,2.014,15.571,5.701,24.102,11.604c10.403,7.203,19.198,15.897,26.139,25.842
		l0.154,0.221l0.243,0.113c1.107,0.517,2.166,0.778,3.147,0.778c1.784,0,3.121-0.878,3.67-2.407
		c1.24-3.474,0.937-6.925,0.484-10.448l-0.031-0.244l-0.141-0.201c-0.689-0.988-1.844-2.643-4.023-2.643
		c-0.172,0-0.35,0.01-0.535,0.031c-1.17,0.177-2.144,0.705-2.884,1.549c-4.523-4.654-10.148-10.421-18.172-16.278
		c-5.514-4.023-10.595-7.175-15.534-9.638c-5.288-2.648-10.745-4.587-16.683-5.928c-1.822-0.411-3.72-0.619-5.643-0.619
		c-4.074,0-8.213,0.923-11.967,2.67c-4.682,2.177-6.74,4.303-9.347,6.994l-0.591,0.608c-9.679,9.974-15.733,22.205-20.38,32.852
		c-1.322,3.044-2.545,6.074-3.839,9.282c-0.26,0.645-0.521,1.294-0.786,1.947c-0.377-1.863-0.741-3.642-1.146-5.409
		c-2.132-9.229-3.781-16.275-5.348-22.849c-1.338-5.605-2.731-11.295-4.08-16.796l-1.007-4.11c-0.477-1.932-1.569-3.062-3.248-3.359
		c-0.389-0.07-0.769-0.106-1.127-0.106c-1.455,0-2.659,0.571-3.681,1.745c-1.672,1.925-2.668,4.157-3.496,6.283
		c-1.309,3.329-2.699,6.7-4.043,9.959c-2.844,6.896-5.785,14.027-8.161,21.254c-2.183,6.64-4.736,13.304-7.205,19.748
		c-0.544,1.419-1.088,2.837-1.628,4.257c-0.5-12.43-0.824-23.971-0.988-35.18c-0.043-2.873-0.031-5.799-0.021-8.629
		c0.026-7.161,0.055-14.567-0.781-21.862c-0.183-1.619-0.435-3.837-3.221-4.359c-0.312-0.059-0.62-0.089-0.916-0.089
		c-2.521,0-3.733,2.192-4.132,2.912c-1.566,2.832-2.771,5.186-3.79,7.408c-7.791,16.914-15.156,30.493-23.179,42.735
		c-2.293,3.504-5.069,7.483-9.015,10.372c-0.453,0.332-0.821,0.5-1.097,0.5c-0.101,0-0.406,0-0.928-0.578
		c-1.8-1.995-2.911-4.352-3.678-6.181c-3.078-7.335-4.882-14.947-6.607-22.751c-1.921-8.7-3.223-17.434-4.242-24.83
		c-0.363-2.628-1.463-4.017-3.797-4.796c-0.071-0.024-0.143-0.043-0.212-0.058l2.64-2.522c3.387-3.235,6.824-6.52,10.254-9.815
		c0.352-0.337,0.702-0.457,1.337-0.457c0.139,0,0.281,0.006,0.429,0.015c3.396,0.199,6.872,0.296,10.625,0.296
		c2.352,0,4.847-0.041,7.416-0.12c1.705-0.054,2.837-0.458,3.562-1.271c0.636-0.713,0.893-1.681,0.784-2.958
		c-0.186-2.193-1.649-3.304-4.351-3.304c-0.175,0-0.355,0.004-0.543,0.012c-2.088,0.096-4.287,0.143-6.724,0.143
		c-1.189,0-2.379-0.011-3.568-0.03l-0.115-0.001l-0.283,0.003l-0.283,0.003c-0.158,0-0.279-0.006-0.373-0.015
		c0.077-0.06,0.157-0.119,0.22-0.165c0.183-0.134,0.371-0.273,0.542-0.433c7.921-7.389,14.096-13.007,20.023-18.218
		c11.082-9.729,20.736-17.361,30.383-24.018c1.166-0.806,2.01-1.388,2.454-1.388c0.429,0,1.16,0.553,2.372,1.469
		c0.857,0.653,1.731,0.977,2.615,0.977c0.93,0,1.839-0.375,2.632-1.083c1.498-1.335,1.611-3.185,0.302-4.947
		c-1.104-1.499-2.548-2.58-3.943-3.523C312.45,1.692,311.174,1.279,309.887,1.279L309.887,1.279z M97.036,127.935
		c0.015-0.081,0.035-0.176,0.061-0.286c1.471-6.268,4.784-12.015,10.425-18.087c8.195-8.81,18.718-15.679,32.17-20.997
		c2.921-1.15,5.487-1.71,7.845-1.71c0.167,0,0.335,0.003,0.502,0.009l0.032,0.002l0.033-0.001c0.198-0.006,0.391-0.009,0.579-0.009
		c1.889,0,4.331,0.308,5.236,1.776c0.961,1.557,0.081,4.04-0.827,5.85c-2.443,4.873-6.811,8.234-10.343,10.618
		c-12.395,8.379-26.828,15.603-45.421,22.733C97.215,127.876,97.118,127.909,97.036,127.935L97.036,127.935z M39.796,139.487
		l-0.996-0.025c-7.449-0.193-13.882-0.359-20.168-2.138c-1.391-0.392-2.781-0.947-4.253-1.698c-2.014-1.03-3.316-2.563-3.666-4.316
		c-0.346-1.736,0.257-3.628,1.698-5.325c3.853-4.536,8.93-7.945,13.84-11.241l0.67-0.45c5.454-3.657,11.227-7.062,16.81-10.354
		c1.019-0.601,2.037-1.201,3.055-1.804c0.232-0.138,0.397-0.22,0.511-0.268c0.034,0.122,0.074,0.31,0.114,0.592
		c1.089,7.605,2.319,15.74,3.872,25.602c0.32,2.041,0.719,4.097,1.105,6.084c0.227,1.17,0.454,2.339,0.667,3.51
		c0.138,0.775,0.018,0.97-0.008,1.001c-0.019,0.022-0.209,0.222-1.125,0.236c-3.247,0.041-6.479,0.245-9.332,0.426
		C41.605,139.38,40.669,139.439,39.796,139.487L39.796,139.487z M110.197,144.168c-2.388,0-4.848-0.535-7.311-1.591
		c-2.314-0.995-4.085-2.678-5.262-5.002c-0.335-0.655-0.453-1.117-0.352-1.374c0.095-0.243,0.462-0.492,1.033-0.702
		c18.046-6.662,33.146-13.965,46.098-22.298c-0.583,1.038-1.257,2.007-1.918,2.957c-0.355,0.511-0.708,1.019-1.046,1.532
		c-4.513,6.87-10.174,14.741-17.938,21.035C118.973,142.388,114.621,144.168,110.197,144.168L110.197,144.168z"/>
</g>
</svg>
