<?xml version="1.0" encoding="utf-8"?>
<!-- Generator: Adobe Illustrator 16.0.0, SVG Export Plug-In . SVG Version: 6.00 Build 0)  -->
<!DOCTYPE svg PUBLIC "-//W3C//DTD SVG 1.1//EN" "http://www.w3.org/Graphics/SVG/1.1/DTD/svg11.dtd">
<svg version="1.1" id="레이어_1" xmlns="http://www.w3.org/2000/svg" xmlns:xlink="http://www.w3.org/1999/xlink" x="0px"
	 y="0px" width="105px" height="16px" viewBox="0 0 105 16" enable-background="new 0 0 105 16" xml:space="preserve">
<path fill="#666666" d="M14.8,14.119c-2.676,0.24-4.896,0.36-6.66,0.36c-1.176,0-2.04-0.276-2.592-0.828S4.72,12.235,4.72,11.059
	V5.299c0-1.26,0.285-2.175,0.855-2.745C6.145,1.984,7.06,1.699,8.32,1.699H14.8v2.52H9.04c-0.72,0-1.08,0.36-1.08,1.08v5.759
	c0,0.277,0.081,0.496,0.243,0.658s0.369,0.242,0.621,0.242s0.527-0.002,0.828-0.009c0.3-0.006,0.611-0.015,0.936-0.026
	s0.651-0.024,0.981-0.037c0.329-0.012,0.756-0.035,1.277-0.071c0.522-0.036,1.173-0.078,1.953-0.126V14.119z"/>
<path fill="#666666" d="M27.58,10.879c0,1.26-0.285,2.176-0.854,2.746c-0.57,0.569-1.485,0.854-2.745,0.854h-4.5
	c-1.261,0-2.176-0.285-2.745-0.854c-0.57-0.57-0.855-1.486-0.855-2.746v-5.76c0-1.26,0.285-2.175,0.855-2.745
	c0.569-0.57,1.484-0.855,2.745-0.855h4.5c1.26,0,2.175,0.285,2.745,0.855c0.569,0.57,0.854,1.485,0.854,2.745V10.879z M24.34,5.119
	c0-0.72-0.359-1.08-1.08-1.08H20.2c-0.72,0-1.08,0.36-1.08,1.08v5.76c0,0.721,0.36,1.08,1.08,1.08h3.06
	c0.721,0,1.08-0.359,1.08-1.08V5.119z"/>
<path fill="#666666" d="M32.62,11.779h6.569v2.52h-9.81v-12.6h3.24V11.779z"/>
<path fill="#666666" d="M51.79,10.879c0,1.26-0.285,2.176-0.854,2.746c-0.57,0.569-1.485,0.854-2.745,0.854h-4.5
	c-1.261,0-2.176-0.285-2.745-0.854c-0.57-0.57-0.855-1.486-0.855-2.746v-5.76c0-1.26,0.285-2.175,0.855-2.745
	c0.569-0.57,1.484-0.855,2.745-0.855h4.5c1.26,0,2.175,0.285,2.745,0.855c0.569,0.57,0.854,1.485,0.854,2.745V10.879z M48.55,5.119
	c0-0.72-0.359-1.08-1.08-1.08h-3.06c-0.72,0-1.08,0.36-1.08,1.08v5.76c0,0.721,0.36,1.08,1.08,1.08h3.06
	c0.721,0,1.08-0.359,1.08-1.08V5.119z"/>
<path fill="#666666" d="M64.39,7.279l-2.52,4.5H59.35l-2.52-4.5v7.02h-3.24v-12.6h3.42l3.6,6.66l3.601-6.66h3.42v12.6h-3.24V7.279z"
	/>
<path fill="#666666" d="M69.789,1.699h7.2c1.176,0,2.04,0.267,2.592,0.801c0.552,0.534,0.828,1.347,0.828,2.439
	c0,0.72-0.156,1.305-0.468,1.755c-0.313,0.45-0.696,0.765-1.152,0.945c0.972,0.264,1.632,0.912,1.979,1.945
	c0.12,0.371,0.181,0.803,0.181,1.295c0,1.177-0.276,2.041-0.828,2.592c-0.552,0.553-1.416,0.828-2.592,0.828h-7.74V1.699z
	 M77.169,5.299c0-0.72-0.36-1.08-1.08-1.08h-3.06v2.52h3.06c0.72,0,1.08-0.36,1.08-1.08V5.299z M77.709,10.34
	c0-0.721-0.36-1.08-1.08-1.08h-3.6v2.52h3.6c0.72,0,1.08-0.359,1.08-1.08V10.34z"/>
<path fill="#666666" d="M88.509,14.299h-6.479v-2.52h1.62v-7.56h-1.62v-2.52h6.479v2.52H86.89v7.56h1.619V14.299z"/>
<path fill="#666666" d="M92.379,14.299h-3.51l4.77-12.6h3.601l4.77,12.6h-3.51l-0.811-2.25h-4.5L92.379,14.299z M93.999,9.709h2.88
	l-1.44-4.229L93.999,9.709z"/>
</svg>
