<?xml version="1.0" encoding="utf-8"?>
<!-- Generator: Adobe Illustrator 16.0.0, SVG Export Plug-In . SVG Version: 6.00 Build 0)  -->
<!DOCTYPE svg PUBLIC "-//W3C//DTD SVG 1.1//EN" "http://www.w3.org/Graphics/SVG/1.1/DTD/svg11.dtd">
<svg version="1.1" id="레이어_1" xmlns="http://www.w3.org/2000/svg" xmlns:xlink="http://www.w3.org/1999/xlink" x="0px"
	 y="0px" width="122px" height="40px" viewBox="0 0 122 40" enable-background="new 0 0 122 40" xml:space="preserve">
<g>
	<path fill="#111111" d="M13.86,35.568v-8.195h1.112l4.305,6.436v-6.436h1.039v8.195h-1.112L14.9,29.129v6.439H13.86z"/>
	<path fill="#111111" d="M22.562,35.568v-8.195h5.926v0.968h-4.841v2.511h4.533v0.961h-4.533v2.789h5.031v0.967H22.562
		L22.562,35.568z"/>
	<path fill="#111111" d="M32.02,35.568l-2.175-8.195h1.112l1.247,5.372c0.134,0.563,0.249,1.122,0.347,1.678
		c0.208-0.876,0.331-1.381,0.368-1.517l1.561-5.533h1.308l1.174,4.148c0.294,1.027,0.507,1.994,0.638,2.9
		c0.104-0.52,0.24-1.113,0.407-1.783l1.286-5.267h1.09l-2.247,8.194H37.09l-1.728-6.244c-0.146-0.52-0.231-0.842-0.257-0.961
		c-0.086,0.377-0.166,0.697-0.241,0.961l-1.738,6.244H32.02V35.568z"/>
	<path fill="#111111" d="M47.514,35.568v-3.473l-3.159-4.724h1.319l1.616,2.472c0.298,0.463,0.575,0.924,0.832,1.387
		c0.246-0.43,0.545-0.912,0.895-1.449l1.588-2.408h1.264l-3.271,4.725v3.471H47.514L47.514,35.568z"/>
	<path fill="#111111" d="M52.236,31.577c0-1.36,0.365-2.425,1.096-3.195c0.73-0.769,1.673-1.153,2.828-1.153
		c0.757,0,1.438,0.182,2.046,0.543c0.608,0.36,1.07,0.865,1.39,1.512c0.318,0.646,0.478,1.38,0.478,2.199
		c0,0.832-0.168,1.574-0.503,2.23c-0.336,0.655-0.811,1.152-1.426,1.489c-0.614,0.337-1.278,0.506-1.99,0.506
		c-0.771,0-1.461-0.187-2.068-0.56s-1.067-0.881-1.38-1.525C52.393,32.979,52.236,32.296,52.236,31.577z M53.354,31.594
		c0,0.987,0.265,1.766,0.796,2.334c0.531,0.568,1.197,0.854,1.999,0.854c0.815,0,1.487-0.287,2.015-0.861
		c0.527-0.572,0.791-1.389,0.791-2.441c0-0.668-0.112-1.25-0.338-1.748c-0.226-0.496-0.556-0.883-0.989-1.156
		c-0.435-0.273-0.922-0.411-1.462-0.411c-0.768,0-1.429,0.265-1.981,0.791C53.631,29.479,53.354,30.359,53.354,31.594z"/>
	<path fill="#111111" d="M61.898,35.568v-8.195h3.634c0.729,0,1.286,0.074,1.666,0.221c0.38,0.147,0.684,0.407,0.911,0.78
		c0.227,0.373,0.341,0.784,0.341,1.235c0,0.58-0.188,1.07-0.564,1.47s-0.958,0.651-1.743,0.761c0.287,0.139,0.504,0.273,0.653,0.408
		c0.315,0.29,0.617,0.654,0.899,1.09l1.426,2.23h-1.363l-1.085-1.705c-0.315-0.492-0.577-0.868-0.782-1.129
		c-0.205-0.262-0.389-0.443-0.551-0.549c-0.162-0.104-0.326-0.177-0.495-0.217c-0.122-0.027-0.323-0.039-0.604-0.039h-1.259v3.639
		H61.898z M62.982,30.99h2.332c0.496,0,0.884-0.053,1.162-0.154c0.279-0.102,0.491-0.266,0.638-0.49
		c0.146-0.226,0.219-0.472,0.219-0.736c0-0.387-0.142-0.705-0.423-0.955s-0.727-0.375-1.333-0.375h-2.595V30.99z"/>
	<path fill="#111111" d="M70.507,35.568v-8.195h1.084v4.064l4.069-4.064h1.471l-3.438,3.32l3.589,4.875h-1.431l-2.918-4.147
		l-1.343,1.308v2.84H70.507L70.507,35.568z"/>
	<path fill="#111111" d="M87.855,32.695l1.084,0.273c-0.227,0.891-0.635,1.569-1.227,2.037c-0.591,0.469-1.313,0.701-2.166,0.701
		c-0.884,0-1.602-0.18-2.154-0.539c-0.555-0.359-0.976-0.881-1.264-1.563c-0.289-0.684-0.434-1.414-0.434-2.197
		c0-0.854,0.162-1.598,0.488-2.233c0.326-0.635,0.791-1.118,1.393-1.446c0.602-0.33,1.265-0.496,1.986-0.496
		c0.82,0,1.511,0.209,2.068,0.627c0.559,0.418,0.948,1.004,1.168,1.761l-1.066,0.252c-0.19-0.597-0.467-1.03-0.827-1.304
		c-0.361-0.271-0.816-0.407-1.364-0.407c-0.63,0-1.156,0.151-1.579,0.452c-0.423,0.303-0.72,0.707-0.892,1.217
		c-0.172,0.509-0.258,1.033-0.258,1.572c0,0.697,0.103,1.307,0.306,1.826c0.202,0.521,0.519,0.908,0.946,1.166
		c0.429,0.256,0.894,0.385,1.393,0.385c0.607,0,1.122-0.174,1.543-0.524S87.707,33.385,87.855,32.695z"/>
	<path fill="#111111" d="M90.861,35.568v-8.195h1.084v8.195H90.861z"/>
	<path fill="#111111" d="M96.355,35.568V28.34h-2.7v-0.968h6.495v0.968h-2.711v7.229H96.355z"/>
	<path fill="#111111" d="M104.1,35.568v-3.473l-3.158-4.724h1.318l1.616,2.472c0.298,0.463,0.575,0.924,0.832,1.387
		c0.246-0.43,0.545-0.912,0.896-1.449l1.588-2.408h1.264l-3.271,4.725v3.471H104.1L104.1,35.568z"/>
</g>
<g>
	<path fill="#111111" d="M24.75,17.657h-2.361V9.235l-2.708,5.289h-2.078l-2.66-5.305v8.438h-2.346V4.576h2.235l3.857,7.352
		l3.81-7.352h2.251V17.657z"/>
	<path fill="#111111" d="M33.675,16.445c-0.126,0.23-0.286,0.438-0.48,0.622c-0.194,0.183-0.401,0.338-0.622,0.464
		c-0.22,0.126-0.454,0.223-0.7,0.291c-0.247,0.068-0.485,0.103-0.716,0.103c-0.525,0-1.008-0.079-1.448-0.236
		c-0.441-0.157-0.821-0.391-1.142-0.7c-0.321-0.309-0.569-0.692-0.748-1.149c-0.179-0.456-0.268-0.983-0.268-1.582v-6.14h2.409
		v5.966c0,0.314,0.047,0.596,0.142,0.842c0.094,0.247,0.215,0.454,0.361,0.622c0.147,0.168,0.317,0.294,0.512,0.378
		c0.195,0.084,0.396,0.126,0.606,0.126c0.325,0,0.616-0.061,0.874-0.182c0.257-0.12,0.477-0.285,0.661-0.495
		c0.183-0.21,0.322-0.459,0.417-0.748c0.094-0.288,0.142-0.601,0.142-0.937V8.118h2.439v9.539h-2.439V16.445z"/>
	<path fill="#111111" d="M39.074,4.229h2.424v13.428h-2.424V4.229z"/>
	<path fill="#111111" d="M44.977,5.851l2.44-0.771v3.021h2.188v1.89h-2.188v4.564c0,0.294,0.061,0.53,0.181,0.709
		c0.121,0.179,0.281,0.317,0.48,0.417c0.199,0.1,0.425,0.168,0.677,0.205c0.252,0.036,0.509,0.055,0.771,0.055v1.937
		c-0.661,0.073-1.272,0.065-1.834-0.024s-1.042-0.265-1.44-0.527c-0.398-0.262-0.711-0.605-0.937-1.03
		c-0.226-0.426-0.339-0.937-0.339-1.535v-4.77h-1.495v-1.89h1.495L44.977,5.851L44.977,5.851z"/>
	<path fill="#111111" d="M51.242,4.229h2.881v2.503h-2.881V4.229z M51.479,8.118h2.424v9.539h-2.424V8.118z"/>
	<path fill="#111111" d="M61.852,7.882c0.684,0,1.278,0.118,1.787,0.354c0.51,0.235,0.935,0.571,1.275,1.007s0.595,0.96,0.763,1.574
		c0.168,0.614,0.253,1.299,0.253,2.055c0,1.595-0.337,2.807-1.008,3.636c-0.672,0.829-1.695,1.244-3.07,1.244
		c-0.628,0-1.147-0.121-1.558-0.362c-0.41-0.241-0.74-0.557-0.992-0.944v4.88h-2.424V8.118h2.424v1.181
		c0.272-0.441,0.616-0.787,1.031-1.039C60.747,8.008,61.254,7.882,61.852,7.882z M61.411,9.708c-0.566,0-1.047,0.212-1.44,0.638
		c-0.394,0.425-0.616,1.099-0.669,2.022v0.944c0.031,0.378,0.097,0.729,0.197,1.055c0.1,0.325,0.235,0.606,0.409,0.842
		c0.173,0.236,0.383,0.42,0.629,0.552c0.247,0.131,0.538,0.196,0.874,0.196c0.366,0,0.682-0.092,0.944-0.275
		c0.262-0.183,0.479-0.425,0.652-0.724c0.174-0.3,0.303-0.633,0.387-1s0.125-0.74,0.125-1.118c0-0.398-0.037-0.787-0.109-1.164
		c-0.073-0.378-0.194-0.711-0.362-1c-0.168-0.288-0.385-0.521-0.651-0.7C62.127,9.797,61.799,9.708,61.411,9.708z"/>
	<path fill="#111111" d="M68.4,4.229h2.424v13.428H68.4V4.229z"/>
	<path fill="#111111" d="M73.563,4.229h2.881v2.503h-2.881V4.229z M73.8,8.118h2.425v9.539H73.8V8.118z"/>
	<path fill="#111111" d="M87.055,16.508c-0.505,0.504-1.07,0.863-1.701,1.078c-0.629,0.216-1.273,0.323-1.936,0.323
		c-0.725,0-1.391-0.132-2-0.394c-0.607-0.263-1.136-0.617-1.582-1.063c-0.445-0.446-0.792-0.974-1.038-1.582
		c-0.247-0.608-0.37-1.26-0.37-1.952c0-0.756,0.127-1.445,0.379-2.07c0.252-0.624,0.603-1.156,1.055-1.598
		c0.451-0.44,0.986-0.784,1.604-1.031c0.619-0.246,1.291-0.369,2.015-0.369c0.619,0,1.196,0.094,1.731,0.283
		c0.535,0.188,1.093,0.472,1.669,0.85l-1.008,1.543c-0.367-0.241-0.766-0.44-1.196-0.599c-0.431-0.157-0.829-0.235-1.196-0.235
		c-0.366,0-0.707,0.078-1.022,0.235c-0.313,0.158-0.593,0.378-0.834,0.661c-0.241,0.284-0.431,0.625-0.565,1.023
		c-0.138,0.399-0.205,0.84-0.205,1.322c0,0.504,0.08,0.944,0.244,1.322c0.162,0.378,0.369,0.698,0.621,0.96
		c0.252,0.263,0.535,0.46,0.85,0.591c0.315,0.131,0.625,0.196,0.93,0.196c0.179,0,0.37-0.013,0.575-0.039
		c0.204-0.026,0.411-0.076,0.62-0.149c0.211-0.073,0.418-0.173,0.623-0.299s0.4-0.289,0.591-0.488L87.055,16.508z"/>
	<path fill="#111111" d="M88.801,4.229h2.881v2.503h-2.881V4.229z M89.037,8.118h2.424v9.539h-2.424V8.118z"/>
	<path fill="#111111" d="M94.939,5.851l2.439-0.771v3.021h2.188v1.89H97.38v4.564c0,0.294,0.062,0.53,0.181,0.709
		c0.121,0.179,0.281,0.317,0.48,0.417c0.199,0.1,0.425,0.168,0.677,0.205c0.252,0.036,0.509,0.055,0.771,0.055v1.937
		c-0.661,0.073-1.272,0.065-1.834-0.024c-0.563-0.089-1.042-0.265-1.44-0.527c-0.398-0.262-0.711-0.605-0.938-1.03
		c-0.226-0.426-0.338-0.937-0.338-1.535v-4.77h-1.496v-1.89h1.496V5.851z"/>
	<path fill="#111111" d="M100.969,19.216c0.441-0.105,0.832-0.226,1.174-0.362c0.34-0.136,0.638-0.299,0.89-0.488
		c0.252-0.188,0.465-0.411,0.638-0.669c0.173-0.257,0.316-0.554,0.434-0.889l-3.4-8.689h2.566l2.062,5.824l2.047-5.824h2.55
		l-3.085,8.374c-0.179,0.504-0.366,0.947-0.565,1.33c-0.2,0.383-0.42,0.764-0.661,1.142c-0.252,0.378-0.533,0.695-0.843,0.952
		c-0.311,0.257-0.635,0.47-0.977,0.638c-0.342,0.168-0.689,0.305-1.047,0.409s-0.709,0.205-1.055,0.3L100.969,19.216z"/>
</g>
</svg>
