<?xml version="1.0" encoding="utf-8"?>
<!-- Generator: Adobe Illustrator 16.0.0, SVG Export Plug-In . SVG Version: 6.00 Build 0)  -->
<!DOCTYPE svg PUBLIC "-//W3C//DTD SVG 1.1//EN" "http://www.w3.org/Graphics/SVG/1.1/DTD/svg11.dtd">
<svg version="1.1" id="레이어_1" xmlns="http://www.w3.org/2000/svg" xmlns:xlink="http://www.w3.org/1999/xlink" x="0px"
	 y="0px" width="29px" height="16px" viewBox="0 0 29 16" enable-background="new 0 0 29 16" xml:space="preserve">
<path fill="#666666" d="M10.41,1.7h3.24v9.18c0,1.26-0.285,2.175-0.854,2.745c-0.57,0.57-1.485,0.855-2.745,0.855H5.91
	c-1.26,0-2.175-0.285-2.745-0.855c-0.569-0.57-0.854-1.485-0.854-2.745V1.7h3.24v9.18c0,0.72,0.359,1.08,1.08,1.08H9.33
	c0.721,0,1.08-0.36,1.08-1.08V1.7z"/>
<path fill="#666666" d="M19.051,14.3h-3.24V1.7h3.24v4.95h1.62l2.808-4.95h3.42L23.37,7.91l3.511,6.39h-3.42l-2.79-5.13h-1.62V14.3z
	"/>
</svg>
