<?xml version="1.0" encoding="utf-8"?>
<!-- Generator: Adobe Illustrator 16.0.0, SVG Export Plug-In . SVG Version: 6.00 Build 0)  -->
<!DOCTYPE svg PUBLIC "-//W3C//DTD SVG 1.1//EN" "http://www.w3.org/Graphics/SVG/1.1/DTD/svg11.dtd">
<svg version="1.1" id="레이어_1" xmlns="http://www.w3.org/2000/svg" xmlns:xlink="http://www.w3.org/1999/xlink" x="0px"
	 y="0px" width="139px" height="16px" viewBox="0 0 139 16" enable-background="new 0 0 139 16" xml:space="preserve">
<path fill="#666666" d="M13.69,14.3h-3.42L5.951,6.74v7.56h-3.24V1.7h3.42l4.32,7.56V1.7h3.239V14.3z"/>
<path fill="#666666" d="M25.841,14.3h-9.99V1.7h9.99v2.52h-6.75v2.43h5.31v2.52h-5.31v2.609h6.75V14.3z"/>
<path fill="#666666" d="M33.401,14.3h-3.24V4.22h-3.78V1.7h10.801v2.52h-3.78V14.3z"/>
<path fill="#666666" d="M49.42,14.3h-3.239V9.17h-4.5v5.13h-3.24V1.7h3.24v4.95h4.5V1.7h3.239V14.3z"/>
<path fill="#666666" d="M61.571,14.3h-9.99V1.7h9.99v2.52h-6.75v2.43h5.31v2.52h-5.31v2.609h6.75V14.3z"/>
<path fill="#666666" d="M63.011,1.7h7.56c1.261,0,2.175,0.285,2.745,0.855c0.57,0.57,0.855,1.485,0.855,2.745v1.62
	c0,0.996-0.165,1.77-0.495,2.322c-0.33,0.552-0.855,0.918-1.575,1.098l2.25,3.96h-3.51l-2.07-3.78h-2.52v3.78h-3.24V1.7z
	 M70.931,5.3c0-0.72-0.36-1.08-1.08-1.08h-3.6V8h3.6c0.72,0,1.08-0.36,1.08-1.08V5.3z"/>
<path fill="#666666" d="M79.211,11.779h6.569V14.3h-9.81V1.7h3.24V11.779z"/>
<path fill="#666666" d="M89.29,14.3h-3.51l4.77-12.6h3.601l4.77,12.6h-3.51L94.6,12.05h-4.5L89.29,14.3z M90.91,9.71h2.88
	l-1.44-4.23L90.91,9.71z"/>
<path fill="#666666" d="M110.8,14.3h-3.42l-4.319-7.56v7.56h-3.24V1.7h3.42l4.32,7.56V1.7h3.239V14.3z"/>
<path fill="#666666" d="M119.979,1.7c1.356,0,2.386,0.351,3.087,1.053c0.702,0.702,1.054,1.731,1.054,3.087v4.32
	c0,1.355-0.352,2.385-1.054,3.086c-0.701,0.703-1.73,1.054-3.087,1.054h-7.02V1.7H119.979z M120.88,5.84c0-1.08-0.54-1.62-1.62-1.62
	h-3.06v7.56h3.06c1.08,0,1.62-0.539,1.62-1.619V5.84z"/>
<path fill="#666666" d="M125.542,11.689c3.288,0.18,5.514,0.271,6.678,0.271c0.276,0,0.495-0.081,0.657-0.243
	s0.243-0.381,0.243-0.657v-1.62h-4.141c-1.26,0-2.175-0.285-2.745-0.854c-0.569-0.57-0.854-1.485-0.854-2.745V5.3
	c0-1.26,0.285-2.175,0.854-2.745c0.57-0.57,1.485-0.855,2.745-0.855h6.318v2.52H129.7c-0.721,0-1.08,0.36-1.08,1.08v0.36
	c0,0.72,0.359,1.08,1.08,1.08h3.239c1.177,0,2.04,0.276,2.593,0.828c0.552,0.552,0.827,1.416,0.827,2.592v0.899
	c0,1.177-0.275,2.04-0.827,2.593c-0.553,0.552-1.416,0.828-2.593,0.828c-0.611,0-1.26-0.013-1.943-0.037l-1.656-0.072
	c-1.224-0.06-2.49-0.143-3.798-0.252V11.689z"/>
</svg>
