<?xml version="1.0" encoding="utf-8"?>
<!-- Generator: Adobe Illustrator 16.0.0, SVG Export Plug-In . SVG Version: 6.00 Build 0)  -->
<!DOCTYPE svg PUBLIC "-//W3C//DTD SVG 1.1//EN" "http://www.w3.org/Graphics/SVG/1.1/DTD/svg11.dtd">
<svg version="1.1" id="레이어_1" xmlns="http://www.w3.org/2000/svg" xmlns:xlink="http://www.w3.org/1999/xlink" x="0px"
	 y="0px" width="139px" height="16px" viewBox="0 0 139 16" enable-background="new 0 0 139 16" xml:space="preserve">
<path fill="#666666" d="M4.403,11.689c3.288,0.18,5.514,0.271,6.678,0.271c0.276,0,0.495-0.081,0.657-0.243s0.243-0.381,0.243-0.657
	v-1.62H7.841c-1.26,0-2.175-0.285-2.745-0.854C4.526,8.015,4.241,7.1,4.241,5.84V5.3c0-1.26,0.285-2.175,0.854-2.745
	C5.666,1.985,6.581,1.7,7.841,1.7h6.318v2.52H8.562c-0.721,0-1.08,0.36-1.08,1.08v0.36c0,0.72,0.359,1.08,1.08,1.08h3.239
	c1.177,0,2.04,0.276,2.593,0.828c0.552,0.552,0.827,1.416,0.827,2.592v0.899c0,1.177-0.275,2.04-0.827,2.593
	c-0.553,0.552-1.416,0.828-2.593,0.828c-0.611,0-1.26-0.013-1.943-0.037l-1.656-0.072c-1.224-0.06-2.49-0.143-3.798-0.252V11.689z"
	/>
<path fill="#666666" d="M25.48,1.7l2.16,8.1l1.89-8.1h3.511l-3.42,12.6h-3.42l-2.16-7.83l-2.16,7.83h-3.42l-3.42-12.6h3.51l1.89,8.1
	l2.16-8.1H25.48z"/>
<path fill="#666666" d="M39.881,14.3h-6.479v-2.521h1.62V4.22h-1.62V1.7h6.479v2.52h-1.619v7.56h1.619V14.3z"/>
<path fill="#666666" d="M47.621,14.3h-3.24V4.22h-3.78V1.7h10.801v2.52h-3.78V14.3z"/>
<path fill="#666666" d="M62.201,4.22l-6.3,7.56h6.3V14.3h-10.26v-2.521l6.3-7.56h-6.3V1.7h10.26V4.22z"/>
<path fill="#666666" d="M73.631,14.3h-9.99V1.7h9.99v2.52h-6.75v2.43h5.31v2.52h-5.31v2.609h6.75V14.3z"/>
<path fill="#666666" d="M75.07,1.7h7.56c1.261,0,2.175,0.285,2.745,0.855c0.57,0.57,0.855,1.485,0.855,2.745v1.62
	c0,0.996-0.165,1.77-0.495,2.322c-0.33,0.552-0.855,0.918-1.575,1.098l2.25,3.96H82.9l-2.07-3.78h-2.52v3.78h-3.24V1.7z M82.99,5.3
	c0-0.72-0.36-1.08-1.08-1.08h-3.6V8h3.6c0.72,0,1.08-0.36,1.08-1.08V5.3z"/>
<path fill="#666666" d="M91.271,11.779h6.569V14.3h-9.81V1.7h3.24V11.779z"/>
<path fill="#666666" d="M101.351,14.3h-3.51l4.77-12.6h3.601l4.77,12.6h-3.51l-0.811-2.25h-4.5L101.351,14.3z M102.971,9.71h2.88
	l-1.44-4.23L102.971,9.71z"/>
<path fill="#666666" d="M122.859,14.3h-3.42l-4.319-7.56v7.56h-3.24V1.7h3.42l4.32,7.56V1.7h3.239V14.3z"/>
<path fill="#666666" d="M132.039,1.7c1.356,0,2.386,0.351,3.087,1.053c0.702,0.702,1.054,1.731,1.054,3.087v4.32
	c0,1.355-0.352,2.385-1.054,3.086c-0.701,0.703-1.73,1.054-3.087,1.054h-7.02V1.7H132.039z M132.939,5.84
	c0-1.08-0.54-1.62-1.62-1.62h-3.06v7.56h3.06c1.08,0,1.62-0.539,1.62-1.619V5.84z"/>
</svg>
