<?xml version="1.0" encoding="utf-8"?>
<!-- Generator: Adobe Illustrator 16.0.0, SVG Export Plug-In . SVG Version: 6.00 Build 0)  -->
<!DOCTYPE svg PUBLIC "-//W3C//DTD SVG 1.1//EN" "http://www.w3.org/Graphics/SVG/1.1/DTD/svg11.dtd">
<svg version="1.1" id="레이어_1" xmlns="http://www.w3.org/2000/svg" xmlns:xlink="http://www.w3.org/1999/xlink" x="0px"
	 y="0px" width="122px" height="40px" viewBox="0 0 122 40" enable-background="new 0 0 122 40" xml:space="preserve">
<g>
	<path fill="#111111" d="M25.243,32.607l1.084,0.272c-0.227,0.892-0.636,1.57-1.227,2.037c-0.591,0.47-1.313,0.702-2.166,0.702
		c-0.884,0-1.602-0.18-2.155-0.54c-0.554-0.358-0.975-0.88-1.263-1.562c-0.289-0.684-0.434-1.416-0.434-2.197
		c0-0.854,0.163-1.598,0.489-2.233c0.326-0.635,0.79-1.116,1.392-1.446s1.265-0.496,1.987-0.496c0.82,0,1.51,0.209,2.068,0.627
		c0.559,0.418,0.948,1.004,1.168,1.762l-1.067,0.251c-0.19-0.597-0.466-1.03-0.827-1.302c-0.361-0.273-0.816-0.408-1.364-0.408
		c-0.63,0-1.156,0.15-1.579,0.451c-0.423,0.303-0.72,0.707-0.892,1.217c-0.172,0.509-0.257,1.033-0.257,1.574
		c0,0.695,0.102,1.305,0.305,1.824c0.203,0.521,0.519,0.907,0.947,1.166c0.429,0.256,0.893,0.385,1.392,0.385
		c0.607,0,1.122-0.174,1.543-0.524C24.808,33.816,25.094,33.297,25.243,32.607z"/>
	<path fill="#111111" d="M27.746,31.488c0-1.359,0.365-2.424,1.096-3.193c0.731-0.77,1.673-1.154,2.828-1.154
		c0.757,0,1.438,0.18,2.046,0.541c0.607,0.362,1.07,0.866,1.39,1.514c0.318,0.646,0.478,1.38,0.478,2.199
		c0,0.83-0.168,1.574-0.503,2.23c-0.336,0.656-0.811,1.152-1.426,1.488c-0.614,0.338-1.278,0.507-1.99,0.507
		c-0.771,0-1.461-0.187-2.068-0.56s-1.067-0.881-1.38-1.525C27.902,32.891,27.746,32.209,27.746,31.488z M28.864,31.506
		c0,0.988,0.265,1.766,0.796,2.334c0.531,0.568,1.197,0.854,1.999,0.854c0.815,0,1.487-0.287,2.015-0.86
		c0.527-0.574,0.791-1.39,0.791-2.442c0-0.668-0.112-1.25-0.338-1.748c-0.226-0.496-0.556-0.884-0.989-1.156
		c-0.435-0.273-0.922-0.41-1.462-0.41c-0.768,0-1.429,0.264-1.981,0.791C29.141,29.393,28.864,30.271,28.864,31.506z"/>
	<path fill="#111111" d="M37.393,35.48v-8.195h3.092c0.544,0,0.96,0.025,1.246,0.078c0.403,0.066,0.74,0.195,1.013,0.383
		c0.271,0.189,0.49,0.453,0.656,0.791c0.166,0.34,0.249,0.713,0.249,1.119c0,0.695-0.222,1.285-0.665,1.769
		c-0.444,0.483-1.245,0.724-2.404,0.724h-2.102v3.332H37.393L37.393,35.48z M38.478,31.182h2.118c0.701,0,1.198-0.131,1.493-0.391
		c0.294-0.262,0.441-0.629,0.441-1.102c0-0.344-0.087-0.637-0.26-0.881c-0.174-0.244-0.401-0.406-0.685-0.483
		c-0.183-0.048-0.521-0.073-1.012-0.073h-2.097v2.93H38.478z"/>
	<path fill="#111111" d="M45.463,35.48v-8.195h5.926v0.967h-4.841v2.51h4.533v0.963h-4.533v2.789h5.031v0.967H45.463L45.463,35.48z"
		/>
	<path fill="#111111" d="M53.479,35.48v-8.195h1.112l4.305,6.436v-6.436h1.039v8.195h-1.112l-4.304-6.439v6.439H53.479z"/>
	<path fill="#111111" d="M62.203,35.48v-8.195h1.084v3.365h4.26v-3.365h1.085v8.195h-1.085v-3.863h-4.26v3.863H62.203z"/>
	<path fill="#111111" d="M69.949,35.48l3.146-8.195h1.168l3.354,8.195h-1.235l-0.955-2.482h-3.427l-0.899,2.482H69.949z
		 M72.313,32.115h2.778l-0.854-2.27c-0.262-0.689-0.454-1.257-0.581-1.699c-0.104,0.524-0.253,1.047-0.441,1.563L72.313,32.115z"/>
	<path fill="#111111" d="M82.318,32.266v-0.961l3.473-0.006v3.041c-0.533,0.426-1.083,0.744-1.648,0.959
		c-0.566,0.215-1.147,0.321-1.744,0.321c-0.806,0-1.537-0.173-2.193-0.517c-0.658-0.347-1.154-0.845-1.49-1.496
		c-0.335-0.652-0.503-1.381-0.503-2.187c0-0.797,0.167-1.541,0.5-2.231c0.334-0.691,0.813-1.205,1.438-1.541
		c0.627-0.336,1.349-0.504,2.164-0.504c0.593,0,1.129,0.098,1.606,0.289c0.479,0.19,0.854,0.459,1.127,0.803
		c0.271,0.342,0.479,0.789,0.62,1.341l-0.979,0.269c-0.123-0.418-0.275-0.744-0.459-0.984c-0.183-0.237-0.442-0.43-0.781-0.571
		c-0.34-0.144-0.717-0.215-1.131-0.215c-0.494,0-0.924,0.073-1.284,0.226c-0.362,0.151-0.653,0.35-0.875,0.596
		s-0.396,0.518-0.519,0.812c-0.207,0.507-0.313,1.056-0.313,1.649c0,0.729,0.126,1.342,0.377,1.832
		c0.252,0.492,0.618,0.857,1.1,1.097c0.479,0.239,0.99,0.358,1.53,0.358c0.47,0,0.929-0.092,1.376-0.271
		c0.447-0.182,0.786-0.374,1.018-0.578v-1.527h-2.41V32.266z"/>
	<path fill="#111111" d="M87.824,35.48v-8.195h5.926v0.967h-4.841v2.51h4.532v0.963h-4.532v2.789h5.03v0.967H87.824L87.824,35.48z"
		/>
	<path fill="#111111" d="M95.839,35.48v-8.195h1.112l4.305,6.436v-6.436h1.039v8.195h-1.111l-4.305-6.439v6.439H95.839z"/>
</g>
<g>
	<path fill="#111111" d="M32.28,4.349v8.752c0,0.724-0.128,1.367-0.386,1.929c-0.257,0.562-0.613,1.034-1.07,1.417
		c-0.456,0.383-0.991,0.677-1.605,0.881c-0.614,0.205-1.277,0.307-1.991,0.307s-1.383-0.1-2.007-0.299
		c-0.625-0.2-1.168-0.491-1.63-0.874c-0.462-0.383-0.823-0.855-1.086-1.417c-0.263-0.562-0.394-1.204-0.394-1.928V4.349h2.425v8.391
		c0,0.892,0.246,1.592,0.739,2.102c0.493,0.509,1.144,0.763,1.952,0.763c0.798,0,1.44-0.257,1.929-0.771
		c0.487-0.514,0.731-1.217,0.731-2.109V4.349H32.28z"/>
	<path fill="#111111" d="M37.412,9.104c0.263-0.451,0.63-0.811,1.102-1.079c0.473-0.268,0.945-0.401,1.417-0.401
		c0.524,0,1.008,0.079,1.448,0.236c0.44,0.157,0.821,0.391,1.142,0.7c0.319,0.31,0.569,0.693,0.747,1.149
		c0.179,0.457,0.268,0.984,0.268,1.582v6.139h-2.408v-5.966c0-0.314-0.047-0.595-0.142-0.842c-0.095-0.247-0.215-0.454-0.363-0.622
		c-0.146-0.167-0.32-0.293-0.52-0.377c-0.2-0.084-0.398-0.126-0.598-0.126c-0.325,0-0.617,0.061-0.874,0.181
		c-0.257,0.121-0.478,0.286-0.661,0.496c-0.183,0.21-0.322,0.459-0.417,0.748c-0.095,0.289-0.142,0.601-0.142,0.937v5.573h-2.439
		v-9.54h2.439L37.412,9.104L37.412,9.104z"/>
	<path fill="#111111" d="M46.07,4.003h2.881v2.503H46.07V4.003z M46.307,7.891h2.424v9.54h-2.424V7.891z"/>
	<path fill="#111111" d="M55.2,13.904l2.141-6.013h2.535l-3.59,9.524H54.13l-3.62-9.524h2.55L55.2,13.904z"/>
	<path fill="#111111" d="M69.115,16.376c-0.525,0.462-1.092,0.792-1.7,0.992c-0.608,0.2-1.302,0.304-2.078,0.315
		c-0.724,0-1.385-0.105-1.983-0.315c-0.598-0.21-1.108-0.525-1.535-0.944c-0.424-0.42-0.752-0.934-0.982-1.543
		c-0.23-0.608-0.347-1.307-0.347-2.093c0-0.777,0.107-1.48,0.323-2.109c0.215-0.63,0.521-1.165,0.92-1.606
		c0.398-0.441,0.885-0.782,1.457-1.023c0.57-0.242,1.22-0.362,1.943-0.362c0.702,0,1.327,0.124,1.873,0.37
		c0.545,0.247,1.005,0.588,1.377,1.023c0.373,0.436,0.656,0.945,0.852,1.527c0.192,0.583,0.285,1.21,0.274,1.881
		c0,0.137-0.008,0.299-0.022,0.488c-0.017,0.189-0.034,0.357-0.057,0.504h-6.484c0.041,0.462,0.146,0.842,0.313,1.141
		c0.168,0.299,0.37,0.535,0.606,0.708c0.236,0.173,0.49,0.297,0.764,0.37c0.271,0.073,0.54,0.11,0.803,0.11
		c0.211,0,0.434-0.016,0.67-0.047c0.235-0.032,0.469-0.084,0.699-0.158c0.231-0.073,0.449-0.17,0.653-0.291
		c0.205-0.121,0.381-0.265,0.526-0.433L69.115,16.376z M67.163,11.653c-0.011-0.304-0.073-0.587-0.188-0.85
		c-0.115-0.262-0.271-0.49-0.465-0.685c-0.193-0.194-0.417-0.346-0.669-0.457c-0.252-0.111-0.509-0.165-0.771-0.165
		c-0.252,0-0.502,0.055-0.748,0.165s-0.471,0.263-0.67,0.457c-0.198,0.194-0.36,0.422-0.486,0.685
		c-0.126,0.263-0.193,0.546-0.205,0.85H67.163z"/>
	<path fill="#111111" d="M74.059,9.339c0.157-0.272,0.364-0.524,0.623-0.755c0.256-0.231,0.543-0.425,0.856-0.583
		c0.315-0.157,0.646-0.268,0.992-0.331c0.346-0.063,0.692-0.058,1.038,0.016v2.046c-0.367-0.063-0.756-0.063-1.164,0
		c-0.409,0.063-0.787,0.187-1.135,0.37c-0.347,0.183-0.635,0.433-0.864,0.748c-0.231,0.315-0.347,0.698-0.347,1.149v5.431h-2.425
		V7.89h2.425V9.339L74.059,9.339z"/>
	<path fill="#111111" d="M83.046,10.205c-0.146-0.104-0.313-0.202-0.495-0.291c-0.185-0.089-0.369-0.166-0.56-0.229
		c-0.188-0.063-0.369-0.112-0.543-0.149c-0.173-0.037-0.313-0.055-0.417-0.055c-0.379,0-0.664,0.074-0.857,0.221
		s-0.292,0.346-0.292,0.598c0,0.136,0.048,0.268,0.142,0.394c0.096,0.126,0.222,0.247,0.379,0.362
		c0.156,0.116,0.339,0.231,0.543,0.347c0.205,0.115,0.423,0.231,0.652,0.346c0.357,0.189,0.709,0.377,1.055,0.566
		c0.348,0.189,0.656,0.399,0.93,0.63c0.273,0.231,0.491,0.493,0.652,0.787c0.164,0.294,0.244,0.635,0.244,1.023
		c0,0.567-0.111,1.039-0.338,1.417s-0.512,0.677-0.857,0.897c-0.346,0.22-0.725,0.377-1.133,0.472
		c-0.41,0.094-0.793,0.142-1.149,0.142c-0.63,0-1.294-0.124-1.991-0.37c-0.697-0.247-1.355-0.669-1.976-1.267l1.29-1.574
		c0.21,0.21,0.431,0.394,0.662,0.551c0.229,0.158,0.457,0.289,0.685,0.394c0.226,0.105,0.44,0.187,0.646,0.244
		c0.205,0.058,0.387,0.086,0.543,0.086c0.398,0,0.695-0.086,0.89-0.259c0.194-0.173,0.292-0.386,0.292-0.638
		c0-0.294-0.137-0.525-0.409-0.693c-0.272-0.167-0.63-0.362-1.071-0.583c-0.355-0.178-0.716-0.362-1.078-0.551
		c-0.36-0.189-0.691-0.404-0.99-0.646c-0.301-0.241-0.543-0.52-0.732-0.834c-0.188-0.315-0.283-0.688-0.283-1.118
		c0-0.514,0.104-0.955,0.314-1.322s0.479-0.664,0.805-0.89c0.323-0.226,0.688-0.391,1.094-0.496c0.402-0.105,0.8-0.158,1.188-0.158
		c0.577,0,1.165,0.1,1.764,0.299c0.599,0.199,1.117,0.467,1.559,0.803L83.046,10.205z"/>
	<path fill="#111111" d="M86.384,8.6c0.734-0.43,1.448-0.706,2.142-0.827c0.692-0.12,1.316-0.17,1.873-0.149
		c0.524,0.021,1.016,0.105,1.473,0.252c0.456,0.147,0.855,0.359,1.195,0.638c0.342,0.278,0.608,0.617,0.804,1.015
		c0.194,0.399,0.291,0.866,0.291,1.401v4.25c0,0.231,0.014,0.514,0.04,0.85c0.025,0.336,0.128,0.803,0.307,1.401H91.77l-0.017-0.992
		c-0.157,0.22-0.339,0.407-0.543,0.559c-0.205,0.152-0.423,0.281-0.653,0.386s-0.461,0.181-0.691,0.229
		c-0.231,0.047-0.451,0.071-0.661,0.071c-0.462,0-0.911-0.068-1.347-0.205c-0.437-0.137-0.82-0.336-1.156-0.598
		c-0.336-0.263-0.606-0.59-0.811-0.984c-0.205-0.394-0.309-0.853-0.309-1.377c0-0.651,0.123-1.22,0.37-1.708
		c0.246-0.488,0.619-0.879,1.118-1.173c0.498-0.293,1.13-0.49,1.896-0.59c0.767-0.1,1.669-0.086,2.707,0.04
		c0.011-0.409-0.108-0.75-0.36-1.023c-0.252-0.272-0.567-0.457-0.944-0.551c-0.231-0.052-0.483-0.073-0.757-0.063
		c-0.272,0.011-0.545,0.047-0.817,0.11s-0.541,0.142-0.803,0.236c-0.263,0.095-0.494,0.2-0.693,0.315L86.384,8.6z M89.47,15.919
		c0.263,0,0.524-0.052,0.787-0.157c0.263-0.105,0.498-0.247,0.708-0.425c0.21-0.178,0.383-0.391,0.52-0.637
		c0.138-0.246,0.205-0.506,0.205-0.779v-1.196c-1.321-0.179-2.295-0.126-2.92,0.157c-0.625,0.283-0.938,0.724-0.938,1.322
		c0,0.619,0.158,1.06,0.473,1.322C88.619,15.789,89.008,15.919,89.47,15.919z"/>
	<path fill="#111111" d="M96.979,4.003h2.424v13.428h-2.424V4.003z"/>
</g>
</svg>
