<?xml version="1.0" encoding="utf-8"?>
<!-- Generator: Adobe Illustrator 16.0.0, SVG Export Plug-In . SVG Version: 6.00 Build 0)  -->
<!DOCTYPE svg PUBLIC "-//W3C//DTD SVG 1.1//EN" "http://www.w3.org/Graphics/SVG/1.1/DTD/svg11.dtd">
<svg version="1.1" id="레이어_1" xmlns="http://www.w3.org/2000/svg" xmlns:xlink="http://www.w3.org/1999/xlink" x="0px"
	 y="0px" width="74px" height="16px" viewBox="0 0 74 16" enable-background="new 0 0 74 16" xml:space="preserve">
<path fill="#666666" d="M6.32,11.779h6.569V14.3H3.08V1.7h3.24V11.779z"/>
<path fill="#666666" d="M16.4,14.3h-3.51l4.77-12.6h3.601l4.77,12.6h-3.51l-0.811-2.25h-4.5L16.4,14.3z M18.021,9.71h2.88
	l-1.44-4.23L18.021,9.71z"/>
<path fill="#666666" d="M31.79,14.3h-3.24V4.22h-3.78V1.7H35.57v2.52h-3.78V14.3z"/>
<path fill="#666666" d="M42.14,10.52L45.2,1.7h3.51l-4.77,12.6H40.34L35.57,1.7h3.51L42.14,10.52z"/>
<path fill="#666666" d="M55.549,14.3h-6.479v-2.521h1.62V4.22h-1.62V1.7h6.479v2.52H53.93v7.56h1.619V14.3z"/>
<path fill="#666666" d="M59.42,14.3h-3.51l4.77-12.6h3.601l4.77,12.6h-3.51l-0.811-2.25h-4.5L59.42,14.3z M61.04,9.71h2.88
	l-1.44-4.23L61.04,9.71z"/>
</svg>
