<?xml version="1.0" encoding="utf-8"?>
<!-- Generator: Adobe Illustrator 16.0.0, SVG Export Plug-In . SVG Version: 6.00 Build 0)  -->
<!DOCTYPE svg PUBLIC "-//W3C//DTD SVG 1.1//EN" "http://www.w3.org/Graphics/SVG/1.1/DTD/svg11.dtd">
<svg version="1.1" id="레이어_1" xmlns="http://www.w3.org/2000/svg" xmlns:xlink="http://www.w3.org/1999/xlink" x="0px"
	 y="0px" width="96px" height="16px" viewBox="0 0 96 16" enable-background="new 0 0 96 16" xml:space="preserve">
<path fill="#666666" d="M13.88,14.029c-2.808,0.301-5.388,0.451-7.74,0.451c-1.176,0-2.04-0.276-2.592-0.828
	C2.996,13.1,2.72,12.236,2.72,11.06V5.3c0-1.26,0.285-2.175,0.855-2.745C4.145,1.985,5.06,1.7,6.32,1.7H12.8v2.52H7.04
	c-0.72,0-1.08,0.36-1.08,1.08v5.76c0,0.276,0.081,0.495,0.243,0.657S6.584,11.96,6.86,11.96c1.38,0,2.64-0.03,3.779-0.091V9.26H8.3
	V7.1h5.58V14.029z"/>
<path fill="#666666" d="M25.67,14.3h-9.99V1.7h9.99v2.52h-6.75v2.43h5.31v2.52h-5.31v2.609h6.75V14.3z"/>
<path fill="#666666" d="M27.11,1.7h7.56c1.261,0,2.175,0.285,2.745,0.855c0.57,0.57,0.855,1.485,0.855,2.745v1.62
	c0,0.996-0.165,1.77-0.495,2.322c-0.33,0.552-0.855,0.918-1.575,1.098l2.25,3.96h-3.51l-2.07-3.78h-2.52v3.78h-3.24V1.7z M35.03,5.3
	c0-0.72-0.36-1.08-1.08-1.08h-3.6V8h3.6c0.72,0,1.08-0.36,1.08-1.08V5.3z"/>
<path fill="#666666" d="M50.869,7.28l-2.52,4.5h-2.521l-2.52-4.5v7.02h-3.24V1.7h3.42l3.6,6.66l3.601-6.66h3.42v12.6h-3.24V7.28z"/>
<path fill="#666666" d="M58.52,14.3h-3.51l4.77-12.6h3.601l4.77,12.6h-3.51l-0.811-2.25h-4.5L58.52,14.3z M60.14,9.71h2.88
	l-1.44-4.23L60.14,9.71z"/>
<path fill="#666666" d="M80.029,14.3h-3.42L72.29,6.74v7.56h-3.24V1.7h3.42l4.32,7.56V1.7h3.239V14.3z"/>
<path fill="#666666" d="M80.749,1.7h3.42l2.971,6.12l2.97-6.12h3.42l-4.77,9.27v3.33h-3.24v-3.33L80.749,1.7z"/>
</svg>
