<?xml version="1.0" encoding="utf-8"?>
<!-- Generator: Adobe Illustrator 16.0.0, SVG Export Plug-In . SVG Version: 6.00 Build 0)  -->
<!DOCTYPE svg PUBLIC "-//W3C//DTD SVG 1.1//EN" "http://www.w3.org/Graphics/SVG/1.1/DTD/svg11.dtd">
<svg version="1.1" id="레이어_1" xmlns="http://www.w3.org/2000/svg" xmlns:xlink="http://www.w3.org/1999/xlink" x="0px"
	 y="0px" width="97px" height="16px" viewBox="0 0 97 16" enable-background="new 0 0 97 16" xml:space="preserve">
<path fill="#666666" d="M2.394,11.689c3.288,0.18,5.514,0.271,6.678,0.271c0.276,0,0.495-0.081,0.657-0.243s0.243-0.381,0.243-0.657
	v-1.62H5.831c-1.26,0-2.175-0.285-2.745-0.854C2.517,8.015,2.231,7.1,2.231,5.84V5.3c0-1.26,0.285-2.175,0.854-2.745
	C3.656,1.985,4.571,1.7,5.831,1.7h6.318v2.52H6.552c-0.721,0-1.08,0.36-1.08,1.08v0.36c0,0.72,0.359,1.08,1.08,1.08h3.239
	c1.177,0,2.04,0.276,2.593,0.828c0.552,0.552,0.827,1.416,0.827,2.592v0.899c0,1.177-0.275,2.04-0.827,2.593
	c-0.553,0.552-1.416,0.828-2.593,0.828c-0.611,0-1.26-0.013-1.943-0.037l-1.656-0.072c-1.224-0.06-2.49-0.143-3.798-0.252V11.689z"
	/>
<path fill="#666666" d="M18.071,11.779h6.569V14.3h-9.81V1.7h3.24V11.779z"/>
<path fill="#666666" d="M37.241,10.88c0,1.26-0.285,2.175-0.854,2.745c-0.57,0.57-1.485,0.855-2.745,0.855h-4.5
	c-1.261,0-2.176-0.285-2.745-0.855c-0.57-0.57-0.855-1.485-0.855-2.745V5.12c0-1.26,0.285-2.175,0.855-2.745
	c0.569-0.57,1.484-0.855,2.745-0.855h4.5c1.26,0,2.175,0.285,2.745,0.855c0.569,0.57,0.854,1.485,0.854,2.745V10.88z M34.001,5.12
	c0-0.72-0.359-1.08-1.08-1.08h-3.06c-0.72,0-1.08,0.36-1.08,1.08v5.76c0,0.72,0.36,1.08,1.08,1.08h3.06c0.721,0,1.08-0.36,1.08-1.08
	V5.12z"/>
<path fill="#666666" d="M43.991,10.52l3.061-8.82h3.51l-4.77,12.6h-3.601l-4.77-12.6h3.51L43.991,10.52z"/>
<path fill="#666666" d="M61.451,14.3h-9.99V1.7h9.99v2.52h-6.75v2.43h5.31v2.52h-5.31v2.609h6.75V14.3z"/>
<path fill="#666666" d="M73.871,14.3h-3.42l-4.319-7.56v7.56h-3.24V1.7h3.42l4.32,7.56V1.7h3.239V14.3z"/>
<path fill="#666666" d="M81.971,14.3h-6.479v-2.521h1.62V4.22h-1.62V1.7h6.479v2.52h-1.619v7.56h1.619V14.3z"/>
<path fill="#666666" d="M85.841,14.3h-3.51l4.77-12.6h3.601l4.77,12.6h-3.51l-0.811-2.25h-4.5L85.841,14.3z M87.461,9.71h2.88
	L88.9,5.48L87.461,9.71z"/>
</svg>
