<?xml version="1.0" encoding="utf-8"?>
<!-- Generator: Adobe Illustrator 16.0.0, SVG Export Plug-In . SVG Version: 6.00 Build 0)  -->
<!DOCTYPE svg PUBLIC "-//W3C//DTD SVG 1.1//EN" "http://www.w3.org/Graphics/SVG/1.1/DTD/svg11.dtd">
<svg version="1.1" id="레이어_1" xmlns="http://www.w3.org/2000/svg" xmlns:xlink="http://www.w3.org/1999/xlink" x="0px"
	 y="0px" width="88px" height="16px" viewBox="0 0 88 16" enable-background="new 0 0 88 16" xml:space="preserve">
<g>
	<g>
		<path fill="#666666" d="M10.877,1.743h3.24v9.18c0,1.26-0.285,2.176-0.854,2.745c-0.57,0.569-1.485,0.854-2.745,0.854H6.377
			c-1.26,0-2.175-0.285-2.745-0.854c-0.569-0.569-0.854-1.485-0.854-2.745v-9.18h3.24v9.18c0,0.72,0.359,1.08,1.08,1.08h2.699
			c0.721,0,1.08-0.36,1.08-1.08V1.743z"/>
		<path fill="#666666" d="M19.518,14.343h-3.24v-12.6h3.24v4.95h1.62l2.808-4.95h3.42l-3.528,6.21l3.511,6.39h-3.42l-2.79-5.13
			h-1.62V14.343z"/>
		<path fill="#666666" d="M28.445,1.743h7.56c1.261,0,2.175,0.285,2.745,0.855c0.57,0.57,0.855,1.485,0.855,2.745v1.62
			c0,0.996-0.165,1.771-0.495,2.321c-0.33,0.553-0.855,0.918-1.575,1.099l2.25,3.96h-3.51l-2.07-3.779h-2.52v3.779h-3.24V1.743z
			 M36.365,5.343c0-0.72-0.36-1.08-1.08-1.08h-3.6v3.78h3.6c0.72,0,1.08-0.36,1.08-1.08V5.343z"/>
		<path fill="#666666" d="M43.655,14.343h-3.51l4.77-12.6h3.601l4.77,12.6h-3.51l-0.811-2.25h-4.5L43.655,14.343z M45.275,9.753
			h2.88l-1.44-4.23L45.275,9.753z"/>
		<path fill="#666666" d="M60.124,14.343h-6.479v-2.52h1.62V4.263h-1.62v-2.52h6.479v2.52h-1.619v7.561h1.619V14.343z"/>
		<path fill="#666666" d="M72.725,14.343h-3.42l-4.319-7.56v7.56h-3.24v-12.6h3.42l4.32,7.56v-7.56h3.239V14.343z"/>
		<path fill="#666666" d="M84.875,14.343h-9.99v-12.6h9.99v2.52h-6.75v2.43h5.31v2.52h-5.31v2.61h6.75V14.343z"/>
	</g>
</g>
</svg>
