<?xml version="1.0" encoding="utf-8"?>
<!-- Generator: Adobe Illustrator 16.0.0, SVG Export Plug-In . SVG Version: 6.00 Build 0)  -->
<!DOCTYPE svg PUBLIC "-//W3C//DTD SVG 1.1//EN" "http://www.w3.org/Graphics/SVG/1.1/DTD/svg11.dtd">
<svg version="1.1" id="레이어_1" xmlns="http://www.w3.org/2000/svg" xmlns:xlink="http://www.w3.org/1999/xlink" x="0px"
	 y="0px" width="122px" height="40px" viewBox="0 0 122 40" enable-background="new 0 0 122 40" xml:space="preserve">
<g>
	<path fill="#111111" d="M33.064,35.523v-8.195h1.085v8.195H33.064z"/>
	<path fill="#111111" d="M36.104,32.891l1.022-0.09c0.049,0.41,0.161,0.746,0.338,1.01c0.178,0.264,0.452,0.476,0.825,0.637
		c0.372,0.162,0.792,0.244,1.258,0.244c0.413,0,0.778-0.063,1.096-0.186c0.316-0.123,0.552-0.291,0.707-0.506
		c0.154-0.214,0.231-0.447,0.231-0.701c0-0.258-0.074-0.48-0.224-0.674c-0.148-0.191-0.395-0.354-0.737-0.482
		c-0.22-0.086-0.706-0.22-1.459-0.399c-0.753-0.183-1.28-0.353-1.582-0.513c-0.392-0.205-0.684-0.459-0.875-0.764
		c-0.192-0.304-0.288-0.645-0.288-1.02c0-0.414,0.117-0.801,0.353-1.16c0.234-0.359,0.577-0.633,1.028-0.818
		c0.451-0.188,0.952-0.279,1.504-0.279c0.607,0,1.144,0.098,1.607,0.293c0.464,0.195,0.82,0.483,1.07,0.863
		c0.249,0.381,0.384,0.811,0.402,1.291l-1.04,0.079c-0.056-0.519-0.245-0.909-0.567-1.175c-0.322-0.264-0.798-0.396-1.428-0.396
		c-0.656,0-1.134,0.121-1.435,0.36c-0.3,0.24-0.449,0.53-0.449,0.869c0,0.295,0.105,0.537,0.318,0.728
		c0.209,0.189,0.754,0.385,1.635,0.584c0.882,0.199,1.486,0.373,1.814,0.522c0.477,0.22,0.829,0.498,1.057,0.836
		c0.227,0.337,0.341,0.726,0.341,1.165c0,0.438-0.125,0.848-0.375,1.232c-0.249,0.386-0.608,0.687-1.076,0.899
		c-0.468,0.214-0.994,0.321-1.579,0.321c-0.741,0-1.363-0.107-1.864-0.324c-0.501-0.216-0.895-0.541-1.18-0.977
		C36.269,33.93,36.119,33.438,36.104,32.891z"/>
	<path fill="#111111" d="M46.194,35.523v-7.229h-2.7v-0.968h6.495v0.968h-2.711v7.229H46.194z"/>
	<path fill="#111111" d="M49.596,35.523l3.147-8.195h1.168l3.354,8.195H56.03l-0.955-2.482h-3.427l-0.9,2.482H49.596z M51.96,32.158
		h2.778l-0.855-2.27c-0.261-0.689-0.454-1.257-0.581-1.699c-0.104,0.524-0.252,1.047-0.441,1.564L51.96,32.158z"/>
	<path fill="#111111" d="M58.521,35.523v-8.195h1.112l4.305,6.436v-6.436h1.039v8.195h-1.111l-4.304-6.439v6.439H58.521z"/>
	<path fill="#111111" d="M67.168,35.523v-8.195h3.074c0.626,0,1.128,0.083,1.507,0.249c0.378,0.166,0.674,0.421,0.89,0.767
		c0.213,0.344,0.32,0.704,0.32,1.081c0,0.351-0.095,0.681-0.285,0.989c-0.189,0.309-0.479,0.559-0.861,0.749
		c0.496,0.146,0.877,0.394,1.145,0.743c0.268,0.351,0.398,0.765,0.398,1.24c0,0.385-0.08,0.742-0.242,1.07
		c-0.162,0.33-0.362,0.586-0.602,0.764c-0.238,0.18-0.537,0.313-0.896,0.406c-0.359,0.09-0.801,0.137-1.322,0.137H67.168z
		 M68.252,30.771h1.771c0.48,0,0.826-0.031,1.035-0.096c0.274-0.082,0.482-0.218,0.623-0.408c0.139-0.188,0.209-0.429,0.209-0.715
		c0-0.271-0.064-0.512-0.195-0.719s-0.316-0.35-0.56-0.425c-0.243-0.076-0.657-0.114-1.247-0.114h-1.638L68.252,30.771
		L68.252,30.771z M68.252,34.557h2.04c0.351,0,0.597-0.014,0.738-0.039c0.25-0.045,0.458-0.119,0.626-0.224s0.306-0.257,0.414-0.456
		c0.106-0.199,0.162-0.43,0.162-0.689c0-0.307-0.078-0.571-0.235-0.797c-0.156-0.226-0.373-0.385-0.649-0.476
		c-0.279-0.092-0.679-0.138-1.199-0.138h-1.896V34.557z"/>
	<path fill="#111111" d="M80.639,27.328h1.084v4.734c0,0.824-0.094,1.479-0.279,1.963c-0.187,0.484-0.522,0.879-1.01,1.183
		c-0.486,0.304-1.123,0.455-1.914,0.455c-0.769,0-1.396-0.132-1.884-0.396c-0.487-0.266-0.837-0.647-1.046-1.149
		c-0.209-0.501-0.313-1.187-0.313-2.054v-4.735h1.084v4.729c0,0.711,0.065,1.235,0.197,1.572c0.133,0.338,0.36,0.598,0.684,0.78
		c0.322,0.183,0.716,0.272,1.182,0.272c0.799,0,1.366-0.181,1.705-0.541c0.339-0.361,0.51-1.058,0.51-2.086V27.328z"/>
	<path fill="#111111" d="M83.885,35.523v-8.195h1.084v7.229h4.036v0.967H83.885L83.885,35.523z"/>
</g>
<g>
	<path fill="#111111" d="M37.522,16.045h-2.487l-5.037-9.051v9.051h-2.425V2.963h2.519l5.021,8.989V2.963h2.409V16.045z"/>
	<path fill="#111111" d="M44.496,6.285c0.671,0,1.299,0.113,1.881,0.338c0.583,0.226,1.089,0.554,1.52,0.984
		c0.43,0.43,0.769,0.96,1.015,1.59c0.247,0.63,0.37,1.349,0.37,2.157c0,0.797-0.123,1.503-0.37,2.117
		c-0.246,0.614-0.585,1.131-1.015,1.55c-0.431,0.42-0.937,0.74-1.52,0.96c-0.582,0.22-1.21,0.331-1.881,0.331
		c-0.756,0-1.428-0.134-2.015-0.401c-0.588-0.268-1.079-0.63-1.473-1.086c-0.394-0.456-0.692-0.983-0.896-1.582
		c-0.205-0.598-0.308-1.228-0.308-1.889c0-0.819,0.121-1.543,0.362-2.172c0.241-0.63,0.574-1.16,1-1.59
		c0.425-0.43,0.921-0.756,1.487-0.976C43.219,6.396,43.835,6.285,44.496,6.285z M44.496,8.064c-0.305,0-0.599,0.076-0.882,0.228
		c-0.283,0.152-0.53,0.37-0.739,0.653c-0.211,0.284-0.378,0.63-0.504,1.039c-0.126,0.409-0.189,0.866-0.189,1.37
		c0,0.378,0.053,0.755,0.157,1.133c0.105,0.378,0.255,0.719,0.449,1.023c0.194,0.304,0.436,0.553,0.724,0.748
		c0.289,0.194,0.617,0.291,0.984,0.291c0.388,0,0.729-0.097,1.023-0.291c0.293-0.194,0.543-0.443,0.747-0.748
		c0.205-0.305,0.359-0.646,0.465-1.023c0.104-0.378,0.157-0.755,0.157-1.133c0-0.399-0.05-0.795-0.149-1.188
		c-0.099-0.393-0.25-0.745-0.449-1.055c-0.199-0.31-0.448-0.562-0.747-0.756S44.895,8.064,44.496,8.064z"/>
	<path fill="#111111" d="M53.783,7.718c0.263-0.451,0.63-0.812,1.102-1.079c0.473-0.268,0.945-0.401,1.417-0.401
		c0.524,0,1.008,0.079,1.448,0.236c0.44,0.157,0.821,0.391,1.142,0.7c0.319,0.31,0.569,0.693,0.747,1.149
		c0.179,0.457,0.268,0.984,0.268,1.582v6.139h-2.408v-5.966c0-0.314-0.047-0.595-0.142-0.842c-0.095-0.247-0.215-0.454-0.362-0.622
		c-0.146-0.167-0.32-0.293-0.52-0.377c-0.2-0.084-0.398-0.126-0.598-0.126c-0.325,0-0.617,0.061-0.874,0.181
		c-0.257,0.121-0.478,0.286-0.661,0.496c-0.183,0.21-0.322,0.459-0.417,0.748c-0.095,0.289-0.142,0.601-0.142,0.937v5.573h-2.439
		v-9.54h2.439V7.718z"/>
	<path fill="#111111" d="M67.777,8.819c-0.146-0.104-0.313-0.202-0.495-0.291c-0.185-0.089-0.37-0.166-0.56-0.229
		c-0.188-0.063-0.369-0.112-0.543-0.149s-0.313-0.055-0.418-0.055c-0.378,0-0.664,0.074-0.856,0.221
		c-0.194,0.147-0.292,0.346-0.292,0.598c0,0.136,0.048,0.268,0.142,0.394c0.095,0.126,0.222,0.247,0.378,0.362
		c0.157,0.116,0.34,0.231,0.543,0.347c0.205,0.115,0.424,0.231,0.653,0.346c0.356,0.189,0.709,0.377,1.055,0.566
		c0.347,0.189,0.656,0.399,0.929,0.63c0.273,0.231,0.492,0.493,0.653,0.787c0.163,0.294,0.244,0.635,0.244,1.023
		c0,0.567-0.112,1.039-0.338,1.417c-0.228,0.378-0.513,0.677-0.858,0.897c-0.346,0.22-0.724,0.377-1.133,0.472
		c-0.41,0.094-0.793,0.142-1.148,0.142c-0.631,0-1.295-0.124-1.991-0.37c-0.698-0.247-1.356-0.669-1.976-1.267l1.289-1.574
		c0.211,0.21,0.432,0.394,0.662,0.551c0.23,0.158,0.458,0.289,0.686,0.394c0.226,0.105,0.439,0.188,0.646,0.244
		c0.204,0.058,0.386,0.086,0.543,0.086c0.398,0,0.695-0.086,0.89-0.259c0.193-0.173,0.291-0.386,0.291-0.638
		c0-0.294-0.137-0.525-0.408-0.693c-0.273-0.167-0.631-0.362-1.071-0.583c-0.356-0.178-0.716-0.362-1.078-0.551
		c-0.36-0.189-0.692-0.404-0.991-0.646c-0.3-0.241-0.543-0.52-0.731-0.834C62.3,9.843,62.205,9.47,62.205,9.04
		c0-0.514,0.104-0.955,0.314-1.322c0.209-0.367,0.478-0.664,0.804-0.89c0.323-0.226,0.688-0.391,1.094-0.496
		c0.403-0.105,0.8-0.158,1.188-0.158c0.576,0,1.164,0.1,1.763,0.299c0.599,0.199,1.118,0.467,1.559,0.803L67.777,8.819z"/>
	<path fill="#111111" d="M71.57,4.239l2.439-0.771V6.49h2.188v1.889H74.01v4.565c0,0.294,0.061,0.53,0.182,0.708
		c0.121,0.178,0.281,0.317,0.479,0.417c0.199,0.1,0.425,0.168,0.677,0.205s0.51,0.055,0.771,0.055v1.936
		c-0.661,0.073-1.271,0.065-1.834-0.023c-0.563-0.089-1.042-0.265-1.439-0.527c-0.398-0.262-0.712-0.606-0.938-1.031
		c-0.227-0.425-0.34-0.937-0.34-1.535v-4.77h-1.494V6.49h1.494V4.239H71.57z"/>
	<path fill="#111111" d="M82.055,6.285c0.672,0,1.299,0.113,1.881,0.338c0.584,0.226,1.09,0.554,1.521,0.984
		c0.43,0.43,0.769,0.96,1.015,1.59c0.247,0.63,0.37,1.349,0.37,2.157c0,0.797-0.123,1.503-0.37,2.117
		c-0.246,0.614-0.585,1.131-1.015,1.55c-0.431,0.42-0.937,0.74-1.521,0.96c-0.582,0.22-1.209,0.331-1.881,0.331
		c-0.756,0-1.428-0.134-2.015-0.401c-0.588-0.268-1.079-0.63-1.474-1.086c-0.394-0.456-0.691-0.983-0.896-1.582
		c-0.205-0.598-0.308-1.228-0.308-1.889c0-0.819,0.121-1.543,0.361-2.172c0.241-0.63,0.574-1.16,1-1.59
		c0.426-0.43,0.922-0.756,1.487-0.976C80.777,6.396,81.395,6.285,82.055,6.285z M82.055,8.064c-0.305,0-0.599,0.076-0.882,0.228
		c-0.282,0.152-0.53,0.37-0.739,0.653c-0.211,0.284-0.377,0.63-0.504,1.039c-0.125,0.409-0.188,0.866-0.188,1.37
		c0,0.378,0.053,0.755,0.157,1.133s0.254,0.719,0.449,1.023c0.193,0.304,0.436,0.553,0.723,0.748
		c0.289,0.194,0.617,0.291,0.984,0.291c0.389,0,0.729-0.097,1.023-0.291c0.293-0.194,0.543-0.443,0.747-0.748
		c0.205-0.305,0.358-0.646,0.465-1.023c0.104-0.378,0.157-0.755,0.157-1.133c0-0.399-0.051-0.795-0.149-1.188
		s-0.25-0.745-0.448-1.055c-0.199-0.31-0.449-0.562-0.748-0.756S82.453,8.064,82.055,8.064z"/>
	<path fill="#111111" d="M93.893,6.27c0.684,0,1.278,0.118,1.787,0.354c0.51,0.236,0.935,0.572,1.275,1.007
		c0.341,0.436,0.595,0.96,0.763,1.574c0.168,0.614,0.252,1.299,0.252,2.054c0,1.596-0.336,2.808-1.007,3.637
		c-0.672,0.829-1.695,1.243-3.07,1.243c-0.629,0-1.147-0.121-1.558-0.362c-0.41-0.242-0.74-0.556-0.992-0.944v4.88h-2.424V6.505
		h2.424v1.181c0.272-0.441,0.616-0.787,1.031-1.039C92.788,6.396,93.295,6.27,93.893,6.27z M93.452,8.095
		c-0.566,0-1.047,0.213-1.44,0.638c-0.393,0.425-0.615,1.1-0.669,2.023V11.7c0.031,0.378,0.097,0.729,0.197,1.055
		c0.101,0.326,0.235,0.606,0.409,0.842c0.173,0.236,0.383,0.42,0.629,0.551c0.247,0.131,0.538,0.197,0.874,0.197
		c0.366,0,0.682-0.092,0.944-0.275c0.262-0.183,0.479-0.425,0.652-0.724c0.174-0.299,0.303-0.632,0.387-1
		c0.084-0.368,0.125-0.74,0.125-1.118c0-0.399-0.037-0.787-0.109-1.165c-0.073-0.378-0.194-0.711-0.362-1s-0.385-0.522-0.651-0.701
		C94.168,8.185,93.84,8.095,93.452,8.095z"/>
</g>
</svg>
