<?xml version="1.0" encoding="utf-8"?>
<!-- Generator: Adobe Illustrator 16.0.0, SVG Export Plug-In . SVG Version: 6.00 Build 0)  -->
<!DOCTYPE svg PUBLIC "-//W3C//DTD SVG 1.1//EN" "http://www.w3.org/Graphics/SVG/1.1/DTD/svg11.dtd">
<svg version="1.1" id="레이어_1" xmlns="http://www.w3.org/2000/svg" xmlns:xlink="http://www.w3.org/1999/xlink" x="0px"
	 y="0px" width="78px" height="16px" viewBox="0 0 78 16" enable-background="new 0 0 78 16" xml:space="preserve">
<path fill="#666666" d="M9.2,14.3H5.96V4.22H2.18V1.7H12.98v2.52H9.2V14.3z"/>
<path fill="#666666" d="M22.34,1.7h3.24v9.18c0,1.26-0.285,2.175-0.854,2.745c-0.57,0.57-1.485,0.855-2.745,0.855H17.84
	c-1.26,0-2.175-0.285-2.745-0.855c-0.569-0.57-0.854-1.485-0.854-2.745V1.7h3.24v9.18c0,0.72,0.359,1.08,1.08,1.08h2.699
	c0.721,0,1.08-0.36,1.08-1.08V1.7z"/>
<path fill="#666666" d="M27.74,1.7h7.56c1.261,0,2.175,0.285,2.745,0.855C38.615,3.125,38.9,4.04,38.9,5.3v1.62
	c0,0.996-0.165,1.77-0.495,2.322c-0.33,0.552-0.855,0.918-1.575,1.098l2.25,3.96h-3.51l-2.07-3.78h-2.52v3.78h-3.24V1.7z M35.66,5.3
	c0-0.72-0.36-1.08-1.08-1.08h-3.6V8h3.6c0.72,0,1.08-0.36,1.08-1.08V5.3z"/>
<path fill="#666666" d="M43.94,14.3H40.7V1.7h3.24v4.95h1.62l2.808-4.95h3.42L48.26,7.91l3.511,6.39h-3.42l-2.79-5.13h-1.62V14.3z"
	/>
<path fill="#666666" d="M62.857,14.3h-9.99V1.7h9.99v2.52h-6.75v2.43h5.31v2.52h-5.31v2.609h6.75V14.3z"/>
<path fill="#666666" d="M62.857,1.7h3.42l2.971,6.12l2.97-6.12h3.42l-4.77,9.27v3.33h-3.24v-3.33L62.857,1.7z"/>
</svg>
