<?xml version="1.0" encoding="utf-8"?>
<!-- Generator: Adobe Illustrator 16.0.0, SVG Export Plug-In . SVG Version: 6.00 Build 0)  -->
<!DOCTYPE svg PUBLIC "-//W3C//DTD SVG 1.1//EN" "http://www.w3.org/Graphics/SVG/1.1/DTD/svg11.dtd">
<svg version="1.1" id="레이어_1" xmlns="http://www.w3.org/2000/svg" xmlns:xlink="http://www.w3.org/1999/xlink" x="0px"
	 y="0px" width="41px" height="16px" viewBox="0 0 41 16" enable-background="new 0 0 41 16" xml:space="preserve">
<path fill="#666666" d="M11.18,1.7h3.24v9.18c0,1.26-0.285,2.175-0.854,2.745c-0.57,0.57-1.485,0.855-2.745,0.855H6.68
	c-1.26,0-2.175-0.285-2.745-0.855C3.365,13.055,3.08,12.14,3.08,10.88V1.7h3.24v9.18c0,0.72,0.359,1.08,1.08,1.08H10.1
	c0.721,0,1.08-0.36,1.08-1.08V1.7z"/>
<path fill="#666666" d="M18.471,14.3h-3.51l4.77-12.6h3.601l4.77,12.6h-3.51l-0.811-2.25h-4.5L18.471,14.3z M20.091,9.71h2.88
	l-1.44-4.23L20.091,9.71z"/>
<path fill="#666666" d="M38.99,14.3H29V1.7h9.99v2.52h-6.75v2.43h5.31v2.52h-5.31v2.609h6.75V14.3z"/>
</svg>
