<?xml version="1.0" encoding="utf-8"?>
<!-- Generator: Adobe Illustrator 16.0.0, SVG Export Plug-In . SVG Version: 6.00 Build 0)  -->
<!DOCTYPE svg PUBLIC "-//W3C//DTD SVG 1.1//EN" "http://www.w3.org/Graphics/SVG/1.1/DTD/svg11.dtd">
<svg version="1.1" id="레이어_1" xmlns="http://www.w3.org/2000/svg" xmlns:xlink="http://www.w3.org/1999/xlink" x="0px"
	 y="0px" width="62px" height="16px" viewBox="0 0 62 16" enable-background="new 0 0 62 16" xml:space="preserve">
<path fill="#666666" d="M11.02,14.3H4.541v-2.521h1.62V4.22h-1.62V1.7h6.479v2.52H9.401v7.56h1.619V14.3z"/>
<path fill="#666666" d="M23.62,14.3H20.2L15.88,6.74v7.56h-3.24V1.7h3.42l4.32,7.56V1.7h3.239V14.3z"/>
<path fill="#666666" d="M32.801,1.7c1.355,0,2.385,0.351,3.086,1.053c0.703,0.702,1.055,1.731,1.055,3.087v4.32
	c0,1.355-0.352,2.385-1.055,3.086c-0.701,0.703-1.73,1.054-3.086,1.054h-7.02V1.7H32.801z M33.701,5.84
	c0-1.08-0.541-1.62-1.621-1.62h-3.059v7.56h3.059c1.08,0,1.621-0.539,1.621-1.619V5.84z"/>
<path fill="#666666" d="M44.68,14.3h-6.48v-2.521h1.621V4.22h-1.621V1.7h6.48v2.52h-1.619v7.56h1.619V14.3z"/>
<path fill="#666666" d="M48.551,14.3h-3.51l4.77-12.6h3.6l4.77,12.6h-3.51l-0.811-2.25h-4.5L48.551,14.3z M50.17,9.71h2.881
	l-1.441-4.23L50.17,9.71z"/>
</svg>
