<?xml version="1.0" encoding="utf-8"?>
<!-- Generator: Adobe Illustrator 16.0.0, SVG Export Plug-In . SVG Version: 6.00 Build 0)  -->
<!DOCTYPE svg PUBLIC "-//W3C//DTD SVG 1.1//EN" "http://www.w3.org/Graphics/SVG/1.1/DTD/svg11.dtd">
<svg version="1.1" id="레이어_1" xmlns="http://www.w3.org/2000/svg" xmlns:xlink="http://www.w3.org/1999/xlink" x="0px"
	 y="0px" width="80px" height="16px" viewBox="0 0 80 16" enable-background="new 0 0 80 16" xml:space="preserve">
<path fill="#666666" d="M10.2,14.3H6.96V4.22H3.18V1.7H13.98v2.52H10.2V14.3z"/>
<path fill="#666666" d="M16.23,14.3h-3.51l4.77-12.6h3.601l4.77,12.6h-3.51l-0.811-2.25h-4.5L16.23,14.3z M17.851,9.71h2.88
	l-1.44-4.23L17.851,9.71z"/>
<path fill="#666666" d="M32.699,14.3H26.22v-2.521h1.62V4.22h-1.62V1.7h6.479v2.52H31.08v7.56h1.619V14.3z"/>
<path fill="#666666" d="M43.5,1.7l2.16,8.1l1.89-8.1h3.511l-3.42,12.6h-3.42l-2.16-7.83L39.9,14.3h-3.42l-3.42-12.6h3.51l1.89,8.1
	l2.16-8.1H43.5z"/>
<path fill="#666666" d="M53.311,14.3h-3.51l4.77-12.6h3.601l4.77,12.6h-3.51l-0.811-2.25h-4.5L53.311,14.3z M54.931,9.71h2.88
	l-1.44-4.23L54.931,9.71z"/>
<path fill="#666666" d="M74.819,14.3h-3.42L67.08,6.74v7.56h-3.24V1.7h3.42l4.32,7.56V1.7h3.239V14.3z"/>
</svg>
