<?xml version="1.0" encoding="utf-8"?>
<!-- Generator: Adobe Illustrator 16.0.0, SVG Export Plug-In . SVG Version: 6.00 Build 0)  -->
<!DOCTYPE svg PUBLIC "-//W3C//DTD SVG 1.1//EN" "http://www.w3.org/Graphics/SVG/1.1/DTD/svg11.dtd">
<svg version="1.1" id="레이어_1" xmlns="http://www.w3.org/2000/svg" xmlns:xlink="http://www.w3.org/1999/xlink" x="0px"
	 y="0px" width="150px" height="150px" viewBox="0 0 150 150" enable-background="new 0 0 150 150" xml:space="preserve">
<path fill="#FFFFFF" stroke="#000000" stroke-miterlimit="10" d="M75.35,1.913c-40.437,0-73.334,32.897-73.334,73.334
	S34.913,148.58,75.35,148.58s73.334-32.896,73.334-73.333S115.786,1.913,75.35,1.913 M29.636,121.637
	c-1.167-0.747-2.381-1.403-3.608-1.978C15.415,107.886,8.943,92.311,8.943,75.247c0-16.092,5.757-30.864,15.315-42.369
	c0.177-0.07,0.349-0.115,0.53-0.22c0.594-0.335,1.139-0.822,1.511-1.364c1.061-1.293,1.927-2.313,2.755-3.189
	c1.18,1.472,2.305,3,3.363,4.589c-1.808,1.464-3.434,3.127-4.809,4.852c-0.585,0.742-0.764,1.49-0.458,1.967
	c0.119,0.2,0.3,0.344,0.551,0.427c0.475,0.158,1.146,0.095,1.841-0.176c0.632-0.249,1.242-0.654,1.683-1.14
	c1.232-1.132,2.233-2.02,3.175-2.77c0.96,1.629,1.851,3.313,2.687,5.034c-1.976,1.202-3.8,2.621-5.396,4.155
	c-0.68,0.66-0.959,1.384-0.72,1.909c0.096,0.212,0.276,0.373,0.507,0.494c0.449,0.224,1.123,0.253,1.843,0.077
	c0.66-0.161,1.319-0.487,1.822-0.908c1.361-0.958,2.467-1.706,3.494-2.323c0.738,1.745,1.404,3.531,2.016,5.347
	c-2.116,0.942-4.106,2.121-5.862,3.437c-0.759,0.572-1.13,1.261-0.964,1.815c0.068,0.225,0.218,0.412,0.446,0.558
	c0.437,0.276,1.105,0.388,1.836,0.306c0.675-0.077,1.366-0.318,1.924-0.677c1.458-0.777,2.639-1.378,3.732-1.86
	c0.518,1.827,0.972,3.679,1.361,5.556c-2.218,0.677-4.339,1.609-6.238,2.708c-0.802,0.471-1.266,1.117-1.178,1.694
	c0.038,0.234,0.161,0.438,0.365,0.611c0.392,0.33,1.045,0.524,1.79,0.528c0.682,0.002,1.396-0.152,1.984-0.443
	c1.551-0.602,2.803-1.059,3.95-1.408c0.299,1.879,0.549,3.772,0.717,5.685c-2.293,0.412-4.521,1.091-6.554,1.967
	c-0.868,0.379-1.383,0.966-1.343,1.552c0.021,0.237,0.109,0.456,0.291,0.652c0.345,0.381,0.951,0.642,1.7,0.736
	c0.672,0.083,1.402,0.011,2.025-0.21c1.624-0.422,2.928-0.733,4.115-0.948c0.046,1.113,0.073,2.229,0.073,3.349
	c0,0.798-0.029,1.594-0.052,2.388c-2.32,0.15-4.602,0.571-6.706,1.214c-0.913,0.276-1.503,0.801-1.542,1.386
	c-0.016,0.237,0.059,0.467,0.222,0.683c0.313,0.418,0.891,0.747,1.628,0.926c0.665,0.158,1.395,0.167,2.032,0.019
	c1.649-0.233,2.973-0.394,4.171-0.474c-0.144,1.917-0.357,3.814-0.634,5.698c-2.318-0.117-4.633,0.034-6.802,0.422
	c-0.937,0.168-1.538,0.63-1.665,1.197c-0.047,0.232-0.003,0.467,0.13,0.7c0.256,0.445,0.785,0.839,1.495,1.099
	c0.64,0.236,1.364,0.333,2.018,0.262c1.662-0.038,2.996-0.041,4.193,0.021c-0.367,1.882-0.787,3.747-1.282,5.58
	c-2.28-0.395-4.59-0.52-6.804-0.402c-0.945,0.053-1.633,0.422-1.797,0.978c-0.07,0.227-0.036,0.47,0.061,0.712
	c0.193,0.465,0.684,0.928,1.342,1.267c0.604,0.312,1.315,0.497,1.973,0.507c1.653,0.167,2.974,0.325,4.153,0.53
	c-0.588,1.824-1.241,3.614-1.957,5.367c-2.22-0.676-4.499-1.09-6.689-1.248c-0.949-0.068-1.679,0.204-1.914,0.728
	c-0.096,0.213-0.104,0.45-0.027,0.708c0.152,0.493,0.579,1.013,1.185,1.431c0.56,0.384,1.239,0.657,1.895,0.755
	c1.618,0.375,2.91,0.701,4.055,1.057c-0.812,1.731-1.701,3.414-2.639,5.057c-2.11-0.964-4.314-1.673-6.455-2.12
	c-0.931-0.198-1.693-0.035-1.998,0.445c-0.123,0.193-0.162,0.424-0.121,0.689c0.081,0.5,0.443,1.076,0.996,1.577
	c0.505,0.455,1.142,0.82,1.768,1.001c1.553,0.592,2.788,1.09,3.875,1.598C31.897,118.604,30.795,120.147,29.636,121.637
	 M113.096,129.839c-10.727,7.439-23.732,11.814-37.746,11.814c-14.052,0-27.091-4.399-37.835-11.877
	c-0.986-1.83-2.273-3.488-3.788-4.942c1.248-1.605,2.435-3.269,3.551-4.996c0.896,0.806,1.83,1.771,2.941,3.046
	c0.387,0.548,0.941,1.012,1.574,1.286c0.696,0.305,1.39,0.339,1.958,0.099c0.299-0.127,0.548-0.337,0.719-0.605
	c0.411-0.646,0.341-1.552-0.196-2.344c-1.308-1.918-3.001-3.553-4.909-4.923c1.006-1.761,1.958-3.564,2.829-5.419
	c0.997,0.675,2.053,1.505,3.328,2.618c0.449,0.484,1.069,0.87,1.729,1.057c0.734,0.209,1.442,0.158,1.964-0.157
	c0.283-0.165,0.491-0.398,0.623-0.689c0.314-0.691,0.117-1.575-0.522-2.286c-1.549-1.722-3.443-3.118-5.515-4.226
	c0.766-1.873,1.467-3.785,2.095-5.732c1.077,0.544,2.229,1.232,3.635,2.174c0.507,0.424,1.17,0.728,1.848,0.829
	c0.744,0.113,1.452-0.028,1.941-0.394c0.273-0.195,0.439-0.455,0.532-0.757c0.217-0.724-0.097-1.573-0.825-2.198
	c-1.734-1.503-3.788-2.652-5.985-3.494c0.529-1.951,0.974-3.934,1.365-5.938c1.132,0.407,2.361,0.951,3.87,1.711
	c0.556,0.359,1.254,0.58,1.937,0.6c0.749,0.022,1.43-0.206,1.868-0.626c0.239-0.227,0.388-0.502,0.45-0.81
	c0.162-0.735-0.292-1.542-1.086-2.076c-1.917-1.28-4.09-2.174-6.363-2.745c0.293-1.998,0.519-4.016,0.673-6.048
	c1.17,0.273,2.453,0.668,4.037,1.241c0.6,0.291,1.316,0.428,1.994,0.366c0.747-0.064,1.392-0.367,1.77-0.837
	c0.207-0.252,0.318-0.54,0.339-0.854c0.051-0.748-0.446-1.493-1.294-1.928c-2.057-1.045-4.317-1.678-6.638-1.983
	c0.025-0.85,0.057-1.697,0.057-2.548c0-1.183-0.031-2.361-0.079-3.537c1.189,0.139,2.499,0.384,4.126,0.773
	c0.623,0.221,1.35,0.275,2.02,0.138c0.738-0.151,1.351-0.524,1.686-1.033c0.178-0.274,0.275-0.574,0.25-0.887
	c-0.049-0.749-0.638-1.432-1.539-1.767c-2.146-0.806-4.456-1.179-6.792-1.22c-0.178-2.033-0.443-4.044-0.76-6.042
	c1.204-0.001,2.542,0.093,4.22,0.292c0.65,0.145,1.38,0.115,2.027-0.101c0.721-0.237,1.267-0.672,1.536-1.218
	c0.139-0.29,0.189-0.607,0.141-0.915c-0.118-0.741-0.759-1.357-1.709-1.583c-2.248-0.554-4.599-0.653-6.934-0.417
	c-0.415-2-0.898-3.974-1.451-5.92c1.2-0.146,2.547-0.216,4.248-0.216c0.657,0.07,1.376-0.046,1.997-0.339
	c0.694-0.324,1.19-0.823,1.379-1.402c0.104-0.309,0.109-0.619,0.02-0.923c-0.216-0.723-0.942-1.257-1.892-1.373
	c-2.298-0.284-4.647-0.097-6.94,0.423c-0.653-1.937-1.363-3.845-2.151-5.708c1.167-0.294,2.487-0.527,4.164-0.736
	c0.66-0.009,1.362-0.214,1.941-0.581c0.635-0.402,1.076-0.973,1.207-1.572c0.079-0.325,0.039-0.635-0.093-0.925
	c-0.312-0.692-1.108-1.132-2.069-1.128c-2.295-0.002-4.604,0.478-6.816,1.288c-0.895-1.843-1.85-3.645-2.877-5.392
	c1.114-0.441,2.388-0.844,4.016-1.268c0.655-0.097,1.325-0.391,1.849-0.832c0.577-0.481,0.935-1.107,0.981-1.719
	c0.027-0.333-0.043-0.643-0.203-0.919c-0.409-0.649-1.262-0.98-2.22-0.852c-2.284,0.304-4.491,1.085-6.56,2.177
	c-1.14-1.71-2.354-3.355-3.625-4.943c1.041-0.595,2.244-1.173,3.796-1.818c0.637-0.187,1.256-0.571,1.712-1.081
	c0.504-0.56,0.77-1.231,0.724-1.849c-0.014-0.194-0.066-0.373-0.141-0.542C49.614,12.799,62.025,8.84,75.35,8.84
	c13.326,0,25.737,3.96,36.151,10.745c-0.062,0.147-0.1,0.306-0.115,0.471c-0.053,0.621,0.193,1.274,0.697,1.845
	c0.451,0.515,1.07,0.905,1.714,1.102c1.556,0.661,2.759,1.25,3.798,1.853c-1.275,1.591-2.488,3.238-3.631,4.952
	c-2.051-1.094-4.239-1.886-6.512-2.21c-0.967-0.14-1.833,0.192-2.244,0.848c-0.164,0.269-0.228,0.571-0.21,0.892
	c0.038,0.609,0.388,1.237,0.959,1.723c0.521,0.445,1.189,0.746,1.851,0.848c1.633,0.438,2.908,0.853,4.023,1.305
	c-1.029,1.748-1.987,3.553-2.884,5.398c-2.192-0.813-4.484-1.309-6.77-1.328c-0.975-0.01-1.78,0.43-2.096,1.129
	c-0.128,0.286-0.172,0.584-0.101,0.899c0.12,0.597,0.55,1.171,1.181,1.577c0.576,0.372,1.28,0.584,1.945,0.602
	c1.683,0.221,3.008,0.465,4.179,0.768c-0.792,1.866-1.503,3.777-2.158,5.718c-2.274-0.527-4.609-0.729-6.903-0.469
	c-0.963,0.113-1.699,0.648-1.915,1.378c-0.088,0.295-0.083,0.598,0.011,0.899c0.176,0.569,0.675,1.082,1.354,1.408
	c0.621,0.295,1.342,0.418,2.002,0.354c1.713,0.013,3.062,0.094,4.267,0.249c-0.556,1.95-1.037,3.926-1.454,5.93
	c-2.318-0.245-4.655-0.163-6.899,0.368c-0.963,0.223-1.619,0.842-1.736,1.591c-0.049,0.303-0.004,0.602,0.13,0.888
	c0.254,0.543,0.807,0.992,1.512,1.231c0.648,0.221,1.382,0.256,2.039,0.114c1.685-0.188,3.029-0.27,4.239-0.261
	c-0.32,2-0.586,4.017-0.763,6.052c-2.323,0.031-4.621,0.386-6.765,1.168c-0.917,0.333-1.517,1.021-1.564,1.777
	c-0.024,0.304,0.066,0.596,0.233,0.861c0.326,0.516,0.918,0.886,1.661,1.047c0.668,0.146,1.401,0.097,2.032-0.121
	c1.642-0.379,2.957-0.618,4.151-0.748c-0.048,1.181-0.08,2.366-0.08,3.555c0,0.849,0.032,1.693,0.058,2.539
	c-2.308,0.295-4.559,0.909-6.617,1.931c-0.864,0.435-1.368,1.186-1.32,1.94c0.021,0.304,0.133,0.587,0.324,0.834
	c0.375,0.476,0.992,0.777,1.746,0.851c0.68,0.067,1.403-0.063,2.011-0.352c1.599-0.566,2.886-0.952,4.062-1.218
	c0.154,2.035,0.379,4.055,0.675,6.057c-2.262,0.56-4.427,1.432-6.349,2.688c-0.809,0.535-1.27,1.347-1.108,2.092
	c0.059,0.302,0.205,0.568,0.432,0.793c0.433,0.43,1.088,0.657,1.847,0.64c0.686-0.011,1.386-0.226,1.955-0.584
	c1.52-0.754,2.756-1.289,3.897-1.691c0.39,2.007,0.835,3.992,1.364,5.947c-2.186,0.825-4.236,1.954-5.977,3.435
	c-0.742,0.631-1.063,1.485-0.844,2.216c0.09,0.296,0.252,0.55,0.51,0.743c0.481,0.369,1.183,0.52,1.925,0.414
	c0.677-0.097,1.349-0.396,1.862-0.818c1.421-0.936,2.582-1.618,3.667-2.157c0.63,1.949,1.331,3.865,2.097,5.741
	c-2.059,1.091-3.953,2.466-5.515,4.166c-0.652,0.719-0.854,1.608-0.537,2.308c0.128,0.283,0.33,0.511,0.6,0.676
	c0.506,0.316,1.225,0.378,1.949,0.179c0.663-0.184,1.287-0.565,1.742-1.051c1.293-1.109,2.358-1.934,3.365-2.604
	c0.871,1.858,1.823,3.663,2.83,5.43c-1.898,1.352-3.595,2.965-4.918,4.861c-0.548,0.8-0.624,1.716-0.21,2.37
	c0.17,0.264,0.403,0.464,0.693,0.592c0.556,0.245,1.268,0.217,1.951-0.074c0.631-0.269,1.196-0.732,1.591-1.281
	c1.126-1.274,2.069-2.234,2.975-3.035c1.117,1.729,2.305,3.396,3.557,5.004C115.423,126.298,114.104,127.977,113.096,129.839
	 M124.625,119.713c-1.208,0.56-2.404,1.197-3.559,1.93c-1.155-1.485-2.257-3.027-3.292-4.627c1.088-0.497,2.322-0.987,3.867-1.566
	c0.621-0.174,1.263-0.539,1.765-0.989c0.563-0.506,0.926-1.07,1.018-1.581c0.046-0.27,0.008-0.516-0.118-0.712
	c-0.302-0.475-1.054-0.642-1.971-0.45c-2.15,0.438-4.369,1.139-6.499,2.1c-0.938-1.639-1.825-3.319-2.636-5.047
	c1.143-0.348,2.432-0.664,4.043-1.028c0.649-0.092,1.329-0.362,1.889-0.744c0.623-0.422,1.041-0.927,1.205-1.429
	c0.088-0.269,0.079-0.513-0.021-0.73c-0.233-0.518-0.955-0.791-1.888-0.725c-2.197,0.145-4.491,0.547-6.729,1.22
	c-0.714-1.753-1.367-3.54-1.955-5.358c1.177-0.199,2.494-0.351,4.139-0.507c0.652-0.004,1.359-0.186,1.965-0.492
	c0.666-0.337,1.164-0.799,1.365-1.265c0.107-0.253,0.138-0.5,0.067-0.73c-0.163-0.552-0.837-0.92-1.771-0.976
	c-2.217-0.131-4.541-0.017-6.838,0.368c-0.495-1.83-0.917-3.689-1.282-5.57c1.194-0.056,2.521-0.043,4.174,0.005
	c0.646,0.075,1.368-0.019,2.01-0.25c0.703-0.253,1.254-0.653,1.516-1.096c0.146-0.24,0.19-0.481,0.141-0.718
	c-0.128-0.563-0.718-1.021-1.641-1.192c-2.171-0.401-4.497-0.567-6.831-0.458c-0.278-1.88-0.492-3.776-0.636-5.688
	c1.195,0.085,2.513,0.253,4.15,0.496c0.628,0.153,1.354,0.146,2.016-0.009c0.734-0.171,1.336-0.506,1.654-0.918
	c0.176-0.223,0.252-0.458,0.236-0.7c-0.037-0.579-0.618-1.102-1.518-1.379c-2.106-0.656-4.398-1.093-6.734-1.251
	c-0.022-0.799-0.051-1.596-0.051-2.397c0-1.114,0.028-2.225,0.072-3.331c1.182,0.22,2.478,0.537,4.091,0.966
	c0.612,0.224,1.335,0.3,2.009,0.222c0.745-0.087,1.373-0.351,1.727-0.725c0.195-0.203,0.279-0.43,0.304-0.672
	c0.04-0.578-0.466-1.162-1.32-1.538c-2.031-0.892-4.268-1.587-6.573-2.011c0.165-1.911,0.415-3.8,0.711-5.676
	c1.143,0.356,2.387,0.818,3.925,1.426c0.582,0.291,1.292,0.45,1.973,0.45c0.758,0,1.401-0.185,1.807-0.516
	c0.214-0.174,0.346-0.392,0.384-0.63c0.09-0.568-0.37-1.21-1.157-1.677c-1.896-1.115-4.023-2.063-6.256-2.752
	c0.389-1.875,0.842-3.727,1.359-5.548c1.085,0.487,2.259,1.092,3.704,1.875c0.549,0.359,1.238,0.602,1.91,0.681
	c0.748,0.09,1.4-0.018,1.854-0.293c0.24-0.145,0.394-0.339,0.464-0.569c0.164-0.55-0.202-1.233-0.947-1.799
	c-1.751-1.33-3.745-2.526-5.872-3.482c0.61-1.813,1.275-3.598,2.013-5.34c1.02,0.622,2.116,1.371,3.466,2.331
	c0.495,0.423,1.147,0.749,1.807,0.913c0.723,0.183,1.401,0.158,1.86-0.061c0.244-0.12,0.424-0.288,0.523-0.503
	c0.238-0.518-0.033-1.235-0.703-1.886c-1.589-1.55-3.415-2.987-5.4-4.205c0.835-1.719,1.723-3.402,2.682-5.027
	c0.934,0.752,1.928,1.643,3.145,2.776c0.436,0.482,1.039,0.891,1.67,1.141c0.694,0.277,1.371,0.345,1.854,0.194
	c0.264-0.083,0.453-0.229,0.571-0.435c0.304-0.473,0.127-1.211-0.443-1.946c-1.367-1.737-2.994-3.418-4.807-4.899
	c1.056-1.585,2.178-3.11,3.355-4.582c0.821,0.878,1.678,1.899,2.725,3.192c0.363,0.537,0.9,1.022,1.492,1.361
	c0.22,0.125,0.432,0.193,0.646,0.27c9.525,11.497,15.259,26.245,15.259,42.306C141.755,92.334,135.266,107.932,124.625,119.713"/>
<g>
</g>
<g>
</g>
<g>
</g>
<g>
</g>
<g>
</g>
<g>
</g>
<g>
</g>
<g>
</g>
<g>
</g>
<g>
</g>
<g>
</g>
<g>
</g>
<g>
</g>
<g>
</g>
<g>
</g>
</svg>
