<?xml version="1.0" encoding="utf-8"?>
<!-- Generator: Adobe Illustrator 16.0.0, SVG Export Plug-In . SVG Version: 6.00 Build 0)  -->
<!DOCTYPE svg PUBLIC "-//W3C//DTD SVG 1.1//EN" "http://www.w3.org/Graphics/SVG/1.1/DTD/svg11.dtd">
<svg version="1.1" id="레이어_1" xmlns="http://www.w3.org/2000/svg" xmlns:xlink="http://www.w3.org/1999/xlink" x="0px"
	 y="0px" width="55px" height="300px" viewBox="0 0 55 300" enable-background="new 0 0 55 300" xml:space="preserve">
<path fill="#FFFFFF" stroke="#000000" stroke-miterlimit="10" d="M46.958,9.179c0-0.018,0-0.036,0-0.052
	c-0.021-2.175-0.886-4.195-2.444-5.693c-1.537-1.478-3.58-2.289-5.754-2.282L17.422,1.216c-2.174,0.006-4.213,0.828-5.741,2.314
	c-1.562,1.52-2.419,3.564-2.413,5.759c0.027,3.468,2.158,6.378,5.244,7.512L3.132,273.945l-0.003,0.133
	c0.001,0.051,0.001,0.103,0.001,0.153c0.123,13.262,10.969,23.993,24.249,23.956c13.332-0.037,24.147-10.917,24.109-24.248
	L41.729,16.733C44.825,15.588,46.968,12.673,46.958,9.179 M15.643,7.604c0.466-0.454,1.103-0.704,1.794-0.706l21.339-0.062
	c0.692-0.002,1.332,0.246,1.8,0.695c0.316,0.305,0.693,0.837,0.699,1.648c0.002,0.005,0.002,0.01,0.002,0.017
	c0.002,1.349-1.065,2.369-2.487,2.373l-2.942,0.009l-15.418,0.045l-2.978,0.008c-1.416,0.004-2.487-1.003-2.5-2.344
	c0-0.005,0-0.011,0-0.016C14.948,8.451,15.326,7.911,15.643,7.604 M38.021,68.878l-20.133,0.183l2.291-51.755l15.884-0.046
	L38.021,68.878z M45.807,274.001c0.003,10.179-8.261,18.477-18.445,18.504c-10.159,0.029-18.456-8.18-18.549-18.324
	c0-0.019,0-0.036,0-0.054l8.824-199.38l20.601-0.188L45.807,274.001z"/>
<g>
</g>
<g>
</g>
<g>
</g>
<g>
</g>
<g>
</g>
<g>
</g>
<g>
</g>
<g>
</g>
<g>
</g>
<g>
</g>
<g>
</g>
<g>
</g>
<g>
</g>
<g>
</g>
<g>
</g>
</svg>
