<?xml version="1.0" encoding="utf-8"?>
<!-- Generator: Adobe Illustrator 16.0.0, SVG Export Plug-In . SVG Version: 6.00 Build 0)  -->
<!DOCTYPE svg PUBLIC "-//W3C//DTD SVG 1.1//EN" "http://www.w3.org/Graphics/SVG/1.1/DTD/svg11.dtd">
<svg version="1.1" id="레이어_1" xmlns="http://www.w3.org/2000/svg" xmlns:xlink="http://www.w3.org/1999/xlink" x="0px"
	 y="0px" width="150px" height="150px" viewBox="0 0 150 150" enable-background="new 0 0 150 150" xml:space="preserve">
<path fill="#FFFFFF" stroke="#000000" stroke-miterlimit="10" d="M87.499,98.361c-6.516,0-11.819,5.303-11.819,11.82
	c0,6.516,5.303,11.818,11.819,11.818c6.518,0,11.82-5.303,11.82-11.818C99.319,103.664,94.017,98.361,87.499,98.361 M87.499,115.045
	c-2.682,0-4.864-2.183-4.864-4.863c0-2.685,2.183-4.866,4.864-4.866c2.684,0,4.865,2.182,4.865,4.866
	C92.364,112.862,90.183,115.045,87.499,115.045"/>
<path fill="#FFFFFF" stroke="#000000" stroke-miterlimit="10" d="M85.477,9.752c-21.019,0-38.949,7.542-51.847,21.812
	C21.946,44.488,15.358,62.189,14.985,81.571L4.919,89.12c-3.722,2.792-5.176,7.447-3.705,11.862
	c1.47,4.414,5.427,7.267,10.081,7.267H56.08v5.46c0,10.312,5.223,19.725,13.973,25.183c4.818,3.007,10.241,4.525,15.691,4.524
	c4.445,0,8.909-1.011,13.07-3.049l37.798-18.504c7.425-3.636,12.223-11.329,12.223-19.595V79.748c0-0.71-0.088-17.573-7.791-34.688
	C133.791,28.954,118.266,9.752,85.477,9.752 M141.879,102.269c0,5.632-3.269,10.872-8.327,13.349l-37.797,18.505
	c-7.092,3.471-15.326,3.05-22.023-1.13c-6.699-4.179-10.697-11.388-10.697-19.283v-12.414h-51.74c-2.455,0-3.288-1.922-3.484-2.511
	c-0.196-0.591-0.683-2.626,1.281-4.099l12.832-9.625v-1.739c0-39.221,26.134-66.614,63.554-66.614
	c23.267,0,39.8,10.437,49.141,31.02c7.15,15.765,7.262,31.863,7.262,32.021V102.269z"/>
<g>
</g>
<g>
</g>
<g>
</g>
<g>
</g>
<g>
</g>
<g>
</g>
<g>
</g>
<g>
</g>
<g>
</g>
<g>
</g>
<g>
</g>
<g>
</g>
<g>
</g>
<g>
</g>
<g>
</g>
</svg>
