<?xml version="1.0" encoding="utf-8"?>
<!-- Generator: Adobe Illustrator 16.0.0, SVG Export Plug-In . SVG Version: 6.00 Build 0)  -->
<!DOCTYPE svg PUBLIC "-//W3C//DTD SVG 1.1//EN" "http://www.w3.org/Graphics/SVG/1.1/DTD/svg11.dtd">
<svg version="1.1" id="레이어_1" xmlns="http://www.w3.org/2000/svg" xmlns:xlink="http://www.w3.org/1999/xlink" x="0px"
	 y="0px" width="152px" height="152px" viewBox="0 0 152 152" enable-background="new 0 0 152 152" xml:space="preserve">
<g>
	<g>
		<g>
			<path fill="#1A3B86" d="M40.829,139.147c-0.113,0-0.232-0.01-0.348-0.023c-13.444-1.879-24.147-12.582-26.027-26.028
				c-0.189-1.359,0.762-2.618,2.121-2.807c1.361-0.191,2.614,0.756,2.805,2.119c1.573,11.257,10.528,20.219,21.787,21.788
				c1.361,0.191,2.314,1.446,2.125,2.808C43.116,138.247,42.054,139.147,40.829,139.147z"/>
		</g>
	</g>
</g>
<g>
	<g>
		<g>
			<path fill="#1A3B86" d="M38.143,148.449c-0.068,0-0.136-0.001-0.206-0.007c-8.444-0.683-16.409-4.371-22.42-10.38
				c-6.009-6.012-9.698-13.974-10.38-22.422c-0.11-1.367,0.909-2.569,2.274-2.679c1.369-0.108,2.573,0.909,2.685,2.275
				c0.588,7.274,3.762,14.129,8.941,19.305c5.174,5.178,12.032,8.355,19.302,8.941c1.371,0.113,2.392,1.313,2.278,2.681
				C40.513,147.463,39.422,148.449,38.143,148.449z"/>
		</g>
	</g>
</g>
<g>
	<g>
		<g>
			<path fill="#1A3B86" d="M44.368,129.271c-0.14,0-0.295-0.011-0.44-0.041c-9.917-1.79-17.785-9.66-19.579-19.579
				c-0.25-1.352,0.648-2.645,2.003-2.89c1.352-0.242,2.641,0.653,2.885,2.007c1.429,7.887,7.688,14.145,15.577,15.569
				c1.35,0.246,2.244,1.539,2,2.891C46.598,128.429,45.549,129.271,44.368,129.271z"/>
		</g>
	</g>
</g>
<g>
	<g>
		<g>
			<path fill="#1A3B86" d="M47.893,119.336c-0.191,0-0.388-0.021-0.577-0.066c-6.386-1.514-11.492-6.622-13.011-13.004
				c-0.316-1.338,0.514-2.68,1.847-2.994c1.338-0.317,2.677,0.507,2.995,1.842c1.085,4.574,4.743,8.23,9.319,9.319
				c1.338,0.317,2.163,1.656,1.845,2.99C50.037,118.568,49.014,119.336,47.893,119.336z"/>
		</g>
	</g>
</g>
<g>
	<g>
		<g>
			<polygon fill="#3898B0" points="90.566,72.156 94.432,68.286 108.385,82.235 104.514,86.104 			"/>
		</g>
	</g>
</g>
<g>
	<g>
		<g>
			
				<rect x="74.816" y="89.254" transform="matrix(-0.7074 0.7068 -0.7068 -0.7074 202.4727 114.4188)" fill="#3898B0" width="5.476" height="19.726"/>
		</g>
	</g>
</g>
<g>
	<g>
		<g>
			
				<rect x="91.346" y="103.251" transform="matrix(-0.7067 0.7075 -0.7075 -0.7067 250.5605 157.5117)" fill="#3898B0" width="2.576" height="54.875"/>
		</g>
	</g>
</g>
<g>
	<g>
		<g>
			<polygon fill="#4AADC8" points="74.143,110.376 112.193,72.324 151.002,111.128 112.945,149.178 			"/>
		</g>
	</g>
</g>
<g opacity="0.2">
	<g>
		<g>
			<g>
				<g>
					<polygon fill="#251D1D" points="139.781,111.09 143.527,107.34 147.279,111.09 143.527,114.841 					"/>
				</g>
			</g>
		</g>
		<g>
			<g>
				<g>
					
						<rect x="135.774" y="113.541" transform="matrix(-0.7068 0.7074 -0.7074 -0.7068 318.4649 100.4033)" fill="#251D1D" width="5.305" height="5.307"/>
				</g>
			</g>
		</g>
		<g>
			<g>
				<g>
					
						<rect x="130.67" y="118.644" transform="matrix(-0.7073 0.7069 -0.7069 -0.7073 313.3651 112.8396)" fill="#251D1D" width="5.302" height="5.303"/>
				</g>
			</g>
		</g>
		<g>
			<g>
				<g>
					
						<rect x="125.569" y="123.747" transform="matrix(-0.7073 0.7069 -0.7069 -0.7073 308.2656 125.1561)" fill="#251D1D" width="5.305" height="5.303"/>
				</g>
			</g>
		</g>
		<g>
			<g>
				<g>
					<polygon fill="#251D1D" points="119.365,131.503 123.115,127.756 126.867,131.503 123.115,135.257 					"/>
				</g>
			</g>
		</g>
		<g>
			<g>
				<g>
					
						<rect x="115.363" y="133.954" transform="matrix(-0.7073 0.7069 -0.7069 -0.7073 298.0572 149.799)" fill="#251D1D" width="5.305" height="5.305"/>
				</g>
			</g>
		</g>
		<g>
			<g>
				<g>
					
						<rect x="110.256" y="139.059" transform="matrix(-0.707 0.7072 -0.7072 -0.707 292.9538 162.0541)" fill="#251D1D" width="5.304" height="5.304"/>
				</g>
			</g>
		</g>
	</g>
	<g>
		<g>
			<g>
				<g>
					
						<rect x="135.662" y="103.222" transform="matrix(-0.7072 0.707 -0.707 -0.7072 310.9841 82.956)" fill="#251D1D" width="5.305" height="5.303"/>
				</g>
			</g>
		</g>
		<g>
			<g>
				<g>
					
						<rect x="130.559" y="108.325" transform="matrix(-0.7071 0.7071 -0.7071 -0.7071 305.8776 95.2545)" fill="#251D1D" width="5.303" height="5.303"/>
				</g>
			</g>
		</g>
		<g>
			<g>
				<g>
					
						<rect x="125.457" y="113.429" transform="matrix(-0.707 0.7072 -0.7072 -0.707 300.7737 107.5547)" fill="#251D1D" width="5.301" height="5.304"/>
				</g>
			</g>
		</g>
		<g>
			<g>
				<g>
					
						<rect x="120.351" y="118.531" transform="matrix(-0.7075 0.7067 -0.7067 -0.7075 295.6705 119.9846)" fill="#251D1D" width="5.306" height="5.303"/>
				</g>
			</g>
		</g>
		<g>
			<g>
				<g>
					<polygon fill="#251D1D" points="114.148,126.289 117.896,122.538 121.65,126.289 117.896,130.037 					"/>
				</g>
			</g>
		</g>
		<g>
			<g>
				<g>
					<polygon fill="#251D1D" points="109.047,131.389 112.799,127.643 116.549,131.389 112.799,135.144 					"/>
				</g>
			</g>
		</g>
		<g>
			<g>
				<g>
					
						<rect x="105.04" y="133.843" transform="matrix(-0.7072 0.707 -0.707 -0.7072 280.3564 156.8842)" fill="#251D1D" width="5.305" height="5.304"/>
				</g>
			</g>
		</g>
	</g>
	<g>
		<g>
			<g>
				<g>
					<polygon fill="#251D1D" points="129.348,100.657 133.1,96.909 136.846,100.657 133.1,104.41 					"/>
				</g>
			</g>
		</g>
		<g>
			<g>
				<g>
					
						<rect x="125.343" y="103.107" transform="matrix(-0.7068 0.7074 -0.7074 -0.7068 293.277 89.9731)" fill="#251D1D" width="5.303" height="5.305"/>
				</g>
			</g>
		</g>
		<g>
			<g>
				<g>
					
						<rect x="120.238" y="108.212" transform="matrix(-0.7073 0.7069 -0.7069 -0.7073 288.1818 102.4017)" fill="#251D1D" width="5.305" height="5.302"/>
				</g>
			</g>
		</g>
		<g>
			<g>
				<g>
					<polygon fill="#251D1D" points="114.037,115.966 117.787,112.217 121.539,115.966 117.787,119.722 					"/>
				</g>
			</g>
		</g>
		<g>
			<g>
				<g>
					
						<rect x="110.033" y="118.419" transform="matrix(-0.7069 0.7073 -0.7073 -0.7069 277.9748 126.9592)" fill="#251D1D" width="5.302" height="5.305"/>
				</g>
			</g>
		</g>
		<g>
			<g>
				<g>
					
						<rect x="104.927" y="123.522" transform="matrix(-0.707 0.7072 -0.7072 -0.707 272.8721 139.3034)" fill="#251D1D" width="5.307" height="5.307"/>
				</g>
			</g>
		</g>
		<g>
			<g>
				<g>
					
						<rect x="99.822" y="128.626" transform="matrix(-0.7075 0.7067 -0.7067 -0.7075 267.7516 151.73)" fill="#251D1D" width="5.306" height="5.303"/>
				</g>
			</g>
		</g>
	</g>
	<g>
		<g>
			<g>
				<g>
					
						<rect x="125.23" y="92.79" transform="matrix(-0.7075 0.7067 -0.7067 -0.7075 285.8088 72.5841)" fill="#251D1D" width="5.306" height="5.303"/>
				</g>
			</g>
		</g>
		<g>
			<g>
				<g>
					<polygon fill="#251D1D" points="119.025,100.542 122.773,96.795 126.527,100.542 122.773,104.293 					"/>
				</g>
			</g>
		</g>
		<g>
			<g>
				<g>
					
						<rect x="115.022" y="102.996" transform="matrix(-0.7073 0.7069 -0.7069 -0.7073 275.5897 97.184)" fill="#251D1D" width="5.305" height="5.303"/>
				</g>
			</g>
		</g>
		<g>
			<g>
				<g>
					
						<rect x="109.919" y="108.099" transform="matrix(-0.707 0.7072 -0.7072 -0.707 270.4845 109.4449)" fill="#251D1D" width="5.304" height="5.305"/>
				</g>
			</g>
		</g>
		<g>
			<g>
				<g>
					
						<rect x="104.815" y="113.202" transform="matrix(-0.7068 0.7074 -0.7074 -0.7068 265.3794 121.7245)" fill="#251D1D" width="5.303" height="5.304"/>
				</g>
			</g>
		</g>
		<g>
			<g>
				<g>
					
						<rect x="99.714" y="118.305" transform="matrix(-0.7072 0.707 -0.707 -0.7072 260.2769 134.1256)" fill="#251D1D" width="5.303" height="5.305"/>
				</g>
			</g>
		</g>
		<g>
			<g>
				<g>
					<polygon fill="#251D1D" points="93.514,126.062 97.26,122.312 101.008,126.062 97.26,129.813 					"/>
				</g>
			</g>
		</g>
	</g>
	<g>
		<g>
			<g>
				<g>
					
						<rect x="120.013" y="87.572" transform="matrix(-0.7072 0.707 -0.707 -0.7072 273.2054 67.3047)" fill="#251D1D" width="5.305" height="5.305"/>
				</g>
			</g>
		</g>
		<g>
			<g>
				<g>
					
						<rect x="114.91" y="92.676" transform="matrix(-0.7069 0.7073 -0.7073 -0.7069 268.0915 79.5682)" fill="#251D1D" width="5.302" height="5.305"/>
				</g>
			</g>
		</g>
		<g>
			<g>
				<g>
					
						<rect x="109.807" y="97.781" transform="matrix(-0.7072 0.707 -0.707 -0.7072 262.9988 91.9476)" fill="#251D1D" width="5.305" height="5.304"/>
				</g>
			</g>
		</g>
		<g>
			<g>
				<g>
					
						<rect x="104.703" y="102.882" transform="matrix(-0.7073 0.7069 -0.7069 -0.7073 257.8915 104.2855)" fill="#251D1D" width="5.305" height="5.305"/>
				</g>
			</g>
		</g>
		<g>
			<g>
				<g>
					
						<rect x="99.595" y="107.985" transform="matrix(-0.7074 0.7068 -0.7068 -0.7074 252.7827 116.6291)" fill="#251D1D" width="5.31" height="5.307"/>
				</g>
			</g>
		</g>
		<g>
			<g>
				<g>
					
						<rect x="94.496" y="113.088" transform="matrix(-0.7071 0.7071 -0.7071 -0.7071 247.6818 128.8873)" fill="#251D1D" width="5.303" height="5.305"/>
				</g>
			</g>
		</g>
		<g>
			<g>
				<g>
					<polygon fill="#251D1D" points="88.291,120.845 92.049,117.096 95.791,120.845 92.049,124.595 					"/>
				</g>
			</g>
		</g>
	</g>
	<g>
		<g>
			<g>
				<g>
					
						<rect x="114.795" y="82.356" transform="matrix(-0.7071 0.7071 -0.7071 -0.7071 260.607 62.0706)" fill="#251D1D" width="5.306" height="5.305"/>
				</g>
			</g>
		</g>
		<g>
			<g>
				<g>
					<polygon fill="#251D1D" points="108.592,90.113 112.348,86.36 116.094,90.113 112.348,93.863 					"/>
				</g>
			</g>
		</g>
		<g>
			<g>
				<g>
					
						<rect x="104.59" y="92.563" transform="matrix(-0.7073 0.7069 -0.7069 -0.7073 250.4031 86.7475)" fill="#251D1D" width="5.305" height="5.305"/>
				</g>
			</g>
		</g>
		<g>
			<g>
				<g>
					
						<rect x="99.483" y="97.666" transform="matrix(-0.707 0.7072 -0.7072 -0.707 245.2946 99.0156)" fill="#251D1D" width="5.307" height="5.307"/>
				</g>
			</g>
		</g>
		<g>
			<g>
				<g>
					
						<rect x="94.382" y="102.77" transform="matrix(-0.7069 0.7073 -0.7073 -0.7069 240.1978 111.3159)" fill="#251D1D" width="5.307" height="5.306"/>
				</g>
			</g>
		</g>
		<g>
			<g>
				<g>
					<polygon fill="#251D1D" points="88.18,110.527 91.932,106.772 95.684,110.527 91.932,114.275 					"/>
				</g>
			</g>
		</g>
		<g>
			<g>
				<g>
					<polygon fill="#251D1D" points="83.072,115.629 86.828,111.879 90.58,115.629 86.828,119.378 					"/>
				</g>
			</g>
		</g>
	</g>
	<g>
		<g>
			<g>
				<g>
					
						<rect x="109.58" y="77.138" transform="matrix(-0.7072 0.707 -0.707 -0.7072 248.0165 56.8692)" fill="#251D1D" width="5.305" height="5.305"/>
				</g>
			</g>
		</g>
		<g>
			<g>
				<g>
					
						<rect x="104.473" y="82.242" transform="matrix(-0.7072 0.707 -0.707 -0.7072 242.9063 69.1905)" fill="#251D1D" width="5.305" height="5.304"/>
				</g>
			</g>
		</g>
		<g>
			<g>
				<g>
					
						<rect x="99.373" y="87.345" transform="matrix(-0.7071 0.7071 -0.7071 -0.7071 237.8041 81.4925)" fill="#251D1D" width="5.303" height="5.305"/>
				</g>
			</g>
		</g>
		<g>
			<g>
				<g>
					
						<rect x="94.266" y="92.45" transform="matrix(-0.7072 0.707 -0.707 -0.7072 232.6981 93.8342)" fill="#251D1D" width="5.305" height="5.304"/>
				</g>
			</g>
		</g>
		<g>
			<g>
				<g>
					
						<rect x="89.165" y="97.551" transform="matrix(-0.7069 0.7073 -0.7073 -0.7069 227.601 106.1001)" fill="#251D1D" width="5.307" height="5.307"/>
				</g>
			</g>
		</g>
		<g>
			<g>
				<g>
					
						<rect x="84.061" y="102.656" transform="matrix(-0.7074 0.7068 -0.7068 -0.7074 222.4867 118.5091)" fill="#251D1D" width="5.304" height="5.304"/>
				</g>
			</g>
		</g>
		<g>
			<g>
				<g>
					<polygon fill="#251D1D" points="77.863,110.413 81.607,106.659 85.363,110.413 81.607,114.164 					"/>
				</g>
			</g>
		</g>
	</g>
</g>
<g>
	<g>
		<g>
			
				<rect x="72.068" y="42.658" transform="matrix(-0.707 0.7072 -0.7072 -0.707 164.8344 36.757)" fill="#3898B0" width="5.47" height="19.729"/>
		</g>
	</g>
</g>
<g>
	<g>
		<g>
			
				<rect x="50.147" y="64.579" transform="matrix(-0.707 0.7072 -0.7072 -0.707 142.9193 89.6728)" fill="#3898B0" width="5.471" height="19.729"/>
		</g>
	</g>
</g>
<g>
	<g>
		<g>
			<g>
				<path fill="#F4BB26" d="M100.17,51.632c6.518,6.52,14.018,9.58,16.766,6.837c2.74-2.741-0.322-10.246-6.84-16.761
					c-6.512-6.52-14.023-9.578-16.762-6.837C90.592,37.611,93.65,45.117,100.17,51.632z"/>
			</g>
		</g>
	</g>
	<g>
		<g>
			<g>
				
					<rect x="96.006" y="33.764" transform="matrix(-0.7071 0.7072 -0.7072 -0.7071 208.6937 14.4517)" fill="#F4BB26" width="10.696" height="33.375"/>
			</g>
		</g>
	</g>
	<g>
		<g>
			<g>
				<path fill="#E1AC18" d="M92.607,59.193c6.518,6.52,14.02,9.58,16.766,6.839c2.742-2.744-0.32-10.249-6.838-16.764
					c-6.514-6.521-14.023-9.578-16.764-6.838C83.031,45.173,86.09,52.681,92.607,59.193z"/>
			</g>
		</g>
	</g>
</g>
<g>
	<g>
		<g>
			<g>
				<g>
					
						<rect x="74.083" y="52.68" transform="matrix(-0.7071 0.7071 -0.7071 -0.7071 193.7611 50.5157)" fill="#F4BB26" width="24.669" height="25.416"/>
				</g>
			</g>
		</g>
		<g>
			<g>
				<g>
					<path fill="#F4BB26" d="M91.354,60.448c4.963,4.963,10.682,7.293,12.771,5.205c2.086-2.09-0.24-7.804-5.205-12.77
						c-4.965-4.962-10.684-7.294-12.766-5.204C84.061,49.769,86.393,55.484,91.354,60.448z"/>
				</g>
			</g>
		</g>
	</g>
	<g>
		<g>
			<g>
				<path fill="#E1AC18" d="M73.91,77.892c4.965,4.964,10.68,7.293,12.771,5.206c2.086-2.089-0.25-7.803-5.211-12.766
					c-4.963-4.965-10.678-7.294-12.763-5.207C66.619,67.215,68.946,72.929,73.91,77.892z"/>
			</g>
		</g>
	</g>
</g>
<g>
	<g>
		<g>
			<g>
				<g>
					
						<rect x="53.907" y="72.849" transform="matrix(-0.7071 0.7071 -0.7071 -0.7071 173.5807 99.2205)" fill="#F4BB26" width="24.671" height="25.418"/>
				</g>
			</g>
		</g>
		<g>
			<g>
				<g>
					<path fill="#F4BB26" d="M71.184,80.617c4.968,4.963,10.685,7.293,12.767,5.206c2.09-2.087-0.238-7.803-5.201-12.768
						c-4.964-4.963-10.681-7.297-12.772-5.206C63.891,69.937,66.222,75.653,71.184,80.617z"/>
				</g>
			</g>
		</g>
	</g>
	<g>
		<g>
			<g>
				<path fill="#E1AC18" d="M53.74,98.062c4.964,4.963,10.685,7.293,12.766,5.206c2.092-2.087-0.238-7.803-5.205-12.768
					c-4.964-4.964-10.679-7.295-12.768-5.206C46.449,87.381,48.776,93.098,53.74,98.062z"/>
			</g>
		</g>
	</g>
</g>
<g>
	<g>
		<g>
			<g>
				<path fill="#F4BB26" d="M48.502,103.306c-0.877-0.879-2.301-0.879-3.172,0c-0.887,0.873-0.887,2.299,0,3.174
					c0.872,0.879,2.295,0.879,3.172,0C49.379,105.604,49.379,104.179,48.502,103.306z"/>
			</g>
		</g>
	</g>
	<g>
		<g>
			<g>
				<path fill="#F4BB26" d="M46.307,104.285l7.125-10.624l0,0l0,0l0,0l0,0c0.96-0.955,2.789-0.679,4.093,0.622
					c1.301,1.297,1.577,3.128,0.618,4.089l0,0l0,0l0,0l0,0l-10.625,7.127L46.307,104.285z"/>
			</g>
		</g>
	</g>
</g>
<g>
	<g>
		<g>
			
				<rect x="20.024" y="31.928" transform="matrix(-0.7071 0.7071 -0.7071 -0.7071 78.3583 86.2724)" fill="#3898B0" width="2.574" height="54.874"/>
		</g>
	</g>
</g>
<g>
	<g>
		<g>
			
				<rect x="14.341" y="11.991" transform="matrix(-0.7071 0.7071 -0.7071 -0.7071 98.2931 38.1378)" fill="#4AADC8" width="53.813" height="54.873"/>
		</g>
	</g>
</g>
<g opacity="0.2">
	<g>
		<g>
			<g>
				<g>
					<polygon fill="#251D1D" points="40.91,12.217 44.663,8.47 40.91,4.717 37.158,8.47 					"/>
				</g>
			</g>
		</g>
		<g>
			<g>
				<g>
					
						<rect x="33.152" y="10.919" transform="matrix(-0.7071 0.7072 -0.7072 -0.7071 70.7162 -2.1537)" fill="#251D1D" width="5.304" height="5.303"/>
				</g>
			</g>
		</g>
		<g>
			<g>
				<g>
					
						<rect x="28.051" y="16.023" transform="matrix(-0.7069 0.7073 -0.7073 -0.7069 65.6145 10.1597)" fill="#251D1D" width="5.303" height="5.304"/>
				</g>
			</g>
		</g>
		<g>
			<g>
				<g>
					
						<rect x="22.943" y="21.126" transform="matrix(-0.7069 0.7073 -0.7073 -0.7069 60.5088 22.4815)" fill="#251D1D" width="5.306" height="5.304"/>
				</g>
			</g>
		</g>
		<g>
			<g>
				<g>
					<polygon fill="#251D1D" points="20.49,32.633 24.243,28.882 20.49,25.129 16.744,28.882 					"/>
				</g>
			</g>
		</g>
		<g>
			<g>
				<g>
					
						<rect x="12.74" y="31.335" transform="matrix(-0.7071 0.7072 -0.7072 -0.7071 50.3088 47.1322)" fill="#251D1D" width="5.304" height="5.303"/>
				</g>
			</g>
		</g>
		<g>
			<g>
				<g>
					
						<rect x="7.634" y="36.435" transform="matrix(-0.7071 0.7072 -0.7072 -0.7071 45.1998 59.4507)" fill="#251D1D" width="5.304" height="5.305"/>
				</g>
			</g>
		</g>
	</g>
	<g>
		<g>
			<g>
				<g>
					
						<rect x="43.474" y="11.034" transform="matrix(-0.7069 0.7073 -0.7073 -0.7069 88.4098 -9.2692)" fill="#251D1D" width="5.303" height="5.301"/>
				</g>
			</g>
		</g>
		<g>
			<g>
				<g>
					
						<rect x="38.367" y="16.135" transform="matrix(-0.7069 0.7073 -0.7073 -0.7069 83.3044 3.0535)" fill="#251D1D" width="5.306" height="5.305"/>
				</g>
			</g>
		</g>
		<g>
			<g>
				<g>
					<polygon fill="#251D1D" points="35.914,27.641 39.666,23.892 35.914,20.142 32.167,23.892 					"/>
				</g>
			</g>
		</g>
		<g>
			<g>
				<g>
					
						<rect x="28.164" y="26.343" transform="matrix(-0.7069 0.7073 -0.7073 -0.7069 73.1071 27.6934)" fill="#251D1D" width="5.303" height="5.304"/>
				</g>
			</g>
		</g>
		<g>
			<g>
				<g>
					
						<rect x="23.055" y="31.446" transform="matrix(-0.7072 0.707 -0.707 -0.7072 67.9957 40.0403)" fill="#251D1D" width="5.306" height="5.306"/>
				</g>
			</g>
		</g>
		<g>
			<g>
				<g>
					
						<rect x="17.958" y="36.549" transform="matrix(-0.7072 0.7071 -0.7071 -0.7072 62.901 52.3503)" fill="#251D1D" width="5.304" height="5.305"/>
				</g>
			</g>
		</g>
		<g>
			<g>
				<g>
					
						<rect x="12.849" y="41.653" transform="matrix(-0.707 0.7072 -0.7072 -0.707 57.7948 64.6634)" fill="#251D1D" width="5.305" height="5.304"/>
				</g>
			</g>
		</g>
	</g>
	<g>
		<g>
			<g>
				<g>
					<polygon fill="#251D1D" points="51.337,22.65 55.095,18.9 51.337,15.149 47.592,18.9 					"/>
				</g>
			</g>
		</g>
		<g>
			<g>
				<g>
					
						<rect x="43.585" y="21.35" transform="matrix(-0.7072 0.707 -0.707 -0.7072 95.9059 8.2877)" fill="#251D1D" width="5.304" height="5.305"/>
				</g>
			</g>
		</g>
		<g>
			<g>
				<g>
					<polygon fill="#251D1D" points="41.131,32.859 44.889,29.105 41.131,25.358 37.381,29.105 					"/>
				</g>
			</g>
		</g>
		<g>
			<g>
				<g>
					
						<rect x="33.381" y="31.558" transform="matrix(-0.7069 0.7073 -0.7073 -0.7069 85.701 32.9041)" fill="#251D1D" width="5.303" height="5.304"/>
				</g>
			</g>
		</g>
		<g>
			<g>
				<g>
					
						<rect x="28.27" y="36.663" transform="matrix(-0.7072 0.707 -0.707 -0.7072 80.5885 45.2592)" fill="#251D1D" width="5.306" height="5.306"/>
				</g>
			</g>
		</g>
		<g>
			<g>
				<g>
					
						<rect x="23.173" y="41.766" transform="matrix(-0.7071 0.7072 -0.7072 -0.7071 75.4946 57.5622)" fill="#251D1D" width="5.304" height="5.304"/>
				</g>
			</g>
		</g>
		<g>
			<g>
				<g>
					
						<rect x="18.066" y="46.87" transform="matrix(-0.707 0.7072 -0.7072 -0.707 70.3904 69.8792)" fill="#251D1D" width="5.305" height="5.303"/>
				</g>
			</g>
		</g>
	</g>
	<g>
		<g>
			<g>
				<g>
					<polygon fill="#251D1D" points="56.555,27.868 60.311,24.117 56.555,20.365 52.804,24.117 					"/>
				</g>
			</g>
		</g>
		<g>
			<g>
				<g>
					
						<rect x="48.799" y="26.568" transform="matrix(-0.7071 0.7072 -0.7072 -0.7071 108.4959 13.4958)" fill="#251D1D" width="5.307" height="5.305"/>
				</g>
			</g>
		</g>
		<g>
			<g>
				<g>
					
						<rect x="43.692" y="31.671" transform="matrix(-0.7069 0.7073 -0.7073 -0.7069 103.3869 25.8045)" fill="#251D1D" width="5.308" height="5.306"/>
				</g>
			</g>
		</g>
		<g>
			<g>
				<g>
					
						<rect x="38.596" y="36.775" transform="matrix(-0.7069 0.7073 -0.7073 -0.7069 98.2942 38.12)" fill="#251D1D" width="5.306" height="5.304"/>
				</g>
			</g>
		</g>
		<g>
			<g>
				<g>
					
						<rect x="33.487" y="41.88" transform="matrix(-0.707 0.7072 -0.7072 -0.707 93.1858 50.454)" fill="#251D1D" width="5.308" height="5.304"/>
				</g>
			</g>
		</g>
		<g>
			<g>
				<g>
					<polygon fill="#251D1D" points="31.037,53.387 34.794,49.634 31.037,45.881 27.29,49.634 					"/>
				</g>
			</g>
		</g>
		<g>
			<g>
				<g>
					
						<rect x="23.284" y="52.087" transform="matrix(-0.707 0.7072 -0.7072 -0.707 82.9865 75.0939)" fill="#251D1D" width="5.305" height="5.304"/>
				</g>
			</g>
		</g>
	</g>
	<g>
		<g>
			<g>
				<g>
					<polygon fill="#251D1D" points="61.778,33.085 65.522,29.334 61.778,25.583 58.02,29.334 					"/>
				</g>
			</g>
		</g>
		<g>
			<g>
				<g>
					
						<rect x="54.017" y="31.784" transform="matrix(-0.7072 0.707 -0.707 -0.7072 121.095 18.7277)" fill="#251D1D" width="5.306" height="5.306"/>
				</g>
			</g>
		</g>
		<g>
			<g>
				<g>
					
						<rect x="48.913" y="36.888" transform="matrix(-0.707 0.7072 -0.7072 -0.707 115.9862 31.0247)" fill="#251D1D" width="5.305" height="5.304"/>
				</g>
			</g>
		</g>
		<g>
			<g>
				<g>
					
						<rect x="43.814" y="41.991" transform="matrix(-0.7071 0.7072 -0.7072 -0.7071 110.8895 43.35)" fill="#251D1D" width="5.304" height="5.305"/>
				</g>
			</g>
		</g>
		<g>
			<g>
				<g>
					
						<rect x="38.708" y="47.093" transform="matrix(-0.7072 0.707 -0.707 -0.7072 105.7807 55.6895)" fill="#251D1D" width="5.303" height="5.306"/>
				</g>
			</g>
		</g>
		<g>
			<g>
				<g>
					
						<rect x="33.605" y="52.196" transform="matrix(-0.7073 0.7069 -0.7069 -0.7073 100.6762 68.017)" fill="#251D1D" width="5.305" height="5.306"/>
				</g>
			</g>
		</g>
		<g>
			<g>
				<g>
					
						<rect x="28.502" y="57.305" transform="matrix(-0.7068 0.7074 -0.7074 -0.7068 95.5875 80.293)" fill="#251D1D" width="5.304" height="5.302"/>
				</g>
			</g>
		</g>
	</g>
	<g>
		<g>
			<g>
				<g>
					
						<rect x="64.338" y="31.898" transform="matrix(-0.7072 0.707 -0.707 -0.7072 138.7935 11.6253)" fill="#251D1D" width="5.303" height="5.304"/>
				</g>
			</g>
		</g>
		<g>
			<g>
				<g>
					
						<rect x="59.234" y="37" transform="matrix(-0.7072 0.707 -0.707 -0.7072 133.6903 23.9456)" fill="#251D1D" width="5.306" height="5.306"/>
				</g>
			</g>
		</g>
		<g>
			<g>
				<g>
					
						<rect x="54.131" y="42.106" transform="matrix(-0.707 0.7072 -0.7072 -0.707 128.5827 36.2402)" fill="#251D1D" width="5.305" height="5.304"/>
				</g>
			</g>
		</g>
		<g>
			<g>
				<g>
					
						<rect x="49.029" y="47.207" transform="matrix(-0.7071 0.7072 -0.7072 -0.7071 123.4814 48.5673)" fill="#251D1D" width="5.304" height="5.305"/>
				</g>
			</g>
		</g>
		<g>
			<g>
				<g>
					<polygon fill="#251D1D" points="46.576,58.714 50.326,54.966 46.576,51.212 42.823,54.966 					"/>
				</g>
			</g>
		</g>
		<g>
			<g>
				<g>
					<polygon fill="#251D1D" points="41.475,63.817 45.222,60.067 41.475,56.315 37.719,60.067 					"/>
				</g>
			</g>
		</g>
		<g>
			<g>
				<g>
					
						<rect x="33.719" y="62.519" transform="matrix(-0.7068 0.7074 -0.7074 -0.7068 108.1817 85.5036)" fill="#251D1D" width="5.304" height="5.304"/>
				</g>
			</g>
		</g>
	</g>
	<g>
		<g>
			<g>
				<g>
					
						<rect x="69.553" y="37.114" transform="matrix(-0.7071 0.7072 -0.7072 -0.7071 151.3788 16.8223)" fill="#251D1D" width="5.304" height="5.303"/>
				</g>
			</g>
		</g>
		<g>
			<g>
				<g>
					
						<rect x="64.449" y="42.219" transform="matrix(-0.7071 0.7072 -0.7072 -0.7071 146.28 29.1464)" fill="#251D1D" width="5.307" height="5.305"/>
				</g>
			</g>
		</g>
		<g>
			<g>
				<g>
					
						<rect x="59.347" y="47.32" transform="matrix(-0.7074 0.7068 -0.7068 -0.7074 141.1788 41.5048)" fill="#251D1D" width="5.304" height="5.306"/>
				</g>
			</g>
		</g>
		<g>
			<g>
				<g>
					
						<rect x="54.246" y="52.425" transform="matrix(-0.7069 0.7073 -0.7073 -0.7069 136.0775 53.7632)" fill="#251D1D" width="5.306" height="5.304"/>
				</g>
			</g>
		</g>
		<g>
			<g>
				<g>
					
						<rect x="49.141" y="57.528" transform="matrix(-0.7071 0.7072 -0.7072 -0.7071 130.9703 66.1057)" fill="#251D1D" width="5.304" height="5.305"/>
				</g>
			</g>
		</g>
		<g>
			<g>
				<g>
					
						<rect x="44.034" y="62.631" transform="matrix(-0.7072 0.7071 -0.7071 -0.7072 125.8614 78.4387)" fill="#251D1D" width="5.306" height="5.306"/>
				</g>
			</g>
		</g>
		<g>
			<g>
				<g>
					
						<rect x="38.936" y="67.734" transform="matrix(-0.7071 0.7072 -0.7072 -0.7071 120.7652 90.7453)" fill="#251D1D" width="5.302" height="5.305"/>
				</g>
			</g>
		</g>
	</g>
</g>
</svg>
