<?xml version="1.0" encoding="utf-8"?>
<!-- Generator: Adobe Illustrator 16.0.0, SVG Export Plug-In . SVG Version: 6.00 Build 0)  -->
<!DOCTYPE svg PUBLIC "-//W3C//DTD SVG 1.1//EN" "http://www.w3.org/Graphics/SVG/1.1/DTD/svg11.dtd">
<svg version="1.1" id="레이어_1" xmlns="http://www.w3.org/2000/svg" xmlns:xlink="http://www.w3.org/1999/xlink" x="0px"
	 y="0px" width="188px" height="252px" viewBox="0 0 188 252" enable-background="new 0 0 188 252" xml:space="preserve">
<g>
	<g>
		<polygon fill="#FFFFFF" points="3.073,57.869 37.324,89.304 35.915,90.711 34.51,92.117 		"/>
	</g>
	<g>
		<path fill="#DE5D3A" d="M4.751,56.196c-0.925-0.918-2.421-0.918-3.346,0c-0.921,0.926-0.921,2.423,0,3.344
			c0.925,0.927,2.421,0.927,3.346,0C5.672,58.619,5.672,57.123,4.751,56.196z"/>
	</g>
	<g>
		
			<rect x="30.113" y="84.723" transform="matrix(-0.7069 0.7073 -0.7073 -0.7069 121.0849 126.9956)" fill="#808080" width="8.237" height="7.723"/>
	</g>
	<polygon fill="#AEAFAE" points="148.46,127.301 126.163,189.096 133.65,240.573 119.874,240.573 103.855,186.661 117.184,127.301 	
		"/>
	<polygon fill="#F7CDAF" points="68.943,98.571 61.011,100.784 53.867,99.528 48.083,105.109 50.679,113.157 60.265,114.085 
		64.154,108.017 71.725,105.533 	"/>
	<polygon fill="#27859A" points="105.155,58.044 99.241,90.316 63.186,96.729 66.694,109.996 113.873,107.782 126.163,48.98 	"/>
	<polygon fill="#C4C5C4" points="161.629,127.301 146.819,184.926 155.519,240.573 141.729,240.573 122.716,186.661 
		130.355,127.301 	"/>
	<path fill="#999A99" d="M132.887,240.573h-13.781c0,0-11.333,2.609-11.333,10.427c11.296,0,25.114,0,25.114,0V240.573z"/>
	<path fill="#999A99" d="M155.519,240.573h-13.789c0,0-11.335,2.609-11.335,10.427c11.296,0,25.124,0,25.124,0V240.573z"/>
	<polygon fill="#F7CDAF" points="103.517,20.128 98.832,28.318 107.025,28.318 	"/>
	<polygon fill="#F7CDAF" points="117.491,51.631 129.769,51.631 120.54,29.911 108.26,29.911 	"/>
	<path fill="#F7CDAF" d="M104.508,2.756l25.337,7.052v22.912c0,3.519-2.854,6.375-6.372,6.375h-16.149l-6.18-30.264L104.508,2.756z"
		/>
	<path fill="#4AADC8" d="M118.697,44.062l13.147-2.6c6.66-0.926,12.807,3.713,13.737,10.362l17.165,81.051h-50.995l-7.959-56.958
		C101.642,60.482,103.26,46.225,118.697,44.062z"/>
	<path fill="#211613" d="M132.732,7.293c6.362,6.149,5.086,16.411-1.328,27.599c-1.56,0-4.125,0-4.125,0l-0.553-5.453
		c0,0,3.042-2.465,3.042-6.267c0-3.797-5.098-2.184-5.098-2.184l-0.863,4.019l-1.954-0.106c0,0,0-3.257,0-6.405
		c0-3.152-6.149-7.692-12.922-7.493c-6.779,0.199-10.339-0.529-11.604-1.873c-2.953-3.125,0.2-10.44,7.147-7.411
		C117.068,7.201,125.65,0.474,132.732,7.293z"/>
	<path fill="#333333" d="M130.826,99.335c-12.725-10.209-19.455-21.653-19.455-33.092c0-12.277,7.734-21.533,17.997-21.533
		c10.718,0,19.456,8.668,19.557,19.36l7.113,42.773l-4.472,0.743l-1.656,3.682C149.521,111.089,140.24,106.881,130.826,99.335z
		 M116.005,66.243c0,22.85,31.105,38.55,35.337,40.576l-7.013-42.17l-0.028-0.377c0-8.231-6.699-14.928-14.933-14.928
		C120.697,49.343,116.005,58.044,116.005,66.243z"/>
	<polygon fill="#F7CDAF" points="76.157,105.179 68.077,106.671 61.063,104.804 54.82,109.849 56.691,118.096 66.154,119.862 
		70.568,114.166 78.322,112.357 	"/>
	<path fill="#3D9FB8" d="M116.566,62.086c-1.668,7.241-8.626,37.58-8.626,37.58l-37.354,3.167l2.336,13.532l48.048,1.983
		c0,0,13.926-43.546,15.485-49.815c1.647-6.562,2.814-14.082-4.852-17.795C123.935,47.03,118.227,54.84,116.566,62.086z"/>
	<path fill="#666666" d="M187.125,104.615c0.977,5.329-2.58,10.493-7.912,11.474l-18.929,3.468
		c-5.334,0.981-10.493-2.582-11.46-7.917l-7.204-39.238l38.308-7.023L187.125,104.615z"/>
	<path fill="#4D4D4D" d="M138.709,56.305c-0.059-0.234-0.126-0.468-0.165-0.706c-1.941-10.581,5.059-20.726,15.64-22.668
		c10.57-1.936,20.72,5.066,22.665,15.642c0.039,0.239,0.06,0.479,0.098,0.727c0.057,0.224,0.115,0.459,0.154,0.699l2.827,15.38
		l-38.308,7.023l-2.809-15.376C138.758,56.785,138.729,56.544,138.709,56.305z"/>
	<g>
		<polygon fill="#666666" points="30.078,92.445 51.513,113.885 59.427,105.96 37.989,84.527 		"/>
	</g>
</g>
</svg>
