<?xml version="1.0" encoding="utf-8"?>
<!-- Generator: Adobe Illustrator 16.0.0, SVG Export Plug-In . SVG Version: 6.00 Build 0)  -->
<!DOCTYPE svg PUBLIC "-//W3C//DTD SVG 1.1//EN" "http://www.w3.org/Graphics/SVG/1.1/DTD/svg11.dtd">
<svg version="1.1" id="레이어_1" xmlns="http://www.w3.org/2000/svg" xmlns:xlink="http://www.w3.org/1999/xlink" x="0px"
	 y="0px" width="201px" height="201px" viewBox="0 0 201 201" enable-background="new 0 0 201 201" xml:space="preserve">
<path fill="#F5E828" d="M173.586,99.31c0,40.66-32.961,73.62-73.623,73.62c-40.665,0-73.622-32.96-73.622-73.62
	c0-40.654,32.957-73.616,73.622-73.616C140.625,25.693,173.586,58.656,173.586,99.31z"/>
<polygon fill="#F5E828" points="176.859,54.728 155.585,33.466 176.859,33.466 "/>
<polygon fill="#F5E828" points="188.728,103.972 182.533,74.536 200.348,86.158 "/>
<polygon fill="#F5E828" points="171.771,151.706 182.65,123.67 191.229,143.127 "/>
<polygon fill="#F5E828" points="131.487,182.422 155.911,164.879 152.463,185.866 "/>
<polygon fill="#F5E828" points="80.962,186.139 111.017,184.795 96.656,200.5 "/>
<polygon fill="#F5E828" points="36.623,161.663 62.515,176.953 41.928,182.263 "/>
<polygon fill="#F5E828" points="12.839,116.939 26.188,143.892 6.045,137.08 "/>
<polygon fill="#F5E828" points="17.362,66.478 13.818,96.349 0.652,79.639 "/>
<polygon fill="#F5E828" points="48.711,26.682 29.429,49.764 27.525,28.579 "/>
<polygon fill="#F5E828" points="96.713,10.481 67.94,19.281 77.932,0.5 "/>
<polygon fill="#F5E828" points="145.76,23.122 116.865,14.786 135.487,4.506 "/>
</svg>
