<?xml version="1.0" encoding="utf-8"?>
<!-- Generator: Adobe Illustrator 16.0.0, SVG Export Plug-In . SVG Version: 6.00 Build 0)  -->
<!DOCTYPE svg PUBLIC "-//W3C//DTD SVG 1.1//EN" "http://www.w3.org/Graphics/SVG/1.1/DTD/svg11.dtd">
<svg version="1.1" id="레이어_1" xmlns="http://www.w3.org/2000/svg" xmlns:xlink="http://www.w3.org/1999/xlink" x="0px"
	 y="0px" width="398px" height="200px" viewBox="0 0 398 200" enable-background="new 0 0 398 200" xml:space="preserve">
<path fill="#FFFFFF" d="M397.001,144.549c0,30.611-24.802,55.451-55.433,55.451H76.228c-41.549,0-75.229-33.713-75.229-75.269
	c0-41.534,33.68-75.229,75.229-75.229c6.146,0,12.07,0.816,17.777,2.192C107.873,21.205,138.554,0,174.258,0
	c35.231,0,65.636,20.685,79.72,50.594c7.082-3.223,14.94-5.069,23.215-5.069c27.048,0,49.603,19.032,55.137,44.412
	c3.005-0.505,6.087-0.83,9.239-0.83C372.199,89.106,397.001,113.918,397.001,144.549z"/>
</svg>
