<?xml version="1.0" encoding="utf-8"?>
<!-- Generator: Adobe Illustrator 16.0.0, SVG Export Plug-In . SVG Version: 6.00 Build 0)  -->
<!DOCTYPE svg PUBLIC "-//W3C//DTD SVG 1.1//EN" "http://www.w3.org/Graphics/SVG/1.1/DTD/svg11.dtd">
<svg version="1.1" id="레이어_1" xmlns="http://www.w3.org/2000/svg" xmlns:xlink="http://www.w3.org/1999/xlink" x="0px"
	 y="0px" width="150px" height="150px" viewBox="0 0 150 150" enable-background="new 0 0 150 150" xml:space="preserve">
<path fill="#FFFFFF" stroke="#000000" stroke-miterlimit="10" d="M136.514,92.361c-3.379,2.997-4.012,6.353-4.627,7.275
	l-0.336,0.357c0.961-2.31,1.809-4.684,2.506-7.136l-0.002-0.001c0.422-1.486,0.77-2.982,1.082-4.481
	c2.469-3.644,6.682,0.054,9.908-5.455c1.133-1.934,2.49-4.589,3.604-6.515c1.672-2.882-8.781-0.012-10.445,2.797
	c-2.334,3.244-2.227,6.264-2.58,7.181l-0.125,0.213c0.615-3.439,0.934-6.905,0.986-10.37c1.76-4.107,6.602-1.168,8.799-7.19
	c0.766-2.106,1.625-4.962,2.379-7.056c1.127-3.134-8.645,1.561-9.779,4.623c-1.713,3.61-1.066,6.562-1.248,7.526l-0.133,0.357
	c-0.043-3.619-0.402-7.227-1.053-10.797c0.842-4.53,6.262-2.506,7.23-8.902c0.336-2.215,0.615-5.183,0.939-7.387
	c0.484-3.293-8.164,3.241-8.672,6.464c-0.965,3.878,0.252,6.645,0.262,7.625l-0.076,0.492c-0.84-4.018-2.068-7.977-3.674-11.83
	c0.818-3.757,5.428-2.116,6.262-7.618c0.293-1.93,0.533-4.516,0.816-6.435c0.424-2.871-7.109,2.823-7.553,5.632
	c-0.842,3.377,0.219,5.788,0.229,6.641l-0.139,0.894c-0.75-1.729-1.563-3.439-2.467-5.12c-0.715-1.333-1.486-2.626-2.283-3.896
	c-0.23-3.574,4.297-3.238,3.674-8.344c-0.215-1.787-0.641-4.142-0.865-5.915c-0.336-2.653-5.613,4.265-5.313,6.869
	c0.088,3.207,1.625,5.083,1.844,5.84l0.076,0.626c-1.75-2.697-3.68-5.244-5.77-7.627c-1.063-3.487,3.494-4.114,1.777-8.992
	c-0.6-1.698-1.521-3.907-2.121-5.591c-0.9-2.517-4.564,5.375-3.707,7.852c0.777,3.114,2.682,4.615,3.061,5.305l0.18,0.518
	c-2.121-2.33-4.4-4.492-6.82-6.478c-1.555-3.221,2.76-4.684,0.193-9.197c-0.9-1.586-2.217-3.623-3.119-5.194
	c-1.35-2.352-3.586,6.182-2.285,8.499c1.334,2.966,3.504,4.122,4.008,4.742l0.197,0.352c-2.49-1.961-5.119-3.737-7.877-5.314
	c-1.951-2.522,1.561-4.535-1.447-7.997c-1.057-1.211-2.545-2.74-3.598-3.938c-1.57-1.792-2.02,5.956-0.494,7.729
	c1.668,2.327,3.738,2.945,4.279,3.395l0.158,0.184c-2.275-1.242-4.639-2.337-7.066-3.304l0.012-0.034
	c-2.24-1.786,0.473-4.146-2.729-6.557c-1.105-0.833-2.639-1.856-3.742-2.679c-1.648-1.232-0.635,5.392,0.971,6.613
	c1.826,1.666,3.686,1.815,4.223,2.097l0.146,0.11c-1.045-0.393-2.102-0.765-3.172-1.105c-2.264-0.721-4.566-1.298-6.887-1.76
	c-2.018-1.293-0.102-3.688-3.203-5.344c-1.096-0.584-2.594-1.278-3.684-1.854c-1.63-0.862,0.184,4.861,1.773,5.72
	c0.855,0.566,1.666,0.837,2.35,0.988c-0.781-0.119-1.561-0.237-2.344-0.326c-0.082-0.069-0.166-0.143-0.256-0.218
	c-0.855-0.735-2.285-1.967-4.956-1.363c-0.621,0.139-1.186,0.36-1.739,0.577c-0.754,0.296-1.467,0.575-2.004,0.482
	c-1.355-0.236-2.962-0.744-2.98-0.749L61.8,7.195l3.621,4.176c3.109,3.587,7.521,4.95,10.031,4.419
	c1.991-0.267,3.299-1.142,4.01-1.618c0.016-0.01,0.033-0.021,0.049-0.032c2.006,0.263,4.008,0.644,5.992,1.115l-0.238,0.034
	c-0.545-0.015-2.08-0.712-4.248-0.199c-1.799,0.26-5.5,5.033-3.66,4.788c1.229-0.166,2.885-0.301,4.121-0.472
	c3.51-0.488,2.525-3.423,4.891-3.936c1.156,0.293,2.307,0.607,3.443,0.97c2.887,0.918,5.676,2.046,8.357,3.363l-0.146-0.016
	c-0.643-0.182-2.244-1.474-4.965-1.526c-2.209-0.24-8.041,4.283-5.789,4.549c1.504,0.181,3.504,0.523,5.021,0.696
	c4.262,0.486,4.033-3.209,6.902-3.172c2.369,1.22,4.652,2.587,6.832,4.102c-0.139-0.058-0.264-0.122-0.41-0.175
	c-2.363-1.1-10.543,1.723-8.145,2.869c1.604,0.765,3.695,1.904,5.313,2.667c4.559,2.15,5.693-2.06,8.881-0.912
	c3.529,3.133,6.703,6.688,9.467,10.612l-0.068-0.044c-0.578-0.528-1.576-2.724-4.402-4.207c-2.191-1.415-10.682,0.266-8.461,1.729
	c1.484,0.978,3.402,2.39,4.9,3.366c4.16,2.713,5.873-1.151,8.795,0.243c1.168,1.737,2.264,3.54,3.27,5.413
	c1.492,2.774,2.748,5.64,3.795,8.563l-0.123-0.141c-0.443-0.722-0.826-3.301-3.316-5.69c-1.854-2.123-11.18-2.918-9.309-0.734
	c1.248,1.459,2.818,3.499,4.082,4.964c3.547,4.104,6.502,0.497,9.139,2.957c1.867,5.616,2.91,11.438,3.111,17.291l-0.215-0.412
	c-0.27-0.836-0.027-3.524-1.953-6.535c-1.35-2.586-10.541-5.656-9.189-3.003c0.902,1.774,1.984,4.209,2.902,5.99
	c2.572,4.997,6.43,2.076,8.484,5.207c0.061,4.294-0.34,8.596-1.199,12.835l-0.207-0.76c-0.088-0.87,0.717-3.45-0.529-6.798
	c-0.775-2.813-9.109-7.751-8.352-4.875c0.51,1.926,1.053,4.534,1.574,6.468c1.49,5.539,6.037,3.289,7.279,7.098
	c-0.033,0.155-0.061,0.311-0.096,0.467l-0.031,0.134c-0.217,0.926-0.455,1.848-0.717,2.768c-1.229,4.335-2.926,8.434-5.021,12.266
	l0.053-0.538c0.248-0.942,2.094-3.315,2.104-7.292c0.295-3.233-6.457-11.643-6.791-8.347c-0.225,2.205-0.676,5.138-0.893,7.356
	c-0.605,6.297,4.898,5.802,4.811,10.126c-3.408,5.869-7.805,11.047-13.025,15.344l0.273-0.446c0.725-0.837,3.789-2.339,5.781-6.39
	c1.912-3.154-0.787-15.096-2.771-11.9c-1.324,2.139-3.248,4.901-4.572,7.06c-3.799,6.184,2.234,8.403-0.207,12.861
	c-2.436,1.87-5.029,3.563-7.783,5.042c-2.756,1.479-5.602,2.709-8.506,3.708c-5.055-0.433-3.582-6.68-10.828-6.926
	c-2.531-0.087-5.898-0.009-8.414-0.083c-3.759-0.111,4.708,8.734,8.394,8.879c4.479,0.576,7.42-1.151,8.52-1.294l0.51,0.019
	c-5.742,1.761-11.701,2.588-17.71,2.471c-4.148-1.526-1.525-6.485-7.62-8.322c-2.135-0.644-5.02-1.337-7.143-1.967
	c-2.974-0.882,1.406,7.33,4.526,9.169c-2.181-0.435-4.355-0.98-6.511-1.668c-0.911-0.291-1.81-0.602-2.707-0.934l-0.124-0.045
	c-0.427-0.159-0.845-0.339-1.27-0.508c-2.137-3.428,2.552-5.436-0.717-10.167c-1.138-1.646-2.775-3.75-3.913-5.384
	c-1.704-2.439-3.331,7.111-1.685,9.522c1.747,3.117,4.232,4.171,4.842,4.803l0.603,0.877c-3.529-1.475-6.899-3.271-10.067-5.37
	c-2.042-3.389,2.565-5.402-0.683-10.104c-1.14-1.648-2.776-3.751-3.916-5.384c-1.702-2.441-3.329,7.111-1.684,9.52
	c1.748,3.119,4.233,4.174,4.842,4.805l0.215,0.313c-4.828-3.373-9.173-7.435-12.882-12.087c-0.281-3.546,4.224-3.285,3.526-8.351
	c-0.244-1.773-0.701-4.109-0.952-5.87c-0.375-2.63-5.519,4.328-5.176,6.914c0.136,3.188,1.695,5.03,1.924,5.777l0.106,0.783
	c-2.095-2.711-3.99-5.603-5.637-8.67c-0.776-1.444-1.476-2.914-2.131-4.397c0.051-3.507,4.479-2.899,4.206-7.984
	c-0.095-1.788-0.357-4.155-0.46-5.929c-0.154-2.654-5.859,3.853-5.733,6.457c-0.131,3.19,1.27,5.154,1.436,5.919l0.018,0.324
	c-1.914-4.583-3.257-9.326-4.02-14.141c0.168-3.683,4.682-2.66,4.761-7.83c0.027-1.787-0.074-4.167-0.055-5.945
	c0.021-2.105-3.815,1.282-5.441,4.079c0.007-2.052,0.119-4.105,0.335-6.153c1.49-2.516,4.52-0.306,6.389-4.192
	c0.663-1.375,1.439-3.25,2.089-4.62c0.974-2.047-5.962,0.476-6.937,2.474c-0.597,0.99-0.889,1.918-1.051,2.72
	c0.369-2.204,0.846-4.4,1.463-6.573c0.339-1.197,0.73-2.38,1.145-3.554c1.821-1.725,3.636,0.877,6.112-1.711
	c0.863-0.902,1.943-2.165,2.796-3.066c1.275-1.346-4.761-1.14-6.026,0.169c-1.684,1.458-2.015,3.108-2.325,3.56l-0.29,0.303
	c0.697-1.896,1.478-3.758,2.359-5.56c0.021-0.011,0.042-0.018,0.064-0.028c0.779-0.326,2.23-0.935,3.509-2.402
	c1.869-1.846,3.168-6.275,1.894-10.848l-1.484-5.326l-1.514,5.33c-0.116,0.397-0.533,1.778-1.019,2.889
	c-0.218,0.499-0.843,0.939-1.508,1.404c-0.482,0.339-0.979,0.688-1.44,1.131c-1.977,1.893-1.74,3.766-1.598,4.901
	c0.014,0.108,0.026,0.217,0.037,0.319c-0.859,1.689-1.636,3.427-2.343,5.198l0.005-0.271c0.1-0.534,1.03-1.927,0.874-4.134
	c0.032-1.807-4.057-6.2-4.109-4.356c-0.035,1.232-0.167,2.877-0.196,4.118c-0.083,3.565,3.037,3.006,3.088,5.515
	c-0.671,1.755-1.277,3.54-1.791,5.352c-0.262,0.923-0.496,1.85-0.716,2.779l-0.055-0.315c-0.004-0.606,0.713-2.33,0.068-4.715
	c-0.352-1.986-5.777-5.918-5.438-3.89c0.227,1.357,0.437,3.187,0.671,4.553c0.667,3.887,3.904,2.667,4.546,5.305
	c-0.63,2.849-1.075,5.719-1.313,8.599l-0.16-0.474c-0.11-0.694,0.414-2.792-0.738-5.411c-0.748-2.215-7.643-5.779-6.902-3.512
	c0.495,1.514,1.053,3.574,1.557,5.099c1.458,4.395,5.035,2.313,6.178,5.4c-0.21,3.2-0.177,6.404,0.09,9.59l-0.083-0.188
	c-0.195-0.775,0.186-3.205-1.385-6.053c-1.07-2.431-9.235-5.769-8.166-3.277c0.714,1.665,1.551,3.942,2.278,5.615
	c2.073,4.776,5.853,2.173,7.486,5.396c0.333,3.098,0.889,6.173,1.667,9.207l-0.355-0.469c-0.368-0.695-0.567-3.112-2.736-5.479
	c-1.59-2.082-10.195-3.382-8.592-1.244c1.072,1.432,2.405,3.419,3.49,4.855c3.138,4.149,6.193,0.625,8.519,3.525
	c0.831,3.002,1.879,5.96,3.143,8.856l-0.563-0.479c-0.509-0.602-1.225-2.92-3.852-4.763c-2.003-1.689-10.686-1.105-8.659,0.638
	c1.354,1.165,3.084,2.821,4.454,3.987c3.949,3.367,6.172-0.701,9.06,1.592c0.611,1.342,1.251,2.672,1.954,3.982
	c0.919,1.709,1.913,3.359,2.96,4.965l-0.931-0.428c-0.706-0.48-2.13-2.695-5.411-3.857c-2.588-1.183-11.493,1.956-8.867,3.188
	c1.757,0.824,4.046,2.049,5.816,2.871c5.1,2.364,6.244-2.509,9.913-0.981c2.366,3.513,5.037,6.759,7.976,9.71l-0.337-0.155
	c-0.811-0.552-2.445-3.092-6.214-4.428c-2.968-1.357-13.19,2.249-10.176,3.662c2.016,0.946,4.645,2.351,6.677,3.294
	c5.824,2.701,7.157-2.819,11.32-1.146c2.623,2.493,5.438,4.764,8.432,6.78l-0.442-0.107c-0.904-0.38-3.009-2.547-6.967-3.11
	c-3.178-0.744-12.485,4.811-9.251,5.601c2.163,0.529,5.019,1.387,7.197,1.91c6.263,1.501,6.455-4.22,10.91-3.356
	c2.886,1.832,5.915,3.451,9.084,4.813l-0.314-0.018c-0.958-0.212-3.417-1.969-7.412-1.813c-3.259-0.162-11.422,6.969-8.097,7.168
	c2.222,0.133,5.184,0.466,7.421,0.589c6.406,0.353,5.606-5.259,10.08-5.253c1.394,0.553,2.803,1.075,4.243,1.534
	c0.989,0.315,1.981,0.604,2.976,0.869c-1.271-0.174-2.779-0.218-4.507,0.104c-3.669,0.348-11.63,9.654-7.882,9.333
	c2.507-0.213,5.873-0.324,8.395-0.551c7.233-0.652,5.397-6.825,10.441-7.525c1.798,0.283,3.596,0.483,5.396,0.607
	c-0.589,0.134-1.197,0.297-1.834,0.535c-3.555,0.979-9.792,11.516-6.157,10.554c2.433-0.645,5.73-1.335,8.175-1.991
	c6.914-1.863,4.229-7.485,8.798-9.139c1.531-0.119,3.057-0.301,4.574-0.537c-3.266,2.14-7.143,12.845-3.846,11.301
	c2.275-1.069,5.396-2.336,7.684-3.422c6.553-3.11,2.717-8.256,7.18-10.662c2.875-1.025,5.689-2.273,8.426-3.743
	c2.809-1.508,5.467-3.219,7.967-5.108c4.473-2.397,6.645,3.646,12.855-0.102c2.168-1.31,4.949-3.212,7.098-4.521
	c3.139-1.916-8.188-4.625-11.652-2.979c1.039-1.146,2.035-2.331,2.984-3.556c4.514-2.401,6.629,3.696,12.885-0.008
	c2.18-1.292,4.975-3.169,7.133-4.46c3.227-1.932-8.67-4.825-11.854-2.962c-4.084,1.925-5.633,4.967-6.482,5.679l-0.639,0.376
	c2.49-3.404,4.643-7.074,6.408-10.979c3.645-3.495,7.379,1.7,12.324-3.593c1.729-1.85,3.883-4.438,5.592-6.284
	C151.277,89.115,139.045,89.681,136.514,92.361 M82.621,10.674c0.166,0.023,0.313,0.045,0.406,0.076
	C82.893,10.727,82.758,10.699,82.621,10.674 M15.359,63.188c-0.059,0.572-0.07,1.008-0.14,1.247l-0.058,0.119
	C15.218,64.1,15.292,63.645,15.359,63.188"/>
<g>
</g>
<g>
</g>
<g>
</g>
<g>
</g>
<g>
</g>
<g>
</g>
<g>
</g>
<g>
</g>
<g>
</g>
<g>
</g>
<g>
</g>
<g>
</g>
<g>
</g>
<g>
</g>
<g>
</g>
</svg>
