<?xml version="1.0" encoding="utf-8"?>
<!-- Generator: Adobe Illustrator 16.0.0, SVG Export Plug-In . SVG Version: 6.00 Build 0)  -->
<!DOCTYPE svg PUBLIC "-//W3C//DTD SVG 1.1//EN" "http://www.w3.org/Graphics/SVG/1.1/DTD/svg11.dtd">
<svg version="1.1" id="레이어_1" xmlns="http://www.w3.org/2000/svg" xmlns:xlink="http://www.w3.org/1999/xlink" x="0px"
	 y="0px" width="7680px" height="2560px" viewBox="0 0 7680 2560" enable-background="new 0 0 7680 2560" xml:space="preserve">
<path fill="#FFFFFF" stroke="#000000" stroke-miterlimit="10" d="M6158.179,1567.817c5.318-42.765-5.236-87.468-31.37-132.868
	c-25.451-44.217-65.976-89.629-120.449-134.976c-107.449-89.451-266.229-177.525-471.929-261.776
	c-205.692-84.249-447.932-160.433-719.987-226.435c-281.677-68.339-583.146-122.715-896.034-161.621
	c-336.405-41.832-663.215-63.042-971.354-63.042c-404.281,0-751.678,36.901-1004.632,106.714
	c-259.683,71.668-405.027,174.552-420.319,297.527c-5.317,42.766,5.238,87.469,31.37,132.868
	c25.45,44.214,65.975,89.626,120.449,134.976c107.446,89.447,266.227,177.521,471.931,261.776
	c205.687,84.247,447.925,160.432,719.985,226.436c281.681,68.338,583.15,122.715,896.035,161.619
	c336.417,41.832,663.228,63.043,971.354,63.043c404.278,0,751.675-36.901,1004.633-106.713
	C5997.543,1793.677,6142.887,1690.793,6158.179,1567.817z M5737.666,1864.621c-252.899,69.795-600.227,106.688-1004.434,106.688
	c-308.095,0-634.875-21.208-971.264-63.035c-619.049-76.979-1192.896-214.774-1615.83-388.007
	c-205.63-84.224-364.344-172.259-471.733-261.658c-111.108-92.494-162.098-182.384-151.554-267.174
	c15.247-122.646,160.402-225.313,419.772-296.897c252.903-69.796,600.231-106.688,1004.435-106.688
	c308.096,0,634.875,21.209,971.261,63.039c619.039,76.974,1192.885,214.77,1615.831,388.004
	c205.631,84.226,364.346,172.261,471.734,261.659c111.106,92.493,162.097,182.383,151.554,267.173
	C6142.188,1690.373,5997.033,1793.039,5737.666,1864.621z"/>
</svg>
