<?xml version="1.0" encoding="utf-8"?>
<!-- Generator: Adobe Illustrator 16.0.0, SVG Export Plug-In . SVG Version: 6.00 Build 0)  -->
<!DOCTYPE svg PUBLIC "-//W3C//DTD SVG 1.1//EN" "http://www.w3.org/Graphics/SVG/1.1/DTD/svg11.dtd">
<svg version="1.1" id="레이어_1" xmlns="http://www.w3.org/2000/svg" xmlns:xlink="http://www.w3.org/1999/xlink" x="0px"
	 y="0px" width="36px" height="36px" viewBox="0 0 36 36" enable-background="new 0 0 36 36" xml:space="preserve">
<path fill="#E70095" d="M11.588,6.793l-4.841,4.844c-3.444,3.444-3.444,9.021,0,12.466l4.841,4.847
	c3.444,3.433,9.019,3.433,12.456,0l4.849-4.847c3.449-3.444,3.449-9.021,0-12.466l-4.849-4.844
	C20.607,3.346,15.032,3.346,11.588,6.793z M17.827,28.785c-3.063,0-5.528-4.896-5.528-10.918c0-6.025,2.465-10.916,5.528-10.916
	c3.042,0,5.514,4.891,5.514,10.916C23.341,23.889,20.869,28.785,17.827,28.785z"/>
</svg>
