<?xml version="1.0" encoding="utf-8"?>
<!-- Generator: Adobe Illustrator 16.0.0, SVG Export Plug-In . SVG Version: 6.00 Build 0)  -->
<!DOCTYPE svg PUBLIC "-//W3C//DTD SVG 1.1//EN" "http://www.w3.org/Graphics/SVG/1.1/DTD/svg11.dtd">
<svg version="1.1" id="레이어_1" xmlns="http://www.w3.org/2000/svg" xmlns:xlink="http://www.w3.org/1999/xlink" x="0px"
	 y="0px" width="36px" height="36px" viewBox="0 0 36 36" enable-background="new 0 0 36 36" xml:space="preserve">
<path fill="#E70095" d="M30.91,15.199c-0.62-0.34-1.656-0.742-3.068-0.746c-1.328-0.004-2.947,0.311-4.342,0.846
	c-0.113,0.049-2.303,0.99-2.303,0.99l-0.102,0.037c-0.502,0.203-1.081,0.352-1.691,0.432c0.092-0.631,0.254-1.225,0.482-1.748
	c0,0,1.025-2.35,1.066-2.439c0.025-0.066,0.08-0.223,0.08-0.223l0.006,0.004c0.519-1.313,0.764-2.578,0.766-3.979
	c0.008-2.807-1.602-5.105-3.591-5.125c-1.125-0.008-2.171,0.715-2.867,1.988c-0.339,0.621-0.745,1.658-0.748,3.07
	c-0.004,1.092,0.25,2.439,0.693,3.695c0,0,0.151,0.424,0.181,0.504c0.102,0.242,1.054,2.463,1.073,2.5
	c0.217,0.512,0.373,1.111,0.458,1.752c-0.666-0.09-1.298-0.254-1.849-0.494c0,0-2.35-1.029-2.44-1.068
	c-0.066-0.023-0.222-0.08-0.222-0.08l0.005-0.006c-1.314-0.52-2.577-0.762-3.98-0.766c-2.808-0.008-5.105,1.604-5.125,3.588
	c-0.009,1.129,0.713,2.174,1.988,2.869c0.62,0.34,1.658,0.746,3.069,0.748c1.091,0.004,2.442-0.25,3.697-0.693
	c0,0,0.423-0.15,0.504-0.18c0.242-0.104,2.462-1.057,2.496-1.074c0.54-0.229,1.173-0.387,1.85-0.469
	c-0.084,0.609-0.236,1.182-0.44,1.674l-0.038,0.102c0,0-0.79,1.805-0.798,1.826c0,0-0.309,0.67-0.344,0.75
	c-0.555,1.363-0.887,2.912-0.891,4.145c-0.008,2.805,1.604,5.104,3.589,5.123c1.127,0.01,2.173-0.715,2.868-1.988
	c0.341-0.619,0.747-1.656,0.749-3.068c0.003-1.326-0.313-2.949-0.846-4.34c-0.049-0.115-0.992-2.305-0.992-2.305l-0.033-0.1
	c-0.217-0.529-0.367-1.145-0.444-1.787c0.573,0.088,1.108,0.23,1.573,0.424l0.103,0.039c0,0,1.803,0.791,1.825,0.799
	c0,0,0.669,0.307,0.75,0.342c1.363,0.557,2.911,0.891,4.145,0.895c2.806,0.008,5.104-1.604,5.124-3.59
	C32.909,16.943,32.184,15.896,30.91,15.199"/>
</svg>
