<?xml version="1.0" encoding="utf-8"?>
<!-- Generator: Adobe Illustrator 16.0.0, SVG Export Plug-In . SVG Version: 6.00 Build 0)  -->
<!DOCTYPE svg PUBLIC "-//W3C//DTD SVG 1.1//EN" "http://www.w3.org/Graphics/SVG/1.1/DTD/svg11.dtd">
<svg version="1.1" id="레이어_1" xmlns="http://www.w3.org/2000/svg" xmlns:xlink="http://www.w3.org/1999/xlink" x="0px"
	 y="0px" width="18px" height="18px" viewBox="0 0 18 18" enable-background="new 0 0 18 18" xml:space="preserve">
<path fill="#E70095" d="M5.779,4.819c0,1.241,0.666,2.396,1.739,3.018c1.023,0.594,0.768,1.295,0.609,1.569
	C7.969,9.68,7.491,10.255,6.469,9.663C5.941,9.355,5.342,9.192,4.731,9.192c-1.913,0-3.47,1.563-3.47,3.484
	c0,1.922,1.557,3.484,3.47,3.484c1.915,0,3.471-1.563,3.471-3.484c0-1.189,0.733-1.317,1.048-1.317c0.315,0,1.05,0.128,1.05,1.317
	c0,1.922,1.556,3.484,3.471,3.484c1.912,0,3.468-1.563,3.468-3.484c0-1.921-1.556-3.484-3.468-3.484
	c-0.611,0-1.213,0.163-1.738,0.47c-1.023,0.593-1.502,0.018-1.659-0.256c-0.083-0.143-0.208-0.432-0.12-0.757
	c0.081-0.307,0.328-0.579,0.73-0.811c1.07-0.622,1.736-1.778,1.736-3.019c0-1.919-1.556-3.484-3.47-3.484S5.779,2.899,5.779,4.819"
	/>
</svg>
