<?xml version="1.0" encoding="utf-8"?>
<!-- Generator: Adobe Illustrator 16.0.0, SVG Export Plug-In . SVG Version: 6.00 Build 0)  -->
<!DOCTYPE svg PUBLIC "-//W3C//DTD SVG 1.1//EN" "http://www.w3.org/Graphics/SVG/1.1/DTD/svg11.dtd">
<svg version="1.1" id="레이어_1" xmlns="http://www.w3.org/2000/svg" xmlns:xlink="http://www.w3.org/1999/xlink" x="0px"
	 y="0px" width="18px" height="18px" viewBox="0 0 18 18" enable-background="new 0 0 18 18" xml:space="preserve">
<path fill="#E70095" d="M4.25,4.603c-0.83,0.003-1.639,0.36-2.271,1C1.155,6.434,0.686,7.658,0.694,8.959
	c0.012,2.395,1.627,4.334,3.6,4.328h0.002c0.915-0.006,1.762-0.305,2.551-0.89l0.133-0.091c0,0-0.036-0.003-0.047-0.004
	c0.183-0.103,0.498-0.36,1.154-0.891l0.099-0.081V9.647H3.26V8.143h4.928V6.577L7.992,6.422C7.206,5.8,6.983,5.625,6.883,5.573
	c0.025,0.007,0.054,0.016,0.054,0.016L6.668,5.411C5.86,4.883,5,4.596,4.25,4.603 M13.586,4.502
	c-0.842,0.003-1.818,0.378-2.684,1.028c0,0,0.026,0.001,0.03,0.001c-0.099,0.062-0.218,0.158-0.422,0.332l0.013-0.002
	c-0.096,0.064-0.217,0.161-0.416,0.328L9.691,6.527v1.615h4.93v1.505h-4.93l0.002,1.641l1.183,0.936
	c0.866,0.617,1.868,0.97,2.756,0.964c0.829-0.004,1.638-0.361,2.273-1.002c0.815-0.823,1.284-2.038,1.284-3.334
	C17.18,6.445,15.561,4.493,13.586,4.502 M9.691,3.214v3.048c0,0,0.687-0.558,0.693-0.559l0.373-0.318
	c0.912-0.687,1.941-1.084,2.826-1.091c2.088-0.007,3.797,2.025,3.812,4.529c0.006,1.358-0.484,2.636-1.344,3.507
	c-0.675,0.678-1.538,1.056-2.42,1.063c-0.922,0.004-1.973-0.363-2.874-1L9.691,11.55v3.026H8.187v-2.987l-1.044,0.853
	c0,0.002-0.151,0.108-0.151,0.108C6.14,13.175,5.258,13.486,4.3,13.492c-2.087,0.006-3.799-2.026-3.812-4.531V8.927
	c0-1.34,0.489-2.605,1.344-3.467c0.677-0.684,1.534-1.061,2.42-1.063c0.791-0.009,1.686,0.291,2.53,0.843
	c0,0,0.287,0.19,0.271,0.179l1.134,0.898V3.214H9.691z"/>
</svg>
