<?xml version="1.0" encoding="utf-8"?>
<!-- Generator: Adobe Illustrator 16.0.0, SVG Export Plug-In . SVG Version: 6.00 Build 0)  -->
<!DOCTYPE svg PUBLIC "-//W3C//DTD SVG 1.1//EN" "http://www.w3.org/Graphics/SVG/1.1/DTD/svg11.dtd">
<svg version="1.1" id="레이어_1" xmlns="http://www.w3.org/2000/svg" xmlns:xlink="http://www.w3.org/1999/xlink" x="0px"
	 y="0px" width="18px" height="18px" viewBox="0 0 18 18" enable-background="new 0 0 18 18" xml:space="preserve">
<path fill="#E70095" d="M13.057,10.371H9.655v3.425H8.346v-3.425H4.944c-0.756,0-1.371-0.615-1.371-1.369
	c0-0.757,0.615-1.372,1.371-1.372h3.401V4.205h1.309V7.63h3.402c0.757,0,1.371,0.615,1.371,1.372
	C14.428,9.756,13.813,10.371,13.057,10.371 M9,1.511c-4.136,0-7.49,3.354-7.49,7.49c0,4.137,3.354,7.491,7.49,7.491
	c4.136,0,7.489-3.354,7.489-7.491C16.489,4.865,13.137,1.511,9,1.511"/>
</svg>
