<?xml version="1.0" encoding="utf-8"?>
<!-- Generator: Adobe Illustrator 16.0.0, SVG Export Plug-In . SVG Version: 6.00 Build 0)  -->
<!DOCTYPE svg PUBLIC "-//W3C//DTD SVG 1.1//EN" "http://www.w3.org/Graphics/SVG/1.1/DTD/svg11.dtd">
<svg version="1.1" id="레이어_1" xmlns="http://www.w3.org/2000/svg" xmlns:xlink="http://www.w3.org/1999/xlink" x="0px"
	 y="0px" width="18px" height="18px" viewBox="0 0 18 18" enable-background="new 0 0 18 18" xml:space="preserve">
<path fill="#E70095" d="M2.205,10.36c0.247,0.002,0.526-0.076,0.783-0.219l0.093-0.051l0.441-0.29V9.798
	C3.616,9.739,3.745,9.702,3.88,9.702c0.128,0,0.253,0.04,0.344,0.099l0.012,0.008l0.311,0.203l0.133,0.095
	c0.276,0.178,0.598,0.281,0.866,0.281c0.272,0,0.513-0.097,0.71-0.26l0.075-0.037l0.429-0.29l0.008-0.003
	c0.093-0.059,0.219-0.096,0.356-0.096c0.13,0,0.256,0.04,0.349,0.099l0.014,0.008l0.301,0.203l0.14,0.095
	c0.024,0.021,0.046,0.031,0.078,0.051l0.208,0.305l0.003,0.005c0.057,0.096,0.097,0.219,0.097,0.362c0,0.129-0.04,0.254-0.1,0.343
	L8.208,11.19L8,11.488l-0.094,0.135c-0.167,0.281-0.275,0.596-0.282,0.871c0,0.237,0.076,0.457,0.204,0.634
	c0.014,0.036,0.029,0.071,0.05,0.107l0.051,0.098l0.286,0.427l0.003,0.011c0.057,0.089,0.097,0.218,0.097,0.358
	c0,0.127-0.04,0.245-0.1,0.346l-0.007,0.011L8,14.79l-0.094,0.137c-0.167,0.278-0.275,0.596-0.282,0.863
	c0,0.62,0.52,1.136,1.161,1.136c0.645,0.004,1.167-0.499,1.176-1.121c0-0.28-0.105-0.609-0.269-0.892L9.63,14.815l-0.201-0.305
	L9.423,14.5c-0.062-0.092-0.101-0.217-0.101-0.358v-0.013c0-0.136,0.04-0.258,0.103-0.354l0.004-0.004l0.29-0.427l0.026-0.05
	l-0.003,0.009c0.17-0.282,0.248-0.551,0.248-0.833c0-0.198-0.062-0.381-0.155-0.544c-0.032-0.109-0.078-0.211-0.143-0.315
	L9.63,11.517l-0.201-0.305l-0.006-0.01c-0.062-0.095-0.101-0.218-0.101-0.354v-0.012c0-0.14,0.04-0.262,0.103-0.354l0.004-0.01
	l0.29-0.428l0.011-0.021l0.326-0.222l0.004-0.003c0.1-0.059,0.229-0.096,0.362-0.096c0.132,0,0.254,0.04,0.35,0.099l0.015,0.008
	l0.301,0.203l0.134,0.095c0.275,0.178,0.594,0.281,0.869,0.281c0.233,0,0.456-0.071,0.631-0.193c0.04-0.021,0.076-0.033,0.105-0.053
	l0.099-0.051l0.427-0.29l0.01-0.003c0.095-0.059,0.219-0.096,0.359-0.096c0.125,0,0.252,0.04,0.348,0.099l0.011,0.008l0.304,0.203
	l0.133,0.095c0.283,0.178,0.594,0.281,0.867,0.281c0.627,0.003,1.135-0.512,1.135-1.153c0.011-0.648-0.493-1.171-1.12-1.171
	c-0.279,0-0.609,0.098-0.896,0.262L14.413,8.39l-0.305,0.197l-0.015,0.012C14,8.657,13.878,8.698,13.739,8.698h-0.011
	c-0.14-0.004-0.266-0.041-0.354-0.105l-0.013-0.006l-0.422-0.283l-0.05-0.029H12.9c-0.283-0.169-0.551-0.239-0.837-0.245
	c-0.194-0.005-0.379,0.056-0.538,0.146c-0.107,0.042-0.217,0.089-0.319,0.151l-0.09,0.063l-0.309,0.197l-0.013,0.012
	c-0.09,0.058-0.216,0.099-0.354,0.099h-0.009c-0.139-0.004-0.262-0.041-0.361-0.105V8.586L9.711,8.348
	C9.705,8.329,9.694,8.32,9.694,8.32L9.63,8.222L9.429,7.919L9.423,7.902c-0.062-0.09-0.101-0.211-0.101-0.352V7.533
	c0-0.132,0.04-0.262,0.103-0.35l0.004-0.005l0.29-0.43l0.026-0.048L9.741,6.708c0.17-0.279,0.248-0.551,0.248-0.832
	c0-0.24-0.088-0.471-0.223-0.658C9.745,5.172,9.719,5.118,9.691,5.072L9.63,4.979L9.429,4.675L9.423,4.658
	C9.361,4.565,9.322,4.443,9.322,4.313V4.292c0-0.137,0.04-0.258,0.103-0.359L9.429,3.93l0.29-0.424L9.745,3.46L9.741,3.467
	c0.17-0.286,0.248-0.554,0.248-0.833C9.992,2.006,9.468,1.5,8.832,1.5C8.182,1.494,7.663,1.998,7.655,2.61
	c0,0.248,0.087,0.531,0.223,0.788l0.051,0.094l0.286,0.434L8.218,3.93c0.057,0.088,0.097,0.214,0.097,0.352
	c0,0.132-0.04,0.259-0.1,0.353L8.208,4.649L8,4.95L7.906,5.086C7.739,5.362,7.631,5.681,7.624,5.949
	c0,0.272,0.107,0.512,0.265,0.713L7.929,6.73l0.286,0.438l0.003,0.003C8.275,7.266,8.315,7.39,8.315,7.532
	c0,0.126-0.04,0.251-0.1,0.345L8.208,7.892L8,8.194L7.914,8.32L7.906,8.326L7.817,8.39L7.512,8.586L7.498,8.599
	C7.405,8.657,7.279,8.698,7.143,8.698H7.129C6.997,8.693,6.865,8.657,6.778,8.593l-0.01-0.006L6.345,8.303L6.294,8.274h0.008
	C6.019,8.105,5.754,8.035,5.471,8.029C5.228,8.024,5.002,8.113,4.814,8.246c-0.045,0.028-0.1,0.051-0.149,0.08L4.574,8.39
	L4.27,8.586L4.252,8.599C4.164,8.657,4.038,8.698,3.895,8.698H3.882C3.75,8.693,3.626,8.657,3.536,8.593l-0.01-0.006L3.095,8.303
	L3.052,8.274H3.06C2.777,8.105,2.508,8.035,2.221,8.029C1.602,8.024,1.096,8.547,1.096,9.191C1.094,9.837,1.587,10.36,2.205,10.36z"
	/>
</svg>
