<?xml version="1.0" encoding="utf-8"?>
<!-- Generator: Adobe Illustrator 16.0.0, SVG Export Plug-In . SVG Version: 6.00 Build 0)  -->
<!DOCTYPE svg PUBLIC "-//W3C//DTD SVG 1.1//EN" "http://www.w3.org/Graphics/SVG/1.1/DTD/svg11.dtd">
<svg version="1.1" id="레이어_1" xmlns="http://www.w3.org/2000/svg" xmlns:xlink="http://www.w3.org/1999/xlink" x="0px"
	 y="0px" width="18px" height="18px" viewBox="0 0 18 18" enable-background="new 0 0 18 18" xml:space="preserve">
<path fill="#E70095" d="M13.378,11.771c-0.521-0.003-1.177-0.262-1.754-0.695c-0.035-0.029-0.317-0.269-0.317-0.269
	c-0.01-0.008-0.772-0.625-0.772-0.625l-0.056-0.037l0.042,0.03c-0.343-0.273-0.784-0.426-1.24-0.429
	c-0.457-0.003-0.899,0.146-1.247,0.417c-0.014,0.015-0.953,0.757-1.056,0.838c-0.034,0.023-0.212,0.142-0.212,0.142
	c-0.532,0.347-1.103,0.545-1.564,0.543c-0.598-0.004-1.036-0.32-1.3-0.584c-0.54-0.545-0.846-1.361-0.84-2.242
	C3.069,7.31,4.042,6.053,5.229,6.058C5.822,6.061,6.358,6.25,6.913,6.656L6.911,6.66c0,0,0.067,0.044,0.094,0.064
	c0.038,0.031,1.032,0.832,1.032,0.832C8.397,7.847,8.838,8,9.293,8.002c0.018,0,0.06-0.001,0.06-0.001
	c0.438,0.002,0.88-0.145,1.228-0.418l-0.045,0.032l0.057-0.037c0,0,0.927-0.736,0.976-0.774c0.589-0.417,1.274-0.664,1.837-0.66
	c0.596,0.003,1.035,0.319,1.298,0.584c0.539,0.543,0.846,1.359,0.841,2.241C15.538,10.521,14.564,11.777,13.378,11.771 M11.43,1.323
	H7.178c-3.019,0-5.466,2.447-5.466,5.466v4.252c0,3.018,2.447,5.466,5.466,5.466h4.252c3.018,0,5.465-2.448,5.465-5.466V6.789
	C16.896,3.77,14.448,1.323,11.43,1.323"/>
</svg>
