<?xml version="1.0" encoding="utf-8"?>
<!-- Generator: Adobe Illustrator 16.0.0, SVG Export Plug-In . SVG Version: 6.00 Build 0)  -->
<!DOCTYPE svg PUBLIC "-//W3C//DTD SVG 1.1//EN" "http://www.w3.org/Graphics/SVG/1.1/DTD/svg11.dtd">
<svg version="1.1" id="레이어_1" xmlns="http://www.w3.org/2000/svg" xmlns:xlink="http://www.w3.org/1999/xlink" x="0px"
	 y="0px" width="36px" height="36px" viewBox="0 0 36 36" enable-background="new 0 0 36 36" xml:space="preserve">
<path fill="#E70095" d="M7.665,14.164c-3.209-1.541-2.434-5.402-0.019-6.325c2.649-1.011,5.664,1.793,8.365,1.544
	c3.44-0.317,3.69-2.037,5.151-4.145c1.397-2.018,7.054-0.869,4.26,3.9c-1.171,1.999-2.263,4.108,2.504,4.365
	c3.227,0.174,3.831,4.379-0.886,5.05c-3.983,0.569-4.133,2.807-2.74,4.2c1.147,1.146,4.548,3.428,5.187,4.275
	c1.738,2.318-0.867,5.475-3.914,3.932c-2.229-1.131-4.444-3.348-6.731-3.436c-3.574-0.139-4.325,1.722-5.786,3.041
	c-3.008,2.717-6.282,0.082-6.282-2.513c0-5.043,6.641-5.017,6.354-9.117C12.902,15.719,10.131,15.347,7.665,14.164"/>
</svg>
