<?xml version="1.0" encoding="utf-8"?>
<!-- Generator: Adobe Illustrator 16.0.0, SVG Export Plug-In . SVG Version: 6.00 Build 0)  -->
<!DOCTYPE svg PUBLIC "-//W3C//DTD SVG 1.1//EN" "http://www.w3.org/Graphics/SVG/1.1/DTD/svg11.dtd">
<svg version="1.1" id="레이어_1" xmlns="http://www.w3.org/2000/svg" xmlns:xlink="http://www.w3.org/1999/xlink" x="0px"
	 y="0px" width="36px" height="36px" viewBox="0 0 36 36" enable-background="new 0 0 36 36" xml:space="preserve">
<path fill="#666666" d="M21.625,14.588V9.612c0-1.912-1.559-3.462-3.466-3.462c-1.918,0-3.465,1.55-3.465,3.462v4.976H9.582
	c-1.817,0-3.273,1.394-3.441,3.159v0.605c0.168,1.769,1.624,3.171,3.441,3.171h5.112v4.97c0,1.907,1.547,3.465,3.465,3.465
	c1.907,0,3.466-1.558,3.466-3.465v-4.97h4.832c1.912,0,3.465-1.563,3.465-3.478c0-1.906-1.553-3.459-3.465-3.459L21.625,14.588
	L21.625,14.588z M27.206,18.047c0,0.42-0.336,0.756-0.749,0.756h-7.542v7.69c0,0.407-0.342,0.745-0.756,0.745
	c-0.418,0-0.761-0.338-0.761-0.745v-7.69H9.582c-0.427,0-0.762-0.336-0.762-0.756c0-0.414,0.335-0.743,0.762-0.743h7.816V9.612
	c0-0.419,0.343-0.755,0.761-0.755c0.414,0,0.756,0.336,0.756,0.755v7.691h7.542C26.87,17.304,27.206,17.633,27.206,18.047z"/>
<path fill="#666666" d="M21.67,4.133h-7.277C8.74,4.133,4.136,8.737,4.136,14.4v7.269c0,0.028,0.002,0.062,0.002,0.09
	c0.049,5.62,4.632,10.177,10.255,10.177h7.277c5.659,0,10.258-4.604,10.258-10.267V14.4C31.928,8.737,27.329,4.133,21.67,4.133z
	 M30.123,21.668c0,4.664-3.794,8.458-8.453,8.458h-7.277c-4.658,0-8.452-3.794-8.452-8.458v-3.315v-0.605V14.4
	c0-4.67,3.794-8.447,8.452-8.447h7.277c4.659,0,8.453,3.777,8.453,8.447V21.668z"/>
</svg>
