<?xml version="1.0" encoding="utf-8"?>
<!-- Generator: Adobe Illustrator 16.0.0, SVG Export Plug-In . SVG Version: 6.00 Build 0)  -->
<!DOCTYPE svg PUBLIC "-//W3C//DTD SVG 1.1//EN" "http://www.w3.org/Graphics/SVG/1.1/DTD/svg11.dtd">
<svg version="1.1" id="레이어_1" xmlns="http://www.w3.org/2000/svg" xmlns:xlink="http://www.w3.org/1999/xlink" x="0px"
	 y="0px" width="36px" height="36px" viewBox="0 0 36 36" enable-background="new 0 0 36 36" xml:space="preserve">
<path fill="#666666" d="M1.003,18.095c0,0,4.295,2.629,8.83,3.321c0,0,2.938,0.238,5.145-1.049c0,0,2.262-1.489,6.124-0.123
	l0.146,0.061c2.217,1.17,5.335,0.957,5.335,0.957C31.025,20.486,35,17.78,35,17.78l-0.005-0.069c0,0-4.297-2.632-8.831-3.322
	c0,0-3.143-0.155-5.213,1.052l-0.139,0.064c-3.691,1.436-6.133-0.011-6.133-0.011c-2.356-1.247-5.262-0.951-5.262-0.951
	C4.971,15.319,1,18.026,1,18.026L1.003,18.095z"/>
</svg>
