<?xml version="1.0" encoding="utf-8"?>
<!-- Generator: Adobe Illustrator 16.0.0, SVG Export Plug-In . SVG Version: 6.00 Build 0)  -->
<!DOCTYPE svg PUBLIC "-//W3C//DTD SVG 1.1//EN" "http://www.w3.org/Graphics/SVG/1.1/DTD/svg11.dtd">
<svg version="1.1" id="레이어_1" xmlns="http://www.w3.org/2000/svg" xmlns:xlink="http://www.w3.org/1999/xlink" x="0px"
	 y="0px" width="18px" height="18px" viewBox="0 0 18 18" enable-background="new 0 0 18 18" xml:space="preserve">
<path fill="#666666" d="M12.21,16.913c0-2.144-1.606-2.75-1.606-3.976c0-1.203,1.572-1.822,1.601-3.912h0.007
	c0-0.009,0-0.013,0-0.013c0-0.024,0-0.035,0-0.035l-0.007-0.01c-0.027-2.087-1.601-2.698-1.601-3.904
	c0-1.217,1.606-1.837,1.606-3.978H5.791c0,2.141,1.606,2.75,1.606,3.978c0,1.206-1.567,1.817-1.599,3.904H5.791c0,0,0,0.021,0,0.029
	c0,0,0,0.02,0,0.029h0.007c0.031,2.087,1.599,2.701,1.599,3.912c0,1.226-1.606,1.836-1.606,3.976H12.21z"/>
</svg>
