<?xml version="1.0" encoding="utf-8"?>
<!-- Generator: Adobe Illustrator 16.0.0, SVG Export Plug-In . SVG Version: 6.00 Build 0)  -->
<!DOCTYPE svg PUBLIC "-//W3C//DTD SVG 1.1//EN" "http://www.w3.org/Graphics/SVG/1.1/DTD/svg11.dtd">
<svg version="1.1" id="레이어_1" xmlns="http://www.w3.org/2000/svg" xmlns:xlink="http://www.w3.org/1999/xlink" x="0px"
	 y="0px" width="36px" height="36px" viewBox="0 0 36 36" enable-background="new 0 0 36 36" xml:space="preserve">
<path fill="#666666" d="M21.549,13.986c0,0-0.305,0.183-0.375,0.265c-0.072,0.042-1.727,1.396-1.727,1.396
	c-0.445,0.334-0.973,0.512-1.576,0.512s-1.121-0.178-1.572-0.512c0.033,0,0.045,0,0.045,0l-0.045-0.043l-0.068-0.04l-0.604-0.492
	c-0.301-0.226-0.455-0.367-0.611-0.526v0.051c0,0-0.518-0.428-0.518-0.468c-1.123-0.815-2.398-1.342-3.449-1.342
	c-2.4,0-4.428,2.485-4.428,5.511v0.036c0,1.652,0.596,3.223,1.652,4.279c0.75,0.791,1.721,1.199,2.693,1.199
	c1.133,0,2.408-0.451,3.607-1.225c0-0.051,1.58-1.33,1.58-1.33l0.076-0.027c0.445-0.344,0.971-0.483,1.496-0.483h0.072h0.072
	c0.525,0,1.064,0.173,1.494,0.512v0.033l1.736,1.386c0.071,0.059,0.143,0.125,0.143,0.125h0.072c1.069,0.79,2.106,1.174,3.235,1.174
	c2.476,0,4.427-2.455,4.427-5.488c0.078-1.689-0.527-3.266-1.584-4.318c-0.812-0.779-1.791-1.239-2.769-1.239
	C23.736,12.93,22.598,13.313,21.549,13.986z"/>
<path fill="#666666" d="M21.404,4.769h-7.195c-5.518,0-9.998,4.51-9.998,10.036v7.171c0,5.521,4.48,10.019,9.998,10.019h7.195
	c5.502,0,9.99-4.498,9.99-10.019v-7.171C31.395,9.279,26.906,4.769,21.404,4.769z M29.719,21.977c0,4.599-3.734,8.332-8.314,8.332
	H14.21c-4.596,0-8.328-3.733-8.328-8.332v-7.171c0-4.614,3.732-8.353,8.328-8.353h7.194c4.654,0,8.314,3.662,8.314,8.353V21.977z"/>
</svg>
