<?xml version="1.0" encoding="utf-8"?>
<!-- Generator: Adobe Illustrator 16.0.0, SVG Export Plug-In . SVG Version: 6.00 Build 0)  -->
<!DOCTYPE svg PUBLIC "-//W3C//DTD SVG 1.1//EN" "http://www.w3.org/Graphics/SVG/1.1/DTD/svg11.dtd">
<svg version="1.1" id="레이어_1" xmlns="http://www.w3.org/2000/svg" xmlns:xlink="http://www.w3.org/1999/xlink" x="0px"
	 y="0px" width="36px" height="36px" viewBox="0 0 36 36" enable-background="new 0 0 36 36" xml:space="preserve">
<path fill="#666666" d="M27.829,18.762h-8.29v8.451c0,0.648-0.527,1.176-1.179,1.176c-0.646,0-1.174-0.527-1.174-1.176v-8.451H8.577
	c-0.648,0-1.175-0.528-1.175-1.176s0.527-1.176,1.175-1.176h8.61V7.96c0-0.649,0.527-1.178,1.174-1.178
	c0.651,0,1.178,0.529,1.178,1.178v8.451h8.291c0.648,0,1.177,0.526,1.177,1.175C29.006,18.233,28.479,18.762,27.829,18.762
	 M27.829,12.463h-4.343V7.96c0-2.827-2.299-5.125-5.126-5.125c-2.824,0-5.122,2.299-5.122,5.125v4.503H8.577
	c-2.825,0-5.124,2.299-5.124,5.123c0,2.823,2.299,5.123,5.124,5.123h4.662v4.504c0,2.827,2.299,5.125,5.123,5.125
	c2.826,0,5.126-2.298,5.126-5.125v-4.504h4.342c2.827,0,5.125-2.3,5.125-5.123C32.953,14.762,30.654,12.463,27.829,12.463"/>
</svg>
