<?xml version="1.0" encoding="utf-8"?>
<!-- Generator: Adobe Illustrator 16.0.0, SVG Export Plug-In . SVG Version: 6.00 Build 0)  -->
<!DOCTYPE svg PUBLIC "-//W3C//DTD SVG 1.1//EN" "http://www.w3.org/Graphics/SVG/1.1/DTD/svg11.dtd">
<svg version="1.1" id="레이어_1" xmlns="http://www.w3.org/2000/svg" xmlns:xlink="http://www.w3.org/1999/xlink" x="0px"
	 y="0px" width="36px" height="36px" viewBox="0 0 36 36" enable-background="new 0 0 36 36" xml:space="preserve">
<path fill="#666666" d="M6.36,9.057c-0.227,3.327,3.728,4.931,4.801,7.194c0.227,0.493,0.733,1.394,0.86,2.761
	c0.066,0.627,0.047,1.354-0.113,2.18c-0.507,2.621-1.233,3.947-1.16,6.195c0.072,1.893,0.967,3.475,2.767,4.207
	c0.747,0.316,2.888,0.95,5.208-1.348c2.44-2.42,5.008-2.98,6.295-3.2c1.834-0.325,2.225,0.087,3.769-0.886l0.012-0.016
	c2.835-1.832,1.888-4.772,1.461-5.533c-0.457-0.82-1.561-2.01-2.106-3.041c-0.406-0.73-0.854-1.99-0.326-4.047
	c0.593-2.307-0.182-3.791-1.354-4.757c-1.222-1.017-3.375-1.023-3.375-1.023c-2.24-0.067-4.694-0.887-4.694-0.887
	s-0.38-0.133-0.86-0.393c-0.013,0.017-0.026,0.033-0.033,0.053c-0.026,0.033-0.046,0.053-0.066,0.08
	c0.026-0.04,0.066-0.093,0.1-0.133c-0.526-0.277-1.2-0.694-1.646-1.23c-1.607-1.937-2.974-2.167-4.401-1.964
	c-0.42,0.067-1.193,0.317-2.007,0.827C9.277,4.223,9.057,4.377,8.838,4.55H8.82C7.935,5.232,7.088,6.206,6.647,7.577
	C6.5,8.03,6.407,8.523,6.36,9.057z M17.263,6.803v0.013c-0.014,0.003-0.021,0.014-0.026,0.02C17.242,6.83,17.249,6.816,17.263,6.803
	z"/>
</svg>
