<?xml version="1.0" encoding="utf-8"?>
<!-- Generator: Adobe Illustrator 16.0.0, SVG Export Plug-In . SVG Version: 6.00 Build 0)  -->
<!DOCTYPE svg PUBLIC "-//W3C//DTD SVG 1.1//EN" "http://www.w3.org/Graphics/SVG/1.1/DTD/svg11.dtd">
<svg version="1.1" id="레이어_1" xmlns="http://www.w3.org/2000/svg" xmlns:xlink="http://www.w3.org/1999/xlink" x="0px"
	 y="0px" width="18px" height="18px" viewBox="0 0 18 18" enable-background="new 0 0 18 18" xml:space="preserve">
<path fill="#666666" d="M2.205,10.359c0.247,0.002,0.526-0.075,0.783-0.219l0.093-0.051L3.522,9.8V9.798
	c0.094-0.06,0.223-0.096,0.358-0.096c0.128,0,0.253,0.04,0.344,0.099l0.012,0.008l0.311,0.203l0.133,0.096
	c0.276,0.178,0.598,0.281,0.866,0.281c0.272,0,0.513-0.098,0.71-0.261l0.075-0.037l0.429-0.29l0.008-0.003
	c0.093-0.06,0.219-0.096,0.356-0.096c0.13,0,0.256,0.04,0.349,0.099l0.014,0.008l0.301,0.203l0.14,0.096
	c0.024,0.021,0.046,0.031,0.078,0.051l0.208,0.305l0.003,0.005c0.057,0.097,0.097,0.22,0.097,0.362c0,0.129-0.04,0.254-0.1,0.343
	l-0.006,0.017L8,11.488l-0.094,0.135c-0.167,0.281-0.275,0.596-0.282,0.871c0,0.236,0.076,0.457,0.204,0.634
	c0.014,0.036,0.029,0.071,0.05,0.106l0.051,0.099l0.286,0.427l0.003,0.012c0.057,0.088,0.097,0.217,0.097,0.357
	c0,0.127-0.04,0.245-0.1,0.346l-0.007,0.012L8,14.79l-0.094,0.138c-0.167,0.277-0.275,0.596-0.282,0.862
	c0,0.62,0.52,1.136,1.161,1.136c0.645,0.004,1.167-0.498,1.176-1.121c0-0.279-0.105-0.609-0.27-0.892L9.63,14.814L9.429,14.51
	L9.423,14.5c-0.062-0.092-0.101-0.217-0.101-0.357v-0.014c0-0.136,0.04-0.258,0.103-0.354l0.004-0.004l0.29-0.428l0.026-0.05
	l-0.003,0.009c0.17-0.281,0.248-0.551,0.248-0.832c0-0.199-0.063-0.382-0.155-0.545c-0.032-0.109-0.078-0.211-0.144-0.314
	L9.63,11.518l-0.201-0.306l-0.006-0.01c-0.062-0.095-0.101-0.218-0.101-0.354v-0.012c0-0.141,0.04-0.262,0.103-0.354l0.004-0.01
	l0.29-0.429l0.012-0.021l0.326-0.223l0.004-0.003c0.1-0.06,0.229-0.096,0.361-0.096s0.254,0.04,0.35,0.099l0.016,0.008l0.301,0.203
	l0.135,0.096c0.274,0.178,0.594,0.281,0.868,0.281c0.233,0,0.456-0.072,0.632-0.193c0.039-0.021,0.075-0.033,0.104-0.053
	l0.099-0.052l0.428-0.29l0.01-0.003c0.095-0.06,0.219-0.096,0.359-0.096c0.125,0,0.252,0.04,0.348,0.099l0.011,0.008l0.304,0.203
	l0.133,0.096c0.283,0.178,0.594,0.281,0.867,0.281c0.627,0.002,1.135-0.513,1.135-1.154c0.012-0.648-0.492-1.171-1.119-1.171
	c-0.279,0-0.609,0.098-0.896,0.262L14.413,8.39l-0.306,0.197l-0.015,0.012C14,8.657,13.878,8.698,13.738,8.698h-0.01
	c-0.141-0.004-0.267-0.041-0.354-0.105l-0.013-0.006l-0.422-0.283l-0.051-0.029H12.9c-0.283-0.169-0.551-0.239-0.838-0.245
	c-0.193-0.005-0.379,0.056-0.537,0.146c-0.107,0.042-0.217,0.089-0.319,0.151l-0.09,0.063l-0.31,0.197l-0.013,0.012
	c-0.09,0.058-0.216,0.099-0.354,0.099h-0.008c-0.14-0.004-0.263-0.041-0.361-0.105V8.586L9.711,8.348
	C9.705,8.329,9.693,8.32,9.693,8.32L9.63,8.222L9.429,7.919L9.423,7.902C9.361,7.812,9.322,7.691,9.322,7.55V7.533
	c0-0.132,0.04-0.262,0.103-0.35l0.004-0.005l0.29-0.43L9.745,6.7L9.741,6.708c0.17-0.279,0.247-0.551,0.247-0.832
	c0-0.24-0.088-0.471-0.223-0.658c-0.021-0.046-0.047-0.1-0.074-0.146L9.63,4.979L9.429,4.675L9.423,4.658
	C9.361,4.565,9.322,4.443,9.322,4.313V4.292c0-0.137,0.04-0.258,0.103-0.359L9.429,3.93l0.29-0.424L9.745,3.46L9.741,3.467
	c0.17-0.286,0.247-0.554,0.247-0.833C9.992,2.006,9.468,1.5,8.832,1.5c-0.65-0.006-1.169,0.498-1.177,1.11
	c0,0.248,0.087,0.531,0.223,0.788l0.051,0.094l0.286,0.434L8.218,3.93c0.057,0.088,0.097,0.214,0.097,0.352
	c0,0.132-0.04,0.259-0.1,0.353L8.208,4.649L8,4.95L7.906,5.086C7.739,5.362,7.631,5.681,7.624,5.949
	c0,0.272,0.107,0.512,0.265,0.713l0.04,0.068l0.286,0.438l0.003,0.003C8.275,7.266,8.315,7.39,8.315,7.532
	c0,0.126-0.04,0.251-0.1,0.345L8.208,7.892L8,8.194L7.914,8.32L7.906,8.326L7.817,8.39L7.512,8.586L7.498,8.599
	C7.405,8.657,7.279,8.698,7.143,8.698H7.129C6.997,8.693,6.865,8.657,6.778,8.593l-0.01-0.006L6.345,8.303L6.294,8.274h0.008
	C6.019,8.105,5.754,8.035,5.471,8.029C5.228,8.024,5.002,8.113,4.814,8.246c-0.045,0.028-0.1,0.051-0.149,0.08L4.574,8.39
	L4.27,8.586L4.252,8.599C4.164,8.657,4.038,8.698,3.895,8.698H3.882C3.75,8.693,3.626,8.657,3.536,8.593l-0.01-0.006L3.095,8.303
	L3.052,8.274H3.06C2.777,8.105,2.508,8.035,2.221,8.029C1.602,8.024,1.096,8.547,1.096,9.191C1.094,9.837,1.587,10.359,2.205,10.359
	z"/>
</svg>
