<?xml version="1.0" encoding="utf-8"?>
<!-- Generator: Adobe Illustrator 16.0.0, SVG Export Plug-In . SVG Version: 6.00 Build 0)  -->
<!DOCTYPE svg PUBLIC "-//W3C//DTD SVG 1.1//EN" "http://www.w3.org/Graphics/SVG/1.1/DTD/svg11.dtd">
<svg version="1.1" id="레이어_1" xmlns="http://www.w3.org/2000/svg" xmlns:xlink="http://www.w3.org/1999/xlink" x="0px"
	 y="0px" width="18px" height="18px" viewBox="0 0 18 18" enable-background="new 0 0 18 18" xml:space="preserve">
<path fill="#666666" d="M3.611,15.379c0.993,0.504,2.78,0.738,4.267,0.633C7.847,16.322,7.92,16.631,8.2,16.973
	c0.751,0.93,3.417,0.603,4.782-0.09c4.265-2.463-2.401-4.568-2.213-7.173c0.53-0.287,1.17-0.483,1.856-0.57
	c1.997-0.241,2.956-0.896,2.707-2.054C15.121,6.1,14.111,5.817,13.04,5.67c0.142-0.743,0.06-1.353-0.058-1.724
	c-0.354-1.1-1.342-2.736-3.219-1.1C9.579,3.012,9.436,3.198,9.329,3.391c-0.116-0.812-0.073-1.65-0.808-2.136
	c-1.399-0.937-3.584,0.913-4.13,2.178C3.85,4.685,4.239,5.709,5.282,6.463C5.659,6.747,5.949,7.027,6.17,7.292
	C5.144,7.419,4.068,7.65,3.897,8.708c-0.151,0.981,0.839,1.586,1.993,1.916C4.204,12.488,0.946,13.941,3.611,15.379z M12.736,14.951
	c0.199,1.5-2.838,2.656-4.1,1.637c-0.197-0.203-0.305-0.391-0.323-0.613c0.76-0.092,1.412-0.285,1.774-0.59
	c1.375-1.168-0.607-1.979-0.743-3.705c-0.045-0.586,0.266-1.125,0.786-1.556C10.52,11.748,12.54,13.549,12.736,14.951z
	 M12.925,6.134c0.89,0.277,1.521,0.587,1.521,1.117c-0.004,0.678-1.204,1.261-2.032,1.508c-0.404,0.122-0.994,0.339-1.59,0.641
	c0.088-0.32,0.28-0.646,0.62-0.977C12.264,7.633,12.702,6.844,12.925,6.134z M9.977,3.969c0.916-0.804,1.551-0.245,1.875,1.184
	c0.03,0.141,0.051,0.269,0.058,0.392c-0.466-0.048-0.884-0.111-1.197-0.242c-0.56-0.237-0.886-0.553-1.079-0.904
	C9.73,4.24,9.85,4.087,9.977,3.969z M9.479,4.663c0.304,0.378,0.703,0.696,1.291,0.868c0.388,0.121,0.768,0.218,1.139,0.317
	c-0.076,1.475-1.497,2.41-1.832,3.938l0.003,0.022c-1.006,0.629-1.764,1.479-1.157,2.416c1.055,1.68,1.383,2.172,0.537,2.766
	c-0.246,0.174-0.621,0.277-1.042,0.324c0.12-0.363,0.327-0.826,0.627-1.461c0.751-1.66-1.502-3.067-2.406-3.469
	c-0.029-0.014-0.058-0.027-0.082-0.043c0.662-0.757,1.136-1.519,0.925-2.226C7.409,7.88,7.301,7.662,7.172,7.445
	c0.209-0.074,0.423-0.161,0.636-0.244C8.802,6.798,9.018,5.575,9.479,4.663z M4.986,3.407c0.473-1.431,1.405-1.995,2.706-1.17
	c0.666,0.438,0.981,1.154,1.38,1.823c-0.27,1.066-0.137,2.28-1.221,2.909c-0.189,0.117-0.498,0.18-0.844,0.225
	C6.099,5.928,4.466,4.972,4.986,3.407z M5.24,8.871c0-0.572,0.524-0.88,1.229-1.16c0.543,0.906,0.327,1.722-0.212,2.471
	C5.76,9.878,5.24,9.402,5.24,8.871z M6.218,10.704c0.092,0.022,0.178,0.041,0.267,0.062c1.273,0.238,2.34,1.295,2.259,2.541
	c-0.05,0.855-0.428,1.478-0.667,2.025c-1.832,0.07-4.425-0.777-4.188-1.873C4.046,12.713,5.24,11.732,6.218,10.704z"/>
</svg>
