<?xml version="1.0" encoding="utf-8"?>
<!-- Generator: Adobe Illustrator 16.0.0, SVG Export Plug-In . SVG Version: 6.00 Build 0)  -->
<!DOCTYPE svg PUBLIC "-//W3C//DTD SVG 1.1//EN" "http://www.w3.org/Graphics/SVG/1.1/DTD/svg11.dtd">
<svg version="1.1" id="레이어_1" xmlns="http://www.w3.org/2000/svg" xmlns:xlink="http://www.w3.org/1999/xlink" x="0px"
	 y="0px" width="36px" height="36px" viewBox="0 0 36 36" enable-background="new 0 0 36 36" xml:space="preserve">
<path fill="#666666" d="M17.032,9.167c0.949-0.146,1.441-0.825,2.309-1.558c0.858-0.726,1.644-0.765,2.446-0.568
	c-1.073-0.617-1.67-1.715-2.557-2.562c-0.993-0.923-2.358-1.592-3.794-1.307c-1.378,0.274-2.405,1.019-3.048,2.444
	c-0.523,1.16-0.557,2.171-1.173,2.957c0.812-0.433,1.784-0.433,2.635-0.207C14.917,8.663,15.845,9.346,17.032,9.167z"/>
<path fill="#666666" d="M29.443,15.852c0.018-1.24,0.686-2.303,0.981-3.487c0.322-1.31,0.22-2.829-0.726-3.929
	c-0.932-1.054-1.93-1.881-3.768-1.488c-1.242,0.263-2.136,0.644-3.098,0.497c0.816,0.463,1.323,1.343,1.553,2.22
	c0.279,1.072,0.146,2.21,0.889,3.156c0.597,0.733,1.47,0.681,2.482,1.188C28.627,14.43,29.182,15.071,29.443,15.852z"/>
<path fill="#666666" d="M7.505,16.768c0.79-0.771,1.851-1.235,2.286-2.341c0.342-0.895-0.124-1.667-0.2-2.778
	c-0.069-0.98,0.2-1.751,0.759-2.372C9.266,9.87,8.031,9.849,6.853,10.188c-1.294,0.373-2.571,1.229-3.03,2.597
	c-0.463,1.331-0.354,2.611,0.568,3.885c0.716,0.994,1.588,1.512,1.969,2.372C6.417,18.164,6.894,17.36,7.505,16.768z"/>
<path fill="#666666" d="M22.107,27.716c-1.068-0.296-1.982-0.991-3.184-0.805c-0.943,0.146-1.366,0.948-2.308,1.579
	c-0.755,0.506-1.5,0.654-2.254,0.537c0.964,0.646,1.548,1.677,2.393,2.479c0.979,0.916,2.354,1.604,3.786,1.324
	c1.373-0.277,2.473-1.047,3.146-2.475c0.486-1.102,0.486-2.062,1.012-2.81C23.912,27.945,22.945,27.945,22.107,27.716z"/>
<path fill="#666666" d="M11.63,26.42c-0.277-1.061-0.14-2.199-0.894-3.139c-0.59-0.745-1.504-0.697-2.523-1.193
	c-0.84-0.398-1.368-1-1.629-1.74c-0.073,1.168-0.681,2.188-0.958,3.324c-0.317,1.309-0.223,2.84,0.734,3.93
	c0.923,1.043,2.098,1.582,3.662,1.443c1.201-0.117,2.079-0.579,2.996-0.507C12.304,28.045,11.846,27.234,11.63,26.42z"/>
<path fill="#666666" d="M31.594,19.322c-0.729-1.019-1.582-1.502-1.951-2.379c-0.012,0.926-0.51,1.78-1.164,2.405
	c-0.774,0.76-1.844,1.223-2.287,2.338c-0.354,0.885,0.146,1.61,0.229,2.737c0.056,0.91-0.2,1.673-0.687,2.278
	c1.049-0.557,2.261-0.528,3.406-0.859c1.293-0.373,2.576-1.212,3.049-2.592C32.646,21.936,32.51,20.6,31.594,19.322z"/>
</svg>
