<?xml version="1.0" encoding="utf-8"?>
<!-- Generator: Adobe Illustrator 16.0.0, SVG Export Plug-In . SVG Version: 6.00 Build 0)  -->
<!DOCTYPE svg PUBLIC "-//W3C//DTD SVG 1.1//EN" "http://www.w3.org/Graphics/SVG/1.1/DTD/svg11.dtd">
<svg version="1.1" id="레이어_1" xmlns="http://www.w3.org/2000/svg" xmlns:xlink="http://www.w3.org/1999/xlink" x="0px"
	 y="0px" width="36px" height="36px" viewBox="0 0 36 36" enable-background="new 0 0 36 36" xml:space="preserve">
<path fill="#666666" d="M24.729,29.422c1.813,0,3.287-1.027,3.287-2.283v-4.57v-9.139V8.85c0-1.25-1.475-2.277-3.287-2.277
	c-1.813,0-3.293,1.027-3.293,2.277v4.578c0,1.256-1.457,2.293-3.27,2.293c-1.818,0-3.268-1.037-3.268-2.293V8.85
	c0-1.25-1.479-2.277-3.291-2.277S8.306,7.6,8.306,8.85v4.578v9.144v4.566c0,1.256,1.489,2.282,3.301,2.282
	c1.813,0,3.291-1.026,3.291-2.282v-4.566c0-1.256,1.449-2.284,3.268-2.284c1.813,0,3.27,1.028,3.27,2.28v4.57
	C21.438,28.395,22.914,29.422,24.729,29.422z"/>
</svg>
