<?xml version="1.0" encoding="utf-8"?>
<!-- Generator: Adobe Illustrator 16.0.0, SVG Export Plug-In . SVG Version: 6.00 Build 0)  -->
<!DOCTYPE svg PUBLIC "-//W3C//DTD SVG 1.1//EN" "http://www.w3.org/Graphics/SVG/1.1/DTD/svg11.dtd">
<svg version="1.1" id="레이어_1" xmlns="http://www.w3.org/2000/svg" xmlns:xlink="http://www.w3.org/1999/xlink" x="0px"
	 y="0px" width="36px" height="36px" viewBox="0 0 36 36" enable-background="new 0 0 36 36" xml:space="preserve">
<path fill="#666666" d="M32.596,16.359H21.583c1.371-1.381,7.785-7.842,7.785-7.842l-2.127-2.143c0,0-6.415,6.461-7.787,7.842V3.124
	h-0.498h-2.51v11.093c-1.37-1.381-7.785-7.843-7.785-7.843L6.534,8.516c0,0,6.414,6.463,7.785,7.844c-1.937,0-11.009,0-11.009,0
	v3.031h11.012c-1.372,1.379-7.789,7.846-7.789,7.846l2.129,2.143c0,0,6.415-6.463,7.785-7.844v11.092h3.008V21.534
	c1.372,1.381,7.788,7.844,7.788,7.844l2.126-2.144c0,0-6.414-6.465-7.785-7.844h11.012V16.359L32.596,16.359z"/>
</svg>
