<?xml version="1.0" encoding="utf-8"?>
<!-- Generator: Adobe Illustrator 16.0.0, SVG Export Plug-In . SVG Version: 6.00 Build 0)  -->
<!DOCTYPE svg PUBLIC "-//W3C//DTD SVG 1.1//EN" "http://www.w3.org/Graphics/SVG/1.1/DTD/svg11.dtd">
<svg version="1.1" id="레이어_1" xmlns="http://www.w3.org/2000/svg" xmlns:xlink="http://www.w3.org/1999/xlink" x="0px"
	 y="0px" width="18px" height="18px" viewBox="0 0 18 18" enable-background="new 0 0 18 18" xml:space="preserve">
<path fill="#666666" d="M2.345,11.045c0.064,0,0.129,0,0.195-0.007v0.278l0.268-0.088v0.15c0,0.436,0.291,0.782,0.65,0.782h11.133
	c0.354,0,0.646-0.349,0.646-0.782v-0.15l0.269,0.078v-0.301c0.048,0,0.087,0.008,0.136,0.008c0.842,0.004,1.529-0.848,1.531-1.9
	c0.014-1.055-0.668-1.907-1.516-1.907c-0.049,0-0.098,0.007-0.151,0.01V6.918l-0.269,0.064v-0.2C15.234,6.35,14.945,6,14.591,6
	H3.458c-0.359,0-0.65,0.35-0.65,0.782v0.173L2.54,6.874v0.388c-0.059-0.01-0.12-0.015-0.178-0.015c-0.839,0-1.526,0.849-1.533,1.895
	C0.829,10.197,1.506,11.045,2.345,11.045z M3.082,7.645c0.059,0.038,0.125,0.082,0.186,0.128l0.003-0.004l-0.003,0.01L3.902,8.28
	c0.174,0.146,0.399,0.226,0.672,0.226c0.234,0,0.459-0.08,0.623-0.207l0.559-0.445c0.099-0.068,0.212-0.133,0.338-0.206l0.038-0.021
	c0.189-0.134,0.404-0.203,0.62-0.203C7.096,7.429,7.401,7.541,7.72,7.772v0.006L8.35,8.28c0.17,0.146,0.405,0.226,0.668,0.226
	c0.241,0,0.464-0.08,0.628-0.207l0.558-0.445c0.058-0.046,0.127-0.082,0.185-0.116l0.051-0.035c0.209-0.182,0.449-0.278,0.699-0.278
	c0.344,0.004,0.654,0.116,0.975,0.348l0.011-0.011l-0.006,0.017l0.62,0.502c0.182,0.146,0.408,0.226,0.677,0.226
	c0.231,0,0.459-0.08,0.617-0.207l0.563-0.445c0.127-0.082,0.252-0.153,0.377-0.215v2.915c-0.117-0.056-0.229-0.131-0.334-0.211
	l-0.623-0.501c-0.173-0.142-0.398-0.224-0.64-0.224c-0.239,0-0.472,0.078-0.649,0.219l-0.564,0.453l-0.117,0.083
	c-0.23,0.246-0.507,0.366-0.8,0.366c-0.297-0.008-0.679-0.147-0.998-0.391L9.63,9.842C9.453,9.7,9.228,9.618,8.987,9.618
	c-0.242,0-0.479,0.077-0.648,0.219L7.768,10.29l-0.144,0.092c-0.03,0.022-0.061,0.041-0.09,0.063l-0.04,0.023
	c-0.206,0.184-0.448,0.271-0.699,0.271c-0.299-0.008-0.683-0.147-1.005-0.391L5.183,9.842C5.011,9.7,4.779,9.618,4.54,9.618
	c-0.243,0-0.474,0.077-0.661,0.224L3.321,10.29l-0.125,0.083c-0.031,0.042-0.073,0.084-0.114,0.119V7.645z"/>
</svg>
