<?xml version="1.0" encoding="utf-8"?>
<!-- Generator: Adobe Illustrator 16.0.0, SVG Export Plug-In . SVG Version: 6.00 Build 0)  -->
<!DOCTYPE svg PUBLIC "-//W3C//DTD SVG 1.1//EN" "http://www.w3.org/Graphics/SVG/1.1/DTD/svg11.dtd">
<svg version="1.1" id="레이어_1" xmlns="http://www.w3.org/2000/svg" xmlns:xlink="http://www.w3.org/1999/xlink" x="0px"
	 y="0px" width="36px" height="36px" viewBox="0 0 36 36" enable-background="new 0 0 36 36" xml:space="preserve">
<path fill="#666666" d="M10.928,24.818h4.645v4.226h5.13v-4.226h4.65c4.217,0,7.638-3.061,7.638-6.817s-3.421-6.818-7.638-6.818
	h-4.65V6.959h-5.13v4.224h-4.645c-4.204,0-7.628,3.06-7.628,6.818S6.724,24.818,10.928,24.818z M20.702,14.341h4.651
	c2.308,0,4.188,1.642,4.188,3.66c0,2.017-1.881,3.653-4.188,3.653h-4.651V14.341z M10.928,14.341h4.645v7.313h-4.645
	c-2.303,0-4.185-1.639-4.185-3.653C6.743,15.982,8.625,14.341,10.928,14.341z"/>
</svg>
