<?xml version="1.0" encoding="utf-8"?>
<!-- Generator: Adobe Illustrator 16.0.0, SVG Export Plug-In . SVG Version: 6.00 Build 0)  -->
<!DOCTYPE svg PUBLIC "-//W3C//DTD SVG 1.1//EN" "http://www.w3.org/Graphics/SVG/1.1/DTD/svg11.dtd">
<svg version="1.1" id="레이어_1" xmlns="http://www.w3.org/2000/svg" xmlns:xlink="http://www.w3.org/1999/xlink" x="0px"
	 y="0px" width="18px" height="18px" viewBox="0 0 18 18" enable-background="new 0 0 18 18" xml:space="preserve">
<path fill="#666666" d="M8.999,10.99c-1.097,0-1.989-0.891-1.989-1.989c0-1.098,0.892-1.99,1.989-1.99
	c1.099,0,1.989,0.892,1.989,1.99C10.988,10.1,10.098,10.99,8.999,10.99 M16.044,7.544h-3.517l2.391-2.39
	c0.573-0.574,0.573-1.505,0-2.077c-0.572-0.573-1.503-0.573-2.075,0l-2.376,2.375l0.001-3.336c-0.001-0.81-0.657-1.467-1.469-1.467
	c-0.809,0-1.467,0.657-1.467,1.467v3.343c-0.738-0.736-2.439-2.44-2.531-2.53C4.422,2.511,3.613,2.57,3.107,3.076L3.106,3.077
	c-0.583,0.583-0.61,1.577-0.06,2.127c0,0,1.685,1.647,2.409,2.352H1.884C1.178,7.669,0.648,8.284,0.648,9l0,0
	c0,0.824,0.683,1.545,1.46,1.545c0.001,0,2.26-0.023,3.302-0.039l-2.304,2.307c-0.573,0.571-0.573,1.502,0,2.076
	c0.571,0.571,1.502,0.571,2.075,0l2.35-2.351l0.002,3.347c0,0.809,0.657,1.469,1.466,1.469c0.81,0,1.467-0.66,1.467-1.469v-3.341
	c0.732,0.733,2.386,2.392,2.386,2.392c0.575,0.576,1.463,0.556,2.065-0.047c0.524-0.525,0.567-1.379,0.104-1.955
	c-0.064-0.066-1.692-1.695-2.442-2.445c1.053,0.003,3.345,0.008,3.345,0.008c0.813,0,1.428-0.645,1.428-1.495
	C17.352,8.26,16.777,7.626,16.044,7.544"/>
</svg>
