<?xml version="1.0" encoding="utf-8"?>
<!-- Generator: Adobe Illustrator 16.0.0, SVG Export Plug-In . SVG Version: 6.00 Build 0)  -->
<!DOCTYPE svg PUBLIC "-//W3C//DTD SVG 1.1//EN" "http://www.w3.org/Graphics/SVG/1.1/DTD/svg11.dtd">
<svg version="1.1" id="레이어_1" xmlns="http://www.w3.org/2000/svg" xmlns:xlink="http://www.w3.org/1999/xlink" x="0px"
	 y="0px" width="18px" height="18px" viewBox="0 0 18 18" enable-background="new 0 0 18 18" xml:space="preserve">
<path fill="#666666" d="M5.96,8.967c0-1.433-1.166-2.594-2.604-2.594S0.751,7.534,0.751,8.967c0,1.434,1.166,2.594,2.604,2.594
	C4.795,11.561,5.96,10.398,5.96,8.967 M11.605,14.584c0-3.023-1.803-3.891-1.803-5.618c0-1.714,1.803-2.593,1.803-5.617
	c0-1.432-1.168-2.594-2.606-2.594c-1.438,0-2.604,1.162-2.604,2.594c0,3.024,1.802,3.889,1.802,5.618
	c0,1.727-1.802,2.594-1.802,5.618c0,1.433,1.167,2.595,2.604,2.595C10.438,17.18,11.605,16.018,11.605,14.584 M17.248,8.967
	c0-1.433-1.166-2.594-2.604-2.594c-1.438,0-2.604,1.161-2.604,2.594c0,1.434,1.167,2.594,2.604,2.594S17.248,10.398,17.248,8.967"/>
</svg>
