<?xml version="1.0" encoding="utf-8"?>
<!-- Generator: Adobe Illustrator 16.0.0, SVG Export Plug-In . SVG Version: 6.00 Build 0)  -->
<!DOCTYPE svg PUBLIC "-//W3C//DTD SVG 1.1//EN" "http://www.w3.org/Graphics/SVG/1.1/DTD/svg11.dtd">
<svg version="1.1" id="레이어_1" xmlns="http://www.w3.org/2000/svg" xmlns:xlink="http://www.w3.org/1999/xlink" x="0px"
	 y="0px" width="18px" height="18px" viewBox="0 0 18 18" enable-background="new 0 0 18 18" xml:space="preserve">
<path fill="#666666" d="M8.998,2.01h-1.4H6.203H3.407c-0.771,0-1.398,0.633-1.398,1.396c0,0.772,0.627,1.394,1.398,1.394h2.796
	c0.769,0,1.395,0.637,1.395,1.404c0,0.769-0.626,1.404-1.395,1.404H3.407c-0.771,0-1.398,0.624-1.398,1.388
	c0,0.773,0.627,1.396,1.398,1.396h2.796c0.769,0,1.395,0.631,1.395,1.399c0,0.765-0.626,1.401-1.395,1.401H3.407
	c-0.771,0-1.398,0.619-1.398,1.396c0,0.763,0.627,1.394,1.398,1.394h11.181c0.764,0,1.403-0.631,1.403-1.394
	c0-0.776-0.642-1.396-1.403-1.396h-2.796c-0.776,0-1.399-0.637-1.399-1.401c0-0.769,0.623-1.399,1.399-1.399h2.796
	c0.764,0,1.403-0.623,1.403-1.396c0-0.765-0.642-1.388-1.403-1.388h-2.796c-0.776,0-1.399-0.636-1.399-1.404S11.016,4.8,11.792,4.8
	h2.796c0.764,0,1.403-0.622,1.403-1.394c0-0.763-0.642-1.396-1.403-1.396h-2.796h-1.399H8.998z"/>
</svg>
