<?xml version="1.0" encoding="utf-8"?>
<!-- Generator: Adobe Illustrator 16.0.0, SVG Export Plug-In . SVG Version: 6.00 Build 0)  -->
<!DOCTYPE svg PUBLIC "-//W3C//DTD SVG 1.1//EN" "http://www.w3.org/Graphics/SVG/1.1/DTD/svg11.dtd">
<svg version="1.1" id="레이어_1" xmlns="http://www.w3.org/2000/svg" xmlns:xlink="http://www.w3.org/1999/xlink" x="0px"
	 y="0px" width="36px" height="36px" viewBox="0 0 36 36" enable-background="new 0 0 36 36" xml:space="preserve">
<path fill="#666666" d="M16.517,17.545l-6.356,4.309l6.356-12.31V17.545z M18.982,17.545V9.544l6.357,12.31L18.982,17.545z
	 M18.982,20.525l7.307,4.951l-7.307,3.969V20.525z M9.595,25.686l-0.384-0.209l7.306-4.951v8.92L9.595,25.686z M29.537,26.451
	c0.051-0.053,0.096-0.105,0.136-0.165c0.015-0.022,0.03-0.044,0.044-0.067c0.043-0.074,0.081-0.152,0.108-0.232
	c0.003-0.008,0.007-0.018,0.01-0.024c0.028-0.09,0.044-0.185,0.052-0.28c0-0.009,0.004-0.019,0.004-0.027
	c0.002-0.016-0.004-0.031-0.004-0.047c0-0.073-0.006-0.146-0.018-0.219c-0.004-0.027-0.008-0.054-0.014-0.078
	c-0.021-0.08-0.047-0.16-0.084-0.236c-0.006-0.012-0.008-0.024-0.015-0.035c-0.001-0.003-0.001-0.008-0.003-0.01L18.846,3.902
	c-0.017-0.035-0.047-0.06-0.068-0.092c-0.039-0.06-0.078-0.117-0.127-0.168c-0.045-0.05-0.094-0.092-0.145-0.133
	c-0.053-0.043-0.107-0.08-0.169-0.113c-0.06-0.033-0.122-0.058-0.187-0.08c-0.038-0.014-0.07-0.04-0.109-0.048
	c-0.029-0.006-0.059,0-0.088-0.005c-0.067-0.012-0.135-0.014-0.203-0.014c-0.07,0-0.137,0.002-0.204,0.014
	c-0.03,0.005-0.058-0.001-0.088,0.005c-0.038,0.009-0.069,0.033-0.107,0.046c-0.065,0.024-0.128,0.049-0.188,0.082
	c-0.06,0.032-0.113,0.069-0.166,0.111c-0.053,0.041-0.102,0.084-0.148,0.135c-0.047,0.052-0.087,0.108-0.125,0.167
	c-0.021,0.032-0.051,0.057-0.069,0.092L5.746,25.027c-0.003,0.002-0.004,0.007-0.005,0.01c-0.006,0.01-0.009,0.023-0.015,0.035
	c-0.035,0.076-0.063,0.156-0.082,0.234c-0.006,0.024-0.009,0.053-0.014,0.078c-0.012,0.075-0.019,0.146-0.018,0.221
	c0,0.018-0.005,0.031-0.004,0.047c0.001,0.01,0.004,0.018,0.006,0.025c0.006,0.096,0.021,0.192,0.051,0.282
	c0.001,0.008,0.007,0.017,0.009,0.024c0.026,0.08,0.064,0.158,0.106,0.23c0.016,0.025,0.031,0.047,0.048,0.07
	c0.039,0.059,0.083,0.111,0.132,0.162c0.02,0.019,0.037,0.039,0.058,0.059c0.071,0.063,0.147,0.123,0.234,0.17l10.909,5.926
	c0.057,0.029,0.119,0.047,0.18,0.069c0.032,0.011,0.063,0.028,0.096,0.038c0.104,0.025,0.207,0.041,0.313,0.041
	s0.211-0.016,0.313-0.041c0.033-0.008,0.063-0.027,0.096-0.037c0.061-0.023,0.123-0.041,0.18-0.07l10.91-5.926
	c0.086-0.048,0.164-0.107,0.233-0.172C29.502,26.488,29.52,26.471,29.537,26.451"/>
</svg>
