<?xml version="1.0" encoding="utf-8"?>
<!-- Generator: Adobe Illustrator 16.0.0, SVG Export Plug-In . SVG Version: 6.00 Build 0)  -->
<!DOCTYPE svg PUBLIC "-//W3C//DTD SVG 1.1//EN" "http://www.w3.org/Graphics/SVG/1.1/DTD/svg11.dtd">
<svg version="1.1" id="레이어_1" xmlns="http://www.w3.org/2000/svg" xmlns:xlink="http://www.w3.org/1999/xlink" x="0px"
	 y="0px" width="18px" height="18px" viewBox="0 0 18 18" enable-background="new 0 0 18 18" xml:space="preserve">
<path fill="#666666" d="M13.063,4.532c0.014-1.672-1.65-3.034-3.713-3.045c-2.066-0.01-3.748,1.332-3.758,3.006
	c0,0.65,0.258,1.408,0.707,2.096l0.17,0.251l0.915,1.168L7.4,8.021c0.193,0.254,0.314,0.59,0.311,0.953
	c0,0.359-0.127,0.689-0.321,0.943L7.365,9.949l-0.654,0.816l-0.317,0.371c-0.548,0.737-0.89,1.596-0.894,2.325
	c-0.011,1.672,1.656,3.035,3.719,3.052c2.066,0.006,3.744-1.345,3.756-3.012c0.002-0.756-0.312-1.656-0.846-2.416l-0.201-0.243
	l-0.646-0.815L11.257,9.98c-0.196-0.242-0.313-0.577-0.31-0.943V8.992c0-0.367,0.123-0.695,0.32-0.946l0.019-0.021l0.926-1.148
	l0.081-0.124l-0.007,0.02C12.836,6.019,13.063,5.288,13.063,4.532z"/>
<path fill="#666666" d="M12.211,6.877l-0.926,1.148l-0.018,0.021c-0.197,0.251-0.322,0.579-0.322,0.946v0.045
	c-0.002,0.367,0.113,0.701,0.311,0.943l0.025,0.047l0.646,0.815l0.201,0.243c0.534,0.76,0.849,1.66,0.845,2.416
	c-0.011,1.667-1.688,3.018-3.755,3.012c-2.063-0.017-3.729-1.38-3.719-3.052c0.004-0.729,0.346-1.588,0.894-2.325l0.317-0.371
	l0.654-0.816L7.39,9.918c0.194-0.254,0.321-0.584,0.321-0.943c0.004-0.364-0.117-0.7-0.311-0.954L7.383,8.008L6.468,6.84
	L6.299,6.589C5.85,5.9,5.592,5.143,5.592,4.493c0.01-1.674,1.691-3.016,3.758-3.006c2.063,0.011,3.727,1.373,3.714,3.045
	c0,0.756-0.229,1.487-0.778,2.241l0.007-0.02L12.211,6.877z"/>
</svg>
