<?xml version="1.0" encoding="utf-8"?>
<!-- Generator: Adobe Illustrator 16.0.0, SVG Export Plug-In . SVG Version: 6.00 Build 0)  -->
<!DOCTYPE svg PUBLIC "-//W3C//DTD SVG 1.1//EN" "http://www.w3.org/Graphics/SVG/1.1/DTD/svg11.dtd">
<svg version="1.1" id="레이어_1" xmlns="http://www.w3.org/2000/svg" xmlns:xlink="http://www.w3.org/1999/xlink" x="0px"
	 y="0px" width="18px" height="18px" viewBox="0 0 18 18" enable-background="new 0 0 18 18" xml:space="preserve">
<path fill="#666666" d="M8.999,5.157c-1.432,0-2.601,1.773-2.601,3.96c0,2.195,1.169,3.969,2.601,3.976
	c1.438,0,2.601-1.78,2.601-3.976C11.6,6.93,10.438,5.157,8.999,5.157z"/>
<path fill="#666666" d="M8.997,1.127c-2.561,0-4.487,3.437-4.487,7.994c0,4.563,1.926,7.997,4.487,7.997
	c2.562,0,4.494-3.435,4.494-7.997C13.49,4.564,11.559,1.127,8.997,1.127z M8.997,15.322c-1.278,0-2.7-2.649-2.7-6.201
	c0-3.552,1.422-6.201,2.7-6.201c1.272,0,2.694,2.649,2.694,6.201C11.691,12.673,10.27,15.322,8.997,15.322z"/>
</svg>
