<?xml version="1.0" encoding="utf-8"?>
<!-- Generator: Adobe Illustrator 16.0.0, SVG Export Plug-In . SVG Version: 6.00 Build 0)  -->
<!DOCTYPE svg PUBLIC "-//W3C//DTD SVG 1.1//EN" "http://www.w3.org/Graphics/SVG/1.1/DTD/svg11.dtd">
<svg version="1.1" id="레이어_1" xmlns="http://www.w3.org/2000/svg" xmlns:xlink="http://www.w3.org/1999/xlink" x="0px"
	 y="0px" width="18px" height="18px" viewBox="0 0 18 18" enable-background="new 0 0 18 18" xml:space="preserve">
<path fill="#666666" d="M1.971,10.488c0.283,0.141,0.617,0.195,0.93,0.16l2.256-0.262c0.906-0.102,1.795,0.492,2.588,0.949
	c0.394,0.264,1.119,0.385,1.587,0.385c0.518-0.035,0.979-0.182,1.361-0.445c0.802-0.457,1.512-0.989,2.425-0.889l2.248,0.262
	c0.313,0.035,0.647-0.021,0.936-0.16c0.289-0.141,0.538-0.356,0.705-0.625c0.17-0.273,0.265-0.595,0.265-0.914
	c0-0.322-0.095-0.646-0.265-0.915c-0.167-0.265-0.416-0.487-0.705-0.622c-0.288-0.137-0.622-0.2-0.936-0.167l-2.248,0.267
	c-0.913,0.105-1.711-0.434-2.515-0.887c-0.39-0.265-0.977-0.444-1.441-0.444c-0.47,0-1.082,0.147-1.479,0.411
	c-0.796,0.455-1.62,1.025-2.526,0.92L2.901,7.246c-0.313-0.033-0.647,0.03-0.93,0.167C1.679,7.547,1.434,7.77,1.264,8.035
	C1.088,8.303,1,8.627,1,8.949C1,9.268,1.088,9.59,1.264,9.863C1.434,10.132,1.679,10.35,1.971,10.488z"/>
</svg>
