<?xml version="1.0" encoding="utf-8"?>
<!-- Generator: Adobe Illustrator 16.0.0, SVG Export Plug-In . SVG Version: 6.00 Build 0)  -->
<!DOCTYPE svg PUBLIC "-//W3C//DTD SVG 1.1//EN" "http://www.w3.org/Graphics/SVG/1.1/DTD/svg11.dtd">
<svg version="1.1" id="레이어_1" xmlns="http://www.w3.org/2000/svg" xmlns:xlink="http://www.w3.org/1999/xlink" x="0px"
	 y="0px" width="36px" height="36px" viewBox="0 0 36 36" enable-background="new 0 0 36 36" xml:space="preserve">
<path fill="#666666" d="M10.189,25.336c-0.018,4.038,3.531,7.33,7.924,7.348c4.395,0.027,7.979-3.229,8-7.269l0.076-14.445
	c0.014-4.046-3.533-7.327-7.935-7.352c-4.393-0.03-7.974,3.229-7.994,7.268L10.189,25.336z M15.209,16.606l-0.025-0.021
	l-1.447-1.848L13.47,14.34c-0.712-1.088-1.12-2.284-1.12-3.313c0.016-2.648,2.679-4.769,5.945-4.753
	c3.264,0.018,5.893,2.168,5.874,4.813c0,1.195-0.364,2.353-1.233,3.545l0.01-0.03l-0.127,0.195l-1.467,1.815l-0.023,0.032
	c-0.313,0.397-0.512,0.918-0.512,1.498v0.069c-0.004,0.581,0.184,1.109,0.492,1.493l0.039,0.071l1.025,1.295l0.316,0.387
	c0.844,1.197,1.34,2.62,1.332,3.816c-0.018,2.638-2.67,4.77-5.938,4.764c-3.258-0.025-5.895-2.182-5.878-4.826
	c0.002-1.154,0.546-2.514,1.41-3.676l0.506-0.59l1.032-1.289l0.037-0.053c0.31-0.4,0.51-0.924,0.51-1.493
	C15.707,17.54,15.517,17.01,15.209,16.606z"/>
</svg>
