<?xml version="1.0" encoding="utf-8"?>
<!-- Generator: Adobe Illustrator 16.0.0, SVG Export Plug-In . SVG Version: 6.00 Build 0)  -->
<!DOCTYPE svg PUBLIC "-//W3C//DTD SVG 1.1//EN" "http://www.w3.org/Graphics/SVG/1.1/DTD/svg11.dtd">
<svg version="1.1" id="레이어_1" xmlns="http://www.w3.org/2000/svg" xmlns:xlink="http://www.w3.org/1999/xlink" x="0px"
	 y="0px" width="36px" height="36px" viewBox="0 0 36 36" enable-background="new 0 0 36 36" xml:space="preserve">
<path fill="#666666" d="M27.471,24.961c-0.414,0.831-1.078,1.459-1.771,1.682c-2.157,0.693-4.657,0.66-7.226-0.098
	c-2.392-0.705-4.635-1.977-6.314-3.577c-1.988-1.894-3.994-5.166-3.994-8.206c0-0.44,0.043-0.866,0.127-1.267
	c0.361-1.78,1.645-3.41,3.119-3.965c1.34-0.501,2.586,0.149,3.397,0.783c1.409,1.101,1.577,2.395,1.791,4.038
	c0.269,2.037,0.674,5.118,4.514,5.958c0.664,0.146,1.445,0.227,2.271,0.315l0.02-0.172l0.037,0.176
	c0.994,0.104,2.121,0.226,2.742,0.437c0.781,0.264,1.228,0.756,1.539,1.692c0.076,0.231,0.117,0.486,0.117,0.751
	C27.84,23.977,27.711,24.479,27.471,24.961 M31.123,21.588c-0.668-2.02-1.947-3.362-3.809-3.989c-1-0.336-2.285-0.473-3.528-0.603
	c-0.74-0.079-1.438-0.151-1.917-0.257c-1.239-0.272-1.443-0.824-1.715-2.886c-0.241-1.866-0.576-4.418-3.156-6.433
	c-2.773-2.168-5.252-1.911-6.842-1.314c-2.573,0.965-4.789,3.696-5.392,6.637c-0.443,2.169-0.116,4.626,0.946,7.106
	c0.914,2.137,2.326,4.182,3.979,5.756c2.086,1.987,4.846,3.556,7.773,4.42c3.261,0.961,6.481,0.984,9.317,0.07
	c1.589-0.511,3.044-1.818,3.888-3.5c0.504-1.006,0.76-2.064,0.76-3.102C31.428,22.844,31.329,22.201,31.123,21.588"/>
</svg>
