<?xml version="1.0" encoding="utf-8"?>
<!-- Generator: Adobe Illustrator 16.0.0, SVG Export Plug-In . SVG Version: 6.00 Build 0)  -->
<!DOCTYPE svg PUBLIC "-//W3C//DTD SVG 1.1//EN" "http://www.w3.org/Graphics/SVG/1.1/DTD/svg11.dtd">
<svg version="1.1" id="레이어_1" xmlns="http://www.w3.org/2000/svg" xmlns:xlink="http://www.w3.org/1999/xlink" x="0px"
	 y="0px" width="512px" height="512px" viewBox="0 0 512 512" enable-background="new 0 0 512 512" xml:space="preserve">
<path fill="#FFFFFF" stroke="#000000" stroke-miterlimit="10" d="M294.5,165.5c0-2.761-2.238-5-5-5h-80c-2.761,0-5,2.239-5,5v110
	c0,2.762,2.239,5,5,5h80c2.762,0,5-2.238,5-5V165.5z M219.384,179.5h28c1.381,0,2.5,1.119,2.5,2.5s-1.119,2.5-2.5,2.5h-28
	c-1.381,0-2.5-1.119-2.5-2.5S218.003,179.5,219.384,179.5z M282.5,263.5c0,1.104-0.896,2-2,2h-62c-1.104,0-2-0.896-2-2v-28
	c0-1.104,0.896-2,2-2h62c1.104,0,2,0.896,2,2V263.5z M280.384,220.5h-61c-1.381,0-2.5-1.119-2.5-2.5s1.119-2.5,2.5-2.5h61
	c1.382,0,2.5,1.119,2.5,2.5S281.766,220.5,280.384,220.5z M280.384,202.5h-61c-1.381,0-2.5-1.119-2.5-2.5s1.119-2.5,2.5-2.5h61
	c1.382,0,2.5,1.119,2.5,2.5S281.766,202.5,280.384,202.5z"/>
<path fill="#FFFFFF" stroke="#000000" stroke-miterlimit="10" d="M232.977,240.023c0.953,0,1.849,0.153,2.685,0.462
	c0.836,0.308,1.565,0.733,2.188,1.275c0.623,0.543,1.114,1.188,1.475,1.937c0.358,0.748,0.539,1.569,0.539,2.464
	c0,0.938-0.181,1.789-0.539,2.552c-0.36,0.763-0.852,1.416-1.475,1.958c-0.623,0.543-1.353,0.961-2.188,1.254
	c-0.836,0.294-1.731,0.44-2.685,0.44h-2.903v6.357h-3.938v-18.7H232.977L232.977,240.023z M230.073,243.301v5.765h2.838
	c0.865,0,1.58-0.242,2.145-0.727c0.564-0.483,0.848-1.21,0.848-2.178c0-0.484-0.077-0.902-0.231-1.254
	c-0.154-0.353-0.363-0.649-0.627-0.892c-0.264-0.241-0.58-0.421-0.946-0.538c-0.366-0.118-0.763-0.177-1.188-0.177L230.073,243.301
	L230.073,243.301z"/>
<path fill="#FFFFFF" stroke="#000000" stroke-miterlimit="10" d="M249.389,240.023c1.452,0,2.75,0.249,3.895,0.748
	c1.144,0.498,2.111,1.173,2.903,2.023c0.792,0.85,1.397,1.848,1.815,2.992s0.627,2.361,0.627,3.652c0,1.29-0.213,2.5-0.638,3.63
	c-0.427,1.129-1.038,2.111-1.837,2.947c-0.8,0.836-1.771,1.496-2.915,1.98c-1.145,0.483-2.428,0.726-3.851,0.726h-6.468v-18.699
	L249.389,240.023L249.389,240.023z M248.949,255.511c0.909,0,1.716-0.15,2.42-0.451c0.704-0.3,1.294-0.718,1.771-1.254
	c0.477-0.535,0.84-1.173,1.089-1.914c0.25-0.74,0.374-1.558,0.374-2.452c0-0.982-0.132-1.859-0.396-2.63
	c-0.264-0.77-0.638-1.422-1.122-1.957c-0.484-0.536-1.074-0.942-1.771-1.222c-0.697-0.278-1.485-0.418-2.365-0.418h-2.09v12.298
	H248.949z"/>
<path fill="#FFFFFF" stroke="#000000" stroke-miterlimit="10" d="M274.732,243.301h-8.668v4.114h8.162v3.278h-8.162v8.03h-3.938
	v-18.7h12.606V243.301z"/>
<path fill="#FFFFFF" stroke="#000000" stroke-miterlimit="10" d="M305.563,149.501c-0.069-0.091-0.044-0.182-0.121-0.267
	c-0.029-0.029-0.014,0.279-0.043,0.25c-0.782-0.801-1.78-0.984-2.99-0.984h-0.211h-3.523h-71.102c-2.589,0-5.071,1.43-5.071,4.019
	v3.734c0-0.269,1.672,0.247,2.384,0.247H298.5v107.541c0,0.712,0.441,2.459,0.173,2.459h3.734c2.589,0,4.093-2.559,4.093-5.146
	V156.253v-3.523v-0.211C306.5,151.362,306.258,150.317,305.563,149.501z"/>
</svg>
