<?xml version="1.0" encoding="utf-8"?>
<!-- Generator: Adobe Illustrator 16.0.0, SVG Export Plug-In . SVG Version: 6.00 Build 0)  -->
<!DOCTYPE svg PUBLIC "-//W3C//DTD SVG 1.1//EN" "http://www.w3.org/Graphics/SVG/1.1/DTD/svg11.dtd">
<svg version="1.1" id="레이어_1" xmlns="http://www.w3.org/2000/svg" xmlns:xlink="http://www.w3.org/1999/xlink" x="0px"
	 y="0px" width="231px" height="133px" viewBox="0 0 231 133" enable-background="new 0 0 231 133" xml:space="preserve">
<path fill="#3E76A7" d="M95.551,110.547V23.75c0-1.104,0.896-2,2-2h-16c-1.023,0-1.853,0.83-1.853,1.854v87.09
	c0,1.023,0.829,1.854,1.853,1.854h16C96.446,112.547,95.551,111.651,95.551,110.547z"/>
<path fill="#3E76A7" d="M161.007,78.344c2.369,0.995,4.785,1.854,7.35,2.174c0.925,0.114,1.864,0.099,2.865,0.142
	c-0.08-0.608-0.475-0.902-0.786-1.183c-0.331-0.301-0.782-0.494-1.208-0.664c-1.566-0.633-3.222-0.849-4.889-0.937
	c-1.181-0.064-2.37-0.013-3.679-0.013C160.785,78.046,160.86,78.282,161.007,78.344z"/>
<path fill="#3E76A7" d="M119.036,94.722c-0.193,0.327-0.347,0.677-0.56,1.098c1.132-0.208,2.031-0.654,2.843-1.274
	c2.613-1.995,4.163-4.781,5.716-7.696c-1.344,0.528-2.364,1.318-3.315,2.229C121.94,90.781,120.304,92.597,119.036,94.722z"/>
<path opacity="0.2" fill="#27476D" d="M119.036,94.722c-0.193,0.327-0.347,0.677-0.56,1.098c1.132-0.208,2.031-0.654,2.843-1.274
	c2.613-1.995,4.163-4.781,5.716-7.696c-1.344,0.528-2.364,1.318-3.315,2.229C121.94,90.781,120.304,92.597,119.036,94.722z"/>
<path fill="#3E76A7" d="M141.218,53.823c0.051,0.001,0.102,0.004,0.151,0.005c0.268-1.076,0.58-2.144,0.784-3.231
	c0.138-0.735,0.086-1.505,0.178-2.251c0.144-1.167,0.409-2.336,0.169-3.505c-0.112-0.561-0.124-1.211-0.699-1.641
	c-0.192,0.383-0.59,0.537-0.71,0.995c-0.636,2.407-0.619,4.828-0.279,7.265C140.925,52.25,141.081,53.035,141.218,53.823z"/>
<path fill="#426DA0" d="M141.218,53.823c0.051,0.001,0.102,0.004,0.151,0.005c0.268-1.076,0.58-2.144,0.784-3.231
	c0.138-0.735,0.086-1.505,0.178-2.251c0.144-1.167,0.409-2.336,0.169-3.505c-0.112-0.561-0.124-1.211-0.699-1.641
	c-0.192,0.383-0.59,0.537-0.71,0.995c-0.636,2.407-0.619,4.828-0.279,7.265C140.925,52.25,141.081,53.035,141.218,53.823z"/>
<path fill="#3E76A7" d="M189.281,21.75h-32.434H97.551c-1.104,0-2,0.896-2,2v86.797c0,1.104,0.896,2,2,2h59.297h32.434
	c1.023,0,1.853-0.83,1.853-1.854v-87.09C191.134,22.58,190.305,21.75,189.281,21.75z M174.506,80.536
	c0,0.054-0.021,0.116-0.048,0.161c-0.423,0.695-0.849,1.386-1.272,2.079c-0.308,0.504-0.75,0.809-1.305,1.021
	c-1.657,0.639-3.377,0.69-5.109,0.575c-2.704-0.182-5.349-0.646-7.924-1.424c-0.881-0.266-1.754-0.566-2.618-0.906
	c-0.31-0.122-0.643-0.215-0.919-0.393c-0.837-0.537-1.72-0.535-2.663-0.388c-3.097,0.483-6.207,0.882-9.3,1.4
	c-2.721,0.453-5.393,1.133-7.971,2.143c-0.096,0.035-0.194,0.094-0.29,0.09c-0.573-0.025-0.858,0.354-1.105,0.781
	c-1.739,3.008-3.578,5.946-5.768,8.654c-1.272,1.575-2.642,3.058-4.299,4.239c-1.341,0.958-2.784,1.611-4.487,1.522
	c-0.521-0.028-0.975-0.148-1.418-0.459c-0.662-0.467-1.391-0.841-2.073-1.28c-0.13-0.084-0.207-0.268-0.277-0.423
	c-0.058-0.127-0.051-0.286-0.107-0.413c-0.493-1.111-0.489-2.21-0.003-3.331c0.83-1.912,2.108-3.495,3.566-4.953
	c2.045-2.046,4.472-3.55,6.991-4.926c0.699-0.382,1.401-0.763,2.095-1.155c0.144-0.084,0.299-0.198,0.374-0.338
	c2.364-4.312,5.019-8.477,6.731-13.114c1.068-2.898,2.036-5.832,3.033-8.755c0.063-0.184,0.021-0.425-0.035-0.623
	c-0.477-1.688-1.035-3.355-1.439-5.061c-0.681-2.867-0.495-5.74,0.198-8.586c0.174-0.718,0.355-1.437,0.575-2.143
	c0.259-0.827,0.694-1.56,1.293-2.195c1.215-1.288,2.725-1.271,4.286-0.944c2.231,0.469,3.14,2.124,3.553,4.141
	c0.205,1.004,0.26,2.039,0.385,3.06c-0.125,3.144-0.731,6.192-1.655,9.163c-0.408,1.311-0.327,2.428,0.219,3.667
	c1.686,3.834,3.751,7.426,6.735,10.39c1.258,1.251,2.776,2.239,4.376,3.057c0.131,0.067,0.311,0.075,0.465,0.063
	c0.518-0.042,1.035-0.09,1.553-0.137c0.826-0.075,1.653-0.149,2.481-0.21c3.34-0.242,6.653-0.148,9.843,1.016
	c0.643,0.234,1.249,0.618,1.812,1.016C174.337,77.579,174.552,79.015,174.506,80.536z"/>
<path fill="#3E76A7" d="M148.834,75.833c-2.565-3.096-4.901-6.342-6.663-9.973c-0.128-0.265-0.252-0.533-0.38-0.801
	c-2.1,5.7-4.532,11.209-7.615,16.421c0.036,0.06,0.072,0.115,0.109,0.173c0.443-0.088,0.907-0.119,1.329-0.274
	c3.947-1.47,7.96-2.719,12.092-3.559c0.97-0.195,1.947-0.351,2.955-0.528c-0.348-0.238-0.671-0.432-0.964-0.665
	C149.392,76.385,149.082,76.132,148.834,75.833z"/>
<path fill="#426DA0" d="M148.834,75.833c-2.565-3.096-4.901-6.342-6.663-9.973c-0.128-0.265-0.252-0.533-0.38-0.801
	c-2.1,5.7-4.532,11.209-7.615,16.421c0.036,0.06,0.072,0.115,0.109,0.173c0.443-0.088,0.907-0.119,1.329-0.274
	c3.947-1.47,7.96-2.719,12.092-3.559c0.97-0.195,1.947-0.351,2.955-0.528c-0.348-0.238-0.671-0.432-0.964-0.665
	C149.392,76.385,149.082,76.132,148.834,75.833z"/>
<path fill="#27476D" d="M172.982,76.633c-0.563-0.397-1.169-0.781-1.812-1.016c-3.189-1.164-6.503-1.258-9.843-1.016
	c-0.828,0.061-1.655,0.135-2.481,0.21c-0.518,0.047-1.035,0.095-1.553,0.137c-0.154,0.012-0.334,0.004-0.465-0.063
	c-1.6-0.817-3.118-1.806-4.376-3.057c-2.984-2.964-5.05-6.556-6.735-10.39c-0.546-1.239-0.627-2.357-0.219-3.667
	c0.924-2.971,1.53-6.019,1.655-9.163c-0.125-1.021-0.18-2.055-0.385-3.06c-0.413-2.017-1.321-3.672-3.553-4.141
	c-1.562-0.327-3.071-0.344-4.286,0.944c-0.599,0.635-1.034,1.368-1.293,2.195c-0.22,0.706-0.401,1.424-0.575,2.143
	c-0.693,2.847-0.879,5.719-0.198,8.586c0.404,1.705,0.963,3.372,1.439,5.061c0.056,0.197,0.098,0.439,0.035,0.623
	c-0.997,2.923-1.965,5.856-3.033,8.755c-1.713,4.638-4.367,8.803-6.731,13.114c-0.075,0.14-0.23,0.254-0.374,0.338
	c-0.693,0.393-1.396,0.773-2.095,1.155c-2.52,1.376-4.946,2.88-6.991,4.926c-1.458,1.458-2.736,3.041-3.566,4.953
	c-0.486,1.121-0.49,2.22,0.003,3.331c0.057,0.127,0.05,0.286,0.107,0.413c0.07,0.155,0.147,0.339,0.277,0.423
	c0.683,0.439,1.411,0.813,2.073,1.28c0.443,0.311,0.897,0.431,1.418,0.459c1.703,0.089,3.146-0.564,4.487-1.522
	c1.657-1.182,3.026-2.664,4.299-4.239c2.189-2.708,4.028-5.646,5.768-8.654c0.247-0.427,0.532-0.807,1.105-0.781
	c0.096,0.004,0.194-0.055,0.29-0.09c2.578-1.01,5.25-1.689,7.971-2.143c3.093-0.519,6.203-0.917,9.3-1.4
	c0.943-0.147,1.826-0.149,2.663,0.388c0.276,0.178,0.609,0.271,0.919,0.393c0.864,0.34,1.737,0.641,2.618,0.906
	c2.575,0.777,5.22,1.242,7.924,1.424c1.732,0.115,3.452,0.063,5.109-0.575c0.555-0.213,0.997-0.518,1.305-1.021
	c0.424-0.693,0.85-1.384,1.272-2.079c0.027-0.045,0.048-0.107,0.048-0.161C174.551,79.028,174.336,77.593,172.982,76.633z
	 M121.318,94.559c-0.812,0.62-1.711,1.066-2.843,1.274c0.213-0.421,0.366-0.771,0.56-1.098c1.268-2.125,2.904-3.94,4.684-5.644
	c0.951-0.911,1.972-1.701,3.315-2.229C125.481,89.777,123.932,92.563,121.318,94.559z M141.09,44.208
	c0.12-0.458,0.518-0.612,0.71-0.995c0.575,0.43,0.587,1.081,0.699,1.641c0.24,1.169-0.025,2.339-0.169,3.505
	c-0.092,0.746-0.04,1.516-0.178,2.251c-0.204,1.088-0.517,2.155-0.784,3.231c-0.05-0.001-0.101-0.004-0.151-0.005
	c-0.137-0.789-0.293-1.574-0.406-2.365C140.471,49.036,140.454,46.615,141.09,44.208z M147.705,77.834
	c-4.132,0.84-8.145,2.089-12.092,3.559c-0.422,0.155-0.886,0.187-1.329,0.274c-0.037-0.058-0.073-0.113-0.109-0.173
	c3.083-5.212,5.516-10.721,7.615-16.421c0.128,0.268,0.252,0.535,0.38,0.801c1.762,3.631,4.098,6.877,6.663,9.973
	c0.248,0.299,0.558,0.552,0.863,0.794c0.293,0.233,0.616,0.427,0.964,0.665C149.652,77.483,148.675,77.639,147.705,77.834z
	 M168.355,80.531c-2.564-0.32-4.98-1.179-7.35-2.174c-0.146-0.062-0.222-0.298-0.347-0.48c1.309,0,2.498-0.052,3.679,0.013
	c1.667,0.088,3.322,0.304,4.889,0.937c0.426,0.17,0.877,0.363,1.208,0.664c0.312,0.28,0.706,0.574,0.786,1.183
	C170.22,80.63,169.28,80.646,168.355,80.531z"/>
<path fill="#37629D" d="M84.797,55.752c1.267,0.13,2.364,0.379,3.256,0.772c1.33,0.586,2.429,1.428,3.298,2.524
	c0.868,1.097,1.498,2.372,1.889,3.827c0.391,1.455,0.587,2.997,0.587,4.626c0,2.551-0.291,4.529-0.872,5.936
	c-0.581,1.405-1.387,2.584-2.418,3.533c-1.031,0.951-2.139,1.583-3.322,1.898c-1.618,0.434-3.083,0.65-4.397,0.65h-10.96v-9.913
	l-35.496,37.998l94.91,21.618V6L84.797,55.752z M115.976,60.775h-10.831v4.169h9.25v4.821h-9.25v9.754h-7.41V55.645h18.241V60.775z"
	/>
<polygon fill="#71B2CD" points="131.271,6 133,6 133,128 131.271,129.223 "/>
<polygon fill="#3869A9" points="131.271,129.223 36.361,107.604 36.269,23.603 131.271,6 "/>
<path fill="none" d="M59.854,65.083c0.575-0.494,0.863-1.126,0.863-1.897c0-0.749-0.25-1.384-0.75-1.905
	c-0.5-0.521-1.438-0.782-2.817-0.782H55.05v5.326h1.808C58.28,65.824,59.279,65.576,59.854,65.083z"/>
<polygon fill="none" points="79.235,61.708 79.847,61.052 79.235,61.052 "/>
<path fill="#37629D" d="M79.235,74.098h1.808c1.542,0,2.639-0.172,3.29-0.514c0.651-0.343,1.162-0.939,1.531-1.791
	c0.369-0.853,0.554-2.234,0.554-4.146c0-2.529-0.413-4.261-1.238-5.195c-0.825-0.933-2.193-1.4-4.104-1.4h-1.229l-0.612,0.656
	V74.098z"/>
<path fill="#FFFFFF" d="M55.05,70.66h4.039c2.975,0,5.188-0.678,6.637-2.036c1.45-1.356,2.174-3.24,2.174-5.651
	c0-2.345-0.665-4.152-1.995-5.423c-1.33-1.27-3.33-1.906-6.001-1.906H47.64V79.52h7.41V70.66z M55.05,60.498h2.101
	c1.379,0,2.318,0.261,2.817,0.782c0.5,0.521,0.75,1.156,0.75,1.905c0,0.771-0.288,1.403-0.863,1.897
	c-0.576,0.494-1.574,0.741-2.997,0.741H55.05V60.498z"/>
<path fill="#FFFFFF" d="M79.235,61.052h0.612l4.951-5.3c-0.621-0.063-1.269-0.107-1.979-0.107h-10.96v13.962l7.377-7.899V61.052z"/>
<path fill="#AED3FF" d="M82.818,79.52c1.313,0,2.779-0.217,4.397-0.65c1.183-0.315,2.291-0.947,3.322-1.898
	c1.031-0.949,1.838-2.128,2.418-3.533c0.581-1.406,0.872-3.385,0.872-5.936c0-1.629-0.196-3.171-0.587-4.626
	c-0.391-1.455-1.021-2.73-1.889-3.827c-0.869-1.097-1.968-1.938-3.298-2.524c-0.893-0.394-1.989-0.643-3.256-0.772l-4.951,5.3h1.229
	c1.911,0,3.279,0.467,4.104,1.4c0.826,0.934,1.238,2.666,1.238,5.195c0,1.911-0.185,3.293-0.554,4.146
	c-0.369,0.852-0.879,1.448-1.531,1.791c-0.651,0.342-1.749,0.514-3.29,0.514h-1.808v-12.39l-7.377,7.899v9.913H82.818z"/>
<polygon fill="#AED3FF" points="97.735,79.52 105.146,79.52 105.146,69.766 114.396,69.766 114.396,64.944 105.146,64.944 
	105.146,60.775 115.976,60.775 115.976,55.645 97.735,55.645 "/>
<path fill="#27517B" d="M36.269,23.603c0.208,7,0.304,14,0.454,21l0.271,21l0.121,10.5l0.042,10.501l0.084,21l-0.756-0.948
	c7.931,1.74,15.828,3.627,23.741,5.445l11.865,2.75c3.952,0.927,7.915,1.812,11.859,2.772l23.685,5.692l11.824,2.93
	c3.942,0.972,7.88,1.961,11.813,2.977c-3.984-0.786-7.963-1.598-11.938-2.428l-11.927-2.476l-23.816-5.116
	c-3.972-0.841-7.927-1.757-11.892-2.633l-11.886-2.654c-7.921-1.784-15.857-3.501-23.76-5.363l-0.759-0.18l0.003-0.769l0.084-21
	l0.042-10.501l0.121-10.5l0.271-21C35.965,37.603,36.061,30.603,36.269,23.603z"/>
<path fill="#27517B" d="M156.848,112.547c0,0,9.86-0.112,24.651-0.28c1.849-0.013,3.775-0.026,5.769-0.04
	c0.498-0.004,1.001-0.007,1.507-0.011c0.54,0.011,0.96-0.012,1.299-0.241c0.358-0.219,0.619-0.6,0.681-1.019
	c0.026-0.191,0.028-0.454,0.022-0.723l-0.006-0.792c-0.022-4.237-0.046-8.705-0.069-13.327c-0.021-9.244-0.044-19.105-0.066-28.966
	c0.021-9.861,0.044-19.721,0.065-28.966c0.023-4.622,0.047-9.09,0.069-13.327c-0.011-0.513,0.038-1.093-0.021-1.541
	c-0.057-0.371-0.319-0.781-0.676-0.992c-0.366-0.236-0.755-0.248-1.299-0.241c-0.506-0.003-1.009-0.007-1.507-0.01
	c-1.993-0.014-3.92-0.027-5.769-0.041c-14.791-0.168-24.651-0.281-24.651-0.281s9.86-0.113,24.651-0.281
	c1.849-0.013,3.775-0.026,5.769-0.041c0.498-0.003,1.001-0.007,1.507-0.01c0.458-0.018,1.146-0.019,1.66,0.323
	c0.523,0.321,0.909,0.839,1.019,1.503c0.072,0.59,0.026,1.067,0.045,1.612c0.022,4.237,0.046,8.705,0.069,13.327
	c0.021,9.245,0.044,19.105,0.065,28.966c-0.022,9.86-0.045,19.722-0.066,28.966c-0.023,4.622-0.047,9.09-0.069,13.327l-0.006,0.792
	c0,0.257,0.004,0.518-0.043,0.846c-0.104,0.616-0.492,1.163-1.015,1.476c-0.542,0.349-1.197,0.338-1.659,0.323
	c-0.506-0.004-1.009-0.007-1.507-0.011c-1.993-0.014-3.92-0.027-5.769-0.04C166.708,112.659,156.848,112.547,156.848,112.547z"/>
</svg>
