<?xml version="1.0" encoding="utf-8"?>
<!-- Generator: Adobe Illustrator 16.0.0, SVG Export Plug-In . SVG Version: 6.00 Build 0)  -->
<!DOCTYPE svg PUBLIC "-//W3C//DTD SVG 1.1//EN" "http://www.w3.org/Graphics/SVG/1.1/DTD/svg11.dtd">
<svg version="1.1" id="레이어_1" xmlns="http://www.w3.org/2000/svg" xmlns:xlink="http://www.w3.org/1999/xlink" x="0px"
	 y="0px" width="256px" height="256px" viewBox="0 0 256 256" enable-background="new 0 0 256 256" xml:space="preserve">
<path fill="#FFFFFF" stroke="#000000" stroke-miterlimit="10" d="M125.596,255.445c-53.839-1.324-96.563-46.211-95.234-100.051
	c0.923-37.52,22.721-70.6,56.887-86.337c6.999-3.223,15.286-0.162,18.511,6.837c3.222,6.998,0.162,15.286-6.838,18.509
	c-24.421,11.25-40.003,34.88-40.666,61.677c-0.947,38.463,29.57,70.525,68.028,71.469c38.451,0.947,70.503-29.566,71.453-68.025
	c0.696-28.09-15.402-53.721-41.014-65.309c-7.021-3.177-10.135-11.441-6.959-18.462c3.18-7.021,11.439-10.138,18.461-6.961
	c35.848,16.214,58.38,52.097,57.411,91.417C224.304,214.057,179.424,256.775,125.596,255.445z"/>
<path fill="#FFFFFF" stroke="#000000" stroke-miterlimit="10" d="M168,34.359L138.472,4.83c-0.05-0.052-0.092-0.108-0.145-0.16
	c-2.74-2.743-6.34-4.112-9.935-4.11c-3.595-0.002-7.189,1.368-9.932,4.11c-0.053,0.053-0.096,0.112-0.15,0.166L88.79,34.359
	c-5.48,5.48-5.481,14.367,0,19.849c5.482,5.481,14.368,5.48,19.85-0.001l5.32-5.321v87.864c0,7.75,6.284,14.037,14.036,14.037
	c7.753,0,14.035-6.287,14.035-14.039V48.085l6.122,6.121c5.479,5.481,14.366,5.482,19.848,0.001
	C173.482,48.726,173.482,39.839,168,34.359z"/>
</svg>
