<?xml version="1.0" encoding="utf-8"?>
<!-- Generator: Adobe Illustrator 16.0.0, SVG Export Plug-In . SVG Version: 6.00 Build 0)  -->
<!DOCTYPE svg PUBLIC "-//W3C//DTD SVG 1.1//EN" "http://www.w3.org/Graphics/SVG/1.1/DTD/svg11.dtd">
<!--
<svg version="1.1" id="레이어_1" xmlns="http://www.w3.org/2000/svg" xmlns:xlink="http://www.w3.org/1999/xlink" x="0px"
	 y="0px" width="64px" height="64px" viewBox="0 0 64 64" xml:space="preserve">
<path fill="#1EDCDC" d="M32,63.154 L5,47.577 L5,16.423 L32,0.846 L59,16.423 L59,47.577 L32,63.154z
M7,46.423 L32,60.846 L57,46.424 L57,17.578 L32,3.154  L7,17.578 L7,46.423z"/>
	</svg>
-->
<svg version="1.1" id="레이어_1" xmlns="http://www.w3.org/2000/svg" xmlns:xlink="http://www.w3.org/1999/xlink" x="0px"
	 y="0px" width="56px" height="64px" xml:space="preserve">
<path fill="#1EDCDC" d="
	M27.7128,0 L55.4256,16 L55.4256,48 L27.7128,64 L0,48 L0,16 L27.7128,0z
	M27.9807,2 L2,17 L2,47 L27.9807,62 L53.9615,47 L53.9615,17 L27.9807,2z
	 "/>
</svg>
