<?xml version="1.0" encoding="utf-8"?>
<!-- Generator: Adobe Illustrator 16.0.0, SVG Export Plug-In . SVG Version: 6.00 Build 0)  -->
<!DOCTYPE svg PUBLIC "-//W3C//DTD SVG 1.1//EN" "http://www.w3.org/Graphics/SVG/1.1/DTD/svg11.dtd">
<svg version="1.1" id="레이어_1" xmlns="http://www.w3.org/2000/svg" xmlns:xlink="http://www.w3.org/1999/xlink" x="0px"
	 y="0px" width="512px" height="512px" viewBox="0 0 512 512" enable-background="new 0 0 512 512" xml:space="preserve">
<g>
	<path fill="#F9AC3C" d="M329.202,53.718c-0.041-0.028-0.089-0.049-0.13-0.056c-0.756-0.276-1.517-0.525-2.276-0.796
		c-1.952-0.678-3.915-1.342-5.882-1.965c-0.222-0.076-0.441-0.152-0.655-0.222c-0.47-0.145-0.943-0.29-1.419-0.442
		c-1.178-0.354-2.367-0.7-3.556-1.045c-1.412-0.407-2.823-0.802-4.233-1.177c-1.079-0.291-2.16-0.566-3.238-0.838
		c-1.24-0.311-2.479-0.607-3.715-0.897c-0.748-0.174-1.502-0.339-2.249-0.506c-0.358-0.076-0.706-0.152-1.066-0.229
		c-1.522-0.325-3.044-0.636-4.574-0.921c-0.815-0.159-1.633-0.325-2.455-0.477c-0.345-0.069-0.706-0.132-1.053-0.187
		c-1.127-0.2-2.254-0.366-3.382-0.546c-1.551-0.243-3.101-0.485-4.649-0.699c-0.976-0.125-1.958-0.256-2.938-0.366
		c-1.352-0.16-2.699-0.32-4.043-0.458c-0.926-0.089-1.859-0.186-2.794-0.275c-1.542-0.139-3.1-0.242-4.655-0.353
		c-1.295-0.09-2.581-0.181-3.882-0.236c-0.415-0.034-0.843-0.048-1.259-0.07c-2.282-0.102-4.581-0.144-6.883-0.178
		c-0.847-0.007-1.688-0.036-2.54-0.036v214.961L329.202,53.718z"/>
	<path fill="#F7C939" d="M255.675,255.706V40.745c-0.055,0-0.125-0.007-0.179-0.007c-0.582,0-1.163,0.028-1.744,0.028
		c-2.512,0.027-5.023,0.075-7.506,0.191c-0.547,0.029-1.093,0.05-1.641,0.07c-0.981,0.056-1.965,0.133-2.953,0.194
		c-1.751,0.118-3.495,0.242-5.238,0.401c-1.078,0.098-2.164,0.2-3.244,0.326c-1.018,0.103-2.041,0.214-3.052,0.332
		c-1.148,0.131-2.283,0.284-3.417,0.437c-0.09,0.013-0.181,0.033-0.27,0.041c-1.688,0.234-3.383,0.49-5.071,0.761
		c-0.719,0.11-1.439,0.229-2.16,0.347c-0.131,0.014-0.263,0.048-0.395,0.069c-0.38,0.069-0.747,0.131-1.12,0.2
		c-0.949,0.173-1.896,0.36-2.844,0.546c-1.598,0.305-3.189,0.622-4.767,0.963c-1.01,0.221-2.021,0.456-3.023,0.69
		c-1.246,0.283-2.483,0.589-3.714,0.9c-0.941,0.234-1.868,0.463-2.802,0.719c-1.571,0.423-3.142,0.858-4.718,1.315
		c-1.155,0.331-2.311,0.664-3.46,1.018c-0.415,0.131-0.831,0.263-1.238,0.387c-2.291,0.721-4.574,1.502-6.857,2.297
		c-0.706,0.25-1.418,0.478-2.117,0.734l73.528,202.016L255.675,255.706L255.675,255.706z"/>
	<path fill="#F2EB16" d="M255.675,255.722L182.146,53.704c-0.062,0.027-0.117,0.04-0.18,0.07c-0.442,0.158-0.884,0.332-1.329,0.497
		c-2.503,0.934-4.98,1.909-7.43,2.919c-0.443,0.188-0.885,0.374-1.329,0.561c-0.859,0.368-1.701,0.741-2.546,1.114
		c-1.723,0.755-3.432,1.529-5.127,2.325c-0.913,0.427-1.833,0.863-2.74,1.313c-0.892,0.438-1.792,0.872-2.685,1.328
		c-1.127,0.567-2.249,1.142-3.362,1.73c-0.034,0.021-0.055,0.027-0.083,0.049c-1.473,0.781-2.934,1.57-4.394,2.387
		c-0.67,0.374-1.341,0.733-2.006,1.114c-0.504,0.292-1.009,0.588-1.514,0.886c-0.774,0.456-1.543,0.913-2.312,1.377
		c-1.39,0.837-2.772,1.674-4.136,2.532c-0.878,0.56-1.764,1.128-2.636,1.694c-1.066,0.685-2.109,1.391-3.154,2.096
		c-0.796,0.541-1.599,1.086-2.394,1.641c-1.342,0.934-2.67,1.896-3.998,2.863c-0.956,0.704-1.924,1.404-2.879,2.123
		c-0.194,0.146-0.387,0.299-0.581,0.442c-0.512,0.395-1.024,0.809-1.528,1.212c-1.557,1.196-3.092,2.415-4.615,3.666
		c-0.464,0.388-0.936,0.754-1.399,1.142c-0.096,0.083-0.207,0.179-0.304,0.256l138.182,164.692L255.675,255.722z"/>
	<path fill="#B7DD2A" d="M255.669,255.734L255.669,255.734L117.487,91.042c-0.899,0.769-1.785,1.543-2.671,2.319
		c-1.508,1.313-3.023,2.621-4.49,3.97c-0.104,0.083-0.201,0.167-0.298,0.263c-1.315,1.22-2.607,2.47-3.901,3.723
		c-0.969,0.941-1.943,1.881-2.898,2.837c-0.408,0.415-0.81,0.829-1.217,1.247c-1.308,1.326-2.596,2.684-3.855,4.04
		c-0.567,0.609-1.126,1.216-1.688,1.827c-0.02,0.026-0.056,0.062-0.075,0.089c-0.727,0.804-1.446,1.626-2.16,2.442
		c-1.128,1.286-2.262,2.566-3.355,3.882c-0.139,0.152-0.27,0.317-0.402,0.47c-0.595,0.714-1.176,1.445-1.757,2.159
		c-0.546,0.685-1.08,1.363-1.62,2.04c-0.648,0.815-1.293,1.619-1.922,2.449c-0.478,0.615-0.955,1.246-1.425,1.868
		c-0.748,0.996-1.48,2-2.213,3.001c-0.167,0.236-0.333,0.466-0.5,0.7c-0.456,0.637-0.913,1.272-1.356,1.902
		c-0.898,1.302-1.791,2.588-2.663,3.909c-0.582,0.858-1.17,1.723-1.738,2.603c-0.29,0.448-0.58,0.904-0.871,1.362
		c-0.159,0.248-0.312,0.504-0.47,0.76c-1.17,1.855-2.312,3.708-3.426,5.604c-0.269,0.456-0.553,0.906-0.824,1.37
		c-0.028,0.036-0.048,0.084-0.069,0.125c-0.048,0.076-0.089,0.166-0.138,0.242l186.175,107.489H255.669z"/>
	<path fill="#3CB44A" d="M69.487,148.243c-0.533,0.921-1.038,1.861-1.558,2.788c-1.045,1.89-2.089,3.764-3.078,5.667
		c-0.041,0.083-0.09,0.173-0.139,0.256c-0.78,1.527-1.536,3.072-2.283,4.614c-0.637,1.321-1.285,2.643-1.901,3.964
		c-0.229,0.498-0.449,0.996-0.671,1.494c-0.747,1.654-1.473,3.301-2.172,4.968c-0.359,0.852-0.725,1.701-1.079,2.553
		c-0.401,1.003-0.788,2.027-1.191,3.037c-0.607,1.55-1.209,3.1-1.784,4.677c-0.104,0.277-0.208,0.566-0.304,0.844
		c-0.292,0.802-0.567,1.618-0.838,2.421c-0.297,0.844-0.573,1.695-0.851,2.546c-0.346,1.023-0.691,2.048-1.009,3.072
		c-0.208,0.664-0.416,1.314-0.617,1.978c-0.367,1.205-0.726,2.437-1.072,3.654c-0.09,0.297-0.173,0.608-0.262,0.913
		c-0.222,0.789-0.437,1.578-0.651,2.373c-0.373,1.404-0.733,2.83-1.086,4.254c-0.256,1.052-0.525,2.097-0.769,3.155
		c-0.117,0.532-0.235,1.058-0.352,1.583c-0.104,0.492-0.201,0.976-0.304,1.46c-0.408,1.882-0.796,3.777-1.156,5.687
		c-0.083,0.422-0.167,0.845-0.242,1.267c-0.056,0.303-0.118,0.622-0.167,0.934l211.71,37.331L69.487,148.243z"/>
	<path fill="#23B374" d="M255.669,255.734h-0.008l-211.71-37.331c0,0.009,0,0.009,0,0.009c-0.207,1.161-0.38,2.337-0.566,3.506
		c-0.27,1.723-0.546,3.444-0.769,5.168c-0.103,0.733-0.192,1.467-0.284,2.2c-0.186,1.432-0.332,2.871-0.477,4.311
		c-0.124,1.086-0.235,2.191-0.333,3.279c-0.109,1.26-0.193,2.519-0.29,3.776c-0.098,1.424-0.194,2.857-0.263,4.289
		c-0.042,0.588-0.063,1.177-0.091,1.771c-0.075,1.909-0.117,3.833-0.144,5.75c-0.02,1.149-0.056,2.317-0.056,3.474
		c0,0.214,0,0.435,0,0.664c0,0.303,0.015,0.594,0.015,0.898c0.021,2.25,0.089,4.482,0.173,6.718
		c0.012,0.284,0.021,0.567,0.021,0.851c0.041,0.789,0.075,1.571,0.118,2.353c0.047,0.774,0.097,1.544,0.144,2.317
		c0.111,1.619,0.235,3.225,0.374,4.83c0.132,1.493,0.277,2.997,0.443,4.496c0.084,0.762,0.167,1.523,0.25,2.291
		c0.11,0.913,0.235,1.82,0.359,2.726c0.021,0.227,0.055,0.463,0.098,0.691c0.29,2.138,0.602,4.27,0.962,6.413
		c0.048,0.262,0.076,0.52,0.132,0.78c0.055,0.374,0.118,0.743,0.187,1.102L255.669,255.734L255.669,255.734z"/>
	<path fill="#1AA899" d="M255.661,255.749l0.008-0.015L43.951,293.066c0.007,0.034,0.007,0.076,0.014,0.104
		c0.186,1.042,0.402,2.075,0.602,3.119c0.345,1.812,0.706,3.62,1.101,5.41c0.166,0.775,0.338,1.538,0.519,2.298
		c0.29,1.289,0.609,2.575,0.934,3.846c0.276,1.151,0.567,2.292,0.872,3.419c0.347,1.287,0.706,2.554,1.072,3.833
		c0.36,1.258,0.72,2.518,1.107,3.777c0.194,0.614,0.38,1.238,0.582,1.84c0.594,1.909,1.245,3.813,1.909,5.702
		c0.333,0.98,0.65,1.952,1.01,2.911c0.097,0.272,0.193,0.546,0.291,0.811c0.083,0.229,0.172,0.456,0.263,0.68
		c0.838,2.254,1.73,4.502,2.636,6.713c0.049,0.127,0.097,0.253,0.146,0.376c0.311,0.741,0.616,1.474,0.927,2.214
		c0.305,0.7,0.609,1.377,0.913,2.068c0.664,1.525,1.356,3.038,2.048,4.541c0.629,1.334,1.265,2.663,1.915,3.984
		c0.348,0.691,0.686,1.384,1.032,2.077c0.429,0.857,0.872,1.714,1.321,2.56c0.069,0.137,0.145,0.269,0.214,0.414
		c1.024,1.938,2.075,3.886,3.169,5.811c0.138,0.249,0.276,0.511,0.415,0.747c0.179,0.304,0.346,0.608,0.526,0.912L255.661,255.749z"
		/>
	<path fill="#27A4DD" d="M255.661,255.749L69.487,363.231c0.014,0.028,0.028,0.057,0.049,0.099c0.512,0.87,1.044,1.742,1.569,2.619
		c0.977,1.628,1.952,3.246,2.962,4.846c0.416,0.648,0.831,1.298,1.26,1.943c0.706,1.091,1.425,2.165,2.158,3.251
		c0.671,0.998,1.349,1.991,2.042,2.982c0.754,1.071,1.514,2.138,2.297,3.21c0.767,1.051,1.529,2.104,2.316,3.148
		c0.402,0.526,0.803,1.052,1.197,1.571c1.224,1.581,2.477,3.146,3.757,4.703c0.629,0.782,1.259,1.587,1.909,2.357
		c0.078,0.091,0.153,0.181,0.229,0.27c0.436,0.521,0.893,1.027,1.334,1.544c1.398,1.628,2.81,3.23,4.248,4.814
		c0.112,0.119,0.222,0.233,0.339,0.373c0.395,0.424,0.789,0.845,1.19,1.286c0.769,0.825,1.556,1.641,2.338,2.457
		c1.037,1.073,2.068,2.138,3.12,3.183c0.885,0.885,1.778,1.755,2.685,2.622c0.802,0.776,1.605,1.556,2.421,2.31
		c0.582,0.552,1.177,1.093,1.765,1.641c0.2,0.187,0.416,0.366,0.623,0.551c1.362,1.238,2.747,2.458,4.159,3.668
		c0.539,0.472,1.085,0.953,1.639,1.434c0.119,0.087,0.236,0.193,0.354,0.284c0.014,0.021,0.021,0.021,0.027,0.033L255.661,255.749
		L255.661,255.749z"/>
	<path fill="#0774B9" d="M117.473,420.433c0.872,0.721,1.772,1.432,2.658,2.153c1.411,1.143,2.821,2.283,4.247,3.392
		c0.569,0.428,1.121,0.849,1.688,1.284c1.134,0.851,2.284,1.681,3.433,2.518c0.939,0.686,1.875,1.364,2.822,2.029
		c1.002,0.698,2.021,1.388,3.045,2.081c1.169,0.791,2.345,1.584,3.534,2.344c0.54,0.347,1.073,0.701,1.612,1.045
		c1.592,0.997,3.203,1.987,4.83,2.946c0.975,0.59,1.944,1.191,2.933,1.758c0.014,0.016,0.027,0.016,0.041,0.026
		c0.795,0.458,1.605,0.895,2.407,1.339c1.598,0.893,3.211,1.768,4.815,2.626c0.283,0.146,0.566,0.3,0.843,0.443
		c0.485,0.256,0.969,0.506,1.454,0.754c1.162,0.589,2.324,1.164,3.487,1.729c1.19,0.577,2.374,1.15,3.556,1.704
		c1.128,0.534,2.263,1.032,3.405,1.543c1.162,0.513,2.332,1.038,3.501,1.528c0.595,0.258,1.176,0.5,1.764,0.741
		c0.292,0.124,0.581,0.234,0.878,0.354c1.66,0.676,3.335,1.334,5.03,1.979c0.81,0.295,1.613,0.628,2.421,0.919
		c0.056,0.02,0.118,0.041,0.18,0.068c0.021,0.005,0.049,0.02,0.076,0.026l73.528-202.016L117.473,420.433z"/>
	<path fill="#F15A2D" d="M255.675,255.727L393.871,91.042c-0.036-0.027-0.077-0.063-0.111-0.097
		c-0.576-0.477-1.163-0.935-1.742-1.404c-1.696-1.405-3.405-2.768-5.142-4.103c-0.139-0.111-0.277-0.214-0.416-0.325
		c-0.358-0.29-0.732-0.561-1.1-0.843c-0.969-0.728-1.959-1.44-2.934-2.16c-1.237-0.905-2.482-1.805-3.737-2.676
		c-0.877-0.608-1.763-1.218-2.642-1.807c-1.059-0.719-2.11-1.425-3.175-2.117c-0.708-0.456-1.399-0.906-2.104-1.355
		c-0.249-0.152-0.498-0.304-0.749-0.456c-1.32-0.829-2.656-1.647-4.012-2.45c-0.734-0.443-1.466-0.898-2.208-1.334
		c-0.31-0.174-0.614-0.353-0.933-0.533c-0.946-0.547-1.923-1.072-2.884-1.604c-1.419-0.79-2.829-1.563-4.255-2.318
		c-0.843-0.442-1.688-0.885-2.547-1.308c-1.204-0.623-2.415-1.21-3.625-1.806c-0.899-0.436-1.786-0.864-2.686-1.279
		c-1.314-0.622-2.655-1.219-3.999-1.813c-1.217-0.546-2.448-1.094-3.687-1.611c-0.451-0.187-0.907-0.387-1.363-0.574
		c-1.929-0.796-3.888-1.551-5.861-2.312c-0.92-0.346-1.831-0.705-2.759-1.037l-73.528,201.988L255.675,255.727L255.675,255.727z"/>
	<path fill="#E6282F" d="M255.675,255.727v0.008l186.18-107.491c-0.076-0.125-0.144-0.257-0.22-0.394
		c-0.292-0.506-0.595-0.996-0.9-1.496c-0.967-1.646-1.964-3.265-2.966-4.868c-0.361-0.567-0.699-1.135-1.053-1.695
		c-0.207-0.326-0.415-0.638-0.622-0.948c-0.595-0.941-1.226-1.855-1.841-2.788c-0.838-1.245-1.688-2.483-2.548-3.722
		c-0.048-0.063-0.094-0.132-0.143-0.209c-0.65-0.92-1.309-1.848-1.985-2.753c-0.672-0.941-1.356-1.875-2.051-2.802
		c-0.544-0.72-1.092-1.439-1.644-2.159c-0.1-0.131-0.21-0.263-0.306-0.395c-1.086-1.382-2.187-2.76-3.294-4.129
		c-0.456-0.561-0.893-1.108-1.354-1.661c-0.271-0.325-0.541-0.664-0.823-0.983c-0.657-0.787-1.335-1.548-2-2.317
		c-1.108-1.266-2.214-2.538-3.342-3.785c-0.649-0.712-1.315-1.418-1.973-2.137c-0.886-0.935-1.779-1.868-2.677-2.803
		c-0.721-0.746-1.433-1.48-2.165-2.214c-1.052-1.037-2.118-2.081-3.191-3.112c-0.918-0.893-1.844-1.785-2.779-2.663
		c-0.395-0.354-0.776-0.713-1.17-1.066c-1.564-1.445-3.176-2.85-4.801-4.24c-0.703-0.623-1.412-1.26-2.137-1.861L255.675,255.727z"
		/>
	<path fill="#E23D59" d="M255.675,255.734l211.718-37.324c-0.028-0.167-0.051-0.326-0.077-0.483
		c-0.104-0.604-0.234-1.212-0.346-1.808c-0.319-1.694-0.663-3.376-1.017-5.065c-0.164-0.731-0.303-1.479-0.472-2.212
		c-0.102-0.458-0.205-0.914-0.311-1.386c-0.243-1.058-0.512-2.116-0.774-3.188c-0.298-1.211-0.608-2.422-0.927-3.625
		c-0.062-0.229-0.12-0.443-0.174-0.666c-0.146-0.531-0.292-1.064-0.441-1.597c-0.174-0.637-0.347-1.267-0.526-1.896
		c-0.326-1.136-0.663-2.271-0.997-3.404c-0.154-0.472-0.291-0.941-0.441-1.405c-0.05-0.159-0.1-0.313-0.146-0.471
		c-0.3-0.913-0.596-1.833-0.907-2.746c-0.368-1.121-0.733-2.235-1.121-3.361c-0.223-0.632-0.435-1.267-0.654-1.896
		c-0.113-0.304-0.225-0.609-0.335-0.92c-0.547-1.48-1.121-2.954-1.695-4.436c-0.448-1.149-0.894-2.317-1.356-3.459
		c-0.318-0.761-0.642-1.536-0.967-2.29c-0.685-1.633-1.397-3.251-2.133-4.87c-0.281-0.631-0.565-1.267-0.851-1.89
		c-0.561-1.196-1.134-2.379-1.708-3.556c-0.76-1.563-1.522-3.127-2.31-4.663c-0.118-0.222-0.229-0.441-0.338-0.663
		c-0.88-1.688-1.813-3.357-2.749-5.037c-0.58-1.06-1.153-2.123-1.764-3.175L255.675,255.734L255.675,255.734z"/>
	<path fill="#D21C5F" d="M255.675,255.734l211.724,37.336c0.021-0.115,0.05-0.229,0.069-0.349c0.007-0.079,0.021-0.154,0.035-0.225
		c0.095-0.553,0.181-1.091,0.263-1.66c0.304-1.798,0.567-3.604,0.816-5.411c0.098-0.663,0.203-1.341,0.291-2.003
		c0.055-0.438,0.118-0.874,0.167-1.311c0.138-1.1,0.249-2.213,0.372-3.319c0.146-1.363,0.278-2.721,0.402-4.089
		c0.013-0.123,0.027-0.241,0.041-0.373c0.042-0.448,0.07-0.912,0.103-1.371c0.063-0.732,0.119-1.465,0.167-2.206
		c0.092-1.177,0.166-2.36,0.23-3.533c0.041-0.68,0.065-1.35,0.093-2.016c0.044-0.913,0.057-1.833,0.092-2.739
		c0.035-1.21,0.076-2.413,0.088-3.618c0.017-0.762,0.029-1.509,0.036-2.263c0.005-0.223,0.005-0.437,0.005-0.656
		c0-1.605-0.048-3.211-0.081-4.815c-0.028-1.287-0.041-2.574-0.098-3.861c-0.026-0.74-0.069-1.494-0.104-2.24
		c-0.089-1.814-0.216-3.626-0.344-5.446c-0.058-0.727-0.104-1.446-0.174-2.159c-0.097-1.216-0.228-2.427-0.361-3.646
		c-0.179-1.792-0.365-3.583-0.594-5.368c-0.035-0.283-0.068-0.548-0.105-0.817c-0.232-1.771-0.519-3.542-0.794-5.313
		c-0.2-1.286-0.395-2.565-0.622-3.852L255.675,255.734L255.675,255.734z"/>
	<path fill="#9C2063" d="M255.675,255.749l186.187,107.49c0.036-0.07,0.084-0.13,0.126-0.2c0.041-0.09,0.098-0.181,0.151-0.264
		c0.305-0.545,0.596-1.093,0.899-1.625c0.887-1.563,1.736-3.154,2.581-4.739c0.228-0.442,0.479-0.874,0.706-1.314
		c0.354-0.685,0.714-1.37,1.059-2.068c0.436-0.864,0.873-1.731,1.294-2.6c0.609-1.254,1.216-2.508,1.806-3.757
		c0.624-1.336,1.23-2.688,1.827-4.041c0.401-0.905,0.803-1.801,1.188-2.727c0.257-0.596,0.513-1.206,0.763-1.808
		c0.215-0.517,0.413-1.032,0.623-1.555c0.67-1.654,1.326-3.309,1.958-4.982c0.173-0.472,0.365-0.94,0.538-1.421
		c0.097-0.254,0.193-0.517,0.282-0.773c0.465-1.273,0.886-2.54,1.33-3.817c0.512-1.509,1.037-3.023,1.521-4.524
		c0.209-0.681,0.418-1.355,0.625-2.042c0.47-1.522,0.911-3.05,1.348-4.579c0.27-0.956,0.547-1.91,0.796-2.865
		c0.313-1.142,0.603-2.29,0.886-3.438c0.387-1.558,0.774-3.119,1.136-4.67c0.118-0.505,0.229-1.002,0.338-1.502
		c0.379-1.723,0.713-3.465,1.058-5.201c0.237-1.216,0.485-2.437,0.699-3.656l-211.724-37.336V255.749L255.675,255.749z"/>
	<path fill="#912C8B" d="M415.288,399.756c1.103-1.232,2.201-2.47,3.28-3.721c0.449-0.528,0.914-1.046,1.355-1.565
		c0.118-0.146,0.243-0.275,0.36-0.43c0.894-1.056,1.749-2.15,2.623-3.222c0.982-1.226,1.97-2.438,2.918-3.674
		c0.43-0.546,0.851-1.108,1.273-1.662c0.968-1.286,1.924-2.585,2.865-3.908c0.579-0.796,1.162-1.593,1.729-2.395
		c0.672-0.96,1.33-1.943,1.993-2.919c0.898-1.335,1.791-2.655,2.665-4c0.282-0.441,0.558-0.871,0.835-1.308
		c0.948-1.493,1.855-3.016,2.773-4.539c0.639-1.049,1.281-2.103,1.902-3.175l-186.187-107.49l0,0l0,0l138.188,164.684
		c0.055-0.041,0.111-0.076,0.152-0.117c0.124-0.111,0.25-0.206,0.374-0.316c0.443-0.368,0.886-0.763,1.32-1.144
		c1.365-1.176,2.705-2.365,4.041-3.566c0.386-0.348,0.779-0.696,1.168-1.055c0.513-0.456,1.025-0.932,1.535-1.412
		c0.742-0.691,1.474-1.396,2.208-2.101c1.01-0.969,2.015-1.953,3.002-2.936c0.016-0.013,0.021-0.028,0.035-0.041
		c0.982-0.969,1.944-1.964,2.9-2.954c0.737-0.78,1.479-1.543,2.205-2.316c0.465-0.499,0.928-1.006,1.384-1.503
		C414.554,400.57,414.923,400.154,415.288,399.756z"/>
	<path fill="#6A358F" d="M329.202,457.766c1.391-0.506,2.761-1.038,4.139-1.577c1.017-0.395,2.033-0.791,3.044-1.198
		c0.464-0.194,0.94-0.381,1.404-0.565c0.387-0.161,0.775-0.326,1.161-0.486c1.71-0.72,3.405-1.464,5.093-2.227
		c0.782-0.354,1.571-0.7,2.353-1.074c0.932-0.428,1.875-0.884,2.803-1.342c1.68-0.809,3.36-1.626,5.021-2.477
		c0.209-0.111,0.408-0.213,0.61-0.33c0.462-0.237,0.928-0.484,1.382-0.735c1.082-0.566,2.152-1.155,3.225-1.751
		c1.286-0.712,2.582-1.405,3.854-2.138c1.072-0.623,2.123-1.271,3.183-1.908c0.946-0.576,1.902-1.149,2.846-1.742
		c0.66-0.401,1.326-0.817,1.985-1.232c0.339-0.215,0.685-0.44,1.028-0.658c1.344-0.877,2.686-1.764,4.016-2.676
		c0.705-0.472,1.41-0.947,2.102-1.435c0.193-0.137,0.388-0.267,0.58-0.393c0.879-0.63,1.757-1.273,2.643-1.91
		c1.317-0.94,2.619-1.894,3.902-2.87c0.332-0.256,0.665-0.499,0.997-0.753c0.11-0.086,0.222-0.168,0.326-0.251
		c1.361-1.053,2.711-2.146,4.054-3.229c0.976-0.789,1.959-1.571,2.913-2.375L255.675,255.749L329.202,457.766z"/>
	<path fill="#25275F" d="M255.675,255.749v214.989c1.521,0,3.044-0.048,4.559-0.076c0.921-0.02,1.855-0.041,2.774-0.076
		c0.555-0.015,1.121-0.028,1.675-0.05c0.58-0.028,1.163-0.054,1.736-0.089c1.794-0.09,3.577-0.2,5.362-0.332
		c0.671-0.049,1.335-0.097,1.999-0.159c0.098-0.009,0.194-0.009,0.299-0.02c1.204-0.104,2.419-0.23,3.637-0.367
		c1.757-0.168,3.516-0.36,5.258-0.582c0.155-0.02,0.299-0.033,0.45-0.048c0.035-0.007,0.07-0.007,0.104-0.022
		c0.346-0.04,0.706-0.102,1.051-0.146c1.563-0.212,3.136-0.456,4.698-0.71c1.279-0.193,2.565-0.389,3.854-0.61
		c1.076-0.193,2.156-0.423,3.236-0.63c1.444-0.275,2.877-0.561,4.304-0.872c0.541-0.116,1.071-0.221,1.605-0.336
		c0.394-0.087,0.789-0.167,1.181-0.266c1.489-0.343,2.983-0.703,4.472-1.084c1.106-0.271,2.215-0.548,3.313-0.845
		c0.401-0.104,0.796-0.224,1.197-0.334c0.657-0.17,1.316-0.365,1.972-0.544c1.509-0.43,3.016-0.873,4.518-1.33
		c0.413-0.132,0.823-0.262,1.237-0.386c0.823-0.259,1.639-0.541,2.464-0.811c0.974-0.317,1.943-0.646,2.92-0.982
		c1.162-0.395,2.33-0.788,3.493-1.212c0.056-0.013,0.104-0.026,0.158-0.055L255.675,255.749L255.675,255.749z"/>
	<path fill="#2C3B8C" d="M255.675,255.749l-0.006-0.015l0,0l-0.008,0.015l-73.528,202.017c1.065,0.388,2.131,0.735,3.196,1.106
		c1.757,0.602,3.501,1.206,5.258,1.76c0.623,0.198,1.252,0.394,1.881,0.586c1.37,0.422,2.741,0.817,4.11,1.211
		c1.163,0.338,2.324,0.664,3.487,0.969c1.115,0.305,2.249,0.589,3.382,0.864c1.385,0.354,2.775,0.698,4.172,1.018
		c0.657,0.154,1.322,0.304,1.986,0.449c0.048,0.02,0.104,0.02,0.159,0.034c1.708,0.374,3.438,0.72,5.162,1.052
		c1.148,0.214,2.295,0.456,3.452,0.656c0.035,0.014,0.084,0.022,0.118,0.026c1.011,0.167,2.021,0.318,3.024,0.48
		c1.652,0.263,3.306,0.517,4.945,0.745c0.45,0.063,0.886,0.141,1.335,0.194c0.319,0.035,0.637,0.083,0.949,0.118
		c1.516,0.189,3.037,0.346,4.553,0.507c1.259,0.137,2.518,0.262,3.777,0.379c0.415,0.026,0.831,0.062,1.245,0.097
		c0.526,0.036,1.053,0.084,1.585,0.117c1.599,0.117,3.216,0.221,4.822,0.306c0.546,0.024,1.092,0.061,1.633,0.082
		c0.836,0.035,1.674,0.055,2.518,0.074c0.879,0.037,1.764,0.059,2.651,0.076c1.335,0.03,2.677,0.065,4.019,0.065
		c0.042,0,0.083,0,0.125,0V255.749H255.675z"/>
</g>
</svg>
