<?xml version="1.0" encoding="utf-8"?>
<!-- Generator: Adobe Illustrator 16.0.0, SVG Export Plug-In . SVG Version: 6.00 Build 0)  -->
<!DOCTYPE svg PUBLIC "-//W3C//DTD SVG 1.1//EN" "http://www.w3.org/Graphics/SVG/1.1/DTD/svg11.dtd">
<svg version="1.1" id="레이어_1" xmlns="http://www.w3.org/2000/svg" xmlns:xlink="http://www.w3.org/1999/xlink" x="0px"
	 y="0px" width="512px" height="512px" viewBox="0 0 512 512" enable-background="new 0 0 512 512" xml:space="preserve">
<path fill="#FFFFFF" stroke="#000000" stroke-miterlimit="10" d="M390.854,136.354c0.662,1.323,3.947-2.164,4.752-2.566
	C393.121,132.68,389.961,137.224,390.854,136.354z"/>
<polygon fill="#FFFFFF" stroke="#000000" stroke-miterlimit="10" points="366.957,127.719 368.564,126.521 362.918,127.995 "/>
<path fill="#FFFFFF" stroke="#000000" stroke-miterlimit="10" d="M350.684,114.8c-3.174,7.81,7.088,2.982,8.068,7.891l-0.713,1.844
	l5.414-4.016C359.377,118.147,351.984,118.399,350.684,114.8z"/>
<path fill="#FFFFFF" stroke="#000000" stroke-miterlimit="10" d="M350.602,93.513c-1.022,3.139-3.615,0.893,1.873,2.373
	c-0.045-0.445,0-0.662,0-0.975C352.029,94.703,351.51,94.243,350.602,93.513z"/>
<path fill="#FFFFFF" stroke="#000000" stroke-miterlimit="10" d="M352.477,94.912C354.604,96.072,352.564,91.773,352.477,94.912
	L352.477,94.912z"/>
<path fill="#FFFFFF" stroke="#000000" stroke-miterlimit="10" d="M341.893,91.045l4.164-0.966c0.336-1.948-2-3.704-0.4-4.389
	C341.959,85.466,341.734,87.467,341.893,91.045z"/>
<path fill="#FFFFFF" stroke="#000000" stroke-miterlimit="10" d="M336.5,94.896l1.965-0.304
	C338.582,93.768,338.336,93.321,336.5,94.896z"/>
<path fill="#FFFFFF" stroke="#000000" stroke-miterlimit="10" d="M342.666,93.989l-4.203,0.604
	c-0.226,1.375-1.457,3.712,1.801-0.067C338.863,96.519,340.553,94.787,342.666,93.989z"/>
<path fill="#FFFFFF" stroke="#000000" stroke-miterlimit="10" d="M343.752,95.983c0.66,2.372,1.983,4.373-2.09,5.37
	C347.254,103.123,349.576,97.865,343.752,95.983z"/>
<path fill="#FFFFFF" stroke="#000000" stroke-miterlimit="10" d="M345.021,121.145l0.33,3.123l3.047-1.227
	C346.883,123.643,346.377,118.973,345.021,121.145z"/>
<path fill="#FFFFFF" stroke="#000000" stroke-miterlimit="10" d="M325.789,78.7c-0.849,1.531-0.771,4.678-1.429,6.813l2.916-0.953
	C326.652,83.013,324.967,81.139,325.789,78.7z"/>
<path fill="#FFFFFF" stroke="#000000" stroke-miterlimit="10" d="M324.363,85.512l-4.299,1.473
	C322.727,88.435,323.789,87.349,324.363,85.512z"/>
<path fill="#FFFFFF" stroke="#000000" stroke-miterlimit="10" d="M331.859,102.677l7.685-2.959c0,0-2.183,0.624-4.359,1.249
	c-2.133,0.655-4.26,1.309-4.26,1.309L331.859,102.677z"/>
<polygon fill="#FFFFFF" stroke="#000000" stroke-miterlimit="10" points="313.152,73.619 316.404,70.399 311.004,75.129 "/>
<path fill="#FFFFFF" stroke="#000000" stroke-miterlimit="10" d="M304.273,71.79c2.367-2.789-0.498-5.995,1.601-7.526
	c-2.617-0.126-5.415,2.059-7.849,4.06C300.309,67.461,302.348,68.413,304.273,71.79z"/>
<path fill="#FFFFFF" stroke="#000000" stroke-miterlimit="10" d="M294.129,71.158c1.137-0.582,2.447-1.653,3.898-2.834
	C296.813,68.792,295.557,69.552,294.129,71.158z"/>
<path fill="#FFFFFF" stroke="#000000" stroke-miterlimit="10" d="M315.02,84.023c0.111-1.084,0.582-3.852-0.861-5.675l-0.354,5.11
	C314.172,83.63,314.59,83.824,315.02,84.023z"/>
<path fill="#FFFFFF" stroke="#000000" stroke-miterlimit="10" d="M313.793,83.621l0.01-0.162c-1.303-0.686-2.232-1.057-2.635-1.22
	C311.512,82.38,312.328,82.723,313.793,83.621z"/>
<path fill="#FFFFFF" stroke="#000000" stroke-miterlimit="10" d="M315.324,84.166l-0.305-0.142
	C314.977,84.522,314.99,84.693,315.324,84.166z"/>
<path fill="#FFFFFF" stroke="#000000" stroke-miterlimit="10" d="M326.205,94.882c-2.959,1.726-7.66,2.961-5.89,8.188
	C322.92,100.519,321.846,97.523,326.205,94.882z"/>
<path fill="#FFFFFF" stroke="#000000" stroke-miterlimit="10" d="M314.715,90.495l2.822,2.342c0.413-1.22,0.52-3.212,1.916-4.097
	L314.715,90.495z"/>
<polygon fill="#FFFFFF" stroke="#000000" stroke-miterlimit="10" points="312.596,91.313 314.715,90.495 313.66,89.631 "/>
<path fill="#FFFFFF" stroke="#000000" stroke-miterlimit="10" d="M299.156,77.256c-2.047,1.636-3.711,1.354-5.645,1.175
	c1.77,1.48,3.658,2.559,5.594,3.079C299.766,80.104,301.35,77.695,299.156,77.256z"/>
<path fill="#FFFFFF" stroke="#000000" stroke-miterlimit="10" d="M306.215,80.677l-0.418,0.163
	C305.889,81.301,306.006,81.473,306.215,80.677z"/>
<path fill="#FFFFFF" stroke="#000000" stroke-miterlimit="10" d="M274.926,75.188c0.053,0.283,0.125,0.624,0.186,0.923l0.18-0.826
	L274.926,75.188z"/>
<path fill="#FFFFFF" stroke="#000000" stroke-miterlimit="10" d="M299.199,82.484c1.217,1.324,2.404,0.416,3.668-0.781
	c-1.25,0.149-2.496,0.126-3.762-0.194C298.809,82.151,298.666,82.581,299.199,82.484z"/>
<path fill="#FFFFFF" stroke="#000000" stroke-miterlimit="10" d="M288.305,72.451c0.619,1.153,1.369,2.157,2.156,3.102
	C290.002,73.901,288.842,71.261,288.305,72.451z"/>
<path fill="#FFFFFF" stroke="#000000" stroke-miterlimit="10" d="M305.686,79.405c0.096-0.052,0.195-0.118,0.291-0.142
	C305.783,78.127,305.693,78.625,305.686,79.405z"/>
<path fill="#FFFFFF" stroke="#000000" stroke-miterlimit="10" d="M305.686,79.405c-0.975,0.454-1.924,1.436-2.815,2.298
	c1.004-0.119,1.991-0.379,2.93-0.863C305.717,80.461,305.678,79.905,305.686,79.405z"/>
<path fill="#FFFFFF" stroke="#000000" stroke-miterlimit="10" d="M266.41,105.853c0.563-4.499,4.617-8.545,6.946-3.085
	c3.337-2.878,3.763-17.902,1.755-26.655c-0.343,2.008-0.595,3.607-4.269,6.002c1.01,2.364,6.618,6.856,3.346,10.405
	c-4.465,1.577-3.243-2.076-5.116-4.626c1.161,5.705-6.129,7.861-5.734,16.184l3.713-2.715
	C266.988,102.656,265.563,104.633,266.41,105.853z"/>
<path fill="#FFFFFF" stroke="#000000" stroke-miterlimit="10" d="M281.68,77.666l1.521-0.313c-1.511-1.049-2.369-3.035-4.097-6.909
	c-2.774,1.792-3.459,3.375-3.815,4.841l6.992,1.793L281.68,77.666z"/>
<path fill="#FFFFFF" stroke="#000000" stroke-miterlimit="10" d="M289.643,78.439c-2.146,4.618-5.791,6.12-4.803,11.699
	c3.992,0.327,3.584-3.563,6.469-5.229c-6.842,0.053,2.508-2.343-1.725-5.912c1.486-0.566,2.766-0.685,3.928-0.566
	c-1.072-0.907-2.113-1.771-3.051-2.878c0.037,0.126,0.068,0.215,0.098,0.32l0.037,0.007l-0.023,0.06
	c0.174,0.655,0.189,1.041-0.072,0.639c-0.036,0.053-0.125,0.053-0.161,0.075c-0.189,0.655-0.439,1.212-0.687,1.755
	c-1.764-1.34-0.061-1.301,0.687-1.755c0.082-0.238,0.153-0.461,0.233-0.714l-0.014-0.067l-7.357,1.479
	C284.527,78.268,286.334,78.431,289.643,78.439z"/>
<path fill="#FFFFFF" stroke="#000000" stroke-miterlimit="10" d="M313.078,111.542c-0.005-0.468,0.141-0.788,0.262-1.123
	C312.744,110.829,312.461,111.156,313.078,111.542z"/>
<path fill="#FFFFFF" stroke="#000000" stroke-miterlimit="10" d="M311.912,107.868c0.659-0.476,1.748-2.149,2.905-1.137
	c0.597,1.836-0.914,2.171-1.479,3.688c1.276-0.893,4.209-2.088,2.586-5.347l-0.668,0.453c-1.613-2.483-2.5-9.468-1.859-9.936
	C312.527,100.015,312.018,103.212,311.912,107.868z"/>
<path fill="#FFFFFF" stroke="#000000" stroke-miterlimit="10" d="M301.336,93.989l-5.773,0.864l1.422,4.826l0.572-2.491
	C300.129,98.958,300.414,95.768,301.336,93.989z"/>
<path fill="#FFFFFF" stroke="#000000" stroke-miterlimit="10" d="M274.561,72.652l1.398-5.042c0,0-1.064,1.688-2.127,3.376
	c-1.041,1.763-2.072,3.519-2.072,3.519s0.697-0.492,1.396-0.982C273.859,73.083,274.561,72.652,274.561,72.652z"/>
<polygon fill="#FFFFFF" stroke="#000000" stroke-miterlimit="10" points="266.957,72.683 267.592,68.198 265.369,70.793 "/>
<path fill="#FFFFFF" stroke="#000000" stroke-miterlimit="10" d="M236.413,70.563C238.006,70.146,236.624,70.005,236.413,70.563
	L236.413,70.563z"/>
<path fill="#FFFFFF" stroke="#000000" stroke-miterlimit="10" d="M245.169,89.729c-0.291,0.565-0.493,1.288-0.469,2.433
	C244.767,90.97,244.931,90.198,245.169,89.729z"/>
<path fill="#FFFFFF" stroke="#000000" stroke-miterlimit="10" d="M239.018,72.675c-0.646-0.581-1.383-1.042-2.171-1.354
	C237.211,71.679,237.873,72.124,239.018,72.675z"/>
<path fill="#FFFFFF" stroke="#000000" stroke-miterlimit="10" d="M238.512,70.354c0.579,0.157,1.026,0.284,1.45,0.402
	C240.111,69.922,239.895,69.41,238.512,70.354z"/>
<path fill="#FFFFFF" stroke="#000000" stroke-miterlimit="10" d="M234.181,70.957c0.924-0.135,1.801,0.043,2.663,0.364
	c-0.341-0.328-0.505-0.588-0.432-0.758C235.946,70.658,235.282,70.799,234.181,70.957z"/>
<path fill="#FFFFFF" stroke="#000000" stroke-miterlimit="10" d="M167.893,349.467l1.003-5.107c7.408-3.19,7.201,0.062,9.669-6.166
	c-5.294,5.668-7.466,4.225-9.662,2.812c-2.141-1.472-4.001-3.212-9.869,1.95l1.176-3.572c0.237,0.492,0.966-0.059,1.197,0.417
	c3.222-7.524-10.144,5.563-11.758,0.438c-0.09-2.118,1.01-4.416,3.109-4.678l-5.214-0.588c-0.41-1.05,1.918-2.438,2.312-1.42
	l-4.365-3.738l0.395-0.227c-2.513,0.795-6.641,1.314-8.45,1.361c1.102-2.502,1.771-0.262,3.183-1.651l-4.833-0.741
	c2.751-3.244,7.415-3.052,8.017-0.924c11.566-10.807-4.641-0.193-0.112-10.107l3.162,1.391c6.753-6.023,2.603-6.016,6.314-11.273
	c-2.507,1.858-9.126,11.928-14.183,11.067c0.467-1.354,0.499-2.716-3.065-2.924c4.895-2.55,2.96-3.474,1.726-5.304l6.664-3.014
	c-2.87-1.092-6.187,0.604-9.802,0.698c-0.563-2.67,4.597-5.392,8.807-7.728c-0.26-4.182-7.452,6.084-10.382,1.992
	c1.487-4.32-2.335-5.369-7.764-8.283c1.815-3.162,4.395-0.848,6.18-2.32l-6.137-0.521c0-0.572,1.771-0.871,2.663-1.025
	c-2.65-1.229-7.08,1.8-9.772-0.715c-4.01,0.565-1.578-1.765,0.667-4.238c2.128-2.498,4.611-5.169-0.208-6.241
	c1.904-1.265,4.477-0.319,7.222-1.085c-6.671-3.994-4.946-3.475-13.632-6.836c-0.119-0.021,4.522-4.146,4.513-4.146
	c-5.332,3.183-11.958,0.334-17.461-2.828c-2.597,1.215-4.858,2.313-5.928,3.027l-4.21-5.459c1.168-0.734,3.713-0.23,6.806,0.551
	c-0.625-0.352-1.241-0.688-1.807-0.943c2.603-2.084,6.872-1.108,11.016,0.06c-1.437,0.679-2.924,1.384-4.412,2.083
	c4.507,1.116,9.469,1.934,13.73,1.396c-0.863-0.252-1.614-0.824-2.053-1.486c1.219,0.264,2.306,0.395,3.027,0.208
	c0.759-0.208-0.884-0.608-2.79-1.331l8.093-1.429l-3.251-0.142c0,0,4.693-6.232,4.901-6.167c-7.802-4.29-20.156-9.214-22.415-17.657
	c5.63,2.655,9.624,1.556,16.63,2.53c-7.914,1.13,2.663,5.875,0.959,9.297c0.884-1.867,4.231-1.213,5.377-0.685
	c0,0-1.627-1.71-3.25-3.421c-1.666-1.756-3.153-3.578-3.153-3.578c5.736,0.766,4.53-0.892,7.163-2.21
	c-11.544-0.185-6.805-5.853-9.854-9.2c3.786,0.551,7.564,1.904,6.165,4.901c9.112-1.875-12.762-7.095-4.542-9.251
	c-0.12,0.811-0.804,1.121,1.033,1.836c-2.855-2.572,0.968-6.538,3.92-4.626l-0.126,0.789c1.413-2.373,2.119-6.285,2.06-9.959
	c-0.097-3.667-1.658-7.416-6.04-9.572c1.198,0.416,10.702,4.849,12.443,5.808c0,0-6.888-4.982-13.55-10.553
	c-6.651-5.503-12.74-11.455-12.74-11.455c7.244,4.18,26.692,9.609,29.118,15.419c1.627-0.632,3.525-1.339,1.971-4.93
	c-1.406,0.193-11.827-3.244-11.981-4.686c9.803,1.049,5.518,0,14.226,0.118c-2.059,0.342-13.208-7.154-11.611-8.864
	c1.549,1.234,11.381,6.136,12.192,7.416c0,0-2.135-2.655-4.277-5.304c-2.083-2.751-4.164-5.503-4.164-5.503
	c1.285,2.335,9.251,5.742,12.911,6.723c-2.41-0.883,2.38-3.48,1.971-5.288l-3.577,0.164c4.461-3.667-11.596-14.868-7.289-19.733
	c1.606,2.269,11.96,11.292,14.919,10.003c-2.179-2.527-7.578-8.672-12.117-15.276c-4.499-6.523-8.203-13.662-7.935-17.723
	l3.57,1.674l0.135-6.5c4.811,9.422,15.135,28.953,19.285,36.555c3.607,0.291,3.786,2.394,5.556-0.089
	c3.368,1.548,2.96,4.686,2.544,5.429l6.233-3.428c-5.862-4.947-2.098-9.246-6.716-13.56c0,0,0.045,2.901,0.179,5.698
	c0.178,2.766,0.349,5.534,0.349,5.534c-5.979-4.649-13.119-18.311-7.838-21.436c3.168,1.258,8.731,10.524,10.65,12.235
	c-1.383-2.298,0.178-6.968,1.8-5.905l1.174,4.485c3.941,0.32-3.28-10.77,4.068-7.579c1.296-0.401,8.978,5.638,6.307,1.957
	c-6.849-5.832-24.444-26.494-27.198-32.665c0.87,0.088,11.439,1.904,15.128,4.55c5.674,4.329,6.856,15.323,11.796,18.996
	c-1.175-1.748-1.771-4.531-1.861-5.504c2.067,0.678,3.302,5.645,4.969,3.191c-3.964-6.708,5.281-2.417-2.521-6.166
	c1.22-3.332,3.459-0.201,6.068-2.202c-3.577-3.711-6.136-16.303-4.343-19.991c0.789,1.829,2.633,3.733,3.503,4.641
	c6.069-2.089,10.502-0.476,15.732-2.686c1.241,1.555,4.604,2.76,4.766,6.271c0.225-1.548-0.045-4.262,1.517-5.036
	c5.4,5.19-3.168,2.27,2.04,8.991c-1.444-4.284,1.813-7.326,3.258-10.858c-2.917-6.382-5.922,0.744-7.103,4.179
	c-3.607-8.939-2.953-19.946,2.164-26.535c4.499-3.72,4.002,5.369,4.507,3.808c9.759-0.648,4.224-18.774,14.22-13.515
	c4.418,5.526,2.321,11.997,3.853,16.245c-3.571,2.773-6.917-2.596-9.653-1.673l3.986,1.978c-0.84,2.32-3.049,4.483-4.901,3.13
	c1.955,2.455,5.66,1.413,10.086,0.99c4.396-0.461,9.392-1.064,13.082,0.943c0.996-2.118,3.004-4.351,1.763-6.76l-2.194,0.968
	c-2.662-4.76,3.748-7.073,0.558-9.194c2.849-3.637,6.384-9.304,11.215-6.731l1.019,6.96c-0.117-2.045-3.101-4.022-4.308-1.822
	c1.921-3.138,7.054,8.971,9.082,0.03c0,0-0.797-1.256-1.598-2.514c-0.818-1.175-1.638-2.35-1.638-2.35
	c3.234-3.659,7.811-10.666,12.114-8.271c-1.644-7.021-0.984,0.736-3.843-7.526c2.417,10.114-11.424-0.865-7.081,9.846
	c-3.275-9.244-5.506-3.733-10.197-11.52c0.266,2.305,1.771,4.335-2.076,3.399c-0.127,0.684-0.47,1.555-0.685,2.076
	c-0.121-0.054-0.158-0.097-0.263-0.157l0.225,0.26c-0.135,0.35-0.15,0.424,0.082,0.082c0.968,0.975,1.757,2.143,2.119,3.406
	c-1.488,5.444-7.138,5.392-8.694,8.583c-2.209-0.782,0.565-2.767-0.856-5.042l-2.333,4.507c-0.886-5.058-6.949-7.579-2.194-11.336
	l-4.73,0.492c-3.206-2.358-7.408-3.049-9.266-0.275c-2.478-0.529-4.226,6.923-3.259,2.536l-6.373,4.924l-0.418-1.219
	c-3.659,0.505-6.604,3.688-9.817,6.068c-3.265,2.306-6.842,3.578-12.554,0.781c-1.727,2.254-3.316,4.761-7.616,5.214l-2.67-3.637
	c-2.157,2.714-10.829,0.304-9.705,5.22c-8.94-8.464-15.15,5.78-20.587,7.684l3.236,4.819c-3.266,2.069-5.333,5.549-7.49,10.294
	l3.487,3.741c-0.156,5.786-9.906,4.032-14.301,8.799c-1.071-1.681,0.491-2.426,2.156-2.335c-6.947-1.696-8.136,3.124-8.968,7.637
	c-0.753,4.679-1.207,9.059-6.457,9.214c0.423,2.529-0.803,3.103-2.545,3.289c0.083-0.134,0.09-0.312,0.038-0.505
	c-0.15,0.103-0.32,0.304-0.469,0.521c-1.159,0.074-2.455,0.088-3.63,0.281c1.443,0.163,2.678,0.224,3.414,0.038
	c-0.706,1.123-1.405,3.116-1.525,5.43l-4.981-2.514c-0.037,0.171-0.127,0.275-0.149,0.46c-2.843,0.432,1.211,2.738,5.206,4.299
	c0.163,1.295,0.535,2.625,1.22,3.912c-8.248-3.646-0.089,5.845-9.201,2.565c3.25,3.563-2.15,10.189,5.996,15.656
	c-1.147-0.543-1.912-0.342-1.555-1.279c-1.868,1.316-3.777,2.714-2.126,5.6l-6.649-2.305c0,0,1.614,2.061,3.227,4.12
	c1.646,2,3.289,4.001,3.289,4.001c-5.027,0.641-7.853,0.811-11.536-3.956c4.611,9.415,0.684,6.419,6.278,14.592l-4.142-1.852
	c-0.551,2,4.104,6.954,0.155,6.864c-5.006,0.67-6.709,6.113-8.53,12.413c-2.128,6.27-2.998,13.567-7.945,18.981
	c13.575-0.707-6.812,4.842,3.64,6.41c-3.17,0.387-5.037,1.949-7.653-0.253c2.735,6.346-5.489,9.252,3.011,13.723
	c-3.191,0.669-4.544-1.4-6.455-0.796c0.661,0.528,2.653,2.03,0.735,2.67c-1.897,0.646-2.604-0.929-3.928-1.963
	c0.402,6.635,10.443,7.006,19.471,7.168c-4.156,3.126-3.473,4.761,2.604,6.493c-2.924,1.213-5.936,3.272-7.2-0.431
	c-0.148,1.063-1.122,4.408-0.989,7.451c0.32,3.02,1.569,5.689,5.207,5.273c-1.742,0.908-0.097,2.99,0.817,3.391
	c0.38,4.68-0.512,5.297,1.316,9.625l0.849-1.479c9.051-0.127,2.84,3.188,4.788,6.509l-0.899,0.124
	c-3.861,9.855,3.458,2.654-0.685,12.727l5.043-2.164c11.372-3.178-4.084,9.104,1.882,12.211l2.291-2.803
	c4.403,0.786-11.737,13.014-11.781,16.465c-0.654,1.004-1.919-0.193-2.983-0.677c-2.975,9.878,6.909-2.155,10.776,2.002
	c-2.997,2.683-9.378,3.241-8.329,7.028c-1.011,1.619,3.064,2.66,7.013,4.009c3.891,1.405,7.417,3.212,5.616,7.392
	c1.919-2.588,3.898-5.058,7.066-4.164c2.557,2.604-3.184,15.008,6.402,12.266c-0.364,0.886-0.871,1.509-1.441,1.979
	c1.852,0.442,4.068,1.729,6.448,2.639c2.514,0.789,5.161,1.214,7.646,0.156c-6.255,7.191-1.362,9.155,3.197,10.448
	c4.655,1.241,9.296,1.613,3.318,8.056l7.318,5.362l-1.317,1.212c3.771,4.618,8.144,2.435,12.174,0.291
	c0.328,1.727-1.397,2.478-2.037,3.131c4.521,7.894,6.054,7.897,16.465,3.994l-2.334,5.215c1.666-0.914,3.056,2.527,5.502,6.1
	c2.543,3.316,6.292,6.635,11.409,5.438c-0.342,0.553-0.953,1.479-1.889,1.91c5.534-0.826,9.199,4.634,13.208,8.396
	c3.933,3.776,8.018,5.688,12.569-3.905l7.133-3.396c-6.879-3.422,3.345-8.383,1.271-12.451c2.9-0.498,5.586,7.859,1.925,8.018
	l-0.288-1.145c-3.867,10.146,8.182,6.037,6.634,12.902c7.66,0.898,14.963,3.622,22.504,5.197c3.757,0.872,7.537,2.009,11.313,2.528
	c3.77,0.47,7.549,0.772,11.285,0.715l-2.229-8.263c0,0,5.004,0.291,4.998,0.171c1.465,1.748,2.416,6.357-1.293,6.335
	c2.387,4.609,5.754-4.679,5.567-6.454c7.459,2.462-1.612,10.022,0.537,9.958l2.967-1.005l-0.813-0.887
	c2.021-3.692,1.689-7.31,6.039-7.458c2.982,1.195,2.275,4.818,3.406,4.931c0.105,0.595,0.529,0.789,1.725-0.111l6.587-0.677
	l-3.966-5.897c2.064-3.763,5.859-0.906,1.367-7.577c6.918,10.701,23.523-2.551,26.925-0.438c1.903-5.839,5.317-7.192,9.789-8.865
	c-1.666-0.714-5.443-7.118-1.595-8.017c5.623,14.33,9.586,2.734,17.941,10.322c-6.295-4.73,9.377-7.75-0.285-14.037
	c3.549-0.742,3.303,4.748,7.484,6.256c1.756-4.908,6.008-6.648,10.782-8.471c4.566-2.017,9.988-3.779,13.119-8.146
	c-1.266-1.575-4.559-2.632-5.059-6.335c0,0,2.692,0.869,5.385,1.737c2.746,0.818,5.488,1.629,5.488,1.629
	c0.82-2.201-6.959-9.422,0.715-7.229c-1.613-0.781-4-1.994-3.525-3.369c5.035-2.047,8.98-5.435,12.191-9.395
	c2.967-4.165,5.594-8.62,7.922-13.193c4.758-9.229,9.586-17.609,22.074-23.771c-4.674,1.116-4.287-0.81-3.615-2.841
	c-1.383,0.932-4.565-1.939-7.186-2.729c0,0,2.545-1.24,5.088-2.484c2.572-1.324,5.139-2.662,5.139-2.662
	c-6.647-3.979,2.314-8.982-4.344-11.93l0.463,2.9c-7.172-5.668-19.486-1.232-29.633-5.436c4.166,3.149-0.045,4.074-3.828,5.114
	c-3.764,1.108-6.992,2.313-1.652,7.624c-2.526,0.111-2.811-2.363-5.385-2.855c3.742,3.107,3.809,5.021,0.604,6.723l-0.888-0.816
	c-1.299,3.971-3.457,6.196-6.336,8.01c-2.783,1.74-5.733,3.595-9.862,6.183l4.805,2.587c-1.754,1.184-3.361,0.508-4.98,0.434
	c5.256,6.709,3.613-4.164,9.771,2.746c-5.322-2.084-7.324,0.695-9.56,3.25c-2.387,2.4-4.862,4.641-10.063,1.102
	c-1.949,2.17,5.229,3.529,3.229,5.756l-3.008-1.71l2.646,3.517c-1.957,0.914-5.679-1.369-7.761-3.341
	c0.566-0.081,0.357-1.465,0.521-1.978c-4.56-1.131-3.881,5.75-5.398,5.443l3.386-0.438c-1.576,4.083-5.459,6.463-8.636,9.498
	c-3.428,2.767-6.561,5.771-7.987,10.856l1.909,1.832c-2.893,7.168-5.674,0.234-10.418,5.413l-0.073-0.641
	c0,2.827-1.095,4.799-2.918,5.368c0.188-3.428-5.386-3.809-4.849-7.771c-3.666,7.49-1.086,4.99-1.569,15.453l-2.589-3.539
	c-0.006,4.137,0.604,6.066-2.389,8.436c1.443-4.484-4.243-5.25-2.959-10.94c-4.774-2.938-6.455-0.351-7.973,2.104
	c-1.486,2.334-2.865,4.099-6.063-2.017c-0.246,12.229,7.586,4.546,6.479,7.452c2.643,3.169-0.283,9.313-2.978,8.771
	c-2.537,0.268-7.479-13.769-12.701-12.393c0.549-0.066,0.422-0.951,0.965-1.004c-2.469-2.436-3.36,4.677-6.594,0.197
	c-0.502,7.217-3.299,0.018-2.717,9.055l5.014-2.752c-2.516,2.609-4.401,13.826-10.131,8.97c0.289-1.858,1.637-4.225,2.521-5.713
	c-1.66-2.483-2.691,1.896-4.396-0.743c-0.035-4.537,1.488-5.072,3.363-5.386c1.842-0.469,4.107-0.714,5.176-4.327
	c-1.844-3.623-5.041,7.26-4.479-2.691c-1.14,12.769-5.32-1.324-8.592,8.42l0.097-5.43c-0.551,0.877-1.728,3.495-2.836,3.403
	l1.832-7.117c-2.9,6.271-5.521-5.323-8.232-2.153c5.727,0.147,1.084,6.596,3.539,10.693c-7.975,6.79-3.785-14.313-11.638-12.265
	c1.063-0.483,3.695,3.467,1.777,5.958c-1.474-1.071-3.22-3.645-3.755-6.567c-5.296,0.318,0.066,5.662-2.611,8.621
	c-0.893-6.825-3.011,2.254-5.912,3.958l0.951-5.434c-5.481-4.401-3.919,11.078-8.783,5.521l4.052-6.835l-3.293,1.186l2.037-5.95
	c-4.083,3.739-4.863,2.313-7.311-0.119c-0.365,3.813-3.28,9.668-6.098,8.761c-0.827-3.791,2.639-4.604-1.37-5.249
	c2.001-2.938,4.202-6.731,4.231-1.315c0.715-1.651,1.845-2.961,2.544-4.644c-0.698-4.237-4.276-2.507-5.608-2.923
	c0.417,0.372,0.907,0.87,0.953,1.712c0,0-1.963,1.315-3.927,2.632c-2.038,1.293-4.077,2.59-4.077,2.59
	c-0.089-2.226,1.228-3.521,2.483-4.813c-1.271,0.145-3.034,2.357-4.759,2.021c2.164-3.94,3.882-8.121,6.775-9.361
	c0,0-1.681,0.824-3.309,1.357c-1.658,0.566-3.317,1.143-3.317,1.143c0.468-1.942-0.09-6.006,1.204-7.202
	c-1.145-3.501-10.204,4.946-11.744-0.306c-0.601,0.647-1.369,1.16-2.395,1.281c-2.654-2.797-2.187-8.748-9.037-6.436l2.908-7.846
	c-3.741-0.518-3.442,10.033-9.862,9.043c-4.916-0.453,3.073-6.228,3.392-8.774c-3.876,1.89-12.086,5.547-10.405-1.741
	C166.761,347.639,166.65,349.143,167.893,349.467z"/>
<path fill="#FFFFFF" stroke="#000000" stroke-miterlimit="10" d="M253.187,67.297c-0.01-0.097-3.535,1.54-3.535,1.54
	c1.703-0.342,2.33,0.81,3.178,1.689C252.755,69.238,252.077,67.334,253.187,67.297z"/>
<path fill="#FFFFFF" stroke="#000000" stroke-miterlimit="10" d="M278.295,103.749c0.535-0.603,0.9,0.075,1.434-0.528l0.328-2.544
	C278.191,100.528,276.613,102.357,278.295,103.749z"/>
<path fill="#FFFFFF" stroke="#000000" stroke-miterlimit="10" d="M256.111,85.764c0.162,4.649,2.139,3.184,4.402,2.439
	c-0.136,0.016-0.263,0.045-0.396-0.014C261.084,81.755,258.532,83.755,256.111,85.764z"/>
<path fill="#FFFFFF" stroke="#000000" stroke-miterlimit="10" d="M261.033,88.078c0.697-0.179,1.404-0.254,2.068,0
	C263.523,85.497,262.289,87.489,261.033,88.078z"/>
<path fill="#FFFFFF" stroke="#000000" stroke-miterlimit="10" d="M231.549,74.86c1.266,1.02,0.06-5.994,0.922-4.216
	C233.037,64.598,225.659,78.863,231.549,74.86z"/>
<polygon fill="#FFFFFF" stroke="#000000" stroke-miterlimit="10" points="257.451,101.13 256.872,95.366 255.595,99.912 "/>
<path fill="#FFFFFF" stroke="#000000" stroke-miterlimit="10" d="M240.95,97.233l3.458,1.42c-0.106-0.951,0.298-1.532,0.804-1.985
	C243.123,96.57,240.75,95.552,240.95,97.233z"/>
<path fill="#FFFFFF" stroke="#000000" stroke-miterlimit="10" d="M245.214,96.667c1.086,0.045,2.104-0.125,2.685-1.093
	C247.31,95.663,246.046,95.917,245.214,96.667z"/>
<path fill="#FFFFFF" stroke="#000000" stroke-miterlimit="10" d="M252.978,102.596l-0.967-1.184l-2.314-0.297
	C249.696,101.115,252.982,102.52,252.978,102.596z"/>
</svg>
