<?xml version="1.0" encoding="utf-8"?>
<!-- Generator: Adobe Illustrator 16.0.0, SVG Export Plug-In . SVG Version: 6.00 Build 0)  -->
<!DOCTYPE svg PUBLIC "-//W3C//DTD SVG 1.1//EN" "http://www.w3.org/Graphics/SVG/1.1/DTD/svg11.dtd">
<svg version="1.1" id="레이어_1" xmlns="http://www.w3.org/2000/svg" xmlns:xlink="http://www.w3.org/1999/xlink" x="0px"
	 y="0px" width="512px" height="512px" viewBox="0 0 512 512" enable-background="new 0 0 512 512" xml:space="preserve">
<path fill="#FFFFFF" stroke="#000000" stroke-miterlimit="10" d="M338.463,182.221c0.512,0.646,0.922-0.081,1.115-0.089
	C338.484,181.231,338.328,182.385,338.463,182.221z"/>
<polygon fill="#FFFFFF" stroke="#000000" stroke-miterlimit="10" points="327.643,173.921 328.035,173.831 326.014,173.154 "/>
<path fill="#FFFFFF" stroke="#000000" stroke-miterlimit="10" d="M317.809,166.17c0.156,1.822,3.966,2.26,5.293,4.209l0.084,0.483
	l1.459-0.199C322.531,168.915,319.178,167.532,317.809,166.17z"/>
<path fill="#FFFFFF" stroke="#000000" stroke-miterlimit="10" d="M313.793,159.915c0.066,0.7-1.48-0.431,1.256,1.005
	c-0.074-0.125-0.119-0.186-0.16-0.275C314.646,160.488,314.352,160.288,313.793,159.915z"/>
<path fill="#FFFFFF" stroke="#000000" stroke-miterlimit="10" d="M314.887,160.645C316.025,161.374,314.381,159.767,314.887,160.645
	L314.887,160.645z"/>
<path fill="#FFFFFF" stroke="#000000" stroke-miterlimit="10" d="M309.27,157.848l1.812,0.432c-0.18-0.446-1.557-1.264-0.924-1.184
	C308.4,156.45,308.602,156.904,309.27,157.848z"/>
<path fill="#FFFFFF" stroke="#000000" stroke-miterlimit="10" d="M307.322,157.922l0.897,0.261
	C308.148,157.996,307.953,157.833,307.322,157.922z"/>
<path fill="#FFFFFF" stroke="#000000" stroke-miterlimit="10" d="M310.141,158.74l-1.92-0.558c0.127,0.32-0.057,0.714,0.865,0.292
	C308.75,158.756,309.27,158.592,310.141,158.74z"/>
<path fill="#FFFFFF" stroke="#000000" stroke-miterlimit="10" d="M311.012,159.44c0.734,0.729,1.754,1.503-0.039,1.063
	C314.023,161.938,314.098,160.898,311.012,159.44z"/>
<path fill="#FFFFFF" stroke="#000000" stroke-miterlimit="10" d="M316.484,166.966l0.836,1.056l1.182,0.253
	C317.912,168.141,316.662,166.572,316.484,166.966z"/>
<path fill="#FFFFFF" stroke="#000000" stroke-miterlimit="10" d="M299.52,152.427c-0.209,0.231,0.269,0.943,0.246,1.332l1.347,0.192
	C300.559,153.512,299.447,152.857,299.52,152.427z"/>
<path fill="#FFFFFF" stroke="#000000" stroke-miterlimit="10" d="M299.766,153.758l-2.002-0.283
	C299.355,154.189,299.744,154.093,299.766,153.758z"/>
<polygon fill="#FFFFFF" stroke="#000000" stroke-miterlimit="10" points="306.348,159.12 309.643,159.707 305.813,158.845 "/>
<polygon fill="#FFFFFF" stroke="#000000" stroke-miterlimit="10" points="292.471,149.667 293.764,149.347 291.518,149.756 "/>
<path fill="#FFFFFF" stroke="#000000" stroke-miterlimit="10" d="M287.605,148.403c0.951-0.312-0.855-1.22,0.09-1.31
	c-1.354-0.281-2.611-0.14-3.721-0.006C285.104,147.154,286.242,147.541,287.605,148.403z"/>
<path fill="#FFFFFF" stroke="#000000" stroke-miterlimit="10" d="M282.131,147.234c0.574-0.021,1.176-0.067,1.846-0.149
	C283.365,147.056,282.771,147.051,282.131,147.234z"/>
<path fill="#FFFFFF" stroke="#000000" stroke-miterlimit="10" d="M294.723,152.092c-0.082-0.225-0.193-0.76-1.152-1.353l0.445,1.054
	C294.232,151.884,294.477,151.987,294.723,152.092z"/>
<path fill="#FFFFFF" stroke="#000000" stroke-miterlimit="10" d="M294.031,151.824l-0.016-0.03
	c-0.761-0.356-1.318-0.528-1.556-0.594C292.664,151.259,293.152,151.4,294.031,151.824z"/>
<path fill="#FFFFFF" stroke="#000000" stroke-miterlimit="10" d="M294.908,152.166l-0.186-0.074
	C294.768,152.195,294.799,152.241,294.908,152.166z"/>
<path fill="#FFFFFF" stroke="#000000" stroke-miterlimit="10" d="M302.168,156.168c-1.258-0.016-3.613-0.454-1.791,1.041
	C301.35,157,300.293,156.145,302.168,156.168z"/>
<path fill="#FFFFFF" stroke="#000000" stroke-miterlimit="10" d="M295.432,153.482l1.842,0.946c0.037-0.218-0.194-0.647,0.417-0.641
	L295.432,153.482z"/>
<polygon fill="#FFFFFF" stroke="#000000" stroke-miterlimit="10" points="294.41,153.342 295.432,153.482 294.746,153.133 "/>
<path fill="#FFFFFF" stroke="#000000" stroke-miterlimit="10" d="M285.404,148.93c-0.953,0.096-1.904-0.14-2.982-0.387
	c1.107,0.477,2.26,0.901,3.383,1.213C286.027,149.547,286.639,149.251,285.404,148.93z"/>
<path fill="#FFFFFF" stroke="#000000" stroke-miterlimit="10" d="M289.598,150.359l-0.207-0.007
	C289.494,150.448,289.584,150.494,289.598,150.359z"/>
<polygon fill="#FFFFFF" stroke="#000000" stroke-miterlimit="10" points="271.674,146.685 271.838,146.864 271.889,146.729 "/>
<path fill="#FFFFFF" stroke="#000000" stroke-miterlimit="10" d="M285.955,149.957c0.816,0.396,1.375,0.35,1.934,0.245
	c-0.664-0.103-1.354-0.245-2.084-0.445C285.701,149.846,285.672,149.92,285.955,149.957z"/>
<path fill="#FFFFFF" stroke="#000000" stroke-miterlimit="10" d="M279.021,147.092c0.432,0.247,0.924,0.479,1.444,0.7
	C280.078,147.465,279.23,146.914,279.021,147.092z"/>
<path fill="#FFFFFF" stroke="#000000" stroke-miterlimit="10" d="M289.168,150.046l0.141,0.006
	C289.078,149.801,289.084,149.898,289.168,150.046z"/>
<path fill="#FFFFFF" stroke="#000000" stroke-miterlimit="10" d="M289.168,150.046c-0.477-0.008-0.877,0.082-1.279,0.155
	c0.541,0.09,1.049,0.142,1.502,0.15C289.301,150.261,289.227,150.143,289.168,150.046z"/>
<path fill="#FFFFFF" stroke="#000000" stroke-miterlimit="10" d="M275.668,147.586l0.848,0.044c-0.928-0.29-1.555-0.7-2.729-1.496
	c-1.451,0.134-1.771,0.365-1.898,0.595l4.086,0.789L275.668,147.586z"/>
<path fill="#FFFFFF" stroke="#000000" stroke-miterlimit="10" d="M280.242,148.262c-0.818,0.693-2.84,0.699-1.809,1.779
	c2.403,0.349,1.817-0.388,3.334-0.492c-3.951-0.461,1.227-0.252-1.511-1.19c0.802,0.008,1.519,0.029,2.162,0.185
	c-0.623-0.244-1.271-0.482-1.953-0.751l0.08,0.059l0.021,0.008l-0.008,0.008c0.15,0.134,0.195,0.199,0.008,0.112l-0.084,0.007
	c-0.053,0.105-0.141,0.187-0.231,0.268c-1.11-0.357-0.144-0.238,0.231-0.268l0.076-0.119l-0.016-0.016l-4.031-0.223
	C277.326,147.882,278.375,148.039,280.242,148.262z"/>
<path fill="#FFFFFF" stroke="#000000" stroke-miterlimit="10" d="M297.764,158.048c-0.088-0.11-0.057-0.164-0.045-0.221
	C297.451,157.827,297.334,157.848,297.764,158.048z"/>
<path fill="#FFFFFF" stroke="#000000" stroke-miterlimit="10" d="M296.486,156.993c0.297,0,0.641-0.216,1.457,0.208
	c0.641,0.528-0.164,0.356-0.226,0.625c0.588,0.006,2.017,0.185,0.564-0.841h-0.297c-1.335-0.84-2.843-2.557-2.552-2.565
	C295.6,155.289,295.785,155.929,296.486,156.993z"/>
<path fill="#FFFFFF" stroke="#000000" stroke-miterlimit="10" d="M288.461,152.479l-3.252-0.499l1.408,1.138l0.035-0.439
	C288.379,153.349,288.141,152.73,288.461,152.479z"/>
<path fill="#FFFFFF" stroke="#000000" stroke-miterlimit="10" d="M271.346,146.216l0.553-0.789c0,0.007-2.069,0.939-2.061,0.99
	C269.836,146.379,271.354,146.179,271.346,146.216z"/>
<path fill="#FFFFFF" stroke="#000000" stroke-miterlimit="10" d="M194.429,322.17l-1.056-1.961c2.709,0.811,3.744,2.316,3.006,0.244
	c-0.968,0.861-2.514-0.454-4.061-1.77c-1.516-1.349-2.848-2.879-3.919-2.092l-0.536-1.398c0.245,0.313,0.402,0.261,0.647,0.564
	c-0.876-2.826-2.765-0.222-4.834-3.115c-0.58-1.107-0.794-2.029-0.059-1.555l-2.135-1.785c-0.439-0.669,0.046-0.779,0.476-0.119
	l-2.655-3.213l0.076-0.016c-0.721-0.223-1.964-1.014-2.514-1.448c-0.245-1.118,0.505,0.312,0.625-0.098l-1.726-1.651
	c0.074-1.158,1.621,0.135,2.365,1.54c1.064-3.229-1.547-1.301-2.662-6.024l1.406,1.674c0.61-1.965-0.916-3.006-1.079-5.623
	c-0.299,0.759,0.348,5.313-1.495,3.511c-0.231-0.688-0.515-1.569-1.57-2.545c0.817-0.433,0.044-1.511-0.715-2.961l1.146-0.431
	c-1.071-1.422-1.578-1.043-2.538-1.758c-0.781-1.822,0.024-2.603,0.589-3.324c-0.891-3.012-0.654,2.611-2.142-0.813
	c-0.431-2.65-1.665-4.146-3.273-6.988c-0.052-1.912,0.803,0.104,0.967-0.642l-1.336-1.315c-0.075-0.394,0.237-0.349,0.4-0.326
	c-0.705-1.243-1.196,0.215-2.067-1.838c-1.443-0.299,0.675-4.768-1.072-7.17c0.239-0.716,0.781,0.193,1.22-0.088
	c-1.546-3.496-1.196-3.006-3.004-5.886c-0.073,0,0.61-2.687,0.61-2.687c-0.819,1.994-2.009-0.354-3.013-2.527
	c-0.409,0.729-0.765,1.354-0.93,1.77l-0.832-3.532c0.178-0.44,0.625-0.09,1.159,0.467c-0.119-0.223-0.23-0.438-0.328-0.639
	c0.387-1.279,1.122-0.632,1.845,0.231c-0.224,0.417-0.454,0.855-0.685,1.295c0.781,0.835,1.635,1.576,2.342,1.355
	c-0.157-0.219-0.29-0.633-0.387-1.107c0.215,0.205,0.402,0.339,0.514,0.232c0.125-0.124-0.162-0.466-0.507-1.018l1.325-0.834
	l-0.551-0.167c0,0,0.581-4.472,0.722-4.457c-1.109-3.169-3.289-6.143-3.147-11.417c0.79,1.399,1.569,0.461,2.73,0.678
	c-1.555,1.234,0.171,3.987-0.232,6.574c0.203-1.361,0.753-1.025,0.925-0.67c0,0-0.953-4.76-0.834-4.766
	c0.938,0.208,0.863-0.903,1.452-2.052c-2.032,0.669-0.729-3.638-1.021-5.645c0.649,0.006,1.221,0.572,0.723,2.847
	c1.867-2.261-1.868-3.733,0.036-5.963c-0.125,0.564-0.297,0.848-0.036,1.13c-0.224-1.421,1.034-4.5,1.383-3.614l-0.127,0.557
	c0.923-3.682,3.332-10.97,2.09-12.093c0.208,0.037,1.659,1.168,1.882,1.488c0,0-0.685-2.09-1.368-4.188
	c-0.648-2.126-1.05-4.269-1.05-4.269c1.011,1.117,5.012,0.439,4.373,3.578c0.573-0.73,1.257-1.621,1.628-3.533
	c-0.438,0.462-2.483,0.521-2.223-0.297c2.401-1.421,1.448-1.108,3.844-3.05c-0.617,0.706-2.224-1.3-1.353-2.529
	c0.17,0.357,1.949,0.945,1.874,1.511l0.03-4.181c-0.142,0.982,1.48,1.063,2.409,0.692c-0.551,0.104,1.652-2.631,1.964-3.564
	l-1.205,1.036c2.373-3.295-0.148-5.012,2.379-8.352c0.045,0.675,1.437,2.624,2.878,1.144c-0.393-1.465-1.495-6.648,0.535-10.032
	l0.945-0.111l1.442-2.649c-0.066,2.55-0.864,8.516-1.487,11.312c1.346-0.863,0.84,0.151,2.305-1.576
	c0.981-0.201-0.148,1.487-0.565,1.993l3.792-3.6c-1.092-0.686,1.74-3.866,0.892-4.447l-2.915,5.146
	c-1.085-0.602-0.535-5.035,2.455-7.541c1.078-0.283,1.048,2.126,1.413,2.372c0.043-0.64,2.067-3.013,2.536-3.02l-0.714,1.577
	c1.853-1.034,1.406-3.571,4.069-4.343c0.736-0.484,3.092-0.26,2.736-0.945c-2.022-0.319-5.117-3.636-4.998-5.102
	c0.333-0.126,4.721-1.785,5.949-1.808c1.832,0.068-0.178,3.549,1.398,3.593c-0.163-0.313,0.225-1.139,0.41-1.458
	c0.906-0.305,0.319,1.116,1.823-0.208c-0.446-1.257,3.532-2.023,0.192-1.406c1.481-1.331,1.934-0.854,3.867-2.104
	c-1.071-0.328,0.329-3.541,1.905-4.931c0.059,0.35,0.654,0.499,0.952,0.588c3.778-1.659,5.971-2.181,9.46-3.689
	c0.46,0.17,2.312-0.105,1.785,0.684c0.423-0.403,0.735-0.982,1.829-1.413c2.5,0.281-2.379,1.056-0.289,1.726
	c-0.134-0.751,2.446-2.001,3.86-3.02c-0.849-0.93-3.705,1.116-5.088,2.126c-0.61-1.487,1.562-4.076,5.222-6.202
	c3.042-1.242,1.664,0.631,2.141,0.258c5.958-1.152,4.36-4.208,9.668-3.985c2.188,0.698,0.448,1.994,1.026,2.648
	c-2.513,0.699-4.061,0.149-5.786,0.618l2.224-0.075c-0.735,0.544-2.358,1.221-3.347,1.176c0.929,0.305,3.338-0.507,6.218-0.886
	c2.871-0.402,6.114-0.87,8.426-0.796c0.773-0.395,2.172-0.811,1.458-1.19l-1.45,0.216c-1.443-0.722,2.67-1.294,0.766-1.568
	c1.936-0.679,4.158-1.705,7.013-1.383l0.559,1.145c-0.068-0.342-1.861-0.603-2.641-0.208c1.176-0.527,4.32,1.259,5.6-0.119
	c0.008-0.046-1.979-0.87-1.979-0.817c2.01-0.678,4.581-1.637,7.118-1.168c-1.108-1.22-0.588,0.096-2.358-1.354
	c1.533,1.709-6.562-0.343-4.031,1.501c-1.873-1.473-3.215-0.505-5.734-1.719c0.097,0.388,0.914,0.694-1.256,0.611
	c-0.09,0.12-0.312,0.275-0.446,0.364l-0.149-0.021l0.119,0.045c-0.09,0.058-0.096,0.073,0.045,0.015
	c0.529,0.14,0.953,0.318,1.131,0.52c-0.996,0.975-4.39,0.997-5.444,1.74c-1.265,0,0.468-0.521-0.26-0.825l-1.601,0.937
	c-0.268-0.826-3.547-0.9-0.639-1.852l-2.693,0.373c-1.65-0.187-3.911-0.164-5.146,0.58c-1.289,0.132-2.923,1.725-1.994,0.788
	l-3.986,1.578l-0.097-0.194c-4.187,0.781-7.644,4.105-12.749,4.209c-1.189,0.817-2.386,1.68-4.617,2.484l-0.737-0.462
	c-1.524,1.004-5.294,1.711-5.54,2.894c-2.649-0.647-7.958,4.084-10.577,5.898l0.477,0.855c-1.785,1.293-3.362,2.729-5.222,4.73
	l0.67,0.542c-1.264,2.09-4.827,3.556-7.513,6.128c-0.043-0.4,0.714-0.975,1.34-1.279c-4.582,1.741-5.408,7.683-8.986,9.818
	c-0.356,0.996-0.872,1.502-1.458,1.934c0.055-0.075,0.09-0.158,0.112-0.232c-0.066,0.088-0.158,0.201-0.252,0.319
	c-0.387,0.277-0.81,0.574-1.197,0.847c0.415-0.215,0.796-0.43,1.072-0.668c-0.454,0.632-1.072,1.628-1.579,2.671l-1.041-0.142
	c-0.046,0.089-0.075,0.134-0.135,0.231c-0.951,0.714-0.186,0.974,0.736,0.886c-0.216,0.549-0.378,1.069-0.441,1.517
	c-1.738-0.068-1.136,2.803-3.121,3.01c0.26,1.071-2.508,5.199-1.34,6.5c-0.207-0.067-0.438,0.187-0.194-0.365
	c-0.697,1.034-1.412,2.089-1.495,3.301l-1.27-0.028l0.224,3.146c-1.369,1.19-2.054,1.674-2.152-0.2
	c-0.513,4.164-0.795,3.227-0.765,6.878l-0.649-0.415c-0.392,1.159-0.095,3.308-0.943,3.786c-2.396,2.104-3.941,12.844-6.002,19.641
	c2.418-1.091-1.525,3.124,0.304,3.592c-0.535,0.365-0.893,1.325-1.277,0.142c0.326,3.638-1.118,5.415,0.215,7.936
	c-0.552,0.409-0.736-0.782-1.064-0.417c0.103,0.292,0.402,1.155,0.068,1.533c-0.329,0.363-0.41-0.535-0.62-1.116
	c0.016,3.733,1.837,4.061,3.311,4.285c-0.633,1.858-0.483,2.793,0.579,4.046c-0.46,0.668-0.921,1.785-1.22-0.471
	c0.008,0.631-0.11,2.604,0.024,4.41c0.245,1.785,0.64,3.422,1.249,3.398c-0.253,0.434,0.179,1.77,0.364,2.076
	c0.424,2.813,0.156,3.124,0.967,5.816l0.007-0.797c1.704,0.76,0.894,2.164,1.622,4.307l-0.164-0.031
	c0.364,5.261,0.825,2.066,1.369,7.23l0.775-0.551c2.015-0.209,0.444,4.596,2.179,7.133l0.119-1.196
	c1.063,1.265-0.618,5.161-0.141,6.813c0,0.395-0.491-0.402-0.828-0.803c0.841,4.426,1.326,0,2.969,2.766
	c-0.319,0.826-1.798,0.047-0.951,2.067c-0.12,1.354,5.013,4.413,5.436,7.594c0.074-0.823,0.172-1.634,1.25-0.571
	c1.183,1.891,2.03,6.098,4.476,6.856c0.067,0.313,0.022,0.476-0.066,0.565c1.294,1.211,4.002,4.043,5.401,4.186
	c-0.648,1.628,1.471,3.395,3.441,4.938c2.022,1.494,4.075,2.611,3.05,3.688l4.068,3.488l-0.299,0.127
	c2.528,2.336,4.002,2.433,5.355,2.608c0.507,0.625-0.112,0.508-0.252,0.59c3.599,3.502,4.181,3.666,8.508,4.56l-0.125,1.033
	c0.625,0.062,1.972,1.31,3.778,2.753c1.882,1.287,4.3,2.686,6.739,3.25c-0.09,0.072-0.262,0.199-0.662,0.15
	c2.671,0.81,5.526,2.496,8.135,3.822c2.583,1.354,4.902,2.273,6.384,0.797l3.724,0.082c-4.425-1.412,1.049-1.271-0.646-2.291
	c1.771,0.245,4.26,2.164,2.067,1.786l-0.296-0.255c-1.229,1.549,5.435,2.063,5.114,3.057c9.074,1.525,18.082,3.072,26.833,2.52
	l-1.092-1.342c0,0,3.012-0.03,3.006-0.104c0.809,0.208,1.166,0.988-1.006,1.121c1.221,0.729,3.549-1.085,3.563-1.376
	c4.261,0.021-1.448,1.824-0.161,1.689l1.745-0.328l-0.413-0.112c1.354-0.741,1.391-1.362,3.971-1.612
	c1.66,0,0.968,0.684,1.619,0.618c0.019,0.104,0.237,0.104,0.981-0.163l3.777-0.693l-1.73-0.752c1.531-0.885,3.502-0.691,1.511-1.541
	c3.019,1.57,13.743-3.286,15.321-3.485c1.91-1.571,4.031-2.446,6.619-3.696c-0.743,0.111-1.651-0.818,0.604-1.764
	c0.354,2.691,4.559-0.977,7.145-0.545c-2.153-0.125,5.943-3.919,2.589-3.919c1.858-0.913,0.641,0.76,2.276,0.366
	c3.525-3.58,9.252-5.897,13.578-10.385c-0.162-0.312-1.232,0.031-0.654-1.248l3.476-1.08c0.75-0.975-0.59-2.135,1.813-2.887
	c-0.426,0.03-1.063,0.061-0.571-0.578c9.52-7.805,13.848-19.865,21.313-29.781c-1.219,1.289-0.861,0.231-0.41-0.942
	c-0.451,0.696-0.75-0.341-1.233-0.365l3.088-4.262c-0.91-1.301,1.561-5.25,0.571-6.104l-0.274,1.592
	c-0.729-2.416-3.896,1.859-5.521,0.943c0.908,2.797-4.407,4.672-3.61,9.014c-0.687,0.591-0.238-0.877-0.818-0.654
	c0.328,1.167-0.074,2.254-1.332,3.979l-0.065-0.295c-1.205,2.69-2.33,4.49-3.734,6.209c-1.375,1.726-2.701,3.584-4.926,6.031
	l1.026,0.126c-0.936,1.08-1.338,1.153-1.918,1.554c0.14,2.137,2.416-3.176,2.767-1.1c-1.322,0.232-2.767,2.273-4.271,4.18
	c-1.619,1.815-3.211,3.563-4.401,3.338c-1.412,1.639,1.196,0.217-0.23,1.861l-0.797,0.055l0.135,0.883
	c-1.108,0.93-2.119,0.939-2.5,0.64c0.281-0.199,0.604-0.78,0.832-1.063c-1.774,0.82-3.508,3.795-4.111,4.084l1.714-1.205
	c-3.849,4.591-10.041,8.375-14.199,12.475l0.608,0.134c-3.397,2.906-3.241,1.479-7.272,4.157l0.104-0.163
	c-0.668,0.802-1.739,1.569-2.961,2.113c0.877-0.981-2.475,0.149-1.278-1.056c-3.902,2.871-1.813,1.637-4.135,4.307l-0.951-0.387
	c-0.767,0.996-0.73,1.346-2.951,2.416c1.656-1.311-1.809-0.438-0.01-2.018c-5.207,0.27-6.738,3.757-9.551,2.314
	c-1.771,2.514,4.5-0.187,3.348,0.558c1.233,0.274-1.449,2.017-3.088,2.217c-1.644,0.304-3.316-1.853-7.248-0.967
	c0.399-0.074,0.399-0.229,0.793-0.306c-1.551-0.119-2.816,1.176-4.781,0.609c-0.885,1.312-2.402,0.239-2.537,1.778l3.684-0.826
	c-2.039,0.595-3.854,2.813-7.481,2.134c0.252-0.334,1.278-0.721,1.971-1.047c-1.055-0.328-1.957,0.395-3.057,0
	c0.217-1.422,4.538-0.588,6.635-2.113c-1.146-0.489-4.11,1.631-3.151-0.142c-1.438,2.321-3.966-0.055-6.627,1.692l0.157-0.911
	c-0.426,0.162-1.317,0.622-2.121,0.64l1.42-1.234c-2.19,1.188-4.223-0.922-6.32-0.453c4.402,0.201,0.951,1.138,2.829,1.896
	c-5.579,0.894-3.081-2.455-9.135-2.471c0.812,0.076,3.036,0.729,1.697,1.123c-1.152-0.17-2.618-0.871-3.258-1.412
	c-4.002-0.426,0.492,1.018-1.279,1.301c-1.212-1.294-2.038,0.15-3.881,0.225l0.149-0.91c-4.464-1.294-1.607,1.732-5.564,0.059
	l2.002-0.796l-2.179-0.224l0.675-0.906c-2.461,0.171-3.145-0.216-5.286-1.064c0.348,0.697-0.804,1.639-2.767,0.924
	c-1.154-1.012,1.01-0.565-1.77-1.443c0.811-0.313,1.695-0.758,2.624,0.484c0.218-0.248,0.781-0.313,0.997-0.58
	c-1.218-1.086-3.472-1.42-4.462-1.764c0.365,0.172,0.797,0.379,0.99,0.588l-4.402-0.254c-0.499-0.553,0.104-0.623,0.691-0.699
	c-0.825-0.223-1.576,0.053-2.744-0.43c0.594-0.56,0.802-1.231,2.587-0.978c-0.03,0.104-3.958-0.839-3.958-0.839
	c-0.103-0.41-1.449-1.694-0.87-1.719c-1.747-1.34-5.556-0.945-7.727-3.096c-0.201,0.049-0.538,0.01-1.117-0.23
	c-2.284-1.577-3.867-3.51-7.006-4.721l-0.677-2.173c-2.223-1.278,0.989,2.849-2.743,0.692c-2.702-1.495-0.193-1.563-0.797-2.491
	c-1.51-0.472-4.388-1.235-5.705-3.899C193.33,321.038,193.73,321.666,194.429,322.17z"/>
<path fill="#FFFFFF" stroke="#000000" stroke-miterlimit="10" d="M239.634,147.748l-0.059,0.059
	C238.028,147.681,238.577,147.74,239.634,147.748z"/>
<path fill="#FFFFFF" stroke="#000000" stroke-miterlimit="10" d="M242.771,147.673c0.284-0.171,0.247-0.297,0.099-0.401
	c-0.188,0.26-0.872,0.386-1.66,0.438C241.463,147.912,241.887,148.015,242.771,147.673z"/>
<path fill="#FFFFFF" stroke="#000000" stroke-miterlimit="10" d="M275.496,151.996c0.301-0.067,0.59,0.088,0.879,0.02v-0.43
	C275.193,151.408,274.322,151.615,275.496,151.996z"/>
</svg>
