<?xml version="1.0" encoding="utf-8"?>
<!-- Generator: Adobe Illustrator 16.0.0, SVG Export Plug-In . SVG Version: 6.00 Build 0)  -->
<!DOCTYPE svg PUBLIC "-//W3C//DTD SVG 1.1//EN" "http://www.w3.org/Graphics/SVG/1.1/DTD/svg11.dtd">
<svg version="1.1" id="레이어_1" xmlns="http://www.w3.org/2000/svg" xmlns:xlink="http://www.w3.org/1999/xlink" x="0px"
	 y="0px" width="512px" height="512px" viewBox="0 0 512 512" enable-background="new 0 0 512 512" xml:space="preserve">
<path fill="#FFFFFF" stroke="#000000" stroke-miterlimit="10" d="M373.764,152.764c0.615,1.063,2.742-1.332,3.304-1.57
	C375.125,150.152,373.182,153.351,373.764,152.764z"/>
<polygon fill="#FFFFFF" stroke="#000000" stroke-miterlimit="10" points="354.885,144.046 356.018,143.294 351.777,143.875 "/>
<path fill="#FFFFFF" stroke="#000000" stroke-miterlimit="10" d="M340.963,133.017c-1.822,5.428,5.928,2.751,7.08,6.507
	l-0.379,1.308l3.844-2.476C348.17,136.201,342.332,135.754,340.963,133.017z"/>
<path fill="#FFFFFF" stroke="#000000" stroke-miterlimit="10" d="M339.186,117.659c-0.571,2.17-2.786,0.349,1.658,1.852
	c-0.065-0.327-0.053-0.476-0.074-0.698C340.398,118.625,339.967,118.24,339.186,117.659z"/>
<path fill="#FFFFFF" stroke="#000000" stroke-miterlimit="10" d="M340.771,118.812C342.525,119.815,340.607,116.566,340.771,118.812
	L340.771,118.812z"/>
<path fill="#FFFFFF" stroke="#000000" stroke-miterlimit="10" d="M332.053,115.301l3.258-0.388c0.13-1.353-1.858-2.752-0.631-3.123
	C331.727,111.38,331.682,112.765,332.053,115.301z"/>
<path fill="#FFFFFF" stroke="#000000" stroke-miterlimit="10" d="M328.016,117.628l1.556-0.066
	C329.607,116.98,329.377,116.646,328.016,117.628z"/>
<path fill="#FFFFFF" stroke="#000000" stroke-miterlimit="10" d="M332.895,117.435l-3.323,0.126
	c-0.084,0.943-0.894,2.513,1.436,0.082C330.031,118.945,331.266,117.843,332.895,117.435z"/>
<path fill="#FFFFFF" stroke="#000000" stroke-miterlimit="10" d="M333.912,118.93c0.715,1.725,1.936,3.243-1.256,3.644
	C337.297,124.256,338.703,120.669,333.912,118.93z"/>
<path fill="#FFFFFF" stroke="#000000" stroke-miterlimit="10" d="M337.037,137.136l0.543,2.314l2.328-0.625
	C338.754,139.13,337.914,135.671,337.037,137.136z"/>
<path fill="#FFFFFF" stroke="#000000" stroke-miterlimit="10" d="M318.279,105.625c-0.597,1.003-0.351,3.189-0.75,4.625l2.319-0.49
	C319.248,108.659,317.76,107.26,318.279,105.625z"/>
<path fill="#FFFFFF" stroke="#000000" stroke-miterlimit="10" d="M317.529,110.25l-3.414,0.751
	C316.391,112.177,317.178,111.485,317.529,110.25z"/>
<polygon fill="#FFFFFF" stroke="#000000" stroke-miterlimit="10" points="324.832,122.767 330.818,121.258 324.035,122.411 "/>
<polygon fill="#FFFFFF" stroke="#000000" stroke-miterlimit="10" points="307.719,101.408 310.209,99.354 306.037,102.344 "/>
<path fill="#FFFFFF" stroke="#000000" stroke-miterlimit="10" d="M300.34,99.771c1.816-1.786-0.662-4.083,0.998-5.036
	c-2.145-0.193-4.352,1.167-6.277,2.409C296.904,96.662,298.615,97.398,300.34,99.771z"/>
<path fill="#FFFFFF" stroke="#000000" stroke-miterlimit="10" d="M291.951,98.901c0.922-0.357,1.955-1.012,3.108-1.756
	C294.078,97.413,293.074,97.859,291.951,98.901z"/>
<path fill="#FFFFFF" stroke="#000000" stroke-miterlimit="10" d="M309.801,108.644c0.037-0.744,0.263-2.618-1.012-3.957
	l-0.016,3.489C309.086,108.325,309.445,108.48,309.801,108.644z"/>
<path fill="#FFFFFF" stroke="#000000" stroke-miterlimit="10" d="M308.773,108.287v-0.111c-1.101-0.551-1.896-0.849-2.238-0.981
	C306.826,107.313,307.525,107.572,308.773,108.287z"/>
<path fill="#FFFFFF" stroke="#000000" stroke-miterlimit="10" d="M310.061,108.763l-0.262-0.12
	C309.793,108.986,309.816,109.112,310.061,108.763z"/>
<path fill="#FFFFFF" stroke="#000000" stroke-miterlimit="10" d="M319.662,116.862c-2.305,1.018-6.113,1.562-4.277,5.318
	C317.357,120.582,316.264,118.424,319.662,116.862z"/>
<path fill="#FFFFFF" stroke="#000000" stroke-miterlimit="10" d="M309.928,113.092l2.47,1.799c0.268-0.819,0.229-2.188,1.321-2.715
	L309.928,113.092z"/>
<polygon fill="#FFFFFF" stroke="#000000" stroke-miterlimit="10" points="308.225,113.523 309.928,113.092 309.006,112.423 "/>
<path fill="#FFFFFF" stroke="#000000" stroke-miterlimit="10" d="M296.354,103.252c-1.638,1.018-3.035,0.743-4.648,0.534
	c1.525,1.086,3.154,1.904,4.783,2.352C296.979,105.216,298.191,103.653,296.354,103.252z"/>
<path fill="#FFFFFF" stroke="#000000" stroke-miterlimit="10" d="M302.355,105.899l-0.334,0.105
	C302.111,106.316,302.23,106.434,302.355,105.899z"/>
<path fill="#FFFFFF" stroke="#000000" stroke-miterlimit="10" d="M276.018,101.057c0.056,0.193,0.121,0.424,0.183,0.632l0.125-0.552
	L276.018,101.057z"/>
<path fill="#FFFFFF" stroke="#000000" stroke-miterlimit="10" d="M296.615,106.807c1.078,0.959,2.021,0.402,3.01-0.356
	c-1.025,0.045-2.068-0.031-3.139-0.313C296.264,106.562,296.176,106.853,296.615,106.807z"/>
<path fill="#FFFFFF" stroke="#000000" stroke-miterlimit="10" d="M287.146,99.607c0.549,0.789,1.203,1.487,1.903,2.142
	C288.605,100.634,287.549,98.819,287.146,99.607z"/>
<path fill="#FFFFFF" stroke="#000000" stroke-miterlimit="10" d="M301.857,105.015c0.073-0.03,0.149-0.068,0.229-0.083
	C301.871,104.152,301.828,104.486,301.857,105.015z"/>
<path fill="#FFFFFF" stroke="#000000" stroke-miterlimit="10" d="M301.857,105.015c-0.789,0.267-1.523,0.884-2.232,1.436
	c0.834-0.031,1.639-0.165,2.396-0.446C301.932,105.735,301.881,105.35,301.857,105.015z"/>
<path fill="#FFFFFF" stroke="#000000" stroke-miterlimit="10" d="M269.332,121.414c0.432-2.997,3.846-5.681,6.01-1.912
	c2.834-1.814,2.717-11.891,0.857-17.813c-0.254,1.339-0.418,2.366-3.496,3.92c0.9,1.553,5.799,4.782,3.094,7.043
	c-3.793,0.908-2.836-1.474-4.49-3.206c1.113,3.824-5.141,5.185-4.703,10.739l3.205-1.77
	C269.787,119.28,268.566,120.582,269.332,121.414z"/>
<path fill="#FFFFFF" stroke="#000000" stroke-miterlimit="10" d="M281.762,102.917l1.264-0.164c-1.297-0.75-2.082-2.104-3.612-4.752
	c-2.276,1.117-2.817,2.164-3.088,3.138l5.922,1.406L281.762,102.917z"/>
<path fill="#FFFFFF" stroke="#000000" stroke-miterlimit="10" d="M288.471,103.668c-1.637,3.049-4.672,3.95-3.639,7.728
	c3.406,0.35,2.91-2.284,5.283-3.325c-5.771-0.163,2.016-1.502-1.674-4.024c1.227-0.334,2.297-0.395,3.264-0.261
	c-0.922-0.669-1.836-1.257-2.654-2.038l0.09,0.224h0.029l-0.016,0.045c0.164,0.446,0.195,0.706-0.037,0.431
	c-0.021,0.03-0.098,0.03-0.135,0.045c-0.125,0.431-0.318,0.803-0.512,1.16c-1.525-0.951-0.091-0.877,0.512-1.16l0.172-0.476
	l-0.014-0.045l-6.113,0.78C284.17,103.407,285.695,103.572,288.471,103.668z"/>
<path fill="#FFFFFF" stroke="#000000" stroke-miterlimit="10" d="M309.957,127.588c-0.037-0.336,0.057-0.551,0.143-0.774
	C309.627,127.059,309.406,127.268,309.957,127.588z"/>
<path fill="#FFFFFF" stroke="#000000" stroke-miterlimit="10" d="M308.713,124.94c0.521-0.284,1.318-1.369,2.359-0.588
	c0.625,1.316-0.619,1.45-0.974,2.461c1.011-0.52,3.373-1.16,1.783-3.54l-0.526,0.273c-1.539-1.843-2.716-6.738-2.209-7.021
	C308.699,119.541,308.475,121.711,308.713,124.94z"/>
<path fill="#FFFFFF" stroke="#000000" stroke-miterlimit="10" d="M298.965,114.736l-4.834,0.296l1.449,3.363l0.357-1.667
	C298.213,118.067,298.273,115.91,298.965,114.736z"/>
<path fill="#FFFFFF" stroke="#000000" stroke-miterlimit="10" d="M275.664,99.346l1.07-3.338c0,0-0.865,1.101-1.711,2.201
	c-0.849,1.168-1.683,2.329-1.683,2.329S275.664,99.295,275.664,99.346z"/>
<polygon fill="#FFFFFF" stroke="#000000" stroke-miterlimit="10" points="269.266,99.273 269.742,96.29 267.906,98 "/>
<path fill="#FFFFFF" stroke="#000000" stroke-miterlimit="10" d="M250.761,110.571c-0.252,0.378-0.432,0.862-0.424,1.627
	C250.404,111.404,250.552,110.882,250.761,110.571z"/>
<path fill="#FFFFFF" stroke="#000000" stroke-miterlimit="10" d="M179.051,339.846l0.148-3.883c5.57-1.548,5.891,1.034,7.049-3.563
	c-3.576,3.75-5.533,2.322-7.502,0.91c-1.928-1.453-3.608-3.146-7.565,0.266l0.469-2.729c0.254,0.422,0.751,0.073,0.996,0.489
	c1.534-5.696-7.228,3.213-9.081-1.079c-0.298-1.748,0.26-3.51,1.831-3.458l-4.024-1.12c-0.432-0.91,1.152-1.787,1.575-0.895
	l-3.739-3.609l0.268-0.142c-1.808,0.38-4.796,0.343-6.113,0.188c0.549-1.973,1.271-0.021,2.17-1.027l-3.628-1.152
	c1.673-2.432,5.116-1.756,5.785,0.111c7.349-7.814-3.413-0.668-1.205-8.604l2.485,1.548c4.283-4.425,1.152-4.871,3.286-9.133
	c-1.613,1.436-5.272,9.385-9.072,8.1c0.178-1.102,0.073-2.291-2.5-2.834c3.257-1.711,1.777-2.713,0.714-4.433l4.464-1.978
	c-2.172-1.264-4.367-0.088-6.925-0.344c-0.676-2.371,2.745-4.328,5.489-6.022c-0.543-3.793-4.722,4.737-7.103,0.833
	c0.699-3.719-2.104-4.983-6.023-7.943c1.055-2.697,2.959-0.46,4.089-1.65l-4.222-0.877c-0.04-0.515,1.151-0.672,1.755-0.752
	c-1.884-1.265-4.731,1.16-6.709-1.221c-5.399,0.395,6.084-7.169-0.185-9.318c1.241-1.063,2.996-0.11,4.82-0.685
	c-4.635-3.884-3.452-3.362-9.394-6.604c-0.112-0.015,2.943-3.629,2.943-3.629c-3.523,2.75-7.987,0.054-11.691-2.767
	c-1.719,1.033-3.213,1.955-3.927,2.558l-2.855-4.768c0.772-0.624,2.469-0.171,4.536,0.528c-0.424-0.3-0.848-0.581-1.205-0.833
	c1.71-1.795,4.567-0.938,7.35,0.134c-0.953,0.579-1.942,1.19-2.925,1.798c3.013,1.021,6.338,1.831,9.17,1.413
	c-0.573-0.245-1.086-0.772-1.383-1.36c0.818,0.237,1.548,0.381,2.023,0.224c0.505-0.179-0.595-0.565-1.875-1.234l5.379-1.202
	l-2.166-0.158c0,0,3.042-5.64,3.229-5.593c-5.117-3.913-13.41-8.124-14.696-15.426c3.687,2.187,6.403,1.128,11.066,1.799
	c-5.371,1.204,1.665,5.214,0.476,8.366c0.61-1.702,2.839-1.166,3.599-0.697c0,0-1.07-1.525-2.127-3.057
	c-1.101-1.562-2.047-3.154-2.047-3.161c3.816,0.543,3.074-0.914,4.887-2.202c-7.749,0.188-4.365-5.048-6.306-7.906
	c2.537,0.336,5.028,1.384,3.986,4.15c6.218-2.089-8.396-5.831-2.691-8.077c-0.119,0.729-0.61,1.026,0.595,1.577
	c-1.786-2.142,1.024-5.831,2.93-4.306l-0.126,0.707c1.116-2.18,1.763-5.728,2.009-8.948c0.223-3.213-0.588-6.359-3.473-7.883
	c0.803,0.268,7.079,3.391,8.21,4.098c0,0-4.402-3.845-8.649-8.084c-4.232-4.188-8.032-8.649-8.027-8.649
	c4.737,2.967,18.037,5.904,19.197,10.709c1.221-0.692,2.642-1.488,1.882-4.455c-1.026,0.312-8.107-1.704-8.091-2.916
	c6.871,0.008,3.911-0.477,10.122-1.242c-1.495,0.506-8.813-4.82-7.482-6.359c0.99,0.886,7.601,4.054,8.056,5.058
	c0,0-1.279-2.022-2.544-4.045c-1.234-2.09-2.469-4.187-2.469-4.187c0.706,1.815,6.143,3.875,8.724,4.298
	c-1.674-0.483,2.12-3.206,2.015-4.685l-2.646,0.551c3.673-3.599-6.962-11.007-3.311-15.335c0.975,1.644,7.735,7.838,10.115,6.44
	c-1.354-1.807-4.768-6.196-7.489-10.94c-2.692-4.693-4.791-9.871-4.21-13.009l2.529,0.943l0.706-5.004
	c2.832,6.702,8.634,20.892,10.829,26.618c2.729-0.2,2.617,1.479,4.3-0.735c2.431,0.832,1.694,3.429,1.271,4.09l5.339-3.593
	c-3.957-3.234-0.489-7.161-3.613-9.987c0,0-0.291,2.291-0.52,4.506c-0.209,2.203-0.417,4.403-0.417,4.403
	c-4.031-3.034-8.039-13.067-3.607-16.005c2.351,0.625,5.644,7.178,6.945,8.301c-0.795-1.644,1.004-5.444,2.166-4.82l0.386,3.354
	c3.146-0.26-1.346-7.95,4.172-6.382c1.094-0.445,6.678,3.244,4.932,0.752c-4.94-3.607-16.75-17.321-18.326-21.627
	c0.653,0,8.836,0.364,11.557,1.934c4.166,2.603,4.002,10.634,7.625,12.844c-0.767-1.167-0.96-3.19-0.931-3.904
	c1.621,0.274,2.098,3.844,3.734,1.814c-2.545-4.538,4.67-2.313-1.413-4.277c1.369-2.559,2.885-0.491,5.281-2.217
	c-2.588-2.35-3.51-11.224-1.763-14.019c0.49,1.234,1.844,2.431,2.491,3.019c5.236-1.963,8.82-1.227,13.44-3.189
	c0.928,1.004,3.725,1.598,3.599,4.023c0.321-1.093,0.29-2.96,1.688-3.6c4.3,3.206-2.908,1.799,1.093,6.091
	c-0.915-2.878,2.134-5.22,3.6-7.765c-2.09-4.194-5.118,0.923-6.419,3.399c-2.409-5.95-1.086-13.617,3.54-18.452
	c3.987-2.745,3.094,3.466,3.608,2.379c8.368-0.885,4.388-12.978,12.62-9.757c3.571,3.584,1.577,7.988,2.737,10.799
	c-3.212,1.957-5.868-1.48-8.241-0.729l3.332,1.145c-0.816,1.615-2.826,3.19-4.358,2.373c1.562,1.592,4.805,0.624,8.679,0.2
	c3.853-0.445,8.218-1.004,11.417,0.224c0.923-1.435,2.723-2.938,1.674-4.537l-1.926,0.669c-2.209-3.147,3.376-4.768,0.655-6.144
	c2.527-2.454,5.592-6.271,9.696-4.597l0.842,4.634c-0.099-1.369-2.649-2.654-3.698-1.175c1.65-2.097,6.053,5.876,7.809-0.037
	c0,0-0.684-0.84-1.367-1.688c-0.707-0.781-1.407-1.555-1.407-1.555c2.791-2.476,6.629-7.051,10.289-5.428
	c-1.462-4.693-0.851,0.483-3.306-5.051c2.101,6.754-9.63-0.668-5.965,6.5c-2.752-6.135-4.653-2.439-8.521-7.594
	c0.201,1.532,1.441,2.878-1.785,2.284c-0.104,0.461-0.402,1.042-0.595,1.39c-0.097-0.044-0.134-0.059-0.225-0.104l0.194,0.17
	c-0.126,0.238-0.133,0.29,0.06,0.06c0.804,0.639,1.458,1.413,1.756,2.253c-1.326,3.651-6.144,3.637-7.527,5.854
	c-1.853-0.461,0.543-1.867-0.619-3.355l-2.076,3.08c-0.646-3.354-5.659-4.887-1.577-7.534l-3.977,0.446
	c-2.619-1.473-6.093-1.881-7.729,0.089c-2.03-0.252-3.778,4.864-2.796,1.853l-5.518,3.607l-0.284-0.811
	c-3.072,0.477-5.667,2.805-8.44,4.634c-2.82,1.778-5.869,2.871-10.36,1.258c-1.548,1.688-3.005,3.553-6.523,4.172l-1.912-2.366
	c-1.934,2.052-8.716,0.922-8.159,4.358c-6.455-5.318-12.442,5.19-16.801,7.11l2.127,3.236c-2.714,1.792-4.617,4.477-6.709,8.16
	l2.366,2.461c-0.633,4.343-7.973,3.934-11.737,7.876c-0.662-1.176,0.596-1.86,1.853-1.941c-5.154-0.691-6.389,3.086-7.43,6.605
	c-0.952,3.645-1.77,7.035-5.622,7.653c0.103,1.934-0.847,2.492-2.136,2.789c0.067-0.119,0.097-0.252,0.067-0.402
	c-0.118,0.097-0.252,0.269-0.386,0.454c-0.856,0.15-1.8,0.275-2.669,0.529c1.033,0.007,1.925-0.053,2.485-0.269
	c-0.62,0.938-1.297,2.558-1.584,4.382l-3.407-1.555c-0.043,0.142-0.118,0.224-0.148,0.373c-2.105,0.565,0.639,2.046,3.413,2.938
	c0,1.011,0.156,2.022,0.536,2.981c-5.661-2.194-0.543,4.686-6.821,2.827c2.046,2.581-2.357,8.301,2.99,12.117
	c-0.772-0.357-1.324-0.126-1.004-0.922c-1.42,1.228-2.863,2.514-1.91,4.759l-4.507-1.391l3.972,6.188
	c-3.578,0.893-5.548,1.205-7.787-2.438c2.521,7.4,0.067,5.214,3.406,11.64l-2.743-1.271c-0.492,1.688,2.395,5.556-0.313,5.712
	c-6.931,1.91-6.061,17.918-12.391,27.139c9.119-0.893-4.7,4.225,2.298,5.362c-2.119,0.387-3.383,1.732-5.103-0.088
	c1.762,5.34-3.749,7.832,1.881,11.581c-2.134,0.579-3.019-1.161-4.298-0.656c0.439,0.446,1.756,1.711,0.477,2.256
	c-1.279,0.542-1.733-0.782-2.604-1.653c0.238,5.563,6.999,5.923,13,6.114c-2.745,2.654-2.275,4.038,1.8,5.607
	c-1.934,1.004-3.928,2.713-4.804-0.461c-0.089,0.908-0.722,3.74-0.582,6.328c0.299,2.574,1.205,4.863,3.631,4.604
	c-1.138,0.729,0.021,2.544,0.647,2.916c0.409,3.991-0.238,4.5,1.198,8.233l0.503-1.229c6.122,0.255,2.076,2.834,3.549,5.735
	l-0.603,0.059c-2.135,8.129,2.409,2.471,0.186,10.682l3.333-1.525c7.638-1.977-2.239,7.4,2.061,10.346l1.413-2.188
	c3.071,1.015-7.245,9.967-7.074,12.727c-0.386,0.771-1.346-0.284-2.126-0.745c-1.407,7.78,4.677-1.286,7.689,2.382
	c-1.927,1.956-6.358,1.947-5.369,5.078c-1.258,2.693,11.943,3.831,9.854,10.051c1.174-1.897,2.394-3.714,4.745-2.726
	c2.038,2.366-1.019,11.55,5.741,10.25c-0.194,0.662-0.505,1.106-0.892,1.42c1.398,0.515,3.138,1.726,4.975,2.655
	c1.955,0.834,3.971,1.396,5.734,0.81c-3.994,4.984-0.17,6.917,3.393,8.347c3.645,1.391,7.287,2.082,3.286,6.383l6.115,4.699
	l-0.924,0.772c3.332,3.749,6.576,2.492,9.549,1.295c0.417,1.293-0.875,1.688-1.314,2.112c4.246,6.21,5.407,6.283,13.461,4.345
	l-1.444,3.545c1.258-0.521,2.672,2.068,4.902,4.813c2.321,2.527,5.593,5.104,9.691,4.644c-0.246,0.356-0.676,0.966-1.407,1.203
	c4.441-0.147,7.854,3.823,11.365,6.636c3.451,2.832,6.874,4.363,10.219-1.979l5.854-1.985c-6.001-2.646,2.447-5.533,0.469-8.396
	c2.5-0.187,5.168,5.607,2.045,5.541l-0.305-0.791c-2.827,6.703,7.214,4.479,6.16,8.992c6.529,0.813,12.792,2.895,19.217,3.957
	c6.388,1.517,12.845,2.365,19.173,2.148l-1.791-5.496c0,0,4.269,0.165,4.263,0.063c1.228,1.127,1.944,4.209-1.199,4.252
	c1.94,3.057,4.955-3.258,4.853-4.432c6.27,1.473-1.586,6.752,0.242,6.647l2.522-0.735l-0.66-0.572
	c1.783-2.521,1.604-4.932,5.295-5.142c2.498,0.724,1.775,3.169,2.736,3.207c0.057,0.394,0.407,0.506,1.44-0.133l5.549-0.706
	l-3.102-3.832c1.881-2.618,4.99-0.84,1.457-5.178c5.424,7.043,19.916-2.93,22.619-1.756c1.963-4.148,4.898-5.34,8.678-6.871
	c-1.315-0.373-3.949-4.588-0.684-5.524c3.496,9.683,7.668,1.197,13.752,5.896c-4.678-2.862,8.135-6.289,0.945-10.03
	c2.905-0.843,2.237,3.146,5.42,3.881c1.801-3.726,5.332-5.36,9.225-7.117c3.725-1.926,8.084-3.683,10.857-7.243
	c-0.826-1.07-3.242-1.555-3.289-4.314c0,0,1.973,0.41,3.942,0.813c2.011,0.365,4.019,0.735,4.019,0.735
	c0.817-1.731-4.39-6.529,1.205-5.548c-1.14-0.455-2.836-1.161-2.336-2.256c3.965-2.061,7.213-5.035,9.959-8.396
	c2.52-3.555,4.871-7.269,6.938-11.128c4.187-7.764,8.336-15.027,17.381-20.883c-3.311,1.221-2.924-0.387-2.328-2.098
	c-1.02,0.849-3.043-1.303-4.805-1.783c0,0,1.844-1.192,3.688-2.383c1.86-1.258,3.727-2.513,3.727-2.513
	c-4.352-2.932,2.047-7.608-2.344-9.729l0.158,2.41c-4.574-4.418-13.269,0.066-20-2.826c2.678,2.462-0.304,3.533-3.043,4.736
	c-2.729,1.252-5.109,2.618-1.777,6.725c-1.799,0.32-1.777-1.785-3.555-1.977c2.364,2.348,2.229,3.955-0.218,5.719l-0.557-0.625
	c-1.295,3.524-3.063,5.623-5.377,7.443c-2.254,1.771-4.656,3.661-7.988,6.27l3.301,1.609c-1.448,1.159-2.579,0.797-3.791,0.92
	c3.189,4.909,3.189-3.846,7.005,1.16c-3.74-1.146-5.548,1.391-7.525,3.733c-2.121,2.209-4.277,4.299-7.883,2.098
	c-1.767,1.992,3.621,2.187,1.819,4.224l-2.127-0.994l1.627,2.469c-1.643,0.953-4.288-0.4-5.694-1.71
	c0.461-0.136,0.471-1.205,0.67-1.636c-3.476-0.314-3.822,5.057-4.984,4.996l2.754-0.772c-1.733,3.442-5.209,5.683-8.146,8.427
	c-3.152,2.508-6.111,5.133-7.867,9.059l1.398,1.146c-3.183,5.513-4.769,0.772-9.334,5.013l0.008-0.453
	c-0.293,2.023-1.4,3.525-3.015,4.105c0.484-2.468-4.274-2.199-3.434-5.079c-3.863,5.69-1.43,3.675-2.717,11.054l-1.947-2.277
	c-0.334,2.887,0.037,4.188-2.693,6.063c1.57-3.234-3.309-3.318-1.77-7.378c-7.777-3.713-7.273,8.82-12.463,1.048
	c-0.908,8.361,6.455,2.625,5.303,4.672c2.104,2.002-0.797,6.412-3.104,6.174c-2.217,0.291-5.875-8.984-10.68-7.787
	c0.497-0.067,0.424-0.661,0.913-0.729c-2.133-1.494-3.213,3.288-5.987,0.387c-0.674,4.849-2.986,0.111-2.705,6.145l4.565-1.986
	c-2.364,1.808-4.276,9.432-9.243,6.256c0.274-1.25,1.522-2.826,2.35-3.854c-1.443-1.619-2.447,1.302-3.934-0.438
	c0.028-3.025,1.411-3.397,3.123-3.629c1.688-0.371,3.725-0.603,4.811-3.063c-1.59-2.366-4.768,5.02-4.023-1.658
	c-1.293,8.596-4.879-0.811-7.973,5.742l0.119-3.624c-0.506,0.589-1.59,2.344-2.588,2.298l1.695-4.767
	c-2.677,4.239-5.109-3.563-7.625-1.479c5.3,0.18,1.055,4.42,3.327,7.178c-7.149,4.426-3.586-9.564-10.859-8.353
	c0.981-0.261,3.511,2.373,1.793,4.024c-1.375-0.715-3.051-2.547-3.645-4.514c-4.871,0.008,0.252,3.807-2.104,5.688
	c-1.058-4.618-2.663,1.402-5.191,2.445l0.632-3.621c-5.184-3.178-3.027,7.342-7.625,3.312l3.273-4.403l-2.901,0.604l1.511-3.928
	c-3.489,2.297-4.248,1.277-6.627-0.537c-0.075,2.574-2.299,6.457-4.821,5.609c-0.987-2.687,2.009-2.982-1.575-3.744
	c1.538-1.881,3.227-4.326,3.644-0.57c0.52-1.094,1.427-1.896,1.94-3.014c-0.936-2.99-4.038-2.104-5.257-2.498
	c0.409,0.291,0.884,0.678,0.996,1.271l-6.664,2.995c-0.268-1.562,0.781-2.363,1.777-3.166c-1.108-0.009-2.483,1.429-4.008,1.024
	c1.54-2.586,2.647-5.367,5.14-5.994c0,0-1.444,0.453-2.827,0.654c-1.405,0.238-2.82,0.469-2.82,0.469
	c0.239-1.332-0.682-4.297,0.344-5.019c-1.437-2.665-8.464,2.528-10.316-1.519c-0.445,0.4-1.049,0.691-1.912,0.66
	c-2.558-2.34-2.96-6.715-8.389-5.86l1.443-5.601c-3.185-0.862-1.628,7.192-7.052,5.668c-4.091-0.908,1.741-4.373,1.674-6.291
	c-2.96,0.922-9.08,2.767-8.649-2.715C177.905,338.275,178.007,339.436,179.051,339.846z"/>
<path fill="#FFFFFF" stroke="#000000" stroke-miterlimit="10" d="M257.648,95.546c0-0.089-2.959,1.042-2.959,1.042
	c1.426-0.237,1.947,0.521,2.662,1.109C257.291,96.841,256.727,95.563,257.648,95.546z"/>
<path fill="#FFFFFF" stroke="#000000" stroke-miterlimit="10" d="M279.672,120.336c0.439-0.386,0.787,0.082,1.236-0.305l0.191-1.696
	C279.471,118.171,278.162,119.347,279.672,120.336z"/>
<path fill="#FFFFFF" stroke="#000000" stroke-miterlimit="10" d="M260.162,107.892c0.164,3.103,1.867,2.143,3.811,1.674
	c-0.121,0.007-0.225,0.022-0.344-0.021C264.402,105.267,262.238,106.576,260.162,107.892z"/>
<path fill="#FFFFFF" stroke="#000000" stroke-miterlimit="10" d="M264.416,109.485c0.598-0.112,1.205-0.149,1.773,0.021
	C266.516,107.789,265.49,109.105,264.416,109.485z"/>
<polygon fill="#FFFFFF" stroke="#000000" stroke-miterlimit="10" points="261.412,118.149 260.867,114.304 259.775,117.323 "/>
<path fill="#FFFFFF" stroke="#000000" stroke-miterlimit="10" d="M250.738,115.197c0.945,0.021,1.838-0.104,2.344-0.758
	C252.568,114.505,251.476,114.689,250.738,115.197z"/>
<path fill="#FFFFFF" stroke="#000000" stroke-miterlimit="10" d="M257.492,119.079l-0.848-0.788l-2.023-0.172
	C254.621,118.112,257.5,119.012,257.492,119.079z"/>
</svg>
