<?xml version="1.0" encoding="utf-8"?>
<!-- Generator: Adobe Illustrator 16.0.0, SVG Export Plug-In . SVG Version: 6.00 Build 0)  -->
<!DOCTYPE svg PUBLIC "-//W3C//DTD SVG 1.1//EN" "http://www.w3.org/Graphics/SVG/1.1/DTD/svg11.dtd">
<svg version="1.1" id="레이어_1" xmlns="http://www.w3.org/2000/svg" xmlns:xlink="http://www.w3.org/1999/xlink" x="0px"
	 y="0px" width="33px" height="33px" viewBox="0 0 33 33" enable-background="new 0 0 33 33" xml:space="preserve">
<g>
	<path fill="#E8F4D9" d="M5.062,32C2.822,32,1,30.042,1,27.636V5.02C1,2.728,2.746,1,5.062,1h22.706C30.141,1,32,2.766,32,5.02
		v22.616C32,29.961,30.022,32,27.768,32H5.062z"/>
	<path fill="#ED1C24" d="M27.884,2C29.696,2,31,3.326,31,5.02v22.616C31,29.428,29.489,31,27.768,31H5.062
		C3.402,31,2,29.459,2,27.636V5.02C2,3.27,3.288,2,5.062,2H28 M27.768,0H5.062C2.219,0,0,2.153,0,5.02v22.616
		C0,30.502,2.219,33,5.062,33h22.706C30.61,33,33,30.502,33,27.636V5.02C33,2.153,30.61,0,27.768,0L27.768,0z"/>
</g>
<path fill="#754C24" d="M12.823,18.014c-0.959,0.184-1.958,0.287-2.931,0.365v3.744H8.181v-3.641
	c-1.012,0.039-1.972,0.039-2.828,0.039l-0.207-1.391c2.179,0,5.071-0.014,7.574-0.351L12.823,18.014z M5.534,15.297
	c1.79-0.338,2.607-1.261,2.659-2.275H5.858v-1.325h2.335v-1.171h1.712v1.171h2.335v1.325H9.905c0.052,0.949,0.869,1.781,2.607,2.094
	l-0.662,1.326c-1.336-0.261-2.23-0.858-2.763-1.639c-0.531,0.871-1.479,1.534-2.866,1.82L5.534,15.297z M15.106,10.513v11.973
	h-1.712V10.513H15.106z"/>
<path fill="#754C24" d="M27.854,19.691v1.379H17.037v-1.379h4.501v-2.678h1.712v2.678H27.854z M26.791,17.391
	c-2.102-0.377-3.632-1.496-4.41-2.977c-0.778,1.469-2.296,2.6-4.384,2.977l-0.7-1.417c2.697-0.441,4.176-2.274,4.176-3.938v-0.858
	h1.829v0.858c0,1.703,1.466,3.497,4.189,3.938L26.791,17.391z"/>
</svg>
