<?xml version="1.0" encoding="utf-8"?>
<!-- Generator: Adobe Illustrator 16.0.0, SVG Export Plug-In . SVG Version: 6.00 Build 0)  -->
<!DOCTYPE svg PUBLIC "-//W3C//DTD SVG 1.1//EN" "http://www.w3.org/Graphics/SVG/1.1/DTD/svg11.dtd">
<svg version="1.1" id="레이어_1" xmlns="http://www.w3.org/2000/svg" xmlns:xlink="http://www.w3.org/1999/xlink" x="0px"
	 y="0px" width="85px" height="50px" viewBox="0 0 85 50" enable-background="new 0 0 85 50" xml:space="preserve">
<path fill="#F4EBE2" d="M85,37.303C85,44.199,80.855,50,75.333,50H10.332C4.809,50,0,44.199,0,37.303V12.282
	C0,5.383,4.809,0,10.332,0h65.001C80.855,0,85,5.383,85,12.282V37.303z"/>
<path fill="#F79C7C" d="M75.166,4C78.344,4,81,7.638,81,12.282v25.02C81,42.018,78.404,46,75.333,46H10.332
	C7.343,46,4,42.279,4,37.302v-25.02C4,7.328,7.274,4,10.332,4H75 M75.333,0H10.332C4.809,0,0,5.383,0,12.282v25.02
	C0,44.199,4.809,50,10.332,50h65.001C80.855,50,85,44.199,85,37.302v-25.02C85,5.383,80.855,0,75.333,0L75.333,0z"/>
<g>
	<path fill="#754C24" d="M26.311,19.187h3.273c2.21,0,3.907,0.969,3.907,3.943c0,2.873-1.711,4.165-3.854,4.165h-1.334v4.471H26.31
		L26.311,19.187L26.311,19.187z M29.503,25.306c1.375,0,2.035-0.731,2.035-2.176c0-1.462-0.728-1.955-2.103-1.955h-1.132v4.13
		L29.503,25.306L29.503,25.306z"/>
	<path fill="#754C24" d="M34.948,19.357c0-0.816,0.498-1.36,1.186-1.36c0.674,0,1.172,0.544,1.172,1.36
		c0,0.782-0.498,1.36-1.172,1.36C35.446,20.717,34.948,20.139,34.948,19.357z M35.137,22.247h1.967v9.519h-1.967V22.247z"/>
	<path fill="#754C24" d="M38.721,30.423l3.368-6.205h-2.991v-1.972h5.47v1.343l-3.382,6.205h3.49v1.972h-5.955V30.423z"/>
	<path fill="#754C24" d="M45.605,30.423l3.369-6.205h-2.992v-1.972h5.472v1.343l-3.382,6.205h3.488v1.972h-5.955V30.423z"/>
	<path fill="#754C24" d="M52.371,29.182c0-2.039,1.307-3.109,4.338-3.519c-0.025-0.935-0.35-1.648-1.279-1.648
		c-0.701,0-1.375,0.391-2.074,0.901l-0.715-1.649c0.889-0.697,1.967-1.258,3.152-1.258c1.913,0,2.896,1.445,2.896,4.198v5.559
		h-1.616l-0.148-1.021h-0.04c-0.66,0.715-1.414,1.258-2.277,1.258C53.26,32.003,52.371,30.797,52.371,29.182z M56.709,29.114v-1.923
		c-1.832,0.308-2.452,0.937-2.452,1.785c0,0.748,0.418,1.071,0.997,1.071C55.82,30.049,56.236,29.709,56.709,29.114z"/>
</g>
</svg>
