<?xml version="1.0" encoding="utf-8"?>
<!-- Generator: Adobe Illustrator 16.0.0, SVG Export Plug-In . SVG Version: 6.00 Build 0)  -->
<!DOCTYPE svg PUBLIC "-//W3C//DTD SVG 1.1//EN" "http://www.w3.org/Graphics/SVG/1.1/DTD/svg11.dtd">
<svg version="1.1" id="레이어_1" xmlns="http://www.w3.org/2000/svg" xmlns:xlink="http://www.w3.org/1999/xlink" x="0px"
	 y="0px" width="85px" height="50px" viewBox="0 0 85 50" enable-background="new 0 0 85 50" xml:space="preserve">
<path fill="#F4EBE2" d="M85,37.303C85,44.199,80.855,50,75.333,50H10.332C4.809,50,0,44.199,0,37.303V12.282
	C0,5.383,4.809,0,10.332,0h65.001C80.855,0,85,5.383,85,12.282V37.303z"/>
<path fill="#F79C7C" d="M75.166,4C78.344,4,81,7.638,81,12.282v25.02C81,42.018,78.404,46,75.333,46H10.332
	C7.343,46,4,42.279,4,37.302v-25.02C4,7.328,7.274,4,10.332,4H75 M75.333,0H10.332C4.809,0,0,5.383,0,12.282v25.02
	C0,44.199,4.809,50,10.332,50h65.001C80.855,50,85,44.199,85,37.302v-25.02C85,5.383,80.855,0,75.333,0L75.333,0z"/>
<g>
	<path fill="#754C24" d="M11.187,20.857l1.146-1.734c0.714,0.833,1.657,1.394,2.533,1.394c1.037,0,1.59-0.561,1.59-1.445
		c0-0.935-0.606-1.224-1.495-1.7l-1.334-0.714c-1.011-0.527-2.021-1.547-2.021-3.383c0-2.057,1.429-3.638,3.449-3.638
		c1.159,0,2.317,0.578,3.126,1.615l-1.011,1.581c-0.633-0.663-1.293-1.037-2.115-1.037c-0.876,0-1.441,0.493-1.441,1.326
		c0,0.901,0.714,1.224,1.563,1.649l1.308,0.697c1.212,0.629,2.007,1.598,2.007,3.417c0,2.057-1.36,3.808-3.664,3.808
		C13.491,22.692,12.157,22.03,11.187,20.857z"/>
	<path fill="#754C24" d="M19.717,19.871c0-2.04,1.307-3.11,4.338-3.519c-0.026-0.935-0.35-1.648-1.279-1.648
		c-0.701,0-1.375,0.391-2.075,0.901l-0.714-1.649c0.889-0.697,1.967-1.258,3.152-1.258c1.913,0,2.896,1.445,2.896,4.198v5.559
		h-1.616l-0.148-1.02h-0.04c-0.66,0.714-1.415,1.258-2.277,1.258C20.605,22.692,19.717,21.486,19.717,19.871z M24.055,19.803v-1.921
		c-1.832,0.306-2.452,0.935-2.452,1.785c0,0.748,0.418,1.071,0.997,1.071C23.166,20.738,23.583,20.398,24.055,19.803z"/>
	<path fill="#754C24" d="M28.058,19.786V8.89h1.967v11.015c0,0.561,0.216,0.748,0.404,0.748c0.081,0,0.135,0,0.27-0.034l0.242,1.853
		c-0.229,0.119-0.565,0.221-1.023,0.221C28.543,22.692,28.058,21.554,28.058,19.786z"/>
	<path fill="#754C24" d="M31.926,19.871c0-2.04,1.307-3.11,4.338-3.519c-0.026-0.935-0.35-1.648-1.279-1.648
		c-0.701,0-1.375,0.391-2.075,0.901l-0.714-1.649c0.889-0.697,1.967-1.258,3.152-1.258c1.913,0,2.896,1.445,2.896,4.198v5.559
		h-1.616l-0.148-1.02h-0.04c-0.66,0.714-1.415,1.258-2.277,1.258C32.814,22.692,31.926,21.486,31.926,19.871z M36.264,19.803v-1.921
		c-1.832,0.306-2.452,0.935-2.452,1.785c0,0.748,0.418,1.071,0.997,1.071C35.375,20.738,35.792,20.398,36.264,19.803z"/>
	<path fill="#754C24" d="M39.835,17.712c0-3.11,1.536-5.014,3.166-5.014c0.851,0,1.375,0.408,1.914,1.037l-0.082-1.496V8.89h1.979
		v13.564H45.21l-0.16-0.986h-0.041c-0.553,0.68-1.307,1.224-2.088,1.224C41.048,22.692,39.835,20.823,39.835,17.712z M44.833,19.65
		v-4.182c-0.457-0.527-0.931-0.714-1.399-0.714c-0.85,0-1.563,1.02-1.563,2.924c0,1.972,0.565,2.958,1.563,2.958
		C43.958,20.636,44.402,20.364,44.833,19.65z"/>
	<path fill="#754C24" d="M60.217,9.103h1.59l-4.022,13.795h-1.589L60.217,9.103z"/>
	<path fill="#754C24" d="M39.54,37.857l1.146-1.734c0.714,0.832,1.657,1.393,2.535,1.393c1.036,0,1.59-0.561,1.59-1.442
		c0-0.937-0.607-1.226-1.496-1.701l-1.334-0.713c-1.011-0.527-2.021-1.548-2.021-3.384c0-2.057,1.429-3.637,3.449-3.637
		c1.16,0,2.318,0.576,3.127,1.613l-1.012,1.582c-0.633-0.664-1.293-1.037-2.115-1.037c-0.876,0-1.441,0.492-1.441,1.326
		c0,0.9,0.714,1.223,1.563,1.648l1.31,0.696c1.211,0.63,2.007,1.599,2.007,3.416c0,2.058-1.359,3.808-3.664,3.808
		C41.845,39.691,40.511,39.029,39.54,37.857z"/>
	<path fill="#754C24" d="M47.977,34.711c0-3.178,1.737-5.014,3.625-5.014c1.887,0,3.625,1.836,3.625,5.014
		c0,3.146-1.738,4.98-3.625,4.98C49.714,39.691,47.977,37.857,47.977,34.711z M53.204,34.711c0-1.801-0.58-2.975-1.604-2.975
		c-1.023,0-1.604,1.174-1.604,2.975c0,1.785,0.58,2.941,1.604,2.941C52.624,37.652,53.204,36.496,53.204,34.711z"/>
	<path fill="#754C24" d="M56.802,35.885v-5.949h1.98v5.627c0,1.479,0.323,1.988,1.051,1.988c0.621,0,1.024-0.34,1.537-1.189v-6.426
		h1.979v9.521h-1.617l-0.147-1.36h-0.053c-0.646,0.969-1.375,1.598-2.412,1.598C57.503,39.691,56.802,38.264,56.802,35.885z"/>
	<path fill="#754C24" d="M65.468,29.936h1.617l0.136,0.986h0.053c0.633-0.68,1.414-1.225,2.223-1.225
		c1.859,0,2.965,1.92,2.965,4.844c0,3.264-1.549,5.15-3.207,5.15c-0.66,0-1.293-0.373-1.873-1.035l0.055,1.563v2.891h-1.967
		L65.468,29.936L65.468,29.936z M70.425,34.576c0-1.818-0.457-2.822-1.493-2.822c-0.515,0-0.972,0.322-1.496,0.986v4.182
		c0.483,0.527,0.971,0.713,1.375,0.713C69.727,37.635,70.425,36.65,70.425,34.576z"/>
</g>
</svg>
