<?xml version="1.0" encoding="utf-8"?>
<!-- Generator: Adobe Illustrator 16.0.0, SVG Export Plug-In . SVG Version: 6.00 Build 0)  -->
<!DOCTYPE svg PUBLIC "-//W3C//DTD SVG 1.1//EN" "http://www.w3.org/Graphics/SVG/1.1/DTD/svg11.dtd">
<svg version="1.1" id="레이어_1" xmlns="http://www.w3.org/2000/svg" xmlns:xlink="http://www.w3.org/1999/xlink" x="0px"
	 y="0px" width="228px" height="232px" viewBox="0 0 228 232" enable-background="new 0 0 228 232" xml:space="preserve">
<path opacity="0.8" fill="#E8F4D9" enable-background="new    " d="M10.363,230C5.752,230,2,225.994,2,221.068V10.229
	C2,5.538,5.595,2,10.363,2h206.923C222.173,2,226,5.615,226,10.229v210.839c0,4.759-4.072,8.932-8.714,8.932H10.363z"/>
<path fill="#8CC63F" d="M217.143,4C220.908,4,224,6.736,224,10.229v210.839c0,3.692-3.139,6.932-6.714,6.932H10.363
	C6.914,228,4,224.826,4,221.068V10.229C4,6.62,6.676,4,10.363,4H217 M217.286,0H10.363C4.543,0,0,4.387,0,10.229v210.839
	C0,226.911,4.543,232,10.363,232h206.923c5.821,0,10.714-5.089,10.714-10.932V10.229C228,4.387,223.107,0,217.286,0L217.286,0z"/>
<g>
	<path fill="#754C24" d="M75.824,18.71c-1.915-0.7-3.231-2.04-3.989-3.741c-0.777,1.9-2.193,3.401-4.327,4.182l-1.376-2.061
		c3.031-1.021,4.308-3.581,4.308-6.201v-1.98h2.672v2c0,2.4,1.236,4.761,4.108,5.762L75.824,18.71z M82.006,23.792v2.101H69.481
		v-5.861h2.633v3.761L82.006,23.792L82.006,23.792z M78.975,13.849h-3.37v-2.141h3.37v-3.92h2.633v13.603h-2.633V13.849z"/>
	<path fill="#754C24" d="M93.102,17.911c-2.094,0.34-3.869,0.399-6.602,0.399h-1.276V9.029h7.22v2.08h-4.687v1.521h4.507v2h-4.507
		v1.561c1.975-0.021,3.43-0.12,5.105-0.38L93.102,17.911z M87.617,19.831h12.644v6.401h-2.632v-4.301H87.617V19.831z M100.261,7.789
		v11.242h-2.492V14.41h-1.477v4.501h-2.453V8.108h2.453v4.201h1.477v-4.52H100.261z"/>
	<path fill="#754C24" d="M113.77,11.789h-10.81v-2.06h4.068V7.768h2.652v1.961h4.108L113.77,11.789z M108.364,19.55
		c-2.632,0-4.507-1.44-4.507-3.561c0-2.08,1.875-3.541,4.507-3.541c2.633,0,4.508,1.461,4.508,3.541
		C112.872,18.11,110.997,19.55,108.364,19.55z M108.205,23.792h9.872v2.101h-12.505v-5.341h2.633V23.792z M108.364,17.55
		c1.157,0,1.995-0.54,1.995-1.561c0-1-0.838-1.54-1.995-1.54c-1.176,0-1.994,0.54-1.994,1.54
		C106.37,17.01,107.188,17.55,108.364,17.55z M119.852,13.41v2.18h-2.433v5.981h-2.633V7.789h2.633v5.621H119.852z"/>
	<path fill="#754C24" d="M136.434,8.068h2.453v17.304h-2.453V16.61h-1.774v5.001h-7.239V9.668h7.239v4.801h1.774V8.068z
		 M132.227,11.749h-2.354v7.802h2.354V11.749z M142.654,7.768v18.424h-2.491V7.768H142.654z"/>
	<path fill="#754C24" d="M161.868,19.851h-3.79v6.381h-2.633v-6.381h-3.788v6.381h-2.613v-6.381h-3.769V17.71h16.593V19.851z
		 M160.014,15.69H147.27V8.628h2.633v4.961h10.111V15.69z"/>
</g>
<line fill="none" stroke="#AC947C" stroke-miterlimit="10" x1="10" y1="29.5" x2="217" y2="29.5"/>
</svg>
