<?xml version="1.0" encoding="utf-8"?>
<!-- Generator: Adobe Illustrator 16.0.0, SVG Export Plug-In . SVG Version: 6.00 Build 0)  -->
<!DOCTYPE svg PUBLIC "-//W3C//DTD SVG 1.1//EN" "http://www.w3.org/Graphics/SVG/1.1/DTD/svg11.dtd">
<svg version="1.1" id="레이어_2" xmlns="http://www.w3.org/2000/svg" xmlns:xlink="http://www.w3.org/1999/xlink" x="0px"
	 y="0px" width="800px" height="800px" viewBox="0 0 800 800" enable-background="new 0 0 800 800" xml:space="preserve">
<path fill="#00FFFF" stroke="#00FFFF" stroke-miterlimit="10" d="M119.113,163.777l-5.354-4.509
	c8.025-9.531,16.625-18.769,25.561-27.456l4.879,5.02C135.429,145.358,126.989,154.423,119.113,163.777z"/>
<path fill="#00FFFF" stroke="#00FFFF" stroke-miterlimit="10" d="M87.325,207.736l-5.959-3.672
	c8.28-13.437,17.512-26.486,27.441-38.787l5.447,4.396C104.51,181.745,95.45,194.551,87.325,207.736z"/>
<path fill="#00FFFF" stroke="#00FFFF" stroke-miterlimit="10" d="M407.67,773.917l-0.143-6.998
	c31.891-0.653,63.461-5.398,93.834-14.103l1.928,6.729C472.336,768.416,440.165,773.251,407.67,773.917z"/>
<path fill="#00FFFF" stroke="#00FFFF" stroke-miterlimit="10" d="M754.06,303.527c-7.367-27.056-17.831-53.262-31.097-77.89
	l6.162-3.319c13.519,25.096,24.181,51.8,31.688,79.37L754.06,303.527z"/>
<path fill="#00FFFF" stroke="#00FFFF" stroke-miterlimit="10" d="M712.081,206.8c-30.517-49.384-71.313-89.841-121.255-120.248
	l3.641-5.979c50.894,30.985,92.467,72.216,123.569,122.547L712.081,206.8z"/>
</svg>
