<?xml version="1.0" encoding="utf-8"?>
<!-- Generator: Adobe Illustrator 16.0.0, SVG Export Plug-In . SVG Version: 6.00 Build 0)  -->
<!DOCTYPE svg PUBLIC "-//W3C//DTD SVG 1.1//EN" "http://www.w3.org/Graphics/SVG/1.1/DTD/svg11.dtd">
<svg version="1.1" id="레이어_1" xmlns="http://www.w3.org/2000/svg" xmlns:xlink="http://www.w3.org/1999/xlink" x="0px"
	 y="0px" width="512px" height="512px" viewBox="0 0 512 512" enable-background="new 0 0 512 512" xml:space="preserve">
<path fill="#FFFFFF" stroke="#000000" stroke-miterlimit="10" d="M353.737,169.856c0.574,0.809,1.547-0.484,1.859-0.566
	C354.183,168.309,353.454,170.161,353.737,169.856z"/>
<polygon fill="#FFFFFF" stroke="#000000" stroke-miterlimit="10" points="339.874,161.064 340.528,160.759 337.702,160.447 "/>
<path fill="#FFFFFF" stroke="#000000" stroke-miterlimit="10" d="M328.317,151.924c-0.479,3.057,4.76,2.522,6.09,5.131l-0.059,0.766
	l2.283-0.929C334.036,154.928,329.745,153.79,328.317,151.924z"/>
<path fill="#FFFFFF" stroke="#000000" stroke-miterlimit="10" d="M324.835,142.493c-0.134,1.205-1.957-0.193,1.442,1.325
	c-0.09-0.2-0.104-0.292-0.147-0.424C325.862,143.207,325.489,142.954,324.835,142.493z"/>
<path fill="#FFFFFF" stroke="#000000" stroke-miterlimit="10" d="M326.13,143.394C327.521,144.248,325.714,142.046,326.13,143.394
	L326.13,143.394z"/>
<path fill="#FFFFFF" stroke="#000000" stroke-miterlimit="10" d="M319.288,140.247l2.342,0.194c-0.082-0.759-1.72-1.8-0.871-1.86
	C318.558,137.986,318.679,138.759,319.288,140.247z"/>
<path fill="#FFFFFF" stroke="#000000" stroke-miterlimit="10" d="M316.589,141.049l1.143,0.164
	C317.688,140.894,317.472,140.671,316.589,141.049z"/>
<path fill="#FFFFFF" stroke="#000000" stroke-miterlimit="10" d="M320.187,141.578l-2.455-0.364
	c0.068,0.528-0.328,1.316,1.086,0.238C318.269,142.069,319.034,141.6,320.187,141.578z"/>
<path fill="#FFFFFF" stroke="#000000" stroke-miterlimit="10" d="M321.146,142.56c0.752,1.079,1.883,2.119-0.43,1.934
	C324.403,146.07,324.909,144.174,321.146,142.56z"/>
<path fill="#FFFFFF" stroke="#000000" stroke-miterlimit="10" d="M326.099,153.82l0.781,1.495l1.6-0.008
	C327.685,155.307,326.517,153.069,326.099,153.82z"/>
<path fill="#FFFFFF" stroke="#000000" stroke-miterlimit="10" d="M307.835,133.241c-0.345,0.483,0.071,1.695-0.066,2.433
	l1.717-0.016C308.888,134.989,307.61,134.074,307.835,133.241z"/>
<path fill="#FFFFFF" stroke="#000000" stroke-miterlimit="10" d="M307.769,135.672l-2.539,0.039
	C307.103,136.603,307.642,136.313,307.769,135.672z"/>
<polygon fill="#FFFFFF" stroke="#000000" stroke-miterlimit="10" points="314.87,143.549 319.169,143.497 314.224,143.236 "/>
<polygon fill="#FFFFFF" stroke="#000000" stroke-miterlimit="10" points="299.354,129.894 301.087,129.001 298.126,130.251 "/>
<path fill="#FFFFFF" stroke="#000000" stroke-miterlimit="10" d="M293.472,128.451c1.271-0.788-0.826-2.186,0.379-2.55
	c-1.664-0.268-3.271,0.268-4.691,0.765C290.563,126.562,291.94,127.075,293.472,128.451z"/>
<path fill="#FFFFFF" stroke="#000000" stroke-miterlimit="10" d="M286.829,127.335c0.715-0.135,1.482-0.373,2.33-0.668
	C288.407,126.726,287.655,126.86,286.829,127.335z"/>
<path fill="#FFFFFF" stroke="#000000" stroke-miterlimit="10" d="M301.651,133.955c-0.053-0.394-0.057-1.383-1.158-2.246l0.32,1.88
	C301.065,133.702,301.354,133.829,301.651,133.955z"/>
<path fill="#FFFFFF" stroke="#000000" stroke-miterlimit="10" d="M300.821,133.649l-0.008-0.06
	c-0.906-0.431-1.563-0.647-1.846-0.743C299.214,132.929,299.786,133.114,300.821,133.649z"/>
<path fill="#FFFFFF" stroke="#000000" stroke-miterlimit="10" d="M301.868,134.051l-0.217-0.096
	C301.675,134.14,301.712,134.208,301.868,134.051z"/>
<path fill="#FFFFFF" stroke="#000000" stroke-miterlimit="10" d="M310.185,139.533c-1.637,0.312-4.568,0.171-2.656,2.447
	C308.86,141.318,307.753,140.01,310.185,139.533z"/>
<path fill="#FFFFFF" stroke="#000000" stroke-miterlimit="10" d="M302.204,136.379l2.119,1.265c0.119-0.417-0.059-1.168,0.729-1.34
	L302.204,136.379z"/>
<polygon fill="#FFFFFF" stroke="#000000" stroke-miterlimit="10" points="300.917,136.424 302.204,136.379 301.415,135.91 "/>
<path fill="#FFFFFF" stroke="#000000" stroke-miterlimit="10" d="M290.608,129.946c-1.213,0.396-2.35,0.134-3.645-0.112
	c1.295,0.699,2.648,1.265,3.979,1.629C291.263,131.023,292.097,130.303,290.608,129.946z"/>
<path fill="#FFFFFF" stroke="#000000" stroke-miterlimit="10" d="M295.56,131.828l-0.25,0.021
	C295.413,132.021,295.509,132.096,295.56,131.828z"/>
<polygon fill="#FFFFFF" stroke="#000000" stroke-miterlimit="10" points="274.179,127.619 274.349,127.945 274.433,127.677 "/>
<path fill="#FFFFFF" stroke="#000000" stroke-miterlimit="10" d="M291.093,131.821c0.93,0.594,1.641,0.378,2.355,0.066
	c-0.802-0.06-1.636-0.187-2.507-0.423C290.802,131.664,290.741,131.806,291.093,131.821z"/>
<path fill="#FFFFFF" stroke="#000000" stroke-miterlimit="10" d="M283.052,127.455c0.49,0.431,1.057,0.817,1.652,1.189
	C284.278,128.05,283.327,127.067,283.052,127.455z"/>
<path fill="#FFFFFF" stroke="#000000" stroke-miterlimit="10" d="M295.093,131.322l0.17-0.03
	C295.026,130.869,295.026,131.041,295.093,131.322z"/>
<path fill="#FFFFFF" stroke="#000000" stroke-miterlimit="10" d="M295.093,131.322c-0.594,0.075-1.123,0.342-1.645,0.565
	c0.661,0.052,1.289,0.043,1.862-0.039C295.22,131.701,295.138,131.5,295.093,131.322z"/>
<path fill="#FFFFFF" stroke="#000000" stroke-miterlimit="10" d="M269.321,137.659c0.291-1.495,3.08-2.802,5.074-0.723
	c2.322-0.75,1.674-5.896-0.047-8.991c-0.156,0.693-0.229,1.138-2.705,1.846c0.779,0.743,4.961,2.722,2.828,3.695
	c-3.125,0.238-2.436-0.877-3.869-1.792c1.078,1.94-4.148,2.499-3.66,5.296l2.693-0.826
	C269.644,136.603,268.638,137.227,269.321,137.659z"/>
<path fill="#FFFFFF" stroke="#000000" stroke-miterlimit="10" d="M278.901,128.86l1.02-0.014c-1.086-0.454-1.795-1.183-3.131-2.604
	c-1.778,0.454-2.182,0.959-2.358,1.436l4.842,1.02L278.901,128.86z"/>
<path fill="#FFFFFF" stroke="#000000" stroke-miterlimit="10" d="M284.36,129.596c-1.117,1.473-3.555,1.763-2.477,3.749
	c2.828,0.365,2.248-1.011,4.1-1.414c-4.701-0.387,1.529-0.669-1.621-2.149c0.967-0.097,1.83-0.097,2.604,0.053
	c-0.773-0.426-1.556-0.744-2.263-1.191l0.088,0.119h0.023l-0.008,0.023c0.162,0.23,0.201,0.363,0,0.215
	c-0.021,0.015-0.082,0.015-0.111,0.015c-0.074,0.215-0.201,0.393-0.336,0.565c-1.295-0.565-0.133-0.446,0.336-0.565l0.111-0.23
	l-0.016-0.023l-4.871,0.084C280.872,129.24,282.116,129.403,284.36,129.596z"/>
<path fill="#FFFFFF" stroke="#000000" stroke-miterlimit="10" d="M303.899,144.308c-0.067-0.187-0.021-0.291,0.021-0.402
	C303.571,143.981,303.415,144.069,303.899,144.308z"/>
<path fill="#FFFFFF" stroke="#000000" stroke-miterlimit="10" d="M302.575,142.701c0.388-0.088,0.886-0.596,1.808-0.037
	c0.668,0.802-0.306,0.72-0.461,1.241c0.742-0.164,2.526-0.238,0.975-1.74l-0.379,0.089c-1.457-1.197-2.93-4.002-2.559-4.098
	C301.935,139.741,302.001,140.901,302.575,142.701z"/>
<path fill="#FFFFFF" stroke="#000000" stroke-miterlimit="10" d="M293.657,136.186l-3.896-0.276l1.479,1.897l0.142-0.846
	C293.36,137.867,293.212,136.736,293.657,136.186z"/>
<path fill="#FFFFFF" stroke="#000000" stroke-miterlimit="10" d="M273.829,126.741l0.729-1.637c0,0-0.64,0.513-1.285,1.026
	c-0.641,0.566-1.278,1.13-1.278,1.13C271.993,127.216,273.829,126.696,273.829,126.741z"/>
<polygon fill="#FFFFFF" stroke="#000000" stroke-miterlimit="10" points="268.644,126.555 268.956,125.06 267.515,125.893 "/>
<path fill="#FFFFFF" stroke="#000000" stroke-miterlimit="10" d="M247.785,125.848C248.885,125.684,247.948,125.654,247.785,125.848
	L247.785,125.848z"/>
<path fill="#FFFFFF" stroke="#000000" stroke-miterlimit="10" d="M253.435,132.096c-0.207,0.201-0.371,0.446-0.371,0.826
	C253.123,132.527,253.258,132.258,253.435,132.096z"/>
<path fill="#FFFFFF" stroke="#000000" stroke-miterlimit="10" d="M249.5,126.51c-0.423-0.179-0.914-0.32-1.442-0.417
	C248.296,126.212,248.735,126.347,249.5,126.51z"/>
<path fill="#FFFFFF" stroke="#000000" stroke-miterlimit="10" d="M249.22,125.743c0.394,0.046,0.692,0.075,0.974,0.105
	C250.313,125.573,250.178,125.402,249.22,125.743z"/>
<path fill="#FFFFFF" stroke="#000000" stroke-miterlimit="10" d="M246.26,126.02c0.633-0.06,1.227-0.016,1.8,0.074
	c-0.231-0.096-0.327-0.185-0.275-0.246C247.465,125.885,247.01,125.936,246.26,126.02z"/>
<path fill="#FFFFFF" stroke="#000000" stroke-miterlimit="10" d="M187.289,330.92l-0.714-2.654c3.732,0.09,4.58,2.008,4.417-0.969
	c-1.837,1.823-3.585,0.417-5.333-0.986c-1.717-1.437-3.213-3.096-5.25-1.43l-0.239-1.882c0.261,0.356,0.529,0.208,0.781,0.565
	c-0.141-3.866-4.298,0.863-6.389-2.603c-0.52-1.37-0.497-2.589,0.536-2.231l-2.833-1.652c-0.447-0.781,0.403-1.139,0.847-0.371
	l-3.115-3.48l0.142-0.053c-1.102-0.035-2.961-0.623-3.771-0.988c0-1.442,0.765,0.215,1.146-0.402l-2.41-1.569
	c0.587-1.612,2.812-0.461,3.563,1.151c3.109-4.825-2.21-1.145-2.314-7.107l1.807,1.711c1.808-2.832-0.298-3.732,0.268-6.992
	c-0.729,1.014-1.429,6.852-3.973,5.133c-0.118-0.848-0.355-1.867-1.933-2.752c1.621-0.855,0.595-1.957-0.29-3.557l2.253-0.937
	c-1.473-1.443-2.544-0.789-4.046-1.392c-0.788-2.074,0.886-3.265,2.172-4.328c-0.817-3.393-1.979,3.405-3.823-0.318
	c-0.082-3.109-1.875-4.598-4.285-7.596c0.297-2.252,1.517-0.072,2.01-0.989l-2.321-1.234c-0.074-0.452,0.542-0.468,0.847-0.475
	c-1.115-1.31-2.379,0.52-3.636-1.726c-2.768-0.091,2.433-5.744-0.842-8.168c0.574-0.854,1.534,0.111,2.426-0.283
	c-2.596-3.771-1.963-3.24-5.169-6.365c-0.098-0.008,1.375-3.109,1.375-3.109c-1.71,2.328-4.001-0.238-5.905-2.708
	c-0.846,0.854-1.577,1.606-1.925,2.099l-1.511-4.083c0.373-0.513,1.236-0.119,2.277,0.515c-0.217-0.261-0.433-0.507-0.618-0.729
	c0.826-1.504,2.268-0.76,3.681,0.207c-0.46,0.483-0.951,0.997-1.428,1.51c1.534,0.931,3.213,1.727,4.627,1.437
	c-0.299-0.237-0.565-0.715-0.729-1.243c0.417,0.231,0.79,0.373,1.02,0.238c0.251-0.143-0.305-0.516-0.961-1.123l2.664-0.989
	l-1.085-0.17c0,0,1.398-5.042,1.553-5.012c-2.432-3.548-6.656-7.051-6.967-13.194c1.755,1.709,3.182,0.692,5.51,1.064
	c-2.84,1.278,0.647,4.551-0.015,7.428c0.342-1.531,1.449-1.117,1.815-0.706c0,0-2.075-5.415-1.941-5.437
	c1.905,0.328,1.614-0.943,2.617-2.187c-3.94,0.543-1.917-4.246-2.75-6.611c1.279,0.112,2.49,0.855,1.792,3.382
	c3.34-2.297-4.023-4.564-0.827-6.894c-0.132,0.64-0.415,0.938,0.166,1.318c-0.738-1.711,1.069-5.118,1.934-3.987l-0.133,0.625
	c0.815-1.986,1.404-5.177,1.963-7.936c0.535-2.759,0.483-5.296-0.916-6.196c0.41,0.119,3.451,1.926,3.98,2.395
	c0,0-1.912-2.715-3.75-5.624c-1.815-2.869-3.316-5.844-3.316-5.844c2.246,1.755,9.378,2.201,9.288,6.001
	c0.796-0.745,1.749-1.644,1.778-3.972c-0.647,0.432-4.381-0.17-4.194-1.153c3.934-1.026,2.304-0.951,6.024-2.602
	c-0.93,0.676-4.433-2.478-3.369-3.854c0.433,0.535,3.831,1.971,3.919,2.701l-1.568-5.653c0.12,1.287,3.026,2,4.529,1.874
	c-0.938-0.083,1.867-2.931,2.061-4.083l-1.72,0.922c2.887-3.526-2.32-7.133,0.669-10.933c0.343,1.013,3.511,4.402,5.312,2.877
	c-1.22-2.208-5.244-10.419-3.347-14.903l1.502,0.223l1.265-3.517c0.855,3.986,2.127,12.83,2.379,16.682
	c1.845-0.685,1.443,0.58,3.036-1.376c1.486,0.119,0.431,2.173,0,2.752l4.448-3.757c-2.053-1.523,1.107-5.085-0.507-6.403
	l-2.409,6.568c-2.067-1.406-2.952-7.816,0.632-10.568c1.525-0.008,2.558,3.829,3.234,4.365c-0.223-0.989,1.815-3.919,2.53-3.726
	l-0.402,2.217c2.349-0.833,0.595-5.116,4.282-5.184c0.879-0.492,4.375,0.84,3.556-0.447c-3.035-1.382-9.052-8.159-9.459-10.589
	c0.445-0.097,6.231-1.183,7.993-0.692c2.656,0.871,1.145,5.958,3.437,6.702c-0.364-0.604-0.141-1.854,0.008-2.306
	c1.174-0.134,0.893,2.03,2.513,0.423c-1.144-2.358,4.046-2.202-0.312-2.38c1.502-1.786,2.321-0.779,4.486-2.229
	c-1.607-0.99-0.885-6.143,0.816-8.041c0.202,0.648,1.065,1.132,1.48,1.385c4.418-1.824,7.14-1.973,11.142-3.683
	c0.625,0.44,2.871,0.432,2.446,1.771c0.41-0.641,0.619-1.652,1.854-2.173c3.184,1.228-2.648,1.338,0.147,3.199
	c-0.395-1.466,2.453-3.125,3.943-4.671c-1.279-2.008-4.315,1.109-5.728,2.625c-1.213-2.975,0.781-7.296,4.908-10.376
	c3.474-1.776,2.188,1.562,2.699,0.944c6.985-1.122,4.561-7.193,11.031-5.995c2.722,1.644,0.826,3.986,1.621,5.363
	c-2.856,1.132-4.82-0.365-6.829,0.209l2.679,0.312c-0.795,0.907-2.603,1.904-3.817,1.606c1.177,0.729,3.959-0.163,7.276-0.574
	c3.31-0.439,7.052-0.951,9.743-0.505c0.862-0.743,2.439-1.523,1.598-2.313l-1.674,0.373c-1.746-1.524,3.013-2.455,0.767-3.094
	c2.202-1.272,4.79-3.235,8.172-2.469l0.67,2.305c-0.074-0.677-2.192-1.279-3.085-0.528c1.375-1.051,5.056,2.79,6.544-0.097
	c0.017-0.053-2.308-1.681-2.322-1.622c2.345-1.279,5.431-3.436,8.443-2.58c-1.265-2.381-0.691,0.222-2.761-2.589
	c1.771,3.392-7.823-0.461-4.825,3.161c-2.238-3.026-3.814-1.146-6.873-3.667c0.135,0.766,1.125,1.421-1.478,1.167
	c-0.104,0.238-0.357,0.535-0.515,0.714c-0.073-0.021-0.112-0.03-0.179-0.052l0.151,0.083c-0.105,0.118-0.112,0.148,0.052,0.029
	c0.639,0.305,1.152,0.685,1.383,1.1c-1.154,1.868-5.141,1.875-6.353,3.124c-1.511-0.141,0.514-0.974-0.387-1.666l-1.822,1.658
	c-0.401-1.666-4.366-2.209-0.96-3.741l-3.22,0.417c-2.03-0.611-4.782-0.729-6.195,0.439c-1.578,0.021-3.317,2.803-2.335,1.167
	l-4.648,2.291l-0.157-0.401c-5.042,0.877-8.708,5.964-15.23,4.939c-1.361,1.122-2.692,2.341-5.429,3.122l-1.146-1.085
	c-1.726,1.375-6.62,1.532-6.62,3.479c-3.971-2.163-9.729,4.612-13.014,6.545l1.018,1.651c-2.157,1.503-3.905,3.399-5.921,6.031
	l1.234,1.176c-1.107,2.893-6.031,3.83-9.184,6.955c-0.239-0.669,0.708-1.301,1.561-1.549c-6.573,0.99-5.578,9.893-10.665,11.663
	c-0.224,1.331-0.907,1.873-1.74,2.282c0.058-0.087,0.097-0.185,0.103-0.29c-0.082,0.098-0.193,0.237-0.312,0.379
	c-0.55,0.239-1.146,0.47-1.718,0.773c0.632-0.148,1.197-0.328,1.569-0.557c-0.52,0.751-1.183,1.992-1.643,3.325l-1.838-0.596
	c-0.059,0.104-0.089,0.17-0.149,0.283c-1.368,0.699,0.066,1.362,1.622,1.584c-0.163,0.714-0.23,1.412-0.148,2.052
	c-3.065-0.758-0.997,3.517-4.434,3.079c0.833,1.591-2.573,6.412-0.028,8.569c-0.387-0.164-0.736,0.096-0.446-0.557
	c-0.966,1.144-1.94,2.313-1.694,3.911l-2.367-0.469l1.429,4.254c-2.127,1.154-3.258,1.599-4.032-0.922
	c0.424,5.377-0.557,4.003,0.529,8.703l-1.346-0.714c-0.446,1.383,0.692,4.173-0.781,4.566c-3.951,2.134-4.791,15.022-8.309,22.885
	c4.662-1.071-2.604,3.614,0.958,4.322c-1.063,0.378-1.717,1.51-2.558,0.065c0.802,4.336-2.001,6.419,0.76,9.447
	c-1.08,0.482-1.497-0.945-2.143-0.514c0.215,0.356,0.855,1.381,0.202,1.829c-0.641,0.438-0.85-0.64-1.273-1.338
	c0.083,4.484,3.562,4.834,6.537,5.057c-1.323,2.192-1.07,3.311,0.998,4.715c-0.953,0.806-1.919,2.166-2.418-0.481
	c-0.022,0.752-0.313,3.079-0.172,5.214c0.275,2.12,0.85,4.031,2.069,3.928c-0.544,0.551,0.134,2.098,0.468,2.438
	c0.44,3.311,0.037,3.704,1.085,6.837l0.157-0.961c3.199,0.623,1.309,2.471,2.313,4.938l-0.305,0.008
	c-0.423,6.398,1.363,2.277,1.05,8.645l1.621-0.887c3.891-0.779-0.386,5.691,2.237,8.466l0.536-1.562
	c1.741,1.24-2.759,6.914-2.358,8.988c-0.126,0.538-0.797-0.377-1.278-0.816c0.163,5.688,2.455-0.41,4.604,2.76
	c-0.847,1.228-3.331,0.654-2.41,3.123c-0.482,1.838,7.454,4.418,7.089,8.703c0.43-1.205,0.884-2.366,2.416-1.28
	c1.51,2.118,1.146,8.106,5.072,8.233c-0.008,0.438-0.133,0.699-0.327,0.864c1.791,1.24,5.162,4.438,7.334,4.142
	c-1.758,2.768,1.012,4.664,3.569,6.232c2.626,1.532,5.275,2.559,3.257,4.715l4.895,4.018l-0.506,0.342
	c2.894,2.895,4.998,2.559,6.923,2.307c0.499,0.87-0.364,0.905-0.603,1.1c3.964,4.523,4.753,4.656,10.457,4.693l-0.549,1.873
	c0.855-0.119,2.275,1.606,4.296,3.532c2.114,1.742,4.902,3.572,7.974,3.831c-0.141,0.17-0.4,0.452-0.929,0.499
	c3.355,0.535,6.507,3.021,9.519,4.886c2.974,1.883,5.749,3.035,7.892-0.059l4.56-0.573c-5.125-1.866,1.538-2.687-0.32-4.343
	c2.082,0.119,4.737,3.361,2.148,3.063l-0.303-0.438c-1.799,3.267,6.232,2.925,5.667,5.088c5.394,0.722,10.623,2.163,15.932,2.707
	c5.281,0.938,10.566,1.288,15.751,1.063l-1.369-2.722c0,0,3.547,0.028,3.541-0.06c0.981,0.507,1.465,2.06-1.104,2.17
	c1.498,1.504,4.151-1.828,4.121-2.409c5.088,0.489-1.554,3.468-0.035,3.349l2.074-0.477l-0.521-0.262
	c1.553-1.346,1.516-2.56,4.566-2.818c1.994,0.239,1.271,1.518,2.045,1.473c0.029,0.201,0.307,0.238,1.168-0.162l4.516-0.715
	l-2.246-1.771c1.709-1.474,4.127-0.772,1.562-2.767c3.914,3.377,16.313-3.316,18.313-3.093c2.017-2.454,4.482-3.468,7.564-4.866
	c-0.959-0.033-2.455-2.052,0.223-3.041c1.367,5.043,5.74-0.319,9.558,1.486c-3.06-1.003,6.899-4.84,2.18-6.038
	c2.275-0.929,1.176,1.556,3.375,1.503c1.83-2.537,4.648-4.068,7.662-5.765c2.869-1.836,6.166-3.567,8.582-6.337
	c-0.387-0.564-1.937-0.477-1.519-2.284l5.05-0.289c0.813-1.258-1.826-3.621,1.705-3.86c-0.677-0.119-1.683-0.319-1.16-1.138
	c2.899-2.083,5.459-4.624,7.729-7.407c2.074-2.938,4.156-5.904,5.949-9.053c3.631-6.291,7.102-12.459,12.697-18.006
	c-1.951,1.325-1.564,0.045-1.043-1.354c-0.654,0.779-1.519-0.653-2.425-0.826l4.597-4.647c-2.041-1.883,1.793-6.231-0.328-7.535
	l-0.148,1.929c-1.991-3.162-7.051,1.367-10.381-0.225c2.336,3.688-6.918,4.516-4.151,10.189c-1.07,0.527-0.742-1.204-1.726-1.107
	c0.996,1.6,0.654,2.898-1.033,4.707l-0.223-0.408c-1.295,3.072-2.67,5.051-4.428,6.872c-1.726,1.837-3.437,3.771-6.115,6.373
	l1.801,0.597c-1.145,1.158-1.801,1.092-2.602,1.426c1.115,3.113,2.766-3.522,4.237-0.43c-2.147-0.192-3.776,2.09-5.495,4.226
	c-1.854,2.016-3.688,3.948-5.697,3.086c-1.598,1.821,2.016,0.854,0.41,2.69l-1.258-0.273l0.618,1.429
	c-1.323,0.966-2.901,0.552-3.631-0.082c0.355-0.194,0.59-0.952,0.818-1.302c-2.396,0.491-3.767,4.363-4.566,4.561l2.111-1.123
	c-3.984,5.488-11.289,9.185-15.387,14.613l0.883,0.46c-3.48,3.876-3.865,1.316-8.246,4.611l0.082-0.261
	c-0.58,1.221-1.713,2.262-3.103,2.841c0.787-1.503-3.161-0.595-2.03-2.388c-4.062,3.896-1.771,2.358-3.859,6.641l-1.309-1.003
	c-0.662,1.644-0.517,2.306-2.996,3.683c1.69-1.978-2.367-1.369-0.574-3.808c-6.256-0.989-7.209,5.534-10.897,2.008
	c-1.562,4.493,5.319,0.707,4.121,1.897c1.563,0.832-1.312,3.5-3.228,3.568c-1.896,0.319-4.277-4.201-8.658-3.183
	c0.447-0.075,0.424-0.372,0.863-0.447c-1.8-0.563-3.064,1.896-5.369,0.56c-0.863,2.498-2.701,0.207-2.701,3.25l4.127-1.229
	c-2.237,1.006-4.164,5.036-8.375,3.533c0.271-0.632,1.414-1.418,2.175-1.984c-1.222-0.752-2.193,0.697-3.47-0.134
	c0.166-2.924,5.104-0.952,7.336-3.667c-1.332-1.115-4.491,2.78-3.563-0.633c-1.449,4.418-4.424-0.298-7.34,3.056l0.147-1.813
	c-0.478,0.305-1.457,1.197-2.364,1.197l1.577-2.418c-2.454,2.207-4.692-1.809-7.014-0.804c4.868,0.201,1.024,2.238,3.103,3.667
	c-6.314,2.053-3.379-4.827-10.078-4.455c0.898-0.031,3.316,1.287,1.806,2.098c-1.278-0.351-2.87-1.437-3.524-2.461
	c-4.454-0.307,0.431,1.946-1.605,2.756c-1.205-2.416-2.322,0.553-4.464,0.938l0.304-1.808c-4.887-1.957-2.119,3.593-6.456,1.094
	l2.491-1.984l-2.505,0.036l0.975-1.911c-2.902,0.854-3.629,0.252-5.95-0.938c0.237,1.324-1.31,3.242-3.534,2.453
	c-1.153-1.59,1.376-1.359-1.792-2.244c1.079-0.826,2.26-1.928,3.065,0.169c0.327-0.525,1.025-0.825,1.346-1.375
	c-1.183-1.74-3.8-1.703-4.917-2.075c0.402,0.216,0.864,0.49,1.034,0.827l-5.316,0.771c-0.439-0.892,0.328-1.203,1.069-1.515
	c-0.951-0.166-1.935,0.497-3.258,0.017c0.915-1.223,1.421-2.599,3.511-2.619c-0.03,0.127-4.663-0.252-4.67-0.246
	c0-0.721-1.265-2.596-0.521-2.848c-1.727-1.814-6.724,0.127-8.881-2.722c-0.297,0.153-0.729,0.222-1.427,0.043
	c-2.471-1.897-3.749-4.685-7.749-5.294l-0.03-3.355c-2.634-1.203,0.2,4.352-4.24,2.308c-3.257-1.37,0.417-2.522-0.037-3.808
	c-2.046-0.055-6.077-0.019-6.895-3.699C186.127,329.596,186.446,330.421,187.289,330.92z M164.454,304.184
	c0.7,0.4,2.439,0.959,1.757,1.935C163.994,306.51,164.536,305.469,164.454,304.184z M146.532,252.553
	c0.639,0.526,0.379,1.337-0.269,2.289C146.078,254.173,146.105,253.4,146.532,252.553z M236.063,128.956l-0.067,0.097
	C234.105,128.623,234.784,128.808,236.063,128.956z M239.841,129.18c0.329-0.306,0.261-0.558,0.067-0.788
	c-0.187,0.497-0.997,0.654-1.95,0.669C238.302,129.492,238.814,129.752,239.841,129.18z M281.37,373.395l-0.78-0.326
	C282.056,372.221,281.712,372.786,281.37,373.395z"/>
<path fill="#FFFFFF" stroke="#000000" stroke-miterlimit="10" d="M259.2,124.488c0-0.075-2.395,0.558-2.395,0.558
	c1.152-0.142,1.566,0.223,2.154,0.512C258.909,125.127,258.448,124.48,259.2,124.488z"/>
<path fill="#FFFFFF" stroke="#000000" stroke-miterlimit="10" d="M278.114,137.614c0.357-0.17,0.678,0.088,1.025-0.082l0.059-0.856
	C277.831,136.498,276.776,137.019,278.114,137.614z"/>
<path fill="#FFFFFF" stroke="#000000" stroke-miterlimit="10" d="M261.304,130.705c0.15,1.553,1.578,1.108,3.184,0.914
	c-0.088,0-0.178,0.009-0.283-0.016C264.784,129.47,263.015,130.087,261.304,130.705z"/>
<path fill="#FFFFFF" stroke="#000000" stroke-miterlimit="10" d="M264.86,131.583c0.496-0.045,1.002-0.054,1.48,0.045
	C266.585,130.771,265.751,131.411,264.86,131.583z"/>
<path fill="#FFFFFF" stroke="#000000" stroke-miterlimit="10" d="M244.326,127.47c0.826,0.273,0.269-2.039,0.781-1.489
	C245.746,123.899,240.169,129.135,244.326,127.47z"/>
<polygon fill="#FFFFFF" stroke="#000000" stroke-miterlimit="10" points="262.45,135.867 261.944,133.925 261.036,135.419 "/>
<path fill="#FFFFFF" stroke="#000000" stroke-miterlimit="10" d="M250.201,134.698l2.514,0.401c-0.051-0.319,0.252-0.52,0.633-0.684
	C251.813,134.431,250.105,134.134,250.201,134.698z"/>
<path fill="#FFFFFF" stroke="#000000" stroke-miterlimit="10" d="M253.348,134.416c0.8,0,1.56-0.081,1.994-0.416
	C254.907,134.043,253.978,134.148,253.348,134.416z"/>
<path fill="#FFFFFF" stroke="#000000" stroke-miterlimit="10" d="M259.087,136.252c0-0.021-0.729-0.394-0.729-0.394l-1.731-0.045
	C256.626,135.814,259.087,136.193,259.087,136.252z"/>
</svg>
