<?xml version="1.0" encoding="utf-8"?>
<!-- Generator: Adobe Illustrator 16.0.0, SVG Export Plug-In . SVG Version: 6.00 Build 0)  -->
<!DOCTYPE svg PUBLIC "-//W3C//DTD SVG 1.1//EN" "http://www.w3.org/Graphics/SVG/1.1/DTD/svg11.dtd">
<svg version="1.1" id="레이어_1" xmlns="http://www.w3.org/2000/svg" xmlns:xlink="http://www.w3.org/1999/xlink" x="0px"
	 y="0px" width="256px" height="256px" viewBox="0 0 256 256" enable-background="new 0 0 256 256" xml:space="preserve">
<path fill="#FFFFFF" stroke="#000000" stroke-miterlimit="10" d="M110.043,210.853l4.016,1.014l-1.28,5.069
	c-1.634,0.268-3.176,0.219-4.626-0.147c-1.981-0.5-3.417-1.478-4.311-2.933c-0.893-1.455-1.125-3.03-0.697-4.726
	c0.451-1.787,1.44-3.119,2.967-3.996c1.527-0.878,3.215-1.083,5.064-0.616c0.673,0.17,1.294,0.404,1.863,0.702
	c0.568,0.298,1.266,0.758,2.093,1.38l-0.441,1.747c-1.219-1.188-2.529-1.96-3.934-2.314c-1.307-0.33-2.522-0.162-3.643,0.502
	c-1.121,0.665-1.845,1.645-2.172,2.94c-0.343,1.359-0.175,2.582,0.504,3.67s1.723,1.811,3.133,2.166
	c0.685,0.173,1.543,0.223,2.576,0.15l0.176-0.011l0.629-2.492l-2.303-0.581L110.043,210.853z"/>
<path fill="#FFFFFF" stroke="#000000" stroke-miterlimit="10" d="M121.258,206.216l1.239,0.078l4.738,12.732l-1.804-0.114
	l-1.41-3.752l-5.253-0.333l-1.77,3.552l-1.812-0.114L121.258,206.216z M123.395,213.545l-1.704-4.586l-2.124,4.344L123.395,213.545z
	"/>
<path fill="#FFFFFF" stroke="#000000" stroke-miterlimit="10" d="M138.37,205.511l1.643-0.17l1.27,12.272l-1.766,0.183l-0.988-9.549
	l-3.282,5.134l-0.325,0.033l-4.307-4.348l0.987,9.549l-1.757,0.182l-1.27-12.272l1.664-0.173l4.599,4.619L138.37,205.511z"/>
<path fill="#FFFFFF" stroke="#000000" stroke-miterlimit="10" d="M142.044,204.862l6.82-1.55l0.348,1.532l-5.099,1.159l0.834,3.669
	l4.927-1.119l0.35,1.54l-4.926,1.119l0.849,3.738l5.263-1.195l0.349,1.533l-6.984,1.586L142.044,204.862z"/>
<path fill="#FFFFFF" stroke="#000000" stroke-miterlimit="10" d="M187.368,153.232c-0.601-5.69-3.115-30.933-4.097-39.889
	c-1.327-12.131-11.404-21.231-23.509-21.241c-5.649-0.003-10.698,1.811-15.11,5.376c-0.422,0.342-1.017,0.792-1.465,0.73
	c-3.756-0.532-7.495-1.171-11.385-1.801v-7.985h-4.477c0.012,0,0.024-0.01,0.024-0.01V62.644c0-3.319,2.85-5.985,6.231-5.68
	c2.968,0.27,5.175,2.888,5.175,5.869v8.221c0,6.73,5.597,12.178,12.38,11.934c6.477-0.233,11.504-5.771,11.504-12.25V55.312
	c0-1.799-1.458-3.257-3.257-3.257s-3.257,1.458-3.257,3.257v15.742c0,3.109-2.627,5.616-5.778,5.417
	c-2.894-0.182-5.077-2.73-5.077-5.631v-8.196c0-6.886-5.727-12.459-12.666-12.209c-6.625,0.238-11.77,5.903-11.77,12.532v25.432
	c0,0,0.012,0.024,0.026,0.024h-4.48v7.985c-3.889,0.63-7.631,1.268-11.384,1.801c-0.449,0.062-1.042-0.388-1.465-0.73
	c-4.411-3.565-9.46-5.379-15.111-5.376c-12.103,0.01-22.179,9.11-23.508,21.241c-0.98,8.957-3.495,34.2-4.095,39.889
	c-0.886,8.406,0.218,19.739,10.962,22.315c9.983,2.392,18.705-1.591,24.197-9.333c3.347-4.721,7.015-9.217,10.593-13.773
	c0.341-0.434,1.061-0.81,1.608-0.812h31.828c0.548,0.002,1.27,0.378,1.61,0.812c3.578,4.557,7.246,9.054,10.593,13.773
	c5.492,7.742,14.213,11.725,24.197,9.333C187.15,172.972,188.253,161.639,187.368,153.232 M99.323,129.967h-7.861v7.86
	c0,1.66-1.327,3.015-2.986,3.049c-1.708,0.035-3.111-1.34-3.111-3.049v-7.86h-7.862c-1.659,0-3.013-1.327-3.048-2.986
	c-0.035-1.708,1.34-3.111,3.048-3.111h7.862v-7.862c0-1.659,1.327-3.013,2.986-3.047c1.708-0.036,3.111,1.339,3.111,3.047v7.862
	h7.861c1.709,0,3.084,1.403,3.048,3.111C102.337,128.64,100.983,129.967,99.323,129.967 M118.913,134.42h-3.89
	c-1.788,0-3.238-1.45-3.238-3.239s1.45-3.239,3.238-3.239h3.89c1.789,0,3.239,1.45,3.239,3.239S120.702,134.42,118.913,134.42
	 M133.163,134.42h-3.889c-1.788,0-3.238-1.45-3.238-3.239s1.45-3.239,3.238-3.239h3.889c1.79,0,3.239,1.45,3.239,3.239
	S134.953,134.42,133.163,134.42 M151.313,127.149c-0.27,1.418-1.412,2.562-2.831,2.831c-2.538,0.48-4.723-1.703-4.241-4.241
	c0.269-1.418,1.413-2.563,2.831-2.831C149.611,122.426,151.794,124.611,151.313,127.149 M162.812,138.647
	c-0.27,1.418-1.412,2.562-2.831,2.83c-2.538,0.481-4.723-1.702-4.241-4.24c0.269-1.419,1.413-2.563,2.831-2.831
	C161.108,133.925,163.292,136.109,162.812,138.647 M162.812,115.651c-0.27,1.419-1.412,2.562-2.831,2.831
	c-2.538,0.481-4.723-1.703-4.241-4.241c0.269-1.418,1.413-2.562,2.831-2.831C161.108,110.929,163.292,113.113,162.812,115.651
	 M174.31,127.149c-0.271,1.418-1.413,2.562-2.831,2.831c-2.538,0.48-4.723-1.703-4.241-4.241c0.268-1.418,1.413-2.563,2.831-2.831
	C172.606,122.426,174.789,124.611,174.31,127.149"/>
</svg>
