<?xml version="1.0" encoding="utf-8"?>
<!-- Generator: Adobe Illustrator 16.0.0, SVG Export Plug-In . SVG Version: 6.00 Build 0)  -->
<!DOCTYPE svg PUBLIC "-//W3C//DTD SVG 1.1//EN" "http://www.w3.org/Graphics/SVG/1.1/DTD/svg11.dtd">
<svg version="1.1" id="레이어_1" xmlns="http://www.w3.org/2000/svg" xmlns:xlink="http://www.w3.org/1999/xlink" x="0px"
	 y="0px" width="350px" height="300px" viewBox="0 0 350 300" enable-background="new 0 0 350 300" xml:space="preserve">
<path fill="#FFFFFF" stroke="#FFFFFF" stroke-miterlimit="10" d="M344.5,223.832H318c-0.5-0.5-1.2-0.9-1.9-1.1
	c-0.199-0.101-17.8-5.601-34.8-23.7c-20.5-21.9-31.7-53.2-32.5-91c0.101-2.7,0-5.5,0-8.3v-2.4c0.101-2.5-1.7-4.6-4.2-5.1h-0.3
	c-0.1,0-0.3-0.1-0.399-0.1h-0.2h-0.2c-0.2,0-0.3,0-0.5,0.1h-0.2c-2.399,0.4-4.3,2.5-4.2,5.1v2.4c-0.1,2.8-0.1,5.6,0,8.3
	c-0.8,37.8-11.899,69.1-32.5,91c-14.199,15.1-28.8,21.5-33.3,23.2c-4.5-1.7-19.2-8.101-33.3-23.2c-20.5-21.9-31.7-53.2-32.5-91
	c0.1-2.7,0-5.5,0-8.3v-2.4c0.1-2.5-1.7-4.6-4.2-5.1h-0.3c-0.1,0-0.3-0.1-0.4-0.1h-0.2h-0.2c-0.2,0-0.3,0-0.5,0.1H101
	c-2.4,0.4-4.3,2.5-4.2,5.1v2.4c-0.1,2.8-0.1,5.6,0,8.3c-0.8,37.8-11.9,69.1-32.5,91c-16.9,18.1-34.5,23.6-34.8,23.7
	c-0.7,0.199-1.4,0.6-1.9,1.1H5.5c-2.8,0-5,2.2-5,5s2.2,5,5,5h21v0.2v20.8c0,2.8,2.2,5,5,5s5-2.2,5-5v-20.8v-0.2h131.8v0.2v20.8
	c0,2.8,2.2,5,5,5s5-2.2,5-5v-20.8v-0.2h135.3v0.2v20.8c0,2.8,2.2,5,5,5c2.801,0,5-2.2,5-5v-20.8v-0.2h21c2.801,0,5-2.2,5-5
	S347.2,223.832,344.5,223.832 M295.8,223.832h-14.1v-10.5C286.6,217.732,291.4,221.132,295.8,223.832 M271.7,203.332v20.6h-11.9
	v-36.699C263.6,193.432,267.7,198.732,271.7,203.332 M243.8,148.132c1.7,6.8,3.7,13.101,5.9,18.8v56.9h-11.9v-56.9
	C240.1,161.232,242.1,154.932,243.8,148.132 M227.9,187.132v36.7H216v-20.5C219.9,198.732,224,193.432,227.9,187.132 M206,213.332
	v10.5h-14.1C196.2,221.132,201,217.732,206,213.332 M154.2,223.832h-14.1v-10.5C145.1,217.732,149.9,221.132,154.2,223.832
	 M130.1,203.332v20.6h-11.9v-36.699C122.1,193.432,126.1,198.732,130.1,203.332 M102.3,148.132c1.7,6.8,3.7,13.101,5.9,18.8v56.9
	H96.3v-56.9C98.6,161.232,100.6,154.932,102.3,148.132 M86.3,187.132v36.7H74.4v-20.5C78.4,198.732,82.4,193.432,86.3,187.132
	 M64.4,213.332v10.5H50.3C54.6,221.132,59.4,217.732,64.4,213.332"/>
<path fill="#FFFFFF" stroke="#FFFFFF" stroke-miterlimit="10" d="M65.9,126.732c-4.6-1.2-9.3-0.4-13.4,2.199
	c-0.4,0.301-0.8,0.5-1.1,0.801c-2.5-4.801-6.7-8.5-11.9-9.801c-4.6-1.199-9.3-0.399-13.4,2.2c-4.5,2.9-7.8,7.8-8.8,13.4
	c-0.5,2.7,1.3,5.3,4,5.8c2.7,0.5,5.3-1.3,5.8-4c0.6-2.9,2.1-5.4,4.4-6.8c1.7-1.101,3.7-1.4,5.5-1c4.7,1.2,7.7,7,6.7,12.7
	c-0.5,2.699,1.3,5.3,4,5.8c0.3,0.1,0.6,0.1,0.9,0.1h0.3c0.2,0,0.4,0,0.7-0.1c0.1,0,0.2-0.101,0.4-0.101s0.4-0.1,0.5-0.199
	c0.1,0,0.2-0.101,0.4-0.2c0.2-0.101,0.3-0.2,0.5-0.2c0.1-0.1,0.2-0.1,0.3-0.2c0.1-0.1,0.3-0.2,0.4-0.3s0.2-0.2,0.3-0.3
	c0.1-0.101,0.2-0.3,0.3-0.4c0.1-0.1,0.2-0.2,0.2-0.3c0.1-0.2,0.2-0.4,0.3-0.5c0-0.1,0.1-0.2,0.1-0.3c0.1-0.3,0.2-0.601,0.3-0.9
	c0.6-2.899,2.1-5.399,4.4-6.8c1.7-1.1,3.7-1.4,5.5-1c4.7,1.2,7.7,7,6.7,12.7c-0.5,2.7,1.3,5.3,4,5.8c0.3,0.1,0.6,0.1,0.9,0.1
	c2.4,0,4.5-1.699,4.9-4.1C82,140.132,75.7,129.332,65.9,126.732"/>
<path fill="#FFFFFF" stroke="#FFFFFF" stroke-miterlimit="10" d="M235.6,55.832c-4.199,2.1-7.3,5.8-8.699,10.4
	c-0.101,0.4-0.2,0.9-0.301,1.4c-5-2-10.6-2-15.399,0.3c-4.2,2.1-7.3,5.8-8.7,10.4c-1.5,5.1-0.8,10.9,2.1,15.9
	c1.4,2.4,4.4,3.2,6.801,1.8c2.399-1.4,3.199-4.4,1.8-6.8c-1.5-2.6-1.9-5.5-1.101-8c0.601-2,1.9-3.5,3.601-4.4
	c4.3-2.2,10.399,0.2,13.3,5.2c1.4,2.4,4.4,3.2,6.8,1.8c0.3-0.2,0.5-0.3,0.8-0.5l0.2-0.2c0.2-0.2,0.3-0.3,0.4-0.5
	c0.1-0.1,0.1-0.2,0.2-0.3c0.1-0.2,0.199-0.3,0.3-0.5c0.1-0.1,0.1-0.2,0.2-0.4c0.1-0.2,0.1-0.3,0.199-0.5c0-0.1,0.101-0.3,0.101-0.4
	c0-0.2,0.1-0.3,0.1-0.5v-0.4v-0.5v-0.4c0-0.2-0.1-0.4-0.1-0.6c0-0.1,0-0.2-0.101-0.3c-0.1-0.3-0.199-0.6-0.399-0.9
	c-1.5-2.6-1.9-5.5-1.101-8c0.601-2,1.9-3.5,3.601-4.4c4.3-2.2,10.399,0.2,13.3,5.2c1.4,2.4,4.4,3.2,6.8,1.8c0.3-0.2,0.5-0.3,0.8-0.5
	c1.801-1.5,2.301-4.2,1.101-6.3C256.5,55.432,244.6,51.332,235.6,55.832"/>
</svg>
