<?xml version="1.0" encoding="utf-8"?>
<!-- Generator: Adobe Illustrator 16.0.0, SVG Export Plug-In . SVG Version: 6.00 Build 0)  -->
<!DOCTYPE svg PUBLIC "-//W3C//DTD SVG 1.1//EN" "http://www.w3.org/Graphics/SVG/1.1/DTD/svg11.dtd">
<svg version="1.1" id="레이어_1" xmlns="http://www.w3.org/2000/svg" xmlns:xlink="http://www.w3.org/1999/xlink" x="0px"
	 y="0px" width="350px" height="300px" viewBox="0 0 350 300" enable-background="new 0 0 350 300" xml:space="preserve">
<path fill="#FFFFFF" stroke="#FFFFFF" stroke-miterlimit="10" d="M219.11,269.354c-6.1,0-8.8-1.8-12.399-4.2
	c-3.9-2.6-8.8-5.8-17.9-5.8c-9.1,0-14,3.2-17.9,5.8c-3.5,2.3-6.3,4.2-12.4,4.2s-8.8-1.8-12.4-4.2c-3.9-2.6-8.8-5.8-17.9-5.8
	c-9.1,0-14,3.2-17.9,5.8c-3.5,2.3-6.3,4.2-12.4,4.2s-8.8-1.8-12.4-4.2c-3.9-2.6-8.8-5.8-17.9-5.8s-14,3.2-17.9,5.8
	c-3.5,2.3-6.3,4.2-12.4,4.2c-6.1,0-8.8-1.8-12.4-4.2c-3.9-2.6-8.8-5.8-17.9-5.8c-2.8,0-5,2.2-5,5s2.2,5,5,5c6.1,0,8.8,1.8,12.4,4.2
	c3.9,2.6,8.8,5.8,17.9,5.8c9.1,0,14-3.2,17.9-5.8c3.5-2.3,6.3-4.2,12.4-4.2s8.8,1.8,12.4,4.2c3.9,2.6,8.8,5.8,17.9,5.8
	s14-3.2,17.9-5.8c3.5-2.3,6.3-4.2,12.4-4.2c6.1,0,8.8,1.8,12.4,4.2c3.9,2.6,8.8,5.8,17.9,5.8s14-3.2,17.899-5.8
	c3.501-2.3,6.301-4.2,12.4-4.2c6.101,0,8.8,1.8,12.4,4.2c3.899,2.6,8.8,5.8,17.899,5.8c2.801,0,5-2.2,5-5
	S221.911,269.354,219.11,269.354"/>
<path fill="#FFFFFF" stroke="#FFFFFF" stroke-miterlimit="10" d="M220.61,232.754c-6.1,0-8.8-1.801-12.399-4.2
	c-3.9-2.601-8.8-5.8-17.9-5.8c-9.1,0-14,3.199-17.9,5.8c-3.5,2.3-6.3,4.2-12.4,4.2s-8.8-1.801-12.4-4.2c-3.9-2.601-8.8-5.8-17.9-5.8
	c-9.1,0-14,3.199-17.9,5.8c-3.5,2.3-6.3,4.2-12.4,4.2s-8.8-1.801-12.4-4.2c-3.9-2.601-8.8-5.8-17.9-5.8s-14,3.199-17.9,5.8
	c-3.5,2.3-6.3,4.2-12.4,4.2c-6.1,0-8.8-1.801-12.4-4.2c-3.9-2.601-8.8-5.8-17.9-5.8c-2.8,0-5,2.199-5,5c0,2.8,2.2,5,5,5
	c6.1,0,8.8,1.8,12.4,4.199c3.9,2.601,8.8,5.801,17.9,5.801c9.1,0,14-3.2,17.9-5.801c3.5-2.3,6.3-4.199,12.4-4.199
	s8.8,1.8,12.4,4.199c3.9,2.601,8.8,5.801,17.9,5.801s14-3.2,17.9-5.801c3.5-2.3,6.3-4.199,12.4-4.199c6.1,0,8.8,1.8,12.4,4.199
	c3.9,2.601,8.8,5.801,17.9,5.801s14-3.2,17.9-5.801c3.5-2.3,6.3-4.199,12.399-4.199c6.101,0,8.8,1.8,12.4,4.199
	c3.899,2.601,8.8,5.801,17.899,5.801c2.801,0,5-2.2,5-5C225.61,234.953,223.311,232.754,220.61,232.754"/>
<path fill="#FFFFFF" stroke="#FFFFFF" stroke-miterlimit="10" d="M236.211,146.953c9.1-2.3,14.6-11.6,12.2-20.7l-22.5-87.8
	c-1.101-4.4-3.9-8.1-7.801-10.4c-3.899-2.3-8.5-3-12.899-1.8l-5.601,1.4l-2.699-8.9c-0.801-2.6-3.601-4.2-6.2-3.4
	c-2.601,0.8-4.2,3.6-3.4,6.2l2.601,8.6l-1.601,0.4c-9.1,2.3-14.6,11.6-12.199,20.7l22.499,87.8c1.101,4.399,3.9,8.1,7.801,10.399
	c2.699,1.601,5.6,2.4,8.6,2.4c1.4,0,2.8-0.2,4.2-0.5l4.899-1.2c17.301,31.4,16.9,128.601,16.9,129.7c0,2.8,2.2,5,5,5
	c2.7,0,5-2.2,5-5c0-4.1,0.4-96.2-17-132.3L236.211,146.953z M216.811,141.653c-3.7,1-7.5-1.3-8.5-5l-22.5-87.8c-1-3.7,1.3-7.5,5-8.5
	l16.9-4.3c0.6-0.1,1.1-0.2,1.7-0.2c1.199,0,2.5,0.3,3.6,1c1.6,1,2.8,2.5,3.2,4.3l22.5,87.8c1,3.7-1.3,7.5-5,8.5L216.811,141.653z"/>
<path fill="#FFFFFF" stroke="#FFFFFF" stroke-miterlimit="10" d="M346.411,172.354c-1.9-1.8-4.801-1.8-6.7-0.1l-73.601,63.5
	c-2.1,1.8-2.3,5-0.5,7.1c1.801,2.1,5,2.3,7.101,0.5l37.6-32.4l-44.8,59c-1.7,2.2-1.2,5.301,1,7c0.9,0.7,2,1,3,1c1.5,0,3-0.699,4-2
	l73.6-96.899C348.511,176.953,348.211,174.054,346.411,172.354"/>
</svg>
