<?xml version="1.0" encoding="utf-8"?>
<!-- Generator: Adobe Illustrator 16.0.0, SVG Export Plug-In . SVG Version: 6.00 Build 0)  -->
<!DOCTYPE svg PUBLIC "-//W3C//DTD SVG 1.1//EN" "http://www.w3.org/Graphics/SVG/1.1/DTD/svg11.dtd">
<svg version="1.1" id="레이어_1" xmlns="http://www.w3.org/2000/svg" xmlns:xlink="http://www.w3.org/1999/xlink" x="0px"
	 y="0px" width="350px" height="300px" viewBox="0 0 350 300" enable-background="new 0 0 350 300" xml:space="preserve">
<path fill="#FFFFFF" stroke="#FFFFFF" stroke-miterlimit="10" d="M275.229,25.85c2.801,0,5-2.2,5-5V8.55c0-2.8-2.199-5-5-5
	c-2.799,0-5,2.2-5,5v12.3C270.229,23.65,272.43,25.85,275.229,25.85"/>
<path fill="#FFFFFF" stroke="#FFFFFF" stroke-miterlimit="10" d="M242.229,30.95c0.9,1.6,2.6,2.5,4.301,2.5
	c0.799,0,1.699-0.2,2.5-0.7c2.4-1.4,3.199-4.4,1.799-6.8l-5.799-10.2c-1.4-2.4-4.4-3.2-6.801-1.8s-3.199,4.4-1.799,6.8
	L242.229,30.95z"/>
<path fill="#FFFFFF" stroke="#FFFFFF" stroke-miterlimit="10" d="M212.93,47.65l10.199,5.9c0.801,0.5,1.6,0.7,2.5,0.7
	c1.699,0,3.4-0.9,4.301-2.5c1.398-2.4,0.6-5.4-1.801-6.8l-10.199-6c-2.4-1.4-5.5-0.6-6.801,1.8
	C209.729,43.15,210.529,46.25,212.93,47.65"/>
<path fill="#FFFFFF" stroke="#FFFFFF" stroke-miterlimit="10" d="M206.43,82.35h12.299c2.801,0,5-2.2,5-5c0-2.8-2.199-5-5-5H206.43
	c-2.801,0-5,2.2-5,5C201.43,80.15,203.629,82.35,206.43,82.35"/>
<path fill="#FFFFFF" stroke="#FFFFFF" stroke-miterlimit="10" d="M222.129,102.05l-10.199,5.9c-2.4,1.4-3.201,4.4-1.801,6.8
	c0.9,1.6,2.6,2.5,4.301,2.5c0.799,0,1.699-0.2,2.5-0.7l10.199-5.9c2.4-1.4,3.199-4.4,1.801-6.8
	C227.529,101.45,224.529,100.65,222.129,102.05"/>
<path fill="#FFFFFF" stroke="#FFFFFF" stroke-miterlimit="10" d="M241.229,125.05l-5.9,10.2c-1.398,2.4-0.6,5.4,1.801,6.8
	c0.801,0.5,1.6,0.7,2.5,0.7c1.699,0,3.4-0.9,4.301-2.5l5.898-10.2c1.4-2.4,0.602-5.4-1.799-6.8
	C245.629,121.85,242.529,122.65,241.229,125.05"/>
<path fill="#FFFFFF" stroke="#FFFFFF" stroke-miterlimit="10" d="M274.229,130.55L274.229,130.55c-2.799,0-5,2.2-5,5v11.7
	c0,2.8,2.201,5,5,5c2.801,0,5-2.2,5-5v-11.7C279.229,132.75,277.029,130.55,274.229,130.55"/>
<path fill="#FFFFFF" stroke="#FFFFFF" stroke-miterlimit="10" d="M300.629,123.75c-2.4,1.4-3.199,4.4-1.801,6.8l5.9,10.2
	c0.9,1.6,2.6,2.5,4.301,2.5c0.799,0,1.699-0.2,2.5-0.7c2.4-1.4,3.199-4.4,1.799-6.8l-5.898-10.2
	C306.029,123.15,303.029,122.35,300.629,123.75"/>
<path fill="#FFFFFF" stroke="#FFFFFF" stroke-miterlimit="10" d="M337.029,108.65l-10.201-5.9c-2.398-1.4-5.5-0.6-6.799,1.8
	c-1.4,2.4-0.6,5.4,1.799,6.8l10.201,5.9c0.799,0.5,1.6,0.7,2.5,0.7c1.699,0,3.4-0.9,4.299-2.5
	C340.229,113.15,339.43,110.05,337.029,108.65"/>
<path fill="#FFFFFF" stroke="#FFFFFF" stroke-miterlimit="10" d="M344.029,73.45L344.029,73.45h-11.701c-2.799,0-5,2.2-5,5
	s2.201,5,5,5h11.701c2.799,0,5-2.2,5-5S346.828,73.45,344.029,73.45"/>
<path fill="#FFFFFF" stroke="#FFFFFF" stroke-miterlimit="10" d="M324.828,54.55c0.801,0,1.701-0.2,2.5-0.7l10.201-5.9
	c2.4-1.4,3.199-4.4,1.799-6.8c-1.398-2.4-4.398-3.2-6.799-1.8l-10.201,5.9c-2.398,1.4-3.199,4.4-1.799,6.8
	C321.43,53.65,323.129,54.55,324.828,54.55"/>
<path fill="#FFFFFF" stroke="#FFFFFF" stroke-miterlimit="10" d="M301.43,32.65c0.799,0.5,1.6,0.7,2.5,0.7
	c1.699,0,3.398-0.9,4.299-2.5l5.9-10.2c1.4-2.4,0.6-5.4-1.801-6.8c-2.398-1.4-5.5-0.6-6.799,1.8l-5.9,10.2
	C298.229,28.15,299.029,31.25,301.43,32.65"/>
<path fill="#FFFFFF" stroke="#FFFFFF" stroke-miterlimit="10" d="M140.429,255.351c3.8,2.6,8.4,5.899,17.1,5.899
	c8.7,0,13.4-3.3,17.1-5.899c3.4-2.4,5.801-4.101,11.4-4.101s8,1.7,11.4,4.101c3.799,2.6,8.398,5.899,17.1,5.899c2.799,0,5-2.2,5-5
	s-2.201-5-5-5c-5.5,0-8-1.7-11.4-4.1c-3.801-2.601-8.4-5.9-17.1-5.9c-8.701,0-13.4,3.3-17.101,5.9c-3.4,2.399-5.8,4.1-11.4,4.1
	c-5.5,0-8-1.7-11.4-4.1c-3.8-2.601-8.4-5.9-17.1-5.9c-8.7,0-13.4,3.3-17.1,5.9c-3.4,2.399-5.8,4.1-11.4,4.1s-8-1.7-11.4-4.1
	c-3.8-2.601-8.4-5.9-17.1-5.9c-8.7,0-13.4,3.3-17.1,5.9c-3.4,2.399-5.8,4.1-11.4,4.1c-5.5,0-8-1.7-11.4-4.1
	c-3.8-2.601-8.4-5.9-17.1-5.9c-2.8,0-5,2.2-5,5s2.2,5,5,5c5.5,0,8,1.7,11.4,4.101c3.8,2.6,8.4,5.899,17.1,5.899
	c8.7,0,13.4-3.3,17.1-5.899c3.4-2.4,5.8-4.101,11.4-4.101s8,1.7,11.4,4.101c3.8,2.6,8.4,5.899,17.1,5.899c8.7,0,13.4-3.3,17.1-5.899
	c3.4-2.4,5.8-4.101,11.4-4.101S137.029,252.95,140.429,255.351"/>
<path fill="#FFFFFF" stroke="#FFFFFF" stroke-miterlimit="10" d="M328.229,286.45c-5.5,0-8-1.7-11.4-4.1
	c-3.799-2.601-8.398-5.9-17.1-5.9c-8.699,0-13.4,3.3-17.1,5.9c-3.4,2.399-5.801,4.1-11.4,4.1c-5.5,0-8-1.7-11.4-4.1
	c-3.799-2.601-8.398-5.9-17.1-5.9c-8.699,0-13.4,3.3-17.1,5.9c-3.4,2.399-5.801,4.1-11.4,4.1s-8-1.7-11.4-4.1
	c-3.799-2.601-8.398-5.9-17.1-5.9c-8.699,0-13.399,3.3-17.1,5.9c-3.4,2.399-5.8,4.1-11.4,4.1c-5.5,0-8-1.7-11.4-4.1
	c-3.8-2.601-8.4-5.9-17.1-5.9c-2.8,0-5,2.2-5,5s2.2,5,5,5c5.5,0,8,1.7,11.4,4.1c3.8,2.601,8.4,5.9,17.1,5.9c8.7,0,13.4-3.3,17.1-5.9
	c3.399-2.399,5.8-4.1,11.399-4.1c5.5,0,8,1.7,11.4,4.1c3.801,2.601,8.4,5.9,17.1,5.9c8.701,0,13.4-3.3,17.1-5.9
	c3.4-2.399,5.801-4.1,11.4-4.1s8,1.7,11.4,4.1c3.801,2.601,8.4,5.9,17.1,5.9c8.701,0,13.4-3.3,17.1-5.9
	c3.4-2.399,5.801-4.1,11.4-4.1c5.5,0,8,1.7,11.4,4.1c3.801,2.601,8.4,5.9,17.1,5.9c2.801,0,5-2.2,5-5S331.029,286.45,328.229,286.45
	"/>
<path fill="#FFFFFF" stroke="#FFFFFF" stroke-miterlimit="10" d="M166.729,121.15c-8.5-21.3-24.8-38-45.9-47.1
	c-21.1-9.1-44.5-9.3-65.8-0.8c-0.3,0.1-0.6,0.3-0.9,0.4c-0.1,0.1-0.3,0.1-0.4,0.2c-0.2,0.1-0.5,0.2-0.7,0.3
	c-0.2,0.1-0.4,0.2-0.6,0.3c-20,8.8-35.7,24.6-44.4,44.8c-9.1,21-9.4,44.4-0.9,65.7c0.5,1.2,1.5,2.2,2.7,2.7
	c0.6,0.3,1.3,0.399,2,0.399c0.6,0.101,1.2,0,1.8-0.3l69.6-27.8l23.8,56.8c0.8,1.9,2.7,3.101,4.6,3.101c0.6,0,1.3-0.101,1.9-0.4
	c2.5-1.1,3.7-4,2.7-6.5l-23.7-56.7l71.5-28.6c1.2-0.5,2.2-1.5,2.7-2.7S167.229,122.35,166.729,121.15 M14.729,176.55
	c-5.7-17.5-4.9-36.3,2.5-53.399c5.9-13.7,15.4-25.1,27.5-33.2c-5.3,15-9.3,40.7,6.1,72.2L14.729,176.55z M60.129,158.351
	c-18.2-36.5-7.3-64.101-2.3-73.601c10.3,3.1,37.9,14.9,50.9,54.2L60.129,158.351z M118.029,135.35c-11.4-34.1-33-49.6-47.6-56.4
	c5.5-1.2,11-1.9,16.6-1.9c10.2,0.1,20.3,2.1,29.9,6.3c17.1,7.3,30.6,20.4,38.6,37L118.029,135.35z"/>
<path fill="#FFFFFF" stroke="#FFFFFF" stroke-miterlimit="10" d="M274.729,119.25c22.801,0,41.301-18.5,41.301-41.3
	s-18.5-41.3-41.301-41.3c-22.799,0-41.299,18.5-41.299,41.3S251.93,119.25,274.729,119.25 M274.729,46.65
	c17.301,0,31.301,14,31.301,31.3s-14,31.3-31.301,31.3c-17.299,0-31.299-14-31.299-31.3S257.43,46.65,274.729,46.65"/>
</svg>
