<?xml version="1.0" encoding="utf-8"?>
<!-- Generator: Adobe Illustrator 16.0.0, SVG Export Plug-In . SVG Version: 6.00 Build 0)  -->
<!DOCTYPE svg PUBLIC "-//W3C//DTD SVG 1.1//EN" "http://www.w3.org/Graphics/SVG/1.1/DTD/svg11.dtd">
<svg version="1.1" id="레이어_1" xmlns="http://www.w3.org/2000/svg" xmlns:xlink="http://www.w3.org/1999/xlink" x="0px"
	 y="0px" width="350px" height="300px" viewBox="0 0 350 300" enable-background="new 0 0 350 300" xml:space="preserve">
<path fill="#FFFFFF" stroke="#FFFFFF" stroke-miterlimit="10" d="M46.121,113.5c2.4,0,4.7-0.5,6.9-1.4c4.1,3.1,9.2,4.9,14.4,4.9
	c5.4,0,10.7-1.9,14.9-5.2c2.4,1.1,5,1.7,7.7,1.7c10,0,18.1-8.1,18.1-18.1s-8.1-18.1-18.1-18.1c-1.5,0-2.9,0.2-4.3,0.5
	c-4.5-5.4-11.2-8.6-18.3-8.6c-7,0-13.6,3.1-18.1,8.3c-1-0.2-2.1-0.3-3.1-0.3c-10,0-18.1,8.1-18.1,18.1S36.221,113.5,46.121,113.5
	 M46.121,87.3c1.1,0,2.1,0.2,3.1,0.6l4,1.7l2.3-3.7c2.6-4.2,7-6.7,11.8-6.7c5,0,9.6,2.7,12.1,7.1l2.4,4.3l4.3-2.3
	c1.2-0.6,2.5-1,3.8-1c4.5,0,8.1,3.6,8.1,8.1s-3.6,8.1-8.1,8.1c-1.9,0-3.7-0.7-5.2-1.9l-3.8-3.1l-3.2,3.7c-2.7,3.1-6.5,4.8-10.5,4.8
	c-3.8,0-7.4-1.5-10-4.4l-3-3.1l-3.5,2.5c-1.4,1-3,1.5-4.7,1.5c-4.5,0-8.1-3.6-8.1-8.1S41.721,87.3,46.121,87.3"/>
<path fill="#FFFFFF" stroke="#FFFFFF" stroke-miterlimit="10" d="M246.321,68.5c2.399,0,4.699-0.5,6.899-1.4
	c4.101,3.1,9.2,4.9,14.4,4.9c5.399,0,10.7-1.9,14.899-5.2c2.4,1.1,5,1.7,7.7,1.7c10,0,18.101-8.1,18.101-18.1
	s-8.101-18.1-18.101-18.1c-1.5,0-2.899,0.2-4.3,0.5c-4.5-5.4-11.2-8.6-18.3-8.6c-7,0-13.601,3.1-18.101,8.3c-1-0.2-2.1-0.3-3.1-0.3
	c-10,0-18.1,8.1-18.1,18.1S236.421,68.5,246.321,68.5 M246.321,42.3c1.1,0,2.1,0.2,3.1,0.6l4,1.7l2.3-3.7c2.601-4.2,7-6.7,11.8-6.7
	c5,0,9.601,2.7,12.101,7.1l2.399,4.3l4.301-2.3c1.199-0.6,2.5-1,3.8-1c4.5,0,8.1,3.6,8.1,8.1s-3.6,8.1-8.1,8.1
	c-1.9,0-3.7-0.7-5.2-1.9l-3.8-3.1l-3.2,3.7c-2.7,3.1-6.5,4.8-10.5,4.8c-3.8,0-7.4-1.5-10-4.4l-3-3.1l-3.5,2.5c-1.4,1-3,1.5-4.7,1.5
	c-4.5,0-8.1-3.6-8.1-8.1S241.921,42.3,246.321,42.3"/>
<path fill="#FFFFFF" stroke="#FFFFFF" stroke-miterlimit="10" d="M337.621,267l-83-86.4l-31.9-95.199c-0.6-1.9-2.399-3.2-4.399-3.4
	l-65-5c-2-0.2-4,0.9-4.9,2.8l-27.4,55h-41.7c-2,0-3.8,1.2-4.6,3l-57.8,130.901c-0.7,1.5-0.5,3.299,0.4,4.799
	c0.9,1.4,2.5,2.301,4.2,2.301l176.3-0.201h0.5h0.5l135.399-0.1c2,0,3.8-1.199,4.601-3C339.621,270.701,339.021,268.4,337.621,267z
	 M193.221,265.6h-46.9v-40.299c0-12.1,9.9-22,22-22h3c12.1,0,22,9.9,22,22V265.6H193.221z M203.221,265.6v-40.299
	c0-17.6-14.3-32-32-32h-3c-17.6,0-32,14.299-32,32V265.6l-107.1,0.201l53.4-121.1h41.7c1.9,0,3.6-1.101,4.5-2.801l27.3-54.7
	l58.3,4.5l31.199,93.101c0.2,0.699,0.601,1.299,1.101,1.9l75.7,78.799L203.221,265.6z"/>
</svg>
