<?xml version="1.0" encoding="utf-8"?>
<!-- Generator: Adobe Illustrator 16.0.0, SVG Export Plug-In . SVG Version: 6.00 Build 0)  -->
<!DOCTYPE svg PUBLIC "-//W3C//DTD SVG 1.1//EN" "http://www.w3.org/Graphics/SVG/1.1/DTD/svg11.dtd">
<svg version="1.1" id="레이어_1" xmlns="http://www.w3.org/2000/svg" xmlns:xlink="http://www.w3.org/1999/xlink" x="0px"
	 y="0px" width="350px" height="300px" viewBox="0 0 350 300" enable-background="new 0 0 350 300" xml:space="preserve">
<path fill="#FFFFFF" stroke="#FFFFFF" stroke-miterlimit="10" d="M175,297.3c-30.5,0-61.7-48.5-73.7-69.3
	c-23.1-40.101-38-84.7-38-113.5C63.3,52.9,113.4,2.7,175,2.7c61.6,0,111.7,50.1,111.7,111.8c0,28.8-14.9,73.399-38,113.5
	C236.8,248.8,205.6,297.3,175,297.3 M175,12.6c-56.1,0-101.7,45.6-101.7,101.8c0,27.2,14.4,69.8,36.7,108.6
	c22.8,39.7,47.8,64.3,65,64.3c17.3,0,42.199-24.7,65.1-64.3c22.3-38.7,36.7-81.4,36.7-108.6C276.8,58.3,231.199,12.6,175,12.6"/>
<path fill="#FFFFFF" stroke="#FFFFFF" stroke-miterlimit="10" d="M175,162.1c-30.2,0-54.8-24.6-54.8-54.8s24.6-54.8,54.8-54.8
	c30.199,0,54.8,24.6,54.8,54.8C229.9,137.5,205.3,162.1,175,162.1 M175,62.5c-24.7,0-44.8,20.1-44.8,44.8s20.1,44.8,44.8,44.8
	c24.699,0,44.8-20.1,44.8-44.8C219.9,82.6,199.8,62.5,175,62.5"/>
</svg>
