<?xml version="1.0" encoding="utf-8"?>
<!-- Generator: Adobe Illustrator 16.0.0, SVG Export Plug-In . SVG Version: 6.00 Build 0)  -->
<!DOCTYPE svg PUBLIC "-//W3C//DTD SVG 1.1//EN" "http://www.w3.org/Graphics/SVG/1.1/DTD/svg11.dtd">
<svg version="1.1" id="레이어_1" xmlns="http://www.w3.org/2000/svg" xmlns:xlink="http://www.w3.org/1999/xlink" x="0px"
	 y="0px" width="350px" height="300px" viewBox="0 0 350 300" enable-background="new 0 0 350 300" xml:space="preserve">
<path fill="#FFFFFF" stroke="#FFFFFF" stroke-miterlimit="10" d="M50.481,113.245c3.37,0,6.652-0.738,9.671-2.157
	c5.478,4.449,12.362,6.941,19.412,6.941c7.412,0,14.539-2.702,20.12-7.529c3.32,1.788,7.05,2.745,10.844,2.745
	c12.656,0,22.952-10.296,22.952-22.952S123.184,67.34,110.528,67.34c-2.23,0-4.453,0.332-6.586,0.974
	c-5.812-7.498-14.806-12.01-24.378-12.01c-9.471,0-18.205,4.271-24.045,11.596c-1.644-0.373-3.328-0.56-5.038-0.56
	c-12.656,0-22.952,10.296-22.952,22.952S37.826,113.245,50.481,113.245z M50.481,77.34c1.746,0,3.444,0.348,5.047,1.035l3.98,1.705
	l2.256-3.695c3.854-6.312,10.508-10.08,17.8-10.08c7.465,0,14.418,4.079,18.146,10.646l2.415,4.254l4.306-2.322
	c1.897-1.023,3.949-1.542,6.096-1.542c7.142,0,12.952,5.811,12.952,12.952s-5.81,12.952-12.952,12.952
	c-3.001,0-5.936-1.069-8.263-3.01l-3.763-3.138l-3.214,3.698c-3.995,4.597-9.727,7.234-15.724,7.234
	c-5.733,0-11.097-2.327-15.103-6.551l-2.987-3.15l-3.538,2.516c-2.209,1.571-4.787,2.401-7.455,2.401
	c-7.142,0-12.952-5.811-12.952-12.952S43.339,77.34,50.481,77.34z"/>
<path fill="#FFFFFF" stroke="#FFFFFF" stroke-miterlimit="10" d="M217.1,73.675c3.371,0,6.652-0.738,9.672-2.158
	c5.477,4.449,12.361,6.941,19.412,6.941c7.412,0,14.538-2.702,20.119-7.529c3.32,1.788,7.05,2.745,10.844,2.745
	c12.656,0,22.953-10.296,22.953-22.952s-10.297-22.952-22.953-22.952c-2.229,0-4.453,0.332-6.585,0.974
	c-5.812-7.499-14.807-12.01-24.378-12.01c-9.473,0-18.206,4.271-24.045,11.596c-1.645-0.372-3.329-0.56-5.039-0.56
	c-12.655,0-22.951,10.296-22.951,22.952S204.444,73.675,217.1,73.675z M217.1,37.771c1.747,0,3.445,0.348,5.049,1.035l3.98,1.704
	l2.256-3.695c3.852-6.311,10.506-10.079,17.799-10.079c7.465,0,14.418,4.079,18.146,10.646l2.416,4.255l4.306-2.323
	c1.897-1.023,3.947-1.542,6.095-1.542c7.143,0,12.953,5.811,12.953,12.952s-5.811,12.952-12.953,12.952
	c-3.001,0-5.936-1.069-8.263-3.01l-3.763-3.138l-3.214,3.698c-3.995,4.597-9.726,7.234-15.724,7.234
	c-5.734,0-11.098-2.326-15.104-6.55l-2.986-3.15l-3.538,2.515c-2.21,1.571-4.788,2.401-7.456,2.401
	c-7.142,0-12.951-5.811-12.951-12.952S209.958,37.771,217.1,37.771z"/>
<path fill="#FFFFFF" stroke="#FFFFFF" stroke-miterlimit="10" d="M345.529,280.216l-31.317-16.951l-15.489-48.839
	c-0.32-1.008-0.95-1.888-1.802-2.515l-31.305-23.047c-0.401-0.296-0.845-0.529-1.315-0.694l-90.336-31.543
	c-0.53-0.185-1.087-0.279-1.648-0.279h-36.671c-0.949,0-1.877,0.27-2.678,0.778l-19.472,12.353l-14.645-5.166
	c-1.321-0.466-2.776-0.357-4.013,0.302l-65.293,34.757c-1.164,0.62-2.036,1.675-2.426,2.935L2.074,283.134
	c-0.47,1.517-0.191,3.167,0.751,4.446c0.942,1.278,2.437,2.033,4.025,2.033h51.864c0.004,0,0.007,0.001,0.011,0.001
	c0.004,0,0.008-0.001,0.013-0.001h55.372c0.004,0,0.008,0.001,0.011,0.001c0.004,0,0.008-0.001,0.013-0.001h55.373
	c0.004,0,0.008,0.001,0.011,0.001c0.004,0,0.008-0.001,0.013-0.001h93.555c0.005,0,0.009,0.001,0.014,0.001
	c0.004,0,0.008-0.001,0.012-0.001h80.037c2.289,0,4.285-1.554,4.848-3.772C348.558,283.622,347.541,281.306,345.529,280.216z
	 M266.638,279.613l-17.606-49.927c-0.918-2.604-3.775-3.969-6.379-3.053c-2.604,0.919-3.971,3.774-3.052,6.379l16.434,46.601
	h-79.339l27.145-73.5c0.956-2.591-0.368-5.466-2.959-6.423c-2.59-0.957-5.466,0.368-6.422,2.958l-28.424,76.965h-44.736
	l17.184-46.531c0.957-2.591-0.368-5.466-2.958-6.423c-2.589-0.958-5.466,0.368-6.422,2.958l-18.464,49.996H65.903l17.185-46.531
	c0.957-2.591-0.368-5.466-2.958-6.423c-2.592-0.958-5.466,0.368-6.423,2.958l-18.464,49.996H13.634l22.426-72.382l61.535-32.758
	l14.863,5.243c1.447,0.513,3.047,0.329,4.342-0.493l20.296-12.876h34.372l88.824,31.016L289.682,219l15.608,49.213
	c0.392,1.234,1.247,2.269,2.386,2.886l15.731,8.515H266.638z"/>
</svg>
