<?xml version="1.0" encoding="utf-8"?>
<!-- Generator: Adobe Illustrator 16.0.0, SVG Export Plug-In . SVG Version: 6.00 Build 0)  -->
<!DOCTYPE svg PUBLIC "-//W3C//DTD SVG 1.1//EN" "http://www.w3.org/Graphics/SVG/1.1/DTD/svg11.dtd">
<svg version="1.1" id="레이어_1" xmlns="http://www.w3.org/2000/svg" xmlns:xlink="http://www.w3.org/1999/xlink" x="0px"
	 y="0px" width="350px" height="300px" viewBox="0 0 350 300" enable-background="new 0 0 350 300" xml:space="preserve">
<path fill="#FFFFFF" stroke="#FFFFFF" stroke-miterlimit="10" d="M74.59,33.753c-4.775-1.224-9.766-0.397-14.049,2.325
	c-0.527,0.335-1.031,0.706-1.523,1.09c-2.604-5.194-7.084-9.217-12.663-10.646c-4.778-1.222-9.767-0.396-14.05,2.327
	c-4.773,3.035-8.152,8.163-9.272,14.069c-0.514,2.713,1.268,5.33,3.981,5.844c2.714,0.513,5.329-1.268,5.844-3.981
	c0.607-3.203,2.362-5.935,4.813-7.494c1.927-1.225,4.129-1.608,6.204-1.078c5.188,1.329,8.573,7.709,7.393,13.935
	c0,0.001,0,0.002-0.001,0.003c-0.514,2.713,1.268,5.33,3.981,5.844c0.04,0.007,0.078,0.004,0.118,0.01
	c0.275,0.045,0.549,0.078,0.819,0.078c0.013,0,0.024-0.003,0.037-0.003c0.093,0,0.182-0.018,0.273-0.024
	c0.22-0.014,0.439-0.032,0.652-0.074c0.118-0.023,0.229-0.061,0.344-0.092c0.181-0.05,0.359-0.102,0.532-0.17
	c0.119-0.047,0.231-0.104,0.346-0.16c0.159-0.078,0.313-0.16,0.462-0.254c0.11-0.069,0.216-0.143,0.321-0.22
	c0.14-0.104,0.273-0.216,0.402-0.334c0.096-0.088,0.189-0.175,0.278-0.271c0.123-0.132,0.233-0.273,0.341-0.418
	c0.075-0.101,0.153-0.197,0.221-0.304c0.107-0.168,0.195-0.348,0.282-0.53c0.047-0.1,0.104-0.193,0.145-0.297
	c0.111-0.279,0.199-0.572,0.26-0.877c0.003-0.014,0.009-0.026,0.012-0.04c0.607-3.204,2.362-5.936,4.814-7.494
	c1.927-1.225,4.131-1.607,6.204-1.076c5.187,1.328,8.573,7.71,7.393,13.937c-0.514,2.713,1.269,5.329,3.982,5.843
	c0.314,0.06,0.627,0.088,0.936,0.088c2.355,0,4.453-1.671,4.907-4.07C91.492,47.82,84.88,36.387,74.59,33.753z"/>
<path fill="#FFFFFF" stroke="#FFFFFF" stroke-miterlimit="10" d="M241.563,68.76c-6.865-9.38-19.73-12.358-28.682-6.638
	c-4.156,2.654-6.961,6.863-7.896,11.852c-0.115,0.614-0.194,1.233-0.25,1.855c-5.57-1.643-11.566-1.117-16.418,1.982
	c-4.156,2.656-6.959,6.866-7.894,11.855c-1.042,5.559,0.397,11.529,3.948,16.38c0.979,1.338,2.498,2.047,4.037,2.047
	c1.025,0,2.061-0.314,2.949-0.966c2.229-1.631,2.713-4.759,1.082-6.988c-1.926-2.63-2.723-5.777-2.188-8.632
	c0.42-2.246,1.646-4.117,3.449-5.27c4.511-2.882,11.483-0.997,15.226,4.114c0.001,0.001,0.002,0.002,0.003,0.003
	c0.184,0.251,0.393,0.473,0.61,0.679c0.041,0.038,0.08,0.078,0.122,0.114c0.215,0.19,0.442,0.359,0.683,0.506
	c0.046,0.029,0.094,0.054,0.141,0.081c0.509,0.291,1.059,0.487,1.627,0.585c0.05,0.009,0.099,0.019,0.148,0.026
	c0.234,0.033,0.471,0.056,0.708,0.056c0.037,0,0.074-0.008,0.111-0.008c0.087-0.002,0.172-0.014,0.259-0.021
	c0.21-0.015,0.418-0.042,0.626-0.084c0.099-0.02,0.196-0.043,0.294-0.069c0.203-0.055,0.402-0.125,0.601-0.206
	c0.086-0.036,0.173-0.066,0.258-0.106c0.275-0.132,0.545-0.283,0.801-0.47c1.393-1.019,2.104-2.623,2.044-4.227
	c-0.036-0.962-0.351-1.925-0.962-2.761c-1.924-2.631-2.723-5.778-2.186-8.634c0.42-2.244,1.645-4.115,3.449-5.267
	c4.512-2.883,11.486-0.998,15.23,4.116c1.629,2.229,4.758,2.713,6.986,1.082C242.709,74.117,243.193,70.988,241.563,68.76z"/>
<path fill="#FFFFFF" stroke="#FFFFFF" stroke-miterlimit="10" d="M325.379,293.032c-7.723,0-11.764-3.432-15.012-6.188
	c-2.701-2.295-4.486-3.812-8.539-3.812c-4.049,0-5.834,1.516-8.537,3.811c-3.246,2.758-7.287,6.189-15.014,6.189
	c-7.723,0-11.762-3.432-15.008-6.188c-2.703-2.295-4.488-3.812-8.539-3.812c-4.049,0-5.834,1.516-8.535,3.811
	c-3.246,2.758-7.287,6.189-15.01,6.189c-7.725,0-11.764-3.432-15.01-6.189c-2.703-2.295-4.488-3.811-8.537-3.811
	c-4.051,0-5.836,1.516-8.537,3.811c-3.246,2.758-7.285,6.189-15.01,6.189c-7.723,0-11.762-3.432-15.008-6.189
	c-2.702-2.295-4.486-3.811-8.536-3.811c-2.761,0-5-2.238-5-5s2.239-5,5-5c7.723,0,11.763,3.432,15.01,6.189
	c2.701,2.295,4.484,3.811,8.533,3.811c4.051,0,5.834-1.516,8.537-3.811c3.246-2.758,7.285-6.189,15.01-6.189
	c7.723,0,11.764,3.432,15.01,6.189c2.701,2.295,4.486,3.811,8.537,3.811c4.049,0,5.834-1.516,8.535-3.811
	c3.246-2.758,7.287-6.189,15.01-6.189c7.725,0,11.766,3.432,15.012,6.189c2.701,2.295,4.486,3.811,8.535,3.811
	c4.053,0,5.838-1.517,8.541-3.812c3.246-2.757,7.287-6.188,15.01-6.188c7.725,0,11.766,3.432,15.012,6.188
	c2.703,2.295,4.488,3.812,8.539,3.812c2.762,0,5,2.238,5,5S328.141,293.032,325.379,293.032z"/>
<path fill="#FFFFFF" stroke="#FFFFFF" stroke-miterlimit="10" d="M203.121,258.118c-7.725,0-11.766-3.432-15.014-6.189
	c-2.701-2.295-4.486-3.811-8.537-3.811c-4.052,0-5.837,1.517-8.54,3.812c-3.247,2.757-7.287,6.188-15.011,6.188
	c-7.723,0-11.763-3.432-15.01-6.189c-2.702-2.295-4.487-3.811-8.537-3.811c-4.049,0-5.834,1.516-8.536,3.811
	c-3.246,2.758-7.287,6.189-15.01,6.189c-7.724,0-11.764-3.432-15.01-6.189c-2.702-2.295-4.487-3.811-8.537-3.811
	c-4.05,0-5.834,1.516-8.536,3.811c-3.246,2.758-7.287,6.189-15.01,6.189c-7.723,0-11.762-3.432-15.008-6.189
	c-2.701-2.295-4.486-3.811-8.535-3.811c-2.761,0-5-2.238-5-5s2.239-5,5-5c7.723,0,11.763,3.432,15.009,6.189
	c2.701,2.295,4.485,3.811,8.534,3.811c4.05,0,5.834-1.516,8.536-3.811c3.246-2.758,7.286-6.189,15.01-6.189
	s11.764,3.432,15.011,6.189c2.702,2.295,4.487,3.811,8.537,3.811s5.834-1.516,8.536-3.811c3.246-2.758,7.286-6.189,15.01-6.189
	c7.724,0,11.764,3.432,15.011,6.189c2.702,2.295,4.487,3.811,8.536,3.811c4.051,0,5.836-1.516,8.538-3.811
	c3.247-2.758,7.288-6.189,15.013-6.189c7.725,0,11.764,3.432,15.012,6.188c2.701,2.295,4.486,3.812,8.539,3.812c2.76,0,5,2.238,5,5
	S205.881,258.118,203.121,258.118z"/>
<path fill="#FFFFFF" stroke="#FFFFFF" stroke-miterlimit="10" d="M152.052,188.632c-0.007,0-0.013,0-0.02,0H12.14
	c-1.645,0-3.184-0.809-4.117-2.162c-0.934-1.354-1.141-3.081-0.556-4.617l14.914-39.162c0.739-1.939,2.598-3.221,4.673-3.221h5.965
	c1.771,0,3.409,0.937,4.308,2.462l8.054,13.672c0.453,0.77,0.692,1.646,0.692,2.538v2.419l1.316,0.483l11.496-46.961
	c0.294-1.202,1.023-2.251,2.046-2.947l30.723-20.876c1.114-0.757,2.485-1.032,3.806-0.764c1.32,0.269,2.476,1.058,3.206,2.189
	l57.349,88.898c0.65,0.844,1.036,1.9,1.036,3.048C157.052,186.394,154.813,188.632,152.052,188.632z M19.395,178.632h123.462
	L93.04,101.41l-24.898,16.918l-12.369,50.528c-0.338,1.383-1.25,2.556-2.506,3.225c-1.258,0.669-2.739,0.771-4.075,0.28
	l-9.843-3.617c-1.968-0.724-3.275-2.597-3.275-4.693v-4.545l-5.706-9.687L19.395,178.632z"/>
<path fill="#FFFFFF" stroke="#FFFFFF" stroke-miterlimit="10" d="M190.785,188.632h-22.621c-1.555,0-3.021-0.724-3.967-1.957
	s-1.265-2.838-0.862-4.339l7.94-29.583c0.479-1.787,1.906-3.162,3.709-3.577c1.801-0.412,3.687,0.201,4.898,1.598l8.182,9.438
	c0.441,0.509,0.775,1.101,0.98,1.74l6.498,20.145c0.492,1.521,0.225,3.187-0.717,4.479
	C193.887,187.867,192.383,188.632,190.785,188.632z M174.684,178.632h9.234l-4.077-12.64l-1.347-1.555L174.684,178.632z"/>
<path fill="#FFFFFF" stroke="#FFFFFF" stroke-miterlimit="10" d="M337.859,188.632H206.916c-1.627,0-3.152-0.792-4.088-2.122
	c-0.938-1.33-1.168-3.032-0.619-4.564l14.615-40.799c0.713-1.987,2.596-3.313,4.707-3.313h11.814l15.992-11.477
	c0.85-0.61,1.869-0.938,2.916-0.938h30.125c1.221,0,2.4,0.447,3.314,1.256l31.102,27.523l12.383,3.776
	c1.33,0.405,2.432,1.347,3.039,2.598l10.141,20.876c0.752,1.55,0.654,3.377-0.26,4.838
	C341.184,187.745,339.582,188.632,337.859,188.632z M214.018,178.632h115.855l-5.697-11.729l-11.338-3.457
	c-0.686-0.209-1.318-0.563-1.855-1.038l-30.498-26.989h-26.623l-15.992,11.477c-0.85,0.61-1.869,0.938-2.916,0.938h-9.9
	L214.018,178.632z"/>
</svg>
