<?xml version="1.0" encoding="utf-8"?>
<!-- Generator: Adobe Illustrator 16.0.0, SVG Export Plug-In . SVG Version: 6.00 Build 0)  -->
<!DOCTYPE svg PUBLIC "-//W3C//DTD SVG 1.1//EN" "http://www.w3.org/Graphics/SVG/1.1/DTD/svg11.dtd">
<svg version="1.1" id="레이어_1" xmlns="http://www.w3.org/2000/svg" xmlns:xlink="http://www.w3.org/1999/xlink" x="0px"
	 y="0px" width="350px" height="300px" viewBox="0 0 350 300" enable-background="new 0 0 350 300" xml:space="preserve">
<path fill="#FFFFFF" stroke="#FFFFFF" stroke-miterlimit="10" d="M315.705,210.157c-2.762,0-5,2.238-5,5v17.803c0,2.762,2.238,5,5,5
	s5-2.238,5-5v-17.803C320.705,212.396,318.467,210.157,315.705,210.157z"/>
<path fill="#FFFFFF" stroke="#FFFFFF" stroke-miterlimit="10" d="M319.044,183.754c-14.865-8.936-41.416-19.587-83.483-19.587
	h-18.309l-38.684-51.637c-1.655-2.209-4.789-2.657-7-1.004c-2.21,1.656-2.659,4.79-1.003,7l34.193,45.641H77.669v-32.618
	c0-2.762-2.239-5-5-5s-5,2.238-5,5v32.618H32.608c-12.253,0-22.222,9.969-22.222,22.222v55.254c0,12.253,9.969,22.222,22.222,22.222
	h23.317c0.07,0,0.136-0.018,0.205-0.021c1.78,17.32,16.456,30.877,34.239,30.877c17.776,0,32.448-13.546,34.237-30.856h87.317
	c1.789,17.311,16.46,30.856,34.236,30.856c17.781,0,32.456-13.553,34.239-30.869c0.044,0.001,0.085,0.013,0.13,0.013h42.577
	c12.253,0,22.222-9.969,22.222-22.222v-27.627C345.328,207.05,337.104,194.608,319.044,183.754z M90.37,284.721
	c-13.466,0-24.421-10.955-24.421-24.421s10.955-24.421,24.421-24.421s24.421,10.955,24.421,24.421S103.835,284.721,90.37,284.721z
	 M246.16,284.721c-13.466,0-24.421-10.955-24.421-24.421s10.955-24.421,24.421-24.421s24.422,10.955,24.422,24.421
	S259.626,284.721,246.16,284.721z M335.328,241.643c0,6.739-5.482,12.222-12.222,12.222h-42.577c-0.188,0-0.367,0.035-0.55,0.056
	c-3.001-15.94-17.02-28.041-33.819-28.041c-16.78,0-30.785,12.072-33.809,27.985h-88.173c-3.023-15.913-17.029-27.985-33.809-27.985
	c-16.802,0-30.822,12.104-33.82,28.048c-0.207-0.025-0.411-0.063-0.625-0.063H32.608c-6.739,0-12.222-5.482-12.222-12.222v-55.254
	c0-6.739,5.482-12.222,12.222-12.222h202.952c39.633,0,64.367,9.811,78.137,18.041c16.14,9.646,21.574,19.501,21.631,21.808V241.643
	z"/>
<circle fill="#FFFFFF" stroke="#FFFFFF" stroke-miterlimit="10" cx="90.37" cy="260.3" r="5.125"/>
<circle fill="#FFFFFF" stroke="#FFFFFF" stroke-miterlimit="10" cx="245.369" cy="260.3" r="5.125"/>
</svg>
