<?xml version="1.0" encoding="utf-8"?>
<!-- Generator: Adobe Illustrator 16.0.0, SVG Export Plug-In . SVG Version: 6.00 Build 0)  -->
<!DOCTYPE svg PUBLIC "-//W3C//DTD SVG 1.1//EN" "http://www.w3.org/Graphics/SVG/1.1/DTD/svg11.dtd">
<svg version="1.1" id="레이어_1" xmlns="http://www.w3.org/2000/svg" xmlns:xlink="http://www.w3.org/1999/xlink" x="0px"
	 y="0px" width="350px" height="300px" viewBox="0 0 350 300" enable-background="new 0 0 350 300" xml:space="preserve">
<path fill="#FFFFFF" stroke="#FFFFFF" stroke-miterlimit="10" d="M316.55,189.834H84.75c-11.4,0-20-8.1-20-18.801
	c0-10.699,8.6-18.799,20-18.799h85.5c1.3,0,2.6-0.5,3.5-1.5l80.601-80.101l83.3,80.8c2,1.9,5.1,1.9,7.1-0.1c1.9-2,1.9-5.1-0.1-7.1
	l-86.8-84.2c-2-1.9-5.101-1.9-7,0l-36.7,36.5l-42.1-42.1c-1-1-2.3-1.5-3.6-1.5c-1.4,0-2.7,0.5-3.6,1.5l-27.1,27.1l-40.3-40.1
	c-0.9-0.9-2.2-1.5-3.5-1.5s-2.6,0.5-3.5,1.5l-78.7,78.7c-2,2-2,5.101,0,7.101s5.1,2,7.1,0l75.1-75.101l77.8,77.8
	c1,1,2.3,1.5,3.5,1.5c1.301,0,2.6-0.5,3.5-1.5c2-2,2-5.1,0-7.1l-34-34l23.5-23.5l38.5,38.5l-38.6,38.4h-83.4
	c-16.8,0-30,12.7-30,28.799s13.2,28.801,30,28.801h231.7c10.8,0,20,9.4,20,20.5s-9.2,20.5-20,20.5h-308c-2.8,0-5,2.199-5,5
	c0,2.799,2.2,5,5,5h308.1c16.5,0,30-13.701,30-30.5C346.55,203.533,333.05,189.834,316.55,189.834z"/>
</svg>
