<?xml version="1.0" encoding="utf-8"?>
<!-- Generator: Adobe Illustrator 16.0.0, SVG Export Plug-In . SVG Version: 6.00 Build 0)  -->
<!DOCTYPE svg PUBLIC "-//W3C//DTD SVG 1.1//EN" "http://www.w3.org/Graphics/SVG/1.1/DTD/svg11.dtd">
<svg version="1.1" id="레이어_1" xmlns="http://www.w3.org/2000/svg" xmlns:xlink="http://www.w3.org/1999/xlink" x="0px"
	 y="0px" width="350px" height="300px" viewBox="0 0 350 300" enable-background="new 0 0 350 300" xml:space="preserve">
<path fill="#FFFFFF" stroke="#FFFFFF" stroke-miterlimit="10" d="M345.422,286.062l-32.49-60.268
	c-0.873-1.618-2.563-2.627-4.401-2.627h-35.943v-17.759h45.554c1.771,0,3.408-0.936,4.308-2.461c0.898-1.524,0.924-3.411,0.067-4.96
	l-29.668-53.613h7.413c0.007,0,0.015,0,0.02,0c2.762,0,5-2.239,5-5c0-1.044-0.319-2.014-0.867-2.816l-33.775-59.862
	c-0.887-1.571-2.551-2.543-4.354-2.543s-3.468,0.972-4.354,2.543l-33.979,60.221c-0.874,1.548-0.859,3.443,0.037,4.979
	c0.896,1.535,2.54,2.479,4.317,2.479h7.415l-29.67,53.613c-0.856,1.549-0.831,3.436,0.067,4.96c0.899,1.525,2.537,2.461,4.308,2.461
	h48.163v17.759h-77.98h-19.062h-26.862c0.234-0.579,0.37-1.209,0.37-1.872v-19.044h45.555c1.771,0,3.408-0.936,4.308-2.461
	c0.898-1.524,0.924-3.411,0.067-4.96l-29.669-53.613h7.413c1.777,0,3.421-0.944,4.317-2.479c0.896-1.535,0.911-3.43,0.037-4.979
	l-33.978-60.221c-0.887-1.571-2.551-2.543-4.354-2.543s-3.468,0.972-4.354,2.543L94.415,133.76
	c-0.874,1.548-0.859,3.443,0.037,4.979c0.896,1.535,2.54,2.479,4.317,2.479h7.24l-8.083,14.013c-0.022-0.036-0.04-0.076-0.064-0.112
	l-28.336-50.219c-0.887-1.571-2.551-2.543-4.354-2.543s-3.468,0.972-4.354,2.543l-28.538,50.579
	c-0.874,1.548-0.859,3.443,0.037,4.979c0.896,1.534,2.54,2.479,4.317,2.479h4.868L17.24,206.776
	c-0.856,1.549-0.831,3.436,0.067,4.96c0.899,1.525,2.537,2.461,4.308,2.461h39.652v8.97H41.315c-1.842,0-3.535,1.013-4.406,2.636
	L4.572,286.07c-1.306,2.434-0.391,5.465,2.042,6.771c0.753,0.403,1.562,0.595,2.36,0.595c1.782,0,3.508-0.956,4.41-2.637
	l30.922-57.632h121.238h19.062h120.939l31.073,57.641c0.903,1.676,2.626,2.628,4.405,2.628c0.802,0,1.614-0.193,2.369-0.6
	C345.824,291.525,346.732,288.492,345.422,286.062z M252.575,141.795c0.856-1.549,0.831-3.435-0.067-4.96
	c-0.899-1.525-2.537-2.461-4.308-2.461h-7.334l25.417-45.046l25.416,45.046h-7.333c-1.771,0-3.408,0.936-4.308,2.461
	c-0.898,1.525-0.924,3.411-0.067,4.96l29.668,53.613h-86.754L252.575,141.795z M118.996,133.716
	c-0.894-1.546-2.544-2.499-4.33-2.499h-7.334l25.417-45.046l25.415,45.046h-7.332c-1.771,0-3.408,0.936-4.308,2.461
	c-0.898,1.525-0.924,3.411-0.067,4.96l29.669,53.613h-70.397c-0.216,0-0.421,0.037-0.629,0.063l-8.36-15.106
	c0.09-0.127,0.192-0.239,0.271-0.377l21.986-38.116C119.89,137.168,119.889,135.263,118.996,133.716z M93.482,162.935l-2.369,4.106
	l-2.272-4.106H93.482z M54.358,160.355c0.856-1.549,0.831-3.436-0.067-4.96c-0.899-1.524-2.537-2.461-4.308-2.461h-4.787
	l19.976-35.404l19.977,35.404h-4.789c-1.771,0-3.408,0.937-4.308,2.461c-0.898,1.524-0.924,3.411-0.067,4.96l24.262,43.842H30.097
	L54.358,160.355z M71.268,214.197h37.46c1.771,0,3.408-0.936,4.308-2.461c0.898-1.524,0.924-3.411,0.067-4.96l-2.504-4.525h18.454
	v19.044c0,0.663,0.136,1.293,0.37,1.872H71.268V214.197z"/>
</svg>
