<?xml version="1.0" encoding="utf-8"?>
<!-- Generator: Adobe Illustrator 16.0.0, SVG Export Plug-In . SVG Version: 6.00 Build 0)  -->
<!DOCTYPE svg PUBLIC "-//W3C//DTD SVG 1.1//EN" "http://www.w3.org/Graphics/SVG/1.1/DTD/svg11.dtd">
<svg version="1.1" id="레이어_1" xmlns="http://www.w3.org/2000/svg" xmlns:xlink="http://www.w3.org/1999/xlink" x="0px"
	 y="0px" width="350px" height="300px" viewBox="0 0 350 300" enable-background="new 0 0 350 300" xml:space="preserve">
<path fill="#FFFFFF" stroke="#FFFFFF" stroke-miterlimit="10" d="M176.949,201.022h-0.1c-2.2,0-4-1.801-4-4c0-2.101,1.7-3.9,3.801-4
	h0.5c2.1,0.1,3.8,1.899,3.8,4C180.95,199.222,179.149,201.022,176.949,201.022"/>
<path fill="#FFFFFF" stroke="#FFFFFF" stroke-miterlimit="10" d="M176.65,212.422c-15,0-27.201-11.7-27.201-26v-9.7
	c-5.3,1.7-13.3,2.601-20-3.3c-3.6-3.1-3.5-6.399-3.1-8c1.7-7.2,14.3-11.7,34-16.7c1.5-0.399,3.2-0.8,3.7-1c1-0.5,2.2-0.5,3.3,0
	c1.2,0.5,2,1.601,2.3,2.801c1,4.5,6.1,4.899,7.7,4.899c2.2,0,6-0.6,7.2-4.2c0-1,0.4-2,1.2-2.699c1.2-1.2,3-1.5,4.5-0.801
	c0.5,0.2,2.2,0.601,3.6,1c19.4,4.9,31.8,9.4,33.601,16.601c0.399,1.7,0.5,4.899-3.101,8.1c-7.1,6.101-15.6,4.9-21.1,3.101v9.899
	C203.149,200.722,191.25,212.422,176.65,212.422 M153.45,166.622c0.7,0,1.3,0.2,1.9,0.5c1.3,0.7,2.1,2,2.1,3.5v15.8
	c0,9.7,8.8,18,19.201,18c10.199,0,18.499-8.1,18.499-18v-15.8v-0.2c0-0.2,0-0.399-0.1-0.7c-0.1-1.899,1.1-3.5,2.9-4
	c1.8-0.5,3.699,0.301,4.6,1.9c2.7,1.3,10.8,4.6,16.4-0.3c0.199-0.2,0.3-0.3,0.399-0.4c-0.6-0.7-2.7-2.7-10.3-5.5
	c-6-2.2-12.8-3.899-17.2-5c-0.3-0.1-0.6-0.1-0.8-0.2c-2.5,4.5-7.5,7.2-13.7,7.2c-6.3,0-11.4-2.7-14-7.2c-0.3,0.101-0.7,0.2-1,0.301
	c-4.5,1.1-11.4,2.899-17.5,5c-7.8,2.8-10,4.8-10.5,5.5c0.1,0.1,0.2,0.199,0.4,0.399c6.8,5.9,16.6-0.1,16.7-0.1
	C152.05,166.822,152.75,166.622,153.45,166.622 M190.25,147.822c0.1,0,0.2,0.1,0.3,0.2
	C190.45,147.922,190.35,147.822,190.25,147.822 M164.05,147.822c-0.1,0.1-0.2,0.1-0.3,0.2
	C163.85,147.922,163.95,147.822,164.05,147.822"/>
<path fill="#FFFFFF" stroke="#FFFFFF" stroke-miterlimit="10" d="M168.15,171.222c1.325,0,2.4,1.075,2.4,2.4s-1.075,2.4-2.4,2.4
	c-1.326,0-2.4-1.075-2.4-2.4S166.824,171.222,168.15,171.222"/>
<path fill="#FFFFFF" stroke="#FFFFFF" stroke-miterlimit="10" d="M187.45,171.222c1.325,0,2.399,1.075,2.399,2.4
	s-1.074,2.4-2.399,2.4s-2.4-1.075-2.4-2.4S186.125,171.222,187.45,171.222"/>
<path fill="#FFFFFF" stroke="#FFFFFF" stroke-miterlimit="10" d="M88.95,188.922h-40.7v-11.5c0-2.8-2.2-5-5-5c-2.8,0-5,2.2-5,5v14.2
	l-24.7,14.4v-12.2c0-2.8-2.2-5-5-5s-5,2.2-5,5v54.8c0,2.8,2.2,5,5,5s5-2.2,5-5v-31.1l24.7-14.4v23.6c0,2.801,2.2,5,5,5
	c2.8,0,5-2.199,5-5v-27.899h40.7c2.8,0,5-2.2,5-5S91.65,188.922,88.95,188.922"/>
<path fill="#FFFFFF" stroke="#FFFFFF" stroke-miterlimit="10" d="M341.45,188.922c-2.801,0-5,2.2-5,5v11.5l-22.9-13.2v-14.8
	c0-2.8-2.2-5-5-5s-5,2.2-5,5v11.4h-40.7c-2.8,0-5,2.2-5,5s2.2,5,5,5h40.7v27.899c0,2.801,2.2,5,5,5s5-2.199,5-5v-23l22.9,13.2v31.7
	c0,2.8,2.199,5,5,5c2.8,0,5-2.2,5-5v-54.8C346.45,191.122,344.25,188.922,341.45,188.922"/>
<path fill="#FFFFFF" stroke="#FFFFFF" stroke-miterlimit="10" d="M259.35,161.022c2.101-2.7,4.601-5.801,4.601-9.9
	c0-4-2.4-7.1-4.601-9.9c-1.1-1.399-2.399-3.1-2.6-4c-0.2-1,0.5-3.1,1.1-4.899c1.101-3.3,2.3-6.9,0.9-10.601
	c-1.4-3.8-4.7-5.8-7.601-7.699c-1.5-0.9-3.3-2.101-3.8-3c-0.5-0.9-0.6-3-0.7-4.9c-0.1-3.4-0.3-7.3-2.8-10.4
	c-2.6-3-6.399-3.8-9.7-4.6c-1.8-0.4-3.899-0.8-4.699-1.5c-0.801-0.7-1.601-2.6-2.301-4.3c-1.3-3.2-2.699-6.8-6.199-8.8
	c-3.4-2-7.301-1.4-10.7-1c-1.9,0.3-4,0.6-4.9,0.2c-0.899-0.3-2.399-2-3.5-3.2c-2.3-2.6-4.899-5.5-8.899-6.2
	c-3.801-0.7-7.301,1.1-10.301,2.7c-1.699,0.9-3.6,1.9-4.6,1.9s-3-1-4.6-1.9c-3-1.6-6.4-3.4-10.3-2.7c-4,0.7-6.6,3.6-8.9,6.2
	c-1.2,1.3-2.6,2.9-3.6,3.3c-1,0.4-3.1,0.1-4.9-0.2c-3.4-0.5-7.2-1-10.7,1c-3.4,2-4.9,5.6-6.2,8.8c-0.7,1.7-1.5,3.7-2.3,4.3
	c-0.8,0.7-2.8,1.1-4.7,1.5c-3.4,0.7-7.2,1.5-9.7,4.6c-2.5,3-2.7,6.9-2.8,10.399c-0.1,1.9-0.1,4-0.7,4.9c-0.5,0.9-2.3,2-3.8,3
	c-2.9,1.8-6.3,3.9-7.6,7.7c-1.3,3.7-0.1,7.399,0.9,10.6c0.6,1.8,1.2,3.8,1.1,4.9c-0.2,1-1.5,2.7-2.6,4c-2.1,2.7-4.6,5.8-4.6,9.899
	c0,4,2.4,7.101,4.6,9.9c1.1,1.4,2.4,3.1,2.6,4c0.2,1-0.5,3.1-1.1,4.9c-1.1,3.3-2.3,6.899-0.9,10.6c1.4,3.8,4.7,5.8,7.6,7.7
	c1.5,0.899,3.3,2.1,3.8,3c0.5,0.899,0.6,3,0.7,4.899c0.1,3.4,0.3,7.301,2.8,10.4c2.6,3,6.4,3.8,9.7,4.6c1.8,0.4,3.9,0.801,4.7,1.5
	c0.8,0.7,1.6,2.601,2.3,4.301c1.3,3.199,3,6.8,6.5,8.8c1.2,0.7,3.2,1.1,3.2,1.3v7.5c0,9,6.6,16.3,15.5,16.3c9,0,15.5-7.3,15.5-16.3
	v-5.7h11v5.7c0,9,7.5,16.3,16.4,16.3c9,0,16.399-7.3,16.399-16.3v-7.3c3.7,0.1,5-0.101,7.3-1.4c3.4-2,5-5.6,6.301-8.8
	c0.699-1.7,1.5-3.7,2.3-4.3c0.8-0.7,2.899-1.101,4.7-1.5c3.399-0.7,7.199-1.5,9.699-4.601c2.5-3,2.7-6.899,2.801-10.399
	c0.1-1.9,0.1-4,0.699-4.9c0.5-0.899,2.4-2,3.801-3c2.899-1.8,6.3-3.899,7.6-7.7c1.3-3.699,0.1-7.399-0.9-10.6
	c-0.6-1.8-1.199-3.8-1.1-4.9C256.95,164.022,258.25,162.322,259.35,161.022 M252.35,155.522c-1.8,2.3-3.8,4.8-4.3,8
	c-0.6,3.199,0.5,6.399,1.4,9.1c0.5,1.6,1.3,4,1,4.9c-0.301,0.899-2.4,2.199-4,3.199c-2.4,1.5-5.2,3.301-6.801,6
	c-1.6,2.801-1.699,6.101-1.899,9c-0.101,1.801-0.2,4.301-0.7,5c-0.6,0.7-3,1.2-4.8,1.601c-2.8,0.6-6.101,1.3-8.5,3.399
	c-2.5,2.101-3.7,5.101-4.8,7.801c-0.7,1.699-1.601,4-2.4,4.399c-1.6,0.9-4.3,0.5-7,0.2c-0.3,0-1.2-0.1-2.1,0.2
	c-0.9,0.3-1.5,0.899-1.7,1.1c-1.3,1.3-1.4,3-1.4,3.5v1.4v1.3v0.8v7.9c0,4.1-3.2,7.399-7.3,7.399s-7.3-3.3-7.3-7.399v-10v-0.601v-0.1
	c0-2.5-2.2-5.9-4.7-5.9h-19.6c-2.5,0-5,3.4-5,5.9v0.1v0.601v10c0,4.1-3.2,7.399-7.3,7.399s-7.3-3.3-7.3-7.399v-8.8v-1.301v-1.399
	c0-2.4-1-5.2-3.5-5.2c-1.8,0-2.1,0.3-2.9-0.1c-0.8-0.5-1.8-2.601-2.4-4.301c-1.1-2.699-2.3-5.6-4.8-7.699
	c-2.5-2.101-5.7-2.7-8.5-3.301c-1.8-0.399-4.2-0.899-4.8-1.6s-0.7-3.1-0.7-4.9c-0.1-2.899-0.2-6.199-1.9-9c-1.6-2.8-4.4-4.5-6.8-6
	c-1.5-1-3.7-2.3-4-3.199c-0.3-0.801,0.5-3.2,1-4.9c0.9-2.8,1.9-5.9,1.4-9.1c-0.6-3.101-2.6-5.7-4.3-8c-1.1-1.4-2.7-3.4-2.7-4.4
	s1.5-3,2.7-4.4c1.8-2.3,3.8-4.8,4.3-8c0.6-3.199-0.5-6.399-1.4-9.1c-0.5-1.6-1.3-4-1-4.9c0.3-0.899,2.4-2.199,4-3.199
	c2.4-1.5,5.2-3.301,6.8-6c1.6-2.801,1.7-6.101,1.9-9c0.1-1.801,0.2-4.3,0.7-5c0.6-0.7,3-1.2,4.8-1.6c2.8-0.6,6.1-1.3,8.5-3.4
	c2.5-2.1,3.7-5.1,4.8-7.8c0.7-1.7,1.6-4,2.4-4.4c0.8-0.4,3.2-0.1,5,0.1c2.9,0.4,6.1,0.9,9.2-0.3c3-1.1,5.2-3.5,7.1-5.7
	c1.2-1.4,2.9-3.2,3.8-3.4c0.8-0.2,3.1,1,4.6,1.8c2.6,1.4,5.5,2.9,8.799,2.9c3.301,0,6.2-1.6,8.801-2.9c1.5-0.8,3.7-2,4.6-1.8
	c0.9,0.2,2.601,2,3.8,3.4c1.9,2.1,4.101,4.6,7.101,5.7c3.1,1.1,6.3,0.7,9.2,0.3c1.8-0.2,4.199-0.6,5-0.1
	c0.8,0.5,1.699,2.8,2.399,4.4c1.101,2.7,2.3,5.7,4.8,7.8s5.7,2.8,8.5,3.4c1.801,0.4,4.2,0.9,4.801,1.6c0.6,0.7,0.699,3.2,0.699,5
	c0.101,2.899,0.2,6.199,1.801,9c1.6,2.8,4.399,4.5,6.8,6c1.5,1,3.7,2.3,4,3.199c0.3,0.801-0.5,3.2-1,4.9c-0.9,2.8-1.9,5.9-1.4,9.1
	c0.5,3.101,2.601,5.7,4.3,8c1.101,1.4,2.7,3.4,2.7,4.4C255.05,152.122,253.45,154.122,252.35,155.522"/>
</svg>
