<?xml version="1.0" encoding="utf-8"?>
<!-- Generator: Adobe Illustrator 16.0.0, SVG Export Plug-In . SVG Version: 6.00 Build 0)  -->
<!DOCTYPE svg PUBLIC "-//W3C//DTD SVG 1.1//EN" "http://www.w3.org/Graphics/SVG/1.1/DTD/svg11.dtd">
<svg version="1.1" id="레이어_1" xmlns="http://www.w3.org/2000/svg" xmlns:xlink="http://www.w3.org/1999/xlink" x="0px"
	 y="0px" width="350px" height="300px" viewBox="0 0 350 300" enable-background="new 0 0 350 300" xml:space="preserve">
<path fill="#FFFFFF" stroke="#FFFFFF" stroke-miterlimit="10" d="M65.864,24.347c2.761,0,5-2.238,5-5V9.173c0-2.762-2.239-5-5-5
	s-5,2.238-5,5v10.174C60.864,22.108,63.103,24.347,65.864,24.347z"/>
<path fill="#FFFFFF" stroke="#FFFFFF" stroke-miterlimit="10" d="M37.948,28.069c0.926,1.604,2.606,2.501,4.335,2.501
	c0.848,0,1.708-0.216,2.495-0.671c2.392-1.38,3.211-4.438,1.831-6.83l-4.833-8.373c-1.38-2.392-4.438-3.214-6.83-1.83
	c-2.392,1.38-3.211,4.438-1.831,6.83L37.948,28.069z"/>
<path fill="#FFFFFF" stroke="#FFFFFF" stroke-miterlimit="10" d="M14.124,42.124l8.375,4.835c0.788,0.455,1.647,0.671,2.495,0.671
	c1.728,0,3.409-0.897,4.335-2.501c1.381-2.392,0.562-5.449-1.83-6.83l-8.375-4.835c-2.392-1.382-5.45-0.561-6.83,1.83
	C10.913,37.686,11.732,40.743,14.124,42.124z"/>
<path fill="#FFFFFF" stroke="#FFFFFF" stroke-miterlimit="10" d="M24.358,65.852c0-2.762-2.239-5-5-5H9.187c-2.761,0-5,2.238-5,5
	s2.239,5,5,5h10.172C22.12,70.852,24.358,68.613,24.358,65.852z"/>
<path fill="#FFFFFF" stroke="#FFFFFF" stroke-miterlimit="10" d="M18.328,98.896l8.372-4.834c2.391-1.381,3.21-4.438,1.83-6.83
	c-1.381-2.393-4.439-3.213-6.831-1.83l-8.372,4.834c-2.391,1.381-3.21,4.438-1.83,6.83c0.926,1.604,2.607,2.501,4.335,2.501
	C16.681,99.566,17.541,99.351,18.328,98.896z"/>
<path fill="#FFFFFF" stroke="#FFFFFF" stroke-miterlimit="10" d="M37.092,104.733l-4.833,8.372c-1.381,2.392-0.562,5.449,1.83,6.83
	c0.788,0.455,1.647,0.671,2.495,0.671c1.728,0,3.409-0.897,4.335-2.501l4.833-8.372c1.381-2.392,0.562-5.449-1.83-6.83
	C41.529,101.521,38.472,102.343,37.092,104.733z"/>
<path fill="#FFFFFF" stroke="#FFFFFF" stroke-miterlimit="10" d="M65.087,108.782C65.086,108.782,65.086,108.782,65.087,108.782
	c-2.762,0.001-5,2.239-5,5.001l0.002,9.665c0,2.761,2.239,4.999,5,4.999c0,0,0,0,0.001,0c2.761-0.001,5-2.239,4.999-5.001
	l-0.002-9.665C70.086,111.021,67.848,108.782,65.087,108.782z"/>
<path fill="#FFFFFF" stroke="#FFFFFF" stroke-miterlimit="10" d="M86.355,103.289c-2.391,1.381-3.21,4.438-1.829,6.83l4.834,8.369
	c0.926,1.604,2.606,2.5,4.334,2.5c0.848,0,1.708-0.217,2.496-0.672c2.391-1.381,3.21-4.438,1.829-6.83l-4.834-8.369
	C91.804,102.727,88.747,101.906,86.355,103.289z"/>
<path fill="#FFFFFF" stroke="#FFFFFF" stroke-miterlimit="10" d="M103.859,94.728l8.373,4.831c0.787,0.454,1.646,0.67,2.494,0.67
	c1.729,0,3.41-0.897,4.335-2.502c1.38-2.392,0.56-5.449-1.832-6.83l-8.373-4.831c-2.393-1.382-5.451-0.56-6.83,1.832
	C100.647,90.289,101.468,93.347,103.859,94.728z"/>
<path fill="#FFFFFF" stroke="#FFFFFF" stroke-miterlimit="10" d="M107.905,66.732c0,2.761,2.239,4.999,5,4.999c0,0,0,0,0.001,0
	l9.667-0.002c2.761-0.001,5-2.239,4.999-5.001c0-2.761-2.239-4.999-5-4.999c0,0,0,0-0.001,0l-9.667,0.002
	C110.143,61.732,107.905,63.971,107.905,66.732z"/>
<path fill="#FFFFFF" stroke="#FFFFFF" stroke-miterlimit="10" d="M106.748,47.962c0.848,0,1.708-0.217,2.496-0.671l8.371-4.834
	c2.391-1.381,3.21-4.439,1.83-6.83c-1.381-2.393-4.439-3.211-6.831-1.83l-8.371,4.834c-2.391,1.381-3.21,4.439-1.83,6.83
	C103.339,47.065,105.02,47.962,106.748,47.962z"/>
<path fill="#FFFFFF" stroke="#FFFFFF" stroke-miterlimit="10" d="M87.023,29.791c0.787,0.454,1.646,0.67,2.494,0.67
	c1.729,0,3.41-0.897,4.336-2.503l4.831-8.374c1.38-2.392,0.559-5.449-1.833-6.829c-2.393-1.38-5.45-0.56-6.83,1.833l-4.831,8.374
	C83.811,25.354,84.632,28.411,87.023,29.791z"/>
<path fill="#FFFFFF" stroke="#FFFFFF" stroke-miterlimit="10" d="M65.471,101.257c19.25,0,34.911-15.66,34.911-34.91
	c0-19.251-15.661-34.912-34.911-34.912S30.561,47.096,30.561,66.347C30.561,85.597,46.221,101.257,65.471,101.257z M65.471,41.435
	c13.736,0,24.911,11.176,24.911,24.912c0,13.735-11.175,24.91-24.911,24.91s-24.911-11.175-24.911-24.91
	C40.561,52.61,51.735,41.435,65.471,41.435z"/>
<path fill="#FFFFFF" stroke="#FFFFFF" stroke-miterlimit="10" d="M340.813,285.827H296.96V76.021c0-2.762-2.238-5-5-5H180.039
	c-2.762,0-5,2.238-5,5v82.561H80.056c-1.541,0-2.996,0.711-3.943,1.926l-41.902,53.756c-1.175,1.507-1.388,3.552-0.549,5.269
	s2.582,2.806,4.493,2.806h22.725v63.49H19.6c-2.761,0-5,2.238-5,5s2.239,5,5,5h321.213c2.762,0,5-2.238,5-5
	S343.574,285.827,340.813,285.827z M132.152,168.581l-12.473,16.002h-18.376l12.473-16.002H132.152z M163.208,168.581
	l-12.545,16.094c-0.295-0.055-0.596-0.092-0.907-0.092h-17.398l12.474-16.002H163.208z M175.039,169.67v42.666h-33.258
	L175.039,169.67z M129.101,212.336h-18.375l13.838-17.753h18.376L129.101,212.336z M111.884,194.583l-13.838,17.753H79.67
	l13.838-17.753H111.884z M185.039,81.021H286.96v203.235H185.039v-66.92V81.021z M82.499,168.581h18.598l-12.473,16.002H70.025
	L82.499,168.581z M62.23,194.583h18.599l-13.838,17.753h-1.112c-0.003,0-0.006,0.001-0.01,0.001H48.391L62.23,194.583z
	 M175.039,222.337v61.919H70.879v-61.919H175.039z"/>
<path fill="#FFFFFF" stroke="#FFFFFF" stroke-miterlimit="10" d="M93.859,246.926h6.843c2.761,0,5-2.238,5-5s-2.239-5-5-5h-6.843
	c-2.761,0-5,2.238-5,5S91.098,246.926,93.859,246.926z"/>
<path fill="#FFFFFF" stroke="#FFFFFF" stroke-miterlimit="10" d="M146.335,246.926h6.842c2.761,0,5-2.238,5-5s-2.239-5-5-5h-6.842
	c-2.761,0-5,2.238-5,5S143.574,246.926,146.335,246.926z"/>
<path fill="#FFFFFF" stroke="#FFFFFF" stroke-miterlimit="10" d="M202.911,114.81h18.165c2.762,0,5-2.238,5-5s-2.238-5-5-5h-18.165
	c-2.762,0-5,2.238-5,5S200.149,114.81,202.911,114.81z"/>
<path fill="#FFFFFF" stroke="#FFFFFF" stroke-miterlimit="10" d="M249.173,114.81h18.164c2.762,0,5-2.238,5-5s-2.238-5-5-5h-18.164
	c-2.762,0-5,2.238-5,5S246.411,114.81,249.173,114.81z"/>
<path fill="#FFFFFF" stroke="#FFFFFF" stroke-miterlimit="10" d="M202.911,160.697h18.165c2.762,0,5-2.238,5-5s-2.238-5-5-5h-18.165
	c-2.762,0-5,2.238-5,5S200.149,160.697,202.911,160.697z"/>
<path fill="#FFFFFF" stroke="#FFFFFF" stroke-miterlimit="10" d="M249.173,160.697h18.164c2.762,0,5-2.238,5-5s-2.238-5-5-5h-18.164
	c-2.762,0-5,2.238-5,5S246.411,160.697,249.173,160.697z"/>
<path fill="#FFFFFF" stroke="#FFFFFF" stroke-miterlimit="10" d="M202.911,206.585h18.165c2.762,0,5-2.238,5-5s-2.238-5-5-5h-18.165
	c-2.762,0-5,2.238-5,5S200.149,206.585,202.911,206.585z"/>
<path fill="#FFFFFF" stroke="#FFFFFF" stroke-miterlimit="10" d="M249.173,206.585h18.164c2.762,0,5-2.238,5-5s-2.238-5-5-5h-18.164
	c-2.762,0-5,2.238-5,5S246.411,206.585,249.173,206.585z"/>
<path fill="#FFFFFF" stroke="#FFFFFF" stroke-miterlimit="10" d="M202.911,252.472h18.165c2.762,0,5-2.238,5-5s-2.238-5-5-5h-18.165
	c-2.762,0-5,2.238-5,5S200.149,252.472,202.911,252.472z"/>
<path fill="#FFFFFF" stroke="#FFFFFF" stroke-miterlimit="10" d="M249.173,252.472h18.164c2.762,0,5-2.238,5-5s-2.238-5-5-5h-18.164
	c-2.762,0-5,2.238-5,5S246.411,252.472,249.173,252.472z"/>
<path fill="#FFFFFF" stroke="#FFFFFF" stroke-miterlimit="10" d="M187.004,65.489c0.817,0,1.646-0.201,2.412-0.624l17.579-9.708
	v7.135c0,2.762,2.238,5,5,5s5-2.238,5-5V49.634l22.411-12.377c2.418-1.335,3.295-4.377,1.96-6.794
	c-1.336-2.418-4.378-3.294-6.794-1.96l-49.99,27.608c-2.418,1.335-3.295,4.377-1.96,6.794
	C183.534,64.557,185.242,65.489,187.004,65.489z"/>
</svg>
