<?xml version="1.0" encoding="utf-8"?>
<!-- Generator: Adobe Illustrator 16.0.0, SVG Export Plug-In . SVG Version: 6.00 Build 0)  -->
<!DOCTYPE svg PUBLIC "-//W3C//DTD SVG 1.1//EN" "http://www.w3.org/Graphics/SVG/1.1/DTD/svg11.dtd">
<svg version="1.1" id="레이어_1" xmlns="http://www.w3.org/2000/svg" xmlns:xlink="http://www.w3.org/1999/xlink" x="0px"
	 y="0px" width="350px" height="300px" viewBox="0 0 350 300" enable-background="new 0 0 350 300" xml:space="preserve">
<path fill="#FFFFFF" stroke="#FFFFFF" stroke-miterlimit="10" d="M194.678,32.014c0,0,1.299-8.3,6.6-15.8
	c5.3-7.6,12.6-11.6,12.6-11.6s-1.3,8.2-6.6,15.8C201.977,27.914,194.678,32.014,194.678,32.014"/>
<path fill="#FFFFFF" stroke="#FFFFFF" stroke-miterlimit="10" d="M197.277,37.214c0,0,5.5-6.3,14.1-9.8c8.5-3.5,16.9-3,16.9-3
	s-5.5,6.3-14.1,9.8C205.577,37.814,197.277,37.214,197.277,37.214"/>
<path fill="#FFFFFF" stroke="#FFFFFF" stroke-miterlimit="10" d="M201.777,100.314c0,2.8-2.2,5-5,5h-22c-2.8,0-5-2.2-5-5v-58
	c0-2.8,2.2-5,5-5h22c2.8,0,5,2.2,5,5V100.314z M179.777,95.314h12v-48h-12V95.314z"/>
<path fill="#FFFFFF" stroke="#FFFFFF" stroke-miterlimit="10" d="M201.777,178.314c0,2.799-2.2,5-5,5h-22c-2.8,0-5-2.201-5-5v-66
	c0-2.8,2.2-5,5-5h22c2.8,0,5,2.2,5,5V178.314z M179.777,173.314h12v-56h-12V173.314z"/>
<path fill="#FFFFFF" stroke="#FFFFFF" stroke-miterlimit="10" d="M201.777,271.314c0,2.799-2.2,5-5,5h-22c-2.8,0-5-2.201-5-5v-80
	c0-2.801,2.2-5,5-5h22c2.8,0,5,2.199,5,5V271.314z M179.777,266.314h12v-70h-12V266.314z"/>
<path fill="#FFFFFF" stroke="#FFFFFF" stroke-miterlimit="10" d="M239.077,161.715h-0.2l-18.1-0.602c-1.301,0-2.6-0.6-3.5-1.6
	s-1.4-2.299-1.301-3.6l1.701-50.3c0.1-2.8,2.399-4.9,5.199-4.8l18.101,0.6c1.3,0,2.6,0.6,3.5,1.6c0.899,1,1.399,2.3,1.3,3.6
	l-1.7,50.3C243.978,159.613,241.777,161.715,239.077,161.715 M226.077,151.314l8.101,0.299l1.399-40.299l-8.101-0.3L226.077,151.314
	z"/>
<path fill="#FFFFFF" stroke="#FFFFFF" stroke-miterlimit="10" d="M235.777,275.414h-0.2l-18.101-0.6
	c-2.799-0.1-4.899-2.4-4.799-5.201l1.299-37.6c0-1.299,0.601-2.6,1.601-3.5s2.3-1.4,3.601-1.299l18.1,0.6c1.3,0,2.6,0.6,3.5,1.6
	c0.899,1,1.399,2.301,1.3,3.6l-1.3,37.6C240.777,273.314,238.477,275.414,235.777,275.414 M222.877,265.014l8.1,0.301l0.9-27.6
	l-8.1-0.301L222.877,265.014z"/>
<path fill="#FFFFFF" stroke="#FFFFFF" stroke-miterlimit="10" d="M237.477,226.314h-0.199l-18.1-0.6
	c-2.801-0.102-4.9-2.4-4.801-5.201l1.7-49c0.101-2.799,2.399-4.9,5.2-4.799l18.1,0.6c1.3,0,2.601,0.6,3.5,1.6
	c0.9,1,1.4,2.301,1.3,3.6l-1.699,49c0,1.301-0.601,2.6-1.601,3.5C239.978,225.914,238.777,226.314,237.477,226.314 M224.577,215.914
	l8.101,0.301l1.299-39l-8.1-0.301L224.577,215.914z"/>
<path fill="#FFFFFF" stroke="#FFFFFF" stroke-miterlimit="10" d="M246.877,169.215c0,0,3-6.701,9.2-11.801
	c6.2-5.199,13.3-6.9,13.3-6.9s-3,6.701-9.2,11.8C253.978,167.514,246.877,169.215,246.877,169.215"/>
<path fill="#FFFFFF" stroke="#FFFFFF" stroke-miterlimit="10" d="M247.877,174.314c0,0,6.101-4,14.101-5s14.899,1.4,14.899,1.4
	s-6.1,4-14.1,5S247.877,174.314,247.877,174.314"/>
<path fill="#FFFFFF" stroke="#FFFFFF" stroke-miterlimit="10" d="M102.077,183.113c-1.1,0-2.1-0.398-3-1c-1.1-0.799-1.8-2-1.9-3.299
	l-6.9-49.8c-0.2-1.3,0.2-2.6,1-3.7c0.8-1.1,2-1.8,3.3-1.9l18-2.5c2.7-0.4,5.3,1.5,5.6,4.3l7,49.8c0.2,1.301-0.2,2.6-1,3.701
	c-0.8,1.1-2,1.799-3.3,1.898l-18,2.5C102.577,183.113,102.377,183.113,102.077,183.113 M100.777,132.514l5.6,39.9l8.1-1.1l-5.6-39.9
	L100.777,132.514z"/>
<path fill="#FFFFFF" stroke="#FFFFFF" stroke-miterlimit="10" d="M117.177,295.814c-2.5,0-4.6-1.801-4.9-4.301l-5.2-37.199
	c-0.2-1.301,0.2-2.6,1-3.701c0.8-1.1,2-1.799,3.3-1.898l18-2.5c1.3-0.201,2.6,0.199,3.7,1c1.1,0.799,1.8,2,1.9,3.299l5.2,37.201
	c0.4,2.699-1.5,5.299-4.3,5.6l-18,2.5C117.677,295.814,117.377,295.814,117.177,295.814 M117.677,257.814l3.8,27.299l8.1-1.1
	l-3.8-27.299L117.677,257.814z"/>
<path fill="#FFFFFF" stroke="#FFFFFF" stroke-miterlimit="10" d="M110.377,247.215c-1.1,0-2.1-0.4-3-1c-1.1-0.801-1.8-2-1.9-3.301
	l-6.8-48.5c-0.2-1.301,0.2-2.6,1-3.699c0.8-1.102,2-1.801,3.3-1.9l18-2.5c2.7-0.4,5.3,1.5,5.6,4.299l6.8,48.5
	c0.4,2.701-1.5,5.301-4.3,5.602l-18,2.5C110.877,247.215,110.677,247.215,110.377,247.215 M109.277,197.914l5.4,38.6l8.1-1.1
	l-5.5-38.6L109.277,197.914z"/>
<path fill="#FFFFFF" stroke="#FFFFFF" stroke-miterlimit="10" d="M95.577,191.314c0,0-3.7-6.301-10.4-10.801c-6.7-4.5-14-5.4-14-5.4
	s3.7,6.301,10.4,10.801C88.377,190.414,95.577,191.314,95.577,191.314"/>
<path fill="#FFFFFF" stroke="#FFFFFF" stroke-miterlimit="10" d="M95.177,196.414c0,0-6.5-3.301-14.6-3.4s-14.7,3-14.7,3
	s6.5,3.301,14.6,3.5C88.577,199.514,95.177,196.414,95.177,196.414"/>
<path fill="#FFFFFF" stroke="#FFFFFF" stroke-miterlimit="10" d="M144.077,244.414c0,0,7-1.699,13.2-6.699
	c6.2-5.102,9.2-11.701,9.2-11.701s-7,1.701-13.2,6.701C147.077,237.814,144.077,244.414,144.077,244.414"/>
<path fill="#FFFFFF" stroke="#FFFFFF" stroke-miterlimit="10" d="M139.377,242.514c0,0,5-5.199,7.5-12.799
	c2.5-7.602,1.4-14.801,1.4-14.801s-5,5.199-7.5,12.801C138.377,235.314,139.377,242.514,139.377,242.514"/>
</svg>
