<?xml version="1.0" encoding="utf-8"?>
<!-- Generator: Adobe Illustrator 16.0.0, SVG Export Plug-In . SVG Version: 6.00 Build 0)  -->
<!DOCTYPE svg PUBLIC "-//W3C//DTD SVG 1.1//EN" "http://www.w3.org/Graphics/SVG/1.1/DTD/svg11.dtd">
<svg version="1.1" id="레이어_1" xmlns="http://www.w3.org/2000/svg" xmlns:xlink="http://www.w3.org/1999/xlink" x="0px"
	 y="0px" width="350px" height="300px" viewBox="0 0 350 300" enable-background="new 0 0 350 300" xml:space="preserve">
<path fill="#FFFFFF" stroke="#FFFFFF" stroke-miterlimit="10" d="M90.129,174.274c-2.621,0-4.823,2.202-4.823,4.824v5.348
	c0,2.621,2.202,4.823,4.823,4.823c2.622,0,4.824-2.202,4.824-4.823v-5.348C94.953,176.477,92.75,174.274,90.129,174.274"/>
<path fill="#FFFFFF" stroke="#FFFFFF" stroke-miterlimit="10" d="M115.924,174.274c-2.622,0-4.824,2.202-4.824,4.824v5.348
	c0,2.621,2.202,4.823,4.824,4.823s4.823-2.202,4.823-4.823v-5.348C120.748,176.477,118.546,174.274,115.924,174.274"/>
<path fill="#FFFFFF" stroke="#FFFFFF" stroke-miterlimit="10" d="M141.719,174.274c-2.622,0-4.823,2.202-4.823,4.824v5.348
	c0,2.621,2.202,4.823,4.823,4.823s4.824-2.202,4.824-4.823v-5.348C146.543,176.477,144.446,174.274,141.719,174.274"/>
<path fill="#FFFFFF" stroke="#FFFFFF" stroke-miterlimit="10" d="M184.606,199.126c2.622,0,4.823-2.201,4.823-4.823v-5.349
	c0-2.621-2.201-4.822-4.823-4.822c-2.621,0-4.823,2.201-4.823,4.822v5.349C179.888,196.925,181.985,199.126,184.606,199.126"/>
<path fill="#FFFFFF" stroke="#FFFFFF" stroke-miterlimit="10" d="M209.667,199.126c2.622,0,4.824-2.201,4.824-4.823v-5.349
	c0-2.621-2.202-4.822-4.824-4.822c-2.621,0-4.823,2.201-4.823,4.822v5.349C204.844,196.925,207.046,199.126,209.667,199.126"/>
<path fill="#FFFFFF" stroke="#FFFFFF" stroke-miterlimit="10" d="M238.294,199.126c2.622,0,4.823-2.201,4.823-4.823v-5.349
	c0-2.621-2.201-4.822-4.823-4.822c-2.621,0-4.823,2.201-4.823,4.822v5.349C233.471,196.925,235.673,199.126,238.294,199.126"/>
<path fill="#FFFFFF" stroke="#FFFFFF" stroke-miterlimit="10" d="M343.886,269.066c-2.516,0-3.564-1.048-5.871-3.565
	c-2.727-2.936-6.396-6.92-13.632-6.92c-3.355,0-5.978,0.944-8.074,2.097l-29.989-55.47c-0.944-1.678-2.727-2.727-4.614-2.727
	h-15.623v-21.811h13.632c1.991,0,3.879-1.153,4.718-3.041c0.839-1.887,0.524-4.089-0.733-5.558l-24.433-28.731
	c-1.048-1.153-2.412-1.887-3.985-1.887h-62.915V91.227h3.462c1.887,0,3.564-0.943,4.508-2.516c0.943-1.573,0.943-3.565,0.104-5.138
	l-27.263-50.856V19.818h5.139c2.936,0,5.242-2.307,5.242-5.243c0-2.936-2.307-5.243-5.242-5.243h-5.139V5.767
	c0-2.936-2.307-5.243-5.243-5.243c-2.936,0-5.243,2.307-5.243,5.243v3.565h-5.138c-2.936,0-5.243,2.307-5.243,5.243
	c0,2.937,2.307,5.243,5.243,5.243h5.138v12.792l-27.263,50.856c-0.839,1.573-0.839,3.565,0.105,5.138
	c0.943,1.573,2.622,2.517,4.509,2.517h4.089v32.296H76.078c-1.888,0-3.565,1.049-4.509,2.622l-18.56,32.297
	c-0.944,1.572-0.944,3.67,0,5.243c0.944,1.572,2.622,2.621,4.509,2.621h5.872v36.176H47.557c-1.887,0-3.67,1.049-4.614,2.727
	l-32.192,59.244c-1.363,2.518-0.419,5.768,2.097,7.131c2.517,1.362,5.768,0.42,7.131-2.098l30.723-56.518h227.963l29.675,54.945
	c-1.049,0.734-1.993,1.153-3.355,1.153c-2.518,0-3.566-1.048-5.872-3.565c-2.727-2.936-6.397-6.92-13.632-6.92
	c-7.235,0-10.905,3.984-13.632,6.92c-2.412,2.518-3.461,3.565-5.872,3.565c-2.517,0-3.564-1.048-5.872-3.565
	c-2.727-2.936-6.396-6.92-13.632-6.92c-7.13,0-10.905,3.984-13.631,6.92c-2.412,2.518-3.46,3.565-5.873,3.565
	c-2.411,0-3.564-1.048-5.871-3.565c-2.727-2.936-6.396-6.92-13.632-6.92c-2.937,0-5.243,2.306-5.243,5.243
	c0,2.936,2.307,5.242,5.243,5.242c2.517,0,3.565,1.049,5.871,3.565c2.728,2.936,6.397,6.921,13.632,6.921
	c7.131,0,10.906-3.985,13.632-6.921c2.412-2.517,3.461-3.565,5.872-3.565c2.517,0,3.565,1.049,5.872,3.565
	c2.727,2.936,6.397,6.921,13.632,6.921c7.13,0,10.905-3.985,13.632-6.921c2.411-2.517,3.46-3.565,5.872-3.565
	s3.564,1.049,5.872,3.565c2.726,2.936,6.396,6.921,13.632,6.921c7.13,0,10.905-3.985,13.631-6.921
	c2.412-2.517,3.46-3.565,5.872-3.565s3.565,1.049,5.872,3.565c2.727,2.936,6.396,6.921,13.632,6.921
	c2.937,0,5.243-2.308,5.243-5.243C349.234,271.269,346.823,269.066,343.886,269.066 M255.596,202.586H170.87v-21.811h84.726V202.586
	z M268.388,170.186H170.87v-3.88h4.719c1.887,0,3.565-1.049,4.509-2.622c0.943-1.677,0.943-3.67,0-5.242l-3.775-6.502h76.547
	L268.388,170.186z M167.934,44.984l18.98,35.442h-37.435h-0.42L167.934,44.984z M154.722,91.227h27.263v50.228h-11.745
	l-9.018-15.414c-0.944-1.573-2.622-2.622-4.509-2.622h-1.992V91.227z M79.119,134.009h74.554l12.792,21.81H66.641L79.119,134.009z
	 M73.876,166.306h86.508v36.176H73.876V166.306z"/>
<path fill="#FFFFFF" stroke="#FFFFFF" stroke-miterlimit="10" d="M156.399,288.99c-3.041,0-4.509-1.259-7.025-3.774
	c-2.936-2.832-6.92-6.712-14.366-6.712c-7.445,0-11.534,3.88-14.365,6.712c-2.622,2.516-3.985,3.774-7.026,3.774
	c-3.041,0-4.509-1.259-7.025-3.774c-2.936-2.832-6.92-6.712-14.366-6.712c-7.445,0-11.534,3.88-14.366,6.712
	c-2.621,2.516-3.984,3.774-7.025,3.774c-3.042,0-4.509-1.259-7.026-3.774c-2.936-2.832-6.921-6.712-14.366-6.712
	s-11.535,3.88-14.365,6.712c-2.622,2.516-3.985,3.774-7.026,3.774c-3.041,0-4.509-1.259-7.025-3.774
	c-2.936-2.832-6.92-6.712-14.366-6.712c-2.936,0-5.243,2.308-5.243,5.243s2.307,5.243,5.243,5.243c3.041,0,4.509,1.258,7.026,3.774
	c2.936,2.831,6.92,6.711,14.365,6.711c7.55,0,11.535-3.88,14.366-6.711c2.622-2.517,3.984-3.774,7.025-3.774
	s4.509,1.258,7.026,3.774c2.936,2.831,6.92,6.711,14.366,6.711c7.444,0,11.534-3.88,14.365-6.711
	c2.622-2.517,3.985-3.774,7.025-3.774c3.041,0,4.509,1.258,7.025,3.774c2.937,2.831,6.921,6.711,14.366,6.711
	c7.55,0,11.535-3.88,14.366-6.711c2.622-2.517,3.985-3.774,7.025-3.774c3.041,0,4.509,1.258,7.026,3.774
	c2.936,2.831,6.92,6.711,14.365,6.711c2.937,0,5.243-2.307,5.243-5.243C161.642,291.297,159.336,288.99,156.399,288.99"/>
</svg>
