<?xml version="1.0" encoding="utf-8"?>
<!-- Generator: Adobe Illustrator 16.0.0, SVG Export Plug-In . SVG Version: 6.00 Build 0)  -->
<!DOCTYPE svg PUBLIC "-//W3C//DTD SVG 1.1//EN" "http://www.w3.org/Graphics/SVG/1.1/DTD/svg11.dtd">
<svg version="1.1" id="레이어_1" xmlns="http://www.w3.org/2000/svg" xmlns:xlink="http://www.w3.org/1999/xlink" x="0px"
	 y="0px" width="350px" height="300px" viewBox="0 0 350 300" enable-background="new 0 0 350 300" xml:space="preserve">
<path fill="#FFFFFF" stroke="#FFFFFF" stroke-miterlimit="10" d="M141.771,55.56c-1.685,0-3.328-0.85-4.271-2.392
	c-1.44-2.356-0.698-5.434,1.657-6.874c10.765-6.582,23.161-10.061,35.85-10.061c11.571,0,23.017,2.924,33.097,8.457
	c2.421,1.329,3.307,4.368,1.978,6.789c-1.327,2.42-4.366,3.307-6.788,1.978c-8.61-4.726-18.392-7.224-28.286-7.224
	c-10.848,0-21.439,2.971-30.633,8.592C143.56,55.323,142.659,55.56,141.771,55.56z"/>
<path fill="#FFFFFF" stroke="#FFFFFF" stroke-miterlimit="10" d="M110.132,33.02c-1.685,0-3.328-0.851-4.271-2.393
	c-1.44-2.356-0.698-5.434,1.657-6.874c20.649-12.625,44.423-19.297,68.749-19.297c22.186,0,44.135,5.61,63.474,16.225
	c2.421,1.329,3.307,4.368,1.978,6.789c-1.328,2.419-4.367,3.308-6.788,1.978c-17.869-9.807-38.154-14.991-58.663-14.991
	c-22.485,0-44.454,6.166-63.532,17.83C111.921,32.783,111.021,33.02,110.132,33.02z"/>
<path fill="#FFFFFF" stroke="#FFFFFF" stroke-miterlimit="10" d="M276.784,298.238h-71.128c-3.905,0-7.121-3.18-7.17-7.089
	L197.609,220h-43.216l0.297,71.151c0.006,1.889-0.721,3.659-2.046,4.989c-1.348,1.353-3.155,2.098-5.09,2.098h-74.32
	c-3.858,0-6.659-3.01-6.659-7.156v-117.65c0-2.153,0.829-5.37,3.165-7.347l101.025-85.556c1.335-1.133,3.057-1.758,4.845-1.758
	c1.774,0,3.486,0.617,4.82,1.738l99.854,83.983c2.314,1.941,3.141,5.068,3.141,7.347v119.244
	C283.425,295.229,280.632,298.238,276.784,298.238z M208.451,288.238h64.974v-116.4c-0.001-0.015-0.003-0.033-0.006-0.054
	l-97.803-82.259l-99.032,83.868c-0.005,0.024-0.008,0.047-0.01,0.065l0.001,114.779h68.103l-0.297-71.242
	c-0.009-1.854,0.7-3.597,1.998-4.901c1.345-1.351,3.168-2.095,5.136-2.095h48.889c3.972,0,7.12,3.038,7.169,6.915L208.451,288.238z"
	/>
<path fill="#FFFFFF" stroke="#FFFFFF" stroke-miterlimit="10" d="M267.707,140.689c-2.762,0-5-2.239-5-5v-32.511h-26.081
	c-2.762,0-5-2.239-5-5s2.238-5,5-5h31.081c2.762,0,5,2.239,5,5v37.511C272.707,138.45,270.469,140.689,267.707,140.689z"/>
</svg>
