<?xml version="1.0" encoding="utf-8"?>
<!-- Generator: Adobe Illustrator 16.0.0, SVG Export Plug-In . SVG Version: 6.00 Build 0)  -->
<!DOCTYPE svg PUBLIC "-//W3C//DTD SVG 1.1//EN" "http://www.w3.org/Graphics/SVG/1.1/DTD/svg11.dtd">
<svg version="1.1" id="레이어_1" xmlns="http://www.w3.org/2000/svg" xmlns:xlink="http://www.w3.org/1999/xlink" x="0px"
	 y="0px" width="350px" height="300px" viewBox="0 0 350 300" enable-background="new 0 0 350 300" xml:space="preserve">
<path fill="#FFFFFF" stroke="#FFFFFF" stroke-miterlimit="10" d="M142.65,158.197c-1.714-0.033-3.326,0.858-4.251,2.309
	c-2.686,4.203-25.946,41.597-15.887,59.96c2.431,4.438,7.856,9.728,19.896,9.728c11.703,0,17.056-5.194,19.487-9.553
	c10.179-18.249-12.418-55.844-15.028-60.07C145.963,159.106,144.371,158.211,142.65,158.197z M153.161,215.771
	c-0.61,1.094-2.468,4.422-10.752,4.422c-8.642,0-10.511-3.409-11.125-4.53c-4.614-8.416,3.311-28.188,11.253-42.537
	C150.232,187.552,157.838,207.391,153.161,215.771z"/>
<path fill="#FFFFFF" stroke="#FFFFFF" stroke-miterlimit="10" d="M306.723,266.681h-79.659v-14.607h79.659c2.762,0,5-2.238,5-5
	s-2.238-5-5-5h-79.659V47.74c0-2.762-2.239-5-5-5h-43.036V9.9c0-2.762-2.238-5-5-5H99.093c-2.761,0-5,2.238-5,5v32.84H54.484
	c-2.761,0-5,2.238-5,5V290.1c0,2.762,2.239,5,5,5h167.579c2.761,0,5-2.238,5-5v-13.419h79.659c2.762,0,5-2.238,5-5
	S309.484,266.681,306.723,266.681z M141.561,88.297h36.014v21.375h-36.014V88.297z M177.574,78.297h-36.014V52.74h32.467h3.546
	V78.297z M104.093,14.9h64.935v27.84h-64.935V14.9z M217.063,285.1H59.484V52.74h39.609h32.467v85.636c0,2.762,2.239,5,5,5
	s5-2.238,5-5v-18.704h36.014v18.704c0,2.762,2.239,5,5,5c2.762,0,5-2.238,5-5V52.74h29.489V285.1z"/>
</svg>
