<?xml version="1.0" encoding="utf-8"?>
<!-- Generator: Adobe Illustrator 16.0.0, SVG Export Plug-In . SVG Version: 6.00 Build 0)  -->
<!DOCTYPE svg PUBLIC "-//W3C//DTD SVG 1.1//EN" "http://www.w3.org/Graphics/SVG/1.1/DTD/svg11.dtd">
<svg version="1.1" id="레이어_1" xmlns="http://www.w3.org/2000/svg" xmlns:xlink="http://www.w3.org/1999/xlink" x="0px"
	 y="0px" width="350px" height="300px" viewBox="0 0 350 300" enable-background="new 0 0 350 300" xml:space="preserve">
<rect x="152.309" y="55.146" fill="#FFFFFF" stroke="#FFFFFF" stroke-miterlimit="10" width="60.021" height="0"/>
<path fill="#FFFFFF" stroke="#FFFFFF" stroke-miterlimit="10" d="M314.333,283.813h-20V165.736c0-2.762-2.238-5-5-5h-52V60.146
	c0-2.761-2.238-5-5-5h-9.825c-0.721-3.835-2.211-9.534-5.257-15.264c-4.551-8.559-13.364-18.613-29.918-20.315v-8.38
	c0-2.761-2.238-5-5-5s-5,2.239-5,5v8.38c-16.555,1.702-25.368,11.756-29.919,20.315c-3.048,5.731-4.535,11.428-5.256,15.264h-9.825
	c-2.762,0-5,2.239-5,5v54.668h-71c-2.762,0-5,2.239-5,5v164h-24c-2.762,0-5,2.238-5,5s2.238,5,5,5h29h76h100h57h25
	c2.762,0,5-2.238,5-5S317.095,283.813,314.333,283.813z M127.333,283.813h-66v-159h66V283.813z M152.309,55.146
	c1.974-8.917,8.548-25.833,30.024-25.833c21.344,0,27.98,16.91,29.996,25.833v0L152.309,55.146L152.309,55.146z M227.333,165.736
	v118.077h-90v-164V65.146h9.161c0.002,0,0.003,0,0.005,0h71.668c0.008,0,0.015,0.001,0.02,0c0.002,0,0.003,0,0.005,0h9.142V165.736z
	 M284.333,283.813h-47V170.736h47V283.813z"/>
<path fill="#FFFFFF" stroke="#FFFFFF" stroke-miterlimit="10" d="M168.999,82.479h-16.229c-2.762,0-5,2.239-5,5s2.238,5,5,5h16.229
	c2.762,0,5-2.239,5-5S171.761,82.479,168.999,82.479z"/>
<path fill="#FFFFFF" stroke="#FFFFFF" stroke-miterlimit="10" d="M210.331,82.479h-16.229c-2.762,0-5,2.239-5,5s2.238,5,5,5h16.229
	c2.762,0,5-2.239,5-5S213.093,82.479,210.331,82.479z"/>
<path fill="#FFFFFF" stroke="#FFFFFF" stroke-miterlimit="10" d="M168.999,123.479h-16.229c-2.762,0-5,2.239-5,5s2.238,5,5,5h16.229
	c2.762,0,5-2.239,5-5S171.761,123.479,168.999,123.479z"/>
<path fill="#FFFFFF" stroke="#FFFFFF" stroke-miterlimit="10" d="M81.332,142.146h-6.114c-2.762,0-5,2.238-5,5s2.238,5,5,5h6.114
	c2.762,0,5-2.238,5-5S84.094,142.146,81.332,142.146z"/>
<path fill="#FFFFFF" stroke="#FFFFFF" stroke-miterlimit="10" d="M114.665,142.146h-6.113c-2.762,0-5,2.238-5,5s2.238,5,5,5h6.113
	c2.762,0,5-2.238,5-5S117.427,142.146,114.665,142.146z"/>
<path fill="#FFFFFF" stroke="#FFFFFF" stroke-miterlimit="10" d="M81.332,178.146h-6.114c-2.762,0-5,2.238-5,5s2.238,5,5,5h6.114
	c2.762,0,5-2.238,5-5S84.094,178.146,81.332,178.146z"/>
<path fill="#FFFFFF" stroke="#FFFFFF" stroke-miterlimit="10" d="M114.665,178.146h-6.113c-2.762,0-5,2.238-5,5s2.238,5,5,5h6.113
	c2.762,0,5-2.238,5-5S117.427,178.146,114.665,178.146z"/>
<path fill="#FFFFFF" stroke="#FFFFFF" stroke-miterlimit="10" d="M81.332,214.146h-6.114c-2.762,0-5,2.238-5,5s2.238,5,5,5h6.114
	c2.762,0,5-2.238,5-5S84.094,214.146,81.332,214.146z"/>
<path fill="#FFFFFF" stroke="#FFFFFF" stroke-miterlimit="10" d="M114.665,214.146h-6.113c-2.762,0-5,2.238-5,5s2.238,5,5,5h6.113
	c2.762,0,5-2.238,5-5S117.427,214.146,114.665,214.146z"/>
<path fill="#FFFFFF" stroke="#FFFFFF" stroke-miterlimit="10" d="M81.332,250.146h-6.114c-2.762,0-5,2.238-5,5s2.238,5,5,5h6.114
	c2.762,0,5-2.238,5-5S84.094,250.146,81.332,250.146z"/>
<path fill="#FFFFFF" stroke="#FFFFFF" stroke-miterlimit="10" d="M114.665,250.146h-6.113c-2.762,0-5,2.238-5,5s2.238,5,5,5h6.113
	c2.762,0,5-2.238,5-5S117.427,250.146,114.665,250.146z"/>
<path fill="#FFFFFF" stroke="#FFFFFF" stroke-miterlimit="10" d="M210.331,123.479h-16.229c-2.762,0-5,2.239-5,5s2.238,5,5,5h16.229
	c2.762,0,5-2.239,5-5S213.093,123.479,210.331,123.479z"/>
<path fill="#FFFFFF" stroke="#FFFFFF" stroke-miterlimit="10" d="M168.999,164.479h-16.229c-2.762,0-5,2.238-5,5s2.238,5,5,5h16.229
	c2.762,0,5-2.238,5-5S171.761,164.479,168.999,164.479z"/>
<path fill="#FFFFFF" stroke="#FFFFFF" stroke-miterlimit="10" d="M210.331,164.479h-16.229c-2.762,0-5,2.238-5,5s2.238,5,5,5h16.229
	c2.762,0,5-2.238,5-5S213.093,164.479,210.331,164.479z"/>
<path fill="#FFFFFF" stroke="#FFFFFF" stroke-miterlimit="10" d="M168.999,205.479h-16.229c-2.762,0-5,2.238-5,5s2.238,5,5,5h16.229
	c2.762,0,5-2.238,5-5S171.761,205.479,168.999,205.479z"/>
<path fill="#FFFFFF" stroke="#FFFFFF" stroke-miterlimit="10" d="M210.331,205.479h-16.229c-2.762,0-5,2.238-5,5s2.238,5,5,5h16.229
	c2.762,0,5-2.238,5-5S213.093,205.479,210.331,205.479z"/>
<path fill="#FFFFFF" stroke="#FFFFFF" stroke-miterlimit="10" d="M168.999,246.479h-16.229c-2.762,0-5,2.238-5,5s2.238,5,5,5h16.229
	c2.762,0,5-2.238,5-5S171.761,246.479,168.999,246.479z"/>
<path fill="#FFFFFF" stroke="#FFFFFF" stroke-miterlimit="10" d="M210.331,246.479h-16.229c-2.762,0-5,2.238-5,5s2.238,5,5,5h16.229
	c2.762,0,5-2.238,5-5S213.093,246.479,210.331,246.479z"/>
</svg>
