<?xml version="1.0" encoding="utf-8"?>
<!-- Generator: Adobe Illustrator 16.0.0, SVG Export Plug-In . SVG Version: 6.00 Build 0)  -->
<!DOCTYPE svg PUBLIC "-//W3C//DTD SVG 1.1//EN" "http://www.w3.org/Graphics/SVG/1.1/DTD/svg11.dtd">
<svg version="1.1" id="레이어_1" xmlns="http://www.w3.org/2000/svg" xmlns:xlink="http://www.w3.org/1999/xlink" x="0px"
	 y="0px" width="350px" height="300px" viewBox="0 0 350 300" enable-background="new 0 0 350 300" xml:space="preserve">
<path fill="#FFFFFF" stroke="#FFFFFF" stroke-miterlimit="10" d="M248.545,172c1.9,0,3.5-1.601,3.5-3.5V165c0-1.9-1.6-3.5-3.5-3.5
	s-3.5,1.6-3.5,3.5v3.5C245.045,170.399,246.645,172,248.545,172"/>
<path fill="#FFFFFF" stroke="#FFFFFF" stroke-miterlimit="10" d="M220.246,172c1.898,0,3.5-1.601,3.5-3.5V165
	c0-1.9-1.602-3.5-3.5-3.5c-1.9,0-3.5,1.6-3.5,3.5v3.5C216.746,170.399,218.346,172,220.246,172"/>
<path fill="#FFFFFF" stroke="#FFFFFF" stroke-miterlimit="10" d="M190.246,172c1.898,0,3.5-1.601,3.5-3.5V165
	c0-1.9-1.602-3.5-3.5-3.5c-1.9,0-3.5,1.6-3.5,3.5v3.5C186.746,170.399,188.346,172,190.246,172"/>
<path fill="#FFFFFF" stroke="#FFFFFF" stroke-miterlimit="10" d="M161.945,172c1.9,0,3.5-1.601,3.5-3.5V165c0-1.9-1.6-3.5-3.5-3.5
	s-3.5,1.6-3.5,3.5v3.5C158.445,170.399,160.045,172,161.945,172"/>
<path fill="#FFFFFF" stroke="#FFFFFF" stroke-miterlimit="10" d="M131.945,172c1.9,0,3.5-1.601,3.5-3.5V165c0-1.9-1.6-3.5-3.5-3.5
	s-3.5,1.6-3.5,3.5v3.5C128.445,170.399,130.045,172,131.945,172"/>
<path fill="#FFFFFF" stroke="#FFFFFF" stroke-miterlimit="10" d="M101.945,172c1.9,0,3.5-1.601,3.5-3.5V165c0-1.9-1.6-3.5-3.5-3.5
	s-3.5,1.6-3.5,3.5v3.5C98.445,170.399,99.945,172,101.945,172"/>
<path fill="#FFFFFF" stroke="#FFFFFF" stroke-miterlimit="10" d="M346.145,288.6l-67-104.2c-0.6-1-1.5-1.699-2.6-2V149.7h30.1
	c2.102,0,4-1.301,4.701-3.3c0.699-2,0.1-4.2-1.5-5.5l-53.1-44.2c-0.9-0.7-2-1.1-3.102-1.1v-20h18.801c1.301,0,2.6-0.5,3.6-1.5
	l31.301-31.8c1.4-1.4,1.799-3.6,1.1-5.4c-0.801-1.9-2.6-3.1-4.6-3.1h-36.201L238.246,5.1c-0.9-0.9-2.201-1.4-3.5-1.4h-45.4h-72.7
	c-1.3,0-2.6,0.5-3.5,1.4l-29.2,28.6h-36.2c-2,0-3.8,1.2-4.6,3.1c-0.8,1.9-0.4,4,1.1,5.4l31.3,31.8c0.9,1,2.2,1.5,3.6,1.5h12.5v22.4
	v0.3l-51.4,42.7c-1.6,1.3-2.2,3.6-1.5,5.5c0.7,1.9,2.6,3.3,4.7,3.3h25.2v36.5c0,0.5,0.1,1,0.2,1.399l-64.9,101
	c-1,1.5-1.1,3.5-0.2,5.101c0.9,1.6,2.6,2.6,4.4,2.6h142.3h51.199h140.201c1.799,0,3.5-1,4.4-2.6
	C347.145,292.1,347.045,290.1,346.145,288.6 M59.746,43.7h26.3c1.3,0,2.6-0.5,3.5-1.4l29.2-28.6h70.7h43.301l29.199,28.6
	c0.9,0.9,2.199,1.4,3.5,1.4h26.301l-21.5,21.8h-80.9h-108.2L59.746,43.7z M189.346,75.5h54.199v20h-25.9h-84.799h-31.2v-20H189.346z
	 M98.445,105.5h34.4h84.799h34l41.102,34.2h-75.102h-84.799h-75.5L98.445,105.5z M132.845,149.7h84.799h48.9V182.1h-64.799h-51.201
	h-71.9V149.7H132.845z M150.545,286.3l-2.269,0.174L148.646,256c-0.1-7,2.5-13.7,7.4-18.7s11.4-7.9,18.5-8
	c7-0.1,13.701,2.5,18.701,7.4c5,4.899,7.898,11.399,8,18.5l0.398,31.1h-1.5H150.545z M211.645,286.3l-0.398-31.3
	c-0.201-9.7-4.102-18.7-11-25.5c-7-6.7-16.102-10.4-25.801-10.2c-9.7,0.1-18.8,4.1-25.5,11c-6.7,7-10.4,16.1-10.2,25.8
	l-0.469,30.374l-0.531-0.174h-120.4l60.5-94.2h72.6h51.199h70.5l60.5,94.2H212.945H211.645z"/>
</svg>
