<?xml version="1.0" encoding="utf-8"?>
<!-- Generator: Adobe Illustrator 16.0.0, SVG Export Plug-In . SVG Version: 6.00 Build 0)  -->
<!DOCTYPE svg PUBLIC "-//W3C//DTD SVG 1.1//EN" "http://www.w3.org/Graphics/SVG/1.1/DTD/svg11.dtd">
<svg version="1.1" id="레이어_1" xmlns="http://www.w3.org/2000/svg" xmlns:xlink="http://www.w3.org/1999/xlink" x="0px"
	 y="0px" width="350px" height="300px" viewBox="0 0 350 300" enable-background="new 0 0 350 300" xml:space="preserve">
<path fill="#FFFFFF" stroke="#FFFFFF" stroke-miterlimit="10" d="M342.05,140.5l-36.8-42.4V66c0-2.8-1.7-4.5-4.5-4.5h-92h-14h-120
	c-2.8,0-5.5,1.7-5.5,4.5v32.1l-36.8,42.4c-0.8,0.9-1.2,2.1-1.2,3.3V154c0,2.8,2.7,5.5,5.5,5.5h32.5v88c0,2.8,2.2,5,5,5h21
	c2.8,0,5-2.2,5-5v-88h17v88c0,2.8,2.2,5,5,5h51c2.8,0,5-2.2,5-5v-88h16.5h14h67.5v88c0,2.8,2.2,5,5,5h20c2.8,0,5-2.2,5-5v-88h32.5
	c2.8,0,4.5-2.7,4.5-5.5v-10.2C343.25,142.6,342.85,141.4,342.05,140.5 M90.25,242.5h-11v-83h11V242.5z M127.25,159.5h8.1
	c0,0.2-0.1,0.3-0.1,0.5v82.5h-8V159.5z M151.25,242.5h-6V160c0-0.2,0-0.3-0.1-0.5h6.1c0,0.2-0.1,0.3-0.1,0.5v82.5H151.25z
	 M168.25,242.5h-7V160c0-0.2,0-0.3-0.1-0.5h7.1V242.5z M296.25,242.5h-10v-83h10V242.5z M333.25,149.5h-32h-20h-72.5h-14h-21.5h-51
	h-27h-21h-33v-3.9l36.8-42.399c0.8-0.9,1.2-2.1,1.2-3.3V71.5h115.5h14h86.5V100c0,1.2,0.4,2.4,1.2,3.3l36.8,42.4V149.5z"/>
<path fill="#FFFFFF" stroke="#FFFFFF" stroke-miterlimit="10" d="M264.75,227.5h-78c-2.8,0-5,2.2-5,5s2.2,5,5,5h9.5v9.5
	c0,2.8,2.2,5,5,5s5-2.2,5-5v-9.5h36v9.5c0,2.8,2.2,5,5,5s5-2.2,5-5v-9.5h12.5c2.8,0,5-2.2,5-5S267.55,227.5,264.75,227.5"/>
<path fill="#FFFFFF" stroke="#FFFFFF" stroke-miterlimit="10" d="M62.75,214.5c0-2.8-2.2-5-5-5h-2.5c-0.3-8.5-4.8-14-11.9-14h-16.5
	c-7.3,0-13.2,5.7-13.6,14h-1.5c-2.8,0-5,2.2-5,5s2.2,5,5,5c-3.3,10.3-4.4,26.3,9.5,34.1c0.7,0.4,1.6,0.9,2.4,0.9h8.1h10h5.2
	c1.2,0,2.3-0.6,3.2-1.4c12.2-10,9.7-26,7.6-33.6C60.55,219.5,62.75,217.3,62.75,214.5 M26.85,205.5h16.4c1.4,0,1.9,1.7,1.9,4h-21.8
	C23.65,206.8,25.45,205.5,26.85,205.5 M44.95,244.5h-3.2h-10h-6.7c-10.2-7-2.9-24.2-2.6-25h24.6
	C47.85,221.5,52.95,236.1,44.95,244.5"/>
</svg>
