<?xml version="1.0" encoding="utf-8"?>
<!-- Generator: Adobe Illustrator 16.0.0, SVG Export Plug-In . SVG Version: 6.00 Build 0)  -->
<!DOCTYPE svg PUBLIC "-//W3C//DTD SVG 1.1//EN" "http://www.w3.org/Graphics/SVG/1.1/DTD/svg11.dtd">
<svg version="1.1" id="레이어_1" xmlns="http://www.w3.org/2000/svg" xmlns:xlink="http://www.w3.org/1999/xlink" x="0px"
	 y="0px" width="350px" height="300px" viewBox="0 0 350 300" enable-background="new 0 0 350 300" xml:space="preserve">
<path fill="#FFFFFF" stroke="#FFFFFF" stroke-miterlimit="10" d="M240.038,77.221c2.82,0,5.602-0.521,8.216-1.526
	c6.688,7.275,16.194,11.517,26.173,11.517c5.716,0,11.299-1.367,16.331-3.979c4.38,2.612,9.325,3.979,14.481,3.979
	c15.691,0,28.458-12.767,28.458-28.458s-12.767-28.458-28.458-28.458c-0.788,0-1.577,0.033-2.363,0.098
	c-6.693-8.974-17.101-14.239-28.449-14.239c-11.911,0-22.827,5.874-29.397,15.575c-1.63-0.363-3.298-0.547-4.991-0.547
	c-12.692,0-23.019,10.326-23.019,23.02S227.346,77.221,240.038,77.221z M240.038,41.182c1.809,0,3.568,0.371,5.229,1.104
	c2.416,1.066,5.248,0.065,6.46-2.283c4.407-8.542,13.104-13.849,22.699-13.849c8.963,0,17.11,4.573,21.796,12.233
	c1.1,1.797,3.21,2.711,5.272,2.288c1.227-0.252,2.486-0.38,3.744-0.38c10.178,0,18.458,8.28,18.458,18.458
	s-8.28,18.458-18.458,18.458c-4.081,0-7.964-1.327-11.227-3.837c-0.896-0.689-1.971-1.037-3.049-1.037
	c-0.941,0-1.885,0.265-2.713,0.8c-4.126,2.665-8.906,4.074-13.824,4.074c-8.202,0-15.961-3.991-20.755-10.676
	c-1.54-2.148-4.489-2.725-6.726-1.318c-2.084,1.312-4.473,2.004-6.908,2.004c-7.179,0-13.019-5.841-13.019-13.02
	S232.859,41.182,240.038,41.182z"/>
<path fill="#FFFFFF" stroke="#FFFFFF" stroke-miterlimit="10" d="M69.992,176.511c5.305,0,10.484-1.252,15.161-3.644
	c4.081,2.393,8.676,3.644,13.467,3.644c14.774,0,26.794-12.019,26.794-26.792c0-14.774-12.02-26.794-26.794-26.794
	c-0.677,0-1.354,0.025-2.029,0.076c-6.289-8.331-16.008-13.215-26.599-13.215c-11.104,0-21.287,5.436-27.469,14.428
	c-1.466-0.31-2.962-0.466-4.479-0.466c-11.988,0-21.741,9.754-21.741,21.742c0,11.987,9.753,21.74,21.741,21.74
	c2.583,0,5.132-0.463,7.535-1.356C51.85,172.599,60.702,176.511,69.992,176.511z M38.043,157.23c-6.474,0-11.741-5.267-11.741-11.74
	c0-6.475,5.267-11.742,11.741-11.742c1.63,0,3.218,0.335,4.721,0.995c2.418,1.063,5.245,0.063,6.455-2.285
	c4.033-7.816,11.992-12.672,20.772-12.672c8.203,0,15.661,4.186,19.949,11.196c1.1,1.799,3.21,2.718,5.275,2.287
	c1.11-0.229,2.255-0.345,3.404-0.345c9.26,0,16.794,7.534,16.794,16.794c0,9.259-7.534,16.792-16.794,16.792
	c-3.716,0-7.248-1.207-10.215-3.489c-0.896-0.689-1.971-1.037-3.049-1.037c-0.941,0-1.885,0.266-2.714,0.801
	c-3.771,2.438-8.145,3.726-12.649,3.726c-7.506,0-14.607-3.651-18.994-9.769c-1.541-2.147-4.486-2.725-6.726-1.318
	C42.394,156.605,40.24,157.23,38.043,157.23z"/>
<path fill="#FFFFFF" stroke="#FFFFFF" stroke-miterlimit="10" d="M332.696,287.25l-51.073-68.111c-0.944-1.259-2.426-2-4-2h-76.82
	c-0.343,0-0.677,0.035-1,0.101v-13.101c0-2.762-2.238-5-5-5h-3v-67h6c2.762,0,5-2.238,5-5v-31h6.999c2.762,0,5-2.238,5-5
	s-2.238-5-5-5h-11.999h-14.001V9.75c0-2.762-2.239-5-5-5s-5,2.238-5,5v76.389h-17h-14c-2.761,0-5,2.238-5,5s2.239,5,5,5h9v31
	c0,2.762,2.239,5,5,5h5v67h-4c-2.761,0-5,2.238-5,5v13.101c-0.323-0.065-0.657-0.101-1-0.101H76.556
	c-1.561,0-3.032,0.729-3.978,1.971l-51.861,68.111c-1.673,2.197-1.248,5.335,0.949,7.008c0.905,0.688,1.969,1.021,3.025,1.021
	c1.508,0,2.998-0.679,3.982-1.971l50.361-66.141h72.768c0.375,0,0.737-0.048,1.088-0.127c0.415,2.344,2.45,4.127,4.912,4.127h37.001
	c2.463,0,4.497-1.783,4.912-4.126c0.352,0.078,0.713,0.126,1.088,0.126h74.32l49.573,66.111c0.982,1.31,2.483,2,4.004,2
	c1.044,0,2.097-0.325,2.996-1C333.905,292.594,334.354,289.46,332.696,287.25z M192.803,96.139v26h-6h-20.001h-5v-26H192.803z
	 M171.802,132.139h10.001v67h-10.001V132.139z M189.803,221.139h-27.001v-12h4h20.001h3V221.139z"/>
</svg>
