<?xml version="1.0" encoding="utf-8"?>
<!-- Generator: Adobe Illustrator 16.0.0, SVG Export Plug-In . SVG Version: 6.00 Build 0)  -->
<!DOCTYPE svg PUBLIC "-//W3C//DTD SVG 1.1//EN" "http://www.w3.org/Graphics/SVG/1.1/DTD/svg11.dtd">
<svg version="1.1" id="레이어_1" xmlns="http://www.w3.org/2000/svg" xmlns:xlink="http://www.w3.org/1999/xlink" x="0px"
	 y="0px" width="350px" height="300px" viewBox="0 0 350 300" enable-background="new 0 0 350 300" xml:space="preserve">
<path fill="#FFFFFF" stroke="#FFFFFF" stroke-miterlimit="10" d="M246.309,78.726c3.369,0,6.652-0.738,9.67-2.158
	c5.479,4.449,12.363,6.942,19.412,6.942c7.412,0,14.539-2.702,20.12-7.529c3.319,1.788,7.05,2.745,10.845,2.745
	c12.655,0,22.951-10.296,22.951-22.952s-10.296-22.952-22.951-22.952c-2.23,0-4.453,0.332-6.586,0.974
	c-5.813-7.498-14.807-12.01-24.379-12.01c-9.471,0-18.204,4.271-24.045,11.596c-1.644-0.372-3.328-0.56-5.037-0.56
	c-12.656,0-22.953,10.296-22.953,22.952S233.652,78.726,246.309,78.726z M246.309,42.822c1.747,0,3.445,0.348,5.048,1.034
	l3.979,1.705l2.256-3.695c3.854-6.312,10.508-10.08,17.799-10.08c7.466,0,14.42,4.079,18.147,10.646l2.415,4.254l4.307-2.322
	c1.896-1.023,3.947-1.542,6.096-1.542c7.142,0,12.951,5.81,12.951,12.952s-5.81,12.952-12.951,12.952
	c-3.002,0-5.938-1.069-8.264-3.01l-3.763-3.138l-3.214,3.698c-3.995,4.597-9.727,7.234-15.725,7.234
	c-5.732,0-11.096-2.327-15.102-6.551l-2.987-3.15l-3.538,2.515c-2.21,1.571-4.787,2.401-7.455,2.401
	c-7.143,0-12.953-5.811-12.953-12.952S239.166,42.822,246.309,42.822z"/>
<path fill="#FFFFFF" stroke="#FFFFFF" stroke-miterlimit="10" d="M345.91,282.103l-88.887-92.574L222.831,87.563
	c-0.638-1.903-2.353-3.24-4.354-3.395l-69.569-5.404c-2.037-0.159-3.955,0.932-4.863,2.755l-29.41,59.041H69.615
	c-1.981,0-3.775,1.169-4.575,2.982L3.122,283.892c-0.683,1.548-0.537,3.335,0.387,4.751c0.923,1.415,2.499,2.268,4.188,2.268
	c0.001,0,0.003,0,0.005,0l334.608-0.345c2.003-0.002,3.812-1.199,4.595-3.042C347.689,285.681,347.298,283.547,345.91,282.103z
	 M151.494,88.995l62.908,4.886l9.861,29.41l-19.355,19.356l-22.446-22.446c-1.952-1.952-5.117-1.952-7.071,0l-26.103,26.102
	l-17.582-17.583L151.494,88.995z M15.371,280.902l57.504-130.342h44.857c1.896,0,3.63-1.073,4.476-2.771l4.796-9.628l18.749,18.749
	c0.977,0.977,2.256,1.465,3.536,1.465c1.279,0,2.559-0.488,3.536-1.465l26.103-26.102l22.446,22.445
	c1.953,1.953,5.118,1.953,7.071,0l19.373-19.372l20.082,59.889c0.234,0.7,0.623,1.34,1.135,1.873l81.55,84.933L15.371,280.902z"/>
</svg>
