<?xml version="1.0" encoding="utf-8"?>
<!-- Generator: Adobe Illustrator 16.0.0, SVG Export Plug-In . SVG Version: 6.00 Build 0)  -->
<!DOCTYPE svg PUBLIC "-//W3C//DTD SVG 1.1//EN" "http://www.w3.org/Graphics/SVG/1.1/DTD/svg11.dtd">
<svg version="1.1" id="레이어_1" xmlns="http://www.w3.org/2000/svg" xmlns:xlink="http://www.w3.org/1999/xlink" x="0px"
	 y="0px" width="350px" height="300px" viewBox="0 0 350 300" enable-background="new 0 0 350 300" xml:space="preserve">
<path fill="#FFFFFF" stroke="#FFFFFF" stroke-miterlimit="10" d="M334.65,291.199c-7.8,0-11.8-3.4-15.1-6.199
	c-2.7-2.301-4.5-3.801-8.7-3.801s-5.9,1.5-8.7,3.801c-3.3,2.799-7.3,6.199-15.1,6.199s-11.8-3.4-15.101-6.199
	c-2.699-2.301-4.5-3.801-8.699-3.801c-4.101,0-5.9,1.5-8.7,3.801c-3.3,2.799-7.3,6.199-15.101,6.199c-7.8,0-11.8-3.4-15.1-6.199
	c-2.7-2.301-4.5-3.801-8.7-3.801s-5.899,1.5-8.7,3.801c-3.3,2.799-7.3,6.199-15.1,6.199s-11.8-3.4-15.101-6.199
	c-2.699-2.301-4.5-3.801-8.699-3.801c-2.8,0-5-2.199-5-5c0-2.799,2.2-5,5-5c7.8,0,11.8,3.4,15.1,6.201
	c2.7,2.299,4.5,3.799,8.7,3.799s5.9-1.5,8.7-3.799c3.3-2.801,7.3-6.201,15.1-6.201s11.8,3.4,15.101,6.201
	c2.699,2.299,4.5,3.799,8.699,3.799c4.2,0,5.9-1.5,8.7-3.799c3.3-2.801,7.3-6.201,15.101-6.201c7.8,0,11.8,3.4,15.1,6.201
	c2.7,2.299,4.5,3.799,8.7,3.799c4.1,0,5.899-1.5,8.7-3.799c3.3-2.801,7.3-6.201,15.1-6.201s11.8,3.4,15.1,6.201
	c2.7,2.299,4.5,3.799,8.7,3.799c2.8,0,5,2.201,5,5C339.65,289,337.45,291.199,334.65,291.199"/>
<path fill="#FFFFFF" stroke="#FFFFFF" stroke-miterlimit="10" d="M188.65,137.6c-2.8,0-5-2.2-5-5V31.5c0-2.8,2.2-5,5-5s5,2.2,5,5
	v101.1C193.65,135.4,191.45,137.6,188.65,137.6z"/>
<path fill="#FFFFFF" stroke="#FFFFFF" stroke-miterlimit="10" d="M188.65,250.699c-2.8,0-5-2.199-5-5V160c0-2.801,2.2-5,5-5
	s5,2.199,5,5v85.699C193.65,248.4,191.45,250.699,188.65,250.699"/>
<path fill="#FFFFFF" stroke="#FFFFFF" stroke-miterlimit="10" d="M311.751,8.8h-246c-2.8,0-5,2.2-5,5c0,2.8,2.2,5,5,5h29
	l-14.3,230.899c-0.8-0.5-1.5-1.199-2.4-1.9c-3.3-2.799-7.3-6.199-15.1-6.199c-7.8,0-11.8,3.4-15.1,6.199
	c-2.7,2.301-4.5,3.801-8.7,3.801c-4.1,0-5.9-1.5-8.7-3.801c-3.3-2.799-7.3-6.199-15.1-6.199c-2.8,0-5,2.199-5,5s2.2,5,5,5
	c4.1,0,5.9,1.5,8.7,3.801c3.3,2.799,7.3,6.199,15.1,6.199c7.8,0,11.8-3.4,15.1-6.199c2.7-2.301,4.5-3.801,8.7-3.801
	c4.2,0,5.9,1.5,8.7,3.801c3.3,2.799,7.3,6.199,15.1,6.199c7.8,0,11.8-3.4,15.1-6.199c2.7-2.301,4.5-3.801,8.7-3.801
	c4.2,0,5.9,1.5,8.7,3.801c3.3,2.799,7.3,6.199,15.1,6.199s11.8-3.4,15.1-6.199c2.7-2.301,4.5-3.801,8.7-3.801
	c4.1,0,5.9,1.5,8.7,3.801c3.3,2.799,7.3,6.199,15.101,6.199c2.799,0,4.999-2.199,4.999-5s-2.2-5-4.999-5
	c-4.101,0-5.9-1.5-8.701-3.801c-3.3-2.799-7.3-6.199-15.1-6.199c-7.8,0-11.8,3.4-15.1,6.199c-0.6,0.5-1.1,0.9-1.6,1.301l1.8-55.301
	c0.1-2.799-2.1-5.1-4.8-5.199c-2.8-0.1-5.1,2.1-5.2,4.801l-1.9,57.799c-2.2-0.6-3.7-1.799-5.6-3.5c-3.3-2.799-7.3-6.199-15.1-6.199
	c-7.8,0-11.8,3.4-15.1,6.199c-1.8,1.5-3.1,2.6-5,3.301l14.4-232.3h169.4l14.5,233.099c0.2,2.701,2.4,4.701,5,4.701h0.3
	c2.8-0.201,4.9-2.5,4.7-5.301L284.251,18.8h27.5c2.8,0,5-2.2,5-5C316.751,11,314.551,8.8,311.751,8.8"/>
<path fill="#FFFFFF" stroke="#FFFFFF" stroke-miterlimit="10" d="M139.051,171.199h-0.2c-2.8-0.1-4.9-2.4-4.8-5.199l2.3-70
	c0.1-2.8,2.4-4.9,5.2-4.8c2.8,0.1,4.9,2.4,4.8,5.2l-2.3,70C143.951,169.1,141.65,171.199,139.051,171.199"/>
<path fill="#FFFFFF" stroke="#FFFFFF" stroke-miterlimit="10" d="M142.15,73.5h-0.2c-2.8-0.1-4.9-2.4-4.8-5.2l1.3-40.1
	c0.1-2.8,2.4-4.9,5.2-4.8c2.8,0.1,4.9,2.4,4.8,5.2l-1.3,40.1C147.15,71.4,144.851,73.5,142.15,73.5"/>
<path fill="#FFFFFF" stroke="#FFFFFF" stroke-miterlimit="10" d="M243.551,254.1c-2.601,0-4.8-2.1-5-4.699l-2-38.201
	c-0.101-2.799,2-5.1,4.7-5.299c2.8-0.102,5.1,2,5.3,4.699l2,38.199c0.1,2.801-2,5.102-4.7,5.301H243.551z"/>
<path fill="#FFFFFF" stroke="#FFFFFF" stroke-miterlimit="10" d="M239.45,177c-2.6,0-4.8-2.1-5-4.701l-7.6-143.599
	c-0.1-2.8,2-5.1,4.7-5.3c2.8-0.1,5.1,2,5.3,4.7l7.6,143.6c0.101,2.801-2,5.1-4.699,5.301C239.65,177,239.551,177,239.45,177"/>
</svg>
