<?xml version="1.0" encoding="utf-8"?>
<!-- Generator: Adobe Illustrator 19.2.1, SVG Export Plug-In . SVG Version: 6.00 Build 0)  -->
<svg version="1.1" id="레이어_1" xmlns="http://www.w3.org/2000/svg" xmlns:xlink="http://www.w3.org/1999/xlink" x="0px"
	 y="0px" width="350px" height="300px" viewBox="0 0 350 300" style="enable-background:new 0 0 350 300;" xml:space="preserve">
<g>
	<path fill="#FFFFFF" stroke="#FFFFFF" d="M112.1,221.7c-10.9,0-19.7,8.8-19.7,19.7s8.8,19.7,19.7,19.7s19.7-8.8,19.7-19.7S122.9,221.7,112.1,221.7z
		 M112.1,251c-5.3,0-9.7-4.3-9.7-9.7s4.3-9.7,9.7-9.7s9.7,4.3,9.7,9.7S117.4,251,112.1,251z"/>
	<path fill="#FFFFFF" stroke="#FFFFFF" d="M227.4,131.6c-10.9,0-19.7,8.8-19.7,19.7c0,10.9,8.8,19.7,19.7,19.7s19.7-8.8,19.7-19.7
		C247.1,140.5,238.2,131.6,227.4,131.6z M227.4,161c-5.3,0-9.7-4.3-9.7-9.7c0-5.3,4.3-9.7,9.7-9.7s9.7,4.3,9.7,9.7
		C237.1,156.7,232.7,161,227.4,161z"/>
	<path fill="#FFFFFF" stroke="#FFFFFF" d="M340.7,239.1h-38V31.7c0-2.8-2.2-5-5-5H77.8c-40.6,0-73.6,33-73.6,73.6l0,142.4c0,2.8,2.2,5,5,5h62.4
		c2.6,20.2,19.9,35.8,40.7,35.8c20.3,0,37.3-14.9,40.5-34.3h187.8c2.8,0,5-2.2,5-5S343.5,239.1,340.7,239.1z M256.2,239.1h-57.7
		v-94.5c0-14.9,12.1-27,27-27h3.6c14.9,0,27,12.1,27,27V239.1z M266.2,195.4h26.5v43.6h-26.5V195.4z M77.8,36.7h214.9v148.8h-26.5
		v-40.9c0-20.4-16.6-37-37-37h-3.6c-20.4,0-37,16.6-37,37v40.9H14.3l0-85.2C14.3,65.2,42.8,36.7,77.8,36.7z M14.3,195.4h174.3v43.6
		h-35.2c-1.7-21.1-19.4-37.8-40.9-37.8c-21,0-38.4,15.9-40.8,36.3H14.3L14.3,195.4z M112.4,273.4c-17.1,0-31.1-13.9-31.1-31.1
		s13.9-31.1,31.1-31.1s31.1,13.9,31.1,31.1c0,0.5,0,1,0,1.5c0,0.1,0,0.1,0,0.2c0,0,0,0,0,0.1C142.5,260.4,128.9,273.4,112.4,273.4z"
		/>
	<path fill="#FFFFFF" stroke="#FFFFFF" d="M44,147h95.2c2.8,0,5-2.2,5-5V66.4c0-2.8-2.2-5-5-5H76.1c-20.4,0-37,16.6-37,37V142C39,144.8,41.2,147,44,147z
		 M134.3,137H97.1V71.4h37.2V137z M49,98.4c0-14.9,12.1-27,27-27h11V137H49V98.4z"/>
</g>
</svg>
