<?xml version="1.0" encoding="utf-8"?>
<!-- Generator: Adobe Illustrator 16.0.0, SVG Export Plug-In . SVG Version: 6.00 Build 0)  -->
<!DOCTYPE svg PUBLIC "-//W3C//DTD SVG 1.1//EN" "http://www.w3.org/Graphics/SVG/1.1/DTD/svg11.dtd">
<svg version="1.1" id="레이어_1" xmlns="http://www.w3.org/2000/svg" xmlns:xlink="http://www.w3.org/1999/xlink" x="0px"
	 y="0px" width="350px" height="300px" viewBox="0 0 350 300" enable-background="new 0 0 350 300" xml:space="preserve">
<path fill="#FFFFFF" stroke="#FFFFFF" stroke-miterlimit="10" d="M143.358,71.666c10.499,0,17.123,6.438,20.826,11.833
	c3.789,5.528,7.014,9.724,9.729,12.907c-2.716,3.185-5.944,7.38-9.731,12.905c-3.703,5.409-10.321,11.855-20.824,11.855
	c-13.933,0-23.294-9.947-23.294-24.754C120.064,81.61,129.425,71.666,143.358,71.666 M143.358,61.091
	c-20.065,0-33.868,14.816-33.868,35.321c0,20.49,13.802,35.328,33.868,35.328c12.373,0,22.665-6.4,29.548-16.457
	c11.265-16.434,16.174-18.872,16.174-18.872s-4.909-2.453-16.174-18.891C166.023,67.496,155.731,61.091,143.358,61.091"/>
<path fill="#FFFFFF" stroke="#FFFFFF" stroke-miterlimit="10" d="M280.55,36.337c16.634,0,30.901,5.76,41.266,16.657
	c10.268,10.793,15.919,26.212,15.919,43.419c0,17.208-5.651,32.627-15.919,43.42c-10.364,10.896-24.632,16.656-41.266,16.656
	c-19.983,0-37.887-10.045-50.404-28.281c-10.853-15.841-19.062-25.69-24.962-31.795c5.9-6.103,14.105-15.951,24.958-31.793
	C242.661,46.381,260.564,36.337,280.55,36.337 M280.55,25.764c-24.769,0-45.347,12.798-59.125,32.872
	C198.9,91.518,189.08,96.413,189.08,96.413s9.82,4.898,32.345,37.771c13.778,20.076,34.356,32.878,59.125,32.878
	c40.129,0,67.759-29.63,67.759-70.65C348.309,55.396,320.679,25.764,280.55,25.764"/>
<path fill="#FFFFFF" stroke="#FFFFFF" stroke-miterlimit="10" d="M189.084,144.703h-24.807c-5.84,0-10.573,4.734-10.573,10.575
	v26.125H135.92v-26.125c0-5.84-4.734-10.575-10.574-10.575h-24.801c-5.84,0-10.574,4.734-10.574,10.575v65.48
	c-0.876-0.234-1.792-0.371-2.742-0.371H47.131v-65.109c0-5.84-4.734-10.575-10.574-10.575H11.749
	c-5.84,0-10.574,4.734-10.574,10.575v78.109c0,14.646,11.918,26.564,26.568,26.564h59.485c2.524,0,4.84-0.887,6.658-2.363
	c1.818,1.477,4.134,2.363,6.659,2.363h24.801c5.839,0,10.574-4.734,10.574-10.574V220.91c0.584,0.039,1.171,0.059,1.76,0.059h16.024
	v28.408c0,5.84,4.733,10.574,10.573,10.574h24.807c5.84,0,10.574-4.734,10.574-10.574v-94.1
	C199.658,149.437,194.924,144.703,189.084,144.703z M87.229,249.377H27.743c-8.831,0-15.994-7.156-15.994-15.99v-78.109h24.808
	v75.684h50.671V249.377z M189.084,249.377h-24.807v-38.982H137.68c-4.961,0-9.397-2.262-12.334-5.809v44.791h-24.801v-94.1h24.801
	v36.699h38.931v-36.699h24.807V249.377z"/>
</svg>
