<?xml version="1.0" encoding="utf-8"?>
<!-- Generator: Adobe Illustrator 16.0.0, SVG Export Plug-In . SVG Version: 6.00 Build 0)  -->
<!DOCTYPE svg PUBLIC "-//W3C//DTD SVG 1.1//EN" "http://www.w3.org/Graphics/SVG/1.1/DTD/svg11.dtd">
<svg version="1.1" id="레이어_1" xmlns="http://www.w3.org/2000/svg" xmlns:xlink="http://www.w3.org/1999/xlink" x="0px"
	 y="0px" width="350px" height="300px" viewBox="0 0 350 300" enable-background="new 0 0 350 300" xml:space="preserve">
<path fill="#FFFFFF" stroke="#FFFFFF" stroke-miterlimit="10" d="M152.9,294.6c-7.2,0-11-3.699-13.8-6.4c-2.5-2.398-3.8-3.6-6.8-3.6
	s-4.3,1.201-6.8,3.6c-2.8,2.701-6.6,6.4-13.8,6.4s-11-3.699-13.8-6.4c-2.5-2.398-3.8-3.6-6.8-3.6s-4.3,1.201-6.8,3.6
	c-2.8,2.701-6.6,6.4-13.8,6.4c-7.2,0-11-3.699-13.8-6.4c-2.5-2.398-3.8-3.6-6.8-3.6s-4.3,1.201-6.8,3.6c-2.8,2.701-6.6,6.4-13.8,6.4
	c-7.2,0-11-3.699-13.8-6.4c-2.5-2.398-3.8-3.6-6.8-3.6c-2.8,0-5-2.199-5-5c0-2.799,2.2-5,5-5c7.2,0,11,3.701,13.8,6.4
	c2.5,2.4,3.8,3.6,6.8,3.6s4.3-1.199,6.8-3.6c2.8-2.699,6.6-6.4,13.8-6.4c7.2,0,11,3.701,13.8,6.4c2.5,2.4,3.8,3.6,6.8,3.6
	s4.3-1.199,6.8-3.6c2.8-2.699,6.6-6.4,13.8-6.4c7.2,0,11,3.701,13.8,6.4c2.5,2.4,3.8,3.6,6.8,3.6s4.3-1.199,6.8-3.6
	c2.8-2.699,6.6-6.4,13.8-6.4c7.2,0,11,3.701,13.8,6.4c2.5,2.4,3.8,3.6,6.8,3.6c2.8,0,5,2.201,5,5
	C157.9,292.4,155.7,294.6,152.9,294.6"/>
<path fill="#FFFFFF" stroke="#FFFFFF" stroke-miterlimit="10" d="M341.101,264.801c-3,0-4.301-1.201-6.801-3.602
	c-2.8-2.699-6.6-6.398-13.8-6.398c-0.6,0-1.1,0-1.7,0.1L289.7,201c-0.9-1.6-2.6-2.6-4.4-2.6h-70.199l-8.9-110h13.9c2.8,0,5-2.3,5-5
	c0-2.7-2.301-5-5-5h-14.7l-1.2-15.2h6.8c2.8,0,5-2.2,5-5c0-2.8-2.2-5-5-5h-13.8v-0.3v-8.2c0-10.8-7.6-19.8-17.6-22.1v-8.1
	c0-2.8-2.2-5-5-5c-2.8,0-5,2.2-5,5v8.1c-10,2.3-17.6,11.3-17.6,22.1v8.2v0.3h-13.8c-2.8,0-5,2.2-5,5c0,2.8,2.2,5,5,5h7l-1.3,15.2
	H129c-2.8,0-5,2.3-5,5c0,2.7,2.3,5,5,5h14.1l-9.1,110H63.8c-1.8,0-3.5,1-4.4,2.6l-30.1,56.1c-1.3,2.4-0.4,5.5,2,6.801
	c0.8,0.4,1.6,0.6,2.4,0.6c1.8,0,3.5-1,4.4-2.6l28.7-53.5h72h13.6h44.8h13.5h71.9l27.1,50.299c-1.1,0.801-2,1.701-2.8,2.5
	c-2.5,2.4-3.8,3.602-6.8,3.602s-4.301-1.201-6.801-3.602c-2.8-2.699-6.6-6.398-13.8-6.398s-11,3.699-13.8,6.398
	c-2.5,2.4-3.8,3.602-6.8,3.602s-4.3-1.201-6.8-3.602c-2.801-2.699-6.601-6.398-13.801-6.398c-7.199,0-11,3.699-13.8,6.398
	c-2.5,2.4-3.8,3.602-6.8,3.602s-4.3-1.201-6.8-3.602c-2.8-2.699-6.601-6.398-13.8-6.398c-2.801,0-5,2.199-5,5c0,2.799,2.199,5,5,5
	c3,0,4.3,1.199,6.8,3.6c2.8,2.699,6.6,6.4,13.8,6.4s11-3.701,13.8-6.4c2.5-2.4,3.8-3.6,6.8-3.6s4.301,1.199,6.801,3.6
	c2.8,2.699,6.6,6.4,13.8,6.4s11-3.701,13.8-6.4c2.5-2.4,3.8-3.6,6.8-3.6s4.3,1.199,6.8,3.6c2.801,2.699,6.601,6.4,13.801,6.4
	c7.199,0,11-3.701,13.8-6.4c2.5-2.4,3.8-3.6,6.8-3.6s4.3,1.199,6.8,3.6c2.8,2.699,6.601,6.4,13.8,6.4c2.801,0,5-2.201,5-5
	C346.3,267,343.9,264.801,341.101,264.801 M162,52.9v-8.2c0-7,5.7-12.6,12.6-12.6c7,0,12.6,5.7,12.6,12.6v8.2v0.3H162V52.9z
	 M155.4,63.2H194.3l1.2,15.2h-41.3L155.4,63.2z M197.101,198.301h-44.8h-8.2l9.1-110h43l8.9,110H197.101z"/>
<path fill="#FFFFFF" stroke="#FFFFFF" stroke-miterlimit="10" d="M174.7,102.4c-2.8,0-5,2.2-5,5v10.1c0,2.8,2.3,5,5,5s5-2.3,5-5
	v-10.1C179.7,104.6,177.4,102.4,174.7,102.4"/>
<path fill="#FFFFFF" stroke="#FFFFFF" stroke-miterlimit="10" d="M174.7,133.8c-2.8,0-5,2.3-5,5v10.1c0,2.799,2.3,5,5,5s5-2.301,5-5
	v-10.1C179.7,136.1,177.4,133.8,174.7,133.8"/>
<path fill="#FFFFFF" stroke="#FFFFFF" stroke-miterlimit="10" d="M174.7,165.301c-2.8,0-5,2.299-5,5v10.1c0,2.799,2.3,5,5,5
	s5-2.301,5-5v-10.1C179.7,167.5,177.4,165.301,174.7,165.301"/>
</svg>
