<?xml version="1.0" encoding="utf-8"?>
<!-- Generator: Adobe Illustrator 16.0.0, SVG Export Plug-In . SVG Version: 6.00 Build 0)  -->
<!DOCTYPE svg PUBLIC "-//W3C//DTD SVG 1.1//EN" "http://www.w3.org/Graphics/SVG/1.1/DTD/svg11.dtd">
<svg version="1.1" id="레이어_1" xmlns="http://www.w3.org/2000/svg" xmlns:xlink="http://www.w3.org/1999/xlink" x="0px"
	 y="0px" width="350px" height="300px" viewBox="0 0 350 300" enable-background="new 0 0 350 300" xml:space="preserve">
<path fill="#FFFFFF" stroke="#FFFFFF" stroke-miterlimit="10" d="M233.709,55.512c3.398,0.4,6.6-2,7.1-5.4
	c0.5-3.3-1.9-6.6-5.301-7.2c-3.4-0.5-6.6,1.8-7.199,5.2C227.607,51.712,230.107,55.012,233.709,55.512"/>
<path fill="#FFFFFF" stroke="#FFFFFF" stroke-miterlimit="10" d="M216.408,48.813c3.6,0.5,6.801-1.9,7.199-5.6
	c0.4-3.5-2.1-6.6-5.5-7c-3.398-0.4-6.5,2-7,5.5C210.709,45.112,213.008,48.212,216.408,48.813"/>
<path fill="#FFFFFF" stroke="#FFFFFF" stroke-miterlimit="10" d="M343.908,100.012l-241.8-88.8c-2.6-1-5.5,0.4-6.4,3
	c-1,2.6,0.4,5.5,3,6.4l111.8,41v47.5h-41.2c-9.3,0.1-14.6,5.3-14.6,14.4v66.8c0,9.3,5.2,14.5,14.5,14.5h48.3h46.801
	c9.6,0,14.699-5.101,14.699-14.7v-66c0-9.9-5.1-15-15.199-15h-43.201v-43.8l119.9,44c0.6,0.2,1.201,0.3,1.701,0.3
	c2,0,4-1.3,4.699-3.3C347.809,103.813,346.508,100.912,343.908,100.012 M164.708,123.512c0-3.4,0.6-4.4,4.6-4.4h22v41.6h-26.601
	V123.512z M269.008,190.112c-0.1,4.1-0.699,4.7-4.699,4.7h-95c-3.8,0-4.5-0.7-4.5-4.5v-19.601h104.2V190.112z M237.908,119.112
	h25.801c4.898,0.1,5.199,0.8,5.199,5v36.6h-31V119.112z M227.908,160.813h-26.6v-41.6h26.6V160.813z"/>
<path fill="#FFFFFF" stroke="#FFFFFF" stroke-miterlimit="10" d="M135.608,227.912c3.3,0,4.8,1.4,7.2,3.601
	c2.9,2.699,6.8,6.399,14.1,6.399c2.8,0,5-2.2,5-5s-2.2-5-5-5c-3.3,0-4.8-1.399-7.2-3.6c-2.9-2.7-6.8-6.4-14.1-6.4
	c-7.3,0-11.2,3.7-14.1,6.4c-2.4,2.3-3.9,3.6-7.2,3.6s-4.8-1.399-7.2-3.6c-2.9-2.7-6.8-6.4-14.1-6.4c-7.3,0-11.2,3.7-14.1,6.4
	c-2.4,2.3-3.9,3.6-7.2,3.6c-3.3,0-4.8-1.399-7.2-3.6c-2.9-2.7-6.8-6.4-14.1-6.4c-7.3,0-11.2,3.7-14.1,6.4c-2.4,2.3-3.9,3.6-7.2,3.6
	c-3.3,0-4.8-1.399-7.2-3.6c-2.9-2.7-6.8-6.4-14.1-6.4c-2.8,0-5,2.2-5,5s2.2,5,5,5c3.3,0,4.8,1.4,7.2,3.601
	c2.9,2.699,6.8,6.399,14.1,6.399c7.3,0,11.2-3.7,14.1-6.399c2.4-2.301,3.9-3.601,7.2-3.601c3.3,0,4.8,1.4,7.2,3.601
	c2.9,2.699,6.8,6.399,14.1,6.399c7.3,0,11.2-3.7,14.1-6.399c2.4-2.301,3.9-3.601,7.2-3.601c3.3,0,4.8,1.4,7.2,3.601
	c2.9,2.699,6.8,6.399,14.1,6.399s11.2-3.7,14.1-6.399C130.808,229.313,132.208,227.912,135.608,227.912"/>
<path fill="#FFFFFF" stroke="#FFFFFF" stroke-miterlimit="10" d="M283.809,279.112c-3.6,0-5.201-1.4-7.701-3.7
	c-2.898-2.7-7-6.3-14.398-6.3c-7.4,0-11.5,3.6-14.4,6.3c-2.6,2.3-4.1,3.7-7.701,3.7c-3.6,0-5.199-1.4-7.699-3.7
	c-2.9-2.7-7-6.3-14.4-6.3s-11.5,3.6-14.4,6.3c-2.6,2.3-4.1,3.7-7.699,3.7s-5.199-1.4-7.699-3.7c-2.9-2.7-7-6.3-14.401-6.3
	c-7.4,0-11.5,3.6-14.4,6.3c-2.6,2.3-4.1,3.7-7.7,3.7s-5.2-1.4-7.7-3.7c-2.9-2.7-7-6.3-14.4-6.3c-2.8,0-5,2.2-5,5s2.2,5,5,5
	c3.6,0,5.2,1.4,7.7,3.7c2.9,2.7,7,6.3,14.4,6.3c7.5,0,11.5-3.6,14.4-6.3c2.6-2.3,4.1-3.7,7.7-3.7s5.2,1.4,7.7,3.7
	c2.9,2.7,7,6.3,14.4,6.3s11.5-3.6,14.4-6.3c2.6-2.3,4.1-3.7,7.699-3.7s5.201,1.4,7.701,3.7c2.898,2.7,7,6.3,14.398,6.3
	c7.4,0,11.5-3.6,14.4-6.3c2.6-2.3,4.1-3.7,7.701-3.7c3.6,0,5.199,1.4,7.699,3.7c2.9,2.7,7,6.3,14.4,6.3c2.799,0,5-2.2,5-5
	S286.508,279.112,283.809,279.112"/>
</svg>
