<?xml version="1.0" encoding="utf-8"?>
<!-- Generator: Adobe Illustrator 16.0.0, SVG Export Plug-In . SVG Version: 6.00 Build 0)  -->
<!DOCTYPE svg PUBLIC "-//W3C//DTD SVG 1.1//EN" "http://www.w3.org/Graphics/SVG/1.1/DTD/svg11.dtd">
<svg version="1.1" id="레이어_1" xmlns="http://www.w3.org/2000/svg" xmlns:xlink="http://www.w3.org/1999/xlink" x="0px"
	 y="0px" width="350px" height="300px" viewBox="0 0 350 300" enable-background="new 0 0 350 300" xml:space="preserve">
<path fill="#FFFFFF" stroke="#FFFFFF" stroke-miterlimit="10" d="M217.262,298.044c-0.363,0-0.777-0.011-1.217-0.07
	c-0.216,0-0.475,0.009-0.752,0.016c-0.416,0.01-0.865,0.021-1.3,0.021h-68.616c-0.422,0-0.805-0.01-1.122-0.02
	c-0.26,0.035-0.531,0.055-0.815,0.055c-0.147,0-0.357-0.006-0.617-0.015c-0.265-0.009-0.609-0.021-0.998-0.021H38.475
	c-4.191,0-7.475-2.929-7.475-6.667V128.821c0-2.846,1.776-5.622,3.537-7.11L174.202,3.671c1.31-1.106,3.01-1.715,4.791-1.715
	c1.771,0,3.463,0.603,4.769,1.698l138.043,115.879c2.207,1.849,3.195,4.906,3.195,7.115v164.694c0,3.863-2.816,6.667-6.697,6.667
	h-98.988c-0.354,0-0.717,0.01-1.053,0.019C217.891,298.036,217.547,298.044,217.262,298.044z M216.047,287.975
	c0.363,0,0.778,0.01,1.217,0.069c0.217-0.001,0.475-0.008,0.75-0.015c0.416-0.01,0.865-0.021,1.301-0.021H315v-161.13
	L178.998,12.711L41,129.342v158.667h100.824c0.422,0,0.805,0.011,1.123,0.021c0.259-0.035,0.53-0.055,0.814-0.055
	c0.146,0,0.357,0.006,0.618,0.015c0.264,0.009,0.608,0.021,0.997,0.021h68.616c0.354,0,0.716-0.01,1.053-0.018
	C215.416,287.98,215.76,287.975,216.047,287.975z"/>
<path fill="#FFFFFF" stroke="#FFFFFF" stroke-miterlimit="10" d="M305,83.008c-2.762,0-5-2.239-5-5v-46h-38c-2.762,0-5-2.239-5-5
	c0-2.761,2.238-5,5-5h43c2.762,0,5,2.239,5,5v51C310,80.77,307.762,83.008,305,83.008z"/>
<path fill="#FFFFFF" stroke="#FFFFFF" stroke-miterlimit="10" d="M239.051,268.277h-35.789c-2.762,0-5-2.237-5-5v-58.109h-39.744
	v58.109c0,2.763-2.238,5-5,5h-35.789c-2.762,0-5-2.237-5-5v-157.27c0-2.761,2.238-5,5-5h35.789c2.762,0,5,2.239,5,5v53.447h39.744
	v-53.447c0-2.761,2.238-5,5-5h35.789c2.762,0,5,2.239,5,5v157.27C244.051,266.04,241.813,268.277,239.051,268.277z M208.262,258.277
	h25.789v-147.27h-25.789v53.447c0,2.762-2.238,5-5,5h-49.744c-2.762,0-5-2.238-5-5v-53.447h-25.789v147.27h25.789v-58.109
	c0-2.762,2.238-5,5-5h49.744c2.762,0,5,2.238,5,5V258.277z"/>
</svg>
