<?xml version="1.0" encoding="utf-8"?>
<!-- Generator: Adobe Illustrator 16.0.0, SVG Export Plug-In . SVG Version: 6.00 Build 0)  -->
<!DOCTYPE svg PUBLIC "-//W3C//DTD SVG 1.1//EN" "http://www.w3.org/Graphics/SVG/1.1/DTD/svg11.dtd">
<svg version="1.1" id="레이어_1" xmlns="http://www.w3.org/2000/svg" xmlns:xlink="http://www.w3.org/1999/xlink" x="0px"
	 y="0px" width="122px" height="40px" viewBox="0 0 122 40" enable-background="new 0 0 122 40" xml:space="preserve">
<g>
	<path fill="#111111" d="M22.607,36.717v-8.193h1.084v7.228h4.036v0.968h-5.12V36.717z"/>
	<path fill="#111111" d="M28.655,32.727c0-1.36,0.365-2.426,1.096-3.195c0.731-0.768,1.673-1.153,2.828-1.153
		c0.757,0,1.438,0.181,2.046,0.542c0.607,0.361,1.07,0.866,1.39,1.514c0.318,0.646,0.478,1.379,0.478,2.198
		c0,0.831-0.168,1.574-0.503,2.229c-0.336,0.656-0.811,1.152-1.426,1.49c-0.614,0.338-1.278,0.506-1.99,0.506
		c-0.771,0-1.461-0.187-2.068-0.56c-0.607-0.372-1.067-0.882-1.38-1.526C28.812,34.127,28.655,33.445,28.655,32.727z M29.773,32.742
		c0,0.988,0.265,1.766,0.796,2.334c0.531,0.568,1.197,0.854,1.999,0.854c0.815,0,1.487-0.287,2.015-0.861
		c0.528-0.573,0.791-1.389,0.791-2.442c0-0.666-0.112-1.249-0.338-1.746c-0.226-0.498-0.556-0.884-0.989-1.157
		c-0.435-0.273-0.922-0.41-1.462-0.41c-0.768,0-1.429,0.264-1.981,0.791C30.05,30.629,29.773,31.51,29.773,32.742z"/>
	<path fill="#111111" d="M37.933,34.084l1.022-0.089c0.049,0.409,0.161,0.745,0.338,1.009c0.178,0.264,0.452,0.475,0.825,0.637
		c0.372,0.162,0.792,0.244,1.258,0.244c0.413,0,0.778-0.063,1.096-0.186c0.316-0.122,0.552-0.291,0.707-0.506
		c0.154-0.215,0.231-0.447,0.231-0.701c0-0.258-0.074-0.48-0.224-0.674c-0.148-0.191-0.395-0.354-0.737-0.482
		c-0.22-0.086-0.706-0.221-1.459-0.4c-0.753-0.18-1.28-0.352-1.582-0.512c-0.392-0.205-0.684-0.459-0.875-0.763
		c-0.192-0.304-0.288-0.644-0.288-1.021c0-0.414,0.117-0.801,0.353-1.16c0.234-0.359,0.577-0.633,1.028-0.818
		c0.451-0.188,0.952-0.279,1.504-0.279c0.607,0,1.144,0.098,1.607,0.293c0.463,0.195,0.82,0.484,1.07,0.863
		c0.249,0.381,0.384,0.811,0.402,1.292l-1.04,0.078c-0.056-0.519-0.245-0.909-0.567-1.175c-0.322-0.264-0.798-0.396-1.428-0.396
		c-0.656,0-1.134,0.121-1.435,0.361c-0.3,0.24-0.449,0.529-0.449,0.869c0,0.295,0.105,0.537,0.318,0.727
		c0.209,0.189,0.754,0.385,1.635,0.584c0.882,0.199,1.486,0.374,1.814,0.523c0.477,0.219,0.829,0.498,1.057,0.834
		c0.227,0.338,0.341,0.727,0.341,1.166c0,0.437-0.125,0.848-0.375,1.232c-0.249,0.387-0.608,0.686-1.076,0.899
		c-0.468,0.215-0.994,0.321-1.579,0.321c-0.741,0-1.363-0.107-1.864-0.324s-0.895-0.541-1.18-0.977
		C38.097,35.123,37.947,34.633,37.933,34.084z"/>
	<path fill="#111111" d="M48.849,36.717l3.147-8.193h1.168l3.354,8.193h-1.235l-0.955-2.48H50.9l-0.9,2.48H48.849z M51.213,33.352
		h2.778l-0.855-2.27c-0.261-0.689-0.454-1.256-0.581-1.699c-0.104,0.525-0.252,1.047-0.441,1.564L51.213,33.352z"/>
	<path fill="#111111" d="M57.785,36.717v-8.193h1.112l4.305,6.435v-6.435h1.039v8.193h-1.112l-4.304-6.439v6.439H57.785z"/>
	<path fill="#111111" d="M70.299,33.503v-0.962l3.473-0.005v3.041c-0.533,0.425-1.084,0.743-1.649,0.958s-1.147,0.322-1.744,0.322
		c-0.805,0-1.536-0.174-2.192-0.519c-0.658-0.345-1.154-0.844-1.49-1.495c-0.336-0.652-0.504-1.381-0.504-2.188
		c0-0.797,0.168-1.541,0.5-2.231c0.334-0.69,0.813-1.204,1.439-1.54c0.626-0.335,1.348-0.503,2.164-0.503
		c0.592,0,1.128,0.097,1.605,0.287c0.479,0.192,0.854,0.46,1.127,0.804c0.271,0.342,0.479,0.789,0.621,1.342l-0.979,0.268
		c-0.123-0.417-0.274-0.744-0.458-0.982s-0.443-0.431-0.781-0.574c-0.341-0.143-0.717-0.215-1.131-0.215
		c-0.494,0-0.924,0.076-1.285,0.228c-0.361,0.149-0.652,0.351-0.875,0.596c-0.222,0.245-0.395,0.517-0.518,0.812
		c-0.208,0.506-0.313,1.056-0.313,1.648c0,0.729,0.125,1.342,0.377,1.834c0.252,0.491,0.617,0.856,1.099,1.096
		c0.481,0.238,0.991,0.356,1.53,0.356c0.471,0,0.93-0.09,1.377-0.271c0.447-0.182,0.785-0.373,1.017-0.578v-1.526h-2.409V33.503z"/>
	<path fill="#111111" d="M75.805,36.717v-8.193h5.926v0.967h-4.842V32h4.533v0.962h-4.533v2.789h5.031v0.968h-6.115V36.717z"/>
	<path fill="#111111" d="M83.786,36.717v-8.193h1.084v7.228h4.036v0.968h-5.12V36.717z"/>
	<path fill="#111111" d="M90.632,36.717v-8.193h5.927v0.967h-4.842V32h4.533v0.962h-4.533v2.789h5.031v0.968h-6.116V36.717z"/>
	<path fill="#111111" d="M98.175,34.084l1.022-0.089c0.049,0.409,0.16,0.745,0.338,1.009s0.451,0.475,0.824,0.637
		s0.793,0.244,1.259,0.244c0.413,0,0.778-0.063,1.096-0.186c0.316-0.122,0.552-0.291,0.707-0.506
		c0.154-0.215,0.231-0.447,0.231-0.701c0-0.258-0.074-0.48-0.225-0.674c-0.147-0.191-0.395-0.354-0.736-0.482
		c-0.221-0.086-0.707-0.221-1.459-0.4c-0.754-0.18-1.28-0.352-1.582-0.512c-0.393-0.205-0.685-0.459-0.875-0.763
		c-0.192-0.304-0.289-0.644-0.289-1.021c0-0.414,0.117-0.801,0.354-1.16c0.234-0.359,0.577-0.633,1.028-0.818
		c0.45-0.188,0.952-0.279,1.504-0.279c0.606,0,1.144,0.098,1.606,0.293s0.82,0.484,1.07,0.863c0.249,0.381,0.385,0.811,0.402,1.292
		l-1.04,0.078c-0.056-0.519-0.245-0.909-0.567-1.175c-0.322-0.264-0.798-0.396-1.428-0.396c-0.656,0-1.134,0.121-1.436,0.361
		c-0.299,0.24-0.448,0.529-0.448,0.869c0,0.295,0.104,0.537,0.317,0.727c0.209,0.189,0.754,0.385,1.635,0.584
		c0.883,0.199,1.486,0.374,1.814,0.523c0.477,0.219,0.829,0.498,1.057,0.834c0.228,0.338,0.342,0.727,0.342,1.166
		c0,0.437-0.125,0.848-0.375,1.232c-0.249,0.387-0.608,0.686-1.076,0.899c-0.469,0.215-0.994,0.321-1.579,0.321
		c-0.741,0-1.362-0.107-1.864-0.324c-0.501-0.217-0.895-0.541-1.18-0.977C98.339,35.123,98.189,34.633,98.175,34.084z"/>
</g>
<g>
	<path fill="#111111" d="M10.633,7.007c-0.188-0.136-0.409-0.268-0.661-0.394C9.72,6.487,9.463,6.372,9.2,6.267
		C8.938,6.163,8.68,6.079,8.429,6.016C8.178,5.952,7.962,5.92,7.784,5.92c-0.641,0-1.115,0.158-1.425,0.472
		C6.05,6.708,5.895,7.106,5.895,7.589c0,0.283,0.103,0.533,0.308,0.748c0.204,0.215,0.45,0.409,0.739,0.583
		C7.23,9.092,7.529,9.245,7.839,9.376S8.413,9.62,8.634,9.714c0.577,0.262,1.094,0.522,1.551,0.779
		c0.456,0.257,0.837,0.533,1.141,0.826c0.305,0.294,0.538,0.625,0.701,0.992c0.162,0.368,0.244,0.792,0.244,1.275
		c0,0.734-0.147,1.346-0.441,1.833c-0.294,0.488-0.669,0.879-1.125,1.173c-0.457,0.294-0.963,0.504-1.52,0.63
		s-1.092,0.189-1.605,0.189c-0.818,0-1.643-0.16-2.472-0.48c-0.829-0.32-1.658-0.858-2.487-1.613l1.48-1.559
		c0.22,0.21,0.472,0.412,0.755,0.606c0.283,0.194,0.572,0.365,0.866,0.512c0.294,0.147,0.582,0.263,0.865,0.346
		c0.284,0.084,0.536,0.126,0.756,0.126c0.263,0,0.532-0.026,0.811-0.079c0.278-0.052,0.527-0.147,0.748-0.283
		c0.221-0.136,0.401-0.317,0.543-0.543c0.142-0.226,0.213-0.512,0.213-0.858c0-0.367-0.189-0.708-0.567-1.023
		c-0.377-0.315-0.902-0.624-1.574-0.929c-0.482-0.22-0.973-0.446-1.472-0.677c-0.498-0.231-0.952-0.499-1.361-0.803
		c-0.409-0.304-0.742-0.658-1-1.063C3.426,8.688,3.297,8.203,3.297,7.636c0-0.682,0.134-1.259,0.402-1.731
		c0.268-0.472,0.608-0.853,1.022-1.141C5.136,4.475,5.6,4.268,6.115,4.142c0.514-0.126,1.023-0.189,1.526-0.189
		c0.798,0,1.548,0.139,2.252,0.417c0.702,0.278,1.354,0.632,1.951,1.063L10.633,7.007z"/>
	<path fill="#111111" d="M20.519,16.027c-0.126,0.23-0.286,0.438-0.48,0.622c-0.194,0.184-0.401,0.338-0.622,0.464
		c-0.22,0.126-0.454,0.223-0.7,0.292c-0.247,0.068-0.485,0.102-0.716,0.102c-0.525,0-1.008-0.079-1.448-0.236
		c-0.441-0.157-0.821-0.391-1.142-0.7c-0.321-0.309-0.569-0.693-0.748-1.149c-0.179-0.456-0.268-0.984-0.268-1.582V7.699h2.409
		v5.966c0,0.315,0.047,0.596,0.142,0.842c0.094,0.247,0.215,0.454,0.361,0.622c0.147,0.168,0.317,0.294,0.512,0.378
		c0.195,0.084,0.396,0.126,0.606,0.126c0.325,0,0.616-0.061,0.874-0.181c0.257-0.121,0.477-0.286,0.661-0.496
		c0.183-0.209,0.322-0.459,0.417-0.748c0.094-0.289,0.142-0.601,0.142-0.937V7.699h2.439v9.54h-2.439V16.027z"/>
	<path fill="#111111" d="M30.75,7.463c0.683,0,1.278,0.118,1.787,0.354c0.509,0.236,0.934,0.572,1.275,1.007
		c0.341,0.437,0.595,0.96,0.763,1.574c0.168,0.614,0.252,1.299,0.252,2.054c0,1.596-0.336,2.808-1.007,3.637
		c-0.672,0.829-1.695,1.243-3.07,1.243c-0.629,0-1.148-0.121-1.558-0.362c-0.41-0.242-0.74-0.556-0.992-0.944v4.88h-2.424V7.699
		H28.2V8.88c0.272-0.441,0.616-0.787,1.031-1.039C29.646,7.589,30.152,7.463,30.75,7.463z M30.31,9.289
		c-0.566,0-1.047,0.213-1.44,0.638c-0.393,0.425-0.616,1.1-0.669,2.023v0.944c0.031,0.378,0.097,0.729,0.197,1.055
		c0.1,0.326,0.235,0.606,0.409,0.842c0.173,0.236,0.383,0.42,0.629,0.551c0.247,0.131,0.538,0.197,0.874,0.197
		c0.367,0,0.682-0.092,0.944-0.275c0.262-0.183,0.48-0.425,0.653-0.724c0.173-0.299,0.302-0.632,0.386-1s0.126-0.74,0.126-1.118
		c0-0.399-0.037-0.787-0.11-1.165c-0.073-0.378-0.194-0.711-0.362-1c-0.168-0.289-0.385-0.522-0.652-0.701
		C31.025,9.378,30.697,9.289,30.31,9.289z"/>
	<path fill="#111111" d="M45.091,16.184c-0.525,0.462-1.092,0.792-1.7,0.992c-0.608,0.2-1.302,0.304-2.078,0.315
		c-0.724,0-1.385-0.105-1.983-0.315c-0.598-0.21-1.109-0.525-1.535-0.944c-0.425-0.42-0.753-0.934-0.983-1.543
		c-0.23-0.608-0.347-1.307-0.347-2.093c0-0.777,0.107-1.48,0.323-2.109c0.215-0.63,0.521-1.165,0.921-1.606
		c0.398-0.441,0.884-0.782,1.456-1.023c0.571-0.242,1.22-0.362,1.944-0.362c0.702,0,1.327,0.124,1.873,0.37
		c0.545,0.247,1.005,0.588,1.377,1.023c0.373,0.436,0.656,0.945,0.851,1.527c0.193,0.583,0.285,1.21,0.275,1.881
		c0,0.137-0.008,0.299-0.023,0.488c-0.016,0.189-0.034,0.357-0.056,0.504H38.92c0.042,0.462,0.146,0.842,0.314,1.141
		c0.168,0.299,0.37,0.535,0.606,0.708c0.236,0.173,0.49,0.297,0.764,0.37c0.272,0.073,0.54,0.11,0.803,0.11
		c0.21,0,0.433-0.016,0.669-0.047c0.236-0.032,0.47-0.084,0.7-0.158c0.231-0.073,0.449-0.17,0.653-0.291
		c0.205-0.121,0.381-0.265,0.527-0.433L45.091,16.184z M43.139,11.461c-0.011-0.304-0.073-0.587-0.188-0.85
		c-0.116-0.262-0.271-0.49-0.465-0.685c-0.194-0.194-0.417-0.346-0.669-0.457c-0.252-0.111-0.509-0.165-0.771-0.165
		c-0.252,0-0.501,0.055-0.748,0.165c-0.246,0.11-0.47,0.263-0.669,0.457c-0.199,0.194-0.361,0.422-0.487,0.685
		c-0.126,0.263-0.194,0.546-0.205,0.85H43.139z"/>
	<path fill="#111111" d="M50.034,9.147c0.157-0.272,0.364-0.524,0.622-0.755c0.257-0.231,0.543-0.425,0.857-0.583
		c0.315-0.157,0.646-0.268,0.992-0.331c0.346-0.063,0.692-0.058,1.039,0.016V9.54c-0.368-0.063-0.756-0.063-1.165,0
		s-0.787,0.187-1.134,0.37c-0.347,0.183-0.635,0.433-0.865,0.748c-0.231,0.315-0.347,0.698-0.347,1.149v5.431H47.61v-9.54h2.424
		V9.147z"/>
	<path fill="#111111" d="M54.521,7.526v-0.52c0-0.64,0.087-1.181,0.26-1.622c0.173-0.441,0.406-0.797,0.7-1.07
		s0.633-0.472,1.016-0.598S57.28,3.528,57.7,3.528c0.325,0,0.677,0.04,1.055,0.118s0.771,0.239,1.181,0.48L59.07,5.748
		c-0.273-0.116-0.51-0.191-0.709-0.229c-0.199-0.037-0.347-0.055-0.44-0.055c-0.315,0-0.554,0.103-0.717,0.307
		C57.042,5.976,56.96,6.33,56.96,6.833v0.693h1.874v1.889H56.96v7.824h-2.439V9.415h-1.228V7.526H54.521z"/>
	<path fill="#111111" d="M61.194,3.811h2.881v2.503h-2.881V3.811z M61.431,7.699h2.424v9.54h-2.424V7.699z"/>
	<path fill="#111111" d="M74.842,16.09c-0.504,0.503-1.07,0.863-1.699,1.078s-1.274,0.323-1.937,0.323c-0.726,0-1.392-0.131-2-0.394
		c-0.608-0.263-1.136-0.617-1.582-1.063c-0.444-0.446-0.792-0.974-1.038-1.582c-0.247-0.609-0.37-1.259-0.37-1.952
		c0-0.755,0.126-1.445,0.378-2.07s0.604-1.157,1.055-1.598c0.451-0.44,0.986-0.784,1.605-1.031c0.619-0.247,1.291-0.37,2.016-0.37
		c0.619,0,1.195,0.095,1.73,0.283c0.535,0.189,1.092,0.473,1.669,0.85l-1.008,1.543c-0.367-0.241-0.767-0.441-1.196-0.598
		c-0.431-0.158-0.829-0.236-1.195-0.236c-0.367,0-0.709,0.079-1.023,0.236c-0.314,0.157-0.594,0.377-0.834,0.661
		c-0.241,0.283-0.432,0.625-0.566,1.023c-0.137,0.399-0.205,0.84-0.205,1.322c0,0.504,0.082,0.945,0.244,1.322
		c0.163,0.378,0.37,0.698,0.622,0.96c0.252,0.262,0.535,0.459,0.851,0.59c0.314,0.131,0.623,0.197,0.929,0.197
		c0.179,0,0.37-0.013,0.575-0.04c0.203-0.026,0.41-0.076,0.621-0.149c0.209-0.073,0.416-0.173,0.621-0.299s0.401-0.289,0.592-0.488
		L74.842,16.09z"/>
	<path fill="#111111" d="M76.59,3.811h2.881v2.503H76.59V3.811z M76.826,7.699h2.424v9.54h-2.424V7.699z"/>
	<path fill="#111111" d="M82.052,8.408c0.734-0.43,1.448-0.706,2.142-0.827c0.692-0.12,1.316-0.17,1.873-0.149
		c0.524,0.021,1.016,0.105,1.473,0.252c0.456,0.147,0.855,0.359,1.195,0.638c0.342,0.278,0.608,0.617,0.804,1.015
		c0.194,0.399,0.291,0.866,0.291,1.401v4.25c0,0.231,0.014,0.514,0.04,0.85c0.025,0.336,0.128,0.803,0.307,1.401h-2.738
		l-0.017-0.992c-0.157,0.22-0.339,0.407-0.543,0.559c-0.205,0.152-0.423,0.281-0.653,0.386s-0.461,0.181-0.691,0.229
		c-0.231,0.047-0.451,0.071-0.661,0.071c-0.462,0-0.911-0.068-1.347-0.205c-0.437-0.137-0.82-0.336-1.156-0.598
		c-0.336-0.263-0.605-0.59-0.811-0.984s-0.309-0.853-0.309-1.377c0-0.651,0.123-1.22,0.37-1.708
		c0.246-0.488,0.619-0.879,1.118-1.173c0.498-0.293,1.13-0.49,1.896-0.59c0.767-0.1,1.669-0.086,2.707,0.04
		c0.011-0.409-0.108-0.75-0.36-1.023c-0.252-0.272-0.567-0.457-0.944-0.551C85.805,9.271,85.553,9.25,85.28,9.26
		c-0.273,0.011-0.546,0.047-0.818,0.11s-0.541,0.142-0.803,0.236c-0.263,0.095-0.494,0.2-0.693,0.315L82.052,8.408z M85.139,15.728
		c0.262,0,0.523-0.052,0.786-0.157c0.263-0.105,0.498-0.247,0.708-0.425s0.383-0.391,0.52-0.637
		c0.138-0.246,0.205-0.506,0.205-0.779v-1.196c-1.321-0.179-2.295-0.126-2.92,0.157c-0.625,0.283-0.938,0.724-0.938,1.322
		c0,0.619,0.158,1.06,0.473,1.322S84.676,15.728,85.139,15.728z"/>
	<path fill="#111111" d="M92.646,3.811h2.424v13.428h-2.424V3.811z"/>
	<path fill="#111111" d="M97.809,3.811h2.881v2.503h-2.881V3.811z M98.045,7.699h2.424v9.54h-2.424V7.699z"/>
	<path fill="#111111" d="M103.947,5.433l2.439-0.771v3.022h2.188v1.889h-2.188v4.565c0,0.294,0.062,0.53,0.182,0.708
		c0.121,0.178,0.281,0.317,0.479,0.417c0.199,0.1,0.425,0.168,0.677,0.205c0.252,0.037,0.51,0.055,0.771,0.055v1.936
		c-0.661,0.073-1.271,0.065-1.834-0.023c-0.563-0.089-1.042-0.265-1.439-0.527c-0.398-0.262-0.712-0.606-0.938-1.031
		c-0.227-0.425-0.339-0.937-0.339-1.535V9.573h-1.495V7.684h1.495L103.947,5.433L103.947,5.433z"/>
	<path fill="#111111" d="M109.977,18.797c0.441-0.105,0.832-0.226,1.174-0.362c0.341-0.136,0.638-0.299,0.89-0.488
		c0.252-0.189,0.465-0.412,0.638-0.669c0.174-0.257,0.317-0.554,0.434-0.89l-3.4-8.689h2.566l2.062,5.825l2.047-5.825h2.55
		l-3.084,8.375c-0.18,0.504-0.367,0.947-0.566,1.331c-0.2,0.383-0.42,0.763-0.661,1.141c-0.252,0.378-0.533,0.695-0.843,0.952
		c-0.311,0.257-0.635,0.47-0.977,0.638s-0.689,0.304-1.047,0.409c-0.357,0.105-0.709,0.205-1.055,0.299L109.977,18.797z"/>
</g>
</svg>
