<?xml version="1.0" encoding="utf-8"?>
<!-- Generator: Adobe Illustrator 16.0.0, SVG Export Plug-In . SVG Version: 6.00 Build 0)  -->
<!DOCTYPE svg PUBLIC "-//W3C//DTD SVG 1.1//EN" "http://www.w3.org/Graphics/SVG/1.1/DTD/svg11.dtd">
<svg version="1.1" id="레이어_1" xmlns="http://www.w3.org/2000/svg" xmlns:xlink="http://www.w3.org/1999/xlink" x="0px"
	 y="0px" width="122px" height="40px" viewBox="0 0 122 40" enable-background="new 0 0 122 40" xml:space="preserve">
<g>
	<path fill="#111111" d="M23.145,36.992v-8.195h1.633l1.939,5.803c0.179,0.541,0.31,0.944,0.392,1.213
		c0.093-0.297,0.238-0.734,0.436-1.313l1.962-5.702h1.459v8.195H29.92v-6.858l-2.382,6.858H26.56l-2.37-6.978v6.978L23.145,36.992
		L23.145,36.992z"/>
	<path fill="#111111" d="M33.149,36.992v-8.195h5.926v0.969h-4.841v2.51h4.533v0.961h-4.533v2.789h5.031v0.968L33.149,36.992
		L33.149,36.992z"/>
	<path fill="#111111" d="M40.343,36.992l3.169-4.271l-2.795-3.925h1.291l1.487,2.103c0.31,0.437,0.529,0.771,0.659,1.006
		c0.183-0.297,0.399-0.608,0.648-0.934l1.649-2.175h1.18l-2.879,3.863l3.103,4.332h-1.342l-2.063-2.925
		c-0.115-0.168-0.235-0.35-0.358-0.547c-0.183,0.299-0.313,0.502-0.391,0.615l-2.058,2.855h-1.3V36.992z"/>
	<path fill="#111111" d="M49.407,36.992v-8.195h1.085v8.195H49.407z"/>
	<path fill="#111111" d="M58.663,34.119l1.084,0.273c-0.227,0.891-0.636,1.569-1.227,2.037c-0.591,0.469-1.313,0.701-2.166,0.701
		c-0.884,0-1.602-0.18-2.155-0.539c-0.554-0.359-0.975-0.881-1.263-1.563c-0.289-0.684-0.434-1.414-0.434-2.197
		c0-0.854,0.163-1.598,0.489-2.232c0.326-0.636,0.79-1.119,1.392-1.447c0.602-0.33,1.265-0.496,1.987-0.496
		c0.82,0,1.51,0.21,2.068,0.627c0.559,0.418,0.948,1.005,1.168,1.761l-1.067,0.252c-0.19-0.597-0.466-1.03-0.827-1.303
		c-0.361-0.271-0.816-0.408-1.364-0.408c-0.63,0-1.156,0.151-1.579,0.453s-0.72,0.707-0.892,1.216
		c-0.172,0.51-0.257,1.033-0.257,1.573c0,0.696,0.102,1.306,0.305,1.825c0.203,0.521,0.519,0.908,0.947,1.166
		c0.428,0.257,0.893,0.386,1.392,0.386c0.607,0,1.122-0.175,1.543-0.524C58.228,35.329,58.514,34.809,58.663,34.119z"/>
	<path fill="#111111" d="M61.167,33.001c0-1.36,0.365-2.425,1.097-3.194c0.729-0.77,1.672-1.154,2.827-1.154
		c0.757,0,1.438,0.182,2.046,0.543c0.608,0.361,1.07,0.865,1.391,1.512c0.317,0.646,0.478,1.38,0.478,2.199
		c0,0.832-0.168,1.574-0.503,2.23c-0.336,0.655-0.811,1.152-1.426,1.489c-0.614,0.337-1.278,0.506-1.99,0.506
		c-0.771,0-1.461-0.187-2.068-0.56c-0.606-0.372-1.066-0.881-1.379-1.525C61.323,34.402,61.167,33.721,61.167,33.001z
		 M62.285,33.018c0,0.987,0.265,1.767,0.796,2.334c0.53,0.568,1.196,0.854,1.999,0.854c0.814,0,1.486-0.287,2.015-0.861
		c0.527-0.572,0.791-1.388,0.791-2.441c0-0.668-0.112-1.25-0.338-1.748c-0.226-0.496-0.556-0.883-0.989-1.156
		c-0.435-0.273-0.922-0.411-1.461-0.411c-0.769,0-1.43,0.265-1.981,0.791C62.563,30.902,62.285,31.784,62.285,33.018z"/>
	<path fill="#111111" d="M80.07,34.119l1.084,0.273c-0.228,0.891-0.637,1.569-1.228,2.037c-0.591,0.469-1.313,0.701-2.166,0.701
		c-0.884,0-1.602-0.18-2.155-0.539s-0.975-0.881-1.263-1.563c-0.288-0.684-0.434-1.414-0.434-2.197c0-0.854,0.163-1.598,0.489-2.232
		c0.326-0.636,0.789-1.119,1.392-1.447c0.603-0.33,1.265-0.496,1.987-0.496c0.82,0,1.51,0.21,2.067,0.627
		c0.56,0.418,0.948,1.005,1.169,1.761l-1.068,0.252c-0.189-0.597-0.465-1.03-0.826-1.303c-0.361-0.271-0.816-0.408-1.364-0.408
		c-0.63,0-1.155,0.151-1.579,0.453c-0.423,0.302-0.72,0.707-0.892,1.216c-0.173,0.51-0.257,1.033-0.257,1.573
		c0,0.696,0.102,1.306,0.305,1.825c0.203,0.521,0.52,0.908,0.947,1.166c0.428,0.257,0.893,0.386,1.392,0.386
		c0.606,0,1.122-0.175,1.543-0.524C79.635,35.329,79.921,34.809,80.07,34.119z"/>
	<path fill="#111111" d="M83.087,36.992v-8.195h1.085v8.195H83.087z"/>
	<path fill="#111111" d="M88.581,36.992v-7.229h-2.7v-0.968h6.495v0.968h-2.711v7.229H88.581z"/>
	<path fill="#111111" d="M96.325,36.992V33.52l-3.159-4.724h1.318l1.617,2.472c0.297,0.463,0.574,0.924,0.832,1.387
		c0.246-0.43,0.545-0.911,0.895-1.448l1.588-2.409h1.264l-3.271,4.725v3.472L96.325,36.992L96.325,36.992z"/>
</g>
<g>
	<path fill="#111111" d="M29.152,16.045h-8.438V2.963h2.425v11.161h6.013V16.045z"/>
	<path fill="#111111" d="M31.089,2.617h2.881V5.12h-2.881V2.617z M31.325,6.505h2.424v9.54h-2.424V6.505z"/>
	<path fill="#111111" d="M40.156,6.27c0.598,0,1.106,0.128,1.526,0.385c0.42,0.257,0.767,0.606,1.039,1.047V6.505h2.425v8.454
		c0,0.65-0.085,1.23-0.252,1.739c-0.168,0.509-0.399,0.952-0.693,1.33s-0.632,0.688-1.015,0.929
		c-0.384,0.241-0.785,0.425-1.204,0.551c-0.399,0.115-0.827,0.181-1.283,0.197c-0.457,0.016-0.913-0.014-1.37-0.087
		c-0.456-0.073-0.904-0.189-1.346-0.346c-0.44-0.157-0.85-0.346-1.228-0.567l0.756-1.684c0.241,0.136,0.511,0.265,0.812,0.386
		c0.299,0.121,0.608,0.217,0.929,0.291c0.319,0.073,0.646,0.115,0.976,0.126c0.331,0.01,0.648-0.026,0.952-0.11
		c0.221-0.063,0.423-0.155,0.606-0.275c0.183-0.12,0.347-0.283,0.488-0.488c0.141-0.205,0.252-0.452,0.33-0.74
		c0.079-0.289,0.118-0.638,0.118-1.047v-0.41c-0.263,0.399-0.598,0.729-1.007,0.992c-0.41,0.262-0.93,0.394-1.559,0.394
		c-1.375,0-2.398-0.417-3.07-1.251c-0.671-0.834-1.007-2.049-1.007-3.644c0-0.755,0.084-1.44,0.252-2.054
		c0.167-0.614,0.422-1.136,0.763-1.566c0.342-0.43,0.767-0.763,1.275-1C38.876,6.388,39.474,6.27,40.156,6.27z M40.597,8.095
		c-0.389,0-0.716,0.089-0.983,0.268c-0.268,0.179-0.486,0.412-0.653,0.701c-0.168,0.289-0.289,0.622-0.362,1
		c-0.073,0.378-0.11,0.766-0.11,1.165c0,0.378,0.042,0.75,0.126,1.118c0.084,0.368,0.213,0.7,0.386,1
		c0.173,0.3,0.391,0.541,0.653,0.724c0.262,0.184,0.577,0.275,0.944,0.275c0.347,0,0.65-0.076,0.913-0.228
		c0.262-0.152,0.482-0.359,0.661-0.622c0.179-0.262,0.313-0.574,0.401-0.937c0.089-0.362,0.139-0.758,0.149-1.188v-0.142
		c0-0.545-0.053-1.016-0.157-1.409c-0.105-0.394-0.252-0.719-0.44-0.976c-0.189-0.257-0.415-0.446-0.678-0.567
		C41.185,8.156,40.901,8.095,40.597,8.095z"/>
	<path fill="#111111" d="M50.403,7.718c0.263-0.451,0.63-0.812,1.102-1.079c0.473-0.268,0.945-0.401,1.417-0.401
		c0.524,0,1.008,0.079,1.448,0.236c0.44,0.157,0.821,0.391,1.142,0.7c0.319,0.31,0.569,0.693,0.747,1.149
		c0.179,0.457,0.268,0.984,0.268,1.582v6.139h-2.408v-5.966c0-0.314-0.047-0.595-0.142-0.842s-0.215-0.454-0.362-0.622
		c-0.146-0.167-0.32-0.293-0.52-0.377c-0.2-0.084-0.398-0.126-0.598-0.126c-0.325,0-0.617,0.061-0.874,0.181
		c-0.257,0.121-0.478,0.286-0.661,0.496s-0.322,0.459-0.417,0.748c-0.095,0.289-0.142,0.601-0.142,0.937v5.573h-2.439V2.617h2.439
		V7.718z"/>
	<path fill="#111111" d="M59.644,4.239l2.44-0.771V6.49h2.188v1.889h-2.188v4.565c0,0.294,0.061,0.53,0.182,0.708
		c0.12,0.178,0.28,0.317,0.479,0.417c0.198,0.1,0.425,0.168,0.677,0.205s0.51,0.055,0.771,0.055v1.936
		c-0.661,0.073-1.272,0.065-1.834-0.023c-0.563-0.089-1.042-0.265-1.44-0.527c-0.398-0.262-0.711-0.606-0.937-1.031
		c-0.226-0.425-0.339-0.937-0.339-1.535v-4.77h-1.495V6.49h1.495L59.644,4.239L59.644,4.239z"/>
	<path fill="#111111" d="M68.568,7.718c0.264-0.451,0.631-0.812,1.103-1.079c0.474-0.268,0.945-0.401,1.417-0.401
		c0.523,0,1.008,0.079,1.448,0.236c0.44,0.157,0.821,0.391,1.142,0.7c0.319,0.31,0.569,0.693,0.747,1.149
		c0.179,0.457,0.269,0.984,0.269,1.582v6.139h-2.408v-5.966c0-0.314-0.047-0.595-0.143-0.842c-0.095-0.247-0.215-0.454-0.361-0.622
		c-0.146-0.167-0.32-0.293-0.521-0.377s-0.397-0.126-0.598-0.126c-0.325,0-0.617,0.061-0.874,0.181
		c-0.257,0.121-0.479,0.286-0.661,0.496s-0.321,0.459-0.417,0.748c-0.095,0.289-0.143,0.601-0.143,0.937v5.573H66.13v-9.54h2.438
		V7.718z"/>
	<path fill="#111111" d="M85.396,14.99c-0.525,0.462-1.092,0.792-1.701,0.992c-0.607,0.2-1.301,0.304-2.077,0.315
		c-0.724,0-1.386-0.105-1.983-0.315s-1.109-0.525-1.535-0.944c-0.425-0.42-0.752-0.934-0.982-1.543
		c-0.23-0.608-0.348-1.307-0.348-2.093c0-0.777,0.107-1.48,0.323-2.109c0.216-0.63,0.521-1.165,0.921-1.606
		c0.398-0.441,0.885-0.782,1.456-1.023c0.571-0.242,1.22-0.362,1.944-0.362c0.702,0,1.327,0.124,1.873,0.37
		c0.545,0.247,1.005,0.588,1.377,1.023c0.373,0.436,0.656,0.945,0.852,1.527c0.192,0.583,0.284,1.21,0.274,1.881
		c0,0.137-0.008,0.299-0.022,0.488c-0.017,0.189-0.035,0.357-0.057,0.504h-6.484c0.041,0.462,0.146,0.842,0.313,1.141
		c0.168,0.299,0.37,0.535,0.606,0.708c0.235,0.173,0.489,0.297,0.764,0.37c0.271,0.073,0.54,0.11,0.803,0.11
		c0.21,0,0.434-0.016,0.669-0.047c0.236-0.032,0.47-0.084,0.7-0.158c0.23-0.073,0.449-0.17,0.652-0.291
		c0.205-0.121,0.382-0.265,0.527-0.433L85.396,14.99z M83.443,10.268c-0.01-0.304-0.072-0.587-0.188-0.85
		c-0.115-0.262-0.271-0.49-0.465-0.685c-0.193-0.194-0.417-0.346-0.669-0.457c-0.252-0.111-0.509-0.165-0.771-0.165
		c-0.252,0-0.502,0.055-0.748,0.165c-0.246,0.11-0.471,0.263-0.67,0.457c-0.199,0.194-0.36,0.422-0.486,0.685
		c-0.127,0.263-0.194,0.546-0.205,0.85H83.443z"/>
	<path fill="#111111" d="M93.031,8.819c-0.146-0.104-0.313-0.202-0.495-0.291c-0.185-0.089-0.37-0.166-0.56-0.229
		c-0.188-0.063-0.369-0.112-0.543-0.149s-0.313-0.055-0.418-0.055c-0.377,0-0.664,0.074-0.856,0.221
		c-0.194,0.147-0.292,0.346-0.292,0.598c0,0.136,0.048,0.268,0.142,0.394c0.095,0.126,0.222,0.247,0.378,0.362
		c0.157,0.116,0.34,0.231,0.543,0.347c0.205,0.115,0.424,0.231,0.653,0.346c0.356,0.189,0.709,0.377,1.056,0.566
		c0.346,0.189,0.655,0.399,0.928,0.63c0.273,0.231,0.492,0.493,0.653,0.787c0.163,0.294,0.244,0.635,0.244,1.023
		c0,0.567-0.112,1.039-0.338,1.417c-0.228,0.378-0.512,0.677-0.858,0.897c-0.346,0.22-0.724,0.377-1.133,0.472
		c-0.41,0.094-0.793,0.142-1.148,0.142c-0.631,0-1.295-0.124-1.991-0.37c-0.698-0.247-1.356-0.669-1.976-1.267l1.289-1.574
		c0.211,0.21,0.432,0.394,0.662,0.551c0.23,0.158,0.459,0.289,0.686,0.394c0.226,0.105,0.439,0.188,0.646,0.244
		c0.204,0.058,0.386,0.086,0.543,0.086c0.398,0,0.695-0.086,0.89-0.259c0.193-0.173,0.291-0.386,0.291-0.638
		c0-0.294-0.137-0.525-0.408-0.693c-0.273-0.167-0.631-0.362-1.071-0.583c-0.356-0.178-0.716-0.362-1.078-0.551
		c-0.36-0.189-0.692-0.404-0.991-0.646c-0.3-0.241-0.543-0.52-0.731-0.834c-0.188-0.315-0.283-0.688-0.283-1.118
		c0-0.514,0.104-0.955,0.313-1.322c0.211-0.367,0.479-0.664,0.805-0.89c0.324-0.226,0.689-0.391,1.094-0.496
		c0.403-0.105,0.801-0.158,1.188-0.158c0.578,0,1.166,0.1,1.764,0.299c0.6,0.199,1.118,0.467,1.559,0.803L93.031,8.819z"/>
	<path fill="#111111" d="M101.721,8.819c-0.146-0.104-0.313-0.202-0.494-0.291c-0.186-0.089-0.371-0.166-0.561-0.229
		c-0.188-0.063-0.369-0.112-0.543-0.149c-0.173-0.037-0.313-0.055-0.417-0.055c-0.378,0-0.664,0.074-0.856,0.221
		c-0.194,0.147-0.293,0.346-0.293,0.598c0,0.136,0.049,0.268,0.143,0.394c0.095,0.126,0.221,0.247,0.378,0.362
		c0.157,0.116,0.339,0.231,0.543,0.347c0.205,0.115,0.423,0.231,0.653,0.346c0.356,0.189,0.709,0.377,1.055,0.566
		c0.347,0.189,0.656,0.399,0.929,0.63c0.273,0.231,0.491,0.493,0.653,0.787c0.163,0.294,0.244,0.635,0.244,1.023
		c0,0.567-0.112,1.039-0.338,1.417c-0.228,0.378-0.512,0.677-0.858,0.897c-0.347,0.22-0.724,0.377-1.133,0.472
		c-0.41,0.094-0.793,0.142-1.149,0.142c-0.63,0-1.294-0.124-1.99-0.37c-0.699-0.247-1.356-0.669-1.977-1.267l1.29-1.574
		c0.21,0.21,0.431,0.394,0.662,0.551c0.229,0.158,0.458,0.289,0.685,0.394c0.227,0.105,0.44,0.188,0.646,0.244
		c0.203,0.058,0.386,0.086,0.543,0.086c0.398,0,0.695-0.086,0.889-0.259c0.194-0.173,0.292-0.386,0.292-0.638
		c0-0.294-0.137-0.525-0.409-0.693c-0.272-0.167-0.63-0.362-1.07-0.583c-0.356-0.178-0.717-0.362-1.078-0.551
		c-0.361-0.189-0.692-0.404-0.991-0.646c-0.3-0.241-0.543-0.52-0.731-0.834c-0.188-0.315-0.283-0.688-0.283-1.118
		c0-0.514,0.104-0.955,0.313-1.322c0.21-0.367,0.478-0.664,0.804-0.89c0.324-0.226,0.689-0.391,1.095-0.496
		c0.403-0.105,0.8-0.158,1.188-0.158c0.577,0,1.165,0.1,1.763,0.299c0.6,0.199,1.119,0.467,1.56,0.803L101.721,8.819z"/>
</g>
</svg>
