<?xml version="1.0" encoding="utf-8"?>
<!-- Generator: Adobe Illustrator 16.0.0, SVG Export Plug-In . SVG Version: 6.00 Build 0)  -->
<!DOCTYPE svg PUBLIC "-//W3C//DTD SVG 1.1//EN" "http://www.w3.org/Graphics/SVG/1.1/DTD/svg11.dtd">
<svg version="1.1" id="레이어_1" xmlns="http://www.w3.org/2000/svg" xmlns:xlink="http://www.w3.org/1999/xlink" x="0px"
	 y="0px" width="122px" height="40px" viewBox="0 0 122 40" enable-background="new 0 0 122 40" xml:space="preserve">
<g>
	<path fill="#111111" d="M36.952,35.48v-7.229h-2.7v-0.967h6.495v0.967h-2.711v7.229H36.952z"/>
	<path fill="#111111" d="M41.438,31.488c0-1.359,0.365-2.424,1.096-3.193c0.731-0.77,1.673-1.154,2.828-1.154
		c0.757,0,1.438,0.18,2.046,0.541c0.607,0.362,1.07,0.866,1.39,1.514c0.318,0.646,0.478,1.38,0.478,2.199
		c0,0.83-0.168,1.574-0.503,2.23c-0.336,0.656-0.811,1.152-1.426,1.488c-0.614,0.338-1.278,0.507-1.99,0.507
		c-0.771,0-1.461-0.187-2.068-0.56s-1.067-0.881-1.38-1.525C41.595,32.891,41.438,32.209,41.438,31.488z M42.557,31.506
		c0,0.988,0.265,1.766,0.796,2.334s1.197,0.854,1.999,0.854c0.815,0,1.487-0.287,2.015-0.86c0.527-0.574,0.791-1.39,0.791-2.442
		c0-0.668-0.112-1.25-0.338-1.748c-0.226-0.496-0.556-0.884-0.989-1.156c-0.435-0.273-0.922-0.41-1.462-0.41
		c-0.768,0-1.429,0.264-1.981,0.791C42.833,29.393,42.557,30.271,42.557,31.506z"/>
	<path fill="#111111" d="M51.103,35.48v-8.195h3.633c0.73,0,1.286,0.074,1.666,0.221c0.38,0.146,0.684,0.408,0.911,0.78
		s0.341,0.784,0.341,1.235c0,0.582-0.188,1.07-0.564,1.471c-0.376,0.398-0.958,0.652-1.744,0.76
		c0.287,0.139,0.505,0.273,0.654,0.408c0.316,0.291,0.617,0.654,0.9,1.09l1.425,2.23h-1.363l-1.085-1.705
		c-0.316-0.492-0.577-0.869-0.782-1.129c-0.205-0.263-0.389-0.443-0.551-0.549c-0.162-0.104-0.327-0.177-0.495-0.218
		c-0.123-0.026-0.324-0.039-0.604-0.039h-1.258v3.64H51.103z M52.187,30.902h2.331c0.496,0,0.884-0.051,1.163-0.154
		c0.279-0.102,0.491-0.266,0.637-0.492c0.146-0.225,0.219-0.47,0.219-0.734c0-0.388-0.142-0.705-0.423-0.955
		c-0.281-0.25-0.726-0.375-1.333-0.375h-2.594V30.902z"/>
	<path fill="#111111" d="M59.424,31.488c0-1.359,0.365-2.424,1.096-3.193s1.673-1.154,2.828-1.154c0.758,0,1.438,0.18,2.047,0.541
		c0.606,0.362,1.069,0.866,1.39,1.514c0.317,0.646,0.478,1.38,0.478,2.199c0,0.83-0.168,1.574-0.503,2.23
		c-0.336,0.656-0.811,1.152-1.426,1.488c-0.614,0.338-1.278,0.507-1.99,0.507c-0.771,0-1.461-0.187-2.068-0.56
		s-1.067-0.881-1.38-1.525C59.58,32.891,59.424,32.209,59.424,31.488z M60.542,31.506c0,0.988,0.265,1.766,0.796,2.334
		c0.531,0.568,1.197,0.854,1.999,0.854c0.815,0,1.487-0.287,2.015-0.86c0.527-0.574,0.791-1.39,0.791-2.442
		c0-0.668-0.111-1.25-0.338-1.748c-0.226-0.496-0.556-0.884-0.988-1.156c-0.436-0.273-0.922-0.41-1.463-0.41
		c-0.768,0-1.429,0.264-1.98,0.791C60.818,29.393,60.542,30.271,60.542,31.506z"/>
	<path fill="#111111" d="M69.061,35.48v-8.195h1.111l4.305,6.436v-6.436h1.039v8.195h-1.111L70.1,29.041v6.439H69.061z"/>
	<path fill="#111111" d="M79.825,35.48v-7.229h-2.7v-0.967h6.495v0.967h-2.711v7.229H79.825z"/>
	<path fill="#111111" d="M84.313,31.488c0-1.359,0.364-2.424,1.096-3.193c0.73-0.77,1.673-1.154,2.828-1.154
		c0.757,0,1.438,0.18,2.046,0.541c0.606,0.362,1.069,0.866,1.39,1.514c0.318,0.646,0.479,1.38,0.479,2.199
		c0,0.83-0.168,1.574-0.504,2.23s-0.811,1.152-1.426,1.488c-0.613,0.338-1.277,0.507-1.99,0.507c-0.771,0-1.461-0.187-2.067-0.56
		s-1.067-0.881-1.38-1.525C84.468,32.891,84.313,32.209,84.313,31.488z M85.43,31.506c0,0.988,0.266,1.766,0.797,2.334
		c0.53,0.568,1.196,0.854,1.998,0.854c0.815,0,1.487-0.287,2.016-0.86c0.527-0.574,0.791-1.39,0.791-2.442
		c0-0.668-0.112-1.25-0.338-1.748c-0.227-0.496-0.557-0.884-0.989-1.156c-0.435-0.273-0.922-0.41-1.462-0.41
		c-0.768,0-1.43,0.264-1.981,0.791C85.706,29.393,85.43,30.271,85.43,31.506z"/>
</g>
<g>
	<path fill="#111111" d="M52.776,17.431h-8.438V4.349h2.425V15.51h6.013V17.431z"/>
	<path fill="#111111" d="M58.711,7.671c0.671,0,1.299,0.113,1.881,0.338c0.583,0.226,1.09,0.554,1.52,0.984
		c0.431,0.43,0.77,0.96,1.016,1.59c0.247,0.63,0.37,1.349,0.37,2.157c0,0.797-0.123,1.503-0.37,2.117
		c-0.246,0.614-0.585,1.131-1.016,1.55c-0.43,0.42-0.937,0.74-1.52,0.96c-0.582,0.22-1.21,0.331-1.881,0.331
		c-0.756,0-1.428-0.134-2.015-0.401c-0.588-0.268-1.079-0.63-1.473-1.086s-0.692-0.983-0.896-1.582
		c-0.205-0.598-0.308-1.228-0.308-1.889c0-0.819,0.121-1.543,0.362-2.172c0.241-0.63,0.574-1.16,1-1.59
		c0.425-0.43,0.921-0.756,1.487-0.976C57.434,7.782,58.05,7.671,58.711,7.671z M58.711,9.45c-0.305,0-0.599,0.076-0.882,0.228
		c-0.283,0.152-0.53,0.37-0.739,0.653c-0.211,0.284-0.378,0.63-0.504,1.039c-0.126,0.409-0.189,0.866-0.189,1.37
		c0,0.378,0.053,0.755,0.157,1.133c0.105,0.378,0.255,0.719,0.449,1.023c0.194,0.304,0.436,0.553,0.724,0.748
		c0.289,0.194,0.617,0.291,0.984,0.291c0.388,0,0.729-0.097,1.023-0.291c0.293-0.194,0.543-0.443,0.747-0.748
		c0.205-0.305,0.359-0.646,0.465-1.023c0.104-0.378,0.157-0.755,0.157-1.133c0-0.399-0.05-0.795-0.149-1.188
		c-0.099-0.393-0.25-0.745-0.449-1.055c-0.199-0.31-0.448-0.562-0.747-0.756C59.459,9.547,59.109,9.45,58.711,9.45z"/>
	<path fill="#111111" d="M68.754,13.904l2.141-6.013h2.535l-3.59,9.524h-2.156l-3.619-9.524h2.55L68.754,13.904z"/>
	<path fill="#111111" d="M82.654,16.376c-0.525,0.462-1.092,0.792-1.7,0.992c-0.608,0.2-1.302,0.304-2.078,0.315
		c-0.724,0-1.385-0.105-1.983-0.315c-0.598-0.21-1.108-0.525-1.535-0.944c-0.424-0.42-0.752-0.934-0.982-1.543
		c-0.23-0.608-0.348-1.307-0.348-2.093c0-0.777,0.107-1.48,0.324-2.109c0.215-0.63,0.521-1.165,0.92-1.606
		c0.398-0.441,0.885-0.782,1.457-1.023c0.57-0.242,1.22-0.362,1.943-0.362c0.702,0,1.327,0.124,1.873,0.37
		c0.545,0.247,1.005,0.588,1.377,1.023c0.373,0.436,0.656,0.945,0.852,1.527c0.192,0.583,0.285,1.21,0.274,1.881
		c0,0.137-0.008,0.299-0.022,0.488c-0.017,0.189-0.034,0.357-0.057,0.504h-6.484c0.041,0.462,0.146,0.842,0.313,1.141
		c0.168,0.299,0.37,0.535,0.606,0.708c0.236,0.173,0.49,0.297,0.764,0.37c0.271,0.073,0.54,0.11,0.803,0.11
		c0.211,0,0.434-0.016,0.67-0.047c0.235-0.032,0.469-0.084,0.699-0.158c0.23-0.073,0.449-0.17,0.653-0.291
		c0.205-0.121,0.381-0.265,0.526-0.433L82.654,16.376z M80.702,11.653c-0.011-0.304-0.073-0.587-0.188-0.85
		c-0.115-0.262-0.271-0.49-0.465-0.685c-0.193-0.194-0.417-0.346-0.669-0.457c-0.252-0.111-0.509-0.165-0.771-0.165
		c-0.252,0-0.502,0.055-0.748,0.165s-0.471,0.263-0.67,0.457c-0.198,0.194-0.36,0.422-0.486,0.685
		c-0.126,0.263-0.194,0.546-0.205,0.85H80.702z"/>
</g>
</svg>
