<?xml version="1.0" encoding="utf-8"?>
<!-- Generator: Adobe Illustrator 16.0.0, SVG Export Plug-In . SVG Version: 6.00 Build 0)  -->
<!DOCTYPE svg PUBLIC "-//W3C//DTD SVG 1.1//EN" "http://www.w3.org/Graphics/SVG/1.1/DTD/svg11.dtd">
<svg version="1.1" id="레이어_1" xmlns="http://www.w3.org/2000/svg" xmlns:xlink="http://www.w3.org/1999/xlink" x="0px"
	 y="0px" width="122px" height="40px" viewBox="0 0 122 40" enable-background="new 0 0 122 40" xml:space="preserve">
<g>
	<path fill="#111111" d="M13.961,35.568v-8.195h1.112l4.305,6.436v-6.436h1.039v8.195h-1.112l-4.304-6.439v6.439H13.961z"/>
	<path fill="#111111" d="M22.662,35.568v-8.195h5.926v0.968h-4.841v2.511h4.533v0.961h-4.533v2.789h5.031v0.967H22.662
		L22.662,35.568z"/>
	<path fill="#111111" d="M32.12,35.568l-2.175-8.195h1.112l1.247,5.372c0.134,0.563,0.249,1.122,0.347,1.678
		c0.208-0.876,0.331-1.381,0.368-1.517l1.561-5.533h1.308l1.174,4.148c0.294,1.027,0.507,1.994,0.638,2.9
		c0.104-0.52,0.24-1.113,0.407-1.783l1.286-5.267h1.09l-2.247,8.194H37.19l-1.728-6.244c-0.146-0.52-0.231-0.842-0.257-0.961
		c-0.086,0.377-0.166,0.697-0.241,0.961l-1.738,6.244H32.12V35.568z"/>
	<path fill="#111111" d="M47.614,35.568v-3.473l-3.159-4.724h1.319l1.616,2.472c0.298,0.463,0.575,0.924,0.832,1.387
		c0.246-0.43,0.545-0.912,0.895-1.449l1.588-2.408h1.264l-3.271,4.725v3.471H47.614L47.614,35.568z"/>
	<path fill="#111111" d="M52.348,31.577c0-1.36,0.365-2.425,1.096-3.195c0.73-0.769,1.673-1.153,2.828-1.153
		c0.757,0,1.438,0.182,2.046,0.543c0.608,0.36,1.07,0.865,1.39,1.512c0.318,0.646,0.478,1.38,0.478,2.199
		c0,0.832-0.168,1.574-0.503,2.23c-0.336,0.655-0.811,1.152-1.426,1.489c-0.614,0.337-1.278,0.506-1.99,0.506
		c-0.771,0-1.461-0.187-2.068-0.56c-0.607-0.373-1.067-0.881-1.38-1.525C52.504,32.979,52.348,32.296,52.348,31.577z M53.466,31.594
		c0,0.987,0.265,1.766,0.796,2.334c0.531,0.568,1.197,0.854,1.999,0.854c0.815,0,1.487-0.287,2.015-0.861
		c0.527-0.572,0.791-1.389,0.791-2.441c0-0.668-0.112-1.25-0.338-1.748c-0.226-0.496-0.556-0.883-0.989-1.156
		c-0.435-0.273-0.922-0.411-1.462-0.411c-0.768,0-1.429,0.265-1.981,0.791C53.742,29.479,53.466,30.359,53.466,31.594z"/>
	<path fill="#111111" d="M62.012,35.568v-8.195h3.633c0.73,0,1.287,0.074,1.666,0.221c0.381,0.147,0.685,0.407,0.912,0.78
		c0.227,0.373,0.34,0.784,0.34,1.235c0,0.58-0.188,1.07-0.563,1.47s-0.958,0.651-1.744,0.761c0.287,0.139,0.505,0.273,0.654,0.408
		c0.315,0.29,0.616,0.654,0.899,1.09l1.426,2.23H67.87l-1.085-1.705c-0.316-0.492-0.577-0.868-0.782-1.129
		c-0.205-0.262-0.389-0.443-0.551-0.549c-0.162-0.104-0.327-0.177-0.495-0.217c-0.123-0.027-0.324-0.039-0.604-0.039h-1.258v3.639
		H62.012z M63.096,30.99h2.331c0.496,0,0.884-0.053,1.163-0.154s0.491-0.266,0.637-0.49c0.146-0.226,0.219-0.472,0.219-0.736
		c0-0.387-0.141-0.705-0.422-0.955s-0.727-0.375-1.334-0.375h-2.594V30.99z"/>
	<path fill="#111111" d="M70.63,35.568v-8.195h1.084v4.064l4.069-4.064h1.471l-3.438,3.32l3.588,4.875h-1.43l-2.918-4.147
		l-1.343,1.308v2.84H70.63L70.63,35.568z"/>
	<path fill="#111111" d="M87.979,32.695l1.084,0.273c-0.227,0.891-0.636,1.569-1.227,2.037c-0.591,0.469-1.313,0.701-2.166,0.701
		c-0.884,0-1.602-0.18-2.154-0.539c-0.555-0.359-0.976-0.881-1.264-1.563c-0.289-0.684-0.434-1.414-0.434-2.197
		c0-0.854,0.162-1.598,0.488-2.233c0.326-0.635,0.791-1.118,1.393-1.446c0.602-0.33,1.265-0.496,1.986-0.496
		c0.82,0,1.51,0.209,2.068,0.627s0.948,1.004,1.168,1.761l-1.066,0.252c-0.19-0.597-0.467-1.03-0.828-1.304
		c-0.36-0.271-0.815-0.407-1.363-0.407c-0.63,0-1.156,0.151-1.579,0.452c-0.423,0.303-0.72,0.707-0.892,1.217
		c-0.172,0.509-0.258,1.033-0.258,1.572c0,0.697,0.103,1.307,0.306,1.826c0.202,0.521,0.519,0.908,0.946,1.166
		c0.429,0.256,0.894,0.385,1.393,0.385c0.607,0,1.122-0.174,1.543-0.524S87.83,33.385,87.979,32.695z"/>
	<path fill="#111111" d="M90.984,35.568v-8.195h1.086v8.195H90.984z"/>
	<path fill="#111111" d="M96.468,35.568V28.34h-2.7v-0.968h6.496v0.968h-2.712v7.229H96.468z"/>
	<path fill="#111111" d="M104.211,35.568v-3.473l-3.159-4.724h1.319l1.615,2.472c0.299,0.463,0.576,0.924,0.832,1.387
		c0.246-0.43,0.546-0.912,0.896-1.449l1.588-2.408h1.265l-3.271,4.725v3.471H104.211L104.211,35.568z"/>
</g>
<g>
	<path fill="#111111" d="M52.654,17.657h-2.408V11.77h-5.021v5.888H42.8V4.576h2.425V9.85h5.021V4.576h2.408V17.657z"/>
	<path fill="#111111" d="M63.469,16.603c-0.525,0.462-1.092,0.792-1.699,0.992c-0.608,0.199-1.303,0.304-2.079,0.314
		c-0.724,0-1.385-0.105-1.983-0.314c-0.598-0.211-1.109-0.525-1.535-0.945c-0.425-0.419-0.753-0.934-0.983-1.542
		s-0.347-1.307-0.347-2.094c0-0.776,0.107-1.479,0.323-2.109c0.215-0.63,0.521-1.165,0.921-1.605
		c0.398-0.441,0.884-0.782,1.456-1.023c0.571-0.241,1.22-0.362,1.944-0.362c0.702,0,1.327,0.123,1.873,0.37
		c0.545,0.246,1.005,0.588,1.376,1.023c0.373,0.436,0.656,0.944,0.852,1.526c0.193,0.583,0.285,1.21,0.275,1.881
		c0,0.137-0.008,0.3-0.023,0.488c-0.016,0.189-0.033,0.357-0.056,0.504h-6.485c0.042,0.462,0.146,0.842,0.314,1.142
		c0.168,0.299,0.37,0.535,0.605,0.708c0.236,0.173,0.49,0.297,0.764,0.37c0.272,0.073,0.54,0.11,0.803,0.11
		c0.21,0,0.433-0.016,0.669-0.048c0.236-0.031,0.47-0.084,0.7-0.157s0.448-0.17,0.653-0.291c0.205-0.12,0.381-0.265,0.526-0.433
		L63.469,16.603z M61.518,11.88c-0.012-0.304-0.074-0.588-0.188-0.85c-0.116-0.263-0.271-0.491-0.465-0.685
		c-0.194-0.194-0.417-0.347-0.669-0.457c-0.252-0.11-0.509-0.165-0.771-0.165c-0.252,0-0.501,0.055-0.748,0.165
		c-0.246,0.11-0.47,0.263-0.669,0.457c-0.199,0.193-0.361,0.422-0.487,0.685c-0.126,0.262-0.194,0.546-0.205,0.85H61.518z"/>
	<path fill="#111111" d="M65.829,8.826C66.563,8.396,67.277,8.12,67.971,8c0.692-0.121,1.316-0.171,1.873-0.149
		c0.524,0.021,1.016,0.104,1.473,0.251c0.455,0.147,0.854,0.36,1.195,0.638c0.342,0.278,0.608,0.617,0.803,1.016
		s0.291,0.866,0.291,1.401v4.25c0,0.23,0.015,0.515,0.041,0.85c0.024,0.336,0.127,0.803,0.307,1.401h-2.739l-0.016-0.992
		c-0.157,0.221-0.339,0.407-0.543,0.56c-0.205,0.151-0.423,0.28-0.653,0.386c-0.23,0.104-0.462,0.181-0.691,0.228
		c-0.231,0.048-0.451,0.071-0.662,0.071c-0.461,0-0.91-0.068-1.347-0.205c-0.436-0.136-0.819-0.336-1.155-0.598
		c-0.336-0.263-0.606-0.591-0.812-0.984c-0.205-0.394-0.308-0.853-0.308-1.377c0-0.65,0.123-1.22,0.369-1.708
		s0.619-0.879,1.119-1.173c0.498-0.294,1.129-0.49,1.896-0.59c0.766-0.1,1.669-0.087,2.707,0.039
		c0.011-0.409-0.109-0.75-0.361-1.023c-0.252-0.272-0.567-0.456-0.944-0.551c-0.23-0.053-0.482-0.073-0.756-0.063
		c-0.272,0.011-0.545,0.048-0.817,0.11c-0.273,0.063-0.541,0.142-0.804,0.236c-0.263,0.095-0.494,0.199-0.692,0.314L65.829,8.826z
		 M68.915,16.146c0.262,0,0.524-0.053,0.787-0.158c0.262-0.104,0.498-0.246,0.708-0.425c0.21-0.178,0.383-0.391,0.52-0.638
		c0.137-0.246,0.205-0.506,0.205-0.779V12.95c-1.322-0.178-2.296-0.126-2.921,0.157c-0.624,0.284-0.937,0.725-0.937,1.323
		c0,0.619,0.158,1.06,0.473,1.322C68.064,16.015,68.453,16.146,68.915,16.146z"/>
	<path fill="#111111" d="M76.424,4.229h2.424v13.428h-2.424V4.229z"/>
</g>
</svg>
