<?xml version="1.0" encoding="utf-8"?>
<!-- Generator: Adobe Illustrator 16.0.0, SVG Export Plug-In . SVG Version: 6.00 Build 0)  -->
<!DOCTYPE svg PUBLIC "-//W3C//DTD SVG 1.1//EN" "http://www.w3.org/Graphics/SVG/1.1/DTD/svg11.dtd">
<svg version="1.1" id="레이어_1" xmlns="http://www.w3.org/2000/svg" xmlns:xlink="http://www.w3.org/1999/xlink" x="0px"
	 y="0px" width="122px" height="40px" viewBox="0 0 122 40" enable-background="new 0 0 122 40" xml:space="preserve">
<g>
	<path fill="#111111" d="M13.961,36.395V28.2h1.112l4.305,6.435V28.2h1.039v8.194h-1.112l-4.304-6.438v6.438H13.961z"/>
	<path fill="#111111" d="M22.662,36.395V28.2h5.926v0.968h-4.841v2.51h4.533v0.961h-4.533v2.791h5.031v0.967h-6.116V36.395z"/>
	<path fill="#111111" d="M32.12,36.395L29.945,28.2h1.112l1.247,5.372c0.134,0.563,0.249,1.121,0.347,1.678
		c0.208-0.876,0.331-1.381,0.368-1.516L34.58,28.2h1.308l1.174,4.147c0.294,1.028,0.507,1.996,0.638,2.901
		c0.104-0.519,0.24-1.112,0.407-1.784l1.286-5.266h1.09l-2.247,8.195H37.19l-1.728-6.244c-0.146-0.521-0.231-0.842-0.257-0.963
		c-0.086,0.377-0.166,0.697-0.241,0.963l-1.738,6.244H32.12L32.12,36.395z"/>
	<path fill="#111111" d="M47.614,36.395v-3.472l-3.159-4.724h1.319l1.616,2.471c0.298,0.463,0.575,0.926,0.832,1.387
		c0.246-0.429,0.545-0.91,0.895-1.447l1.588-2.409h1.264l-3.271,4.724v3.473h-1.084V36.395z"/>
	<path fill="#111111" d="M52.348,32.402c0-1.359,0.365-2.424,1.096-3.194c0.73-0.769,1.673-1.153,2.828-1.153
		c0.757,0,1.438,0.182,2.046,0.543c0.608,0.36,1.07,0.864,1.39,1.512c0.318,0.646,0.478,1.379,0.478,2.199
		c0,0.832-0.168,1.574-0.503,2.23c-0.336,0.654-0.811,1.152-1.426,1.488c-0.614,0.338-1.278,0.507-1.99,0.507
		c-0.771,0-1.461-0.187-2.068-0.56c-0.607-0.373-1.067-0.881-1.38-1.525C52.504,33.805,52.348,33.122,52.348,32.402z M53.466,32.42
		c0,0.986,0.265,1.766,0.796,2.334c0.531,0.568,1.197,0.854,1.999,0.854c0.815,0,1.487-0.287,2.015-0.861
		c0.527-0.573,0.791-1.389,0.791-2.441c0-0.668-0.112-1.25-0.338-1.748c-0.226-0.496-0.556-0.883-0.989-1.156
		c-0.435-0.273-0.922-0.412-1.462-0.412c-0.768,0-1.429,0.265-1.981,0.791C53.742,30.307,53.466,31.188,53.466,32.42z"/>
	<path fill="#111111" d="M62.012,36.395V28.2h3.633c0.73,0,1.287,0.073,1.666,0.221c0.381,0.147,0.685,0.407,0.912,0.78
		c0.227,0.373,0.34,0.783,0.34,1.234c0,0.582-0.188,1.071-0.563,1.471c-0.376,0.398-0.958,0.652-1.744,0.761
		c0.287,0.138,0.505,0.272,0.654,0.408c0.315,0.29,0.616,0.653,0.899,1.09l1.426,2.229H67.87l-1.085-1.705
		c-0.316-0.492-0.577-0.867-0.782-1.129c-0.205-0.261-0.389-0.442-0.551-0.547c-0.162-0.105-0.327-0.178-0.495-0.219
		c-0.123-0.025-0.324-0.039-0.604-0.039h-1.258v3.639H62.012z M63.096,31.816h2.331c0.496,0,0.884-0.053,1.163-0.154
		s0.491-0.266,0.637-0.491c0.146-0.226,0.219-0.471,0.219-0.735c0-0.388-0.141-0.705-0.422-0.955s-0.727-0.375-1.334-0.375h-2.594
		V31.816z"/>
	<path fill="#111111" d="M70.63,36.395V28.2h1.084v4.063l4.069-4.063h1.471l-3.438,3.319l3.588,4.875h-1.43l-2.918-4.146
		l-1.343,1.309v2.84H70.63V36.395z"/>
	<path fill="#111111" d="M87.979,33.521l1.084,0.272c-0.227,0.892-0.636,1.569-1.227,2.038c-0.591,0.468-1.313,0.701-2.166,0.701
		c-0.884,0-1.602-0.18-2.154-0.539c-0.555-0.36-0.976-0.881-1.264-1.563c-0.289-0.684-0.434-1.414-0.434-2.197
		c0-0.854,0.162-1.598,0.488-2.233c0.326-0.635,0.791-1.118,1.393-1.446c0.602-0.33,1.265-0.496,1.986-0.496
		c0.82,0,1.51,0.209,2.068,0.627s0.948,1.004,1.168,1.76l-1.066,0.252c-0.19-0.596-0.467-1.029-0.828-1.303
		c-0.36-0.271-0.815-0.408-1.363-0.408c-0.63,0-1.156,0.152-1.579,0.453c-0.423,0.303-0.72,0.707-0.892,1.217
		c-0.172,0.509-0.258,1.033-0.258,1.572c0,0.697,0.103,1.307,0.306,1.826c0.202,0.521,0.519,0.908,0.946,1.166
		c0.429,0.256,0.894,0.385,1.393,0.385c0.607,0,1.122-0.174,1.543-0.524S87.83,34.211,87.979,33.521z"/>
	<path fill="#111111" d="M90.984,36.395V28.2h1.086v8.194H90.984z"/>
	<path fill="#111111" d="M96.468,36.395v-7.228h-2.7v-0.968h6.496v0.968h-2.712v7.228H96.468z"/>
	<path fill="#111111" d="M104.211,36.395v-3.472l-3.159-4.724h1.319l1.615,2.471c0.299,0.463,0.576,0.926,0.832,1.387
		c0.246-0.429,0.546-0.91,0.896-1.447l1.588-2.409h1.265l-3.271,4.724v3.473h-1.084V36.395z"/>
</g>
<g>
	<path fill="#111111" d="M49.152,7.14c0,0.514-0.104,1.007-0.314,1.479c-0.21,0.472-0.551,0.876-1.023,1.212
		c0.283,0.189,0.546,0.412,0.787,0.669c0.241,0.258,0.448,0.527,0.622,0.811c0.173,0.284,0.307,0.58,0.401,0.89
		s0.136,0.611,0.126,0.905c-0.021,0.535-0.124,1.036-0.308,1.504c-0.184,0.467-0.464,0.871-0.842,1.212
		c-0.378,0.341-0.86,0.608-1.448,0.803c-0.588,0.195-1.291,0.291-2.109,0.291h-4.975V3.834h4.849c0.556,0,1.089,0.063,1.598,0.188
		c0.509,0.125,0.96,0.323,1.354,0.591c0.394,0.268,0.706,0.611,0.938,1.03C49.037,6.063,49.152,6.563,49.152,7.14z M42.494,5.738
		v3.338h2.581c0.557,0,0.966-0.155,1.229-0.465c0.262-0.31,0.394-0.748,0.394-1.314c0-0.514-0.158-0.902-0.473-1.165
		c-0.314-0.262-0.719-0.394-1.212-0.394H42.494z M45.091,14.994c0.714,0,1.257-0.175,1.63-0.527
		c0.372-0.351,0.559-0.857,0.559-1.519c0-0.577-0.199-1.05-0.599-1.417c-0.398-0.367-0.918-0.551-1.558-0.551h-2.629v4.014H45.091z"
		/>
	<path fill="#111111" d="M56.142,7.155c0.671,0,1.299,0.113,1.881,0.339c0.583,0.226,1.089,0.553,1.52,0.983
		c0.43,0.431,0.769,0.96,1.015,1.59c0.247,0.63,0.37,1.349,0.37,2.156c0,0.798-0.123,1.504-0.37,2.117
		c-0.246,0.614-0.585,1.132-1.015,1.551c-0.431,0.42-0.937,0.74-1.52,0.961c-0.582,0.22-1.21,0.33-1.881,0.33
		c-0.756,0-1.428-0.134-2.015-0.401c-0.588-0.268-1.079-0.63-1.473-1.086c-0.394-0.457-0.692-0.984-0.896-1.582
		c-0.205-0.599-0.308-1.229-0.308-1.89c0-0.818,0.121-1.542,0.362-2.172c0.241-0.63,0.574-1.159,1-1.59
		c0.425-0.431,0.921-0.756,1.487-0.977C54.866,7.266,55.48,7.155,56.142,7.155z M56.142,8.934c-0.305,0-0.599,0.077-0.882,0.229
		c-0.283,0.152-0.53,0.37-0.739,0.653c-0.211,0.283-0.378,0.63-0.504,1.039s-0.189,0.866-0.189,1.369
		c0,0.378,0.053,0.756,0.157,1.134c0.105,0.378,0.255,0.719,0.449,1.023c0.194,0.304,0.436,0.554,0.724,0.747
		c0.289,0.194,0.617,0.292,0.984,0.292c0.388,0,0.729-0.098,1.023-0.292c0.293-0.193,0.543-0.442,0.747-0.747
		c0.205-0.305,0.359-0.646,0.465-1.023c0.104-0.378,0.157-0.756,0.157-1.134c0-0.398-0.05-0.795-0.149-1.188
		c-0.099-0.393-0.25-0.745-0.449-1.055c-0.199-0.309-0.448-0.561-0.747-0.755C56.89,9.032,56.54,8.934,56.142,8.934z"/>
	<path fill="#111111" d="M66.438,7.14c0.598,0,1.105,0.134,1.525,0.401s0.768,0.627,1.039,1.078V3.487h2.425v13.428h-2.425v-1.102
		c-0.263,0.398-0.598,0.724-1.007,0.976c-0.41,0.252-0.931,0.378-1.56,0.378c-1.375,0-2.397-0.428-3.069-1.283
		c-0.671-0.855-1.007-2.08-1.007-3.676c0-0.755,0.084-1.445,0.252-2.069c0.166-0.625,0.422-1.157,0.763-1.599
		c0.342-0.44,0.767-0.784,1.274-1.03C65.158,7.263,65.754,7.14,66.438,7.14z M66.877,8.966c-0.389,0-0.716,0.092-0.982,0.275
		c-0.268,0.183-0.486,0.428-0.653,0.731c-0.168,0.305-0.289,0.648-0.362,1.031c-0.072,0.384-0.109,0.774-0.109,1.173
		c0,0.378,0.041,0.756,0.125,1.134s0.213,0.719,0.387,1.022c0.173,0.305,0.391,0.554,0.652,0.748s0.577,0.291,0.944,0.291
		c0.356,0,0.669-0.084,0.937-0.252c0.269-0.167,0.49-0.396,0.67-0.685c0.179-0.288,0.31-0.627,0.394-1.016
		c0.084-0.388,0.126-0.803,0.126-1.243V12.02c-0.021-1.028-0.23-1.795-0.63-2.299C67.975,9.218,67.477,8.966,66.877,8.966z"/>
	<path fill="#111111" d="M73.677,18.474c0.441-0.105,0.832-0.226,1.173-0.362c0.342-0.136,0.639-0.299,0.891-0.488
		c0.252-0.188,0.465-0.411,0.638-0.669c0.173-0.257,0.317-0.554,0.433-0.889l-3.399-8.689h2.565l2.063,5.824l2.047-5.824h2.55
		l-3.085,8.374c-0.179,0.504-0.367,0.947-0.566,1.33c-0.199,0.383-0.42,0.764-0.66,1.142c-0.252,0.378-0.533,0.695-0.844,0.952
		c-0.31,0.257-0.635,0.47-0.976,0.638c-0.342,0.168-0.69,0.305-1.047,0.409s-0.709,0.205-1.056,0.299L73.677,18.474z"/>
</g>
</svg>
