<?xml version="1.0" encoding="utf-8"?>
<!-- Generator: Adobe Illustrator 16.0.0, SVG Export Plug-In . SVG Version: 6.00 Build 0)  -->
<!DOCTYPE svg PUBLIC "-//W3C//DTD SVG 1.1//EN" "http://www.w3.org/Graphics/SVG/1.1/DTD/svg11.dtd">
<svg version="1.1" id="레이어_1" xmlns="http://www.w3.org/2000/svg" xmlns:xlink="http://www.w3.org/1999/xlink" x="0px"
	 y="0px" width="122px" height="40px" viewBox="0 0 122 40" enable-background="new 0 0 122 40" xml:space="preserve">
<g>
	<path fill="#111111" d="M26.801,33.762l1.022-0.09c0.049,0.41,0.161,0.746,0.338,1.01c0.178,0.264,0.452,0.475,0.825,0.637
		c0.372,0.162,0.792,0.244,1.258,0.244c0.413,0,0.778-0.063,1.096-0.186c0.316-0.123,0.552-0.291,0.707-0.506
		c0.154-0.215,0.231-0.448,0.231-0.701c0-0.258-0.074-0.48-0.224-0.674c-0.148-0.191-0.395-0.354-0.737-0.482
		c-0.22-0.086-0.706-0.22-1.459-0.4c-0.753-0.182-1.28-0.352-1.582-0.512c-0.392-0.205-0.684-0.459-0.875-0.764
		c-0.192-0.304-0.288-0.645-0.288-1.02c0-0.414,0.117-0.801,0.353-1.16c0.234-0.359,0.577-0.633,1.028-0.819
		c0.451-0.187,0.952-0.278,1.504-0.278c0.607,0,1.144,0.098,1.607,0.293c0.464,0.195,0.82,0.483,1.07,0.863
		c0.249,0.381,0.384,0.811,0.402,1.291l-1.04,0.079c-0.056-0.519-0.245-0.909-0.567-1.175c-0.322-0.264-0.798-0.396-1.428-0.396
		c-0.656,0-1.134,0.121-1.435,0.36c-0.3,0.24-0.449,0.53-0.449,0.869c0,0.295,0.105,0.536,0.318,0.728
		c0.209,0.189,0.754,0.385,1.635,0.584c0.882,0.199,1.486,0.373,1.814,0.522c0.477,0.22,0.829,0.498,1.057,0.836
		c0.227,0.337,0.341,0.726,0.341,1.165c0,0.438-0.125,0.848-0.375,1.232c-0.249,0.385-0.608,0.687-1.076,0.899
		c-0.468,0.213-0.994,0.321-1.579,0.321c-0.741,0-1.363-0.108-1.864-0.324c-0.501-0.216-0.895-0.541-1.18-0.977
		C26.965,34.801,26.815,34.311,26.801,33.762z"/>
	<path fill="#111111" d="M34.249,36.395l3.147-8.194h1.168l3.354,8.194h-1.235l-0.955-2.481h-3.427l-0.9,2.481H34.249z
		 M36.217,27.695c-0.004-0.387,0.103-0.695,0.318-0.928c0.213-0.23,0.484-0.347,0.816-0.347c0.23,0,0.546,0.101,0.944,0.302
		c0.22,0.112,0.396,0.168,0.525,0.168c0.119,0,0.211-0.033,0.274-0.098c0.063-0.064,0.107-0.195,0.134-0.389h0.727
		c-0.011,0.425-0.118,0.742-0.321,0.955c-0.203,0.213-0.461,0.318-0.774,0.318c-0.234,0-0.544-0.104-0.928-0.313
		c-0.25-0.135-0.433-0.201-0.548-0.201c-0.127,0-0.229,0.045-0.308,0.135c-0.082,0.09-0.121,0.223-0.117,0.396H36.217L36.217,27.695
		z M36.613,33.029h2.778l-0.855-2.271c-0.261-0.688-0.454-1.256-0.581-1.698c-0.104,0.524-0.252,1.047-0.441,1.564L36.613,33.029z"
		/>
	<path fill="#111111" d="M42.467,32.402c0-1.359,0.365-2.424,1.096-3.194c0.73-0.769,1.673-1.153,2.828-1.153
		c0.757,0,1.438,0.182,2.046,0.543c0.608,0.36,1.07,0.864,1.39,1.512c0.318,0.646,0.478,1.379,0.478,2.199
		c0,0.832-0.168,1.574-0.503,2.23c-0.336,0.654-0.811,1.152-1.426,1.488c-0.614,0.338-1.278,0.507-1.99,0.507
		c-0.771,0-1.461-0.187-2.068-0.56s-1.067-0.881-1.38-1.525C42.623,33.805,42.467,33.122,42.467,32.402z M43.585,32.42
		c0,0.986,0.265,1.766,0.796,2.334c0.531,0.568,1.197,0.854,1.999,0.854c0.815,0,1.487-0.287,2.015-0.861
		c0.527-0.573,0.791-1.389,0.791-2.441c0-0.668-0.112-1.25-0.338-1.748c-0.226-0.496-0.556-0.883-0.989-1.156
		c-0.435-0.273-0.922-0.412-1.462-0.412c-0.768,0-1.429,0.265-1.981,0.791C43.861,30.307,43.585,31.188,43.585,32.42z"/>
	<path fill="#111111" d="M55.522,36.395V28.2h3.092c0.544,0,0.96,0.026,1.246,0.077c0.403,0.068,0.74,0.195,1.013,0.385
		c0.271,0.188,0.49,0.451,0.656,0.79c0.166,0.34,0.248,0.712,0.248,1.118c0,0.697-0.221,1.287-0.665,1.77s-1.245,0.725-2.404,0.725
		h-2.102v3.332h-1.085V36.395z M56.607,32.096h2.118c0.701,0,1.198-0.13,1.493-0.392c0.294-0.261,0.441-0.628,0.441-1.101
		c0-0.344-0.087-0.638-0.26-0.881c-0.174-0.244-0.401-0.406-0.685-0.484c-0.183-0.049-0.521-0.071-1.012-0.071h-2.097v2.929H56.607z
		"/>
	<path fill="#111111" d="M62.055,36.395l3.146-8.194h1.168l3.354,8.194h-1.234l-0.955-2.481h-3.428l-0.899,2.481H62.055z
		 M64.418,33.029h2.777l-0.854-2.271c-0.261-0.688-0.454-1.256-0.581-1.698c-0.104,0.524-0.252,1.047-0.441,1.564L64.418,33.029z"/>
	<path fill="#111111" d="M76.195,28.199h1.085v4.734c0,0.823-0.095,1.479-0.28,1.963c-0.186,0.483-0.521,0.879-1.009,1.183
		s-1.124,0.455-1.914,0.455c-0.769,0-1.396-0.132-1.884-0.396c-0.488-0.266-0.838-0.647-1.047-1.15
		c-0.209-0.5-0.313-1.186-0.313-2.053V28.2h1.084v4.729c0,0.711,0.066,1.235,0.198,1.572c0.133,0.338,0.36,0.598,0.683,0.779
		c0.323,0.183,0.717,0.273,1.182,0.273c0.799,0,1.367-0.181,1.705-0.541c0.34-0.361,0.51-1.058,0.51-2.086V28.199z"/>
	<path fill="#111111" d="M79.441,36.395V28.2h1.084v7.229h4.037v0.967h-5.121V36.395z"/>
	<path fill="#111111" d="M85.49,32.402c0-1.359,0.365-2.424,1.096-3.194c0.73-0.769,1.673-1.153,2.828-1.153
		c0.757,0,1.438,0.182,2.046,0.543c0.608,0.36,1.07,0.864,1.39,1.512c0.318,0.646,0.479,1.379,0.479,2.199
		c0,0.832-0.168,1.574-0.503,2.23c-0.336,0.654-0.812,1.152-1.427,1.488c-0.613,0.338-1.277,0.507-1.989,0.507
		c-0.771,0-1.461-0.187-2.068-0.56c-0.606-0.373-1.067-0.881-1.38-1.525C85.646,33.805,85.49,33.122,85.49,32.402z M86.607,32.42
		c0,0.986,0.266,1.766,0.797,2.334s1.197,0.854,1.998,0.854c0.815,0,1.488-0.287,2.016-0.861c0.527-0.573,0.791-1.389,0.791-2.441
		c0-0.668-0.111-1.25-0.338-1.748c-0.227-0.496-0.557-0.883-0.989-1.156c-0.435-0.273-0.922-0.412-1.462-0.412
		c-0.768,0-1.429,0.265-1.98,0.791C86.885,30.307,86.607,31.188,86.607,32.42z"/>
</g>
<g>
	<path fill="#111111" d="M44.869,16.915h-2.487l-5.037-9.052v9.052H34.92V3.834h2.519l5.021,8.988V3.834h2.409V16.915z"/>
	<path fill="#111111" d="M47.687,8.084c0.734-0.431,1.448-0.706,2.142-0.826c0.692-0.121,1.316-0.171,1.873-0.149
		c0.524,0.021,1.015,0.104,1.472,0.251c0.456,0.147,0.855,0.36,1.196,0.638c0.341,0.278,0.608,0.617,0.803,1.016
		c0.194,0.399,0.291,0.866,0.291,1.401v4.25c0,0.23,0.014,0.515,0.04,0.85c0.025,0.336,0.128,0.803,0.307,1.401H53.07l-0.016-0.992
		c-0.157,0.221-0.339,0.407-0.543,0.56c-0.205,0.151-0.423,0.28-0.653,0.386c-0.231,0.104-0.462,0.181-0.692,0.228
		c-0.231,0.048-0.451,0.071-0.661,0.071c-0.462,0-0.911-0.068-1.347-0.205c-0.436-0.136-0.82-0.336-1.156-0.598
		c-0.336-0.263-0.606-0.591-0.811-0.984c-0.205-0.394-0.308-0.853-0.308-1.377c0-0.65,0.123-1.22,0.37-1.708
		c0.246-0.488,0.619-0.879,1.118-1.173c0.498-0.294,1.13-0.49,1.896-0.59c0.766-0.1,1.669-0.087,2.707,0.039
		c0.011-0.409-0.109-0.75-0.361-1.023c-0.252-0.272-0.567-0.456-0.944-0.551c-0.231-0.053-0.483-0.073-0.756-0.063
		c-0.273,0.011-0.546,0.048-0.818,0.11c-0.272,0.063-0.541,0.142-0.803,0.236C49.03,9.375,48.799,9.479,48.6,9.595L47.687,8.084z
		 M50.772,15.404c0.262,0,0.524-0.053,0.787-0.158c0.262-0.104,0.498-0.246,0.708-0.425c0.21-0.178,0.383-0.391,0.52-0.638
		c0.137-0.246,0.205-0.506,0.205-0.779v-1.196c-1.322-0.178-2.296-0.126-2.921,0.157c-0.624,0.284-0.937,0.725-0.937,1.323
		c0,0.619,0.158,1.06,0.473,1.322C49.922,15.272,50.311,15.404,50.772,15.404z"/>
	<path fill="#111111" d="M58.579,5.108l2.44-0.771v3.021h2.188v1.89H61.02v4.564c0,0.294,0.061,0.53,0.181,0.709
		c0.121,0.179,0.281,0.317,0.48,0.417c0.198,0.1,0.424,0.168,0.676,0.205c0.252,0.036,0.51,0.055,0.771,0.055v1.938
		c-0.661,0.073-1.271,0.065-1.834-0.024c-0.562-0.089-1.042-0.265-1.44-0.527s-0.711-0.605-0.937-1.03
		c-0.226-0.426-0.339-0.937-0.339-1.535v-4.77h-1.495v-1.89h1.495V5.108z"/>
	<path fill="#111111" d="M71.031,15.703c-0.126,0.23-0.286,0.438-0.48,0.622c-0.193,0.183-0.4,0.338-0.621,0.464
		s-0.455,0.223-0.701,0.291s-0.484,0.103-0.715,0.103c-0.525,0-1.009-0.079-1.449-0.236c-0.44-0.157-0.82-0.391-1.142-0.7
		s-0.569-0.692-0.748-1.149c-0.179-0.456-0.268-0.983-0.268-1.582v-6.14h2.409v5.966c0,0.314,0.047,0.596,0.142,0.842
		c0.094,0.247,0.215,0.454,0.36,0.622c0.147,0.168,0.317,0.294,0.513,0.378c0.194,0.084,0.396,0.126,0.606,0.126
		c0.324,0,0.615-0.061,0.873-0.182c0.258-0.12,0.478-0.285,0.662-0.495c0.183-0.21,0.321-0.459,0.416-0.748
		c0.094-0.288,0.143-0.601,0.143-0.938V7.376h2.438v9.539h-2.438V15.703z"/>
	<path fill="#111111" d="M78.697,8.824c0.156-0.272,0.363-0.525,0.621-0.756c0.258-0.23,0.543-0.425,0.857-0.583
		c0.315-0.157,0.646-0.268,0.992-0.33c0.346-0.063,0.691-0.058,1.039,0.016v2.047c-0.368-0.063-0.756-0.063-1.165,0
		c-0.409,0.063-0.787,0.187-1.134,0.369c-0.348,0.185-0.635,0.434-0.865,0.748s-0.348,0.698-0.348,1.149v5.431h-2.424V7.376h2.424
		v1.448H78.697z"/>
	<path fill="#111111" d="M90.378,15.86c-0.524,0.462-1.092,0.792-1.7,0.992c-0.607,0.199-1.302,0.304-2.078,0.314
		c-0.724,0-1.385-0.105-1.982-0.314c-0.598-0.211-1.109-0.525-1.535-0.945c-0.425-0.419-0.753-0.934-0.982-1.542
		c-0.23-0.608-0.348-1.307-0.348-2.094c0-0.776,0.107-1.479,0.323-2.109c0.215-0.63,0.521-1.165,0.921-1.605
		c0.398-0.441,0.884-0.782,1.456-1.023c0.571-0.241,1.22-0.362,1.944-0.362c0.701,0,1.326,0.123,1.873,0.37
		c0.545,0.246,1.004,0.588,1.377,1.023c0.373,0.436,0.655,0.944,0.851,1.526c0.192,0.583,0.285,1.21,0.274,1.881
		c0,0.137-0.008,0.3-0.022,0.488c-0.017,0.189-0.034,0.357-0.056,0.504h-6.485c0.042,0.462,0.146,0.842,0.313,1.142
		c0.168,0.299,0.371,0.535,0.606,0.708c0.236,0.173,0.49,0.297,0.765,0.37c0.271,0.073,0.539,0.11,0.803,0.11
		c0.209,0,0.433-0.016,0.669-0.048c0.235-0.031,0.47-0.084,0.7-0.157c0.23-0.073,0.449-0.17,0.652-0.291
		c0.205-0.12,0.381-0.265,0.527-0.433L90.378,15.86z M88.426,11.138c-0.011-0.304-0.072-0.588-0.188-0.85
		c-0.116-0.263-0.271-0.491-0.465-0.685c-0.194-0.194-0.418-0.347-0.67-0.457s-0.509-0.165-0.771-0.165
		c-0.252,0-0.501,0.055-0.748,0.165c-0.246,0.11-0.47,0.263-0.669,0.457c-0.199,0.193-0.361,0.422-0.486,0.685
		c-0.127,0.262-0.195,0.546-0.205,0.85H88.426z"/>
</g>
</svg>
