<?xml version="1.0" encoding="utf-8"?>
<!-- Generator: Adobe Illustrator 16.0.0, SVG Export Plug-In . SVG Version: 6.00 Build 0)  -->
<!DOCTYPE svg PUBLIC "-//W3C//DTD SVG 1.1//EN" "http://www.w3.org/Graphics/SVG/1.1/DTD/svg11.dtd">
<svg version="1.1" id="레이어_1" xmlns="http://www.w3.org/2000/svg" xmlns:xlink="http://www.w3.org/1999/xlink" x="0px"
	 y="0px" width="122px" height="40px" viewBox="0 0 122 40" enable-background="new 0 0 122 40" xml:space="preserve">
<g>
	<path fill="#111111" d="M38.838,35.48v-8.195h3.074c0.626,0,1.128,0.083,1.507,0.249c0.378,0.166,0.674,0.421,0.889,0.766
		c0.214,0.345,0.321,0.706,0.321,1.082c0,0.351-0.095,0.681-0.285,0.989c-0.19,0.311-0.478,0.559-0.861,0.749
		c0.496,0.146,0.877,0.394,1.144,0.743c0.267,0.351,0.399,0.765,0.399,1.24c0,0.385-0.081,0.742-0.243,1.071
		c-0.162,0.329-0.362,0.585-0.601,0.763c-0.238,0.18-0.538,0.313-0.897,0.406c-0.359,0.092-0.8,0.137-1.322,0.137H38.838z
		 M39.922,30.729h1.772c0.48,0,0.825-0.031,1.034-0.095c0.275-0.081,0.483-0.218,0.623-0.407c0.14-0.19,0.21-0.43,0.21-0.717
		c0-0.271-0.065-0.512-0.196-0.718c-0.13-0.207-0.316-0.349-0.559-0.425c-0.243-0.076-0.658-0.115-1.247-0.115h-1.638L39.922,30.729
		L39.922,30.729z M39.922,34.514h2.04c0.351,0,0.597-0.014,0.738-0.039c0.25-0.045,0.458-0.119,0.626-0.225
		c0.168-0.104,0.306-0.256,0.414-0.455c0.107-0.199,0.162-0.43,0.162-0.689c0-0.307-0.078-0.571-0.235-0.797
		c-0.156-0.227-0.373-0.385-0.65-0.476c-0.278-0.091-0.678-0.138-1.199-0.138h-1.896V34.514z"/>
	<path fill="#111111" d="M46.941,35.48v-8.195h5.926v0.967h-4.841v2.51h4.533v0.963h-4.533v2.789h5.031v0.967H46.941L46.941,35.48z"
		/>
	<path fill="#111111" d="M54.984,35.48v-8.195h3.633c0.73,0,1.286,0.074,1.666,0.221c0.38,0.146,0.684,0.408,0.911,0.78
		s0.341,0.784,0.341,1.235c0,0.582-0.188,1.07-0.564,1.471c-0.376,0.398-0.958,0.652-1.744,0.76
		c0.287,0.139,0.505,0.273,0.654,0.408c0.316,0.291,0.617,0.654,0.9,1.09l1.425,2.23h-1.363l-1.085-1.705
		c-0.316-0.492-0.577-0.869-0.782-1.129c-0.205-0.263-0.389-0.443-0.551-0.549c-0.162-0.104-0.327-0.177-0.495-0.218
		c-0.123-0.026-0.324-0.039-0.604-0.039h-1.258v3.64H54.984z M56.068,30.902h2.331c0.496,0,0.884-0.051,1.163-0.154
		c0.279-0.102,0.491-0.266,0.637-0.492c0.146-0.225,0.219-0.47,0.219-0.734c0-0.388-0.142-0.705-0.423-0.955
		c-0.281-0.25-0.726-0.375-1.333-0.375h-2.594V30.902z"/>
	<path fill="#111111" d="M63.604,35.48v-8.195h1.084v7.229h4.035v0.967H63.604L63.604,35.48z"/>
	<path fill="#111111" d="M70.609,35.48v-8.195h1.086v8.195H70.609z"/>
	<path fill="#111111" d="M73.997,35.48v-8.195h1.112l4.305,6.436v-6.436h1.039v8.195h-1.112l-4.304-6.439v6.439H73.997z"/>
</g>
<g>
	<path fill="#111111" d="M22.114,15.935c-0.588,0.514-1.26,0.921-2.015,1.22c-0.756,0.299-1.601,0.449-2.535,0.449
		c-0.966,0-1.844-0.176-2.637-0.527c-0.792-0.352-1.472-0.829-2.038-1.433s-1.005-1.309-1.314-2.117
		c-0.309-0.808-0.465-1.669-0.465-2.582c0-1.008,0.163-1.926,0.488-2.755c0.325-0.829,0.776-1.543,1.354-2.141
		c0.578-0.598,1.262-1.06,2.055-1.385c0.792-0.325,1.655-0.488,2.59-0.488c0.881,0,1.691,0.104,2.432,0.315
		c0.741,0.21,1.403,0.514,1.991,0.913l-1.055,1.763c-0.42-0.241-0.905-0.459-1.456-0.653c-0.551-0.194-1.193-0.291-1.929-0.291
		c-0.619,0-1.175,0.124-1.668,0.37c-0.493,0.246-0.913,0.585-1.26,1.015c-0.346,0.43-0.613,0.932-0.803,1.503
		c-0.188,0.572-0.283,1.183-0.283,1.834c0,0.629,0.095,1.22,0.283,1.771c0.189,0.551,0.457,1.031,0.803,1.44
		c0.347,0.41,0.767,0.738,1.26,0.984c0.493,0.247,1.044,0.381,1.652,0.401c0.588,0.021,1.154-0.065,1.7-0.26
		c0.546-0.194,1.07-0.527,1.574-1L22.114,15.935z"/>
	<path fill="#111111" d="M28.253,7.671c0.671,0,1.299,0.113,1.881,0.338c0.583,0.226,1.089,0.554,1.52,0.984
		c0.43,0.43,0.769,0.96,1.015,1.59c0.247,0.63,0.37,1.349,0.37,2.157c0,0.797-0.123,1.503-0.37,2.117
		c-0.246,0.614-0.585,1.131-1.015,1.55c-0.431,0.42-0.937,0.74-1.52,0.96c-0.582,0.22-1.21,0.331-1.881,0.331
		c-0.756,0-1.428-0.134-2.015-0.401c-0.588-0.268-1.079-0.63-1.473-1.086s-0.692-0.983-0.896-1.582
		c-0.205-0.598-0.308-1.228-0.308-1.889c0-0.819,0.121-1.543,0.362-2.172c0.241-0.63,0.574-1.16,1-1.59
		c0.425-0.43,0.921-0.756,1.487-0.976C26.976,7.782,27.592,7.671,28.253,7.671z M28.253,9.45c-0.305,0-0.599,0.076-0.882,0.228
		c-0.283,0.152-0.53,0.37-0.739,0.653c-0.211,0.284-0.378,0.63-0.504,1.039c-0.126,0.409-0.189,0.866-0.189,1.37
		c0,0.378,0.053,0.755,0.157,1.133c0.105,0.378,0.255,0.719,0.449,1.023c0.194,0.304,0.436,0.553,0.724,0.748
		c0.289,0.194,0.617,0.291,0.984,0.291c0.388,0,0.729-0.097,1.023-0.291c0.293-0.194,0.543-0.443,0.747-0.748
		c0.205-0.305,0.359-0.646,0.465-1.023c0.104-0.378,0.157-0.755,0.157-1.133c0-0.399-0.05-0.795-0.149-1.188
		c-0.099-0.393-0.25-0.745-0.449-1.055c-0.199-0.31-0.448-0.562-0.747-0.756C29.001,9.547,28.651,9.45,28.253,9.45z"/>
	<path fill="#111111" d="M37.51,9.024c0.095-0.251,0.23-0.464,0.409-0.637c0.178-0.173,0.37-0.315,0.574-0.425
		c0.205-0.11,0.415-0.191,0.63-0.244c0.215-0.053,0.401-0.079,0.559-0.079c0.535,0,1.013,0.14,1.433,0.417
		c0.42,0.277,0.761,0.648,1.023,1.11c0.304-0.504,0.689-0.884,1.157-1.142c0.467-0.257,0.926-0.386,1.377-0.386
		c0.504,0,0.966,0.071,1.386,0.213c0.419,0.142,0.776,0.354,1.07,0.637c0.294,0.284,0.521,0.635,0.685,1.055
		c0.162,0.42,0.244,0.913,0.244,1.48v6.407h-2.408v-6.454c0-0.409-0.132-0.75-0.394-1.023c-0.263-0.273-0.588-0.41-0.977-0.41
		c-0.188,0-0.372,0.032-0.551,0.095s-0.339,0.16-0.48,0.291c-0.142,0.131-0.254,0.302-0.338,0.512s-0.126,0.462-0.126,0.755v6.234
		h-2.361v-6.313c0-0.514-0.142-0.908-0.425-1.181c-0.283-0.272-0.609-0.409-0.977-0.409c-0.168,0-0.341,0.037-0.52,0.11
		c-0.179,0.073-0.341,0.187-0.487,0.338c-0.147,0.152-0.268,0.338-0.362,0.559c-0.095,0.221-0.142,0.478-0.142,0.771v6.124h-2.393
		v-9.54h2.393L37.51,9.024L37.51,9.024z"/>
	<path fill="#111111" d="M53.235,9.024c0.095-0.251,0.23-0.464,0.409-0.637c0.178-0.173,0.37-0.315,0.574-0.425
		c0.205-0.11,0.415-0.191,0.63-0.244c0.215-0.053,0.401-0.079,0.559-0.079c0.535,0,1.013,0.14,1.433,0.417
		c0.42,0.277,0.761,0.648,1.023,1.11c0.304-0.504,0.689-0.884,1.157-1.142c0.467-0.257,0.926-0.386,1.377-0.386
		c0.504,0,0.966,0.071,1.386,0.213c0.419,0.142,0.775,0.354,1.07,0.637c0.293,0.284,0.521,0.635,0.685,1.055
		c0.162,0.42,0.244,0.913,0.244,1.48v6.407h-2.408v-6.454c0-0.409-0.132-0.75-0.394-1.023c-0.263-0.273-0.588-0.41-0.977-0.41
		c-0.188,0-0.372,0.032-0.551,0.095c-0.179,0.063-0.339,0.16-0.48,0.291c-0.142,0.131-0.254,0.302-0.338,0.512
		s-0.126,0.462-0.126,0.755v6.234h-2.361v-6.313c0-0.514-0.142-0.908-0.425-1.181c-0.283-0.272-0.609-0.409-0.977-0.409
		c-0.168,0-0.341,0.037-0.52,0.11c-0.179,0.073-0.341,0.187-0.487,0.338c-0.147,0.152-0.268,0.338-0.362,0.559
		c-0.095,0.221-0.142,0.478-0.142,0.771v6.124h-2.393v-9.54h2.393L53.235,9.024L53.235,9.024z"/>
	<path fill="#111111" d="M72.52,16.219c-0.127,0.229-0.287,0.438-0.48,0.622c-0.194,0.184-0.4,0.338-0.622,0.464
		c-0.22,0.126-0.454,0.223-0.7,0.292c-0.247,0.068-0.484,0.102-0.716,0.102c-0.524,0-1.008-0.079-1.448-0.236
		c-0.441-0.157-0.82-0.391-1.142-0.7c-0.321-0.309-0.569-0.693-0.748-1.149c-0.179-0.456-0.269-0.984-0.269-1.582V7.891h2.41v5.966
		c0,0.315,0.047,0.596,0.141,0.842c0.095,0.247,0.216,0.454,0.361,0.622c0.147,0.168,0.317,0.294,0.512,0.378
		c0.195,0.084,0.396,0.126,0.606,0.126c0.325,0,0.616-0.061,0.874-0.181c0.258-0.121,0.477-0.286,0.661-0.496
		c0.183-0.209,0.322-0.459,0.417-0.748c0.094-0.289,0.143-0.601,0.143-0.937V7.891h2.438v9.54H72.52V16.219z"/>
	<path fill="#111111" d="M80.2,9.104c0.263-0.451,0.63-0.811,1.102-1.079c0.474-0.268,0.945-0.401,1.417-0.401
		c0.524,0,1.008,0.079,1.448,0.236c0.44,0.157,0.821,0.391,1.142,0.7c0.319,0.31,0.569,0.693,0.748,1.149
		c0.178,0.457,0.268,0.984,0.268,1.582v6.139h-2.408v-5.966c0-0.314-0.047-0.595-0.143-0.842c-0.094-0.247-0.215-0.454-0.362-0.622
		c-0.146-0.167-0.32-0.293-0.521-0.377c-0.199-0.084-0.397-0.126-0.598-0.126c-0.325,0-0.617,0.061-0.874,0.181
		c-0.257,0.121-0.478,0.286-0.661,0.496c-0.183,0.21-0.322,0.459-0.417,0.748s-0.142,0.601-0.142,0.937v5.573H77.76v-9.54h2.44
		V9.104z"/>
	<path fill="#111111" d="M88.857,4.003h2.882v2.503h-2.882V4.003z M89.095,7.891h2.425v9.54h-2.425V7.891z"/>
	<path fill="#111111" d="M94.996,5.625l2.439-0.771v3.022h2.188v1.889h-2.188v4.565c0,0.294,0.062,0.53,0.182,0.708
		c0.121,0.178,0.281,0.317,0.48,0.417c0.198,0.1,0.424,0.168,0.676,0.205c0.252,0.037,0.51,0.055,0.771,0.055v1.936
		c-0.661,0.073-1.271,0.065-1.834-0.023c-0.563-0.089-1.042-0.265-1.439-0.527c-0.398-0.262-0.711-0.606-0.938-1.031
		c-0.227-0.425-0.339-0.937-0.339-1.535v-4.77H93.5v-1.89h1.495L94.996,5.625L94.996,5.625z"/>
	<path fill="#111111" d="M101.025,18.989c0.44-0.105,0.832-0.226,1.173-0.362c0.341-0.136,0.638-0.299,0.89-0.488
		s0.465-0.412,0.639-0.669c0.172-0.257,0.316-0.554,0.433-0.89l-3.4-8.689h2.566l2.062,5.825l2.047-5.825h2.551l-3.086,8.375
		c-0.179,0.504-0.366,0.947-0.565,1.331c-0.2,0.383-0.42,0.763-0.661,1.141c-0.252,0.378-0.533,0.695-0.843,0.952
		s-0.636,0.47-0.976,0.638c-0.343,0.168-0.69,0.304-1.047,0.408c-0.357,0.105-0.709,0.205-1.056,0.3L101.025,18.989z"/>
</g>
</svg>
