<?xml version="1.0" encoding="utf-8"?>
<!-- Generator: Adobe Illustrator 16.0.0, SVG Export Plug-In . SVG Version: 6.00 Build 0)  -->
<!DOCTYPE svg PUBLIC "-//W3C//DTD SVG 1.1//EN" "http://www.w3.org/Graphics/SVG/1.1/DTD/svg11.dtd">
<svg version="1.1" id="레이어_1" xmlns="http://www.w3.org/2000/svg" xmlns:xlink="http://www.w3.org/1999/xlink" x="0px"
	 y="0px" width="122px" height="40px" viewBox="0 0 122 40" enable-background="new 0 0 122 40" xml:space="preserve">
<g>
	<path fill="#111111" d="M21.999,36.717l3.147-8.193h1.168l3.354,8.193h-1.235l-0.955-2.48h-3.427l-0.9,2.48H21.999z M24.363,33.352
		h2.778l-0.855-2.27c-0.261-0.689-0.454-1.256-0.581-1.699c-0.104,0.525-0.252,1.047-0.441,1.564L24.363,33.352z"/>
	<path fill="#111111" d="M30.902,36.717v-8.193h1.633l1.939,5.802c0.179,0.54,0.31,0.944,0.392,1.213
		c0.093-0.298,0.238-0.735,0.436-1.313l1.962-5.701h1.459v8.193h-1.045v-6.857l-2.382,6.857h-0.978l-2.37-6.977v6.977H30.902z"/>
	<path fill="#111111" d="M40.504,34.084l1.022-0.089c0.049,0.409,0.161,0.745,0.338,1.009c0.178,0.264,0.452,0.475,0.825,0.637
		c0.372,0.162,0.792,0.244,1.258,0.244c0.413,0,0.778-0.063,1.096-0.186c0.316-0.122,0.552-0.291,0.707-0.506
		c0.154-0.215,0.231-0.447,0.231-0.701c0-0.258-0.074-0.48-0.224-0.674c-0.148-0.191-0.395-0.354-0.737-0.482
		c-0.22-0.086-0.706-0.221-1.459-0.4s-1.28-0.352-1.582-0.512c-0.392-0.205-0.684-0.459-0.875-0.763
		c-0.192-0.304-0.288-0.644-0.288-1.021c0-0.414,0.117-0.801,0.353-1.16c0.234-0.359,0.577-0.633,1.028-0.818
		c0.451-0.188,0.952-0.279,1.504-0.279c0.607,0,1.144,0.098,1.607,0.293s0.82,0.484,1.07,0.863c0.249,0.381,0.384,0.811,0.402,1.292
		l-1.04,0.078c-0.056-0.519-0.245-0.909-0.567-1.175c-0.322-0.264-0.798-0.396-1.428-0.396c-0.656,0-1.134,0.121-1.435,0.361
		c-0.3,0.24-0.449,0.529-0.449,0.869c0,0.295,0.105,0.537,0.318,0.727c0.209,0.189,0.754,0.385,1.635,0.584
		c0.882,0.199,1.486,0.374,1.814,0.523c0.477,0.219,0.829,0.498,1.057,0.834c0.227,0.338,0.341,0.727,0.341,1.166
		c0,0.437-0.125,0.848-0.375,1.232c-0.249,0.387-0.608,0.686-1.076,0.899c-0.468,0.215-0.994,0.321-1.579,0.321
		c-0.741,0-1.363-0.107-1.864-0.324s-0.895-0.541-1.18-0.977C40.668,35.123,40.519,34.633,40.504,34.084z"/>
	<path fill="#111111" d="M50.595,36.717v-7.229h-2.7v-0.967h6.495v0.967h-2.711v7.229H50.595z"/>
	<path fill="#111111" d="M55.937,36.717v-8.193h5.926v0.967h-4.841V32h4.533v0.962h-4.533v2.789h5.031v0.968h-6.116V36.717z"/>
	<path fill="#111111" d="M63.979,36.717v-8.193h3.633c0.73,0,1.287,0.072,1.666,0.221c0.381,0.148,0.685,0.406,0.912,0.779
		s0.341,0.785,0.341,1.234c0,0.582-0.188,1.072-0.564,1.471s-0.958,0.652-1.743,0.76c0.286,0.14,0.504,0.275,0.653,0.408
		c0.315,0.291,0.617,0.654,0.899,1.09l1.426,2.23h-1.363l-1.085-1.705c-0.315-0.49-0.577-0.867-0.782-1.129
		c-0.205-0.261-0.389-0.443-0.551-0.547c-0.162-0.105-0.327-0.178-0.495-0.219c-0.123-0.025-0.323-0.039-0.604-0.039h-1.258v3.639
		H63.979z M65.063,32.139h2.332c0.496,0,0.883-0.051,1.162-0.152c0.279-0.103,0.491-0.268,0.637-0.492
		c0.146-0.225,0.22-0.471,0.22-0.735c0-0.387-0.142-0.704-0.423-0.954s-0.727-0.375-1.333-0.375h-2.595V32.139z"/>
	<path fill="#111111" d="M72.631,36.717v-8.193h2.823c0.638,0,1.124,0.039,1.459,0.117c0.47,0.107,0.87,0.303,1.202,0.586
		c0.433,0.365,0.756,0.832,0.97,1.4s0.321,1.219,0.321,1.948c0,0.622-0.072,1.174-0.219,1.653c-0.146,0.481-0.332,0.879-0.559,1.194
		c-0.229,0.313-0.477,0.563-0.747,0.742c-0.271,0.183-0.596,0.317-0.978,0.412c-0.383,0.093-0.821,0.139-1.316,0.139L72.631,36.717
		L72.631,36.717z M73.716,35.75h1.75c0.54,0,0.964-0.051,1.271-0.15c0.309-0.102,0.554-0.242,0.736-0.426
		c0.256-0.256,0.457-0.602,0.601-1.035c0.144-0.435,0.215-0.961,0.215-1.58c0-0.856-0.142-1.516-0.422-1.977
		c-0.281-0.46-0.623-0.77-1.025-0.926c-0.291-0.111-0.759-0.168-1.403-0.168h-1.722V35.75z"/>
	<path fill="#111111" d="M79.999,36.717l3.147-8.193h1.168l3.354,8.193h-1.234l-0.955-2.48h-3.428l-0.9,2.48H79.999z M82.363,33.352
		h2.777l-0.854-2.27c-0.261-0.689-0.454-1.256-0.581-1.699c-0.104,0.525-0.252,1.047-0.441,1.564L82.363,33.352z"/>
	<path fill="#111111" d="M88.9,36.717v-8.193h1.634l1.938,5.802c0.18,0.54,0.311,0.944,0.393,1.213
		c0.093-0.298,0.238-0.735,0.436-1.313l1.963-5.701h1.459v8.193h-1.046v-6.857l-2.382,6.857h-0.979l-2.369-6.977v6.977H88.9z"/>
</g>
<g>
	<path fill="#111111" d="M47.966,6.061h-6.202v3.558h5.84v1.905h-5.84v5.714h-2.425V4.156h8.627V6.061z"/>
	<path fill="#111111" d="M50.122,3.81h2.424v13.428h-2.424V3.81z"/>
	<path fill="#111111" d="M61.472,16.026c-0.126,0.23-0.286,0.438-0.48,0.622c-0.194,0.184-0.401,0.338-0.622,0.464
		c-0.22,0.126-0.454,0.223-0.7,0.292c-0.247,0.068-0.485,0.102-0.716,0.102c-0.525,0-1.008-0.079-1.448-0.236
		c-0.441-0.157-0.821-0.391-1.142-0.7c-0.321-0.309-0.569-0.693-0.748-1.149c-0.179-0.456-0.268-0.984-0.268-1.582V7.698h2.409
		v5.966c0,0.315,0.047,0.596,0.142,0.842c0.094,0.247,0.215,0.454,0.361,0.622c0.147,0.168,0.317,0.294,0.512,0.378
		s0.396,0.126,0.606,0.126c0.325,0,0.616-0.061,0.874-0.181c0.257-0.121,0.477-0.286,0.661-0.496
		c0.183-0.209,0.322-0.459,0.417-0.748c0.094-0.289,0.142-0.601,0.142-0.937V7.698h2.439v9.54h-2.439V16.026z"/>
	<path fill="#111111" d="M66.493,3.81h2.881v2.503h-2.881V3.81z M66.729,7.698h2.424v9.54h-2.424V7.698z"/>
	<path fill="#111111" d="M75.561,7.462c0.599,0,1.106,0.134,1.526,0.401c0.42,0.267,0.767,0.627,1.039,1.078V3.81h2.425v13.428
		h-2.425v-1.102c-0.263,0.399-0.599,0.724-1.007,0.976c-0.41,0.252-0.93,0.378-1.559,0.378c-1.375,0-2.398-0.428-3.07-1.283
		s-1.008-2.08-1.008-3.675c0-0.756,0.084-1.446,0.252-2.07s0.423-1.157,0.764-1.598c0.342-0.441,0.768-0.785,1.275-1.031
		C74.282,7.586,74.878,7.462,75.561,7.462z M76.001,9.288c-0.39,0-0.716,0.092-0.983,0.276c-0.267,0.184-0.485,0.428-0.652,0.732
		c-0.168,0.304-0.289,0.648-0.362,1.031c-0.073,0.383-0.11,0.774-0.11,1.173c0,0.378,0.043,0.756,0.127,1.133
		c0.084,0.378,0.213,0.719,0.386,1.023c0.173,0.304,0.391,0.554,0.653,0.748c0.262,0.194,0.576,0.292,0.943,0.292
		c0.355,0,0.669-0.084,0.938-0.252c0.268-0.168,0.49-0.396,0.668-0.685c0.18-0.289,0.311-0.627,0.395-1.015
		c0.084-0.388,0.126-0.803,0.126-1.244v-0.157c-0.021-1.028-0.229-1.795-0.63-2.298C77.098,9.54,76.6,9.288,76.001,9.288z"/>
</g>
</svg>
