<?xml version="1.0" encoding="utf-8"?>
<!-- Generator: Adobe Illustrator 16.0.0, SVG Export Plug-In . SVG Version: 6.00 Build 0)  -->
<!DOCTYPE svg PUBLIC "-//W3C//DTD SVG 1.1//EN" "http://www.w3.org/Graphics/SVG/1.1/DTD/svg11.dtd">
<svg version="1.1" id="레이어_1" xmlns="http://www.w3.org/2000/svg" xmlns:xlink="http://www.w3.org/1999/xlink" x="0px"
	 y="0px" width="122px" height="40px" viewBox="0 0 122 40" enable-background="new 0 0 122 40" xml:space="preserve">
<g>
	<path fill="#111111" d="M38.698,35.523v-8.195h1.084v7.229h4.036v0.967H38.698L38.698,35.523z"/>
	<path fill="#111111" d="M44.746,31.531c0-1.359,0.365-2.424,1.096-3.194c0.73-0.769,1.673-1.153,2.828-1.153
		c0.757,0,1.438,0.182,2.046,0.543c0.608,0.36,1.07,0.864,1.39,1.512c0.318,0.646,0.478,1.38,0.478,2.199
		c0,0.832-0.168,1.574-0.503,2.23c-0.336,0.654-0.811,1.152-1.426,1.488c-0.614,0.338-1.278,0.507-1.99,0.507
		c-0.771,0-1.461-0.187-2.068-0.56s-1.067-0.881-1.38-1.525C44.902,32.934,44.746,32.251,44.746,31.531z M45.864,31.549
		c0,0.987,0.265,1.766,0.796,2.334c0.531,0.568,1.197,0.854,1.999,0.854c0.815,0,1.487-0.287,2.015-0.861
		c0.527-0.572,0.791-1.389,0.791-2.441c0-0.668-0.112-1.25-0.338-1.748c-0.226-0.496-0.556-0.883-0.989-1.156
		c-0.435-0.273-0.922-0.411-1.462-0.411c-0.768,0-1.429,0.264-1.981,0.791C46.141,29.436,45.864,30.314,45.864,31.549z"/>
	<path fill="#111111" d="M54.381,35.523v-8.195h1.112l4.305,6.436v-6.436h1.039v8.195h-1.112l-4.304-6.439v6.439H54.381z"/>
	<path fill="#111111" d="M63.061,35.523v-8.195h2.823c0.638,0,1.124,0.039,1.459,0.117c0.47,0.107,0.87,0.305,1.202,0.588
		c0.434,0.365,0.756,0.832,0.971,1.398c0.213,0.568,0.32,1.219,0.32,1.948c0,0.623-0.072,1.175-0.218,1.655s-0.332,0.878-0.56,1.193
		c-0.228,0.313-0.477,0.563-0.746,0.742c-0.271,0.182-0.597,0.318-0.979,0.411c-0.383,0.093-0.82,0.14-1.316,0.14h-2.957V35.523z
		 M64.146,34.557h1.75c0.539,0,0.963-0.051,1.271-0.15s0.554-0.242,0.735-0.426c0.257-0.256,0.457-0.603,0.601-1.037
		c0.144-0.434,0.215-0.959,0.215-1.578c0-0.857-0.141-1.516-0.422-1.977c-0.28-0.461-0.623-0.769-1.024-0.926
		c-0.291-0.111-0.76-0.167-1.403-0.167h-1.722V34.557z"/>
	<path fill="#111111" d="M71.398,31.531c0-1.359,0.365-2.424,1.097-3.194c0.729-0.769,1.673-1.153,2.828-1.153
		c0.757,0,1.438,0.182,2.046,0.543c0.607,0.36,1.07,0.864,1.39,1.512c0.318,0.646,0.478,1.38,0.478,2.199
		c0,0.832-0.168,1.574-0.502,2.23c-0.336,0.654-0.812,1.152-1.426,1.488c-0.615,0.338-1.278,0.507-1.99,0.507
		c-0.771,0-1.461-0.187-2.068-0.56s-1.066-0.881-1.38-1.525S71.398,32.251,71.398,31.531z M72.518,31.549
		c0,0.987,0.266,1.766,0.797,2.334c0.53,0.568,1.196,0.854,1.998,0.854c0.815,0,1.487-0.287,2.016-0.861
		c0.527-0.572,0.791-1.389,0.791-2.441c0-0.668-0.112-1.25-0.338-1.748c-0.227-0.496-0.557-0.883-0.989-1.156
		c-0.435-0.273-0.922-0.411-1.462-0.411c-0.768,0-1.43,0.264-1.98,0.791C72.794,29.436,72.518,30.314,72.518,31.549z"/>
	<path fill="#111111" d="M81.035,35.523v-8.195h1.111l4.306,6.436v-6.436h1.039v8.195h-1.112l-4.304-6.439v6.439H81.035z"/>
</g>
<g>
	<path fill="#111111" d="M44.351,11.008h-3.085V9.087h5.541v5.951c-0.473,0.23-0.913,0.422-1.322,0.574
		c-0.409,0.152-0.803,0.273-1.181,0.362c-0.378,0.089-0.745,0.152-1.102,0.189s-0.714,0.055-1.071,0.055
		c-0.976,0-1.859-0.171-2.652-0.512c-0.792-0.341-1.472-0.811-2.038-1.409s-1.005-1.296-1.314-2.093
		c-0.309-0.797-0.465-1.653-0.465-2.566c0-1.008,0.16-1.928,0.48-2.763s0.764-1.553,1.33-2.157c0.566-0.604,1.241-1.073,2.022-1.409
		c0.782-0.336,1.64-0.509,2.574-0.52c0.902-0.01,1.721,0.089,2.456,0.299c0.734,0.21,1.416,0.515,2.046,0.913L45.515,5.78
		c-0.493-0.272-1.016-0.503-1.566-0.692c-0.55-0.189-1.184-0.273-1.896-0.252c-0.63,0.021-1.188,0.16-1.677,0.417
		c-0.488,0.257-0.897,0.604-1.228,1.039c-0.331,0.436-0.583,0.939-0.756,1.511c-0.173,0.572-0.26,1.183-0.26,1.834
		c0,0.629,0.095,1.22,0.283,1.771c0.189,0.551,0.459,1.031,0.811,1.44c0.352,0.409,0.774,0.732,1.268,0.968
		c0.493,0.236,1.049,0.354,1.669,0.354c0.314,0,0.674-0.034,1.078-0.103c0.403-0.068,0.773-0.16,1.109-0.275L44.351,11.008
		L44.351,11.008z"/>
	<path fill="#111111" d="M49.845,2.617h2.424v13.428h-2.424V2.617z"/>
	<path fill="#111111" d="M59.227,6.285c0.671,0,1.299,0.113,1.881,0.338c0.583,0.226,1.089,0.554,1.52,0.984
		c0.431,0.43,0.769,0.96,1.015,1.59c0.248,0.63,0.371,1.349,0.371,2.157c0,0.797-0.123,1.503-0.371,2.117
		c-0.246,0.614-0.584,1.131-1.015,1.55c-0.431,0.42-0.937,0.74-1.52,0.96c-0.582,0.22-1.21,0.331-1.881,0.331
		c-0.756,0-1.428-0.134-2.015-0.401c-0.588-0.268-1.079-0.63-1.473-1.086c-0.395-0.456-0.692-0.983-0.896-1.582
		c-0.205-0.598-0.308-1.228-0.308-1.889c0-0.819,0.121-1.543,0.362-2.172c0.241-0.63,0.574-1.16,1-1.59
		c0.425-0.43,0.921-0.756,1.487-0.976C57.95,6.396,58.565,6.285,59.227,6.285z M59.227,8.064c-0.305,0-0.599,0.076-0.882,0.228
		c-0.283,0.152-0.53,0.37-0.739,0.653c-0.211,0.284-0.378,0.63-0.504,1.039c-0.126,0.409-0.189,0.866-0.189,1.37
		c0,0.378,0.053,0.755,0.157,1.133c0.105,0.378,0.255,0.719,0.449,1.023c0.194,0.304,0.436,0.553,0.724,0.748
		c0.289,0.194,0.617,0.291,0.984,0.291c0.388,0,0.729-0.097,1.023-0.291c0.293-0.194,0.543-0.443,0.747-0.748
		c0.205-0.305,0.359-0.646,0.465-1.023c0.104-0.378,0.157-0.755,0.157-1.133c0-0.399-0.051-0.795-0.149-1.188
		c-0.099-0.393-0.25-0.745-0.449-1.055c-0.199-0.31-0.448-0.562-0.747-0.756C59.975,8.161,59.625,8.064,59.227,8.064z"/>
	<path fill="#111111" d="M71.063,6.27c0.684,0,1.278,0.124,1.787,0.37c0.51,0.247,0.935,0.59,1.275,1.031s0.596,0.974,0.764,1.598
		c0.168,0.625,0.252,1.314,0.252,2.07c0,1.595-0.336,2.82-1.008,3.675s-1.695,1.283-3.07,1.283c-0.629,0-1.15-0.126-1.565-0.378
		c-0.414-0.252-0.747-0.577-0.999-0.976v1.102h-2.424V2.617h2.424v5.132c0.271-0.451,0.619-0.811,1.039-1.078
		C69.956,6.403,70.466,6.27,71.063,6.27z M70.623,8.095c-0.6,0-1.098,0.252-1.495,0.756c-0.399,0.503-0.608,1.27-0.63,2.298v0.157
		c0,0.441,0.042,0.855,0.126,1.244c0.084,0.389,0.215,0.727,0.394,1.015c0.178,0.289,0.398,0.517,0.662,0.685
		c0.262,0.168,0.576,0.252,0.943,0.252s0.682-0.097,0.943-0.292c0.264-0.194,0.48-0.443,0.653-0.748s0.302-0.646,0.386-1.023
		s0.127-0.755,0.127-1.133c0-0.398-0.037-0.79-0.11-1.173c-0.073-0.383-0.194-0.727-0.362-1.031
		c-0.168-0.304-0.385-0.548-0.652-0.732C71.339,8.188,71.011,8.095,70.623,8.095z"/>
	<path fill="#111111" d="M77.393,7.214c0.733-0.43,1.447-0.706,2.142-0.827c0.692-0.12,1.315-0.17,1.873-0.149
		c0.524,0.021,1.015,0.105,1.472,0.252c0.456,0.147,0.855,0.359,1.196,0.638c0.341,0.278,0.608,0.617,0.803,1.015
		c0.194,0.399,0.291,0.866,0.291,1.401v4.25c0,0.231,0.015,0.514,0.04,0.85s0.128,0.803,0.307,1.401h-2.738l-0.017-0.992
		c-0.157,0.22-0.339,0.407-0.543,0.559c-0.204,0.152-0.423,0.281-0.653,0.386s-0.461,0.181-0.691,0.229
		c-0.23,0.047-0.451,0.071-0.661,0.071c-0.462,0-0.911-0.068-1.347-0.205c-0.436-0.137-0.82-0.336-1.156-0.598
		c-0.336-0.263-0.605-0.59-0.811-0.984c-0.205-0.394-0.309-0.853-0.309-1.377c0-0.651,0.123-1.22,0.37-1.708
		c0.246-0.488,0.619-0.879,1.118-1.173c0.498-0.293,1.13-0.49,1.896-0.59c0.766-0.1,1.668-0.086,2.707,0.04
		c0.01-0.409-0.109-0.75-0.361-1.023c-0.252-0.272-0.567-0.457-0.944-0.551c-0.231-0.052-0.483-0.073-0.756-0.063
		c-0.272,0.011-0.546,0.047-0.818,0.11c-0.272,0.063-0.541,0.142-0.803,0.236c-0.263,0.095-0.494,0.2-0.692,0.315L77.393,7.214z
		 M80.479,14.534c0.262,0,0.523-0.052,0.787-0.157c0.262-0.105,0.498-0.247,0.707-0.425c0.211-0.178,0.383-0.391,0.521-0.637
		c0.137-0.246,0.205-0.506,0.205-0.779V11.34c-1.322-0.179-2.296-0.126-2.921,0.157c-0.625,0.283-0.938,0.724-0.938,1.322
		c0,0.619,0.158,1.06,0.473,1.322C79.627,14.403,80.016,14.534,80.479,14.534z"/>
	<path fill="#111111" d="M87.986,2.617h2.424v13.428h-2.424V2.617z"/>
</g>
</svg>
