<?xml version="1.0" encoding="utf-8"?>
<!-- Generator: Adobe Illustrator 16.0.0, SVG Export Plug-In . SVG Version: 6.00 Build 0)  -->
<!DOCTYPE svg PUBLIC "-//W3C//DTD SVG 1.1//EN" "http://www.w3.org/Graphics/SVG/1.1/DTD/svg11.dtd">
<svg version="1.1" id="레이어_1" xmlns="http://www.w3.org/2000/svg" xmlns:xlink="http://www.w3.org/1999/xlink" x="0px"
	 y="0px" width="122px" height="40px" viewBox="0 0 122 40" enable-background="new 0 0 122 40" xml:space="preserve">
<g>
	<path fill="#111111" d="M44.206,35.568v-8.195h3.092c0.544,0,0.96,0.025,1.246,0.078c0.403,0.066,0.74,0.195,1.013,0.384
		c0.271,0.188,0.49,0.451,0.656,0.79c0.166,0.34,0.249,0.712,0.249,1.118c0,0.696-0.222,1.286-0.665,1.771
		c-0.444,0.481-1.245,0.723-2.404,0.723h-2.102v3.332H44.206L44.206,35.568z M45.291,31.27h2.118c0.701,0,1.198-0.129,1.493-0.392
		c0.294-0.261,0.441-0.628,0.441-1.101c0-0.344-0.087-0.637-0.26-0.881c-0.174-0.244-0.401-0.405-0.685-0.483
		c-0.183-0.05-0.521-0.072-1.012-0.072h-2.097v2.929H45.291z"/>
	<path fill="#111111" d="M50.736,35.568l3.147-8.195h1.168l3.354,8.195H57.17l-0.955-2.482h-3.427l-0.9,2.482H50.736z
		 M53.101,32.203h2.778l-0.855-2.27c-0.261-0.689-0.454-1.256-0.581-1.699c-0.104,0.524-0.252,1.047-0.441,1.564L53.101,32.203z"/>
	<path fill="#111111" d="M59.69,35.568v-8.195h3.633c0.729,0,1.286,0.074,1.666,0.221c0.38,0.147,0.684,0.407,0.911,0.78
		c0.227,0.373,0.341,0.784,0.341,1.235c0,0.58-0.188,1.07-0.564,1.47s-0.958,0.651-1.743,0.761c0.286,0.139,0.504,0.273,0.653,0.408
		c0.315,0.29,0.617,0.654,0.899,1.09l1.426,2.23h-1.363l-1.085-1.705c-0.315-0.492-0.577-0.868-0.782-1.129
		c-0.205-0.262-0.389-0.443-0.551-0.549c-0.162-0.104-0.326-0.177-0.495-0.217c-0.122-0.027-0.323-0.039-0.604-0.039h-1.258v3.639
		H59.69z M60.774,30.99h2.332c0.496,0,0.884-0.053,1.162-0.154c0.279-0.102,0.491-0.266,0.638-0.49
		c0.146-0.226,0.219-0.472,0.219-0.736c0-0.387-0.142-0.705-0.423-0.955s-0.727-0.375-1.333-0.375h-2.594V30.99z"/>
	<path fill="#111111" d="M68.537,35.568v-8.195h1.085v8.195H68.537z"/>
	<path fill="#111111" d="M71.566,32.936l1.021-0.09c0.049,0.41,0.161,0.746,0.338,1.01c0.178,0.264,0.452,0.476,0.825,0.638
		c0.372,0.161,0.792,0.243,1.258,0.243c0.413,0,0.778-0.063,1.097-0.186c0.315-0.123,0.552-0.291,0.707-0.506
		c0.153-0.214,0.23-0.447,0.23-0.701c0-0.258-0.074-0.48-0.225-0.674c-0.147-0.191-0.395-0.354-0.736-0.482
		c-0.221-0.086-0.706-0.219-1.459-0.399c-0.753-0.183-1.28-0.353-1.582-0.513c-0.393-0.205-0.684-0.459-0.875-0.764
		c-0.191-0.304-0.288-0.644-0.288-1.02c0-0.414,0.117-0.801,0.353-1.16c0.234-0.359,0.578-0.633,1.028-0.818
		c0.451-0.187,0.952-0.279,1.505-0.279c0.606,0,1.144,0.098,1.606,0.293c0.464,0.195,0.819,0.484,1.069,0.863
		c0.25,0.381,0.385,0.812,0.402,1.291l-1.04,0.08c-0.056-0.52-0.245-0.91-0.567-1.176c-0.321-0.264-0.797-0.396-1.428-0.396
		c-0.656,0-1.134,0.121-1.435,0.36c-0.3,0.24-0.449,0.53-0.449,0.869c0,0.295,0.104,0.537,0.318,0.728
		c0.209,0.189,0.754,0.385,1.635,0.584c0.882,0.199,1.485,0.373,1.813,0.522c0.478,0.22,0.83,0.498,1.058,0.836
		c0.228,0.337,0.341,0.726,0.341,1.165c0,0.438-0.125,0.848-0.375,1.232c-0.249,0.386-0.607,0.687-1.076,0.9
		c-0.468,0.213-0.994,0.32-1.578,0.32c-0.742,0-1.363-0.107-1.865-0.324c-0.5-0.216-0.895-0.541-1.18-0.977
		C71.73,33.975,71.581,33.482,71.566,32.936z"/>
</g>
<g>
	<path fill="#111111" d="M50.88,4.576v8.752c0,0.725-0.128,1.367-0.386,1.929c-0.257,0.562-0.613,1.033-1.07,1.417
		c-0.456,0.383-0.991,0.677-1.605,0.881c-0.614,0.205-1.277,0.308-1.991,0.308s-1.383-0.101-2.007-0.3
		c-0.625-0.199-1.168-0.49-1.63-0.873s-0.823-0.855-1.086-1.417s-0.394-1.204-0.394-1.929V4.576h2.425v8.39
		c0,0.893,0.246,1.593,0.739,2.102c0.493,0.51,1.144,0.764,1.952,0.764c0.798,0,1.44-0.257,1.929-0.771
		c0.487-0.514,0.731-1.217,0.731-2.109V4.576H50.88z"/>
	<path fill="#111111" d="M56.012,9.33c0.263-0.451,0.63-0.811,1.102-1.078c0.473-0.268,0.945-0.401,1.417-0.401
		c0.524,0,1.008,0.078,1.448,0.235c0.44,0.158,0.821,0.392,1.142,0.701c0.319,0.31,0.568,0.692,0.747,1.148
		c0.179,0.457,0.268,0.984,0.268,1.582v6.14h-2.408v-5.966c0-0.315-0.047-0.596-0.142-0.843c-0.095-0.246-0.215-0.453-0.362-0.621
		c-0.146-0.168-0.32-0.294-0.52-0.378c-0.2-0.084-0.398-0.126-0.598-0.126c-0.325,0-0.617,0.061-0.874,0.181
		c-0.257,0.121-0.478,0.286-0.661,0.496c-0.183,0.21-0.322,0.459-0.417,0.748c-0.095,0.288-0.142,0.601-0.142,0.937v5.572h-2.439
		V8.118h2.439V9.33z"/>
	<path fill="#111111" d="M64.67,4.229h2.881v2.503H64.67V4.229z M64.906,8.118h2.424v9.539h-2.424V8.118z"/>
	<path fill="#111111" d="M70.809,5.851l2.44-0.771v3.021h2.188v1.89h-2.188v4.564c0,0.294,0.062,0.53,0.181,0.709
		c0.121,0.179,0.281,0.317,0.48,0.417c0.199,0.1,0.425,0.168,0.677,0.205c0.252,0.036,0.509,0.055,0.771,0.055v1.937
		c-0.66,0.073-1.271,0.065-1.834-0.024c-0.562-0.089-1.041-0.265-1.439-0.527c-0.398-0.262-0.711-0.605-0.938-1.03
		c-0.226-0.426-0.338-0.937-0.338-1.535v-4.77h-1.496v-1.89h1.496V5.851L70.809,5.851z"/>
	<path fill="#111111" d="M76.854,19.216c0.44-0.105,0.832-0.226,1.172-0.362c0.342-0.136,0.639-0.299,0.891-0.488
		c0.252-0.188,0.465-0.411,0.639-0.669c0.172-0.257,0.316-0.554,0.432-0.889l-3.399-8.689h2.565l2.063,5.824l2.047-5.824h2.551
		l-3.086,8.374c-0.179,0.504-0.367,0.947-0.565,1.33c-0.2,0.383-0.42,0.764-0.661,1.142c-0.252,0.378-0.533,0.695-0.843,0.952
		s-0.636,0.47-0.976,0.638c-0.343,0.168-0.69,0.305-1.048,0.409c-0.356,0.104-0.709,0.205-1.055,0.3L76.854,19.216z"/>
</g>
</svg>
