<?xml version="1.0" encoding="utf-8"?>
<!-- Generator: Adobe Illustrator 16.0.0, SVG Export Plug-In . SVG Version: 6.00 Build 0)  -->
<!DOCTYPE svg PUBLIC "-//W3C//DTD SVG 1.1//EN" "http://www.w3.org/Graphics/SVG/1.1/DTD/svg11.dtd">
<svg version="1.1" id="레이어_1" xmlns="http://www.w3.org/2000/svg" xmlns:xlink="http://www.w3.org/1999/xlink" x="0px"
	 y="0px" width="122px" height="40px" viewBox="0 0 122 40" enable-background="new 0 0 122 40" xml:space="preserve">
<g>
	<path fill="#111111" d="M24.132,33.348l1.022-0.09c0.049,0.41,0.161,0.746,0.338,1.01c0.178,0.262,0.452,0.476,0.825,0.637
		c0.372,0.162,0.792,0.244,1.258,0.244c0.413,0,0.778-0.063,1.096-0.186c0.316-0.123,0.552-0.291,0.707-0.506
		c0.154-0.215,0.231-0.447,0.231-0.701c0-0.258-0.074-0.482-0.224-0.674c-0.148-0.191-0.395-0.354-0.737-0.482
		c-0.22-0.086-0.706-0.221-1.459-0.399c-0.753-0.183-1.28-0.353-1.582-0.513c-0.392-0.205-0.684-0.459-0.875-0.764
		c-0.192-0.303-0.288-0.645-0.288-1.02c0-0.414,0.117-0.801,0.353-1.16c0.234-0.359,0.577-0.633,1.028-0.818
		c0.451-0.188,0.952-0.279,1.504-0.279c0.607,0,1.144,0.099,1.607,0.293c0.463,0.195,0.82,0.483,1.07,0.863
		c0.249,0.381,0.384,0.811,0.402,1.291l-1.04,0.078c-0.056-0.518-0.245-0.908-0.567-1.174c-0.322-0.264-0.798-0.396-1.428-0.396
		c-0.656,0-1.134,0.121-1.435,0.36c-0.3,0.241-0.449,0.53-0.449,0.87c0,0.294,0.104,0.536,0.318,0.727
		c0.209,0.189,0.754,0.385,1.635,0.584c0.882,0.199,1.486,0.373,1.814,0.522c0.477,0.22,0.829,0.499,1.057,0.835
		c0.227,0.338,0.341,0.727,0.341,1.166c0,0.436-0.125,0.848-0.375,1.232c-0.249,0.387-0.608,0.686-1.076,0.899
		c-0.468,0.214-0.994,0.321-1.579,0.321c-0.741,0-1.363-0.107-1.864-0.324c-0.501-0.216-0.895-0.541-1.18-0.977
		C24.296,34.387,24.146,33.896,24.132,33.348z"/>
	<path fill="#111111" d="M34.222,35.98v-7.229h-2.7v-0.967h6.495v0.967h-2.711v7.229H34.222z"/>
	<path fill="#111111" d="M38.709,31.988c0-1.359,0.365-2.424,1.096-3.193s1.673-1.154,2.828-1.154c0.757,0,1.438,0.18,2.046,0.541
		c0.607,0.362,1.07,0.866,1.39,1.514c0.318,0.646,0.478,1.38,0.478,2.199c0,0.83-0.168,1.574-0.503,2.23
		c-0.336,0.656-0.811,1.152-1.426,1.488c-0.614,0.338-1.278,0.507-1.99,0.507c-0.771,0-1.461-0.187-2.068-0.56
		s-1.067-0.881-1.38-1.525C38.865,33.391,38.709,32.709,38.709,31.988z M39.827,32.006c0,0.988,0.265,1.766,0.796,2.334
		c0.531,0.568,1.197,0.854,1.999,0.854c0.815,0,1.487-0.287,2.015-0.86c0.527-0.574,0.791-1.39,0.791-2.442
		c0-0.668-0.112-1.25-0.338-1.748c-0.226-0.496-0.556-0.884-0.989-1.156c-0.435-0.273-0.922-0.41-1.462-0.41
		c-0.768,0-1.429,0.264-1.981,0.791C40.104,29.893,39.827,30.771,39.827,32.006z"/>
	<path fill="#111111" d="M54.202,33.107l1.084,0.272c-0.227,0.892-0.636,1.57-1.227,2.037c-0.591,0.47-1.313,0.702-2.166,0.702
		c-0.884,0-1.602-0.18-2.155-0.54c-0.554-0.358-0.975-0.88-1.263-1.562c-0.289-0.684-0.434-1.416-0.434-2.197
		c0-0.854,0.163-1.598,0.489-2.233c0.326-0.635,0.79-1.116,1.392-1.446s1.265-0.496,1.987-0.496c0.82,0,1.51,0.209,2.068,0.627
		c0.559,0.418,0.948,1.004,1.168,1.762l-1.067,0.251c-0.19-0.597-0.466-1.03-0.827-1.302c-0.361-0.273-0.816-0.408-1.364-0.408
		c-0.63,0-1.156,0.15-1.579,0.451c-0.423,0.303-0.72,0.707-0.892,1.217c-0.172,0.509-0.257,1.033-0.257,1.574
		c0,0.695,0.102,1.305,0.305,1.824c0.203,0.521,0.519,0.907,0.947,1.166c0.429,0.256,0.893,0.385,1.392,0.385
		c0.607,0,1.122-0.174,1.543-0.524C53.767,34.316,54.053,33.797,54.202,33.107z"/>
	<path fill="#111111" d="M56.99,35.98v-8.195h1.084v4.064l4.068-4.064h1.472l-3.438,3.32l3.59,4.875h-1.432l-2.918-4.148
		l-1.342,1.309v2.84H56.99L56.99,35.98z"/>
	<path fill="#111111" d="M65.117,35.98v-8.195h1.084v3.365h4.26v-3.365h1.085v8.195h-1.085v-3.863h-4.26v3.863H65.117z"/>
	<path fill="#111111" d="M73.434,31.988c0-1.359,0.365-2.424,1.097-3.193c0.73-0.77,1.673-1.154,2.827-1.154
		c0.758,0,1.438,0.18,2.047,0.541c0.606,0.362,1.07,0.866,1.39,1.514c0.317,0.646,0.478,1.38,0.478,2.199
		c0,0.83-0.168,1.574-0.502,2.23c-0.336,0.656-0.812,1.152-1.427,1.488c-0.614,0.338-1.278,0.507-1.989,0.507
		c-0.771,0-1.461-0.187-2.068-0.56s-1.067-0.881-1.38-1.525C73.59,33.391,73.434,32.709,73.434,31.988z M74.552,32.006
		c0,0.988,0.265,1.766,0.796,2.334s1.197,0.854,2,0.854c0.814,0,1.486-0.287,2.014-0.86c0.527-0.574,0.791-1.39,0.791-2.442
		c0-0.668-0.111-1.25-0.338-1.748c-0.226-0.496-0.556-0.884-0.988-1.156c-0.436-0.273-0.922-0.41-1.462-0.41
		c-0.769,0-1.429,0.264-1.981,0.791C74.828,29.893,74.552,30.771,74.552,32.006z"/>
	<path fill="#111111" d="M83.036,35.98v-8.195h1.084v7.229h4.036v0.967H83.036L83.036,35.98z"/>
	<path fill="#111111" d="M89.826,35.98v-8.195h1.633l1.939,5.803c0.179,0.541,0.31,0.945,0.392,1.213
		c0.093-0.298,0.237-0.736,0.437-1.313l1.961-5.702h1.459v8.194h-1.045v-6.858L94.22,35.98h-0.978l-2.37-6.978v6.978H89.826z"/>
</g>
<g>
	<path fill="#111111" d="M25.355,17.931H22.93V4.849h2.425v5.51l4.942-5.51h2.943l-5.352,5.966l5.572,7.115h-2.817l-4.265-5.43
		l-1.022,1.149L25.355,17.931L25.355,17.931z"/>
	<path fill="#111111" d="M34.69,4.503h2.881v2.503H34.69V4.503z M34.927,8.391h2.424v9.54h-2.424V8.391z"/>
	<path fill="#111111" d="M42.749,9.604c0.263-0.451,0.63-0.811,1.102-1.079c0.473-0.268,0.945-0.401,1.417-0.401
		c0.524,0,1.008,0.079,1.448,0.236c0.44,0.157,0.821,0.391,1.142,0.7c0.319,0.31,0.569,0.693,0.747,1.149
		c0.179,0.457,0.268,0.984,0.268,1.582v6.139h-2.408v-5.966c0-0.314-0.047-0.595-0.142-0.842c-0.095-0.247-0.215-0.454-0.362-0.622
		c-0.146-0.167-0.32-0.293-0.52-0.377c-0.2-0.084-0.398-0.126-0.598-0.126c-0.325,0-0.617,0.061-0.874,0.181
		c-0.257,0.121-0.478,0.286-0.661,0.496s-0.322,0.459-0.417,0.748c-0.095,0.289-0.142,0.601-0.142,0.937v5.573H40.31v-9.54h2.439
		V9.604z"/>
	<path fill="#111111" d="M55.075,8.155c0.598,0,1.106,0.134,1.526,0.401c0.42,0.267,0.767,0.627,1.039,1.078V4.503h2.425v13.428
		H57.64v-1.102c-0.263,0.399-0.598,0.724-1.007,0.976c-0.41,0.252-0.93,0.378-1.559,0.378c-1.375,0-2.398-0.428-3.07-1.283
		c-0.671-0.855-1.007-2.08-1.007-3.675c0-0.756,0.084-1.446,0.252-2.07c0.167-0.624,0.422-1.157,0.763-1.598
		c0.342-0.441,0.767-0.785,1.275-1.031C53.797,8.279,54.393,8.155,55.075,8.155z M55.516,9.981c-0.389,0-0.716,0.092-0.983,0.276
		c-0.267,0.184-0.486,0.428-0.653,0.732c-0.168,0.304-0.289,0.648-0.362,1.031c-0.073,0.383-0.11,0.774-0.11,1.173
		c0,0.378,0.042,0.756,0.126,1.133c0.084,0.378,0.213,0.719,0.386,1.023c0.173,0.304,0.391,0.554,0.653,0.748
		c0.262,0.194,0.577,0.292,0.944,0.292c0.356,0,0.669-0.084,0.937-0.252s0.49-0.396,0.669-0.685c0.179-0.289,0.31-0.627,0.394-1.015
		s0.126-0.803,0.126-1.244v-0.157c-0.021-1.028-0.23-1.795-0.63-2.298C56.612,10.233,56.114,9.981,55.516,9.981z"/>
	<path fill="#111111" d="M65.434,9.604c0.262-0.451,0.629-0.811,1.102-1.079s0.945-0.401,1.417-0.401
		c0.524,0,1.008,0.079,1.448,0.236c0.439,0.157,0.82,0.391,1.142,0.7c0.319,0.31,0.569,0.693,0.747,1.149
		c0.179,0.457,0.268,0.984,0.268,1.582v6.139h-2.408v-5.966c0-0.314-0.047-0.595-0.142-0.842s-0.215-0.454-0.362-0.622
		c-0.146-0.167-0.319-0.293-0.52-0.377s-0.398-0.126-0.598-0.126c-0.325,0-0.617,0.061-0.875,0.181
		c-0.256,0.121-0.478,0.286-0.66,0.496c-0.184,0.21-0.322,0.459-0.417,0.748s-0.142,0.601-0.142,0.937v5.573h-2.439v-9.54h2.439
		V9.604z"/>
	<path fill="#111111" d="M82.261,16.876c-0.524,0.462-1.092,0.792-1.7,0.992c-0.607,0.2-1.302,0.304-2.078,0.315
		c-0.724,0-1.385-0.105-1.982-0.315s-1.109-0.525-1.535-0.944c-0.425-0.42-0.753-0.934-0.982-1.543
		c-0.23-0.608-0.348-1.307-0.348-2.093c0-0.777,0.107-1.48,0.323-2.109c0.215-0.63,0.521-1.165,0.921-1.606
		c0.398-0.441,0.885-0.782,1.456-1.023c0.571-0.242,1.22-0.362,1.944-0.362c0.701,0,1.326,0.124,1.873,0.37
		c0.545,0.247,1.005,0.588,1.377,1.023c0.373,0.436,0.656,0.945,0.851,1.527c0.193,0.583,0.285,1.21,0.274,1.881
		c0,0.137-0.008,0.299-0.022,0.488c-0.016,0.189-0.034,0.357-0.056,0.504H76.09c0.042,0.462,0.146,0.842,0.314,1.141
		c0.168,0.299,0.369,0.535,0.605,0.708c0.236,0.173,0.49,0.297,0.764,0.37c0.272,0.073,0.541,0.11,0.804,0.11
		c0.21,0,0.433-0.016,0.669-0.047c0.236-0.032,0.47-0.084,0.699-0.158c0.231-0.073,0.449-0.17,0.654-0.291s0.381-0.265,0.526-0.433
		L82.261,16.876z M80.309,12.153c-0.011-0.304-0.072-0.587-0.188-0.85c-0.116-0.262-0.271-0.49-0.465-0.685
		c-0.194-0.194-0.417-0.346-0.67-0.457c-0.252-0.111-0.508-0.165-0.771-0.165c-0.252,0-0.501,0.055-0.748,0.165
		c-0.245,0.11-0.47,0.263-0.669,0.457c-0.199,0.194-0.361,0.422-0.486,0.685c-0.127,0.263-0.194,0.546-0.205,0.85H80.309z"/>
	<path fill="#111111" d="M89.895,10.705c-0.146-0.104-0.313-0.202-0.494-0.291c-0.186-0.089-0.371-0.166-0.561-0.229
		c-0.188-0.063-0.369-0.112-0.543-0.149C88.124,10,87.984,9.981,87.88,9.981c-0.378,0-0.664,0.074-0.856,0.221
		c-0.194,0.147-0.293,0.346-0.293,0.598c0,0.136,0.049,0.268,0.143,0.394c0.095,0.126,0.221,0.247,0.378,0.362
		c0.157,0.116,0.339,0.231,0.543,0.347c0.205,0.115,0.423,0.231,0.653,0.346c0.357,0.189,0.709,0.377,1.055,0.566
		c0.348,0.189,0.656,0.399,0.93,0.63c0.272,0.231,0.49,0.493,0.652,0.787c0.163,0.294,0.244,0.635,0.244,1.023
		c0,0.567-0.112,1.039-0.338,1.417c-0.227,0.378-0.512,0.677-0.858,0.897c-0.346,0.22-0.724,0.377-1.133,0.472
		c-0.41,0.094-0.793,0.142-1.149,0.142c-0.63,0-1.293-0.124-1.99-0.37c-0.698-0.247-1.356-0.669-1.977-1.267l1.29-1.574
		c0.21,0.21,0.431,0.394,0.662,0.551c0.229,0.158,0.458,0.289,0.685,0.394s0.44,0.187,0.646,0.244
		c0.204,0.058,0.386,0.086,0.543,0.086c0.398,0,0.695-0.086,0.889-0.259c0.194-0.173,0.293-0.386,0.293-0.638
		c0-0.294-0.138-0.525-0.41-0.693c-0.272-0.167-0.629-0.362-1.07-0.583c-0.355-0.178-0.717-0.362-1.078-0.551
		s-0.691-0.404-0.991-0.646c-0.3-0.241-0.543-0.52-0.731-0.834c-0.188-0.315-0.283-0.688-0.283-1.118
		c0-0.514,0.104-0.955,0.314-1.322c0.209-0.367,0.478-0.664,0.803-0.89c0.324-0.226,0.689-0.391,1.095-0.496
		c0.403-0.105,0.8-0.158,1.188-0.158c0.576,0,1.164,0.1,1.763,0.299c0.599,0.199,1.118,0.467,1.559,0.803L89.895,10.705z"/>
	<path fill="#111111" d="M98.568,10.705c-0.146-0.104-0.313-0.202-0.495-0.291c-0.185-0.089-0.37-0.166-0.56-0.229
		c-0.188-0.063-0.369-0.112-0.544-0.149C96.798,10,96.658,9.981,96.555,9.981c-0.379,0-0.664,0.074-0.857,0.221
		c-0.194,0.147-0.292,0.346-0.292,0.598c0,0.136,0.048,0.268,0.142,0.394c0.096,0.126,0.221,0.247,0.378,0.362
		c0.157,0.116,0.339,0.231,0.543,0.347c0.205,0.115,0.423,0.231,0.653,0.346c0.357,0.189,0.709,0.377,1.055,0.566
		c0.348,0.189,0.656,0.399,0.93,0.63c0.272,0.231,0.49,0.493,0.652,0.787c0.163,0.294,0.244,0.635,0.244,1.023
		c0,0.567-0.111,1.039-0.338,1.417s-0.512,0.677-0.857,0.897c-0.347,0.22-0.725,0.377-1.134,0.472
		c-0.409,0.094-0.793,0.142-1.149,0.142c-0.629,0-1.293-0.124-1.99-0.37c-0.698-0.247-1.356-0.669-1.977-1.267l1.291-1.574
		c0.209,0.21,0.43,0.394,0.661,0.551c0.23,0.158,0.458,0.289,0.685,0.394s0.44,0.187,0.646,0.244
		c0.204,0.058,0.387,0.086,0.543,0.086c0.398,0,0.695-0.086,0.889-0.259c0.194-0.173,0.293-0.386,0.293-0.638
		c0-0.294-0.138-0.525-0.409-0.693c-0.273-0.167-0.63-0.362-1.071-0.583c-0.355-0.178-0.716-0.362-1.078-0.551
		c-0.361-0.189-0.691-0.404-0.99-0.646c-0.301-0.241-0.543-0.52-0.732-0.834C93.095,11.728,93,11.355,93,10.925
		c0-0.514,0.104-0.955,0.314-1.322c0.209-0.367,0.478-0.664,0.804-0.89c0.323-0.226,0.688-0.391,1.094-0.496
		c0.403-0.105,0.8-0.158,1.188-0.158c0.576,0,1.164,0.1,1.763,0.299c0.599,0.199,1.118,0.467,1.56,0.803L98.568,10.705z"/>
</g>
</svg>
