<?xml version="1.0" encoding="utf-8"?>
<!-- Generator: Adobe Illustrator 16.0.0, SVG Export Plug-In . SVG Version: 6.00 Build 0)  -->
<!DOCTYPE svg PUBLIC "-//W3C//DTD SVG 1.1//EN" "http://www.w3.org/Graphics/SVG/1.1/DTD/svg11.dtd">
<svg version="1.1" id="레이어_1" xmlns="http://www.w3.org/2000/svg" xmlns:xlink="http://www.w3.org/1999/xlink" x="0px"
	 y="0px" width="122px" height="40px" viewBox="0 0 122 40" enable-background="new 0 0 122 40" xml:space="preserve">
<g>
	<path fill="#111111" d="M33.224,35.48v-8.195h1.633l1.939,5.803c0.179,0.541,0.31,0.945,0.392,1.213
		c0.093-0.298,0.238-0.736,0.436-1.313l1.962-5.702h1.459v8.194H40v-6.858l-2.382,6.858H36.64l-2.37-6.977v6.977H33.224
		L33.224,35.48z"/>
	<path fill="#111111" d="M42.877,31.488c0-1.359,0.365-2.424,1.096-3.193s1.673-1.154,2.828-1.154c0.757,0,1.438,0.18,2.046,0.541
		c0.607,0.362,1.07,0.866,1.39,1.514c0.318,0.646,0.478,1.38,0.478,2.199c0,0.83-0.168,1.574-0.503,2.23
		c-0.336,0.656-0.811,1.152-1.426,1.488c-0.614,0.338-1.278,0.507-1.99,0.507c-0.771,0-1.461-0.187-2.068-0.56
		s-1.067-0.881-1.38-1.525C43.033,32.891,42.877,32.209,42.877,31.488z M43.995,31.506c0,0.988,0.265,1.766,0.796,2.334
		s1.197,0.854,1.999,0.854c0.815,0,1.487-0.287,2.015-0.86c0.527-0.574,0.791-1.39,0.791-2.442c0-0.668-0.112-1.25-0.338-1.748
		c-0.226-0.496-0.556-0.884-0.989-1.156c-0.435-0.273-0.922-0.41-1.462-0.41c-0.768,0-1.429,0.264-1.981,0.791
		C44.271,29.393,43.995,30.271,43.995,31.506z"/>
	<path fill="#111111" d="M52.154,32.848l1.022-0.09c0.049,0.41,0.161,0.746,0.338,1.01c0.178,0.262,0.452,0.476,0.825,0.637
		c0.372,0.162,0.792,0.244,1.258,0.244c0.413,0,0.778-0.063,1.096-0.186c0.316-0.123,0.552-0.291,0.707-0.506
		c0.154-0.215,0.231-0.447,0.231-0.701c0-0.258-0.074-0.482-0.224-0.674c-0.148-0.191-0.395-0.354-0.737-0.482
		c-0.22-0.086-0.706-0.221-1.459-0.399c-0.753-0.183-1.28-0.353-1.582-0.513c-0.392-0.205-0.684-0.459-0.875-0.764
		c-0.192-0.303-0.288-0.645-0.288-1.02c0-0.414,0.117-0.801,0.353-1.16c0.234-0.359,0.577-0.633,1.028-0.818
		c0.451-0.188,0.952-0.279,1.504-0.279c0.607,0,1.144,0.099,1.607,0.293c0.463,0.195,0.82,0.483,1.07,0.863
		c0.249,0.381,0.384,0.811,0.402,1.291l-1.04,0.078c-0.056-0.518-0.245-0.908-0.567-1.174c-0.322-0.264-0.798-0.396-1.428-0.396
		c-0.656,0-1.134,0.121-1.435,0.36c-0.3,0.241-0.449,0.53-0.449,0.87c0,0.294,0.105,0.536,0.318,0.727
		c0.209,0.189,0.754,0.385,1.635,0.584c0.882,0.199,1.486,0.373,1.814,0.522c0.477,0.22,0.829,0.499,1.057,0.835
		c0.227,0.338,0.341,0.727,0.341,1.166c0,0.436-0.125,0.848-0.375,1.232c-0.249,0.387-0.608,0.686-1.076,0.899
		c-0.468,0.214-0.994,0.321-1.579,0.321c-0.741,0-1.363-0.107-1.864-0.324c-0.501-0.216-0.895-0.541-1.18-0.977
		C52.318,33.887,52.169,33.396,52.154,32.848z"/>
	<path fill="#111111" d="M66.419,32.607l1.084,0.272c-0.228,0.892-0.636,1.57-1.228,2.037c-0.59,0.47-1.313,0.702-2.166,0.702
		c-0.883,0-1.602-0.18-2.154-0.54c-0.554-0.358-0.975-0.88-1.263-1.562c-0.289-0.684-0.434-1.416-0.434-2.197
		c0-0.854,0.163-1.598,0.489-2.233c0.326-0.635,0.79-1.116,1.392-1.446c0.603-0.33,1.266-0.496,1.987-0.496
		c0.819,0,1.51,0.209,2.067,0.627c0.56,0.418,0.949,1.004,1.168,1.762l-1.066,0.251c-0.189-0.597-0.466-1.03-0.827-1.302
		c-0.36-0.273-0.815-0.408-1.364-0.408c-0.629,0-1.155,0.15-1.578,0.451c-0.424,0.303-0.721,0.707-0.893,1.217
		c-0.172,0.509-0.257,1.033-0.257,1.574c0,0.695,0.102,1.305,0.306,1.824c0.202,0.521,0.519,0.907,0.946,1.166
		c0.429,0.256,0.894,0.385,1.392,0.385c0.607,0,1.123-0.174,1.543-0.524C65.984,33.816,66.27,33.297,66.419,32.607z"/>
	<path fill="#111111" d="M68.91,31.488c0-1.359,0.365-2.424,1.096-3.193s1.674-1.154,2.828-1.154c0.757,0,1.438,0.18,2.046,0.541
		c0.606,0.362,1.07,0.866,1.39,1.514c0.318,0.646,0.479,1.38,0.479,2.199c0,0.83-0.168,1.574-0.503,2.23
		c-0.336,0.656-0.812,1.152-1.427,1.488c-0.613,0.338-1.277,0.507-1.989,0.507c-0.771,0-1.461-0.187-2.068-0.56
		c-0.606-0.373-1.067-0.881-1.38-1.525C69.066,32.891,68.91,32.209,68.91,31.488z M70.027,31.506c0,0.988,0.266,1.766,0.797,2.334
		s1.197,0.854,1.999,0.854c0.815,0,1.487-0.287,2.015-0.86c0.527-0.574,0.791-1.39,0.791-2.442c0-0.668-0.111-1.25-0.338-1.748
		c-0.227-0.496-0.557-0.884-0.989-1.156c-0.435-0.273-0.922-0.41-1.462-0.41c-0.768,0-1.429,0.264-1.98,0.791
		C70.305,29.393,70.027,30.271,70.027,31.506z"/>
	<path fill="#111111" d="M79.633,35.48l-2.175-8.195h1.112l1.246,5.373c0.135,0.563,0.25,1.121,0.348,1.676
		c0.208-0.875,0.331-1.381,0.368-1.514l1.561-5.535H83.4l1.174,4.148c0.294,1.027,0.507,1.994,0.638,2.899
		c0.104-0.519,0.24-1.11,0.407-1.783l1.286-5.266h1.09l-2.247,8.194h-1.045l-1.729-6.244c-0.146-0.521-0.23-0.842-0.257-0.961
		c-0.086,0.377-0.166,0.697-0.241,0.961l-1.737,6.244h-1.106V35.48z"/>
</g>
<g>
	<path fill="#111111" d="M56.213,7.199c-0.188-0.136-0.409-0.268-0.661-0.394c-0.252-0.126-0.509-0.241-0.771-0.347
		c-0.262-0.104-0.521-0.188-0.771-0.251s-0.467-0.095-0.645-0.095c-0.641,0-1.115,0.158-1.425,0.472
		c-0.31,0.315-0.465,0.714-0.465,1.197c0,0.283,0.103,0.533,0.308,0.748c0.204,0.215,0.45,0.409,0.739,0.583
		c0.289,0.173,0.588,0.325,0.897,0.457c0.309,0.132,0.574,0.244,0.795,0.338c0.577,0.262,1.094,0.522,1.551,0.779
		c0.456,0.257,0.837,0.533,1.141,0.826c0.305,0.294,0.538,0.625,0.701,0.992c0.162,0.368,0.244,0.792,0.244,1.275
		c0,0.734-0.147,1.346-0.441,1.833c-0.294,0.488-0.669,0.879-1.125,1.173c-0.457,0.294-0.963,0.504-1.52,0.63
		s-1.092,0.189-1.605,0.189c-0.818,0-1.643-0.16-2.472-0.48s-1.658-0.858-2.487-1.613l1.48-1.559c0.22,0.21,0.472,0.412,0.755,0.606
		c0.283,0.194,0.572,0.365,0.866,0.512c0.294,0.147,0.582,0.263,0.865,0.346c0.284,0.084,0.536,0.126,0.756,0.126
		c0.263,0,0.532-0.026,0.811-0.079c0.278-0.052,0.527-0.147,0.748-0.283c0.221-0.136,0.401-0.317,0.543-0.543
		c0.142-0.226,0.213-0.512,0.213-0.858c0-0.367-0.189-0.708-0.567-1.023c-0.377-0.315-0.902-0.624-1.574-0.929
		c-0.482-0.22-0.973-0.446-1.472-0.677c-0.498-0.231-0.952-0.499-1.361-0.803c-0.409-0.304-0.742-0.658-1-1.063
		c-0.257-0.404-0.386-0.889-0.386-1.456c0-0.682,0.134-1.259,0.402-1.731c0.268-0.472,0.608-0.853,1.022-1.141
		c0.415-0.289,0.879-0.496,1.394-0.622c0.514-0.126,1.023-0.189,1.526-0.189c0.798,0,1.548,0.139,2.252,0.417
		c0.702,0.278,1.354,0.632,1.951,1.063L56.213,7.199z"/>
	<path fill="#111111" d="M59.912,4.003h2.881v2.503h-2.881V4.003z M60.148,7.891h2.424v9.54h-2.424V7.891z"/>
	<path fill="#111111" d="M67.973,9.104c0.262-0.451,0.629-0.811,1.102-1.079s0.945-0.401,1.417-0.401
		c0.524,0,1.008,0.079,1.448,0.236c0.439,0.157,0.82,0.391,1.142,0.7c0.319,0.31,0.569,0.693,0.747,1.149
		c0.179,0.457,0.268,0.984,0.268,1.582v6.139h-2.408v-5.966c0-0.314-0.047-0.595-0.142-0.842S71.33,10.168,71.184,10
		c-0.146-0.167-0.32-0.293-0.521-0.377s-0.397-0.126-0.599-0.126c-0.324,0-0.616,0.061-0.873,0.181
		c-0.258,0.121-0.479,0.286-0.661,0.496s-0.322,0.459-0.417,0.748c-0.096,0.289-0.143,0.601-0.143,0.937v5.573h-2.438v-9.54h2.438
		v1.212H67.973z"/>
</g>
</svg>
