<?xml version="1.0" encoding="utf-8"?>
<!-- Generator: Adobe Illustrator 16.0.0, SVG Export Plug-In . SVG Version: 6.00 Build 0)  -->
<!DOCTYPE svg PUBLIC "-//W3C//DTD SVG 1.1//EN" "http://www.w3.org/Graphics/SVG/1.1/DTD/svg11.dtd">
<svg version="1.1" id="레이어_1" xmlns="http://www.w3.org/2000/svg" xmlns:xlink="http://www.w3.org/1999/xlink" x="0px"
	 y="0px" width="122px" height="40px" viewBox="0 0 122 40" enable-background="new 0 0 122 40" xml:space="preserve">
<g>
	<path fill="#111111" d="M48.622,36.717v-8.193h1.084v4.063l4.069-4.063h1.471l-3.438,3.32l3.589,4.873h-1.431l-2.918-4.146
		l-1.342,1.308v2.841h-1.084V36.717z"/>
	<path fill="#111111" d="M56.898,36.717v-8.193h1.085v8.193H56.898z"/>
	<path fill="#111111" d="M60.318,36.717v-8.193h5.926v0.967h-4.841V32h4.533v0.962h-4.533v2.789h5.031v0.968h-6.116V36.717z"/>
	<path fill="#111111" d="M70.688,36.717l-3.176-8.193h1.174l2.131,5.953c0.17,0.478,0.313,0.924,0.43,1.342
		c0.127-0.447,0.273-0.896,0.441-1.342l2.213-5.953h1.107l-3.209,8.193H70.688z"/>
</g>
<g>
	<path fill="#111111" d="M31.153,4.156c0.651,0,1.26,0.105,1.826,0.315c0.567,0.21,1.063,0.499,1.488,0.866
		c0.425,0.368,0.758,0.809,0.999,1.322c0.241,0.515,0.362,1.071,0.362,1.669c0,0.629-0.123,1.207-0.37,1.731
		c-0.246,0.525-0.58,0.974-0.999,1.346c-0.42,0.373-0.916,0.662-1.488,0.866c-0.572,0.204-1.178,0.307-1.818,0.307h-2.219v4.66
		H26.51V4.156H31.153z M28.935,6.061v4.581h2.251c0.293,0,0.569-0.055,0.826-0.166c0.257-0.11,0.48-0.268,0.669-0.472
		s0.336-0.449,0.44-0.732c0.105-0.283,0.158-0.598,0.158-0.944c0-0.346-0.053-0.659-0.158-0.937
		c-0.104-0.278-0.252-0.517-0.44-0.716c-0.188-0.199-0.412-0.352-0.669-0.457c-0.257-0.105-0.533-0.158-0.826-0.158L28.935,6.061
		L28.935,6.061z"/>
	<path fill="#111111" d="M38.144,3.81h2.424v13.428h-2.424V3.81z"/>
	<path fill="#111111" d="M51.476,16.183c-0.525,0.462-1.092,0.792-1.7,0.992c-0.608,0.2-1.302,0.304-2.078,0.315
		c-0.724,0-1.385-0.104-1.983-0.315c-0.598-0.21-1.109-0.525-1.535-0.944c-0.425-0.42-0.753-0.934-0.983-1.543
		c-0.23-0.608-0.347-1.307-0.347-2.093c0-0.777,0.107-1.48,0.323-2.109c0.215-0.63,0.521-1.165,0.921-1.606
		c0.398-0.441,0.884-0.782,1.456-1.023c0.571-0.242,1.22-0.362,1.944-0.362c0.702,0,1.327,0.124,1.873,0.37
		c0.545,0.247,1.005,0.588,1.377,1.023c0.373,0.436,0.656,0.945,0.851,1.527c0.193,0.583,0.285,1.21,0.275,1.881
		c0,0.137-0.008,0.299-0.023,0.488c-0.016,0.189-0.034,0.357-0.056,0.504h-6.485c0.042,0.462,0.146,0.842,0.314,1.141
		c0.168,0.299,0.37,0.535,0.606,0.708c0.236,0.173,0.49,0.297,0.764,0.37c0.272,0.073,0.54,0.11,0.803,0.11
		c0.21,0,0.433-0.016,0.669-0.047c0.236-0.032,0.47-0.084,0.7-0.158c0.231-0.073,0.449-0.17,0.653-0.291
		c0.205-0.121,0.381-0.265,0.527-0.433L51.476,16.183z M49.523,11.46c-0.011-0.304-0.073-0.587-0.188-0.85
		c-0.116-0.262-0.271-0.49-0.465-0.685c-0.194-0.194-0.417-0.346-0.669-0.457c-0.252-0.111-0.509-0.165-0.771-0.165
		c-0.252,0-0.501,0.055-0.748,0.165c-0.246,0.11-0.47,0.263-0.669,0.457c-0.199,0.194-0.361,0.422-0.487,0.685
		c-0.126,0.263-0.194,0.546-0.205,0.85H49.523z"/>
	<path fill="#111111" d="M53.837,8.407c0.734-0.43,1.448-0.706,2.142-0.827c0.692-0.12,1.316-0.17,1.873-0.149
		c0.524,0.021,1.015,0.105,1.472,0.252c0.456,0.147,0.855,0.359,1.196,0.638c0.341,0.278,0.608,0.617,0.803,1.015
		c0.194,0.399,0.291,0.866,0.291,1.401v4.25c0,0.231,0.014,0.514,0.04,0.85c0.025,0.336,0.128,0.803,0.307,1.401h-2.739
		l-0.016-0.992c-0.157,0.22-0.339,0.407-0.543,0.559c-0.205,0.152-0.423,0.281-0.653,0.386c-0.231,0.105-0.462,0.181-0.692,0.229
		c-0.231,0.047-0.451,0.071-0.661,0.071c-0.462,0-0.911-0.068-1.347-0.205c-0.436-0.137-0.82-0.336-1.156-0.598
		c-0.336-0.263-0.606-0.59-0.811-0.984c-0.205-0.394-0.308-0.853-0.308-1.377c0-0.651,0.123-1.22,0.37-1.708
		c0.246-0.488,0.619-0.879,1.118-1.173c0.498-0.293,1.13-0.49,1.896-0.59s1.669-0.086,2.707,0.04
		c0.011-0.409-0.109-0.75-0.361-1.023c-0.252-0.272-0.567-0.457-0.944-0.551c-0.231-0.052-0.483-0.073-0.756-0.063
		c-0.273,0.011-0.546,0.047-0.818,0.11c-0.273,0.063-0.541,0.142-0.803,0.236c-0.263,0.095-0.494,0.2-0.693,0.315L53.837,8.407z
		 M56.923,15.727c0.262,0,0.524-0.052,0.787-0.157c0.262-0.105,0.498-0.247,0.708-0.425c0.21-0.178,0.383-0.391,0.52-0.637
		c0.137-0.246,0.205-0.506,0.205-0.779v-1.196c-1.322-0.179-2.296-0.126-2.921,0.157c-0.624,0.283-0.937,0.724-0.937,1.322
		c0,0.619,0.158,1.06,0.473,1.322C56.072,15.596,56.461,15.727,56.923,15.727z"/>
	<path fill="#111111" d="M69.391,10.012c-0.146-0.104-0.313-0.202-0.496-0.291c-0.185-0.089-0.369-0.166-0.56-0.229
		c-0.188-0.063-0.369-0.112-0.543-0.149c-0.173-0.037-0.313-0.055-0.417-0.055c-0.378,0-0.664,0.074-0.857,0.221
		s-0.291,0.346-0.291,0.598c0,0.136,0.047,0.268,0.142,0.394s0.221,0.247,0.378,0.362c0.156,0.116,0.339,0.231,0.543,0.347
		c0.205,0.115,0.423,0.231,0.652,0.346c0.357,0.189,0.709,0.377,1.056,0.566s0.655,0.399,0.929,0.63s0.491,0.493,0.653,0.787
		c0.163,0.294,0.244,0.635,0.244,1.023c0,0.567-0.112,1.039-0.339,1.417s-0.512,0.677-0.857,0.897s-0.725,0.377-1.133,0.472
		c-0.41,0.094-0.793,0.142-1.149,0.142c-0.63,0-1.294-0.124-1.991-0.37c-0.697-0.247-1.355-0.669-1.976-1.267l1.29-1.574
		c0.21,0.21,0.432,0.394,0.662,0.551c0.23,0.158,0.458,0.289,0.686,0.394c0.226,0.105,0.439,0.187,0.646,0.244
		c0.204,0.058,0.386,0.086,0.543,0.086c0.397,0,0.694-0.086,0.889-0.259c0.194-0.173,0.292-0.386,0.292-0.638
		c0-0.294-0.137-0.525-0.408-0.693c-0.273-0.167-0.631-0.362-1.071-0.583c-0.356-0.178-0.716-0.362-1.078-0.551
		c-0.361-0.189-0.692-0.404-0.991-0.646c-0.3-0.241-0.543-0.52-0.732-0.834c-0.188-0.315-0.283-0.688-0.283-1.118
		c0-0.514,0.104-0.955,0.314-1.322c0.21-0.367,0.479-0.664,0.805-0.89c0.324-0.226,0.688-0.391,1.094-0.496
		c0.402-0.105,0.8-0.158,1.188-0.158c0.577,0,1.165,0.1,1.764,0.299c0.599,0.199,1.117,0.467,1.559,0.803L69.391,10.012z"/>
	<path fill="#111111" d="M78.852,16.026c-0.127,0.23-0.287,0.438-0.48,0.622c-0.194,0.184-0.401,0.338-0.622,0.464
		c-0.22,0.126-0.454,0.223-0.7,0.292c-0.247,0.068-0.484,0.102-0.716,0.102c-0.524,0-1.008-0.079-1.448-0.236
		c-0.441-0.157-0.82-0.391-1.142-0.7c-0.321-0.309-0.569-0.693-0.748-1.149s-0.269-0.984-0.269-1.582V7.698h2.409v5.966
		c0,0.315,0.048,0.596,0.142,0.842c0.095,0.247,0.216,0.454,0.361,0.622c0.147,0.168,0.317,0.294,0.512,0.378
		c0.195,0.084,0.396,0.126,0.606,0.126c0.325,0,0.616-0.061,0.874-0.181c0.258-0.121,0.477-0.286,0.661-0.496
		c0.183-0.209,0.322-0.459,0.417-0.748c0.094-0.289,0.143-0.601,0.143-0.937V7.698h2.438v9.54h-2.438V16.026z"/>
	<path fill="#111111" d="M86.518,9.146c0.156-0.272,0.363-0.524,0.621-0.755s0.543-0.425,0.857-0.583
		c0.314-0.157,0.646-0.268,0.992-0.331s0.691-0.058,1.039,0.016V9.54c-0.368-0.063-0.756-0.063-1.166,0
		c-0.408,0.063-0.786,0.187-1.133,0.37c-0.348,0.183-0.636,0.433-0.865,0.748c-0.231,0.315-0.348,0.698-0.348,1.149v5.431h-2.424
		v-9.54h2.424v1.448H86.518z"/>
	<path fill="#111111" d="M98.182,16.183c-0.525,0.462-1.093,0.792-1.701,0.992c-0.607,0.2-1.301,0.304-2.078,0.315
		c-0.723,0-1.385-0.104-1.982-0.315c-0.598-0.21-1.109-0.525-1.535-0.944c-0.425-0.42-0.753-0.934-0.982-1.543
		c-0.23-0.608-0.348-1.307-0.348-2.093c0-0.777,0.107-1.48,0.323-2.109c0.215-0.63,0.521-1.165,0.921-1.606
		c0.398-0.441,0.885-0.782,1.456-1.023c0.571-0.242,1.22-0.362,1.944-0.362c0.701,0,1.326,0.124,1.873,0.37
		c0.545,0.247,1.005,0.588,1.377,1.023c0.373,0.436,0.656,0.945,0.851,1.527c0.193,0.583,0.285,1.21,0.275,1.881
		c0,0.137-0.009,0.299-0.023,0.488c-0.016,0.189-0.034,0.357-0.056,0.504H92.01c0.042,0.462,0.146,0.842,0.314,1.141
		c0.168,0.299,0.369,0.535,0.605,0.708c0.236,0.173,0.49,0.297,0.764,0.37c0.272,0.073,0.541,0.11,0.804,0.11
		c0.21,0,0.433-0.016,0.669-0.047c0.236-0.032,0.47-0.084,0.7-0.158c0.231-0.073,0.448-0.17,0.653-0.291s0.381-0.265,0.526-0.433
		L98.182,16.183z M96.229,11.46c-0.011-0.304-0.072-0.587-0.188-0.85c-0.116-0.262-0.271-0.49-0.465-0.685
		c-0.194-0.194-0.417-0.346-0.669-0.457c-0.252-0.111-0.509-0.165-0.771-0.165c-0.252,0-0.501,0.055-0.747,0.165
		c-0.246,0.11-0.471,0.263-0.67,0.457c-0.199,0.194-0.361,0.422-0.486,0.685c-0.127,0.263-0.194,0.546-0.205,0.85H96.229z"/>
</g>
</svg>
