<?xml version="1.0" encoding="utf-8"?>
<!-- Generator: Adobe Illustrator 16.0.0, SVG Export Plug-In . SVG Version: 6.00 Build 0)  -->
<!DOCTYPE svg PUBLIC "-//W3C//DTD SVG 1.1//EN" "http://www.w3.org/Graphics/SVG/1.1/DTD/svg11.dtd">
<svg version="1.1" id="레이어_1" xmlns="http://www.w3.org/2000/svg" xmlns:xlink="http://www.w3.org/1999/xlink" x="0px"
	 y="0px" width="122px" height="40px" viewBox="0 0 122 40" enable-background="new 0 0 122 40" xml:space="preserve">
<g>
	<path fill="#111111" d="M37.335,33.395l3.147-8.194h1.168l3.354,8.194h-1.235l-0.955-2.481h-3.427l-0.9,2.481H37.335z
		 M39.699,30.029h2.778l-0.855-2.271c-0.261-0.688-0.454-1.256-0.581-1.698c-0.104,0.524-0.252,1.047-0.441,1.564L39.699,30.029z"/>
	<path fill="#111111" d="M47.338,33.395v-7.228h-2.7v-0.968h6.495v0.968h-2.711v7.228H47.338z"/>
	<path fill="#111111" d="M52.691,33.395V25.2h1.084v3.364h4.26V25.2h1.085v8.194h-1.085v-3.861h-4.26v3.861H52.691z"/>
	<path fill="#111111" d="M61.349,33.395V25.2h5.926v0.968h-4.842v2.51h4.533v0.961h-4.533v2.791h5.031v0.967h-6.116V33.395z"/>
	<path fill="#111111" d="M69.363,33.395V25.2h1.111l4.306,6.435V25.2h1.038v8.194h-1.111l-4.305-6.438v6.438H69.363z"/>
	<path fill="#111111" d="M77.675,30.762l1.022-0.09c0.049,0.41,0.16,0.746,0.338,1.01s0.451,0.475,0.824,0.637
		s0.793,0.244,1.259,0.244c0.413,0,0.778-0.063,1.096-0.186c0.316-0.123,0.552-0.291,0.707-0.506
		c0.154-0.215,0.231-0.448,0.231-0.701c0-0.258-0.074-0.48-0.225-0.674c-0.147-0.191-0.395-0.354-0.736-0.482
		c-0.221-0.086-0.707-0.22-1.459-0.4c-0.754-0.182-1.28-0.352-1.582-0.512c-0.393-0.205-0.685-0.459-0.875-0.764
		c-0.192-0.304-0.289-0.645-0.289-1.02c0-0.414,0.117-0.801,0.354-1.16c0.234-0.359,0.577-0.633,1.028-0.819
		c0.45-0.187,0.952-0.278,1.504-0.278c0.606,0,1.144,0.098,1.606,0.293c0.465,0.195,0.82,0.483,1.07,0.863
		c0.249,0.381,0.385,0.811,0.402,1.291l-1.04,0.079c-0.056-0.519-0.245-0.909-0.567-1.175c-0.322-0.264-0.798-0.396-1.428-0.396
		c-0.656,0-1.134,0.121-1.436,0.36c-0.299,0.24-0.448,0.53-0.448,0.869c0,0.295,0.104,0.536,0.317,0.728
		c0.209,0.189,0.754,0.385,1.635,0.584c0.883,0.199,1.486,0.373,1.814,0.522c0.477,0.22,0.829,0.498,1.057,0.836
		c0.228,0.337,0.342,0.726,0.342,1.165c0,0.438-0.125,0.848-0.375,1.232c-0.249,0.385-0.608,0.687-1.076,0.899
		c-0.469,0.213-0.994,0.321-1.579,0.321c-0.741,0-1.362-0.108-1.864-0.324c-0.501-0.216-0.895-0.541-1.18-0.977
		C77.839,31.801,77.689,31.311,77.675,30.762z"/>
</g>
<g>
	<path fill="#111111" d="M33.147,17.657h-9.036V4.576h8.847V6.48h-6.422v3.447h6.123v1.905h-6.123v3.903h6.611V17.657z"/>
	<path fill="#111111" d="M37.603,9.251c0.095-0.252,0.23-0.464,0.409-0.638c0.178-0.173,0.37-0.314,0.574-0.425
		c0.205-0.11,0.415-0.191,0.63-0.244c0.215-0.052,0.401-0.078,0.559-0.078c0.535,0,1.013,0.139,1.433,0.417
		c0.42,0.278,0.761,0.648,1.023,1.109c0.304-0.504,0.689-0.884,1.157-1.141c0.467-0.258,0.926-0.386,1.377-0.386
		c0.504,0,0.966,0.07,1.386,0.212c0.419,0.142,0.776,0.354,1.07,0.638c0.294,0.284,0.521,0.635,0.685,1.055
		c0.162,0.42,0.244,0.913,0.244,1.479v6.407h-2.408v-6.454c0-0.409-0.132-0.75-0.394-1.023C45.085,9.907,44.76,9.77,44.371,9.77
		c-0.188,0-0.372,0.031-0.551,0.095c-0.179,0.063-0.339,0.16-0.48,0.291c-0.142,0.132-0.254,0.302-0.338,0.512
		s-0.126,0.462-0.126,0.756v6.233h-2.361v-6.313c0-0.514-0.142-0.907-0.425-1.181c-0.283-0.272-0.609-0.409-0.977-0.409
		c-0.168,0-0.341,0.037-0.52,0.11c-0.179,0.073-0.341,0.188-0.487,0.338c-0.147,0.152-0.268,0.339-0.362,0.56
		c-0.095,0.22-0.142,0.478-0.142,0.771v6.123H35.21V8.118h2.393V9.251z"/>
	<path fill="#111111" d="M55.909,7.882c0.683,0,1.278,0.118,1.787,0.354c0.509,0.235,0.934,0.571,1.275,1.007
		c0.341,0.436,0.595,0.96,0.763,1.574c0.168,0.614,0.252,1.299,0.252,2.055c0,1.595-0.336,2.807-1.007,3.636
		c-0.672,0.829-1.695,1.244-3.07,1.244c-0.629,0-1.148-0.121-1.558-0.362c-0.41-0.241-0.74-0.557-0.992-0.944v4.88h-2.424V8.118
		h2.424v1.181c0.272-0.441,0.616-0.787,1.031-1.039C54.805,8.008,55.312,7.882,55.909,7.882z M55.469,9.708
		c-0.566,0-1.047,0.212-1.44,0.638c-0.394,0.425-0.616,1.099-0.669,2.022v0.944c0.031,0.378,0.097,0.729,0.197,1.055
		c0.1,0.325,0.235,0.606,0.409,0.842c0.173,0.236,0.383,0.42,0.629,0.552c0.247,0.131,0.538,0.196,0.874,0.196
		c0.367,0,0.682-0.092,0.944-0.275c0.262-0.183,0.48-0.425,0.653-0.724c0.173-0.3,0.302-0.633,0.386-1s0.126-0.74,0.126-1.118
		c0-0.398-0.037-0.787-0.11-1.164c-0.073-0.378-0.194-0.711-0.362-1c-0.168-0.288-0.385-0.521-0.652-0.7
		C56.185,9.797,55.856,9.708,55.469,9.708z"/>
	<path fill="#111111" d="M62.143,8.826C62.877,8.396,63.591,8.12,64.284,8c0.692-0.121,1.315-0.171,1.873-0.149
		c0.524,0.021,1.015,0.104,1.472,0.251c0.456,0.147,0.855,0.36,1.196,0.638c0.341,0.278,0.608,0.617,0.803,1.016
		s0.291,0.866,0.291,1.401v4.25c0,0.23,0.015,0.515,0.04,0.85c0.025,0.336,0.128,0.803,0.307,1.401h-2.738l-0.017-0.992
		c-0.157,0.221-0.339,0.407-0.543,0.56c-0.204,0.151-0.423,0.28-0.653,0.386c-0.23,0.104-0.461,0.181-0.691,0.228
		c-0.23,0.048-0.451,0.071-0.661,0.071c-0.462,0-0.911-0.068-1.347-0.205c-0.436-0.136-0.82-0.336-1.156-0.598
		c-0.336-0.263-0.605-0.591-0.811-0.984c-0.206-0.394-0.309-0.853-0.309-1.377c0-0.65,0.123-1.22,0.37-1.708
		c0.246-0.488,0.619-0.879,1.118-1.173c0.498-0.294,1.13-0.49,1.896-0.59c0.766-0.1,1.668-0.087,2.707,0.039
		c0.01-0.409-0.109-0.75-0.361-1.023c-0.252-0.272-0.567-0.456-0.944-0.551c-0.231-0.053-0.483-0.073-0.756-0.063
		c-0.272,0.011-0.546,0.048-0.818,0.11c-0.272,0.063-0.541,0.142-0.803,0.236c-0.263,0.095-0.494,0.199-0.692,0.314L62.143,8.826z
		 M65.229,16.146c0.263,0,0.524-0.053,0.787-0.158c0.262-0.104,0.498-0.246,0.709-0.425c0.209-0.178,0.383-0.391,0.52-0.638
		c0.137-0.246,0.205-0.506,0.205-0.779V12.95c-1.322-0.178-2.297-0.126-2.922,0.157c-0.623,0.284-0.937,0.725-0.937,1.323
		c0,0.619,0.158,1.06,0.474,1.322C64.378,16.015,64.768,16.146,65.229,16.146z"/>
	<path fill="#111111" d="M73.036,5.851l2.44-0.771v3.021h2.188v1.89h-2.188v4.564c0,0.294,0.061,0.53,0.181,0.709
		c0.12,0.179,0.28,0.317,0.479,0.417c0.199,0.1,0.426,0.168,0.678,0.205c0.252,0.036,0.509,0.055,0.771,0.055v1.937
		c-0.661,0.073-1.272,0.065-1.834-0.024s-1.042-0.265-1.44-0.527c-0.397-0.262-0.711-0.605-0.937-1.03
		c-0.226-0.426-0.339-0.937-0.339-1.535v-4.77H71.54v-1.89h1.495L73.036,5.851L73.036,5.851z"/>
	<path fill="#111111" d="M81.962,9.33c0.263-0.451,0.63-0.811,1.103-1.078c0.473-0.268,0.944-0.401,1.416-0.401
		c0.524,0,1.009,0.078,1.449,0.235c0.439,0.158,0.82,0.392,1.141,0.701c0.32,0.31,0.57,0.692,0.748,1.148
		c0.179,0.457,0.268,0.984,0.268,1.582v6.14h-2.408v-5.966c0-0.315-0.047-0.596-0.142-0.843c-0.095-0.246-0.216-0.453-0.362-0.621
		s-0.32-0.294-0.52-0.378c-0.2-0.084-0.398-0.126-0.598-0.126c-0.326,0-0.617,0.061-0.875,0.181
		c-0.257,0.121-0.478,0.286-0.66,0.496c-0.184,0.21-0.322,0.459-0.418,0.748c-0.095,0.288-0.142,0.601-0.142,0.937v5.572h-2.438
		V4.229h2.438V9.33z"/>
	<path fill="#111111" d="M90.021,19.216c0.44-0.105,0.832-0.226,1.172-0.362c0.342-0.136,0.639-0.299,0.891-0.488
		c0.252-0.188,0.465-0.411,0.639-0.669c0.172-0.257,0.316-0.554,0.433-0.889l-3.4-8.689h2.565l2.063,5.824l2.047-5.824h2.551
		l-3.086,8.374c-0.179,0.504-0.367,0.947-0.565,1.33c-0.2,0.383-0.42,0.764-0.661,1.142c-0.252,0.378-0.533,0.695-0.843,0.952
		s-0.636,0.47-0.976,0.638c-0.343,0.168-0.69,0.305-1.048,0.409c-0.356,0.104-0.709,0.205-1.055,0.3L90.021,19.216z"/>
</g>
</svg>
