<?xml version="1.0" encoding="utf-8"?>
<!-- Generator: Adobe Illustrator 16.0.0, SVG Export Plug-In . SVG Version: 6.00 Build 0)  -->
<!DOCTYPE svg PUBLIC "-//W3C//DTD SVG 1.1//EN" "http://www.w3.org/Graphics/SVG/1.1/DTD/svg11.dtd">
<svg version="1.1" id="레이어_1" xmlns="http://www.w3.org/2000/svg" xmlns:xlink="http://www.w3.org/1999/xlink" x="0px"
	 y="0px" width="122px" height="40px" viewBox="0 0 122 40" enable-background="new 0 0 122 40" xml:space="preserve">
<g>
	<path fill="#111111" d="M49.449,32.695l1.084,0.273c-0.227,0.891-0.636,1.569-1.227,2.037c-0.591,0.469-1.313,0.701-2.166,0.701
		c-0.884,0-1.602-0.18-2.155-0.539c-0.554-0.359-0.975-0.881-1.263-1.563c-0.289-0.684-0.434-1.414-0.434-2.197
		c0-0.854,0.163-1.598,0.489-2.233c0.326-0.635,0.79-1.118,1.392-1.446c0.602-0.33,1.265-0.496,1.987-0.496
		c0.82,0,1.51,0.209,2.068,0.627c0.559,0.418,0.948,1.004,1.168,1.761l-1.067,0.252c-0.19-0.597-0.466-1.03-0.827-1.304
		c-0.361-0.271-0.816-0.407-1.364-0.407c-0.63,0-1.156,0.151-1.579,0.452c-0.423,0.303-0.72,0.707-0.892,1.217
		c-0.172,0.509-0.257,1.033-0.257,1.572c0,0.697,0.102,1.307,0.305,1.826c0.203,0.521,0.519,0.908,0.947,1.166
		c0.428,0.256,0.893,0.385,1.392,0.385c0.607,0,1.122-0.174,1.543-0.524C49.014,33.904,49.3,33.385,49.449,32.695z"/>
	<path fill="#111111" d="M51.21,35.568l3.147-8.195h1.168l3.354,8.195h-1.235l-0.955-2.482h-3.427l-0.9,2.482H51.21z M53.574,32.203
		h2.778l-0.855-2.27c-0.261-0.689-0.454-1.256-0.581-1.699c-0.104,0.524-0.252,1.047-0.441,1.564L53.574,32.203z"/>
	<path fill="#111111" d="M60.331,35.568v-8.195h1.085v8.195H60.331z"/>
	<path fill="#111111" d="M63.757,35.568v-8.195h3.634c0.729,0,1.285,0.074,1.666,0.221c0.379,0.147,0.684,0.407,0.91,0.78
		s0.342,0.784,0.342,1.235c0,0.58-0.188,1.07-0.564,1.47S68.786,31.73,68,31.84c0.287,0.139,0.505,0.273,0.654,0.408
		c0.315,0.29,0.617,0.654,0.9,1.09l1.424,2.23h-1.362l-1.085-1.705c-0.316-0.492-0.577-0.868-0.782-1.129
		c-0.205-0.262-0.39-0.443-0.551-0.549c-0.162-0.104-0.327-0.177-0.495-0.217c-0.123-0.027-0.324-0.039-0.604-0.039h-1.259v3.639
		H63.757z M64.841,30.99h2.331c0.496,0,0.885-0.053,1.163-0.154c0.279-0.102,0.491-0.266,0.638-0.49
		c0.146-0.226,0.219-0.472,0.219-0.736c0-0.387-0.143-0.705-0.424-0.955s-0.726-0.375-1.332-0.375h-2.595V30.99z"/>
	<path fill="#111111" d="M72.079,31.577c0-1.36,0.364-2.425,1.096-3.195c0.73-0.769,1.673-1.153,2.828-1.153
		c0.757,0,1.438,0.182,2.046,0.543c0.608,0.36,1.07,0.865,1.391,1.512c0.317,0.646,0.478,1.38,0.478,2.199
		c0,0.832-0.168,1.574-0.503,2.23c-0.336,0.655-0.811,1.152-1.426,1.489c-0.614,0.337-1.278,0.506-1.99,0.506
		c-0.771,0-1.461-0.187-2.068-0.56c-0.606-0.373-1.066-0.881-1.38-1.525C72.234,32.979,72.079,32.296,72.079,31.577z M73.197,31.594
		c0,0.987,0.265,1.766,0.796,2.334c0.53,0.568,1.196,0.854,1.999,0.854c0.814,0,1.486-0.287,2.015-0.861
		c0.527-0.572,0.791-1.389,0.791-2.441c0-0.668-0.112-1.25-0.338-1.748c-0.226-0.496-0.556-0.883-0.989-1.156
		c-0.435-0.273-0.922-0.411-1.462-0.411c-0.768,0-1.429,0.265-1.981,0.791C73.475,29.479,73.197,30.359,73.197,31.594z"/>
</g>
<g>
	<path fill="#111111" d="M51.044,7.882c0,0.514-0.104,1.007-0.314,1.479c-0.21,0.472-0.551,0.876-1.023,1.212
		c0.283,0.189,0.546,0.412,0.787,0.669c0.241,0.258,0.448,0.527,0.622,0.811c0.173,0.284,0.307,0.58,0.401,0.89
		c0.094,0.31,0.136,0.611,0.126,0.905c-0.021,0.535-0.124,1.036-0.308,1.504c-0.184,0.467-0.464,0.871-0.842,1.212
		s-0.86,0.608-1.448,0.803c-0.588,0.195-1.291,0.291-2.109,0.291h-4.975V4.576h4.849c0.556,0,1.089,0.063,1.598,0.188
		c0.509,0.125,0.96,0.323,1.354,0.591s0.706,0.611,0.938,1.03C50.929,6.806,51.044,7.305,51.044,7.882z M44.386,6.48v3.338h2.581
		c0.557,0,0.966-0.155,1.229-0.465c0.262-0.31,0.394-0.748,0.394-1.314c0-0.514-0.158-0.902-0.473-1.165
		c-0.314-0.262-0.719-0.394-1.212-0.394H44.386z M46.982,15.736c0.714,0,1.257-0.175,1.63-0.527
		c0.372-0.351,0.559-0.857,0.559-1.519c0-0.577-0.199-1.05-0.599-1.417c-0.398-0.367-0.918-0.551-1.558-0.551h-2.629v4.014H46.982z"
		/>
	<path fill="#111111" d="M53.657,4.229h2.881v2.503h-2.881V4.229z M53.894,8.118h2.424v9.539h-2.424V8.118z"/>
	<path fill="#111111" d="M61.701,9.566c0.156-0.273,0.363-0.525,0.622-0.756c0.257-0.23,0.543-0.425,0.856-0.583
		c0.315-0.157,0.646-0.268,0.992-0.33c0.346-0.063,0.692-0.058,1.039,0.016V9.96c-0.368-0.063-0.756-0.063-1.165,0
		s-0.787,0.187-1.134,0.369c-0.348,0.185-0.635,0.434-0.865,0.748S61.7,11.775,61.7,12.226v5.431h-2.424V8.118H61.7L61.701,9.566
		L61.701,9.566z"/>
	<path fill="#111111" d="M66.25,5.851l2.439-0.771v3.021h2.188v1.89h-2.188v4.564c0,0.294,0.062,0.53,0.182,0.709
		c0.121,0.179,0.281,0.317,0.48,0.417c0.198,0.1,0.424,0.168,0.676,0.205c0.253,0.036,0.51,0.055,0.771,0.055v1.937
		c-0.66,0.073-1.271,0.065-1.834-0.024s-1.042-0.265-1.439-0.527c-0.398-0.262-0.711-0.605-0.938-1.03
		c-0.227-0.426-0.339-0.937-0.339-1.535v-4.77h-1.495v-1.89h1.495L66.25,5.851L66.25,5.851z"/>
	<path fill="#111111" d="M75.176,9.33c0.264-0.451,0.631-0.811,1.102-1.078c0.474-0.268,0.945-0.401,1.418-0.401
		c0.523,0,1.008,0.078,1.447,0.235c0.44,0.158,0.821,0.392,1.143,0.701c0.318,0.31,0.568,0.692,0.747,1.148
		c0.179,0.457,0.268,0.984,0.268,1.582v6.14h-2.407v-5.966c0-0.315-0.048-0.596-0.143-0.843c-0.095-0.246-0.215-0.453-0.361-0.621
		s-0.32-0.294-0.521-0.378S77.47,9.723,77.27,9.723c-0.324,0-0.617,0.061-0.873,0.181c-0.258,0.121-0.479,0.286-0.662,0.496
		c-0.183,0.21-0.321,0.459-0.416,0.748c-0.096,0.288-0.143,0.601-0.143,0.937v5.572h-2.439V4.229h2.439V9.33z"/>
</g>
</svg>
