<?xml version="1.0" encoding="utf-8"?>
<!-- Generator: Adobe Illustrator 16.0.0, SVG Export Plug-In . SVG Version: 6.00 Build 0)  -->
<!DOCTYPE svg PUBLIC "-//W3C//DTD SVG 1.1//EN" "http://www.w3.org/Graphics/SVG/1.1/DTD/svg11.dtd">
<svg version="1.1" id="레이어_1" xmlns="http://www.w3.org/2000/svg" xmlns:xlink="http://www.w3.org/1999/xlink" x="0px"
	 y="0px" width="122px" height="40px" viewBox="0 0 122 40" enable-background="new 0 0 122 40" xml:space="preserve">
<g>
	<path fill="#111111" d="M41.557,34.084l1.022-0.089c0.049,0.409,0.161,0.745,0.338,1.009c0.178,0.264,0.452,0.475,0.825,0.637
		c0.372,0.162,0.792,0.244,1.258,0.244c0.413,0,0.778-0.063,1.096-0.186c0.316-0.122,0.552-0.291,0.707-0.506
		c0.154-0.215,0.231-0.447,0.231-0.701c0-0.258-0.074-0.48-0.224-0.674c-0.148-0.191-0.395-0.354-0.737-0.482
		c-0.22-0.086-0.706-0.221-1.459-0.4c-0.753-0.18-1.28-0.352-1.582-0.512c-0.392-0.205-0.684-0.459-0.875-0.763
		c-0.192-0.304-0.288-0.644-0.288-1.021c0-0.414,0.117-0.801,0.353-1.16c0.234-0.359,0.577-0.633,1.028-0.818
		c0.451-0.188,0.952-0.279,1.504-0.279c0.607,0,1.144,0.098,1.607,0.293c0.463,0.195,0.82,0.484,1.07,0.863
		c0.249,0.381,0.384,0.811,0.402,1.292l-1.04,0.078c-0.056-0.519-0.245-0.909-0.567-1.175c-0.322-0.264-0.798-0.396-1.428-0.396
		c-0.656,0-1.134,0.121-1.435,0.361c-0.3,0.24-0.449,0.529-0.449,0.869c0,0.295,0.105,0.537,0.318,0.727
		c0.209,0.189,0.754,0.385,1.635,0.584c0.882,0.199,1.486,0.374,1.814,0.523c0.477,0.219,0.829,0.498,1.057,0.834
		c0.227,0.338,0.341,0.727,0.341,1.166c0,0.437-0.125,0.848-0.375,1.232c-0.249,0.387-0.608,0.686-1.076,0.899
		c-0.468,0.215-0.994,0.321-1.579,0.321c-0.741,0-1.363-0.107-1.864-0.324s-0.895-0.541-1.18-0.977
		C41.721,35.123,41.571,34.633,41.557,34.084z"/>
	<path fill="#111111" d="M49.984,36.717v-8.193h5.926v0.967h-4.841V32h4.533v0.962h-4.533v2.789H56.1v0.968h-6.116V36.717z"/>
	<path fill="#111111" d="M57.509,32.727c0-1.36,0.365-2.426,1.096-3.195c0.731-0.768,1.673-1.153,2.828-1.153
		c0.756,0,1.438,0.181,2.045,0.542s1.07,0.866,1.391,1.514c0.318,0.646,0.479,1.379,0.479,2.198c0,0.831-0.168,1.574-0.504,2.229
		c-0.336,0.656-0.811,1.152-1.426,1.49c-0.613,0.338-1.277,0.506-1.99,0.506c-0.771,0-1.461-0.187-2.068-0.56
		c-0.607-0.372-1.067-0.882-1.38-1.526C57.665,34.127,57.509,33.445,57.509,32.727z M58.627,32.742c0,0.988,0.265,1.766,0.796,2.334
		c0.531,0.568,1.197,0.854,1.999,0.854c0.814,0,1.487-0.287,2.016-0.861c0.527-0.573,0.791-1.389,0.791-2.442
		c0-0.666-0.112-1.249-0.338-1.746c-0.227-0.498-0.557-0.884-0.99-1.157c-0.435-0.273-0.922-0.41-1.461-0.41
		c-0.768,0-1.429,0.264-1.981,0.791C58.903,30.629,58.627,31.51,58.627,32.742z"/>
	<path fill="#111111" d="M72.533,28.521h1.085v4.734c0,0.823-0.095,1.479-0.28,1.963c-0.186,0.483-0.521,0.879-1.009,1.182
		c-0.487,0.305-1.124,0.457-1.914,0.457c-0.769,0-1.396-0.133-1.884-0.397s-0.838-0.647-1.047-1.147
		c-0.209-0.502-0.313-1.188-0.313-2.056v-4.733h1.084v4.729c0,0.711,0.066,1.236,0.198,1.573c0.133,0.337,0.36,0.597,0.683,0.78
		c0.322,0.182,0.717,0.272,1.182,0.272c0.799,0,1.367-0.181,1.705-0.543c0.34-0.36,0.51-1.058,0.51-2.084V28.521L72.533,28.521z"/>
	<path fill="#111111" d="M75.779,36.717v-8.193h1.084v7.228h4.035v0.968h-5.119V36.717z"/>
</g>
<g>
	<path fill="#111111" d="M15.643,4.156c0.651,0,1.26,0.105,1.826,0.315c0.567,0.21,1.063,0.499,1.488,0.866
		c0.425,0.368,0.758,0.809,0.999,1.322c0.241,0.515,0.362,1.071,0.362,1.669c0,0.629-0.123,1.207-0.37,1.731
		c-0.246,0.525-0.58,0.974-0.999,1.346c-0.42,0.373-0.916,0.662-1.488,0.866c-0.572,0.204-1.178,0.307-1.818,0.307h-2.219v4.66
		h-2.425V4.156H15.643z M13.424,6.061v4.581h2.251c0.293,0,0.569-0.055,0.826-0.166c0.257-0.11,0.48-0.268,0.669-0.472
		s0.336-0.449,0.44-0.732c0.105-0.283,0.158-0.598,0.158-0.944c0-0.346-0.053-0.659-0.158-0.937
		c-0.104-0.278-0.252-0.517-0.44-0.716c-0.188-0.199-0.412-0.352-0.669-0.457c-0.257-0.105-0.533-0.158-0.826-0.158L13.424,6.061
		L13.424,6.061z"/>
	<path fill="#111111" d="M24.915,8.911c0.263-0.451,0.63-0.811,1.102-1.079c0.473-0.268,0.945-0.401,1.417-0.401
		c0.524,0,1.008,0.079,1.448,0.236c0.44,0.157,0.821,0.391,1.142,0.7c0.319,0.31,0.569,0.693,0.747,1.149
		c0.179,0.457,0.268,0.984,0.268,1.582v6.139H28.63v-5.966c0-0.314-0.047-0.595-0.142-0.842c-0.095-0.247-0.215-0.454-0.362-0.622
		c-0.146-0.167-0.32-0.293-0.52-0.377c-0.2-0.084-0.398-0.126-0.598-0.126c-0.325,0-0.617,0.061-0.874,0.181
		c-0.257,0.121-0.478,0.286-0.661,0.496s-0.322,0.459-0.417,0.748c-0.095,0.289-0.142,0.601-0.142,0.937v5.573h-2.439V3.81h2.439
		L24.915,8.911L24.915,8.911z"/>
	<path fill="#111111" d="M41.742,16.183c-0.525,0.462-1.092,0.792-1.7,0.992c-0.608,0.2-1.302,0.304-2.078,0.315
		c-0.724,0-1.385-0.104-1.983-0.315c-0.598-0.21-1.109-0.525-1.535-0.944c-0.425-0.42-0.753-0.934-0.983-1.543
		c-0.23-0.608-0.347-1.307-0.347-2.093c0-0.777,0.107-1.48,0.323-2.109c0.215-0.63,0.521-1.165,0.921-1.606
		c0.398-0.441,0.884-0.782,1.456-1.023c0.571-0.242,1.22-0.362,1.944-0.362c0.702,0,1.327,0.124,1.873,0.37
		c0.545,0.247,1.005,0.588,1.377,1.023c0.373,0.436,0.656,0.945,0.851,1.527c0.193,0.583,0.285,1.21,0.275,1.881
		c0,0.137-0.008,0.299-0.022,0.488c-0.016,0.189-0.034,0.357-0.056,0.504h-6.485c0.042,0.462,0.146,0.842,0.313,1.141
		c0.168,0.299,0.37,0.535,0.606,0.708c0.236,0.173,0.49,0.297,0.764,0.37c0.272,0.073,0.54,0.11,0.803,0.11
		c0.21,0,0.433-0.016,0.669-0.047c0.236-0.032,0.47-0.084,0.7-0.158c0.231-0.073,0.449-0.17,0.653-0.291
		c0.205-0.121,0.381-0.265,0.527-0.433L41.742,16.183z M39.79,11.46c-0.011-0.304-0.073-0.587-0.188-0.85
		c-0.116-0.262-0.271-0.49-0.465-0.685c-0.194-0.194-0.417-0.346-0.669-0.457c-0.252-0.111-0.509-0.165-0.771-0.165
		c-0.252,0-0.501,0.055-0.748,0.165c-0.246,0.11-0.47,0.263-0.669,0.457c-0.199,0.194-0.361,0.422-0.487,0.685
		c-0.126,0.263-0.194,0.546-0.205,0.85H39.79z"/>
	<path fill="#111111" d="M46.701,8.911c0.263-0.451,0.63-0.811,1.102-1.079c0.473-0.268,0.945-0.401,1.417-0.401
		c0.524,0,1.008,0.079,1.448,0.236s0.821,0.391,1.142,0.7c0.319,0.31,0.569,0.693,0.747,1.149c0.179,0.457,0.268,0.984,0.268,1.582
		v6.139h-2.408v-5.966c0-0.314-0.047-0.595-0.142-0.842c-0.095-0.247-0.215-0.454-0.362-0.622c-0.146-0.167-0.32-0.293-0.52-0.377
		c-0.2-0.084-0.398-0.126-0.598-0.126c-0.325,0-0.617,0.061-0.874,0.181c-0.257,0.121-0.478,0.286-0.661,0.496
		c-0.183,0.21-0.322,0.459-0.417,0.748c-0.095,0.289-0.142,0.601-0.142,0.937v5.573h-2.439v-9.54h2.439V8.911z"/>
	<path fill="#111111" d="M59.577,7.478c0.671,0,1.299,0.113,1.881,0.338c0.583,0.226,1.089,0.554,1.521,0.984
		c0.43,0.43,0.769,0.96,1.015,1.59c0.247,0.63,0.37,1.349,0.37,2.157c0,0.797-0.123,1.503-0.37,2.117
		c-0.246,0.614-0.585,1.131-1.015,1.55c-0.432,0.42-0.938,0.74-1.521,0.96c-0.582,0.22-1.21,0.331-1.881,0.331
		c-0.756,0-1.428-0.134-2.015-0.401c-0.588-0.268-1.079-0.63-1.473-1.086s-0.692-0.983-0.896-1.582
		c-0.205-0.598-0.308-1.228-0.308-1.889c0-0.819,0.121-1.543,0.362-2.172c0.241-0.63,0.574-1.16,1-1.59
		c0.425-0.43,0.921-0.756,1.487-0.976C58.3,7.589,58.916,7.478,59.577,7.478z M59.577,9.257c-0.305,0-0.599,0.076-0.882,0.228
		c-0.283,0.152-0.53,0.37-0.739,0.653c-0.211,0.284-0.378,0.63-0.504,1.039c-0.126,0.409-0.189,0.866-0.189,1.37
		c0,0.378,0.053,0.755,0.157,1.133c0.105,0.378,0.255,0.719,0.449,1.023c0.194,0.304,0.436,0.553,0.724,0.748
		c0.289,0.194,0.617,0.291,0.984,0.291c0.388,0,0.729-0.097,1.023-0.291c0.293-0.194,0.543-0.443,0.747-0.748
		c0.205-0.305,0.359-0.646,0.465-1.023c0.104-0.378,0.156-0.755,0.156-1.133c0-0.399-0.05-0.795-0.148-1.188
		c-0.1-0.393-0.25-0.745-0.449-1.055c-0.199-0.31-0.448-0.562-0.747-0.756C60.325,9.354,59.976,9.257,59.577,9.257z"/>
	<path fill="#111111" d="M68.834,8.832c0.096-0.251,0.23-0.464,0.409-0.637c0.178-0.173,0.37-0.315,0.573-0.425
		c0.205-0.11,0.416-0.191,0.631-0.244c0.215-0.053,0.4-0.079,0.559-0.079c0.535,0,1.014,0.14,1.434,0.417
		c0.42,0.277,0.761,0.648,1.022,1.11c0.304-0.504,0.688-0.884,1.157-1.142c0.467-0.257,0.926-0.386,1.377-0.386
		c0.504,0,0.966,0.071,1.386,0.213c0.419,0.142,0.776,0.354,1.07,0.637c0.294,0.284,0.521,0.635,0.685,1.055
		c0.162,0.42,0.244,0.913,0.244,1.48v6.407h-2.408v-6.454c0-0.409-0.132-0.75-0.394-1.023c-0.263-0.273-0.588-0.41-0.978-0.41
		c-0.188,0-0.371,0.032-0.551,0.095c-0.179,0.063-0.339,0.16-0.48,0.291c-0.141,0.131-0.254,0.302-0.338,0.512
		s-0.125,0.462-0.125,0.755v6.234h-2.361v-6.313c0-0.514-0.143-0.908-0.426-1.181c-0.282-0.272-0.608-0.409-0.977-0.409
		c-0.168,0-0.341,0.037-0.52,0.11c-0.18,0.073-0.342,0.187-0.487,0.338c-0.147,0.152-0.269,0.338-0.362,0.559
		c-0.095,0.221-0.142,0.478-0.142,0.771v6.124h-2.394v-9.54h2.394L68.834,8.832L68.834,8.832z"/>
	<path fill="#111111" d="M90.102,16.183c-0.525,0.462-1.093,0.792-1.701,0.992c-0.607,0.2-1.301,0.304-2.077,0.315
		c-0.724,0-1.386-0.104-1.983-0.315c-0.598-0.21-1.109-0.525-1.535-0.944c-0.425-0.42-0.753-0.934-0.982-1.543
		c-0.23-0.608-0.348-1.307-0.348-2.093c0-0.777,0.107-1.48,0.323-2.109c0.216-0.63,0.521-1.165,0.921-1.606
		c0.398-0.441,0.885-0.782,1.456-1.023c0.571-0.242,1.22-0.362,1.944-0.362c0.701,0,1.326,0.124,1.873,0.37
		c0.545,0.247,1.005,0.588,1.377,1.023c0.373,0.436,0.656,0.945,0.851,1.527c0.193,0.583,0.285,1.21,0.275,1.881
		c0,0.137-0.009,0.299-0.022,0.488c-0.017,0.189-0.035,0.357-0.057,0.504H83.93c0.043,0.462,0.146,0.842,0.314,1.141
		c0.168,0.299,0.37,0.535,0.605,0.708c0.236,0.173,0.49,0.297,0.765,0.37c0.271,0.073,0.54,0.11,0.803,0.11
		c0.21,0,0.433-0.016,0.669-0.047c0.236-0.032,0.471-0.084,0.7-0.158c0.231-0.073,0.448-0.17,0.653-0.291s0.381-0.265,0.526-0.433
		L90.102,16.183z M88.148,11.46c-0.012-0.304-0.073-0.587-0.188-0.85c-0.116-0.262-0.271-0.49-0.465-0.685
		c-0.194-0.194-0.417-0.346-0.669-0.457c-0.252-0.111-0.51-0.165-0.771-0.165c-0.252,0-0.5,0.055-0.748,0.165
		c-0.246,0.11-0.47,0.263-0.668,0.457c-0.199,0.194-0.361,0.422-0.488,0.685c-0.125,0.263-0.193,0.546-0.205,0.85H88.148z"/>
	<path fill="#111111" d="M95.059,8.911c0.264-0.451,0.631-0.811,1.103-1.079c0.473-0.268,0.944-0.401,1.417-0.401
		c0.523,0,1.008,0.079,1.447,0.236c0.44,0.157,0.822,0.391,1.143,0.7c0.318,0.31,0.568,0.693,0.747,1.149
		c0.179,0.457,0.269,0.984,0.269,1.582v6.139h-2.408v-5.966c0-0.314-0.047-0.595-0.143-0.842c-0.095-0.247-0.215-0.454-0.361-0.622
		c-0.146-0.167-0.32-0.293-0.521-0.377s-0.397-0.126-0.599-0.126c-0.324,0-0.616,0.061-0.873,0.181
		c-0.258,0.121-0.479,0.286-0.661,0.496s-0.322,0.459-0.417,0.748c-0.096,0.289-0.143,0.601-0.143,0.937v5.573H92.62v-9.54h2.438
		V8.911z"/>
	<path fill="#111111" d="M103.779,8.407c0.734-0.43,1.447-0.706,2.142-0.827c0.692-0.12,1.315-0.17,1.873-0.149
		c0.524,0.021,1.015,0.105,1.472,0.252s0.855,0.359,1.196,0.638c0.341,0.278,0.608,0.617,0.804,1.015
		c0.193,0.399,0.291,0.866,0.291,1.401v4.25c0,0.231,0.014,0.514,0.039,0.85s0.129,0.803,0.307,1.401h-2.738l-0.016-0.992
		c-0.157,0.22-0.34,0.407-0.543,0.559c-0.205,0.152-0.424,0.281-0.653,0.386c-0.231,0.105-0.462,0.181-0.692,0.229
		c-0.23,0.047-0.451,0.071-0.66,0.071c-0.463,0-0.912-0.068-1.348-0.205c-0.436-0.137-0.82-0.336-1.156-0.598
		c-0.336-0.263-0.605-0.59-0.811-0.984s-0.309-0.853-0.309-1.377c0-0.651,0.123-1.22,0.371-1.708
		c0.245-0.488,0.618-0.879,1.117-1.173c0.498-0.293,1.131-0.49,1.896-0.59s1.669-0.086,2.707,0.04
		c0.011-0.409-0.109-0.75-0.361-1.023c-0.252-0.272-0.566-0.457-0.943-0.551c-0.231-0.052-0.483-0.073-0.757-0.063
		c-0.272,0.011-0.546,0.047-0.817,0.11c-0.273,0.063-0.541,0.142-0.804,0.236c-0.263,0.095-0.493,0.2-0.692,0.315L103.779,8.407z
		 M106.865,15.727c0.262,0,0.523-0.052,0.787-0.157c0.262-0.105,0.498-0.247,0.707-0.425c0.211-0.178,0.384-0.391,0.521-0.637
		c0.138-0.246,0.205-0.506,0.205-0.779v-1.196c-1.321-0.179-2.296-0.126-2.921,0.157c-0.624,0.283-0.938,0.724-0.938,1.322
		c0,0.619,0.158,1.06,0.474,1.322S106.402,15.727,106.865,15.727z"/>
</g>
</svg>
