<?xml version="1.0" encoding="utf-8"?>
<!-- Generator: Adobe Illustrator 16.0.0, SVG Export Plug-In . SVG Version: 6.00 Build 0)  -->
<!DOCTYPE svg PUBLIC "-//W3C//DTD SVG 1.1//EN" "http://www.w3.org/Graphics/SVG/1.1/DTD/svg11.dtd">
<svg version="1.1" id="레이어_1" xmlns="http://www.w3.org/2000/svg" xmlns:xlink="http://www.w3.org/1999/xlink" x="0px"
	 y="0px" width="122px" height="40px" viewBox="0 0 122 40" enable-background="new 0 0 122 40" xml:space="preserve">
<g>
	<path fill="#111111" d="M43.878,35.523v-7.229h-2.7v-0.968h6.495v0.968h-2.711v7.229H43.878z"/>
	<path fill="#111111" d="M48.364,31.531c0-1.359,0.365-2.424,1.096-3.194c0.73-0.769,1.673-1.153,2.828-1.153
		c0.757,0,1.438,0.182,2.046,0.543c0.608,0.36,1.07,0.864,1.39,1.512c0.318,0.646,0.478,1.38,0.478,2.199
		c0,0.832-0.168,1.574-0.503,2.23c-0.336,0.654-0.811,1.152-1.426,1.488c-0.614,0.338-1.278,0.507-1.99,0.507
		c-0.771,0-1.461-0.187-2.068-0.56c-0.607-0.373-1.067-0.881-1.38-1.525C48.521,32.934,48.364,32.251,48.364,31.531z M49.482,31.549
		c0,0.987,0.265,1.766,0.796,2.334c0.531,0.568,1.197,0.854,1.999,0.854c0.815,0,1.487-0.287,2.015-0.861
		c0.527-0.572,0.791-1.389,0.791-2.441c0-0.668-0.112-1.25-0.338-1.748c-0.226-0.496-0.556-0.883-0.989-1.156
		c-0.435-0.273-0.922-0.411-1.462-0.411c-0.768,0-1.429,0.264-1.981,0.791C49.759,29.436,49.482,30.314,49.482,31.549z"/>
	<path fill="#111111" d="M57.967,35.523v-8.195h1.084v4.064l4.069-4.064h1.471l-3.438,3.32l3.589,4.875h-1.432l-2.917-4.147
		l-1.342,1.308v2.84H57.967L57.967,35.523z"/>
	<path fill="#111111" d="M68.368,35.523v-3.473l-3.159-4.724h1.318l1.617,2.471c0.297,0.464,0.574,0.925,0.832,1.388
		c0.246-0.43,0.545-0.912,0.895-1.449l1.588-2.408h1.264l-3.271,4.725v3.471H68.368L68.368,35.523z"/>
	<path fill="#111111" d="M73.091,31.531c0-1.359,0.365-2.424,1.097-3.194c0.729-0.769,1.672-1.153,2.828-1.153
		c0.756,0,1.438,0.182,2.045,0.543c0.608,0.36,1.07,0.864,1.391,1.512c0.318,0.646,0.479,1.38,0.479,2.199
		c0,0.832-0.169,1.574-0.504,2.23C80.09,34.322,79.615,34.82,79,35.156c-0.614,0.338-1.277,0.507-1.99,0.507
		c-0.771,0-1.461-0.187-2.068-0.56c-0.606-0.373-1.066-0.881-1.379-1.525C73.247,32.934,73.091,32.251,73.091,31.531z
		 M74.209,31.549c0,0.987,0.266,1.766,0.796,2.334c0.531,0.568,1.197,0.854,1.999,0.854c0.814,0,1.487-0.287,2.016-0.861
		c0.526-0.572,0.791-1.389,0.791-2.441c0-0.668-0.112-1.25-0.338-1.748c-0.227-0.496-0.557-0.883-0.99-1.156
		c-0.435-0.273-0.922-0.411-1.461-0.411c-0.769,0-1.43,0.264-1.981,0.791C74.484,29.436,74.209,30.314,74.209,31.549z"/>
</g>
<g>
	<path fill="#111111" d="M50.408,6.868h-3.794v11.177H44.19V6.868h-3.81V4.963h10.027L50.408,6.868L50.408,6.868z"/>
	<path fill="#111111" d="M51.903,4.617h2.881V7.12h-2.881V4.617z M52.14,8.505h2.424v9.54H52.14V8.505z"/>
	<path fill="#111111" d="M59.932,9.639c0.095-0.251,0.23-0.464,0.409-0.637c0.178-0.173,0.37-0.315,0.574-0.425
		c0.205-0.11,0.415-0.191,0.63-0.244s0.4-0.079,0.559-0.079c0.535,0,1.014,0.14,1.434,0.417s0.761,0.648,1.023,1.11
		c0.304-0.504,0.688-0.884,1.156-1.142c0.467-0.257,0.926-0.386,1.377-0.386c0.504,0,0.967,0.071,1.387,0.213
		c0.418,0.142,0.775,0.354,1.069,0.637c0.294,0.284,0.521,0.635,0.685,1.055c0.162,0.42,0.244,0.913,0.244,1.48v6.407H68.07v-6.454
		c0-0.409-0.133-0.75-0.395-1.023c-0.263-0.273-0.588-0.41-0.977-0.41c-0.188,0-0.372,0.032-0.551,0.095
		c-0.18,0.063-0.34,0.16-0.48,0.291c-0.143,0.131-0.254,0.302-0.338,0.512s-0.126,0.462-0.126,0.755v6.234h-2.361v-6.313
		c0-0.514-0.142-0.908-0.425-1.181s-0.609-0.409-0.977-0.409c-0.168,0-0.341,0.037-0.52,0.11c-0.179,0.073-0.341,0.187-0.487,0.338
		c-0.147,0.152-0.268,0.338-0.362,0.559c-0.095,0.221-0.142,0.478-0.142,0.771v6.124h-2.393v-9.54h2.393v1.135H59.932z"/>
	<path fill="#111111" d="M81.198,16.99c-0.525,0.462-1.093,0.792-1.7,0.992s-1.303,0.304-2.078,0.315
		c-0.725,0-1.385-0.105-1.982-0.315c-0.599-0.21-1.109-0.525-1.535-0.944c-0.426-0.42-0.754-0.934-0.983-1.543
		c-0.229-0.608-0.347-1.307-0.347-2.093c0-0.777,0.107-1.48,0.322-2.109c0.215-0.63,0.521-1.165,0.922-1.606
		c0.397-0.441,0.884-0.782,1.455-1.023c0.571-0.242,1.221-0.362,1.944-0.362c0.702,0,1.327,0.124,1.873,0.37
		c0.545,0.247,1.005,0.588,1.377,1.023c0.373,0.436,0.656,0.945,0.851,1.527c0.193,0.583,0.285,1.21,0.275,1.881
		c0,0.137-0.008,0.299-0.023,0.488s-0.033,0.357-0.055,0.504h-6.486c0.043,0.462,0.146,0.842,0.314,1.141
		c0.168,0.299,0.37,0.535,0.606,0.708c0.235,0.173,0.489,0.297,0.764,0.37c0.272,0.073,0.54,0.11,0.804,0.11
		c0.209,0,0.433-0.016,0.668-0.047c0.236-0.032,0.471-0.084,0.7-0.158c0.231-0.073,0.449-0.17,0.653-0.291
		c0.205-0.121,0.381-0.265,0.527-0.433L81.198,16.99z M79.246,12.268c-0.012-0.304-0.073-0.587-0.188-0.85
		c-0.117-0.262-0.271-0.49-0.466-0.685c-0.194-0.194-0.417-0.346-0.669-0.457c-0.252-0.111-0.509-0.165-0.771-0.165
		c-0.252,0-0.5,0.055-0.747,0.165c-0.246,0.11-0.47,0.263-0.669,0.457c-0.199,0.194-0.361,0.422-0.487,0.685
		s-0.194,0.546-0.205,0.85H79.246z"/>
</g>
</svg>
