<?xml version="1.0" encoding="utf-8"?>
<!-- Generator: Adobe Illustrator 16.0.0, SVG Export Plug-In . SVG Version: 6.00 Build 0)  -->
<!DOCTYPE svg PUBLIC "-//W3C//DTD SVG 1.1//EN" "http://www.w3.org/Graphics/SVG/1.1/DTD/svg11.dtd">
<svg version="1.1" id="레이어_1" xmlns="http://www.w3.org/2000/svg" xmlns:xlink="http://www.w3.org/1999/xlink" x="0px"
	 y="0px" width="122px" height="40px" viewBox="0 0 122 40" enable-background="new 0 0 122 40" xml:space="preserve">
<g>
	<path fill="#111111" d="M28.778,32.936l1.022-0.09c0.049,0.41,0.161,0.746,0.338,1.01c0.178,0.264,0.452,0.476,0.825,0.638
		c0.372,0.161,0.792,0.243,1.258,0.243c0.413,0,0.778-0.063,1.096-0.186c0.316-0.123,0.552-0.291,0.707-0.506
		c0.154-0.214,0.231-0.447,0.231-0.701c0-0.258-0.074-0.48-0.224-0.674c-0.148-0.191-0.396-0.354-0.737-0.482
		c-0.22-0.086-0.706-0.219-1.459-0.399c-0.753-0.183-1.28-0.353-1.582-0.513c-0.392-0.205-0.684-0.459-0.875-0.764
		c-0.192-0.304-0.288-0.644-0.288-1.02c0-0.414,0.117-0.801,0.353-1.16c0.234-0.359,0.577-0.633,1.028-0.818
		c0.451-0.187,0.952-0.279,1.504-0.279c0.607,0,1.144,0.098,1.607,0.293c0.464,0.195,0.82,0.484,1.07,0.863
		c0.249,0.381,0.384,0.812,0.402,1.291l-1.04,0.08c-0.056-0.52-0.245-0.91-0.567-1.176c-0.322-0.264-0.798-0.396-1.428-0.396
		c-0.656,0-1.134,0.121-1.435,0.36c-0.3,0.24-0.449,0.53-0.449,0.869c0,0.295,0.105,0.537,0.318,0.728
		c0.209,0.189,0.754,0.385,1.635,0.584c0.882,0.199,1.486,0.373,1.814,0.522c0.477,0.22,0.829,0.498,1.057,0.836
		c0.227,0.337,0.341,0.726,0.341,1.165c0,0.438-0.125,0.848-0.375,1.232c-0.249,0.386-0.608,0.687-1.076,0.9
		c-0.468,0.213-0.994,0.32-1.579,0.32c-0.741,0-1.363-0.107-1.864-0.324c-0.501-0.216-0.896-0.541-1.18-0.977
		C28.942,33.975,28.793,33.482,28.778,32.936z"/>
	<path fill="#111111" d="M37.218,35.568v-8.195h1.084v3.365h4.26v-3.365h1.085v8.195h-1.085v-3.862h-4.26v3.862H37.218z"/>
	<path fill="#111111" d="M45.886,35.568v-8.195h5.926v0.968h-4.841v2.511h4.533v0.961h-4.533v2.789h5.031v0.967H45.886
		L45.886,35.568z"/>
	<path fill="#111111" d="M53.9,35.568v-8.195h1.112l4.305,6.436v-6.436h1.039v8.195h-1.112l-4.304-6.439v6.439H53.9z"/>
	<path fill="#111111" d="M61.927,35.568v-1.006l4.198-5.25c0.298-0.373,0.581-0.696,0.85-0.973h-4.572v-0.968h5.869v0.968
		l-4.601,5.686l-0.498,0.576h5.232v0.967H61.927z"/>
	<path fill="#111111" d="M70.008,35.568v-8.195h1.084v3.365h4.26v-3.365h1.086v8.195h-1.086v-3.862h-4.26v3.862H70.008z"/>
	<path fill="#111111" d="M78.676,35.568v-8.195h5.926v0.968h-4.841v2.511h4.533v0.961h-4.533v2.789h5.031v0.967H78.676
		L78.676,35.568z"/>
	<path fill="#111111" d="M86.689,35.568v-8.195h1.112l4.306,6.436v-6.436h1.039v8.195h-1.112l-4.304-6.439v6.439H86.689z"/>
</g>
<g>
	<path fill="#111111" d="M8.536,4.576c0.976,0,1.853,0.179,2.629,0.535s1.435,0.837,1.976,1.44c0.54,0.604,0.955,1.304,1.243,2.102
		c0.289,0.797,0.434,1.632,0.434,2.503c0,0.871-0.147,1.7-0.441,2.487s-0.714,1.477-1.259,2.069
		c-0.546,0.594-1.207,1.065-1.983,1.417c-0.777,0.352-1.643,0.527-2.598,0.527H4.081V4.576H8.536z M8.457,15.736
		c0.63,0,1.181-0.12,1.653-0.361c0.472-0.241,0.871-0.572,1.196-0.992c0.325-0.42,0.569-0.905,0.732-1.456
		c0.162-0.551,0.243-1.142,0.243-1.771c0-0.693-0.086-1.325-0.26-1.897c-0.173-0.571-0.422-1.063-0.747-1.472
		c-0.325-0.409-0.727-0.729-1.204-0.96S9.056,6.48,8.457,6.48H6.506v9.256H8.457z"/>
	<path fill="#111111" d="M25.049,16.603c-0.525,0.462-1.092,0.792-1.7,0.992c-0.608,0.199-1.302,0.304-2.078,0.314
		c-0.724,0-1.385-0.105-1.983-0.314c-0.598-0.211-1.109-0.525-1.535-0.945c-0.425-0.419-0.753-0.934-0.983-1.542
		s-0.347-1.307-0.347-2.094c0-0.776,0.107-1.479,0.323-2.109c0.215-0.63,0.521-1.165,0.921-1.605
		c0.398-0.441,0.884-0.782,1.456-1.023c0.571-0.241,1.22-0.362,1.944-0.362c0.702,0,1.327,0.123,1.873,0.37
		c0.545,0.246,1.005,0.588,1.377,1.023c0.373,0.436,0.656,0.944,0.851,1.526c0.193,0.583,0.285,1.21,0.275,1.881
		c0,0.137-0.008,0.3-0.023,0.488c-0.016,0.189-0.034,0.357-0.056,0.504h-6.485c0.042,0.462,0.146,0.842,0.314,1.142
		c0.168,0.299,0.37,0.535,0.606,0.708c0.236,0.173,0.49,0.297,0.764,0.37c0.272,0.073,0.54,0.11,0.803,0.11
		c0.21,0,0.433-0.016,0.669-0.048c0.236-0.031,0.47-0.084,0.7-0.157c0.231-0.073,0.449-0.17,0.653-0.291
		c0.205-0.12,0.381-0.265,0.527-0.433L25.049,16.603z M23.097,11.88c-0.011-0.304-0.073-0.588-0.188-0.85
		c-0.116-0.263-0.271-0.491-0.465-0.685c-0.194-0.194-0.417-0.347-0.669-0.457c-0.252-0.11-0.509-0.165-0.771-0.165
		c-0.252,0-0.501,0.055-0.748,0.165c-0.246,0.11-0.47,0.263-0.669,0.457c-0.199,0.193-0.361,0.422-0.487,0.685
		c-0.126,0.262-0.194,0.546-0.205,0.85H23.097z"/>
	<path fill="#111111" d="M32.684,10.432c-0.146-0.104-0.313-0.202-0.495-0.291c-0.185-0.089-0.37-0.165-0.56-0.229
		C31.44,9.85,31.26,9.8,31.086,9.763c-0.173-0.036-0.313-0.055-0.417-0.055c-0.378,0-0.664,0.073-0.857,0.22
		c-0.194,0.147-0.292,0.347-0.292,0.599c0,0.137,0.048,0.268,0.142,0.394c0.095,0.126,0.221,0.246,0.378,0.362
		c0.157,0.115,0.339,0.23,0.543,0.346c0.205,0.116,0.423,0.231,0.653,0.347c0.357,0.188,0.709,0.378,1.055,0.566
		c0.347,0.189,0.656,0.399,0.929,0.63c0.273,0.23,0.491,0.493,0.653,0.787c0.163,0.294,0.244,0.635,0.244,1.023
		c0,0.566-0.112,1.039-0.338,1.416c-0.227,0.378-0.512,0.678-0.858,0.897c-0.346,0.221-0.724,0.378-1.133,0.473
		c-0.41,0.095-0.793,0.142-1.149,0.142c-0.63,0-1.294-0.124-1.991-0.37c-0.698-0.247-1.356-0.669-1.976-1.268l1.29-1.573
		c0.21,0.21,0.431,0.395,0.662,0.551c0.23,0.157,0.458,0.288,0.685,0.394c0.226,0.104,0.44,0.187,0.646,0.244
		c0.204,0.058,0.386,0.086,0.543,0.086c0.398,0,0.695-0.086,0.889-0.26c0.194-0.173,0.292-0.386,0.292-0.638
		c0-0.293-0.137-0.524-0.409-0.692c-0.273-0.168-0.63-0.362-1.071-0.582c-0.356-0.179-0.716-0.362-1.078-0.551
		c-0.361-0.189-0.692-0.404-0.991-0.646c-0.3-0.241-0.543-0.52-0.732-0.835c-0.188-0.314-0.283-0.687-0.283-1.117
		c0-0.515,0.104-0.955,0.314-1.322c0.21-0.367,0.478-0.664,0.804-0.89c0.324-0.226,0.689-0.391,1.094-0.496
		c0.403-0.104,0.8-0.157,1.188-0.157c0.577,0,1.165,0.1,1.763,0.299c0.599,0.2,1.118,0.468,1.559,0.803L32.684,10.432z"/>
	<path fill="#111111" d="M35.958,4.229h2.881v2.503h-2.881V4.229z M36.194,8.118h2.424v9.539h-2.424V8.118z"/>
	<path fill="#111111" d="M45.025,7.882c0.598,0,1.106,0.129,1.526,0.386c0.42,0.257,0.767,0.605,1.039,1.047V8.118h2.425v8.453
		c0,0.65-0.085,1.23-0.252,1.739c-0.168,0.509-0.399,0.952-0.693,1.33c-0.294,0.378-0.632,0.688-1.015,0.928
		c-0.384,0.242-0.785,0.426-1.204,0.552c-0.399,0.114-0.827,0.183-1.283,0.196c-0.457,0.017-0.913-0.014-1.37-0.086
		c-0.456-0.074-0.904-0.188-1.346-0.348c-0.44-0.156-0.85-0.346-1.228-0.566l0.756-1.685c0.241,0.137,0.511,0.266,0.811,0.386
		c0.299,0.121,0.608,0.218,0.929,0.292c0.319,0.073,0.646,0.115,0.976,0.126c0.331,0.01,0.648-0.026,0.952-0.11
		c0.221-0.063,0.423-0.155,0.606-0.275c0.184-0.121,0.347-0.284,0.488-0.488c0.142-0.205,0.252-0.451,0.33-0.74
		c0.079-0.288,0.118-0.638,0.118-1.047v-0.409c-0.263,0.398-0.598,0.729-1.007,0.992c-0.41,0.262-0.93,0.394-1.559,0.394
		c-1.375,0-2.398-0.417-3.07-1.252c-0.671-0.834-1.007-2.049-1.007-3.644c0-0.756,0.084-1.44,0.252-2.055
		c0.167-0.614,0.422-1.136,0.763-1.566c0.342-0.43,0.767-0.764,1.275-0.999C43.747,8,44.343,7.882,45.025,7.882z M45.466,9.708
		c-0.389,0-0.716,0.089-0.983,0.268c-0.267,0.179-0.486,0.412-0.653,0.7c-0.168,0.289-0.289,0.622-0.362,1
		c-0.073,0.377-0.11,0.766-0.11,1.164c0,0.378,0.042,0.751,0.126,1.118s0.213,0.7,0.386,1c0.173,0.299,0.391,0.54,0.653,0.724
		s0.577,0.275,0.944,0.275c0.347,0,0.65-0.076,0.913-0.229c0.262-0.151,0.482-0.359,0.661-0.621
		c0.179-0.263,0.313-0.575,0.401-0.937c0.089-0.362,0.139-0.759,0.149-1.188V12.84c0-0.545-0.053-1.015-0.157-1.408
		c-0.105-0.394-0.252-0.719-0.44-0.977c-0.189-0.257-0.415-0.445-0.678-0.566C46.054,9.769,45.771,9.708,45.466,9.708z"/>
	<path fill="#111111" d="M55.272,9.33c0.263-0.451,0.63-0.811,1.102-1.078c0.473-0.268,0.945-0.401,1.417-0.401
		c0.524,0,1.008,0.078,1.448,0.235c0.44,0.158,0.821,0.392,1.142,0.701c0.319,0.31,0.569,0.692,0.747,1.148
		c0.179,0.457,0.268,0.984,0.268,1.582v6.14h-2.408v-5.966c0-0.315-0.047-0.596-0.142-0.843c-0.095-0.246-0.215-0.453-0.362-0.621
		c-0.146-0.168-0.32-0.294-0.52-0.378c-0.2-0.084-0.398-0.126-0.598-0.126c-0.325,0-0.617,0.061-0.874,0.181
		c-0.257,0.121-0.478,0.286-0.661,0.496s-0.322,0.459-0.417,0.748c-0.095,0.288-0.142,0.601-0.142,0.937v5.572h-2.439V8.118h2.439
		V9.33z"/>
	<path fill="#111111" d="M68.148,7.897c0.672,0,1.3,0.113,1.882,0.339c0.583,0.226,1.089,0.553,1.52,0.983
		c0.431,0.431,0.769,0.96,1.015,1.59c0.248,0.63,0.371,1.349,0.371,2.156c0,0.798-0.123,1.504-0.371,2.117
		c-0.246,0.614-0.584,1.132-1.015,1.551c-0.431,0.42-0.937,0.74-1.52,0.961c-0.582,0.22-1.21,0.33-1.882,0.33
		c-0.756,0-1.428-0.134-2.015-0.401c-0.588-0.268-1.079-0.63-1.473-1.086c-0.394-0.457-0.692-0.984-0.896-1.582
		c-0.205-0.599-0.309-1.229-0.309-1.89c0-0.818,0.121-1.542,0.361-2.172c0.242-0.63,0.574-1.159,1-1.59
		c0.426-0.431,0.922-0.756,1.488-0.977C66.874,8.008,67.488,7.897,68.148,7.897z M68.148,9.676c-0.305,0-0.599,0.077-0.881,0.229
		c-0.283,0.152-0.531,0.37-0.74,0.653c-0.211,0.283-0.377,0.63-0.504,1.039c-0.125,0.409-0.188,0.866-0.188,1.369
		c0,0.378,0.054,0.756,0.157,1.134c0.105,0.378,0.255,0.719,0.449,1.023c0.193,0.304,0.436,0.554,0.724,0.747
		c0.289,0.194,0.617,0.292,0.983,0.292c0.389,0,0.729-0.098,1.023-0.292c0.293-0.193,0.543-0.442,0.747-0.747
		c0.205-0.305,0.358-0.646,0.465-1.023c0.104-0.378,0.157-0.756,0.157-1.134c0-0.398-0.05-0.795-0.148-1.188
		c-0.1-0.393-0.25-0.745-0.449-1.055c-0.199-0.309-0.448-0.561-0.748-0.755C68.896,9.774,68.548,9.676,68.148,9.676z"/>
	<path fill="#111111" d="M82.867,16.508c-0.504,0.504-1.07,0.863-1.7,1.078c-0.629,0.216-1.274,0.323-1.937,0.323
		c-0.725,0-1.391-0.132-2-0.394c-0.607-0.263-1.136-0.617-1.582-1.063c-0.444-0.446-0.791-0.974-1.037-1.582
		c-0.247-0.608-0.37-1.26-0.37-1.952c0-0.756,0.126-1.445,0.378-2.07c0.252-0.624,0.604-1.156,1.055-1.598
		c0.451-0.44,0.986-0.784,1.605-1.031c0.619-0.246,1.291-0.369,2.015-0.369c0.619,0,1.196,0.094,1.731,0.283
		c0.535,0.188,1.092,0.472,1.668,0.85l-1.008,1.543c-0.367-0.241-0.766-0.44-1.195-0.599c-0.432-0.157-0.829-0.235-1.196-0.235
		s-0.708,0.078-1.022,0.235c-0.314,0.158-0.594,0.378-0.834,0.661c-0.242,0.284-0.432,0.625-0.566,1.023
		c-0.137,0.399-0.205,0.84-0.205,1.322c0,0.504,0.081,0.944,0.244,1.322s0.37,0.698,0.622,0.96c0.252,0.263,0.534,0.46,0.85,0.591
		c0.315,0.131,0.624,0.196,0.929,0.196c0.18,0,0.371-0.013,0.575-0.039s0.411-0.076,0.621-0.149c0.21-0.073,0.417-0.173,0.622-0.299
		s0.401-0.289,0.591-0.488L82.867,16.508z"/>
	<path fill="#111111" d="M87.26,9.566c0.157-0.273,0.364-0.525,0.622-0.756c0.257-0.23,0.543-0.425,0.857-0.583
		c0.315-0.157,0.646-0.268,0.991-0.33c0.347-0.063,0.692-0.058,1.039,0.016V9.96c-0.367-0.063-0.756-0.063-1.164,0
		c-0.41,0.063-0.787,0.187-1.135,0.369c-0.347,0.185-0.635,0.434-0.865,0.748s-0.347,0.698-0.347,1.149v5.431h-2.424V8.118h2.424
		L87.26,9.566L87.26,9.566z"/>
	<path fill="#111111" d="M90.816,8.826C91.551,8.396,92.266,8.12,92.958,8c0.692-0.121,1.315-0.171,1.873-0.149
		c0.524,0.021,1.015,0.104,1.472,0.251c0.456,0.147,0.855,0.36,1.196,0.638c0.341,0.278,0.608,0.617,0.803,1.016
		s0.291,0.866,0.291,1.401v4.25c0,0.23,0.015,0.515,0.04,0.85c0.025,0.336,0.128,0.803,0.307,1.401H96.2l-0.017-0.992
		c-0.156,0.221-0.339,0.407-0.543,0.56c-0.205,0.151-0.423,0.28-0.652,0.386c-0.231,0.104-0.463,0.181-0.692,0.228
		c-0.231,0.048-0.451,0.071-0.661,0.071c-0.462,0-0.91-0.068-1.347-0.205c-0.437-0.136-0.82-0.336-1.156-0.598
		c-0.336-0.263-0.606-0.591-0.812-0.984c-0.204-0.394-0.307-0.853-0.307-1.377c0-0.65,0.122-1.22,0.369-1.708
		c0.246-0.488,0.619-0.879,1.118-1.173c0.498-0.294,1.13-0.49,1.896-0.59c0.767-0.1,1.67-0.087,2.707,0.039
		c0.012-0.409-0.108-0.75-0.36-1.023c-0.252-0.272-0.567-0.456-0.944-0.551c-0.23-0.053-0.482-0.073-0.756-0.063
		c-0.273,0.011-0.546,0.048-0.818,0.11c-0.272,0.063-0.541,0.142-0.803,0.236c-0.263,0.095-0.494,0.199-0.693,0.314L90.816,8.826z
		 M93.902,16.146c0.262,0,0.523-0.053,0.787-0.158c0.262-0.104,0.498-0.246,0.707-0.425c0.211-0.178,0.384-0.391,0.521-0.638
		c0.138-0.246,0.205-0.506,0.205-0.779V12.95c-1.322-0.178-2.296-0.126-2.921,0.157c-0.624,0.284-0.938,0.725-0.938,1.323
		c0,0.619,0.158,1.06,0.473,1.322C93.052,16.015,93.439,16.146,93.902,16.146z"/>
	<path fill="#111111" d="M109.124,16.508c-0.504,0.504-1.069,0.863-1.7,1.078c-0.629,0.216-1.273,0.323-1.936,0.323
		c-0.725,0-1.391-0.132-2-0.394c-0.608-0.263-1.137-0.617-1.582-1.063c-0.445-0.446-0.792-0.974-1.038-1.582
		c-0.247-0.608-0.37-1.26-0.37-1.952c0-0.756,0.126-1.445,0.378-2.07c0.252-0.624,0.603-1.156,1.056-1.598
		c0.45-0.44,0.985-0.784,1.604-1.031c0.619-0.246,1.291-0.369,2.015-0.369c0.619,0,1.196,0.094,1.731,0.283
		c0.534,0.188,1.092,0.472,1.669,0.85l-1.008,1.543c-0.367-0.241-0.767-0.44-1.196-0.599c-0.431-0.157-0.829-0.235-1.196-0.235
		s-0.708,0.078-1.023,0.235c-0.313,0.158-0.592,0.378-0.834,0.661c-0.24,0.284-0.43,0.625-0.565,1.023
		c-0.137,0.399-0.205,0.84-0.205,1.322c0,0.504,0.081,0.944,0.244,1.322s0.37,0.698,0.622,0.96c0.252,0.263,0.535,0.46,0.85,0.591
		c0.315,0.131,0.625,0.196,0.93,0.196c0.179,0,0.369-0.013,0.574-0.039s0.412-0.076,0.621-0.149
		c0.211-0.073,0.418-0.173,0.622-0.299c0.205-0.126,0.401-0.289,0.591-0.488L109.124,16.508z"/>
	<path fill="#111111" d="M110.273,19.216c0.44-0.105,0.832-0.226,1.172-0.362c0.342-0.136,0.639-0.299,0.891-0.488
		c0.252-0.188,0.465-0.411,0.639-0.669c0.172-0.257,0.316-0.554,0.433-0.889l-3.4-8.689h2.566l2.062,5.824l2.047-5.824h2.551
		l-3.086,8.374c-0.179,0.504-0.366,0.947-0.565,1.33c-0.2,0.383-0.42,0.764-0.661,1.142c-0.252,0.378-0.533,0.695-0.843,0.952
		s-0.636,0.47-0.976,0.638c-0.343,0.168-0.69,0.305-1.047,0.409c-0.357,0.104-0.71,0.205-1.056,0.3L110.273,19.216z"/>
</g>
</svg>
