<?xml version="1.0" encoding="utf-8"?>
<!-- Generator: Adobe Illustrator 16.0.0, SVG Export Plug-In . SVG Version: 6.00 Build 0)  -->
<!DOCTYPE svg PUBLIC "-//W3C//DTD SVG 1.1//EN" "http://www.w3.org/Graphics/SVG/1.1/DTD/svg11.dtd">
<svg version="1.1" id="레이어_1" xmlns="http://www.w3.org/2000/svg" xmlns:xlink="http://www.w3.org/1999/xlink" x="0px"
	 y="0px" width="476px" height="667px" viewBox="0 0 476 667" enable-background="new 0 0 476 667" xml:space="preserve">
<polyline fill="none" stroke="#000000" points="261,347 138,347 138,207 261,207 419.09,364 "/>
<polyline fill="none" stroke="#000000" points="138,207 6,207 6,661 131,661 "/>
<polyline fill="none" stroke="#000000" points="261,504 138,504 138,364 268,364 "/>
<polyline fill="none" stroke="#000000" points="262,661 139,661 139,521 268,521 "/>
<polyline fill="none" stroke="#000000" points="391,504 268,504 268,364 441.666,364 471,334.742 "/>
<polyline fill="none" stroke="#000000" points="391,661 268,661 268,521 441.666,521 471,491.395 471,6 "/>
</svg>
