<?xml version="1.0" encoding="utf-8"?>
<!-- Generator: Adobe Illustrator 16.0.0, SVG Export Plug-In . SVG Version: 6.00 Build 0)  -->
<!DOCTYPE svg PUBLIC "-//W3C//DTD SVG 1.1//EN" "http://www.w3.org/Graphics/SVG/1.1/DTD/svg11.dtd">
<svg version="1.1" id="레이어_1" xmlns="http://www.w3.org/2000/svg" xmlns:xlink="http://www.w3.org/1999/xlink" x="0px"
	 y="0px" width="7680px" height="2560px" viewBox="0 0 7680 2560" enable-background="new 0 0 7680 2560" xml:space="preserve">
<path fill="#FFFFFF" stroke="#000000" stroke-miterlimit="10" d="M7166.743,1974.836c110.893-76.999,173.067-163.873,184.799-258.21
	c8.051-64.741-7.931-132.422-47.5-201.16c-38.544-66.964-99.92-135.741-182.422-204.424
	c-80.984-67.417-183.145-135.436-303.642-202.166c-119.331-66.081-257.688-131.476-411.231-194.366
	c-153.529-62.885-323.497-123.778-505.181-180.988c-183.42-57.759-380.41-112.274-585.496-162.03
	c-426.684-103.518-883.372-185.893-1357.381-244.834c-509.642-63.369-1004.719-95.499-1471.477-95.499
	c-304.84,0-590.403,13.961-848.76,41.497c-256.984,27.388-483.45,67.815-673.105,120.159
	c-192.481,53.121-344.489,117.837-451.803,192.351c-110.894,77-173.069,163.875-184.799,258.211
	c-8.052,64.737,7.929,132.417,47.497,201.159c38.547,66.966,99.924,135.744,182.424,204.423
	c80.989,67.423,183.15,135.442,303.643,202.168c119.346,66.088,257.705,131.481,411.231,194.365
	c153.523,62.884,323.491,123.777,505.18,180.989c183.397,57.751,380.387,112.266,585.498,162.029
	c426.683,103.518,883.372,185.893,1357.38,244.834c509.629,63.37,1004.706,95.502,1471.476,95.502
	c304.848,0,590.41-13.962,848.758-41.497c256.987-27.39,483.453-67.817,673.107-120.16
	C6907.424,2114.067,7059.432,2049.351,7166.743,1974.836z M5193.077,2328.095c-466.735,0-961.78-32.13-1471.383-95.497
	c-937.796-116.61-1807.133-325.362-2447.869-587.802c-311.526-127.597-551.979-260.971-714.678-396.415
	c-168.371-140.166-245.639-276.397-229.658-404.913c23.114-185.886,243.059-341.471,636.055-449.933
	c383.129-105.738,909.314-161.628,1521.667-161.628c466.744,0,961.789,32.129,1471.387,95.497
	c937.796,116.611,1807.132,325.364,2447.866,587.803c311.528,127.6,551.981,260.973,714.678,396.415
	c168.37,140.165,245.638,276.398,229.656,404.913c-23.11,185.883-243.056,341.468-636.054,449.934
	C6331.608,2272.205,5805.425,2328.095,5193.077,2328.095z"/>
</svg>
