<?xml version="1.0" encoding="utf-8"?>
<!-- Generator: Adobe Illustrator 16.0.0, SVG Export Plug-In . SVG Version: 6.00 Build 0)  -->
<!DOCTYPE svg PUBLIC "-//W3C//DTD SVG 1.1//EN" "http://www.w3.org/Graphics/SVG/1.1/DTD/svg11.dtd">
<svg version="1.1" id="레이어_1" xmlns="http://www.w3.org/2000/svg" xmlns:xlink="http://www.w3.org/1999/xlink" x="0px"
	 y="0px" width="7680px" height="2560px" viewBox="0 0 7680 2560" enable-background="new 0 0 7680 2560" xml:space="preserve">
<path fill="none" d="M5326.813,1464.439c6.708-53.949-25.871-111.256-96.833-170.33c-68.846-57.315-170.643-113.773-302.562-167.807
	c-271.486-111.197-639.854-199.65-1037.247-249.062c-215.956-26.853-425.739-40.468-623.523-40.468
	c-259.439,0-482.348,23.673-644.627,68.458c-165.967,45.806-258.83,111.33-268.548,189.489
	c-6.708,53.949,25.871,111.256,96.832,170.33c68.853,57.317,170.649,113.775,302.562,167.806
	c271.485,111.198,639.853,199.65,1037.248,249.063c215.958,26.853,425.741,40.468,623.522,40.468
	c259.438,0,482.346-23.672,644.627-68.458C5224.231,1608.123,5317.095,1542.6,5326.813,1464.439z"/>
<path fill="#FFFFFF" stroke="#000000" stroke-miterlimit="10" d="M5328.799,1464.689c6.798-54.667-26.019-112.575-97.538-172.115
	c-69.011-57.45-170.983-114.014-303.083-168.12c-132.083-54.101-287.643-103.024-462.356-145.411
	c-180.865-43.881-374.459-78.8-575.402-103.787c-216.042-26.863-425.908-40.484-623.77-40.484
	c-259.616,0-482.707,23.698-645.157,68.532c-166.811,46.039-260.176,112.145-270.002,191.17
	c-6.798,54.667,26.019,112.575,97.537,172.114c69.01,57.448,170.982,114.011,303.083,168.119
	c132.077,54.098,287.636,103.021,462.356,145.411c180.876,43.883,374.469,78.802,575.401,103.786
	c216.04,26.862,425.907,40.482,623.77,40.482c259.618,0,482.711-23.697,645.159-68.531
	C5225.606,1609.82,5318.973,1543.716,5328.799,1464.689z M5058.596,1655.134c-162.388,44.815-385.411,68.503-644.959,68.503
	c-197.833,0-407.668-13.618-623.677-40.478c-397.501-49.426-765.983-137.908-1037.567-249.146
	c-132.031-54.079-233.937-110.603-302.888-168.002c-71.309-59.364-104.037-117.046-97.272-171.445
	c9.786-78.701,102.962-144.588,269.456-190.539c162.386-44.816,385.409-68.504,644.959-68.504
	c197.836,0,407.671,13.619,623.678,40.478c397.499,49.426,765.98,137.908,1037.566,249.146
	c132.038,54.082,233.944,110.606,302.888,168.002c71.311,59.364,104.038,117.047,97.273,171.445
	C5318.268,1543.295,5225.091,1609.183,5058.596,1655.134z"/>
</svg>
