<?xml version="1.0" encoding="utf-8"?>
<!-- Generator: Adobe Illustrator 16.0.0, SVG Export Plug-In . SVG Version: 6.00 Build 0)  -->
<!DOCTYPE svg PUBLIC "-//W3C//DTD SVG 1.1//EN" "http://www.w3.org/Graphics/SVG/1.1/DTD/svg11.dtd">
<svg version="1.1" id="레이어_1" xmlns="http://www.w3.org/2000/svg" xmlns:xlink="http://www.w3.org/1999/xlink" x="0px"
	 y="0px" width="7680px" height="2560px" viewBox="0 0 7680 2560" enable-background="new 0 0 7680 2560" xml:space="preserve">
<path fill="#FFFFFF" stroke="#000000" stroke-miterlimit="10" d="M5163.771,1444.166c6.045-48.62-23.138-100.119-86.736-153.066
	c-61.36-51.082-152.028-101.376-269.486-149.485c-117.443-48.102-255.756-91.602-411.096-129.289
	c-160.845-39.021-332.974-70.068-511.604-92.279c-192.084-23.884-378.681-35.995-554.606-35.995
	c-230.832,0-429.191,21.071-573.633,60.934c-148.331,40.938-231.354,99.726-240.094,170.007
	c-6.045,48.622,23.137,100.121,86.737,153.067c61.361,51.083,152.03,101.377,269.487,149.485
	c117.44,48.102,255.753,91.602,411.094,129.289c160.831,39.017,332.959,70.063,511.604,92.278
	c192.084,23.885,378.682,35.995,554.607,35.995c230.837,0,429.195-21.07,573.632-60.935
	C5072.009,1573.233,5155.033,1514.446,5163.771,1444.166z M4923.477,1613.45c-144.385,39.848-342.675,60.909-573.434,60.909
	c-175.893,0-362.458-12.108-554.515-35.989c-178.223-22.161-350.066-53.162-510.757-92.142
	c-155.184-37.644-293.426-81.089-410.887-129.13c-117.491-48.053-208.214-98.262-269.65-149.23
	c-63.743-52.884-93.006-104.287-86.977-152.782c8.699-69.958,91.534-128.526,239.551-169.376
	c144.382-39.847,342.672-60.909,573.434-60.909c175.894,0,362.459,12.108,554.515,35.989
	c178.223,22.162,350.065,53.163,510.757,92.142c155.184,37.643,293.427,81.089,410.888,129.13
	c117.49,48.053,208.214,98.261,269.649,149.23c63.743,52.883,93.007,104.286,86.977,152.781
	C5154.328,1514.033,5071.493,1572.603,4923.477,1613.45z"/>
</svg>
