<?xml version="1.0" encoding="utf-8"?>
<!-- Generator: Adobe Illustrator 16.0.0, SVG Export Plug-In . SVG Version: 6.00 Build 0)  -->
<!DOCTYPE svg PUBLIC "-//W3C//DTD SVG 1.1//EN" "http://www.w3.org/Graphics/SVG/1.1/DTD/svg11.dtd">
<svg version="1.1" id="레이어_1" xmlns="http://www.w3.org/2000/svg" xmlns:xlink="http://www.w3.org/1999/xlink" x="0px"
	 y="0px" width="70px" height="24px" viewBox="0 0 70 24" enable-background="new 0 0 70 24" xml:space="preserve">
<path fill="#00FFFF" stroke="#F7931E" stroke-miterlimit="10" d="M9.016,7.629c0.104,0.075,0.104,0.232,0,0.472
	C8.94,8.235,8.896,8.348,8.881,8.438C8.836,8.572,8.813,8.715,8.813,8.864v3.1c0.988-0.03,2.007-0.067,3.055-0.112
	c1.138-0.045,2.231-0.097,3.279-0.157l0.292,2.628L4.187,14.839c-0.314,0.015-0.614,0.054-0.898,0.112
	c-0.165,0.029-0.374,0.074-0.629,0.135c-0.374,0.105-0.606,0.12-0.696,0.045c-0.12-0.074-0.239-0.352-0.359-0.831l-0.449-2.156
	c0.599,0,1.333-0.015,2.201-0.045c0.719-0.015,1.468-0.03,2.246-0.045V7.517h1.932C8.356,7.517,8.851,7.554,9.016,7.629z
	 M14.406,2.485c0,1.558-0.053,2.95-0.157,4.178c-0.12,1.527-0.314,2.86-0.584,3.998l-3.234-0.067
	c0.21-0.749,0.382-1.587,0.517-2.516c0.149-0.988,0.225-1.924,0.225-2.808h-8.67V2.485H14.406z M7.533,15.962
	c0.12,0.075,0.12,0.255,0,0.539c-0.06,0.135-0.104,0.247-0.135,0.337c-0.03,0.15-0.045,0.301-0.045,0.449v2.291h13.072v2.808H4.029
	v-6.559h1.954C6.837,15.827,7.354,15.872,7.533,15.962z M20.066,1.542c0.135,0.075,0.135,0.27,0,0.584
	c-0.075,0.21-0.135,0.375-0.18,0.494c-0.045,0.21-0.067,0.427-0.067,0.651v6.424h2.853v2.92h-2.853v4.648h-3.324V1.385h1.864
	C19.303,1.385,19.872,1.438,20.066,1.542z"/>
<path fill="#00FFFF" stroke="#F7931E" stroke-miterlimit="10" d="M35.093,3.586c0.958,0.988,1.438,2.261,1.438,3.818
	c0,1.542-0.479,2.808-1.438,3.796c-1.063,1.093-2.546,1.64-4.447,1.64c-1.932,0-3.429-0.539-4.492-1.617
	c-0.958-0.973-1.438-2.246-1.438-3.818c0-1.557,0.479-2.83,1.438-3.818c1.078-1.108,2.575-1.662,4.492-1.662
	C32.547,1.924,34.029,2.478,35.093,3.586z M42.818,14.637v8.312h-3.323v-5.525h-13.14v-2.784L42.818,14.637z M28.691,5.45
	c-0.419,0.479-0.629,1.131-0.629,1.954c0,0.854,0.21,1.513,0.629,1.977c0.435,0.509,1.086,0.764,1.954,0.764
	c0.854,0,1.505-0.254,1.954-0.764c0.419-0.464,0.629-1.123,0.629-1.977c0-0.823-0.21-1.475-0.629-1.954
	c-0.449-0.509-1.101-0.764-1.954-0.764S29.141,4.941,28.691,5.45z M42.37,1.407c0.3,0.03,0.509,0.075,0.629,0.135
	c0.104,0.06,0.157,0.143,0.157,0.247c0,0.075-0.037,0.21-0.112,0.404c-0.075,0.195-0.127,0.352-0.157,0.472
	C42.842,2.86,42.82,3.062,42.82,3.271v3.841h2.853v2.92H42.82v3.571h-3.324V1.385h1.55C41.629,1.385,42.07,1.393,42.37,1.407z"/>
<path fill="#00FFFF" stroke="#F7931E" stroke-miterlimit="10" d="M59.71,2.485c0,2.561-0.801,4.807-2.403,6.738
	c-1.752,2.111-4.343,3.684-7.771,4.716c-0.271-0.463-0.562-0.92-0.876-1.369c-0.359-0.494-0.741-0.958-1.146-1.394
	c1.063-0.09,2.119-0.359,3.168-0.809c0.928-0.389,1.781-0.898,2.561-1.527c0.732-0.599,1.311-1.22,1.729-1.864
	c0.436-0.644,0.651-1.205,0.651-1.685h-7.099V2.485H59.71z M53.87,13.896c0.104,0.06,0.112,0.193,0.022,0.403
	c-0.061,0.12-0.104,0.218-0.136,0.292c-0.03,0.135-0.045,0.27-0.045,0.404v0.876h8.782v-2.065h2.201
	c0.748,0,1.197,0.037,1.348,0.111c0.104,0.061,0.098,0.202-0.021,0.428c-0.061,0.119-0.104,0.217-0.136,0.291
	c-0.045,0.135-0.067,0.262-0.067,0.383v7.929h-3.323v-0.472h-8.782v0.472h-3.324v-9.142h2.156
	C53.277,13.807,53.721,13.836,53.87,13.896z M53.713,20.027h8.782V18.32h-8.782V20.027z M65.37,1.407
	c0.3,0.03,0.509,0.075,0.629,0.135c0.104,0.06,0.157,0.143,0.157,0.247c0,0.075-0.037,0.21-0.112,0.404
	c-0.075,0.195-0.127,0.352-0.157,0.472C65.842,2.86,65.82,3.062,65.82,3.271v3.841h2.853v2.92H65.82v3.571h-3.324V1.385h1.55
	C64.629,1.385,65.07,1.393,65.37,1.407z"/>
</svg>
