<?xml version="1.0" encoding="utf-8"?>
<!-- Generator: Adobe Illustrator 16.0.0, SVG Export Plug-In . SVG Version: 6.00 Build 0)  -->
<!DOCTYPE svg PUBLIC "-//W3C//DTD SVG 1.1//EN" "http://www.w3.org/Graphics/SVG/1.1/DTD/svg11.dtd">
<svg version="1.1" id="레이어_1" xmlns="http://www.w3.org/2000/svg" xmlns:xlink="http://www.w3.org/1999/xlink" x="0px"
	 y="0px" width="70px" height="24px" viewBox="0 0 70 24" enable-background="new 0 0 70 24" xml:space="preserve">
<path fill="#00FFFF" stroke="#F7931E" stroke-miterlimit="10" d="M13.418,8.483c0.135,0.06,0.157,0.225,0.067,0.494
	c-0.03,0.105-0.053,0.188-0.067,0.247c-0.015,0.09-0.022,0.188-0.022,0.292v1.55h9.209v2.786H1.042v-2.786h9.074v-2.74h1.685
	C12.685,8.326,13.224,8.378,13.418,8.483z M13.62,1.587c0.18,0.135,0.135,0.427-0.135,0.876c0,0.314,0.188,0.689,0.562,1.123
	c0.404,0.479,0.951,0.936,1.64,1.37c0.778,0.479,1.64,0.869,2.583,1.168c1.093,0.345,2.246,0.547,3.459,0.606
	c-0.3,0.359-0.606,0.801-0.921,1.325c-0.3,0.449-0.584,0.929-0.854,1.438c-1.842-0.314-3.496-0.846-4.964-1.595
	c-1.513-0.764-2.583-1.625-3.212-2.583c-0.614,0.943-1.699,1.819-3.257,2.628c-1.497,0.779-3.077,1.325-4.739,1.64
	C3.498,9.165,3.176,8.73,2.816,8.281c-0.39-0.494-0.778-0.943-1.168-1.348c2.306-0.135,4.298-0.771,5.975-1.909
	c1.647-1.108,2.471-2.321,2.471-3.639h2.066C12.954,1.385,13.44,1.453,13.62,1.587z M18.876,16.119
	c1.438,0.734,2.156,1.686,2.156,2.854s-0.719,2.118-2.156,2.853c-1.632,0.839-3.983,1.258-7.053,1.258
	c-3.024,0-5.338-0.419-6.94-1.258c-1.423-0.748-2.134-1.699-2.134-2.853c0-1.168,0.711-2.119,2.134-2.854
	c1.617-0.822,3.931-1.234,6.94-1.234C14.893,14.885,17.244,15.297,18.876,16.119z M7.443,17.781c-0.854,0.285-1.28,0.697-1.28,1.236
	c0,0.522,0.427,0.95,1.28,1.278c0.988,0.375,2.448,0.563,4.38,0.563c1.991,0,3.496-0.188,4.515-0.563
	c0.868-0.328,1.303-0.756,1.303-1.278c0-0.539-0.435-0.951-1.303-1.236c-0.974-0.314-2.479-0.471-4.515-0.471
	C9.861,17.311,8.401,17.467,7.443,17.781z"/>
<path fill="#00FFFF" stroke="#F7931E" stroke-miterlimit="10" d="M30.398,7.36c0.09,0.06,0.104,0.202,0.045,0.427
	c-0.045,0.165-0.075,0.292-0.09,0.382c-0.015,0.165-0.008,0.33,0.022,0.494l0.629,7.479l0.719-0.09l1.056-0.068l0.472-8.736h1.954
	c0.719,0,1.152,0.053,1.303,0.157c0.104,0.06,0.098,0.21-0.021,0.449c-0.045,0.12-0.082,0.21-0.112,0.27
	c-0.03,0.105-0.045,0.21-0.045,0.314l-0.427,7.255l0.897-0.09c0.554-0.045,0.958-0.082,1.214-0.113
	c0.435-0.045,0.777-0.082,1.032-0.111l0.449,2.605c-2.216,0.225-4.327,0.426-6.334,0.604c-2.097,0.195-3.916,0.359-5.458,0.494
	c-0.329,0.017-0.644,0.053-0.943,0.112c-0.165,0.046-0.367,0.104-0.606,0.181c-0.27,0.09-0.449,0.104-0.539,0.045
	c-0.09-0.062-0.194-0.293-0.314-0.696l-0.606-2.313c0.464,0,1.019-0.017,1.662-0.045c0.435-0.03,1.011-0.062,1.729-0.091
	l-0.921-9.029h2.111C29.89,7.248,30.264,7.285,30.398,7.36z M38.529,3.092v2.74h-13.05v-2.74H38.529z M43.18,1.408
	c0.135,0.075,0.135,0.27,0,0.584c-0.076,0.21-0.136,0.375-0.181,0.494c-0.045,0.21-0.067,0.427-0.067,0.651v7.524h2.854v2.92h-2.854
	v9.229h-3.324V1.25h1.865C42.415,1.25,42.984,1.303,43.18,1.408z"/>
<path fill="#00FFFF" stroke="#F7931E" stroke-miterlimit="10" d="M59.822,2.351c0,2.561-0.801,4.807-2.403,6.738
	c-1.752,2.111-4.343,3.685-7.771,4.718c-0.271-0.466-0.563-0.923-0.877-1.372c-0.358-0.494-0.74-0.958-1.146-1.392
	c1.063-0.09,2.119-0.359,3.167-0.809c0.93-0.389,1.782-0.898,2.561-1.527c0.733-0.599,1.312-1.22,1.729-1.864
	c0.435-0.644,0.651-1.205,0.651-1.685h-7.099V2.351H59.822z M53.982,13.762c0.104,0.061,0.111,0.194,0.021,0.404
	c-0.061,0.119-0.104,0.217-0.135,0.291c-0.03,0.135-0.045,0.27-0.045,0.404v0.877h8.781v-2.066h2.201
	c0.75,0,1.198,0.037,1.348,0.111c0.104,0.061,0.099,0.203-0.021,0.428c-0.06,0.119-0.104,0.217-0.135,0.291
	c-0.045,0.135-0.066,0.264-0.066,0.383v7.928h-3.324v-0.471h-8.782v0.471h-3.324v-9.141h2.156
	C53.391,13.672,53.833,13.701,53.982,13.762z M53.825,19.893h8.782v-1.707h-8.782V19.893z M65.482,1.273
	c0.3,0.03,0.509,0.075,0.629,0.135c0.104,0.06,0.156,0.143,0.156,0.247c0,0.075-0.037,0.21-0.111,0.404
	c-0.075,0.195-0.127,0.352-0.157,0.472c-0.045,0.195-0.067,0.397-0.067,0.606v3.841h2.854v2.92h-2.854v3.571h-3.324V1.25h1.551
	C64.741,1.25,65.184,1.258,65.482,1.273z"/>
</svg>
