<?xml version="1.0" encoding="utf-8"?>
<!-- Generator: Adobe Illustrator 16.0.0, SVG Export Plug-In . SVG Version: 6.00 Build 0)  -->
<!DOCTYPE svg PUBLIC "-//W3C//DTD SVG 1.1//EN" "http://www.w3.org/Graphics/SVG/1.1/DTD/svg11.dtd">
<svg version="1.1" id="레이어_1" xmlns="http://www.w3.org/2000/svg" xmlns:xlink="http://www.w3.org/1999/xlink" x="0px"
	 y="0px" width="96px" height="24px" viewBox="0 0 96 24" enable-background="new 0 0 96 24" xml:space="preserve">
<path fill="#00FFFF" stroke="#F7931E" stroke-miterlimit="10" d="M13.307,3.201c0.974,0.988,1.46,2.261,1.46,3.818
	c0,1.542-0.486,2.808-1.46,3.796c-1.063,1.093-2.575,1.64-4.537,1.64s-3.481-0.539-4.56-1.617C3.236,9.865,2.75,8.592,2.75,7.02
	c0-1.557,0.486-2.83,1.46-3.818c1.078-1.108,2.598-1.662,4.56-1.662S12.243,2.093,13.307,3.201z M19.955,15.375
	c1.393,0.779,2.089,1.782,2.089,3.01c0,1.258-0.696,2.291-2.089,3.1c-1.542,0.898-3.706,1.348-6.491,1.348
	c-2.83,0-5.017-0.449-6.559-1.348c-1.378-0.809-2.066-1.842-2.066-3.1c0-1.228,0.688-2.23,2.066-3.01
	c1.558-0.868,3.743-1.303,6.559-1.303C16.249,14.072,18.413,14.507,19.955,15.375z M6.726,5.065C6.307,5.53,6.097,6.181,6.097,7.02
	c0,0.854,0.21,1.513,0.629,1.977C7.189,9.505,7.871,9.76,8.77,9.76c0.913,0,1.603-0.254,2.066-0.764
	c0.435-0.464,0.651-1.123,0.651-1.977c0-0.838-0.217-1.49-0.651-1.954C10.356,4.557,9.668,4.302,8.77,4.302S7.189,4.557,6.726,5.065
	z M9.488,17.037c-0.823,0.33-1.235,0.794-1.235,1.393c0,0.6,0.404,1.078,1.213,1.438c0.913,0.404,2.246,0.606,3.998,0.606
	c1.722,0,3.032-0.202,3.931-0.606c0.809-0.359,1.213-0.838,1.213-1.438c0-0.599-0.404-1.063-1.213-1.393
	c-0.884-0.374-2.179-0.562-3.886-0.562C11.742,16.476,10.401,16.663,9.488,17.037z M22.044,1.157c0.12,0.075,0.12,0.262,0,0.562
	c-0.06,0.165-0.104,0.292-0.135,0.382c-0.045,0.165-0.067,0.33-0.067,0.494v11.837h-3.324v-3.526h-3.616v-2.74h3.616V6.301h-3.616
	v-2.74h3.616V1h1.999C21.37,1,21.879,1.053,22.044,1.157z"/>
<path fill="#00FFFF" stroke="#F7931E" stroke-miterlimit="10" d="M46.526,10.793v2.695H24.964v-2.695H46.526z M42.798,15.869
	c1.438,0.734,2.156,1.685,2.156,2.853s-0.719,2.118-2.156,2.853c-1.632,0.838-3.983,1.258-7.053,1.258
	c-3.024,0-5.338-0.42-6.94-1.258c-1.423-0.749-2.134-1.699-2.134-2.853c0-1.168,0.711-2.118,2.134-2.853
	c1.617-0.823,3.931-1.235,6.94-1.235C38.814,14.634,41.166,15.046,42.798,15.869z M44.168,1.539v2.538H30.759v2.066h13.813v2.538
	h-17.25V1.539H44.168z M31.365,17.531c-0.854,0.285-1.28,0.696-1.28,1.235c0,0.524,0.427,0.951,1.28,1.28
	c0.988,0.374,2.448,0.562,4.38,0.562c1.991,0,3.496-0.188,4.515-0.562c0.868-0.329,1.303-0.756,1.303-1.28
	c0-0.539-0.435-0.95-1.303-1.235c-0.974-0.314-2.479-0.472-4.515-0.472C33.783,17.06,32.323,17.217,31.365,17.531z"/>
<path fill="#00FFFF" stroke="#F7931E" stroke-miterlimit="10" d="M56.769,6.054c0.09,0.06,0.082,0.202-0.022,0.427
	c-0.045,0.09-0.075,0.165-0.09,0.225c-0.03,0.09-0.037,0.18-0.022,0.27l0.337,3.414h3.302l0.517-4.492h2.066
	c0.749,0,1.198,0.06,1.348,0.18c0.075,0.075,0.037,0.24-0.112,0.494c-0.075,0.105-0.127,0.188-0.157,0.247
	c-0.045,0.105-0.067,0.202-0.067,0.292l-0.472,3.279h4.245v2.763h-7.322c0.104,0.045,0.157,0.128,0.157,0.247
	c0,0.061-0.045,0.188-0.135,0.382c-0.075,0.18-0.127,0.329-0.157,0.449c-0.045,0.18-0.067,0.367-0.067,0.562v2.291h9.411v2.875
	H47.964v-2.875h8.872v-3.931h-7.03v-2.763h3.998l-0.472-4.492h2.313C56.274,5.896,56.648,5.949,56.769,6.054z M67.572,2.438v2.808
	H49.985V2.438H67.572z"/>
<path fill="#00FFFF" stroke="#F7931E" stroke-miterlimit="10" d="M83.744,2.101c0,2.561-0.801,4.807-2.403,6.738
	c-1.752,2.111-4.343,3.684-7.771,4.717c-0.27-0.464-0.562-0.921-0.876-1.37c-0.359-0.494-0.741-0.958-1.146-1.393
	c1.063-0.09,2.119-0.359,3.167-0.809c0.929-0.389,1.782-0.898,2.561-1.527c0.733-0.599,1.311-1.22,1.729-1.864
	c0.435-0.644,0.651-1.205,0.651-1.685h-7.098V2.101H83.744z M77.904,13.511c0.104,0.06,0.112,0.194,0.022,0.404
	c-0.06,0.12-0.104,0.218-0.135,0.292c-0.03,0.135-0.045,0.27-0.045,0.404v0.876h8.782v-2.066h2.201c0.749,0,1.198,0.038,1.348,0.112
	c0.104,0.061,0.098,0.202-0.022,0.427c-0.06,0.12-0.104,0.218-0.135,0.292c-0.045,0.135-0.067,0.262-0.067,0.382v7.929h-3.324
	v-0.472h-8.782v0.472h-3.324v-9.142h2.156C77.313,13.421,77.755,13.451,77.904,13.511z M77.747,19.643h8.782v-1.707h-8.782V19.643z
	 M89.404,1.022c0.3,0.03,0.509,0.075,0.629,0.135c0.104,0.06,0.157,0.143,0.157,0.247c0,0.075-0.037,0.21-0.112,0.404
	c-0.075,0.195-0.127,0.352-0.157,0.472c-0.045,0.195-0.067,0.397-0.067,0.606v3.841h2.853v2.92h-2.853v3.571h-3.324V1h1.55
	C88.663,1,89.104,1.008,89.404,1.022z"/>
<g>
</g>
<g>
</g>
<g>
</g>
<g>
</g>
<g>
</g>
<g>
</g>
<g>
</g>
<g>
</g>
<g>
</g>
<g>
</g>
<g>
</g>
<g>
</g>
<g>
</g>
<g>
</g>
<g>
</g>
</svg>
