<?xml version="1.0" encoding="utf-8"?>
<!-- Generator: Adobe Illustrator 16.0.0, SVG Export Plug-In . SVG Version: 6.00 Build 0)  -->
<!DOCTYPE svg PUBLIC "-//W3C//DTD SVG 1.1//EN" "http://www.w3.org/Graphics/SVG/1.1/DTD/svg11.dtd">
<svg version="1.1" id="레이어_1" xmlns="http://www.w3.org/2000/svg" xmlns:xlink="http://www.w3.org/1999/xlink" x="0px"
	 y="0px" width="70px" height="24px" viewBox="0 0 70 24" enable-background="new 0 0 70 24" xml:space="preserve">
<path fill="#00FFFF" stroke="#F7931E" stroke-miterlimit="10" d="M9.105,7.629c0.104,0.075,0.104,0.232,0,0.472
	C9.03,8.235,8.985,8.348,8.971,8.438C8.926,8.572,8.903,8.715,8.903,8.864v3.1c0.988-0.03,2.007-0.067,3.055-0.112
	c1.138-0.045,2.231-0.097,3.279-0.157l0.292,2.628L4.276,14.839c-0.314,0.015-0.614,0.054-0.898,0.112
	c-0.165,0.029-0.374,0.074-0.629,0.135c-0.374,0.105-0.606,0.12-0.696,0.045c-0.12-0.074-0.239-0.352-0.359-0.831l-0.449-2.156
	c0.599,0,1.333-0.015,2.201-0.045c0.719-0.015,1.468-0.03,2.246-0.045V7.517h1.932C8.446,7.517,8.94,7.554,9.105,7.629z
	 M14.496,2.485c0,1.558-0.053,2.95-0.157,4.178c-0.12,1.527-0.314,2.86-0.584,3.998l-3.234-0.067
	c0.21-0.749,0.382-1.587,0.517-2.516c0.149-0.988,0.225-1.924,0.225-2.808h-8.67V2.485H14.496z M7.623,15.962
	c0.12,0.075,0.12,0.255,0,0.539c-0.06,0.135-0.104,0.247-0.135,0.337c-0.03,0.15-0.045,0.301-0.045,0.449v2.291h13.072v2.808H4.119
	v-6.559h1.954C6.927,15.827,7.443,15.872,7.623,15.962z M20.156,1.542c0.135,0.075,0.135,0.27,0,0.584
	c-0.075,0.21-0.135,0.375-0.18,0.494c-0.045,0.21-0.067,0.427-0.067,0.651v6.424h2.853v2.92h-2.853v4.648h-3.324V1.385h1.864
	C19.393,1.385,19.962,1.438,20.156,1.542z"/>
<path fill="#00FFFF" stroke="#F7931E" stroke-miterlimit="10" d="M35.183,3.586c0.958,0.988,1.438,2.261,1.438,3.818
	c0,1.542-0.479,2.808-1.438,3.796c-1.063,1.093-2.546,1.64-4.447,1.64c-1.932,0-3.429-0.539-4.492-1.617
	c-0.958-0.973-1.438-2.246-1.438-3.818c0-1.557,0.479-2.83,1.438-3.818c1.078-1.108,2.575-1.662,4.492-1.662
	C32.637,1.924,34.119,2.478,35.183,3.586z M42.909,22.948h-3.324v-5.525h-13.14v-2.784h16.464V22.948z M28.781,5.45
	c-0.419,0.479-0.629,1.131-0.629,1.954c0,0.854,0.21,1.513,0.629,1.977c0.435,0.509,1.086,0.764,1.954,0.764
	c0.854,0,1.505-0.254,1.954-0.764c0.419-0.464,0.629-1.123,0.629-1.977c0-0.823-0.21-1.475-0.629-1.954
	c-0.449-0.509-1.101-0.764-1.954-0.764S29.23,4.941,28.781,5.45z M42.46,1.407c0.3,0.03,0.509,0.075,0.629,0.135
	c0.104,0.06,0.157,0.143,0.157,0.247c0,0.075-0.037,0.21-0.112,0.404c-0.075,0.195-0.127,0.352-0.157,0.472
	C42.932,2.86,42.91,3.062,42.91,3.271v3.841h2.854v2.92H42.91v3.571h-3.324V1.385h1.55C41.719,1.385,42.16,1.393,42.46,1.407z"/>
<path fill="#00FFFF" stroke="#F7931E" stroke-miterlimit="10" d="M68.582,10.279v2.538H47.02v-2.538H68.582z M64.427,2.845
	c1.468,0.674,2.201,1.535,2.201,2.583c0,1.033-0.733,1.887-2.201,2.561c-1.616,0.749-3.833,1.123-6.647,1.123
	c-2.83,0-5.047-0.374-6.648-1.123c-1.468-0.674-2.201-1.527-2.201-2.561c0-1.048,0.733-1.909,2.201-2.583
	c1.604-0.719,3.818-1.078,6.648-1.078C60.594,1.767,62.811,2.126,64.427,2.845z M66.313,13.807v5.457H52.657v1.168H66.74v2.246
	H49.378v-5.615h13.611v-1.011H49.378v-2.245H66.313z M53.578,4.439c-0.885,0.24-1.325,0.562-1.325,0.966
	c0,0.39,0.44,0.711,1.325,0.966c0.974,0.27,2.357,0.404,4.154,0.404c1.813,0,3.213-0.135,4.201-0.404
	c0.912-0.254,1.369-0.576,1.369-0.966c0-0.404-0.457-0.726-1.369-0.966C60.96,4.2,59.561,4.08,57.732,4.08
	C55.922,4.08,54.536,4.2,53.578,4.439z"/>
</svg>
