<?xml version="1.0" encoding="utf-8"?>
<!-- Generator: Adobe Illustrator 16.0.0, SVG Export Plug-In . SVG Version: 6.00 Build 0)  -->
<!DOCTYPE svg PUBLIC "-//W3C//DTD SVG 1.1//EN" "http://www.w3.org/Graphics/SVG/1.1/DTD/svg11.dtd">
<svg version="1.1" id="레이어_1" xmlns="http://www.w3.org/2000/svg" xmlns:xlink="http://www.w3.org/1999/xlink" x="0px"
	 y="0px" width="1200px" height="300px" viewBox="0 0 1200 300" enable-background="new 0 0 1200 300" xml:space="preserve">
<path fill="#00FFFF" stroke="#F7931E" stroke-miterlimit="10" d="M169.629,23.73c0,36.525-9.769,67.676-29.297,93.457
	c-21.094,28.322-53.613,49.612-97.559,63.868c-3.127-6.053-7.031-12.498-11.719-19.337c-4.102-5.858-8.597-11.814-13.477-17.871
	c14.451-1.758,28.125-5.759,41.016-12.012c11.719-5.466,22.165-12.4,31.348-20.801c8.396-8.006,14.941-16.502,19.629-25.488
	c4.688-8.981,7.031-17.381,7.031-25.195H33.105V23.73H169.629z M244.629,197.754c18.164,10.158,27.246,23.049,27.246,38.672
	c0,16.215-9.082,29.59-27.246,40.137c-20.315,11.72-48.633,17.578-84.961,17.578S95.114,288.281,75,276.563
	c-17.972-10.547-26.953-23.922-26.953-40.137c0-15.623,8.981-28.514,26.953-38.672c20.114-11.324,48.34-16.992,84.668-16.992
	S224.313,186.43,244.629,197.754z M108.691,219.434c-10.547,4.299-15.82,10.158-15.82,17.578c0,7.814,5.273,13.967,15.82,18.457
	c11.521,5.273,28.514,7.91,50.977,7.91c22.458,0,39.551-2.637,51.27-7.91c10.739-4.49,16.113-10.643,16.113-18.457
	c0-7.42-5.273-13.279-15.82-17.578c-11.916-4.879-28.908-7.324-50.977-7.324C137.595,212.109,120.41,214.555,108.691,219.434z
	 M270.41,11.426c1.364,1.172,1.465,3.909,0.293,8.203c-0.783,2.151-1.272,3.809-1.465,4.98c-0.394,2.344-0.586,4.592-0.586,6.738
	v153.516h-43.359v-38.672h-50.684v-34.863h50.684V85.254h-50.684V50.391h50.684V9.375h26.074
	C261.717,9.375,268.066,10.062,270.41,11.426z"/>
<path fill="#00FFFF" stroke="#F7931E" stroke-miterlimit="10" d="M428.906,18.457c1.364,0.979,1.172,3.42-0.586,7.324
	c-0.783,2.151-1.369,3.909-1.759,5.273c-0.586,2.151-0.879,4.299-0.879,6.445c0,15.628,5.859,32.327,17.578,50.098
	c13.478,20.705,31.349,36.035,53.613,45.996c-5.667,4.299-11.233,9.183-16.699,14.648c-5.272,5.272-10.158,10.743-14.647,16.405
	c-12.698-7.617-24.71-17.38-36.035-29.296c-11.526-12.305-19.144-23.533-22.852-33.691c-3.713,11.719-11.133,24.023-22.266,36.914
	c-12.112,13.87-25.686,24.807-40.723,32.813c-4.102-4.489-9.279-9.471-15.527-14.94c-6.253-5.467-12.209-10.057-17.871-13.771
	c24.023-11.521,42.087-26.756,54.199-45.703c13.669-21.482,20.508-48.436,20.508-80.859h26.66
	C421.188,16.113,426.951,16.896,428.906,18.457z M533.789,196.875c17.967,10.158,26.953,23.145,26.953,38.965
	c0,16.406-8.986,29.883-26.953,40.43c-19.922,11.912-47.754,17.871-83.496,17.871c-36.136,0-64.261-5.959-84.375-17.871
	c-17.972-10.547-26.953-24.022-26.953-40.43c0-15.82,8.981-28.807,26.953-38.965c20.114-11.325,48.239-16.992,84.375-16.992
	C485.838,179.883,513.67,185.55,533.789,196.875z M399.316,218.262c-10.547,4.495-15.82,10.451-15.82,17.871
	c0,8.203,5.273,14.648,15.82,19.336c11.521,5.273,28.514,7.91,50.977,7.91c21.872,0,38.475-2.637,49.805-7.91
	c10.548-4.688,15.82-11.133,15.82-19.336c0-7.42-5.178-13.376-15.527-17.871c-11.525-4.688-28.028-7.031-49.512-7.031
	C428.416,211.23,411.228,213.574,399.316,218.262z M549.902,9.668c3.903,0.394,6.638,0.979,8.202,1.758
	c1.364,0.783,2.052,1.858,2.052,3.223c0,0.979-0.49,2.737-1.465,5.273c-0.979,2.541-1.662,4.592-2.052,6.152
	c-0.586,2.541-0.879,5.178-0.879,7.91v50.098h37.207v38.086h-37.207v62.402h-43.359V9.375h20.216
	C540.234,9.375,545.993,9.476,549.902,9.668z"/>
<path fill="#00FFFF" stroke="#F7931E" stroke-miterlimit="10" d="M890.625,134.18v32.227H771.68V187.5h89.355v103.125h-43.359
	v-66.504H638.965V187.5h90.234v-21.094H609.375V134.18H890.625z M684.375,14.355c1.172,0.783,1.268,2.637,0.293,5.566
	c-0.394,1.369-0.687,2.444-0.879,3.223c-0.197,1.172-0.293,2.444-0.293,3.809v11.719h134.18V12.891h26.367
	c9.764,0,15.72,0.49,17.871,1.465c1.561,0.783,1.758,2.737,0.586,5.859c-0.394,1.565-0.783,2.737-1.172,3.516
	c-0.197,1.758-0.293,3.42-0.293,4.98v93.164H640.137V12.891h29.004C677.536,12.891,682.617,13.381,684.375,14.355z M683.496,89.941
	h134.18V70.313h-134.18V89.941z"/>
<path fill="#00FFFF" stroke="#F7931E" stroke-miterlimit="10" d="M1071.094,168.164c1.562,1.172,1.562,3.809,0,7.91
	c-0.979,2.344-1.662,4.299-2.051,5.859c-0.586,2.344-0.879,4.787-0.879,7.323v29.884h122.461v37.5h-281.25v-37.5h115.723v-53.027
	h24.023C1061.229,166.113,1068.553,166.8,1071.094,168.164z M1159.863,28.125v36.621H983.496v55.078h181.641v36.328h-225V28.125
	H1159.863z"/>
</svg>
