<?xml version="1.0" encoding="utf-8"?>
<!-- Generator: Adobe Illustrator 16.0.0, SVG Export Plug-In . SVG Version: 6.00 Build 0)  -->
<!DOCTYPE svg PUBLIC "-//W3C//DTD SVG 1.1//EN" "http://www.w3.org/Graphics/SVG/1.1/DTD/svg11.dtd">
<svg version="1.1" id="레이어_1" xmlns="http://www.w3.org/2000/svg" xmlns:xlink="http://www.w3.org/1999/xlink" x="0px"
	 y="0px" width="70px" height="24px" viewBox="0 0 70 24" enable-background="new 0 0 70 24" xml:space="preserve">
<path fill="#00FFFF" stroke="#F7931E" stroke-miterlimit="10" d="M22.604,13.536h-9.209v9.411h-3.302v-9.411H1.042v-2.808h14.892
	c0.225-0.973,0.396-1.917,0.517-2.83c0.12-0.958,0.18-1.894,0.18-2.808H3.108V2.283h17.228c0,1.482-0.067,2.89-0.202,4.223
	c-0.135,1.393-0.359,2.8-0.674,4.223h3.145L22.604,13.536L22.604,13.536z"/>
<path fill="#00FFFF" stroke="#F7931E" stroke-miterlimit="10" d="M43.336,2.822v7.322H29.702V12.3h14.016v2.695h-7.255v0.358v0.181
	v1.932h9.143v2.875H24.042v-2.875h9.119v-2.471H26.4V7.427h13.611V5.563H26.4v-2.74L43.336,2.822z"/>
<path fill="#00FFFF" stroke="#F7931E" stroke-miterlimit="10" d="M59.822,2.485c0,2.561-0.801,4.807-2.403,6.738
	c-1.752,2.111-4.343,3.684-7.771,4.716c-0.271-0.463-0.563-0.92-0.877-1.369c-0.358-0.494-0.74-0.958-1.146-1.395
	c1.063-0.09,2.119-0.359,3.167-0.809c0.931-0.389,1.782-0.898,2.562-1.527c0.732-0.599,1.312-1.22,1.729-1.864
	c0.436-0.644,0.65-1.205,0.65-1.685h-7.099V2.485H59.822z M53.982,13.896c0.104,0.06,0.11,0.192,0.021,0.402
	c-0.062,0.12-0.104,0.219-0.135,0.292c-0.03,0.136-0.045,0.271-0.045,0.404v0.876h8.78v-2.064h2.201c0.75,0,1.198,0.036,1.348,0.11
	c0.104,0.062,0.1,0.202-0.021,0.429c-0.06,0.118-0.104,0.217-0.135,0.29c-0.045,0.136-0.065,0.263-0.065,0.384v7.929h-3.324v-0.472
	h-8.782v0.472h-3.324v-9.142h2.156C53.391,13.807,53.833,13.836,53.982,13.896z M53.825,20.027h8.782V18.32h-8.782V20.027z
	 M65.482,1.407c0.3,0.03,0.509,0.075,0.629,0.135c0.104,0.06,0.156,0.143,0.156,0.247c0,0.075-0.037,0.21-0.111,0.404
	c-0.075,0.195-0.127,0.352-0.157,0.472c-0.045,0.195-0.067,0.397-0.067,0.606v3.841h2.854v2.92h-2.854v3.571h-3.324V1.385h1.552
	C64.741,1.385,65.184,1.393,65.482,1.407z"/>
</svg>
