<?xml version="1.0" encoding="utf-8"?>
<!-- Generator: Adobe Illustrator 16.0.0, SVG Export Plug-In . SVG Version: 6.00 Build 0)  -->
<!DOCTYPE svg PUBLIC "-//W3C//DTD SVG 1.1//EN" "http://www.w3.org/Graphics/SVG/1.1/DTD/svg11.dtd">
<svg version="1.1" id="레이어_1" xmlns="http://www.w3.org/2000/svg" xmlns:xlink="http://www.w3.org/1999/xlink" x="0px"
	 y="0px" width="600px" height="300px" viewBox="0 0 600 300" enable-background="new 0 0 600 300" xml:space="preserve">
<path fill="#00FFFF" stroke="#F7931E" stroke-miterlimit="10" d="M125.098,29.297c1.561,1.172,1.172,4.102-1.172,8.789
	c-0.979,1.955-1.662,3.42-2.051,4.395c-0.783,1.758-1.272,3.516-1.465,5.273c-1.172,4.299-1.955,10.254-2.344,17.871
	c-0.197,6.643-0.293,15.432-0.293,26.367c0,20.705,7.42,44.143,22.266,70.313c15.623,27.15,33.398,46.098,53.32,56.836
	c-5.667,3.909-11.623,8.693-17.871,14.355c-6.839,5.859-12.209,11.232-16.113,16.113c-13.088-9.567-26.367-24.998-39.844-46.289
	c-12.891-20.312-20.608-37.106-23.146-50.391c-4.299,15.233-11.33,31.447-21.094,48.633c-12.305,20.9-25.781,36.914-40.43,48.047
	c-4.495-4.295-9.865-8.885-16.113-13.771c-6.253-5.075-11.916-9.375-16.992-12.891c24.802-18.164,43.652-43.359,56.543-75.586
	c13.67-33.59,20.509-73.923,20.509-120.995h24.609C115.525,26.367,122.754,27.347,125.098,29.297z M271.875,11.133
	c1.95,1.172,2.051,3.909,0.293,8.203c-1.172,2.541-1.955,4.688-2.344,6.445c-0.783,2.93-1.172,5.859-1.172,8.789v256.055h-43.359
	V143.262h-49.512v-36.621h49.512V9.375h23.73C261.914,9.375,269.531,9.961,271.875,11.133z"/>
<path fill="#00FFFF" stroke="#F7931E" stroke-miterlimit="10" d="M590.625,159.668H471.68v11.719h89.648v71.191H382.617v15.234
	h183.983v29.297H340.137v-73.242h177.539v-13.477H340.137v-29.005h88.478v-11.719H309.375V126.27h281.25V159.668z M536.426,29.004
	c19.14,8.986,28.711,20.901,28.711,35.742c0,14.456-9.571,26.271-28.711,35.449c-20.9,9.961-49.805,14.941-86.719,14.941
	c-37.111,0-66.02-4.98-86.719-14.941c-19.145-9.178-28.711-20.993-28.711-35.449c0-14.841,9.566-26.756,28.711-35.742
	c20.699-9.764,49.607-14.648,86.719-14.648C486.813,14.355,515.721,19.24,536.426,29.004z M394.922,49.512
	c-11.525,3.516-17.285,8.496-17.285,14.941c0,6.057,5.76,10.84,17.285,14.355c12.305,3.713,30.368,5.566,54.199,5.566
	c24.022,0,42.283-1.854,54.785-5.566c11.911-3.516,17.871-8.299,17.871-14.355c0-6.445-5.96-11.426-17.871-14.941
	c-12.306-3.318-30.569-4.98-54.785-4.98C425.098,44.531,407.029,46.193,394.922,49.512z"/>
</svg>
