<?xml version="1.0" encoding="utf-8"?>
<!-- Generator: Adobe Illustrator 16.0.0, SVG Export Plug-In . SVG Version: 6.00 Build 0)  -->
<!DOCTYPE svg PUBLIC "-//W3C//DTD SVG 1.1//EN" "http://www.w3.org/Graphics/SVG/1.1/DTD/svg11.dtd">
<svg version="1.1" id="레이어_1" xmlns="http://www.w3.org/2000/svg" xmlns:xlink="http://www.w3.org/1999/xlink" x="0px"
	 y="0px" width="70px" height="24px" viewBox="0 0 70 24" enable-background="new 0 0 70 24" xml:space="preserve">
<path fill="#00FFFF" stroke="#F7931E" stroke-miterlimit="10" d="M14.204,8.482c0.135,0.06,0.157,0.225,0.067,0.494
	c-0.03,0.105-0.053,0.188-0.067,0.247c-0.015,0.09-0.022,0.188-0.022,0.292v1.55h9.209v2.785H1.828v-2.785h9.074v-2.74h1.685
	C13.47,8.325,14.009,8.378,14.204,8.482z M14.406,1.587c0.18,0.135,0.135,0.427-0.135,0.876c0,0.314,0.188,0.689,0.562,1.123
	c0.404,0.479,0.951,0.936,1.64,1.37c0.778,0.479,1.64,0.869,2.583,1.168c1.093,0.345,2.246,0.547,3.459,0.606
	c-0.3,0.359-0.606,0.801-0.921,1.325c-0.3,0.449-0.584,0.929-0.854,1.438c-1.842-0.314-3.496-0.846-4.964-1.595
	c-1.513-0.764-2.583-1.625-3.212-2.583c-0.614,0.943-1.699,1.819-3.257,2.628C7.81,8.722,6.23,9.269,4.568,9.583
	C4.284,9.164,3.961,8.729,3.602,8.28c-0.39-0.494-0.778-0.943-1.168-1.348c2.306-0.134,4.298-0.77,5.975-1.909
	c1.647-1.108,2.471-2.321,2.471-3.639h2.066C13.74,1.385,14.226,1.452,14.406,1.587z M19.662,16.119
	c1.438,0.734,2.156,1.686,2.156,2.854s-0.719,2.117-2.156,2.853c-1.632,0.838-3.983,1.258-7.053,1.258
	c-3.024,0-5.338-0.42-6.94-1.258c-1.423-0.749-2.134-1.699-2.134-2.853c0-1.168,0.711-2.119,2.134-2.854
	c1.617-0.823,3.931-1.235,6.94-1.235C15.678,14.884,18.03,15.296,19.662,16.119z M8.229,17.781c-0.854,0.285-1.28,0.695-1.28,1.234
	c0,0.524,0.427,0.951,1.28,1.28c0.988,0.374,2.448,0.562,4.38,0.562c1.991,0,3.496-0.188,4.515-0.562
	c0.868-0.329,1.303-0.756,1.303-1.28c0-0.539-0.435-0.949-1.303-1.234c-0.974-0.314-2.479-0.473-4.515-0.473
	C10.647,17.311,9.187,17.467,8.229,17.781z"/>
<path fill="#00FFFF" stroke="#F7931E" stroke-miterlimit="10" d="M31.184,7.359c0.09,0.06,0.104,0.202,0.045,0.427
	c-0.045,0.165-0.075,0.292-0.09,0.382c-0.015,0.165-0.008,0.33,0.022,0.494l0.629,7.479l0.719-0.09l1.056-0.066l0.472-8.737h1.954
	c0.72,0,1.153,0.053,1.304,0.157c0.104,0.06,0.098,0.21-0.021,0.449c-0.045,0.12-0.082,0.21-0.112,0.27
	c-0.03,0.105-0.045,0.21-0.045,0.314l-0.427,7.254l0.897-0.09c0.554-0.045,0.958-0.082,1.213-0.111
	c0.435-0.045,0.778-0.082,1.033-0.112l0.449,2.604c-2.216,0.226-4.328,0.428-6.334,0.606c-2.097,0.195-3.916,0.359-5.458,0.494
	c-0.329,0.017-0.644,0.053-0.943,0.112c-0.165,0.045-0.367,0.104-0.606,0.18c-0.27,0.09-0.449,0.104-0.539,0.045
	c-0.09-0.059-0.194-0.292-0.314-0.695l-0.606-2.313c0.464,0,1.019-0.015,1.662-0.045c0.435-0.03,1.011-0.06,1.729-0.091L27.95,7.247
	h2.111C30.675,7.247,31.049,7.285,31.184,7.359z M39.314,3.092v2.74H26.265v-2.74H39.314z M43.965,1.407
	c0.135,0.075,0.135,0.27,0,0.584c-0.074,0.21-0.135,0.375-0.18,0.494c-0.045,0.21-0.067,0.427-0.067,0.651v7.524h2.853v2.92h-2.853
	v9.23h-3.323V1.25h1.863C43.201,1.25,43.771,1.303,43.965,1.407z"/>
<path fill="#00FFFF" stroke="#F7931E" stroke-miterlimit="10" d="M60.316,2.238c0.119,0.075,0.135,0.247,0.045,0.517
	c-0.045,0.135-0.075,0.24-0.09,0.314c-0.016,0.12-0.022,0.24-0.022,0.359v9.298H49.131V2.081h2.09c0.748,0,1.204,0.053,1.369,0.157
	C52.693,2.313,52.702,2.5,52.611,2.8c-0.06,0.165-0.098,0.292-0.111,0.382c-0.029,0.165-0.045,0.33-0.045,0.494v1.258h4.492V2.081
	h1.932C59.657,2.081,60.137,2.134,60.316,2.238z M65.818,15.625c1.394,0.779,2.09,1.782,2.09,3.01c0,1.258-0.696,2.291-2.09,3.1
	c-1.541,0.898-3.705,1.349-6.49,1.349c-2.83,0-5.018-0.449-6.559-1.349c-1.379-0.809-2.066-1.842-2.066-3.1
	c0-1.228,0.688-2.23,2.066-3.01c1.558-0.868,3.742-1.303,6.559-1.303C62.113,14.322,64.277,14.757,65.818,15.625z M52.455,10.055
	h4.492V7.629h-4.492V10.055z M55.354,17.287c-0.824,0.33-1.235,0.794-1.235,1.393c0,0.6,0.403,1.078,1.213,1.438
	c0.913,0.403,2.246,0.606,3.998,0.606c1.722,0,3.032-0.203,3.931-0.606c0.809-0.359,1.213-0.839,1.213-1.438
	c0-0.599-0.404-1.063-1.213-1.393c-0.884-0.374-2.179-0.563-3.886-0.563C57.605,16.727,56.266,16.913,55.354,17.287z M67.908,1.407
	c0.119,0.075,0.119,0.262,0,0.562c-0.061,0.165-0.104,0.292-0.135,0.382c-0.045,0.165-0.067,0.33-0.067,0.494v11.836h-3.324v-3.525
	h-3.616v-2.74h3.616V6.551h-3.616v-2.74h3.616V1.25h1.999C67.234,1.25,67.743,1.303,67.908,1.407z"/>
</svg>
