<?xml version="1.0" encoding="utf-8"?>
<!-- Generator: Adobe Illustrator 16.0.0, SVG Export Plug-In . SVG Version: 6.00 Build 0)  -->
<!DOCTYPE svg PUBLIC "-//W3C//DTD SVG 1.1//EN" "http://www.w3.org/Graphics/SVG/1.1/DTD/svg11.dtd">
<svg version="1.1" id="레이어_1" xmlns="http://www.w3.org/2000/svg" xmlns:xlink="http://www.w3.org/1999/xlink" x="0px"
	 y="0px" width="70px" height="24px" viewBox="0 0 70 24" enable-background="new 0 0 70 24" xml:space="preserve">
<path fill="#00FFFF" stroke="#F7931E" stroke-miterlimit="10" d="M13.53,2.351c0,2.561-0.801,4.807-2.403,6.738
	c-1.752,2.111-4.343,3.685-7.771,4.718c-0.27-0.465-0.562-0.922-0.876-1.371c-0.359-0.494-0.741-0.958-1.146-1.393
	c1.063-0.09,2.119-0.359,3.167-0.809C5.43,9.845,6.283,9.336,7.062,8.707c0.733-0.599,1.311-1.22,1.729-1.864
	c0.435-0.644,0.651-1.205,0.651-1.685H2.345V2.351H13.53z M18.135,15.736c1.378,0.779,2.066,1.768,2.066,2.966
	c0,1.213-0.688,2.224-2.066,3.032c-1.527,0.897-3.646,1.348-6.356,1.348c-2.755,0-4.904-0.449-6.446-1.348
	c-1.378-0.81-2.066-1.819-2.066-3.032c0-1.198,0.688-2.187,2.066-2.966c1.542-0.867,3.691-1.303,6.446-1.303
	C14.488,14.436,16.607,14.869,18.135,15.736z M7.915,17.398c-0.809,0.33-1.213,0.778-1.213,1.349c0,0.569,0.396,1.032,1.19,1.394
	c0.898,0.389,2.193,0.584,3.886,0.584c1.647,0,2.912-0.195,3.796-0.584c0.794-0.359,1.19-0.824,1.19-1.394
	c0-0.57-0.396-1.019-1.19-1.349c-0.884-0.373-2.134-0.562-3.751-0.562C10.116,16.838,8.813,17.025,7.915,17.398z M19.19,1.272
	c0.3,0.03,0.509,0.075,0.629,0.135c0.104,0.06,0.157,0.143,0.157,0.247c0,0.075-0.037,0.21-0.112,0.404
	c-0.075,0.195-0.127,0.352-0.157,0.472c-0.045,0.195-0.067,0.397-0.067,0.606v3.841h2.853v2.92H19.64v4.785h-3.324V1.25h1.55
	C18.449,1.25,18.891,1.258,19.19,1.272z"/>
<path fill="#00FFFF" stroke="#F7931E" stroke-miterlimit="10" d="M28.13,2.238C28.25,2.313,28.257,2.5,28.152,2.8
	c-0.045,0.15-0.082,0.27-0.112,0.359c-0.03,0.15-0.045,0.307-0.045,0.472v5.795h1.235c1.183,0,2.568-0.06,4.155-0.18
	c1.962-0.149,3.608-0.344,4.941-0.584l0.314,2.875c-1.633,0.225-3.625,0.412-5.976,0.562c-2.097,0.135-3.908,0.202-5.436,0.202
	h-2.561V2.104h1.909C27.434,2.104,27.95,2.148,28.13,2.238z M42.641,14.322v8.445h-3.324v-0.494h-9.39v0.494h-3.324v-8.445H42.641z
	 M29.927,19.734h9.39v-2.875h-9.39V19.734z M42.189,1.272c0.301,0.03,0.51,0.075,0.629,0.135c0.104,0.06,0.158,0.143,0.158,0.247
	c0,0.075-0.037,0.21-0.112,0.404c-0.075,0.195-0.128,0.352-0.157,0.472c-0.045,0.195-0.066,0.397-0.066,0.606v3.841h2.853v2.92
	h-2.853v3.571h-3.324V1.25h1.55C41.449,1.25,41.891,1.258,42.189,1.272z"/>
<path fill="#00FFFF" stroke="#F7931E" stroke-miterlimit="10" d="M59.529,2.351c0,2.561-0.801,4.807-2.402,6.738
	c-1.752,2.111-4.343,3.685-7.771,4.718c-0.27-0.465-0.562-0.922-0.875-1.371c-0.359-0.494-0.741-0.958-1.146-1.393
	c1.063-0.09,2.119-0.359,3.167-0.809c0.929-0.389,1.782-0.898,2.562-1.527c0.732-0.599,1.311-1.22,1.729-1.864
	c0.436-0.644,0.65-1.205,0.65-1.685h-7.098V2.351H59.529z M53.689,13.761c0.104,0.06,0.112,0.194,0.022,0.404
	c-0.06,0.12-0.104,0.218-0.135,0.292c-0.03,0.135-0.045,0.27-0.045,0.404v0.875h8.782v-2.065h2.201c0.748,0,1.197,0.038,1.348,0.112
	c0.104,0.061,0.098,0.201-0.022,0.427c-0.06,0.12-0.104,0.218-0.135,0.292c-0.045,0.135-0.067,0.262-0.067,0.382v7.929h-3.324
	v-0.472h-8.781v0.472h-3.324v-9.142h2.156C53.1,13.671,53.541,13.701,53.689,13.761z M53.533,19.893h8.781v-1.707h-8.781V19.893
	L53.533,19.893z M65.189,1.272c0.301,0.03,0.51,0.075,0.629,0.135c0.104,0.06,0.158,0.143,0.158,0.247
	c0,0.075-0.037,0.21-0.112,0.404c-0.075,0.195-0.128,0.352-0.157,0.472c-0.045,0.195-0.066,0.397-0.066,0.606v3.841h2.853v2.92
	h-2.853v3.571h-3.324V1.25h1.55C64.449,1.25,64.891,1.258,65.189,1.272z"/>
</svg>
