<?xml version="1.0" encoding="utf-8"?>
<!-- Generator: Adobe Illustrator 16.0.0, SVG Export Plug-In . SVG Version: 6.00 Build 0)  -->
<!DOCTYPE svg PUBLIC "-//W3C//DTD SVG 1.1//EN" "http://www.w3.org/Graphics/SVG/1.1/DTD/svg11.dtd">
<svg version="1.1" id="레이어_1" xmlns="http://www.w3.org/2000/svg" xmlns:xlink="http://www.w3.org/1999/xlink" x="0px"
	 y="0px" width="48px" height="24px" viewBox="0 0 48 24" enable-background="new 0 0 48 24" xml:space="preserve">
<path fill="#00FFFF" stroke="#F7931E" stroke-miterlimit="10" d="M23.563,11.736H2V8.951h14.914c0.165-0.719,0.3-1.52,0.404-2.403
	c0.104-0.883,0.157-1.609,0.157-2.179H4.246v-2.83h16.868c0,1.168-0.045,2.374-0.135,3.616c-0.12,1.438-0.3,2.703-0.539,3.796h3.122
	L23.563,11.736L23.563,11.736z M21.316,14.072v8.49h-3.324v-0.494H7.683v0.494H4.358v-8.49H21.316z M7.683,19.529h10.31v-2.92H7.683
	V19.529z"/>
<path fill="#00FFFF" stroke="#F7931E" stroke-miterlimit="10" d="M38.857,4.886v2.628h-4.94c0,0.854,0.457,1.812,1.37,2.875
	c1.063,1.213,2.381,2.014,3.953,2.403c-0.329,0.3-0.682,0.683-1.057,1.146c-0.345,0.436-0.637,0.854-0.875,1.258
	c-1.094-0.434-2.127-1.092-3.101-1.977c-0.958-0.838-1.617-1.669-1.978-2.493c-0.358,0.794-1.078,1.603-2.155,2.426
	c-1.033,0.793-2.134,1.406-3.302,1.842c-0.239-0.374-0.555-0.794-0.943-1.258c-0.391-0.479-0.756-0.877-1.102-1.19
	c1.692-0.284,3.138-1.003,4.336-2.156c1.078-1.018,1.617-1.977,1.617-2.875H25.65V4.886H38.857z M31.199,15.264
	c0.119,0.09,0.127,0.283,0.021,0.584c-0.06,0.164-0.098,0.291-0.111,0.381c-0.03,0.15-0.045,0.301-0.045,0.449v2.493h14.061v2.808
	H27.74v-6.873h1.953C30.518,15.105,31.02,15.158,31.199,15.264z M35.624,1.27v2.358H28.57V1.27H35.624z M44.475,1.022
	c0.299,0.03,0.508,0.075,0.629,0.135c0.104,0.045,0.156,0.12,0.156,0.225c-0.015,0.075-0.06,0.21-0.135,0.404
	c-0.075,0.195-0.127,0.352-0.157,0.472c-0.06,0.225-0.09,0.449-0.09,0.674v13.835h-3.323V11.13h-3.481V8.322h3.481V1h1.616
	C43.74,1,44.174,1.008,44.475,1.022z"/>
</svg>
