<?xml version="1.0" encoding="utf-8"?>
<!-- Generator: Adobe Illustrator 16.0.0, SVG Export Plug-In . SVG Version: 6.00 Build 0)  -->
<!DOCTYPE svg PUBLIC "-//W3C//DTD SVG 1.1//EN" "http://www.w3.org/Graphics/SVG/1.1/DTD/svg11.dtd">
<svg version="1.1" id="레이어_1" xmlns="http://www.w3.org/2000/svg" xmlns:xlink="http://www.w3.org/1999/xlink" x="0px"
	 y="0px" width="70px" height="24px" viewBox="0 0 70 24" enable-background="new 0 0 70 24" xml:space="preserve">
<path fill="#00FFFF" stroke="#F7931E" stroke-miterlimit="10" d="M13.508,8.482c0.135,0.06,0.157,0.225,0.067,0.494
	c-0.03,0.105-0.053,0.188-0.067,0.247c-0.015,0.09-0.022,0.188-0.022,0.292v1.55h9.209v2.785H1.132v-2.785h9.074v-2.74h1.685
	C12.774,8.325,13.313,8.378,13.508,8.482z M13.71,1.587c0.18,0.135,0.135,0.427-0.135,0.876c0,0.314,0.188,0.689,0.562,1.123
	c0.404,0.479,0.951,0.936,1.64,1.37c0.778,0.479,1.64,0.869,2.583,1.168c1.093,0.345,2.246,0.547,3.459,0.606
	c-0.3,0.359-0.606,0.801-0.921,1.325c-0.3,0.449-0.584,0.929-0.854,1.438c-1.842-0.314-3.496-0.846-4.964-1.595
	c-1.513-0.764-2.583-1.625-3.212-2.583c-0.614,0.943-1.699,1.819-3.257,2.628c-1.497,0.779-3.077,1.325-4.739,1.64
	C3.588,9.164,3.266,8.729,2.906,8.28c-0.39-0.494-0.778-0.943-1.168-1.348c2.306-0.135,4.298-0.771,5.975-1.909
	c1.647-1.108,2.471-2.321,2.471-3.639h2.066C13.044,1.385,13.53,1.452,13.71,1.587z M18.966,16.119
	c1.438,0.734,2.156,1.686,2.156,2.854s-0.719,2.117-2.156,2.853c-1.632,0.838-3.983,1.258-7.053,1.258
	c-3.024,0-5.338-0.42-6.94-1.258c-1.423-0.749-2.134-1.699-2.134-2.853c0-1.168,0.711-2.119,2.134-2.854
	c1.617-0.823,3.931-1.235,6.94-1.235C14.982,14.884,17.334,15.296,18.966,16.119z M7.533,17.781c-0.854,0.285-1.28,0.695-1.28,1.234
	c0,0.524,0.427,0.951,1.28,1.28c0.988,0.374,2.448,0.562,4.38,0.562c1.991,0,3.496-0.188,4.515-0.562
	c0.868-0.329,1.303-0.756,1.303-1.28c0-0.539-0.435-0.949-1.303-1.234c-0.974-0.314-2.479-0.473-4.515-0.473
	C9.951,17.311,8.491,17.467,7.533,17.781z"/>
<path fill="#00FFFF" stroke="#F7931E" stroke-miterlimit="10" d="M30.488,7.359c0.09,0.06,0.104,0.202,0.045,0.427
	c-0.045,0.165-0.075,0.292-0.09,0.382c-0.015,0.165-0.008,0.33,0.022,0.494l0.629,7.479l0.719-0.09l1.056-0.066l0.472-8.737h1.954
	c0.719,0,1.153,0.053,1.303,0.157c0.104,0.06,0.098,0.21-0.021,0.449c-0.045,0.12-0.082,0.21-0.112,0.27
	c-0.03,0.105-0.045,0.21-0.045,0.314l-0.427,7.254l0.898-0.09c0.553-0.045,0.957-0.082,1.213-0.111
	c0.435-0.045,0.777-0.082,1.033-0.112l0.448,2.604c-2.216,0.226-4.327,0.428-6.334,0.606c-2.097,0.195-3.916,0.359-5.458,0.494
	c-0.329,0.017-0.644,0.053-0.943,0.112c-0.165,0.045-0.367,0.104-0.606,0.18c-0.27,0.09-0.449,0.104-0.539,0.045
	s-0.194-0.292-0.314-0.695l-0.606-2.313c0.464,0,1.019-0.015,1.662-0.045c0.435-0.03,1.011-0.06,1.729-0.091l-0.921-9.028h2.111
	C29.979,7.247,30.354,7.285,30.488,7.359z M38.619,3.092v2.74h-13.05v-2.74H38.619z M43.27,1.407c0.135,0.075,0.135,0.27,0,0.584
	c-0.076,0.21-0.136,0.375-0.181,0.494c-0.045,0.21-0.067,0.427-0.067,0.651v7.524h2.854v2.92h-2.854v9.23h-3.323V1.25h1.864
	C42.505,1.25,43.074,1.303,43.27,1.407z"/>
<path fill="#00FFFF" stroke="#F7931E" stroke-miterlimit="10" d="M68.693,10.145v2.539H47.132v-2.539H68.693z M64.539,2.71
	c1.468,0.674,2.201,1.535,2.201,2.583c0,1.033-0.733,1.887-2.201,2.561c-1.617,0.749-3.833,1.123-6.648,1.123
	c-2.83,0-5.045-0.374-6.647-1.123c-1.468-0.674-2.201-1.527-2.201-2.561c0-1.048,0.733-1.909,2.201-2.583
	c1.603-0.719,3.817-1.078,6.647-1.078C60.706,1.632,62.922,1.991,64.539,2.71z M66.426,13.671v5.458H52.77v1.168h14.084v2.246H49.49
	v-5.615h13.611v-1.011H49.49v-2.246H66.426z M53.689,4.305c-0.883,0.24-1.324,0.562-1.324,0.966c0,0.39,0.441,0.711,1.324,0.966
	c0.975,0.27,2.358,0.404,4.156,0.404c1.812,0,3.211-0.135,4.199-0.404c0.913-0.254,1.37-0.576,1.37-0.966
	c0-0.404-0.457-0.726-1.37-0.966c-0.975-0.239-2.373-0.359-4.199-0.359C56.034,3.945,54.648,4.065,53.689,4.305z"/>
</svg>
