<?xml version="1.0" encoding="utf-8"?>
<!-- Generator: Adobe Illustrator 16.0.0, SVG Export Plug-In . SVG Version: 6.00 Build 0)  -->
<!DOCTYPE svg PUBLIC "-//W3C//DTD SVG 1.1//EN" "http://www.w3.org/Graphics/SVG/1.1/DTD/svg11.dtd">
<svg version="1.1" id="레이어_1" xmlns="http://www.w3.org/2000/svg" xmlns:xlink="http://www.w3.org/1999/xlink" x="0px"
	 y="0px" width="1200px" height="300px" viewBox="0 0 1200 300" enable-background="new 0 0 1200 300" xml:space="preserve">
<path fill="#00FFFF" stroke="#F7931E" stroke-miterlimit="10" d="M181.641,23.73v37.207h-54.785v9.375
	c-1.565,15.432,3.415,30.762,14.941,45.996c12.305,16.406,27.832,26.367,46.582,29.883c-4.495,4.102-9.082,9.375-13.77,15.82
	c-3.909,5.472-7.814,11.526-11.719,18.164c-13.477-6.052-25.781-14.743-36.914-26.073c-10.158-10.351-17.871-21.388-23.145-33.105
	c-2.93,8.4-10.647,18.361-23.145,29.883c-13.088,12.112-27.443,21.973-43.066,29.59c-4.102-5.466-8.789-11.031-14.063-16.699
	c-5.859-5.858-11.426-10.738-16.699-14.647c10.35-1.364,20.604-4.88,30.762-10.547c8.981-5.076,17.285-11.618,24.902-19.629
	c7.224-7.224,12.891-14.841,16.992-22.852c4.294-7.81,6.445-14.548,6.445-20.215V60.938H26.367V23.73H181.641z M90.234,195.41
	c1.561,1.172,1.657,3.713,0.293,7.617c-0.783,2.15-1.272,3.809-1.465,4.979c-0.394,1.955-0.586,3.909-0.586,5.859v32.521h183.398
	v36.62H45.117v-89.647h25.488C81.345,193.359,87.891,194.046,90.234,195.41z M271.875,11.133c1.95,1.172,2.051,3.909,0.293,8.203
	c-1.172,2.541-1.955,4.688-2.344,6.445c-0.783,2.93-1.172,5.859-1.172,8.789v179.004h-43.359V110.156H176.66V74.707h48.633V9.375
	h23.73C261.914,9.375,269.531,9.961,271.875,11.133z"/>
<path fill="#00FFFF" stroke="#F7931E" stroke-miterlimit="10" d="M464.648,31.348v116.895h-94.043v49.805h9.668
	c17.967,0,35.449-0.682,52.441-2.051c23.24-1.562,43.945-4.197,62.109-7.91l4.395,27.832l1.172,7.324
	c-22.266,3.909-45.804,6.839-70.604,8.789c-21.094,1.758-42.581,2.637-64.453,2.637h-38.379V111.621h93.164V67.969h-93.75V31.348
	H464.648z M558.984,11.426c1.758,0.979,1.758,3.516,0,7.617c-0.979,2.737-1.759,4.885-2.345,6.445
	c-0.586,2.737-0.879,5.566-0.879,8.496v98.145h37.207v38.086h-37.207v120.41h-43.358V9.375h24.315
	C549.023,9.375,556.443,10.062,558.984,11.426z"/>
<path fill="#00FFFF" stroke="#F7931E" stroke-miterlimit="10" d="M890.625,134.18v32.227H771.68V187.5h89.355v103.125h-43.359
	v-66.504H638.965V187.5h90.234v-21.094H609.375V134.18H890.625z M684.375,14.355c1.172,0.783,1.268,2.637,0.293,5.566
	c-0.394,1.369-0.687,2.444-0.879,3.223c-0.197,1.172-0.293,2.444-0.293,3.809v11.719h134.18V12.891h26.367
	c9.764,0,15.72,0.49,17.871,1.465c1.561,0.783,1.758,2.737,0.586,5.859c-0.394,1.565-0.783,2.737-1.172,3.516
	c-0.197,1.758-0.293,3.42-0.293,4.98v93.164H640.137V12.891h29.004C677.536,12.891,682.617,13.381,684.375,14.355z M683.496,89.941
	h134.18V70.313h-134.18V89.941z"/>
<path fill="#00FFFF" stroke="#F7931E" stroke-miterlimit="10" d="M1071.094,168.164c1.562,1.172,1.562,3.809,0,7.91
	c-0.979,2.344-1.662,4.299-2.051,5.859c-0.586,2.344-0.879,4.787-0.879,7.323v29.884h122.461v37.5h-281.25v-37.5h115.723v-53.027
	h24.023C1061.229,166.113,1068.553,166.8,1071.094,168.164z M1159.863,28.125v36.621H983.496v55.078h181.641v36.328h-225V28.125
	H1159.863z"/>
</svg>
