<?xml version="1.0" encoding="utf-8"?>
<!-- Generator: Adobe Illustrator 16.0.0, SVG Export Plug-In . SVG Version: 6.00 Build 0)  -->
<!DOCTYPE svg PUBLIC "-//W3C//DTD SVG 1.1//EN" "http://www.w3.org/Graphics/SVG/1.1/DTD/svg11.dtd">
<svg version="1.1" id="레이어_1" xmlns="http://www.w3.org/2000/svg" xmlns:xlink="http://www.w3.org/1999/xlink" x="0px"
	 y="0px" width="1200px" height="300px" viewBox="0 0 1200 300" enable-background="new 0 0 1200 300" xml:space="preserve">
<path fill="#00FFFF" stroke="#F7931E" stroke-miterlimit="10" d="M290.625,140.918v34.57H171.094v18.457
	c32.029,1.955,56.735,7.91,74.121,17.871c15.427,8.789,23.145,19.336,23.145,31.641c0,13.088-9.375,24.413-28.125,33.984
	c-21.68,11.133-51.855,16.699-90.527,16.699c-37.5,0-66.897-5.566-88.184-16.699c-18.361-9.375-27.539-20.7-27.539-33.984
	c0-12.107,7.324-22.559,21.973-31.348c16.406-9.764,39.551-15.721,69.434-17.871v-18.75H9.375v-34.57H290.625z M266.895,46.875
	V77.93h-89.063c0,2.151,2.829,5.081,8.496,8.789c6.052,3.909,13.669,7.617,22.852,11.133c10.153,3.713,20.508,6.546,31.055,8.496
	c12.305,2.151,23.923,2.737,34.863,1.758c-3.909,4.495-7.91,9.865-12.012,16.113c-3.323,5.273-6.253,10.451-8.789,15.527
	c-22.073-1.95-43.264-6.834-63.574-14.648c-21.094-8.203-34.964-17.285-41.602-27.246c-7.617,9.572-21.68,18.558-42.188,26.953
	c-20.315,8.203-40.334,13.184-60.059,14.941c-2.737-4.88-6.057-10.153-9.961-15.82c-4.299-6.638-8.4-12.107-12.305-16.406
	c9.375,1.369,19.922,0.979,31.641-1.172c10.153-1.561,20.311-4.294,30.469-8.203c9.178-3.516,16.892-7.224,23.145-11.133
	c6.052-3.904,9.082-6.931,9.082-9.082h-82.91V46.875H266.895z M93.457,230.859c-9.769,3.127-14.648,7.324-14.648,12.598
	c0,5.667,4.88,10.158,14.648,13.477c12.107,4.295,30.857,6.445,56.25,6.445c26.17,0,45.603-2.15,58.301-6.445
	c10.35-3.317,15.527-7.81,15.527-13.477c0-5.273-5.178-9.471-15.527-12.598c-12.502-3.517-31.934-5.273-58.301-5.273
	C124.314,225.586,105.564,227.344,93.457,230.859z M203.906,8.203v29.59H99.023V8.203H203.906z"/>
<path fill="#00FFFF" stroke="#F7931E" stroke-miterlimit="10" d="M485.156,53.613v34.863h-61.23c0,3.516,1.854,8.107,5.566,13.77
	c3.903,5.859,8.98,11.623,15.233,17.285c6.834,6.253,14.158,11.33,21.974,15.234c8.98,4.495,17.871,7.132,26.66,7.91
	c-3.909,3.323-8.496,8.203-13.771,14.648c-4.102,5.471-8.011,11.133-11.719,16.991c-14.26-4.688-27.832-12.012-40.723-21.973
	c-12.502-9.764-20.706-19.235-24.609-28.418c-5.859,10.158-15.82,20.315-29.883,30.469c-14.26,10.158-28.615,17.482-43.066,21.974
	c-2.541-4.49-6.152-9.86-10.84-16.113c-4.495-6.052-9.279-11.911-14.355-17.578c9.567-0.586,19.336-2.93,29.297-7.031
	c8.789-3.904,16.992-8.885,24.609-14.941c7.031-5.466,12.693-11.229,16.992-17.285c4.294-5.859,6.445-10.84,6.445-14.941H315.82
	V53.613H485.156z M544.043,196.875c18.164,10.158,27.246,23.245,27.246,39.258c0,16.406-9.082,29.883-27.246,40.43
	c-20.119,11.72-48.34,17.578-84.668,17.578c-36.914,0-65.433-5.858-85.547-17.578c-17.972-10.547-26.953-24.022-26.953-40.43
	c0-16.013,8.981-29.1,26.953-39.258c20.311-11.325,48.825-16.992,85.547-16.992C495.703,179.883,523.924,185.55,544.043,196.875z
	 M444.727,12.891v30.762h-89.94V12.891H444.727z M407.52,218.555c-10.744,4.299-16.113,10.354-16.113,18.164
	c0,7.814,5.273,14.063,15.82,18.75c11.911,5.273,29.297,7.91,52.148,7.91c22.458,0,39.551-2.637,51.271-7.91
	c10.547-4.688,15.819-10.936,15.819-18.75c0-7.81-5.272-13.865-15.82-18.164c-11.525-4.88-28.418-7.324-50.684-7.324
	C436.912,211.23,419.431,213.675,407.52,218.555z M563.379,9.668c3.904,0.394,6.638,0.979,8.203,1.758
	c1.364,0.586,2.051,1.565,2.051,2.93c-0.196,0.979-0.783,2.737-1.758,5.273c-0.979,2.541-1.662,4.592-2.051,6.152
	c-0.783,2.93-1.172,5.859-1.172,8.789v152.051h-43.359v-54.492h-45.41V95.508h45.41V9.375h21.094
	C553.807,9.375,559.47,9.476,563.379,9.668z"/>
<path fill="#00FFFF" stroke="#F7931E" stroke-miterlimit="10" d="M890.625,134.18v32.227H771.68V187.5h89.355v103.125h-43.359
	v-66.504H638.965V187.5h90.234v-21.094H609.375V134.18H890.625z M684.375,14.355c1.172,0.783,1.268,2.637,0.293,5.566
	c-0.394,1.369-0.687,2.444-0.879,3.223c-0.197,1.172-0.293,2.444-0.293,3.809v11.719h134.18V12.891h26.367
	c9.764,0,15.72,0.49,17.871,1.465c1.561,0.783,1.758,2.737,0.586,5.859c-0.394,1.565-0.783,2.737-1.172,3.516
	c-0.197,1.758-0.293,3.42-0.293,4.98v93.164H640.137V12.891h29.004C677.536,12.891,682.617,13.381,684.375,14.355z M683.496,89.941
	h134.18V70.313h-134.18V89.941z"/>
<path fill="#00FFFF" stroke="#F7931E" stroke-miterlimit="10" d="M1071.094,168.164c1.562,1.172,1.562,3.809,0,7.91
	c-0.979,2.344-1.662,4.299-2.051,5.859c-0.586,2.344-0.879,4.787-0.879,7.323v29.884h122.461v37.5h-281.25v-37.5h115.723v-53.027
	h24.023C1061.229,166.113,1068.553,166.8,1071.094,168.164z M1159.863,28.125v36.621H983.496v55.078h181.641v36.328h-225V28.125
	H1159.863z"/>
</svg>
