<?xml version="1.0" encoding="utf-8"?>
<!-- Generator: Adobe Illustrator 16.0.0, SVG Export Plug-In . SVG Version: 6.00 Build 0)  -->
<!DOCTYPE svg PUBLIC "-//W3C//DTD SVG 1.1//EN" "http://www.w3.org/Graphics/SVG/1.1/DTD/svg11.dtd">
<svg version="1.1" id="레이어_1" xmlns="http://www.w3.org/2000/svg" xmlns:xlink="http://www.w3.org/1999/xlink" x="0px"
	 y="0px" width="100px" height="100px" viewBox="0 0 100 100" enable-background="new 0 0 100 100" xml:space="preserve">
<path fill="#111111" d="M74.294,51.7H53.648v21.046c0,1.615-1.313,2.929-2.932,2.929c-1.611,0-2.925-1.313-2.925-2.929V51.7H26.351
	c-1.613,0-2.927-1.315-2.927-2.928c0-1.614,1.313-2.927,2.927-2.927h21.442V24.802c0-1.617,1.313-2.932,2.925-2.932
	c1.618,0,2.933,1.315,2.933,2.932v21.044h20.645c1.616,0,2.932,1.313,2.932,2.927C77.225,50.385,75.91,51.7,74.294,51.7
	 M74.294,36.016H63.482V24.802c0-7.039-5.728-12.765-12.766-12.765c-7.032,0-12.757,5.726-12.757,12.765v11.214H26.35
	c-7.035,0-12.759,5.725-12.759,12.757c0,7.03,5.724,12.758,12.759,12.758h11.61v11.216c0,7.04,5.725,12.765,12.757,12.765
	c7.038,0,12.766-5.725,12.766-12.765V61.529h10.812c7.038,0,12.761-5.727,12.761-12.757C87.055,41.74,81.332,36.016,74.294,36.016"
	/>
</svg>
