<?xml version="1.0" encoding="utf-8"?>
<!-- Generator: Adobe Illustrator 16.0.0, SVG Export Plug-In . SVG Version: 6.00 Build 0)  -->
<!DOCTYPE svg PUBLIC "-//W3C//DTD SVG 1.1//EN" "http://www.w3.org/Graphics/SVG/1.1/DTD/svg11.dtd">
<svg version="1.1" id="레이어_1" xmlns="http://www.w3.org/2000/svg" xmlns:xlink="http://www.w3.org/1999/xlink" x="0px"
	 y="0px" width="100px" height="100px" viewBox="0 0 100 100" enable-background="new 0 0 100 100" xml:space="preserve">
<path fill="#111111" d="M69.031,61.574h-0.11c-2.03-0.036-4.54-0.965-6.869-2.547c0,0-0.892-0.611-0.964-0.664
	c-0.043-0.038-1.727-1.416-3.044-2.49V42.217c1.363-1.052,3.261-2.511,3.306-2.546c0.066-0.043,0.641-0.424,0.711-0.468
	c0.062-0.037,0.401-0.223,0.401-0.223l0.521-0.282c0,0,0.008-0.06,0.011-0.075c2.028-1.178,4.03-1.76,6.103-1.76
	c0,0,0.182,0.004,0.185,0.004c5.138,0.082,9.237,5.688,9.138,12.493C78.316,56.094,74.104,61.574,69.031,61.574 M49.68,81.255
	c-3.139,0-5.692-2.202-5.692-4.907V63.061c0.153-0.121,0.257-0.205,0.259-0.207c0.017-0.015,3.346-2.59,3.412-2.642
	c0.043-0.024,0.146-0.097,0.146-0.097l0.104-0.079c0.461-0.351,1.082-0.546,1.742-0.546h0.065c0.62,0.008,1.222,0.207,1.688,0.559
	c0.011,0.008,2.443,1.999,3.965,3.242v13.057C55.369,79.053,52.814,81.255,49.68,81.255 M39.817,57.021c0,0-1.498,1.209-1.565,1.26
	c-2.608,1.859-5.41,2.928-7.686,2.928h-0.13c-1.99-0.027-3.953-0.945-5.542-2.57c-2.341-2.412-3.654-6.029-3.593-9.914
	c0.053-3.89,1.473-7.465,3.887-9.806c1.6-1.553,3.549-2.409,5.477-2.409c0,0,0.132,0.002,0.136,0.002
	c2.47,0.037,5.493,1.188,8.093,3.086c0.182,0.15,0.931,0.775,0.939,0.782l1.479,1.213v14.274L39.817,57.021z M49.68,13.131
	c3.136,0,5.689,2.206,5.689,4.911v16.895c-1.535,1.179-3.613,2.778-3.657,2.813c-0.476,0.331-1.069,0.511-1.681,0.511
	c-0.022,0-0.189-0.01-0.189-0.01h-0.053c-0.679-0.008-1.309-0.221-1.77-0.598l-0.16-0.131c0,0-0.102-0.07-0.147-0.095
	c-0.104-0.088-3.29-2.707-3.29-2.707l-0.435-0.359V18.042C43.987,15.337,46.541,13.131,49.68,13.131 M43.987,43.696
	c1.637,1.163,3.634,1.846,5.689,1.891h-0.022l0.243,0.01l0.081,0.002h0.145c1.861,0,3.684-0.526,5.246-1.448v9.643
	c-1.61-1.05-3.516-1.66-5.494-1.683l-0.136-0.004c-2.066,0-4.087,0.639-5.752,1.768V43.696z M69.302,29.533
	c-3.972-0.063-7.657,1.084-11.258,3.448V18.042c0-4.182-3.752-7.585-8.364-7.585c-4.614,0-8.368,3.403-8.368,7.585v14.432
	c-3.382-2.036-7.174-3.248-10.498-3.299l0.024,0.02c-0.075-0.008-0.142-0.02-0.225-0.02c-3.886,0-7.662,1.59-10.645,4.483
	c-3.805,3.692-6.035,9.154-6.121,14.981c-0.086,5.824,1.982,11.341,5.68,15.146c2.955,3.041,6.756,4.748,10.711,4.805h0.198
	c3.442,0,7.335-1.287,10.875-3.55v11.306c0,4.178,3.754,7.582,8.368,7.582c4.612,0,8.364-3.404,8.364-7.582V65.277
	c3.456,2.281,7.321,3.619,10.664,3.677h0.202c4.502,0,8.729-2.082,11.897-5.858c3.066-3.646,4.801-8.477,4.875-13.609
	C85.841,38.627,78.494,29.672,69.302,29.533"/>
</svg>
