<?xml version="1.0" encoding="utf-8"?>
<!-- Generator: Adobe Illustrator 16.0.0, SVG Export Plug-In . SVG Version: 6.00 Build 0)  -->
<!DOCTYPE svg PUBLIC "-//W3C//DTD SVG 1.1//EN" "http://www.w3.org/Graphics/SVG/1.1/DTD/svg11.dtd">
<svg version="1.1" id="레이어_1" xmlns="http://www.w3.org/2000/svg" xmlns:xlink="http://www.w3.org/1999/xlink" x="0px"
	 y="0px" width="100px" height="100px" viewBox="0 0 100 100" enable-background="new 0 0 100 100" xml:space="preserve">
<path fill="#111111" d="M66.854,54.488H52.668v14.279h-5.456V54.488H33.03c-3.15,0-5.716-2.563-5.716-5.711
	c0-3.153,2.565-5.719,5.716-5.719h14.182V28.78h5.456v14.278h14.186c3.149,0,5.713,2.565,5.713,5.719
	C72.566,51.925,70.003,54.488,66.854,54.488 M49.94,17.548c-17.243,0-31.223,13.979-31.223,31.225
	c0,17.247,13.979,31.226,31.223,31.226c17.246,0,31.223-13.979,31.223-31.226C81.163,31.527,67.188,17.548,49.94,17.548"/>
</svg>
