<?xml version="1.0" encoding="utf-8"?>
<!-- Generator: Adobe Illustrator 16.0.0, SVG Export Plug-In . SVG Version: 6.00 Build 0)  -->
<!DOCTYPE svg PUBLIC "-//W3C//DTD SVG 1.1//EN" "http://www.w3.org/Graphics/SVG/1.1/DTD/svg11.dtd">
<svg version="1.1" id="레이어_1" xmlns="http://www.w3.org/2000/svg" xmlns:xlink="http://www.w3.org/1999/xlink" x="0px"
	 y="0px" width="100px" height="100px" viewBox="0 0 100 100" enable-background="new 0 0 100 100" xml:space="preserve">
<path fill="#111111" d="M66.825,62.023c-2.15-0.01-4.841-1.082-7.216-2.861c-0.143-0.12-1.305-1.102-1.305-1.102
	c-0.041-0.033-3.178-2.57-3.178-2.57l-0.229-0.154l0.174,0.125c-1.413-1.125-3.225-1.755-5.1-1.766
	c-1.877-0.012-3.695,0.601-5.125,1.714c-0.059,0.063-3.925,3.118-4.345,3.45c-0.142,0.094-0.874,0.582-0.874,0.582
	c-2.186,1.424-4.538,2.238-6.434,2.228c-2.459-0.01-4.262-1.313-5.342-2.403c-2.219-2.236-3.479-5.593-3.462-9.216
	c0.032-6.379,4.034-11.551,8.92-11.531c2.438,0.014,4.64,0.796,6.923,2.465l-0.006,0.014c0,0,0.268,0.186,0.384,0.263
	c0.155,0.126,4.245,3.424,4.245,3.424c1.48,1.196,3.296,1.827,5.166,1.835c0.069,0,0.246-0.006,0.246-0.006
	c1.802,0.011,3.621-0.596,5.05-1.719l-0.18,0.131l0.231-0.15c0,0,3.812-3.027,4.007-3.183c2.428-1.715,5.248-2.729,7.559-2.716
	c2.455,0.012,4.258,1.311,5.34,2.403c2.218,2.234,3.478,5.591,3.459,9.216C75.705,56.877,71.705,62.05,66.825,62.023 M58.809,19.045
	H41.324c-12.418,0-22.484,10.066-22.484,22.483v17.488c0,12.414,10.066,22.481,22.484,22.481h17.484
	c12.414,0,22.48-10.067,22.48-22.481V41.528C81.29,29.111,71.225,19.045,58.809,19.045"/>
</svg>
