<?xml version="1.0" encoding="utf-8"?>
<!-- Generator: Adobe Illustrator 16.0.0, SVG Export Plug-In . SVG Version: 6.00 Build 0)  -->
<!DOCTYPE svg PUBLIC "-//W3C//DTD SVG 1.1//EN" "http://www.w3.org/Graphics/SVG/1.1/DTD/svg11.dtd">
<svg version="1.1" id="레이어_1" xmlns="http://www.w3.org/2000/svg" xmlns:xlink="http://www.w3.org/1999/xlink" x="0px"
	 y="0px" width="230px" height="84px" viewBox="0 0 230 84" enable-background="new 0 0 230 84" xml:space="preserve">
<path fill-rule="evenodd" clip-rule="evenodd" fill="#E70095" d="M225.968,52.82c0.906-0.104,1.372,0.47,1.807,1.093
	c0.214,1.67,0.368,3.345-0.216,4.979c-0.334,0.933-1.438,1.128-2.72,0.53c-3.566-5.109-7.979-9.426-13.163-13.015
	c-3.733-2.582-7.716-4.724-12.182-5.861c-1.555-0.396-2.838-0.796-5.9,0.016c-2.699,0.716-4.624,2.674-5.719,4.063
	c-5.621,7.13-7.976,12.692-8.794,14.492l0.004-0.005c-2.491,5.731-4.469,12.506-5.072,13.309c-0.555,0.613-1.293,0.517-2.017,0.481
	c-0.446-0.018-0.641-0.201-0.731-0.656c-0.915-4.405-1.816-8.806-2.808-13.192c-0.96-4.24-2.006-8.462-3.033-12.689
	c-0.191-0.8-0.165-1.678-0.82-2.413c-1.181,2.303-2.017,4.683-2.935,7.032c-1.675,4.286-3.419,8.547-4.967,12.874
	c-1.506,4.203-3.185,8.336-4.777,12.506c-0.222,0.588-0.449,1.194-1.168,1.413c-1.132,0.348-1.979-0.047-2.252-1.197
	c-0.269-1.145-0.49-2.314-0.56-3.484c-0.517-8.816-0.604-17.645-0.652-26.471c-0.011-1.51-0.14-3.017-0.211-4.533
	c-0.449-0.071-0.494,0.266-0.616,0.514c-3.167,6.407-6.353,12.801-10.229,18.843c-1.463,2.283-3,4.532-5.04,6.401
	c-0.829,0.758-1.719,1.457-2.921,1.637c-1.897,0.287-3.251-0.546-4.296-1.965c-1.597-2.153-2.434-4.641-3.212-7.135
	c-1.305-4.198-2.261-8.474-2.92-12.815c-0.074-0.466-0.279-0.914-0.499-1.589c-0.601,2.571-1.134,4.938-1.711,7.297
	c-0.852,3.508-1.651,7.025-2.577,10.515c-0.632,2.392-1.151,4.807-1.97,7.146c-0.352,1.006-0.657,2.032-1.223,2.95
	c-0.857,1.394-2.431,1.514-3.469,0.204c-1.024-1.295-1.677-2.813-2.189-4.344c-1.465-4.361-2.778-8.769-4.229-13.137
	c-1.651-4.968-2.945-10.042-4.939-14.901c-0.247-0.605-0.332-1.274-0.839-1.922c-0.979,1.669-1.473,3.434-1.976,5.176
	c-1.938,6.734-3.402,13.591-5.563,20.271c-0.612,1.897-1.406,3.733-2.425,5.462c-0.572,0.969-1.397,1.777-2.644,1.941
	c-1.599,0.218-2.853-0.595-3.585-2.29c-1.294-2.979-1.86-6.136-2.339-9.311c-0.115-0.761-0.258-1.509-0.587-2.432
	c-0.638,0.953-1.185,1.773-1.732,2.594c-2.969,4.408-6.275,8.503-10.799,11.569c-4.284,2.909-10.071,2.958-14.041,0.049
	c-1.257-0.923-2.085-2.146-2.608-3.551c-0.264-0.715-0.444-0.934-1.36-0.665c-4.123,1.193-8.264,2.364-12.554,2.881
	c-0.847,0.107-0.965,0.514-0.78,1.229c0.658,2.574,1.279,5.154,1.917,7.734c0.341,1.363-0.273,2.193-1.501,2.054
	c-0.812-0.093-1.042-0.679-1.201-1.298c-0.684-2.679-1.408-5.353-1.983-8.054c-0.189-0.891-0.479-1.014-1.349-0.921
	c-5.571,0.608-11.146,0.671-16.667-0.378c-1.796-0.343-3.566-0.886-5.087-1.915c-3.337-2.249-3.769-6.343-1.037-9.501
	c2.179-2.517,4.937-4.38,7.699-6.22c3.647-2.425,7.418-4.66,11.25-6.804c0.64-0.358,0.858-0.75,0.755-1.504
	c-0.433-3.177-0.779-6.364-1.15-9.546c-0.036-0.295-0.08-0.596-0.045-0.886c0.087-0.721,0.401-1.262,1.255-1.333
	c0.867-0.07,1.414,0.255,1.518,1.123c0.286,2.267,0.56,4.532,0.833,6.806c0.098,0.805,0.212,1.612,0.246,2.419
	c0.031,0.752,0.264,0.896,0.972,0.532c2.35-1.213,4.732-2.37,7.087-3.57c4.335-2.217,8.831-4.102,13.327-5.987
	c3.069-1.283,6.15-2.549,9.275-3.695c3.274-1.199,6.559-2.396,9.978-3.188c0.851-0.197,1.728-0.366,2.595-0.378
	c0.678-0.009,1.52-0.003,1.615,1.008c0.085,0.873-0.136,1.633-1.138,1.719c-2.813,0.244-5.41,1.211-8.018,2.119
	c-8.855,3.074-17.421,6.812-25.899,10.746c-2.851,1.321-5.648,2.732-8.457,4.131c-0.593,0.298-0.789,0.648-0.701,1.318
	c0.554,4.204,1.138,8.403,1.89,12.579c0.366,2.033,0.71,4.068,1.019,6.106c0.115,0.741,0.33,1.152,1.236,0.992
	c4.474-0.802,8.862-1.878,13.168-3.296c0.396-0.127,0.701-0.237,0.743-0.695c0.592-6.138,4.086-10.738,8.517-14.794
	c4.827-4.421,10.461-7.625,16.748-9.666c2.524-0.82,5.219-1.229,7.787,0.148c1.49,0.798,2.227,1.984,2.37,3.65
	c0.252,2.892-1.049,5.145-2.924,7.189c-0.457,0.495-0.56,0.975-0.484,1.604c0.487,4.216,1.161,8.399,2.067,12.546
	c0.25,1.142,0.714,2.251,1.173,3.336c0.354,0.836,0.725,0.829,1.229,0.057c1.229-1.892,1.905-4.011,2.576-6.121
	c2.098-6.608,3.464-13.412,5.512-20.037c0.522-1.692,1.097-3.372,1.907-4.959c0.083-0.166,0.199-0.313,0.307-0.467
	c1.499-2.195,2.959-2.197,4.237,0.101c1.443,2.603,2.256,5.451,3.159,8.251c2.442,7.582,4.614,15.245,7.45,22.704
	c0.237,0.611,0.517,1.206,0.944,1.825c3.514-10.518,5.793-21.303,7.97-32.188c-1.479,1.509-2.959,3.011-4.434,4.522
	c-0.603,0.617-1.181,1.25-1.789,1.864c-0.7,0.703-1.786,0.869-2.35,0.38c-0.627-0.542-0.585-1.484,0.18-2.267
	c3.257-3.315,6.529-6.615,9.798-9.92c0.817-0.822,1.653-1.628,2.47-2.452c0.145-0.146,0.412-0.277,0.294-0.54
	c-0.116-0.245-0.395-0.171-0.611-0.187c-3.964-0.297-7.931-0.548-11.894-0.897c-2.317-0.206-4.624-0.533-6.929-0.872
	c-0.897-0.135-1.43-0.708-1.273-1.654c0.165-0.977,0.873-1.256,1.777-1.109c5.55,0.893,11.158,1.233,16.759,1.642
	c1.447,0.106,2.893,0.22,4.347,0.275c0.674,0.03,1.16-0.18,1.619-0.615c5.144-4.886,10.331-9.734,15.767-14.313
	c4.427-3.729,8.945-7.353,13.87-10.474c1.069-0.676,2.151-0.667,3.201,0.03c0.689,0.465,1.353,0.971,1.847,1.642
	c0.454,0.611,0.519,1.262-0.083,1.798c-0.613,0.547-1.306,0.543-1.974,0.034c-1.462-1.105-1.471-1.117-3.002-0.061
	c-5.342,3.686-10.346,7.754-15.2,12.016c-3.386,2.976-6.702,6.022-9.998,9.097c-0.26,0.241-0.771,0.464-0.636,0.83
	c0.153,0.414,0.74,0.329,1.114,0.336c1.72,0.027,3.445,0.022,5.164-0.057c1.22-0.053,1.843,0.266,1.922,1.186
	c0.087,1.038-0.384,1.528-1.687,1.569c-2.986,0.092-5.975,0.087-8.954-0.088c-0.495-0.029-0.887,0.007-1.256,0.359
	c-2.295,2.206-4.598,4.402-6.837,6.542c0.139,0.534,0.481,0.398,0.7,0.473c0.99,0.331,1.404,0.882,1.558,1.988
	c0.573,4.162,1.216,8.317,2.123,12.424c0.857,3.877,1.773,7.741,3.322,11.434c0.487,1.162,1.063,2.269,1.925,3.224
	c0.537,0.595,1.036,0.575,1.674,0.107c1.959-1.435,3.339-3.348,4.619-5.303c4.469-6.818,8.204-14.014,11.598-21.381
	c0.57-1.243,1.209-2.46,1.872-3.662c0.408-0.736,0.971-1.352,1.991-1.159c1.008,0.189,1.107,0.898,1.203,1.741
	c0.577,5.043,0.321,10.103,0.396,15.159c0.094,6.385,0.29,12.77,0.563,19.248c0.554-0.27,0.619-0.799,0.759-1.169
	c1.557-4.106,3.181-8.193,4.55-12.356c1.739-5.289,4.043-10.367,6.078-15.544c0.407-1.046,0.882-2.098,1.655-2.987
	c0.54-0.62,1.163-0.794,1.934-0.654c0.748,0.133,1.065,0.663,1.223,1.303c0.851,3.476,1.707,6.946,2.537,10.425
	c0.905,3.793,1.79,7.593,2.666,11.393c0.314,1.367,0.576,2.742,0.898,4.303c1.022-2.489,1.927-4.823,2.924-7.118
	c2.56-5.867,5.492-11.524,10.066-16.238c1.422-1.461,2.387-2.561,4.809-3.688s5.476-1.663,8.464-0.989
	c2.873,0.649,5.598,1.61,8.209,2.917c2.716,1.354,5.245,2.99,7.676,4.764c4.229,3.087,7.167,6.181,9.426,8.503
	C224.846,53.287,225.315,52.92,225.968,52.82z M26.421,69.634c0.998-0.016,1.189-0.422,1.049-1.205
	c-0.288-1.59-0.631-3.176-0.882-4.774c-0.669-4.252-1.32-8.505-1.93-12.763c-0.115-0.811-0.332-0.951-1.06-0.52
	c-3.342,1.98-6.71,3.919-9.932,6.079c-2.626,1.766-5.286,3.505-7.34,5.923c-1.703,2.007-1.216,4.373,1.136,5.576
	c0.705,0.361,1.438,0.665,2.212,0.883c3.344,0.946,6.78,0.995,10.7,1.099C22.069,69.838,24.245,69.661,26.421,69.634z
	 M70.011,43.569c-6.17,2.439-11.738,5.769-16.229,10.597c-2.491,2.682-4.479,5.666-5.32,9.247c-0.158,0.673-0.09,1.002,0.779,0.672
	c7.983-3.062,15.7-6.622,22.757-11.391c2.156-1.456,4.144-3.131,5.326-5.487c1.218-2.428,1.076-4.64-2.949-4.521
	C72.903,42.634,71.414,43.015,70.011,43.569z M73.04,55.402c-7.366,4.851-15.359,8.507-23.661,11.573
	c-1.055,0.387-0.98,1.009-0.613,1.729c0.619,1.222,1.568,2.167,2.873,2.727c4.072,1.746,7.596,0.594,10.793-1.992
	c3.69-2.991,6.495-6.714,9.051-10.605c0.738-1.124,1.626-2.188,2.094-3.598C73.312,55.316,73.153,55.329,73.04,55.402z"/>
</svg>
