<?xml version="1.0" encoding="utf-8"?>
<!-- Generator: Adobe Illustrator 16.0.0, SVG Export Plug-In . SVG Version: 6.00 Build 0)  -->
<!DOCTYPE svg PUBLIC "-//W3C//DTD SVG 1.1//EN" "http://www.w3.org/Graphics/SVG/1.1/DTD/svg11.dtd">
<svg version="1.1" id="레이어_1" xmlns="http://www.w3.org/2000/svg" xmlns:xlink="http://www.w3.org/1999/xlink" x="0px"
	 y="0px" width="1920px" height="1080px" viewBox="0 0 1920 1080" enable-background="new 0 0 1920 1080" xml:space="preserve">
<path fill="#E9E9E9" stroke="#B4D156" stroke-width="2" stroke-miterlimit="10" d="M1109.584,156.637
	c-47.808,12.104-82.451-30.487-115.846-32.209c-36.954-1.905-44.108,40.761-58.164,54.731c-6.763,6.721-39.042,18.639-39.718,38.32
	c-0.479,13.901,14.851,10.922,21.343,14.083c6.491,3.162,16.599,16.539-3.524,19.235c-14.416,1.931-8.751,15.211-18.852,22.584
	c-10.104,7.373-42.465,9.265-33.872,23.215c7.255,11.778-4.902,19.524-14.019,17.192c-7.625-1.951-23.483-11.324-31.524-4.025
	c-6.742,6.121-9.097,25.771-2.826,41.32c6.742,16.72,10.778,25.261,39.907,9.999c29.343-15.415,58.281-39.674,70.281-40.071
	c10.925-0.352,44.688,35.479,51.854,30.462c8.667-6.063-10.188-37.31-6.059-40.237c7.082-5.026,26.365,60.38,33.498,61.251
	c8.969,1.124,2.139-32.914,4.349-41.396c2.16-8.193,7.026-43.285,46.066-30.049c55.699,18.85-17.141,23.588-33.882,33.256
	c-5.189,2.982-1.874,27.073,4.85,32.215c6.721,5.146,44.693-11.796,45.465,6.104c0.317,7.434-6.248,21.063-12.412,22.452
	c-6.165,1.389-57.566-1.387-73.725,4.756c-16.159,6.14-48.328-39.614-65.209-43.667c-9.604-2.309-38.782,10.563-55.884,16.246
	c-17.373,5.795-39.019,13.765-52.602,20.681s-34.458,22.088-42.667,49.083c-4.343,14.281,7.646,44.233,7.04,53.69
	c-0.781,12.122-2.595,27.896-2.979,33.714c-2.566,38.902-5.311,84.785,54.33,60.318c13.233-5.428,42.37-15.675,51.396-16.088
	c26.49-1.214,37.964,19.985,39.736,40.582c1.215,14.113,21.834,23.339,28.584,33.133c7.939,11.552,7.456,21.286,3.071,35.212
	c-6.928,21.968-8.854,33.214,0.679,54.63c8.805,19.778-7.88,110.646,11.401,125.222c21.437,16.188,61.781-18.308,91.168-38.125
	c6.515-4.393,36.208-19.355,40.57-35.09c4.362-15.732-12.082-55.892-1.953-70.082c10.129-14.193,48.896-8.685,41.414-36.8
	c-5.793-21.772-10.839-44.519,1.271-64.682c18.004-30.152,94.762-82.93,79.887-114.146c-7.903-16.584-68.048,28.036-82.961,24.502
	c-14.912-3.532-28.237-43.724-36.871-58.635c-8.635-14.913-20.733-27.303-16.818-32.637c3.916-5.333,17.328,18.111,21.893,32.94
	c4.563,14.83,23.286,51.438,33.226,50.439c18.26-1.835,85.595-28.221,87.045-58.861c0.687-14.459-9.976-24.859-25.084-27.615
	c-13.896-2.489-23.683,3.758-30.03-0.38c-3.906-2.547-6.062-6.856-8.89-10.832c-3.299-4.636,0.655-10.112,6.565-5.021
	c5.937,5.112,11.35,8.681,24.419,10.631c18.751,2.803,29.313,13.425,44.771,15.234c15.455,1.813,29.118,11.721,36.476,26.415
	c13.019,26.001,19.11,104.248,47.586,103.229c29.584-1.063,25.908-61.87,34.229-79.276c3.674-7.688,15.146-21.711,24.635-24.707
	c9.558-3.008,19.9,0.876,31.334,11.515c9.938,9.246,15.554,17.707,18.896,22.554c3.342,4.845,6.781,11.589,6.781,22.817
	c0,7.732-7.103,22.168-2.245,31.071c4.854,8.902,47.411,50.526,55.214,41.235c5.471-6.517-17.551-28.277-24.541-40.688
	c-7.012-12.438-13.791-37.696-7.4-37.419c9.269,0.401,14.377,26.942,24.354,30.398c15.313,5.307,44.596-23.066,25.016-48.228
	c-5.081-6.522-24.083-11.253-24.449-22.538c-0.253-7.745,7.717-17.711,12.11-12.196c10.471,13.134,11.03-1.929,17.116-3.955
	c5.889-1.965,14.655-3.59,19.747-6.715c17.103-10.494,43.638-36.7,38.354-54.688c-2.371-8.069-19.588-10.546-25.777-19.139
	c-6.688-9.281-1.393-15.92-5.521-22.736s-21.359-2.211-17.867-11.433c3.414-9.02,12.084-8.184,21.109-1.706
	c9.025,6.476,13.59,13.879,16.133,18.673s10.121,28.934,20.822,22.121c23.945-15.246-6.68-34.014-11.699-40.643
	c-3.844-5.071,2.604-18.907,8.426-21.226c5.821-2.315,8.438,3.422,14.037,1.496c4.422-1.521,12.24-10.457,12.275-14.854
	c0.123-16.022-0.787-34.287-7.262-48.417c-4.199-9.17-23.297-14.847-31.353-13.171c-10.078,2.097-19.634,5.742-21.224-2.391
	c-2.127-10.894,17.313-18.628,31.541-19.2c15.713-0.632,29.166,3.102,32.428,2.216c7.047-1.915,2.211-12.263,8.289-13.428
	c4.778-0.916,8.52,10.241,8.52,18.603c0,8.841,4.061,16.062,11.564,29.151c5.094,8.878,7.238,29.277,26.664,26.84
	c18.989-2.394,20.64-59.864,30.105-73.005c9.473-13.142,80.877-28.857,88.572-30.673c43.342-10.228,3.865-36.037-56.301-37.875
	c-12.146-0.371-70.395-3.867-102.725-7.841c-40.664-4.999-96.234-9.779-163.166-21.365c-45.398-7.812-107.422-37.382-146.367-36.491
	c-38.943,0.893-72.156,11.891-104.873,27.186C1163.031,129.705,1134.502,150.329,1109.584,156.637z"/>
</svg>
