<?xml version="1.0" encoding="utf-8"?>
<!-- Generator: Adobe Illustrator 16.0.0, SVG Export Plug-In . SVG Version: 6.00 Build 0)  -->
<!DOCTYPE svg PUBLIC "-//W3C//DTD SVG 1.1//EN" "http://www.w3.org/Graphics/SVG/1.1/DTD/svg11.dtd">
<svg version="1.1" id="레이어_1" xmlns="http://www.w3.org/2000/svg" xmlns:xlink="http://www.w3.org/1999/xlink" x="0px"
	 y="0px" width="1920px" height="1080px" viewBox="0 0 1920 1080" enable-background="new 0 0 1920 1080" xml:space="preserve">
<path fill="#DFDFDF" stroke="#9CC784" stroke-width="2" stroke-miterlimit="10" d="M1680.724,666.654
	c-10.869,1.22-7.396,37.719-14.685,38.927c-7.283,1.208-17.457-7.235-19.437-12.767c-1.979-5.529,11.385-15.855,7.521-21.843
	c-13.713-21.25-37.271,22.454-54.646,19.404c-28.918-5.076-41.845,10.816-45.693,30.241c-4.066,20.51-46.607,1.217-54.846,28.172
	c-4.313,14.128,5.188,24.02,2.987,37.305c-0.466,2.817-30.354,33.714-21.108,55.88c10.617,25.402,63.466-12.874,78.233-21.959
	c48.98-30.122,68.388,60.461,123.296,35.271c14.778-6.78,46.967-41.197,55.709-55.736c16.92-28.136-2.691-51.964-16.972-78.147
	C1711.344,699.075,1695.656,664.979,1680.724,666.654z"/>
</svg>
