<?xml version="1.0" encoding="utf-8"?>
<!-- Generator: Adobe Illustrator 16.0.0, SVG Export Plug-In . SVG Version: 6.00 Build 0)  -->
<!DOCTYPE svg PUBLIC "-//W3C//DTD SVG 1.1//EN" "http://www.w3.org/Graphics/SVG/1.1/DTD/svg11.dtd">
<svg version="1.1" id="레이어_1" xmlns="http://www.w3.org/2000/svg" xmlns:xlink="http://www.w3.org/1999/xlink" x="0px"
	 y="0px" width="1920px" height="1080px" viewBox="0 0 1920 1080" enable-background="new 0 0 1920 1080" xml:space="preserve">
<path fill="#E9E9E9" stroke="#B4D156" stroke-width="2" stroke-miterlimit="10" d="M93.775,156.744
	c-26.597,20.546-37.947,89.867-31.941,98.468c18.283,26.185,98.355-4.895,114.338-3.402c25.341,2.367,50.127,11.49,51.874,35.244
	c1.147,15.604-17.594,41.617-19.681,61.069c-2.086,19.452,49.158,129.817,61.542,124.589c12.383-5.228-5.558-38.604,3.175-40.344
	c8.732-1.738,3.806,57.923,15.394,70.134c9.896,10.429,32.647-3.634,49.936-0.833c17.289,2.803,35.142,12.015,41.917,19.628
	c6.775,7.612,5.565,30.552,15.705,36.647c15.668,9.42,19.936-3.691,28.439-1.58c12.335,3.06-0.947,12.665-4.965,20.35
	c-4.482,8.572-41.271,10.615-46.527,42.026c-2.672,15.972,46.401,38.692,54.741,50.706c6.302,9.072,4.727,41.104,13.709,47.58
	c16.878,12.165,24.222,24.527,24.438,45.076c0.582,55.038,13.826,145.274,20.207,165.563c6.38,20.285,78.358,75.85,94.759,57.035
	c9.147-10.496-34.376-71.272-7.598-128.05c11.271-23.899,56.583-81.946,73.822-101.173c17.241-19.225,74.349-81.69,64.099-131.017
	c-4.994-24.032-103.745-61.369-126.18-69.135c-22.438-7.768-37.44-14.974-49.08-28.354c-9.971-11.461-28.822-21.104-61.004-18.907
	c-17.375,1.188-29.862,24.114-31.755,20.379c-5.455-10.781-13.502,9.431-21.047,6.9c-5.178-1.736-17.591-15.448-12.324-23.438
	c16.76-25.436-10.183-13.206-16.521-21.521s7.87-27.386,1.777-36.639c-6.093-9.254-14.311,7.343-25.282,14.421
	c-3.229,2.084-10.63,12.096-17.905,4.661c-7.276-7.438-7.491-25.486,1.333-38.19c8.824-12.705,55.654-31.341,63.302-25.091
	c11.321,9.25-9.059,29.962,16.583,31.16c41.468,1.936,8.688-24.417,21.92-40.421c5.587-6.756,21.863-14.957,29.448-19.266
	c6.076-3.448,34.725-29.311,53.148-35.197c33.793-10.801,91.882-2.827,120.437-25.551c25.09-19.965-66.018-121.563-100.118-117.689
	c-15.709,1.784-6.912,26.009-25.941,35.067c-13.392,6.374-27.95,22.491-34.211,22.95c-6.263,0.46-22.099-18.844-21.525-32.785
	c1.165-28.388,38.143-19.869,48.039-16.394c9.896,3.477,10.809-21.934,18.958-23.092c8.15-1.159,63.908,30.821,74.552,28.224
	c10.645-2.596-30.242-89.119-43.049-87.381c-6.471,0.878-25.918,30.72-34.069,26.086c-5.002-2.846,13.577-20.894-8.125-24.091
	c-10.902-1.606-20.714,26.868-39.342,31.503c-18.629,4.635-66.03,4.099-75.233,2.451c-19.194-3.436-37.321-12.249-45.431-11.608
	c-8.109,0.64-87.69-15.664-134.369-14.165C202.048,140.508,128.103,130.228,93.775,156.744z"/>
</svg>
