<?xml version="1.0" encoding="utf-8"?>
<!-- Generator: Adobe Illustrator 16.0.0, SVG Export Plug-In . SVG Version: 6.00 Build 0)  -->
<!DOCTYPE svg PUBLIC "-//W3C//DTD SVG 1.1//EN" "http://www.w3.org/Graphics/SVG/1.1/DTD/svg11.dtd">
<svg version="1.1" id="레이어_1" xmlns="http://www.w3.org/2000/svg" xmlns:xlink="http://www.w3.org/1999/xlink" x="0px"
	 y="0px" width="1920px" height="1080px" viewBox="0 0 1920 1080" enable-background="new 0 0 1920 1080" xml:space="preserve">
<path fill="#DFDFDF" stroke="#9CC784" stroke-width="2" stroke-miterlimit="10" d="M1112.084,160.162
	c-47.514,11.083-76.822-20.465-109.606-24.306c-35.132-4.115-49.971,27.817-63.878,41.641c-6.688,6.65-36.331,21.813-37.62,38.249
	c-0.987,12.602,11.17,12.113,17.597,15.241c6.424,3.128,16.664,19.076-3.247,21.743c-14.268,1.911-9.463,13.926-19.457,21.222
	c-9.994,7.295-43.794,9.439-32.014,22.481c9.949,11.012-1.365,22.417-13.203,19.559c-8.402-2.029-21.896-8.496-28.833-1.465
	c-5.24,5.31-8.224,24.555-3.652,36.64c5.464,14.451,12.36,19.969,33.049,8.888c21.118-11.388,59.245-43.951,69.847-44.175
	c9.885-0.194,47.01,38.28,52.779,34.24c7.68-5.375-14.271-42.042-9.706-45.319c11.007-7.897,31.513,63.628,37.499,64.248
	c7.221,0.747,1.41-29.624,3.281-38.03c1.763-7.921,5.1-48.106,50.511-32.44c62.694,21.587-18.586,26.806-35.827,36.862
	c-4.396,2.544-3.231,22.63,3.707,27.938c6.938,5.313,48.495-8.981,47.312,9.357c-0.388,5.983-7.343,21.802-13.707,23.233
	c-6.365,1.437-56.925,2.604-73.608,8.942c-16.684,6.341-49.356-41.488-65.699-45.143c-12.06-2.692-38.299,9.378-55.03,15.389
	c-17.279,6.234-35.234,13.176-47.4,20.01C803,402,779.769,417.992,771.833,445.333c-3.764,12.971,6.548,38.017,6.081,47.381
	c-0.47,9.414-3.183,25.951-3.392,31.711c-1.174,32.168,7.11,75.136,56.096,58.359c11.139-3.814,38.745-12.354,47.674-12.788
	c26.372-1.288,41.401,21.889,41.946,40.051c0.437,14.563,20.1,28.052,25.995,38.137c6.964,11.947,6.837,19.61,3.105,33.553
	c-5.873,21.885-10.136,31.462-0.169,53.379c7.262,15.969,2.232,103.911,19.188,115.046c18.864,12.378,56.219-13.281,82.334-36.248
	c6.164-5.421,30.823-20.61,35.143-36.18c4.316-15.568-7.61-45.339,2.412-59.384c10.021-14.045,41.916-10.56,34.511-38.384
	c-5.73-21.544-10.978-41.143,0.541-61.354c17.761-31.422,90.418-85.799,73.771-108.294c-10.516-14.208-53.618,22.386-68.375,18.89
	c-14.76-3.495-28.328-42.832-36.871-57.589c-8.544-14.757-24.206-34.902-20.333-40.181c3.875-5.278,19.881,18.516,24.395,33.188
	c4.519,14.674,24.523,54.581,34.521,54.127c17.493-0.795,84.477-30.978,85.14-59.565c0.332-14.315-10.061-22.764-24.699-24.819
	c-13.82-1.943-23.271,4.291-29.647,0c-4.771-3.208-6.825-7.994-10.177-13.3c-3.64-5.765,0.896-13.029,7.431-6.999
	c6.548,6.043,12.438,11.25,27.172,13.659c18.512,3.023,27.871,12.329,43.164,14.125c15.294,1.793,28.52,7.954,37.979,22.42
	c13.985,21.387,25.432,99.873,47.276,100.4c23.063,0.563,25.099-58.854,33.48-73.786c4.894-8.712,13.433-20.406,23.519-24.849
	c10.129-4.447,21.684,1.628,32.163,12.054c9.517,9.469,16.093,18.5,19.397,23.293c3.31,4.795,7.438,13.857,7.438,24.973
	c0,7.648-5.207,19.927-0.403,28.734c4.805,8.812,43.063,48.386,50.033,41.896c5.233-4.87-16.4-27.578-23.71-41.314
	c-7.317-13.758-12.741-36.547-5.821-36.35c8.84,0.252,14.658,25.431,24.473,29.008c13.392,4.882,40.234-23.094,21.662-46.7
	c-4.891-6.208-22.309-11.387-22.672-22.554c-0.25-7.664,9.818-20.271,13.957-13.422c8.521,14.1,10.396-0.629,16.416-2.637
	c5.826-1.942,12.914-3.164,17.83-6.442c17.646-11.769,41.147-38.32,35.793-54.065c-2.676-7.867-16.921-11.957-23.047-20.459
	c-6.615-9.184-0.261-14.777-4.349-21.521c-4.088-6.745-23.082-0.804-20.056-11.034c3.498-11.827,15.188-9.961,24.116-3.554
	c8.933,6.408,14.066,13.217,16.584,17.961c2.517,4.744,8.175,26.663,19.124,20.579c22.725-12.625-8.875-31.196-12.281-37.807
	c-2.834-5.495,3.681-19.348,9.438-21.639c5.761-2.291,8.55,3.243,13.678,0.567c3.854-2.014,9.617-11.497,9.65-15.848
	c0.12-15.854-1.271-29.83-7.677-43.813c-4.155-9.074-20.01-15.632-28.563-13.54c-9.888,2.418-19.245,4.208-21.063-3.783
	c-2.231-9.817,12.248-21.054,30.58-21.58c15.553-0.446,32.444,3.438,34.918,1.723c4.359-3.023-1.889-13.473,5.746-14.311
	c4.772-0.524,12.762,11.112,12.762,19.386c0,8.748,0.865,13.871,9.306,26.087c4.692,6.795,11.056,28.904,27.101,26.312
	c15.754-2.564,15.426-56.72,24.795-69.724c9.371-13.004,63.261-23.02,70.659-25.443c37.902-12.408-0.146-30.261-44.05-33.14
	c-11.982-0.786-54.689-2.267-86.505-7.295c-37.334-5.9-105.979-15.56-171.84-24.731c-45.131-6.221-103.631-28.249-142.168-27.366
	c-38.536,0.883-64.557,9.73-95.748,22.372C1172.503,135.585,1136.83,154.388,1112.084,160.162z"/>
</svg>
