<?xml version="1.0" encoding="utf-8"?>
<!-- Generator: Adobe Illustrator 16.0.0, SVG Export Plug-In . SVG Version: 6.00 Build 0)  -->
<!DOCTYPE svg PUBLIC "-//W3C//DTD SVG 1.1//EN" "http://www.w3.org/Graphics/SVG/1.1/DTD/svg11.dtd">
<svg version="1.1" id="레이어_1" xmlns="http://www.w3.org/2000/svg" xmlns:xlink="http://www.w3.org/1999/xlink" x="0px"
	 y="0px" width="17px" height="17px" viewBox="0 0 17 17" enable-background="new 0 0 17 17" xml:space="preserve">
<path fill="#E70095" d="M3.835,11.289h2.422v2.342c0,1.471,1.191,2.664,2.661,2.664c1.473,0,2.67-1.193,2.67-2.664v-2.342h2.258
	c1.467,0,2.662-1.201,2.662-2.67c0-1.468-1.195-2.664-2.662-2.664h-2.258V3.617c0-1.477-1.197-2.673-2.67-2.673
	c-1.47,0-2.661,1.196-2.661,2.673v2.337H3.835c-1.479,0-2.673,1.196-2.673,2.664C1.162,10.088,2.356,11.289,3.835,11.289z
	 M8.214,3.617c0-0.398,0.312-0.715,0.704-0.715c0.389,0,0.713,0.317,0.713,0.715v4.294h4.215c0.391,0,0.711,0.32,0.711,0.708
	c0,0.391-0.32,0.708-0.711,0.708H9.631v4.305c0,0.394-0.324,0.707-0.713,0.707c-0.393,0-0.704-0.313-0.704-0.707V9.326H3.835
	c-0.393,0-0.716-0.316-0.716-0.708c0-0.387,0.323-0.708,0.716-0.708h4.379"/>
</svg>
