<?xml version="1.0" encoding="utf-8"?>
<!-- Generator: Adobe Illustrator 16.0.0, SVG Export Plug-In . SVG Version: 6.00 Build 0)  -->
<!DOCTYPE svg PUBLIC "-//W3C//DTD SVG 1.1//EN" "http://www.w3.org/Graphics/SVG/1.1/DTD/svg11.dtd">
<svg version="1.1" id="레이어_1" xmlns="http://www.w3.org/2000/svg" xmlns:xlink="http://www.w3.org/1999/xlink" x="0px"
	 y="0px" width="63px" height="16px" viewBox="0 0 63 16" enable-background="new 0 0 63 16" xml:space="preserve">
<path fill="#666666" d="M4.362,11.689c3.288,0.18,5.514,0.271,6.678,0.271c0.276,0,0.495-0.081,0.657-0.243s0.243-0.381,0.243-0.657
	v-1.62H7.8c-1.26,0-2.175-0.285-2.745-0.854C4.485,8.015,4.2,7.1,4.2,5.84V5.3c0-1.26,0.285-2.175,0.854-2.745
	C5.625,1.985,6.54,1.7,7.8,1.7h6.318v2.52H8.521C7.8,4.22,7.44,4.58,7.44,5.3v0.36c0,0.72,0.359,1.08,1.08,1.08h3.239
	c1.177,0,2.04,0.276,2.593,0.828c0.552,0.552,0.827,1.416,0.827,2.592v0.899c0,1.177-0.275,2.04-0.827,2.593
	c-0.553,0.552-1.416,0.828-2.593,0.828c-0.611,0-1.26-0.013-1.943-0.037L8.16,14.371c-1.224-0.06-2.49-0.143-3.798-0.252V11.689z"/>
<path fill="#666666" d="M16.8,1.7h7.56c1.261,0,2.175,0.285,2.745,0.855c0.57,0.57,0.855,1.485,0.855,2.745v1.8
	c0,1.26-0.285,2.176-0.855,2.745c-0.57,0.57-1.484,0.854-2.745,0.854H20.04V14.3H16.8V1.7z M24.72,5.3c0-0.72-0.36-1.08-1.08-1.08
	h-3.6v3.96h3.6c0.72,0,1.08-0.36,1.08-1.08V5.3z"/>
<path fill="#666666" d="M30.75,14.3h-3.51l4.77-12.6h3.601l4.77,12.6h-3.51l-0.811-2.25h-4.5L30.75,14.3z M32.37,9.71h2.88
	l-1.44-4.23L32.37,9.71z"/>
<path fill="#666666" d="M47.22,14.3H40.74v-2.521h1.62V4.22h-1.62V1.7h6.479v2.52h-1.619v7.56h1.619V14.3z"/>
<path fill="#666666" d="M59.819,14.3h-3.42L52.08,6.74v7.56h-3.24V1.7h3.42l4.32,7.56V1.7h3.239V14.3z"/>
</svg>
