<?xml version="1.0" encoding="utf-8"?>
<!-- Generator: Adobe Illustrator 16.0.0, SVG Export Plug-In . SVG Version: 6.00 Build 0)  -->
<!DOCTYPE svg PUBLIC "-//W3C//DTD SVG 1.1//EN" "http://www.w3.org/Graphics/SVG/1.1/DTD/svg11.dtd">
<svg version="1.1" id="레이어_1" xmlns="http://www.w3.org/2000/svg" xmlns:xlink="http://www.w3.org/1999/xlink" x="0px"
	 y="0px" width="17px" height="17px" viewBox="0 0 17 17" enable-background="new 0 0 17 17" xml:space="preserve">
<path fill="#E70095" d="M5.495,7.586c0.618,0.619,0.618,1.615,0.008,2.227L2.868,12.45c-0.566,0.561-0.566,1.478,0,2.038
	c0.57,0.563,1.479,0.563,2.04,0L7.56,11.85c0.608-0.617,1.606-0.617,2.217,0l2.685,2.691c0.562,0.563,1.438,0.547,2.034-0.053
	c0.511-0.512,0.553-1.354,0.102-1.916c-0.086-0.092-2.764-2.771-2.764-2.771c-0.617-0.615-0.617-1.616,0-2.222l2.662-2.669
	c0.557-0.565,0.557-1.476,0-2.042c-0.566-0.561-1.482-0.561-2.044,0L9.775,5.541c-0.609,0.613-1.607,0.613-2.226,0
	c0,0-2.704-2.704-2.815-2.819c-0.57-0.409-1.364-0.355-1.867,0.146C2.294,3.444,2.271,4.421,2.807,4.964L5.495,7.586z"/>
</svg>
