<?xml version="1.0" encoding="utf-8"?>
<!-- Generator: Adobe Illustrator 16.0.0, SVG Export Plug-In . SVG Version: 6.00 Build 0)  -->
<!DOCTYPE svg PUBLIC "-//W3C//DTD SVG 1.1//EN" "http://www.w3.org/Graphics/SVG/1.1/DTD/svg11.dtd">
<svg version="1.1" id="레이어_1" xmlns="http://www.w3.org/2000/svg" xmlns:xlink="http://www.w3.org/1999/xlink" x="0px"
	 y="0px" width="112px" height="16px" viewBox="0 0 112 16" enable-background="new 0 0 112 16" xml:space="preserve">
<path fill="#666666" d="M6.51,14.299H3l4.77-12.6h3.601l4.77,12.6h-3.51l-0.811-2.25h-4.5L6.51,14.299z M8.13,9.709h2.88
	l-1.44-4.229L8.13,9.709z"/>
<path fill="#666666" d="M24.779,1.699h3.24v9.18c0,1.26-0.285,2.176-0.854,2.746c-0.57,0.569-1.485,0.854-2.745,0.854h-4.141
	c-1.26,0-2.175-0.285-2.745-0.854c-0.569-0.57-0.854-1.486-0.854-2.746v-9.18h3.24v9.18c0,0.721,0.359,1.08,1.08,1.08h2.699
	c0.721,0,1.08-0.359,1.08-1.08V1.699z"/>
<path fill="#666666" d="M29.802,11.689c3.288,0.18,5.514,0.27,6.678,0.27c0.276,0,0.495-0.08,0.657-0.242s0.243-0.381,0.243-0.658
	V9.439h-4.141c-1.26,0-2.175-0.285-2.745-0.855c-0.569-0.57-0.854-1.485-0.854-2.745v-0.54c0-1.26,0.285-2.175,0.854-2.745
	c0.57-0.57,1.485-0.855,2.745-0.855h6.318v2.52H33.96c-0.721,0-1.08,0.36-1.08,1.08v0.36c0,0.72,0.359,1.08,1.08,1.08h3.239
	c1.177,0,2.04,0.276,2.593,0.828c0.552,0.552,0.827,1.416,0.827,2.592v0.899c0,1.177-0.275,2.041-0.827,2.593
	c-0.553,0.552-1.416,0.828-2.593,0.828c-0.611,0-1.26-0.013-1.943-0.036L33.6,14.371c-1.224-0.061-2.49-0.144-3.798-0.252V11.689z"
	/>
<path fill="#666666" d="M47.46,14.299h-3.24V4.219h-3.78v-2.52H51.24v2.52h-3.78V14.299z"/>
<path fill="#666666" d="M52.5,1.699h7.56c1.261,0,2.175,0.285,2.745,0.855c0.57,0.57,0.855,1.485,0.855,2.745v1.62
	c0,0.996-0.165,1.77-0.495,2.322s-0.855,0.918-1.575,1.099l2.25,3.959h-3.51l-2.07-3.779h-2.52v3.779H52.5V1.699z M60.42,5.299
	c0-0.72-0.36-1.08-1.08-1.08h-3.6V8h3.6c0.72,0,1.08-0.36,1.08-1.08V5.299z"/>
<path fill="#666666" d="M67.71,14.299H64.2l4.77-12.6h3.601l4.77,12.6h-3.51l-0.811-2.25h-4.5L67.71,14.299z M69.33,9.709h2.88
	l-1.44-4.229L69.33,9.709z"/>
<path fill="#666666" d="M81.479,11.779h6.569v2.52h-9.81v-12.6h3.24V11.779z"/>
<path fill="#666666" d="M95.249,14.299H88.77v-2.52h1.62v-7.56h-1.62v-2.52h6.479v2.52H93.63v7.56h1.619V14.299z"/>
<path fill="#666666" d="M99.119,14.299h-3.51l4.77-12.6h3.601l4.77,12.6h-3.51l-0.811-2.25h-4.5L99.119,14.299z M100.739,9.709h2.88
	l-1.44-4.229L100.739,9.709z"/>
</svg>
