<?xml version="1.0" encoding="utf-8"?>
<!-- Generator: Adobe Illustrator 16.0.0, SVG Export Plug-In . SVG Version: 6.00 Build 0)  -->
<!DOCTYPE svg PUBLIC "-//W3C//DTD SVG 1.1//EN" "http://www.w3.org/Graphics/SVG/1.1/DTD/svg11.dtd">
<svg version="1.1" id="레이어_1" xmlns="http://www.w3.org/2000/svg" xmlns:xlink="http://www.w3.org/1999/xlink" x="0px"
	 y="0px" width="17px" height="17px" viewBox="0 0 17 17" enable-background="new 0 0 17 17" xml:space="preserve">
<path fill="#E70095" d="M1.76,10.098h4.329c-0.313,0.633-1.75,3.527-1.75,3.527c-0.046,0.092-0.073,0.195-0.073,0.3
	c0,0.134,0.049,0.269,0.138,0.38c0.127,0.156,0.327,0.25,0.548,0.25h2.115c0.153,0,0.309-0.041,0.451-0.123
	c0.159-0.09,0.28-0.209,0.354-0.354c0,0,1.687-3.396,1.976-3.979h4.375c0.153,0,0.31-0.037,0.452-0.115
	c0.158-0.09,0.277-0.209,0.351-0.354l0.818-1.658c0.119-0.225,0.092-0.485-0.064-0.683c-0.127-0.159-0.324-0.246-0.543-0.246h-3.871
	c0.283-0.569,1.578-3.176,1.578-3.176c0.049-0.095,0.07-0.194,0.07-0.29c0-0.144-0.047-0.28-0.137-0.39
	c-0.127-0.154-0.322-0.247-0.546-0.247h-1.058H10.21c-0.151,0-0.313,0.041-0.451,0.121c-0.157,0.086-0.28,0.207-0.347,0.356
	c0,0-1.538,3.086-1.807,3.625H2.773c-0.155,0-0.308,0.039-0.449,0.123c-0.163,0.085-0.282,0.21-0.347,0.355L1.562,8.343L1.15,9.174
	C1.038,9.4,1.057,9.664,1.218,9.854C1.343,10.01,1.544,10.098,1.76,10.098z"/>
</svg>
