<?xml version="1.0" encoding="utf-8"?>
<!-- Generator: Adobe Illustrator 16.0.0, SVG Export Plug-In . SVG Version: 6.00 Build 0)  -->
<!DOCTYPE svg PUBLIC "-//W3C//DTD SVG 1.1//EN" "http://www.w3.org/Graphics/SVG/1.1/DTD/svg11.dtd">
<svg version="1.1" id="레이어_1" xmlns="http://www.w3.org/2000/svg" xmlns:xlink="http://www.w3.org/1999/xlink" x="0px"
	 y="0px" width="30px" height="30px" viewBox="0 0 30 30" enable-background="new 0 0 30 30" xml:space="preserve">
<path fill="#E70095" d="M13.979,8.03c0.771-0.118,1.17-0.67,1.875-1.265c0.695-0.589,1.332-0.62,1.984-0.461
	c-0.871-0.501-1.355-1.392-2.074-2.079c-0.806-0.749-1.915-1.292-3.081-1.061c-1.119,0.223-1.952,0.827-2.474,1.984
	C9.785,6.091,9.758,6.911,9.257,7.549c0.659-0.351,1.448-0.351,2.139-0.168C12.262,7.621,13.015,8.175,13.979,8.03z"/>
<path fill="#E70095" d="M24.051,13.455c0.016-1.006,0.559-1.868,0.799-2.83c0.262-1.063,0.178-2.296-0.59-3.188
	c-0.756-0.855-1.564-1.526-3.057-1.208c-1.008,0.213-1.732,0.522-2.514,0.403c0.662,0.376,1.074,1.09,1.26,1.802
	c0.227,0.87,0.117,1.794,0.721,2.562c0.484,0.596,1.191,0.553,2.016,0.965C23.391,12.302,23.838,12.822,24.051,13.455z"/>
<path fill="#E70095" d="M6.246,14.199c0.641-0.626,1.502-1.003,1.855-1.9C8.379,11.573,8,10.946,7.938,10.044
	C7.883,9.248,8.102,8.623,8.555,8.119C7.675,8.6,6.673,8.583,5.717,8.858C4.666,9.161,3.63,9.856,3.258,10.966
	c-0.376,1.08-0.287,2.119,0.461,3.153c0.581,0.807,1.289,1.227,1.598,1.925C5.363,15.332,5.75,14.68,6.246,14.199z"/>
<path fill="#E70095" d="M18.1,23.085c-0.869-0.239-1.609-0.806-2.584-0.653c-0.767,0.117-1.109,0.771-1.874,1.281
	c-0.613,0.411-1.218,0.531-1.83,0.438c0.783,0.522,1.257,1.359,1.942,2.012c0.795,0.742,1.911,1.301,3.073,1.074
	c1.114-0.226,2.008-0.851,2.555-2.008c0.396-0.895,0.396-1.674,0.82-2.28C19.563,23.271,18.779,23.271,18.1,23.085z"/>
<path fill="#E70095" d="M9.594,22.033c-0.225-0.86-0.114-1.785-0.726-2.549c-0.479-0.604-1.22-0.564-2.048-0.969
	c-0.682-0.322-1.11-0.812-1.322-1.412c-0.059,0.948-0.552,1.776-0.777,2.698c-0.258,1.063-0.181,2.306,0.596,3.189
	c0.75,0.846,1.703,1.282,2.972,1.171c0.975-0.096,1.687-0.471,2.432-0.411C10.141,23.352,9.769,22.693,9.594,22.033z"/>
<path fill="#E70095" d="M25.797,16.271c-0.591-0.827-1.283-1.218-1.583-1.931c-0.011,0.751-0.415,1.444-0.944,1.951
	c-0.629,0.617-1.498,0.992-1.856,1.897c-0.288,0.718,0.119,1.308,0.187,2.223c0.045,0.738-0.162,1.355-0.558,1.849
	c0.853-0.45,1.835-0.429,2.765-0.696c1.051-0.304,2.092-0.983,2.477-2.104C26.652,18.393,26.54,17.309,25.797,16.271z"/>
</svg>
