<?xml version="1.0" encoding="utf-8"?>
<!-- Generator: Adobe Illustrator 16.0.0, SVG Export Plug-In . SVG Version: 6.00 Build 0)  -->
<!DOCTYPE svg PUBLIC "-//W3C//DTD SVG 1.1//EN" "http://www.w3.org/Graphics/SVG/1.1/DTD/svg11.dtd">
<svg version="1.1" id="레이어_1" xmlns="http://www.w3.org/2000/svg" xmlns:xlink="http://www.w3.org/1999/xlink" x="0px"
	 y="0px" width="76px" height="16px" viewBox="0 0 76 16" enable-background="new 0 0 76 16" xml:space="preserve">
<path fill="#666666" d="M14.167,7.28l-2.52,4.5H9.126l-2.52-4.5v7.02h-3.24V1.7h3.42l3.6,6.66l3.601-6.66h3.42v12.6h-3.24V7.28z"/>
<path fill="#666666" d="M29.557,14.3h-9.99V1.7h9.99v2.52h-6.75v2.43h5.31v2.52h-5.31v2.609h6.75V14.3z"/>
<path fill="#666666" d="M38.287,1.7h3.6L37.836,8l4.14,6.3h-3.6l-2.52-3.96l-2.521,3.96h-3.6l4.14-6.3l-4.05-6.3h3.582l2.448,3.96
	L38.287,1.7z"/>
<path fill="#666666" d="M48.816,14.3h-6.48v-2.521h1.621V4.22h-1.621V1.7h6.48v2.52h-1.619v7.56h1.619V14.3z"/>
<path fill="#666666" d="M60.156,14.119c-2.676,0.24-4.896,0.361-6.66,0.361c-1.176,0-2.041-0.276-2.592-0.828
	c-0.553-0.553-0.828-1.416-0.828-2.593V5.3c0-1.26,0.285-2.175,0.855-2.745C51.5,1.985,52.416,1.7,53.676,1.7h6.48v2.52h-5.76
	c-0.721,0-1.08,0.36-1.08,1.08v5.76c0,0.276,0.08,0.495,0.242,0.657s0.369,0.243,0.621,0.243s0.527-0.003,0.828-0.009
	s0.611-0.016,0.936-0.027s0.652-0.023,0.982-0.036c0.328-0.012,0.756-0.036,1.277-0.071c0.521-0.037,1.172-0.078,1.953-0.127V14.119
	z"/>
<path fill="#666666" d="M72.936,10.88c0,1.26-0.285,2.175-0.854,2.745c-0.57,0.57-1.486,0.855-2.746,0.855h-4.5
	c-1.26,0-2.176-0.285-2.744-0.855c-0.57-0.57-0.855-1.485-0.855-2.745V5.12c0-1.26,0.285-2.175,0.855-2.745
	c0.568-0.57,1.484-0.855,2.744-0.855h4.5c1.26,0,2.176,0.285,2.746,0.855c0.568,0.57,0.854,1.485,0.854,2.745V10.88z M69.695,5.12
	c0-0.72-0.359-1.08-1.08-1.08h-3.059c-0.721,0-1.08,0.36-1.08,1.08v5.76c0,0.72,0.359,1.08,1.08,1.08h3.059
	c0.721,0,1.08-0.36,1.08-1.08V5.12z"/>
</svg>
