<?xml version="1.0" encoding="utf-8"?>
<!-- Generator: Adobe Illustrator 16.0.0, SVG Export Plug-In . SVG Version: 6.00 Build 0)  -->
<!DOCTYPE svg PUBLIC "-//W3C//DTD SVG 1.1//EN" "http://www.w3.org/Graphics/SVG/1.1/DTD/svg11.dtd">
<svg version="1.1" id="레이어_1" xmlns="http://www.w3.org/2000/svg" xmlns:xlink="http://www.w3.org/1999/xlink" x="0px"
	 y="0px" width="30px" height="30px" viewBox="0 0 30 30" enable-background="new 0 0 30 30" xml:space="preserve">
<path fill="#E70095" d="M7.744,21.477l-0.063,0.06c-0.316,0.319-0.684,0.575-1.084,0.786c-0.381,0.185-0.809,0.32-1.225,0.394
	c-0.148,0.029-0.285,0.074-0.424,0.146C4.77,22.947,4.6,23.059,4.458,23.2c-0.629,0.637-0.643,1.68,0,2.306v0.01h0.008
	c0.523,0.528,1.307,0.614,1.908,0.289c0.186-0.082,0.336-0.191,0.484-0.33c0.227-0.224,0.391-0.517,0.445-0.828
	c0.146-0.896,0.574-1.75,1.215-2.394l0.064-0.063c0,0,0.816-0.789,1.904-1.631c4.602-2.787,9.043,0.114,10.385,1.146
	c0.34,0.295,0.535,0.504,0.535,0.504l0.072,0.067c0.637,0.638,1.063,1.48,1.219,2.381c0.059,0.314,0.213,0.605,0.449,0.833
	c0.039,0.04,0.102,0.087,0.137,0.122c0.641,0.543,1.607,0.519,2.217-0.086v-0.004l0.006-0.008c0.631-0.635,0.625-1.672,0-2.313
	c-0.047-0.037-0.09-0.076-0.131-0.11c-0.219-0.186-0.477-0.314-0.75-0.357c-0.73-0.123-1.434-0.431-2.01-0.879
	c-0.115-0.103-0.23-0.201-0.344-0.31l-0.063-0.065c0,0-0.765-0.791-1.58-1.836c-2.938-4.656,0.019-9.176,1.058-10.528
	c0.303-0.339,0.502-0.546,0.502-0.546L22.25,8.5c0.643-0.642,1.496-1.073,2.393-1.223c0.313-0.047,0.594-0.215,0.832-0.444
	c0.041-0.041,0.082-0.093,0.127-0.138c0.537-0.636,0.506-1.602-0.092-2.203l-0.002-0.008V4.479h-0.006
	c-0.643-0.637-1.676-0.629-2.314,0c-0.039,0.042-0.08,0.088-0.108,0.127c-0.187,0.215-0.313,0.474-0.365,0.753
	c-0.133,0.765-0.463,1.487-0.955,2.1c-0.079,0.084-0.149,0.161-0.237,0.247l-0.054,0.062c0,0-0.793,0.764-1.846,1.58
	c-4.357,2.761-8.605,0.343-10.229-0.835C8.879,8.077,8.555,7.76,8.555,7.76L8.496,7.699C7.85,7.062,7.426,6.211,7.268,5.307
	C7.223,4.992,7.059,4.705,6.832,4.479c-0.637-0.637-1.67-0.637-2.314-0.004v0.004l-0.01,0.006c-0.223,0.22-0.36,0.488-0.422,0.777
	c-0.145,0.541,0,1.139,0.422,1.564c0.227,0.222,0.516,0.392,0.828,0.439c0.898,0.157,1.75,0.582,2.395,1.227l0.057,0.062
	c0,0,0.854,0.874,1.73,2.024c2.52,4.238,0.229,8.341-0.934,9.969C8.102,21.109,7.744,21.477,7.744,21.477z"/>
</svg>
