<?xml version="1.0" encoding="utf-8"?>
<!-- Generator: Adobe Illustrator 16.0.0, SVG Export Plug-In . SVG Version: 6.00 Build 0)  -->
<!DOCTYPE svg PUBLIC "-//W3C//DTD SVG 1.1//EN" "http://www.w3.org/Graphics/SVG/1.1/DTD/svg11.dtd">
<svg version="1.1" id="레이어_1" xmlns="http://www.w3.org/2000/svg" xmlns:xlink="http://www.w3.org/1999/xlink" x="0px"
	 y="0px" width="161px" height="16px" viewBox="0 0 161 16" enable-background="new 0 0 161 16" xml:space="preserve">
<path fill="#666666" d="M12.8,14.119c-2.676,0.24-4.896,0.361-6.66,0.361c-1.176,0-2.04-0.276-2.592-0.828
	C2.997,13.1,2.72,12.236,2.72,11.06V5.3c0-1.26,0.285-2.175,0.855-2.745C4.145,1.985,5.06,1.7,6.321,1.7H12.8v2.52h-5.76
	c-0.72,0-1.08,0.36-1.08,1.08v5.76c0,0.276,0.081,0.495,0.243,0.657s0.369,0.243,0.621,0.243s0.527-0.003,0.828-0.009
	c0.3-0.006,0.611-0.016,0.936-0.027S9.24,11.9,9.57,11.888c0.329-0.012,0.756-0.036,1.277-0.071
	c0.522-0.037,1.173-0.078,1.953-0.127V14.119z"/>
<path fill="#666666" d="M23.781,4.22l-6.3,7.56h6.3V14.3h-10.26v-2.521l6.3-7.56h-6.3V1.7h10.26V4.22z"/>
<path fill="#666666" d="M35.21,14.3h-9.99V1.7h9.99v2.52h-6.75v2.43h5.31v2.52h-5.31v2.609h6.75V14.3z"/>
<path fill="#666666" d="M46.37,14.119c-2.676,0.24-4.896,0.361-6.66,0.361c-1.176,0-2.04-0.276-2.592-0.828
	c-0.552-0.553-0.828-1.416-0.828-2.593V5.3c0-1.26,0.285-2.175,0.855-2.745C37.714,1.985,38.629,1.7,39.89,1.7h6.479v2.52h-5.76
	c-0.72,0-1.08,0.36-1.08,1.08v5.76c0,0.276,0.081,0.495,0.243,0.657s0.369,0.243,0.621,0.243s0.527-0.003,0.828-0.009
	c0.3-0.006,0.611-0.016,0.936-0.027s0.651-0.023,0.981-0.036c0.329-0.012,0.756-0.036,1.277-0.071
	c0.522-0.037,1.173-0.078,1.953-0.127V14.119z"/>
<path fill="#666666" d="M58.79,14.3H55.55V9.17h-4.5v5.13h-3.24V1.7h3.24v4.95h4.5V1.7h3.239V14.3z"/>
<path fill="#666666" d="M66.35,1.7h7.56c1.261,0,2.175,0.285,2.745,0.855c0.57,0.57,0.855,1.485,0.855,2.745v1.62
	c0,0.996-0.165,1.77-0.495,2.322c-0.33,0.552-0.855,0.918-1.575,1.098l2.25,3.96h-3.51l-2.07-3.78h-2.52v3.78h-3.24V1.7z M74.27,5.3
	c0-0.72-0.36-1.08-1.08-1.08h-3.6V8h3.6c0.72,0,1.08-0.36,1.08-1.08V5.3z"/>
<path fill="#666666" d="M89.299,14.3h-9.99V1.7h9.99v2.52h-6.75v2.43h5.311v2.52h-5.311v2.609h6.75V14.3z"/>
<path fill="#666666" d="M90.74,1.7h7.559c1.262,0,2.176,0.285,2.746,0.855c0.57,0.57,0.855,1.485,0.855,2.745v1.8
	c0,1.26-0.285,2.176-0.855,2.745c-0.57,0.57-1.484,0.854-2.746,0.854H93.98V14.3h-3.24V1.7z M98.66,5.3c0-0.72-0.361-1.08-1.08-1.08
	h-3.6v3.96h3.6c0.719,0,1.08-0.36,1.08-1.08V5.3z"/>
<path fill="#666666" d="M111.619,1.7h3.24v9.18c0,1.26-0.285,2.175-0.855,2.745s-1.484,0.855-2.744,0.855h-4.141
	c-1.26,0-2.176-0.285-2.746-0.855c-0.568-0.57-0.854-1.485-0.854-2.745V1.7h3.24v9.18c0,0.72,0.359,1.08,1.08,1.08h2.699
	c0.721,0,1.08-0.36,1.08-1.08V1.7z"/>
<path fill="#666666" d="M117.02,1.7h7.199c1.176,0,2.041,0.267,2.592,0.801c0.553,0.534,0.828,1.347,0.828,2.439
	c0,0.72-0.156,1.305-0.467,1.755c-0.313,0.45-0.697,0.765-1.152,0.945c0.971,0.264,1.631,0.912,1.979,1.944
	c0.121,0.372,0.182,0.804,0.182,1.296c0,1.177-0.277,2.04-0.828,2.592c-0.553,0.552-1.416,0.828-2.592,0.828h-7.74V1.7z
	 M124.398,5.3c0-0.72-0.359-1.08-1.08-1.08h-3.059v2.52h3.059c0.721,0,1.08-0.36,1.08-1.08V5.3z M124.939,10.34
	c0-0.721-0.361-1.08-1.08-1.08h-3.6v2.52h3.6c0.719,0,1.08-0.359,1.08-1.08V10.34z"/>
<path fill="#666666" d="M133.039,11.779h6.57V14.3h-9.811V1.7h3.24V11.779z"/>
<path fill="#666666" d="M146.809,14.3h-6.48v-2.521h1.621V4.22h-1.621V1.7h6.48v2.52h-1.619v7.56h1.619V14.3z"/>
<path fill="#666666" d="M158.148,14.119c-2.676,0.24-4.895,0.361-6.66,0.361c-1.176,0-2.039-0.276-2.592-0.828
	c-0.551-0.553-0.828-1.416-0.828-2.593V5.3c0-1.26,0.285-2.175,0.855-2.745c0.57-0.57,1.484-0.855,2.746-0.855h6.479v2.52h-5.76
	c-0.719,0-1.08,0.36-1.08,1.08v5.76c0,0.276,0.082,0.495,0.244,0.657s0.369,0.243,0.621,0.243s0.527-0.003,0.828-0.009
	c0.299-0.006,0.611-0.016,0.936-0.027s0.65-0.023,0.98-0.036c0.33-0.012,0.756-0.036,1.277-0.071
	c0.523-0.037,1.174-0.078,1.953-0.127V14.119z"/>
</svg>
