<?xml version="1.0" encoding="utf-8"?>
<!-- Generator: Adobe Illustrator 16.0.0, SVG Export Plug-In . SVG Version: 6.00 Build 0)  -->
<!DOCTYPE svg PUBLIC "-//W3C//DTD SVG 1.1//EN" "http://www.w3.org/Graphics/SVG/1.1/DTD/svg11.dtd">
<svg version="1.1" id="레이어_1" xmlns="http://www.w3.org/2000/svg" xmlns:xlink="http://www.w3.org/1999/xlink" x="0px"
	 y="0px" width="85px" height="16px" viewBox="0 0 85 16" enable-background="new 0 0 85 16" xml:space="preserve">
<path fill="#666666" d="M6.32,14.3H3.08V1.7h9.99v2.52H6.32v2.97h5.31v2.52H6.32V14.3z"/>
<path fill="#666666" d="M20.27,14.3H13.79v-2.521h1.62V4.22h-1.62V1.7h6.479v2.52H18.65v7.56h1.619V14.3z"/>
<path fill="#666666" d="M32.869,14.3h-3.42L25.13,6.74v7.56h-3.24V1.7h3.42l4.32,7.56V1.7h3.239V14.3z"/>
<path fill="#666666" d="M38.271,11.779h6.569V14.3h-9.81V1.7h3.24V11.779z"/>
<path fill="#666666" d="M48.35,14.3h-3.51l4.77-12.6h3.601l4.77,12.6h-3.51l-0.811-2.25h-4.5L48.35,14.3z M49.97,9.71h2.88
	l-1.44-4.23L49.97,9.71z"/>
<path fill="#666666" d="M69.859,14.3h-3.42L62.12,6.74v7.56h-3.24V1.7h3.42l4.32,7.56V1.7h3.239V14.3z"/>
<path fill="#666666" d="M79.039,1.7c1.356,0,2.386,0.351,3.087,1.053c0.702,0.702,1.054,1.731,1.054,3.087v4.32
	c0,1.355-0.352,2.385-1.054,3.086c-0.701,0.703-1.73,1.054-3.087,1.054h-7.02V1.7H79.039z M79.939,5.84c0-1.08-0.54-1.62-1.62-1.62
	h-3.06v7.56h3.06c1.08,0,1.62-0.539,1.62-1.619V5.84z"/>
</svg>
