<?xml version="1.0" encoding="utf-8"?>
<!-- Generator: Adobe Illustrator 16.0.0, SVG Export Plug-In . SVG Version: 6.00 Build 0)  -->
<!DOCTYPE svg PUBLIC "-//W3C//DTD SVG 1.1//EN" "http://www.w3.org/Graphics/SVG/1.1/DTD/svg11.dtd">
<svg version="1.1" id="레이어_1" xmlns="http://www.w3.org/2000/svg" xmlns:xlink="http://www.w3.org/1999/xlink" x="0px"
	 y="0px" width="30px" height="30px" viewBox="0 0 30 30" enable-background="new 0 0 30 30" xml:space="preserve">
<path fill="#E70095" d="M27.654,13.634h-9.279c1.15-1.157,6.561-6.559,6.561-6.559l-1.787-1.804c0,0-5.416,5.41-6.564,6.57V2.563
	H16.15h-2.115v9.279c-1.148-1.16-6.554-6.57-6.554-6.57L5.684,7.075c0,0,5.416,5.401,6.565,6.559c-1.632,0-9.285,0-9.285,0v2.539
	h9.285c-1.149,1.154-6.573,6.562-6.573,6.562l1.806,1.8c0,0,5.405-5.411,6.554-6.57v9.289h2.548v-9.289
	c1.148,1.159,6.564,6.57,6.564,6.57l1.787-1.8c0,0-5.408-5.406-6.561-6.562h9.279V13.634z"/>
</svg>
