<?xml version="1.0" encoding="utf-8"?>
<!-- Generator: Adobe Illustrator 16.0.0, SVG Export Plug-In . SVG Version: 6.00 Build 0)  -->
<!DOCTYPE svg PUBLIC "-//W3C//DTD SVG 1.1//EN" "http://www.w3.org/Graphics/SVG/1.1/DTD/svg11.dtd">
<svg version="1.1" id="레이어_1" xmlns="http://www.w3.org/2000/svg" xmlns:xlink="http://www.w3.org/1999/xlink" x="0px"
	 y="0px" width="30px" height="30px" viewBox="0 0 30 30" enable-background="new 0 0 30 30" xml:space="preserve">
<path fill="#E70095" d="M8.033,21.843c-0.016,3.69,3.228,6.7,7.242,6.716c4.017,0.025,7.292-2.951,7.313-6.644l0.069-13.203
	c0.013-3.697-3.229-6.696-7.251-6.719C11.392,1.966,8.119,4.945,8.1,8.636L8.033,21.843z M12.621,13.864l-0.023-0.021l-1.322-1.689
	l-0.244-0.362c-0.65-0.995-1.023-2.088-1.023-3.028c0.014-2.421,2.448-4.359,5.434-4.345c2.983,0.016,5.385,1.981,5.37,4.399
	c0,1.093-0.334,2.15-1.129,3.24l0.01-0.027l-0.115,0.179l-1.342,1.659l-0.022,0.029c-0.284,0.362-0.466,0.839-0.466,1.369v0.063
	c-0.005,0.53,0.166,1.015,0.45,1.364l0.034,0.065l0.938,1.183l0.289,0.354c0.771,1.095,1.227,2.396,1.219,3.488
	c-0.016,2.409-2.441,4.358-5.428,4.354c-2.978-0.023-5.388-1.994-5.373-4.412c0.002-1.056,0.499-2.297,1.289-3.358l0.463-0.539
	l0.943-1.179l0.033-0.049c0.283-0.364,0.466-0.843,0.466-1.361C13.076,14.718,12.902,14.232,12.621,13.864z"/>
</svg>
