<?xml version="1.0" encoding="utf-8"?>
<!-- Generator: Adobe Illustrator 16.0.0, SVG Export Plug-In . SVG Version: 6.00 Build 0)  -->
<!DOCTYPE svg PUBLIC "-//W3C//DTD SVG 1.1//EN" "http://www.w3.org/Graphics/SVG/1.1/DTD/svg11.dtd">
<svg version="1.1" id="레이어_1" xmlns="http://www.w3.org/2000/svg" xmlns:xlink="http://www.w3.org/1999/xlink" x="0px"
	 y="0px" width="30px" height="30px" viewBox="0 0 30 30" enable-background="new 0 0 30 30" xml:space="preserve">
<path fill="#E70095" d="M26.816,15.422c-0.009-1.055-0.816-1.95-1.854-2.062h-5l3.402-3.399c0.81-0.811,0.81-2.131,0-2.94
	c-0.811-0.819-2.137-0.819-2.958,0l-3.363,3.368V5.655c0-1.151-0.932-2.081-2.086-2.081c-1.144,0-2.081,0.93-2.081,2.081v4.739
	c-1.044-1.049-3.464-3.458-3.591-3.591C8.469,6.215,7.314,6.299,6.594,7.021c-0.833,0.821-0.86,2.236-0.078,3.019
	c0,0,2.386,2.337,3.419,3.335H4.861c-0.998,0.156-1.747,1.039-1.747,2.048l0,0c0,1.166,0.962,2.204,2.069,2.204
	c0,0,3.202-0.045,4.689-0.059l-3.279,3.266c-0.805,0.813-0.805,2.14,0,2.949c0.82,0.813,2.13,0.813,2.952,0l3.33-3.343V25.2
	c0,1.144,0.938,2.076,2.081,2.076c1.154,0,2.086-0.933,2.086-2.076v-4.739c1.038,1.032,3.38,3.383,3.38,3.383
	c0.827,0.824,2.087,0.788,2.941-0.062c0.737-0.751,0.793-1.956,0.139-2.777c-0.083-0.088-2.397-2.403-3.469-3.475
	c1.499,0,4.751,0.018,4.751,0.018C25.934,17.548,26.816,16.632,26.816,15.422z M14.957,18.247c-1.549,0-2.819-1.268-2.819-2.825
	c0-1.554,1.271-2.819,2.819-2.819c1.559,0,2.824,1.266,2.824,2.819C17.781,16.979,16.516,18.247,14.957,18.247z"/>
</svg>
