<?xml version="1.0" encoding="utf-8"?>
<!-- Generator: Adobe Illustrator 16.0.0, SVG Export Plug-In . SVG Version: 6.00 Build 0)  -->
<!DOCTYPE svg PUBLIC "-//W3C//DTD SVG 1.1//EN" "http://www.w3.org/Graphics/SVG/1.1/DTD/svg11.dtd">
<svg version="1.1" id="레이어_1" xmlns="http://www.w3.org/2000/svg" xmlns:xlink="http://www.w3.org/1999/xlink" x="0px"
	 y="0px" width="56px" height="16px" viewBox="0 0 56 16" enable-background="new 0 0 56 16" xml:space="preserve">
<path fill="#666666" d="M9.219,14.3H2.739v-2.521h1.62V4.22h-1.62V1.7h6.479v2.52H7.6v7.56h1.619V14.3z"/>
<path fill="#666666" d="M16.959,14.3h-3.24V4.22h-3.78V1.7h10.801v2.52h-3.78V14.3z"/>
<path fill="#666666" d="M22.989,14.3h-3.51l4.77-12.6h3.601l4.77,12.6h-3.51l-0.811-2.25h-4.5L22.989,14.3z M24.609,9.71h2.88
	l-1.44-4.23L24.609,9.71z"/>
<path fill="#666666" d="M36.76,11.779h6.569V14.3h-9.81V1.7h3.24V11.779z"/>
<path fill="#666666" d="M40.988,1.7h3.42l2.971,6.12l2.97-6.12h3.42l-4.77,9.27v3.33h-3.24v-3.33L40.988,1.7z"/>
</svg>
