<?xml version="1.0" encoding="utf-8"?>
<!-- Generator: Adobe Illustrator 16.0.0, SVG Export Plug-In . SVG Version: 6.00 Build 0)  -->
<!DOCTYPE svg PUBLIC "-//W3C//DTD SVG 1.1//EN" "http://www.w3.org/Graphics/SVG/1.1/DTD/svg11.dtd">
<svg version="1.1" id="레이어_1" xmlns="http://www.w3.org/2000/svg" xmlns:xlink="http://www.w3.org/1999/xlink" x="0px"
	 y="0px" width="30px" height="30px" viewBox="0 0 30 30" enable-background="new 0 0 30 30" xml:space="preserve">
<path fill="#E70095" d="M14.999,8.957c-2.294,0-4.169,2.84-4.169,6.347c0,3.522,1.875,6.362,4.169,6.375
	c2.306,0,4.17-2.854,4.17-6.375C19.169,11.797,17.305,8.957,14.999,8.957z"/>
<path fill="#E70095" d="M14.996,2.496c-4.107,0-7.193,5.508-7.193,12.813c0,7.313,3.086,12.821,7.193,12.821
	c4.105,0,7.203-5.508,7.203-12.821C22.199,8.004,19.102,2.496,14.996,2.496z M14.996,25.252c-2.049,0-4.329-4.248-4.329-9.942
	s2.28-9.94,4.329-9.94c2.039,0,4.32,4.246,4.32,9.94S17.035,25.252,14.996,25.252z"/>
</svg>
