<?xml version="1.0" encoding="utf-8"?>
<!-- Generator: Adobe Illustrator 16.0.0, SVG Export Plug-In . SVG Version: 6.00 Build 0)  -->
<!DOCTYPE svg PUBLIC "-//W3C//DTD SVG 1.1//EN" "http://www.w3.org/Graphics/SVG/1.1/DTD/svg11.dtd">
<svg version="1.1" id="레이어_1" xmlns="http://www.w3.org/2000/svg" xmlns:xlink="http://www.w3.org/1999/xlink" x="0px"
	 y="0px" width="17px" height="17px" viewBox="0 0 17 17" enable-background="new 0 0 17 17" xml:space="preserve">
<path fill="#E70095" d="M11.33,4.606H5.556c-2.046,0-3.717,1.732-3.717,3.854c0,2.131,1.671,3.863,3.717,3.863h5.774
	c2.05,0,3.717-1.731,3.717-3.863C15.047,6.339,13.38,4.606,11.33,4.606z M11.33,9.632H5.556c-0.563,0-1.027-0.524-1.027-1.171
	c0-0.641,0.465-1.167,1.027-1.167h5.774c0.566,0,1.025,0.526,1.025,1.167C12.355,9.105,11.896,9.632,11.33,9.632z"/>
</svg>
