<?xml version="1.0" encoding="utf-8"?>
<!-- Generator: Adobe Illustrator 16.0.0, SVG Export Plug-In . SVG Version: 6.00 Build 0)  -->
<!DOCTYPE svg PUBLIC "-//W3C//DTD SVG 1.1//EN" "http://www.w3.org/Graphics/SVG/1.1/DTD/svg11.dtd">
<svg version="1.1" id="레이어_1" xmlns="http://www.w3.org/2000/svg" xmlns:xlink="http://www.w3.org/1999/xlink" x="0px"
	 y="0px" width="30px" height="30px" viewBox="0 0 30 30" enable-background="new 0 0 30 30" xml:space="preserve">
<path fill="#E70095" d="M21.441,12.031c0,0-2.492-0.133-4.137,0.892l-0.105,0.057c-2.931,1.219-4.868-0.013-4.868-0.013
	c-1.873-1.053-4.184-0.807-4.184-0.807c-3.525,0.659-6.685,2.961-6.685,2.961l0.006,0.055c0,0,3.412,2.247,7.011,2.835
	c0,0,2.331,0.202,4.079-0.889c0,0,1.802-1.276,4.864-0.104l0.111,0.047c1.767,0.988,4.242,0.81,4.242,0.81
	c3.527-0.653,6.687-2.96,6.687-2.96l-0.011-0.06C28.452,14.853,25.045,12.617,21.441,12.031z"/>
</svg>
