<?xml version="1.0" encoding="utf-8"?>
<!-- Generator: Adobe Illustrator 16.0.0, SVG Export Plug-In . SVG Version: 6.00 Build 0)  -->
<!DOCTYPE svg PUBLIC "-//W3C//DTD SVG 1.1//EN" "http://www.w3.org/Graphics/SVG/1.1/DTD/svg11.dtd">
<svg version="1.1" id="레이어_1" xmlns="http://www.w3.org/2000/svg" xmlns:xlink="http://www.w3.org/1999/xlink" x="0px"
	 y="0px" width="17px" height="17px" viewBox="0 0 17 17" enable-background="new 0 0 17 17" xml:space="preserve">
<path fill="#E70095" d="M1.722,7.064C3.685,8.085,6.215,8.356,6.523,8.89v0.005l0.006,0.01l0.004,0.011l0.018,0.02
	c0.324,0.522-0.724,2.89-0.815,5.08c0,1.082,1.324,1.618,2.688,1.633h0.034c0.052,0,0.119,0,0.177-0.01
	c1.311-0.041,2.549-0.584,2.549-1.623c-0.1-2.215-1.137-4.55-0.819-5.075V8.937l0.02-0.02l0.011-0.021V8.89
	c0.313-0.534,2.86-0.813,4.801-1.826c0.94-0.548,0.742-1.976,0.057-3.164c-0.008-0.006-0.008-0.006-0.008-0.006V3.892
	c-0.023-0.042-0.049-0.097-0.088-0.149c-0.689-1.112-1.777-1.915-2.684-1.392c-1.808,1.152-3.279,3.126-3.93,3.231
	c-0.017,0.005-0.044,0.009-0.06,0.005H8.458H8.437c-0.021,0.004-0.049,0-0.068-0.005C7.719,5.474,6.234,3.49,4.445,2.351
	C3.508,1.81,2.375,2.688,1.683,3.868C1.675,3.877,1.672,3.886,1.672,3.886C1.641,3.938,1.614,3.985,1.587,4.044
	C0.972,5.204,0.816,6.544,1.722,7.064z"/>
</svg>
