<?xml version="1.0" encoding="utf-8"?>
<!-- Generator: Adobe Illustrator 16.0.0, SVG Export Plug-In . SVG Version: 6.00 Build 0)  -->
<!DOCTYPE svg PUBLIC "-//W3C//DTD SVG 1.1//EN" "http://www.w3.org/Graphics/SVG/1.1/DTD/svg11.dtd">
<svg version="1.1" id="레이어_1" xmlns="http://www.w3.org/2000/svg" xmlns:xlink="http://www.w3.org/1999/xlink" x="0px"
	 y="0px" width="92px" height="16px" viewBox="0 0 92 16" enable-background="new 0 0 92 16" xml:space="preserve">
<path fill="#666666" d="M14.06,14.3H10.82V9.17h-4.5v5.13H3.08V1.7h3.24v4.95h4.5V1.7h3.239V14.3z"/>
<path fill="#666666" d="M27.56,10.88c0,1.26-0.285,2.175-0.854,2.745c-0.57,0.57-1.485,0.855-2.745,0.855h-4.5
	c-1.261,0-2.176-0.285-2.745-0.855c-0.57-0.57-0.855-1.485-0.855-2.745V5.12c0-1.26,0.285-2.175,0.855-2.745
	c0.569-0.57,1.484-0.855,2.745-0.855h4.5c1.26,0,2.175,0.285,2.745,0.855c0.569,0.57,0.854,1.485,0.854,2.745V10.88z M24.319,5.12
	c0-0.72-0.359-1.08-1.08-1.08h-3.06c-0.72,0-1.08,0.36-1.08,1.08v5.76c0,0.72,0.36,1.08,1.08,1.08h3.06c0.721,0,1.08-0.36,1.08-1.08
	V5.12z"/>
<path fill="#666666" d="M32.601,11.779h6.569V14.3h-9.81V1.7h3.24V11.779z"/>
<path fill="#666666" d="M43.67,11.779h6.569V14.3h-9.81V1.7h3.24V11.779z"/>
<path fill="#666666" d="M53.75,14.3h-3.51l4.77-12.6h3.601l4.77,12.6h-3.51l-0.811-2.25h-4.5L53.75,14.3z M55.37,9.71h2.88
	l-1.44-4.23L55.37,9.71z"/>
<path fill="#666666" d="M75.259,14.3h-3.42L67.52,6.74v7.56h-3.24V1.7h3.42l4.32,7.56V1.7h3.239V14.3z"/>
<path fill="#666666" d="M84.438,1.7c1.356,0,2.386,0.351,3.087,1.053c0.702,0.702,1.054,1.731,1.054,3.087v4.32
	c0,1.355-0.352,2.385-1.054,3.086c-0.701,0.703-1.73,1.054-3.087,1.054h-7.02V1.7H84.438z M85.339,5.84c0-1.08-0.54-1.62-1.62-1.62
	h-3.06v7.56h3.06c1.08,0,1.62-0.539,1.62-1.619V5.84z"/>
</svg>
