<?xml version="1.0" encoding="utf-8"?>
<!-- Generator: Adobe Illustrator 16.0.0, SVG Export Plug-In . SVG Version: 6.00 Build 0)  -->
<!DOCTYPE svg PUBLIC "-//W3C//DTD SVG 1.1//EN" "http://www.w3.org/Graphics/SVG/1.1/DTD/svg11.dtd">
<svg version="1.1" id="레이어_1" xmlns="http://www.w3.org/2000/svg" xmlns:xlink="http://www.w3.org/1999/xlink" x="0px"
	 y="0px" width="17px" height="17px" viewBox="0 0 17 17" enable-background="new 0 0 17 17" xml:space="preserve">
<path fill="#E70095" d="M5.487,3.149L3.148,5.49c-1.664,1.664-1.664,4.359,0,6.023l2.339,2.342c1.664,1.658,4.358,1.658,6.019,0
	l2.343-2.342c1.666-1.664,1.666-4.359,0-6.023l-2.343-2.341C9.846,1.484,7.151,1.484,5.487,3.149z M8.502,13.776
	c-1.479,0-2.671-2.366-2.671-5.275c0-2.912,1.191-5.274,2.671-5.274c1.47,0,2.664,2.362,2.664,5.274
	C11.166,11.41,9.972,13.776,8.502,13.776z"/>
</svg>
