<?xml version="1.0" encoding="utf-8"?>
<!-- Generator: Adobe Illustrator 16.0.0, SVG Export Plug-In . SVG Version: 6.00 Build 0)  -->
<!DOCTYPE svg PUBLIC "-//W3C//DTD SVG 1.1//EN" "http://www.w3.org/Graphics/SVG/1.1/DTD/svg11.dtd">
<svg version="1.1" id="레이어_1" xmlns="http://www.w3.org/2000/svg" xmlns:xlink="http://www.w3.org/1999/xlink" x="0px"
	 y="0px" width="104px" height="16px" viewBox="0 0 104 16" enable-background="new 0 0 104 16" xml:space="preserve">
<path fill="#666666" d="M2.99,1.7h7.56c1.261,0,2.175,0.285,2.745,0.855c0.57,0.57,0.855,1.485,0.855,2.745v1.8
	c0,1.26-0.285,2.176-0.855,2.745c-0.57,0.57-1.484,0.854-2.745,0.854H6.23V14.3H2.99V1.7z M10.91,5.3c0-0.72-0.36-1.08-1.08-1.08
	h-3.6v3.96h3.6c0.72,0,1.08-0.36,1.08-1.08V5.3z"/>
<path fill="#666666" d="M27.11,10.88c0,1.26-0.285,2.175-0.854,2.745c-0.57,0.57-1.485,0.855-2.745,0.855h-4.5
	c-1.261,0-2.176-0.285-2.745-0.855c-0.57-0.57-0.855-1.485-0.855-2.745V5.12c0-1.26,0.285-2.175,0.855-2.745
	c0.569-0.57,1.484-0.855,2.745-0.855h4.5c1.26,0,2.175,0.285,2.745,0.855c0.569,0.57,0.854,1.485,0.854,2.745V10.88z M23.87,5.12
	c0-0.72-0.359-1.08-1.08-1.08h-3.06c-0.72,0-1.08,0.36-1.08,1.08v5.76c0,0.72,0.36,1.08,1.08,1.08h3.06c0.721,0,1.08-0.36,1.08-1.08
	V5.12z"/>
<path fill="#666666" d="M28.91,1.7h7.56c1.261,0,2.175,0.285,2.745,0.855c0.57,0.57,0.855,1.485,0.855,2.745v1.62
	c0,0.996-0.165,1.77-0.495,2.322C39.245,9.794,38.72,10.16,38,10.34l2.25,3.96h-3.51l-2.07-3.78h-2.52v3.78h-3.24V1.7z M36.83,5.3
	c0-0.72-0.36-1.08-1.08-1.08h-3.6V8h3.6c0.72,0,1.08-0.36,1.08-1.08V5.3z"/>
<path fill="#666666" d="M47.99,14.3h-3.24V4.22h-3.78V1.7h10.801v2.52h-3.78V14.3z"/>
<path fill="#666666" d="M61.129,1.7h3.24v9.18c0,1.26-0.285,2.175-0.854,2.745c-0.57,0.57-1.485,0.855-2.745,0.855h-4.141
	c-1.26,0-2.175-0.285-2.745-0.855c-0.569-0.57-0.854-1.485-0.854-2.745V1.7h3.24v9.18c0,0.72,0.359,1.08,1.08,1.08h2.699
	c0.721,0,1.08-0.36,1.08-1.08V1.7z"/>
<path fill="#666666" d="M77.329,14.029c-2.808,0.301-5.388,0.451-7.74,0.451c-1.176,0-2.04-0.276-2.592-0.828
	c-0.552-0.553-0.828-1.416-0.828-2.593V5.3c0-1.26,0.285-2.175,0.855-2.745C67.594,1.985,68.509,1.7,69.77,1.7h6.479v2.52h-5.76
	c-0.72,0-1.08,0.36-1.08,1.08v5.76c0,0.276,0.081,0.495,0.243,0.657s0.381,0.243,0.657,0.243c1.38,0,2.64-0.03,3.779-0.091V9.26
	h-2.34V7.1h5.58V14.029z"/>
<path fill="#666666" d="M81.38,14.3h-3.51l4.77-12.6h3.601l4.77,12.6H87.5l-0.811-2.25h-4.5L81.38,14.3z M83,9.71h2.88l-1.44-4.23
	L83,9.71z"/>
<path fill="#666666" d="M95.149,11.779h6.569V14.3h-9.81V1.7h3.24V11.779z"/>
</svg>
