<?xml version="1.0" encoding="utf-8"?>
<!-- Generator: Adobe Illustrator 16.0.0, SVG Export Plug-In . SVG Version: 6.00 Build 0)  -->
<!DOCTYPE svg PUBLIC "-//W3C//DTD SVG 1.1//EN" "http://www.w3.org/Graphics/SVG/1.1/DTD/svg11.dtd">
<svg version="1.1" id="레이어_1" xmlns="http://www.w3.org/2000/svg" xmlns:xlink="http://www.w3.org/1999/xlink" x="0px"
	 y="0px" width="17px" height="17px" viewBox="0 0 17 17" enable-background="new 0 0 17 17" xml:space="preserve">
<path fill="#E70095" d="M4.345,15.587c1.826,0,3.313-1.485,3.313-3.313c0-1.131,0.696-1.254,0.998-1.254
	c0.303,0,1.005,0.123,1.005,1.254c0,1.828,1.485,3.313,3.31,3.313c1.826,0,3.313-1.485,3.313-3.313c0-1.825-1.486-3.313-3.313-3.313
	c-0.584,0-1.158,0.158-1.656,0.447c-0.978,0.563-1.433,0.018-1.582-0.244c-0.08-0.139-0.199-0.411-0.114-0.723
	c0.077-0.289,0.309-0.547,0.692-0.769c1.024-0.588,1.666-1.688,1.666-2.872c0-1.827-1.494-3.309-3.319-3.309
	c-1.83,0-3.313,1.482-3.313,3.309c0,1.184,0.638,2.284,1.66,2.869C7.979,8.234,7.735,8.9,7.586,9.164
	C7.437,9.426,6.978,9.971,6.004,9.408C5.498,9.119,4.925,8.961,4.345,8.961c-1.831,0-3.316,1.486-3.316,3.313
	C1.028,14.102,2.514,15.587,4.345,15.587z"/>
</svg>
