<?xml version="1.0" encoding="utf-8"?>
<!-- Generator: Adobe Illustrator 16.0.0, SVG Export Plug-In . SVG Version: 6.00 Build 0)  -->
<!DOCTYPE svg PUBLIC "-//W3C//DTD SVG 1.1//EN" "http://www.w3.org/Graphics/SVG/1.1/DTD/svg11.dtd">
<svg version="1.1" id="레이어_1" xmlns="http://www.w3.org/2000/svg" xmlns:xlink="http://www.w3.org/1999/xlink" x="0px"
	 y="0px" width="30px" height="30px" viewBox="0 0 30 30" enable-background="new 0 0 30 30" xml:space="preserve">
<path fill="#E70095" d="M15.072,3.149h-2.114h-2.106H6.63c-1.164,0-2.111,1.109-2.111,2.446c0,1.354,0.947,2.441,2.111,2.441h4.222
	c1.161,0,2.106,1.115,2.106,2.459c0,1.346-0.945,2.459-2.106,2.459H6.63c-1.164,0-2.111,1.092-2.111,2.431
	c0,1.358,0.947,2.449,2.111,2.449h4.222c1.161,0,2.106,1.104,2.106,2.45c0,1.339-0.945,2.452-2.106,2.452H6.63
	c-1.164,0-2.111,1.089-2.111,2.445c0,1.336,0.947,2.439,2.111,2.439h16.882c1.153,0,2.12-1.104,2.12-2.439
	c0-1.356-0.967-2.445-2.12-2.445H19.29c-1.171,0-2.11-1.113-2.11-2.452c0-1.347,0.939-2.45,2.11-2.45h4.222
	c1.153,0,2.12-1.091,2.12-2.449c0-1.339-0.967-2.431-2.12-2.431H19.29c-1.171,0-2.11-1.113-2.11-2.459
	c0-1.344,0.939-2.459,2.11-2.459h4.222c1.153,0,2.12-1.087,2.12-2.441c0-1.337-0.967-2.446-2.12-2.446H19.29h-2.11H15.072z"/>
</svg>
