<?xml version="1.0" encoding="utf-8"?>
<!-- Generator: Adobe Illustrator 16.0.0, SVG Export Plug-In . SVG Version: 6.00 Build 0)  -->
<!DOCTYPE svg PUBLIC "-//W3C//DTD SVG 1.1//EN" "http://www.w3.org/Graphics/SVG/1.1/DTD/svg11.dtd">
<svg version="1.1" id="레이어_1" xmlns="http://www.w3.org/2000/svg" xmlns:xlink="http://www.w3.org/1999/xlink" x="0px"
	 y="0px" width="30px" height="30px" viewBox="0 0 30 30" enable-background="new 0 0 30 30" xml:space="preserve">
<path fill="#E70095" d="M3.153,15.503c0,6.765,5.479,12.246,12.254,12.246c6.752,0,12.241-5.479,12.241-12.246
	c0-6.764-5.489-12.255-12.241-12.255C8.632,3.248,3.153,8.74,3.153,15.503z M22.036,13.181c1.274,0,2.315,1.042,2.315,2.322
	c0,1.28-1.041,2.315-2.315,2.315h-5.563v5.535h-2.141v-5.535H8.769c-1.279,0-2.322-1.034-2.322-2.315
	c0-1.281,1.043-2.322,2.322-2.322h5.563v-5.53h2.141v5.53H22.036z"/>
</svg>
