<?xml version="1.0" encoding="utf-8"?>
<!-- Generator: Adobe Illustrator 16.0.0, SVG Export Plug-In . SVG Version: 6.00 Build 0)  -->
<!DOCTYPE svg PUBLIC "-//W3C//DTD SVG 1.1//EN" "http://www.w3.org/Graphics/SVG/1.1/DTD/svg11.dtd">
<svg version="1.1" id="레이어_1" xmlns="http://www.w3.org/2000/svg" xmlns:xlink="http://www.w3.org/1999/xlink" x="0px"
	 y="0px" width="17px" height="17px" viewBox="0 0 17 17" enable-background="new 0 0 17 17" xml:space="preserve">
<path fill="#E70095" d="M1.432,13.718c0.177,0.308,0.458,0.724,0.95,0.856c0.333,0.087,0.683,0.023,1.043-0.184
	c1.868-1.19,4.154-2.404,4.765-2.373h0.027h0.024c0.607-0.031,2.893,1.183,4.745,2.356c0.468,0.278,1.322,0.53,2.02-0.657
	c0.686-1.189,0.034-1.803-0.42-2.063c-1.97-1.023-4.152-2.4-4.438-2.942l-0.013-0.016l-0.011-0.02C9.8,8.151,9.7,5.576,9.8,3.379
	c0-0.543-0.204-1.415-1.583-1.415c-1.374,0-1.585,0.872-1.585,1.396c0.098,2.217,0,4.792-0.33,5.317l-0.006,0.02L6.282,8.712
	c-0.278,0.542-2.472,1.919-4.42,2.935C1.391,11.915,0.742,12.527,1.432,13.718z"/>
</svg>
