<?xml version="1.0" encoding="utf-8"?>
<!-- Generator: Adobe Illustrator 16.0.0, SVG Export Plug-In . SVG Version: 6.00 Build 0)  -->
<!DOCTYPE svg PUBLIC "-//W3C//DTD SVG 1.1//EN" "http://www.w3.org/Graphics/SVG/1.1/DTD/svg11.dtd">
<svg version="1.1" id="레이어_1" xmlns="http://www.w3.org/2000/svg" xmlns:xlink="http://www.w3.org/1999/xlink" x="0px"
	 y="0px" width="30px" height="30px" viewBox="0 0 30 30" enable-background="new 0 0 30 30" xml:space="preserve">
<path fill="#E70095" d="M7.614,19.34h3.701v3.578c0,2.247,1.82,4.071,4.068,4.071s4.078-1.824,4.078-4.071V19.34h3.452
	c2.241,0,4.067-1.837,4.067-4.082c0-2.243-1.826-4.071-4.067-4.071h-3.452V7.615c0-2.258-1.83-4.086-4.078-4.086
	s-4.068,1.828-4.068,4.086v3.571H7.614c-2.259,0-4.085,1.828-4.085,4.071C3.529,17.503,5.355,19.34,7.614,19.34z M14.307,7.615
	c0-0.608,0.476-1.094,1.077-1.094c0.595,0,1.089,0.485,1.089,1.094v6.562h6.441c0.595,0,1.083,0.489,1.083,1.081
	c0,0.6-0.488,1.082-1.083,1.082h-6.441v6.578c0,0.6-0.494,1.081-1.089,1.081c-0.602,0-1.077-0.481-1.077-1.081V16.34H7.614
	c-0.6,0-1.094-0.482-1.094-1.082c0-0.592,0.494-1.081,1.094-1.081h6.692"/>
</svg>
