<?xml version="1.0" encoding="utf-8"?>
<!-- Generator: Adobe Illustrator 16.0.0, SVG Export Plug-In . SVG Version: 6.00 Build 0)  -->
<!DOCTYPE svg PUBLIC "-//W3C//DTD SVG 1.1//EN" "http://www.w3.org/Graphics/SVG/1.1/DTD/svg11.dtd">
<svg version="1.1" id="레이어_1" xmlns="http://www.w3.org/2000/svg" xmlns:xlink="http://www.w3.org/1999/xlink" x="0px"
	 y="0px" width="108px" height="16px" viewBox="0 0 108 16" enable-background="new 0 0 108 16" xml:space="preserve">
<path fill="#666666" d="M14.231,14.3h-3.239V9.17h-4.5v5.13h-3.24V1.7h3.24v4.95h4.5V1.7h3.239V14.3z"/>
<path fill="#666666" d="M27.731,10.88c0,1.26-0.285,2.175-0.854,2.745c-0.57,0.57-1.485,0.855-2.745,0.855h-4.5
	c-1.261,0-2.176-0.285-2.745-0.855c-0.57-0.57-0.855-1.485-0.855-2.745V5.12c0-1.26,0.285-2.175,0.855-2.745
	c0.569-0.57,1.484-0.855,2.745-0.855h4.5c1.26,0,2.175,0.285,2.745,0.855c0.569,0.57,0.854,1.485,0.854,2.745V10.88z M24.491,5.12
	c0-0.72-0.359-1.08-1.08-1.08h-3.06c-0.72,0-1.08,0.36-1.08,1.08v5.76c0,0.72,0.36,1.08,1.08,1.08h3.06c0.721,0,1.08-0.36,1.08-1.08
	V5.12z"/>
<path fill="#666666" d="M40.512,14.3h-3.42l-4.319-7.56v7.56h-3.24V1.7h3.42l4.32,7.56V1.7h3.239V14.3z"/>
<path fill="#666666" d="M53.472,14.029c-2.808,0.301-5.388,0.451-7.74,0.451c-1.176,0-2.04-0.276-2.592-0.828
	c-0.552-0.553-0.828-1.416-0.828-2.593V5.3c0-1.26,0.285-2.175,0.855-2.745c0.569-0.57,1.484-0.855,2.745-0.855h6.479v2.52h-5.76
	c-0.72,0-1.08,0.36-1.08,1.08v5.76c0,0.276,0.081,0.495,0.243,0.657s0.381,0.243,0.657,0.243c1.38,0,2.64-0.03,3.779-0.091V9.26
	h-2.34V7.1h5.58V14.029z"/>
<path fill="#666666" d="M58.512,14.3h-3.24V1.7h3.24v4.95h1.62l2.808-4.95h3.42l-3.528,6.21l3.511,6.39h-3.42l-2.79-5.13h-1.62V14.3
	z"/>
<path fill="#666666" d="M78.42,10.88c0,1.26-0.285,2.175-0.854,2.745c-0.57,0.57-1.485,0.855-2.745,0.855h-4.5
	c-1.261,0-2.176-0.285-2.745-0.855c-0.57-0.57-0.855-1.485-0.855-2.745V5.12c0-1.26,0.285-2.175,0.855-2.745
	c0.569-0.57,1.484-0.855,2.745-0.855h4.5c1.26,0,2.175,0.285,2.745,0.855c0.569,0.57,0.854,1.485,0.854,2.745V10.88z M75.18,5.12
	c0-0.72-0.359-1.08-1.08-1.08h-3.06c-0.72,0-1.08,0.36-1.08,1.08v5.76c0,0.72,0.36,1.08,1.08,1.08h3.06c0.721,0,1.08-0.36,1.08-1.08
	V5.12z"/>
<path fill="#666666" d="M91.199,14.3h-3.42L83.46,6.74v7.56h-3.24V1.7h3.42l4.32,7.56V1.7h3.239V14.3z"/>
<path fill="#666666" d="M104.159,14.029c-2.808,0.301-5.388,0.451-7.74,0.451c-1.176,0-2.04-0.276-2.592-0.828
	c-0.552-0.553-0.828-1.416-0.828-2.593V5.3c0-1.26,0.285-2.175,0.855-2.745C94.424,1.985,95.339,1.7,96.6,1.7h6.479v2.52h-5.76
	c-0.72,0-1.08,0.36-1.08,1.08v5.76c0,0.276,0.081,0.495,0.243,0.657s0.381,0.243,0.657,0.243c1.38,0,2.64-0.03,3.779-0.091V9.26
	h-2.34V7.1h5.58V14.029z"/>
</svg>
