<?xml version="1.0" encoding="utf-8"?>
<!-- Generator: Adobe Illustrator 16.0.0, SVG Export Plug-In . SVG Version: 6.00 Build 0)  -->
<!DOCTYPE svg PUBLIC "-//W3C//DTD SVG 1.1//EN" "http://www.w3.org/Graphics/SVG/1.1/DTD/svg11.dtd">
<svg version="1.1" id="레이어_1" xmlns="http://www.w3.org/2000/svg" xmlns:xlink="http://www.w3.org/1999/xlink" x="0px"
	 y="0px" width="62px" height="16px" viewBox="0 0 62 16" enable-background="new 0 0 62 16" xml:space="preserve">
<path fill="#666666" d="M12.8,14.119c-2.676,0.24-4.896,0.361-6.66,0.361c-1.176,0-2.04-0.276-2.592-0.828
	C2.996,13.1,2.72,12.236,2.72,11.06V5.3c0-1.26,0.285-2.175,0.855-2.745C4.145,1.985,5.06,1.7,6.32,1.7H12.8v2.52H7.04
	c-0.72,0-1.08,0.36-1.08,1.08v5.76c0,0.276,0.081,0.495,0.243,0.657s0.369,0.243,0.621,0.243s0.527-0.003,0.828-0.009
	c0.3-0.006,0.611-0.016,0.936-0.027s0.651-0.023,0.981-0.036c0.329-0.012,0.756-0.036,1.277-0.071
	c0.522-0.037,1.173-0.078,1.953-0.127V14.119z"/>
<path fill="#666666" d="M25.22,14.3H21.98V9.17h-4.5v5.13h-3.24V1.7h3.24v4.95h4.5V1.7h3.239V14.3z"/>
<path fill="#666666" d="M33.319,14.3H26.84v-2.521h1.62V4.22h-1.62V1.7h6.479v2.52H31.7v7.56h1.619V14.3z"/>
<path fill="#666666" d="M45.919,14.3h-3.42L38.18,6.74v7.56h-3.24V1.7h3.42l4.32,7.56V1.7h3.239V14.3z"/>
<path fill="#666666" d="M50.33,14.3h-3.51l4.77-12.6h3.601l4.77,12.6h-3.51l-0.811-2.25h-4.5L50.33,14.3z M51.95,9.71h2.88
	l-1.44-4.23L51.95,9.71z"/>
</svg>
