<?xml version="1.0" encoding="utf-8"?>
<!-- Generator: Adobe Illustrator 16.0.0, SVG Export Plug-In . SVG Version: 6.00 Build 0)  -->
<!DOCTYPE svg PUBLIC "-//W3C//DTD SVG 1.1//EN" "http://www.w3.org/Graphics/SVG/1.1/DTD/svg11.dtd">
<svg version="1.1" id="레이어_1" xmlns="http://www.w3.org/2000/svg" xmlns:xlink="http://www.w3.org/1999/xlink" x="0px"
	 y="0px" width="17px" height="17px" viewBox="0 0 17 17" enable-background="new 0 0 17 17" xml:space="preserve">
<path fill="#E70095" d="M11.202,6.505l-0.854,1.063l-0.017,0.019c-0.185,0.232-0.299,0.537-0.299,0.876v0.042
	c-0.005,0.34,0.104,0.649,0.286,0.873l0.023,0.044l0.6,0.755l0.187,0.226c0.494,0.703,0.785,1.537,0.781,2.236
	c-0.011,1.543-1.563,2.791-3.475,2.785c-1.906-0.015-3.451-1.275-3.441-2.822c0.004-0.677,0.32-1.472,0.826-2.152l0.295-0.344
	L6.72,9.35L6.741,9.32C6.921,9.084,7.04,8.778,7.04,8.447C7.042,8.11,6.931,7.799,6.751,7.564L6.735,7.551L5.888,6.47L5.731,6.239
	C5.317,5.601,5.079,4.9,5.079,4.3c0.008-1.551,1.564-2.792,3.477-2.782c1.908,0.009,3.447,1.27,3.438,2.817
	c0,0.701-0.213,1.376-0.723,2.074l0.008-0.018L11.202,6.505z"/>
</svg>
