<?xml version="1.0" encoding="utf-8"?>
<!-- Generator: Adobe Illustrator 16.0.0, SVG Export Plug-In . SVG Version: 6.00 Build 0)  -->
<!DOCTYPE svg PUBLIC "-//W3C//DTD SVG 1.1//EN" "http://www.w3.org/Graphics/SVG/1.1/DTD/svg11.dtd">
<svg version="1.1" id="레이어_1" xmlns="http://www.w3.org/2000/svg" xmlns:xlink="http://www.w3.org/1999/xlink" x="0px"
	 y="0px" width="75px" height="16px" viewBox="0 0 75 16" enable-background="new 0 0 75 16" xml:space="preserve">
<path fill="#666666" d="M3.08,1.7h7.56c1.261,0,2.175,0.285,2.745,0.855c0.57,0.57,0.855,1.485,0.855,2.745v1.62
	c0,0.996-0.165,1.77-0.495,2.322c-0.33,0.552-0.855,0.918-1.575,1.098l2.25,3.96h-3.51l-2.07-3.78H6.32v3.78H3.08V1.7z M11,5.3
	c0-0.72-0.36-1.08-1.08-1.08h-3.6V8h3.6C10.64,8,11,7.64,11,6.92V5.3z"/>
<path fill="#666666" d="M24.14,1.7h3.24v9.18c0,1.26-0.285,2.175-0.854,2.745c-0.57,0.57-1.485,0.855-2.745,0.855H19.64
	c-1.26,0-2.175-0.285-2.745-0.855c-0.569-0.57-0.854-1.485-0.854-2.745V1.7h3.24v9.18c0,0.72,0.359,1.08,1.08,1.08h2.699
	c0.721,0,1.08-0.36,1.08-1.08V1.7z"/>
<path fill="#666666" d="M29.162,11.689c3.288,0.18,5.514,0.271,6.678,0.271c0.276,0,0.495-0.081,0.657-0.243
	s0.243-0.381,0.243-0.657v-1.62H32.6c-1.26,0-2.175-0.285-2.745-0.854C29.285,8.015,29,7.1,29,5.84V5.3
	c0-1.26,0.285-2.175,0.854-2.745C30.425,1.985,31.34,1.7,32.6,1.7h6.318v2.52H33.32c-0.721,0-1.08,0.36-1.08,1.08v0.36
	c0,0.72,0.359,1.08,1.08,1.08h3.239c1.177,0,2.04,0.276,2.593,0.828c0.552,0.552,0.827,1.416,0.827,2.592v0.899
	c0,1.177-0.275,2.04-0.827,2.593c-0.553,0.552-1.416,0.828-2.593,0.828c-0.611,0-1.26-0.013-1.943-0.037l-1.656-0.072
	c-1.224-0.06-2.49-0.143-3.798-0.252V11.689z"/>
<path fill="#666666" d="M41.222,11.689c3.288,0.18,5.514,0.271,6.678,0.271c0.276,0,0.495-0.081,0.657-0.243S48.8,11.336,48.8,11.06
	v-1.62h-4.141c-1.26,0-2.175-0.285-2.745-0.854C41.345,8.015,41.06,7.1,41.06,5.84V5.3c0-1.26,0.285-2.175,0.854-2.745
	c0.57-0.57,1.485-0.855,2.745-0.855h6.318v2.52H45.38c-0.721,0-1.08,0.36-1.08,1.08v0.36c0,0.72,0.359,1.08,1.08,1.08h3.239
	c1.177,0,2.04,0.276,2.593,0.828c0.552,0.552,0.827,1.416,0.827,2.592v0.899c0,1.177-0.275,2.04-0.827,2.593
	c-0.553,0.552-1.416,0.828-2.593,0.828c-0.611,0-1.26-0.013-1.943-0.037l-1.656-0.072c-1.224-0.06-2.49-0.143-3.798-0.252V11.689z"
	/>
<path fill="#666666" d="M59.6,14.3H53.12v-2.521h1.62V4.22h-1.62V1.7H59.6v2.52H57.98v7.56H59.6V14.3z"/>
<path fill="#666666" d="M63.47,14.3h-3.51l4.77-12.6h3.601l4.77,12.6h-3.51l-0.811-2.25h-4.5L63.47,14.3z M65.09,9.71h2.88
	l-1.44-4.23L65.09,9.71z"/>
</svg>
