<?xml version="1.0" encoding="utf-8"?>
<!-- Generator: Adobe Illustrator 16.0.0, SVG Export Plug-In . SVG Version: 6.00 Build 0)  -->
<!DOCTYPE svg PUBLIC "-//W3C//DTD SVG 1.1//EN" "http://www.w3.org/Graphics/SVG/1.1/DTD/svg11.dtd">
<svg version="1.1" id="레이어_1" xmlns="http://www.w3.org/2000/svg" xmlns:xlink="http://www.w3.org/1999/xlink" x="0px"
	 y="0px" width="17px" height="17px" viewBox="0 0 17 17" enable-background="new 0 0 17 17" xml:space="preserve">
<path fill="#E70095" d="M1.933,4.448C1.817,6.141,3.831,6.958,4.377,8.11C4.492,8.362,4.75,8.819,4.814,9.516
	c0.035,0.319,0.024,0.689-0.058,1.109c-0.258,1.334-0.627,2.01-0.59,3.154c0.037,0.964,0.492,1.769,1.408,2.143
	c0.38,0.16,1.47,0.482,2.651-0.686c1.242-1.232,2.548-1.521,3.205-1.631c0.934-0.166,1.131,0.043,1.918-0.451l0.008-0.006
	c1.44-0.936,0.959-2.433,0.742-2.818c-0.232-0.418-0.795-1.023-1.072-1.548c-0.207-0.371-0.437-1.013-0.168-2.06
	c0.304-1.175-0.09-1.93-0.688-2.421c-0.621-0.518-1.718-0.521-1.718-0.521c-1.142-0.034-2.39-0.452-2.39-0.452
	S7.87,3.259,7.626,3.126C7.619,3.135,7.612,3.144,7.608,3.154c-0.013,0.018-0.023,0.027-0.034,0.04
	c0.014-0.02,0.034-0.046,0.052-0.068c-0.269-0.14-0.611-0.352-0.839-0.625c-0.817-0.987-1.514-1.104-2.24-1
	c-0.214,0.034-0.608,0.161-1.021,0.42c-0.11,0.066-0.221,0.143-0.335,0.231H3.186C2.734,2.501,2.303,2.996,2.079,3.695
	C2.004,3.925,1.956,4.176,1.933,4.448z M7.482,3.3v0.007c-0.006,0.001-0.01,0.006-0.014,0.01C7.473,3.313,7.477,3.307,7.482,3.3z"/>
</svg>
