<?xml version="1.0" encoding="utf-8"?>
<!-- Generator: Adobe Illustrator 16.0.0, SVG Export Plug-In . SVG Version: 6.00 Build 0)  -->
<!DOCTYPE svg PUBLIC "-//W3C//DTD SVG 1.1//EN" "http://www.w3.org/Graphics/SVG/1.1/DTD/svg11.dtd">
<svg version="1.1" id="레이어_1" xmlns="http://www.w3.org/2000/svg" xmlns:xlink="http://www.w3.org/1999/xlink" x="0px"
	 y="0px" width="77px" height="16px" viewBox="0 0 77 16" enable-background="new 0 0 77 16" xml:space="preserve">
<path fill="#666666" d="M3.08,1.7h7.2c1.176,0,2.04,0.267,2.592,0.801C13.424,3.035,13.7,3.848,13.7,4.94
	c0,0.72-0.156,1.305-0.468,1.755C12.92,7.145,12.536,7.46,12.08,7.64c0.972,0.264,1.632,0.912,1.979,1.944
	c0.12,0.372,0.181,0.804,0.181,1.296c0,1.177-0.276,2.04-0.828,2.592S11.996,14.3,10.82,14.3H3.08V1.7z M10.46,5.3
	c0-0.72-0.36-1.08-1.08-1.08H6.32v2.52h3.06c0.72,0,1.08-0.36,1.08-1.08V5.3z M11,10.34c0-0.721-0.36-1.08-1.08-1.08h-3.6v2.52h3.6
	c0.72,0,1.08-0.359,1.08-1.08V10.34z"/>
<path fill="#666666" d="M27.2,10.88c0,1.26-0.285,2.175-0.854,2.745c-0.57,0.57-1.485,0.855-2.745,0.855h-4.5
	c-1.261,0-2.176-0.285-2.745-0.855c-0.57-0.57-0.855-1.485-0.855-2.745V5.12c0-1.26,0.285-2.175,0.855-2.745
	c0.569-0.57,1.484-0.855,2.745-0.855h4.5c1.26,0,2.175,0.285,2.745,0.855C26.915,2.945,27.2,3.86,27.2,5.12V10.88z M23.96,5.12
	c0-0.72-0.359-1.08-1.08-1.08h-3.06c-0.72,0-1.08,0.36-1.08,1.08v5.76c0,0.72,0.36,1.08,1.08,1.08h3.06c0.721,0,1.08-0.36,1.08-1.08
	V5.12z"/>
<path fill="#666666" d="M28.622,11.689c3.288,0.18,5.514,0.271,6.678,0.271c0.276,0,0.495-0.081,0.657-0.243S36.2,11.336,36.2,11.06
	v-1.62H32.06c-1.26,0-2.175-0.285-2.745-0.854C28.745,8.015,28.46,7.1,28.46,5.84V5.3c0-1.26,0.285-2.175,0.854-2.745
	C29.885,1.985,30.8,1.7,32.06,1.7h6.318v2.52H32.78c-0.721,0-1.08,0.36-1.08,1.08v0.36c0,0.72,0.359,1.08,1.08,1.08h3.239
	c1.177,0,2.04,0.276,2.593,0.828c0.552,0.552,0.827,1.416,0.827,2.592v0.899c0,1.177-0.275,2.04-0.827,2.593
	c-0.553,0.552-1.416,0.828-2.593,0.828c-0.611,0-1.26-0.013-1.943-0.037l-1.656-0.072c-1.224-0.06-2.49-0.143-3.798-0.252V11.689z"
	/>
<path fill="#666666" d="M52.039,14.3h-3.42L44.3,6.74v7.56h-3.24V1.7h3.42l4.32,7.56V1.7h3.239V14.3z"/>
<path fill="#666666" d="M60.14,14.3H53.66v-2.521h1.62V4.22h-1.62V1.7h6.479v2.52h-1.619v7.56h1.619V14.3z"/>
<path fill="#666666" d="M64.01,14.3H60.5l4.77-12.6h3.601l4.77,12.6h-3.51l-0.811-2.25h-4.5L64.01,14.3z M65.63,9.71h2.88
	l-1.44-4.23L65.63,9.71z"/>
</svg>
