<?xml version="1.0" encoding="utf-8"?>
<!-- Generator: Adobe Illustrator 16.0.0, SVG Export Plug-In . SVG Version: 6.00 Build 0)  -->
<!DOCTYPE svg PUBLIC "-//W3C//DTD SVG 1.1//EN" "http://www.w3.org/Graphics/SVG/1.1/DTD/svg11.dtd">
<svg version="1.1" id="레이어_1" xmlns="http://www.w3.org/2000/svg" xmlns:xlink="http://www.w3.org/1999/xlink" x="0px"
	 y="0px" width="17px" height="17px" viewBox="0 0 17 17" enable-background="new 0 0 17 17" xml:space="preserve">
<path fill="#E70095" d="M4.365,12.085c1.091,1.021,2.523,1.833,4.052,2.276c1.701,0.492,3.38,0.504,4.862,0.039
	c0.828-0.267,1.586-0.943,2.021-1.805c0.266-0.521,0.397-1.063,0.397-1.601c0-0.341-0.05-0.664-0.157-0.979
	c-0.354-1.035-1.02-1.734-1.986-2.058c-0.522-0.168-1.197-0.238-1.841-0.303c-0.383-0.046-0.749-0.087-0.999-0.136
	c-0.645-0.14-0.75-0.427-0.892-1.486C9.703,5.076,9.52,3.76,8.174,2.722C6.729,1.605,5.437,1.738,4.608,2.043
	C3.269,2.539,2.112,3.945,1.798,5.46C1.569,6.581,1.74,7.847,2.294,9.12C2.769,10.223,3.506,11.27,4.365,12.085z M3.558,5.83
	c0.186-0.943,0.88-1.81,1.672-2.108c0.737-0.27,1.42,0.079,1.857,0.419C7.854,4.732,7.94,5.412,8.056,6.275
	c0.139,1.021,0.34,2.576,2.29,2.997c0.346,0.078,0.752,0.115,1.188,0.162c0.53,0.057,1.124,0.117,1.454,0.224
	c0.435,0.147,0.691,0.425,0.859,0.934c0.049,0.132,0.069,0.269,0.069,0.411c0,0.255-0.069,0.532-0.205,0.792
	c-0.226,0.449-0.591,0.789-0.974,0.908c-1.139,0.366-2.461,0.354-3.813-0.045c-1.26-0.371-2.447-1.033-3.33-1.869
	C4.51,9.775,3.483,8.079,3.483,6.498C3.483,6.275,3.506,6.051,3.558,5.83z"/>
</svg>
