<?xml version="1.0" encoding="utf-8"?>
<!-- Generator: Adobe Illustrator 16.0.0, SVG Export Plug-In . SVG Version: 6.00 Build 0)  -->
<!DOCTYPE svg PUBLIC "-//W3C//DTD SVG 1.1//EN" "http://www.w3.org/Graphics/SVG/1.1/DTD/svg11.dtd">
<svg version="1.1" id="레이어_1" xmlns="http://www.w3.org/2000/svg" xmlns:xlink="http://www.w3.org/1999/xlink" x="0px"
	 y="0px" width="30px" height="30px" viewBox="0 0 30 30" enable-background="new 0 0 30 30" xml:space="preserve">
<path fill="#E70095" d="M4.226,7.272c-0.203,2.997,3.362,4.444,4.33,6.483c0.202,0.446,0.657,1.256,0.774,2.488
	c0.061,0.565,0.043,1.221-0.103,1.964c-0.455,2.363-1.111,3.559-1.045,5.586c0.063,1.707,0.871,3.131,2.492,3.793
	c0.675,0.283,2.604,0.854,4.694-1.215c2.198-2.182,4.515-2.688,5.676-2.887c1.651-0.293,2,0.078,3.394-0.799l0.015-0.012
	c2.552-1.652,1.7-4.305,1.313-4.988c-0.41-0.74-1.406-1.813-1.896-2.743c-0.368-0.657-0.771-1.793-0.296-3.647
	c0.534-2.081-0.16-3.417-1.22-4.286c-1.101-0.917-3.041-0.924-3.041-0.924c-2.021-0.061-4.231-0.8-4.231-0.8
	s-0.342-0.12-0.773-0.355c-0.013,0.016-0.024,0.031-0.031,0.049c-0.021,0.031-0.043,0.048-0.063,0.071
	c0.026-0.036,0.063-0.083,0.094-0.121c-0.479-0.248-1.083-0.623-1.488-1.107c-1.445-1.748-2.679-1.954-3.964-1.77
	c-0.379,0.06-1.079,0.285-1.809,0.745C6.854,2.914,6.653,3.052,6.455,3.207H6.444C5.644,3.825,4.882,4.7,4.485,5.938
	C4.352,6.346,4.268,6.791,4.226,7.272z M14.054,5.238v0.013c-0.013,0.003-0.018,0.012-0.024,0.018
	C14.036,5.263,14.041,5.251,14.054,5.238z"/>
</svg>
