<?xml version="1.0" encoding="utf-8"?>
<!-- Generator: Adobe Illustrator 16.0.0, SVG Export Plug-In . SVG Version: 6.00 Build 0)  -->
<!DOCTYPE svg PUBLIC "-//W3C//DTD SVG 1.1//EN" "http://www.w3.org/Graphics/SVG/1.1/DTD/svg11.dtd">
<svg version="1.1" id="레이어_1" xmlns="http://www.w3.org/2000/svg" xmlns:xlink="http://www.w3.org/1999/xlink" x="0px"
	 y="0px" width="17px" height="17px" viewBox="0 0 17 17" enable-background="new 0 0 17 17" xml:space="preserve">
<path fill="#E70095" d="M4.769,7.85c0.738,0.209,1.3,0.374,1.696,0.585c-0.374,0.17-0.854,0.306-1.442,0.47
	C4.14,9.164,3.051,9.473,2.144,9.941C1.992,10.037,1.91,10.24,1.91,10.505c0,0.413,0.171,0.957,0.482,1.511
	c0.011,0.006,0.078,0.123,0.078,0.123c0.465,0.747,1.191,1.372,1.603,1.146c0.873-0.56,1.687-1.349,2.345-1.99
	c0.269-0.247,0.499-0.478,0.72-0.671c-0.063,0.289-0.139,0.602-0.23,0.955c-0.217,0.893-0.499,1.994-0.539,3.01
	c0.008,0.443,0.852,0.809,1.897,0.816c0,0,0.02,0,0.037,0l0.132-0.002c0.879-0.027,1.779-0.344,1.793-0.814
	c-0.056-1.029-0.33-2.138-0.547-3.025c-0.144-0.568-0.264-1.03-0.309-1.428c0.379,0.241,0.803,0.652,1.35,1.17
	c0.655,0.635,1.475,1.426,2.329,1.979c0.394,0.216,1.138-0.341,1.663-1.24c0,0,0.014-0.021,0.023-0.032l0.055-0.107
	c0.258-0.477,0.42-1.008,0.42-1.407c0-0.256-0.07-0.453-0.227-0.554c-0.92-0.479-2.014-0.785-2.898-1.037
	c-0.736-0.216-1.301-0.373-1.697-0.601c0.377-0.158,0.853-0.292,1.445-0.46c0.882-0.254,1.977-0.57,2.879-1.038
	c0.152-0.093,0.229-0.292,0.229-0.559c0-0.412-0.168-0.96-0.482-1.51c-0.003-0.009-0.07-0.119-0.07-0.119
	c-0.471-0.752-1.19-1.38-1.613-1.146c-0.868,0.553-1.687,1.346-2.34,1.98C10.172,5.71,9.936,5.934,9.721,6.132
	C9.782,5.841,9.859,5.53,9.954,5.175c0.215-0.888,0.489-1.991,0.54-3.006C10.48,1.723,9.632,1.353,8.587,1.345H8.553L8.421,1.349
	c-0.876,0.033-1.779,0.347-1.785,0.82C6.68,3.196,6.962,4.306,7.183,5.196C7.324,5.76,7.439,6.225,7.491,6.618
	C7.099,6.373,6.68,5.967,6.139,5.441C5.477,4.81,4.663,4.022,3.808,3.473C3.41,3.252,2.667,3.804,2.144,4.712
	c0,0-0.014,0.016-0.02,0.025L2.066,4.85C1.808,5.327,1.652,5.854,1.652,6.259c0,0.255,0.06,0.454,0.221,0.547
	C2.788,7.283,3.886,7.595,4.769,7.85z"/>
</svg>
