<?xml version="1.0" encoding="utf-8"?>
<!-- Generator: Adobe Illustrator 16.0.0, SVG Export Plug-In . SVG Version: 6.00 Build 0)  -->
<!DOCTYPE svg PUBLIC "-//W3C//DTD SVG 1.1//EN" "http://www.w3.org/Graphics/SVG/1.1/DTD/svg11.dtd">
<svg version="1.1" id="레이어_1" xmlns="http://www.w3.org/2000/svg" xmlns:xlink="http://www.w3.org/1999/xlink" x="0px"
	 y="0px" width="30px" height="30px" viewBox="0 0 30 30" enable-background="new 0 0 30 30" xml:space="preserve">
<path fill="#E70095" d="M9.065,20.743h3.913v3.56h4.32v-3.56h3.918c3.552,0,6.435-2.576,6.435-5.743s-2.883-5.743-6.435-5.743
	h-3.918V5.698h-4.32v3.559H9.065c-3.542,0-6.427,2.576-6.427,5.743S5.523,20.743,9.065,20.743z M17.299,11.917h3.918
	c1.945,0,3.529,1.383,3.529,3.083c0,1.698-1.584,3.078-3.529,3.078h-3.918V11.917z M9.065,11.917h3.913v6.161H9.065
	c-1.94,0-3.525-1.38-3.525-3.078C5.54,13.3,7.125,11.917,9.065,11.917z"/>
</svg>
