<?xml version="1.0" encoding="utf-8"?>
<!-- Generator: Adobe Illustrator 16.0.0, SVG Export Plug-In . SVG Version: 6.00 Build 0)  -->
<!DOCTYPE svg PUBLIC "-//W3C//DTD SVG 1.1//EN" "http://www.w3.org/Graphics/SVG/1.1/DTD/svg11.dtd">
<svg version="1.1" id="레이어_1" xmlns="http://www.w3.org/2000/svg" xmlns:xlink="http://www.w3.org/1999/xlink" x="0px"
	 y="0px" width="89px" height="16px" viewBox="0 0 89 16" enable-background="new 0 0 89 16" xml:space="preserve">
<path fill="#666666" d="M2.84,1.7h7.2c1.176,0,2.04,0.267,2.592,0.801c0.552,0.534,0.828,1.347,0.828,2.439
	c0,0.72-0.156,1.305-0.468,1.755C12.68,7.145,12.296,7.46,11.84,7.64c0.972,0.264,1.632,0.912,1.979,1.944
	C13.939,9.956,14,10.388,14,10.88c0,1.177-0.276,2.04-0.828,2.592S11.756,14.3,10.58,14.3H2.84V1.7z M10.22,5.3
	c0-0.72-0.36-1.08-1.08-1.08H6.08v2.52h3.06c0.72,0,1.08-0.36,1.08-1.08V5.3z M10.76,10.34c0-0.721-0.36-1.08-1.08-1.08h-3.6v2.52
	h3.6c0.72,0,1.08-0.359,1.08-1.08V10.34z"/>
<path fill="#666666" d="M25.61,14.3h-9.99V1.7h9.99v2.52h-6.75v2.43h5.31v2.52h-5.31v2.609h6.75V14.3z"/>
<path fill="#666666" d="M30.29,11.779h6.569V14.3h-9.81V1.7h3.24V11.779z"/>
<path fill="#666666" d="M48.919,14.029c-2.808,0.301-5.388,0.451-7.74,0.451c-1.176,0-2.04-0.276-2.592-0.828
	c-0.552-0.553-0.828-1.416-0.828-2.593V5.3c0-1.26,0.285-2.175,0.855-2.745c0.569-0.57,1.484-0.855,2.745-0.855h6.479v2.52h-5.76
	c-0.72,0-1.08,0.36-1.08,1.08v5.76c0,0.276,0.081,0.495,0.243,0.657s0.381,0.243,0.657,0.243c1.38,0,2.64-0.03,3.779-0.091V9.26
	h-2.34V7.1h5.58V14.029z"/>
<path fill="#666666" d="M56.659,14.3H50.18v-2.521h1.62V4.22h-1.62V1.7h6.479v2.52H55.04v7.56h1.619V14.3z"/>
<path fill="#666666" d="M66.379,1.7h3.24v9.18c0,1.26-0.285,2.175-0.854,2.745c-0.57,0.57-1.485,0.855-2.745,0.855h-4.141
	c-1.26,0-2.175-0.285-2.745-0.855c-0.569-0.57-0.854-1.485-0.854-2.745V1.7h3.24v9.18c0,0.72,0.359,1.08,1.08,1.08h2.699
	c0.721,0,1.08-0.36,1.08-1.08V1.7z"/>
<path fill="#666666" d="M82.579,7.28l-2.52,4.5h-2.521l-2.52-4.5v7.02h-3.24V1.7h3.42l3.6,6.66l3.601-6.66h3.42v12.6h-3.24V7.28z"/>
</svg>
