<?xml version="1.0" encoding="utf-8"?>
<!-- Generator: Adobe Illustrator 16.0.0, SVG Export Plug-In . SVG Version: 6.00 Build 0)  -->
<!DOCTYPE svg PUBLIC "-//W3C//DTD SVG 1.1//EN" "http://www.w3.org/Graphics/SVG/1.1/DTD/svg11.dtd">
<svg version="1.1" id="레이어_1" xmlns="http://www.w3.org/2000/svg" xmlns:xlink="http://www.w3.org/1999/xlink" x="0px"
	 y="0px" width="65px" height="16px" viewBox="0 0 65 16" enable-background="new 0 0 65 16" xml:space="preserve">
<path fill="#666666" d="M13.88,7.28l-2.52,4.5H8.84l-2.52-4.5v7.02H3.08V1.7H6.5l3.6,6.66L13.7,1.7h3.42v12.6h-3.24V7.28z"/>
<path fill="#666666" d="M25.22,14.3H18.74v-2.521h1.62V4.22h-1.62V1.7h6.479v2.52h-1.619v7.56h1.619V14.3z"/>
<path fill="#666666" d="M30.08,11.779h6.569V14.3h-9.81V1.7h3.24V11.779z"/>
<path fill="#666666" d="M40.16,14.3h-3.51l4.77-12.6h3.601l4.77,12.6h-3.51l-0.811-2.25h-4.5L40.16,14.3z M41.78,9.71h2.88
	l-1.44-4.23L41.78,9.71z"/>
<path fill="#666666" d="M61.669,14.3h-3.42L53.93,6.74v7.56h-3.24V1.7h3.42l4.32,7.56V1.7h3.239V14.3z"/>
</svg>
