<?xml version="1.0" encoding="utf-8"?>
<!-- Generator: Adobe Illustrator 16.0.0, SVG Export Plug-In . SVG Version: 6.00 Build 0)  -->
<!DOCTYPE svg PUBLIC "-//W3C//DTD SVG 1.1//EN" "http://www.w3.org/Graphics/SVG/1.1/DTD/svg11.dtd">
<svg version="1.1" id="레이어_1" xmlns="http://www.w3.org/2000/svg" xmlns:xlink="http://www.w3.org/1999/xlink" x="0px"
	 y="0px" width="85px" height="16px" viewBox="0 0 85 16" enable-background="new 0 0 85 16" xml:space="preserve">
<path fill="#666666" d="M4.409,11.689c3.288,0.18,5.514,0.271,6.678,0.271c0.276,0,0.495-0.081,0.657-0.243s0.243-0.381,0.243-0.657
	v-1.62H7.847c-1.26,0-2.175-0.285-2.745-0.854C4.532,8.015,4.247,7.1,4.247,5.84V5.3c0-1.26,0.285-2.175,0.854-2.745
	C5.672,1.985,6.587,1.7,7.847,1.7h6.318v2.52H8.567c-0.721,0-1.08,0.36-1.08,1.08v0.36c0,0.72,0.359,1.08,1.08,1.08h3.239
	c1.177,0,2.04,0.276,2.593,0.828c0.552,0.552,0.827,1.416,0.827,2.592v0.899c0,1.177-0.275,2.04-0.827,2.593
	c-0.553,0.552-1.416,0.828-2.593,0.828c-0.611,0-1.26-0.013-1.943-0.037l-1.656-0.072c-1.224-0.06-2.49-0.143-3.798-0.252V11.689z"
	/>
<path fill="#666666" d="M25.486,1.7l2.16,8.1l1.89-8.1h3.511l-3.42,12.6h-3.42l-2.16-7.83l-2.16,7.83h-3.42l-3.42-12.6h3.51
	l1.89,8.1l2.16-8.1H25.486z"/>
<path fill="#666666" d="M43.938,14.3h-9.99V1.7h9.99v2.52h-6.75v2.43h5.31v2.52h-5.31v2.609h6.75V14.3z"/>
<path fill="#666666" d="M52.396,1.7c1.356,0,2.386,0.351,3.087,1.053c0.702,0.702,1.054,1.731,1.054,3.087v4.32
	c0,1.355-0.352,2.385-1.054,3.086c-0.701,0.703-1.73,1.054-3.087,1.054h-7.02V1.7H52.396z M53.297,5.84c0-1.08-0.54-1.62-1.62-1.62
	h-3.06v7.56h3.06c1.08,0,1.62-0.539,1.62-1.619V5.84z"/>
<path fill="#666666" d="M68.327,14.3h-9.99V1.7h9.99v2.52h-6.75v2.43h5.31v2.52h-5.31v2.609h6.75V14.3z"/>
<path fill="#666666" d="M80.746,14.3h-3.42l-4.319-7.56v7.56h-3.24V1.7h3.42l4.32,7.56V1.7h3.239V14.3z"/>
</svg>
