<?xml version="1.0" encoding="utf-8"?>
<!-- Generator: Adobe Illustrator 16.0.0, SVG Export Plug-In . SVG Version: 6.00 Build 0)  -->
<!DOCTYPE svg PUBLIC "-//W3C//DTD SVG 1.1//EN" "http://www.w3.org/Graphics/SVG/1.1/DTD/svg11.dtd">
<svg version="1.1" id="레이어_1" xmlns="http://www.w3.org/2000/svg" xmlns:xlink="http://www.w3.org/1999/xlink" x="0px"
	 y="0px" width="77px" height="16px" viewBox="0 0 77 16" enable-background="new 0 0 77 16" xml:space="preserve">
<path fill="#666666" d="M14.88,14.029c-2.808,0.301-5.388,0.451-7.74,0.451c-1.176,0-2.04-0.276-2.592-0.828
	C3.996,13.1,3.72,12.236,3.72,11.06V5.3c0-1.26,0.285-2.175,0.855-2.745C5.145,1.985,6.06,1.7,7.32,1.7H13.8v2.52H8.04
	c-0.72,0-1.08,0.36-1.08,1.08v5.76c0,0.276,0.081,0.495,0.243,0.657S7.584,11.96,7.86,11.96c1.38,0,2.64-0.03,3.779-0.091V9.26H9.3
	V7.1h5.58V14.029z"/>
<path fill="#666666" d="M16.68,1.7h7.56c1.261,0,2.175,0.285,2.745,0.855c0.57,0.57,0.855,1.485,0.855,2.745v1.62
	c0,0.996-0.165,1.77-0.495,2.322c-0.33,0.552-0.855,0.918-1.575,1.098l2.25,3.96h-3.51l-2.07-3.78h-2.52v3.78h-3.24V1.7z M24.6,5.3
	c0-0.72-0.36-1.08-1.08-1.08h-3.6V8h3.6c0.72,0,1.08-0.36,1.08-1.08V5.3z"/>
<path fill="#666666" d="M39.63,14.3h-9.99V1.7h9.99v2.52h-6.75v2.43h5.31v2.52h-5.31v2.609h6.75V14.3z"/>
<path fill="#666666" d="M51.06,14.3h-9.99V1.7h9.99v2.52h-6.75v2.43h5.31v2.52h-5.31v2.609h6.75V14.3z"/>
<path fill="#666666" d="M62.22,14.119c-2.676,0.24-4.896,0.361-6.66,0.361c-1.176,0-2.04-0.276-2.592-0.828
	c-0.552-0.553-0.828-1.416-0.828-2.593V5.3c0-1.26,0.285-2.175,0.855-2.745C53.564,1.985,54.479,1.7,55.74,1.7h6.479v2.52h-5.76
	c-0.72,0-1.08,0.36-1.08,1.08v5.76c0,0.276,0.081,0.495,0.243,0.657s0.369,0.243,0.621,0.243s0.527-0.003,0.828-0.009
	c0.3-0.006,0.611-0.016,0.936-0.027s0.651-0.023,0.981-0.036c0.329-0.012,0.756-0.036,1.277-0.071
	c0.522-0.037,1.173-0.078,1.953-0.127V14.119z"/>
<path fill="#666666" d="M73.649,14.3h-9.99V1.7h9.99v2.52h-6.75v2.43h5.31v2.52h-5.31v2.609h6.75V14.3z"/>
</svg>
