<?xml version="1.0" encoding="utf-8"?>
<!-- Generator: Adobe Illustrator 16.0.0, SVG Export Plug-In . SVG Version: 6.00 Build 0)  -->
<!DOCTYPE svg PUBLIC "-//W3C//DTD SVG 1.1//EN" "http://www.w3.org/Graphics/SVG/1.1/DTD/svg11.dtd">
<svg version="1.1" id="레이어_1" xmlns="http://www.w3.org/2000/svg" xmlns:xlink="http://www.w3.org/1999/xlink" x="0px"
	 y="0px" width="55px" height="16px" viewBox="0 0 55 16" enable-background="new 0 0 55 16" xml:space="preserve">
<path fill="#666666" d="M3.273,1.699h7.56c1.261,0,2.175,0.285,2.745,0.855c0.57,0.57,0.855,1.485,0.855,2.745v1.8
	c0,1.26-0.285,2.175-0.855,2.745c-0.57,0.57-1.484,0.855-2.745,0.855H6.513v3.6h-3.24V1.699z M11.193,5.299
	c0-0.72-0.36-1.08-1.08-1.08h-3.6v3.96h3.6c0.72,0,1.08-0.36,1.08-1.08V5.299z"/>
<path fill="#666666" d="M26.043,14.299h-9.99v-12.6h9.99v2.52h-6.75v2.43h5.31V9.17h-5.31v2.609h6.75V14.299z"/>
<path fill="#666666" d="M27.483,1.699h7.56c1.26,0,2.174,0.285,2.744,0.855c0.57,0.57,0.855,1.485,0.855,2.745v1.62
	c0,0.996-0.164,1.77-0.494,2.322s-0.855,0.918-1.576,1.099l2.25,3.959h-3.51l-2.07-3.779h-2.52v3.779h-3.24V1.699z M35.402,5.299
	c0-0.72-0.359-1.08-1.08-1.08h-3.6V8h3.6c0.721,0,1.08-0.36,1.08-1.08V5.299z"/>
<path fill="#666666" d="M48.543,1.699h3.24v9.18c0,1.26-0.285,2.176-0.855,2.746c-0.57,0.569-1.484,0.854-2.744,0.854h-4.141
	c-1.26,0-2.176-0.285-2.746-0.854c-0.568-0.57-0.854-1.486-0.854-2.746v-9.18h3.24v9.18c0,0.721,0.359,1.08,1.08,1.08h2.699
	c0.721,0,1.08-0.359,1.08-1.08V1.699z"/>
</svg>
