<?xml version="1.0" encoding="utf-8"?>
<!-- Generator: Adobe Illustrator 16.0.0, SVG Export Plug-In . SVG Version: 6.00 Build 0)  -->
<!DOCTYPE svg PUBLIC "-//W3C//DTD SVG 1.1//EN" "http://www.w3.org/Graphics/SVG/1.1/DTD/svg11.dtd">
<svg version="1.1" id="레이어_1" xmlns="http://www.w3.org/2000/svg" xmlns:xlink="http://www.w3.org/1999/xlink" x="0px"
	 y="0px" width="17px" height="17px" viewBox="0 0 17 17" enable-background="new 0 0 17 17" xml:space="preserve">
<path fill="#E70095" d="M11.404,16.07c0-2.004-1.502-2.57-1.502-3.717c0-1.125,1.471-1.703,1.496-3.657h0.006
	c0-0.008,0-0.012,0-0.012c0-0.023,0-0.033,0-0.033l-0.006-0.009c-0.025-1.951-1.496-2.522-1.496-3.649
	c0-1.137,1.502-1.717,1.502-3.718h-6c0,2.001,1.501,2.57,1.501,3.718c0,1.127-1.465,1.699-1.494,3.649H5.405c0,0,0,0.019,0,0.027
	c0,0,0,0.019,0,0.027h0.007c0.029,1.954,1.494,2.524,1.494,3.657c0,1.146-1.501,1.717-1.501,3.717H11.404z"/>
</svg>
