<?xml version="1.0" encoding="utf-8"?>
<!-- Generator: Adobe Illustrator 16.0.0, SVG Export Plug-In . SVG Version: 6.00 Build 0)  -->
<!DOCTYPE svg PUBLIC "-//W3C//DTD SVG 1.1//EN" "http://www.w3.org/Graphics/SVG/1.1/DTD/svg11.dtd">
<svg version="1.1" id="레이어_1" xmlns="http://www.w3.org/2000/svg" xmlns:xlink="http://www.w3.org/1999/xlink" x="0px"
	 y="0px" width="30px" height="30px" viewBox="0 0 30 30" enable-background="new 0 0 30 30" xml:space="preserve">
<path fill="#E70095" d="M18.234,12.352V8.118c0-1.625-1.325-2.942-2.945-2.942c-1.632,0-2.947,1.317-2.947,2.942v4.234H7.991
	c-1.542,0-2.782,1.186-2.926,2.688v0.513c0.144,1.506,1.384,2.699,2.926,2.699h4.352v4.225c0,1.623,1.314,2.949,2.947,2.949
	c1.62,0,2.946-1.326,2.946-2.949v-4.225h4.109c1.627,0,2.947-1.329,2.947-2.958c0-1.622-1.32-2.942-2.947-2.942H18.234z
	 M22.982,15.294c0,0.358-0.285,0.642-0.637,0.642h-6.414v6.541c0,0.348-0.291,0.637-0.643,0.637c-0.357,0-0.648-0.289-0.648-0.637
	v-6.541h-6.65c-0.36,0-0.646-0.283-0.646-0.642c0-0.353,0.286-0.634,0.646-0.634h6.65V8.118c0-0.354,0.291-0.642,0.648-0.642
	c0.352,0,0.643,0.288,0.643,0.642v6.542h6.414C22.697,14.661,22.982,14.941,22.982,15.294z"/>
<path fill="#E70095" d="M18.273,3.459h-6.188c-4.807,0-8.724,3.917-8.724,8.731v6.183c0,0.027,0,0.053,0.001,0.078
	c0.043,4.779,3.939,8.654,8.723,8.654h6.188c4.813,0,8.724-3.916,8.724-8.732V12.19C26.997,7.376,23.088,3.459,18.273,3.459z
	 M25.464,18.373c0,3.967-3.228,7.195-7.188,7.195h-6.189c-3.962,0-7.188-3.229-7.188-7.195v-2.82V15.04v-2.85
	c0-3.972,3.226-7.185,7.188-7.185h6.189c3.961,0,7.188,3.212,7.188,7.185V18.373z"/>
</svg>
