<?xml version="1.0" encoding="utf-8"?>
<!-- Generator: Adobe Illustrator 16.0.0, SVG Export Plug-In . SVG Version: 6.00 Build 0)  -->
<!DOCTYPE svg PUBLIC "-//W3C//DTD SVG 1.1//EN" "http://www.w3.org/Graphics/SVG/1.1/DTD/svg11.dtd">
<svg version="1.1" id="레이어_1" xmlns="http://www.w3.org/2000/svg" xmlns:xlink="http://www.w3.org/1999/xlink" x="0px"
	 y="0px" width="1920px" height="1080px" viewBox="0 0 1920 1080" enable-background="new 0 0 1920 1080" xml:space="preserve">
<path fill="#DFDFDF" stroke="#9CC784" stroke-width="2" stroke-miterlimit="10" d="M103.415,163.376
	c-20.181,18.669-30.214,75.336-23.385,82.941c15.194,16.919,83.399-4.426,101.313-1.698c24.075,3.667,49.383,19.254,51.118,42.882
	c1.14,15.522-14.849,38.659-16.921,58.009c-2.072,19.352,40.841,125.896,53.14,120.696c12.299-5.2-8.404-43.229,0.268-44.956
	c8.673-1.729,11.298,60.837,22.807,72.984c9.829,10.373,30.622,2.771,47.792,5.558c17.17,2.788,35.292,12.678,42.021,20.25
	s7.655,28.459,17.726,34.522c15.561,9.368,18.209-4.936,26.656-2.834c12.251,3.043,2.059,19.055-1.933,26.697
	c-4.451,8.527-35.565,13.769-39.055,40.055c-2.117,15.953,37.876,39.183,46.159,51.131c6.256,9.024,5.951,35.123,14.873,41.563
	c16.763,12.103,26.525,21.595,26.741,42.034c0.577,54.748,12.073,140.94,18.413,161.121c6.337,20.178,64.845,73.352,79.518,60.07
	c9.311-8.429-28.049-62.722-1.454-119.197c11.196-23.774,54.784-82.12,71.907-101.244c17.123-19.123,69.667-88.214,58.191-126.033
	c-6.521-21.496-100.076-62.545-122.358-70.27c-22.282-7.727-31.373-19.217-43.899-30.063c-11.279-9.769-31.794-17.836-58.901-15.765
	c-17.246,1.316-29.704,24.704-31.581,20.984c-5.417-10.725-13.313,6.437-20.808,3.92c-5.143-1.728-17.729-16.489-13.246-24.832
	c12.499-23.246-12.301-11.965-18.596-20.235c-6.294-8.272,10.366-26.063,4.314-35.267c-6.052-9.202-13.819,7.357-24.715,14.398
	c-3.208,2.073-13.38,11.396-20.606,3.999s-8.38-28.77,0.384-41.407c8.764-12.638,60.47-31.313,68.065-25.096
	c11.243,9.201-5.753,30.604,15.679,31.147c31.943,0.813,4.765-25.954,17.906-41.875c5.548-6.722,19.433-13.717,26.965-18
	c6.035-3.433,32.472-29.762,50.226-36.926c27.656-11.158,97.692-11.8,118.874-31.097c20.195-18.398-55.793-109.181-86.7-107.35
	c-15.647,0.927-8.659,26.152-27.561,35.162c-13.298,6.34-27.993,25.677-34.211,26.134s-25.372-23.574-24.803-37.442
	c1.154-28.238,39.111-25.22,48.939-21.762s11.577-19.944,19.672-21.097c8.096-1.152,58.706,30.522,69.277,27.939
	c10.57-2.583-25.482-81.46-38.203-79.731c-6.427,0.874-26.592,27.893-34.686,23.282c-4.969-2.831,11.915-21.115-6.367-23.093
	c-10.872-1.176-20.652,25.705-39.153,30.315s-66.298,4.21-75.438,2.571c-19.063-3.418-37.065-12.185-45.119-11.547
	c-8.054,0.637-85.021-10.724-131.38-9.233C205.437,146.85,128.446,140.22,103.415,163.376z"/>
</svg>
