<?xml version="1.0" encoding="utf-8"?>
<!-- Generator: Adobe Illustrator 16.0.0, SVG Export Plug-In . SVG Version: 6.00 Build 0)  -->
<!DOCTYPE svg PUBLIC "-//W3C//DTD SVG 1.1//EN" "http://www.w3.org/Graphics/SVG/1.1/DTD/svg11.dtd">
<svg version="1.1" id="레이어_1" xmlns="http://www.w3.org/2000/svg" xmlns:xlink="http://www.w3.org/1999/xlink" x="0px"
	 y="0px" width="1920px" height="1080px" viewBox="0 0 1920 1080" enable-background="new 0 0 1920 1080" xml:space="preserve">
<path fill="#F2F2F2" stroke="#CDDB28" stroke-width="2" stroke-miterlimit="10" d="M723,621c-3.661-26.628-107.411-60.193-130-68
	s-43.615-10.68-54.259-26.645c-8.746-13.119-25.85-24.329-63.104-22.05c-17.504,1.072-30.018,23.521-31.93,19.768
	c-5.467-10.852-13.689,12.426-21.288,9.884c-5.213-1.745-17.398-14.341-11.403-22.048c21.287-27.369-8.063-14.448-14.445-22.809
	c-6.381-8.358,5.374-28.711-0.761-38.012c-6.135-9.302-14.802,7.329-25.848,14.444c-3.252,2.095-7.879,12.796-15.205,5.32
	c-7.326-7.475-6.603-22.199,2.281-34.973c8.884-12.771,50.838-31.37,58.539-25.087c11.399,9.299-12.393,28.495,17.486,31.17
	C484.003,446.529,445.678,419.089,459,403c5.624-6.792,24.293-16.197,31.93-20.527c6.118-3.468,36.979-28.699,56.07-33.473
	c40-10,86,6,122-20c29.953-21.633-76.281-134.114-113.534-128.032c-15.788,2.578-5.167,25.866-24.327,34.972
	c-13.479,6.407-27.907,19.305-34.211,19.767c-6.303,0.462-18.82-14.114-18.246-28.129c1.173-28.538,37.171-14.518,47.137-11.024
	c9.964,3.495,10.038-23.923,18.245-25.088c8.205-1.165,69.108,31.12,79.825,28.509c10.716-2.61-35.001-96.778-47.896-95.031
	c-6.516,0.882-25.245,33.548-33.451,28.889c-5.037-2.86,15.206-20.527-9.883-25.088c-10.952-1.991-20.777,28.032-39.533,32.691
	c-18.756,4.659-65.76,3.987-75.027,2.331c-19.325-3.455-37.576-12.314-45.741-11.669C364.192,152.739,281.998,131.493,235,133
	c-36.34,1.165-107.207-12.653-150.864,17.113C51.138,172.612,38.24,254.391,43.638,264.107c20,36,113.305-5.508,127.362-5.107
	c26.608,0.76,50.871,3.727,52.629,27.606c1.156,15.686-20.338,44.575-22.439,64.13c-2.101,19.554,57.474,133.736,69.943,128.48
	c12.468-5.255-2.71-33.982,6.082-35.73s-3.686,55.007,7.981,67.281c9.964,10.484,34.671-10.037,52.078-7.223
	c17.407,2.817,34.992,11.354,41.813,19.006c6.821,7.652,3.476,32.646,13.685,38.773c15.775,9.469,21.663-2.448,30.227-0.326
	c12.42,3.075-3.956,6.275-8,14c-4.512,8.618-46.778,7.51-54,44c-3.167,16.008,54.926,38.206,63.323,50.281
	c6.343,9.122,3.498,47.09,12.544,53.598C453.861,735.108,458.782,750.343,459,771c0.586,55.328,15.575,149.606,22,170
	c6.425,20.392,92.19,78.485,110,54c9.123-12.544-40.704-79.825-13.742-136.9C588.609,834.072,635.641,776.326,653,757
	S731.362,681.819,723,621z"/>
</svg>
