<?xml version="1.0" encoding="utf-8"?>
<!-- Generator: Adobe Illustrator 16.0.0, SVG Export Plug-In . SVG Version: 6.00 Build 0)  -->
<!DOCTYPE svg PUBLIC "-//W3C//DTD SVG 1.1//EN" "http://www.w3.org/Graphics/SVG/1.1/DTD/svg11.dtd">
<svg version="1.1" id="레이어_1" xmlns="http://www.w3.org/2000/svg" xmlns:xlink="http://www.w3.org/1999/xlink" x="0px"
	 y="0px" width="1920px" height="1080px" viewBox="0 0 1920 1080" enable-background="new 0 0 1920 1080" xml:space="preserve">
<path fill="#D6D6D6" stroke="#83BDB1" stroke-width="2" stroke-miterlimit="10" d="M628.948,126.566
	c5.794,6.4,26.464,3.973,32.361,4.711c17.033,2.132-2.935,52.607,2.78,74.571c1.974,7.578,7.735,17.066,17.126,17.272
	c12.521,0.276,13.913-5.109,22.096-15.251c4.978-6.171,11.147-16.606,17.767-20.534c7.771-4.612,19.725-1.262,27.438-6.316
	c14.964-9.804,70.358-31.453,81.248-44.49c10.994-13.161,47.017-27.682,44.538-40.541c-1.623-8.424-33.179-3.715-55.378-5.232
	c-22.198-1.518-137.23,6.266-151.257,10.161C653.644,104.813,616.36,112.662,628.948,126.566z"/>
</svg>
