<?xml version="1.0" encoding="utf-8"?>
<!-- Generator: Adobe Illustrator 16.0.0, SVG Export Plug-In . SVG Version: 6.00 Build 0)  -->
<!DOCTYPE svg PUBLIC "-//W3C//DTD SVG 1.1//EN" "http://www.w3.org/Graphics/SVG/1.1/DTD/svg11.dtd">
<svg version="1.1" id="레이어_1" xmlns="http://www.w3.org/2000/svg" xmlns:xlink="http://www.w3.org/1999/xlink" x="0px"
	 y="0px" width="1920px" height="1080px" viewBox="0 0 1920 1080" enable-background="new 0 0 1920 1080" xml:space="preserve">
<path fill="#CCCCCC" stroke="#6AB3DF" stroke-width="2" stroke-miterlimit="10" d="M1682.944,170.863
	c-11.56-2.466-23.334,1.204-54.065-6.203c-30.729-7.407-125.469-27.12-189.19-31.463c-44.589-3.039-96.046-9.982-133.767-9.118
	c-37.722,0.864-49.459,5.091-77.497,12.743c-37.113,10.13-86.938,25.683-111.343,30.389c-46.926,9.049-65.604-0.195-97.128-8.498
	c-31.525-8.302-61.693,1.928-75.306,15.459c-6.55,6.51-31.188,28.129-33.429,38.106c-2.237,9.977,3.813,14.496,10.101,17.558
	s16.796,24.15-2.693,26.761c-13.962,1.871-10.886,11.354-20.668,18.495c-9.782,7.141-46.453,9.79-28.292,21.016
	c15.337,9.48,5.714,28.148-11.584,24.292c-9.947-2.219-18.933-3.042-23.443,3.652c-2.391,3.547-6.66,22.195-5.306,27.279
	c2.667,10,15.524,9.387,19.333,6.667c4.667-3.333,61.172-52.504,68.975-52.384c7.803,0.121,51.644,43.887,54.634,41.794
	c5.7-3.991-22.449-51.517-17.002-55.478c18.813-13.684,41.792,70.183,45.504,70.243c3.713,0.062,0.007-23.033,1.146-31.3
	c1.018-7.365,1.241-57.758,59.397-37.232c76.68,27.063-21.48,33.241-39.729,44.075c-2.81,1.668-5.948,13.743,1.427,19.386
	c7.377,5.645,58.267-2.962,51.002,15.864c-1.22,3.167-9.53,23.281-16.297,24.808c-6.767,1.522-55.643,10.572-73.376,17.313
	c-17.734,6.74-51.447-45.1-66.683-48.087c-17-3.333-37.333,7-53.333,13.667c-17.09,7.121-27.667,12-37,18.667
	s-37.421,24.261-44.667,52.333c-2.667,10.333,4.161,25.578,4.161,34.762c0,3.993-4.501,22.058-4.219,27.705
	c0.932,18.684,32.103,56.316,59.628,54.438c6.982-0.479,31.492-5.709,40.229-6.188c26.137-1.435,47.75,25.69,46.366,38.989
	c-1.604,15.454,16.632,37.477,20.822,48.146c5.004,12.742,5.595,16.258,3.174,30.229c-3.764,21.722-12.889,28.054-1.856,50.879
	c4.059,8.396,22.453,90.438,34.746,94.696c13.734,4.756,44.529-3.729,64.671-32.496c5.321-7.604,20.06-23.12,24.284-38.359
	c4.227-15.237,1.33-24.236,11.142-37.983c9.811-13.745,27.952-14.312,20.704-41.546c-5.611-21.088-11.256-34.396-0.918-54.715
	c17.272-33.953,79.078-89.047,61.541-96.588c-17.539-7.54-24.764,11.087-39.207,7.665c-14.443-3.421-28.51-41.054-36.871-55.498
	c-8.362-14.444-31.152-50.105-27.36-55.272c3.792-5.166,24.985,19.323,29.403,33.688c4.42,14.363,26.994,60.776,37.107,61.499
	c15.966,1.141,82.107-36.492,81.33-60.978c-0.443-14.026-10.246-18.471-23.932-19.229c-13.687-0.759-22.428,5.322-28.89,0.76
	c-6.463-4.562-8.396-10.244-12.75-18.235c-4.354-7.992,1.386-18.862,9.157-10.956c7.773,7.905,14.627,16.315,32.678,19.714
	c18.051,3.396,24.982,10.148,39.952,11.905c14.972,1.756,26.324,1.255,40.983,14.43c14.658,13.174,38.056,91.312,46.659,94.752
	c10.005,4,24.141-52.391,31.991-62.803c7.852-10.412,10.002-17.807,21.279-25.132c11.279-7.327,25.196,3.179,33.822,13.131
	c8.627,9.951,17.174,20.085,20.411,24.775c3.237,4.692,8.742,18.394,8.742,29.271c0,7.489-1.419,15.444,3.281,24.067
	c4.7,8.622,34.677,44.484,39.673,43.215c4.998-1.271-14.105-26.18-22.048-42.573c-7.938-16.396-10.645-34.211-2.661-34.211
	c7.982,0,15.248,22.335,24.709,26.228c9.575,3.941,31.518-23.146,14.957-43.649c-4.503-5.574-18.757-11.656-19.111-22.588
	c-0.244-7.501,14.293-25.501,17.649-15.867c5.093,15.858,9.119,1.966,15.016,0c5.702-1.901,9.405-2.35,13.991-5.9
	c18.637-14.441,35.918-41.461,30.676-52.823c-3.424-7.419-11.588-14.775-17.584-23.099c-6.478-8.989,2.006-12.5-1.996-19.103
	c-4.001-6.603-26.755,1.975-24.43-10.236c3.334-17.513,21.391-13.521,30.133-7.249c8.742,6.271,15.021,11.892,17.486,16.536
	c2.463,4.643,4.189,21.937,15.727,17.495c20.104-7.742-12.934-25.688-13.445-32.131c-0.515-6.443,5.828-20.224,11.467-22.466
	c5.64-2.242,8.855,3.003,12.959-1.289c2.779-2.906,4.367-13.575,4.4-17.832c0.119-15.521-2.242-20.917-8.512-34.604
	c-4.066-8.881-13.449-17.266-22.977-14.277c-9.529,2.989-18.394,1.119-20.742-6.568c-2.354-7.688,2.106-26.053,28.656-26.339
	c15.231-0.164,39.825,4.774,39.902,0.737c0.076-4.037-10.094-16.266,0.66-16.077c4.756,0.083,21.244,12.855,21.244,20.955
	c0,8.563-6.444,10.254,4.783,19.959c3.443,2.978,18.688,28.159,27.969,25.254c9.281-2.906,5.002-50.433,14.174-63.161
	s28.107-11.126,34.832-14.982C1729.935,178.795,1694.504,173.329,1682.944,170.863z"/>
</svg>
