<?xml version="1.0" encoding="utf-8"?>
<!-- Generator: Adobe Illustrator 16.0.0, SVG Export Plug-In . SVG Version: 6.00 Build 0)  -->
<!DOCTYPE svg PUBLIC "-//W3C//DTD SVG 1.1//EN" "http://www.w3.org/Graphics/SVG/1.1/DTD/svg11.dtd">
<svg version="1.1" id="레이어_1" xmlns="http://www.w3.org/2000/svg" xmlns:xlink="http://www.w3.org/1999/xlink" x="0px"
	 y="0px" width="1920px" height="1080px" viewBox="0 0 1920 1080" enable-background="new 0 0 1920 1080" xml:space="preserve">
<path fill="#E9E9E9" stroke="#B4D156" stroke-width="2" stroke-miterlimit="10" d="M1679.919,665.688
	c-11.091,1.741-7.095,34.951-14.563,36.189c-7.47,1.237-14.151-3.755-16.183-9.425c-2.024-5.669,11.304-19.229,6.422-24.795
	c-18.03-20.571-38.498,25.557-56.213,21.867c-32.91-6.854-44.987,7.87-46.795,29.563c-1.792,21.536-49.351-1.434-57.794,26.2
	c-4.425,14.482,5.921,25.639,3.669,39.259c-0.479,2.889-40.178,40.856-29.556,67.939c12.127,30.881,75.863-18.655,91.008-27.972
	c50.213-30.881,71.467,62.449,127.758,36.623c15.151-6.948,53.895-45.963,62.854-60.864c17.348-28.848-9.556-58.062-24.483-84.076
	C1716.056,693.314,1697.09,662.992,1679.919,665.688z"/>
</svg>
