<?xml version="1.0" encoding="utf-8"?>
<!-- Generator: Adobe Illustrator 16.0.0, SVG Export Plug-In . SVG Version: 6.00 Build 0)  -->
<!DOCTYPE svg PUBLIC "-//W3C//DTD SVG 1.1//EN" "http://www.w3.org/Graphics/SVG/1.1/DTD/svg11.dtd">
<svg version="1.1" id="레이어_1" xmlns="http://www.w3.org/2000/svg" xmlns:xlink="http://www.w3.org/1999/xlink" x="0px"
	 y="0px" width="1920px" height="1080px" viewBox="0 0 1920 1080" enable-background="new 0 0 1920 1080" xml:space="preserve">
<path fill="#F8E1EC" stroke="#F4F4F4" stroke-width="1.75" stroke-miterlimit="10" d="M615.692,130.299
	c8.761,10.508,35.772,3.077,41.958,3.852c17.856,2.235-1.827,53.275,2.191,80.354c1.207,8.125,6.506,19.479,16.354,19.695
	c13.126,0.289,18.026-5.022,27.385-18.516c4.738-6.833,10.354-21.513,17.292-25.63c8.148-4.835,21.62-0.321,29.708-5.621
	c15.688-10.279,83.51-32.855,96.009-47.592c12.814-15.104,69.495-25.87,65.514-53.514c-2.047-14.212-59.186-6.819-82.459-8.411
	c-23.272-1.591-146.381,12.636-161.084,16.721C653.854,95.723,597.474,108.585,615.692,130.299z"/>
</svg>
