<?xml version="1.0" encoding="utf-8"?>
<!-- Generator: Adobe Illustrator 16.0.0, SVG Export Plug-In . SVG Version: 6.00 Build 0)  -->
<!DOCTYPE svg PUBLIC "-//W3C//DTD SVG 1.1//EN" "http://www.w3.org/Graphics/SVG/1.1/DTD/svg11.dtd">
<svg version="1.1" id="레이어_1" xmlns="http://www.w3.org/2000/svg" xmlns:xlink="http://www.w3.org/1999/xlink" x="0px"
	 y="0px" width="1920px" height="1080px" viewBox="0 0 1920 1080" enable-background="new 0 0 1920 1080" xml:space="preserve">
<path fill="none" stroke="#F7F8F8" stroke-width="2" stroke-miterlimit="10" d="M1731,711
	c-10.232-23.447-32.498-50.081-51.884-46.279c-11.328,2.226-6.792,32.186-14.444,33.451c-7.648,1.271-10.847-0.271-12.925-6.082
	c-2.077-5.81,11.201-22.564,5.321-27.75c-22.428-19.767-39.709,28.613-57.779,24.329c-36.871-8.743-48.275,4.94-47.896,28.89
	c0.355,22.58-52.096-4.083-60.744,24.229c-4.531,14.84,6.613,27.251,4.352,41.213c-0.499,2.957-50,48-38,80
	c13.635,36.359,88.266-24.438,103.777-33.979c51.449-31.638,74.55,64.439,132.223,37.979c15.521-7.122,60.816-50.729,70-66
	C1780.771,771.448,1746.585,736.848,1731,711z"/>
</svg>
