<?xml version="1.0" encoding="utf-8"?>
<!-- Generator: Adobe Illustrator 16.0.0, SVG Export Plug-In . SVG Version: 6.00 Build 0)  -->
<!DOCTYPE svg PUBLIC "-//W3C//DTD SVG 1.1//EN" "http://www.w3.org/Graphics/SVG/1.1/DTD/svg11.dtd">
<svg version="1.1" id="레이어_1" xmlns="http://www.w3.org/2000/svg" xmlns:xlink="http://www.w3.org/1999/xlink" x="0px"
	 y="0px" width="1920px" height="1080px" viewBox="0 0 1920 1080" enable-background="new 0 0 1920 1080" xml:space="preserve">
<path fill="#F1C2D9" stroke="#F8F8F8" stroke-width="2" stroke-miterlimit="10" d="M1114.583,163.687
	c-47.22,10.066-71.2-10.37-103.367-16.398c-33.313-6.247-55.832,14.873-69.592,28.55c-6.62,6.58-33.704,24.98-35.522,38.178
	c-1.56,11.3,7.49,13.304,13.852,16.399c6.354,3.095,16.729,21.61-2.975,24.251c-14.109,1.891-10.176,12.641-20.063,19.856
	c-9.887,7.218-45.124,9.614-30.152,21.749c12.646,10.246,2.185,25.261-12.395,21.925c-9.171-2.141-20.352-5.728-26.141,1.095
	c-3.777,4.452-7.396,23.361-4.479,31.959c4.144,12.202,13.962,14.715,26.191,7.776c12.909-7.324,60.207-48.229,69.403-48.28
	c8.849-0.034,49.326,41.083,53.707,38.021c6.689-4.687-18.361-46.786-13.354-50.396c14.896-10.807,36.646,66.896,41.502,67.246
	c5.467,0.396,0.718-26.326,2.215-34.665c1.396-7.644,3.169-52.934,54.953-34.838c69.688,24.325-20.033,30.023-37.777,40.468
	c-3.604,2.104-4.592,18.188,2.566,23.663c7.158,5.479,52.83-6.18,49.154,12.607c-0.892,4.537-8.438,22.542-15.002,24.021
	c-6.563,1.479-56.281,6.587-73.49,13.128c-17.209,6.54-50.401-43.31-66.19-46.611c-14.521-3.04-37.813,8.188-54.184,14.523
	c-17.188,6.682-31.45,12.588-42.2,19.338s-36.382,23.554-44,51.25c-3.206,11.655,5.41,31.801,5.121,41.071
	c-0.209,6.704-3.809,24.002-3.811,29.708c-0.002,25.418,19.595,65.6,57.861,56.396c9.061-2.181,35.119-9.03,43.952-9.487
	c26.254-1.358,44.657,23.806,44.157,39.521c-0.479,15.021,18.365,32.767,23.408,43.144c5.979,12.349,6.217,17.937,3.142,31.893
	c-4.818,21.806-11.459,29.729-1.015,52.128c5.68,12.176,12.345,97.179,26.967,104.871c16.302,8.564,50.479-8.455,73.503-34.371
	c5.771-6.497,25.44-21.863,29.714-37.271c4.271-15.401-3.14-34.789,6.776-48.687c9.916-13.896,34.934-12.438,27.604-39.965
	c-5.672-21.313-11.115-37.771-0.188-58.035c17.518-32.688,84.932-88.03,67.651-102.438c-13.769-11.479-39.188,16.736-53.791,13.276
	c-14.602-3.457-28.418-41.942-36.868-56.545c-8.452-14.604-27.684-42.505-23.852-47.729c3.834-5.222,22.438,18.921,26.899,33.438
	c4.468,14.521,25.758,57.692,35.813,57.813c16.729,0.196,83.314-33.734,83.234-60.271c-0.043-14.172-10.156-20.602-24.313-22.022
	c-13.758-1.337-22.854,4.813-29.271,0.381c-5.619-3.88-7.604-9.121-11.463-15.769c-3.993-6.878,1.142-15.946,8.293-8.979
	c7.159,6.979,13.528,13.797,29.926,16.688c18.275,3.222,26.427,11.237,41.562,13.016c15.134,1.774,27.6,4.393,39.479,18.427
	c14.459,17.075,31.756,95.537,46.969,97.578c16.548,2.22,24.55-55.694,32.736-68.296c6.271-9.646,11.717-19.104,22.397-24.989
	c10.702-5.89,23.444,2.396,32.991,12.592c9.079,9.701,16.634,19.296,19.902,24.035c3.271,4.743,8.09,16.124,8.09,27.119
	c0,7.567-3.313,17.688,1.438,26.399c4.752,8.717,38.828,46.322,44.854,42.556c5.075-3.177-15.253-26.878-22.878-41.94
	c-7.631-15.075-11.691-35.388-4.24-35.279c8.408,0.12,14.943,23.896,24.59,27.618c11.479,4.427,35.877-23.121,18.313-45.178
	c-4.695-5.894-20.531-11.521-20.894-22.568c-0.247-7.583,12.046-22.896,15.806-14.646c6.812,14.947,9.758,0.668,15.716-1.316
	c5.767-1.923,11.161-2.75,15.909-6.173c18.156-13.084,38.572-39.909,33.231-53.442c-3.021-7.658-14.254-13.365-20.313-21.778
	c-6.548-9.086,0.873-13.641-3.173-20.313c-4.043-6.675-24.894,0.584-22.24-10.639c3.466-14.664,18.288-11.738,27.125-5.398
	c8.839,6.34,14.546,12.556,17.034,17.249c2.489,4.69,6.196,24.338,17.428,19.037c21.438-10.12-10.967-28.445-12.864-34.97
	c-1.736-5.974,4.756-19.784,10.455-22.053c5.696-2.269,8.684,3.104,13.313-0.359c3.308-2.473,6.994-12.535,7.026-16.839
	c0.119-15.688-1.758-25.371-8.096-39.207c-4.108-8.979-16.729-16.438-25.771-13.909c-9.705,2.714-18.834,2.668-20.898-5.175
	c-2.311-8.747,7.177-23.529,29.613-23.962c15.396-0.295,35.832,4.094,37.412,1.229c1.922-3.479-5.996-14.807,3.203-15.194
	c4.76-0.197,17.004,11.984,17.004,20.172c0,8.654-2.574,11.821,7.043,23.022c4.131,4.812,14.871,28.532,27.533,25.783
	c12.52-2.735,10.215-53.576,19.482-66.443c9.271-12.866,45.654-17.114,52.743-20.212c32.564-14.229-4.14-25.313-31.8-28.405
	c-11.821-1.319-38.998-0.583-70.284-6.749c-34.02-6.703-115.726-21.34-180.517-28.098c-44.858-4.63-99.838-19.115-137.968-18.241
	s-56.993,7.468-86.623,17.56C1181.925,141.346,1139.158,158.446,1114.583,163.687z"/>
</svg>
