<?xml version="1.0" encoding="utf-8"?>
<!-- Generator: Adobe Illustrator 16.0.0, SVG Export Plug-In . SVG Version: 6.00 Build 0)  -->
<!DOCTYPE svg PUBLIC "-//W3C//DTD SVG 1.1//EN" "http://www.w3.org/Graphics/SVG/1.1/DTD/svg11.dtd">
<svg version="1.1" id="레이어_1" xmlns="http://www.w3.org/2000/svg" xmlns:xlink="http://www.w3.org/1999/xlink" x="0px"
	 y="0px" width="1920px" height="1080px" viewBox="0 0 1920 1080" enable-background="new 0 0 1920 1080" xml:space="preserve">
<path fill="#EEB3CF" stroke="#FFFFFF" stroke-miterlimit="10" d="M675.625,634.856c-11.252-15.751-92.745-64.896-114.719-72.54
	c-21.977-7.644-19.447-27.393-33.54-33.481c-14.095-6.092-37.729-11.162-54.704-9.48c-16.979,1.68-29.373,25.88-31.232,22.207
	c-5.316-10.625-12.935,0.442-20.324-2.047c-5.071-1.708-17.591-18.396-15.086-27.614c5-18.409-16.54-9.479-22.747-17.665
	c-6.208-8.185,15.357-23.411,9.389-32.518c-5.968-9.105-12.836,7.387-23.582,14.354c-3.163,2.051-18.881,9.993-26.007,2.675
	c-7.126-7.316-10.157-35.338-1.514-47.841c8.643-12.504,70.101-31.255,77.592-25.104c11.088,9.104,0.903,35.396,13.875,31.126
	c12.97-4.271-3.082-29.029,9.878-44.782c5.472-6.649,14.569-11.235,22-15.475c5.949-3.396,28.415-29.75,44.382-40.376
	c15.966-10.626,108.622-30.456,115.748-42.194c9.691-15.965-35.354-84.958-59.87-86.668c-15.525-1.083-12.151,26.438-30.79,35.353
	c-13.114,6.271-28.079,32.049-34.211,32.501c-6.132,0.451-31.92-33.035-31.36-46.756c1.142-27.938,41.055-35.922,50.747-32.5
	c9.693,3.422,13.114-15.965,21.099-17.105c7.981-1.141,48.305,29.925,58.729,27.369c10.424-2.557-15.965-66.143-28.509-64.432
	c-6.338,0.864-27.939,22.237-35.922,17.677c-4.901-2.801,8.553-21.098-2.853-21.098c-10.828,0-20.525,23.378-38.771,27.939
	s-66.836,4.434-75.853,2.812c-18.799-3.382-36.554-12.055-44.497-11.425s-79.683-0.845-125.402,0.63
	c-35.353,1.142-117.828,2.399-124.871,18.246c-6.842,15.396-16.535,48.466-6.272,51.887c5.328,1.776,53.598-3.99,75.265,1.71
	c21.667,5.702,47.896,34.781,49.606,58.159c1.124,15.357-9.36,32.742-11.404,51.887c-2.043,19.146,24.208,118.056,36.336,112.91
	c12.129-5.146-14.099-52.472-5.546-54.182s26.282,66.668,37.632,78.687c9.693,10.264,26.573,15.581,43.506,18.339
	c16.933,2.759,35.593,14.002,42.229,21.495c6.636,7.493,11.834,24.271,21.766,30.271c15.346,9.271,14.755-7.42,23.086-5.343
	c12.082,3.011,8.071,31.834,4.138,39.396C428.65,590.297,409.5,602,408.93,617.965s20.825,40.158,28.994,51.98
	c6.17,8.93,8.403,23.155,17.202,29.527c16.532,11.973,31.137,15.727,31.351,35.947c0.569,54.168,8.574,132.276,14.824,152.24
	c6.25,19.965,38.773,69.563,49.036,66.143c10.263-3.422-15.395-45.614,10.833-101.493c11.041-23.521,51.186-82.468,68.071-101.39
	C646.125,732,686.877,650.607,675.625,634.856z"/>
</svg>
