<?xml version="1.0" encoding="utf-8"?>
<!-- Generator: Adobe Illustrator 16.0.0, SVG Export Plug-In . SVG Version: 6.00 Build 0)  -->
<!DOCTYPE svg PUBLIC "-//W3C//DTD SVG 1.1//EN" "http://www.w3.org/Graphics/SVG/1.1/DTD/svg11.dtd">
<svg version="1.1" id="레이어_1" xmlns="http://www.w3.org/2000/svg" xmlns:xlink="http://www.w3.org/1999/xlink" x="0px"
	 y="0px" width="1920px" height="1080px" viewBox="0 0 1920 1080" enable-background="new 0 0 1920 1080" xml:space="preserve">
<path fill="none" stroke="#E9E9E9" stroke-width="2" stroke-miterlimit="10" d="M855,137c13.724-16.076,80.672-24.958,76-60
	c-2.281-17.105-72.188-8.372-96-10S684.043,82.82,669,87c-15.044,4.179-80.928,19.509-59.938,45.165
	c10.265,12.544,40.431,2.629,46.756,3.421c18.271,2.287-1.144,53.598,1.897,83.247c0.86,8.395,5.896,20.685,15.967,20.905
	c13.432,0.298,20.146-4.939,30.028-20.146c4.646-7.146,9.954-23.966,17.053-28.178c8.339-4.947,22.568,0.147,30.846-5.273
	C767.66,175.626,841.696,152.585,855,137z"/>
</svg>
