<?xml version="1.0" encoding="utf-8"?>
<!-- Generator: Adobe Illustrator 16.0.0, SVG Export Plug-In . SVG Version: 6.00 Build 0)  -->
<!DOCTYPE svg PUBLIC "-//W3C//DTD SVG 1.1//EN" "http://www.w3.org/Graphics/SVG/1.1/DTD/svg11.dtd">
<svg version="1.1" id="레이어_1" xmlns="http://www.w3.org/2000/svg" xmlns:xlink="http://www.w3.org/1999/xlink" x="0px"
	 y="0px" width="1920px" height="1080px" viewBox="0 0 1920 1080" enable-background="new 0 0 1920 1080" xml:space="preserve">
<path fill="#F5D1E2" stroke="#F2F2F2" stroke-width="2" stroke-miterlimit="10" d="M622.32,128.433
	c7.288,8.446,31.117,3.525,37.158,4.281c17.444,2.184-2.431,52.95,2.484,77.463c1.575,7.854,7.121,18.271,16.739,18.484
	c12.823,0.281,15.951-5.081,24.739-16.885c4.847-6.509,10.751-19.06,17.525-23.082c7.962-4.724,20.673-0.792,28.573-5.969
	c15.325-10.042,76.935-32.154,88.628-46.041c11.904-14.132,58.286-26.779,55.025-47.025c-1.823-11.319-46.185-5.269-68.919-6.822
	c-22.736-1.557-141.811,9.451-156.171,13.439C653.745,100.268,606.938,110.607,622.32,128.433z"/>
</svg>
