<?xml version="1.0" encoding="utf-8"?>
<!-- Generator: Adobe Illustrator 16.0.0, SVG Export Plug-In . SVG Version: 6.00 Build 0)  -->
<!DOCTYPE svg PUBLIC "-//W3C//DTD SVG 1.1//EN" "http://www.w3.org/Graphics/SVG/1.1/DTD/svg11.dtd">
<svg version="1.1" id="레이어_1" xmlns="http://www.w3.org/2000/svg" xmlns:xlink="http://www.w3.org/1999/xlink" x="0px"
	 y="0px" width="1920px" height="1080px" viewBox="0 0 1920 1080" enable-background="new 0 0 1920 1080" xml:space="preserve">
<path fill="#F1C2D9" stroke="#FBFBFB" stroke-width="1.25" stroke-miterlimit="10" d="M1114.583,163.687
	c-47.22,10.066-71.2-10.37-103.367-16.4c-33.313-6.247-55.832,14.873-69.592,28.55c-6.62,6.58-33.704,24.982-35.522,38.178
	c-1.56,11.3,7.49,13.304,13.85,16.399c6.354,3.095,16.729,21.612-2.973,24.251c-14.111,1.891-10.176,12.641-20.063,19.858
	s-45.124,9.614-30.152,21.749c12.646,10.246,2.183,25.261-12.395,21.925c-9.171-2.141-20.351-5.728-26.14,1.095
	c-3.778,4.452-7.396,23.361-4.479,31.959c4.143,12.202,13.962,14.713,26.191,7.776c12.91-7.324,60.207-48.229,69.405-48.28
	c8.847-0.036,49.326,41.083,53.707,38.019c6.689-4.685-18.362-46.786-13.354-50.396c14.896-10.807,36.648,66.896,41.502,67.246
	c5.467,0.395,0.718-26.326,2.215-34.665c1.396-7.644,3.169-52.934,54.953-34.838c69.688,24.325-20.033,30.023-37.777,40.468
	c-3.604,2.104-4.592,18.188,2.566,23.663c7.158,5.477,52.83-6.18,49.155,12.607c-0.891,4.537-8.438,22.542-15.002,24.021
	c-6.564,1.479-56.282,6.587-73.491,13.128c-17.209,6.54-50.401-43.31-66.19-46.613c-14.521-3.04-37.813,8.188-54.184,14.525
	c-17.188,6.68-31.45,12.588-42.2,19.338s-36.382,23.552-44,51.25c-3.206,11.655,5.41,31.799,5.121,41.071
	c-0.209,6.704-3.807,24.002-3.809,29.708c-0.002,25.418,19.593,65.598,57.861,56.396c9.06-2.179,35.119-9.03,43.952-9.487
	c26.254-1.358,44.657,23.806,44.157,39.521c-0.479,15.021,18.366,32.765,23.409,43.142c5.979,12.349,6.216,17.937,3.141,31.893
	c-4.818,21.804-11.459,29.729-1.014,52.128c5.679,12.174,12.344,97.177,26.966,104.871c16.302,8.564,50.479-8.455,73.503-34.371
	c5.771-6.497,25.441-21.865,29.714-37.271c4.271-15.401-3.14-34.789,6.776-48.685s34.934-12.438,27.604-39.965
	c-5.672-21.313-11.115-37.771-0.188-58.035c17.518-32.688,84.932-88.032,67.653-102.44c-13.769-11.479-39.188,16.736-53.791,13.276
	c-14.602-3.457-28.418-41.942-36.868-56.543c-8.453-14.604-27.684-42.505-23.852-47.729c3.834-5.222,22.438,18.921,26.899,33.439
	c4.468,14.519,25.758,57.692,35.813,57.813c16.729,0.196,83.314-33.734,83.234-60.271c-0.043-14.171-10.156-20.601-24.313-22.023
	c-13.758-1.337-22.854,4.813-29.271,0.381c-5.619-3.88-7.604-9.121-11.463-15.769c-3.993-6.878,1.142-15.946,8.294-8.979
	c7.16,6.977,13.529,13.797,29.925,16.688c18.277,3.222,26.427,11.239,41.562,13.016c15.133,1.774,27.598,4.393,39.479,18.427
	c14.459,17.075,31.756,95.537,46.969,97.578c16.548,2.22,24.55-55.694,32.736-68.296c6.271-9.646,11.717-19.104,22.399-24.989
	c10.702-5.89,23.444,2.396,32.991,12.592c9.079,9.701,16.634,19.294,19.903,24.035c3.271,4.743,8.089,16.124,8.089,27.119
	c0,7.567-3.313,17.688,1.438,26.399c4.752,8.717,38.828,46.323,44.854,42.556c5.076-3.177-15.253-26.878-22.878-41.941
	c-7.63-15.076-11.691-35.387-4.24-35.28c8.408,0.12,14.944,23.897,24.59,27.618c11.479,4.427,35.877-23.121,18.313-45.176
	c-4.696-5.894-20.532-11.521-20.893-22.57c-0.247-7.583,12.046-22.896,15.805-14.646c6.811,14.947,9.758,0.668,15.716-1.318
	c5.766-1.922,11.162-2.75,15.91-6.172c18.156-13.084,38.572-39.91,33.231-53.443c-3.021-7.658-14.254-13.365-20.313-21.778
	c-6.548-9.086,0.873-13.641-3.173-20.313c-4.043-6.674-24.894,0.584-22.241-10.637c3.465-14.665,18.289-11.74,27.125-5.4
	c8.838,6.34,14.545,12.556,17.035,17.249c2.489,4.692,6.196,24.338,17.426,19.037c21.438-10.12-10.966-28.445-12.864-34.968
	c-1.736-5.974,4.756-19.786,10.455-22.053c5.697-2.269,8.684,3.104,13.314-0.36c3.307-2.472,6.994-12.536,7.026-16.838
	c0.119-15.688-1.758-25.373-8.096-39.209c-4.108-8.979-16.728-16.438-25.771-13.909c-9.705,2.714-18.834,2.668-20.899-5.175
	c-2.31-8.747,7.176-23.529,29.614-23.961c15.396-0.295,35.832,4.093,37.412,1.229c1.922-3.479-5.996-14.807,3.203-15.194
	c4.76-0.199,17.004,11.984,17.004,20.171c0,8.655-2.574,11.822,7.043,23.023c4.131,4.811,14.871,28.532,27.533,25.783
	c12.52-2.735,10.215-53.576,19.483-66.443c9.271-12.866,45.655-17.115,52.744-20.212c32.564-14.231-4.14-25.313-31.8-28.405
	c-11.821-1.321-38.998-0.583-70.284-6.749c-34.02-6.704-115.726-21.34-180.517-28.098c-44.858-4.63-99.838-19.115-137.968-18.241
	c-38.129,0.874-56.993,7.467-86.623,17.558C1181.925,141.346,1139.158,158.446,1114.583,163.687z"/>
</svg>
