<?xml version="1.0" encoding="utf-8"?>
<!-- Generator: Adobe Illustrator 16.0.0, SVG Export Plug-In . SVG Version: 6.00 Build 0)  -->
<!DOCTYPE svg PUBLIC "-//W3C//DTD SVG 1.1//EN" "http://www.w3.org/Graphics/SVG/1.1/DTD/svg11.dtd">
<svg version="1.1" id="레이어_1" xmlns="http://www.w3.org/2000/svg" xmlns:xlink="http://www.w3.org/1999/xlink" x="0px"
	 y="0px" width="1920px" height="1080px" viewBox="0 0 1920 1080" enable-background="new 0 0 1920 1080" xml:space="preserve">
<path fill="#F1C2D9" stroke="#F8F8F8" stroke-width="2" stroke-miterlimit="10" d="M113.055,170.008
	c-13.684,16.931-22.868,60.92-14.829,67.414c10.657,8.606,68.471-4.12,88.289,0.006c22.844,4.756,48.64,27.018,50.362,50.521
	c1.132,15.438-12.105,35.7-14.162,54.947c-2.058,19.245,32.523,121.976,44.737,116.803c12.214-5.173-11.251-47.851-2.639-49.567
	c8.612-1.72,18.79,63.753,30.219,75.835c9.762,10.317,28.598,9.176,45.649,11.947c17.052,2.772,35.443,13.342,42.125,20.873
	c6.683,7.532,9.745,26.366,19.746,32.396c15.454,9.32,16.482-6.176,24.871-4.088c12.167,3.024,5.066,25.442,1.104,33.048
	c-4.422,8.481-29.657,16.953-31.583,38.08c-1.453,15.956,29.35,39.671,37.581,51.559c6.213,8.979,7.177,29.142,16.033,35.546
	c16.648,12.036,28.831,18.66,29.049,38.991c0.571,54.458,10.321,136.606,16.615,156.682c6.294,20.072,51.702,71.164,64.277,63.104
	c9.675-6.201-21.722-54.167,4.688-110.348c11.118-23.646,52.983-82.293,69.988-101.313s64.118-94.575,52.289-121.052
	c-8.445-18.901-96.411-63.721-118.54-71.403c-22.128-7.686-25.393-23.362-38.72-31.771c-12.666-7.992-34.764-14.521-56.803-12.623
	c-17.115,1.477-29.543,25.293-31.407,21.599c-5.38-10.668-13.124,3.438-20.565,0.938c-5.104-1.718-17.76-17.468-14.166-26.226
	c8.563-20.863-14.421-10.724-20.672-18.949c-6.251-8.229,12.861-24.735,6.852-33.893c-6.009-9.154-13.328,7.371-24.148,14.375
	c-3.185,2.063-16.13,10.692-23.306,3.338c-7.176-7.354-9.268-32.056-0.565-44.624c8.703-12.569,65.286-31.285,72.829-25.103
	c11.166,9.151-2.483,33.2,14.776,31.138c22.396-2.678,0.841-27.491,13.892-43.327c5.51-6.688,17.002-12.478,24.483-16.736
	c5.99-3.414,30.307-29.961,47.304-38.651c21.672-11.082,103.347-20.993,117.313-36.646c15.183-17.014-45.584-96.978-73.284-97.009
	c-15.593-0.018-10.404,26.295-29.178,35.258c-13.203,6.306-28.033,28.861-34.211,29.316c-6.175,0.454-28.646-28.305-28.081-42.1
	c1.148-28.089,40.082-30.571,49.847-27.131c9.761,3.438,12.346-17.955,20.384-19.103c8.038-1.146,53.506,30.225,64.003,27.654
	c10.498-2.57-20.727-73.801-33.356-72.082c-6.382,0.869-27.266,25.065-35.304,20.479c-4.936-2.813,10.232-21.184-4.607-22.095
	c-10.852-0.666-20.591,24.542-38.965,29.127c-18.373,4.586-66.563,4.322-75.646,2.692c-18.93-3.401-36.81-12.12-44.808-11.486
	c-7.999,0.633-82.352-5.784-128.391-4.302C208.825,153.191,128.906,150.396,113.055,170.008z"/>
</svg>
