<?xml version="1.0" encoding="utf-8"?>
<!-- Generator: Adobe Illustrator 16.0.0, SVG Export Plug-In . SVG Version: 6.00 Build 0)  -->
<!DOCTYPE svg PUBLIC "-//W3C//DTD SVG 1.1//EN" "http://www.w3.org/Graphics/SVG/1.1/DTD/svg11.dtd">
<svg version="1.1" id="레이어_1" xmlns="http://www.w3.org/2000/svg" xmlns:xlink="http://www.w3.org/1999/xlink" x="0px"
	 y="0px" width="1920px" height="1080px" viewBox="0 0 1920 1080" enable-background="new 0 0 1920 1080" xml:space="preserve">
<path fill="#EEB3CF" stroke="#FFFFFF" stroke-width="2" stroke-miterlimit="10" d="M1682.943,170.863
	c-11.561-2.466-23.334,1.204-54.064-6.201c-30.729-7.407-125.469-27.12-189.188-31.465c-44.591-3.037-96.048-9.98-133.769-9.116
	c-37.722,0.862-49.459,5.091-77.497,12.741c-37.111,10.132-86.938,25.685-111.343,30.391c-46.926,9.049-65.604-0.195-97.128-8.498
	c-31.524-8.302-61.692,1.928-75.306,15.459c-6.551,6.51-31.188,28.129-33.43,38.104c-2.236,9.979,3.813,14.496,10.102,17.56
	c6.288,3.062,16.796,24.148-2.693,26.761c-13.962,1.871-10.886,11.354-20.668,18.495c-9.781,7.141-46.453,9.79-28.292,21.016
	c15.337,9.48,5.714,28.148-11.584,24.292c-9.946-2.219-18.933-3.042-23.441,3.652c-2.393,3.547-6.66,22.193-5.308,27.277
	c2.667,10,15.524,9.389,19.333,6.667c4.667-3.333,61.172-52.504,68.977-52.384c7.803,0.121,51.644,43.887,54.634,41.794
	c5.7-3.991-22.449-51.517-17.002-55.478c18.813-13.684,41.792,70.183,45.504,70.243c3.713,0.062,0.007-23.033,1.146-31.302
	c1.019-7.363,1.24-57.758,59.396-37.23c76.68,27.063-21.48,33.241-39.729,44.075c-2.811,1.668-5.947,13.743,1.428,19.386
	c7.377,5.645,58.267-2.962,51.002,15.864c-1.221,3.167-9.53,23.279-16.298,24.808c-6.768,1.522-55.644,10.572-73.376,17.313
	c-17.733,6.738-51.446-45.102-66.684-48.087c-17-3.335-37.333,7-53.333,13.666c-17.09,7.12-27.667,12-37,18.668
	C818,406,789.912,423.595,782.666,451.666c-2.667,10.334,4.161,25.577,4.161,34.763c0,3.993-4.501,22.058-4.219,27.705
	c0.932,18.684,32.103,56.314,59.628,54.438c6.98-0.479,31.491-5.709,40.229-6.188c26.139-1.437,47.75,25.688,46.366,38.987
	c-1.604,15.454,16.632,37.479,20.822,48.146c5.004,12.742,5.595,16.258,3.174,30.229c-3.764,21.724-12.889,28.056-1.855,50.881
	c4.06,8.396,22.452,90.438,34.745,94.694c13.734,4.756,44.529-3.729,64.672-32.496c5.32-7.604,20.061-23.118,24.283-38.357
	c4.229-15.237,1.33-24.236,11.144-37.983c9.811-13.745,27.952-14.312,20.704-41.546c-5.611-21.088-11.257-34.396-0.918-54.715
	c17.271-33.953,79.077-89.047,61.541-96.588c-17.539-7.54-24.766,11.087-39.207,7.665c-14.443-3.422-28.512-41.056-36.871-55.498
	c-8.362-14.444-31.152-50.105-27.36-55.272c3.792-5.166,24.985,19.323,29.403,33.688c4.42,14.361,26.994,60.774,37.105,61.499
	c15.967,1.141,82.107-36.492,81.33-60.979c-0.441-14.024-10.246-18.471-23.932-19.229c-13.688-0.761-22.429,5.32-28.891,0.76
	c-6.464-4.563-8.396-10.244-12.75-18.235c-4.354-7.992,1.387-18.86,9.156-10.956c7.773,7.905,14.627,16.315,32.678,19.714
	c18.053,3.396,24.982,10.148,39.952,11.905c14.974,1.756,26.324,1.255,40.983,14.43c14.658,13.176,38.056,91.313,46.659,94.754
	c10.005,4,24.141-52.393,31.991-62.805c7.852-10.412,10.002-17.807,21.277-25.132c11.279-7.327,25.196,3.179,33.822,13.131
	c8.627,9.951,17.174,20.085,20.411,24.775s8.742,18.394,8.742,29.271c0,7.489-1.419,15.444,3.279,24.067
	c4.7,8.622,34.679,44.484,39.673,43.215c4.998-1.271-14.104-26.18-22.048-42.573c-7.938-16.396-10.645-34.211-2.661-34.211
	c7.982,0,15.248,22.335,24.709,26.229c9.575,3.939,31.52-23.146,14.957-43.649c-4.503-5.573-18.757-11.655-19.109-22.588
	c-0.244-7.501,14.293-25.501,17.648-15.867c5.094,15.858,9.118,1.968,15.017,0c5.702-1.899,9.404-2.35,13.99-5.898
	c18.638-14.441,35.918-41.461,30.677-52.823c-3.424-7.419-11.588-14.775-17.584-23.099c-6.479-8.989,2.006-12.5-1.996-19.104
	c-4.001-6.603-26.755,1.977-24.43-10.235c3.334-17.514,21.391-13.521,30.133-7.249c8.741,6.271,15.021,11.893,17.484,16.535
	c2.464,4.645,4.189,21.938,15.729,17.495c20.104-7.742-12.936-25.688-13.444-32.131c-0.516-6.442,5.827-20.224,11.468-22.466
	c5.64-2.242,8.854,3.003,12.959-1.289c2.778-2.906,4.366-13.575,4.398-17.832c0.119-15.521-2.24-20.917-8.512-34.604
	c-4.064-8.881-13.449-17.268-22.979-14.277c-9.528,2.99-18.394,1.119-20.74-6.567c-2.354-7.688,2.104-26.054,28.654-26.34
	c15.231-0.164,39.825,4.774,39.902,0.737c0.076-4.037-10.094-16.266,0.66-16.077c4.756,0.083,21.244,12.855,21.244,20.955
	c0,8.563-6.444,10.254,4.783,19.959c3.441,2.979,18.688,28.159,27.969,25.254s5.002-50.433,14.174-63.161
	c9.172-12.728,28.107-11.126,34.832-14.98C1729.936,178.795,1694.504,173.329,1682.943,170.863z"/>
</svg>
