<?xml version="1.0" encoding="utf-8"?>
<!-- Generator: Adobe Illustrator 16.0.0, SVG Export Plug-In . SVG Version: 6.00 Build 0)  -->
<!DOCTYPE svg PUBLIC "-//W3C//DTD SVG 1.1//EN" "http://www.w3.org/Graphics/SVG/1.1/DTD/svg11.dtd">
<svg version="1.1" id="레이어_1" xmlns="http://www.w3.org/2000/svg" xmlns:xlink="http://www.w3.org/1999/xlink" x="0px"
	 y="0px" width="1920px" height="1080px" viewBox="0 0 1920 1080" enable-background="new 0 0 1920 1080" xml:space="preserve">
<path fill="#EEB3CF" stroke="#FFFFFF" stroke-miterlimit="10" d="M821.354,136.372c10.084-12.189,35.588-28.552,34.051-34.055
	c-1.539-5.504-20.176-2.162-41.837-3.643c-21.661-1.481-132.658,3.081-146.343,6.882s-41.545,9.258-31.646,19.145
	c4.253,4.398,21.809,4.42,27.563,5.141c16.621,2.081-3.347,52.229,3.074,71.679c2.406,7.289,8.35,15.86,17.514,16.063
	c12.217,0.269,11.914-5.103,19.448-13.62c5.138-5.808,11.548-14.154,18.005-17.985c7.584-4.5,18.777-1.731,26.305-6.665
	C762.084,169.744,811.268,148.56,821.354,136.372z"/>
</svg>
