<?xml version="1.0" encoding="utf-8"?>
<!-- Generator: Adobe Illustrator 16.0.0, SVG Export Plug-In . SVG Version: 6.00 Build 0)  -->
<!DOCTYPE svg PUBLIC "-//W3C//DTD SVG 1.1//EN" "http://www.w3.org/Graphics/SVG/1.1/DTD/svg11.dtd">
<svg version="1.1" id="레이어_1" xmlns="http://www.w3.org/2000/svg" xmlns:xlink="http://www.w3.org/1999/xlink" x="0px"
	 y="0px" width="1920px" height="1080px" viewBox="0 0 1920 1080" enable-background="new 0 0 1920 1080" xml:space="preserve">
<path fill="none" stroke="#E4E4E4" stroke-width="2" stroke-miterlimit="10" d="M1727,145c-12.33,0-86.1-5.401-118.939-8.389
	c-44-4-86.488-3.999-154.488-17.999C1407.896,109.212,1342.354,72.099,1303,73c-39.354,0.9-79.819,13.958-114,32
	c-35.497,18.735-56.826,41.271-81.915,48.111C1058.983,166.231,1019.009,112.667,985,113c-38.771,0.38-38.248,53.705-52.45,67.819
	c-6.833,6.792-41.813,15.474-41.813,38.395c0,15.205,18.524,9.729,25.089,12.924c6.561,3.195,16.533,14.002-3.803,16.726
	c-14.565,1.951-8.041,16.498-18.244,23.948c-10.206,7.45-41.138,9.089-35.732,23.948c4.563,12.544-8.428,16.604-14.825,14.825
	C836.38,309.684,818.123,297.397,809,305c-8.271,6.892-10,27-2,46s9.197,30.552,46.765,11.107
	c37.568-19.441,57.317-35.396,70.719-35.97c11.97-0.509,42.375,32.675,50.93,26.688c9.652-6.759-6.115-32.595-2.409-35.16
	c3.146-2.178,21.229,57.112,29.493,58.255c10.722,1.479,2.851-36.207,5.417-44.762c2.541-8.471,8.954-38.459,41.623-27.652
	c48.709,16.11-15.691,20.368-31.934,29.648c-5.983,3.421-0.517,31.519,5.985,36.492s41.151-14.767,43.619,2.851
	c1.237,8.83-5.154,20.323-11.118,21.667c-5.964,1.346-58.207-5.369-73.84,0.57c-15.632,5.938-47.325-37.633-64.716-42.194
	c-7.159-1.877-39.271,11.755-56.734,17.105C843.332,374.997,818,384,803,391s-33.547,21.341-42,48c-4.942,15.585,8.735,50.446,8,60
	c-1.14,14.823-2.025,29.842-2.563,35.718C762.253,580.33,748.743,629.204,819,597c15.336-7.03,45.996-18.996,55.118-19.389
	c26.607-1.144,34.333,18.117,37.525,41.109c1.898,13.688,23.564,18.626,31.171,28.128c8.923,11.151,8.073,22.966,3.041,36.872
	c-7.981,22.051-7.604,34.975,1.521,55.878C957.68,763.218,929.386,856.988,951,875c24,20,67.23-23.615,100-40
	c6.843-3.423,41.592-18.104,46-34c4.408-15.898-16.553-66.439-6.317-80.781c10.234-14.344,55.882-6.808,48.317-35.219
	c-5.854-22-10.701-47.892,2-68c18.246-28.892,98-80,86-120c-5.724-19.077-82.476,33.685-97.545,30.113
	c-15.069-3.568-28.147-44.608-36.871-59.683c-8.725-15.067-17.261-19.695-13.305-25.088c3.956-5.392,14.771,17.707,19.386,32.689
	c4.608,14.983,22.048,48.272,31.931,46.755c19.019-2.924,86.668-25.468,88.949-58.157c1.021-14.604-9.884-26.989-25.468-30.41
	c-13.968-3.063-24.077,3.197-30.411-0.76c-3.041-1.898-5.321-5.702-7.604-8.363c-2.984-3.485,0.413-7.193,5.702-3.041
	c5.322,4.184,10.269,6.083,21.667,7.604c18.994,2.532,30.761,14.516,46.376,16.347c15.617,1.832,29.455,15.521,34.975,30.408
	c11.399,30.79,12.801,108.644,47.896,106.057c36.111-2.659,27.181-64.716,34.974-84.77c2.576-6.634,16.859-23.013,25.755-24.563
	c8.979-1.565,18.104,0.146,30.506,10.979c10.349,9.04,15.012,16.915,18.389,21.812c3.377,4.896,6.13,9.32,6.13,20.67
	c0,7.813-8.995,24.409-4.09,33.405c4.904,8.995,51.843,52.69,60.396,40.574c5.756-8.15-18.695-28.979-25.373-40.058
	c-6.697-11.116-14.843-38.834-8.979-38.486c9.693,0.568,14.101,28.438,24.232,31.788c17.249,5.702,48.952-23.039,28.364-49.749
	c-5.271-6.843-25.855-11.119-26.229-22.521c-0.255-7.826,5.702-15.253,10.264-10.979c12.684,11.889,11.668-3.226,17.818-5.272
	c5.949-1.98,16.391-4.024,21.667-6.982c16.535-9.269,46.042-35.064,40.911-55.311c-2.099-8.265-22.254-9.137-28.512-17.815
	c-6.761-9.379-2.522-17.063-6.697-23.948c-4.174-6.888-19.813-3.707-15.685-11.832c3.191-6.274,8.982-6.399,18.104,0.145
	s13.108,14.542,15.681,19.389c2.57,4.845,12.036,31.17,22.521,23.66c25.089-17.961-4.418-36.92-11.118-43.477
	c-4.819-4.719,1.529-18.475,7.412-20.813c5.883-2.342,8.323,3.639,14.396,2.423c4.989-0.998,14.865-9.417,14.899-13.855
	c0.124-16.192-0.303-38.744-6.842-53.023c-4.244-9.267-26.591-14.086-34.146-12.803c-10.271,1.745-20.004,7.275-21.382-0.998
	c-1.996-11.974,22.38-16.25,32.501-16.82c15.868-0.895,25.729,2.896,29.938,2.708c9.552-0.429,6.271-11.167,10.832-12.544
	c4.75-1.436,4.274,9.368,4.274,17.817c0,8.935,7.099,18.271,13.827,32.215c5.322,11.023,3.422,29.649,26.229,27.369
	c22.229-2.223,25.852-63.007,35.42-76.287c9.565-13.278,98.496-34.644,106.481-35.902C1844.354,179.918,1803.4,145.002,1727,145z"/>
</svg>
