<?xml version="1.0" encoding="utf-8"?>
<!-- Generator: Adobe Illustrator 16.0.0, SVG Export Plug-In . SVG Version: 6.00 Build 0)  -->
<!DOCTYPE svg PUBLIC "-//W3C//DTD SVG 1.1//EN" "http://www.w3.org/Graphics/SVG/1.1/DTD/svg11.dtd">
<svg version="1.1" id="레이어_1" xmlns="http://www.w3.org/2000/svg" xmlns:xlink="http://www.w3.org/1999/xlink" x="0px"
	 y="0px" width="1920px" height="1080px" viewBox="0 0 1920 1080" enable-background="new 0 0 1920 1080" xml:space="preserve">
<path fill="#EEB3CF" stroke="#FFFFFF" stroke-miterlimit="10" d="M1682.943,170.863c-11.56-2.466-23.334,1.204-54.064-6.202
	c-30.729-7.407-125.469-27.12-189.189-31.464c-44.59-3.038-96.047-9.981-133.768-9.117c-37.722,0.863-49.459,5.091-77.497,12.742
	c-37.112,10.131-86.938,25.684-111.343,30.39c-46.926,9.049-65.604-0.195-97.128-8.498c-31.525-8.302-61.693,1.928-75.306,15.459
	c-6.551,6.51-31.188,28.129-33.43,38.105c-2.236,9.978,3.813,14.496,10.102,17.559c6.288,3.062,16.796,24.149-2.693,26.761
	c-13.962,1.871-10.886,11.354-20.668,18.495s-46.453,9.79-28.292,21.016c15.337,9.48,5.714,28.148-11.584,24.292
	c-9.947-2.219-18.933-3.042-23.442,3.652c-2.392,3.547-6.66,22.194-5.307,27.278c2.667,10,15.524,9.388,19.333,6.667
	c4.667-3.333,61.172-52.504,68.976-52.384c7.803,0.121,51.644,43.887,54.634,41.794c5.7-3.991-22.449-51.517-17.002-55.478
	c18.813-13.684,41.792,70.183,45.504,70.243c3.713,0.062,0.007-23.033,1.146-31.301c1.019-7.364,1.241-57.758,59.397-37.231
	c76.68,27.063-21.48,33.241-39.729,44.075c-2.81,1.668-5.947,13.743,1.428,19.386c7.377,5.645,58.267-2.962,51.002,15.864
	c-1.221,3.167-9.53,23.28-16.298,24.808c-6.767,1.522-55.643,10.572-73.376,17.313c-17.733,6.739-51.446-45.101-66.683-48.087
	c-17-3.334-37.333,7-53.333,13.666c-17.09,7.121-27.667,12-37,18.668c-9.333,6.666-37.421,24.261-44.667,52.332
	c-2.667,10.334,4.161,25.578,4.161,34.763c0,3.993-4.501,22.058-4.219,27.705c0.932,18.684,32.103,56.315,59.628,54.438
	c6.981-0.479,31.491-5.709,40.229-6.188c26.138-1.436,47.75,25.689,46.366,38.988c-1.604,15.454,16.632,37.478,20.822,48.146
	c5.004,12.742,5.595,16.258,3.174,30.229c-3.764,21.723-12.889,28.055-1.856,50.88c4.06,8.396,22.453,90.438,34.746,94.695
	c13.734,4.756,44.529-3.729,64.671-32.496c5.321-7.604,20.061-23.119,24.284-38.358c4.228-15.237,1.33-24.236,11.143-37.983
	c9.811-13.745,27.952-14.312,20.704-41.546c-5.611-21.088-11.257-34.396-0.918-54.715c17.271-33.953,79.077-89.047,61.541-96.588
	c-17.539-7.54-24.765,11.087-39.207,7.665c-14.443-3.422-28.511-41.055-36.871-55.498c-8.362-14.444-31.152-50.105-27.36-55.272
	c3.792-5.166,24.985,19.323,29.403,33.688c4.42,14.362,26.994,60.775,37.106,61.499c15.966,1.141,82.107-36.492,81.33-60.979
	c-0.442-14.025-10.246-18.471-23.932-19.229c-13.688-0.76-22.429,5.321-28.891,0.76c-6.463-4.563-8.396-10.244-12.75-18.235
	c-4.354-7.992,1.387-18.861,9.157-10.956c7.773,7.905,14.627,16.315,32.678,19.714c18.052,3.396,24.982,10.148,39.952,11.905
	c14.973,1.756,26.324,1.255,40.983,14.43c14.658,13.175,38.056,91.313,46.659,94.753c10.005,4,24.141-52.392,31.991-62.804
	c7.852-10.412,10.002-17.807,21.278-25.132c11.279-7.327,25.196,3.179,33.822,13.131c8.627,9.951,17.174,20.085,20.411,24.775
	c3.237,4.691,8.742,18.394,8.742,29.271c0,7.489-1.419,15.444,3.28,24.067c4.7,8.622,34.678,44.484,39.673,43.215
	c4.998-1.271-14.104-26.18-22.048-42.573c-7.938-16.396-10.645-34.211-2.661-34.211c7.982,0,15.248,22.335,24.709,26.229
	c9.575,3.94,31.519-23.146,14.957-43.649c-4.503-5.574-18.757-11.656-19.11-22.588c-0.244-7.501,14.293-25.501,17.649-15.867
	c5.093,15.858,9.118,1.967,15.016,0c5.702-1.9,9.404-2.35,13.99-5.899c18.638-14.441,35.918-41.461,30.677-52.823
	c-3.424-7.419-11.588-14.775-17.584-23.099c-6.478-8.989,2.006-12.5-1.996-19.104c-4.001-6.603-26.755,1.976-24.43-10.236
	c3.334-17.513,21.391-13.521,30.133-7.249c8.741,6.271,15.021,11.893,17.485,16.536c2.463,4.644,4.189,21.938,15.728,17.495
	c20.104-7.742-12.935-25.688-13.444-32.131c-0.516-6.443,5.827-20.224,11.467-22.466s8.854,3.003,12.959-1.289
	c2.779-2.906,4.367-13.575,4.399-17.832c0.119-15.521-2.241-20.917-8.512-34.604c-4.065-8.881-13.449-17.267-22.978-14.277
	s-18.394,1.119-20.741-6.568c-2.354-7.688,2.105-26.053,28.655-26.339c15.231-0.164,39.825,4.774,39.902,0.737
	c0.076-4.037-10.094-16.266,0.66-16.077c4.756,0.083,21.244,12.855,21.244,20.955c0,8.563-6.444,10.254,4.783,19.959
	c3.442,2.979,18.688,28.159,27.969,25.254c9.281-2.906,5.002-50.433,14.174-63.161c9.172-12.728,28.107-11.126,34.832-14.981
	C1729.936,178.795,1694.504,173.329,1682.943,170.863z"/>
</svg>
