<?xml version="1.0" encoding="utf-8"?>
<!-- Generator: Adobe Illustrator 16.0.0, SVG Export Plug-In . SVG Version: 6.00 Build 0)  -->
<!DOCTYPE svg PUBLIC "-//W3C//DTD SVG 1.1//EN" "http://www.w3.org/Graphics/SVG/1.1/DTD/svg11.dtd">
<svg version="1.1" id="레이어_1" xmlns="http://www.w3.org/2000/svg" xmlns:xlink="http://www.w3.org/1999/xlink" x="0px"
	 y="0px" width="1920px" height="1080px" viewBox="0 0 1920 1080" enable-background="new 0 0 1920 1080" xml:space="preserve">
<path fill="#F5D1E2" stroke="#F2F2F2" stroke-width="2" stroke-miterlimit="10" d="M103.415,163.376
	c-20.181,18.669-30.214,75.336-23.385,82.939c15.194,16.919,83.399-4.426,101.313-1.696c24.075,3.667,49.383,19.254,51.118,42.882
	c1.14,15.521-14.849,38.657-16.921,58.009c-2.072,19.352,40.841,125.896,53.14,120.694c12.299-5.198-8.404-43.229,0.268-44.954
	c8.673-1.729,11.298,60.837,22.807,72.982c9.829,10.373,30.622,2.771,47.792,5.559c17.17,2.788,35.292,12.679,42.021,20.25
	s7.655,28.459,17.726,34.521c15.561,9.368,18.209-4.936,26.656-2.834c12.251,3.043,2.059,19.055-1.935,26.697
	c-4.451,8.525-35.563,13.769-39.055,40.055c-2.117,15.953,37.876,39.183,46.159,51.131c6.256,9.024,5.951,35.123,14.873,41.563
	c16.763,12.103,26.523,21.595,26.741,42.032c0.576,54.748,12.071,140.94,18.413,161.121c6.337,20.18,64.845,73.354,79.518,60.07
	c9.311-8.429-28.049-62.722-1.454-119.197c11.196-23.772,54.784-82.12,71.907-101.244c17.123-19.123,69.667-88.214,58.189-126.031
	c-6.521-21.496-100.074-62.545-122.356-70.271s-31.373-19.217-43.899-30.063c-11.278-9.771-31.794-17.836-58.899-15.767
	c-17.246,1.316-29.704,24.704-31.581,20.984c-5.417-10.725-13.313,6.437-20.81,3.92c-5.143-1.729-17.729-16.489-13.246-24.832
	c12.499-23.246-12.301-11.965-18.596-20.235c-6.294-8.271,10.366-26.063,4.314-35.267c-6.052-9.202-13.819,7.356-24.715,14.397
	c-3.208,2.072-13.38,11.396-20.606,3.998c-7.226-7.396-8.38-28.77,0.384-41.405c8.764-12.64,60.47-31.313,68.065-25.098
	c11.244,9.201-5.753,30.604,15.679,31.147c31.942,0.813,4.765-25.954,17.906-41.875c5.548-6.722,19.433-13.717,26.965-18
	c6.035-3.434,32.472-29.762,50.226-36.926c27.656-11.158,97.692-11.802,118.874-31.099c20.195-18.396-55.793-109.181-86.699-107.35
	c-15.646,0.927-8.658,26.152-27.562,35.162c-13.298,6.34-27.993,25.677-34.211,26.134s-25.372-23.574-24.803-37.44
	c1.152-28.238,39.109-25.222,48.938-21.764s11.577-19.942,19.672-21.097c8.098-1.152,58.706,30.522,69.277,27.939
	c10.57-2.583-25.482-81.461-38.203-79.731c-6.427,0.874-26.592,27.893-34.686,23.282c-4.971-2.831,11.915-21.115-6.367-23.093
	c-10.872-1.178-20.652,25.703-39.153,30.313s-66.298,4.21-75.438,2.571c-19.063-3.418-37.065-12.187-45.119-11.547
	c-8.054,0.637-85.021-10.726-131.38-9.233C205.437,146.85,128.446,140.22,103.415,163.376z"/>
</svg>
