<?xml version="1.0" encoding="utf-8"?>
<!-- Generator: Adobe Illustrator 16.0.0, SVG Export Plug-In . SVG Version: 6.00 Build 0)  -->
<!DOCTYPE svg PUBLIC "-//W3C//DTD SVG 1.1//EN" "http://www.w3.org/Graphics/SVG/1.1/DTD/svg11.dtd">
<svg version="1.1" id="레이어_1" xmlns="http://www.w3.org/2000/svg" xmlns:xlink="http://www.w3.org/1999/xlink" x="0px"
	 y="0px" width="1920px" height="1080px" viewBox="0 0 1920 1080" enable-background="new 0 0 1920 1080" xml:space="preserve">
<path fill="#F8E1EC" stroke="#EBEBEB" stroke-width="2" stroke-miterlimit="10" d="M93.775,156.744
	c-26.597,20.546-37.947,89.865-31.941,98.468c18.283,26.185,98.355-4.896,114.338-3.402c25.341,2.367,50.127,11.49,51.874,35.244
	c1.147,15.604-17.594,41.617-19.681,61.067c-2.086,19.452,49.158,129.817,61.542,124.591c12.383-5.229-5.558-38.604,3.175-40.346
	c8.732-1.736,3.806,57.925,15.394,70.136c9.896,10.429,32.647-3.636,49.936-0.833s35.142,12.015,41.917,19.628
	c6.775,7.61,5.565,30.552,15.705,36.646c15.668,9.42,19.936-3.689,28.438-1.58c12.335,3.062-0.945,12.665-4.965,20.352
	c-4.482,8.57-41.271,10.613-46.527,42.024c-2.672,15.973,46.401,38.692,54.741,50.706c6.303,9.072,4.729,41.104,13.709,47.58
	c16.878,12.165,24.224,24.527,24.438,45.076c0.582,55.038,13.826,145.272,20.207,165.563c6.38,20.285,78.356,75.852,94.759,57.035
	c9.146-10.496-34.376-71.271-7.598-128.05c11.271-23.898,56.583-81.946,73.82-101.173c17.241-19.225,74.351-81.69,64.101-131.019
	c-4.994-24.03-103.745-61.367-126.181-69.135c-22.438-7.768-37.439-14.974-49.08-28.354c-9.972-11.461-28.821-21.104-61.005-18.907
	c-17.375,1.188-29.86,24.114-31.755,20.379c-5.455-10.781-13.502,9.431-21.047,6.9c-5.178-1.736-17.591-15.448-12.324-23.438
	c16.76-25.436-10.183-13.206-16.521-21.521c-6.338-8.315,7.87-27.388,1.777-36.641c-6.093-9.254-14.311,7.345-25.282,14.421
	c-3.229,2.084-10.63,12.098-17.905,4.661c-7.276-7.438-7.491-25.484,1.333-38.188c8.824-12.705,55.654-31.341,63.302-25.091
	c11.321,9.25-9.059,29.962,16.583,31.158c41.469,1.938,8.688-24.417,21.92-40.421c5.588-6.756,21.863-14.957,29.448-19.266
	c6.076-3.448,34.726-29.313,53.147-35.197c33.793-10.801,91.883-2.827,120.438-25.551c25.09-19.965-66.018-121.563-100.118-117.688
	c-15.709,1.782-6.911,26.009-25.939,35.065c-13.394,6.374-27.95,22.491-34.211,22.95c-6.265,0.46-22.101-18.844-21.525-32.785
	c1.165-28.388,38.143-19.869,48.039-16.394c9.896,3.477,10.809-21.936,18.958-23.092c8.15-1.159,63.908,30.819,74.552,28.224
	c10.646-2.596-30.242-89.119-43.049-87.381c-6.471,0.878-25.918,30.72-34.068,26.086c-5.002-2.846,13.576-20.896-8.125-24.091
	c-10.901-1.606-20.715,26.868-39.343,31.503c-18.629,4.635-66.029,4.099-75.233,2.451c-19.194-3.438-37.321-12.249-45.431-11.608
	c-8.109,0.64-87.69-15.664-134.369-14.165C202.048,140.508,128.103,130.228,93.775,156.744z"/>
</svg>
