<?xml version="1.0" encoding="utf-8"?>
<!-- Generator: Adobe Illustrator 16.0.0, SVG Export Plug-In . SVG Version: 6.00 Build 0)  -->
<!DOCTYPE svg PUBLIC "-//W3C//DTD SVG 1.1//EN" "http://www.w3.org/Graphics/SVG/1.1/DTD/svg11.dtd">
<svg version="1.1" id="레이어_1" xmlns="http://www.w3.org/2000/svg" xmlns:xlink="http://www.w3.org/1999/xlink" x="0px"
	 y="0px" width="1920px" height="1080px" viewBox="0 0 1920 1080" enable-background="new 0 0 1920 1080" xml:space="preserve">
<path fill="#F8E1EC" stroke="#EBEBEB" stroke-width="2" stroke-miterlimit="10" d="M1109.584,156.637
	c-47.808,12.104-82.451-30.487-115.846-32.209c-36.954-1.905-44.108,40.761-58.164,54.731c-6.765,6.721-39.042,18.639-39.719,38.318
	c-0.479,13.901,14.852,10.922,21.344,14.083c6.49,3.162,16.599,16.539-3.524,19.235c-14.416,1.931-8.751,15.211-18.852,22.584
	c-10.104,7.373-42.466,9.265-33.872,23.215c7.255,11.776-4.902,19.522-14.021,17.19c-7.625-1.949-23.481-11.322-31.522-4.023
	c-6.742,6.121-9.099,25.771-2.826,41.318c6.742,16.722,10.778,25.263,39.907,9.999c29.343-15.415,58.279-39.674,70.279-40.069
	c10.927-0.354,44.688,35.479,51.854,30.462c8.667-6.063-10.188-37.312-6.061-40.237c7.082-5.025,26.365,60.38,33.498,61.251
	c8.971,1.124,2.141-32.914,4.351-41.396c2.16-8.193,7.024-43.285,46.065-30.051c55.698,18.852-17.142,23.59-33.883,33.258
	c-5.188,2.98-1.874,27.071,4.852,32.215c6.721,5.146,44.691-11.796,45.465,6.104c0.316,7.436-6.248,21.063-12.412,22.452
	c-6.165,1.39-57.565-1.387-73.725,4.756c-16.159,6.142-48.328-39.612-65.209-43.667c-9.604-2.309-38.782,10.563-55.885,16.246
	c-17.373,5.795-39.02,13.767-52.603,20.683s-34.458,22.088-42.667,49.083c-4.343,14.279,7.646,44.231,7.04,53.688
	c-0.781,12.122-2.595,27.896-2.979,33.714c-2.564,38.902-5.311,84.785,54.33,60.318c13.233-5.428,42.37-15.675,51.396-16.088
	c26.489-1.214,37.964,19.983,39.735,40.582c1.216,14.111,21.834,23.339,28.584,33.133c7.938,11.552,7.455,21.286,3.07,35.212
	c-6.928,21.968-8.854,33.214,0.68,54.63c8.806,19.778-7.881,110.646,11.4,125.222c21.438,16.188,61.781-18.308,91.168-38.125
	c6.516-4.393,36.208-19.354,40.57-35.09c4.361-15.73-12.082-55.892-1.953-70.082c10.129-14.191,48.896-8.685,41.414-36.8
	c-5.793-21.771-10.839-44.519,1.271-64.682c18.004-30.152,94.762-82.932,79.887-114.146c-7.902-16.584-68.048,28.036-82.961,24.502
	c-14.911-3.531-28.236-43.724-36.87-58.635c-8.636-14.913-20.733-27.303-16.818-32.637c3.916-5.333,17.328,18.109,21.894,32.938
	c4.563,14.83,23.286,51.438,33.227,50.439c18.26-1.835,85.595-28.222,87.045-58.861c0.688-14.459-9.976-24.857-25.084-27.615
	c-13.896-2.487-23.683,3.76-30.03-0.38c-3.905-2.547-6.062-6.854-8.89-10.832c-3.299-4.636,0.655-10.11,6.563-5.021
	c5.938,5.112,11.352,8.681,24.421,10.631c18.75,2.803,29.313,13.425,44.771,15.234c15.455,1.813,29.118,11.721,36.476,26.415
	c13.021,26.001,19.11,104.248,47.586,103.229c29.584-1.063,25.908-61.87,34.229-79.276c3.674-7.688,15.146-21.711,24.635-24.707
	c9.56-3.008,19.9,0.876,31.334,11.517c9.938,9.246,15.554,17.707,18.896,22.554c3.342,4.845,6.78,11.589,6.78,22.817
	c0,7.73-7.104,22.168-2.244,31.069c4.854,8.902,47.41,50.526,55.214,41.235c5.471-6.517-17.552-28.277-24.541-40.688
	c-7.013-12.438-13.791-37.696-7.4-37.42c9.271,0.4,14.377,26.941,24.354,30.397c15.313,5.307,44.596-23.065,25.016-48.228
	c-5.081-6.522-24.083-11.253-24.449-22.538c-0.253-7.745,7.717-17.711,12.11-12.196c10.471,13.134,11.03-1.929,17.116-3.955
	c5.889-1.965,14.653-3.59,19.746-6.715c17.104-10.494,43.639-36.7,38.354-54.688c-2.371-8.067-19.588-10.546-25.776-19.139
	c-6.688-9.281-1.394-15.92-5.521-22.736c-4.128-6.814-21.359-2.211-17.867-11.433c3.414-9.02,12.084-8.184,21.109-1.706
	c9.024,6.478,13.59,13.879,16.133,18.673s10.121,28.936,20.822,22.121c23.944-15.246-6.681-34.014-11.699-40.643
	c-3.844-5.071,2.604-18.907,8.426-21.228c5.821-2.313,8.438,3.422,14.037,1.496c4.422-1.521,12.24-10.457,12.275-14.854
	c0.123-16.022-0.787-34.287-7.262-48.417c-4.199-9.17-23.298-14.847-31.354-13.171c-10.078,2.097-19.634,5.742-21.225-2.393
	c-2.127-10.894,17.313-18.628,31.541-19.198c15.714-0.634,29.166,3.102,32.429,2.216c7.047-1.915,2.211-12.265,8.289-13.43
	c4.777-0.914,8.52,10.241,8.52,18.604c0,8.841,4.063,16.062,11.564,29.151c5.094,8.878,7.236,29.275,26.663,26.84
	c18.989-2.396,20.641-59.864,30.104-73.005c9.473-13.144,80.877-28.857,88.572-30.675c43.342-10.228,3.865-36.035-56.301-37.875
	c-12.146-0.369-70.396-3.865-102.727-7.841c-40.664-4.999-96.232-9.777-163.166-21.363c-45.396-7.813-107.422-37.384-146.365-36.491
	s-72.156,11.891-104.873,27.186C1163.031,129.705,1134.502,150.329,1109.584,156.637z"/>
</svg>
