<?xml version="1.0" encoding="utf-8"?>
<!-- Generator: Adobe Illustrator 16.0.0, SVG Export Plug-In . SVG Version: 6.00 Build 0)  -->
<!DOCTYPE svg PUBLIC "-//W3C//DTD SVG 1.1//EN" "http://www.w3.org/Graphics/SVG/1.1/DTD/svg11.dtd">
<svg version="1.1" id="레이어_1" xmlns="http://www.w3.org/2000/svg" xmlns:xlink="http://www.w3.org/1999/xlink" x="0px"
	 y="0px" width="1920px" height="1080px" viewBox="0 0 1920 1080" enable-background="new 0 0 1920 1080" xml:space="preserve">
<path fill="#F5D1E2" stroke="#F2F2F2" stroke-width="2" stroke-miterlimit="10" d="M1112.084,160.162
	c-47.514,11.083-76.822-20.467-109.605-24.308c-35.133-4.114-49.972,27.817-63.879,41.643c-6.688,6.648-36.33,21.813-37.619,38.249
	c-0.986,12.602,11.171,12.111,17.598,15.239c6.424,3.128,16.664,19.076-3.247,21.743c-14.269,1.911-9.463,13.926-19.457,21.224
	c-9.994,7.295-43.794,9.438-32.014,22.479c9.947,11.012-1.365,22.417-13.203,19.559c-8.402-2.027-21.896-8.496-28.833-1.465
	c-5.24,5.312-8.226,24.555-3.652,36.641c5.464,14.45,12.36,19.97,33.049,8.889c21.118-11.389,59.245-43.951,69.848-44.175
	c9.886-0.194,47.011,38.278,52.778,34.238c7.681-5.375-14.271-42.042-9.706-45.317c11.008-7.897,31.515,63.628,37.499,64.248
	c7.223,0.747,1.41-29.624,3.281-38.03c1.763-7.921,5.1-48.104,50.511-32.44c62.694,21.589-18.586,26.808-35.826,36.862
	c-4.396,2.544-3.23,22.63,3.706,27.938c6.938,5.313,48.495-8.981,47.313,9.355c-0.388,5.983-7.343,21.802-13.707,23.233
	c-6.365,1.437-56.925,2.604-73.608,8.94c-16.684,6.343-49.354-41.486-65.697-45.143c-12.062-2.692-38.301,9.378-55.03,15.389
	c-17.279,6.234-35.234,13.176-47.4,20.01C803,402,779.77,417.99,771.833,445.331c-3.764,12.973,6.548,38.019,6.081,47.383
	c-0.47,9.414-3.184,25.949-3.393,31.711c-1.175,32.168,7.109,75.136,56.097,58.357c11.139-3.813,38.745-12.354,47.674-12.788
	c26.372-1.288,41.401,21.891,41.946,40.053c0.437,14.563,20.1,28.052,25.994,38.137c6.965,11.947,6.838,19.609,3.104,33.553
	c-5.873,21.885-10.136,31.462-0.169,53.379c7.262,15.971,2.231,103.911,19.188,115.047c18.863,12.378,56.22-13.28,82.334-36.248
	c6.163-5.422,30.822-20.609,35.144-36.181c4.315-15.567-7.61-45.339,2.412-59.384c10.021-14.045,41.916-10.561,34.511-38.384
	c-5.729-21.544-10.979-41.145,0.541-61.354c17.761-31.422,90.418-85.799,73.771-108.294c-10.517-14.208-53.617,22.388-68.375,18.892
	c-14.761-3.495-28.327-42.832-36.87-57.59c-8.544-14.758-24.206-34.901-20.333-40.182c3.875-5.277,19.881,18.517,24.395,33.188
	c4.521,14.674,24.523,54.581,34.521,54.127c17.491-0.795,84.477-30.979,85.14-59.565c0.332-14.313-10.062-22.764-24.699-24.818
	c-13.818-1.942-23.271,4.291-29.646,0c-4.771-3.208-6.825-7.993-10.178-13.301c-3.641-5.765,0.896-13.027,7.432-6.999
	c6.548,6.043,12.438,11.25,27.172,13.659c18.512,3.023,27.871,12.329,43.164,14.125c15.294,1.793,28.521,7.954,37.979,22.42
	c13.984,21.388,25.433,99.873,47.275,100.4c23.063,0.563,25.1-58.854,33.48-73.786c4.894-8.712,13.433-20.406,23.519-24.849
	c10.129-4.447,21.686,1.628,32.163,12.054c9.517,9.469,16.093,18.5,19.396,23.293c3.311,4.795,7.438,13.855,7.438,24.973
	c0,7.648-5.207,19.928-0.403,28.734c4.807,8.812,43.063,48.386,50.033,41.896c5.233-4.869-16.399-27.577-23.71-41.313
	c-7.316-13.758-12.741-36.547-5.821-36.352c8.841,0.253,14.658,25.433,24.475,29.01c13.392,4.882,40.232-23.096,21.662-46.7
	c-4.893-6.208-22.311-11.388-22.673-22.555c-0.25-7.663,9.817-20.271,13.957-13.423c8.521,14.102,10.396-0.629,16.416-2.637
	c5.825-1.941,12.913-3.164,17.829-6.441c17.646-11.77,41.147-38.319,35.793-54.064c-2.676-7.867-16.921-11.957-23.047-20.459
	c-6.614-9.185-0.261-14.777-4.349-21.521c-4.088-6.745-23.082-0.805-20.057-11.033c3.498-11.827,15.188-9.962,24.115-3.556
	c8.935,6.408,14.066,13.218,16.584,17.961c2.519,4.744,8.176,26.663,19.124,20.579c22.727-12.625-8.875-31.195-12.28-37.807
	c-2.834-5.495,3.682-19.349,9.438-21.64c5.761-2.291,8.55,3.242,13.678,0.566c3.854-2.014,9.617-11.497,9.65-15.848
	c0.12-15.854-1.271-29.83-7.678-43.813c-4.154-9.073-20.011-15.633-28.563-13.54c-9.888,2.419-19.245,4.208-21.063-3.782
	c-2.231-9.817,12.248-21.055,30.58-21.58c15.553-0.446,32.442,3.438,34.918,1.723c4.357-3.021-1.891-13.473,5.745-14.311
	c4.771-0.524,12.763,11.111,12.763,19.386c0,8.748,0.864,13.871,9.306,26.087c4.692,6.795,11.056,28.904,27.101,26.313
	c15.754-2.563,15.427-56.721,24.795-69.725c9.371-13.004,63.263-23.02,70.659-25.442c37.902-12.407-0.146-30.262-44.05-33.141
	c-11.982-0.786-54.689-2.267-86.505-7.295c-37.334-5.899-105.979-15.56-171.84-24.73c-45.131-6.222-103.631-28.248-142.168-27.365
	c-38.536,0.883-64.559,9.729-95.748,22.372C1172.503,135.585,1136.83,154.388,1112.084,160.162z"/>
</svg>
