<?xml version="1.0" encoding="utf-8"?>
<!-- Generator: Adobe Illustrator 16.0.0, SVG Export Plug-In . SVG Version: 6.00 Build 0)  -->
<!DOCTYPE svg PUBLIC "-//W3C//DTD SVG 1.1//EN" "http://www.w3.org/Graphics/SVG/1.1/DTD/svg11.dtd">
<svg version="1.1" id="레이어_1" xmlns="http://www.w3.org/2000/svg" xmlns:xlink="http://www.w3.org/1999/xlink" x="0px"
	 y="0px" width="1920px" height="1080px" viewBox="0 0 1920 1080" enable-background="new 0 0 1920 1080" xml:space="preserve">
<path fill="#F1C2D9" stroke="#F8F8F8" stroke-width="2" stroke-miterlimit="10" d="M1681.525,667.619
	c-10.652,0.635-7.7,40.486-14.804,41.664c-7.104,1.18-20.766-10.717-22.689-16.105c-1.931-5.394,11.43-12.458,8.624-18.888
	c-9.53-21.831-36.037,19.283-53.082,16.942c-24.901-3.42-38.848,13.729-44.594,30.916c-6.504,19.446-43.864,3.864-51.896,30.146
	c-4.207,13.771,4.449,22.399,2.307,35.351c-0.451,2.747-20.531,26.571-12.666,43.819c9.11,19.924,51.064-7.094,65.469-15.948
	c47.746-29.36,65.305,58.475,118.832,33.914c14.404-6.607,40.039-36.434,48.562-50.604c16.494-27.427,4.17-45.868-9.454-72.228
	C1706.633,704.836,1694.209,666.866,1681.525,667.619z"/>
</svg>
