<?xml version="1.0" encoding="utf-8"?>
<!-- Generator: Adobe Illustrator 16.0.0, SVG Export Plug-In . SVG Version: 6.00 Build 0)  -->
<!DOCTYPE svg PUBLIC "-//W3C//DTD SVG 1.1//EN" "http://www.w3.org/Graphics/SVG/1.1/DTD/svg11.dtd">
<svg version="1.1" id="레이어_1" xmlns="http://www.w3.org/2000/svg" xmlns:xlink="http://www.w3.org/1999/xlink" x="0px"
	 y="0px" width="1920px" height="1080px" viewBox="0 0 1920 1080" enable-background="new 0 0 1920 1080" xml:space="preserve">
<path fill="#EEB3CF" stroke="#FFFFFF" stroke-width="2" stroke-miterlimit="10" d="M1711.176,731.799
	c-9.254-21.201-18.41-63.146-28.847-63.212c-10.438-0.063-8.004,43.256-14.922,44.401c-6.918,1.146-24.067-14.197-25.946-19.45
	c-1.879-5.252,11.42-9.052,9.725-15.931c-5.521-22.395-34.789,16.001-51.516,14.479c-20.877-1.896-35.873,16.603-43.493,31.592
	c-8.979,18.339-41.122,6.519-48.942,32.114c-4.1,13.418,3.678,20.773,1.627,33.396c-0.449,2.675-10.715,19.428-4.224,31.759
	c7.604,14.442,38.665-1.313,52.693-9.938c46.514-28.604,62.223,56.479,114.366,32.56c14.034-6.438,33.113-31.666,41.416-45.475
	C1729.186,771.38,1724.146,758.323,1711.176,731.799z"/>
</svg>
