<?xml version="1.0" encoding="utf-8"?>
<!-- Generator: Adobe Illustrator 16.0.0, SVG Export Plug-In . SVG Version: 6.00 Build 0)  -->
<!DOCTYPE svg PUBLIC "-//W3C//DTD SVG 1.1//EN" "http://www.w3.org/Graphics/SVG/1.1/DTD/svg11.dtd">
<svg version="1.1" id="레이어_1" xmlns="http://www.w3.org/2000/svg" xmlns:xlink="http://www.w3.org/1999/xlink" x="0px"
	 y="0px" width="1920px" height="1080px" viewBox="0 0 1920 1080" enable-background="new 0 0 1920 1080" xml:space="preserve">
<path fill="none" stroke="#E9E9E9" stroke-width="2" stroke-miterlimit="10" d="M723,621c-3.661-26.631-107.411-60.193-130-68
	c-22.589-7.81-43.615-10.683-54.259-26.646c-8.746-13.119-25.853-24.329-63.104-22.05c-17.504,1.072-30.018,23.521-31.93,19.768
	c-5.467-10.852-13.689,12.427-21.288,9.884c-5.213-1.742-17.398-14.341-11.403-22.048c21.287-27.369-8.063-14.445-14.445-22.809
	c-6.381-8.358,5.374-28.711-0.761-38.012c-6.135-9.305-14.802,7.326-25.848,14.441c-3.252,2.097-7.879,12.796-15.205,5.32
	c-7.326-7.476-6.603-22.199,2.281-34.973c8.884-12.771,50.838-31.37,58.539-25.09c11.399,9.302-12.393,28.495,17.486,31.173
	c50.938,4.567,12.613-22.871,25.937-38.961c5.624-6.794,24.293-16.196,31.93-20.526c6.118-3.468,36.979-28.699,56.07-33.474
	c40-10,86,6,122-20c29.953-21.635-76.281-134.113-113.534-128.031c-15.788,2.578-5.167,25.866-24.327,34.972
	c-13.479,6.407-27.904,19.308-34.211,19.77c-6.303,0.462-18.817-14.114-18.246-28.129c1.176-28.538,37.173-14.521,47.14-11.024
	c9.964,3.495,10.038-23.923,18.244-25.088c8.205-1.165,69.106,31.12,79.823,28.509c10.718-2.608-35.001-96.776-47.896-95.031
	c-6.519,0.885-25.245,33.551-33.451,28.892c-5.037-2.86,15.206-20.527-9.883-25.088c-10.952-1.991-20.777,28.029-39.533,32.688
	s-65.76,3.987-75.027,2.331c-19.325-3.455-37.576-12.313-45.741-11.669c-8.166,0.64-90.36-20.604-137.358-19.099
	c-36.34,1.165-107.207-12.653-150.864,17.11c-32.998,22.5-45.896,104.279-40.498,113.995c20,36,113.305-5.508,127.362-5.104
	c26.608,0.76,50.871,3.727,52.629,27.604c1.156,15.688-20.338,44.575-22.439,64.13c-2.101,19.554,57.474,133.736,69.943,128.48
	c12.468-5.255-2.71-33.982,6.082-35.73s-3.686,55.007,7.981,67.281c9.964,10.482,34.671-10.037,52.078-7.223
	c17.407,2.814,34.992,11.354,41.813,19.006c6.821,7.649,3.476,32.646,13.685,38.771c15.775,9.469,21.663-2.447,30.227-0.326
	c12.42,3.075-3.956,6.275-8,14c-4.512,8.618-46.778,7.513-54,44c-3.167,16.011,54.926,38.206,63.323,50.281
	c6.343,9.122,3.498,47.09,12.544,53.599C453.861,735.108,458.782,750.343,459,771c0.586,55.325,15.575,149.604,22,170
	c6.425,20.392,92.189,78.482,110,54c9.123-12.547-40.704-79.825-13.742-136.9C588.609,834.072,635.641,776.323,653,757
	C670.359,737.674,731.362,681.819,723,621z"/>
</svg>
