<?xml version="1.0" encoding="utf-8"?>
<!-- Generator: Adobe Illustrator 16.0.0, SVG Export Plug-In . SVG Version: 6.00 Build 0)  -->
<!DOCTYPE svg PUBLIC "-//W3C//DTD SVG 1.1//EN" "http://www.w3.org/Graphics/SVG/1.1/DTD/svg11.dtd">
<svg version="1.1" id="레이어_1" xmlns="http://www.w3.org/2000/svg" xmlns:xlink="http://www.w3.org/1999/xlink" x="0px"
	 y="0px" width="256px" height="256px" viewBox="0 0 256 256" enable-background="new 0 0 256 256" xml:space="preserve">
<path fill="#FFFFFF" stroke="#000000" stroke-miterlimit="10" d="M95.355,206.942l-0.916-1.276
	c-0.573-0.803-0.925-1.503-1.058-2.101s-0.072-1.193,0.182-1.789c0.38-0.895,1-1.488,1.857-1.781
	c0.858-0.294,1.782-0.229,2.774,0.193c0.947,0.403,1.703,1.039,2.268,1.908l-0.786,1.845c-0.483-1.136-1.196-1.903-2.138-2.305
	c-0.531-0.226-1.019-0.29-1.465-0.189s-0.75,0.341-0.913,0.725c-0.145,0.34-0.155,0.712-0.03,1.116
	c0.125,0.403,0.396,0.887,0.814,1.451l0.928,1.264c1.033,1.416,1.276,2.764,0.732,4.041c-0.388,0.91-1.007,1.52-1.859,1.829
	c-0.852,0.309-1.766,0.257-2.74-0.159c-1.121-0.478-1.995-1.258-2.623-2.339l0.879-2.063c0.404,1.484,1.183,2.474,2.336,2.965
	c0.51,0.217,0.993,0.256,1.453,0.117c0.459-0.139,0.779-0.422,0.961-0.848C96.307,208.854,96.087,207.987,95.355,206.942z"/>
<path fill="#FFFFFF" stroke="#000000" stroke-miterlimit="10" d="M102.591,202.15l6.661,2.134l-0.479,1.496l-4.979-1.595
	l-1.148,3.583l4.811,1.541l-0.482,1.506l-4.811-1.542l-1.169,3.65l5.139,1.646l-0.48,1.497l-6.821-2.186L102.591,202.15z"/>
<path fill="#FFFFFF" stroke="#000000" stroke-miterlimit="10" d="M109.633,204.469l10.135,1.87l-0.285,1.547l-4.229-0.781
	l-1.958,10.604l-1.746-0.322l1.958-10.604l-4.16-0.768L109.633,204.469z"/>
<path fill="#FFFFFF" stroke="#000000" stroke-miterlimit="10" d="M119.598,206.354l10.305,0.138l-0.021,1.572l-4.301-0.058
	l-0.144,10.782l-1.774-0.023l0.144-10.782l-4.23-0.057L119.598,206.354z"/>
<path fill="#FFFFFF" stroke="#000000" stroke-miterlimit="10" d="M131.155,206.213l1.76-0.143l0.99,12.297l-1.76,0.143
	L131.155,206.213z"/>
<path fill="#FFFFFF" stroke="#000000" stroke-miterlimit="10" d="M144.879,204.316l1.652-0.291l2.133,12.152l-1.496,0.262
	l-9.767-7.934l1.642,9.359l-1.635,0.287l-2.133-12.151l1.409-0.247l9.851,8L144.879,204.316z"/>
<path fill="#FFFFFF" stroke="#000000" stroke-miterlimit="10" d="M156.723,207.311l3.921-1.338l1.688,4.949
	c-1.226,1.114-2.546,1.913-3.962,2.396c-1.934,0.659-3.67,0.621-5.211-0.113c-1.541-0.732-2.594-1.928-3.158-3.583
	c-0.595-1.745-0.491-3.399,0.313-4.968c0.802-1.567,2.106-2.659,3.912-3.275c0.656-0.224,1.306-0.365,1.944-0.426
	c0.64-0.059,1.475-0.053,2.507,0.019l0.581,1.705c-1.669-0.333-3.188-0.267-4.559,0.201c-1.276,0.436-2.203,1.237-2.782,2.405
	c-0.578,1.167-0.652,2.384-0.221,3.648c0.452,1.326,1.26,2.261,2.422,2.805c1.162,0.542,2.431,0.579,3.807,0.109
	c0.669-0.228,1.416-0.654,2.242-1.277l0.143-0.104l-0.83-2.434l-2.248,0.768L156.723,207.311z"/>
<path fill="#FFFFFF" stroke="#000000" stroke-miterlimit="10" d="M180.4,134.743v-21.229l-13.974-2.529
	c-0.771-2.45-1.734-4.806-2.902-7.049l8.044-11.693l-15.01-15.01l-11.652,8.044c-2.256-1.179-4.624-2.168-7.09-2.943l-2.53-13.933
	h-21.229l-2.53,13.933c-2.459,0.772-4.839,1.769-7.089,2.943l-11.694-8.044l-15.01,15.01l8.086,11.651
	c-1.178,2.257-2.169,4.624-2.944,7.091l-13.932,2.529v21.229l13.932,2.529c0.777,2.474,1.803,4.829,2.985,7.091l-8.127,11.651
	l15.01,15.01l11.652-8.044c2.26,1.182,4.661,2.167,7.131,2.943l2.53,13.933h21.229l2.53-13.933c2.466-0.774,4.834-1.765,7.09-2.943
	l11.652,8.044l15.01-15.01l-8.086-11.651c1.173-2.247,2.169-4.594,2.944-7.049L180.4,134.743z M124.672,145.358
	c-11.756,0-21.229-9.475-21.229-21.229c0-11.756,9.473-21.23,21.229-21.23c11.756,0,21.229,9.474,21.229,21.23
	C145.901,135.884,136.429,145.358,124.672,145.358"/>
</svg>
