<?xml version="1.0" encoding="utf-8"?>
<!-- Generator: Adobe Illustrator 16.0.0, SVG Export Plug-In . SVG Version: 6.00 Build 0)  -->
<!DOCTYPE svg PUBLIC "-//W3C//DTD SVG 1.1//EN" "http://www.w3.org/Graphics/SVG/1.1/DTD/svg11.dtd">
<svg version="1.1" id="레이어_1" xmlns="http://www.w3.org/2000/svg" xmlns:xlink="http://www.w3.org/1999/xlink" x="0px"
	 y="0px" width="259px" height="224px" viewBox="0 0 259 224" enable-background="new 0 0 259 224" xml:space="preserve">
<path fill="#727171" d="M46.521,114.7c-1.84,0-3.64,1.101-5.399,3.3l-4.5-4.8c1.039-2.601,2.72-4.7,5.04-6.301
	c1.159-0.8,2.479-1.199,3.96-1.199c1.479,0,2.629,0.189,3.449,0.569c0.819,0.381,1.561,0.791,2.221,1.23
	c0.66,0.44,1.299,0.85,1.92,1.229c0.619,0.381,1.39,0.57,2.31,0.57c1.84,0,3.66-1.1,5.46-3.3l4.5,4.8
	c-1.12,2.681-2.819,4.8-5.1,6.36c-1.161,0.761-2.48,1.14-3.96,1.14s-2.631-0.188-3.45-0.569c-0.82-0.379-1.56-0.789-2.22-1.229
	c-0.66-0.438-1.311-0.851-1.95-1.229C48.16,114.891,47.4,114.7,46.521,114.7z"/>
<path fill="#727171" d="M75.98,133v-32.7l-6.9,2.4l-3-6.9L77.181,91h9.6v42H75.98z"/>
<path fill="#727171" d="M94.58,124.3c8.239,0.601,14.04,0.9,17.4,0.9c0.919,0,1.649-0.271,2.189-0.812
	c0.54-0.539,0.811-1.27,0.811-2.188v-5.4c-3.881,0.802-7.281,1.2-10.2,1.2h-4.2c-2.721,0-4.9-0.818-6.54-2.46
	c-1.641-1.64-2.46-3.819-2.46-6.54v-7.8c0-3.64,0.92-6.351,2.76-8.131c1.84-1.779,4.72-2.67,8.641-2.67h11.399
	c3.92,0,6.8,0.891,8.64,2.67c1.84,1.78,2.76,4.491,2.76,8.131v21c0,3.92-0.92,6.801-2.76,8.64c-1.84,1.842-4.72,2.762-8.64,2.762
	c-5.48,0-12.08-0.4-19.8-1.201V124.3L94.58,124.3z M107.78,109.6c2.28,0,4.68-0.199,7.2-0.6v-6.601c0-2.399-1.2-3.6-3.601-3.6
	h-5.399c-2.4,0-3.601,1.2-3.601,3.6v5.101c0,0.6,0.2,1.101,0.601,1.5c0.399,0.4,0.899,0.6,1.5,0.6H107.78z"/>
<path fill="#727171" d="M132.379,124.3c8.24,0.601,14.041,0.9,17.4,0.9c0.92,0,1.65-0.271,2.188-0.812
	c0.541-0.539,0.812-1.27,0.812-2.188v-5.4c-3.881,0.802-7.281,1.2-10.199,1.2h-4.201c-2.721,0-4.9-0.818-6.539-2.46
	c-1.641-1.64-2.461-3.819-2.461-6.54v-7.8c0-3.64,0.92-6.351,2.76-8.131c1.84-1.779,4.721-2.67,8.641-2.67h11.4
	c3.92,0,6.799,0.891,8.639,2.67c1.841,1.78,2.763,4.491,2.763,8.131v21c0,3.92-0.922,6.801-2.763,8.64
	c-1.84,1.842-4.719,2.762-8.639,2.762c-5.479,0-12.082-0.4-19.801-1.201V124.3L132.379,124.3z M145.58,109.6
	c2.279,0,4.68-0.199,7.199-0.6v-6.601c0-2.399-1.199-3.6-3.6-3.6h-5.4c-2.4,0-3.6,1.2-3.6,3.6v5.101c0,0.6,0.198,1.101,0.6,1.5
	c0.397,0.4,0.9,0.6,1.5,0.6H145.58z"/>
<path fill="#727171" d="M189.781,124.6h-22.2V116.2l14.4-25.2h12l-14.4,25.2h10.2v-9h10.8v9h4.2v8.399h-4.2v8.399h-10.8V124.6z"/>
</svg>
