<?xml version="1.0" encoding="utf-8"?>
<!-- Generator: Adobe Illustrator 16.0.0, SVG Export Plug-In . SVG Version: 6.00 Build 0)  -->
<!DOCTYPE svg PUBLIC "-//W3C//DTD SVG 1.1//EN" "http://www.w3.org/Graphics/SVG/1.1/DTD/svg11.dtd">
<svg version="1.1" id="레이어_1" xmlns="http://www.w3.org/2000/svg" xmlns:xlink="http://www.w3.org/1999/xlink" x="0px"
	 y="0px" width="259px" height="224px" viewBox="0 0 259 224" enable-background="new 0 0 259 224" xml:space="preserve">
<path fill="#727171" d="M72.05,133v-32.7l-6.9,2.4l-3-6.9l11.1-4.8h9.6v42H72.05z"/>
<path fill="#727171" d="M90.65,124.3c8.239,0.601,14.04,0.9,17.4,0.9c0.919,0,1.65-0.271,2.19-0.812
	c0.54-0.539,0.81-1.27,0.81-2.188v-5.4c-3.88,0.802-7.281,1.2-10.2,1.2h-4.2c-2.721,0-4.9-0.818-6.54-2.46
	c-1.641-1.64-2.46-3.819-2.46-6.54v-7.8c0-3.64,0.919-6.351,2.76-8.131c1.839-1.779,4.719-2.67,8.64-2.67h11.4
	c3.92,0,6.8,0.891,8.64,2.67c1.839,1.78,2.76,4.491,2.76,8.131v21c0,3.92-0.92,6.801-2.76,8.64c-1.84,1.842-4.72,2.762-8.64,2.762
	c-5.48,0-12.081-0.4-19.8-1.201V124.3L90.65,124.3z M103.85,109.6c2.28,0,4.68-0.199,7.2-0.6v-6.601c0-2.399-1.2-3.6-3.6-3.6h-5.4
	c-2.4,0-3.6,1.2-3.6,3.6v5.101c0,0.6,0.2,1.101,0.6,1.5c0.399,0.4,0.9,0.6,1.5,0.6H103.85z"/>
<path fill="#727171" d="M128.45,124.3c8.239,0.601,14.041,0.9,17.399,0.9c0.92,0,1.65-0.271,2.189-0.812
	c0.541-0.539,0.811-1.27,0.811-2.188v-5.4c-3.881,0.802-7.281,1.2-10.199,1.2h-4.2c-2.722,0-4.9-0.818-6.54-2.46
	c-1.641-1.64-2.46-3.819-2.46-6.54v-7.8c0-3.64,0.919-6.351,2.76-8.131c1.839-1.779,4.72-2.67,8.64-2.67h11.4
	c3.92,0,6.799,0.891,8.639,2.67c1.84,1.78,2.762,4.491,2.762,8.131v21c0,3.92-0.922,6.801-2.762,8.64
	c-1.84,1.842-4.719,2.762-8.639,2.762c-5.48,0-12.081-0.4-19.8-1.201V124.3L128.45,124.3z M141.65,109.6
	c2.279,0,4.68-0.199,7.199-0.6v-6.601c0-2.399-1.199-3.6-3.601-3.6h-5.399c-2.4,0-3.601,1.2-3.601,3.6v5.101
	c0,0.6,0.199,1.101,0.601,1.5c0.398,0.4,0.899,0.6,1.5,0.6H141.65z"/>
<path fill="#727171" d="M185.449,133.602c-6.68,0-14.08-0.4-22.199-1.201V124.3c8.84,0.601,15.439,0.9,19.799,0.9
	c0.92,0,1.65-0.271,2.191-0.812c0.539-0.539,0.809-1.27,0.809-2.188v-3c0-2.4-1.199-3.601-3.6-3.601h-17.4V91h28.801v8.399h-18
	v7.801h9.601c3.92,0,6.799,0.891,8.641,2.67c1.839,1.78,2.761,4.489,2.761,8.13v4.2c0,3.92-0.922,6.801-2.761,8.64
	C192.248,132.682,189.369,133.602,185.449,133.602z"/>
</svg>
