<?xml version="1.0" encoding="utf-8"?>
<!-- Generator: Adobe Illustrator 16.0.0, SVG Export Plug-In . SVG Version: 6.00 Build 0)  -->
<!DOCTYPE svg PUBLIC "-//W3C//DTD SVG 1.1//EN" "http://www.w3.org/Graphics/SVG/1.1/DTD/svg11.dtd">
<svg version="1.1" id="레이어_1" xmlns="http://www.w3.org/2000/svg" xmlns:xlink="http://www.w3.org/1999/xlink" x="0px"
	 y="0px" width="259px" height="224px" viewBox="0 0 259 224" enable-background="new 0 0 259 224" xml:space="preserve">
<path fill="#727171" d="M71.151,133v-32.7l-6.9,2.4l-3-6.9L72.352,91h9.6v42H71.151z"/>
<path fill="#727171" d="M89.751,124.3c8.239,0.601,14.04,0.9,17.4,0.9c0.919,0,1.649-0.271,2.189-0.812
	c0.54-0.539,0.811-1.27,0.811-2.188v-5.4c-3.881,0.802-7.281,1.2-10.2,1.2h-4.2c-2.721,0-4.9-0.818-6.54-2.46
	c-1.641-1.64-2.46-3.819-2.46-6.54v-7.8c0-3.64,0.92-6.351,2.76-8.131c1.84-1.779,4.72-2.67,8.641-2.67h11.399
	c3.92,0,6.8,0.891,8.641,2.67c1.839,1.78,2.76,4.491,2.76,8.131v21c0,3.92-0.921,6.801-2.76,8.64
	c-1.841,1.842-4.721,2.762-8.641,2.762c-5.48,0-12.08-0.4-19.8-1.201V124.3z M102.951,109.6c2.28,0,4.68-0.199,7.2-0.6v-6.601
	c0-2.399-1.2-3.6-3.601-3.6h-5.399c-2.4,0-3.601,1.2-3.601,3.6v5.101c0,0.6,0.2,1.101,0.601,1.5c0.399,0.4,0.899,0.6,1.5,0.6
	H102.951z"/>
<path fill="#727171" d="M127.551,124.3c8.239,0.601,14.04,0.9,17.399,0.9c0.92,0,1.649-0.271,2.19-0.812
	c0.539-0.539,0.81-1.27,0.81-2.188v-5.4c-3.88,0.802-7.28,1.2-10.199,1.2h-4.2c-2.721,0-4.9-0.818-6.54-2.46
	c-1.641-1.64-2.46-3.819-2.46-6.54v-7.8c0-3.64,0.919-6.351,2.76-8.131c1.839-1.779,4.72-2.67,8.64-2.67h11.4
	c3.92,0,6.801,0.891,8.641,2.67c1.84,1.78,2.76,4.491,2.76,8.131v21c0,3.92-0.92,6.801-2.76,8.64
	c-1.84,1.842-4.721,2.762-8.641,2.762c-5.48,0-12.08-0.4-19.801-1.201V124.3z M140.751,109.6c2.278,0,4.681-0.199,7.199-0.6v-6.601
	c0-2.399-1.199-3.6-3.601-3.6h-5.399c-2.399,0-3.601,1.2-3.601,3.6v5.101c0,0.6,0.199,1.101,0.601,1.5c0.399,0.4,0.899,0.6,1.5,0.6
	H140.751z"/>
<path fill="#727171" d="M174.95,90.399c5.479,0,12.079,0.4,19.799,1.2V99.7c-2.199-0.12-4.069-0.23-5.608-0.33
	c-1.541-0.1-2.802-0.181-3.779-0.24c-0.98-0.061-1.951-0.13-2.91-0.21c-1.602-0.08-3.08-0.12-4.439-0.12c-2.441,0-3.66,1-3.66,3v5.4
	c3.879-0.8,7.279-1.2,10.199-1.2h4.199c2.721,0,4.9,0.82,6.541,2.46c1.639,1.641,2.459,3.82,2.459,6.54v7.8
	c0,3.642-0.92,6.351-2.76,8.132c-1.84,1.778-4.719,2.67-8.639,2.67h-11.4c-3.922,0-6.801-0.892-8.641-2.67
	c-1.84-1.781-2.761-4.49-2.761-8.132v-21c0-3.92,0.921-6.8,2.761-8.64C168.15,91.32,171.027,90.399,174.95,90.399z M181.55,114.398
	c-1.521,0-2.909,0.082-4.17,0.24c-1.26,0.16-2.271,0.28-3.028,0.36v6.601c0,2.399,1.198,3.601,3.6,3.601h5.4
	c2.397,0,3.6-1.2,3.6-3.601v-5.1c0-0.602-0.201-1.1-0.6-1.5c-0.4-0.398-0.9-0.602-1.5-0.602H181.55z"/>
</svg>
