<?xml version="1.0" encoding="utf-8"?>
<!-- Generator: Adobe Illustrator 16.0.0, SVG Export Plug-In . SVG Version: 6.00 Build 0)  -->
<!DOCTYPE svg PUBLIC "-//W3C//DTD SVG 1.1//EN" "http://www.w3.org/Graphics/SVG/1.1/DTD/svg11.dtd">
<svg version="1.1" id="레이어_1" xmlns="http://www.w3.org/2000/svg" xmlns:xlink="http://www.w3.org/1999/xlink" x="0px"
	 y="0px" width="259px" height="224px" viewBox="0 0 259 224" enable-background="new 0 0 259 224" xml:space="preserve">
<path fill="#727171" d="M73.55,133v-32.7l-6.9,2.4l-3-6.9l11.1-4.8h9.6v42H73.55z"/>
<path fill="#727171" d="M92.15,124.3c8.239,0.601,14.04,0.9,17.4,0.9c0.919,0,1.65-0.271,2.19-0.812
	c0.54-0.539,0.81-1.27,0.81-2.188v-5.4c-3.88,0.802-7.281,1.2-10.2,1.2h-4.2c-2.721,0-4.9-0.818-6.54-2.46
	c-1.641-1.64-2.46-3.819-2.46-6.54v-7.8c0-3.64,0.919-6.351,2.76-8.131c1.839-1.779,4.719-2.67,8.64-2.67h11.4
	c3.92,0,6.8,0.891,8.64,2.67c1.839,1.78,2.76,4.491,2.76,8.131v21c0,3.92-0.92,6.801-2.76,8.64c-1.84,1.842-4.72,2.762-8.64,2.762
	c-5.48,0-12.081-0.4-19.8-1.201V124.3L92.15,124.3z M105.35,109.6c2.28,0,4.68-0.199,7.2-0.6v-6.601c0-2.399-1.2-3.6-3.6-3.6h-5.4
	c-2.4,0-3.6,1.2-3.6,3.6v5.101c0,0.6,0.2,1.101,0.6,1.5c0.399,0.4,0.9,0.6,1.5,0.6H105.35z"/>
<path fill="#727171" d="M129.949,124.3c8.238,0.601,14.039,0.9,17.398,0.9c0.92,0,1.649-0.271,2.19-0.812
	c0.539-0.539,0.81-1.27,0.81-2.188v-5.4c-3.88,0.802-7.279,1.2-10.199,1.2h-4.199c-2.721,0-4.9-0.818-6.54-2.46
	c-1.641-1.64-2.46-3.819-2.46-6.54v-7.8c0-3.64,0.919-6.351,2.76-8.131c1.84-1.779,4.719-2.67,8.641-2.67h11.398
	c3.92,0,6.801,0.891,8.641,2.67c1.84,1.78,2.76,4.491,2.76,8.131v21c0,3.92-0.92,6.801-2.76,8.64
	c-1.84,1.842-4.721,2.762-8.641,2.762c-5.48,0-12.08-0.4-19.799-1.201V124.3z M143.148,109.6c2.278,0,4.68-0.199,7.199-0.6v-6.601
	c0-2.399-1.199-3.6-3.601-3.6h-5.399c-2.398,0-3.601,1.2-3.601,3.6v5.101c0,0.6,0.201,1.101,0.603,1.5c0.397,0.4,0.897,0.6,1.5,0.6
	H143.148z"/>
<path fill="#727171" d="M162.949,91h32.4v8.399L181.549,133h-12l14.4-33.601h-21V91L162.949,91z"/>
</svg>
