<?xml version="1.0" encoding="utf-8"?>
<!-- Generator: Adobe Illustrator 16.0.0, SVG Export Plug-In . SVG Version: 6.00 Build 0)  -->
<!DOCTYPE svg PUBLIC "-//W3C//DTD SVG 1.1//EN" "http://www.w3.org/Graphics/SVG/1.1/DTD/svg11.dtd">
<svg version="1.1" id="레이어_1" xmlns="http://www.w3.org/2000/svg" xmlns:xlink="http://www.w3.org/1999/xlink" x="0px"
	 y="0px" width="259px" height="224px" viewBox="0 0 259 224" enable-background="new 0 0 259 224" xml:space="preserve">
<path fill="#727171" d="M70.25,133v-32.7l-6.899,2.4l-3-6.9l11.1-4.8h9.601v42H70.25z"/>
<path fill="#727171" d="M88.851,124.3c8.239,0.601,14.04,0.9,17.399,0.9c0.92,0,1.65-0.271,2.19-0.812
	c0.54-0.539,0.81-1.27,0.81-2.188v-5.4c-3.88,0.802-7.28,1.2-10.2,1.2h-4.199c-2.721,0-4.9-0.818-6.54-2.46
	c-1.641-1.64-2.46-3.819-2.46-6.54v-7.8c0-3.64,0.919-6.351,2.76-8.131c1.839-1.779,4.719-2.67,8.64-2.67h11.4
	c3.92,0,6.8,0.891,8.64,2.67c1.84,1.78,2.76,4.491,2.76,8.131v21c0,3.92-0.92,6.801-2.76,8.64c-1.84,1.842-4.72,2.762-8.64,2.762
	c-5.48,0-12.081-0.4-19.8-1.201V124.3L88.851,124.3z M102.05,109.6c2.28,0,4.681-0.199,7.2-0.6v-6.601c0-2.399-1.2-3.6-3.6-3.6h-5.4
	c-2.399,0-3.6,1.2-3.6,3.6v5.101c0,0.6,0.199,1.101,0.6,1.5c0.399,0.4,0.9,0.6,1.5,0.6H102.05z"/>
<path fill="#727171" d="M126.649,124.3c8.24,0.601,14.041,0.9,17.4,0.9c0.92,0,1.65-0.271,2.189-0.812
	c0.541-0.539,0.811-1.27,0.811-2.188v-5.4c-3.881,0.802-7.281,1.2-10.201,1.2h-4.199c-2.72,0-4.899-0.818-6.54-2.46
	c-1.641-1.64-2.46-3.819-2.46-6.54v-7.8c0-3.64,0.92-6.351,2.76-8.131c1.84-1.779,4.719-2.67,8.641-2.67h11.4
	c3.92,0,6.799,0.891,8.639,2.67c1.841,1.78,2.763,4.491,2.763,8.131v21c0,3.92-0.922,6.801-2.763,8.64
	c-1.84,1.842-4.719,2.762-8.639,2.762c-5.481,0-12.082-0.4-19.801-1.201V124.3L126.649,124.3z M139.85,109.6
	c2.28,0,4.682-0.199,7.2-0.6v-6.601c0-2.399-1.198-3.6-3.6-3.6h-5.4c-2.399,0-3.601,1.2-3.601,3.6v5.101
	c0,0.6,0.199,1.101,0.601,1.5c0.398,0.4,0.899,0.6,1.5,0.6H139.85z"/>
<path fill="#727171" d="M198.648,122.2c0,3.92-0.922,6.801-2.762,8.64c-1.84,1.842-4.719,2.762-8.639,2.762h-13.801
	c-3.92,0-6.801-0.92-8.641-2.762c-1.841-1.839-2.761-4.72-2.761-8.64V121.6c0-3.039,0.761-5.561,2.281-7.561
	c1.198-1.6,2.84-2.68,4.92-3.24c-1.802-0.6-3.25-1.65-4.351-3.15c-1.102-1.5-1.649-3.449-1.649-5.85v-0.6
	c0-3.64,0.92-6.351,2.76-8.131c1.841-1.779,4.72-2.67,8.642-2.67h11.397c3.92,0,6.802,0.891,8.642,2.67
	c1.84,1.78,2.76,4.491,2.76,8.131v0.6c0,2.4-0.551,4.35-1.65,5.85c-1.099,1.5-2.549,2.551-4.35,3.15c3.24,0.88,5.439,3.04,6.6,6.48
	c0.4,1.24,0.602,2.68,0.602,4.32V122.2L198.648,122.2z M176.448,116.2c-2.4,0-3.601,1.198-3.601,3.6v2.4
	c0,0.92,0.271,1.649,0.812,2.188c0.539,0.541,1.271,0.812,2.188,0.812h9c0.92,0,1.65-0.271,2.189-0.812
	c0.541-0.539,0.811-1.27,0.811-2.188v-2.4c0-2.399-1.199-3.6-3.6-3.6H176.448z M177.648,98.8c-2.399,0-3.602,1.2-3.602,3.6v1.801
	c0,2.399,1.201,3.6,3.602,3.6h5.398c2.4,0,3.602-1.2,3.602-3.6V102.4c0-2.399-1.2-3.6-3.602-3.6H177.648z"/>
</svg>
