<?xml version="1.0" encoding="utf-8"?>
<!-- Generator: Adobe Illustrator 16.0.0, SVG Export Plug-In . SVG Version: 6.00 Build 0)  -->
<!DOCTYPE svg PUBLIC "-//W3C//DTD SVG 1.1//EN" "http://www.w3.org/Graphics/SVG/1.1/DTD/svg11.dtd">
<svg version="1.1" id="레이어_1" xmlns="http://www.w3.org/2000/svg" xmlns:xlink="http://www.w3.org/1999/xlink" x="0px"
	 y="0px" width="259px" height="224px" viewBox="0 0 259 224" enable-background="new 0 0 259 224" xml:space="preserve">
<path fill="#727171" d="M71.751,133v-32.7l-6.9,2.4l-3-6.9l11.1-4.8h9.6v42H71.751z"/>
<path fill="#727171" d="M90.351,124.3c8.239,0.601,14.04,0.9,17.4,0.9c0.919,0,1.649-0.271,2.189-0.812
	c0.54-0.539,0.811-1.27,0.811-2.188v-5.4c-3.881,0.802-7.281,1.2-10.2,1.2h-4.2c-2.721,0-4.9-0.818-6.54-2.46
	c-1.641-1.64-2.46-3.819-2.46-6.54v-7.8c0-3.64,0.92-6.351,2.76-8.131c1.84-1.779,4.72-2.67,8.641-2.67h11.399
	c3.92,0,6.8,0.891,8.641,2.67c1.839,1.78,2.76,4.491,2.76,8.131v21c0,3.92-0.921,6.801-2.76,8.64
	c-1.841,1.842-4.721,2.762-8.641,2.762c-5.48,0-12.08-0.4-19.8-1.201V124.3L90.351,124.3z M103.551,109.6c2.28,0,4.68-0.199,7.2-0.6
	v-6.601c0-2.399-1.2-3.6-3.601-3.6h-5.399c-2.4,0-3.601,1.2-3.601,3.6v5.101c0,0.6,0.2,1.101,0.601,1.5c0.399,0.4,0.899,0.6,1.5,0.6
	H103.551z"/>
<path fill="#727171" d="M128.15,124.3c8.239,0.601,14.04,0.9,17.399,0.9c0.92,0,1.65-0.271,2.191-0.812
	c0.539-0.539,0.809-1.27,0.809-2.188v-5.4c-3.879,0.802-7.279,1.2-10.199,1.2h-4.199c-2.721,0-4.9-0.818-6.541-2.46
	c-1.641-1.64-2.46-3.819-2.46-6.54v-7.8c0-3.64,0.919-6.351,2.76-8.131c1.839-1.779,4.72-2.67,8.64-2.67h11.4
	c3.92,0,6.801,0.891,8.641,2.67c1.841,1.78,2.761,4.491,2.761,8.131v21c0,3.92-0.92,6.801-2.761,8.64
	c-1.84,1.842-4.721,2.762-8.641,2.762c-5.479,0-12.08-0.4-19.8-1.201V124.3z M141.352,109.6c2.278,0,4.68-0.199,7.198-0.6v-6.601
	c0-2.399-1.198-3.6-3.6-3.6h-5.4c-2.399,0-3.6,1.2-3.6,3.6v5.101c0,0.6,0.198,1.101,0.6,1.5c0.4,0.4,0.9,0.6,1.5,0.6H141.352z"/>
<path fill="#727171" d="M165.95,124.3c8.237,0.601,14.038,0.9,17.397,0.9c0.92,0,1.65-0.271,2.191-0.812
	c0.539-0.539,0.809-1.27,0.809-2.188v-5.4c-3.879,0.802-7.279,1.2-10.199,1.2h-4.198c-2.722,0-4.9-0.818-6.541-2.46
	c-1.642-1.64-2.459-3.819-2.459-6.54v-7.8c0-3.64,0.92-6.351,2.76-8.131c1.84-1.779,4.72-2.67,8.64-2.67h11.399
	c3.92,0,6.801,0.891,8.642,2.67c1.84,1.78,2.76,4.491,2.76,8.131v21c0,3.92-0.92,6.801-2.76,8.64
	c-1.841,1.842-4.722,2.762-8.642,2.762c-5.479,0-12.08-0.4-19.799-1.201V124.3L165.95,124.3z M179.148,109.6
	c2.279,0,4.681-0.199,7.199-0.6v-6.601c0-2.399-1.199-3.6-3.6-3.6h-5.4c-2.397,0-3.6,1.2-3.6,3.6v5.101c0,0.6,0.199,1.101,0.6,1.5
	c0.4,0.4,0.9,0.6,1.5,0.6H179.148z"/>
</svg>
