<?xml version="1.0" encoding="utf-8"?>
<!-- Generator: Adobe Illustrator 16.0.0, SVG Export Plug-In . SVG Version: 6.00 Build 0)  -->
<!DOCTYPE svg PUBLIC "-//W3C//DTD SVG 1.1//EN" "http://www.w3.org/Graphics/SVG/1.1/DTD/svg11.dtd">
<svg version="1.1" id="레이어_1" xmlns="http://www.w3.org/2000/svg" xmlns:xlink="http://www.w3.org/1999/xlink" x="0px"
	 y="0px" width="259px" height="224px" viewBox="0 0 259 224" enable-background="new 0 0 259 224" xml:space="preserve">
<path fill="#727171" d="M85.7,104.2c0,3.399-1.439,6.34-4.32,8.819c-0.88,0.76-1.84,1.521-2.88,2.279L65.601,124.6h20.1v8.4h-32.4
	v-11.398L74.9,106v-3c0-2.4-1.2-3.601-3.6-3.601H54.5V91h19.2c4.2,0,7.25,0.95,9.15,2.85c1.899,1.9,2.85,4.95,2.85,9.15V104.2z"/>
<path fill="#727171" d="M125.3,121.602c0,4.198-0.95,7.25-2.85,9.148c-1.9,1.9-4.95,2.852-9.15,2.852h-11.4
	c-4.2,0-7.251-0.951-9.15-2.852c-1.9-1.898-2.85-4.95-2.85-9.148V102.4c0-4.199,0.949-7.249,2.85-9.149
	c1.899-1.899,4.95-2.851,9.15-2.851h11.4c4.2,0,7.25,0.951,9.15,2.851c1.899,1.9,2.85,4.95,2.85,9.149V121.602z M114.5,102.399
	c0-2.399-1.2-3.6-3.6-3.6h-6.6c-2.399,0-3.6,1.2-3.6,3.6V121.6c0,2.399,1.2,3.601,3.6,3.601h6.601c2.399,0,3.6-1.2,3.6-3.601
	L114.5,102.399L114.5,102.399z"/>
<path fill="#727171" d="M165.5,121.602c0,4.198-0.951,7.25-2.85,9.148c-1.9,1.9-4.951,2.852-9.15,2.852h-11.4
	c-4.199,0-7.25-0.951-9.149-2.852c-1.9-1.898-2.851-4.95-2.851-9.148V102.4c0-4.199,0.949-7.249,2.851-9.149
	c1.899-1.899,4.95-2.851,9.149-2.851h11.4c4.199,0,7.25,0.951,9.15,2.851c1.897,1.9,2.85,4.95,2.85,9.149V121.602z M154.699,102.399
	c0-2.399-1.199-3.6-3.6-3.6h-6.601c-2.399,0-3.601,1.2-3.601,3.6V121.6c0,2.399,1.199,3.601,3.601,3.601h6.601
	c2.399,0,3.6-1.2,3.6-3.601V102.399z"/>
<path fill="#727171" d="M205.699,121.602c0,4.198-0.949,7.25-2.85,9.148c-1.9,1.9-4.949,2.852-9.15,2.852h-11.398
	c-4.201,0-7.252-0.951-9.15-2.852c-1.899-1.898-2.85-4.95-2.85-9.148V102.4c0-4.199,0.949-7.249,2.85-9.149
	c1.898-1.899,4.949-2.851,9.15-2.851h11.398c4.201,0,7.25,0.951,9.15,2.851c1.899,1.9,2.85,4.95,2.85,9.149V121.602z M194.9,102.399
	c0-2.399-1.201-3.6-3.601-3.6h-6.603c-2.397,0-3.6,1.2-3.6,3.6V121.6c0,2.399,1.201,3.601,3.6,3.601h6.603
	c2.397,0,3.601-1.2,3.601-3.601V102.399z"/>
</svg>
