<?xml version="1.0" encoding="utf-8"?>
<!-- Generator: Adobe Illustrator 16.0.0, SVG Export Plug-In . SVG Version: 6.00 Build 0)  -->
<!DOCTYPE svg PUBLIC "-//W3C//DTD SVG 1.1//EN" "http://www.w3.org/Graphics/SVG/1.1/DTD/svg11.dtd">
<svg version="1.1" id="레이어_1" xmlns="http://www.w3.org/2000/svg" xmlns:xlink="http://www.w3.org/1999/xlink" x="0px"
	 y="0px" width="259px" height="224px" viewBox="0 0 259 224" enable-background="new 0 0 259 224" xml:space="preserve">
<path fill="#727171" d="M87.801,104.2c0,3.399-1.44,6.34-4.32,8.819c-0.88,0.76-1.84,1.521-2.88,2.279l-12.9,9.301h20.1v8.4h-32.4
	v-11.398L77,106v-3c0-2.4-1.2-3.601-3.6-3.601H56.6V91h19.2c4.2,0,7.25,0.95,9.15,2.85c1.899,1.9,2.85,4.95,2.85,9.15L87.801,104.2
	L87.801,104.2z"/>
<path fill="#727171" d="M127.4,121.602c0,4.198-0.95,7.25-2.85,9.148c-1.9,1.9-4.95,2.852-9.15,2.852H104
	c-4.2,0-7.25-0.951-9.15-2.852c-1.9-1.898-2.85-4.95-2.85-9.148V102.4c0-4.199,0.95-7.249,2.85-9.149
	C96.749,91.352,99.8,90.4,104,90.4h11.4c4.2,0,7.25,0.951,9.15,2.851c1.899,1.9,2.85,4.95,2.85,9.149V121.602z M116.601,102.399
	c0-2.399-1.2-3.6-3.6-3.6h-6.6c-2.4,0-3.6,1.2-3.6,3.6V121.6c0,2.399,1.2,3.601,3.6,3.601h6.6c2.4,0,3.6-1.2,3.6-3.601V102.399z"/>
<path fill="#727171" d="M167.602,121.602c0,4.198-0.951,7.25-2.85,9.148c-1.9,1.9-4.951,2.852-9.15,2.852h-11.399
	c-4.201,0-7.252-0.951-9.149-2.852c-1.9-1.898-2.851-4.95-2.851-9.148V102.4c0-4.199,0.948-7.249,2.851-9.149
	c1.897-1.899,4.948-2.851,9.149-2.851h11.399c4.199,0,7.25,0.951,9.15,2.851c1.898,1.9,2.85,4.95,2.85,9.149V121.602z
	 M156.801,102.399c0-2.399-1.199-3.6-3.6-3.6h-6.6c-2.4,0-3.601,1.2-3.601,3.6V121.6c0,2.399,1.199,3.601,3.601,3.601h6.6
	c2.4,0,3.6-1.2,3.6-3.601V102.399z"/>
<path fill="#727171" d="M203.6,104.2c0,3.399-1.438,6.34-4.317,8.819c-0.882,0.76-1.843,1.521-2.882,2.279l-12.899,9.301h20.101v8.4
	h-32.398v-11.398l21.6-15.602v-3c0-2.4-1.201-3.601-3.6-3.601H172.4V91H191.6c4.201,0,7.25,0.95,9.15,2.85s2.85,4.95,2.85,9.15
	V104.2z"/>
</svg>
