<?xml version="1.0" encoding="utf-8"?>
<!-- Generator: Adobe Illustrator 16.0.0, SVG Export Plug-In . SVG Version: 6.00 Build 0)  -->
<!DOCTYPE svg PUBLIC "-//W3C//DTD SVG 1.1//EN" "http://www.w3.org/Graphics/SVG/1.1/DTD/svg11.dtd">
<svg version="1.1" id="레이어_1" xmlns="http://www.w3.org/2000/svg" xmlns:xlink="http://www.w3.org/1999/xlink" x="0px"
	 y="0px" width="259px" height="224px" viewBox="0 0 259 224" enable-background="new 0 0 259 224" xml:space="preserve">
<path fill="#727171" d="M87.201,104.2c0,3.399-1.44,6.34-4.32,8.819C82,113.779,81.04,114.54,80,115.3l-12.9,9.302h20.1V133H54.8
	v-11.398L76.4,106v-3c0-2.4-1.2-3.601-3.6-3.601H56V91h19.2c4.2,0,7.25,0.95,9.15,2.85c1.899,1.9,2.85,4.95,2.85,9.15L87.201,104.2
	L87.201,104.2z"/>
<path fill="#727171" d="M126.8,121.602c0,4.198-0.95,7.25-2.85,9.148c-1.9,1.9-4.95,2.852-9.15,2.852h-11.4
	c-4.2,0-7.25-0.951-9.15-2.852c-1.9-1.898-2.85-4.95-2.85-9.148V102.4c0-4.199,0.95-7.249,2.85-9.149
	c1.899-1.899,4.95-2.851,9.15-2.851h11.4c4.2,0,7.25,0.951,9.15,2.851c1.899,1.9,2.85,4.95,2.85,9.149V121.602z M116,102.399
	c0-2.399-1.2-3.6-3.6-3.6h-6.6c-2.4,0-3.6,1.2-3.6,3.6V121.6c0,2.399,1.2,3.601,3.6,3.601h6.6c2.4,0,3.6-1.2,3.6-3.601V102.399z"/>
<path fill="#727171" d="M167,121.602c0,4.198-0.949,7.25-2.85,9.148c-1.9,1.9-4.949,2.852-9.15,2.852h-11.398
	c-4.201,0-7.252-0.951-9.15-2.852c-1.9-1.898-2.852-4.95-2.852-9.148V102.4c0-4.199,0.95-7.249,2.852-9.149
	c1.898-1.899,4.949-2.851,9.15-2.851H155c4.201,0,7.25,0.951,9.15,2.851c1.899,1.9,2.85,4.95,2.85,9.149V121.602z M156.201,102.399
	c0-2.399-1.201-3.6-3.6-3.6H146c-2.398,0-3.6,1.2-3.6,3.6V121.6c0,2.399,1.201,3.601,3.6,3.601h6.602c2.398,0,3.601-1.2,3.601-3.601
	L156.201,102.399L156.201,102.399z"/>
<path fill="#727171" d="M192.801,133.602c-6.682,0-14.082-0.4-22.201-1.201V124.3c8.84,0.601,15.439,0.9,19.801,0.9
	c0.92,0,1.65-0.271,2.189-0.812c0.541-0.539,0.811-1.27,0.811-2.188v-3c0-2.4-1.2-3.601-3.6-3.601h-17.4V91h28.8v8.399h-18v7.801
	h9.602c3.919,0,6.8,0.891,8.64,2.67c1.84,1.78,2.76,4.489,2.76,8.13v4.2c0,3.92-0.92,6.801-2.76,8.64
	C199.6,132.682,196.719,133.602,192.801,133.602z"/>
</svg>
