<?xml version="1.0" encoding="utf-8"?>
<!-- Generator: Adobe Illustrator 16.0.0, SVG Export Plug-In . SVG Version: 6.00 Build 0)  -->
<!DOCTYPE svg PUBLIC "-//W3C//DTD SVG 1.1//EN" "http://www.w3.org/Graphics/SVG/1.1/DTD/svg11.dtd">
<svg version="1.1" id="레이어_1" xmlns="http://www.w3.org/2000/svg" xmlns:xlink="http://www.w3.org/1999/xlink" x="0px"
	 y="0px" width="259px" height="224px" viewBox="0 0 259 224" enable-background="new 0 0 259 224" xml:space="preserve">
<path fill="#727171" d="M86.301,104.2c0,3.399-1.44,6.34-4.32,8.819c-0.88,0.76-1.841,1.521-2.88,2.279l-12.9,9.301h20.101v8.4H53.9
	v-11.398L75.5,106v-3c0-2.4-1.199-3.601-3.6-3.601H55.1V91h19.2c4.199,0,7.249,0.95,9.149,2.85c1.899,1.9,2.851,4.95,2.851,9.15
	L86.301,104.2L86.301,104.2z"/>
<path fill="#727171" d="M125.9,121.602c0,4.198-0.95,7.25-2.85,9.148c-1.9,1.9-4.95,2.852-9.15,2.852h-11.4
	c-4.199,0-7.25-0.951-9.149-2.852c-1.9-1.898-2.851-4.95-2.851-9.148V102.4c0-4.199,0.95-7.249,2.851-9.149
	c1.899-1.899,4.95-2.851,9.149-2.851h11.4c4.2,0,7.25,0.951,9.15,2.851c1.899,1.9,2.85,4.95,2.85,9.149V121.602z M115.101,102.399
	c0-2.399-1.2-3.6-3.601-3.6h-6.6c-2.4,0-3.6,1.2-3.6,3.6V121.6c0,2.399,1.199,3.601,3.6,3.601h6.6c2.4,0,3.601-1.2,3.601-3.601
	V102.399z"/>
<path fill="#727171" d="M166.1,121.602c0,4.198-0.949,7.25-2.85,9.148c-1.9,1.9-4.949,2.852-9.15,2.852h-11.397
	c-4.201,0-7.252-0.951-9.149-2.852c-1.9-1.898-2.852-4.95-2.852-9.148V102.4c0-4.199,0.949-7.249,2.852-9.149
	c1.897-1.899,4.948-2.851,9.149-2.851H154.1c4.201,0,7.25,0.951,9.15,2.851s2.85,4.95,2.85,9.149V121.602z M155.301,102.399
	c0-2.399-1.201-3.6-3.6-3.6H145.1c-2.397,0-3.6,1.2-3.6,3.6V121.6c0,2.399,1.201,3.601,3.6,3.601h6.603
	c2.397,0,3.601-1.2,3.601-3.601v-19.201H155.301z"/>
<path fill="#727171" d="M182.301,90.399c5.479,0,12.08,0.4,19.799,1.2V99.7c-2.199-0.12-4.07-0.23-5.608-0.33
	c-1.541-0.1-2.802-0.181-3.779-0.24c-0.979-0.061-1.951-0.13-2.91-0.21c-1.602-0.08-3.079-0.12-4.438-0.12c-2.441,0-3.66,1-3.66,3
	v5.4c3.879-0.8,7.279-1.2,10.199-1.2h4.199c2.721,0,4.899,0.82,6.541,2.46c1.639,1.641,2.459,3.82,2.459,6.54v7.8
	c0,3.642-0.92,6.351-2.761,8.132c-1.84,1.778-4.719,2.67-8.639,2.67h-11.4c-3.922,0-6.801-0.892-8.641-2.67
	c-1.841-1.781-2.761-4.49-2.761-8.132v-21c0-3.92,0.92-6.8,2.761-8.64C175.501,91.32,178.379,90.399,182.301,90.399z M188.9,114.398
	c-1.521,0-2.91,0.082-4.17,0.24c-1.26,0.16-2.271,0.28-3.029,0.36v6.601c0,2.399,1.199,3.601,3.6,3.601h5.4
	c2.398,0,3.6-1.2,3.6-3.601v-5.1c0-0.602-0.201-1.1-0.6-1.5c-0.4-0.398-0.9-0.602-1.5-0.602H188.9z"/>
</svg>
