<?xml version="1.0" encoding="utf-8"?>
<!-- Generator: Adobe Illustrator 16.0.0, SVG Export Plug-In . SVG Version: 6.00 Build 0)  -->
<!DOCTYPE svg PUBLIC "-//W3C//DTD SVG 1.1//EN" "http://www.w3.org/Graphics/SVG/1.1/DTD/svg11.dtd">
<svg version="1.1" id="레이어_1" xmlns="http://www.w3.org/2000/svg" xmlns:xlink="http://www.w3.org/1999/xlink" x="0px"
	 y="0px" width="259px" height="224px" viewBox="0 0 259 224" enable-background="new 0 0 259 224" xml:space="preserve">
<path fill="#727171" d="M88.7,104.2c0,3.399-1.44,6.34-4.32,8.819c-0.88,0.76-1.841,1.521-2.88,2.279L68.6,124.6h20.1v8.4H56.3
	v-11.398L77.899,106v-3c0-2.4-1.199-3.601-3.6-3.601H57.5V91h19.2c4.199,0,7.249,0.95,9.149,2.85c1.899,1.9,2.851,4.95,2.851,9.15
	V104.2z"/>
<path fill="#727171" d="M128.3,121.602c0,4.198-0.95,7.25-2.85,9.148c-1.9,1.9-4.95,2.852-9.15,2.852h-11.4
	c-4.199,0-7.25-0.951-9.149-2.852c-1.9-1.898-2.851-4.95-2.851-9.148V102.4c0-4.199,0.95-7.249,2.851-9.149
	c1.899-1.899,4.95-2.851,9.149-2.851h11.4c4.2,0,7.25,0.951,9.15,2.851c1.899,1.9,2.85,4.95,2.85,9.149V121.602z M117.5,102.399
	c0-2.399-1.2-3.6-3.601-3.6h-6.6c-2.4,0-3.6,1.2-3.6,3.6V121.6c0,2.399,1.199,3.601,3.6,3.601h6.6c2.4,0,3.601-1.2,3.601-3.601
	V102.399z"/>
<path fill="#727171" d="M168.499,121.602c0,4.198-0.949,7.25-2.851,9.148c-1.899,1.9-4.948,2.852-9.149,2.852h-11.397
	c-4.201,0-7.252-0.951-9.15-2.852c-1.9-1.898-2.852-4.95-2.852-9.148V102.4c0-4.199,0.95-7.249,2.852-9.149
	c1.898-1.899,4.949-2.851,9.15-2.851h11.397c4.201,0,7.25,0.951,9.149,2.851c1.9,1.9,2.851,4.95,2.851,9.149V121.602z
	 M157.7,102.399c0-2.399-1.201-3.6-3.601-3.6h-6.602c-2.398,0-3.6,1.2-3.6,3.6V121.6c0,2.399,1.201,3.601,3.6,3.601h6.602
	c2.398,0,3.601-1.2,3.601-3.601V102.399z"/>
<path fill="#727171" d="M170.3,91h32.4v8.399L188.9,133h-12L191.3,99.399h-21V91z"/>
</svg>
