<?xml version="1.0" encoding="utf-8"?>
<!-- Generator: Adobe Illustrator 16.0.0, SVG Export Plug-In . SVG Version: 6.00 Build 0)  -->
<!DOCTYPE svg PUBLIC "-//W3C//DTD SVG 1.1//EN" "http://www.w3.org/Graphics/SVG/1.1/DTD/svg11.dtd">
<svg version="1.1" id="레이어_1" xmlns="http://www.w3.org/2000/svg" xmlns:xlink="http://www.w3.org/1999/xlink" x="0px"
	 y="0px" width="259px" height="224px" viewBox="0 0 259 224" enable-background="new 0 0 259 224" xml:space="preserve">
<path fill="#727171" d="M85.399,104.2c0,3.399-1.439,6.34-4.32,8.819c-0.88,0.76-1.84,1.521-2.88,2.279L65.3,124.602h20.1V133H53
	v-11.398L74.6,106v-3c0-2.4-1.2-3.601-3.6-3.601H54.199V91h19.2c4.2,0,7.25,0.95,9.15,2.85c1.899,1.9,2.85,4.95,2.85,9.15V104.2z"/>
<path fill="#727171" d="M124.999,121.602c0,4.198-0.95,7.25-2.85,9.148c-1.9,1.9-4.95,2.852-9.15,2.852H101.6
	c-4.2,0-7.251-0.951-9.15-2.852c-1.9-1.898-2.85-4.95-2.85-9.148V102.4c0-4.199,0.949-7.249,2.85-9.149
	c1.899-1.899,4.95-2.851,9.15-2.851h11.399c4.2,0,7.25,0.951,9.15,2.851c1.899,1.9,2.85,4.95,2.85,9.149V121.602z M114.199,102.399
	c0-2.399-1.2-3.6-3.6-3.6h-6.601c-2.399,0-3.6,1.2-3.6,3.6V121.6c0,2.399,1.2,3.601,3.6,3.601h6.601c2.399,0,3.6-1.2,3.6-3.601
	V102.399z"/>
<path fill="#727171" d="M165.199,121.602c0,4.198-0.951,7.25-2.85,9.148c-1.9,1.9-4.951,2.852-9.15,2.852h-11.4
	c-4.199,0-7.25-0.951-9.15-2.852c-1.899-1.898-2.85-4.95-2.85-9.148V102.4c0-4.199,0.949-7.249,2.85-9.149
	c1.9-1.899,4.951-2.851,9.15-2.851h11.4c4.199,0,7.25,0.951,9.15,2.851c1.897,1.9,2.85,4.95,2.85,9.149V121.602z M154.398,102.399
	c0-2.399-1.199-3.6-3.601-3.6h-6.601c-2.399,0-3.6,1.2-3.6,3.6V121.6c0,2.399,1.199,3.601,3.6,3.601h6.601
	c2.399,0,3.601-1.2,3.601-3.601V102.399z"/>
<path fill="#727171" d="M206,122.2c0,3.92-0.922,6.801-2.762,8.64c-1.84,1.842-4.719,2.762-8.639,2.762h-13.802
	c-3.92,0-6.801-0.92-8.641-2.762c-1.841-1.839-2.761-4.72-2.761-8.64V121.6c0-3.039,0.761-5.561,2.281-7.561
	c1.199-1.6,2.84-2.68,4.92-3.24c-1.801-0.6-3.25-1.65-4.35-3.15c-1.102-1.5-1.65-3.449-1.65-5.85v-0.6c0-3.64,0.92-6.351,2.76-8.131
	c1.841-1.779,4.72-2.67,8.642-2.67h11.397c3.92,0,6.802,0.891,8.642,2.67c1.84,1.78,2.76,4.491,2.76,8.131v0.6
	c0,2.4-0.551,4.35-1.649,5.85c-1.1,1.5-2.549,2.551-4.351,3.15c3.24,0.88,5.438,3.04,6.601,6.48c0.399,1.24,0.602,2.68,0.602,4.32
	V122.2L206,122.2z M183.799,116.2c-2.4,0-3.6,1.198-3.6,3.6v2.4c0,0.92,0.27,1.649,0.811,2.188c0.539,0.541,1.27,0.812,2.189,0.812
	h9c0.92,0,1.65-0.271,2.189-0.812c0.541-0.539,0.811-1.27,0.811-2.188v-2.4c0-2.399-1.199-3.6-3.6-3.6H183.799z M185,98.8
	c-2.4,0-3.602,1.2-3.602,3.6v1.801c0,2.399,1.201,3.6,3.602,3.6h5.398c2.399,0,3.602-1.2,3.602-3.6V102.4
	c0-2.399-1.201-3.6-3.602-3.6H185z"/>
</svg>
