<?xml version="1.0" encoding="utf-8"?>
<!-- Generator: Adobe Illustrator 16.0.0, SVG Export Plug-In . SVG Version: 6.00 Build 0)  -->
<!DOCTYPE svg PUBLIC "-//W3C//DTD SVG 1.1//EN" "http://www.w3.org/Graphics/SVG/1.1/DTD/svg11.dtd">
<svg version="1.1" id="레이어_1" xmlns="http://www.w3.org/2000/svg" xmlns:xlink="http://www.w3.org/1999/xlink" x="0px"
	 y="0px" width="259px" height="224px" viewBox="0 0 259 224" enable-background="new 0 0 259 224" xml:space="preserve">
<path fill="#727171" d="M86.9,104.2c0,3.399-1.44,6.34-4.32,8.819c-0.88,0.76-1.841,1.521-2.88,2.279L66.8,124.6h20.1v8.4H54.5
	v-11.398L76.1,106v-3c0-2.4-1.199-3.601-3.6-3.601H55.7V91h19.2c4.199,0,7.249,0.95,9.149,2.85c1.899,1.9,2.851,4.95,2.851,9.15
	V104.2z"/>
<path fill="#727171" d="M126.5,121.602c0,4.198-0.95,7.25-2.85,9.148c-1.9,1.9-4.95,2.852-9.15,2.852h-11.4
	c-4.199,0-7.25-0.951-9.149-2.852c-1.9-1.898-2.851-4.95-2.851-9.148V102.4c0-4.199,0.95-7.249,2.851-9.149
	c1.899-1.899,4.95-2.851,9.149-2.851h11.4c4.2,0,7.25,0.951,9.15,2.851c1.899,1.9,2.85,4.95,2.85,9.149V121.602z M115.7,102.399
	c0-2.399-1.2-3.6-3.601-3.6h-6.6c-2.4,0-3.6,1.2-3.6,3.6V121.6c0,2.399,1.199,3.601,3.6,3.601h6.6c2.4,0,3.601-1.2,3.601-3.601
	V102.399z"/>
<path fill="#727171" d="M166.699,121.602c0,4.198-0.949,7.25-2.85,9.148c-1.9,1.9-4.949,2.852-9.15,2.852h-11.398
	c-4.201,0-7.252-0.951-9.15-2.852c-1.899-1.898-2.851-4.95-2.851-9.148V102.4c0-4.199,0.95-7.249,2.851-9.149
	c1.898-1.899,4.949-2.851,9.15-2.851h11.398c4.201,0,7.25,0.951,9.15,2.851c1.899,1.9,2.85,4.95,2.85,9.149V121.602z M155.9,102.399
	c0-2.399-1.201-3.6-3.601-3.6h-6.603c-2.397,0-3.6,1.2-3.6,3.6V121.6c0,2.399,1.201,3.601,3.6,3.601h6.603
	c2.397,0,3.601-1.2,3.601-3.601V102.399z"/>
<path fill="#727171" d="M173.301,124.3c8.238,0.601,14.039,0.9,17.398,0.9c0.92,0,1.65-0.271,2.191-0.812
	c0.539-0.539,0.809-1.27,0.809-2.188v-5.4c-3.879,0.802-7.279,1.2-10.199,1.2h-4.199c-2.721,0-4.9-0.818-6.541-2.46
	c-1.641-1.64-2.459-3.819-2.459-6.54v-7.8c0-3.64,0.92-6.351,2.76-8.131c1.84-1.779,4.719-2.67,8.64-2.67H193.1
	c3.92,0,6.801,0.891,8.642,2.67c1.84,1.78,2.76,4.491,2.76,8.131v21c0,3.92-0.92,6.801-2.76,8.64
	c-1.841,1.842-4.722,2.762-8.642,2.762c-5.479,0-12.08-0.4-19.799-1.201V124.3L173.301,124.3z M186.5,109.6
	c2.279,0,4.68-0.199,7.199-0.6v-6.601c0-2.399-1.199-3.6-3.6-3.6h-5.4c-2.398,0-3.6,1.2-3.6,3.6v5.101c0,0.6,0.198,1.101,0.6,1.5
	c0.4,0.4,0.9,0.6,1.5,0.6H186.5z"/>
</svg>
