<?xml version="1.0" encoding="utf-8"?>
<!-- Generator: Adobe Illustrator 16.0.0, SVG Export Plug-In . SVG Version: 6.00 Build 0)  -->
<!DOCTYPE svg PUBLIC "-//W3C//DTD SVG 1.1//EN" "http://www.w3.org/Graphics/SVG/1.1/DTD/svg11.dtd">
<svg version="1.1" id="레이어_1" xmlns="http://www.w3.org/2000/svg" xmlns:xlink="http://www.w3.org/1999/xlink" x="0px"
	 y="0px" width="259px" height="224px" viewBox="0 0 259 224" enable-background="new 0 0 259 224" xml:space="preserve">
<path fill="#727171" d="M95.75,104.2c0,3.4-1.439,6.34-4.32,8.819c-0.88,0.76-1.84,1.521-2.88,2.279L75.651,124.6h20.1v8.399h-32.4
	V121.6l21.6-15.601v-3c0-2.4-1.2-3.6-3.6-3.6H64.55V91h19.2c4.2,0,7.25,0.951,9.15,2.85c1.899,1.9,2.85,4.95,2.85,9.15V104.2z"/>
<path fill="#727171" d="M135.35,121.6c0,4.2-0.949,7.252-2.85,9.15c-1.9,1.9-4.95,2.85-9.15,2.85h-11.4
	c-4.2,0-7.251-0.949-9.15-2.85c-1.9-1.898-2.85-4.95-2.85-9.15v-19.2c0-4.2,0.949-7.25,2.85-9.15c1.899-1.899,4.95-2.85,9.15-2.85
	h11.399c4.2,0,7.25,0.951,9.15,2.85c1.899,1.9,2.851,4.95,2.851,9.15V121.6L135.35,121.6z M124.55,102.4c0-2.4-1.2-3.6-3.6-3.6
	h-6.601c-2.399,0-3.6,1.2-3.6,3.6v19.2c0,2.4,1.2,3.602,3.6,3.602h6.601c2.399,0,3.6-1.2,3.6-3.602V102.4z"/>
<path fill="#727171" d="M147.648,133v-32.7l-6.898,2.4l-3-6.9l11.1-4.8h9.602v42H147.648z"/>
<path fill="#727171" d="M195.648,104.2c0,3.4-1.438,6.34-4.319,8.819c-0.88,0.76-1.841,1.521-2.88,2.279L175.55,124.6h20.101v8.399
	h-32.4V121.6l21.6-15.601v-3c0-2.4-1.199-3.6-3.6-3.6h-16.801V91h19.199c4.201,0,7.25,0.951,9.15,2.85
	c1.899,1.9,2.85,4.95,2.85,9.15V104.2z"/>
</svg>
