<?xml version="1.0" encoding="utf-8"?>
<!-- Generator: Adobe Illustrator 16.0.0, SVG Export Plug-In . SVG Version: 6.00 Build 0)  -->
<!DOCTYPE svg PUBLIC "-//W3C//DTD SVG 1.1//EN" "http://www.w3.org/Graphics/SVG/1.1/DTD/svg11.dtd">
<svg version="1.1" id="레이어_1" xmlns="http://www.w3.org/2000/svg" xmlns:xlink="http://www.w3.org/1999/xlink" x="0px"
	 y="0px" width="259px" height="224px" viewBox="0 0 259 224" enable-background="new 0 0 259 224" xml:space="preserve">
<path fill="#727171" d="M95.15,104.2c0,3.4-1.44,6.34-4.32,8.819c-0.88,0.76-1.84,1.521-2.88,2.279l-12.9,9.301h20.1v8.399h-32.4
	V121.6l21.6-15.601v-3c0-2.4-1.2-3.6-3.6-3.6h-16.8V91h19.2c4.2,0,7.25,0.951,9.15,2.85c1.899,1.9,2.85,4.95,2.85,9.15V104.2z"/>
<path fill="#727171" d="M134.75,121.6c0,4.2-0.95,7.252-2.85,9.15c-1.9,1.9-4.95,2.85-9.15,2.85h-11.4c-4.2,0-7.25-0.949-9.15-2.85
	c-1.9-1.898-2.85-4.95-2.85-9.15v-19.2c0-4.2,0.95-7.25,2.85-9.15c1.899-1.899,4.95-2.85,9.15-2.85h11.4c4.2,0,7.25,0.951,9.15,2.85
	c1.898,1.9,2.85,4.95,2.85,9.15V121.6z M123.95,102.4c0-2.4-1.2-3.6-3.6-3.6h-6.6c-2.4,0-3.6,1.2-3.6,3.6v19.2
	c0,2.4,1.2,3.602,3.6,3.602h6.6c2.4,0,3.6-1.2,3.6-3.602V102.4z"/>
<path fill="#727171" d="M147.05,133v-32.7l-6.899,2.4l-3-6.9l11.101-4.8h9.601v42H147.05z"/>
<path fill="#727171" d="M184.85,133.6c-6.681,0-14.08-0.399-22.199-1.199V124.3c8.84,0.601,15.439,0.9,19.8,0.9
	c0.92,0,1.649-0.271,2.19-0.81c0.539-0.541,0.81-1.271,0.81-2.19v-2.4c0-2.399-1.199-3.6-3.601-3.6h-12.6v-8.4h11.4
	c2.398,0,3.6-1.2,3.6-3.6V103c0-2.4-1.2-3.6-3.6-3.6h-17.4V91h20.4c3.918,0,6.799,0.891,8.639,2.67
	c1.84,1.78,2.761,4.491,2.761,8.13c0,2.4-0.55,4.35-1.649,5.85c-1.102,1.5-2.551,2.55-4.351,3.15c3.239,0.88,5.438,3.04,6.601,6.479
	c0.398,1.24,0.601,2.682,0.601,4.32v0.601c0,3.921-0.921,6.8-2.76,8.64C191.648,132.68,188.77,133.6,184.85,133.6z"/>
</svg>
