<?xml version="1.0" encoding="utf-8"?>
<!-- Generator: Adobe Illustrator 16.0.0, SVG Export Plug-In . SVG Version: 6.00 Build 0)  -->
<!DOCTYPE svg PUBLIC "-//W3C//DTD SVG 1.1//EN" "http://www.w3.org/Graphics/SVG/1.1/DTD/svg11.dtd">
<svg version="1.1" id="레이어_1" xmlns="http://www.w3.org/2000/svg" xmlns:xlink="http://www.w3.org/1999/xlink" x="0px"
	 y="0px" width="259px" height="224px" viewBox="0 0 259 224" enable-background="new 0 0 259 224" xml:space="preserve">
<path fill="#727171" d="M93.351,104.2c0,3.4-1.44,6.34-4.32,8.819c-0.88,0.76-1.841,1.521-2.88,2.279l-12.9,9.301h20.101v8.399
	h-32.4V121.6l21.6-15.601v-3c0-2.4-1.199-3.6-3.6-3.6h-16.8V91h19.2c4.199,0,7.249,0.951,9.149,2.85
	c1.899,1.9,2.851,4.95,2.851,9.15L93.351,104.2L93.351,104.2z"/>
<path fill="#727171" d="M132.95,121.6c0,4.2-0.95,7.252-2.851,9.15c-1.899,1.9-4.95,2.85-9.149,2.85h-11.4
	c-4.199,0-7.25-0.949-9.149-2.85c-1.9-1.898-2.851-4.95-2.851-9.15v-19.2c0-4.2,0.95-7.25,2.851-9.15
	c1.899-1.899,4.95-2.85,9.149-2.85h11.4c4.2,0,7.25,0.951,9.149,2.85c1.899,1.9,2.851,4.95,2.851,9.15V121.6z M122.15,102.4
	c0-2.4-1.2-3.6-3.601-3.6h-6.6c-2.4,0-3.6,1.2-3.6,3.6v19.2c0,2.4,1.199,3.602,3.6,3.602h6.6c2.4,0,3.601-1.2,3.601-3.602V102.4z"/>
<path fill="#727171" d="M145.25,133v-32.7l-6.9,2.4l-3-6.9L146.45,91h9.6v42H145.25z"/>
<path fill="#727171" d="M183.05,124.6h-22.2V116.2l14.4-25.2h12l-14.4,25.2h10.2v-9h10.8v9h4.2v8.399h-4.2v8.399h-10.8V124.6z"/>
</svg>
