<?xml version="1.0" encoding="utf-8"?>
<!-- Generator: Adobe Illustrator 16.0.0, SVG Export Plug-In . SVG Version: 6.00 Build 0)  -->
<!DOCTYPE svg PUBLIC "-//W3C//DTD SVG 1.1//EN" "http://www.w3.org/Graphics/SVG/1.1/DTD/svg11.dtd">
<svg version="1.1" id="레이어_1" xmlns="http://www.w3.org/2000/svg" xmlns:xlink="http://www.w3.org/1999/xlink" x="0px"
	 y="0px" width="259px" height="224px" viewBox="0 0 259 224" enable-background="new 0 0 259 224" xml:space="preserve">
<path fill="#727171" d="M94.25,104.2c0,3.4-1.439,6.34-4.32,8.819c-0.88,0.76-1.84,1.521-2.88,2.279L74.151,124.6h20.1v8.399h-32.4
	V121.6l21.6-15.601v-3c0-2.4-1.2-3.6-3.6-3.6H63.05V91h19.2c4.2,0,7.25,0.951,9.15,2.85c1.899,1.9,2.85,4.95,2.85,9.15V104.2z"/>
<path fill="#727171" d="M133.85,121.6c0,4.2-0.949,7.252-2.85,9.15c-1.9,1.9-4.95,2.85-9.15,2.85h-11.4
	c-4.2,0-7.251-0.949-9.15-2.85c-1.9-1.898-2.85-4.95-2.85-9.15v-19.2c0-4.2,0.949-7.25,2.85-9.15c1.899-1.899,4.95-2.85,9.15-2.85
	h11.399c4.2,0,7.25,0.951,9.15,2.85c1.899,1.9,2.851,4.95,2.851,9.15V121.6L133.85,121.6z M123.05,102.4c0-2.4-1.2-3.6-3.6-3.6
	h-6.601c-2.399,0-3.6,1.2-3.6,3.6v19.2c0,2.4,1.2,3.602,3.6,3.602h6.601c2.399,0,3.6-1.2,3.6-3.602V102.4z"/>
<path fill="#727171" d="M146.148,133v-32.7l-6.898,2.4l-3-6.9l11.1-4.8h9.602v42H146.148z"/>
<path fill="#727171" d="M174.35,90.4c5.479,0,12.08,0.4,19.801,1.2v8.1c-2.2-0.12-4.07-0.23-5.609-0.33
	c-1.541-0.1-2.801-0.18-3.779-0.24c-0.98-0.06-1.951-0.129-2.91-0.21c-1.602-0.08-3.082-0.12-4.44-0.12c-2.438,0-3.659,1-3.659,3
	v5.4c3.879-0.8,7.279-1.2,10.199-1.2h4.199c2.721,0,4.899,0.82,6.541,2.46c1.64,1.641,2.459,3.82,2.459,6.54v7.8
	c0,3.642-0.92,6.351-2.76,8.13c-1.841,1.781-4.721,2.67-8.64,2.67h-11.399c-3.922,0-6.802-0.889-8.641-2.67
	c-1.841-1.779-2.761-4.488-2.761-8.13v-21c0-3.919,0.92-6.799,2.761-8.64C167.549,91.321,170.43,90.4,174.35,90.4z M180.949,114.4
	c-1.521,0-2.909,0.08-4.17,0.24c-1.26,0.159-2.271,0.278-3.029,0.358v6.601c0,2.399,1.199,3.601,3.6,3.601h5.4
	c2.398,0,3.6-1.2,3.6-3.601v-5.101c0-0.601-0.199-1.101-0.6-1.5s-0.9-0.601-1.5-0.601h-3.301V114.4z"/>
</svg>
