<?xml version="1.0" encoding="utf-8"?>
<!-- Generator: Adobe Illustrator 16.0.0, SVG Export Plug-In . SVG Version: 6.00 Build 0)  -->
<!DOCTYPE svg PUBLIC "-//W3C//DTD SVG 1.1//EN" "http://www.w3.org/Graphics/SVG/1.1/DTD/svg11.dtd">
<svg version="1.1" id="레이어_1" xmlns="http://www.w3.org/2000/svg" xmlns:xlink="http://www.w3.org/1999/xlink" x="0px"
	 y="0px" width="259px" height="224px" viewBox="0 0 259 224" enable-background="new 0 0 259 224" xml:space="preserve">
<path fill="#727171" d="M101.28,123.9h-6.63l9.01-23.8h6.801l9.01,23.8h-6.63l-1.53-4.25h-8.5L101.28,123.9z M104.341,115.23h5.439
	l-2.72-7.992L104.341,115.23z"/>
<path fill="#727171" d="M121.17,100.1h14.28c2.38,0,4.108,0.539,5.185,1.615c1.077,1.077,1.615,2.805,1.615,5.185v3.06
	c0,1.882-0.313,3.345-0.936,4.386c-0.623,1.043-1.614,1.734-2.976,2.074l4.25,7.48h-6.629l-3.91-7.142h-4.761v7.142h-6.12
	L121.17,100.1L121.17,100.1z M136.131,106.9c0-1.36-0.681-2.04-2.041-2.04h-6.8V112h6.8c1.36,0,2.041-0.68,2.041-2.04V106.9z"/>
<path fill="#727171" d="M157.21,123.9h-6.12V104.86h-7.141v-4.76h20.4v4.76h-7.141L157.21,123.9L157.21,123.9z"/>
</svg>
