<?xml version="1.0" encoding="utf-8"?>
<!-- Generator: Adobe Illustrator 16.0.0, SVG Export Plug-In . SVG Version: 6.00 Build 0)  -->
<!DOCTYPE svg PUBLIC "-//W3C//DTD SVG 1.1//EN" "http://www.w3.org/Graphics/SVG/1.1/DTD/svg11.dtd">
<svg version="1.1" id="레이어_1" xmlns="http://www.w3.org/2000/svg" xmlns:xlink="http://www.w3.org/1999/xlink" x="0px"
	 y="0px" width="259px" height="224px" viewBox="0 0 259 224" enable-background="new 0 0 259 224" xml:space="preserve">
<path fill="#727171" d="M19.8,125.8H12l10.6-28h8l10.6,28h-7.8l-1.8-5h-10L19.8,125.8z M23.4,115.6h6.4l-3.2-9.399L23.4,115.6z"/>
<path fill="#727171" d="M60.4,97.8h7.2v20.4c0,2.8-0.634,4.833-1.9,6.1c-1.267,1.267-3.3,1.9-6.1,1.9h-9.2
	c-2.8,0-4.833-0.634-6.1-1.9c-1.267-1.266-1.9-3.3-1.9-6.1V97.8h7.2v20.4c0,1.6,0.8,2.399,2.4,2.399h6c1.6,0,2.4-0.801,2.4-2.399
	V97.8z"/>
<path fill="#727171" d="M71.561,120c7.306,0.398,12.253,0.6,14.84,0.6c0.613,0,1.1-0.18,1.46-0.539
	c0.36-0.359,0.54-0.847,0.54-1.461V115h-9.2c-2.8,0-4.834-0.633-6.1-1.9c-1.267-1.266-1.9-3.3-1.9-6.1v-1.2
	c0-2.8,0.633-4.833,1.9-6.1c1.266-1.266,3.3-1.9,6.1-1.9h14.04v5.6H80.8c-1.6,0-2.4,0.8-2.4,2.4v0.8c0,1.6,0.8,2.4,2.4,2.4H88
	c2.613,0,4.533,0.614,5.76,1.84c1.227,1.227,1.84,3.146,1.84,5.76v2c0,2.614-0.614,4.534-1.84,5.76
	c-1.227,1.229-3.146,1.842-5.76,1.842c-1.36,0-2.8-0.027-4.32-0.08L80,125.96c-2.72-0.134-5.534-0.319-8.44-0.562L71.561,120
	L71.561,120z"/>
<path fill="#727171" d="M110.801,125.8h-7.2v-22.4h-8.4v-5.6h24v5.6h-8.4V125.8z"/>
<path fill="#727171" d="M122,97.8h16.8c2.8,0,4.832,0.634,6.101,1.9c1.266,1.267,1.899,3.3,1.899,6.1v3.6
	c0,2.214-0.366,3.934-1.1,5.161c-0.734,1.227-1.9,2.039-3.5,2.439l5,8.8h-7.8L134.8,117.4h-5.6v8.399H122V97.8z M139.6,105.8
	c0-1.6-0.799-2.4-2.397-2.4h-8v8.4h8c1.601,0,2.397-0.8,2.397-2.4V105.8z"/>
<path fill="#727171" d="M155.799,125.8H148l10.6-28h8l10.601,28h-7.8l-1.801-5h-10L155.799,125.8z M159.4,115.6h6.397L162.6,106.2
	L159.4,115.6z"/>
<path fill="#727171" d="M186.4,120.2H201v5.6h-21.801v-28h7.201V120.2L186.4,120.2z"/>
<path fill="#727171" d="M217,125.8h-14.4v-5.6h3.601v-16.8H202.6v-5.6H217v5.6h-3.602v16.8H217V125.8z"/>
<path fill="#727171" d="M225.6,125.8h-7.801l10.6-28h8l10.603,28H239.2l-1.802-5h-10L225.6,125.8z M229.199,115.6h6.4l-3.201-9.399
	L229.199,115.6z"/>
</svg>
