<?xml version="1.0" encoding="utf-8"?>
<!-- Generator: Adobe Illustrator 16.0.0, SVG Export Plug-In . SVG Version: 6.00 Build 0)  -->
<!DOCTYPE svg PUBLIC "-//W3C//DTD SVG 1.1//EN" "http://www.w3.org/Graphics/SVG/1.1/DTD/svg11.dtd">
<svg version="1.1" id="레이어_1" xmlns="http://www.w3.org/2000/svg" xmlns:xlink="http://www.w3.org/1999/xlink" x="0px"
	 y="0px" width="259px" height="224px" viewBox="0 0 259 224" enable-background="new 0 0 259 224" xml:space="preserve">
<path fill="#727171" d="M32.69,97.09h16.8c2.744,0,4.76,0.624,6.049,1.869c1.287,1.246,1.932,3.144,1.932,5.691
	c0,1.68-0.364,3.045-1.092,4.095c-0.729,1.05-1.624,1.785-2.688,2.205c2.269,0.616,3.808,2.128,4.62,4.536
	c0.279,0.867,0.42,1.875,0.42,3.022c0,2.745-0.645,4.761-1.932,6.05c-1.288,1.287-3.305,1.932-6.048,1.932H32.69V97.09z
	 M49.911,105.49c0-1.681-0.841-2.521-2.521-2.521h-7.14v5.88h7.14c1.68,0,2.521-0.84,2.521-2.52V105.49z M51.171,117.25
	c0-1.68-0.84-2.52-2.521-2.52h-8.399v5.879h8.399c1.681,0,2.521-0.84,2.521-2.521V117.25z"/>
<path fill="#727171" d="M85.82,126.49H62.51v-29.4h23.31v5.88H70.07v5.67h12.391v5.879H70.07v6.092h15.75V126.49z"/>
<path fill="#727171" d="M96.74,120.609h15.33v5.881H89.18v-29.4h7.561L96.74,120.609L96.74,120.609z"/>
<path fill="#727171" d="M140.21,125.859c-6.553,0.699-12.573,1.051-18.061,1.051c-2.744,0-4.761-0.645-6.048-1.932
	c-1.288-1.289-1.932-3.305-1.932-6.049v-13.44c0-2.94,0.664-5.075,1.994-6.405c1.33-1.329,3.466-1.995,6.405-1.995h15.122v5.88
	h-13.441c-1.68,0-2.52,0.84-2.52,2.521v13.438c0,0.646,0.189,1.156,0.567,1.533c0.378,0.378,0.889,0.566,1.532,0.566
	c3.22,0,6.16-0.068,8.819-0.209v-6.09h-5.459v-5.041h13.021v16.169H140.21z"/>
<path fill="#727171" d="M158.27,126.49H143.15v-5.881h3.779V102.97h-3.779v-5.88h15.119v5.88h-3.779v17.641h3.779V126.49z"/>
<path fill="#727171" d="M180.95,97.09h7.56v21.42c0,2.94-0.664,5.076-1.994,6.405c-1.33,1.33-3.466,1.995-6.404,1.995h-9.66
	c-2.94,0-5.076-0.665-6.405-1.995c-1.331-1.329-1.995-3.465-1.995-6.405V97.09h7.561v21.42c0,1.682,0.841,2.521,2.521,2.521h6.3
	c1.682,0,2.521-0.84,2.521-2.521V97.09H180.95z"/>
<path fill="#727171" d="M218.75,110.11l-5.88,10.5h-5.882l-5.879-10.5v16.38h-7.561v-29.4h7.98l8.398,15.54l8.399-15.54h7.979v29.4
	h-7.56v-16.38H218.75z"/>
</svg>
