<?xml version="1.0" encoding="utf-8"?>
<!-- Generator: Adobe Illustrator 16.0.0, SVG Export Plug-In . SVG Version: 6.00 Build 0)  -->
<!DOCTYPE svg PUBLIC "-//W3C//DTD SVG 1.1//EN" "http://www.w3.org/Graphics/SVG/1.1/DTD/svg11.dtd">
<svg version="1.1" id="레이어_1" xmlns="http://www.w3.org/2000/svg" xmlns:xlink="http://www.w3.org/1999/xlink" x="0px"
	 y="0px" width="259px" height="224px" viewBox="0 0 259 224" enable-background="new 0 0 259 224" xml:space="preserve">
<path fill="#727171" d="M47.181,97.3h16.8c2.744,0,4.76,0.624,6.048,1.869c1.288,1.246,1.932,3.144,1.932,5.691
	c0,1.68-0.364,3.045-1.092,4.095c-0.729,1.05-1.624,1.785-2.688,2.205c2.268,0.616,3.808,2.128,4.62,4.535
	c0.279,0.869,0.42,1.877,0.42,3.023c0,2.745-0.645,4.762-1.933,6.049C70,126.057,67.984,126.7,65.24,126.7H47.18L47.181,97.3
	L47.181,97.3z M64.4,105.7c0-1.681-0.84-2.521-2.52-2.521h-7.14v5.88h7.141c1.68,0,2.52-0.84,2.52-2.52L64.4,105.7L64.4,105.7z
	 M65.66,117.46c0-1.681-0.84-2.521-2.52-2.521h-8.4v5.881h8.4c1.68,0,2.52-0.842,2.52-2.521V117.46z"/>
<path fill="#727171" d="M103.46,118.721c0,2.939-0.665,5.075-1.995,6.404c-1.33,1.33-3.465,1.995-6.404,1.995h-10.5
	c-2.94,0-5.076-0.665-6.405-1.995c-1.33-1.329-1.995-3.465-1.995-6.404V105.28c0-2.94,0.665-5.075,1.995-6.405
	c1.329-1.33,3.465-1.995,6.405-1.995h10.5c2.939,0,5.074,0.665,6.404,1.995s1.995,3.465,1.995,6.405V118.721z M95.9,105.28
	c0-1.681-0.84-2.521-2.521-2.521h-7.14c-1.68,0-2.52,0.84-2.52,2.521v13.439c0,1.682,0.84,2.521,2.52,2.521h7.14
	c1.681,0,2.521-0.84,2.521-2.521V105.28z"/>
<path fill="#727171" d="M106.778,120.609c7.671,0.42,12.865,0.631,15.582,0.631c0.644,0,1.154-0.189,1.532-0.567
	c0.378-0.377,0.567-0.889,0.567-1.532v-3.779h-9.66c-2.939,0-5.075-0.666-6.405-1.995c-1.33-1.33-1.995-3.465-1.995-6.405v-1.26
	c0-2.94,0.665-5.075,1.995-6.405c1.33-1.329,3.466-1.995,6.405-1.995h14.742v5.88h-13.063c-1.68,0-2.52,0.84-2.52,2.521v0.84
	c0,1.68,0.84,2.52,2.52,2.52h7.561c2.743,0,4.76,0.645,6.048,1.933c1.287,1.288,1.933,3.304,1.933,6.048v2.1
	c0,2.746-0.646,4.762-1.933,6.049c-1.288,1.289-3.305,1.933-6.048,1.933c-1.428,0-2.94-0.028-4.536-0.084l-3.864-0.168
	c-2.855-0.142-5.811-0.336-8.861-0.588V120.609L106.778,120.609z"/>
<path fill="#727171" d="M161.419,126.7h-7.979l-10.08-17.641V126.7h-7.56V97.3h7.979l10.08,17.642V97.3h7.56V126.7z"/>
<path fill="#727171" d="M180.318,126.7h-15.119v-5.88h3.779v-17.64h-3.779V97.3h15.119v5.88h-3.778v17.64h3.778V126.7z"/>
<path fill="#727171" d="M189.35,126.7h-8.189l11.13-29.4h8.399l11.131,29.4h-8.19l-1.89-5.25h-10.5L189.35,126.7z M193.129,115.99
	h6.721l-3.359-9.87L193.129,115.99z"/>
</svg>
