<?xml version="1.0" encoding="utf-8"?>
<!-- Generator: Adobe Illustrator 16.0.0, SVG Export Plug-In . SVG Version: 6.00 Build 0)  -->
<!DOCTYPE svg PUBLIC "-//W3C//DTD SVG 1.1//EN" "http://www.w3.org/Graphics/SVG/1.1/DTD/svg11.dtd">
<svg version="1.1" id="레이어_1" xmlns="http://www.w3.org/2000/svg" xmlns:xlink="http://www.w3.org/1999/xlink" x="0px"
	 y="0px" width="259px" height="224px" viewBox="0 0 259 224" enable-background="new 0 0 259 224" xml:space="preserve">
<path fill="#727171" d="M51.486,97.3h16.8c2.744,0,4.76,0.624,6.048,1.869c1.288,1.246,1.932,3.144,1.932,5.691
	c0,1.68-0.364,3.045-1.092,4.095c-0.729,1.05-1.624,1.785-2.688,2.205c2.268,0.616,3.808,2.128,4.62,4.535
	c0.279,0.869,0.42,1.877,0.42,3.023c0,2.745-0.645,4.762-1.932,6.049c-1.288,1.289-3.304,1.933-6.048,1.933h-18.06V97.3z
	 M68.706,105.7c0-1.681-0.84-2.521-2.52-2.521h-7.14v5.88h7.14c1.68,0,2.52-0.84,2.52-2.52V105.7z M69.966,117.46
	c0-1.681-0.84-2.521-2.52-2.521h-8.4v5.881h8.4c1.68,0,2.52-0.842,2.52-2.521V117.46z"/>
<path fill="#727171" d="M81.306,97.3h17.64c2.94,0,5.075,0.666,6.405,1.995c1.33,1.33,1.995,3.465,1.995,6.405v3.779
	c0,2.325-0.385,4.13-1.155,5.419c-0.77,1.287-1.995,2.142-3.675,2.562l5.25,9.24h-8.19l-4.83-8.82h-5.88v8.82h-7.56V97.3z
	 M99.786,105.7c0-1.681-0.84-2.521-2.52-2.521h-8.4V112h8.4c1.68,0,2.52-0.84,2.52-2.521V105.7z"/>
<path fill="#727171" d="M116.795,126.7h-8.19l11.13-29.4h8.4l11.131,29.4h-8.19l-1.889-5.25h-10.5L116.795,126.7z M120.575,115.99
	h6.72l-3.36-9.87L120.575,115.99z"/>
<path fill="#727171" d="M163.625,103.18l-14.699,17.64h14.699v5.881h-23.939v-5.881l14.699-17.64h-14.699V97.3h23.939V103.18z"/>
<path fill="#727171" d="M180.844,126.7h-15.119v-5.88h3.779v-17.64h-3.779V97.3h15.119v5.88h-3.779v17.64h3.779V126.7z"/>
<path fill="#727171" d="M192.184,120.82h15.33v5.88h-22.889V97.3h7.559V120.82z"/>
</svg>
