<?xml version="1.0" encoding="utf-8"?>
<!-- Generator: Adobe Illustrator 16.0.0, SVG Export Plug-In . SVG Version: 6.00 Build 0)  -->
<!DOCTYPE svg PUBLIC "-//W3C//DTD SVG 1.1//EN" "http://www.w3.org/Graphics/SVG/1.1/DTD/svg11.dtd">
<svg version="1.1" id="레이어_1" xmlns="http://www.w3.org/2000/svg" xmlns:xlink="http://www.w3.org/1999/xlink" x="0px"
	 y="0px" width="259px" height="224px" viewBox="0 0 259 224" enable-background="new 0 0 259 224" xml:space="preserve">
<path fill="#727171" d="M66.081,126.07c-6.245,0.56-11.424,0.84-15.54,0.84c-2.745,0-4.761-0.645-6.048-1.932
	c-1.288-1.289-1.932-3.305-1.932-6.049v-13.44c0-2.94,0.665-5.075,1.995-6.405c1.33-1.329,3.465-1.995,6.405-1.995h15.12v5.88
	h-13.44c-1.68,0-2.52,0.84-2.52,2.521v13.438c0,0.646,0.189,1.156,0.567,1.533c0.378,0.378,0.861,0.566,1.449,0.566
	c0.588,0,1.232-0.006,1.932-0.021c0.7-0.014,1.428-0.034,2.184-0.063c0.756-0.026,1.519-0.055,2.289-0.084
	c0.77-0.026,1.764-0.084,2.982-0.168c1.218-0.084,2.736-0.182,4.557-0.293V126.07L66.081,126.07z"/>
<path fill="#727171" d="M74.69,126.49H66.5l11.13-29.4h8.4l11.13,29.4h-8.19l-1.89-5.25h-10.5L74.69,126.49z M78.47,115.779h6.72
	l-3.36-9.869L78.47,115.779z"/>
<path fill="#727171" d="M124.88,126.49h-7.98l-10.08-17.641v17.641h-7.56v-29.4h7.98l10.08,17.641V97.09h7.56V126.49z"/>
<path fill="#727171" d="M135.17,126.49h-8.19l11.129-29.4h8.399l11.132,29.4h-8.191l-1.889-5.25h-10.5L135.17,126.49z
	 M138.949,115.779h6.721l-3.359-9.869L138.949,115.779z"/>
<path fill="#727171" d="M176.119,97.09c3.164,0,5.566,0.819,7.203,2.457c1.639,1.638,2.457,4.039,2.457,7.203v10.08
	c0,3.164-0.818,5.564-2.457,7.203c-1.637,1.638-4.039,2.457-7.203,2.457H159.74v-29.4H176.119z M178.221,106.75
	c0-2.52-1.26-3.78-3.781-3.78h-7.139v17.641h7.139c2.521,0,3.781-1.262,3.781-3.78V106.75L178.221,106.75z"/>
<path fill="#727171" d="M193.969,126.49h-8.189l11.132-29.4h8.397l11.131,29.4h-8.188l-1.892-5.25h-10.5L193.969,126.49z
	 M197.75,115.779h6.719l-3.359-9.869L197.75,115.779z"/>
</svg>
