<?xml version="1.0" encoding="utf-8"?>
<!-- Generator: Adobe Illustrator 16.0.0, SVG Export Plug-In . SVG Version: 6.00 Build 0)  -->
<!DOCTYPE svg PUBLIC "-//W3C//DTD SVG 1.1//EN" "http://www.w3.org/Graphics/SVG/1.1/DTD/svg11.dtd">
<svg version="1.1" id="레이어_1" xmlns="http://www.w3.org/2000/svg" xmlns:xlink="http://www.w3.org/1999/xlink" x="0px"
	 y="0px" width="259px" height="224px" viewBox="0 0 259 224" enable-background="new 0 0 259 224" xml:space="preserve">
<path fill="#727171" d="M86.24,126.07c-6.245,0.56-11.424,0.84-15.54,0.84c-2.745,0-4.761-0.645-6.048-1.932
	c-1.288-1.289-1.932-3.305-1.932-6.049v-13.44c0-2.94,0.665-5.075,1.995-6.405c1.33-1.329,3.465-1.995,6.405-1.995h15.12v5.88H72.8
	c-1.68,0-2.52,0.84-2.52,2.521v13.438c0,0.646,0.189,1.156,0.567,1.533c0.378,0.378,0.861,0.566,1.449,0.566
	s1.232-0.006,1.932-0.021c0.7-0.014,1.428-0.034,2.184-0.063c0.756-0.026,1.519-0.055,2.289-0.084
	c0.77-0.026,1.764-0.084,2.982-0.168c1.218-0.084,2.736-0.182,4.557-0.293V126.07L86.24,126.07z"/>
<path fill="#727171" d="M115.22,126.49h-7.56V114.52h-10.5v11.972H89.6v-29.4h7.56v11.55h10.5V97.09h7.56V126.49z"/>
<path fill="#727171" d="M134.119,126.49H119v-5.881h3.78V102.97H119v-5.88h15.12v5.88h-3.779v17.641h3.779L134.119,126.49
	L134.119,126.49z"/>
<path fill="#727171" d="M163.52,126.49h-7.979l-10.08-17.641v17.641h-7.56v-29.4h7.979l10.08,17.641V97.09h7.561V126.49z"/>
<path fill="#727171" d="M173.811,126.49h-8.19l11.131-29.4h8.399l11.129,29.4h-8.188l-1.891-5.25h-10.5L173.811,126.49z
	 M177.59,115.779h6.721l-3.36-9.869L177.59,115.779z"/>
</svg>
