<?xml version="1.0" encoding="utf-8"?>
<!-- Generator: Adobe Illustrator 16.0.0, SVG Export Plug-In . SVG Version: 6.00 Build 0)  -->
<!DOCTYPE svg PUBLIC "-//W3C//DTD SVG 1.1//EN" "http://www.w3.org/Graphics/SVG/1.1/DTD/svg11.dtd">
<svg version="1.1" id="레이어_1" xmlns="http://www.w3.org/2000/svg" xmlns:xlink="http://www.w3.org/1999/xlink" x="0px"
	 y="0px" width="259px" height="224px" viewBox="0 0 259 224" enable-background="new 0 0 259 224" xml:space="preserve">
<path fill="#727171" d="M40.516,126.279c-6.244,0.561-11.424,0.841-15.54,0.841c-2.744,0-4.761-0.644-6.048-1.933
	c-1.288-1.287-1.932-3.304-1.932-6.049V105.7c0-2.94,0.664-5.075,1.994-6.405c1.33-1.329,3.466-1.995,6.405-1.995h15.12v5.88h-13.44
	c-1.68,0-2.52,0.84-2.52,2.521v13.439c0,0.645,0.189,1.155,0.567,1.532c0.378,0.378,0.86,0.567,1.448,0.567
	c0.589,0,1.232-0.008,1.933-0.021c0.699-0.014,1.428-0.033,2.184-0.063c0.756-0.027,1.519-0.057,2.289-0.084
	s1.764-0.084,2.982-0.168s2.736-0.182,4.557-0.295L40.516,126.279L40.516,126.279z"/>
<path fill="#727171" d="M70.336,118.721c0,2.939-0.666,5.075-1.995,6.404c-1.33,1.33-3.465,1.995-6.405,1.995h-10.5
	c-2.939,0-5.075-0.665-6.405-1.995c-1.33-1.329-1.994-3.465-1.994-6.404V105.28c0-2.94,0.664-5.075,1.994-6.405
	c1.33-1.33,3.466-1.995,6.405-1.995h10.5c2.94,0,5.075,0.665,6.405,1.995c1.329,1.33,1.995,3.465,1.995,6.405V118.721z
	 M62.775,105.28c0-1.681-0.84-2.521-2.52-2.521h-7.141c-1.68,0-2.52,0.84-2.52,2.521v13.439c0,1.682,0.84,2.521,2.52,2.521h7.141
	c1.68,0,2.52-0.84,2.52-2.521V105.28z"/>
<path fill="#727171" d="M82.096,120.82h15.33v5.88H74.535V97.3h7.561V120.82z"/>
<path fill="#727171" d="M126.825,118.721c0,2.939-0.666,5.075-1.995,6.404c-1.33,1.33-3.465,1.995-6.405,1.995h-10.5
	c-2.939,0-5.075-0.665-6.405-1.995c-1.33-1.329-1.994-3.465-1.994-6.404V105.28c0-2.94,0.664-5.075,1.994-6.405
	s3.466-1.995,6.405-1.995h10.5c2.94,0,5.075,0.665,6.405,1.995c1.329,1.33,1.995,3.465,1.995,6.405V118.721z M119.265,105.28
	c0-1.681-0.84-2.521-2.52-2.521h-7.141c-1.68,0-2.52,0.84-2.52,2.521v13.439c0,1.682,0.84,2.521,2.52,2.521h7.141
	c1.68,0,2.52-0.84,2.52-2.521V105.28z"/>
<path fill="#727171" d="M156.225,110.32l-5.879,10.5h-5.882l-5.879-10.5v16.38h-7.562V97.3h7.98l8.398,15.54l8.399-15.54h7.98v29.4
	h-7.56v-16.38H156.225z"/>
<path fill="#727171" d="M168.824,97.3h16.8c2.744,0,4.76,0.624,6.049,1.869c1.287,1.246,1.933,3.144,1.933,5.691
	c0,1.68-0.365,3.045-1.092,4.095c-0.729,1.05-1.625,1.785-2.688,2.205c2.269,0.616,3.808,2.128,4.62,4.535
	c0.279,0.869,0.42,1.877,0.42,3.023c0,2.745-0.645,4.762-1.932,6.049c-1.289,1.289-3.306,1.933-6.05,1.933h-18.06V97.3z
	 M186.044,105.7c0-1.681-0.84-2.521-2.521-2.521h-7.141v5.88h7.141c1.681,0,2.521-0.84,2.521-2.52V105.7z M187.305,117.46
	c0-1.681-0.841-2.521-2.521-2.521h-8.4v5.881h8.4c1.68,0,2.521-0.842,2.521-2.521V117.46z"/>
<path fill="#727171" d="M212.504,126.7h-15.12v-5.88h3.78v-17.64h-3.78V97.3h15.12v5.88h-3.779v17.64h3.779V126.7z"/>
<path fill="#727171" d="M221.534,126.7h-8.19l11.131-29.4h8.399l11.13,29.4h-8.189l-1.891-5.25h-10.5L221.534,126.7z
	 M225.313,115.99h6.722l-3.36-9.87L225.313,115.99z"/>
</svg>
