<?xml version="1.0" encoding="utf-8"?>
<!-- Generator: Adobe Illustrator 16.0.0, SVG Export Plug-In . SVG Version: 6.00 Build 0)  -->
<!DOCTYPE svg PUBLIC "-//W3C//DTD SVG 1.1//EN" "http://www.w3.org/Graphics/SVG/1.1/DTD/svg11.dtd">
<svg version="1.1" id="레이어_1" xmlns="http://www.w3.org/2000/svg" xmlns:xlink="http://www.w3.org/1999/xlink" x="0px"
	 y="0px" width="259px" height="224px" viewBox="0 0 259 224" enable-background="new 0 0 259 224" xml:space="preserve">
<path fill="#727171" d="M56.316,106.561c-5.055,0.453-9.248,0.68-12.58,0.68c-2.222,0-3.854-0.521-4.896-1.564
	c-1.042-1.042-1.564-2.674-1.564-4.896V89.9c0-2.38,0.538-4.108,1.615-5.185c1.076-1.076,2.805-1.615,5.185-1.615h12.24v4.76h-10.88
	c-1.36,0-2.04,0.68-2.04,2.04v10.88c0,0.522,0.153,0.935,0.459,1.241s0.697,0.459,1.173,0.459s0.998-0.005,1.564-0.017
	c0.566-0.011,1.156-0.028,1.768-0.051c0.612-0.022,1.229-0.045,1.853-0.068c0.623-0.022,1.428-0.068,2.414-0.136
	s2.215-0.147,3.689-0.238V106.561z"/>
<path fill="#727171" d="M80.456,100.44c0,2.38-0.539,4.109-1.615,5.185c-1.077,1.077-2.805,1.615-5.185,1.615h-8.5
	c-2.38,0-4.109-0.538-5.185-1.615c-1.077-1.076-1.615-2.805-1.615-5.185V89.56c0-2.38,0.538-4.108,1.615-5.185
	c1.076-1.076,2.805-1.615,5.185-1.615h8.5c2.38,0,4.108,0.539,5.185,1.615c1.076,1.077,1.615,2.805,1.615,5.185V100.44z
	 M74.336,89.561c0-1.36-0.68-2.04-2.04-2.04h-5.78c-1.36,0-2.04,0.68-2.04,2.04v10.88c0,1.36,0.68,2.04,2.04,2.04h5.78
	c1.36,0,2.04-0.68,2.04-2.04V89.561z"/>
<path fill="#727171" d="M104.596,106.9h-6.46l-8.16-14.28v14.28h-6.12V83.1h6.46l8.16,14.28V83.1h6.12V106.9z"/>
<path fill="#727171" d="M127.036,106.561c-5.055,0.453-9.248,0.68-12.58,0.68c-2.222,0-3.854-0.521-4.896-1.564
	c-1.042-1.042-1.564-2.674-1.564-4.896V89.9c0-2.38,0.538-4.108,1.615-5.185c1.076-1.076,2.805-1.615,5.185-1.615h12.24v4.76h-10.88
	c-1.36,0-2.04,0.68-2.04,2.04v10.88c0,0.522,0.153,0.935,0.459,1.241c0.306,0.306,0.697,0.459,1.173,0.459s0.998-0.005,1.564-0.017
	c0.566-0.011,1.156-0.028,1.768-0.051c0.612-0.022,1.229-0.045,1.853-0.068c0.623-0.022,1.428-0.068,2.414-0.136
	c0.986-0.068,2.215-0.147,3.689-0.238V106.561L127.036,106.561z"/>
<path fill="#727171" d="M148.625,106.9h-18.87V83.1h18.87v4.76h-12.75v4.59h10.031v4.76h-10.031v4.93h12.75V106.9z"/>
<path fill="#727171" d="M151.346,83.101h14.279c2.381,0,4.109,0.539,5.186,1.615c1.076,1.077,1.615,2.805,1.615,5.185v3.4
	c0,2.38-0.539,4.109-1.615,5.185c-1.076,1.077-2.805,1.615-5.186,1.615h-8.16v6.8h-6.119V83.101z M166.305,89.9
	c0-1.36-0.68-2.04-2.039-2.04h-6.801v7.48h6.801c1.359,0,2.039-0.68,2.039-2.04V89.9z"/>
<path fill="#727171" d="M187.045,106.9h-6.119V87.86h-7.141V83.1h20.4v4.76h-7.142L187.045,106.9L187.045,106.9z"/>
<path fill="#727171" d="M206.086,92.621h5.779v4.76h-5.779v5.78h-4.762v-5.78h-5.779v-4.76h5.779v-5.78h4.762V92.621z"/>
<path fill="#727171" d="M47.136,140.9h-18.87V117.1h18.87v4.762h-12.75v4.59h10.03v4.76h-10.03v4.93h12.75V140.9z"/>
<path fill="#727171" d="M63.626,117.102h6.8L62.776,129l7.82,11.9h-6.8l-4.76-7.48l-4.76,7.48h-6.8l7.82-11.9l-7.65-11.898h6.766
	l4.624,7.479L63.626,117.102z"/>
<path fill="#727171" d="M93.035,140.9h-6.12v-9.689h-8.5v9.689h-6.12V117.1h6.12v9.352h8.5V117.1h6.12V140.9z"/>
<path fill="#727171" d="M108.335,140.9h-12.24v-4.76h3.06v-14.279h-3.06V117.1h12.24v4.762h-3.06v14.279h3.06V140.9z"/>
<path fill="#727171" d="M111.395,117.102h13.601c2.221,0,3.853,0.504,4.896,1.512c1.042,1.011,1.564,2.546,1.564,4.607
	c0,1.359-0.295,2.465-0.886,3.314c-0.587,0.852-1.313,1.445-2.174,1.785c1.834,0.5,3.083,1.723,3.741,3.672
	c0.227,0.703,0.34,1.52,0.34,2.449c0,2.221-0.521,3.854-1.563,4.895c-1.043,1.043-2.676,1.564-4.897,1.564h-14.62L111.395,117.102
	L111.395,117.102z M125.335,123.9c0-1.359-0.681-2.039-2.041-2.039h-5.78v4.76h5.78c1.36,0,2.041-0.68,2.041-2.041V123.9z
	 M126.355,133.42c0-1.359-0.68-2.039-2.04-2.039h-6.8v4.76h6.8c1.36,0,2.04-0.68,2.04-2.039V133.42z"/>
<path fill="#727171" d="M146.756,140.9h-12.24v-4.76h3.062v-14.279h-3.062V117.1h12.24v4.762h-3.061v14.279h3.061V140.9z"/>
<path fill="#727171" d="M161.375,140.9h-6.119v-19.039h-7.141V117.1h20.4v4.762h-7.142L161.375,140.9L161.375,140.9z"/>
<path fill="#727171" d="M182.115,140.9h-12.24v-4.76h3.061v-14.279h-3.061V117.1h12.24v4.762h-3.061v14.279h3.061V140.9z"/>
<path fill="#727171" d="M206.596,134.441c0,2.379-0.539,4.106-1.615,5.184c-1.078,1.078-2.805,1.615-5.186,1.615h-8.5
	c-2.381,0-4.109-0.537-5.186-1.615c-1.076-1.076-1.615-2.805-1.615-5.184v-10.881c0-2.379,0.539-4.107,1.615-5.187
	c1.076-1.076,2.805-1.614,5.186-1.614h8.5c2.381,0,4.107,0.538,5.186,1.614c1.076,1.078,1.615,2.808,1.615,5.187V134.441z
	 M200.475,123.561c0-1.358-0.68-2.039-2.039-2.039h-5.781c-1.358,0-2.038,0.681-2.038,2.039v10.881c0,1.359,0.68,2.039,2.038,2.039
	h5.781c1.359,0,2.039-0.68,2.039-2.039V123.561z"/>
<path fill="#727171" d="M230.734,140.9h-6.459l-8.16-14.279V140.9h-6.121V117.1h6.461l8.16,14.28V117.1h6.119V140.9z"/>
</svg>
