<?xml version="1.0" encoding="utf-8"?>
<!-- Generator: Adobe Illustrator 16.0.0, SVG Export Plug-In . SVG Version: 6.00 Build 0)  -->
<!DOCTYPE svg PUBLIC "-//W3C//DTD SVG 1.1//EN" "http://www.w3.org/Graphics/SVG/1.1/DTD/svg11.dtd">
<svg version="1.1" id="레이어_1" xmlns="http://www.w3.org/2000/svg" xmlns:xlink="http://www.w3.org/1999/xlink" x="0px"
	 y="0px" width="259px" height="224px" viewBox="0 0 259 224" enable-background="new 0 0 259 224" xml:space="preserve">
<path fill="#727171" d="M24.292,121.38c-4.163,0.373-7.616,0.562-10.36,0.562c-1.83,0-3.173-0.43-4.032-1.289
	c-0.859-0.857-1.288-2.201-1.288-4.031v-8.96c0-1.96,0.443-3.384,1.33-4.271c0.886-0.886,2.31-1.33,4.27-1.33h10.08v3.92h-8.96
	c-1.12,0-1.68,0.561-1.68,1.681v8.96c0,0.43,0.126,0.771,0.378,1.021c0.252,0.252,0.574,0.379,0.966,0.379s0.821-0.006,1.288-0.016
	c0.466-0.009,0.952-0.021,1.456-0.042c0.504-0.019,1.012-0.036,1.526-0.056c0.513-0.02,1.176-0.057,1.988-0.112
	s1.824-0.121,3.038-0.194V121.38z"/>
<path fill="#727171" d="M41.372,105.979l-9.8,11.761h9.8v3.92h-15.96v-3.92l9.8-11.761h-9.8v-3.92h15.96V105.979z"/>
<path fill="#727171" d="M59.151,121.66h-15.54v-19.6h15.54v3.92h-10.5v3.78h8.26v3.919h-8.26v4.062h10.5V121.66z"/>
<path fill="#727171" d="M76.511,121.38c-4.163,0.373-7.616,0.562-10.36,0.562c-1.83,0-3.173-0.43-4.032-1.289
	c-0.859-0.857-1.288-2.201-1.288-4.031v-8.96c0-1.96,0.443-3.384,1.33-4.271c0.886-0.886,2.31-1.33,4.27-1.33h10.08v3.92h-8.96
	c-1.12,0-1.68,0.561-1.68,1.681v8.96c0,0.43,0.126,0.771,0.378,1.021c0.252,0.252,0.574,0.379,0.966,0.379
	c0.392,0,0.821-0.006,1.288-0.016c0.466-0.009,0.952-0.021,1.456-0.042c0.504-0.019,1.012-0.036,1.526-0.056
	c0.513-0.02,1.176-0.057,1.988-0.112s1.824-0.121,3.038-0.194V121.38L76.511,121.38z"/>
<path fill="#727171" d="M95.831,121.66h-5.04v-7.98h-7v7.98h-5.04v-19.6h5.04v7.7h7v-7.7h5.04V121.66z"/>
<path fill="#727171" d="M107.591,102.06h11.76c1.96,0,3.383,0.444,4.27,1.33c0.886,0.887,1.33,2.311,1.33,4.271v2.52
	c0,1.551-0.257,2.754-0.77,3.612c-0.514,0.857-1.33,1.43-2.45,1.708l3.5,6.16h-5.46l-3.22-5.88h-3.92v5.88h-5.04V102.06z
	 M119.911,107.66c0-1.12-0.56-1.681-1.68-1.681h-5.6v5.881h5.6c1.12,0,1.68-0.56,1.68-1.681V107.66z"/>
<path fill="#727171" d="M143.289,121.66H127.75v-19.6h15.539v3.92h-10.5v3.78h8.26v3.919h-8.26v4.062h10.5V121.66z"/>
<path fill="#727171" d="M145.529,102.06h11.76c1.961,0,3.385,0.444,4.271,1.33c0.885,0.887,1.33,2.311,1.33,4.271v2.8
	c0,1.96-0.445,3.385-1.33,4.271c-0.888,0.887-2.312,1.33-4.271,1.33h-6.719v5.6h-5.041V102.06z M157.85,107.66
	c0-1.12-0.561-1.681-1.68-1.681h-5.6v6.161h5.6c1.119,0,1.68-0.561,1.68-1.681V107.66z"/>
<path fill="#727171" d="M178.01,102.06h5.039v14.28c0,1.96-0.443,3.385-1.33,4.271s-2.309,1.33-4.27,1.33h-6.439
	c-1.961,0-3.385-0.443-4.271-1.33c-0.885-0.887-1.327-2.312-1.327-4.271v-14.28h5.039v14.28c0,1.12,0.562,1.682,1.68,1.682h4.201
	c1.119,0,1.68-0.562,1.68-1.682L178.01,102.06L178.01,102.06z"/>
<path fill="#727171" d="M186.41,102.06h11.199c1.828,0,3.174,0.416,4.031,1.246c0.858,0.831,1.289,2.096,1.289,3.794
	c0,1.12-0.244,2.03-0.729,2.73c-0.486,0.7-1.082,1.189-1.791,1.471c1.512,0.41,2.536,1.418,3.077,3.023
	c0.188,0.578,0.281,1.251,0.281,2.016c0,1.83-0.43,3.174-1.289,4.032c-0.856,0.858-2.201,1.288-4.03,1.288H186.41V102.06z
	 M197.889,107.66c0-1.12-0.559-1.681-1.68-1.681h-4.76v3.921h4.76c1.121,0,1.68-0.561,1.68-1.681V107.66z M198.729,115.5
	c0-1.119-0.559-1.68-1.68-1.68h-5.6v3.92h5.6c1.121,0,1.68-0.561,1.68-1.68V115.5z"/>
<path fill="#727171" d="M211.33,117.74h10.219v3.92h-15.26v-19.6h5.041V117.74z"/>
<path fill="#727171" d="M232.748,121.66h-10.08v-3.92h2.521v-11.761h-2.521v-3.92h10.08v3.92h-2.52v11.761h2.52V121.66z"/>
<path fill="#727171" d="M250.389,121.38c-4.162,0.373-7.615,0.562-10.359,0.562c-1.829,0-3.174-0.43-4.032-1.289
	c-0.856-0.857-1.287-2.201-1.287-4.031v-8.96c0-1.96,0.442-3.384,1.33-4.271c0.887-0.886,2.31-1.33,4.271-1.33h10.08v3.92h-8.961
	c-1.119,0-1.681,0.561-1.681,1.681v8.96c0,0.43,0.127,0.771,0.379,1.021c0.252,0.252,0.574,0.379,0.965,0.379
	c0.394,0,0.822-0.006,1.289-0.016c0.468-0.009,0.953-0.021,1.457-0.042c0.504-0.019,1.013-0.036,1.525-0.056
	s1.176-0.057,1.987-0.112c0.813-0.056,1.824-0.121,3.037-0.194V121.38L250.389,121.38z"/>
</svg>
