<?xml version="1.0" encoding="utf-8"?>
<!-- Generator: Adobe Illustrator 16.0.0, SVG Export Plug-In . SVG Version: 6.00 Build 0)  -->
<!DOCTYPE svg PUBLIC "-//W3C//DTD SVG 1.1//EN" "http://www.w3.org/Graphics/SVG/1.1/DTD/svg11.dtd">
<svg version="1.1" id="레이어_1" xmlns="http://www.w3.org/2000/svg" xmlns:xlink="http://www.w3.org/1999/xlink" x="0px"
	 y="0px" width="259px" height="224px" viewBox="0 0 259 224" enable-background="new 0 0 259 224" xml:space="preserve">
<path fill="#727171" d="M40.23,97.3c3.164,0,5.565,0.819,7.203,2.457c1.638,1.638,2.457,4.039,2.457,7.203v10.08
	c0,3.164-0.819,5.565-2.457,7.203c-1.638,1.638-4.039,2.457-7.203,2.457H23.85V97.3H40.23z M42.33,106.96
	c0-2.52-1.26-3.78-3.78-3.78h-7.14v17.64h7.14c2.52,0,3.78-1.26,3.78-3.779V106.96z"/>
<path fill="#727171" d="M77.399,126.7h-23.31V97.3h23.31v5.88h-15.75v5.67h12.39v5.88h-12.39v6.09h15.75V126.7z"/>
<path fill="#727171" d="M106.379,126.7h-7.98l-10.08-17.641V126.7h-7.56V97.3h7.98l10.08,17.642V97.3h7.56V126.7z"/>
<path fill="#727171" d="M136.619,110.32l-5.881,10.5h-5.879l-5.88-10.5v16.38h-7.56V97.3h7.98l8.4,15.54l8.4-15.54h7.979v29.4
	h-7.559V110.32L136.619,110.32z"/>
<path fill="#727171" d="M154.469,126.7h-8.189l11.13-29.4h8.399l11.131,29.4h-8.19l-1.89-5.25h-10.5L154.469,126.7z M158.248,115.99
	h6.721l-3.359-9.87L158.248,115.99z"/>
<path fill="#727171" d="M179.039,97.3h17.639c2.941,0,5.076,0.666,6.406,1.995c1.328,1.33,1.994,3.465,1.994,6.405v3.779
	c0,2.325-0.385,4.13-1.154,5.419c-0.771,1.287-1.996,2.142-3.676,2.562l5.25,9.24h-8.189l-4.83-8.82h-5.881v8.82h-7.559V97.3
	L179.039,97.3z M197.518,105.7c0-1.681-0.84-2.521-2.52-2.521h-8.4V112h8.4c1.68,0,2.52-0.84,2.52-2.521V105.7z"/>
<path fill="#727171" d="M216.838,126.7h-7.561V97.3h7.561v11.55h3.779l6.553-11.55h7.98l-8.232,14.49l8.189,14.91h-7.98
	l-6.51-11.972h-3.779V126.7z"/>
</svg>
