<?xml version="1.0" encoding="utf-8"?>
<!-- Generator: Adobe Illustrator 16.0.0, SVG Export Plug-In . SVG Version: 6.00 Build 0)  -->
<!DOCTYPE svg PUBLIC "-//W3C//DTD SVG 1.1//EN" "http://www.w3.org/Graphics/SVG/1.1/DTD/svg11.dtd">
<svg version="1.1" id="레이어_1" xmlns="http://www.w3.org/2000/svg" xmlns:xlink="http://www.w3.org/1999/xlink" x="0px"
	 y="0px" width="259px" height="224px" viewBox="0 0 259 224" enable-background="new 0 0 259 224" xml:space="preserve">
<path fill="#727171" d="M85.085,126.49h-23.31v-29.4h23.31v5.88h-15.75v5.67h12.39v5.879h-12.39v6.092h15.75V126.49z"/>
<path fill="#727171" d="M113.646,125.859c-6.552,0.699-12.573,1.051-18.06,1.051c-2.745,0-4.761-0.645-6.048-1.932
	c-1.288-1.289-1.932-3.305-1.932-6.049v-13.44c0-2.94,0.665-5.075,1.995-6.405c1.33-1.329,3.465-1.995,6.405-1.995h15.12v5.88
	h-13.44c-1.68,0-2.52,0.84-2.52,2.521v13.438c0,0.646,0.189,1.156,0.567,1.533c0.378,0.378,0.889,0.566,1.533,0.566
	c3.22,0,6.16-0.068,8.82-0.209v-6.09h-5.46v-5.041h13.02V125.859L113.646,125.859z"/>
<path fill="#727171" d="M112.806,97.09h7.98l6.93,14.28l6.931-14.28h7.979l-11.129,21.631v7.771h-7.561v-7.771L112.806,97.09z"/>
<path fill="#727171" d="M144.305,97.09h17.641c2.939,0,5.074,0.666,6.404,1.995c1.33,1.33,1.996,3.465,1.996,6.405v4.2
	c0,2.939-0.666,5.076-1.996,6.406c-1.33,1.329-3.465,1.993-6.404,1.993h-10.079v8.399h-7.562V97.09z M162.785,105.49
	c0-1.681-0.84-2.521-2.52-2.521h-8.4v9.24h8.4c1.68,0,2.52-0.84,2.52-2.52V105.49z"/>
<path fill="#727171" d="M188.404,126.49h-7.559v-23.52h-8.82v-5.88h25.199v5.88h-8.82V126.49L188.404,126.49z"/>
</svg>
