<?xml version="1.0" encoding="utf-8"?>
<!-- Generator: Adobe Illustrator 16.0.0, SVG Export Plug-In . SVG Version: 6.00 Build 0)  -->
<!DOCTYPE svg PUBLIC "-//W3C//DTD SVG 1.1//EN" "http://www.w3.org/Graphics/SVG/1.1/DTD/svg11.dtd">
<svg version="1.1" id="레이어_1" xmlns="http://www.w3.org/2000/svg" xmlns:xlink="http://www.w3.org/1999/xlink" x="0px"
	 y="0px" width="259px" height="224px" viewBox="0 0 259 224" enable-background="new 0 0 259 224" xml:space="preserve">
<path fill="#727171" d="M52.075,125.3h-6.84V98.7h21.09v5.32h-14.25v6.27h11.21v5.319h-11.21V125.3z"/>
<path fill="#727171" d="M71.455,125.3h-7.409l10.069-26.6h7.601l10.069,26.6h-7.409l-1.71-4.75h-9.5L71.455,125.3z M74.876,115.609
	h6.079l-3.039-8.93L74.876,115.609z"/>
<path fill="#727171" d="M92.887,119.79c6.941,0.38,11.641,0.569,14.099,0.569c0.582,0,1.045-0.17,1.387-0.514
	c0.342-0.342,0.513-0.804,0.513-1.387v-3.42h-8.739c-2.66,0-4.593-0.602-5.796-1.805c-1.203-1.204-1.805-3.136-1.805-5.795V106.3
	c0-2.66,0.602-4.591,1.805-5.795c1.203-1.203,3.136-1.805,5.796-1.805h13.338v5.32h-11.818c-1.52,0-2.28,0.76-2.28,2.279v0.76
	c0,1.521,0.761,2.28,2.28,2.28h6.84c2.482,0,4.307,0.583,5.472,1.748c1.165,1.166,1.748,2.989,1.748,5.472v1.9
	c0,2.482-0.583,4.309-1.748,5.473c-1.165,1.166-2.989,1.748-5.472,1.748c-1.292,0-2.66-0.025-4.104-0.076l-3.496-0.151
	c-2.584-0.127-5.257-0.304-8.019-0.532L92.887,119.79L92.887,119.79z"/>
<path fill="#727171" d="M142.325,125.3h-6.841v-10.829h-9.5V125.3h-6.841V98.7h6.841v10.45h9.5V98.7h6.841V125.3z"/>
<path fill="#727171" d="M159.425,125.3h-13.68v-5.319h3.42v-15.959h-3.42V98.7h13.68v5.32h-3.42v15.96h3.42V125.3L159.425,125.3z"/>
<path fill="#727171" d="M186.784,118.08c0,2.66-0.603,4.592-1.806,5.795s-3.135,1.805-5.795,1.805h-9.5
	c-2.66,0-4.592-0.602-5.795-1.805s-1.805-3.135-1.805-5.795v-12.16c0-2.66,0.602-4.592,1.805-5.795s3.135-1.805,5.795-1.805h9.5
	c2.66,0,4.592,0.602,5.795,1.805s1.806,3.135,1.806,5.795V118.08z M179.943,105.92c0-1.52-0.76-2.28-2.278-2.28h-6.461
	c-1.521,0-2.279,0.761-2.279,2.28v12.16c0,1.52,0.761,2.279,2.279,2.279h6.461c1.521,0,2.278-0.76,2.278-2.279V105.92z"/>
<path fill="#727171" d="M213.766,125.3h-7.222l-9.119-15.96v15.96h-6.841V98.7h7.221l9.12,15.96V98.7h6.841V125.3z"/>
</svg>
