<?xml version="1.0" encoding="utf-8"?>
<!-- Generator: Adobe Illustrator 16.0.0, SVG Export Plug-In . SVG Version: 6.00 Build 0)  -->
<!DOCTYPE svg PUBLIC "-//W3C//DTD SVG 1.1//EN" "http://www.w3.org/Graphics/SVG/1.1/DTD/svg11.dtd">
<svg version="1.1" id="레이어_1" xmlns="http://www.w3.org/2000/svg" xmlns:xlink="http://www.w3.org/1999/xlink" x="0px"
	 y="0px" width="259px" height="224px" viewBox="0 0 259 224" enable-background="new 0 0 259 224" xml:space="preserve">
<path fill="#727171" d="M43.61,126.7h-7.56V97.3h23.31v5.88H43.61v6.931H56v5.88H43.61V126.7z"/>
<path fill="#727171" d="M76.16,126.7H61.04v-5.88h3.78v-17.64h-3.78V97.3h15.12v5.88h-3.78v17.64h3.78V126.7z"/>
<path fill="#727171" d="M105.561,126.7h-7.98L87.5,109.06v17.64h-7.56V97.3h7.98L98,114.939V97.3h7.56L105.561,126.7L105.561,126.7z
	"/>
<path fill="#727171" d="M118.16,120.82h15.33v5.88H110.6V97.3h7.56V120.82z"/>
<path fill="#727171" d="M141.68,126.7h-8.188l11.129-29.4h8.399l11.131,29.4h-8.19l-1.89-5.25h-10.5L141.68,126.7z M145.459,115.99
	h6.721l-3.359-9.87L145.459,115.99z"/>
<path fill="#727171" d="M191.869,126.7h-7.98l-10.08-17.641V126.7h-7.561V97.3h7.98l10.08,17.642V97.3h7.561V126.7z"/>
<path fill="#727171" d="M213.289,97.3c3.164,0,5.564,0.819,7.203,2.457c1.639,1.638,2.457,4.039,2.457,7.203v10.08
	c0,3.164-0.818,5.565-2.457,7.203s-4.039,2.457-7.203,2.457h-16.381V97.3H213.289z M215.389,106.96c0-2.52-1.26-3.78-3.779-3.78
	h-7.141v17.64h7.141c2.521,0,3.779-1.26,3.779-3.779V106.96z"/>
</svg>
