<?xml version="1.0" encoding="utf-8"?>
<!-- Generator: Adobe Illustrator 16.0.0, SVG Export Plug-In . SVG Version: 6.00 Build 0)  -->
<!DOCTYPE svg PUBLIC "-//W3C//DTD SVG 1.1//EN" "http://www.w3.org/Graphics/SVG/1.1/DTD/svg11.dtd">
<svg version="1.1" id="레이어_1" xmlns="http://www.w3.org/2000/svg" xmlns:xlink="http://www.w3.org/1999/xlink" x="0px"
	 y="0px" width="259px" height="224px" viewBox="0 0 259 224" enable-background="new 0 0 259 224" xml:space="preserve">
<path fill="#727171" d="M53.901,126.49h-7.56v-29.4h23.31v5.88h-15.75v6.931h12.39v5.88h-12.39V126.49z"/>
<path fill="#727171" d="M72.591,97.09h17.64c2.94,0,5.075,0.666,6.405,1.995c1.33,1.33,1.995,3.465,1.995,6.405v3.779
	c0,2.325-0.385,4.131-1.155,5.418c-0.77,1.289-1.995,2.143-3.675,2.563l5.25,9.24h-8.19l-4.83-8.82h-5.88v8.82h-7.56V97.09z
	 M91.071,105.49c0-1.681-0.84-2.521-2.52-2.521h-8.4v8.82h8.4c1.68,0,2.52-0.84,2.52-2.521V105.49z"/>
<path fill="#727171" d="M108.08,126.49h-8.19l11.13-29.4h8.4l11.13,29.4h-8.19l-1.89-5.25h-10.5L108.08,126.49z M111.86,115.779
	h6.72l-3.36-9.869L111.86,115.779z"/>
<path fill="#727171" d="M158.271,126.49h-7.98l-10.08-17.641v17.641h-7.561v-29.4h7.979l10.08,17.641V97.09h7.562V126.49z"/>
<path fill="#727171" d="M185.988,126.07c-6.243,0.56-11.424,0.84-15.538,0.84c-2.745,0-4.763-0.645-6.05-1.932
	c-1.287-1.289-1.932-3.305-1.932-6.049v-13.44c0-2.94,0.664-5.075,1.994-6.405c1.33-1.329,3.467-1.995,6.406-1.995h15.119v5.88
	H172.55c-1.68,0-2.521,0.84-2.521,2.521v13.438c0,0.646,0.188,1.156,0.566,1.533c0.379,0.378,0.861,0.566,1.449,0.566
	s1.23-0.006,1.932-0.021c0.699-0.014,1.428-0.034,2.185-0.063c0.756-0.026,1.521-0.055,2.289-0.084
	c0.771-0.026,1.764-0.084,2.981-0.168c1.219-0.084,2.736-0.182,4.558-0.293L185.988,126.07L185.988,126.07z"/>
<path fill="#727171" d="M212.659,126.49h-23.31v-29.4h23.31v5.88h-15.75v5.67H209.3v5.879h-12.391v6.092h15.75V126.49z"/>
</svg>
