<?xml version="1.0" encoding="utf-8"?>
<!-- Generator: Adobe Illustrator 16.0.0, SVG Export Plug-In . SVG Version: 6.00 Build 0)  -->
<!DOCTYPE svg PUBLIC "-//W3C//DTD SVG 1.1//EN" "http://www.w3.org/Graphics/SVG/1.1/DTD/svg11.dtd">
<svg version="1.1" id="레이어_1" xmlns="http://www.w3.org/2000/svg" xmlns:xlink="http://www.w3.org/1999/xlink" x="0px"
	 y="0px" width="259px" height="224px" viewBox="0 0 259 224" enable-background="new 0 0 259 224" xml:space="preserve">
<path fill="#727171" d="M24.431,125.109h-6.84V98.51h21.09v5.32h-14.25v6.271h11.21v5.319h-11.21V125.109z"/>
<path fill="#727171" d="M58.44,98.51h6.841v19.38c0,2.66-0.603,4.592-1.806,5.795s-3.135,1.806-5.795,1.806h-8.74
	c-2.659,0-4.592-0.603-5.795-1.806s-1.805-3.135-1.805-5.795V98.51h6.84v19.38c0,1.521,0.76,2.279,2.28,2.279h5.7
	c1.52,0,2.279-0.76,2.279-2.279L58.44,98.51L58.44,98.51z"/>
<path fill="#727171" d="M69.841,98.51h15.96c2.66,0,4.592,0.603,5.795,1.806c1.203,1.203,1.805,3.135,1.805,5.795v3.42
	c0,2.103-0.348,3.737-1.045,4.901c-0.696,1.166-1.805,1.938-3.324,2.318l4.75,8.359h-7.41l-4.37-7.979h-5.32v7.979h-6.84
	L69.841,98.51L69.841,98.51z M86.561,106.11c0-1.521-0.76-2.28-2.279-2.28h-7.601v7.98h7.601c1.52,0,2.279-0.761,2.279-2.28V106.11z
	"/>
<path fill="#727171" d="M120.38,125.109h-7.22l-9.12-15.959v15.959H97.2V98.51h7.22l9.12,15.96V98.51h6.84V125.109z"/>
<path fill="#727171" d="M137.479,125.109H123.8v-5.318h3.42V103.83h-3.42v-5.32h13.681v5.32h-3.42v15.961h3.42v5.318H137.479z"/>
<path fill="#727171" d="M153.82,125.109h-6.842V103.83H139v-5.32h22.8v5.32h-7.979V125.109L153.82,125.109z"/>
<path fill="#727171" d="M181.561,98.51h6.84v19.38c0,2.66-0.603,4.592-1.805,5.795c-1.205,1.203-3.137,1.806-5.796,1.806h-8.739
	c-2.66,0-4.593-0.603-5.795-1.806c-1.205-1.203-1.807-3.135-1.807-5.795V98.51h6.841v19.38c0,1.521,0.761,2.279,2.28,2.279h5.699
	c1.521,0,2.279-0.76,2.279-2.279V98.51H181.561z"/>
<path fill="#727171" d="M192.959,98.51h15.961c2.66,0,4.592,0.603,5.795,1.806s1.805,3.135,1.805,5.795v3.42
	c0,2.103-0.348,3.737-1.045,4.901c-0.697,1.166-1.805,1.938-3.324,2.318l4.75,8.359h-7.409l-4.371-7.979h-5.32v7.979h-6.841V98.51z
	 M209.68,106.11c0-1.521-0.76-2.28-2.279-2.28H199.8v7.98h7.601c1.521,0,2.279-0.761,2.279-2.28V106.11L209.68,106.11z"/>
<path fill="#727171" d="M241.409,125.109h-21.091V98.51h21.091v5.32h-14.25v5.13h11.21v5.319h-11.21v5.512h14.25V125.109z"/>
</svg>
