<?xml version="1.0" encoding="utf-8"?>
<!-- Generator: Adobe Illustrator 16.0.0, SVG Export Plug-In . SVG Version: 6.00 Build 0)  -->
<!DOCTYPE svg PUBLIC "-//W3C//DTD SVG 1.1//EN" "http://www.w3.org/Graphics/SVG/1.1/DTD/svg11.dtd">
<svg version="1.1" id="레이어_1" xmlns="http://www.w3.org/2000/svg" xmlns:xlink="http://www.w3.org/1999/xlink" x="0px"
	 y="0px" width="259px" height="224px" viewBox="0 0 259 224" enable-background="new 0 0 259 224" xml:space="preserve">
<path fill="#727171" d="M49.596,125.859c-6.552,0.699-12.572,1.051-18.06,1.051c-2.745,0-4.761-0.645-6.049-1.932
	c-1.288-1.289-1.932-3.305-1.932-6.049v-13.44c0-2.94,0.665-5.075,1.995-6.405c1.329-1.329,3.465-1.995,6.405-1.995h15.12v5.88
	h-13.44c-1.68,0-2.52,0.84-2.52,2.521v13.438c0,0.646,0.188,1.156,0.566,1.533c0.378,0.378,0.889,0.566,1.533,0.566
	c3.22,0,6.159-0.068,8.82-0.209v-6.09h-5.46v-5.041h13.02v16.169H49.596z"/>
<path fill="#727171" d="M77.105,126.49h-23.31v-29.4h23.31v5.88h-15.75v5.67h12.391v5.879H61.355v6.092h15.75V126.49L77.105,126.49z
	"/>
<path fill="#727171" d="M80.466,97.09h17.64c2.94,0,5.075,0.666,6.405,1.995c1.329,1.33,1.995,3.465,1.995,6.405v3.779
	c0,2.325-0.386,4.131-1.155,5.418c-0.771,1.289-1.995,2.143-3.675,2.563l5.25,9.24h-8.19l-4.83-8.82h-5.88v8.82h-7.56V97.09z
	 M98.945,105.49c0-1.681-0.84-2.521-2.52-2.521h-8.4v8.82h8.4c1.68,0,2.52-0.84,2.52-2.521V105.49z"/>
<path fill="#727171" d="M135.904,110.11l-5.881,10.5h-5.879l-5.88-10.5v16.38h-7.56v-29.4h7.979l8.4,15.54l8.399-15.54h7.979v29.4
	h-7.56v-16.38H135.904z"/>
<path fill="#727171" d="M153.755,126.49h-8.188l11.129-29.4h8.4l11.131,29.4h-8.191l-1.889-5.25h-10.5L153.755,126.49z
	 M157.534,115.779h6.721l-3.358-9.869L157.534,115.779z"/>
<path fill="#727171" d="M203.943,126.49h-7.979l-10.08-17.641v17.641h-7.56v-29.4h7.979l10.08,17.641V97.09h7.561V126.49
	L203.943,126.49z"/>
<path fill="#727171" d="M205.624,97.09h7.979l6.931,14.28l6.93-14.28h7.979l-11.129,21.631v7.771h-7.561v-7.771L205.624,97.09z"/>
</svg>
