<?xml version="1.0" encoding="utf-8"?>
<!-- Generator: Adobe Illustrator 16.0.0, SVG Export Plug-In . SVG Version: 6.00 Build 0)  -->
<!DOCTYPE svg PUBLIC "-//W3C//DTD SVG 1.1//EN" "http://www.w3.org/Graphics/SVG/1.1/DTD/svg11.dtd">
<svg version="1.1" id="레이어_1" xmlns="http://www.w3.org/2000/svg" xmlns:xlink="http://www.w3.org/1999/xlink" x="0px"
	 y="0px" width="259px" height="224px" viewBox="0 0 259 224" enable-background="new 0 0 259 224" xml:space="preserve">
<path fill="#727171" d="M66.61,124.54c-5.928,0.633-11.375,0.95-16.34,0.95c-2.483,0-4.307-0.584-5.472-1.748
	c-1.166-1.165-1.748-2.989-1.748-5.473v-12.16c0-2.66,0.602-4.592,1.805-5.795s3.135-1.806,5.795-1.806h13.68v5.32H52.171
	c-1.521,0-2.28,0.76-2.28,2.28v12.161c0,0.582,0.171,1.045,0.513,1.387c0.342,0.342,0.804,0.513,1.387,0.513
	c2.913,0,5.573-0.063,7.98-0.188v-5.512h-4.94v-4.56h11.78L66.61,124.54L66.61,124.54z"/>
<path fill="#727171" d="M70.41,98.51h15.961c2.659,0,4.591,0.603,5.795,1.806c1.202,1.203,1.805,3.135,1.805,5.795v3.42
	c0,2.103-0.349,3.737-1.045,4.901c-0.697,1.166-1.805,1.938-3.325,2.318l4.75,8.359h-7.41l-4.37-7.979h-5.319v7.979H70.41V98.51z
	 M87.131,106.11c0-1.521-0.76-2.28-2.28-2.28h-7.6v7.98h7.6c1.521,0,2.28-0.761,2.28-2.28V106.11z"/>
<path fill="#727171" d="M102.52,125.109h-7.41l10.07-26.599h7.601l10.069,26.601h-7.409l-1.71-4.75h-9.5L102.52,125.109z
	 M105.94,115.42h6.079l-3.039-8.93L105.94,115.42z"/>
<path fill="#727171" d="M124.749,98.51h15.96c2.66,0,4.592,0.603,5.795,1.806s1.805,3.135,1.805,5.795v3.8
	c0,2.659-0.602,4.592-1.805,5.795s-3.135,1.806-5.795,1.806h-9.119v7.6h-6.841V98.51z M141.469,106.11c0-1.521-0.76-2.28-2.279-2.28
	h-7.6v8.36h7.6c1.521,0,2.279-0.761,2.279-2.28V106.11z"/>
<path fill="#727171" d="M174.908,125.109h-6.84v-10.83h-9.5v10.83h-6.84V98.51h6.84v10.45h9.5V98.51h6.84V125.109z"/>
<path fill="#727171" d="M192.009,125.109h-13.68v-5.319h3.42v-15.96h-3.42v-5.32h13.68v5.32h-3.42v15.96h3.42V125.109z"/>
<path fill="#727171" d="M215.949,124.73c-5.65,0.506-10.336,0.76-14.061,0.76c-2.482,0-4.308-0.583-5.473-1.748
	s-1.748-2.989-1.748-5.473v-12.16c0-2.66,0.602-4.592,1.807-5.795c1.201-1.203,3.135-1.806,5.795-1.806h13.68v5.32h-12.16
	c-1.52,0-2.28,0.76-2.28,2.28v12.161c0,0.582,0.171,1.045,0.513,1.387s0.779,0.513,1.313,0.513s1.114-0.006,1.748-0.019
	c0.633-0.014,1.292-0.031,1.977-0.059c0.684-0.023,1.373-0.05,2.07-0.074c0.696-0.025,1.598-0.076,2.698-0.152
	s2.476-0.165,4.123-0.266L215.949,124.73L215.949,124.73z"/>
</svg>
