<?xml version="1.0" encoding="utf-8"?>
<!-- Generator: Adobe Illustrator 16.0.0, SVG Export Plug-In . SVG Version: 6.00 Build 0)  -->
<!DOCTYPE svg PUBLIC "-//W3C//DTD SVG 1.1//EN" "http://www.w3.org/Graphics/SVG/1.1/DTD/svg11.dtd">
<svg version="1.1" id="레이어_1" xmlns="http://www.w3.org/2000/svg" xmlns:xlink="http://www.w3.org/1999/xlink" x="0px"
	 y="0px" width="259px" height="224px" viewBox="0 0 259 224" enable-background="new 0 0 259 224" xml:space="preserve">
<path fill="#727171" d="M73.956,125.859c-6.552,0.699-12.573,1.051-18.06,1.051c-2.745,0-4.761-0.645-6.048-1.932
	c-1.288-1.289-1.932-3.305-1.932-6.049v-13.44c0-2.94,0.665-5.075,1.995-6.405c1.33-1.329,3.465-1.995,6.405-1.995h15.12v5.88
	h-13.44c-1.68,0-2.52,0.84-2.52,2.521v13.438c0,0.646,0.189,1.156,0.567,1.533c0.378,0.378,0.889,0.566,1.533,0.566
	c3.22,0,6.16-0.068,8.82-0.209v-6.09h-5.46v-5.041h13.02V125.859L73.956,125.859z"/>
<path fill="#727171" d="M78.155,97.09h17.64c2.94,0,5.075,0.666,6.405,1.995c1.33,1.33,1.995,3.465,1.995,6.405v3.779
	c0,2.325-0.385,4.131-1.155,5.418c-0.77,1.289-1.995,2.143-3.675,2.563l5.25,9.24h-8.19l-4.83-8.82h-5.88v8.82h-7.56V97.09z
	 M96.635,105.49c0-1.681-0.84-2.521-2.52-2.521h-8.4v8.82h8.4c1.68,0,2.52-0.84,2.52-2.521V105.49z"/>
<path fill="#727171" d="M131.705,126.49h-23.311v-29.4h23.311v5.88h-15.75v5.67h12.39v5.879h-12.39v6.092h15.75V126.49z"/>
<path fill="#727171" d="M158.375,126.49h-23.311v-29.4h23.311v5.88h-15.75v5.67h12.389v5.879h-12.389v6.092h15.75V126.49z"/>
<path fill="#727171" d="M184.414,126.07c-6.244,0.56-11.424,0.84-15.539,0.84c-2.746,0-4.762-0.645-6.049-1.932
	c-1.289-1.289-1.932-3.305-1.932-6.049v-13.44c0-2.94,0.664-5.075,1.994-6.405c1.329-1.329,3.465-1.995,6.405-1.995h15.119v5.88
	h-13.438c-1.681,0-2.521,0.84-2.521,2.521v13.438c0,0.646,0.188,1.156,0.565,1.533c0.377,0.378,0.861,0.566,1.449,0.566
	s1.23-0.006,1.932-0.021c0.699-0.014,1.429-0.034,2.185-0.063c0.756-0.026,1.521-0.055,2.289-0.084
	c0.771-0.026,1.765-0.084,2.981-0.168c1.218-0.084,2.736-0.182,4.558-0.293L184.414,126.07L184.414,126.07z"/>
<path fill="#727171" d="M211.084,126.49h-23.311v-29.4h23.311v5.88h-15.75v5.67h12.391v5.879h-12.391v6.092h15.75V126.49z"/>
</svg>
