<?xml version="1.0" encoding="utf-8"?>
<!-- Generator: Adobe Illustrator 16.0.0, SVG Export Plug-In . SVG Version: 6.00 Build 0)  -->
<!DOCTYPE svg PUBLIC "-//W3C//DTD SVG 1.1//EN" "http://www.w3.org/Graphics/SVG/1.1/DTD/svg11.dtd">
<svg version="1.1" id="레이어_1" xmlns="http://www.w3.org/2000/svg" xmlns:xlink="http://www.w3.org/1999/xlink" x="0px"
	 y="0px" width="259px" height="224px" viewBox="0 0 259 224" enable-background="new 0 0 259 224" xml:space="preserve">
<path fill="#727171" d="M82.04,126.7H66.92v-5.88h3.78v-17.64h-3.78V97.3h15.12v5.88h-3.779v17.64h3.779V126.7z"/>
<path fill="#727171" d="M111.44,126.7h-7.979l-10.08-17.641V126.7H85.82V97.3h7.98l10.08,17.642V97.3h7.56V126.7z"/>
<path fill="#727171" d="M132.859,97.3c3.164,0,5.564,0.819,7.203,2.457c1.64,1.638,2.457,4.039,2.457,7.203v10.08
	c0,3.164-0.817,5.565-2.457,7.203c-1.639,1.638-4.039,2.457-7.203,2.457H116.48V97.3H132.859z M134.96,106.96
	c0-2.52-1.26-3.78-3.778-3.78h-7.142v17.64h7.142c2.52,0,3.778-1.26,3.778-3.779V106.96z"/>
<path fill="#727171" d="M160.579,126.7H145.46v-5.88h3.779v-17.64h-3.779V97.3h15.119v5.88H156.8v17.64h3.779V126.7L160.579,126.7z"
	/>
<path fill="#727171" d="M169.609,126.7h-8.189l11.13-29.4h8.4l11.13,29.4h-8.189L182,121.45h-10.5L169.609,126.7z M173.391,115.99
	h6.721l-3.36-9.87L173.391,115.99z"/>
</svg>
