<?xml version="1.0" encoding="utf-8"?>
<!-- Generator: Adobe Illustrator 16.0.0, SVG Export Plug-In . SVG Version: 6.00 Build 0)  -->
<!DOCTYPE svg PUBLIC "-//W3C//DTD SVG 1.1//EN" "http://www.w3.org/Graphics/SVG/1.1/DTD/svg11.dtd">
<svg version="1.1" id="레이어_1" xmlns="http://www.w3.org/2000/svg" xmlns:xlink="http://www.w3.org/1999/xlink" x="0px"
	 y="0px" width="259px" height="224px" viewBox="0 0 259 224" enable-background="new 0 0 259 224" xml:space="preserve">
<path fill="#727171" d="M66.291,126.49H51.17v-5.881h3.78V102.97h-3.78v-5.88h15.12v5.88h-3.78v17.641h3.78L66.291,126.49
	L66.291,126.49z"/>
<path fill="#727171" d="M69.189,120.4c7.671,0.42,12.866,0.629,15.582,0.629c0.644,0,1.155-0.188,1.533-0.566
	c0.378-0.377,0.567-0.889,0.567-1.533v-3.779h-9.66c-2.94,0-5.076-0.664-6.405-1.994c-1.33-1.33-1.995-3.465-1.995-6.405v-1.26
	c0-2.94,0.665-5.075,1.995-6.405c1.33-1.329,3.465-1.995,6.405-1.995h14.742v5.88H78.891c-1.68,0-2.52,0.84-2.52,2.521v0.84
	c0,1.68,0.84,2.52,2.52,2.52h7.56c2.744,0,4.76,0.645,6.048,1.933c1.287,1.288,1.932,3.304,1.932,6.048v2.101
	c0,2.744-0.645,4.76-1.932,6.049c-1.289,1.287-3.305,1.932-6.048,1.932c-1.428,0-2.94-0.027-4.536-0.084l-3.864-0.168
	c-2.856-0.141-5.811-0.336-8.862-0.588V120.4z"/>
<path fill="#727171" d="M98.21,97.09h17.64c2.94,0,5.075,0.666,6.405,1.995c1.33,1.33,1.995,3.465,1.995,6.405v3.779
	c0,2.325-0.385,4.131-1.155,5.418c-0.77,1.289-1.995,2.143-3.675,2.563l5.25,9.24h-8.19l-4.83-8.82h-5.88v8.82h-7.56V97.09z
	 M116.69,105.49c0-1.681-0.84-2.521-2.52-2.521h-8.4v8.82h8.4c1.68,0,2.52-0.84,2.52-2.521V105.49z"/>
<path fill="#727171" d="M133.699,126.49h-8.189l11.129-29.4h8.4l11.131,29.4h-8.191l-1.889-5.25h-10.5L133.699,126.49z
	 M137.479,115.779h6.722l-3.359-9.869L137.479,115.779z"/>
<path fill="#727171" d="M181.58,126.49H158.27v-29.4h23.312v5.88h-15.75v5.67h12.39v5.879H165.83v6.092h15.75V126.49z"/>
<path fill="#727171" d="M192.5,120.609h15.33v5.881h-22.891v-29.4h7.561V120.609z"/>
</svg>
