<?xml version="1.0" encoding="utf-8"?>
<!-- Generator: Adobe Illustrator 16.0.0, SVG Export Plug-In . SVG Version: 6.00 Build 0)  -->
<!DOCTYPE svg PUBLIC "-//W3C//DTD SVG 1.1//EN" "http://www.w3.org/Graphics/SVG/1.1/DTD/svg11.dtd">
<svg version="1.1" id="레이어_1" xmlns="http://www.w3.org/2000/svg" xmlns:xlink="http://www.w3.org/1999/xlink" x="0px"
	 y="0px" width="259px" height="224px" viewBox="0 0 259 224" enable-background="new 0 0 259 224" xml:space="preserve">
<path fill="#727171" d="M85.085,126.7h-15.12v-5.88h3.78v-17.64h-3.78V97.3h15.12v5.88h-3.779v17.64h3.779V126.7z"/>
<path fill="#727171" d="M103.146,126.7h-7.56v-23.52h-8.82V97.3h25.2v5.88h-8.82V126.7z"/>
<path fill="#727171" d="M117.216,126.7h-8.19l11.13-29.4h8.4l11.129,29.4h-8.188l-1.891-5.25h-10.5L117.216,126.7z M120.995,115.99
	h6.721l-3.36-9.87L120.995,115.99z"/>
<path fill="#727171" d="M149.346,120.82h15.33v5.88h-22.891V97.3h7.561V120.82z"/>
<path fill="#727171" d="M159.215,97.3h7.98l6.93,14.28l6.93-14.28h7.98l-11.131,21.632v7.77h-7.56v-7.77L159.215,97.3z"/>
</svg>
