<?xml version="1.0" encoding="utf-8"?>
<!-- Generator: Adobe Illustrator 16.0.0, SVG Export Plug-In . SVG Version: 6.00 Build 0)  -->
<!DOCTYPE svg PUBLIC "-//W3C//DTD SVG 1.1//EN" "http://www.w3.org/Graphics/SVG/1.1/DTD/svg11.dtd">
<svg version="1.1" id="레이어_1" xmlns="http://www.w3.org/2000/svg" xmlns:xlink="http://www.w3.org/1999/xlink" x="0px"
	 y="0px" width="259px" height="224px" viewBox="0 0 259 224" enable-background="new 0 0 259 224" xml:space="preserve">
<path fill="#727171" d="M77.589,124.979c-1.289,1.289-3.27,1.933-5.943,1.933s-5.509-0.142-8.505-0.42v-5.671
	c2.184,0.142,4.424,0.211,6.72,0.211c0.644,0,1.155-0.189,1.533-0.567c0.378-0.377,0.567-0.889,0.567-1.532v-15.96H66.5v-5.88h13.02
	v21.841C79.521,121.675,78.876,123.689,77.589,124.979z"/>
<path fill="#727171" d="M88.55,126.49h-8.19l11.13-29.4h8.4l11.13,29.4h-8.19l-1.89-5.25h-10.5L88.55,126.49z M92.33,115.779h6.72
	l-3.36-9.869L92.33,115.779z"/>
<path fill="#727171" d="M113.12,97.09h17.64c2.94,0,5.075,0.666,6.405,1.995c1.329,1.33,1.995,3.465,1.995,6.405v4.2
	c0,2.939-0.666,5.076-1.995,6.406c-1.33,1.329-3.465,1.993-6.405,1.993h-10.08v8.399h-7.56V97.09L113.12,97.09z M131.6,105.49
	c0-1.681-0.84-2.521-2.52-2.521h-8.4v9.24h8.4c1.68,0,2.52-0.84,2.52-2.52V105.49z"/>
<path fill="#727171" d="M145.67,126.49h-8.189l11.129-29.4h8.4l11.131,29.4h-8.19l-1.89-5.25h-10.5L145.67,126.49z M149.449,115.779
	h6.721l-3.359-9.869L149.449,115.779z"/>
<path fill="#727171" d="M195.859,126.49h-7.98l-10.08-17.641v17.641h-7.561v-29.4h7.979l10.08,17.641V97.09h7.562V126.49
	L195.859,126.49z"/>
</svg>
