<?xml version="1.0" encoding="utf-8"?>
<!-- Generator: Adobe Illustrator 16.0.0, SVG Export Plug-In . SVG Version: 6.00 Build 0)  -->
<!DOCTYPE svg PUBLIC "-//W3C//DTD SVG 1.1//EN" "http://www.w3.org/Graphics/SVG/1.1/DTD/svg11.dtd">
<svg version="1.1" id="레이어_1" xmlns="http://www.w3.org/2000/svg" xmlns:xlink="http://www.w3.org/1999/xlink" x="0px"
	 y="0px" width="259px" height="224px" viewBox="0 0 259 224" enable-background="new 0 0 259 224" xml:space="preserve">
<path fill="#727171" d="M66.639,126.7h-7.56V97.3h7.56v11.55h3.78l6.552-11.55h7.98l-8.232,14.49l8.19,14.91h-7.98l-6.51-11.972
	h-3.78V126.7z"/>
<path fill="#727171" d="M113.091,118.721c0,2.939-0.666,5.075-1.995,6.404c-1.33,1.33-3.465,1.995-6.405,1.995h-10.5
	c-2.94,0-5.076-0.665-6.405-1.995c-1.33-1.329-1.995-3.465-1.995-6.404V105.28c0-2.94,0.665-5.075,1.995-6.405
	s3.465-1.995,6.405-1.995h10.5c2.94,0,5.075,0.665,6.405,1.995c1.33,1.33,1.995,3.465,1.995,6.405V118.721z M105.531,105.28
	c0-1.681-0.84-2.521-2.52-2.521h-7.14c-1.68,0-2.52,0.84-2.52,2.521v13.439c0,1.682,0.84,2.521,2.52,2.521h7.14
	c1.68,0,2.52-0.84,2.52-2.521V105.28z"/>
<path fill="#727171" d="M117.291,97.3h17.641c2.939,0,5.074,0.666,6.404,1.995c1.329,1.33,1.995,3.465,1.995,6.405v3.779
	c0,2.325-0.386,4.13-1.155,5.419c-0.77,1.287-1.994,2.142-3.675,2.562l5.25,9.24h-8.188l-4.83-8.82h-5.88v8.82h-7.56L117.291,97.3
	L117.291,97.3z M135.771,105.7c0-1.681-0.84-2.521-2.521-2.521h-8.4V112h8.4c1.681,0,2.521-0.84,2.521-2.521V105.7z"/>
<path fill="#727171" d="M170.841,126.7h-23.312V97.3h23.312v5.88h-15.75v5.67h12.392v5.88h-12.392v6.09h15.75V126.7z"/>
<path fill="#727171" d="M179.45,126.7h-8.188l11.129-29.4h8.399l11.131,29.4h-8.19l-1.89-5.25h-10.5L179.45,126.7z M183.229,115.99
	h6.722l-3.359-9.87L183.229,115.99z"/>
</svg>
