<?xml version="1.0" encoding="utf-8"?>
<!-- Generator: Adobe Illustrator 16.0.0, SVG Export Plug-In . SVG Version: 6.00 Build 0)  -->
<!DOCTYPE svg PUBLIC "-//W3C//DTD SVG 1.1//EN" "http://www.w3.org/Graphics/SVG/1.1/DTD/svg11.dtd">
<svg version="1.1" id="레이어_1" xmlns="http://www.w3.org/2000/svg" xmlns:xlink="http://www.w3.org/1999/xlink" x="0px"
	 y="0px" width="259px" height="224px" viewBox="0 0 259 224" enable-background="new 0 0 259 224" xml:space="preserve">
<path fill="#727171" d="M60.096,120.82h15.33v5.88h-22.89V97.3h7.56V120.82z"/>
<path fill="#727171" d="M83.615,126.7h-8.19l11.13-29.4h8.4l11.13,29.4h-8.19l-1.89-5.25h-10.5L83.615,126.7z M87.395,115.99h6.72
	l-3.36-9.87L87.395,115.99z"/>
<path fill="#727171" d="M119.525,126.7h-7.56v-23.52h-8.82V97.3h25.2v5.88h-8.82V126.7z"/>
<path fill="#727171" d="M143.676,117.88l7.139-20.58h8.191l-11.131,29.4h-8.4l-11.128-29.4h8.19L143.676,117.88z"/>
<path fill="#727171" d="M174.965,126.7h-15.121v-5.88h3.781v-17.64h-3.781V97.3h15.121v5.88h-3.779v17.64h3.779V126.7z"/>
<path fill="#727171" d="M183.994,126.7h-8.189l11.131-29.4h8.398l11.131,29.4h-8.189l-1.891-5.25h-10.5L183.994,126.7z
	 M187.775,115.99h6.719l-3.359-9.87L187.775,115.99z"/>
</svg>
