<?xml version="1.0" encoding="utf-8"?>
<!-- Generator: Adobe Illustrator 16.0.0, SVG Export Plug-In . SVG Version: 6.00 Build 0)  -->
<!DOCTYPE svg PUBLIC "-//W3C//DTD SVG 1.1//EN" "http://www.w3.org/Graphics/SVG/1.1/DTD/svg11.dtd">
<svg version="1.1" id="레이어_1" xmlns="http://www.w3.org/2000/svg" xmlns:xlink="http://www.w3.org/1999/xlink" x="0px"
	 y="0px" width="259px" height="224px" viewBox="0 0 259 224" enable-background="new 0 0 259 224" xml:space="preserve">
<path fill="#727171" d="M44.476,119.79h13.87v5.319h-20.71V98.51h6.84V119.79z"/>
<path fill="#727171" d="M73.545,125.109h-13.68v-5.319h3.42v-15.96h-3.42v-5.32h13.68v5.32h-3.42v15.96h3.42V125.109z"/>
<path fill="#727171" d="M99.766,124.54c-5.929,0.633-11.375,0.95-16.34,0.95c-2.483,0-4.308-0.584-5.473-1.748
	c-1.165-1.165-1.748-2.989-1.748-5.473v-12.16c0-2.66,0.602-4.592,1.806-5.795c1.202-1.203,3.135-1.806,5.795-1.806h13.68v5.32
	h-12.16c-1.52,0-2.28,0.76-2.28,2.28v12.161c0,0.582,0.171,1.045,0.514,1.387c0.342,0.342,0.804,0.513,1.387,0.513
	c2.913,0,5.573-0.063,7.98-0.188v-5.512h-4.94v-4.56h11.78L99.766,124.54L99.766,124.54z"/>
<path fill="#727171" d="M126.745,125.109h-6.84v-10.83h-9.5v10.83h-6.841V98.51h6.841v10.45h9.5V98.51h6.84V125.109z"/>
<path fill="#727171" d="M144.225,125.109h-6.84V103.83h-7.979v-5.32h22.8v5.32h-7.979v21.279H144.225z"/>
<path fill="#727171" d="M167.404,125.109h-13.68v-5.319h3.42v-15.96h-3.42v-5.32h13.68v5.32h-3.42v15.96h3.42V125.109
	L167.404,125.109z"/>
<path fill="#727171" d="M194.004,125.109h-7.219l-9.121-15.959v15.959h-6.84V98.51h7.221l9.119,15.96V98.51h6.84V125.109z"/>
<path fill="#727171" d="M221.363,124.54c-5.928,0.633-11.375,0.95-16.34,0.95c-2.482,0-4.308-0.584-5.472-1.748
	c-1.165-1.165-1.747-2.989-1.747-5.473v-12.16c0-2.66,0.602-4.592,1.805-5.795s3.135-1.806,5.795-1.806h13.68v5.32h-12.16
	c-1.52,0-2.279,0.76-2.279,2.28v12.161c0,0.582,0.17,1.045,0.514,1.387c0.342,0.342,0.804,0.513,1.387,0.513
	c2.913,0,5.573-0.063,7.98-0.188v-5.512h-4.94v-4.56h11.78v14.631H221.363z"/>
</svg>
