<?xml version="1.0" encoding="utf-8"?>
<!-- Generator: Adobe Illustrator 16.0.0, SVG Export Plug-In . SVG Version: 6.00 Build 0)  -->
<!DOCTYPE svg PUBLIC "-//W3C//DTD SVG 1.1//EN" "http://www.w3.org/Graphics/SVG/1.1/DTD/svg11.dtd">
<svg version="1.1" id="레이어_1" xmlns="http://www.w3.org/2000/svg" xmlns:xlink="http://www.w3.org/1999/xlink" x="0px"
	 y="0px" width="259px" height="224px" viewBox="0 0 259 224" enable-background="new 0 0 259 224" xml:space="preserve">
<path fill="#727171" d="M44.968,110.11l-5.881,10.5h-5.88l-5.88-10.5v16.38h-7.56v-29.4h7.979l8.4,15.54l8.399-15.54h7.98v29.4
	h-7.56v-16.38H44.968z"/>
<path fill="#727171" d="M62.817,126.49h-8.19l11.13-29.4h8.4l11.13,29.4h-8.19l-1.89-5.25h-10.5L62.817,126.49z M66.597,115.779
	h6.721l-3.36-9.869L66.597,115.779z"/>
<path fill="#727171" d="M94.946,120.609h15.33v5.881h-22.89v-29.4h7.56V120.609z"/>
<path fill="#727171" d="M118.467,126.49h-8.19l11.13-29.4h8.399l11.131,29.4h-8.19l-1.89-5.25h-10.5L118.467,126.49z
	 M122.246,115.779h6.721l-3.36-9.869L122.246,115.779z"/>
<path fill="#727171" d="M136.316,97.09h7.979l6.93,14.28l6.932-14.28h7.979l-11.129,21.631v7.771h-7.561v-7.771L136.316,97.09z"/>
<path fill="#727171" d="M166.852,120.4c7.672,0.42,12.864,0.629,15.582,0.629c0.644,0,1.153-0.188,1.532-0.566
	c0.377-0.377,0.566-0.889,0.566-1.533v-3.779h-9.66c-2.938,0-5.075-0.664-6.404-1.994s-1.995-3.465-1.995-6.405v-1.26
	c0-2.94,0.666-5.075,1.995-6.405c1.329-1.329,3.466-1.995,6.404-1.995h14.741v5.88h-13.063c-1.68,0-2.52,0.84-2.52,2.521v0.84
	c0,1.68,0.84,2.52,2.52,2.52h7.561c2.744,0,4.761,0.645,6.05,1.933c1.287,1.288,1.932,3.304,1.932,6.048v2.101
	c0,2.744-0.645,4.76-1.932,6.049c-1.289,1.287-3.306,1.932-6.05,1.932c-1.428,0-2.938-0.027-4.535-0.084l-3.864-0.168
	c-2.854-0.141-5.812-0.336-8.86-0.588V120.4L166.852,120.4z"/>
<path fill="#727171" d="M209.73,126.49h-15.119v-5.881h3.779V102.97h-3.779v-5.88h15.119v5.88h-3.778v17.641h3.778V126.49z"/>
<path fill="#727171" d="M218.764,126.49h-8.19l11.13-29.4h8.4l11.129,29.4h-8.189l-1.891-5.25h-10.5L218.764,126.49z
	 M222.542,115.779h6.722l-3.361-9.869L222.542,115.779z"/>
</svg>
