<?xml version="1.0" encoding="utf-8"?>
<!-- Generator: Adobe Illustrator 16.0.0, SVG Export Plug-In . SVG Version: 6.00 Build 0)  -->
<!DOCTYPE svg PUBLIC "-//W3C//DTD SVG 1.1//EN" "http://www.w3.org/Graphics/SVG/1.1/DTD/svg11.dtd">
<svg version="1.1" id="레이어_1" xmlns="http://www.w3.org/2000/svg" xmlns:xlink="http://www.w3.org/1999/xlink" x="0px"
	 y="0px" width="259px" height="224px" viewBox="0 0 259 224" enable-background="new 0 0 259 224" xml:space="preserve">
<path fill="#727171" d="M88.936,110.48l-5.32,9.5h-5.32l-5.32-9.5v14.82h-6.84V98.7h7.22l7.6,14.06l7.6-14.06h7.22v26.6h-6.84
	V110.48z"/>
<path fill="#727171" d="M121.425,125.3h-21.09V98.7h21.09v5.32h-14.25v5.13h11.21v5.319h-11.21v5.512h14.25V125.3z"/>
<path fill="#727171" d="M139.285,98.7c2.863,0,5.035,0.741,6.518,2.223s2.223,3.654,2.223,6.518v9.12
	c0,2.862-0.739,5.035-2.223,6.518c-1.482,1.48-3.654,2.223-6.518,2.223h-14.82V98.7H139.285z M141.186,107.44
	c0-2.28-1.141-3.42-3.42-3.42h-6.461v15.96h6.461c2.279,0,3.42-1.142,3.42-3.422V107.44z"/>
<path fill="#727171" d="M164.365,125.3h-13.68v-5.319h3.42v-15.959h-3.42V98.7h13.68v5.32h-3.42v15.96h3.42V125.3L164.365,125.3z"/>
<path fill="#727171" d="M172.535,125.3h-7.41l10.07-26.6h7.6l10.07,26.6h-7.41l-1.711-4.75h-9.5L172.535,125.3z M175.955,115.609
	h6.08l-3.041-8.93L175.955,115.609z"/>
</svg>
