<?xml version="1.0" encoding="utf-8"?>
<!-- Generator: Adobe Illustrator 16.0.0, SVG Export Plug-In . SVG Version: 6.00 Build 0)  -->
<!DOCTYPE svg PUBLIC "-//W3C//DTD SVG 1.1//EN" "http://www.w3.org/Graphics/SVG/1.1/DTD/svg11.dtd">
<svg version="1.1" id="레이어_1" xmlns="http://www.w3.org/2000/svg" xmlns:xlink="http://www.w3.org/1999/xlink" x="0px"
	 y="0px" width="259px" height="224px" viewBox="0 0 259 224" enable-background="new 0 0 259 224" xml:space="preserve">
<path fill="#727171" d="M73.536,110.32l-5.88,10.5h-5.88l-5.88-10.5v16.38h-7.56V97.3h7.98l8.4,15.54l8.4-15.54h7.98v29.4h-7.56
	V110.32z"/>
<path fill="#727171" d="M109.446,126.7h-23.31V97.3h23.31v5.88h-15.75v5.67h12.39v5.88h-12.39v6.09h15.75V126.7z"/>
<path fill="#727171" d="M129.815,97.3h8.4l-9.45,14.7l9.66,14.7h-8.399l-5.88-9.24l-5.88,9.24h-8.4l9.66-14.7l-9.45-14.7h8.358
	l5.712,9.24L129.815,97.3z"/>
<path fill="#727171" d="M154.385,126.7h-15.119v-5.88h3.779v-17.64h-3.779V97.3h15.119v5.88h-3.779v17.64h3.779V126.7z"/>
<path fill="#727171" d="M180.846,126.279c-6.244,0.561-11.425,0.841-15.541,0.841c-2.744,0-4.76-0.644-6.048-1.933
	c-1.288-1.287-1.932-3.304-1.932-6.049V105.7c0-2.94,0.665-5.075,1.995-6.405c1.328-1.329,3.465-1.995,6.404-1.995h15.121v5.88
	h-13.441c-1.68,0-2.521,0.84-2.521,2.521v13.439c0,0.645,0.188,1.155,0.567,1.532c0.378,0.378,0.859,0.567,1.447,0.567
	c0.59,0,1.232-0.008,1.934-0.021c0.7-0.014,1.429-0.033,2.186-0.063c0.756-0.027,1.518-0.057,2.289-0.084
	c0.77-0.027,1.764-0.084,2.98-0.168s2.736-0.182,4.559-0.295V126.279L180.846,126.279z"/>
<path fill="#727171" d="M210.664,118.721c0,2.939-0.665,5.075-1.994,6.404c-1.33,1.33-3.465,1.995-6.404,1.995h-10.5
	c-2.94,0-5.076-0.665-6.406-1.995c-1.33-1.329-1.993-3.465-1.993-6.404V105.28c0-2.94,0.663-5.075,1.993-6.405
	s3.466-1.995,6.406-1.995h10.5c2.939,0,5.074,0.665,6.404,1.995c1.329,1.33,1.994,3.465,1.994,6.405V118.721z M203.104,105.28
	c0-1.681-0.84-2.521-2.521-2.521h-7.14c-1.68,0-2.521,0.84-2.521,2.521v13.439c0,1.682,0.841,2.521,2.521,2.521h7.14
	c1.681,0,2.521-0.84,2.521-2.521V105.28z"/>
</svg>
