<?xml version="1.0" encoding="utf-8"?>
<!-- Generator: Adobe Illustrator 16.0.0, SVG Export Plug-In . SVG Version: 6.00 Build 0)  -->
<!DOCTYPE svg PUBLIC "-//W3C//DTD SVG 1.1//EN" "http://www.w3.org/Graphics/SVG/1.1/DTD/svg11.dtd">
<svg version="1.1" id="레이어_1" xmlns="http://www.w3.org/2000/svg" xmlns:xlink="http://www.w3.org/1999/xlink" x="0px"
	 y="0px" width="259px" height="224px" viewBox="0 0 259 224" enable-background="new 0 0 259 224" xml:space="preserve">
<path fill="#727171" d="M30.221,123.04h-6.08l-7.68-13.44v13.44h-5.76v-22.4h6.08l7.68,13.44v-13.44h5.76V123.04z"/>
<path fill="#727171" d="M51.821,123.04h-17.76v-22.4h17.761v4.48h-12v4.319h9.439v4.48h-9.439v4.64h12L51.821,123.04L51.821,123.04z
	"/>
<path fill="#727171" d="M65.261,123.04h-5.76v-17.92H52.78v-4.48h19.2v4.48h-6.72v17.92H65.261z"/>
<path fill="#727171" d="M93.74,123.04h-5.76v-9.12h-8v9.12h-5.76v-22.4h5.76v8.8h8v-8.8h5.76V123.04z"/>
<path fill="#727171" d="M115.341,123.04H97.58v-22.4h17.761v4.48h-12v4.319h9.439v4.48h-9.439v4.64h12V123.04z"/>
<path fill="#727171" d="M117.9,100.64h13.439c2.24,0,3.867,0.507,4.882,1.521c1.012,1.013,1.52,2.64,1.52,4.88v2.88
	c0,1.771-0.295,3.146-0.881,4.128c-0.586,0.98-1.521,1.633-2.799,1.952l4,7.04h-6.24l-3.68-6.721h-4.48v6.721h-5.76V100.64
	L117.9,100.64z M131.98,107.04c0-1.28-0.642-1.92-1.92-1.92h-6.4v6.72h6.4c1.278,0,1.92-0.64,1.92-1.92V107.04z"/>
<path fill="#727171" d="M146.699,118.561h11.68v4.479h-17.439v-22.4h5.761L146.699,118.561L146.699,118.561z"/>
<path fill="#727171" d="M164.619,123.04h-6.24l8.48-22.4h6.399l8.479,22.4h-6.24l-1.439-4h-8L164.619,123.04z M167.499,114.88h5.12
	l-2.561-7.521L167.499,114.88z"/>
<path fill="#727171" d="M202.859,123.04h-6.08l-7.68-13.44v13.44h-5.762v-22.4h6.08l7.682,13.44v-13.44h5.76V123.04z"/>
<path fill="#727171" d="M219.18,100.64c2.41,0,4.239,0.624,5.487,1.872s1.872,3.077,1.872,5.488v7.68
	c0,2.411-0.624,4.24-1.872,5.488s-3.077,1.872-5.487,1.872H206.7v-22.4H219.18z M220.779,108c0-1.92-0.961-2.88-2.881-2.88h-5.439
	v13.438h5.439c1.92,0,2.881-0.959,2.881-2.879V108z"/>
<path fill="#727171" d="M229.066,118.4c5.845,0.318,9.803,0.479,11.871,0.479c0.49,0,0.881-0.145,1.168-0.432
	c0.289-0.288,0.434-0.678,0.434-1.168v-2.881h-7.361c-2.238,0-3.865-0.506-4.879-1.521c-1.014-1.013-1.521-2.64-1.521-4.88v-0.96
	c0-2.24,0.508-3.867,1.521-4.88c1.014-1.014,2.641-1.521,4.879-1.521h11.232v4.48h-9.951c-1.281,0-1.92,0.64-1.92,1.92v0.64
	c0,1.28,0.639,1.92,1.92,1.92h5.76c2.09,0,3.626,0.491,4.607,1.473c0.98,0.982,1.473,2.517,1.473,4.608v1.6
	c0,2.092-0.49,3.627-1.473,4.607c-0.981,0.981-2.518,1.473-4.607,1.473c-1.088,0-2.24-0.021-3.457-0.063l-2.943-0.128
	c-2.176-0.105-4.426-0.256-6.752-0.447V118.4L229.066,118.4z"/>
</svg>
