<?xml version="1.0" encoding="utf-8"?>
<!-- Generator: Adobe Illustrator 16.0.0, SVG Export Plug-In . SVG Version: 6.00 Build 0)  -->
<!DOCTYPE svg PUBLIC "-//W3C//DTD SVG 1.1//EN" "http://www.w3.org/Graphics/SVG/1.1/DTD/svg11.dtd">
<svg version="1.1" id="레이어_1" xmlns="http://www.w3.org/2000/svg" xmlns:xlink="http://www.w3.org/1999/xlink" x="0px"
	 y="0px" width="259px" height="224px" viewBox="0 0 259 224" enable-background="new 0 0 259 224" xml:space="preserve">
<path fill="#727171" d="M63.35,126.7h-7.98l-10.08-17.64v17.64h-7.56V97.3h7.98l10.08,17.642V97.3h7.56V126.7z"/>
<path fill="#727171" d="M94.85,118.721c0,2.939-0.666,5.075-1.995,6.404c-1.33,1.33-3.465,1.995-6.405,1.995h-10.5
	c-2.94,0-5.076-0.665-6.405-1.995c-1.33-1.329-1.995-3.465-1.995-6.404V105.28c0-2.94,0.665-5.075,1.995-6.405
	s3.465-1.995,6.405-1.995h10.5c2.94,0,5.075,0.665,6.405,1.995s1.995,3.465,1.995,6.405V118.721z M87.29,105.28
	c0-1.681-0.84-2.521-2.52-2.521h-7.14c-1.68,0-2.52,0.84-2.52,2.521v13.439c0,1.682,0.84,2.521,2.52,2.521h7.14
	c1.68,0,2.52-0.84,2.52-2.521V105.28z"/>
<path fill="#727171" d="M99.05,97.3h17.64c2.94,0,5.075,0.666,6.405,1.995c1.33,1.33,1.995,3.465,1.995,6.405v3.779
	c0,2.325-0.385,4.13-1.155,5.419c-0.77,1.287-1.995,2.142-3.675,2.562l5.25,9.24h-8.19l-4.83-8.82h-5.88v8.82h-7.56V97.3z
	 M117.53,105.7c0-1.681-0.84-2.521-2.52-2.521h-8.4V112h8.4c1.68,0,2.52-0.84,2.52-2.521V105.7z"/>
<path fill="#727171" d="M150.709,97.3l5.039,18.9l4.41-18.9h8.191l-7.98,29.4h-7.98l-5.039-18.271l-5.041,18.271h-7.979l-7.979-29.4
	h8.19l4.41,18.9l5.039-18.9H150.709z"/>
<path fill="#727171" d="M173.6,126.7h-8.188l11.129-29.4h8.399l11.131,29.4h-8.19l-1.889-5.25h-10.5L173.6,126.7z M177.379,115.99
	h6.721l-3.358-9.87L177.379,115.99z"/>
<path fill="#727171" d="M191.449,97.3h7.98l6.93,14.28l6.93-14.28h7.98l-11.131,21.632v7.77h-7.56v-7.77L191.449,97.3z"/>
</svg>
