<?xml version="1.0" encoding="utf-8"?>
<!-- Generator: Adobe Illustrator 16.0.0, SVG Export Plug-In . SVG Version: 6.00 Build 0)  -->
<!DOCTYPE svg PUBLIC "-//W3C//DTD SVG 1.1//EN" "http://www.w3.org/Graphics/SVG/1.1/DTD/svg11.dtd">
<svg version="1.1" id="레이어_1" xmlns="http://www.w3.org/2000/svg" xmlns:xlink="http://www.w3.org/1999/xlink" x="0px"
	 y="0px" width="259px" height="224px" viewBox="0 0 259 224" enable-background="new 0 0 259 224" xml:space="preserve">
<path fill="#727171" d="M32.677,98.51h15.96c2.66,0,4.591,0.603,5.795,1.806c1.203,1.203,1.805,3.135,1.805,5.795v3.8
	c0,2.659-0.602,4.592-1.805,5.795c-1.204,1.203-3.135,1.806-5.795,1.806h-9.12v7.6h-6.84V98.51z M49.397,106.11
	c0-1.521-0.76-2.28-2.28-2.28h-7.6v8.36h7.6c1.52,0,2.28-0.761,2.28-2.28V106.11z"/>
<path fill="#727171" d="M62.126,125.109h-7.41l10.07-26.601h7.6l10.07,26.601h-7.41l-1.71-4.75h-9.5L62.126,125.109z M65.547,115.42
	h6.08l-3.04-8.93L65.547,115.42z"/>
<path fill="#727171" d="M104.117,124.73c-5.649,0.506-10.336,0.76-14.06,0.76c-2.483,0-4.307-0.583-5.472-1.748
	c-1.166-1.165-1.748-2.989-1.748-5.473v-12.16c0-2.66,0.602-4.592,1.805-5.795s3.135-1.806,5.795-1.806h13.68v5.32h-12.16
	c-1.52,0-2.28,0.76-2.28,2.28v12.161c0,0.582,0.171,1.045,0.513,1.387c0.342,0.342,0.779,0.513,1.311,0.513s1.114-0.006,1.748-0.019
	c0.633-0.014,1.292-0.031,1.976-0.059c0.684-0.023,1.374-0.05,2.071-0.074c0.696-0.025,1.596-0.076,2.698-0.152
	s2.476-0.165,4.123-0.266V124.73z"/>
<path fill="#727171" d="M113.997,125.109h-6.84V98.51h6.84v10.45h3.42l5.928-10.45h7.219l-7.447,13.11l7.41,13.489h-7.22
	l-5.89-10.83h-3.42V125.109L113.997,125.109z"/>
<path fill="#727171" d="M137.596,125.109h-7.41l10.069-26.601h7.601l10.069,26.601h-7.409l-1.711-4.75h-9.5L137.596,125.109z
	 M141.016,115.42h6.08l-3.041-8.93L141.016,115.42z"/>
<path fill="#727171" d="M172.363,125.109h-13.68v-5.319h3.42v-15.96h-3.42v-5.32h13.68v5.32h-3.42v15.96h3.42V125.109
	L172.363,125.109z"/>
<path fill="#727171" d="M198.964,125.109h-7.22l-9.12-15.959v15.959h-6.84V98.51h7.22l9.12,15.96V98.51h6.84V125.109z"/>
<path fill="#727171" d="M226.323,124.54c-5.929,0.633-11.375,0.95-16.341,0.95c-2.481,0-4.307-0.584-5.471-1.748
	c-1.166-1.165-1.748-2.989-1.748-5.473v-12.16c0-2.66,0.602-4.592,1.805-5.795s3.136-1.806,5.795-1.806h13.681v5.32h-12.16
	c-1.521,0-2.28,0.76-2.28,2.28v12.161c0,0.582,0.172,1.045,0.514,1.387s0.805,0.513,1.387,0.513c2.914,0,5.574-0.063,7.98-0.188
	v-5.512h-4.939v-4.56h11.779L226.323,124.54L226.323,124.54z"/>
</svg>
