<?xml version="1.0" encoding="utf-8"?>
<!-- Generator: Adobe Illustrator 16.0.0, SVG Export Plug-In . SVG Version: 6.00 Build 0)  -->
<!DOCTYPE svg PUBLIC "-//W3C//DTD SVG 1.1//EN" "http://www.w3.org/Graphics/SVG/1.1/DTD/svg11.dtd">
<svg version="1.1" id="레이어_1" xmlns="http://www.w3.org/2000/svg" xmlns:xlink="http://www.w3.org/1999/xlink" x="0px"
	 y="0px" width="259px" height="224px" viewBox="0 0 259 224" enable-background="new 0 0 259 224" xml:space="preserve">
<path fill="#727171" d="M72.905,97.09h17.641c2.939,0,5.074,0.666,6.404,1.995c1.33,1.33,1.995,3.465,1.995,6.405v4.2
	c0,2.939-0.665,5.076-1.995,6.406c-1.33,1.329-3.465,1.993-6.404,1.993h-10.08v8.399h-7.561V97.09z M91.386,105.49
	c0-1.681-0.84-2.521-2.521-2.521h-8.399v9.24h8.399c1.681,0,2.521-0.84,2.521-2.52V105.49z"/>
<path fill="#727171" d="M126.035,126.49h-23.31v-29.4h23.31v5.88h-15.75v5.67h12.391v5.879h-12.391v6.092h15.75V126.49z"/>
<path fill="#727171" d="M129.395,97.09h17.641c2.938,0,5.073,0.666,6.403,1.995c1.33,1.33,1.996,3.465,1.996,6.405v3.779
	c0,2.325-0.386,4.131-1.156,5.418c-0.77,1.289-1.993,2.143-3.674,2.563l5.25,9.24h-8.189l-4.83-8.82h-5.88v8.82h-7.561V97.09z
	 M147.875,105.49c0-1.681-0.84-2.521-2.52-2.521h-8.4v8.82h8.4c1.68,0,2.52-0.84,2.52-2.521V105.49z"/>
<path fill="#727171" d="M178.535,97.09h7.561v21.42c0,2.94-0.666,5.076-1.996,6.405c-1.33,1.33-3.465,1.995-6.404,1.995h-9.659
	c-2.94,0-5.076-0.665-6.405-1.995c-1.331-1.329-1.994-3.465-1.994-6.405V97.09h7.561v21.42c0,1.682,0.84,2.521,2.52,2.521h6.301
	c1.681,0,2.521-0.84,2.521-2.521V97.09H178.535z"/>
</svg>
