<?xml version="1.0" encoding="utf-8"?>
<!-- Generator: Adobe Illustrator 16.0.0, SVG Export Plug-In . SVG Version: 6.00 Build 0)  -->
<!DOCTYPE svg PUBLIC "-//W3C//DTD SVG 1.1//EN" "http://www.w3.org/Graphics/SVG/1.1/DTD/svg11.dtd">
<svg version="1.1" id="레이어_1" xmlns="http://www.w3.org/2000/svg" xmlns:xlink="http://www.w3.org/1999/xlink" x="0px"
	 y="0px" width="259px" height="224px" viewBox="0 0 259 224" enable-background="new 0 0 259 224" xml:space="preserve">
<path fill="#727171" d="M12.601,99.575h14.7c2.45,0,4.229,0.555,5.338,1.663c1.108,1.108,1.662,2.887,1.662,5.337v3.5
	c0,2.45-0.554,4.229-1.662,5.338c-1.109,1.106-2.888,1.662-5.338,1.662h-8.4v7h-6.3V99.575z M28.001,106.575c0-1.4-0.7-2.1-2.1-2.1
	h-7v7.7h7c1.4,0,2.1-0.7,2.1-2.1V106.575z"/>
<path fill="#727171" d="M58.801,124.075h-6.3V114.1h-8.75v9.976h-6.3v-24.5h6.3v9.625h8.75v-9.625h6.3V124.075z"/>
<path fill="#727171" d="M74.55,124.075h-12.6v-4.9h3.15v-14.7h-3.15v-4.9h12.6v4.9H71.4v14.7h3.15V124.075z"/>
<path fill="#727171" d="M84,119.175h12.775v4.9H77.701v-24.5H84V119.175z"/>
<path fill="#727171" d="M110.775,124.075h-12.6v-4.9h3.15v-14.7h-3.15v-4.9h12.6v4.9h-3.15v14.7h3.15V124.075z"/>
<path fill="#727171" d="M113.925,99.575h14.7c2.451,0,4.229,0.555,5.338,1.663c1.107,1.108,1.662,2.887,1.662,5.337v3.5
	c0,2.45-0.555,4.229-1.662,5.338c-1.109,1.106-2.887,1.662-5.338,1.662h-8.4v7h-6.3V99.575L113.925,99.575z M129.325,106.575
	c0-1.4-0.7-2.1-2.1-2.1h-7v7.7h7c1.4,0,2.1-0.7,2.1-2.1V106.575z"/>
<path fill="#727171" d="M138.775,99.575h14.699c2.45,0,4.229,0.555,5.338,1.663c1.106,1.108,1.662,2.887,1.662,5.337v3.5
	c0,2.45-0.556,4.229-1.662,5.338c-1.109,1.106-2.888,1.662-5.338,1.662h-8.4v7h-6.299V99.575L138.775,99.575z M154.176,106.575
	c0-1.4-0.701-2.1-2.102-2.1h-7v7.7h7c1.4,0,2.102-0.7,2.102-2.1V106.575z"/>
<path fill="#727171" d="M175.174,124.075h-12.6v-4.9h3.15v-14.7h-3.15v-4.9h12.6v4.9h-3.148v14.7h3.148V124.075z"/>
<path fill="#727171" d="M199.676,124.075h-6.65l-8.399-14.7v14.7h-6.301v-24.5h6.649l8.4,14.7v-14.7h6.301V124.075z"/>
<path fill="#727171" d="M223.299,124.075h-19.424v-24.5h19.424v4.9h-13.125v4.725H220.5v4.899h-10.326v5.074h13.125V124.075z"/>
<path fill="#727171" d="M225.365,119c6.393,0.352,10.721,0.525,12.984,0.525c0.537,0,0.963-0.157,1.276-0.473
	c0.313-0.316,0.474-0.74,0.474-1.277v-3.15h-8.052c-2.448,0-4.229-0.555-5.338-1.662c-1.106-1.108-1.662-2.888-1.662-5.338v-1.05
	c0-2.45,0.556-4.229,1.662-5.337c1.108-1.108,2.89-1.663,5.338-1.663h12.285v4.9h-10.885c-1.4,0-2.101,0.7-2.101,2.1v0.7
	c0,1.4,0.699,2.1,2.101,2.1h6.301c2.285,0,3.965,0.537,5.039,1.61c1.071,1.073,1.608,2.753,1.608,5.041v1.75
	c0,2.287-0.537,3.967-1.608,5.039c-1.074,1.074-2.754,1.609-5.039,1.609c-1.19,0-2.451-0.023-3.781-0.068l-3.219-0.142
	c-2.381-0.116-4.842-0.278-7.385-0.489L225.365,119L225.365,119z"/>
</svg>
