<?xml version="1.0" encoding="utf-8"?>
<!-- Generator: Adobe Illustrator 16.0.0, SVG Export Plug-In . SVG Version: 6.00 Build 0)  -->
<!DOCTYPE svg PUBLIC "-//W3C//DTD SVG 1.1//EN" "http://www.w3.org/Graphics/SVG/1.1/DTD/svg11.dtd">
<svg version="1.1" id="레이어_1" xmlns="http://www.w3.org/2000/svg" xmlns:xlink="http://www.w3.org/1999/xlink" x="0px"
	 y="0px" width="259px" height="224px" viewBox="0 0 259 224" enable-background="new 0 0 259 224" xml:space="preserve">
<path fill="#727171" d="M43.085,97.3h17.64c2.94,0,5.075,0.666,6.405,1.995c1.33,1.33,1.995,3.465,1.995,6.405v4.2
	c0,2.939-0.666,5.075-1.995,6.405c-1.33,1.33-3.465,1.994-6.405,1.994h-10.08v8.4h-7.56V97.3z M61.565,105.7
	c0-1.681-0.84-2.521-2.52-2.521h-8.4v9.24h8.4c1.68,0,2.52-0.84,2.52-2.52V105.7z"/>
<path fill="#727171" d="M99.365,118.721c0,2.939-0.666,5.075-1.995,6.404c-1.33,1.33-3.465,1.995-6.405,1.995h-10.5
	c-2.94,0-5.076-0.665-6.405-1.995c-1.33-1.329-1.995-3.465-1.995-6.404V105.28c0-2.94,0.665-5.075,1.995-6.405
	s3.465-1.995,6.405-1.995h10.5c2.94,0,5.075,0.665,6.405,1.995s1.995,3.465,1.995,6.405V118.721z M91.805,105.28
	c0-1.681-0.84-2.521-2.52-2.521h-7.14c-1.68,0-2.52,0.84-2.52,2.521v13.439c0,1.682,0.84,2.521,2.52,2.521h7.14
	c1.68,0,2.52-0.84,2.52-2.521V105.28z"/>
<path fill="#727171" d="M111.125,120.82h15.33v5.88h-22.89V97.3h7.56V120.82z"/>
<path fill="#727171" d="M134.645,126.7h-8.189l11.129-29.4h8.4l11.131,29.4h-8.191l-1.889-5.25h-10.5L134.645,126.7z
	 M138.424,115.99h6.721l-3.358-9.87L138.424,115.99z"/>
<path fill="#727171" d="M184.834,126.7h-7.98l-10.08-17.641V126.7h-7.559V97.3h7.979l10.08,17.642V97.3h7.562L184.834,126.7
	L184.834,126.7z"/>
<path fill="#727171" d="M206.254,97.3c3.164,0,5.564,0.819,7.203,2.457c1.639,1.638,2.457,4.039,2.457,7.203v10.08
	c0,3.164-0.818,5.565-2.457,7.203s-4.039,2.457-7.203,2.457h-16.381V97.3H206.254z M208.354,106.96c0-2.52-1.26-3.78-3.778-3.78
	h-7.142v17.64h7.142c2.521,0,3.778-1.26,3.778-3.779V106.96z"/>
</svg>
