<?xml version="1.0" encoding="utf-8"?>
<!-- Generator: Adobe Illustrator 16.0.0, SVG Export Plug-In . SVG Version: 6.00 Build 0)  -->
<!DOCTYPE svg PUBLIC "-//W3C//DTD SVG 1.1//EN" "http://www.w3.org/Graphics/SVG/1.1/DTD/svg11.dtd">
<svg version="1.1" id="레이어_1" xmlns="http://www.w3.org/2000/svg" xmlns:xlink="http://www.w3.org/1999/xlink" x="0px"
	 y="0px" width="259px" height="224px" viewBox="0 0 259 224" enable-background="new 0 0 259 224" xml:space="preserve">
<path fill="#727171" d="M14.316,97.3h17.64c2.94,0,5.075,0.666,6.405,1.995c1.33,1.33,1.995,3.465,1.995,6.405v4.2
	c0,2.939-0.666,5.075-1.995,6.405c-1.33,1.33-3.465,1.994-6.405,1.994h-10.08v8.4h-7.56V97.3z M32.796,105.7
	c0-1.681-0.84-2.521-2.52-2.521h-8.4v9.24h8.4c1.68,0,2.52-0.84,2.52-2.52V105.7z"/>
<path fill="#727171" d="M70.596,118.721c0,2.939-0.666,5.075-1.995,6.404c-1.33,1.33-3.465,1.995-6.405,1.995h-10.5
	c-2.94,0-5.076-0.665-6.405-1.995c-1.33-1.329-1.995-3.465-1.995-6.404V105.28c0-2.94,0.665-5.075,1.995-6.405
	s3.465-1.995,6.405-1.995h10.5c2.94,0,5.075,0.665,6.405,1.995s1.995,3.465,1.995,6.405V118.721z M63.036,105.28
	c0-1.681-0.84-2.521-2.52-2.521h-7.14c-1.68,0-2.52,0.84-2.52,2.521v13.439c0,1.682,0.84,2.521,2.52,2.521h7.14
	c1.68,0,2.52-0.84,2.52-2.521V105.28z"/>
<path fill="#727171" d="M74.795,97.3h17.64c2.94,0,5.075,0.666,6.405,1.995c1.33,1.33,1.995,3.465,1.995,6.405v3.779
	c0,2.325-0.385,4.13-1.155,5.419c-0.77,1.287-1.995,2.142-3.675,2.562l5.25,9.24h-8.19l-4.83-8.82h-5.88v8.82h-7.56V97.3z
	 M93.275,105.7c0-1.681-0.84-2.521-2.52-2.521h-8.4V112h8.4c1.68,0,2.52-0.84,2.52-2.521V105.7z"/>
<path fill="#727171" d="M119.314,126.7h-7.56v-23.52h-8.82V97.3h25.2v5.88h-8.82V126.7z"/>
<path fill="#727171" d="M149.975,97.3h7.562v21.421c0,2.939-0.666,5.075-1.996,6.404c-1.33,1.33-3.465,1.995-6.403,1.995h-9.66
	c-2.939,0-5.074-0.665-6.404-1.995c-1.33-1.329-1.996-3.465-1.996-6.404V97.3h7.561v21.421c0,1.68,0.84,2.521,2.521,2.521h6.301
	c1.681,0,2.521-0.841,2.521-2.521V97.3H149.975z"/>
<path fill="#727171" d="M187.775,126.07c-6.553,0.699-12.572,1.05-18.062,1.05c-2.743,0-4.76-0.644-6.049-1.933
	c-1.287-1.287-1.933-3.304-1.933-6.049V105.7c0-2.94,0.666-5.075,1.996-6.405c1.328-1.329,3.465-1.995,6.404-1.995h15.121v5.88
	h-13.441c-1.68,0-2.52,0.84-2.52,2.521v13.439c0,0.645,0.189,1.155,0.566,1.532c0.379,0.378,0.889,0.567,1.533,0.567
	c3.221,0,6.159-0.069,8.819-0.211v-6.09h-5.459v-5.04h13.021v16.17H187.775z"/>
<path fill="#727171" d="M197.225,126.7h-8.188l11.129-29.4h8.399l11.131,29.4h-8.19l-1.889-5.25h-10.5L197.225,126.7z
	 M201.004,115.99h6.721l-3.358-9.87L201.004,115.99z"/>
<path fill="#727171" d="M229.354,120.82h15.33v5.88h-22.889V97.3h7.559V120.82L229.354,120.82z"/>
</svg>
