<?xml version="1.0" encoding="utf-8"?>
<!-- Generator: Adobe Illustrator 16.0.0, SVG Export Plug-In . SVG Version: 6.00 Build 0)  -->
<!DOCTYPE svg PUBLIC "-//W3C//DTD SVG 1.1//EN" "http://www.w3.org/Graphics/SVG/1.1/DTD/svg11.dtd">
<svg version="1.1" id="레이어_1" xmlns="http://www.w3.org/2000/svg" xmlns:xlink="http://www.w3.org/1999/xlink" x="0px"
	 y="0px" width="259px" height="224px" viewBox="0 0 259 224" enable-background="new 0 0 259 224" xml:space="preserve">
<path fill="#727171" d="M68.368,84.285h13.859c2.311,0,3.987,0.523,5.033,1.567c1.044,1.045,1.567,2.723,1.567,5.033v3.3
	c0,2.31-0.523,3.988-1.567,5.033c-1.046,1.045-2.723,1.567-5.033,1.567h-7.92v6.6h-5.939V84.285z M82.888,90.885
	c0-1.32-0.66-1.98-1.979-1.98h-6.601v7.26h6.601c1.319,0,1.979-0.66,1.979-1.98V90.885z"/>
<path fill="#727171" d="M106.648,84.285h5.939v16.83c0,2.31-0.523,3.988-1.567,5.033c-1.046,1.045-2.723,1.567-5.032,1.567h-7.591
	c-2.31,0-3.987-0.522-5.032-1.567c-1.045-1.045-1.567-2.723-1.567-5.033v-16.83h5.939v16.83c0,1.32,0.66,1.98,1.98,1.98h4.95
	c1.32,0,1.98-0.66,1.98-1.98L106.648,84.285L106.648,84.285z"/>
<path fill="#727171" d="M116.548,84.285h13.2c2.156,0,3.74,0.49,4.752,1.469s1.518,2.47,1.518,4.471c0,1.32-0.285,2.393-0.856,3.218
	c-0.572,0.825-1.276,1.402-2.112,1.732c1.782,0.484,2.991,1.672,3.631,3.564c0.219,0.682,0.329,1.474,0.329,2.376
	c0,2.156-0.506,3.74-1.518,4.752c-1.013,1.012-2.597,1.518-4.752,1.518h-14.19L116.548,84.285L116.548,84.285z M130.078,90.885
	c0-1.32-0.66-1.98-1.98-1.98h-5.609v4.62h5.609c1.32,0,1.98-0.66,1.98-1.98V90.885z M131.068,100.125c0-1.32-0.66-1.98-1.98-1.98
	h-6.6v4.62h6.6c1.32,0,1.98-0.66,1.98-1.98V100.125z"/>
<path fill="#727171" d="M145.918,102.765h12.045v4.62h-17.984v-23.1h5.939V102.765z"/>
<path fill="#727171" d="M171.162,107.385h-11.879v-4.62h2.969v-13.86h-2.969v-4.62h11.879v4.62h-2.971v13.86h2.971V107.385z"/>
<path fill="#727171" d="M191.952,107.055c-4.905,0.44-8.976,0.66-12.21,0.66c-2.156,0-3.74-0.506-4.752-1.518
	c-1.012-1.012-1.518-2.596-1.518-4.752v-10.56c0-2.31,0.521-3.987,1.566-5.033c1.044-1.044,2.722-1.567,5.031-1.567h11.881v4.62
	h-10.561c-1.32,0-1.979,0.66-1.979,1.98v10.56c0,0.506,0.147,0.907,0.444,1.205c0.297,0.297,0.678,0.445,1.14,0.445
	c0.463,0,0.969-0.005,1.519-0.017c0.551-0.011,1.123-0.027,1.717-0.049c0.594-0.021,1.192-0.044,1.799-0.066
	c0.604-0.022,1.386-0.066,2.343-0.132c0.956-0.066,2.149-0.143,3.58-0.231V107.055L191.952,107.055z"/>
<path fill="#727171" d="M65.859,134.6c6.027,0.33,10.109,0.494,12.243,0.494c0.506,0,0.907-0.148,1.204-0.445
	c0.298-0.297,0.446-0.696,0.446-1.203v-2.971h-7.591c-2.31,0-3.987-0.521-5.032-1.567c-1.045-1.044-1.567-2.724-1.567-5.031v-0.989
	c0-2.312,0.522-3.988,1.567-5.033s2.723-1.566,5.032-1.566h11.583v4.619H73.482c-1.32,0-1.979,0.66-1.979,1.98v0.659
	c0,1.32,0.659,1.979,1.979,1.979h5.94c2.155,0,3.739,0.507,4.752,1.519c1.012,1.013,1.518,2.597,1.518,4.752v1.649
	c0,2.156-0.506,3.74-1.518,4.753c-1.013,1.012-2.597,1.518-4.752,1.518c-1.122,0-2.311-0.022-3.564-0.065l-3.036-0.133
	c-2.244-0.109-4.565-0.265-6.963-0.461V134.6z"/>
<path fill="#727171" d="M88.662,116.285h13.86c2.31,0,3.987,0.521,5.032,1.566c1.045,1.045,1.568,2.723,1.568,5.032v3.3
	c0,2.311-0.523,3.987-1.568,5.032c-1.045,1.046-2.723,1.568-5.032,1.568h-7.92v6.6h-5.94V116.285z M103.183,122.885
	c0-1.32-0.66-1.98-1.979-1.98h-6.601v7.261h6.601c1.319,0,1.979-0.66,1.979-1.979V122.885z"/>
<path fill="#727171" d="M114.237,139.385h-6.435l8.744-23.1h6.601l8.746,23.1h-6.437l-1.484-4.125h-8.25L114.237,139.385z
	 M117.207,130.969h5.28l-2.64-7.754L117.207,130.969z"/>
<path fill="#727171" d="M150.702,139.055c-4.905,0.439-8.976,0.66-12.21,0.66c-2.156,0-3.74-0.506-4.752-1.518
	s-1.518-2.596-1.518-4.752v-10.562c0-2.312,0.521-3.987,1.566-5.032c1.044-1.045,2.722-1.566,5.031-1.566h11.881v4.619h-10.561
	c-1.32,0-1.979,0.66-1.979,1.979v10.562c0,0.506,0.147,0.906,0.444,1.203s0.678,0.445,1.14,0.445c0.463,0,0.969-0.005,1.519-0.017
	c0.551-0.013,1.123-0.027,1.717-0.05c0.594-0.021,1.192-0.045,1.799-0.065c0.604-0.021,1.386-0.065,2.343-0.133
	c0.956-0.065,2.149-0.144,3.58-0.229V139.055L150.702,139.055z"/>
<path fill="#727171" d="M171.657,139.385h-18.315v-23.1h18.315v4.619h-12.375v4.455h9.735v4.621h-9.735v4.783h12.375V139.385z"/>
<path fill="#727171" d="M173.604,134.6c6.027,0.33,10.108,0.494,12.244,0.494c0.506,0,0.906-0.148,1.203-0.445
	c0.299-0.297,0.446-0.696,0.446-1.203v-2.971h-7.591c-2.311,0-3.987-0.521-5.032-1.567c-1.045-1.044-1.567-2.724-1.567-5.031v-0.989
	c0-2.312,0.522-3.988,1.567-5.033s2.724-1.566,5.032-1.566h11.582v4.619h-10.262c-1.32,0-1.979,0.66-1.979,1.98v0.659
	c0,1.32,0.659,1.979,1.979,1.979h5.939c2.154,0,3.738,0.507,4.752,1.519c1.012,1.013,1.518,2.597,1.518,4.752v1.649
	c0,2.156-0.506,3.74-1.518,4.753c-1.014,1.012-2.598,1.518-4.752,1.518c-1.123,0-2.311-0.022-3.564-0.065l-3.035-0.133
	c-2.244-0.109-4.565-0.265-6.963-0.461V134.6L173.604,134.6z"/>
</svg>
