<?xml version="1.0" encoding="utf-8"?>
<!-- Generator: Adobe Illustrator 16.0.0, SVG Export Plug-In . SVG Version: 6.00 Build 0)  -->
<!DOCTYPE svg PUBLIC "-//W3C//DTD SVG 1.1//EN" "http://www.w3.org/Graphics/SVG/1.1/DTD/svg11.dtd">
<svg version="1.1" id="레이어_1" xmlns="http://www.w3.org/2000/svg" xmlns:xlink="http://www.w3.org/1999/xlink" x="0px"
	 y="0px" width="259px" height="224px" viewBox="0 0 259 224" enable-background="new 0 0 259 224" xml:space="preserve">
<path fill="#727171" d="M82.46,135.061c-1.961,0.279-3.837,0.42-5.628,0.42c-1.793,0-3.263-0.574-4.41-1.723
	c-1.148-1.148-1.723-2.674-1.723-4.578v-0.42h-1.26c-2.939,0-5.075-0.664-6.405-1.994c-1.33-1.33-1.994-3.466-1.994-6.406V106.92
	c0-2.939,0.664-5.074,1.994-6.405c1.33-1.329,3.466-1.994,6.405-1.994h10.5c2.94,0,5.075,0.665,6.405,1.994
	c1.329,1.331,1.995,3.466,1.995,6.405v13.439c0,2.939-0.666,5.076-1.995,6.404c-1.33,1.33-3.465,1.995-6.405,1.995h-2.1v0.421
	c0,0.42,0.14,0.77,0.42,1.049c0.279,0.28,0.63,0.42,1.05,0.42h3.15L82.46,135.061L82.46,135.061z M80.779,106.92
	c0-1.68-0.84-2.52-2.52-2.52h-7.141c-1.68,0-2.52,0.84-2.52,2.52v13.439c0,1.681,0.84,2.521,2.52,2.521h7.141
	c1.68,0,2.52-0.84,2.52-2.521V106.92z"/>
<path fill="#727171" d="M96.95,128.34h-8.19l11.13-29.4h8.4l11.13,29.399h-8.19l-1.89-5.25h-10.5L96.95,128.34z M100.729,117.63
	h6.721l-3.36-9.87L100.729,117.63z"/>
<path fill="#727171" d="M132.859,128.34h-7.561v-23.52h-8.82v-5.88h25.201v5.88h-8.82V128.34L132.859,128.34z"/>
<path fill="#727171" d="M146.93,128.34h-8.189l11.13-29.4h8.399l11.129,29.399h-8.188l-1.892-5.25h-10.5L146.93,128.34z
	 M150.71,117.63h6.72l-3.359-9.87L150.71,117.63z"/>
<path fill="#727171" d="M171.499,98.94h17.642c2.938,0,5.073,0.665,6.403,1.995s1.996,3.465,1.996,6.404v3.78
	c0,2.324-0.386,4.131-1.156,5.418c-0.771,1.288-1.993,2.143-3.674,2.563l5.25,9.239h-8.19l-4.83-8.819h-5.879v8.819h-7.562V98.94z
	 M189.979,107.34c0-1.68-0.84-2.52-2.52-2.52h-8.4v8.819h8.4c1.68,0,2.52-0.84,2.52-2.52V107.34z"/>
</svg>
