<?xml version="1.0" encoding="utf-8"?>
<!-- Generator: Adobe Illustrator 16.0.0, SVG Export Plug-In . SVG Version: 6.00 Build 0)  -->
<!DOCTYPE svg PUBLIC "-//W3C//DTD SVG 1.1//EN" "http://www.w3.org/Graphics/SVG/1.1/DTD/svg11.dtd">
<svg version="1.1" id="레이어_1" xmlns="http://www.w3.org/2000/svg" xmlns:xlink="http://www.w3.org/1999/xlink" x="0px"
	 y="0px" width="259px" height="224px" viewBox="0 0 259 224" enable-background="new 0 0 259 224" xml:space="preserve">
<path fill="#727171" d="M10.064,99.575h14.7c2.45,0,4.229,0.555,5.338,1.663c1.108,1.108,1.662,2.887,1.662,5.337v3.15
	c0,1.937-0.321,3.441-0.962,4.516c-0.642,1.071-1.663,1.784-3.063,2.135l4.375,7.699h-6.825l-4.025-7.351h-4.9v7.351h-6.3V99.575z
	 M25.464,106.575c0-1.4-0.7-2.1-2.1-2.1h-7v7.35h7c1.4,0,2.1-0.7,2.1-2.1V106.575z"/>
<path fill="#727171" d="M54.688,124.074H35.264v-24.5h19.425v4.9H41.563v4.725h10.325v4.9H41.563v5.075h13.125V124.074z"/>
<path fill="#727171" d="M56.753,119c6.393,0.35,10.721,0.525,12.985,0.525c0.537,0,0.962-0.158,1.277-0.473
	c0.315-0.316,0.473-0.74,0.473-1.277v-3.15h-8.05c-2.45,0-4.229-0.555-5.337-1.663c-1.108-1.108-1.663-2.888-1.663-5.338v-1.05
	c0-2.45,0.554-4.229,1.663-5.337c1.108-1.108,2.888-1.663,5.337-1.663h12.285v4.9H64.838c-1.4,0-2.1,0.7-2.1,2.1v0.7
	c0,1.4,0.7,2.1,2.1,2.1h6.3c2.287,0,3.966,0.537,5.04,1.61c1.073,1.073,1.61,2.752,1.61,5.042v1.75c0,2.287-0.537,3.967-1.61,5.039
	c-1.074,1.074-2.753,1.61-5.04,1.61c-1.19,0-2.45-0.022-3.78-0.069l-3.22-0.142c-2.38-0.116-4.842-0.278-7.385-0.489V119z"/>
<path fill="#727171" d="M92.488,124.074h-12.6v-4.898h3.15v-14.701h-3.15v-4.9h12.6v4.9h-3.15v14.701h3.15V124.074z"/>
<path fill="#727171" d="M109.288,99.575c2.637,0,4.638,0.683,6.002,2.047c1.365,1.365,2.047,3.366,2.047,6.002v8.401
	c0,2.637-0.682,4.637-2.047,6.002c-1.365,1.365-3.366,2.047-6.002,2.047h-13.65v-24.5L109.288,99.575L109.288,99.575z
	 M111.038,107.625c0-2.1-1.05-3.15-3.15-3.15h-5.95v14.701h5.95c2.1,0,3.15-1.051,3.15-3.15V107.625z"/>
<path fill="#727171" d="M140.264,124.074h-19.426v-24.5h19.426v4.9h-13.125v4.725h10.325v4.9h-10.325v5.075h13.125V124.074z"/>
<path fill="#727171" d="M164.412,124.074h-6.65l-8.398-14.7v14.7h-6.301v-24.5h6.65l8.398,14.701v-14.7h6.301V124.074z"/>
<path fill="#727171" d="M180.512,124.074h-6.299v-19.6h-7.352v-4.9h21v4.9h-7.35V124.074L180.512,124.074z"/>
<path fill="#727171" d="M201.861,124.074h-12.601v-4.898h3.15v-14.701h-3.15v-4.9h12.601v4.9h-3.149v14.701h3.149V124.074z"/>
<path fill="#727171" d="M209.387,124.074h-6.824l9.274-24.5h7.001l9.275,24.5h-6.826l-1.574-4.375h-8.751L209.387,124.074z
	 M212.537,115.15h5.6l-2.799-8.227L212.537,115.15z"/>
<path fill="#727171" d="M236.162,119.176h12.773v4.898h-19.074v-24.5h6.301V119.176L236.162,119.176z"/>
</svg>
