<?xml version="1.0" encoding="utf-8"?>
<!-- Generator: Adobe Illustrator 16.0.0, SVG Export Plug-In . SVG Version: 6.00 Build 0)  -->
<!DOCTYPE svg PUBLIC "-//W3C//DTD SVG 1.1//EN" "http://www.w3.org/Graphics/SVG/1.1/DTD/svg11.dtd">
<svg version="1.1" id="레이어_1" xmlns="http://www.w3.org/2000/svg" xmlns:xlink="http://www.w3.org/1999/xlink" x="0px"
	 y="0px" width="259px" height="224px" viewBox="0 0 259 224" enable-background="new 0 0 259 224" xml:space="preserve">
<path fill="#727171" d="M47.811,97.09h17.64c2.94,0,5.075,0.666,6.405,1.995c1.329,1.33,1.995,3.465,1.995,6.405v3.779
	c0,2.325-0.386,4.131-1.155,5.418c-0.771,1.289-1.995,2.143-3.675,2.563l5.25,9.24h-8.19l-4.83-8.82h-5.88v8.82h-7.56V97.09z
	 M66.29,105.49c0-1.681-0.84-2.521-2.52-2.521h-8.4v8.82h8.4c1.68,0,2.52-0.84,2.52-2.521V105.49z"/>
<path fill="#727171" d="M96.949,97.09h7.561v21.42c0,2.94-0.666,5.076-1.995,6.405c-1.33,1.33-3.465,1.995-6.405,1.995h-9.66
	c-2.939,0-5.075-0.665-6.404-1.995c-1.331-1.329-1.995-3.465-1.995-6.405V97.09h7.56v21.42c0,1.682,0.84,2.521,2.521,2.521h6.3
	c1.68,0,2.52-0.84,2.52-2.521V97.09H96.949z"/>
<path fill="#727171" d="M108.668,120.4c7.671,0.42,12.865,0.629,15.582,0.629c0.644,0,1.154-0.188,1.532-0.566
	c0.378-0.377,0.567-0.889,0.567-1.533v-3.779h-9.66c-2.939,0-5.075-0.664-6.405-1.994c-1.33-1.33-1.995-3.465-1.995-6.405v-1.26
	c0-2.94,0.665-5.075,1.995-6.405c1.33-1.329,3.466-1.995,6.405-1.995h14.741v5.88h-13.062c-1.68,0-2.52,0.84-2.52,2.521v0.84
	c0,1.68,0.84,2.52,2.52,2.52h7.561c2.743,0,4.758,0.645,6.047,1.933c1.287,1.288,1.933,3.304,1.933,6.048v2.101
	c0,2.744-0.646,4.76-1.933,6.049c-1.289,1.287-3.305,1.932-6.047,1.932c-1.428,0-2.94-0.027-4.536-0.084l-3.864-0.168
	c-2.855-0.141-5.811-0.336-8.861-0.588V120.4z"/>
<path fill="#727171" d="M136.809,120.4c7.672,0.42,12.864,0.629,15.582,0.629c0.644,0,1.153-0.188,1.532-0.566
	c0.377-0.377,0.565-0.889,0.565-1.533v-3.779h-9.659c-2.938,0-5.075-0.664-6.404-1.994s-1.995-3.465-1.995-6.405v-1.26
	c0-2.94,0.666-5.075,1.995-6.405c1.329-1.329,3.466-1.995,6.404-1.995h14.741v5.88h-13.063c-1.68,0-2.52,0.84-2.52,2.521v0.84
	c0,1.68,0.84,2.52,2.52,2.52h7.561c2.744,0,4.761,0.645,6.05,1.933c1.286,1.288,1.932,3.304,1.932,6.048v2.101
	c0,2.744-0.646,4.76-1.932,6.049c-1.289,1.287-3.306,1.932-6.05,1.932c-1.428,0-2.938-0.027-4.535-0.084l-3.864-0.168
	c-2.854-0.141-5.812-0.336-8.86-0.588V120.4L136.809,120.4z"/>
<path fill="#727171" d="M179.688,126.49h-15.119v-5.881h3.779V102.97h-3.779v-5.88h15.119v5.88h-3.778v17.641h3.778V126.49z"/>
<path fill="#727171" d="M188.721,126.49h-8.191l11.131-29.4h8.4l11.129,29.4H203l-1.891-5.25h-10.5L188.721,126.49z
	 M192.499,115.779h6.722l-3.361-9.869L192.499,115.779z"/>
</svg>
