<?xml version="1.0" encoding="utf-8"?>
<!-- Generator: Adobe Illustrator 16.0.0, SVG Export Plug-In . SVG Version: 6.00 Build 0)  -->
<!DOCTYPE svg PUBLIC "-//W3C//DTD SVG 1.1//EN" "http://www.w3.org/Graphics/SVG/1.1/DTD/svg11.dtd">
<svg version="1.1" id="레이어_1" xmlns="http://www.w3.org/2000/svg" xmlns:xlink="http://www.w3.org/1999/xlink" x="0px"
	 y="0px" width="259px" height="224px" viewBox="0 0 259 224" enable-background="new 0 0 259 224" xml:space="preserve">
<path fill="#727171" d="M9.949,118.4c5.845,0.318,9.802,0.479,11.872,0.479c0.49,0,0.88-0.145,1.168-0.432
	c0.288-0.288,0.432-0.678,0.432-1.168v-2.881h-7.36c-2.24,0-3.867-0.506-4.88-1.521c-1.014-1.013-1.52-2.64-1.52-4.88v-0.96
	c0-2.24,0.506-3.867,1.52-4.88c1.013-1.014,2.64-1.521,4.88-1.521h11.232v4.48h-9.952c-1.28,0-1.92,0.64-1.92,1.92v0.64
	c0,1.28,0.64,1.92,1.92,1.92h5.76c2.091,0,3.626,0.491,4.608,1.473c0.981,0.981,1.472,2.517,1.472,4.608v1.6
	c0,2.092-0.491,3.627-1.472,4.607c-0.981,0.981-2.517,1.473-4.608,1.473c-1.088,0-2.24-0.021-3.456-0.063l-2.944-0.128
	c-2.176-0.105-4.427-0.256-6.752-0.447V118.4z"/>
<path fill="#727171" d="M35.421,123.04h-6.24l8.48-22.4h6.4l8.48,22.4h-6.24l-1.44-4h-8L35.421,123.04z M38.301,114.88h5.12
	l-2.56-7.521L38.301,114.88z"/>
<path fill="#727171" d="M67.901,100.64h5.76v16.32c0,2.24-0.507,3.867-1.52,4.88c-1.014,1.014-2.64,1.521-4.88,1.521h-7.36
	c-2.24,0-3.867-0.508-4.88-1.521c-1.014-1.013-1.52-2.64-1.52-4.88v-16.32h5.76v16.32c0,1.28,0.64,1.92,1.92,1.92h4.8
	c1.28,0,1.92-0.64,1.92-1.92V100.64z"/>
<path fill="#727171" d="M89.981,100.64c2.411,0,4.24,0.624,5.488,1.872c1.248,1.248,1.872,3.077,1.872,5.488v7.682
	c0,2.409-0.624,4.238-1.872,5.486c-1.248,1.248-3.078,1.872-5.488,1.872h-12.48v-22.4H89.981z M91.582,108
	c0-1.92-0.96-2.88-2.88-2.88h-5.44v13.438h5.44c1.92,0,2.88-0.959,2.88-2.879V108z"/>
<path fill="#727171" d="M111.101,123.04h-11.52v-4.479h2.88v-13.44h-2.88v-4.48h11.52v4.48h-2.88v13.438h2.88V123.04z"/>
<path fill="#727171" d="M127.581,123.04h-6.24l8.479-22.4h6.401l8.479,22.4h-6.24l-1.44-4h-8L127.581,123.04z M130.461,114.88h5.119
	l-2.561-7.521L130.461,114.88z"/>
<path fill="#727171" d="M146.301,100.64h13.439c2.24,0,3.867,0.507,4.881,1.521c1.012,1.013,1.52,2.64,1.52,4.88v2.88
	c0,1.771-0.293,3.147-0.881,4.128c-0.586,0.98-1.52,1.633-2.799,1.952l4,7.04h-6.24l-3.68-6.721h-4.48v6.721h-5.76V100.64
	L146.301,100.64z M160.381,107.04c0-1.28-0.641-1.92-1.92-1.92h-6.4v6.72h6.4c1.279,0,1.92-0.64,1.92-1.92V107.04z"/>
<path fill="#727171" d="M173.34,123.04h-6.24l8.48-22.4h6.4l8.479,22.4h-6.24l-1.439-4h-8L173.34,123.04z M176.221,114.88h5.119
	l-2.561-7.521L176.221,114.88z"/>
<path fill="#727171" d="M192.061,100.64h12.799c2.092,0,3.627,0.476,4.608,1.424c0.981,0.95,1.472,2.396,1.472,4.336
	c0,1.28-0.276,2.32-0.832,3.12c-0.555,0.8-1.236,1.36-2.047,1.681c1.728,0.469,2.9,1.621,3.521,3.456
	c0.213,0.661,0.319,1.429,0.319,2.304c0,2.092-0.491,3.627-1.473,4.607c-0.98,0.981-2.518,1.473-4.607,1.473h-13.76V100.64z
	 M205.18,107.04c0-1.28-0.641-1.92-1.92-1.92h-5.439v4.479h5.439c1.279,0,1.92-0.64,1.92-1.92V107.04z M206.141,116
	c0-1.279-0.641-1.92-1.92-1.92h-6.4v4.479h6.4c1.279,0,1.92-0.64,1.92-1.92V116z"/>
<path fill="#727171" d="M225.34,123.04h-11.521v-4.479h2.881v-13.44h-2.881v-4.48h11.521v4.48h-2.881v13.438h2.881V123.04z"/>
<path fill="#727171" d="M232.219,123.04h-6.238l8.479-22.4h6.4l8.479,22.4h-6.24l-1.438-4h-8L232.219,123.04z M235.1,114.88h5.119
	l-2.56-7.521L235.1,114.88z"/>
</svg>
