<?xml version="1.0" encoding="utf-8"?>
<!-- Generator: Adobe Illustrator 16.0.0, SVG Export Plug-In . SVG Version: 6.00 Build 0)  -->
<!DOCTYPE svg PUBLIC "-//W3C//DTD SVG 1.1//EN" "http://www.w3.org/Graphics/SVG/1.1/DTD/svg11.dtd">
<svg version="1.1" id="레이어_1" xmlns="http://www.w3.org/2000/svg" xmlns:xlink="http://www.w3.org/1999/xlink" x="0px"
	 y="0px" width="259px" height="224px" viewBox="0 0 259 224" enable-background="new 0 0 259 224" xml:space="preserve">
<path fill="#727171" d="M49.134,120.4c7.671,0.42,12.866,0.629,15.582,0.629c0.644,0,1.155-0.188,1.533-0.566
	c0.378-0.377,0.567-0.889,0.567-1.533v-3.779h-9.66c-2.94,0-5.076-0.664-6.405-1.994c-1.33-1.33-1.995-3.465-1.995-6.405v-1.26
	c0-2.94,0.665-5.075,1.995-6.405c1.33-1.329,3.465-1.995,6.405-1.995h14.742v5.88H58.835c-1.68,0-2.52,0.84-2.52,2.521v0.84
	c0,1.68,0.84,2.52,2.52,2.52h7.56c2.744,0,4.76,0.645,6.048,1.933c1.287,1.288,1.932,3.304,1.932,6.048v2.101
	c0,2.744-0.645,4.76-1.932,6.049c-1.289,1.287-3.305,1.932-6.048,1.932c-1.428,0-2.94-0.027-4.536-0.084l-3.864-0.168
	c-2.856-0.141-5.811-0.336-8.862-0.588L49.134,120.4L49.134,120.4z"/>
<path fill="#727171" d="M101.466,126.49h-23.31v-29.4h23.31v5.88h-15.75v5.67h12.39v5.879h-12.39v6.092h15.75V126.49z"/>
<path fill="#727171" d="M104.825,97.09h17.64c2.94,0,5.075,0.666,6.405,1.995c1.329,1.33,1.995,3.465,1.995,6.405v3.779
	c0,2.325-0.385,4.131-1.156,5.418c-0.77,1.289-1.994,2.143-3.674,2.563l5.25,9.24h-8.19l-4.83-8.82h-5.88v8.82h-7.56V97.09
	L104.825,97.09z M123.305,105.49c0-1.681-0.84-2.521-2.52-2.521h-8.4v8.82h8.4c1.68,0,2.52-0.84,2.52-2.521V105.49z"/>
<path fill="#727171" d="M135.064,97.09h16.801c2.744,0,4.76,0.624,6.047,1.869c1.289,1.246,1.932,3.144,1.932,5.691
	c0,1.68-0.363,3.045-1.092,4.095c-0.729,1.05-1.623,1.785-2.688,2.205c2.268,0.616,3.809,2.128,4.621,4.536
	c0.278,0.867,0.42,1.875,0.42,3.022c0,2.745-0.646,4.761-1.935,6.05c-1.287,1.287-3.303,1.932-6.047,1.932h-18.062v-29.4H135.064z
	 M152.285,105.49c0-1.681-0.84-2.521-2.52-2.521h-7.142v5.88h7.142c1.68,0,2.52-0.84,2.52-2.52V105.49z M153.545,117.25
	c0-1.68-0.84-2.52-2.52-2.52h-8.4v5.879h8.4c1.68,0,2.52-0.84,2.52-2.521V117.25z"/>
<path fill="#727171" d="M178.744,126.49h-15.121v-5.881h3.781V102.97h-3.781v-5.88h15.121v5.88h-3.779v17.641h3.779V126.49z"/>
<path fill="#727171" d="M187.773,126.49h-8.189l11.131-29.4h8.398l11.131,29.4h-8.189l-1.891-5.25h-10.5L187.773,126.49z
	 M191.555,115.779h6.719l-3.358-9.869L191.555,115.779z"/>
</svg>
