<?xml version="1.0" encoding="utf-8"?>
<!-- Generator: Adobe Illustrator 16.0.0, SVG Export Plug-In . SVG Version: 6.00 Build 0)  -->
<!DOCTYPE svg PUBLIC "-//W3C//DTD SVG 1.1//EN" "http://www.w3.org/Graphics/SVG/1.1/DTD/svg11.dtd">
<svg version="1.1" id="레이어_1" xmlns="http://www.w3.org/2000/svg" xmlns:xlink="http://www.w3.org/1999/xlink" x="0px"
	 y="0px" width="259px" height="224px" viewBox="0 0 259 224" enable-background="new 0 0 259 224" xml:space="preserve">
<path fill="#727171" d="M13.339,119.995c7.124,0.392,11.947,0.585,14.469,0.585c0.598,0,1.072-0.176,1.423-0.525
	c0.351-0.352,0.526-0.826,0.526-1.424v-3.51h-8.97c-2.73,0-4.713-0.618-5.948-1.854c-1.235-1.234-1.853-3.219-1.853-5.948v-1.17
	c0-2.73,0.617-4.713,1.853-5.947c1.235-1.235,3.218-1.853,5.948-1.853h13.689v5.46H22.348c-1.56,0-2.34,0.779-2.34,2.34v0.779
	c0,1.561,0.78,2.341,2.34,2.341h7.02c2.548,0,4.42,0.598,5.616,1.794c1.196,1.196,1.794,3.068,1.794,5.616v1.95
	c0,2.548-0.598,4.42-1.794,5.615c-1.196,1.196-3.068,1.794-5.616,1.794c-1.326,0-2.73-0.025-4.212-0.078l-3.588-0.154
	c-2.652-0.132-5.396-0.313-8.229-0.547V119.995z"/>
<path fill="#727171" d="M53.158,125.65h-14.04v-5.461h3.51V103.81h-3.51v-5.46h14.04v5.46h-3.51v16.379h3.51V125.65z"/>
<path fill="#727171" d="M80.458,125.65h-7.41l-9.36-16.38v16.38h-7.02v-27.3h7.41l9.36,16.38V98.35h7.02V125.65z"/>
<path fill="#727171" d="M108.538,125.064c-6.084,0.649-11.675,0.976-16.77,0.976c-2.549,0-4.42-0.599-5.616-1.794
	c-1.196-1.195-1.794-3.066-1.794-5.615v-12.48c0-2.73,0.617-4.713,1.853-5.947c1.234-1.235,3.217-1.853,5.947-1.853h14.04v5.46
	h-12.48c-1.56,0-2.34,0.779-2.34,2.34v12.48c0,0.598,0.175,1.072,0.526,1.424c0.351,0.352,0.825,0.525,1.423,0.525
	c2.99,0,5.72-0.064,8.19-0.193v-5.656h-5.07v-4.681h12.09L108.538,125.064L108.538,125.064z"/>
<path fill="#727171" d="M117.313,125.65h-7.605l10.335-27.3h7.8l10.335,27.3h-7.604l-1.755-4.875h-9.75L117.313,125.65z
	 M120.823,115.705h6.24l-3.12-9.165L120.823,115.705z"/>
<path fill="#727171" d="M140.128,98.351h16.38c2.729,0,4.713,0.617,5.947,1.853c1.234,1.234,1.854,3.217,1.854,5.947v3.899
	c0,2.729-0.619,4.714-1.854,5.948s-3.219,1.854-5.947,1.854h-9.359v7.799h-7.021V98.351z M157.288,106.15
	c0-1.561-0.78-2.34-2.34-2.34h-7.802v8.58h7.802c1.56,0,2.34-0.78,2.34-2.341V106.15z"/>
<path fill="#727171" d="M192.389,118.24c0,2.73-0.619,4.713-1.854,5.947c-1.234,1.234-3.218,1.853-5.947,1.853h-9.75
	c-2.729,0-4.713-0.617-5.946-1.853c-1.236-1.234-1.854-3.217-1.854-5.947v-12.48c0-2.729,0.617-4.712,1.854-5.947
	c1.233-1.234,3.217-1.853,5.946-1.853h9.75c2.729,0,4.713,0.618,5.947,1.853c1.233,1.235,1.854,3.218,1.854,5.947V118.24z
	 M185.367,105.76c0-1.56-0.78-2.34-2.342-2.34h-6.629c-1.561,0-2.34,0.78-2.34,2.34v12.48c0,1.561,0.779,2.34,2.34,2.34h6.629
	c1.562,0,2.342-0.779,2.342-2.34V105.76z"/>
<path fill="#727171" d="M196.287,98.351h16.38c2.729,0,4.713,0.617,5.947,1.853c1.233,1.234,1.854,3.217,1.854,5.947v3.51
	c0,2.158-0.358,3.835-1.073,5.03c-0.715,1.197-1.853,1.988-3.412,2.379l4.875,8.58h-7.604l-4.486-8.188h-5.459v8.188h-7.021
	L196.287,98.351L196.287,98.351z M213.447,106.15c0-1.561-0.78-2.34-2.34-2.34h-7.801V112h7.801c1.56,0,2.34-0.78,2.34-2.34V106.15z
	"/>
<path fill="#727171" d="M246.012,125.65h-21.646v-27.3h21.646v5.46h-14.626v5.265h11.507v5.46h-11.507v5.654h14.626V125.65z"/>
</svg>
