<?xml version="1.0" encoding="utf-8"?>
<!-- Generator: Adobe Illustrator 16.0.0, SVG Export Plug-In . SVG Version: 6.00 Build 0)  -->
<!DOCTYPE svg PUBLIC "-//W3C//DTD SVG 1.1//EN" "http://www.w3.org/Graphics/SVG/1.1/DTD/svg11.dtd">
<svg version="1.1" id="레이어_1" xmlns="http://www.w3.org/2000/svg" xmlns:xlink="http://www.w3.org/1999/xlink" x="0px"
	 y="0px" width="259px" height="224px" viewBox="0 0 259 224" enable-background="new 0 0 259 224" xml:space="preserve">
<path fill="#727171" d="M21.099,120.609c7.671,0.42,12.866,0.631,15.582,0.631c0.644,0,1.155-0.189,1.533-0.567
	c0.378-0.377,0.567-0.889,0.567-1.532v-3.779h-9.66c-2.94,0-5.076-0.666-6.405-1.995c-1.33-1.33-1.995-3.465-1.995-6.405v-1.26
	c0-2.94,0.665-5.075,1.995-6.405c1.33-1.329,3.465-1.995,6.405-1.995h14.742v5.88H30.8c-1.68,0-2.52,0.84-2.52,2.521v0.84
	c0,1.68,0.84,2.52,2.52,2.52h7.56c2.744,0,4.76,0.645,6.048,1.933c1.287,1.288,1.932,3.304,1.932,6.048v2.1
	c0,2.746-0.645,4.762-1.932,6.049c-1.289,1.289-3.305,1.933-6.048,1.933c-1.428,0-2.94-0.028-4.536-0.084l-3.864-0.168
	c-2.856-0.142-5.811-0.336-8.862-0.588L21.099,120.609L21.099,120.609z"/>
<path fill="#727171" d="M57.681,120.82h15.33v5.88h-22.89V97.3h7.56V120.82z"/>
<path fill="#727171" d="M102.41,118.721c0,2.939-0.666,5.075-1.995,6.404c-1.33,1.33-3.465,1.995-6.405,1.995h-10.5
	c-2.94,0-5.076-0.665-6.405-1.995c-1.33-1.329-1.995-3.465-1.995-6.404V105.28c0-2.94,0.665-5.075,1.995-6.405
	s3.465-1.995,6.405-1.995h10.5c2.94,0,5.075,0.665,6.405,1.995s1.995,3.465,1.995,6.405V118.721z M94.85,105.28
	c0-1.681-0.84-2.521-2.52-2.521h-7.14c-1.68,0-2.52,0.84-2.52,2.521v13.439c0,1.682,0.84,2.521,2.52,2.521h7.14
	c1.68,0,2.52-0.84,2.52-2.521V105.28z"/>
<path fill="#727171" d="M118.161,117.88l7.14-20.58h8.19l-11.13,29.4h-8.4l-11.13-29.4h8.19L118.161,117.88z"/>
<path fill="#727171" d="M158.9,126.7H135.59V97.3H158.9v5.88h-15.75v5.67h12.389v5.88H143.15v6.09h15.75V126.7z"/>
<path fill="#727171" d="M187.879,126.7H179.9l-10.08-17.641V126.7h-7.562V97.3h7.979l10.08,17.642V97.3h7.56L187.879,126.7
	L187.879,126.7z"/>
<path fill="#727171" d="M206.779,126.7h-15.121v-5.88h3.781v-17.64h-3.781V97.3h15.121v5.88H203v17.64h3.779V126.7z"/>
<path fill="#727171" d="M215.809,126.7h-8.188l11.131-29.4h8.397l11.131,29.4h-8.188l-1.891-5.25h-10.5L215.809,126.7z
	 M219.59,115.99h6.719l-3.358-9.87L219.59,115.99z"/>
</svg>
