<?xml version="1.0" encoding="utf-8"?>
<!-- Generator: Adobe Illustrator 16.0.0, SVG Export Plug-In . SVG Version: 6.00 Build 0)  -->
<!DOCTYPE svg PUBLIC "-//W3C//DTD SVG 1.1//EN" "http://www.w3.org/Graphics/SVG/1.1/DTD/svg11.dtd">
<svg version="1.1" id="레이어_1" xmlns="http://www.w3.org/2000/svg" xmlns:xlink="http://www.w3.org/1999/xlink" x="0px"
	 y="0px" width="259px" height="224px" viewBox="0 0 259 224" enable-background="new 0 0 259 224" xml:space="preserve">
<path fill="#727171" d="M64.988,120.4c7.671,0.42,12.866,0.629,15.582,0.629c0.644,0,1.155-0.188,1.533-0.566
	c0.378-0.377,0.567-0.889,0.567-1.533v-3.779h-9.66c-2.94,0-5.076-0.664-6.405-1.994c-1.33-1.33-1.995-3.465-1.995-6.405v-1.26
	c0-2.94,0.665-5.075,1.995-6.405c1.33-1.329,3.465-1.995,6.405-1.995h14.742v5.88H74.69c-1.68,0-2.52,0.84-2.52,2.521v0.84
	c0,1.68,0.84,2.52,2.52,2.52h7.56c2.744,0,4.76,0.645,6.048,1.933c1.287,1.288,1.932,3.304,1.932,6.048v2.101
	c0,2.744-0.645,4.76-1.932,6.049c-1.289,1.287-3.305,1.932-6.048,1.932c-1.428,0-2.94-0.027-4.536-0.084l-3.864-0.168
	c-2.856-0.141-5.811-0.336-8.862-0.588V120.4z"/>
<path fill="#727171" d="M94.01,97.09h17.64c2.94,0,5.075,0.666,6.405,1.995c1.33,1.33,1.995,3.465,1.995,6.405v4.2
	c0,2.939-0.666,5.076-1.995,6.406c-1.33,1.329-3.465,1.993-6.405,1.993h-10.08v8.399h-7.56V97.09z M112.49,105.49
	c0-1.681-0.84-2.521-2.52-2.521h-8.4v9.24h8.4c1.68,0,2.52-0.84,2.52-2.52V105.49z"/>
<path fill="#727171" d="M126.56,126.49h-8.19l11.13-29.4h8.4l11.129,29.4h-8.188l-1.891-5.25h-10.5L126.56,126.49z M130.34,115.779
	h6.721l-3.36-9.869L130.34,115.779z"/>
<path fill="#727171" d="M164.99,126.49h-15.121v-5.881h3.781V102.97h-3.781v-5.88h15.121v5.88h-3.781v17.641h3.781V126.49z"/>
<path fill="#727171" d="M194.391,126.49h-7.979l-10.08-17.641v17.641h-7.562v-29.4h7.98l10.08,17.641V97.09h7.561V126.49z"/>
</svg>
