<?xml version="1.0" encoding="utf-8"?>
<!-- Generator: Adobe Illustrator 16.0.0, SVG Export Plug-In . SVG Version: 6.00 Build 0)  -->
<!DOCTYPE svg PUBLIC "-//W3C//DTD SVG 1.1//EN" "http://www.w3.org/Graphics/SVG/1.1/DTD/svg11.dtd">
<svg version="1.1" id="레이어_1" xmlns="http://www.w3.org/2000/svg" xmlns:xlink="http://www.w3.org/1999/xlink" x="0px"
	 y="0px" width="259px" height="224px" viewBox="0 0 259 224" enable-background="new 0 0 259 224" xml:space="preserve">
<path fill="#727171" d="M29.902,119.6c6.94,0.381,11.641,0.57,14.098,0.57c0.583,0,1.045-0.172,1.387-0.514
	c0.343-0.342,0.514-0.803,0.514-1.387v-3.42h-8.74c-2.66,0-4.592-0.603-5.795-1.806c-1.203-1.203-1.805-3.135-1.805-5.795v-1.14
	c0-2.66,0.602-4.591,1.805-5.795c1.203-1.203,3.135-1.805,5.795-1.805h13.338v5.32H38.68c-1.52,0-2.279,0.76-2.279,2.28v0.76
	c0,1.52,0.76,2.28,2.279,2.28h6.841c2.482,0,4.306,0.583,5.472,1.748c1.165,1.166,1.748,2.99,1.748,5.471v1.899
	c0,2.482-0.583,4.308-1.748,5.474c-1.166,1.166-2.989,1.747-5.472,1.747c-1.292,0-2.66-0.024-4.104-0.075l-3.496-0.151
	c-2.584-0.128-5.257-0.306-8.018-0.531L29.902,119.6L29.902,119.6z"/>
<path fill="#727171" d="M73.26,98.51h6.841v19.38c0,2.66-0.603,4.592-1.806,5.795s-3.135,1.806-5.795,1.806h-8.74
	c-2.659,0-4.592-0.603-5.795-1.806c-1.203-1.203-1.805-3.135-1.805-5.795V98.51H63v19.38c0,1.521,0.76,2.279,2.28,2.279h5.7
	c1.52,0,2.279-0.76,2.279-2.279L73.26,98.51L73.26,98.51z"/>
<path fill="#727171" d="M84.66,98.51h15.96c2.66,0,4.591,0.602,5.795,1.805c1.203,1.204,1.805,3.135,1.805,5.795v3.42
	c0,2.103-0.349,3.738-1.045,4.902c-0.697,1.166-1.805,1.938-3.325,2.318l4.75,8.359h-7.41l-4.369-7.98H91.5v7.98h-6.84V98.51z
	 M101.38,106.11c0-1.52-0.76-2.28-2.28-2.28h-7.6v7.98h7.6c1.521,0,2.28-0.76,2.28-2.28V106.11z"/>
<path fill="#727171" d="M118.859,125.109h-6.84V98.509h21.09v5.32h-14.25v6.27h11.209v5.32h-11.209V125.109z"/>
<path fill="#727171" d="M138.238,125.109h-7.409l10.069-26.601h7.601l10.069,26.601h-7.409l-1.71-4.75h-9.5L138.238,125.109z
	 M141.659,115.42h6.079l-3.039-8.93L141.659,115.42z"/>
<path fill="#727171" d="M180.229,124.73c-5.648,0.506-10.336,0.76-14.06,0.76c-2.483,0-4.308-0.582-5.474-1.748
	c-1.164-1.166-1.747-2.99-1.747-5.473v-12.161c0-2.66,0.602-4.591,1.806-5.795c1.203-1.203,3.135-1.805,5.795-1.805h13.68v5.32
	h-12.16c-1.52,0-2.278,0.76-2.278,2.28v12.161c0,0.584,0.171,1.045,0.513,1.387s0.779,0.514,1.311,0.514
	c0.533,0,1.115-0.006,1.748-0.02c0.634-0.012,1.293-0.031,1.978-0.057s1.374-0.052,2.07-0.076c0.696-0.025,1.597-0.076,2.698-0.152
	c1.103-0.076,2.477-0.164,4.123-0.266v5.131H180.229z"/>
<path fill="#727171" d="M204.359,125.109h-21.09V98.509h21.09v5.32h-14.25v5.13h11.209v5.318h-11.209v5.511h14.25V125.109z"/>
<path fill="#727171" d="M206.602,119.6c6.94,0.381,11.641,0.57,14.099,0.57c0.582,0,1.045-0.172,1.387-0.514
	c0.343-0.342,0.515-0.803,0.515-1.387v-3.42h-8.74c-2.66,0-4.594-0.603-5.795-1.806c-1.205-1.203-1.807-3.135-1.807-5.795v-1.14
	c0-2.66,0.602-4.591,1.807-5.795c1.201-1.203,3.135-1.805,5.795-1.805h13.338v5.32h-11.818c-1.52,0-2.279,0.76-2.279,2.28v0.76
	c0,1.52,0.76,2.28,2.279,2.28h6.84c2.482,0,4.307,0.583,5.473,1.748c1.166,1.166,1.748,2.99,1.748,5.471v1.899
	c0,2.482-0.582,4.308-1.748,5.474s-2.989,1.747-5.473,1.747c-1.291,0-2.658-0.024-4.104-0.075l-3.496-0.151
	c-2.584-0.128-5.258-0.306-8.018-0.531V119.6H206.602z"/>
</svg>
