<?xml version="1.0" encoding="utf-8"?>
<!-- Generator: Adobe Illustrator 16.0.0, SVG Export Plug-In . SVG Version: 6.00 Build 0)  -->
<!DOCTYPE svg PUBLIC "-//W3C//DTD SVG 1.1//EN" "http://www.w3.org/Graphics/SVG/1.1/DTD/svg11.dtd">
<svg version="1.1" id="레이어_1" xmlns="http://www.w3.org/2000/svg" xmlns:xlink="http://www.w3.org/1999/xlink" x="0px"
	 y="0px" width="259px" height="224px" viewBox="0 0 259 224" enable-background="new 0 0 259 224" xml:space="preserve">
<path fill="#727171" d="M40.629,120.4c7.671,0.42,12.865,0.629,15.582,0.629c0.644,0,1.154-0.188,1.532-0.566
	c0.378-0.377,0.567-0.889,0.567-1.533v-3.779h-9.66c-2.939,0-5.075-0.664-6.405-1.994s-1.995-3.465-1.995-6.405v-1.26
	c0-2.94,0.665-5.075,1.995-6.405c1.33-1.329,3.466-1.995,6.405-1.995h14.742v5.88H50.33c-1.68,0-2.52,0.84-2.52,2.521v0.84
	c0,1.68,0.84,2.52,2.52,2.52h7.561c2.743,0,4.76,0.645,6.048,1.933c1.287,1.288,1.932,3.304,1.932,6.048v2.101
	c0,2.744-0.645,4.76-1.932,6.049c-1.288,1.287-3.305,1.932-6.048,1.932c-1.428,0-2.94-0.027-4.536-0.084l-3.864-0.168
	c-2.855-0.141-5.811-0.336-8.861-0.588L40.629,120.4L40.629,120.4z"/>
<path fill="#727171" d="M89.811,97.09l5.04,18.9l4.41-18.9h8.189l-7.979,29.4h-7.98l-5.04-18.271l-5.04,18.271h-7.979l-7.98-29.4
	h8.19l4.41,18.9l5.04-18.9H89.811z"/>
<path fill="#727171" d="M132.859,126.49h-23.31v-29.4h23.312v5.88h-15.75v5.67h12.39v5.879h-12.39v6.092h15.75v5.879H132.859z"/>
<path fill="#727171" d="M152.6,97.09c3.164,0,5.565,0.819,7.203,2.457c1.639,1.638,2.457,4.039,2.457,7.203v10.08
	c0,3.164-0.818,5.564-2.457,7.203c-1.638,1.638-4.039,2.457-7.203,2.457h-16.379v-29.4H152.6z M154.7,106.75
	c0-2.52-1.261-3.78-3.78-3.78h-7.141v17.641h7.141c2.521,0,3.78-1.262,3.78-3.78V106.75z"/>
<path fill="#727171" d="M189.77,126.49h-23.311v-29.4h23.311v5.88h-15.75v5.67h12.392v5.879H174.02v6.092h15.75V126.49z"/>
<path fill="#727171" d="M218.75,126.49h-7.98l-10.08-17.641v17.641h-7.561v-29.4h7.98l10.08,17.641V97.09h7.561V126.49z"/>
</svg>
