<?xml version="1.0" encoding="utf-8"?>
<!-- Generator: Adobe Illustrator 16.0.0, SVG Export Plug-In . SVG Version: 6.00 Build 0)  -->
<!DOCTYPE svg PUBLIC "-//W3C//DTD SVG 1.1//EN" "http://www.w3.org/Graphics/SVG/1.1/DTD/svg11.dtd">
<svg version="1.1" id="레이어_1" xmlns="http://www.w3.org/2000/svg" xmlns:xlink="http://www.w3.org/1999/xlink" x="0px"
	 y="0px" width="259px" height="224px" viewBox="0 0 259 224" enable-background="new 0 0 259 224" xml:space="preserve">
<path fill="#727171" d="M8.853,118.6c6.027,0.33,10.109,0.496,12.243,0.496c0.506,0,0.908-0.148,1.205-0.445
	c0.297-0.297,0.446-0.698,0.446-1.205v-2.971h-7.59c-2.31,0-3.988-0.521-5.032-1.566c-1.045-1.044-1.567-2.723-1.567-5.032v-0.99
	c0-2.31,0.522-3.987,1.567-5.032c1.044-1.045,2.722-1.567,5.032-1.567H26.74v4.62H16.476c-1.32,0-1.98,0.66-1.98,1.979v0.66
	c0,1.32,0.66,1.98,1.98,1.98h5.94c2.156,0,3.74,0.506,4.752,1.518c1.012,1.013,1.518,2.597,1.518,4.752v1.649
	c0,2.156-0.506,3.74-1.518,4.752c-1.012,1.013-2.596,1.519-4.752,1.519c-1.122,0-2.31-0.022-3.564-0.065l-3.036-0.133
	c-2.244-0.109-4.565-0.264-6.963-0.461V118.6z"/>
<path fill="#727171" d="M47.496,100.285l3.96,14.85l3.465-14.85h6.435l-6.27,23.1h-6.27l-3.96-14.354l-3.96,14.354h-6.27l-6.27-23.1
	h6.435l3.465,14.85l3.96-14.85H47.496z"/>
<path fill="#727171" d="M73.896,123.385h-11.88v-4.619h2.97v-13.86h-2.97v-4.62h11.88v4.62h-2.97v13.86h2.97V123.385z"/>
<path fill="#727171" d="M88.086,123.385h-5.94v-18.479h-6.93v-4.62h19.8v4.62h-6.93V123.385z"/>
<path fill="#727171" d="M114.816,104.905l-11.55,13.859h11.55v4.62h-18.81v-4.62l11.55-13.859h-11.55v-4.62h18.81V104.905z"/>
<path fill="#727171" d="M135.77,123.385h-18.313v-23.1h18.313v4.62h-12.375v4.455h9.736v4.621h-9.736v4.783h12.375V123.385
	L135.77,123.385z"/>
<path fill="#727171" d="M138.41,100.285h13.859c2.311,0,3.987,0.522,5.032,1.567c1.046,1.045,1.566,2.723,1.566,5.032v2.971
	c0,1.826-0.304,3.245-0.906,4.256c-0.604,1.013-1.567,1.684-2.889,2.014l4.125,7.26h-6.435l-3.795-6.93h-4.621v6.93h-5.938
	L138.41,100.285L138.41,100.285z M152.93,106.885c0-1.319-0.66-1.979-1.979-1.979h-6.601v6.93h6.601c1.319,0,1.979-0.66,1.979-1.979
	V106.885z"/>
<path fill="#727171" d="M168.109,118.766h12.045v4.619H162.17v-23.1h5.939V118.766z"/>
<path fill="#727171" d="M186.59,123.385h-6.436l8.744-23.1h6.602l8.744,23.1h-6.436l-1.484-4.125h-8.25L186.59,123.385z
	 M189.559,114.971h5.281l-2.641-7.756L189.559,114.971z"/>
<path fill="#727171" d="M226.023,123.385h-6.271l-7.92-13.859v13.859h-5.938v-23.1h6.27l7.92,13.859v-13.859h5.939V123.385z"/>
<path fill="#727171" d="M242.854,100.285c2.486,0,4.373,0.644,5.66,1.931c1.287,1.287,1.93,3.174,1.93,5.659v7.92
	c0,2.486-0.643,4.372-1.93,5.659s-3.174,1.931-5.66,1.931h-12.869v-23.1H242.854z M244.504,107.875c0-1.98-0.99-2.97-2.971-2.97
	h-5.609v13.859h5.609c1.98,0,2.971-0.99,2.971-2.97V107.875z"/>
</svg>
