<?xml version="1.0" encoding="utf-8"?>
<!-- Generator: Adobe Illustrator 16.0.0, SVG Export Plug-In . SVG Version: 6.00 Build 0)  -->
<!DOCTYPE svg PUBLIC "-//W3C//DTD SVG 1.1//EN" "http://www.w3.org/Graphics/SVG/1.1/DTD/svg11.dtd">
<svg version="1.1" id="레이어_1" xmlns="http://www.w3.org/2000/svg" xmlns:xlink="http://www.w3.org/1999/xlink" x="0px"
	 y="0px" width="259px" height="224px" viewBox="0 0 259 224" enable-background="new 0 0 259 224" xml:space="preserve">
<path fill="#727171" d="M44.761,125.3h-6.84v-21.279h-7.98V98.7h22.801v5.32h-7.98L44.761,125.3L44.761,125.3z"/>
<path fill="#727171" d="M57.49,125.3h-7.409L60.15,98.7h7.601l10.069,26.6h-7.409l-1.71-4.75h-9.5L57.49,125.3z M60.911,115.609
	h6.079l-3.039-8.93L60.911,115.609z"/>
<path fill="#727171" d="M79.721,98.7h15.2c2.482,0,4.307,0.563,5.472,1.69c1.165,1.128,1.748,2.845,1.748,5.149
	c0,1.52-0.329,2.755-0.988,3.705c-0.659,0.95-1.469,1.615-2.432,1.995c2.052,0.558,3.445,1.926,4.18,4.105
	c0.253,0.785,0.38,1.697,0.38,2.735c0,2.483-0.583,4.308-1.748,5.472c-1.165,1.166-2.989,1.748-5.472,1.748h-16.34V98.7L79.721,98.7
	z M95.301,106.3c0-1.52-0.76-2.279-2.28-2.279h-6.46v5.319h6.46c1.521,0,2.28-0.76,2.28-2.28V106.3z M96.44,116.939
	c0-1.521-0.76-2.279-2.279-2.279H86.56v5.32h7.601c1.52,0,2.279-0.762,2.279-2.28V116.939z"/>
<path fill="#727171" d="M113.54,119.98h13.87v5.318H106.7V98.7h6.84V119.98L113.54,119.98z"/>
<path fill="#727171" d="M151.16,125.3h-21.092V98.7h21.092v5.32h-14.25v5.13h11.21v5.319h-11.21v5.512h14.25V125.3z"/>
<path fill="#727171" d="M167.12,125.3h-6.841v-21.279H152.3V98.7h22.802v5.32h-7.98L167.12,125.3L167.12,125.3z"/>
<path fill="#727171" d="M201.7,118.08c0,2.66-0.603,4.592-1.806,5.795s-3.136,1.805-5.795,1.805h-9.5
	c-2.66,0-4.593-0.602-5.795-1.805c-1.203-1.203-1.806-3.135-1.806-5.795v-12.16c0-2.66,0.603-4.592,1.806-5.795
	c1.202-1.203,3.135-1.805,5.795-1.805h9.5c2.659,0,4.592,0.602,5.795,1.805s1.806,3.135,1.806,5.795V118.08z M194.859,105.92
	c0-1.52-0.76-2.28-2.279-2.28h-6.46c-1.521,0-2.28,0.761-2.28,2.28v12.16c0,1.52,0.762,2.279,2.28,2.279h6.46
	c1.521,0,2.279-0.76,2.279-2.279V105.92z"/>
<path fill="#727171" d="M205.499,98.7h15.961c2.66,0,4.592,0.602,5.795,1.805c1.203,1.204,1.806,3.135,1.806,5.795v3.8
	c0,2.66-0.603,4.593-1.806,5.796s-3.135,1.805-5.795,1.805h-9.12v7.6h-6.841V98.7z M222.221,106.3c0-1.52-0.761-2.279-2.279-2.279
	h-7.602v8.359h7.602c1.52,0,2.279-0.76,2.279-2.28V106.3z"/>
</svg>
