<?xml version="1.0" encoding="utf-8"?>
<!-- Generator: Adobe Illustrator 16.0.0, SVG Export Plug-In . SVG Version: 6.00 Build 0)  -->
<!DOCTYPE svg PUBLIC "-//W3C//DTD SVG 1.1//EN" "http://www.w3.org/Graphics/SVG/1.1/DTD/svg11.dtd">
<svg version="1.1" id="레이어_1" xmlns="http://www.w3.org/2000/svg" xmlns:xlink="http://www.w3.org/1999/xlink" x="0px"
	 y="0px" width="259px" height="224px" viewBox="0 0 259 224" enable-background="new 0 0 259 224" xml:space="preserve">
<path fill="#727171" d="M62.3,126.7h-7.56v-23.52h-8.82V97.3h25.2v5.88H62.3V126.7z"/>
<path fill="#727171" d="M76.37,126.7h-8.19l11.13-29.4h8.4l11.13,29.4h-8.19l-1.89-5.25h-10.5L76.37,126.7z M80.15,115.99h6.72
	l-3.36-9.87L80.15,115.99z"/>
<path fill="#727171" d="M114.8,126.7H99.68v-5.88h3.78v-17.64h-3.78V97.3h15.12v5.88h-3.78v17.64h3.78V126.7z"/>
<path fill="#727171" d="M140,97.3l5.039,18.9l4.41-18.9h8.189l-7.979,29.4h-7.98l-5.039-18.271L131.6,126.7h-7.979l-7.98-29.4h8.19
	l4.41,18.9l5.039-18.9H140z"/>
<path fill="#727171" d="M162.891,126.7h-8.189l11.13-29.4h8.399l11.131,29.4h-8.19l-1.89-5.25h-10.5L162.891,126.7z M166.67,115.99
	h6.721l-3.359-9.87L166.67,115.99z"/>
<path fill="#727171" d="M213.08,126.7h-7.98l-10.08-17.641V126.7h-7.561V97.3h7.98l10.08,17.642V97.3h7.561V126.7z"/>
</svg>
