<?xml version="1.0" encoding="utf-8"?>
<!-- Generator: Adobe Illustrator 16.0.0, SVG Export Plug-In . SVG Version: 6.00 Build 0)  -->
<!DOCTYPE svg PUBLIC "-//W3C//DTD SVG 1.1//EN" "http://www.w3.org/Graphics/SVG/1.1/DTD/svg11.dtd">
<svg version="1.1" id="레이어_1" xmlns="http://www.w3.org/2000/svg" xmlns:xlink="http://www.w3.org/1999/xlink" x="0px"
	 y="0px" width="259px" height="224px" viewBox="0 0 259 224" enable-background="new 0 0 259 224" xml:space="preserve">
<path fill="#727171" d="M60.179,126.49h-7.56v-23.52h-8.82v-5.88H69v5.88h-8.82L60.179,126.49L60.179,126.49z"/>
<path fill="#727171" d="M90.839,97.09h7.56v21.42c0,2.94-0.666,5.076-1.995,6.405c-1.33,1.33-3.465,1.995-6.405,1.995h-9.66
	c-2.94,0-5.075-0.665-6.405-1.995c-1.331-1.329-1.995-3.465-1.995-6.405V97.09h7.56v21.42c0,1.682,0.84,2.521,2.52,2.521h6.3
	c1.68,0,2.52-0.84,2.52-2.521V97.09z"/>
<path fill="#727171" d="M103.439,97.09h17.64c2.94,0,5.075,0.666,6.405,1.995c1.33,1.33,1.995,3.465,1.995,6.405v3.779
	c0,2.325-0.385,4.131-1.155,5.418c-0.77,1.289-1.995,2.143-3.675,2.563l5.25,9.24h-8.19l-4.83-8.82H111v8.82h-7.56L103.439,97.09
	L103.439,97.09z M121.919,105.49c0-1.681-0.84-2.521-2.52-2.521H111v8.82h8.4c1.68,0,2.52-0.84,2.52-2.521L121.919,105.49
	L121.919,105.49z"/>
<path fill="#727171" d="M141.238,126.49h-7.559v-29.4h7.559v11.55h3.781l6.551-11.55h7.979l-8.231,14.49l8.19,14.91h-7.979
	l-6.51-11.971h-3.781V126.49z"/>
<path fill="#727171" d="M185.381,126.49H162.07v-29.4h23.311v5.88h-15.75v5.67h12.391v5.879h-12.391v6.092h15.75V126.49
	L185.381,126.49z"/>
<path fill="#727171" d="M185.381,97.09h7.98l6.93,14.28l6.93-14.28h7.98l-11.131,21.631v7.771h-7.562v-7.771L185.381,97.09z"/>
</svg>
