<?xml version="1.0" encoding="utf-8"?>
<!-- Generator: Adobe Illustrator 16.0.0, SVG Export Plug-In . SVG Version: 6.00 Build 0)  -->
<!DOCTYPE svg PUBLIC "-//W3C//DTD SVG 1.1//EN" "http://www.w3.org/Graphics/SVG/1.1/DTD/svg11.dtd">
<svg version="1.1" id="레이어_1" xmlns="http://www.w3.org/2000/svg" xmlns:xlink="http://www.w3.org/1999/xlink" x="0px"
	 y="0px" width="259px" height="224px" viewBox="0 0 259 224" enable-background="new 0 0 259 224" xml:space="preserve">
<path fill="#727171" d="M106.505,97.09h7.56v21.42c0,2.94-0.666,5.076-1.995,6.405c-1.33,1.33-3.465,1.995-6.405,1.995h-9.66
	c-2.94,0-5.075-0.665-6.405-1.995c-1.331-1.329-1.995-3.465-1.995-6.405V97.09h7.56v21.42c0,1.682,0.84,2.521,2.52,2.521h6.3
	c1.68,0,2.52-0.84,2.52-2.521V97.09L106.505,97.09z"/>
<path fill="#727171" d="M123.516,126.49h-8.19l11.13-29.4h8.399l11.131,29.4h-8.19l-1.889-5.25h-10.5L123.516,126.49z
	 M127.295,115.779h6.721l-3.359-9.869L127.295,115.779z"/>
<path fill="#727171" d="M171.395,126.49h-23.311v-29.4h23.311v5.88h-15.75v5.67h12.392v5.879h-12.392v6.092h15.75V126.49z"/>
</svg>
