<?xml version="1.0" encoding="utf-8"?>
<!-- Generator: Adobe Illustrator 16.0.0, SVG Export Plug-In . SVG Version: 6.00 Build 0)  -->
<!DOCTYPE svg PUBLIC "-//W3C//DTD SVG 1.1//EN" "http://www.w3.org/Graphics/SVG/1.1/DTD/svg11.dtd">
<svg version="1.1" id="레이어_1" xmlns="http://www.w3.org/2000/svg" xmlns:xlink="http://www.w3.org/1999/xlink" x="0px"
	 y="0px" width="259px" height="224px" viewBox="0 0 259 224" enable-background="new 0 0 259 224" xml:space="preserve">
<path fill="#727171" d="M119.714,97.09h7.56v21.42c0,2.94-0.666,5.076-1.995,6.405c-1.33,1.33-3.465,1.995-6.405,1.995h-9.66
	c-2.94,0-5.075-0.665-6.405-1.995c-1.331-1.329-1.995-3.465-1.995-6.405V97.09h7.56v21.42c0,1.682,0.84,2.521,2.52,2.521h6.3
	c1.68,0,2.52-0.84,2.52-2.521V97.09z"/>
<path fill="#727171" d="M139.873,126.49h-7.559v-29.4h7.559v11.55h3.781l6.551-11.55h7.98l-8.232,14.49l8.191,14.91h-7.98
	l-6.51-11.971h-3.781V126.49z"/>
</svg>
