<?xml version="1.0" encoding="utf-8"?>
<!-- Generator: Adobe Illustrator 16.0.0, SVG Export Plug-In . SVG Version: 6.00 Build 0)  -->
<!DOCTYPE svg PUBLIC "-//W3C//DTD SVG 1.1//EN" "http://www.w3.org/Graphics/SVG/1.1/DTD/svg11.dtd">
<svg version="1.1" id="레이어_1" xmlns="http://www.w3.org/2000/svg" xmlns:xlink="http://www.w3.org/1999/xlink" x="0px"
	 y="0px" width="259px" height="224px" viewBox="0 0 259 224" enable-background="new 0 0 259 224" xml:space="preserve">
<path fill="#727171" d="M105.14,97.09h7.56v21.42c0,2.94-0.666,5.076-1.995,6.405c-1.33,1.33-3.465,1.995-6.405,1.995h-9.66
	c-2.94,0-5.075-0.665-6.405-1.995c-1.331-1.329-1.995-3.465-1.995-6.405V97.09h7.56v21.42c0,1.682,0.84,2.521,2.52,2.521h6.3
	c1.68,0,2.52-0.84,2.52-2.521V97.09L105.14,97.09z"/>
<path fill="#727171" d="M116.858,120.4c7.671,0.42,12.866,0.629,15.582,0.629c0.646,0,1.156-0.188,1.533-0.566
	c0.379-0.377,0.566-0.889,0.566-1.533v-3.779h-9.659c-2.94,0-5.076-0.664-6.405-1.994c-1.33-1.33-1.995-3.465-1.995-6.405v-1.26
	c0-2.94,0.665-5.075,1.995-6.405c1.33-1.329,3.465-1.995,6.405-1.995h14.741v5.88H126.56c-1.68,0-2.52,0.84-2.52,2.521v0.84
	c0,1.68,0.84,2.52,2.52,2.52h7.56c2.743,0,4.76,0.645,6.049,1.933c1.287,1.288,1.933,3.304,1.933,6.048v2.101
	c0,2.744-0.646,4.76-1.933,6.049c-1.289,1.287-3.306,1.932-6.049,1.932c-1.429,0-2.938-0.027-4.536-0.084l-3.864-0.168
	c-2.856-0.141-5.811-0.336-8.862-0.588V120.4z"/>
<path fill="#727171" d="M150.291,126.49H142.1l11.131-29.4h8.4l11.129,29.4h-8.189l-1.891-5.25h-10.5L150.291,126.49z
	 M154.07,115.779h6.721l-3.361-9.869L154.07,115.779z"/>
</svg>
