<?xml version="1.0" encoding="utf-8"?>
<!-- Generator: Adobe Illustrator 16.0.0, SVG Export Plug-In . SVG Version: 6.00 Build 0)  -->
<!DOCTYPE svg PUBLIC "-//W3C//DTD SVG 1.1//EN" "http://www.w3.org/Graphics/SVG/1.1/DTD/svg11.dtd">
<svg version="1.1" id="레이어_1" xmlns="http://www.w3.org/2000/svg" xmlns:xlink="http://www.w3.org/1999/xlink" x="0px"
	 y="0px" width="7680px" height="2100px" viewBox="0 0 7680 2100" enable-background="new 0 0 7680 2100" xml:space="preserve">
<path fill="#FFFFFF" stroke="#000000" stroke-miterlimit="10" d="M1937.759,2034.574c-543.599,0-1004.655-41.813-1333.323-120.921
	c-166.809-40.148-298.534-89.593-391.515-146.96c-95.91-59.174-150.57-126.818-162.461-201.052
	c-10.078-62.92,10.79-129.964,62.026-199.271c78.065-105.598,225.174-215.957,437.24-328.01
	c208.146-109.982,472.871-218.497,786.821-322.532c316.715-104.95,674-202.162,1061.93-288.934
	c401.421-89.789,826.2-166.218,1262.539-227.163c699.483-97.699,1388.727-149.34,1993.22-149.34
	c543.598,0,1004.654,41.814,1333.324,120.921c166.81,40.149,298.535,89.594,391.518,146.96
	c95.911,59.174,150.571,126.818,162.462,201.052c10.078,62.92-10.791,129.965-62.027,199.272
	c-78.064,105.598-225.175,215.957-437.24,328.01c-208.146,109.981-472.87,218.497-786.82,322.531
	c-316.715,104.951-674,202.162-1061.929,288.934c-401.422,89.789-826.2,166.217-1262.539,227.162
	C3231.498,1982.933,2542.252,2034.574,1937.759,2034.574z M5654.236,51.091c-604.461,0-1293.672,51.639-1993.125,149.334
	c-854.959,119.414-1680.427,302.691-2324.345,516.068c-313.913,104.022-578.602,212.522-786.714,322.486
	c-211.973,112.004-359.002,222.294-437.004,327.807c-51.12,69.15-71.945,136.018-61.897,198.745
	c11.857,74.023,66.408,141.504,162.137,200.566c92.918,57.328,224.574,106.744,391.311,146.876
	c328.615,79.094,789.614,120.9,1333.159,120.9c604.461,0,1293.674-51.639,1993.129-149.335
	c854.959-119.414,1680.428-302.689,2324.345-516.065c313.913-104.023,578.601-212.522,786.713-322.486
	c211.973-112.004,359.003-222.294,437.005-327.807c51.12-69.15,71.946-136.018,61.897-198.746
	c-11.856-74.023-66.407-141.504-162.138-200.566c-92.919-57.328-224.575-106.744-391.313-146.876
	C6658.78,92.898,6197.78,51.091,5654.236,51.091z"/>
</svg>
