<?xml version="1.0" encoding="utf-8"?>
<!-- Generator: Adobe Illustrator 16.0.0, SVG Export Plug-In . SVG Version: 6.00 Build 0)  -->
<!DOCTYPE svg PUBLIC "-//W3C//DTD SVG 1.1//EN" "http://www.w3.org/Graphics/SVG/1.1/DTD/svg11.dtd">
<svg version="1.1" id="레이어_1" xmlns="http://www.w3.org/2000/svg" xmlns:xlink="http://www.w3.org/1999/xlink" x="0px"
	 y="0px" width="7680px" height="2100px" viewBox="0 0 7680 2100" enable-background="new 0 0 7680 2100" xml:space="preserve">
<path fill="#FFFFFF" stroke="#000000" stroke-miterlimit="10" d="M2156.38,1917.899c-479.65,0-886.467-36.896-1176.473-106.696
	c-147.189-35.428-263.422-79.057-345.469-129.677c-84.637-52.219-132.873-111.914-143.367-177.428
	c-8.894-55.528,9.521-114.695,54.736-175.857c68.885-93.18,198.691-190.559,385.815-289.432
	c183.66-97.044,417.243-192.793,694.259-284.589c279.456-92.604,594.708-178.38,937-254.943
	c354.197-79.227,729.002-146.663,1114.008-200.438c617.195-86.206,1225.354-131.772,1758.733-131.772
	c479.649,0,886.468,36.895,1176.472,106.696c147.188,35.427,263.421,79.056,345.467,129.676
	c84.638,52.219,132.873,111.914,143.367,177.427c8.895,55.529-9.521,114.697-54.736,175.859
	c-68.886,93.18-198.692,190.559-385.815,289.432c-183.66,97.044-417.242,192.794-694.259,284.59
	c-279.456,92.604-594.71,178.379-937.002,254.942c-354.196,79.227-729.003,146.664-1114.009,200.438
	C3297.916,1872.333,2689.757,1917.899,2156.38,1917.899z M5435.623,167.767c-533.346,0-1141.473,45.563-1758.636,131.765
	c-754.373,105.365-1482.725,267.079-2050.886,455.353c-276.98,91.783-510.526,187.518-694.152,284.543
	c-187.029,98.825-316.757,196.135-385.579,289.23c-45.099,61.005-63.472,119.995-54.607,175.332
	c10.46,65.303,58.587,124.834,143.043,176.941c81.983,50.581,198.147,94.183,345.265,129.592
	c289.952,69.788,696.714,106.677,1176.309,106.677c533.345,0,1141.469-45.563,1758.63-131.765
	c754.375-105.365,1482.727-267.08,2050.887-455.353c276.979-91.784,510.526-187.518,694.152-284.544
	c187.029-98.823,316.757-196.135,385.579-289.23c45.099-61.005,63.473-119.995,54.608-175.333
	c-10.46-65.302-58.587-124.834-143.044-176.941c-81.982-50.581-198.146-94.182-345.262-129.592
	C6321.979,204.655,5915.219,167.767,5435.623,167.767z"/>
</svg>
