<?xml version="1.0" encoding="utf-8"?>
<!-- Generator: Adobe Illustrator 16.0.0, SVG Export Plug-In . SVG Version: 6.00 Build 0)  -->
<!DOCTYPE svg PUBLIC "-//W3C//DTD SVG 1.1//EN" "http://www.w3.org/Graphics/SVG/1.1/DTD/svg11.dtd">
<svg version="1.1" id="레이어_1" xmlns="http://www.w3.org/2000/svg" xmlns:xlink="http://www.w3.org/1999/xlink" x="0px"
	 y="0px" width="7680px" height="2100px" viewBox="0 0 7680 2100" enable-background="new 0 0 7680 2100" xml:space="preserve">
<path fill="#FFFFFF" stroke="#000000" stroke-miterlimit="10" d="M3212.814,1354.08c-170.621,0-315.337-13.125-418.504-37.956
	c-52.376-12.606-93.74-28.134-122.943-46.15c-30.163-18.609-47.354-39.895-51.098-63.264c-3.174-19.813,3.39-40.915,19.509-62.72
	c24.521-33.171,70.717-67.829,137.304-103.012c65.335-34.523,148.429-68.585,246.971-101.239
	c99.405-32.941,211.543-63.452,333.298-90.686c125.988-28.181,259.307-52.169,396.253-71.296
	c219.537-30.663,435.86-46.871,625.583-46.871c170.621,0,315.338,13.125,418.504,37.956c52.376,12.606,93.74,28.134,122.942,46.151
	c30.163,18.609,47.354,39.894,51.098,63.264c3.174,19.813-3.391,40.915-19.51,62.72c-24.521,33.17-70.717,67.829-137.304,103.012
	c-65.336,34.523-148.429,68.584-246.972,101.239c-99.405,32.94-211.542,63.451-333.298,90.686
	c-125.987,28.181-259.306,52.168-396.251,71.296C3618.86,1337.873,3402.538,1354.08,3212.814,1354.08z M4379.188,731.586
	c-189.692,0-405.981,16.205-625.487,46.864c-268.305,37.475-527.354,94.991-729.428,161.953
	c-98.505,32.642-181.563,66.688-246.864,101.193c-66.493,35.134-112.609,69.725-137.067,102.81
	c-16.003,21.647-22.524,42.572-19.381,62.192c3.709,23.159,20.792,44.281,50.773,62.779c29.14,17.978,70.435,33.477,122.739,46.065
	c103.114,24.818,247.774,37.937,418.341,37.937c189.692,0,405.981-16.205,625.486-46.863
	c268.306-37.476,527.354-94.991,729.427-161.952c98.505-32.643,181.563-66.688,246.864-101.193
	c66.493-35.134,112.609-69.724,137.068-102.81c16.003-21.648,22.524-42.573,19.381-62.193
	c-3.709-23.159-20.792-44.281-50.773-62.779c-29.14-17.978-70.435-33.477-122.738-46.066
	C4694.414,744.705,4549.754,731.586,4379.188,731.586z"/>
</svg>
