<?xml version="1.0" encoding="utf-8"?>
<!-- Generator: Adobe Illustrator 16.0.0, SVG Export Plug-In . SVG Version: 6.00 Build 0)  -->
<!DOCTYPE svg PUBLIC "-//W3C//DTD SVG 1.1//EN" "http://www.w3.org/Graphics/SVG/1.1/DTD/svg11.dtd">
<svg version="1.1" id="레이어_1" xmlns="http://www.w3.org/2000/svg" xmlns:xlink="http://www.w3.org/1999/xlink" x="0px"
	 y="0px" width="7680px" height="2100px" viewBox="0 0 7680 2100" enable-background="new 0 0 7680 2100" xml:space="preserve">
<path fill="#FFFFFF" stroke="#000000" stroke-miterlimit="10" d="M2944.122,1497.483c-249.219,0-460.599-19.171-611.288-55.44
	c-76.491-18.411-136.897-41.086-179.541-67.396c-44.019-27.158-69.106-58.212-74.566-92.301c-4.629-28.896,4.95-59.68,28.469-91.495
	c35.805-48.433,103.267-99.043,200.511-150.425c95.43-50.424,216.799-100.176,360.735-147.873
	c145.199-48.115,308.997-92.682,486.844-132.463c184.031-41.164,378.77-76.203,578.807-104.144
	c320.676-44.789,636.659-68.463,913.787-68.463c249.221,0,460.601,19.17,611.288,55.439
	c76.492,18.411,136.898,41.085,179.541,67.395c44.019,27.158,69.106,58.212,74.566,92.3c4.628,28.897-4.95,59.681-28.471,91.497
	c-35.805,48.433-103.266,99.043-200.51,150.426c-95.431,50.424-216.8,100.176-360.735,147.872
	c-145.199,48.115-308.997,92.683-486.844,132.463c-184.03,41.164-378.77,76.202-578.807,104.143
	C3537.231,1473.809,3221.25,1497.483,2944.122,1497.483z M4647.878,588.184c-277.096,0-593.045,23.671-913.689,68.457
	c-391.932,54.743-770.343,138.761-1065.527,236.577c-143.899,47.685-265.231,97.42-360.628,147.827
	c-97.15,51.333-164.532,101.875-200.274,150.223c-23.403,31.657-32.939,62.264-28.341,90.967
	c5.427,33.879,30.406,64.771,74.243,91.816c42.58,26.271,102.918,48.917,179.337,67.311
	c150.636,36.257,361.96,55.421,611.125,55.421c277.097,0,593.045-23.673,913.688-68.458
	c391.933-54.743,770.345-138.761,1065.528-236.576c143.898-47.685,265.231-97.421,360.628-147.827
	c97.15-51.333,164.532-101.875,200.274-150.224c23.404-31.658,32.939-62.264,28.342-90.969
	c-5.427-33.878-30.405-64.769-74.242-91.815c-42.58-26.271-102.918-48.917-179.337-67.31
	C5108.367,607.348,4897.044,588.184,4647.878,588.184z"/>
</svg>
