<?xml version="1.0" encoding="utf-8"?>
<!-- Generator: Adobe Illustrator 16.0.0, SVG Export Plug-In . SVG Version: 6.00 Build 0)  -->
<!DOCTYPE svg PUBLIC "-//W3C//DTD SVG 1.1//EN" "http://www.w3.org/Graphics/SVG/1.1/DTD/svg11.dtd">
<svg version="1.1" id="레이어_1" xmlns="http://www.w3.org/2000/svg" xmlns:xlink="http://www.w3.org/1999/xlink" x="0px"
	 y="0px" width="7680px" height="2100px" viewBox="0 0 7680 2100" enable-background="new 0 0 7680 2100" xml:space="preserve">
<path fill="#FFFFFF" stroke="#000000" stroke-miterlimit="10" d="M2293.012,1844.978c-439.681,0-812.599-33.821-1078.439-97.806
	c-134.926-32.476-241.475-72.47-316.687-118.874c-77.592-47.872-121.813-102.599-131.433-162.661
	c-8.155-50.909,8.729-105.153,50.18-161.225c63.146-85.419,182.139-174.686,353.673-265.322
	c168.356-88.958,382.476-176.729,636.409-260.876c256.169-84.888,545.151-163.516,858.921-233.699
	c324.681-72.625,668.254-134.442,1021.177-183.736c565.762-79.021,1123.241-120.79,1612.172-120.79
	c439.681,0,812.6,33.821,1078.44,97.805c134.927,32.476,241.477,72.47,316.688,118.874
	c77.594,47.873,121.814,102.599,131.435,162.662c8.155,50.91-8.729,105.155-50.181,161.226
	c-63.146,85.418-182.14,174.686-353.674,265.322c-168.355,88.957-382.476,176.728-636.408,260.875
	c-256.169,84.888-545.151,163.516-858.921,233.698c-324.681,72.624-668.254,134.441-1021.176,183.735
	C3339.425,1803.208,2781.943,1844.978,2293.012,1844.978z M5298.984,240.689c-488.898,0-1046.345,41.766-1612.075,120.784
	c-691.507,96.584-1359.162,244.822-1879.975,417.406c-253.897,84.134-467.98,171.891-636.302,260.831
	c-171.44,90.586-290.354,179.786-353.437,265.119c-41.336,55.914-58.176,109.98-50.052,160.697
	c9.587,59.853,53.699,114.416,131.11,162.177c75.148,46.365,181.629,86.331,316.483,118.789
	c265.787,63.973,638.648,97.786,1078.275,97.786c488.9,0,1046.348-41.767,1612.078-120.785
	c691.508-96.584,1359.162-244.822,1879.974-417.404c253.896-84.135,467.979-171.891,636.302-260.83
	c171.44-90.586,290.354-179.785,353.438-265.118c41.336-55.915,58.176-109.982,50.053-160.699
	c-9.588-59.853-53.7-114.417-131.11-162.177c-75.149-46.364-181.631-86.331-316.485-118.788
	C6111.473,274.502,5738.611,240.689,5298.984,240.689z"/>
</svg>
