<?xml version="1.0" encoding="utf-8"?>
<!-- Generator: Adobe Illustrator 16.0.0, SVG Export Plug-In . SVG Version: 6.00 Build 0)  -->
<!DOCTYPE svg PUBLIC "-//W3C//DTD SVG 1.1//EN" "http://www.w3.org/Graphics/SVG/1.1/DTD/svg11.dtd">
<svg version="1.1" id="레이어_1" xmlns="http://www.w3.org/2000/svg" xmlns:xlink="http://www.w3.org/1999/xlink" x="0px"
	 y="0px" width="7680px" height="2160px" viewBox="0 0 7680 2160" enable-background="new 0 0 7680 2160" xml:space="preserve">
<path fill="#FFFFFF" stroke="#000000" stroke-miterlimit="10" d="M4760.926,1737.002c-317.723,0-654.714-19.646-1001.613-58.391
	c-274.828-30.695-542.703-72.064-796.184-122.959c-244.989-49.189-471.301-106.185-672.649-169.403
	c-199.471-62.629-368.807-129.58-503.305-198.995c-136.863-70.636-233.817-141.887-288.168-211.773
	c-39.138-50.325-55.681-99.695-49.168-146.741c15.763-113.862,165.605-209.127,433.329-275.496
	c129.098-32.003,283.249-56.721,458.173-73.467c175.859-16.835,370.238-25.371,577.737-25.371
	c317.721,0,654.711,19.646,1001.608,58.39c274.828,30.695,542.702,72.064,796.183,122.959
	c244.988,49.189,471.301,106.184,672.649,169.402c199.471,62.629,368.807,129.58,503.305,198.995
	c136.862,70.635,233.817,141.886,288.169,211.773c39.139,50.325,55.682,99.696,49.169,146.742
	c-15.763,113.862-165.605,209.127-433.327,275.495c-129.098,32.004-283.249,56.721-458.172,73.467
	C5162.804,1728.466,4968.425,1737.002,4760.926,1737.002z M2919.078,454.907c-416.825,0-774.995,34.172-1035.789,98.823
	c-267.51,66.315-417.223,161.436-432.954,275.079c-6.494,46.907,10.015,96.151,49.067,146.366
	c54.307,69.829,151.205,141.033,288.003,211.635c134.472,69.402,303.782,136.343,503.225,198.963
	c414.93,130.276,922.811,231.367,1468.738,292.343c346.881,38.743,683.854,58.387,1001.558,58.387
	c416.824,0,774.994-34.172,1035.787-98.823c267.508-66.314,417.221-161.435,432.952-275.078
	c6.494-46.908-10.015-96.152-49.067-146.366c-54.307-69.83-151.206-141.034-288.004-211.636
	c-134.473-69.402-303.782-136.342-503.226-198.962c-414.929-130.277-922.81-231.367-1468.737-292.342
	C3573.752,474.551,3236.781,454.907,2919.078,454.907z"/>
</svg>
