<?xml version="1.0" encoding="utf-8"?>
<!-- Generator: Adobe Illustrator 16.0.0, SVG Export Plug-In . SVG Version: 6.00 Build 0)  -->
<!DOCTYPE svg PUBLIC "-//W3C//DTD SVG 1.1//EN" "http://www.w3.org/Graphics/SVG/1.1/DTD/svg11.dtd">
<svg version="1.1" id="레이어_1" xmlns="http://www.w3.org/2000/svg" xmlns:xlink="http://www.w3.org/1999/xlink" x="0px"
	 y="0px" width="7680px" height="2160px" viewBox="0 0 7680 2160" enable-background="new 0 0 7680 2160" xml:space="preserve">
<path fill="#FFFFFF" stroke="#000000" stroke-miterlimit="10" d="M4431.366,1507.604c-204.027,0-420.427-12.615-643.189-37.496
	c-176.482-19.711-348.5-46.277-511.274-78.959c-157.322-31.588-302.651-68.188-431.95-108.784
	c-128.094-40.219-236.838-83.214-323.21-127.791c-87.898-45.364-150.167-91.126-185.077-136.014
	c-25.148-32.336-35.777-64.062-31.591-94.297c10.127-73.156,106.372-134.356,278.328-176.983
	c167.5-41.523,397.531-63.471,665.227-63.471c204.028,0,420.43,12.615,643.193,37.496c176.482,19.711,348.5,46.277,511.274,78.959
	c157.321,31.587,302.65,68.188,431.949,108.784c128.094,40.218,236.838,83.213,323.21,127.791
	c87.897,45.364,150.166,91.126,185.076,136.015c25.148,32.335,35.777,64.062,31.592,94.297
	c-10.128,73.156-106.372,134.355-278.329,176.984C4929.094,1485.656,4699.062,1507.604,4431.366,1507.604z M3248.629,684.308
	c-267.656,0-497.646,21.942-665.107,63.457c-171.741,42.574-267.855,103.63-277.952,176.566
	c-4.167,30.097,6.429,61.697,31.491,93.922c34.865,44.831,97.079,90.546,184.912,135.877
	c86.347,44.564,195.063,87.548,323.13,127.758c266.44,83.655,592.569,148.569,943.129,187.725
	c222.744,24.878,439.125,37.492,643.134,37.492c267.655,0,497.646-21.943,665.108-63.456
	c171.741-42.575,267.856-103.631,277.953-176.567c4.167-30.097-6.428-61.696-31.49-93.922
	c-34.865-44.83-97.078-90.546-184.911-135.877c-86.347-44.564-195.063-87.548-323.131-127.758
	c-266.439-83.656-592.568-148.569-943.128-187.723C3669.022,696.922,3452.639,684.308,3248.629,684.308z"/>
</svg>
