<?xml version="1.0" encoding="utf-8"?>
<!-- Generator: Adobe Illustrator 16.0.0, SVG Export Plug-In . SVG Version: 6.00 Build 0)  -->
<!DOCTYPE svg PUBLIC "-//W3C//DTD SVG 1.1//EN" "http://www.w3.org/Graphics/SVG/1.1/DTD/svg11.dtd">
<svg version="1.1" id="레이어_1" xmlns="http://www.w3.org/2000/svg" xmlns:xlink="http://www.w3.org/1999/xlink" x="0px"
	 y="0px" width="7680px" height="2160px" viewBox="0 0 7680 2160" enable-background="new 0 0 7680 2160" xml:space="preserve">
<path fill="#FFFFFF" stroke="#000000" stroke-miterlimit="10" d="M4365.797,1461.958c-181.405,0-373.813-11.217-571.877-33.339
	c-156.914-17.525-309.858-41.146-454.585-70.204c-139.878-28.085-269.093-60.627-384.056-96.723
	c-113.893-35.759-210.58-73.987-287.375-113.622c-78.155-40.336-133.522-81.026-164.563-120.939
	c-22.363-28.756-31.815-56.971-28.093-83.86c9.006-65.057,94.585-119.479,247.486-157.383
	c148.929-36.92,353.457-56.435,591.471-56.435c181.405,0,373.812,11.217,571.875,33.338
	c156.914,17.526,309.858,41.146,454.585,70.205c139.878,28.085,269.094,60.627,384.056,96.723
	c113.893,35.759,210.579,73.987,287.376,113.622c78.154,40.336,133.521,81.026,164.563,120.939
	c22.364,28.757,31.816,56.973,28.093,83.862c-9.006,65.057-94.585,119.479-247.485,157.382
	C4808.339,1442.444,4603.812,1461.958,4365.797,1461.958z M3314.204,729.953c-237.975,0-442.461,19.51-591.351,56.419
	c-152.686,37.851-238.135,92.129-247.111,156.966c-3.703,26.751,5.714,54.839,27.993,83.485
	c30.996,39.855,86.308,80.5,164.397,120.802c76.771,39.621,173.431,77.839,287.296,113.59
	c236.896,74.379,526.86,132.095,838.547,166.906c198.045,22.12,390.434,33.336,571.822,33.336
	c237.975,0,442.46-19.509,591.35-56.419c152.686-37.851,238.135-92.128,247.111-156.965c3.703-26.752-5.716-54.841-27.994-83.486
	c-30.996-39.856-86.308-80.5-164.397-120.803c-76.771-39.622-173.432-77.839-287.297-113.589
	c-236.895-74.379-526.858-132.095-838.546-166.907C3687.978,741.169,3495.59,729.953,3314.204,729.953z"/>
</svg>
