<?xml version="1.0" encoding="utf-8"?>
<!-- Generator: Adobe Illustrator 16.0.0, SVG Export Plug-In . SVG Version: 6.00 Build 0)  -->
<!DOCTYPE svg PUBLIC "-//W3C//DTD SVG 1.1//EN" "http://www.w3.org/Graphics/SVG/1.1/DTD/svg11.dtd">
<svg version="1.1" id="레이어_1" xmlns="http://www.w3.org/2000/svg" xmlns:xlink="http://www.w3.org/1999/xlink" x="0px"
	 y="0px" width="7680px" height="2160px" viewBox="0 0 7680 2160" enable-background="new 0 0 7680 2160" xml:space="preserve">
<path fill="#FFFFFF" stroke="#000000" stroke-miterlimit="10" d="M7166.6,1699.381c110.895-68.638,173.066-146.078,184.799-230.17
	c8.051-57.711-7.932-118.042-47.5-179.317c-38.544-59.691-99.92-121-182.422-182.224
	c-80.982-60.097-183.146-120.729-303.643-180.213c-119.332-58.905-257.688-117.199-411.23-173.26
	c-153.528-56.056-323.497-110.336-505.182-161.334c-183.42-51.486-380.41-100.082-585.496-144.435
	c-426.684-92.276-883.373-165.706-1357.379-218.247c-509.644-56.487-1004.72-85.128-1471.479-85.128
	c-304.84,0-590.403,12.445-848.76,36.991c-256.984,24.413-483.45,60.45-673.105,107.11
	C772.723,336.507,620.714,394.195,513.4,460.617c-110.894,68.639-173.069,146.08-184.799,230.172
	c-8.052,57.707,7.929,118.037,47.497,179.314c38.547,59.694,99.924,121.003,182.424,182.225
	c80.989,60.101,183.15,120.733,303.643,180.214c119.346,58.912,257.705,117.204,411.231,173.258
	c153.523,56.056,323.491,110.336,505.18,161.336c183.397,51.48,380.387,100.075,585.498,144.434
	c426.683,92.276,883.372,165.707,1357.38,218.247c509.629,56.489,1004.707,85.133,1471.475,85.133
	c304.849,0,590.41-12.446,848.759-36.991c256.985-24.416,483.453-60.452,673.106-107.112
	C6907.28,1823.493,7059.287,1765.804,7166.6,1699.381 M5192.934,2014.278c-466.735,0-961.78-28.641-1471.383-85.127
	c-937.796-103.946-1807.133-290.029-2447.869-523.972c-311.526-113.741-551.979-232.631-714.678-353.367
	C390.633,926.867,313.365,805.43,329.346,690.87c23.114-165.7,243.059-304.39,636.055-401.074
	c383.129-94.256,909.314-144.077,1521.667-144.077c466.744,0,961.789,28.641,1471.388,85.127
	C4896.25,334.794,5765.586,520.879,6406.32,754.819c311.528,113.743,551.98,232.633,714.678,353.367
	c168.371,124.945,245.637,246.384,229.656,360.943c-23.111,165.698-243.056,304.387-636.054,401.075
	C6331.463,1964.458,5805.281,2014.278,5192.934,2014.278"/>
<g>
</g>
<g>
</g>
<g>
</g>
<g>
</g>
<g>
</g>
<g>
</g>
<g>
</g>
<g>
</g>
<g>
</g>
<g>
</g>
<g>
</g>
<g>
</g>
<g>
</g>
<g>
</g>
<g>
</g>
</svg>
