<?xml version="1.0" encoding="utf-8"?>
<!-- Generator: Adobe Illustrator 16.0.0, SVG Export Plug-In . SVG Version: 6.00 Build 0)  -->
<!DOCTYPE svg PUBLIC "-//W3C//DTD SVG 1.1//EN" "http://www.w3.org/Graphics/SVG/1.1/DTD/svg11.dtd">
<svg version="1.1" id="레이어_1" xmlns="http://www.w3.org/2000/svg" xmlns:xlink="http://www.w3.org/1999/xlink" x="0px"
	 y="0px" width="7680px" height="2160px" viewBox="0 0 7680 2160" enable-background="new 0 0 7680 2160" xml:space="preserve">
<path fill="#FFFFFF" stroke="#000000" stroke-miterlimit="10" d="M7042.27,1434.571c7.342-52.636-7.233-107.659-43.319-163.546
	c-35.147-54.434-91.123-110.349-166.369-166.188c-73.862-54.812-167.028-110.106-276.916-164.35
	c-108.834-53.726-235.011-106.886-375.028-158.005c-284.147-103.748-618.799-197.567-994.653-278.851
	c-389.125-84.154-805.604-151.118-1237.873-199.032c-464.765-51.515-916.252-77.635-1341.923-77.635
	c-277.994,0-538.417,11.35-774.035,33.733c-234.355,22.266-440.883,55.13-613.847,97.682
	C859.607,446.625,658.85,573.288,637.731,724.675c-7.341,52.637,7.233,107.662,43.32,163.545
	c35.151,54.438,91.126,110.352,166.371,166.188c73.865,54.814,167.033,110.109,276.914,164.351
	c108.85,53.729,235.028,106.891,375.027,158.006c284.155,103.749,618.806,197.567,994.657,278.85
	c389.124,84.153,805.604,151.116,1237.872,199.03c464.763,51.517,916.25,77.638,1341.925,77.638
	c277.991,0,538.414-11.35,774.032-33.732c234.361-22.266,440.892-55.132,613.849-97.682
	C6820.395,1712.621,7021.153,1585.959,7042.27,1434.571 M5073.814,1931.612c-425.639,0-877.094-26.118-1341.833-77.632
	c-855.224-94.794-1648.017-264.491-2232.335-477.835c-284.1-103.728-503.379-212.149-651.747-322.252
	C694.362,939.958,623.902,829.22,638.475,724.758c21.078-151.098,221.648-277.568,580.028-365.736
	c349.394-85.956,829.247-131.39,1387.684-131.39c425.636,0,877.093,26.118,1341.831,77.629
	c855.228,94.794,1648.019,264.494,2232.337,477.836c284.096,103.726,503.374,212.148,651.747,322.252
	c153.535,113.938,223.996,224.675,209.426,329.137c-21.078,151.1-221.65,277.569-580.027,365.735
	C6112.1,1886.18,5632.247,1931.612,5073.814,1931.612"/>
<g>
</g>
<g>
</g>
<g>
</g>
<g>
</g>
<g>
</g>
<g>
</g>
<g>
</g>
<g>
</g>
<g>
</g>
<g>
</g>
<g>
</g>
<g>
</g>
<g>
</g>
<g>
</g>
<g>
</g>
</svg>
