<?xml version="1.0" encoding="utf-8"?>
<!-- Generator: Adobe Illustrator 16.0.0, SVG Export Plug-In . SVG Version: 6.00 Build 0)  -->
<!DOCTYPE svg PUBLIC "-//W3C//DTD SVG 1.1//EN" "http://www.w3.org/Graphics/SVG/1.1/DTD/svg11.dtd">
<svg version="1.1" id="레이어_1" xmlns="http://www.w3.org/2000/svg" xmlns:xlink="http://www.w3.org/1999/xlink" x="0px"
	 y="0px" width="7680px" height="2160px" viewBox="0 0 7680 2160" enable-background="new 0 0 7680 2160" xml:space="preserve">
<path fill="#FFFFFF" stroke="#000000" stroke-miterlimit="10" d="M6876.8,1416.227c6.965-49.92-6.858-102.104-41.082-155.104
	c-33.339-51.626-86.423-104.652-157.778-157.604c-70.048-51.981-158.402-104.421-262.607-155.858
	c-103.211-50.948-222.869-101.362-355.646-149.842c-269.474-98.386-586.83-187.356-943.26-264.438
	c-369.011-79.805-763.969-143.309-1173.903-188.747c-440.741-48.853-868.897-73.623-1272.575-73.623
	c-263.627,0-510.593,10.764-734.035,31.991c-222.251,21.115-418.108,52.282-582.129,92.634
	c-340.168,83.687-530.558,203.809-550.587,347.382c-6.96,49.919,6.862,102.105,41.084,155.106
	c33.336,51.624,86.421,104.648,157.778,157.603c70.05,51.983,158.404,104.421,262.607,155.859
	c103.214,50.949,222.872,101.363,355.647,149.841c269.467,98.387,586.825,187.358,943.256,264.441
	c369.025,79.805,763.984,143.308,1173.904,188.744c440.745,48.854,868.9,73.624,1272.577,73.624
	c263.638,0,510.603-10.763,734.036-31.989c222.255-21.116,418.111-52.283,582.127-92.636
	C6666.384,1679.923,6856.774,1559.799,6876.8,1416.227 M5010.052,1887.567c-403.64,0-831.765-24.769-1272.485-73.618
	c-811.028-89.898-1562.85-250.825-2116.968-453.142c-269.412-98.367-477.357-201.185-618.059-305.597
	C856.944,947.169,790.127,842.159,803.945,743.099c19.986-143.282,210.188-263.21,550.041-346.82
	c331.336-81.514,786.39-124.599,1315.966-124.599c403.64,0,831.765,24.767,1272.481,73.617
	c811.026,89.896,1562.849,250.824,2116.972,453.14c269.416,98.37,477.36,201.187,618.057,305.597
	c145.599,108.043,212.414,213.054,198.598,312.11c-19.986,143.283-210.189,263.213-550.04,346.822
	C5994.684,1844.481,5539.629,1887.567,5010.052,1887.567"/>
<g>
</g>
<g>
</g>
<g>
</g>
<g>
</g>
<g>
</g>
<g>
</g>
<g>
</g>
<g>
</g>
<g>
</g>
<g>
</g>
<g>
</g>
<g>
</g>
<g>
</g>
<g>
</g>
<g>
</g>
</svg>
