<?xml version="1.0" encoding="utf-8"?>
<!-- Generator: Adobe Illustrator 16.0.0, SVG Export Plug-In . SVG Version: 6.00 Build 0)  -->
<!DOCTYPE svg PUBLIC "-//W3C//DTD SVG 1.1//EN" "http://www.w3.org/Graphics/SVG/1.1/DTD/svg11.dtd">
<svg version="1.1" id="레이어_1" xmlns="http://www.w3.org/2000/svg" xmlns:xlink="http://www.w3.org/1999/xlink" x="0px"
	 y="0px" width="7680px" height="2160px" viewBox="0 0 7680 2160" enable-background="new 0 0 7680 2160" xml:space="preserve">
<path fill="#FFFFFF" stroke="#000000" stroke-miterlimit="10" d="M6158.036,1336.562c5.317-38.121-5.237-77.971-31.371-118.44
	c-25.452-39.416-65.976-79.896-120.45-120.319c-107.449-79.736-266.228-158.247-471.928-233.349
	c-205.693-75.101-447.934-143.012-719.988-201.846c-281.676-60.918-583.145-109.39-896.032-144.071
	c-336.405-37.289-663.215-56.196-971.354-56.196c-404.281,0-751.678,32.894-1004.632,95.126
	c-259.683,63.885-405.027,155.597-420.319,265.218c-5.317,38.122,5.238,77.971,31.37,118.439
	c25.45,39.412,65.975,79.894,120.449,120.318c107.446,79.734,266.228,158.244,471.931,233.349
	c205.687,75.1,447.925,143.011,719.985,201.849c281.681,60.917,583.15,109.389,896.035,144.067
	c336.417,37.289,663.228,56.198,971.354,56.198c404.276,0,751.674-32.895,1004.631-95.125
	C5997.399,1537.895,6142.743,1446.183,6158.036,1336.562 M5737.522,1601.134c-252.898,62.217-600.228,95.104-1004.435,95.104
	c-308.095,0-634.873-18.906-971.264-56.191c-619.049-68.619-1192.896-191.45-1615.83-345.872
	c-205.629-75.077-364.344-153.553-471.731-233.243c-111.109-82.45-162.098-162.579-151.554-238.161
	c15.247-109.328,160.401-200.846,419.771-264.657c252.904-62.217,600.232-95.103,1004.435-95.103
	c308.097,0,634.875,18.906,971.262,56.194c619.036,68.615,1192.884,191.448,1615.829,345.87
	c205.631,75.08,364.346,153.555,471.735,233.245c111.104,82.449,162.097,162.578,151.554,238.16
	C6142.043,1445.809,5996.889,1537.325,5737.522,1601.134"/>
<g>
</g>
<g>
</g>
<g>
</g>
<g>
</g>
<g>
</g>
<g>
</g>
<g>
</g>
<g>
</g>
<g>
</g>
<g>
</g>
<g>
</g>
<g>
</g>
<g>
</g>
<g>
</g>
<g>
</g>
</svg>
