<?xml version="1.0" encoding="utf-8"?>
<!-- Generator: Adobe Illustrator 16.0.0, SVG Export Plug-In . SVG Version: 6.00 Build 0)  -->
<!DOCTYPE svg PUBLIC "-//W3C//DTD SVG 1.1//EN" "http://www.w3.org/Graphics/SVG/1.1/DTD/svg11.dtd">
<svg version="1.1" id="레이어_1" xmlns="http://www.w3.org/2000/svg" xmlns:xlink="http://www.w3.org/1999/xlink" x="0px"
	 y="0px" width="7680px" height="2160px" viewBox="0 0 7680 2160" enable-background="new 0 0 7680 2160" xml:space="preserve">
<path fill="#FFFFFF" stroke="#000000" stroke-miterlimit="10" d="M5328.654,1244.631c6.799-48.729-26.019-100.35-97.537-153.424
	c-69.012-51.212-170.983-101.633-303.084-149.864c-132.082-48.226-287.643-91.836-462.354-129.62
	c-180.864-39.116-374.459-70.243-575.402-92.517c-216.042-23.946-425.908-36.088-623.771-36.088
	c-259.615,0-482.707,21.125-645.156,61.09c-166.812,41.04-260.177,99.967-270.002,170.411
	c-6.799,48.729,26.018,100.35,97.537,153.423c69.01,51.21,170.981,101.631,303.083,149.863
	c132.077,48.223,287.636,91.834,462.355,129.621c180.876,39.116,374.47,70.244,575.402,92.516
	c216.041,23.945,425.907,36.085,623.77,36.085c259.616,0,482.711-21.124,645.157-61.088
	C5225.462,1374.002,5318.829,1315.077,5328.654,1244.631 M5058.452,1414.396c-162.388,39.948-385.41,61.063-644.959,61.063
	c-197.832,0-407.668-12.138-623.676-36.082c-397.501-44.058-765.983-122.932-1037.567-222.09
	c-132.031-48.207-233.937-98.593-302.889-149.759c-71.308-52.917-104.037-104.336-97.271-152.827
	c9.786-70.155,102.962-128.887,269.456-169.848c162.386-39.95,385.409-61.065,644.959-61.065
	c197.836,0,407.671,12.14,623.679,36.082c397.498,44.059,765.979,122.933,1037.565,222.091
	c132.037,48.209,233.942,98.595,302.888,149.758c71.311,52.918,104.038,104.337,97.271,152.828
	C5318.124,1314.702,5224.947,1373.434,5058.452,1414.396"/>
<g>
</g>
<g>
</g>
<g>
</g>
<g>
</g>
<g>
</g>
<g>
</g>
<g>
</g>
<g>
</g>
<g>
</g>
<g>
</g>
<g>
</g>
<g>
</g>
<g>
</g>
<g>
</g>
<g>
</g>
</svg>
