<?xml version="1.0" encoding="utf-8"?>
<!-- Generator: Adobe Illustrator 16.0.0, SVG Export Plug-In . SVG Version: 6.00 Build 0)  -->
<!DOCTYPE svg PUBLIC "-//W3C//DTD SVG 1.1//EN" "http://www.w3.org/Graphics/SVG/1.1/DTD/svg11.dtd">
<svg version="1.1" id="레이어_1" xmlns="http://www.w3.org/2000/svg" xmlns:xlink="http://www.w3.org/1999/xlink" x="0px"
	 y="0px" width="7680px" height="2160px" viewBox="0 0 7680 2160" enable-background="new 0 0 7680 2160" xml:space="preserve">
<path fill="#FFFFFF" stroke="#000000" stroke-miterlimit="10" d="M5163.628,1226.337c6.045-43.34-23.14-89.246-86.736-136.444
	c-61.36-45.535-152.028-90.367-269.487-133.252c-117.441-42.879-255.756-81.655-411.095-115.25
	c-160.846-34.783-332.975-62.459-511.604-82.258c-192.084-21.29-378.681-32.086-554.606-32.086
	c-230.832,0-429.19,18.783-573.633,54.317c-148.331,36.493-231.354,88.897-240.094,151.546
	c-6.045,43.342,23.137,89.249,86.737,136.445c61.36,45.536,152.029,90.368,269.486,133.252
	c117.44,42.879,255.753,81.654,411.094,115.249c160.831,34.78,332.959,62.455,511.604,82.259
	c192.084,21.291,378.682,32.086,554.607,32.086c230.836,0,429.194-18.782,573.631-54.318
	C5071.865,1341.388,5154.89,1288.984,5163.628,1226.337 M4923.333,1377.237c-144.386,35.521-342.675,54.296-573.433,54.296
	c-175.894,0-362.459-10.794-554.516-32.081c-178.224-19.754-350.066-47.39-510.758-82.137
	c-155.183-33.557-293.426-72.282-410.887-115.106c-117.491-42.835-208.213-87.592-269.649-133.025
	c-63.743-47.141-93.007-92.963-86.977-136.192c8.699-62.36,91.534-114.568,239.55-150.982
	c144.383-35.52,342.673-54.295,573.435-54.295c175.894,0,362.459,10.793,554.516,32.081
	c178.222,19.755,350.064,47.39,510.756,82.136c155.184,33.555,293.427,72.283,410.889,115.107
	c117.489,42.835,208.213,87.591,269.647,133.024c63.744,47.142,93.008,92.962,86.978,136.191
	C5154.185,1288.617,5071.35,1340.827,4923.333,1377.237"/>
<g>
</g>
<g>
</g>
<g>
</g>
<g>
</g>
<g>
</g>
<g>
</g>
<g>
</g>
<g>
</g>
<g>
</g>
<g>
</g>
<g>
</g>
<g>
</g>
<g>
</g>
<g>
</g>
<g>
</g>
</svg>
