<?xml version="1.0" encoding="utf-8"?>
<!-- Generator: Adobe Illustrator 16.0.0, SVG Export Plug-In . SVG Version: 6.00 Build 0)  -->
<!DOCTYPE svg PUBLIC "-//W3C//DTD SVG 1.1//EN" "http://www.w3.org/Graphics/SVG/1.1/DTD/svg11.dtd">
<svg version="1.1" id="레이어_1" xmlns="http://www.w3.org/2000/svg" xmlns:xlink="http://www.w3.org/1999/xlink" x="0px"
	 y="0px" width="517px" height="447px" viewBox="0 0 517 447" enable-background="new 0 0 517 447" xml:space="preserve">
<path fill="#E11A8E" d="M387.746,0H129.254L0,223.501L129.254,447h258.492L517,223.501L387.746,0z M478.491,282.432l-42.669,42.606
	l-0.123-201.884L478.491,282.432z M98.787,223.403L178.56,85.075l159.711,0.099l79.938,138.425l-79.771,138.324l-159.707-0.096
	L98.787,223.403z M175.892,360.909L84.86,269.898l12.174-45.532L175.892,360.909z M341.121,86.109l91.016,90.991l-12.175,45.534
	L341.121,86.109z M307.503,49.673l126.196,72.843l0.032,53.351L307.503,49.673z M338.184,83.173L180.78,83.077l124.127-33.171
	L338.184,83.173z M132.377,93.941l126-72.626l46.13,26.627L132.377,93.941z M176.789,84.144L97.995,220.773l33.278-124.466
	L176.789,84.144z M83.263,268.127l-0.089-145.825l46.198-26.628L83.263,268.127z M209.478,397.315l-126.18-72.83l-0.033-53.353
	L209.478,397.315z M178.81,363.827l157.407,0.095l-124.13,33.174L178.81,363.827z M384.632,353.053l-126.008,72.63l-46.129-26.625
	L384.632,353.053z M340.209,362.854L419,226.232l-33.278,124.459L340.209,362.854z M433.733,178.873l0.089,145.828l-46.2,26.63
	L433.733,178.873z M260.312,20.123l159.163,42.64l15.655,58.27L260.312,20.123z M257.668,19.415L83.111,120.029L199.481,3.827
	L257.668,19.415z M81.174,121.964l0.123,201.87L38.509,164.568L81.174,121.964z M256.694,426.878L97.525,384.24l-15.654-58.269
	L256.694,426.878z M259.33,427.584l174.555-100.611L317.517,443.171L259.33,427.584z"/>
</svg>
