<?xml version="1.0" encoding="utf-8"?>
<!-- Generator: Adobe Illustrator 16.0.0, SVG Export Plug-In . SVG Version: 6.00 Build 0)  -->
<!DOCTYPE svg PUBLIC "-//W3C//DTD SVG 1.1//EN" "http://www.w3.org/Graphics/SVG/1.1/DTD/svg11.dtd">
<svg version="1.1" id="레이어_1" xmlns="http://www.w3.org/2000/svg" xmlns:xlink="http://www.w3.org/1999/xlink" x="0px"
	 y="0px" width="518.438px" height="448px" viewBox="0 0 518.438 448" enable-background="new 0 0 518.438 448"
	 xml:space="preserve">
<g>
	<g>
		<polygon fill="#FFFFFF" points="329.451,364.09 182.128,363.998 213.274,395.145 		"/>
		<polygon fill="#FFFFFF" points="416.324,232.652 342.564,360.586 385.17,349.197 		"/>
		<polygon fill="#FFFFFF" points="85.522,323.389 204.619,392.146 85.491,273.023 		"/>
		<polygon fill="#FFFFFF" points="87.315,269.189 172.53,354.402 98.712,226.559 		"/>
		<polygon fill="#FFFFFF" points="44.031,155.89 44.031,155.891 196.109,4 		"/>
		<polygon fill="#FFFFFF" points="102.109,213.853 175.874,85.912 133.268,97.301 		"/>
		<polygon fill="#FFFFFF" points="262.494,426.543 317.807,441.363 428.43,330.875 		"/>
		<polygon fill="#FFFFFF" points="378.252,355.188 215.811,398.607 259.346,423.742 		"/>
		<polygon fill="#FFFFFF" points="432.953,185.933 389.434,348.74 433.033,323.604 		"/>
		<polygon fill="#FFFFFF" points="99.421,382.848 250.739,423.393 84.539,327.439 		"/>
		<polygon fill="#FFFFFF" points="419.018,63.653 267.709,23.11 433.9,119.063 		"/>
		<polygon fill="#FFFFFF" points="437.033,322.283 477.6,281.766 436.92,130.308 		"/>
		<polygon fill="#FFFFFF" points="431.117,177.308 345.918,92.109 419.721,219.941 		"/>
		<polygon fill="#FFFFFF" points="140.192,91.309 302.627,47.89 259.097,22.757 		"/>
		<polygon fill="#FFFFFF" points="432.916,123.113 313.816,54.351 432.945,173.479 		"/>
		<polygon fill="#FFFFFF" points="81.4,124.221 40.838,164.733 81.518,316.191 		"/>
		<polygon fill="#FFFFFF" points="188.985,82.407 336.307,82.498 305.162,51.353 		"/>
		<polygon fill="#FFFFFF" points="255.942,19.957 200.631,5.137 90.007,115.625 		"/>
		<polygon fill="#FFFFFF" points="85.484,260.555 129.004,97.759 85.399,122.898 		"/>
	</g>
	<path fill="#E11A8E" enable-background="new    " d="M388.828,0H129.609L0,224.002L129.609,448h259.219l129.609-223.998L388.828,0z
		 M338.229,360.096l-157.848-0.098l-79.017-136.846l78.845-136.751l157.852,0.098l79.01,136.85L338.229,360.096z M416.324,232.652
		L385.17,349.197l-42.605,11.389L416.324,232.652z M85.484,260.555l-0.085-137.656l43.604-25.14L85.484,260.555z M133.268,97.301
		l42.606-11.389l-73.765,127.94L133.268,97.301z M98.712,226.559l73.818,127.844l-85.215-85.213L98.712,226.559z M204.619,392.146
		L85.522,323.389l-0.031-50.365L204.619,392.146z M182.128,363.998l147.323,0.092l-116.177,31.055L182.128,363.998z M345.918,92.109
		l85.199,85.198l-11.396,42.634L345.918,92.109z M313.816,54.351l119.1,68.763l0.029,50.365L313.816,54.351z M336.307,82.498
		l-147.321-0.091l116.177-31.055L336.307,82.498z M140.192,91.309l118.904-68.552l43.53,25.133L140.192,91.309z M255.942,19.957
		L90.007,115.625L200.631,5.137L255.942,19.957z M44.031,155.89L196.109,4L44.031,155.89L44.031,155.89z M40.838,164.733
		L81.4,124.221l0.117,191.971L40.838,164.733z M99.421,382.848l-14.882-55.408l166.2,95.953L99.421,382.848z M215.811,398.607
		l162.441-43.42l-118.906,68.555L215.811,398.607z M317.807,441.363l-55.313-14.82l165.936-95.668L317.807,441.363z M389.434,348.74
		l43.52-162.808l0.08,137.671L389.434,348.74z M267.709,23.11l151.309,40.543l14.883,55.409L267.709,23.11z M436.92,130.308
		l40.68,151.458l-40.566,40.518L436.92,130.308z"/>
</g>
</svg>
