<?xml version="1.0" encoding="utf-8"?>
<!-- Generator: Adobe Illustrator 16.0.0, SVG Export Plug-In . SVG Version: 6.00 Build 0)  -->
<!DOCTYPE svg PUBLIC "-//W3C//DTD SVG 1.1//EN" "http://www.w3.org/Graphics/SVG/1.1/DTD/svg11.dtd">
<svg version="1.1" id="레이어_1" xmlns="http://www.w3.org/2000/svg" xmlns:xlink="http://www.w3.org/1999/xlink" x="0px"
	 y="0px" width="259.219px" height="224px" viewBox="0 0 259.219 224" enable-background="new 0 0 259.219 224"
	 xml:space="preserve">
<polygon fill="#E11A8E" enable-background="new    " points="194.414,224 259.219,112.001 194.414,0 64.805,0 0,112.001 64.805,224 
	"/>
<polygon fill="#FFFFFF" points="159.5,222.912 241.031,141.48 211.141,30.193 99.719,0.338 18.188,81.769 48.078,193.057 "/>
<path fill="#E11A8E" enable-background="new    " d="M194.414,0H64.805L0,112.001L64.805,224h129.609l64.805-111.999L194.414,0z
	 M256.908,112.001l-16.251,28.086L212.499,35.25L256.908,112.001z M218.517,161.142l-0.057-95.988l20.34,75.729L218.517,161.142z
	 M216.95,59.531l-83.096-47.976l75.654,20.271L216.95,59.531z M50.682,111.576l39.422-68.375l78.926,0.049l39.505,68.425
	l-39.421,68.374l-78.924-0.049L50.682,111.576z M86.265,177.201l-42.607-42.606l5.698-21.315L86.265,177.201z M172.959,46.055
	l42.6,42.599l-5.698,21.317L172.959,46.055z M156.908,27.175l59.55,34.381l0.015,25.183L156.908,27.175z M168.153,41.249
	l-73.661-0.045l58.088-15.527L168.153,41.249z M70.096,45.654l59.452-34.276l21.765,12.566L70.096,45.654z M87.937,42.956
	l-36.882,63.97L66.634,48.65L87.937,42.956z M42.742,130.277L42.7,61.449l21.802-12.57L42.742,130.277z M102.31,196.073
	l-59.548-34.379l-0.016-25.183L102.31,196.073z M91.064,181.999l73.662,0.046l-58.088,15.527L91.064,181.999z M189.126,177.594
	l-59.453,34.277l-21.768-12.567L189.126,177.594z M171.282,180.293l36.88-63.967l-15.577,58.272L171.282,180.293z M216.477,92.966
	l0.04,68.835l-21.8,12.568L216.477,92.966z M127.971,9.979L45.003,57.813l55.312-55.244L127.971,9.979z M20.419,82.367L40.7,62.11
	l0.059,95.985L20.419,82.367z M42.27,163.72l83.1,47.977L49.71,191.424L42.27,163.72z M131.247,213.271l82.968-47.834
	l-55.312,55.244L131.247,213.271z M193.26,2l16.025,27.696L120.45,5.893L105.922,2H193.26z M65.958,2h32.096L22.016,77.945L65.958,2
	z M18.7,83.675l28.397,105.727L2.31,112.001L18.7,83.675z M65.958,222l-16.54-28.584L156.096,222H65.958z M193.26,222h-32.847
	l17.269-17.247l60.553-60.479L193.26,222z"/>
</svg>
