<?xml version="1.0" encoding="utf-8"?>
<!-- Generator: Adobe Illustrator 16.0.0, SVG Export Plug-In . SVG Version: 6.00 Build 0)  -->
<!DOCTYPE svg PUBLIC "-//W3C//DTD SVG 1.1//EN" "http://www.w3.org/Graphics/SVG/1.1/DTD/svg11.dtd">
<svg version="1.1" id="레이어_1" xmlns="http://www.w3.org/2000/svg" xmlns:xlink="http://www.w3.org/1999/xlink" x="0px"
	 y="0px" width="100px" height="100px" viewBox="0 0 100 100" enable-background="new 0 0 100 100" xml:space="preserve">
<path fill="#1D0E23" d="M99.5,49.996C99.5,77.333,77.339,99.5,50.001,99.5S0.5,77.333,0.5,49.996S22.663,0.5,50.001,0.5
	S99.5,22.659,99.5,49.996z"/>
<path fill="#8E98A4" d="M50.001,2.5C76.191,2.5,97.5,23.807,97.5,49.996C97.5,76.189,76.191,97.5,50.001,97.5
	C23.809,97.5,2.5,76.189,2.5,49.996C2.5,23.807,23.809,2.5,50.001,2.5 M50.001,0.5C22.663,0.5,0.5,22.659,0.5,49.996
	S22.663,99.5,50.001,99.5S99.5,77.333,99.5,49.996S77.339,0.5,50.001,0.5L50.001,0.5z"/>
<path fill="#483876" d="M90,49.995C90,72.087,72.09,90,50.003,90C27.9,90,10,72.087,10,49.995C10,27.91,27.9,10,50.003,10
	C72.09,10,90,27.91,90,49.995z"/>
</svg>
