<?xml version="1.0" encoding="utf-8"?>
<!-- Generator: Adobe Illustrator 16.0.0, SVG Export Plug-In . SVG Version: 6.00 Build 0)  -->
<!DOCTYPE svg PUBLIC "-//W3C//DTD SVG 1.1//EN" "http://www.w3.org/Graphics/SVG/1.1/DTD/svg11.dtd">
<svg version="1.1" id="레이어_1" xmlns="http://www.w3.org/2000/svg" xmlns:xlink="http://www.w3.org/1999/xlink" x="0px"
	 y="0px" width="90px" height="90px" viewBox="0 0 90 90" enable-background="new 0 0 90 90" xml:space="preserve">
<path fill="#F4EBE2" d="M89.5,45c0,24.581-19.919,44.5-44.5,44.5S0.5,69.581,0.5,45S20.419,0.5,45,0.5S89.5,20.419,89.5,45z"/>
<g>
	<path fill="#484949" d="M29.511,55.77l-7.002,0.812V40.884h6.606v2.196h-3.708v3.814h3.222v2.196h-3.222v4.951l4.104-0.504V55.77z
		 M33.399,57.895h-2.88v-9.019l-1.404,0.378v-2.376L30.52,46.5v-5.886h2.88L33.399,57.895L33.399,57.895z M36.909,57.895h-2.898
		V40.615h2.898V57.895z"/>
	<path fill="#484949" d="M48.016,43.872v10.243c0,0.563-0.132,1.07-0.396,1.52c-0.264,0.451-0.612,0.805-1.044,1.063
		c-0.433,0.258-0.903,0.452-1.413,0.586c-0.51,0.131-1.035,0.196-1.575,0.196c-0.744,0-1.437-0.11-2.079-0.334
		c-0.642-0.221-1.19-0.596-1.646-1.125c-0.456-0.526-0.685-1.164-0.685-1.905V43.872c0-0.744,0.229-1.38,0.685-1.908
		c0.456-0.528,1.005-0.902,1.646-1.125c0.643-0.222,1.335-0.333,2.079-0.333s1.434,0.111,2.07,0.333
		c0.637,0.223,1.186,0.594,1.646,1.116C47.768,42.477,48.003,43.116,48.016,43.872z M45.117,53.736V44.25
		c0-0.636-0.129-1.063-0.387-1.278c-0.259-0.216-0.64-0.324-1.144-0.324s-0.885,0.108-1.143,0.324
		c-0.259,0.216-0.388,0.643-0.388,1.278v9.486c0,0.625,0.129,1.047,0.388,1.27c0.258,0.221,0.639,0.332,1.143,0.332
		s0.885-0.111,1.144-0.332C44.988,54.783,45.117,54.361,45.117,53.736z M52.21,57.895h-2.897V40.615h2.897V57.895z"/>
	<path fill="#484949" d="M67.491,50.406H54.891v-2.124h12.601V50.406z M67.148,47.777h-2.897V47.13
		c-3.084,0.42-6.09,0.644-9.019,0.666v-6.894h2.897v1.565h6.12v-1.565h2.898V47.777L67.148,47.777z M67.148,57.912H55.232v-4.445
		h9.019V53.07h-9.019v-2.033h11.916v4.445H58.13v0.414h9.019V57.912z M58.131,45.582c2.221-0.048,4.26-0.216,6.12-0.504V44.52h-6.12
		V45.582z"/>
	<path fill="#484949" d="M37.846,79.063h-2.79l-1.458-4.879l-1.44,4.879H29.35l2.79-8.91v-7.848h2.897v7.848L37.846,79.063z
		 M41.05,79.494h-2.898v-8.586l-1.872,0.559V69.09l1.872-0.557v-6.318h2.898V79.494z M44.596,79.494h-2.881V62.215h2.881V79.494z"/>
	<path fill="#484949" d="M56.098,72.043l-9.252,0.738V62.484h8.657v2.195h-5.776v1.514h5.688v2.213h-5.688v1.854l6.371-0.449V72.043
		z M60.221,76.65c0,0.852-0.289,1.539-0.865,2.061c-0.576,0.523-1.338,0.783-2.285,0.783h-6.534c-0.948,0-1.7-0.258-2.259-0.773
		c-0.56-0.515-0.838-1.207-0.838-2.07c0-0.862,0.283-1.571,0.847-2.123c0.563-0.553,1.313-0.827,2.25-0.827h6.534
		c0.947,0,1.709,0.274,2.285,0.827C59.932,75.078,60.221,75.787,60.221,76.65z M50.932,77.299h5.797
		c0.299,0,0.516-0.117,0.647-0.352c0.131-0.234,0.131-0.469,0-0.701c-0.133-0.234-0.349-0.352-0.647-0.352h-5.797
		c-0.3,0-0.513,0.117-0.64,0.352c-0.125,0.232-0.125,0.467,0,0.701C50.419,77.182,50.632,77.299,50.932,77.299z M59.878,72.871
		H56.98V62.215h2.897V72.871z"/>
</g>
<path fill="#484949" d="M54.729,20.396l6.513-6.462c0.224-0.222,0.224-0.581-0.001-0.805c-0.221-0.222-0.586-0.222-0.809,0
	l-4.877,4.837c-0.268,0.267-0.703,0.267-0.971,0c-0.266-0.264-0.266-0.697,0-0.962l4.876-4.837c0.222-0.223,0.226-0.582,0-0.803
	c-0.222-0.222-0.586-0.222-0.808,0l-4.877,4.837c-0.269,0.267-0.703,0.267-0.971,0c-0.27-0.267-0.27-0.697,0-0.964l4.877-4.837
	c0.221-0.222,0.221-0.58,0-0.803c-0.227-0.222-0.588-0.222-0.813,0.001l-4.873,4.837c-0.27,0.266-0.703,0.266-0.973-0.001
	c-0.269-0.267-0.269-0.696,0-0.963L55.9,8.635c0.225-0.221,0.225-0.582,0-0.803c-0.223-0.222-0.584-0.222-0.81,0l-6.514,6.462
	c-1.068,1.06-0.988,2.998,0.144,4.596l-3.563,3.294l-3.594-3.324c1.156-1.99,0.485-5.021-1.748-7.237
	c-2.547-2.527-6.162-3.038-8.071-1.143c-1.91,1.894-1.396,5.479,1.152,8.007c2.234,2.217,5.288,2.881,7.294,1.735l3.295,3.508
	l-8.48,7.842c-0.637,0.631-0.637,1.658,0,2.289c0.637,0.63,1.671,0.63,2.307,0l7.845-8.351l7.846,8.351
	c0.637,0.63,1.668,0.63,2.307,0c0.637-0.631,0.637-1.658,0-2.289l-8.48-7.842l3.266-3.476C51.706,21.377,53.66,21.454,54.729,20.396
	z"/>
</svg>
