<?xml version="1.0" encoding="utf-8"?>
<!-- Generator: Adobe Illustrator 16.0.0, SVG Export Plug-In . SVG Version: 6.00 Build 0)  -->
<!DOCTYPE svg PUBLIC "-//W3C//DTD SVG 1.1//EN" "http://www.w3.org/Graphics/SVG/1.1/DTD/svg11.dtd">
<svg version="1.1" id="레이어_1" xmlns="http://www.w3.org/2000/svg" xmlns:xlink="http://www.w3.org/1999/xlink" x="0px"
	 y="0px" width="90px" height="90px" viewBox="0 0 90 90" enable-background="new 0 0 90 90" xml:space="preserve">
<path fill="#F4EBE2" d="M89.5,45c0,24.581-19.919,44.5-44.5,44.5S0.5,69.581,0.5,45S20.419,0.5,45,0.5S89.5,20.419,89.5,45z"/>
<g>
	<path fill="#484949" d="M37.197,60.279l-7.074,0.772V51.62h2.898v6.912l4.176-0.47V60.279z M44.163,68.631h-2.898v-0.828
		c-1.356,0.217-3.027,0.41-5.013,0.586c-1.986,0.174-3.663,0.26-5.031,0.26v-6.84h2.898v1.404h7.146v-1.404h2.898V68.631z
		 M34.119,66.436c0.864-0.024,1.995-0.115,3.393-0.271c1.398-0.156,2.649-0.336,3.753-0.539v-0.199h-7.146V66.436z M40.599,61.197
		h-2.898v-9.846h2.898v3.274h0.756v-3.274h2.898v9.846h-2.898v-4.375h-0.756V61.197z"/>
	<path fill="#484949" d="M54.999,55.186c0,0.853-0.156,1.73-0.468,2.638c-0.313,0.905-0.651,1.661-1.018,2.268
		c-0.365,0.604-0.705,1.107-1.018,1.502l-0.469,0.597h-3.295c0.134-0.121,0.302-0.295,0.506-0.523
		c0.203-0.227,0.546-0.689,1.025-1.385c0.479-0.697,0.863-1.387,1.151-2.07h-4.914v-2.268h5.544
		c0.036-0.264,0.055-0.541,0.055-0.828v-1.207h-5.599v-2.268h8.496v3.545H54.999z M59.877,67.172
		c-0.156,0.061-0.42,0.143-0.792,0.244s-1.06,0.258-2.062,0.467c-1.002,0.211-2.363,0.385-4.086,0.523
		c-1.723,0.137-3.615,0.207-5.68,0.207v-5.508h2.898v3.311c1.644-0.023,3.275-0.174,4.896-0.449s2.826-0.547,3.618-0.811
		l1.206-0.396L59.877,67.172L59.877,67.172z M59.535,62.979h-2.898V51.352h2.898V62.979z"/>
</g>
<g>
	<path fill="#484949" d="M63.792,37.947H26.228c-0.355,0.003-0.646-0.281-0.648-0.634c-0.002-0.173,0.067-0.339,0.19-0.46
		L44.552,18.24c0.252-0.248,0.658-0.248,0.909,0L64.25,36.875c0.241,0.26,0.225,0.664-0.036,0.902
		C64.1,37.882,63.948,37.943,63.792,37.947z"/>
	<path fill="#484949" d="M26.765,37.676l-1.073-0.709l12.535-18.628c0.099-0.147,0.254-0.248,0.43-0.277
		c0.175-0.029,0.354,0.015,0.494,0.121l3.577,2.662l-0.772,1.021l-3.027-2.257"/>
	<path fill="#484949" d="M63.27,37.706L49.854,19.602l-2.246,1.769l-0.801-1.001l2.77-2.18c0.14-0.102,0.314-0.146,0.486-0.121
		s0.326,0.116,0.43,0.256L64.33,36.946L63.27,37.706z"/>
</g>
</svg>
