<?xml version="1.0" encoding="utf-8"?>
<!-- Generator: Adobe Illustrator 16.0.0, SVG Export Plug-In . SVG Version: 6.00 Build 0)  -->
<!DOCTYPE svg PUBLIC "-//W3C//DTD SVG 1.1//EN" "http://www.w3.org/Graphics/SVG/1.1/DTD/svg11.dtd">
<svg version="1.1" id="레이어_1" xmlns="http://www.w3.org/2000/svg" xmlns:xlink="http://www.w3.org/1999/xlink" x="0px"
	 y="0px" width="90px" height="90px" viewBox="0 0 90 90" enable-background="new 0 0 90 90" xml:space="preserve">
<path fill="#F4EBE2" d="M89.5,45c0,24.581-19.919,44.5-44.5,44.5S0.5,69.581,0.5,45S20.419,0.5,45,0.5S89.5,20.419,89.5,45z"/>
<g>
	<path fill="#484949" d="M37.611,54.195c0,0.756-0.144,1.533-0.432,2.33c-0.288,0.799-0.606,1.459-0.954,1.979
		s-0.666,0.951-0.954,1.287l-0.432,0.504h-3.366c0.083-0.071,0.201-0.174,0.351-0.307c0.15-0.132,0.411-0.41,0.783-0.837
		c0.372-0.426,0.699-0.866,0.981-1.321c0.282-0.457,0.54-1.021,0.774-1.692c0.234-0.673,0.351-1.339,0.351-1.998v-0.359h-4.914
		v-2.143h7.812V54.195L37.611,54.195z M43.029,68.648H30.573v-4.933h9.54V63.23h-9.54v-2.195h12.42v4.879h-9.522v0.539h9.558V68.648
		z M42.993,60.334h-2.88v-1.818l-2.124,0.666v-2.377l2.124-0.666v-1.26l-2.124,0.666V53.17l2.124-0.666v-1.152h2.88V60.334z"/>
	<path fill="#484949" d="M53.451,68.199h-2.79l-1.458-4.879l-1.439,4.879h-2.809l2.79-8.91v-5.473h-2.286v-2.195h7.65v2.195h-2.467
		v5.473L53.451,68.199z M56.637,68.631H53.74v-9l-1.782,0.521v-2.375l1.782-0.541v-5.885h2.896V68.631z M60.201,68.631H57.32V51.352
		h2.881V68.631z"/>
</g>
<g>
	<g>
		<path fill="#484949" d="M62.408,19.66c0-1.672-1.361-3.022-3.045-3.022v-0.001H30.639v0.001c-0.044,0-0.088,0.005-0.131,0.007
			h-0.04v0.002c-1.603,0.089-2.876,1.399-2.876,3.014v0.609H62.41v-0.61H62.408z M27.592,34.342L27.592,34.342
			c-0.001,1.67,1.362,3.021,3.047,3.021v-0.001h28.724v-0.097l0,0v0.097c1.685,0,3.046-1.353,3.047-3.021h0.001V23.724H27.592
			V34.342z M38.773,26.314h18.279v0.864H38.773V26.314z M30.361,26.098h5.812v4.318h-5.812V26.098z"/>
	</g>
</g>
</svg>
