<?xml version="1.0" encoding="utf-8"?>
<!-- Generator: Adobe Illustrator 16.0.0, SVG Export Plug-In . SVG Version: 6.00 Build 0)  -->
<!DOCTYPE svg PUBLIC "-//W3C//DTD SVG 1.1//EN" "http://www.w3.org/Graphics/SVG/1.1/DTD/svg11.dtd">
<svg version="1.1" id="레이어_1" xmlns="http://www.w3.org/2000/svg" xmlns:xlink="http://www.w3.org/1999/xlink" x="0px"
	 y="0px" width="100px" height="100px" viewBox="0 0 100 100" enable-background="new 0 0 100 100" xml:space="preserve">
<path fill="#E9E0D6" d="M48.509,48.704v3.489H20.921v-3.489h11.572v-3.689h4.377v3.689H48.509z M22.082,43.32
	c5.702-0.466,8.687-2.459,9.45-4.52h-8.091v-3.49H46.02v3.49h-8.123c0.764,2.061,3.748,4.054,9.451,4.52l-1.525,3.456
	c-5.736-0.564-9.518-2.691-11.109-5.616c-1.623,2.925-5.371,5.052-11.141,5.616L22.082,43.32z M45.259,59.273
	c0,3.455-3.979,5.416-10.609,5.416c-6.633,0-10.578-1.961-10.578-5.416c0-3.457,3.945-5.418,10.578-5.418
	C41.28,53.855,45.259,55.816,45.259,59.273z M40.815,59.273c0-1.463-2.055-2.127-6.166-2.127c-4.113,0-6.168,0.664-6.168,2.127
	c0,1.494,2.055,2.127,6.168,2.127C38.761,61.4,40.815,60.768,40.815,59.273z"/>
<path fill="#E9E0D6" d="M79.079,57.711v3.59H51.395v-3.59h7.028v-4.652h-3.813V42.755h17.043v-3.257H54.577v-3.489h21.385v10.17
	h-17.01v3.356h17.707v3.523h-4.277v4.651L79.079,57.711L79.079,57.711z M62.732,57.711h5.338v-4.652h-5.338V57.711z"/>
</svg>
