<?xml version="1.0" encoding="utf-8"?>
<!-- Generator: Adobe Illustrator 16.0.0, SVG Export Plug-In . SVG Version: 6.00 Build 0)  -->
<!DOCTYPE svg PUBLIC "-//W3C//DTD SVG 1.1//EN" "http://www.w3.org/Graphics/SVG/1.1/DTD/svg11.dtd">
<svg version="1.1" id="레이어_1" xmlns="http://www.w3.org/2000/svg" xmlns:xlink="http://www.w3.org/1999/xlink" x="0px"
	 y="0px" width="90px" height="90px" viewBox="0 0 90 90" enable-background="new 0 0 90 90" xml:space="preserve">
<path fill="#F4EBE2" d="M89.5,45c0,24.581-19.919,44.5-44.5,44.5S0.5,69.581,0.5,45S20.419,0.5,45,0.5S89.5,20.419,89.5,45z"/>
<g>
	<path fill="#484949" d="M46.439,60.999h-2.88v-1.206H38.7v-2.214h12.6v2.214h-4.86V60.999L46.439,60.999z M50.958,56.896H39.042
		v-5.4h11.916V56.896z M50.958,68.505H39.042v-4.571h9.019v-0.359h-9.019v-2.125h11.916v4.591h-9.019v0.36h9.019V68.505z
		 M48.061,54.734v-1.099H41.94v1.099H48.061z"/>
</g>
<g>
	<path fill="#484949" d="M37.295,26.735l2.532,15.882H45h5.173l2.586-16.219C50.033,27.026,47.516,28.36,45,27.3
		C40.896,25.566,37.295,26.735,37.295,26.735z"/>
	<path fill="#484949" d="M51.682,44.168H38.319l-4.144-28.336h21.648L51.682,44.168z M39.036,43.347h11.928l3.903-26.693H35.133
		L39.036,43.347z"/>
</g>
</svg>
