<?xml version="1.0" encoding="utf-8"?>
<!-- Generator: Adobe Illustrator 16.0.0, SVG Export Plug-In . SVG Version: 6.00 Build 0)  -->
<!DOCTYPE svg PUBLIC "-//W3C//DTD SVG 1.1//EN" "http://www.w3.org/Graphics/SVG/1.1/DTD/svg11.dtd">
<svg version="1.1" id="레이어_1" xmlns="http://www.w3.org/2000/svg" xmlns:xlink="http://www.w3.org/1999/xlink" x="0px"
	 y="0px" width="142px" height="24px" viewBox="0 0 142 24" enable-background="new 0 0 142 24" xml:space="preserve">
<path fill="#4D4D4D" d="M9.32,4.3h9.239c1.54,0,2.658,0.349,3.355,1.045C22.611,6.042,22.96,7.16,22.96,8.7v2.2
	c0,1.54-0.349,2.658-1.045,3.355c-0.697,0.696-1.815,1.045-3.355,1.045H13.28V19.7H9.32V4.3z M19,8.7c0-0.88-0.44-1.32-1.32-1.32
	H13.28v4.84h4.399c0.88,0,1.32-0.44,1.32-1.32V8.7z"/>
<path fill="#4D4D4D" d="M26.37,19.7h-4.29l5.83-15.4h4.399l5.83,15.4h-4.29l-0.99-2.75h-5.5L26.37,19.7z M28.35,14.09h3.521
	L30.109,8.92L28.35,14.09z"/>
<path fill="#4D4D4D" d="M50.68,19.48c-3.271,0.293-5.984,0.439-8.141,0.439c-1.438,0-2.493-0.337-3.168-1.012
	c-0.675-0.674-1.012-1.73-1.012-3.168V8.7c0-1.54,0.349-2.658,1.045-3.355C40.101,4.649,41.22,4.3,42.76,4.3h7.92v3.08h-7.04
	c-0.88,0-1.32,0.44-1.32,1.32v7.04c0,0.338,0.1,0.605,0.297,0.803c0.198,0.198,0.451,0.297,0.76,0.297
	c0.308,0,0.645-0.003,1.012-0.011c0.366-0.007,0.748-0.019,1.144-0.032c0.396-0.016,0.796-0.029,1.199-0.045
	c0.403-0.014,0.924-0.044,1.563-0.088c0.638-0.044,1.433-0.096,2.387-0.154V19.48z"/>
<path fill="#4D4D4D" d="M56.4,19.7h-3.96V4.3h3.96v6.05h1.979l3.433-6.05h4.18l-4.313,7.59l4.29,7.81h-4.18l-3.41-6.271H56.4V19.7z"
	/>
<path fill="#4D4D4D" d="M70.063,19.7h-4.29l5.83-15.4h4.399l5.83,15.4h-4.29l-0.99-2.75h-5.5L70.063,19.7z M72.042,14.09h3.521
	L73.802,8.92L72.042,14.09z"/>
<path fill="#4D4D4D" d="M95.691,19.37c-3.432,0.366-6.585,0.55-9.46,0.55c-1.438,0-2.493-0.337-3.168-1.012
	c-0.675-0.674-1.012-1.73-1.012-3.168V8.7c0-1.54,0.349-2.658,1.045-3.355C83.793,4.649,84.912,4.3,86.452,4.3h7.92v3.08h-7.04
	c-0.88,0-1.32,0.44-1.32,1.32v7.04c0,0.338,0.1,0.605,0.297,0.803c0.198,0.198,0.466,0.297,0.804,0.297
	c1.686,0,3.226-0.036,4.619-0.109v-3.19h-2.859V10.9h6.819V19.37z"/>
<path fill="#4D4D4D" d="M105.151,19.7h-7.92v-3.08h1.979V7.38h-1.979V4.3h7.92v3.08h-1.98v9.24h1.98V19.7z"/>
<path fill="#4D4D4D" d="M120.552,19.7h-4.181l-5.279-9.24v9.24h-3.96V4.3h4.18l5.28,9.24V4.3h3.96V19.7z"/>
<path fill="#4D4D4D" d="M136.391,19.37c-3.432,0.366-6.585,0.55-9.46,0.55c-1.438,0-2.493-0.337-3.168-1.012
	c-0.675-0.674-1.012-1.73-1.012-3.168V8.7c0-1.54,0.349-2.658,1.045-3.355c0.696-0.696,1.815-1.045,3.355-1.045h7.92v3.08h-7.04
	c-0.88,0-1.32,0.44-1.32,1.32v7.04c0,0.338,0.1,0.605,0.297,0.803c0.198,0.198,0.466,0.297,0.804,0.297
	c1.686,0,3.226-0.036,4.619-0.109v-3.19h-2.859V10.9h6.819V19.37z"/>
</svg>
