<?xml version="1.0" encoding="utf-8"?>
<!-- Generator: Adobe Illustrator 16.0.0, SVG Export Plug-In . SVG Version: 6.00 Build 0)  -->
<!DOCTYPE svg PUBLIC "-//W3C//DTD SVG 1.1//EN" "http://www.w3.org/Graphics/SVG/1.1/DTD/svg11.dtd">
<svg version="1.1" id="레이어_1" xmlns="http://www.w3.org/2000/svg" xmlns:xlink="http://www.w3.org/1999/xlink" x="0px"
	 y="0px" width="142px" height="24px" viewBox="0 0 142 24" enable-background="new 0 0 142 24" xml:space="preserve">
<path fill="#4D4D4D" d="M19.32,4.3h9.239c1.54,0,2.658,0.349,3.355,1.045C32.611,6.042,32.96,7.16,32.96,8.7v2.2
	c0,1.54-0.349,2.659-1.045,3.355C31.218,14.951,30.1,15.3,28.56,15.3H23.28v4.399h-3.96V4.3z M29,8.7c0-0.88-0.44-1.32-1.32-1.32
	H23.28v4.84h4.399c0.88,0,1.32-0.44,1.32-1.32V8.7z"/>
<path fill="#4D4D4D" d="M34.94,4.3h9.239c1.54,0,2.658,0.349,3.355,1.045C48.231,6.042,48.58,7.16,48.58,8.7v1.98
	c0,1.218-0.202,2.164-0.604,2.838c-0.404,0.675-1.046,1.122-1.926,1.342l2.75,4.84h-4.29L41.98,15.08H38.9v4.619h-3.96V4.3z
	 M44.62,8.7c0-0.88-0.44-1.32-1.32-1.32H38.9V12H43.3c0.88,0,1.32-0.44,1.32-1.32V8.7z"/>
<path fill="#4D4D4D" d="M64.64,15.52c0,1.54-0.349,2.658-1.045,3.355c-0.696,0.696-1.814,1.045-3.354,1.045h-5.5
	c-1.54,0-2.659-0.349-3.355-1.045c-0.696-0.697-1.045-1.815-1.045-3.355v-7.04c0-1.54,0.349-2.658,1.045-3.355
	C52.081,4.428,53.2,4.08,54.74,4.08h5.5c1.54,0,2.658,0.349,3.354,1.045c0.696,0.697,1.045,1.815,1.045,3.355V15.52z M60.68,8.479
	c0-0.88-0.439-1.32-1.319-1.32h-3.74c-0.88,0-1.32,0.44-1.32,1.32v7.04c0,0.881,0.44,1.32,1.32,1.32h3.74
	c0.88,0,1.319-0.439,1.319-1.32V8.479z"/>
<path fill="#4D4D4D" d="M75.42,4.3c1.657,0,2.915,0.429,3.772,1.287c0.858,0.858,1.287,2.116,1.287,3.773v5.28
	c0,1.657-0.429,2.915-1.287,3.772c-0.857,0.858-2.115,1.287-3.772,1.287h-8.58V4.3H75.42z M76.52,9.36c0-1.32-0.66-1.98-1.98-1.98
	H70.8v9.239h3.739c1.32,0,1.98-0.66,1.98-1.979V9.36z"/>
<path fill="#4D4D4D" d="M92.579,4.3h3.96v11.22c0,1.54-0.349,2.658-1.045,3.355c-0.696,0.696-1.814,1.045-3.354,1.045h-5.061
	c-1.54,0-2.658-0.349-3.354-1.045c-0.697-0.697-1.045-1.815-1.045-3.355V4.3h3.96v11.22c0,0.881,0.439,1.32,1.319,1.32h3.301
	c0.88,0,1.319-0.439,1.319-1.32V4.3z"/>
<path fill="#4D4D4D" d="M111.06,19.479c-3.271,0.294-5.984,0.44-8.141,0.44c-1.438,0-2.493-0.338-3.168-1.012
	c-0.675-0.675-1.012-1.73-1.012-3.168V8.7c0-1.54,0.349-2.658,1.045-3.355C100.48,4.648,101.6,4.3,103.14,4.3h7.92v3.08h-7.04
	c-0.88,0-1.32,0.44-1.32,1.32v7.041c0,0.337,0.1,0.604,0.297,0.803c0.198,0.197,0.451,0.297,0.76,0.297
	c0.308,0,0.645-0.004,1.012-0.012c0.366-0.007,0.748-0.018,1.144-0.032c0.396-0.015,0.796-0.029,1.199-0.044
	s0.924-0.045,1.563-0.088c0.638-0.045,1.433-0.096,2.387-0.154V19.479z"/>
<path fill="#4D4D4D" d="M120.299,19.699h-3.96V7.38h-4.62V4.3h13.2v3.08h-4.62V19.699z"/>
</svg>
