<?xml version="1.0" encoding="utf-8"?>
<!-- Generator: Adobe Illustrator 16.0.0, SVG Export Plug-In . SVG Version: 6.00 Build 0)  -->
<!DOCTYPE svg PUBLIC "-//W3C//DTD SVG 1.1//EN" "http://www.w3.org/Graphics/SVG/1.1/DTD/svg11.dtd">
<svg version="1.1" id="레이어_1" xmlns="http://www.w3.org/2000/svg" xmlns:xlink="http://www.w3.org/1999/xlink" x="0px"
	 y="0px" width="142px" height="24px" viewBox="0 0 142 24" enable-background="new 0 0 142 24" xml:space="preserve">
<path fill="#4D4D4D" d="M37.52,19.369c-3.432,0.367-6.585,0.551-9.46,0.551c-1.438,0-2.493-0.338-3.168-1.013
	s-1.012-1.73-1.012-3.168v-7.04c0-1.54,0.349-2.658,1.045-3.355c0.696-0.696,1.815-1.045,3.355-1.045h7.92v3.08h-7.04
	c-0.88,0-1.32,0.44-1.32,1.32v7.04c0,0.337,0.1,0.604,0.297,0.803c0.198,0.198,0.466,0.298,0.804,0.298
	c1.686,0,3.226-0.037,4.619-0.111v-3.189H30.7v-2.64h6.819V19.369z"/>
<path fill="#4D4D4D" d="M39.721,4.299h9.239c1.54,0,2.658,0.349,3.355,1.045c0.696,0.697,1.045,1.815,1.045,3.355v1.98
	c0,1.218-0.202,2.164-0.604,2.838c-0.404,0.674-1.046,1.121-1.926,1.342l2.75,4.84h-4.29l-2.529-4.62h-3.08v4.62h-3.96V4.299z
	 M49.4,8.699c0-0.88-0.44-1.32-1.32-1.32h-4.399v4.62h4.399c0.88,0,1.32-0.44,1.32-1.32V8.699z"/>
<path fill="#4D4D4D" d="M58.31,19.699h-4.29l5.83-15.4h4.399l5.83,15.4h-4.29l-0.99-2.75h-5.5L58.31,19.699z M60.289,14.09h3.521
	l-1.761-5.17L60.289,14.09z"/>
<path fill="#4D4D4D" d="M71.18,4.299h9.239c1.54,0,2.658,0.349,3.355,1.045c0.696,0.697,1.045,1.815,1.045,3.355v2.2
	c0,1.54-0.349,2.658-1.045,3.354c-0.697,0.697-1.815,1.045-3.355,1.045H75.14v4.4h-3.96V4.299z M80.859,8.699
	c0-0.88-0.44-1.32-1.32-1.32H75.14v4.84h4.399c0.88,0,1.32-0.44,1.32-1.32V8.699z"/>
<path fill="#4D4D4D" d="M100.22,19.699h-3.96v-6.27h-5.5v6.27H86.8v-15.4h3.96v6.05h5.5v-6.05h3.96V19.699z"/>
<path fill="#4D4D4D" d="M110.119,19.699h-7.92v-3.08h1.979v-9.24h-1.979v-3.08h7.92v3.08h-1.98v9.24h1.98V19.699z"/>
<path fill="#4D4D4D" d="M123.979,19.479c-3.271,0.294-5.984,0.441-8.141,0.441c-1.438,0-2.493-0.338-3.168-1.013
	s-1.012-1.73-1.012-3.168v-7.04c0-1.54,0.349-2.658,1.045-3.355c0.696-0.696,1.815-1.045,3.355-1.045h7.92v3.08h-7.04
	c-0.88,0-1.32,0.44-1.32,1.32v7.04c0,0.337,0.1,0.604,0.297,0.803c0.198,0.198,0.451,0.298,0.76,0.298
	c0.308,0,0.645-0.004,1.012-0.012c0.366-0.008,0.748-0.018,1.144-0.033c0.396-0.014,0.796-0.029,1.199-0.044
	s0.924-0.044,1.563-0.088c0.638-0.044,1.433-0.095,2.387-0.153V19.479z"/>
</svg>
