<?xml version="1.0" encoding="utf-8"?>
<!-- Generator: Adobe Illustrator 16.0.0, SVG Export Plug-In . SVG Version: 6.00 Build 0)  -->
<!DOCTYPE svg PUBLIC "-//W3C//DTD SVG 1.1//EN" "http://www.w3.org/Graphics/SVG/1.1/DTD/svg11.dtd">
<svg version="1.1" id="레이어_1" xmlns="http://www.w3.org/2000/svg" xmlns:xlink="http://www.w3.org/1999/xlink" x="0px"
	 y="0px" width="142px" height="24px" viewBox="0 0 142 24" enable-background="new 0 0 142 24" xml:space="preserve">
<path fill="#4D4D4D" d="M21.8,19.699h-3.96V7.38h-4.62V4.3h13.2v3.08H21.8V19.699z"/>
<path fill="#4D4D4D" d="M29.17,19.699h-4.29L30.71,4.3h4.399l5.83,15.399h-4.29l-0.99-2.75h-5.5L29.17,19.699z M31.149,14.09h3.521
	l-1.761-5.17L31.149,14.09z"/>
<path fill="#4D4D4D" d="M42.04,4.3h8.8c1.438,0,2.493,0.327,3.168,0.979c0.675,0.653,1.012,1.646,1.012,2.981
	c0,0.88-0.19,1.595-0.572,2.145c-0.381,0.55-0.851,0.935-1.407,1.155c1.188,0.323,1.994,1.115,2.42,2.376
	c0.146,0.455,0.22,0.982,0.22,1.584c0,1.438-0.338,2.494-1.012,3.168c-0.675,0.675-1.731,1.012-3.168,1.012h-9.46V4.3z M51.06,8.7
	c0-0.88-0.439-1.32-1.32-1.32H46v3.08h3.739c0.881,0,1.32-0.44,1.32-1.32V8.7z M51.72,14.859c0-0.88-0.44-1.32-1.32-1.32H46v3.08
	h4.399c0.88,0,1.32-0.439,1.32-1.319V14.859z"/>
<path fill="#4D4D4D" d="M61.62,16.619h8.029v3.08H57.66V4.3h3.96V16.619z"/>
<path fill="#4D4D4D" d="M83.399,19.699h-12.21V4.3h12.21v3.08h-8.25v2.97h6.489v3.08h-6.489v3.189h8.25V19.699z"/>
<path fill="#4D4D4D" d="M92.64,19.699h-3.96V7.38h-4.62V4.3h13.2v3.08h-4.62V19.699z"/>
<path fill="#4D4D4D" d="M112.659,15.52c0,1.54-0.349,2.658-1.045,3.355c-0.696,0.696-1.814,1.045-3.354,1.045h-5.5
	c-1.54,0-2.659-0.349-3.355-1.045c-0.696-0.697-1.045-1.815-1.045-3.355v-7.04c0-1.54,0.349-2.658,1.045-3.355
	c0.696-0.696,1.815-1.045,3.355-1.045h5.5c1.54,0,2.658,0.349,3.354,1.045c0.696,0.697,1.045,1.815,1.045,3.355V15.52z
	 M108.699,8.479c0-0.88-0.439-1.32-1.319-1.32h-3.74c-0.88,0-1.32,0.44-1.32,1.32v7.04c0,0.881,0.44,1.32,1.32,1.32h3.74
	c0.88,0,1.319-0.439,1.319-1.32V8.479z"/>
<path fill="#4D4D4D" d="M114.859,4.3h9.239c1.54,0,2.658,0.349,3.355,1.045c0.696,0.697,1.045,1.815,1.045,3.355v2.2
	c0,1.54-0.349,2.659-1.045,3.355c-0.697,0.696-1.815,1.045-3.355,1.045h-5.279v4.399h-3.96V4.3z M124.539,8.7
	c0-0.88-0.44-1.32-1.32-1.32h-4.399v4.84h4.399c0.88,0,1.32-0.44,1.32-1.32V8.7z"/>
</svg>
