<?xml version="1.0" encoding="utf-8"?>
<!-- Generator: Adobe Illustrator 16.0.0, SVG Export Plug-In . SVG Version: 6.00 Build 0)  -->
<!DOCTYPE svg PUBLIC "-//W3C//DTD SVG 1.1//EN" "http://www.w3.org/Graphics/SVG/1.1/DTD/svg11.dtd">
<svg version="1.1" id="레이어_1" xmlns="http://www.w3.org/2000/svg" xmlns:xlink="http://www.w3.org/1999/xlink" x="0px"
	 y="0px" width="70px" height="24px" viewBox="0 0 70 24" enable-background="new 0 0 70 24" xml:space="preserve">
<path fill="#4D4D4D" d="M18.29,19.7H14l5.83-15.4h4.399l5.83,15.4h-4.29l-0.99-2.75h-5.5L18.29,19.7z M20.27,14.09h3.521
	L22.029,8.92L20.27,14.09z"/>
<path fill="#4D4D4D" d="M31.16,4.3h9.239c1.54,0,2.658,0.349,3.355,1.045C44.451,6.042,44.8,7.16,44.8,8.7v1.98
	c0,1.218-0.202,2.164-0.604,2.837c-0.404,0.676-1.046,1.123-1.926,1.343l2.75,4.84h-4.29L38.2,15.08h-3.08v4.62h-3.96V4.3z
	 M40.84,8.7c0-0.88-0.44-1.32-1.32-1.32H35.12V12h4.399c0.88,0,1.32-0.44,1.32-1.32V8.7z"/>
<path fill="#4D4D4D" d="M54.479,19.7h-3.96V7.38h-4.62V4.3h13.2v3.08h-4.62V19.7z"/>
</svg>
