<?xml version="1.0" encoding="utf-8"?>
<!-- Generator: Adobe Illustrator 16.0.0, SVG Export Plug-In . SVG Version: 6.00 Build 0)  -->
<!DOCTYPE svg PUBLIC "-//W3C//DTD SVG 1.1//EN" "http://www.w3.org/Graphics/SVG/1.1/DTD/svg11.dtd">
<svg version="1.1" id="레이어_1" xmlns="http://www.w3.org/2000/svg" xmlns:xlink="http://www.w3.org/1999/xlink" x="0px"
	 y="0px" width="7680px" height="2160px" viewBox="0 0 7680 2160" enable-background="new 0 0 7680 2160" xml:space="preserve">
<path fill="#FFFFFF" stroke="#000000" stroke-miterlimit="10" d="M5235.102,2067.079c-235.158,0-481.352-7.304-731.742-21.71
	c-257.271-14.802-521.578-37.259-785.58-66.745c-416.33-46.5-822.129-109.17-1206.123-186.269
	c-371.129-74.518-713.964-160.857-1018.981-256.626c-302.171-94.873-558.691-196.297-762.434-301.449
	c-207.317-106.997-354.179-214.923-436.505-320.779c-59.269-76.209-84.321-150.969-74.459-222.203
	c12.092-87.352,76.189-167.795,190.51-239.097c110.646-69.009,267.376-128.946,465.84-178.145
	c195.563-48.48,429.08-85.924,694.063-111.291c266.404-25.504,560.864-38.435,875.201-38.435
	c235.158,0,481.353,7.305,731.746,21.711c257.272,14.802,521.581,37.258,785.583,66.745
	c416.332,46.5,822.131,109.17,1206.125,186.269c371.128,74.516,713.963,160.857,1018.98,256.625
	c302.17,94.875,558.69,196.296,762.435,301.449c207.317,106.998,354.179,214.924,436.504,320.779
	c59.269,76.209,84.319,150.969,74.458,222.202c-12.092,87.351-76.188,167.796-190.512,239.098
	c-110.646,69.009-267.377,128.944-465.842,178.146c-195.563,48.479-429.082,85.924-694.066,111.291
	C5843.896,2054.147,5549.438,2067.079,5235.102,2067.079z M2444.893,124.832c-631.459,0-1174.06,51.769-1569.146,149.711
	c-405.303,100.475-632.135,244.61-655.976,416.825c-9.842,71.095,15.176,145.729,74.359,221.827
	c82.281,105.798,229.087,213.678,436.339,320.642c203.719,105.141,460.212,206.552,762.354,301.417
	c305.002,95.763,647.819,182.101,1018.93,256.612c383.979,77.096,789.764,139.764,1206.082,186.263
	c525.491,58.691,1035.974,88.451,1517.265,88.451c631.459,0,1174.061-51.771,1569.147-149.711
	c405.306-100.476,632.14-244.611,655.979-416.826c9.842-71.094-15.176-145.728-74.358-221.826
	c-82.28-105.798-229.086-213.677-436.338-320.641c-203.72-105.142-460.212-206.552-762.354-301.417
	c-305.002-95.764-647.818-182.1-1018.931-256.612c-383.979-77.095-789.765-139.764-1206.082-186.263
	C3436.67,154.591,2926.186,124.832,2444.893,124.832z"/>
</svg>
