<?xml version="1.0" encoding="utf-8"?>
<!-- Generator: Adobe Illustrator 16.0.0, SVG Export Plug-In . SVG Version: 6.00 Build 0)  -->
<!DOCTYPE svg PUBLIC "-//W3C//DTD SVG 1.1//EN" "http://www.w3.org/Graphics/SVG/1.1/DTD/svg11.dtd">
<svg version="1.1" id="레이어_1" xmlns="http://www.w3.org/2000/svg" xmlns:xlink="http://www.w3.org/1999/xlink" x="0px"
	 y="0px" width="7680px" height="2100px" viewBox="0 0 7680 2100" enable-background="new 0 0 7680 2100" xml:space="preserve">
<path fill="#FFFFFF" stroke="#000000" stroke-miterlimit="10" d="M3358.065,1276.559c-128.132,0-236.811-9.857-314.289-28.505
	c-39.339-9.469-70.41-21.132-92.347-34.667c-22.672-13.988-35.596-29.992-38.411-47.566c-2.387-14.902,2.548-30.771,14.667-47.165
	c18.422-24.919,53.122-50.953,103.136-77.38c49.067-25.926,111.469-51.506,185.472-76.029
	c151.777-50.295,346.343-93.495,547.857-121.641c164.861-23.026,327.309-35.197,469.782-35.197
	c128.132,0,236.812,9.857,314.289,28.505c39.34,9.469,70.41,21.132,92.347,34.667c22.673,13.989,35.596,29.993,38.411,47.568
	c2.387,14.902-2.548,30.771-14.667,47.164c-18.422,24.919-53.121,50.954-103.135,77.38
	c-49.067,25.927-111.469,51.506-185.472,76.029c-151.776,50.295-346.343,93.494-547.856,121.64
	C3662.989,1264.387,3500.54,1276.559,3358.065,1276.559z M4233.933,809.108c-142.441,0-304.855,12.168-469.685,35.19
	c-201.473,28.14-395.996,71.33-547.734,121.612c-149.498,49.54-251.873,103.934-288.265,153.161
	c-12.003,16.237-16.895,31.929-14.539,46.638c5.484,34.239,50.517,62.479,130.23,81.664
	c77.425,18.635,186.047,28.485,314.125,28.485c142.442,0,304.858-12.169,469.688-35.191
	c201.474-28.14,395.995-71.329,547.733-121.611c149.497-49.539,251.871-103.933,288.264-153.161
	c12.003-16.237,16.895-31.928,14.538-46.637c-5.483-34.239-50.517-62.479-130.229-81.665
	C4470.633,818.958,4362.01,809.108,4233.933,809.108z"/>
<path fill="#FFFFFF" stroke="#000000" stroke-miterlimit="10" d="M3358.065,1276.559c-128.132,0-236.811-9.857-314.289-28.505
	c-39.339-9.469-70.41-21.132-92.347-34.667c-22.672-13.988-35.596-29.992-38.411-47.566c-2.387-14.902,2.548-30.771,14.667-47.165
	c18.422-24.919,53.122-50.953,103.136-77.38c49.067-25.926,111.469-51.506,185.472-76.029
	c151.777-50.295,346.343-93.495,547.857-121.641c164.861-23.026,327.309-35.197,469.782-35.197
	c128.132,0,236.812,9.857,314.289,28.505c39.34,9.469,70.41,21.132,92.347,34.667c22.673,13.989,35.596,29.993,38.411,47.568
	c2.387,14.902-2.548,30.771-14.667,47.164c-18.422,24.919-53.121,50.954-103.135,77.38
	c-49.067,25.927-111.469,51.506-185.472,76.029c-151.776,50.295-346.343,93.494-547.856,121.64
	C3662.989,1264.387,3500.54,1276.559,3358.065,1276.559z M4233.933,809.108c-142.441,0-304.855,12.168-469.685,35.19
	c-201.473,28.14-395.996,71.33-547.734,121.612c-149.498,49.54-251.873,103.934-288.265,153.161
	c-12.003,16.237-16.895,31.929-14.539,46.638c5.484,34.239,50.517,62.479,130.23,81.664
	c77.425,18.635,186.047,28.485,314.125,28.485c142.442,0,304.858-12.169,469.688-35.191
	c201.474-28.14,395.995-71.329,547.733-121.611c149.497-49.539,251.871-103.933,288.264-153.161
	c12.003-16.237,16.895-31.928,14.538-46.637c-5.483-34.239-50.517-62.479-130.229-81.665
	C4470.633,818.958,4362.01,809.108,4233.933,809.108z"/>
</svg>
