<?xml version="1.0" encoding="utf-8"?>
<!-- Generator: Adobe Illustrator 16.0.0, SVG Export Plug-In . SVG Version: 6.00 Build 0)  -->
<!DOCTYPE svg PUBLIC "-//W3C//DTD SVG 1.1//EN" "http://www.w3.org/Graphics/SVG/1.1/DTD/svg11.dtd">
<svg version="1.1" id="레이어_1" xmlns="http://www.w3.org/2000/svg" xmlns:xlink="http://www.w3.org/1999/xlink" x="0px"
	 y="0px" width="7680px" height="2160px" viewBox="0 0 7680 2160" enable-background="new 0 0 7680 2160" xml:space="preserve">
<path fill="#FFFFFF" stroke="#000000" stroke-miterlimit="10" d="M5112.276,1981.575c-214.453,0-438.973-6.662-667.319-19.799
	c-234.622-13.5-475.66-33.978-716.418-60.869c-379.677-42.405-749.748-99.558-1099.934-169.869
	c-338.453-67.955-651.104-146.694-929.268-234.031c-275.567-86.521-509.503-179.015-695.309-274.909
	c-189.067-97.578-323-196.003-398.079-292.542c-54.053-69.504-76.901-137.687-67.907-202.654
	c11.028-79.667,69.485-153.034,173.747-218.062c100.905-62.934,243.838-117.594,424.831-162.462
	c178.345-44.211,391.303-78.359,632.958-101.492c242.949-23.258,511.483-35.051,798.145-35.051
	c214.454,0,438.973,6.662,667.321,19.799c234.622,13.5,475.659,33.978,716.417,60.869
	c379.677,42.406,749.747,99.558,1099.934,169.869c338.453,67.955,651.104,146.695,929.268,234.031
	c275.566,86.521,509.502,179.014,695.309,274.91c189.066,97.579,323,196.004,398.079,292.542
	c54.055,69.504,76.902,137.687,67.907,202.655c-11.028,79.667-69.485,153.034-173.747,218.062
	c-100.904,62.934-243.838,117.594-424.83,162.462c-178.346,44.211-391.303,78.358-632.958,101.493
	C5667.474,1969.782,5398.938,1981.575,5112.276,1981.575z M2567.723,210.334c-575.858,0-1070.685,47.21-1430.983,136.528
	C767.132,438.488,560.277,569.928,538.538,726.97c-8.974,64.829,13.839,132.886,67.807,202.278
	c75.034,96.48,208.912,194.86,397.913,292.405c185.781,95.883,419.69,188.364,695.229,274.877
	c278.146,87.331,590.781,166.065,929.216,234.018c350.172,70.308,720.229,127.458,1099.891,169.863
	c479.227,53.524,944.765,80.664,1383.682,80.664c575.859,0,1070.685-47.211,1430.982-136.528
	c369.607-91.626,576.464-223.064,598.204-380.106c8.974-64.829-13.84-132.886-67.807-202.279
	c-75.035-96.481-208.913-194.86-397.915-292.405c-185.78-95.882-419.689-188.364-695.229-274.876
	c-278.146-87.332-590.78-166.066-929.216-234.018c-350.172-70.309-720.229-127.458-1099.89-169.863
	C3472.179,237.474,3006.642,210.334,2567.723,210.334z"/>
</svg>
