<?xml version="1.0" encoding="utf-8"?>
<!-- Generator: Adobe Illustrator 16.0.0, SVG Export Plug-In . SVG Version: 6.00 Build 0)  -->
<!DOCTYPE svg PUBLIC "-//W3C//DTD SVG 1.1//EN" "http://www.w3.org/Graphics/SVG/1.1/DTD/svg11.dtd">
<svg version="1.1" id="레이어_1" xmlns="http://www.w3.org/2000/svg" xmlns:xlink="http://www.w3.org/1999/xlink" x="0px"
	 y="0px" width="7680px" height="2160px" viewBox="0 0 7680 2160" enable-background="new 0 0 7680 2160" xml:space="preserve">
<path fill="#FFFFFF" stroke="#000000" stroke-miterlimit="10" d="M5046.526,1935.809c-203.372,0-416.287-6.317-632.834-18.776
	c-222.497-12.801-451.078-32.222-679.394-57.723c-360.056-40.215-711.003-94.414-1043.092-161.092
	c-320.963-64.443-617.457-139.113-881.245-221.937c-261.327-82.05-483.175-169.763-659.379-260.704
	c-179.298-92.536-306.311-185.876-377.511-277.427c-51.263-65.915-72.93-130.577-64.401-192.191
	c10.459-75.555,65.897-145.132,164.774-206.802c95.691-59.682,231.239-111.518,402.88-154.068
	c169.129-41.927,371.083-74.309,600.25-96.248c230.394-22.056,485.051-33.24,756.899-33.24c203.371,0,416.288,6.318,632.835,18.776
	c222.497,12.801,451.078,32.222,679.394,57.723c360.057,40.215,711.004,94.414,1043.093,161.091
	c320.963,64.444,617.457,139.114,881.245,221.937c261.327,82.05,483.175,169.763,659.38,260.704
	c179.297,92.536,306.31,185.876,377.51,277.427c51.262,65.914,72.93,130.577,64.399,192.191
	c-10.459,75.554-65.896,145.133-164.772,206.802c-95.691,59.683-231.24,111.519-402.88,154.067
	c-169.13,41.928-371.083,74.311-600.25,96.249C5573.031,1924.625,5318.374,1935.809,5046.526,1935.809z M2633.472,256.101
	c-546.098,0-1015.351,44.771-1357.028,129.473c-350.501,86.889-546.663,211.532-567.278,360.454
	c-8.511,61.475,13.123,126.011,64.3,191.815c71.155,91.493,198.112,184.787,377.345,277.29
	c176.18,90.927,398,178.629,659.299,260.671c543.613,170.681,1209.006,303.123,1924.244,383.008
	c454.459,50.759,895.938,76.496,1312.172,76.496c546.098,0,1015.351-44.771,1357.028-129.474
	c350.502-86.889,546.664-211.531,567.278-360.453c8.511-61.476-13.122-126.011-64.299-191.815
	c-71.155-91.493-198.112-184.787-377.345-277.29c-176.18-90.927-398-178.629-659.3-260.671
	c-543.612-170.681-1209.005-303.123-1924.243-383.009C3491.186,281.838,3049.707,256.101,2633.472,256.101z"/>
</svg>
