<?xml version="1.0" encoding="utf-8"?>
<!-- Generator: Adobe Illustrator 16.0.0, SVG Export Plug-In . SVG Version: 6.00 Build 0)  -->
<!DOCTYPE svg PUBLIC "-//W3C//DTD SVG 1.1//EN" "http://www.w3.org/Graphics/SVG/1.1/DTD/svg11.dtd">
<svg version="1.1" id="레이어_1" xmlns="http://www.w3.org/2000/svg" xmlns:xlink="http://www.w3.org/1999/xlink" x="0px"
	 y="0px" width="7680px" height="2160px" viewBox="0 0 7680 2160" enable-background="new 0 0 7680 2160" xml:space="preserve">
<path fill="#FFFFFF" stroke="#000000" stroke-miterlimit="10" d="M4871.521,1813.991c-173.873,0-355.907-5.4-541.046-16.053
	c-190.225-10.944-385.651-27.548-580.851-49.35c-307.831-34.383-607.875-80.721-891.796-137.727
	c-274.41-55.097-527.899-118.937-753.427-189.747c-223.424-70.149-413.095-145.142-563.743-222.893
	c-153.295-79.116-261.89-158.921-322.767-237.197c-43.833-56.363-62.36-111.655-55.066-164.343
	c8.943-64.607,56.346-124.102,140.891-176.832c81.814-51.028,197.706-95.347,344.453-131.725
	c144.6-35.846,317.262-63.532,513.191-82.289c196.978-18.857,414.699-28.418,647.117-28.418c173.874,0,355.907,5.4,541.045,16.052
	c190.225,10.945,385.651,27.548,580.852,49.35c307.831,34.382,607.875,80.72,891.797,137.726
	c274.409,55.097,527.899,118.937,753.427,189.747c223.425,70.149,413.096,145.142,563.744,222.892
	c153.296,79.117,261.891,158.921,322.767,237.198c43.833,56.362,62.359,111.654,55.065,164.342
	c-8.943,64.607-56.345,124.102-140.89,176.832c-81.814,51.027-197.706,95.347-344.454,131.726
	c-144.6,35.847-317.262,63.532-513.191,82.289C5321.661,1804.43,5103.94,1813.991,4871.521,1813.991z M2808.477,377.92
	c-466.885,0-868.071,38.276-1160.187,110.692c-299.647,74.283-467.347,180.835-484.97,308.139
	c-7.274,52.549,11.219,107.716,54.967,163.967c60.832,78.219,169.371,157.977,322.601,237.061
	c150.624,77.737,340.268,152.718,563.664,222.859c464.761,145.923,1033.637,259.154,1645.129,327.452
	c388.539,43.396,765.981,65.4,1121.841,65.4c466.886,0,868.072-38.276,1160.188-110.692
	c299.647-74.282,467.348-180.836,484.971-308.141c7.274-52.549-11.219-107.715-54.967-163.967
	c-60.831-78.219-169.369-157.977-322.601-237.061c-150.623-77.737-340.267-152.718-563.664-222.858
	C5110.687,624.849,4541.81,511.617,3930.318,443.32C3541.778,399.923,3164.336,377.92,2808.477,377.92z"/>
</svg>
