<?xml version="1.0" encoding="utf-8"?>
<!-- Generator: Adobe Illustrator 16.0.0, SVG Export Plug-In . SVG Version: 6.00 Build 0)  -->
<!DOCTYPE svg PUBLIC "-//W3C//DTD SVG 1.1//EN" "http://www.w3.org/Graphics/SVG/1.1/DTD/svg11.dtd">
<svg version="1.1" id="레이어_1" xmlns="http://www.w3.org/2000/svg" xmlns:xlink="http://www.w3.org/1999/xlink" x="0px"
	 y="0px" width="7680px" height="2100px" viewBox="0 0 7680 2100" enable-background="new 0 0 7680 2100" xml:space="preserve">
<path fill="#FFFFFF" stroke="#000000" stroke-miterlimit="10" d="M2613.049,1674.174c-346.064,0-639.582-26.62-848.822-76.98
	c-106.204-25.563-190.072-57.044-249.276-93.571c-61.09-37.689-95.906-80.781-103.482-128.077
	c-6.421-40.089,6.872-82.802,39.509-126.95c49.708-67.239,143.372-137.505,278.39-208.847
	c132.512-70.018,301.042-139.101,500.908-205.332c201.625-66.813,429.076-128.7,676.035-183.939
	c255.548-57.161,525.965-105.816,803.741-144.614c445.295-62.196,884.072-95.07,1268.896-95.07
	c346.064,0,639.582,26.619,848.822,76.981c106.205,25.563,190.073,57.044,249.277,93.571c61.09,37.69,95.906,80.782,103.482,128.077
	c6.421,40.09-6.871,82.802-39.509,126.951c-49.707,67.239-143.371,137.505-278.39,208.847
	c-132.511,70.018-301.041,139.102-500.907,205.332c-201.625,66.813-429.076,128.698-676.035,183.938
	c-255.548,57.161-525.965,105.816-803.741,144.614C3436.652,1641.3,2997.874,1674.174,2613.049,1674.174z M4978.947,411.492
	c-384.791,0-823.535,32.873-1268.799,95.063c-544.258,76.019-1069.742,192.691-1479.652,328.525
	c-199.83,66.219-368.324,135.287-500.802,205.287c-134.925,71.292-228.509,141.491-278.154,208.645
	c-32.521,43.991-45.771,86.526-39.38,126.423c7.542,47.086,42.25,90.014,103.158,127.593c59.14,36.487,142.94,67.94,249.072,93.485
	c209.187,50.349,502.648,76.962,848.658,76.962c384.792,0,823.537-32.873,1268.802-95.063
	c544.259-76.02,1069.742-192.692,1479.651-328.525c199.831-66.218,368.324-135.286,500.801-205.286
	c134.925-71.292,228.51-141.491,278.154-208.645c32.521-43.992,45.771-86.527,39.38-126.424
	c-7.542-47.085-42.25-90.013-103.158-127.592c-59.141-36.488-142.94-67.941-249.073-93.486
	C5618.419,438.105,5324.957,411.492,4978.947,411.492z"/>
</svg>
