<?xml version="1.0" encoding="utf-8"?>
<!-- Generator: Adobe Illustrator 16.0.0, SVG Export Plug-In . SVG Version: 6.00 Build 0)  -->
<!DOCTYPE svg PUBLIC "-//W3C//DTD SVG 1.1//EN" "http://www.w3.org/Graphics/SVG/1.1/DTD/svg11.dtd">
<svg version="1.1" id="레이어_1" xmlns="http://www.w3.org/2000/svg" xmlns:xlink="http://www.w3.org/1999/xlink" x="0px"
	 y="0px" width="115px" height="115px" viewBox="0 0 115 115" enable-background="new 0 0 115 115" xml:space="preserve">
<g>
	<path fill="#FFFFFF" d="M57.5,111.167c-29.608,0-53.697-24.073-53.696-53.666c0-29.592,24.088-53.667,53.696-53.667
		c29.609,0,53.698,24.074,53.698,53.666C111.197,87.093,87.108,111.166,57.5,111.167z M57.5,12.668
		c-24.734,0-44.858,20.112-44.858,44.832c0,24.723,20.123,44.833,44.859,44.833c24.735,0,44.859-20.11,44.859-44.833
		C102.359,32.78,82.235,12.668,57.5,12.668z"/>
	<g>
		<path fill="#FFFFFF" d="M57.5,109.19c-0.819,0-1.484-0.663-1.483-1.483L56.016,7.293c0.001-0.819,0.665-1.482,1.483-1.482
			c0.82,0,1.484,0.663,1.484,1.482v100.414C58.983,108.527,58.319,109.189,57.5,109.19z"/>
		<path fill="#FFFFFF" d="M74.68,106.165c-0.606,0-1.174-0.374-1.395-0.977l-34.361-94.36c-0.279-0.771,0.118-1.621,0.886-1.901
			c0.767-0.279,1.622,0.117,1.902,0.886l34.36,94.362c0.28,0.769-0.115,1.619-0.887,1.899
			C75.02,106.136,74.85,106.165,74.68,106.165z"/>
		<path fill="#FFFFFF" d="M89.791,97.443c-0.425,0-0.846-0.18-1.14-0.529L24.074,19.993c-0.526-0.628-0.444-1.563,0.184-2.089
			c0.626-0.527,1.563-0.444,2.09,0.182l64.579,76.923c0.525,0.628,0.442,1.563-0.186,2.089
			C90.465,97.329,90.127,97.443,89.791,97.443z"/>
		<path fill="#FFFFFF" d="M101.001,84.087c-0.251,0.001-0.506-0.063-0.739-0.198L13.254,33.679c-0.71-0.408-0.952-1.316-0.544-2.025
			c0.41-0.709,1.317-0.952,2.027-0.542l87.008,50.208c0.71,0.41,0.952,1.317,0.542,2.026
			C102.014,83.82,101.513,84.088,101.001,84.087z"/>
		<path fill="#FFFFFF" d="M106.973,67.704c-0.085,0-0.172-0.008-0.259-0.023L7.769,50.239c-0.805-0.142-1.345-0.911-1.202-1.717
			c0.143-0.807,0.92-1.345,1.718-1.203l98.943,17.44c0.808,0.144,1.347,0.911,1.204,1.72
			C108.306,67.196,107.678,67.704,106.973,67.704z"/>
		<path fill="#FFFFFF" d="M8.025,67.7c-0.706,0.001-1.333-0.506-1.46-1.226c-0.142-0.806,0.397-1.574,1.203-1.717l98.945-17.436
			c0.812-0.142,1.574,0.396,1.718,1.204c0.143,0.805-0.396,1.575-1.202,1.717L8.285,67.677C8.197,67.692,8.11,67.7,8.025,67.7z"/>
		<path fill="#FFFFFF" d="M13.994,84.085c-0.511,0-1.011-0.267-1.286-0.743c-0.408-0.708-0.167-1.615,0.543-2.024l87.013-50.204
			c0.708-0.407,1.616-0.168,2.025,0.542c0.41,0.711,0.166,1.617-0.542,2.027L14.734,83.887C14.5,84.02,14.246,84.085,13.994,84.085z
			"/>
		<path fill="#FFFFFF" d="M25.206,97.443c-0.336,0-0.675-0.113-0.951-0.348c-0.629-0.525-0.71-1.461-0.185-2.089l64.585-76.921
			c0.525-0.626,1.462-0.709,2.09-0.182c0.626,0.526,0.709,1.461,0.182,2.088L26.344,96.914
			C26.049,97.264,25.629,97.444,25.206,97.443z"/>
		<path fill="#FFFFFF" d="M40.316,106.164c-0.169-0.001-0.34-0.03-0.507-0.09c-0.77-0.282-1.167-1.132-0.885-1.9L73.289,9.813
			c0.28-0.769,1.134-1.165,1.898-0.886c0.771,0.281,1.169,1.13,0.887,1.9l-34.365,94.36
			C41.491,105.789,40.922,106.163,40.316,106.164z"/>
	</g>
	<g>
		<path fill="#FFFFFF" d="M62.313,4.749c0,0.55-0.45,1-1,1L53.687,5.75c-0.55,0-1-0.45-1-1V1.501c0-0.55,0.45-1,1-1L61.313,0.5
			c0.55,0,1,0.45,1,1V4.749z"/>
	</g>
	<g>
		<path fill="#FFFFFF" d="M43.971,6.285c0.188,0.517-0.081,1.094-0.598,1.282l-7.168,2.606c-0.517,0.188-1.094-0.081-1.282-0.598
			l-1.111-3.051c-0.188-0.517,0.081-1.094,0.598-1.282l7.168-2.608c0.517-0.188,1.094,0.081,1.282,0.598L43.971,6.285z"/>
	</g>
	<g>
		<path fill="#FFFFFF" d="M27.26,13.998c0.354,0.421,0.298,1.055-0.123,1.408l-5.843,4.9c-0.421,0.354-1.056,0.298-1.409-0.123
			l-2.09-2.49c-0.354-0.421-0.298-1.055,0.123-1.408l5.842-4.9c0.421-0.354,1.056-0.298,1.409,0.123L27.26,13.998z"/>
	</g>
	<g>
		<path fill="#FFFFFF" d="M14.196,26.958c0.477,0.275,0.641,0.89,0.366,1.366l-3.812,6.6c-0.275,0.477-0.89,0.641-1.366,0.367
			l-2.815-1.625c-0.477-0.274-0.641-0.889-0.366-1.365l3.814-6.602c0.275-0.476,0.89-0.641,1.366-0.366L14.196,26.958z"/>
	</g>
	<g>
		<path fill="#FFFFFF" d="M6.356,43.602c0.542,0.095,0.907,0.617,0.811,1.158l-1.323,7.509c-0.096,0.542-0.617,0.907-1.159,0.811
			l-3.201-0.564c-0.542-0.096-0.907-0.617-0.811-1.159l1.323-7.507c0.096-0.542,0.617-0.907,1.159-0.812L6.356,43.602z"/>
	</g>
	<g>
		<path fill="#FFFFFF" d="M4.686,61.924c0.542-0.095,1.063,0.271,1.158,0.812l1.323,7.506c0.095,0.541-0.27,1.063-0.812,1.158
			l-3.201,0.563c-0.542,0.096-1.063-0.27-1.159-0.811l-1.323-7.508c-0.096-0.541,0.27-1.063,0.811-1.157L4.686,61.924z"/>
	</g>
	<g>
		<path fill="#FFFFFF" d="M9.384,79.71c0.476-0.274,1.091-0.109,1.366,0.367l3.813,6.599c0.275,0.477,0.11,1.091-0.366,1.366
			l-2.815,1.624c-0.477,0.275-1.091,0.11-1.366-0.366l-3.814-6.602c-0.275-0.477-0.11-1.091,0.366-1.365L9.384,79.71z"/>
	</g>
	<g>
		<path fill="#FFFFFF" d="M19.885,94.819c0.354-0.421,0.988-0.477,1.409-0.123l5.843,4.897c0.421,0.354,0.477,0.987,0.123,1.408
			l-2.09,2.49c-0.354,0.421-0.988,0.477-1.409,0.123l-5.842-4.899c-0.421-0.354-0.477-0.987-0.123-1.408L19.885,94.819z"/>
	</g>
	<g>
		<path fill="#FFFFFF" d="M34.924,105.427c0.188-0.517,0.765-0.785,1.282-0.598l7.166,2.608c0.517,0.188,0.786,0.765,0.598,1.281
			l-1.111,3.052c-0.188,0.517-0.765,0.785-1.281,0.598l-7.169-2.609c-0.517-0.188-0.785-0.765-0.597-1.281L34.924,105.427z"/>
	</g>
	<g>
		<path fill="#FFFFFF" d="M52.687,110.253c0-0.55,0.451-1,1-1h7.626c0.55,0,1,0.45,1,1v3.247c0,0.55-0.45,1-1,1h-7.628
			c-0.55,0-1-0.45-1-1L52.687,110.253z"/>
	</g>
	<g>
		<path fill="#FFFFFF" d="M71.027,108.719c-0.188-0.517,0.081-1.094,0.598-1.281l7.168-2.608c0.517-0.188,1.094,0.081,1.282,0.598
			l1.11,3.051c0.188,0.517-0.08,1.094-0.597,1.281l-7.169,2.609c-0.517,0.188-1.094-0.081-1.281-0.598L71.027,108.719z"/>
	</g>
	<g>
		<path fill="#FFFFFF" d="M87.739,101.003c-0.354-0.421-0.298-1.055,0.124-1.408l5.841-4.898c0.422-0.354,1.056-0.298,1.41,0.123
			l2.087,2.486c0.354,0.421,0.299,1.055-0.122,1.408l-5.843,4.901c-0.421,0.354-1.055,0.298-1.408-0.123L87.739,101.003z"/>
	</g>
	<g>
		<path fill="#FFFFFF" d="M100.803,88.043c-0.477-0.275-0.641-0.89-0.366-1.366l3.813-6.599c0.274-0.477,0.89-0.642,1.366-0.367
			l2.814,1.622c0.477,0.274,0.642,0.889,0.366,1.365l-3.813,6.604c-0.275,0.477-0.89,0.642-1.366,0.366L100.803,88.043z"/>
	</g>
	<g>
		<path fill="#FFFFFF" d="M108.642,71.399c-0.541-0.096-0.906-0.617-0.811-1.158l1.324-7.506c0.096-0.541,0.617-0.906,1.158-0.811
			l3.2,0.563c0.541,0.096,0.906,0.617,0.811,1.158l-1.321,7.508c-0.096,0.541-0.617,0.906-1.158,0.811L108.642,71.399z"/>
	</g>
	<g>
		<path fill="#FFFFFF" d="M110.314,53.078c-0.542,0.095-1.063-0.27-1.159-0.812l-1.324-7.507c-0.096-0.542,0.27-1.063,0.811-1.158
			l3.199-0.563c0.541-0.095,1.063,0.27,1.158,0.812l1.327,7.508c0.096,0.542-0.27,1.063-0.812,1.158L110.314,53.078z"/>
	</g>
	<g>
		<path fill="#FFFFFF" d="M105.616,35.291c-0.477,0.275-1.092,0.11-1.366-0.366l-3.813-6.6c-0.274-0.476-0.11-1.091,0.366-1.366
			l2.811-1.624c0.477-0.275,1.092-0.11,1.366,0.366l3.817,6.603c0.274,0.476,0.11,1.09-0.366,1.365L105.616,35.291z"/>
	</g>
	<g>
		<path fill="#FFFFFF" d="M95.113,20.18c-0.354,0.421-0.987,0.477-1.409,0.124l-5.841-4.897c-0.422-0.354-0.478-0.987-0.124-1.409
			l2.087-2.487c0.354-0.421,0.987-0.477,1.409-0.124l5.843,4.897c0.422,0.354,0.478,0.987,0.124,1.409L95.113,20.18z"/>
	</g>
	<g>
		<path fill="#FFFFFF" d="M80.074,9.575c-0.188,0.517-0.765,0.786-1.281,0.598l-7.168-2.608C71.108,7.376,70.84,6.8,71.027,6.283
			l1.111-3.05c0.188-0.517,0.765-0.786,1.281-0.598l7.169,2.605c0.517,0.188,0.785,0.765,0.598,1.281L80.074,9.575z"/>
	</g>
</g>
</svg>
