<?xml version="1.0" encoding="utf-8"?>
<!-- Generator: Adobe Illustrator 16.0.0, SVG Export Plug-In . SVG Version: 6.00 Build 0)  -->
<!DOCTYPE svg PUBLIC "-//W3C//DTD SVG 1.1//EN" "http://www.w3.org/Graphics/SVG/1.1/DTD/svg11.dtd">
<svg version="1.1" id="레이어_1" xmlns="http://www.w3.org/2000/svg" xmlns:xlink="http://www.w3.org/1999/xlink" x="0px"
	 y="0px" width="224px" height="85px" viewBox="0 0 224 85" enable-background="new 0 0 224 85" xml:space="preserve">
<g>
	<g>
		<path fill="#FFFFFF" d="M19.181,9.837h2.411V1.111h5.833v28.055h-5.833V15.204h-2.28c-0.833,5.017-4.385,8.159-9.296,8.159
			c-5.701,0-9.516-4.188-9.516-10.559S4.315,2.29,10.016,2.29C14.708,2.29,18.173,5.212,19.181,9.837z M6.376,12.805
			c0,3.49,1.93,5.148,3.64,5.148c1.622,0,3.64-1.658,3.64-5.148c0-3.534-2.018-5.193-3.64-5.193
			C8.306,7.612,6.376,9.271,6.376,12.805z M7.209,26.635h6.184v8.247h22.231v5.454H7.209V26.635z M29.355,0.5h5.963v29.757h-5.963
			V0.5z"/>
		<path fill="#FFFFFF" d="M39.697,3.51h18.725v5.367H45.968v5.628h11.313v5.28H45.968v6.981c2.85,0,9.516-0.219,13.682-0.873
			l0.658,5.323c-5.263,0.829-13.857,1.091-20.611,1.091V3.51z M65.482,19.567h-6.008v-5.498h6.008V0.5h6.227v40.272h-6.227V19.567z"
			/>
		<path fill="#FFFFFF" d="M75.693,3.599h16.05v5.322H81.92v5.585h8.157v5.061H81.92v6.545c3.42,0,8.244-0.393,10.744-0.742
			l0.438,5.322c-3.771,0.48-11.664,1.048-17.409,1.048V3.599z M91.786,14.899h4.035V1.111h5.701v38.571h-5.701v-19.46h-4.035V14.899
			z M103.845,0.5h5.964v40.272h-5.964V0.5z"/>
		<path fill="#FFFFFF" d="M135.678,13.022c0,5.978-4.43,10.689-11.226,10.689c-6.798,0-11.183-4.711-11.183-10.689
			c0-5.89,4.385-10.603,11.183-10.603C131.248,2.42,135.678,7.132,135.678,13.022z M118.574,26.811h6.184v8.071h21.664v5.454
			h-27.847V26.811z M119.497,13.022c0,2.967,2.148,5.235,4.955,5.235c2.849,0,4.955-2.269,4.955-5.235
			c0-2.923-2.106-5.192-4.955-5.192C121.646,7.831,119.497,10.099,119.497,13.022z M139.71,0.5h6.271v29.408h-6.271V0.5z"/>
		<path fill="#FFFFFF" d="M151.15,2.812h19.865v7.2h6.271V0.5h6.226v29.801h-6.226V15.51h-6.271v7.636H151.15V2.812z
			 M155.798,26.635h6.315v8.29h22.102v5.411h-28.417V26.635z M157.376,8.092v9.817h7.456V8.092H157.376z"/>
		<path fill="#FFFFFF" d="M186.271,29.951H223.5v5.324h-37.229V29.951z M190.873,3.205h28.022v5.192h-21.838v3.36h21.224v4.931
			h-21.224v3.534h22.189v5.149h-28.373V3.205z"/>
	</g>
	<g>
		<g>
			<path fill="#FFFFFF" d="M36.483,84.123H24.958V60.669h11.219v3.207h-7.908v6.571h7.449v3.144h-7.449v7.325h8.215V84.123z"/>
			<path fill="#FFFFFF" d="M51.684,84.123h-3.188V73.622c0-2.671-0.95-3.992-2.881-3.992c-2.605,0-3.801,2.169-3.801,5.093v9.4
				h-3.188V71.359c0-1.635-0.062-3.081-0.153-4.37h3.065v1.791c1.011-1.32,2.512-2.106,4.444-2.106c3.801,0,5.702,2.264,5.702,6.445
				V84.123z"/>
			<path fill="#FFFFFF" d="M62.5,81.073l0.368,2.923c-0.797,0.346-1.809,0.503-2.759,0.503c-3.342,0-4.414-1.29-4.414-5.093v-9.4
				h-2.33v-3.018h2.33V62.87l3.249-1.258v5.377h3.311v3.018h-3.311v9.65c0,1.321,0.613,1.824,1.687,1.824
				C61.335,81.482,61.949,81.356,62.5,81.073z"/>
			<path fill="#FFFFFF" d="M70.99,81.545c1.839,0,3.463-0.41,4.875-1.227v3.176c-1.625,0.628-3.127,0.943-4.967,0.943
				c-5.425,0-7.571-3.773-7.571-8.928c0-4.559,2.176-8.929,6.897-8.929c4.812,0,6.774,3.773,6.774,8.395v1.76h-10.3
				C66.974,80.035,68.385,81.545,70.99,81.545z M73.657,73.748c0.03-2.106-1.166-4.212-3.311-4.212c-1.748,0-3.188,1.1-3.587,4.212
				H73.657z"/>
			<path fill="#FFFFFF" d="M87.417,66.863v3.301c-0.49-0.126-0.951-0.157-1.411-0.157c-2.697,0-3.433,3.238-3.433,5.689v8.426
				h-3.279V71.201c0-1.604-0.062-2.986-0.154-4.212h3.311v2.169c0.951-1.667,2.147-2.484,3.587-2.484
				C86.497,66.674,86.957,66.737,87.417,66.863z"/>
			<path fill="#FFFFFF" d="M96.855,81.073l0.368,2.923c-0.797,0.346-1.809,0.503-2.759,0.503c-3.342,0-4.414-1.29-4.414-5.093v-9.4
				h-2.33v-3.018h2.33V62.87l3.25-1.258v5.377h3.311v3.018H93.3v9.65c0,1.321,0.613,1.824,1.686,1.824
				C95.69,81.482,96.304,81.356,96.855,81.073z"/>
			<path fill="#FFFFFF" d="M110.525,84.123h-3.065v-1.635c-1.012,1.352-2.33,1.949-4.2,1.949c-3.249,0-5.579-1.604-5.579-4.841
				c0-4.276,2.942-6.383,9.073-6.383h0.46v-0.597c0-2.043-0.858-3.08-2.729-3.08c-1.655,0-3.249,0.439-4.904,1.352v-3.081
				c1.563-0.817,3.219-1.227,5.088-1.227c1.962,0,3.341,0.472,4.23,1.416c0.95,1.006,1.44,2.608,1.44,4.778v7.294
				C110.34,81.984,110.402,83.336,110.525,84.123z M107.214,76.106h-0.645c-1.625,0-2.729,0.125-3.556,0.408
				c-1.38,0.472-2.053,1.415-2.053,2.767c0,1.508,0.858,2.201,2.544,2.201c2.543,0,3.709-1.541,3.709-4.716V76.106z"/>
			<path fill="#FFFFFF" d="M116.836,64.6h-3.281v-3.93h3.281V64.6z M116.836,84.123h-3.281V66.989h3.281V84.123z"/>
			<path fill="#FFFFFF" d="M133.418,84.123h-3.188V73.622c0-2.671-0.952-3.992-2.882-3.992c-2.606,0-3.801,2.169-3.801,5.093v9.4
				h-3.188V71.359c0-1.635-0.06-3.081-0.153-4.37h3.065v1.791c1.012-1.32,2.515-2.106,4.445-2.106c3.801,0,5.703,2.264,5.703,6.445
				V84.123z"/>
			<path fill="#FFFFFF" d="M157.629,84.123h-3.188V72.93c0-2.231-0.798-3.301-2.575-3.301c-2.515,0-3.127,2.609-3.127,5.061v9.432
				h-3.217V72.93c0-2.231-0.798-3.301-2.575-3.301c-2.423,0-3.065,2.578-3.065,5.061v9.432h-3.25V71.296
				c0-1.918-0.031-3.364-0.123-4.307h3.188v1.634c0.921-1.226,2.053-1.949,4.015-1.949c1.656,0,3.373,1.163,4.017,2.798
				c1.133-1.792,2.544-2.798,4.811-2.798c3.433,0,5.089,2.201,5.089,5.627V84.123z"/>
			<path fill="#FFFFFF" d="M167.279,81.545c1.839,0,3.464-0.41,4.874-1.227v3.176c-1.623,0.628-3.125,0.943-4.965,0.943
				c-5.426,0-7.571-3.773-7.571-8.928c0-4.559,2.176-8.929,6.896-8.929c4.813,0,6.775,3.773,6.775,8.395v1.76h-10.3
				C163.264,80.035,164.673,81.545,167.279,81.545z M169.945,73.748c0.031-2.106-1.164-4.212-3.311-4.212
				c-1.746,0-3.188,1.1-3.585,4.212H169.945z"/>
			<path fill="#FFFFFF" d="M188.641,84.123h-3.188V73.622c0-2.671-0.95-3.992-2.88-3.992c-2.606,0-3.801,2.169-3.801,5.093v9.4
				h-3.188V71.359c0-1.635-0.062-3.081-0.154-4.37h3.065v1.791c1.012-1.32,2.513-2.106,4.445-2.106c3.801,0,5.701,2.264,5.701,6.445
				V84.123z"/>
			<path fill="#FFFFFF" d="M199.458,81.073l0.368,2.923c-0.798,0.346-1.81,0.503-2.76,0.503c-3.342,0-4.414-1.29-4.414-5.093v-9.4
				h-2.33v-3.018h2.33V62.87l3.25-1.258v5.377h3.311v3.018h-3.311v9.65c0,1.321,0.613,1.824,1.686,1.824
				C198.292,81.482,198.905,81.356,199.458,81.073z"/>
		</g>
	</g>
</g>
</svg>
