<?xml version="1.0" encoding="utf-8"?>
<!-- Generator: Adobe Illustrator 16.0.0, SVG Export Plug-In . SVG Version: 6.00 Build 0)  -->
<!DOCTYPE svg PUBLIC "-//W3C//DTD SVG 1.1//EN" "http://www.w3.org/Graphics/SVG/1.1/DTD/svg11.dtd">
<svg version="1.1" id="레이어_1" xmlns="http://www.w3.org/2000/svg" xmlns:xlink="http://www.w3.org/1999/xlink" x="0px"
	 y="0px" width="115px" height="115px" viewBox="0 0 115 115" enable-background="new 0 0 115 115" xml:space="preserve">
<g>
	<path fill="#FFFFFF" d="M95.757,4.743H19.243c-7.996,0-14.5,6.506-14.5,14.5v76.513c0,7.996,6.504,14.5,14.5,14.501l76.514-0.001
		c7.994,0,14.5-6.505,14.5-14.5V19.243C110.257,11.248,103.751,4.744,95.757,4.743z M99.257,95.757c0,1.896-1.604,3.499-3.5,3.499
		H19.243c-1.898,0.001-3.5-1.602-3.5-3.5V19.243c0-1.896,1.602-3.5,3.5-3.5l76.514,0.001c1.896-0.001,3.5,1.603,3.5,3.5V95.757z"/>
	<path fill="#FFFFFF" d="M57.499,48.193c-5.137,0.001-9.305,4.167-9.305,9.307c0,5.141,4.168,9.305,9.305,9.305
		c5.143,0,9.309-4.163,9.309-9.306C66.808,52.36,62.642,48.194,57.499,48.193z"/>
	<path fill="#FFFFFF" d="M37.366,26.871c-5.144,0.001-9.312,4.168-9.311,9.308c0,5.139,4.167,9.307,9.311,9.306
		c5.137,0,9.305-4.167,9.305-9.307S42.503,26.871,37.366,26.871z"/>
	<circle fill="#FFFFFF" cx="77.638" cy="36.178" r="9.307"/>
	<path fill="#FFFFFF" d="M37.366,69.514c-5.143,0-9.311,4.167-9.311,9.307c0,5.141,4.168,9.307,9.311,9.307
		c5.137,0,9.305-4.166,9.305-9.307C46.671,73.681,42.503,69.514,37.366,69.514z"/>
	<circle fill="#FFFFFF" cx="77.638" cy="78.821" r="9.307"/>
</g>
</svg>
