<?xml version="1.0" encoding="utf-8"?>
<!-- Generator: Adobe Illustrator 16.0.0, SVG Export Plug-In . SVG Version: 6.00 Build 0)  -->
<!DOCTYPE svg PUBLIC "-//W3C//DTD SVG 1.1//EN" "http://www.w3.org/Graphics/SVG/1.1/DTD/svg11.dtd">
<svg version="1.1" id="레이어_1" xmlns="http://www.w3.org/2000/svg" xmlns:xlink="http://www.w3.org/1999/xlink" x="0px"
	 y="0px" width="196px" height="96px" viewBox="0 0 196 96" enable-background="new 0 0 196 96" xml:space="preserve">
<g>
	<g>
		<g>
			<path fill="#FFFFFF" d="M9.857,36.149h10.76V26.95h7.329v9.199h8.161V26.95h7.226v9.199h10.708v6.288H9.857V36.149z
				 M49.415,28.25c-6.394-1.559-13.827-5.768-17.466-12.212c-3.431,6.236-11.021,10.497-17.518,12.212l-3.535-5.768
				c6.187-1.143,17.258-6.808,17.258-16.629V3.358h7.537v2.494c0,9.77,11.124,15.693,17.362,16.629L49.415,28.25z"/>
			<path fill="#FFFFFF" d="M67.293,21.286c1.352,0,2.65-0.052,3.95-0.104l0.728-10.705l7.434,0.78l-1.352,9.613
				c2.599-0.156,4.782-0.363,6.341-0.572l0.469,5.873c-5.822,0.727-20.429,1.507-28.485,1.767l-1.144-6.496h5.354L59.6,11.257
				l7.226-0.78L67.293,21.286z M56.169,2.371h26.718v6.34H56.169V2.371z M94.687,39.111c0,5.196-4.522,9.821-16.063,9.821
				c-11.591,0-16.01-4.625-16.01-9.821c0-5.353,4.471-10.029,16.01-10.029C90.164,29.082,94.687,33.758,94.687,39.111z
				 M70.151,39.111c0,1.922,2.027,3.637,8.473,3.637c6.55,0,8.577-1.767,8.577-3.637c0-2.079-2.027-3.846-8.577-3.846
				C72.179,35.265,70.151,37.032,70.151,39.111z M87.097,0.5h7.434v28.425h-7.434V0.5z"/>
			<path fill="#FFFFFF" d="M133.098,48.621h-7.382V32.563h-10.812v16.004h-7.434V32.563h-9.252v-6.445h44.131v6.445h-9.252V48.621z
				 M103.677,1.955h7.382v12.836h26.665v6.392h-34.047V1.955z"/>
			<path fill="#FFFFFF" d="M142.45,35.474h44.132v6.443H142.45V35.474z M181.956,29.082c-5.25-1.091-13.463-5.301-17.466-12.212
				c-4.21,6.911-12.371,11.121-17.517,12.212l-3.535-5.769c6.186-1.143,17.31-6.808,17.31-16.629V3.878h7.537v2.806
				c0,9.77,11.071,15.693,17.309,16.629L181.956,29.082z"/>
		</g>
	</g>
	<g>
		<g>
			<path fill="#FFFFFF" d="M12.8,65.778l-0.83,3.074c-1.046-0.539-2.307-0.887-3.998-0.887c-2.675,0-3.936,1.014-3.936,3.042
				c0,1.552,1.138,2.503,3.813,3.96c3.629,1.964,5.813,3.326,5.813,7.414c0,4.499-3.168,6.687-7.473,6.687
				c-1.814,0-4.059-0.762-5.688-1.68l0.707-3.296c1.507,0.95,3.26,1.743,5.104,1.743c2.829,0,4.09-1.553,4.09-3.612
				c0-2.028-1.445-3.358-4.459-4.753c-3.074-1.426-5.135-3.422-5.135-6.463c0-4.246,3.413-6.211,7.195-6.211
				C10.217,64.797,11.539,65.24,12.8,65.778z"/>
			<path fill="#FFFFFF" d="M29.094,88.751h-3.291V78.548c0-2.63-0.584-4.214-2.828-4.214c-2.307,0-3.721,2.376-3.721,5.07v9.347
				h-3.29V65.113h3.29v8.365c0.799-1.331,2.49-2.313,4.059-2.313c3.997,0,5.781,2.693,5.781,7.256V88.751z"/>
			<path fill="#FFFFFF" d="M38.622,71.165c5.012,0,7.38,3.993,7.38,8.936s-2.368,8.968-7.38,8.968c-5.073,0-7.38-3.993-7.38-8.968
				S33.549,71.165,38.622,71.165z M38.622,74.144c-3.167,0-4.151,2.884-4.151,5.957c0,3.074,0.984,5.989,4.151,5.989
				c3.137,0,4.151-2.947,4.151-5.989S41.759,74.144,38.622,74.144z"/>
			<path fill="#FFFFFF" d="M47.997,71.482h3.105v1.615c1.015-1.299,2.398-1.933,4.213-1.933c4.95,0,6.918,4.024,6.918,8.841
				c0,4.975-1.753,9.063-6.918,9.063c-1.63,0-3.198-0.729-4.213-2.219v8.333h-3.105V71.482z M55.008,86.058
				c3.136,0,3.967-3.105,3.967-6.052c0-4.024-1.322-5.768-3.967-5.768c-2.922,0-3.905,3.138-3.905,5.862
				S52.086,86.058,55.008,86.058z"/>
			<path fill="#FFFFFF" d="M64.536,71.482h3.105v1.615c1.016-1.299,2.398-1.933,4.213-1.933c4.951,0,6.919,4.024,6.919,8.841
				c0,4.975-1.753,9.063-6.919,9.063c-1.63,0-3.197-0.729-4.213-2.219v8.333h-3.105V71.482z M71.547,86.058
				c3.137,0,3.967-3.105,3.967-6.052c0-4.024-1.322-5.768-3.967-5.768c-2.921,0-3.905,3.138-3.905,5.862
				S68.626,86.058,71.547,86.058z"/>
			<path fill="#FFFFFF" d="M84.673,69.074h-3.29v-3.961h3.29V69.074z M84.673,88.751h-3.29V71.482h3.29V88.751z"/>
			<path fill="#FFFFFF" d="M101.307,88.751h-3.198V78.167c0-2.692-0.953-4.023-2.891-4.023c-2.613,0-3.813,2.187-3.813,5.134v9.474
				h-3.198V75.887c0-1.648-0.062-3.105-0.153-4.404h3.075v1.806c1.015-1.33,2.521-2.123,4.458-2.123c3.813,0,5.72,2.282,5.72,6.496
				V88.751z"/>
			<path fill="#FFFFFF" d="M117.539,71.482v13.593c0,6.527-2.583,10.425-7.749,10.425c-1.875,0-3.689-0.412-5.259-1.141l0.492-3.2
				c1.445,0.887,3.045,1.33,4.797,1.33c2.952,0,4.644-2.154,4.644-6.622c-1.106,1.585-2.521,2.123-4.059,2.123
				c-4.674,0-7.104-3.865-7.104-8.365c0-4.879,2.276-8.46,6.919-8.46c1.876,0,3.26,0.729,4.213,1.933v-1.615H117.539z
				 M110.528,74.238c-2.613,0-3.998,1.585-3.998,5.387c0,3.423,1.354,5.292,3.875,5.292c2.922,0,4.028-2.44,4.028-5.292
				C114.434,75.823,112.772,74.238,110.528,74.238z"/>
			<path fill="#FFFFFF" d="M144.471,88.751h-3.69l-9.625-17.775v17.775h-3.32V65.113h3.535l9.779,18.062V65.113h3.321V88.751z"/>
			<path fill="#FFFFFF" d="M154.305,86.153c1.846,0,3.475-0.413,4.89-1.236v3.2c-1.63,0.634-3.137,0.951-4.981,0.951
				c-5.442,0-7.595-3.804-7.595-8.999c0-4.595,2.183-9,6.919-9c4.827,0,6.795,3.804,6.795,8.461v1.774H150
				C150.276,84.632,151.692,86.153,154.305,86.153z M156.98,78.294c0.03-2.122-1.169-4.245-3.32-4.245
				c-1.754,0-3.198,1.109-3.599,4.245H156.98z"/>
			<path fill="#FFFFFF" d="M184.22,71.482l-4.98,17.269h-3.444l-3.352-12.421l-3.383,12.421h-3.443l-4.981-17.269h3.382
				l3.321,12.516l3.444-12.516h3.474l3.261,12.516l3.32-12.516H184.22z"/>
			<path fill="#FFFFFF" d="M194.946,72.147l-0.676,2.884c-1.385-0.603-2.46-0.92-3.659-0.92c-1.691,0-2.553,0.477-2.553,1.839
				c0,1.521,2.062,2.028,3.937,3.105c1.998,1.14,3.505,2.344,3.505,5.006c0,3.518-2.829,5.007-5.965,5.007
				c-1.845,0-3.567-0.381-4.92-0.951l0.646-3.264c1.507,0.761,2.768,1.236,4.182,1.236c1.691,0,2.952-0.635,2.952-2.188
				c0-0.981-0.861-1.837-2.767-2.819c-3.075-1.553-4.674-2.599-4.674-5.133c0-1.712,0.614-3.011,1.875-3.866
				c0.983-0.665,2.214-0.919,3.659-0.919C192.118,71.165,193.687,71.577,194.946,72.147z"/>
		</g>
	</g>
</g>
</svg>
