<?xml version="1.0" encoding="utf-8"?>
<!-- Generator: Adobe Illustrator 16.0.0, SVG Export Plug-In . SVG Version: 6.00 Build 0)  -->
<!DOCTYPE svg PUBLIC "-//W3C//DTD SVG 1.1//EN" "http://www.w3.org/Graphics/SVG/1.1/DTD/svg11.dtd">
<svg version="1.1" id="레이어_1" xmlns="http://www.w3.org/2000/svg" xmlns:xlink="http://www.w3.org/1999/xlink" x="0px"
	 y="0px" width="174px" height="95px" viewBox="0 0 174 95" enable-background="new 0 0 174 95" xml:space="preserve">
<g>
	<g>
		<path fill="#FFFFFF" d="M0.5,4.163h19.755v32.709H0.5V4.163z M7.934,10.663v19.709h4.991V10.663H7.934z M33.875,24.283h-3.432
			v22.546h-7.018V1.223h7.018v16.561h3.432V0.5h7.07v47.619h-7.07V24.283z"/>
		<path fill="#FFFFFF" d="M68.65,27.432c-5.406-1.91-8.994-5.625-10.813-8.823c-1.716,3.457-5.875,7.843-10.917,10.01l-4.263-5.624
			c7.174-2.631,11.229-8.409,11.437-13.878h-9.202v-6.14h25.993v6.191h-9.201c0.156,5.365,3.171,10.524,10.969,12.743L68.65,27.432z
			 M81.959,38.937c0,5.158-4.522,9.75-16.064,9.75c-11.593,0-16.012-4.592-16.012-9.75c0-5.314,4.471-9.958,16.012-9.958
			C77.437,28.979,81.959,33.622,81.959,38.937z M57.421,38.937c0,1.96,2.027,3.61,8.474,3.61c6.551,0,8.578-1.702,8.578-3.61
			c0-2.116-2.027-3.818-8.578-3.818C59.449,35.118,57.421,36.82,57.421,38.937z M81.543,28.979h-7.382V0.5h7.382v11.196h6.654v6.345
			h-6.654V28.979z"/>
		<path fill="#FFFFFF" d="M114.915,15.307c0,7.068-5.25,12.64-13.309,12.64c-8.058,0-13.256-5.571-13.256-12.64
			c0-6.965,5.198-12.536,13.256-12.536C109.665,2.771,114.915,8.342,114.915,15.307z M94.434,31.971h7.485v9.234h25.006v6.398
			H94.434V31.971z M95.732,15.307c0,3.509,2.547,6.191,5.874,6.191c3.379,0,5.875-2.683,5.875-6.191
			c0-3.456-2.496-6.139-5.875-6.139C98.279,9.168,95.732,11.851,95.732,15.307z M125.729,35.222h-7.383V0.5h7.383v12.64h6.654v6.346
			h-6.654V35.222z"/>
		<path fill="#FFFFFF" d="M133.211,3.905h7.278V30.01c3.482-0.051,8.786-0.361,12.32-0.876l0.52,6.346
			c-4.418,0.67-14.14,1.289-20.118,1.289V3.905z M166.43,24.387h-4.003v22.442h-6.965V1.223h6.965v16.612h4.003V0.5h7.07v47.619
			h-7.07V24.387z"/>
	</g>
	<g>
		<path fill="#FFFFFF" d="M27.348,65.309l-0.83,3.052c-1.046-0.535-2.307-0.881-3.998-0.881c-2.675,0-3.936,1.007-3.936,3.02
			c0,1.542,1.138,2.485,3.813,3.932c3.629,1.95,5.813,3.303,5.813,7.361c0,4.467-3.167,6.638-7.473,6.638
			c-1.814,0-4.059-0.756-5.689-1.667l0.707-3.272c1.507,0.944,3.26,1.73,5.105,1.73c2.83,0,4.09-1.541,4.09-3.587
			c0-2.013-1.445-3.333-4.459-4.718c-3.076-1.415-5.136-3.396-5.136-6.417c0-4.215,3.414-6.165,7.196-6.165
			C24.765,64.334,26.087,64.773,27.348,65.309z"/>
		<path fill="#FFFFFF" d="M43.644,88.115h-3.291v-10.13c0-2.61-0.584-4.184-2.829-4.184c-2.307,0-3.721,2.359-3.721,5.033v9.28
			h-3.291V64.647h3.291v8.305c0.8-1.321,2.491-2.296,4.06-2.296c3.998,0,5.781,2.674,5.781,7.203V88.115z"/>
		<path fill="#FFFFFF" d="M53.173,70.656c5.013,0,7.381,3.964,7.381,8.871s-2.368,8.902-7.381,8.902c-5.074,0-7.38-3.964-7.38-8.902
			C45.793,74.588,48.099,70.656,53.173,70.656z M53.173,73.613c-3.167,0-4.151,2.863-4.151,5.914c0,3.052,0.984,5.945,4.151,5.945
			c3.137,0,4.152-2.926,4.152-5.945C57.325,76.507,56.31,73.613,53.173,73.613z"/>
		<path fill="#FFFFFF" d="M62.549,70.971h3.106v1.604c1.015-1.289,2.399-1.918,4.213-1.918c4.951,0,6.919,3.994,6.919,8.776
			c0,4.938-1.753,8.997-6.919,8.997c-1.63,0-3.198-0.724-4.213-2.202V94.5h-3.106V70.971z M69.561,85.44
			c3.137,0,3.967-3.082,3.967-6.008c0-3.995-1.322-5.726-3.967-5.726c-2.921,0-3.906,3.115-3.906,5.82S66.639,85.44,69.561,85.44z"
			/>
		<path fill="#FFFFFF" d="M102.552,74.84v12.175c-2.183,0.943-3.967,1.415-6.58,1.415c-7.074,0-10.887-5.096-10.887-12.049
			c0-7.014,3.967-12.047,10.917-12.047c3.014,0,4.398,0.565,6.12,1.415l-0.83,3.051c-1.507-0.817-2.86-1.32-5.29-1.32
			c-5.104,0-7.596,3.932-7.596,8.901c0,5.097,2.368,8.903,7.565,8.903c1.63,0,2.306-0.22,3.198-0.567v-6.668h-4.152V74.84H102.552z"
			/>
		<path fill="#FFFFFF" d="M118.754,88.146h-3.259v-1.762c-0.984,1.541-2.522,2.045-4.214,2.045c-3.874,0-5.813-2.611-5.813-6.448
			V70.971h3.291v10.381c0,2.8,0.954,4.121,2.829,4.121c2.522,0,3.721-2.108,3.721-4.593v-9.909h3.261v12.835
			C118.57,85.347,118.631,86.793,118.754,88.146z"/>
		<path fill="#FFFFFF" d="M125.394,68.58h-3.291v-3.933h3.291V68.58z M125.394,88.115h-3.291V70.971h3.291V88.115z"/>
		<path fill="#FFFFFF" d="M141.937,88.115h-3.106v-1.604c-1.015,1.289-2.397,1.919-4.213,1.919c-4.95,0-6.919-3.995-6.919-8.776
			c0-4.939,1.753-8.997,6.919-8.997c1.63,0,3.168,0.724,4.213,2.202v-8.211h3.106V88.115z M134.925,73.645
			c-3.137,0-3.968,3.083-3.968,6.009c0,3.994,1.323,5.725,3.968,5.725c2.921,0,3.905-3.114,3.905-5.819
			S137.877,73.645,134.925,73.645z"/>
		<path fill="#FFFFFF" d="M151.928,85.536c1.845,0,3.476-0.41,4.889-1.228v3.178c-1.629,0.629-3.136,0.943-4.98,0.943
			c-5.444,0-7.597-3.775-7.597-8.934c0-4.562,2.184-8.935,6.919-8.935c4.828,0,6.797,3.775,6.797,8.399v1.762h-10.333
			C147.899,84.025,149.313,85.536,151.928,85.536z M154.603,77.733c0.031-2.106-1.168-4.214-3.321-4.214
			c-1.753,0-3.198,1.101-3.598,4.214H154.603z"/>
	</g>
</g>
</svg>
