<?xml version="1.0" encoding="utf-8"?>
<!-- Generator: Adobe Illustrator 16.0.0, SVG Export Plug-In . SVG Version: 6.00 Build 0)  -->
<!DOCTYPE svg PUBLIC "-//W3C//DTD SVG 1.1//EN" "http://www.w3.org/Graphics/SVG/1.1/DTD/svg11.dtd">
<svg version="1.1" id="레이어_1" xmlns="http://www.w3.org/2000/svg" xmlns:xlink="http://www.w3.org/1999/xlink" x="0px"
	 y="0px" width="115px" height="115px" viewBox="0 0 115 115" enable-background="new 0 0 115 115" xml:space="preserve">
<g>
	<path fill="#FFFFFF" d="M110.539,29.746c-0.13-3.355-2.857-5.982-6.216-5.982H88.59C84.432,12.976,76.748,6.206,68.3,6.206
		c-8.45,0-16.133,6.77-20.292,17.558H32.274c-3.358,0-6.088,2.626-6.216,5.981l-2.101,55.081c1.727,0.084,3.391,0.361,4.949,0.852
		c0.59,0.186,1.239,0.279,1.928,0.279c0.822,0,1.67-0.133,2.525-0.354l2-52.415h11.239l0,11.86c0,1.697,1.376,3.072,3.072,3.072
		c1.697,0,3.072-1.375,3.071-3.072l0.001-11.861h48.497l2.524,66.181H90.335l-0.75,8.77l-0.057,0.656h17.679
		c1.654,0,3.259-0.684,4.404-1.871c1.143-1.188,1.764-2.816,1.7-4.471L110.539,29.746z M54.667,23.764
		c3.279-7.081,8.309-11.414,13.631-11.414s10.35,4.334,13.63,11.414H54.667z"/>
	<path fill="#FFFFFF" d="M85.672,45.889c-0.578-0.305-1.237-0.445-1.959-0.445c-5.498,0-14.637,8.231-19.27,15.648
		c-6.93,11.082-17.242,26.965-31.269,29.375c-0.348,0.061-0.697,0.104-1.044,0.137c-0.081,0.008-0.163,0.016-0.244,0.021
		c-0.351,0.029-0.701,0.049-1.052,0.049c-1.13,0-2.251-0.152-3.342-0.496c-0.34-0.107-0.681-0.195-1.025-0.275
		c-0.153-0.035-0.309-0.063-0.464-0.094c-0.175-0.035-0.35-0.068-0.527-0.096c-0.209-0.033-0.419-0.061-0.629-0.086
		c-0.103-0.012-0.205-0.021-0.308-0.031c-0.545-0.055-1.091-0.09-1.637-0.09c-7.821,0-15.328,5.127-15.328,5.127
		c-3.016,2.01-7.51,5.412-5.301,9.574c1.701,3.201,5.917,3.572,9.623,3.57c1.117,0.002,2.188-0.031,3.129-0.031
		c0.181,0,0.355,0,0.526,0.002c1.571,0.027,3.145,0.037,4.72,0.037c2.253,0,4.506-0.02,6.755-0.031
		c2.923-0.016,5.845-0.02,8.769-0.02c2.211,0,4.423,0.002,6.634,0.002c0.185,0,0.371-0.02,0.554-0.047
		c0.05-0.008,0.099-0.018,0.149-0.025c0.153-0.029,0.305-0.066,0.457-0.113c0.032-0.01,0.065-0.018,0.096-0.029
		c0.179-0.059,0.356-0.133,0.532-0.213c0.044-0.021,0.087-0.045,0.131-0.066c0.141-0.072,0.282-0.15,0.422-0.232
		c0.043-0.027,0.085-0.051,0.129-0.078c0.17-0.109,0.34-0.227,0.508-0.355c0.034-0.023,0.064-0.051,0.097-0.076
		c0.142-0.109,0.281-0.227,0.421-0.348c0.046-0.041,0.091-0.08,0.137-0.121c0.166-0.15,0.33-0.307,0.5-0.479
		c0.161-0.164,0.32-0.336,0.478-0.514c0.042-0.049,0.087-0.098,0.13-0.148c0.133-0.152,0.266-0.309,0.396-0.469
		c0.027-0.033,0.054-0.066,0.082-0.1c0.154-0.191,0.306-0.389,0.457-0.59c0.036-0.049,0.073-0.098,0.109-0.146
		c0.123-0.166,0.244-0.334,0.362-0.502c0.036-0.049,0.07-0.096,0.104-0.145c0.146-0.211,0.291-0.422,0.432-0.635
		c0.025-0.037,0.048-0.074,0.072-0.111c0.122-0.184,0.242-0.369,0.361-0.557c0.035-0.055,0.068-0.107,0.103-0.162
		c0.278-0.441,0.548-0.885,0.807-1.324c0.03-0.051,0.059-0.1,0.089-0.15c0.119-0.201,0.236-0.402,0.352-0.602
		c0.005-0.01,0.011-0.02,0.017-0.029c0.877-1.516,1.632-2.91,2.243-3.84c3.746-5.713,8.115-11.283,13.908-15.049
		c1.867-1.213,3.367-1.711,4.573-1.711c5.567,0,5.646,10.621,5.646,10.621l0.524,18.346h7.075l0.787-18.346
		c0-8.646,4.192-15.723,4.192-15.723C94.842,63.447,90.649,48.509,85.672,45.889z"/>
</g>
</svg>
