<?xml version="1.0" encoding="utf-8"?>
<!-- Generator: Adobe Illustrator 16.0.0, SVG Export Plug-In . SVG Version: 6.00 Build 0)  -->
<!DOCTYPE svg PUBLIC "-//W3C//DTD SVG 1.1//EN" "http://www.w3.org/Graphics/SVG/1.1/DTD/svg11.dtd">
<svg version="1.1" id="레이어_1" xmlns="http://www.w3.org/2000/svg" xmlns:xlink="http://www.w3.org/1999/xlink" x="0px"
	 y="0px" width="280px" height="156px" viewBox="0 0 280 156" enable-background="new 0 0 280 156" xml:space="preserve">
<g>
	<path d="M278,78c0,41.709-34.026,76-76,76H78c-41.974,0-76-34.291-76-76l0,0C2,36.291,36.026,2,78,2h124
		C243.974,2,278,36.291,278,78L278,78z"/>
	<path fill="#CDDB28" d="M202,156H78c-43.01,0-78-34.99-78-78S34.99,0,78,0h124c43.01,0,78,34.99,78,78S245.01,156,202,156z M78,4
		C37.196,4,4,37.196,4,78s33.196,74,74,74h124c40.804,0,74-33.196,74-74S242.804,4,202,4H78z"/>
</g>
<path fill="#CDDB28" d="M195.6,144H84.4C45.581,144,14,114.435,14,78.094v-0.187C14,41.565,45.581,12,84.4,12H195.6
	c38.268,0,69.4,29.565,69.4,65.907v0.187C265,114.435,233.867,144,195.6,144z M84.4,15C47.235,15,17,43.22,17,77.907v0.187
	C17,112.78,47.235,141,84.4,141H195.6c36.613,0,66.4-28.22,66.4-62.906v-0.187C262,43.22,232.213,15,195.6,15H84.4z"/>
</svg>
