<?xml version="1.0" encoding="utf-8"?>
<!-- Generator: Adobe Illustrator 16.0.0, SVG Export Plug-In . SVG Version: 6.00 Build 0)  -->
<!DOCTYPE svg PUBLIC "-//W3C//DTD SVG 1.1//EN" "http://www.w3.org/Graphics/SVG/1.1/DTD/svg11.dtd">
<svg version="1.1" id="레이어_1" xmlns="http://www.w3.org/2000/svg" xmlns:xlink="http://www.w3.org/1999/xlink" x="0px"
	 y="0px" width="140px" height="141px" viewBox="0 0 140 141" enable-background="new 0 0 140 141" xml:space="preserve">
<g>
	<path fill="#FFFFFF" d="M2.957,8.57h15.775c2.576,0,4.469,0.593,5.679,1.778c1.209,1.186,1.814,2.99,1.814,5.414
		c0,1.598-0.342,2.896-1.025,3.896c-0.685,0.999-1.525,1.698-2.524,2.098c2.13,0.586,3.575,2.024,4.338,4.315
		c0.263,0.826,0.395,1.785,0.395,2.877c0,2.611-0.604,4.528-1.813,5.753c-1.21,1.226-3.103,1.838-5.68,1.838H2.957V8.57z
		 M19.127,16.561c0-1.598-0.789-2.397-2.366-2.397h-6.705v5.593h6.705c1.577,0,2.366-0.799,2.366-2.397V16.561z M20.31,27.749
		c0-1.598-0.789-2.397-2.366-2.397h-7.888v5.594h7.888c1.577,0,2.366-0.799,2.366-2.397V27.749z"/>
	<path fill="#FFFFFF" d="M39.239,16.162v20.377h-6.901V21.556H29.38v-5.394H39.239z M32.338,8.17h6.901v5.594h-6.901V8.17z"/>
	<path fill="#FFFFFF" d="M57.774,36.539c-2.551,0.266-5.048,0.399-7.493,0.399c-1.788,0-3.221-0.545-4.299-1.638
		c-1.078-1.092-1.617-2.543-1.617-4.355V20.756h-2.366v-5.394h2.366l0.789-4.794h6.113v4.794h4.93v5.394h-4.93v9.189
		c0,0.4,0.131,0.733,0.394,0.999c0.263,0.267,0.592,0.399,0.986,0.399h5.127V36.539z"/>
	<path fill="#FFFFFF" d="M81.042,30.545c0,1.998-0.559,3.563-1.676,4.695c-1.117,1.132-2.662,1.698-4.634,1.698h-9.07
		c-1.972,0-3.517-0.565-4.634-1.698c-1.118-1.132-1.676-2.697-1.676-4.695v-9.189c0-1.998,0.558-3.563,1.676-4.695
		c1.117-1.132,2.662-1.698,4.634-1.698h9.07c1.972,0,3.517,0.566,4.634,1.698c1.117,1.132,1.676,2.697,1.676,4.695V30.545z
		 M74.142,21.955c0-1.065-0.527-1.598-1.578-1.598h-4.732c-1.052,0-1.577,0.533-1.577,1.598v7.991c0,1.066,0.525,1.599,1.577,1.599
		h4.732c1.051,0,1.578-0.533,1.578-1.599V21.955z"/>
	<path fill="#FFFFFF" d="M83.802,30.945c5.338,0.399,9.545,0.6,12.621,0.6c0.394,0,0.723-0.133,0.985-0.4
		c0.263-0.266,0.395-0.599,0.395-0.999v-1.398h-8.479c-1.788,0-3.221-0.546-4.299-1.638s-1.617-2.543-1.617-4.355v-1.398
		c0-1.812,0.539-3.263,1.617-4.355c1.078-1.092,2.511-1.638,4.299-1.638h13.409v5.194H91.69c-0.395,0-0.725,0.134-0.986,0.399
		c-0.264,0.267-0.395,0.6-0.395,0.999s0.131,0.733,0.395,0.999c0.262,0.267,0.592,0.399,0.986,0.399h7.098
		c1.788,0,3.221,0.546,4.299,1.638c1.078,1.092,1.617,2.544,1.617,4.355v1.598c0,1.812-0.539,3.263-1.617,4.355
		c-1.078,1.093-2.511,1.638-4.299,1.638c-4.653,0-9.648-0.267-14.986-0.799V30.945z"/>
	<path fill="#FFFFFF" d="M106.676,30.945c5.337,0.399,9.544,0.6,12.62,0.6c0.395,0,0.723-0.133,0.986-0.4
		c0.262-0.266,0.395-0.599,0.395-0.999v-1.398h-8.479c-1.788,0-3.222-0.546-4.299-1.638c-1.079-1.092-1.617-2.543-1.617-4.355
		v-1.398c0-1.812,0.538-3.263,1.617-4.355c1.077-1.092,2.511-1.638,4.299-1.638h13.409v5.194h-11.043
		c-0.395,0-0.724,0.134-0.986,0.399c-0.264,0.267-0.395,0.6-0.395,0.999s0.131,0.733,0.395,0.999
		c0.263,0.267,0.592,0.399,0.986,0.399h7.099c1.788,0,3.22,0.546,4.298,1.638c1.078,1.092,1.617,2.544,1.617,4.355v1.598
		c0,1.812-0.539,3.263-1.617,4.355c-1.078,1.093-2.51,1.638-4.298,1.638c-4.653,0-9.649-0.267-14.986-0.799V30.945z"/>
	<path fill="#FFFFFF" d="M138.62,16.162v20.377h-6.902V21.556h-2.957v-5.394H138.62z M131.718,8.17h6.902v5.594h-6.902V8.17z"/>
	<path fill="#FFFFFF" d="M15.972,84.484H1.774v-5.594h3.549V62.11H1.774v-5.594h14.197v5.594h-3.55v16.781h3.55V84.484z"/>
	<path fill="#FFFFFF" d="M33.718,84.484c-2.55,0.266-5.048,0.4-7.492,0.4c-1.789,0-3.222-0.547-4.299-1.639
		c-1.079-1.092-1.617-2.543-1.617-4.355V68.702h-2.366v-5.394h2.366l0.789-4.794h6.112v4.794h4.93v5.394h-4.93v9.19
		c0,0.398,0.132,0.732,0.395,0.998c0.263,0.268,0.592,0.4,0.986,0.4h5.126V84.484z"/>
	<path fill="#FFFFFF" d="M36.677,63.708c4.811-0.533,9.149-0.799,13.014-0.799c1.788,0,3.221,0.546,4.299,1.638
		c1.078,1.092,1.617,2.544,1.617,4.355v15.583h-6.113l-0.395-1.998c-1.235,0.826-2.504,1.434-3.806,1.818
		c-1.301,0.387-2.399,0.58-3.293,0.58h-1.38c-1.788,0-3.221-0.547-4.299-1.639s-1.617-2.543-1.617-4.355v-1.797
		c0-1.813,0.539-3.264,1.617-4.355c1.078-1.093,2.511-1.639,4.299-1.639h8.085v-1.598c0-0.4-0.132-0.732-0.395-0.999
		c-0.264-0.266-0.592-0.399-0.986-0.399c-1.709,0-3.596,0.08-5.659,0.24c-2.064,0.16-3.727,0.279-4.988,0.359V63.708z
		 M43.973,79.291c1.393,0,2.971-0.266,4.732-0.799v-2.398h-5.719c-0.395,0-0.724,0.135-0.986,0.4s-0.394,0.6-0.394,0.998v0.4
		c0,0.398,0.131,0.732,0.394,0.998c0.263,0.268,0.592,0.4,0.986,0.4H43.973z"/>
	<path fill="#FFFFFF" d="M69.803,84.484c-1.762,0.266-3.438,0.4-5.028,0.4s-2.925-0.547-4.003-1.639s-1.617-2.543-1.617-4.355
		V56.516h6.902v21.376c0,0.398,0.131,0.732,0.394,0.998c0.263,0.268,0.592,0.4,0.986,0.4h2.366V84.484z"/>
	<path fill="#FFFFFF" d="M76.507,91.676c-1.394,0-3.102-0.133-5.126-0.398v-5.195h3.549c0.999,0,1.649-0.279,1.952-0.838
		c0.303-0.561,0.242-1.346-0.178-2.357L68.62,63.308h7.295l4.93,13.584l4.142-13.584h7.296l-7.888,21.975
		c-0.763,2.104-1.749,3.697-2.958,4.775S78.584,91.676,76.507,91.676z"/>
	<path fill="#FFFFFF" d="M22.676,113.252c0,2.264-0.946,4.223-2.839,5.873c-0.579,0.506-1.21,1.014-1.894,1.518l-8.479,6.193h13.211
		v5.594H1.38v-7.592l14.197-10.387v-1.998c0-1.598-0.789-2.398-2.366-2.398H2.169v-5.592h12.619c2.761,0,4.766,0.633,6.015,1.896
		c1.248,1.266,1.873,3.297,1.873,6.094V113.252z"/>
	<path fill="#FFFFFF" d="M48.705,124.838c0,2.797-0.625,4.83-1.874,6.094c-1.249,1.266-3.253,1.898-6.014,1.898h-7.493
		c-2.761,0-4.766-0.633-6.015-1.898c-1.249-1.264-1.873-3.297-1.873-6.094v-12.785c0-2.797,0.624-4.826,1.873-6.092
		s3.254-1.898,6.015-1.898h7.493c2.761,0,4.765,0.633,6.014,1.898s1.874,3.295,1.874,6.092V124.838z M41.605,112.053
		c0-1.598-0.788-2.396-2.366-2.396h-4.338c-1.577,0-2.366,0.799-2.366,2.396v12.785c0,1.6,0.789,2.398,2.366,2.398h4.338
		c1.578,0,2.366-0.799,2.366-2.398V112.053z"/>
	<path fill="#FFFFFF" d="M56.789,132.43v-21.775l-4.535,1.6l-1.972-4.596l7.296-3.195h6.31v27.967H56.789z"/>
	<path fill="#FFFFFF" d="M81.634,132.83c-4.391,0-9.254-0.268-14.591-0.799v-5.395c5.81,0.4,10.147,0.6,13.015,0.6
		c0.604,0,1.084-0.18,1.439-0.539c0.354-0.359,0.531-0.846,0.531-1.459v-1.998c0-1.598-0.788-2.396-2.365-2.396H68.226v-16.381
		h18.93v5.592h-11.83v5.195h6.309c2.577,0,4.471,0.592,5.68,1.777s1.814,2.99,1.814,5.414v2.797c0,2.611-0.605,4.529-1.814,5.754
		S84.211,132.83,81.634,132.83z"/>
</g>
</svg>
