<?xml version="1.0" encoding="utf-8"?>
<!-- Generator: Adobe Illustrator 16.0.0, SVG Export Plug-In . SVG Version: 6.00 Build 0)  -->
<!DOCTYPE svg PUBLIC "-//W3C//DTD SVG 1.1//EN" "http://www.w3.org/Graphics/SVG/1.1/DTD/svg11.dtd">
<svg version="1.1" id="레이어_1" xmlns="http://www.w3.org/2000/svg" xmlns:xlink="http://www.w3.org/1999/xlink" x="0px"
	 y="0px" width="449px" height="191px" viewBox="0 0 449 191" enable-background="new 0 0 449 191" xml:space="preserve">
<g>
	<g>
		<path fill="#FFFFFF" d="M21.106,87.616H3.837V20.551h17.27v26.347h8.635l14.967-26.347h18.229L44.133,53.604l18.709,34.012H44.612
			L29.741,60.311h-8.635V87.616z"/>
		<path fill="#FFFFFF" d="M85.004,38.754v48.862h-16.79V51.688h-7.195V38.754H85.004z M68.214,19.593h16.79v13.413h-16.79V19.593z"
			/>
		<path fill="#FFFFFF" d="M124.818,36.838h17.749l-19.188,50.778h-19.188L85.003,36.838h17.749l11.033,34.491L124.818,36.838z"/>
		<path fill="#FFFFFF" d="M143.047,37.796c11.705-1.277,22.259-1.916,31.661-1.916c4.349,0,7.834,1.31,10.457,3.928
			c2.622,2.62,3.934,6.101,3.934,10.443v37.365h-14.871l-0.959-4.791c-3.007,1.98-6.093,3.434-9.259,4.359s-5.837,1.389-8.011,1.389
			h-3.358c-4.35,0-7.835-1.308-10.457-3.928c-2.623-2.618-3.934-6.099-3.934-10.443v-4.312c0-4.343,1.311-7.823,3.934-10.443
			c2.622-2.618,6.107-3.928,10.457-3.928h19.669v-3.832c0-0.958-0.321-1.756-0.96-2.395c-0.64-0.638-1.439-0.958-2.398-0.958
			c-4.158,0-8.747,0.192-13.768,0.575c-5.022,0.383-9.066,0.67-12.137,0.862V37.796z M160.796,75.161
			c3.39,0,7.228-0.638,11.514-1.916v-5.749h-13.912c-0.959,0-1.76,0.32-2.398,0.958c-0.64,0.639-0.959,1.437-0.959,2.396v0.958
			c0,0.958,0.319,1.757,0.959,2.395c0.639,0.639,1.439,0.958,2.398,0.958H160.796z"/>
		<path fill="#FFFFFF" d="M55.646,169.491c-14.264,1.277-26.096,1.916-35.498,1.916c-6.27,0-10.874-1.468-13.815-4.406
			c-2.943-2.938-4.413-7.536-4.413-13.797v-30.658c0-6.707,1.519-11.576,4.557-14.61c3.037-3.033,7.915-4.552,14.631-4.552h34.539
			v13.414H24.944c-3.838,0-5.757,1.916-5.757,5.748v30.658c0,1.471,0.433,2.635,1.296,3.497s1.967,1.294,3.31,1.294
			c1.344,0,2.814-0.016,4.413-0.049c1.599-0.031,3.263-0.078,4.989-0.143c1.728-0.063,3.469-0.128,5.229-0.192
			c1.759-0.063,4.03-0.191,6.813-0.383c2.782-0.192,6.251-0.415,10.409-0.671V169.491z"/>
		<path fill="#FFFFFF" d="M110.332,156.079c0,4.79-1.359,8.543-4.078,11.257c-2.719,2.716-6.476,4.071-11.272,4.071H72.915
			c-4.798,0-8.556-1.355-11.273-4.071c-2.72-2.714-4.077-6.467-4.077-11.257v-22.036c0-4.79,1.357-8.542,4.077-11.257
			c2.718-2.715,6.476-4.072,11.273-4.072h22.066c4.797,0,8.554,1.357,11.272,4.072s4.078,6.467,4.078,11.257V156.079z
			 M93.542,135.479c0-2.553-1.28-3.832-3.838-3.832H78.191c-2.559,0-3.838,1.279-3.838,3.832v19.162
			c0,2.555,1.279,3.832,3.838,3.832h11.513c2.558,0,3.838-1.277,3.838-3.832V135.479z"/>
		<path fill="#FFFFFF" d="M141.032,170.45c-4.286,0.637-8.363,0.957-12.232,0.957c-3.871,0-7.116-1.308-9.738-3.928
			c-2.623-2.618-3.934-6.099-3.934-10.443v-53.652h16.79v51.258c0,0.958,0.319,1.758,0.959,2.395
			c0.639,0.64,1.439,0.959,2.398,0.959h5.757V170.45z"/>
		<path fill="#FFFFFF" d="M169.814,170.45c-4.286,0.637-8.363,0.957-12.232,0.957c-3.871,0-7.116-1.308-9.738-3.928
			c-2.623-2.618-3.934-6.099-3.934-10.443v-53.652h16.79v51.258c0,0.958,0.319,1.758,0.959,2.395
			c0.639,0.64,1.439,0.959,2.398,0.959h5.757V170.45z"/>
		<path fill="#FFFFFF" d="M219.704,169.491c-12.346,1.277-23.539,1.916-33.58,1.916c-4.351,0-7.836-1.308-10.457-3.928
			c-2.624-2.618-3.934-6.099-3.934-10.443v-22.993c0-4.79,1.357-8.542,4.077-11.257c2.718-2.715,6.476-4.072,11.273-4.072h19.188
			c4.798,0,8.555,1.357,11.273,4.072c2.718,2.715,4.077,6.467,4.077,11.257v17.724h-33.1v3.833c0,0.958,0.319,1.757,0.96,2.396
			c0.639,0.639,1.438,0.957,2.398,0.957c6.332,0,15.605-0.479,27.823-1.437V169.491z M192.36,130.689
			c-2.559,0-3.838,1.278-3.838,3.833v5.27h16.311v-5.27c0-2.555-1.28-3.833-3.838-3.833H192.36z"/>
		<path fill="#FFFFFF" d="M271.511,169.491c-11.961,1.277-22.514,1.916-31.66,1.916c-4.351,0-7.836-1.308-10.457-3.928
			c-2.624-2.618-3.934-6.099-3.934-10.443v-22.035c0-4.791,1.357-8.542,4.076-11.258c2.719-2.714,6.477-4.071,11.273-4.071h30.701
			v12.935h-25.424c-2.559,0-3.838,1.277-3.838,3.832v18.682c0,0.959,0.319,1.758,0.959,2.396c0.639,0.64,1.439,0.958,2.398,0.958
			c5.757,0,14.392-0.479,25.904-1.438V169.491z"/>
		<path fill="#FFFFFF" d="M310.846,170.45c-6.204,0.637-12.28,0.957-18.229,0.957c-4.35,0-7.835-1.308-10.457-3.928
			c-2.623-2.618-3.934-6.099-3.934-10.443v-24.43h-5.756v-12.935h5.756l1.919-11.497h14.871v11.497h11.993v12.935h-11.993v22.035
			c0,0.958,0.319,1.758,0.959,2.395c0.639,0.64,1.439,0.959,2.399,0.959h12.472V170.45z"/>
		<path fill="#FFFFFF" d="M332.912,121.588v48.862h-16.79v-35.928h-7.195v-12.935H332.912z M316.122,102.427h16.79v13.412h-16.79
			V102.427z"/>
		<path fill="#FFFFFF" d="M390.477,156.079c0,4.79-1.359,8.543-4.077,11.257c-2.72,2.716-6.477,4.071-11.273,4.071H353.06
			c-4.797,0-8.556-1.355-11.273-4.071c-2.719-2.714-4.077-6.467-4.077-11.257v-22.036c0-4.79,1.358-8.542,4.077-11.257
			c2.718-2.715,6.477-4.072,11.273-4.072h22.066c4.797,0,8.554,1.357,11.273,4.072c2.718,2.715,4.077,6.467,4.077,11.257V156.079z
			 M373.687,135.479c0-2.553-1.279-3.832-3.838-3.832h-11.512c-2.56,0-3.838,1.279-3.838,3.832v19.162
			c0,2.555,1.278,3.832,3.838,3.832h11.512c2.559,0,3.838-1.277,3.838-3.832V135.479z"/>
		<path fill="#FFFFFF" d="M423.575,132.606c-3.391,0-7.229,0.639-11.513,1.916v35.928h-16.79v-50.778h14.871l0.959,4.79
			c3.006-1.979,6.093-3.433,9.259-4.359c3.166-0.925,5.836-1.389,8.011-1.389h4.318c4.348,0,7.834,1.31,10.457,3.928
			c2.622,2.62,3.934,6.101,3.934,10.443v37.365h-16.789v-34.491c0-0.958-0.321-1.756-0.96-2.396
			c-0.64-0.637-1.439-0.957-2.398-0.957H423.575z"/>
	</g>
</g>
</svg>
