<?xml version="1.0" encoding="utf-8"?>
<!-- Generator: Adobe Illustrator 16.0.0, SVG Export Plug-In . SVG Version: 6.00 Build 0)  -->
<!DOCTYPE svg PUBLIC "-//W3C//DTD SVG 1.1//EN" "http://www.w3.org/Graphics/SVG/1.1/DTD/svg11.dtd">
<svg version="1.1" id="레이어_1" xmlns="http://www.w3.org/2000/svg" xmlns:xlink="http://www.w3.org/1999/xlink" x="0px"
	 y="0px" width="256px" height="256px" viewBox="0 0 256 256" enable-background="new 0 0 256 256" xml:space="preserve">
<path fill="#FFFFFF" stroke="#000000" stroke-miterlimit="10" d="M79.598,198.744l-0.71-1.401c-0.444-0.881-0.686-1.626-0.726-2.236
	c-0.041-0.611,0.11-1.191,0.451-1.741c0.513-0.825,1.215-1.318,2.108-1.478c0.893-0.16,1.796,0.045,2.712,0.613
	c0.875,0.543,1.525,1.287,1.951,2.231l-1.057,1.703c-0.304-1.195-0.892-2.063-1.762-2.603c-0.49-0.305-0.963-0.441-1.419-0.411
	c-0.456,0.032-0.793,0.224-1.013,0.577c-0.195,0.314-0.261,0.682-0.2,1.1c0.062,0.417,0.257,0.938,0.584,1.558l0.725,1.39
	c0.804,1.557,0.84,2.927,0.108,4.106c-0.521,0.841-1.227,1.349-2.116,1.524c-0.889,0.176-1.784-0.016-2.684-0.574
	c-1.036-0.643-1.78-1.547-2.236-2.711l1.183-1.905c0.173,1.529,0.792,2.624,1.857,3.286c0.47,0.291,0.943,0.404,1.418,0.336
	c0.475-0.067,0.834-0.298,1.079-0.691C80.247,200.778,80.163,199.888,79.598,198.744z"/>
<path fill="#FFFFFF" stroke="#000000" stroke-miterlimit="10" d="M93.709,198.361l1.967,1.003l-7.427,2.785l2.996,8.803
	l-2.148-1.095l-2.85-8.293l-2.768,5.429l-1.573-0.802l5.603-10.991l1.573,0.803l-2.563,5.026L93.709,198.361z"/>
<path fill="#FFFFFF" stroke="#000000" stroke-miterlimit="10" d="M114.884,205.856l1.691,0.494l-8.267,10.49l-0.372-0.108
	l-1.054-10.762l-6.729,8.483l-0.364-0.106l-1.293-13.287l1.708,0.499l0.875,9.117l5.673-7.201l1.603,0.47l0.912,9.128
	L114.884,205.856z"/>
<path fill="#FFFFFF" stroke="#000000" stroke-miterlimit="10" d="M124.493,206.531l2.138,0.165l-4.991,5.442l-0.502,6.507
	l-1.805-0.14l0.502-6.507l-4.097-6.144l2.126,0.164l2.964,4.494L124.493,206.531z"/>
<path fill="#FFFFFF" stroke="#000000" stroke-miterlimit="10" d="M135.098,205.914l1.755-0.13l-4.286,12.741l-0.399,0.029
	l-6.218-11.962l1.773-0.132l4.341,8.365L135.098,205.914z"/>
<path fill="#FFFFFF" stroke="#000000" stroke-miterlimit="10" d="M137.697,205.573l6.89-1.206l0.271,1.547l-5.15,0.902l0.649,3.707
	l4.977-0.872l0.272,1.556l-4.977,0.872l0.661,3.776l5.315-0.932l0.271,1.549l-7.055,1.235L137.697,205.573z"/>
<path fill="#FFFFFF" stroke="#000000" stroke-miterlimit="10" d="M149.598,215.869l-3.457-11.844l2.967-0.866
	c1.198-0.35,2.236-0.33,3.112,0.058c0.877,0.389,1.463,1.088,1.759,2.1c0.201,0.689,0.202,1.336,0.004,1.939
	c-0.197,0.604-0.582,1.125-1.154,1.561c0.452,0.139,0.921,0.369,1.408,0.693c0.486,0.324,1.214,0.924,2.182,1.801
	c0.608,0.553,1.087,0.963,1.435,1.229l0.875,0.664l-2.018,0.59l-0.745-0.629c-0.025-0.024-0.072-0.063-0.143-0.115l-0.467-0.371
	l-0.777-0.711l-0.837-0.76c-0.493-0.384-0.927-0.678-1.302-0.88s-0.698-0.333-0.971-0.392c-0.271-0.059-0.685-0.006-1.239,0.156
	l-0.44,0.128l1.504,5.154L149.598,215.869z M148.765,204.824l-0.508,0.148l1.091,3.738l0.645-0.188
	c0.858-0.251,1.427-0.496,1.703-0.735c0.276-0.24,0.46-0.535,0.552-0.885c0.091-0.349,0.081-0.712-0.029-1.09
	c-0.108-0.374-0.306-0.684-0.592-0.927c-0.287-0.245-0.627-0.378-1.021-0.396C150.209,204.469,149.596,204.582,148.765,204.824z"/>
<path fill="#FFFFFF" stroke="#000000" stroke-miterlimit="10" d="M164.802,197.007l1.521-0.71l5.217,11.18l-1.376,0.643
	l-11.493-5.123l4.019,8.61l-1.505,0.702l-5.217-11.179l1.297-0.605l11.59,5.165L164.802,197.007z"/>
<path fill="#FFFFFF" stroke="#000000" stroke-miterlimit="10" d="M174.424,199.461l-1.57,0.059c-0.986,0.033-1.766-0.06-2.336-0.279
	c-0.571-0.22-1.035-0.6-1.391-1.141c-0.535-0.812-0.688-1.655-0.459-2.533c0.229-0.877,0.795-1.611,1.693-2.204
	c0.861-0.566,1.809-0.846,2.846-0.835l1.103,1.674c-1.213-0.226-2.247-0.055-3.103,0.508c-0.482,0.318-0.805,0.689-0.967,1.116
	s-0.13,0.813,0.1,1.162c0.203,0.308,0.508,0.522,0.912,0.642c0.406,0.119,0.959,0.16,1.66,0.123l1.566-0.075
	c1.75-0.078,3.009,0.464,3.773,1.624c0.543,0.825,0.709,1.679,0.496,2.56c-0.213,0.88-0.762,1.613-1.646,2.196
	c-1.018,0.67-2.15,0.967-3.398,0.893l-1.234-1.873c1.461,0.484,2.715,0.381,3.763-0.309c0.462-0.305,0.763-0.688,0.899-1.146
	c0.139-0.46,0.08-0.884-0.176-1.271C176.543,199.725,175.698,199.428,174.424,199.461z"/>
<path fill="#FFFFFF" stroke="#000000" stroke-miterlimit="10" d="M161.541,92.165c1.845,1.699,3.378,3.208,5.022,4.586
	c0.801,0.672,0.953,1.187,0.423,2.121c-1.17,2.065-2.214,4.202-3.31,6.31c-1.049,1.951-2.11,3.894-3.142,5.855
	c-3.363,6.389-6.72,12.784-10.076,19.177c-2.092,3.864-4.185,7.728-6.273,11.592c-0.103-0.022-0.204-0.045-0.304-0.067v-3.532
	c0.06-0.301,0.174-0.603,0.176-0.905c0.057-6.986,0.103-13.974,0.15-20.962c0.127-0.382,0.117-0.646,0.048-0.856
	c0.284-4.385,0.195-8.775,0.194-13.164c0.037-2.484-0.018-4.975,0.15-7.45c0.089-1.299-0.319-1.505-1.483-1.389
	c-3.625,0.362-7.261,0.625-10.89,0.936c-3.556,0.301-7.109,0.615-10.917,0.946c0.531,0.564,0.837,0.999,1.24,1.3
	c3.412,2.527,4.983,5.812,4.234,10.081c-1.656,3.569-3.336,7.129-4.967,10.711c-2.223,4.883-4.41,9.781-6.611,14.673
	c-2.365,5.058-4.727,10.117-7.197,15.402v-1.972c0.065-0.195,0.174-0.388,0.193-0.589c0.723-7.662,0.947-15.319-0.283-22.957
	c-0.189-1.139-0.33-2.29-0.58-3.416c-1.424-6.389-3.693-12.406-7.84-17.583c-1.999-2.977-4.586-5.384-7.446-7.491
	c-0.9-0.663-0.852-0.989-0.12-1.74C98,85.563,104.832,80.378,112.48,76.254c9.785-5.277,20.135-9.261,30.439-13.352
	c0.517-0.203,1.145-0.241,1.496-0.8c-13.992,1.747-27.5,5.18-40.383,10.926C91.13,78.783,79.479,86.438,68.822,95.937
	c1.371,0.453,2.477,0.778,3.553,1.184c4.534,1.706,8.032,4.795,11.143,8.393c0.432,0.653,0.855,1.312,1.297,1.956
	c4.758,6.949,6.68,14.841,7.589,23.048c0.242,2.174,0.369,4.362,0.506,6.547c-0.018,0.703-0.122,1.413,0.135,2.102
	c-0.002,0.833-0.004,1.669-0.006,2.503c-0.319,1.574-0.213,3.168-0.214,4.757c-0.108,1.313-0.194,2.629-0.331,3.939
	c-0.43,4.119-0.572,8.215,0.872,12.197c1.717,4.733,4.622,8.246,9.728,9.517c0.977,0.242,1.566,0.077,2.082-0.99
	c5.248-10.875,10.572-21.713,15.875-32.563c1.818-3.581,3.638-7.162,5.457-10.745c0.381,2.884,0.252,5.71,0.55,8.516
	c-0.015,6.865-0.304,13.738,0.302,20.594c0.618,6.995,3.868,10.85,10.344,12.541c0.925,0.241,1.305,0.021,1.731-0.75
	c6.864-12.387,13.755-24.76,20.639-37.136c0.438-0.715,0.905-1.413,1.308-2.146c4.434-8.043,8.853-16.097,14.522-23.373
	c0.192-0.174,0.411-0.324,0.57-0.523c4.027-5.061,8.482-9.714,13.28-14.049c0.567-0.513,1.323-0.88,1.619-1.755
	C181.506,90.514,171.695,91.326,161.541,92.165 M128.96,126.775c0.009,0.012,0.011,0.025,0.018,0.037c-0.006,0-0.011,0-0.019,0.001
	C128.959,126.801,128.96,126.789,128.96,126.775"/>
</svg>
