<?xml version="1.0" encoding="utf-8"?>
<!-- Generator: Adobe Illustrator 16.0.0, SVG Export Plug-In . SVG Version: 6.00 Build 0)  -->
<!DOCTYPE svg PUBLIC "-//W3C//DTD SVG 1.1//EN" "http://www.w3.org/Graphics/SVG/1.1/DTD/svg11.dtd">
<svg version="1.1" id="레이어_1" xmlns="http://www.w3.org/2000/svg" xmlns:xlink="http://www.w3.org/1999/xlink" x="0px"
	 y="0px" width="85px" height="25px" viewBox="0 0 85 25" enable-background="new 0 0 85 25" xml:space="preserve">
<g>
	<path fill="#E11A8E" d="M19.088,8.094c0.007,1.958-0.836,3.653-2.532,5.085c-0.518,0.44-1.083,0.878-1.695,1.318l-7.595,5.376
		l11.864-0.033l0.017,4.837L0.023,24.73L0,18.166l12.717-9.018L12.711,7.42c-0.005-1.382-0.716-2.071-2.132-2.067L0.663,5.381
		L0.646,0.545l11.333-0.032c2.479-0.006,4.282,0.535,5.407,1.625c1.125,1.092,1.692,2.846,1.701,5.264L19.088,8.094z"/>
	<path fill="#E11A8E" d="M41.082,18.051c0.01,2.418-0.546,4.177-1.663,5.273c-1.117,1.098-2.916,1.649-5.395,1.657L27.295,25
		c-2.479,0.007-4.282-0.535-5.407-1.626c-1.126-1.091-1.692-2.846-1.701-5.265l-0.04-11.055c-0.008-2.418,0.545-4.176,1.663-5.274
		c1.117-1.096,2.917-1.649,5.395-1.655l6.73-0.02c2.479-0.007,4.281,0.536,5.407,1.626c1.125,1.092,1.692,2.846,1.701,5.264
		L41.082,18.051z M34.667,7.014c-0.006-1.382-0.715-2.071-2.132-2.067L28.64,4.957c-1.417,0.004-2.123,0.697-2.119,2.08
		l0.041,11.055c0.005,1.382,0.716,2.07,2.132,2.066l3.896-0.011c1.417-0.004,2.123-0.696,2.118-2.078L34.667,7.014z"/>
	<path fill="#E11A8E" d="M63.395,17.988c0.008,2.419-0.546,4.177-1.663,5.273c-1.118,1.098-2.917,1.649-5.396,1.656l-6.729,0.02
		c-2.479,0.007-4.281-0.535-5.408-1.627c-1.125-1.09-1.691-2.846-1.7-5.264l-0.04-11.055c-0.009-2.418,0.545-4.176,1.664-5.274
		c1.117-1.096,2.915-1.649,5.395-1.656l6.729-0.019c2.479-0.007,4.281,0.536,5.406,1.625c1.126,1.091,1.693,2.846,1.702,5.264
		L63.395,17.988z M56.979,6.952c-0.004-1.382-0.715-2.071-2.132-2.068l-3.896,0.011c-1.416,0.004-2.123,0.696-2.117,2.079
		l0.04,11.056c0.005,1.382,0.715,2.07,2.131,2.066l3.896-0.011c1.416-0.004,2.123-0.697,2.117-2.078L56.979,6.952z"/>
	<path fill="#E11A8E" d="M71.476,0c3.234-0.009,7.131,0.21,11.689,0.658l0.016,4.664c-1.299-0.065-2.401-0.125-3.311-0.18
		c-0.91-0.055-1.654-0.099-2.232-0.132c-0.579-0.033-1.151-0.071-1.718-0.116c-0.944-0.043-1.819-0.064-2.621-0.062
		c-1.44,0.004-2.158,0.583-2.154,1.734l0.013,3.109c2.287-0.467,4.293-0.703,6.018-0.708l2.478-0.007
		c1.606-0.004,2.894,0.464,3.865,1.405c0.972,0.942,1.461,2.196,1.467,3.762L85,18.619c0.008,2.096-0.53,3.658-1.613,4.686
		c-1.081,1.029-2.779,1.546-5.093,1.553l-6.729,0.018c-2.313,0.007-4.016-0.501-5.105-1.522c-1.091-1.021-1.638-2.581-1.646-4.677
		L64.771,6.584c-0.008-2.257,0.527-3.917,1.611-4.98C67.463,0.542,69.16,0.007,71.476,0z M75.421,13.81
		c-0.897,0.002-1.718,0.051-2.461,0.145c-0.743,0.095-1.34,0.166-1.787,0.213l0.014,3.8c0.004,1.382,0.715,2.071,2.132,2.067
		l3.187-0.01c1.417-0.004,2.123-0.697,2.118-2.079l-0.01-2.936c-0.002-0.346-0.122-0.634-0.358-0.863s-0.532-0.344-0.887-0.343
		L75.421,13.81z"/>
</g>
</svg>
