<?xml version="1.0" encoding="utf-8"?>
<!-- Generator: Adobe Illustrator 16.0.0, SVG Export Plug-In . SVG Version: 6.00 Build 0)  -->
<!DOCTYPE svg PUBLIC "-//W3C//DTD SVG 1.1//EN" "http://www.w3.org/Graphics/SVG/1.1/DTD/svg11.dtd">
<svg version="1.1" id="레이어_1" xmlns="http://www.w3.org/2000/svg" xmlns:xlink="http://www.w3.org/1999/xlink" x="0px"
	 y="0px" width="85px" height="25px" viewBox="0 0 85 25" enable-background="new 0 0 85 25" xml:space="preserve">
<g>
	<path fill="#E11A8E" d="M19.783,7.987c0,1.968-0.879,3.668-2.638,5.104c-0.537,0.439-1.123,0.88-1.758,1.318l-7.877,5.382h12.272
		v4.861H0v-6.597l13.189-9.028V7.292c0-1.389-0.733-2.084-2.198-2.084H0.733v-4.86h11.723c2.565,0,4.428,0.55,5.588,1.648
		c1.158,1.1,1.739,2.865,1.739,5.296V7.987z"/>
	<path fill="#E11A8E" d="M42.499,18.056c0,2.431-0.58,4.196-1.74,5.295C39.599,24.451,37.736,25,35.171,25H28.21
		c-2.564,0-4.427-0.549-5.587-1.649c-1.16-1.099-1.74-2.864-1.74-5.295V6.944c0-2.43,0.58-4.195,1.74-5.295
		C23.783,0.55,25.646,0,28.21,0h6.961c2.565,0,4.428,0.55,5.588,1.649c1.16,1.101,1.74,2.865,1.74,5.295V18.056z M35.904,6.944
		c0-1.389-0.733-2.083-2.198-2.083h-4.03c-1.466,0-2.198,0.695-2.198,2.083v11.111c0,1.389,0.732,2.082,2.198,2.082h4.03
		c1.465,0,2.198-0.693,2.198-2.082V6.944z"/>
	<path fill="#E11A8E" d="M65.58,18.056c0,2.431-0.58,4.196-1.74,5.295C62.679,24.451,60.816,25,58.251,25h-6.959
		c-2.564,0-4.43-0.549-5.59-1.649c-1.159-1.099-1.739-2.864-1.739-5.295V6.944c0-2.43,0.58-4.195,1.739-5.295
		C46.862,0.55,48.728,0,51.292,0h6.959c2.565,0,4.428,0.55,5.589,1.649C65,2.75,65.58,4.514,65.58,6.944V18.056z M58.983,6.944
		c0-1.389-0.732-2.083-2.196-2.083h-4.031c-1.464,0-2.197,0.695-2.197,2.083v11.111c0,1.389,0.733,2.082,2.197,2.082h4.031
		c1.464,0,2.196-0.693,2.196-2.082V6.944z"/>
	<path fill="#E11A8E" d="M65.214,0.348H85v4.86l-8.43,19.444h-7.325l8.792-19.444H65.214V0.348z"/>
</g>
</svg>
