<?xml version="1.0" encoding="utf-8"?>
<!-- Generator: Adobe Illustrator 16.0.0, SVG Export Plug-In . SVG Version: 6.00 Build 0)  -->
<!DOCTYPE svg PUBLIC "-//W3C//DTD SVG 1.1//EN" "http://www.w3.org/Graphics/SVG/1.1/DTD/svg11.dtd">
<svg version="1.1" id="레이어_1" xmlns="http://www.w3.org/2000/svg" xmlns:xlink="http://www.w3.org/1999/xlink" x="0px"
	 y="0px" width="222px" height="222px" viewBox="0 0 222 222" enable-background="new 0 0 222 222" xml:space="preserve">
<circle fill="#FFFFFF" cx="111" cy="111" r="111"/>
<g>
	<g enable-background="new    ">
		<path fill="#E11A8E" d="M69.136,68.233c0,3.091-1.326,5.764-3.977,8.018c-0.81,0.691-1.694,1.382-2.651,2.073l-11.874,8.454
			h18.501v7.636H39.313V84.05l19.882-14.18v-2.727c0-2.182-1.104-3.272-3.314-3.272H40.417v-7.636H58.09
			c3.866,0,6.673,0.864,8.422,2.591c1.749,1.728,2.624,4.5,2.624,8.317V68.233z"/>
		<path fill="#E11A8E" d="M105.586,84.05c0,3.818-0.875,6.591-2.623,8.317c-1.75,1.728-4.557,2.591-8.422,2.591H84.047
			c-3.866,0-6.674-0.863-8.422-2.591c-1.749-1.727-2.624-4.5-2.624-8.317V66.597c0-3.818,0.875-6.59,2.624-8.317
			c1.748-1.727,4.556-2.591,8.422-2.591H94.54c3.866,0,6.673,0.864,8.422,2.591c1.748,1.728,2.623,4.5,2.623,8.317L105.586,84.05
			L105.586,84.05z M95.645,66.597c0-2.182-1.104-3.272-3.313-3.272h-6.075c-2.209,0-3.313,1.091-3.313,3.272V84.05
			c0,2.182,1.104,3.272,3.313,3.272h6.075c2.209,0,3.313-1.091,3.313-3.272V66.597z"/>
		<path fill="#E11A8E" d="M142.588,84.05c0,3.818-0.875,6.591-2.623,8.317c-1.749,1.728-4.557,2.591-8.422,2.591H121.05
			c-3.866,0-6.675-0.863-8.423-2.591c-1.749-1.727-2.623-4.5-2.623-8.317V66.597c0-3.818,0.875-6.59,2.623-8.317
			c1.748-1.727,4.557-2.591,8.423-2.591h10.493c3.865,0,6.673,0.864,8.422,2.591c1.748,1.728,2.623,4.5,2.623,8.317V84.05z
			 M132.646,66.597c0-2.182-1.104-3.272-3.313-3.272h-6.075c-2.209,0-3.313,1.091-3.313,3.272V84.05
			c0,2.182,1.104,3.272,3.313,3.272h6.075c2.209,0,3.313-1.091,3.313-3.272V66.597z"/>
		<path fill="#E11A8E" d="M148.664,86.505c7.584,0.545,12.924,0.818,16.016,0.818c0.848,0,1.521-0.246,2.016-0.736
			c0.498-0.491,0.746-1.154,0.746-1.991v-4.909c-3.571,0.728-6.7,1.091-9.389,1.091h-3.865c-2.506,0-4.512-0.745-6.021-2.236
			c-1.511-1.49-2.265-3.472-2.265-5.945v-7.09c0-3.308,0.847-5.772,2.541-7.39c1.691-1.618,4.344-2.427,7.951-2.427h10.494
			c3.607,0,6.26,0.81,7.952,2.427c1.693,1.618,2.541,4.082,2.541,7.39v19.089c0,3.564-0.848,6.182-2.541,7.854
			c-1.692,1.673-4.345,2.509-7.952,2.509c-5.046,0-11.119-0.364-18.226-1.091L148.664,86.505L148.664,86.505z M160.814,73.142
			c2.098,0,4.307-0.182,6.627-0.545v-6c0-2.182-1.104-3.272-3.314-3.272h-4.97c-2.209,0-3.313,1.091-3.313,3.272v4.636
			c0,0.545,0.184,1,0.553,1.363c0.367,0.364,0.828,0.545,1.381,0.545L160.814,73.142L160.814,73.142z"/>
	</g>
	<g enable-background="new    ">
		<path fill="#E11A8E" d="M77.006,150.045c0,3.092-1.326,5.764-3.977,8.018c-0.81,0.691-1.694,1.383-2.651,2.072l-11.874,8.454
			h18.501v7.636H47.183v-10.363l19.882-14.18v-2.728c0-2.183-1.104-3.272-3.314-3.272H48.287v-7.636H65.96
			c3.866,0,6.673,0.864,8.422,2.591c1.749,1.729,2.624,4.5,2.624,8.317V150.045z"/>
		<path fill="#E11A8E" d="M113.456,165.861c0,3.818-0.875,6.592-2.623,8.318c-1.75,1.727-4.557,2.59-8.422,2.59H91.917
			c-3.866,0-6.674-0.863-8.422-2.59c-1.749-1.728-2.624-4.5-2.624-8.318v-17.453c0-3.817,0.875-6.59,2.624-8.316
			c1.748-1.727,4.556-2.592,8.422-2.592h10.493c3.866,0,6.673,0.865,8.422,2.592c1.748,1.727,2.623,4.499,2.623,8.316
			L113.456,165.861L113.456,165.861z M103.515,148.408c0-2.182-1.104-3.271-3.313-3.271h-6.075c-2.209,0-3.313,1.09-3.313,3.271
			v17.453c0,2.182,1.104,3.272,3.313,3.272h6.075c2.209,0,3.313-1.092,3.313-3.272V148.408z"/>
		<path fill="#E11A8E" d="M124.777,176.225V146.5l-6.353,2.182l-2.761-6.271l10.218-4.363h8.836v38.18h-9.94V176.225z"/>
		<path fill="#E11A8E" d="M159.57,176.77c-6.148,0-12.959-0.362-20.434-1.09v-7.363c8.137,0.545,14.211,0.818,18.225,0.818
			c0.848,0,1.52-0.246,2.017-0.736s0.745-1.153,0.745-1.99v-2.182c0-2.183-1.104-3.272-3.313-3.272h-11.599v-7.636h10.493
			c2.209,0,3.314-1.092,3.314-3.272v-1.091c0-2.182-1.105-3.271-3.314-3.271h-16.016v-7.637h18.776c3.607,0,6.259,0.811,7.953,2.428
			c1.692,1.618,2.54,4.082,2.54,7.391c0,2.182-0.507,3.953-1.52,5.318c-1.014,1.362-2.348,2.316-4.004,2.862
			c2.982,0.8,5.006,2.765,6.074,5.892c0.368,1.127,0.553,2.436,0.553,3.926v0.546c0,3.563-0.848,6.183-2.541,7.854
			C165.829,175.934,163.18,176.77,159.57,176.77z"/>
	</g>
	<rect x="31" y="113" fill="#E11A8E" width="161" height="8"/>
</g>
</svg>
