<?xml version="1.0" encoding="utf-8"?>
<!-- Generator: Adobe Illustrator 16.0.0, SVG Export Plug-In . SVG Version: 6.00 Build 0)  -->
<!DOCTYPE svg PUBLIC "-//W3C//DTD SVG 1.1//EN" "http://www.w3.org/Graphics/SVG/1.1/DTD/svg11.dtd">
<svg version="1.1" id="레이어_1" xmlns="http://www.w3.org/2000/svg" xmlns:xlink="http://www.w3.org/1999/xlink" x="0px"
	 y="0px" width="974px" height="572px" viewBox="0 0 974 572" enable-background="new 0 0 974 572" xml:space="preserve">
<path fill="#E11A8E" d="M283.904,228.811c-84.654,15.548-113.085-107.63-115.503-119.571c-9.229-45.577-37.699-84.2-84.201-84.2
	C37.698,25.04,0,62.738,0,109.24c0,41.22,29.602,75.646,68.745,82.759C191.93,214.386,176.136,321.24,179.963,352.148
	c7.541,60.892,54.212,109.877,116.339,109.877c53.915,0,100.298-36.278,108.072-97.015c7.775-60.735-3.021-147.218,66.627-149.208
	c47.24-1.349,77.486,43.388,59.99,211.756C521.907,514.989,591.341,572,660.093,572c55.161,0,110.011-39.852,124.111-90.156
	c19.416-69.271-15.461-109.761,26.38-179.945c32.835-55.076,70.186-43.188,117.757-82.24C956.372,196.646,974,164.417,974,126.542
	c0-65.048-52.734-117.78-117.783-117.78c-65.047,0-117.781,52.732-117.781,117.78c0,24.585,9.828,169.695-87.719,170.449
	c-87.77,0.68-101.077-160.769-106.853-196.507C534.981,45.522,497.435,0,441.53,0c-56.531,0-102.358,45.827-102.358,102.356
	C339.172,130.751,336.688,219.115,283.904,228.811z"/>
</svg>
