<?xml version="1.0" encoding="utf-8"?>
<!-- Generator: Adobe Illustrator 16.0.0, SVG Export Plug-In . SVG Version: 6.00 Build 0)  -->
<!DOCTYPE svg PUBLIC "-//W3C//DTD SVG 1.1//EN" "http://www.w3.org/Graphics/SVG/1.1/DTD/svg11.dtd">
<svg version="1.1" id="레이어_1" xmlns="http://www.w3.org/2000/svg" xmlns:xlink="http://www.w3.org/1999/xlink" x="0px"
	 y="0px" width="141px" height="141px" viewBox="0 0 141 141" enable-background="new 0 0 141 141" xml:space="preserve">
<circle fill="#FFFFFF" cx="70.5" cy="70.5" r="70.5"/>
<g>
	<g enable-background="new    ">
		<path fill="#E11A8E" d="M36.363,54.412V35.677l-3.917,1.375l-1.703-3.954l6.3-2.75h5.449v24.064H36.363z"/>
		<path fill="#E11A8E" d="M46.92,49.427c4.677,0.344,7.969,0.516,9.875,0.516c0.522,0,0.937-0.154,1.243-0.464
			s0.46-0.728,0.46-1.255V45.13c-2.203,0.458-4.132,0.688-5.79,0.688h-2.384c-1.544,0-2.781-0.47-3.712-1.41
			c-0.931-0.939-1.396-2.188-1.396-3.747v-4.469c0-2.085,0.522-3.638,1.566-4.658c1.044-1.02,2.679-1.53,4.904-1.53h6.47
			c2.225,0,3.859,0.51,4.904,1.53c1.044,1.02,1.566,2.573,1.566,4.658v12.032c0,2.247-0.522,3.896-1.566,4.95
			c-1.044,1.055-2.679,1.582-4.904,1.582c-3.11,0-6.856-0.229-11.238-0.688V49.427z M54.412,41.005c1.294,0,2.656-0.114,4.087-0.344
			V36.88c0-1.375-0.681-2.063-2.043-2.063H53.39c-1.362,0-2.043,0.688-2.043,2.063v2.922c0,0.344,0.113,0.631,0.34,0.859
			c0.227,0.229,0.511,0.344,0.852,0.344H54.412z"/>
		<path fill="#E11A8E" d="M68.374,49.427c4.677,0.344,7.968,0.516,9.875,0.516c0.522,0,0.937-0.154,1.243-0.464
			s0.46-0.728,0.46-1.255V45.13c-2.202,0.458-4.132,0.688-5.79,0.688h-2.383c-1.544,0-2.782-0.47-3.712-1.41
			c-0.931-0.939-1.396-2.188-1.396-3.747v-4.469c0-2.085,0.522-3.638,1.566-4.658c1.044-1.02,2.679-1.53,4.903-1.53h6.471
			c2.225,0,3.859,0.51,4.904,1.53c1.043,1.02,1.566,2.573,1.566,4.658v12.032c0,2.247-0.523,3.896-1.566,4.95
			c-1.045,1.055-2.68,1.582-4.904,1.582c-3.11,0-6.856-0.229-11.238-0.688V49.427z M75.865,41.005c1.295,0,2.656-0.114,4.087-0.344
			V36.88c0-1.375-0.681-2.063-2.044-2.063h-3.064c-1.362,0-2.043,0.688-2.043,2.063v2.922c0,0.344,0.113,0.631,0.34,0.859
			c0.227,0.229,0.512,0.344,0.852,0.344H75.865z"/>
		<path fill="#E11A8E" d="M100.725,49.599h-12.6v-4.813l8.172-14.438h6.812l-8.173,14.438h5.789V39.63h6.129v5.157h2.385v4.813
			h-2.385v4.813h-6.129V49.599z"/>
	</g>
	<g enable-background="new    ">
		<path fill="#E11A8E" d="M36.363,105.979V87.243l-3.917,1.375l-1.703-3.954l6.3-2.75h5.449v24.064H36.363z"/>
		<path fill="#E11A8E" d="M46.92,100.994c4.677,0.344,7.969,0.516,9.875,0.516c0.522,0,0.937-0.154,1.243-0.465
			c0.307-0.309,0.46-0.727,0.46-1.254v-3.094c-2.203,0.458-4.132,0.688-5.79,0.688h-2.384c-1.544,0-2.781-0.471-3.712-1.41
			c-0.931-0.939-1.396-2.188-1.396-3.747v-4.469c0-2.085,0.522-3.638,1.566-4.658c1.044-1.02,2.679-1.53,4.904-1.53h6.47
			c2.225,0,3.859,0.511,4.904,1.53c1.044,1.021,1.566,2.573,1.566,4.658v12.032c0,2.246-0.522,3.896-1.566,4.949
			c-1.044,1.055-2.679,1.582-4.904,1.582c-3.11,0-6.856-0.229-11.238-0.688V100.994z M54.412,92.571
			c1.294,0,2.656-0.114,4.087-0.344v-3.781c0-1.375-0.681-2.063-2.043-2.063H53.39c-1.362,0-2.043,0.688-2.043,2.063v2.922
			c0,0.344,0.113,0.631,0.34,0.859c0.227,0.229,0.511,0.344,0.852,0.344H54.412z"/>
		<path fill="#E11A8E" d="M68.374,100.994c4.677,0.344,7.968,0.516,9.875,0.516c0.522,0,0.937-0.154,1.243-0.465
			c0.307-0.309,0.46-0.727,0.46-1.254v-3.094c-2.202,0.458-4.132,0.688-5.79,0.688h-2.383c-1.544,0-2.782-0.471-3.712-1.41
			c-0.931-0.939-1.396-2.188-1.396-3.747v-4.469c0-2.085,0.522-3.638,1.566-4.658c1.044-1.02,2.679-1.53,4.903-1.53h6.471
			c2.225,0,3.859,0.511,4.904,1.53c1.043,1.021,1.566,2.573,1.566,4.658v12.032c0,2.246-0.523,3.896-1.566,4.949
			c-1.045,1.055-2.68,1.582-4.904,1.582c-3.11,0-6.856-0.229-11.238-0.688V100.994z M75.865,92.571c1.295,0,2.656-0.114,4.087-0.344
			v-3.781c0-1.375-0.681-2.063-2.044-2.063h-3.064c-1.362,0-2.043,0.688-2.043,2.063v2.922c0,0.344,0.113,0.631,0.34,0.859
			c0.227,0.229,0.512,0.344,0.852,0.344H75.865z"/>
		<path fill="#E11A8E" d="M109.238,99.791c0,2.246-0.523,3.896-1.566,4.949c-1.045,1.055-2.68,1.582-4.904,1.582h-7.832
			c-2.226,0-3.86-0.527-4.904-1.582c-1.045-1.053-1.566-2.703-1.566-4.949v-0.344c0-1.742,0.432-3.186,1.295-4.332
			c0.68-0.916,1.611-1.535,2.791-1.856c-1.021-0.344-1.844-0.945-2.469-1.805c-0.624-0.859-0.936-1.977-0.936-3.352v-0.344
			c0-2.085,0.521-3.638,1.566-4.658c1.043-1.02,2.678-1.53,4.903-1.53h6.47c2.226,0,3.859,0.511,4.904,1.53
			c1.044,1.021,1.566,2.573,1.566,4.658v0.344c0,1.375-0.313,2.492-0.936,3.352c-0.625,0.859-1.448,1.461-2.47,1.805
			c1.839,0.505,3.087,1.742,3.746,3.713c0.227,0.71,0.341,1.536,0.341,2.476V99.791z M96.639,96.354
			c-1.363,0-2.044,0.688-2.044,2.063v1.375c0,0.527,0.153,0.945,0.46,1.254c0.307,0.311,0.721,0.465,1.242,0.465h5.109
			c0.521,0,0.936-0.154,1.242-0.465c0.307-0.309,0.46-0.727,0.46-1.254v-1.375c0-1.375-0.681-2.063-2.044-2.063H96.639z
			 M97.318,86.383c-1.361,0-2.043,0.688-2.043,2.063v1.031c0,1.375,0.682,2.063,2.043,2.063h3.065c1.362,0,2.044-0.688,2.044-2.063
			v-1.031c0-1.375-0.682-2.063-2.044-2.063H97.318z"/>
	</g>
	<rect x="20" y="65" fill="#E11A8E" width="101" height="6"/>
</g>
</svg>
