<?xml version="1.0" encoding="utf-8"?>
<!-- Generator: Adobe Illustrator 16.0.0, SVG Export Plug-In . SVG Version: 6.00 Build 0)  -->
<!DOCTYPE svg PUBLIC "-//W3C//DTD SVG 1.1//EN" "http://www.w3.org/Graphics/SVG/1.1/DTD/svg11.dtd">
<svg version="1.1" id="레이어_1" xmlns="http://www.w3.org/2000/svg" xmlns:xlink="http://www.w3.org/1999/xlink" x="0px"
	 y="0px" width="256px" height="256px" viewBox="0 0 256 256" enable-background="new 0 0 256 256" xml:space="preserve">
<path fill="#FFFFFF" stroke="#000000" stroke-miterlimit="10" d="M125.176,206.564l1.754,0.127l-6.095,11.982l-0.399-0.029
	l-4.41-12.741l1.773,0.128l3.077,8.909L125.176,206.564z"/>
<path fill="#FFFFFF" stroke="#000000" stroke-miterlimit="10" d="M128.604,218.781l-0.948-12.301l3.082-0.237
	c1.244-0.097,2.256,0.136,3.034,0.695s1.208,1.366,1.289,2.417c0.055,0.717-0.076,1.35-0.395,1.898
	c-0.317,0.551-0.801,0.98-1.45,1.291c0.413,0.229,0.825,0.55,1.234,0.967c0.41,0.418,0.999,1.154,1.765,2.211
	c0.482,0.666,0.866,1.166,1.152,1.497l0.72,0.831l-2.097,0.161l-0.599-0.769c-0.02-0.029-0.059-0.076-0.117-0.143l-0.38-0.458
	l-0.614-0.856l-0.663-0.914c-0.402-0.479-0.767-0.854-1.093-1.131c-0.325-0.274-0.615-0.469-0.87-0.582
	c-0.253-0.112-0.668-0.146-1.244-0.103l-0.458,0.035l0.413,5.354L128.604,218.781z M130.06,207.801l-0.527,0.041l0.3,3.883
	l0.669-0.051c0.892-0.069,1.498-0.193,1.816-0.371c0.32-0.178,0.562-0.429,0.723-0.75c0.161-0.324,0.227-0.682,0.196-1.074
	c-0.03-0.389-0.159-0.73-0.389-1.029c-0.23-0.298-0.536-0.496-0.919-0.598S130.923,207.734,130.06,207.801z"/>
<path fill="#FFFFFF" stroke="#000000" stroke-miterlimit="10" d="M137.479,142.43c0.207-15.121-4.431-15.459-13.729-17.729
	c-17.602-4.298-35.214-8.554-52.826-12.814c-7.807-1.888-12.891,2.011-13.133,10.29c-0.183,6.232-0.172,12.476-0.014,18.708
	c0.198,7.799,4.719,14.481,11.626,16.234c18.777,4.767,37.61,9.315,56.481,13.676c6.552,1.515,11.359-2.775,11.571-9.655
	c0.102-3.356,0.017-6.717,0.021-10.074C137.481,148.187,137.44,145.308,137.479,142.43"/>
<path fill="#FFFFFF" stroke="#000000" stroke-miterlimit="10" d="M113.434,107.325c13.697,1.128,27.443,1.636,41.137,2.799
	c9.604,0.816,14.156,6.153,14.357,16.046c0.137,6.659,0.026,13.324,0.026,19.986c1.095-2.22,2.331-4.751,2.1-7.136
	c-0.438-4.543,1.555-6.767,5.126-8.899c3.872-2.313,7.358-5.36,10.774-8.371c1.181-1.041,2.27-2.908,2.322-4.438
	c0.176-5.093,0.152-10.234-0.346-15.3c-0.501-5.103-2.86-8.193-6.708-10.226c5.565,7.613,5.073,11.696-2.416,17.008
	c-3.427,2.43-7.168,4.398-10.907,6.661c-4.161-5.62-9.515-7.836-15.716-8.159c-7.646-0.399-15.299-0.7-22.944-1.108
	c-2.625-0.14-5.24-0.477-7.859-0.724c27.773-8.577,41.148-7.021,48.202-3.566c1.824,0.893,8.467,4.481,11.417,1.965
	c1.648-1.405,1.896-4.484,1.163-6.661c-0.845-2.517-2.899-3.963-4.953-5.13c-7.848-4.462-15.031-4.828-15.031-4.828
	c-19.345-2.531-37.853,1.546-55.916,8.459c-5.134,1.965-10.413,3.531-15.679,5.298C97.919,104.525,105.522,106.674,113.434,107.325"
	/>
<path fill="#FFFFFF" stroke="#000000" stroke-miterlimit="10" d="M158.843,152.437c2.253-1.98,4.04-5.552,4.354-8.583
	c0.617-5.986,0.418-12.132-0.101-18.151c-0.656-7.653-4.681-11.448-12.082-12.045c-6.071-0.491-12.164-0.683-18.246-1.048
	c-13.996-0.839-28.393-0.096-41.369-6.389c-6.971-3.381-12.699-1.215-19.076,1.156c10.708,3.284,21.5,6.012,32.397,8.193
	c10.85,2.171,21.815,3.725,32.707,5.688c3.922,0.707,6.511,3.456,7.286,7.279c2.356,11.591,3.38,23.195-2.077,35.568
	C148.584,159.915,154.086,156.618,158.843,152.437"/>
</svg>
