<?xml version="1.0" encoding="utf-8"?>
<!-- Generator: Adobe Illustrator 16.0.0, SVG Export Plug-In . SVG Version: 6.00 Build 0)  -->
<!DOCTYPE svg PUBLIC "-//W3C//DTD SVG 1.1//EN" "http://www.w3.org/Graphics/SVG/1.1/DTD/svg11.dtd">
<svg version="1.1" id="레이어_1" xmlns="http://www.w3.org/2000/svg" xmlns:xlink="http://www.w3.org/1999/xlink" x="0px"
	 y="0px" width="1920px" height="1080px" viewBox="0 0 1920 1080" enable-background="new 0 0 1920 1080" xml:space="preserve">
<path fill="#CCCCCC" stroke="#6AB3DF" stroke-width="2" stroke-miterlimit="10" d="M821.353,136.372
	c10.084-12.189,35.588-28.551,34.051-34.054c-1.539-5.504-20.176-2.162-41.837-3.643c-21.661-1.481-132.658,3.081-146.343,6.882
	c-13.684,3.801-41.544,9.258-31.646,19.144c4.253,4.399,21.809,4.42,27.563,5.141c16.621,2.081-3.347,52.23,3.074,71.679
	c2.406,7.289,8.35,15.86,17.514,16.062c12.216,0.269,11.914-5.102,19.448-13.62c5.138-5.807,11.548-14.154,18.005-17.985
	c7.584-4.5,18.777-1.732,26.304-6.665C762.084,169.744,811.267,148.56,821.353,136.372z"/>
</svg>
