<?xml version="1.0" encoding="utf-8"?>
<!-- Generator: Adobe Illustrator 16.0.0, SVG Export Plug-In . SVG Version: 6.00 Build 0)  -->
<!DOCTYPE svg PUBLIC "-//W3C//DTD SVG 1.1//EN" "http://www.w3.org/Graphics/SVG/1.1/DTD/svg11.dtd">
<svg version="1.1" id="레이어_1" xmlns="http://www.w3.org/2000/svg" xmlns:xlink="http://www.w3.org/1999/xlink" x="0px"
	 y="0px" width="1920px" height="1080px" viewBox="0 0 1920 1080" enable-background="new 0 0 1920 1080" xml:space="preserve">
<path fill="#DFDFDF" stroke="#9CC784" stroke-width="2" stroke-miterlimit="10" d="M622.32,128.433
	c7.288,8.446,31.118,3.525,37.159,4.281c17.445,2.184-2.43,52.95,2.485,77.463c1.575,7.854,7.121,18.272,16.739,18.484
	c12.823,0.283,15.951-5.081,24.739-16.883c4.847-6.509,10.751-19.06,17.527-23.082c7.962-4.724,20.673-0.792,28.573-5.969
	c15.325-10.042,76.934-32.154,88.628-46.041c11.904-14.132,58.286-26.779,55.025-47.027c-1.823-11.319-46.183-5.267-68.919-6.822
	c-22.736-1.555-141.809,9.451-156.171,13.441C653.745,100.268,606.938,110.607,622.32,128.433z"/>
</svg>
