<?xml version="1.0" encoding="utf-8"?>
<!-- Generator: Adobe Illustrator 16.0.0, SVG Export Plug-In . SVG Version: 6.00 Build 0)  -->
<!DOCTYPE svg PUBLIC "-//W3C//DTD SVG 1.1//EN" "http://www.w3.org/Graphics/SVG/1.1/DTD/svg11.dtd">
<svg version="1.1" id="레이어_1" xmlns="http://www.w3.org/2000/svg" xmlns:xlink="http://www.w3.org/1999/xlink" x="0px"
	 y="0px" width="1920px" height="1080px" viewBox="0 0 1920 1080" enable-background="new 0 0 1920 1080" xml:space="preserve">
<path fill="#D6D6D6" stroke="#83BDB1" stroke-width="2" stroke-miterlimit="10" d="M1681.526,667.621
	c-10.653,0.633-7.701,40.486-14.803,41.664c-7.104,1.178-20.766-10.717-22.691-16.107c-1.93-5.392,11.43-12.458,8.624-18.886
	c-9.53-21.832-36.037,19.283-53.082,16.942c-24.901-3.42-38.847,13.728-44.593,30.916c-6.504,19.446-43.865,3.864-51.896,30.144
	c-4.207,13.772,4.449,22.401,2.307,35.351c-0.453,2.747-20.533,26.571-12.666,43.819c9.11,19.924,51.064-7.092,65.467-15.948
	c47.746-29.36,65.305,58.475,118.832,33.914c14.404-6.607,40.039-36.432,48.562-50.604c16.494-27.427,4.17-45.868-9.454-72.228
	C1706.633,704.836,1694.209,666.868,1681.526,667.621z"/>
</svg>
