<?xml version="1.0" encoding="utf-8"?>
<!-- Generator: Adobe Illustrator 16.0.0, SVG Export Plug-In . SVG Version: 6.00 Build 0)  -->
<!DOCTYPE svg PUBLIC "-//W3C//DTD SVG 1.1//EN" "http://www.w3.org/Graphics/SVG/1.1/DTD/svg11.dtd">
<svg version="1.1" id="레이어_1" xmlns="http://www.w3.org/2000/svg" xmlns:xlink="http://www.w3.org/1999/xlink" x="0px"
	 y="0px" width="7680px" height="2560px" viewBox="0 0 7680 2560" enable-background="new 0 0 7680 2560" xml:space="preserve">
<path fill="#FFFFFF" stroke="#000000" stroke-miterlimit="10" d="M5073.958,2236.734c-425.699,0-877.214-29.305-1342.002-87.099
	c-432.292-53.753-848.796-128.879-1237.943-223.29c-375.886-91.193-710.566-196.451-994.745-312.848
	c-140.038-57.358-266.237-117.007-375.092-177.286c-109.92-60.869-203.12-122.924-277.012-184.438
	c-75.301-62.687-131.323-125.468-166.513-186.601c-36.156-62.814-50.757-124.673-43.398-183.858
	C658.404,711.213,859.32,568.938,1218.28,469.87c172.995-47.744,379.558-84.619,613.949-109.6
	c235.631-25.113,496.077-37.847,774.1-37.847c425.698,0,877.213,29.304,1342,87.098
	c432.292,53.753,848.796,128.879,1237.944,223.291c375.886,91.193,710.565,196.451,994.745,312.849
	c140.038,57.358,266.237,117.005,375.093,177.286c109.92,60.87,203.119,122.923,277.012,184.437
	c75.301,62.688,131.323,125.469,166.512,186.603c36.156,62.813,50.758,124.672,43.398,183.857
	c-21.151,170.102-222.067,312.376-581.028,411.444c-172.994,47.744-379.557,84.619-613.948,109.601
	C5612.426,2224,5351.981,2236.734,5073.958,2236.734z M2606.33,324.423c-558.381,0-1038.177,50.961-1387.517,147.374
	c-358.118,98.836-558.531,240.53-579.575,409.764c-14.544,116.963,55.843,241.003,209.205,368.675
	c148.321,123.476,367.545,245.072,651.583,361.411c584.269,239.311,1377.004,429.667,2232.177,536.003
	c464.707,57.784,916.138,87.084,1341.755,87.084c558.381,0,1038.177-50.962,1387.517-147.375
	c358.117-98.835,558.531-240.529,579.575-409.764c14.544-116.963-55.844-241.003-209.205-368.675
	c-148.321-123.475-367.545-245.071-651.584-361.411c-584.268-239.311-1377.004-429.667-2232.177-536.004
	C3483.377,353.722,3031.946,324.423,2606.33,324.423z"/>
</svg>
