<?xml version="1.0" encoding="utf-8"?>
<!-- Generator: Adobe Illustrator 16.0.0, SVG Export Plug-In . SVG Version: 6.00 Build 0)  -->
<!DOCTYPE svg PUBLIC "-//W3C//DTD SVG 1.1//EN" "http://www.w3.org/Graphics/SVG/1.1/DTD/svg11.dtd">
<svg version="1.1" id="레이어_1" xmlns="http://www.w3.org/2000/svg" xmlns:xlink="http://www.w3.org/1999/xlink" x="0px"
	 y="0px" width="7680px" height="2560px" viewBox="0 0 7680 2560" enable-background="new 0 0 7680 2560" xml:space="preserve">
<path fill="#FFFFFF" stroke="#000000" stroke-miterlimit="10" d="M5010.196,2187.323c-403.702,0-831.885-27.79-1272.655-82.598
	c-409.953-50.976-804.935-122.22-1173.975-211.752c-356.463-86.481-673.85-186.3-943.345-296.683
	c-132.803-54.395-252.482-110.961-355.714-168.127c-104.242-57.726-192.628-116.575-262.704-174.912
	c-71.414-59.452-124.545-118.993-157.919-176.972c-34.293-59.578-48.142-118.251-41.162-174.389
	c20.062-161.334,210.608-296.272,551.04-390.227c164.058-45.277,359.948-80.247,582.229-103.938
	c223.457-23.815,470.444-35.891,734.102-35.891c403.7,0,831.882,27.789,1272.651,82.597
	c409.954,50.976,804.936,122.219,1173.975,211.752c356.463,86.481,673.851,186.3,943.346,296.682
	c132.804,54.396,252.482,110.961,355.714,168.127c104.242,57.726,192.628,116.575,262.704,174.913
	c71.414,59.45,124.546,118.993,157.919,176.972c34.294,59.578,48.143,118.251,41.162,174.389
	c-20.061,161.334-210.607,296.272-551.039,390.228c-164.057,45.277-359.946,80.246-582.228,103.938
	C5520.841,2175.248,5273.854,2187.323,5010.196,2187.323z M2670.094,373.836c-529.52,0-984.516,48.327-1315.799,139.757
	c-339.59,93.721-529.634,228.078-549.587,388.544c-13.79,110.901,52.953,228.516,198.375,349.577
	c140.652,117.091,348.542,232.4,617.896,342.726c554.07,226.942,1305.834,407.46,2116.808,508.301
	c440.689,54.797,868.789,82.582,1272.409,82.582c529.521,0,984.516-48.327,1315.798-139.757
	c339.589-93.722,529.633-228.079,549.586-388.545c13.79-110.9-52.953-228.516-198.376-349.577
	c-140.652-117.091-348.542-232.4-617.896-342.726c-554.07-226.942-1305.834-407.46-2116.809-508.301
	C3501.811,401.621,3073.711,373.836,2670.094,373.836z"/>
</svg>
