<?xml version="1.0" encoding="utf-8"?>
<!-- Generator: Adobe Illustrator 16.0.0, SVG Export Plug-In . SVG Version: 6.00 Build 0)  -->
<!DOCTYPE svg PUBLIC "-//W3C//DTD SVG 1.1//EN" "http://www.w3.org/Graphics/SVG/1.1/DTD/svg11.dtd">
<svg version="1.1" id="레이어_1" xmlns="http://www.w3.org/2000/svg" xmlns:xlink="http://www.w3.org/1999/xlink" x="0px"
	 y="0px" width="7680px" height="2560px" viewBox="0 0 7680 2560" enable-background="new 0 0 7680 2560" xml:space="preserve">
<path fill="#FFFFFF" stroke="#000000" stroke-miterlimit="10" d="M4733.229,1972.684c-308.149,0-634.986-21.212-971.432-63.048
	c-312.92-38.909-614.414-93.291-896.105-161.632c-272.095-66.013-514.362-142.207-720.075-226.465
	c-205.761-84.278-364.597-172.386-472.093-261.874c-54.53-45.396-95.103-90.865-120.591-135.144
	c-26.202-45.521-36.782-90.354-31.448-133.257c15.325-123.245,160.826-226.312,420.772-298.053
	c253.014-69.829,600.468-106.737,1004.799-106.737c308.15,0,634.986,21.211,971.431,63.048
	c312.92,38.909,614.414,93.291,896.104,161.632c272.095,66.013,514.362,142.207,720.077,226.465
	c205.762,84.277,364.596,172.385,472.092,261.874c54.531,45.396,95.104,90.865,120.591,135.145
	c26.203,45.521,36.783,90.354,31.448,133.257c-15.325,123.245-160.825,226.311-420.771,298.053
	C5485.017,1935.774,5137.563,1972.684,4733.229,1972.684z M2947.058,588.475c-404.153,0-751.424,36.885-1004.268,106.665
	c-259.104,71.511-404.104,173.993-419.318,296.372c-10.516,84.563,40.4,174.267,151.334,266.616
	c107.338,89.358,265.997,177.36,471.57,261.56c422.895,173.216,996.686,310.996,1615.67,387.965
	c336.363,41.824,663.117,63.031,971.186,63.031c404.154,0,751.424-36.885,1004.268-106.665
	c259.104-71.51,404.102-173.993,419.318-296.372c10.515-84.563-40.401-174.267-151.334-266.615
	c-107.34-89.358-266-177.36-471.571-261.561c-422.896-173.214-996.685-310.995-1615.671-387.963
	C3581.878,609.682,3255.125,588.475,2947.058,588.475z"/>
</svg>
