<?xml version="1.0" encoding="utf-8"?>
<!-- Generator: Adobe Illustrator 16.0.0, SVG Export Plug-In . SVG Version: 6.00 Build 0)  -->
<!DOCTYPE svg PUBLIC "-//W3C//DTD SVG 1.1//EN" "http://www.w3.org/Graphics/SVG/1.1/DTD/svg11.dtd">
<svg version="1.1" id="레이어_1" xmlns="http://www.w3.org/2000/svg" xmlns:xlink="http://www.w3.org/1999/xlink" x="0px"
	 y="0px" width="256px" height="256px" viewBox="0 0 256 256" enable-background="new 0 0 256 256" xml:space="preserve">
<path fill="#FFFFFF" stroke="#000000" stroke-miterlimit="10" d="M147.363,254.774l-75.643-75.644H25.243V76.996h46.478
	l75.643-75.654V254.774z M47.406,156.968h33.493l44.305,44.306V54.844L80.898,99.159H47.406V156.968z"/>
<path fill="#FFFFFF" stroke="#000000" stroke-miterlimit="10" d="M162.924,170.238v-21.994c12.2,0,22.134-9.935,22.134-22.145
	s-9.934-22.145-22.134-22.145V81.96c24.334,0,44.128,19.804,44.128,44.139S187.258,170.238,162.924,170.238z"/>
<path fill="#FFFFFF" stroke="#000000" stroke-miterlimit="10" d="M162.924,203.393v-21.996c30.477,0,55.273-24.808,55.273-55.297
	c0-30.489-24.797-55.286-55.273-55.286V48.818c42.601,0,77.271,34.667,77.271,77.281S205.524,203.393,162.924,203.393z"/>
</svg>
