<?xml version="1.0" encoding="utf-8"?>
<!-- Generator: Adobe Illustrator 16.0.0, SVG Export Plug-In . SVG Version: 6.00 Build 0)  -->
<!DOCTYPE svg PUBLIC "-//W3C//DTD SVG 1.1//EN" "http://www.w3.org/Graphics/SVG/1.1/DTD/svg11.dtd">
<svg version="1.1" id="레이어_1" xmlns="http://www.w3.org/2000/svg" xmlns:xlink="http://www.w3.org/1999/xlink" x="0px"
	 y="0px" width="7680px" height="2560px" viewBox="0 0 7680 2560" enable-background="new 0 0 7680 2560" xml:space="preserve">
<path fill="#FFFFFF" stroke="#000000" stroke-miterlimit="10" d="M5193.076,2329.47c-466.794,0-961.896-32.133-1471.554-95.506
	c-474.022-58.943-930.735-141.321-1357.45-244.847c-205.095-49.759-402.099-104.276-585.538-162.041
	c-181.703-57.216-351.688-118.116-505.23-181.006c-153.556-62.896-291.936-128.301-411.297-194.398
	c-120.525-66.743-222.719-134.784-303.74-202.233c-82.562-68.731-143.985-137.566-182.566-204.592
	c-39.636-68.859-55.645-136.671-47.576-201.549c11.753-94.52,74.017-181.541,185.063-258.646
	c107.371-74.554,259.442-139.3,451.992-192.441c189.691-52.353,416.191-92.786,673.207-120.178
	c258.377-27.537,543.965-41.5,848.826-41.5c466.793,0,961.896,32.133,1471.554,95.505
	c474.022,58.943,930.734,141.321,1357.45,244.847c205.094,49.758,402.098,104.276,585.537,162.041
	c181.702,57.216,351.688,118.116,505.23,181.006c153.556,62.896,291.936,128.3,411.297,194.398
	c120.525,66.744,222.72,134.785,303.739,202.232c82.563,68.732,143.985,137.566,182.565,204.592
	c39.638,68.859,55.645,136.671,47.578,201.55c-11.754,94.52-74.019,181.541-185.063,258.646
	c-107.371,74.555-259.442,139.301-451.991,192.441c-189.691,52.353-416.191,92.786-673.208,120.179
	C5783.524,2315.508,5497.938,2329.47,5193.076,2329.47z M2487.211,232.532c-612.299,0-1138.426,55.883-1521.501,161.606
	C572.976,502.527,353.189,657.93,330.109,843.546c-15.953,128.29,61.241,264.334,229.438,404.355
	c162.647,135.402,403.045,268.742,714.515,396.317c640.686,262.419,1509.965,471.156,2447.709,587.76
	c509.576,63.363,1004.594,95.491,1471.306,95.491c612.299,0,1138.425-55.883,1521.501-161.605
	c392.732-108.391,612.521-263.792,635.6-449.408c15.953-128.29-61.24-264.334-229.436-404.355
	c-162.648-135.401-403.047-268.741-714.516-396.317c-640.685-262.419-1509.965-471.156-2447.707-587.76
	C3448.942,264.659,2953.923,232.532,2487.211,232.532z"/>
</svg>
