<?xml version="1.0" encoding="utf-8"?>
<!-- Generator: Adobe Illustrator 16.0.0, SVG Export Plug-In . SVG Version: 6.00 Build 0)  -->
<!DOCTYPE svg PUBLIC "-//W3C//DTD SVG 1.1//EN" "http://www.w3.org/Graphics/SVG/1.1/DTD/svg11.dtd">
<svg version="1.1" id="레이어_1" xmlns="http://www.w3.org/2000/svg" xmlns:xlink="http://www.w3.org/1999/xlink" x="0px"
	 y="0px" width="7680px" height="2560px" viewBox="0 0 7680 2560" enable-background="new 0 0 7680 2560" xml:space="preserve">
<path fill="#FFFFFF" stroke="#000000" stroke-miterlimit="10" d="M7042.413,1677.767c7.342-59.047-7.233-120.774-43.32-183.468
	c-35.147-61.065-91.123-123.792-166.369-186.435c-73.861-61.488-167.028-123.519-276.915-184.37
	c-108.834-60.27-235.011-119.906-375.028-177.254c-284.148-116.387-618.799-221.635-994.654-312.821
	c-389.125-94.405-805.606-169.527-1237.874-223.278c-464.764-57.79-916.252-87.092-1341.923-87.092
	c-277.994,0-538.417,12.732-774.035,37.843c-234.355,24.977-440.883,61.845-613.847,109.581
	c-358.698,98.996-559.456,241.089-580.574,410.918c-7.341,59.049,7.233,120.777,43.32,183.469
	c35.151,61.068,91.126,123.793,166.371,186.433c73.865,61.492,167.033,123.523,276.914,184.372
	c108.85,60.274,235.028,119.912,375.027,177.255c284.155,116.387,618.806,221.634,994.657,312.818
	c389.124,94.406,805.604,169.526,1237.872,223.277c464.763,57.791,916.252,87.094,1341.925,87.094
	c277.992,0,538.414-12.731,774.033-37.84c234.361-24.979,440.89-61.849,613.848-109.583
	C6820.538,1989.689,7021.297,1847.597,7042.413,1677.767z M5073.958,2235.359c-425.638,0-877.095-29.301-1341.833-87.089
	c-855.224-106.342-1648.017-296.713-2232.335-536.045c-284.1-116.365-503.379-237.994-651.747-361.509
	C694.506,1122.9,624.046,998.672,638.618,881.484c21.078-169.505,221.648-311.381,580.028-410.29
	c349.394-96.427,829.247-147.396,1387.684-147.396c425.636,0,877.093,29.3,1341.831,87.086
	c855.227,106.342,1648.019,296.714,2232.337,536.046c284.095,116.362,503.374,237.992,651.748,361.509
	c153.535,127.817,223.996,252.045,209.425,369.232c-21.078,169.506-221.65,311.383-580.029,410.29
	C6112.244,2184.391,5632.391,2235.359,5073.958,2235.359z"/>
</svg>
