<?xml version="1.0" encoding="utf-8"?>
<!-- Generator: Adobe Illustrator 16.0.0, SVG Export Plug-In . SVG Version: 6.00 Build 0)  -->
<!DOCTYPE svg PUBLIC "-//W3C//DTD SVG 1.1//EN" "http://www.w3.org/Graphics/SVG/1.1/DTD/svg11.dtd">
<svg version="1.1" id="레이어_1" xmlns="http://www.w3.org/2000/svg" xmlns:xlink="http://www.w3.org/1999/xlink" x="0px"
	 y="0px" width="7680px" height="2560px" viewBox="0 0 7680 2560" enable-background="new 0 0 7680 2560" xml:space="preserve">
<path d="M6876.944,1657.189c6.964-56.002-6.859-114.544-41.083-174.001c-33.337-57.915-86.421-117.4-157.778-176.803
	c-70.048-58.315-158.401-117.142-262.606-174.846c-103.211-57.155-222.869-113.71-355.647-168.096
	C5790.357,853.072,5473,753.263,5116.571,666.791c-369.011-89.526-763.97-160.766-1173.904-211.74
	c-440.741-54.804-868.897-82.591-1272.575-82.591c-263.627,0-510.593,12.074-734.035,35.887
	c-222.251,23.688-418.108,58.652-582.129,103.919C1013.76,606.148,823.37,740.904,803.342,901.966
	c-6.961,56.001,6.861,114.544,41.084,174.001c33.336,57.913,86.42,117.398,157.777,176.803
	c70.05,58.315,158.404,117.141,262.607,174.845c103.214,57.156,222.872,113.712,355.648,168.096
	c269.467,110.372,586.825,210.181,943.256,296.654c369.025,89.527,763.984,160.767,1173.904,211.739
	c440.745,54.805,868.902,82.593,1272.578,82.593c263.637,0,510.602-12.074,734.036-35.888
	c222.255-23.688,418.112-58.652,582.128-103.919C6666.528,1953.008,6856.918,1818.251,6876.944,1657.189z M5010.196,2185.948
	c-403.64,0-831.766-27.786-1272.486-82.587c-811.029-100.849-1562.85-281.381-2116.968-508.343
	c-269.412-110.35-477.357-225.693-618.059-342.825C857.087,1130.989,790.27,1013.187,804.088,902.06
	c19.986-160.737,210.188-295.275,550.041-389.07c331.336-91.444,786.39-139.778,1315.966-139.778
	c403.64,0,831.765,27.785,1272.481,82.585c811.028,100.847,1562.849,281.38,2116.971,508.342
	c269.417,110.353,477.361,225.695,618.059,342.825c145.597,121.205,212.414,239.008,198.596,350.133
	c-19.986,160.738-210.188,295.277-550.04,389.072C5994.827,2137.613,5539.774,2185.948,5010.196,2185.948z"/>
</svg>
