<?xml version="1.0" encoding="utf-8"?>
<!-- Generator: Adobe Illustrator 16.0.0, SVG Export Plug-In . SVG Version: 6.00 Build 0)  -->
<!DOCTYPE svg PUBLIC "-//W3C//DTD SVG 1.1//EN" "http://www.w3.org/Graphics/SVG/1.1/DTD/svg11.dtd">
<svg version="1.1" id="레이어_1" xmlns="http://www.w3.org/2000/svg" xmlns:xlink="http://www.w3.org/1999/xlink" x="0px"
	 y="0px" width="7680px" height="2560px" viewBox="0 0 7680 2560" enable-background="new 0 0 7680 2560" xml:space="preserve">
<path fill="#FFFFFF" stroke="#000000" stroke-miterlimit="10" d="M4413.637,1725.014c-197.894,0-407.785-13.622-623.847-40.488
	c-200.954-24.987-394.571-59.91-575.471-103.799c-174.742-42.395-330.332-91.327-462.446-145.44
	c-132.163-54.133-234.189-110.729-303.246-168.217c-71.693-59.684-104.583-117.779-97.758-172.672
	c9.86-79.297,103.383-145.584,270.457-191.695c162.502-44.849,385.651-68.555,645.323-68.555
	c197.893,0,407.786,13.623,623.847,40.489c200.955,24.988,394.572,59.91,575.473,103.799
	c174.742,42.394,330.332,91.327,462.446,145.44c132.163,54.132,234.189,110.729,303.246,168.218
	c71.693,59.684,104.584,117.778,97.758,172.672c-9.86,79.297-103.383,145.584-270.457,191.694
	C4896.458,1701.309,4673.309,1725.014,4413.637,1725.014z M3266.648,836.147c-259.495,0-482.46,23.681-644.792,68.482
	c-166.231,45.878-259.251,111.584-269.003,190.014c-6.736,54.173,25.917,111.668,97.052,170.887
	c68.9,57.357,170.751,113.849,302.725,167.904c271.533,111.217,639.958,199.685,1037.407,249.105
	c215.98,26.856,425.79,40.473,623.6,40.473c259.494,0,482.46-23.681,644.792-68.481c166.232-45.878,259.252-111.584,269.005-190.014
	c6.736-54.174-25.917-111.668-97.053-170.888c-68.899-57.358-170.751-113.849-302.725-167.904
	c-271.532-111.217-639.958-199.685-1037.407-249.105C3674.268,849.765,3464.458,836.147,3266.648,836.147z"/>
</svg>
