<?xml version="1.0" encoding="utf-8"?>
<!-- Generator: Adobe Illustrator 16.0.0, SVG Export Plug-In . SVG Version: 6.00 Build 0)  -->
<!DOCTYPE svg PUBLIC "-//W3C//DTD SVG 1.1//EN" "http://www.w3.org/Graphics/SVG/1.1/DTD/svg11.dtd">
<svg version="1.1" id="레이어_1" xmlns="http://www.w3.org/2000/svg" xmlns:xlink="http://www.w3.org/1999/xlink" x="0px"
	 y="0px" width="7680px" height="2560px" viewBox="0 0 7680 2560" enable-background="new 0 0 7680 2560" xml:space="preserve">
<path fill="#FFFFFF" stroke="#000000" stroke-miterlimit="10" d="M4350.044,1675.732c-175.953,0-362.576-12.112-554.684-36
	c-178.677-22.218-350.828-53.27-511.674-92.291c-155.372-37.695-293.714-81.204-411.185-129.318
	c-117.52-48.135-208.242-98.462-269.65-149.583c-63.773-53.091-93.03-104.778-86.957-153.625
	c8.773-70.553,91.953-129.521,240.548-170.532c144.494-39.878,342.91-60.957,573.799-60.957c175.953,0,362.575,12.112,554.684,36
	c178.677,22.217,350.828,53.27,511.674,92.292c155.371,37.695,293.714,81.204,411.186,129.318
	c117.519,48.135,208.24,98.461,269.648,149.583c63.773,53.092,93.031,104.777,86.957,153.624
	c-8.771,70.553-91.953,129.521-240.549,170.532C4779.349,1654.654,4580.933,1675.732,4350.044,1675.732z M3330.242,885.427
	c-230.711,0-428.943,21.055-573.267,60.886c-147.752,40.777-230.432,99.166-239.097,168.851
	c-24.557,197.495,548.628,431.926,1277.728,522.586c192.027,23.877,378.566,35.984,554.437,35.984
	c230.712,0,428.942-21.055,573.267-60.886c147.754-40.776,230.432-99.165,239.097-168.851
	c24.558-197.495-548.629-431.926-1277.728-522.586C3692.653,897.534,3506.113,885.427,3330.242,885.427z"/>
</svg>
