<?xml version="1.0" encoding="utf-8"?>
<!-- Generator: Adobe Illustrator 16.0.0, SVG Export Plug-In . SVG Version: 6.00 Build 0)  -->
<!DOCTYPE svg PUBLIC "-//W3C//DTD SVG 1.1//EN" "http://www.w3.org/Graphics/SVG/1.1/DTD/svg11.dtd">
<svg version="1.1" id="레이어_1" xmlns="http://www.w3.org/2000/svg" xmlns:xlink="http://www.w3.org/1999/xlink" x="0px"
	 y="0px" width="256px" height="256px" viewBox="0 0 256 256" enable-background="new 0 0 256 256" xml:space="preserve">
<path fill="#00FFFF" d="M64.283,76.228l-5.242,8.95l3.448,2.02l3.967-6.767l7.75,4.543l-1.894,3.229l-5.043-2.956l-7.944,13.557
	l-2.708-1.584l3.991-6.813l-3.448-2.02l-5.155,8.797l-2.75-1.611l8.711-14.868c-0.488-0.402-1.098-0.865-1.826-1.392
	c-0.625-0.463-1.189-0.852-1.69-1.167l-7.661,13.077l-2.75-1.61l9.717-16.592c1.165,0.684,2.289,1.399,3.375,2.153
	c1.133,0.801,2.074,1.517,2.819,2.15l1.584-2.708L64.283,76.228z"/>
<path fill="#00FFFF" d="M86.446,59.033l-7.738,6.481l3.429,4.092l-2.793,2.338l-3.429-4.09l-8.068,6.759l-2.064-2.464l13.15-11.016
	c-0.357-0.713-0.848-1.535-1.472-2.466c-0.624-0.927-1.257-1.774-1.896-2.539l-11.637,9.752l-2.047-2.444l14.779-12.381
	c1.072,1.28,2.054,2.544,2.95,3.797c1.056,1.495,1.83,2.747,2.327,3.762l2.443-2.047L86.446,59.033z M74.798,72.75
	c0.161-0.023,0.313,0.147,0.46,0.505c0.044,0.16,0.095,0.286,0.146,0.375c0.082,0.151,0.179,0.29,0.288,0.42l1.835,2.191
	l12.026-10.076l2.031,2.426L76.686,81.071l-5.002-5.974L73.35,73.7C74.074,73.09,74.557,72.775,74.798,72.75z"/>
<path fill="#00FFFF" d="M97.88,42.581c1.651,4.497,2.207,8.407,1.67,11.735c-0.515,3.1-2.099,6.287-4.759,9.564
	c-0.602-0.37-1.203-0.706-1.8-1.007c-0.688-0.359-1.319-0.64-1.896-0.839c2.197-1.598,3.676-3.86,4.433-6.78
	c0.734-2.839,0.622-5.575-0.344-8.201l-7.267,2.67l-1.126-3.065L97.88,42.581z M105.969,37.532c0.152,0.018,0.221,0.182,0.209,0.49
	c0,0.199,0.011,0.347,0.028,0.449c0.023,0.206,0.071,0.406,0.141,0.595l7.795,21.209l-3.516,1.292l-8.381-22.799l2.112-0.775
	C105.228,37.671,105.767,37.516,105.969,37.532z"/>
<path fill="#00FFFF" d="M139.469,48.025l0.055,3.161l-10.271,0.167l0.135,8.271l-3.721,0.063l-0.133-8.274l-10.297,0.167
	l-0.054-3.162L139.469,48.025z M136.723,36.177l0.155,9.586L117.8,46.075l-0.155-9.59L136.723,36.177z M121.495,42.85l11.586-0.189
	l-0.056-3.264l-11.583,0.189L121.495,42.85z"/>
<path fill="#00FFFF" d="M155.827,41.425c0.085,0.156-0.029,0.391-0.355,0.706c-0.134,0.13-0.235,0.231-0.291,0.3
	c-0.117,0.123-0.205,0.25-0.274,0.388c-0.213,0.321-0.446,0.774-0.693,1.369c-0.2,0.535-0.464,1.256-0.782,2.164
	c-0.579,1.674-0.642,3.788-0.179,6.342c0.495,2.677,1.405,4.733,2.724,6.179c-0.576,0.157-1.193,0.368-1.861,0.638
	c-0.726,0.298-1.319,0.583-1.771,0.853c-0.798-1.136-1.45-2.776-1.953-4.916c-0.472-2.025-0.621-3.612-0.45-4.769
	c-0.788,1.136-1.826,2.256-3.105,3.365c-1.593,1.375-3.139,2.308-4.652,2.799c-0.241-0.481-0.546-1.007-0.92-1.583
	c-0.366-0.592-0.706-1.104-1.021-1.535c2.544-0.776,4.797-2.292,6.768-4.55c2.068-2.352,3.778-5.455,5.123-9.306l2.008,0.7
	C155.129,40.915,155.687,41.198,155.827,41.425z M167.253,43.783c0.113,0.129,0.038,0.337-0.22,0.62
	c-0.157,0.197-0.281,0.35-0.377,0.458c-0.125,0.208-0.227,0.43-0.313,0.668l-2.798,8.001l3.039,1.06l-1.09,3.105l-3.031-1.059
	l-3.431,9.818l-3.533-1.236l8.014-22.931l1.976,0.694C166.495,43.33,167.084,43.599,167.253,43.783z"/>
<path fill="#00FFFF" d="M182.161,73.631c0.666,1.668,0.565,3.041-0.309,4.114c-0.889,1.102-2.231,1.512-4.025,1.229
	c-1.986-0.308-4.198-1.451-6.639-3.428c-2.47-2.007-4.067-3.952-4.774-5.833c-0.631-1.687-0.501-3.077,0.389-4.179
	c0.872-1.075,2.187-1.462,3.943-1.167c1.979,0.346,4.198,1.519,6.66,3.516C179.843,69.86,181.432,71.777,182.161,73.631z
	 M194.186,62.792c0.036,0.163-0.139,0.338-0.522,0.52c-0.183,0.092-0.318,0.165-0.412,0.225c-0.17,0.1-0.314,0.211-0.431,0.331
	l-8.146,10.04l-2.907-2.359l2.323-2.869l-2.804-2.28c-0.125,0.231-0.271,0.489-0.445,0.785c-0.112,0.168-0.283,0.431-0.511,0.79
	l-0.022,0.075c-1.414-0.859-2.954-1.916-4.632-3.169c-1.157-0.852-2.544-1.934-4.171-3.252l-2.086-1.689l5.153-6.348l6.23,5.054
	l0.997-1.235l-6.221-5.054l1.826-2.261l9.136,7.412l-4.652,5.739l-6.249-5.07l-1.451,1.787l0.67,0.545
	c1.057,0.859,2.096,1.655,3.108,2.39c1.313,0.979,2.579,1.856,3.801,2.627l1.274-1.573l2.948,2.393l1.382-1.709l-2.946-2.393
	l1.884-2.316l2.948,2.39l1.844-2.279l1.753,1.421C193.671,62.113,194.111,62.559,194.186,62.792z M171.83,67.654
	c-0.96-0.295-1.645-0.183-2.074,0.341c-0.422,0.522-0.409,1.23,0.043,2.119c0.513,1.003,1.537,2.125,3.064,3.37
	c1.508,1.221,2.798,1.973,3.867,2.258c0.969,0.261,1.657,0.126,2.087-0.397c0.421-0.524,0.397-1.217-0.076-2.081
	c-0.508-0.954-1.509-2.037-2.996-3.249C174.196,68.762,172.891,67.976,171.83,67.654z"/>
<path fill="#00FFFF" d="M202.151,96.787l-2.706,1.642l-5.332-8.782l-7.074,4.298l-1.929-3.179l7.073-4.297l-5.345-8.801l2.699-1.642
	L202.151,96.787z M203.065,75.388c-0.006,0.123-0.138,0.214-0.396,0.273c-0.122,0.032-0.212,0.058-0.281,0.08
	c-0.092,0.037-0.194,0.088-0.294,0.149l-1.018,0.618l6.029,9.925l2.059-1.249l1.176,1.945c0.443,0.72,0.669,1.184,0.696,1.385
	c0.004,0.137-0.139,0.242-0.427,0.319c-0.124,0.019-0.233,0.043-0.311,0.074c-0.124,0.055-0.247,0.117-0.36,0.187l-7.571,4.599
	l-9.915-16.328l8.739-5.307l1.299,2.142C202.855,74.803,203.048,75.203,203.065,75.388z M196.93,79.03l6.029,9.925l1.622-0.985
	l-6.029-9.924L196.93,79.03z"/>
<path fill="#00FFFF" d="M206.39,120.135h-47.143c-0.187-0.971-0.473-1.965-0.876-2.961c-1.935-4.797-5.713-7.803-9.146-7.576
	c-1.718-3.289-4.229-8.097-4.229-8.097c-0.19-0.33-0.459-0.702-0.786-1.045c0.382-0.167,0.762-0.38,1.115-0.648
	c0.015,0.708-0.032,1.393-0.157,2.021c0.248,0.475,0.748,1.433,1.354,2.592c0.085-0.164,0.165-0.33,0.239-0.504
	c0.489-1.15,0.732-2.49,0.732-3.914c0-1.033-0.145-2.111-0.397-3.197c-0.109,0.92-0.462,1.635-0.942,2.191
	c0.583-0.728,0.979-1.679,0.979-2.904c0-1.724-0.777-2.901-1.771-3.657c-2.091-3.597-5.27-5.737-8.19-5.509
	c1.019,0.971,1.831,1.746,1.833,1.749c-0.01-0.008-5.911-5.639-5.911-5.639s0.363,0.347,0.907,0.866
	c0.188-0.663,0.29-1.364,0.29-2.092c0-3.96-2.99-7.185-6.666-7.185c-3.678,0-6.669,3.224-6.669,7.185
	c0,3.962,2.992,7.188,6.669,7.188c1.111,0,2.156-0.298,3.077-0.819c-0.34-0.322-0.633-0.598-0.853-0.805
	c0.485,0.458,1.349,1.272,2.259,2.13c-1.293,0.923-2.83,1.465-4.482,1.465c-4.572,0-8.289-4.108-8.289-9.16
	c0-5.048,3.717-9.158,8.289-9.158s8.29,4.109,8.29,9.158c0,1.187-0.211,2.319-0.584,3.361c0.546,0.522,1.126,1.074,1.661,1.585
	c0.675-1.496,1.067-3.171,1.067-4.946c0-6.231-4.681-11.301-10.434-11.301s-10.433,5.07-10.433,11.301
	c0,3.99,1.921,7.494,4.809,9.506h-9.114c-0.248,0-2.457,0.217-3.912,1.654c-0.774,0.766-1.184,2.022-1.184,3.226
	c-0.001,3.567,3.324,4.727,5.081,4.727c0,0,7.391,0,9.191,0c-0.033,0-0.322,5.23-0.74,12.378l-3.712,8.799l-5.445,0.711
	c-0.334-0.282-0.53-0.446-0.53-0.446c-0.132-0.085-3.297-2.23-7-2.23H49.609h-1.323l0.275,1.434
	c0.021,0.096,2.088,9.367,9.857,10.391c-0.07,0.451-0.13,0.994-0.13,1.599c0,1.341,0.273,2.999,1.252,4.536
	c1.477,2.317,4.196,3.75,7.984,4.331c0.279,2.309,1.639,8.87,8.341,10.768l0.141,0.129h18.036l-2.287,15.505
	c0,0,3.199-1.022,4.19-1.337c1.405,3.063,6.46,13.146,14.015,17.675l4.641,2.699c5.678,3.237,9.104,5.193,11.996,10.066l0.751,1.265
	l0.975-1.104c0.052-0.054,5.164-5.809,12.254-9.887l0.962-0.55c6.92-3.956,12.914-7.458,18.21-19.904
	c1.046,0.331,4.496,1.417,4.496,1.417l-2.286-15.845h18.036l0.143-0.124c6.714-1.898,8.067-8.437,8.346-10.734
	c3.825-0.597,6.515-2.032,7.981-4.331c0.981-1.536,1.255-3.189,1.255-4.531c0-0.6-0.062-1.119-0.13-1.564
	c7.768-1.033,9.831-10.367,9.852-10.464l0.276-1.436H206.39z M156.384,117.975c0.29,0.721,0.503,1.446,0.659,2.16h-1.53
	c-0.11-0.523-0.271-1.061-0.489-1.605c-0.764-1.886-2.029-3.354-3.388-3.929c-0.105-0.044-0.209-0.069-0.314-0.102
	c-0.033-0.644-0.226-1.305-0.526-1.893c0-0.001-0.154-0.294-0.406-0.779C152.62,112.315,155.06,114.693,156.384,117.975z
	 M129.668,134.751l6.723-10.932l16.856,2.234L129.668,134.751z M143.113,159.458l-13.821-20.986l10.149,3.39L143.113,159.458z
	 M136.573,122.105l-3.308-7.856c-0.576-7.668-0.983-13.327-1.027-13.327c0.15,0,0.354,0,0.576,0c1.52,2.459,4.167,5.284,6.296,6.189
	c0.969,0.413,1.936,0.534,2.856,0.481c-0.463-0.881-0.883-1.703-1.199-2.306c-0.301-0.032-0.582,0.019-0.819-0.08
	c-1.395-0.592-3.359-2.617-4.625-4.285c0.927,0,1.93,0,2.882,0c0.422,0.369,0.869,0.652,1.332,0.855
	c-0.016,1.087,0.501,2.108,0.63,2.341c-0.012-0.019,5.807,11.02,5.807,11.02c0.011,0.023,0.033,0.066,0.057,0.107
	c-0.021-0.039-0.047-0.084-0.057-0.106c0,0-0.534-1.013-1.276-2.421c-1.249,2.413-1.33,5.908-0.016,9.458
	c-0.183,0.11-0.297,0.188-0.321,0.202c0,0-0.288,0.242-0.771,0.648L136.573,122.105z M146.602,121.192
	c-0.728-2.095-0.883-4.194-0.539-5.884c-0.005-0.009-0.007-0.012-0.01-0.021c0.208,0.376,0.75,1.229,1.596,1.705
	c-0.21,1.085-0.095,2.383,0.338,3.692C147.484,120.84,147.021,121.014,146.602,121.192z M149.042,120.404
	c-0.024,0.005-0.05,0.01-0.073,0.017C148.992,120.414,149.017,120.409,149.042,120.404z M150.096,120.218
	c-0.497-1.368-0.47-2.483-0.27-3.111c0.057-0.025,0.115-0.041,0.171-0.07c0.267-0.14,0.476-0.319,0.657-0.514
	c0.052,0.016,0.103,0.034,0.147,0.053c0.621,0.264,1.581,1.145,2.233,2.757c0.111,0.275,0.196,0.542,0.268,0.802h-1.938
	C150.933,120.135,150.509,120.167,150.096,120.218z M148.89,113.591c0.063,0.124,0.272,0.658,0.289,1.072
	c-0.202,0.11-0.39,0.241-0.559,0.402c-0.28-0.199-0.592-0.611-0.742-0.907c-0.01-0.021-5.827-11.06-5.827-11.06
	c-0.19-0.349-0.379-0.921-0.368-1.298c0.036-0.002,0.072-0.006,0.106-0.006h0.002c0.195,0,0.373-0.058,0.539-0.152
	c0.323,0.245,0.661,0.681,0.806,0.924C143.172,102.639,148.89,113.591,148.89,113.591z M141.849,91.315h-2.085
	c0.173-0.621,0.075-1.221-0.147-1.728c0,0.001,0.001,0.002,0.002,0.003C140.383,89.978,141.142,90.574,141.849,91.315z
	 M139.351,89.103c-0.006-0.009-0.013-0.021-0.02-0.029C139.338,89.083,139.345,89.093,139.351,89.103z M132.635,82.721
	c-0.004-0.001-0.007-0.003-0.011-0.005C132.628,82.718,132.631,82.72,132.635,82.721z M127.625,86.854
	c-2.495,0-4.526-2.265-4.526-5.045c0-2.779,2.03-5.041,4.526-5.041c2.493,0,4.523,2.262,4.523,5.041
	c0,0.229-0.018,0.451-0.045,0.671c-0.877-0.312-1.987-0.29-2.904,0.688c-0.641,0.683-0.751,1.381-0.731,1.849
	c0.031,0.677,0.346,1.223,0.612,1.57c-0.002-0.002-0.003-0.003-0.005-0.005C128.619,86.755,128.132,86.854,127.625,86.854z
	 M129.309,86.859c0.001,0,0.001,0,0.002,0.001C129.31,86.86,129.31,86.859,129.309,86.859z M130.761,84.636
	c0.254-0.269,0.566-0.258,0.931,0.025c0.104,0.1,5.823,5.555,5.823,5.555c0.153,0.16,0.204,0.302,0.204,0.418
	c0,0.18-0.122,0.312-0.189,0.383c-0.08,0.084-0.195,0.184-0.295,0.187c-0.139,0.005-0.34-0.128-0.417-0.202
	c-0.018-0.017-5.926-5.589-5.926-5.589C130.437,84.982,130.655,84.748,130.761,84.636z M133.684,90.993
	c0.118,0.11,0.233,0.219,0.344,0.323h-0.792C133.386,91.21,133.538,91.106,133.684,90.993z M112.865,98.302
	c-0.296,0-2.938,0.034-2.938-2.241c0-0.633,0.177-1.021,0.542-1.384c0.693-0.691,1.958-0.742,2.386-0.742h29.311
	c0.467,0,2.813-0.02,2.813,2.158c0,2.24-2.539,2.209-2.829,2.209h-12.232l0.732,9.735l-3.55-8.432l-3.299,7.819l0.531-9.123H112.865
	z M111.701,161.237l14.824-22.249l-0.013,13.199L111.701,161.237z M126.109,106.448l0.294,27.821l-7.351-11.098L126.109,106.448z
	 M124.808,136.694l-11.647,3.891l-12.659-12.829L124.808,136.694z M51.041,122.753c2.715,0,53.595,0,53.595,0
	c1.179,0,2.304,0.277,3.248,0.616l-10.805,1.41l-1.715,0.257l4.643,4.706H59.721C54.211,129.741,51.863,125.374,51.041,122.753z
	 M61.359,136.857c-0.724-1.126-0.924-2.193-0.924-3.215c0-0.575,0.067-1.283,0.135-1.283c1.222,0,28.238,0,42.022,0l7.757,7.861
	H68.509C65.035,140.221,62.59,138.772,61.359,136.857z M69.694,142.841c1.686,0,28.403,0,41.896,0l-1.421,7.859
	c-18.593,0-33.674,0-33.813,0C71.26,149.827,70.004,144.587,69.694,142.841z M109.694,153.32l-2.275,12.582l11.197-6.843
	c-0.583,9.861-1.015,17.188-1.054,17.836c-2.243-0.363-8.248-2.266-15.062-11.836c0.965-0.213,3.94-0.863,3.94-0.863L94.856,153.32
	H109.694z M158.543,165.119l-0.376,0.917c-5.113,12.559-10.945,15.896-17.698,19.756l-0.965,0.556
	c-5.676,3.26-10.015,7.423-11.843,9.311c-3.031-4.502-6.68-6.622-12.003-9.658l-4.601-2.676
	c-8.166-4.894-13.489-17.438-13.541-17.563l-0.38-0.902c0,0-1.853,0.59-2.765,0.879c0.302-2.055,0.936-6.338,1.286-8.715
	c1.708,1.602,4.645,4.357,6.342,5.951c-0.757,0.164-3.077,0.673-3.077,0.673l0.875,1.307c9.755,14.57,18.464,14.197,18.831,14.174
	l0.945-0.06l1.263-21.364l6.285-3.841l7.351,4.602l1.561,20.525l1.152-0.189c14.798-2.448,19.354-13.513,19.538-13.983l0.395-0.987
	c0,0-1.961-0.799-2.921-1.189c1.555-1.339,4.468-3.847,6.167-5.313c0.334,2.311,0.967,6.706,1.265,8.77
	C160.576,165.763,158.543,165.119,158.543,165.119z M150.149,163.304c0,0,3.084,1.257,4.127,1.683
	c-1.337,2.528-5.848,9.305-16.284,11.458c-0.053-0.684-0.563-7.4-1.259-16.565l9.493,5.943l-2.619-12.502h18.128L150.149,163.304z
	 M179.648,150.7c-0.146,0-16.744,0-36.588,0l-1.648-7.859c11.995,0,43.075,0,44.899,0
	C186.001,144.587,184.742,149.827,179.648,150.7z M194.644,136.912c-1.227,1.909-3.663,3.308-7.229,3.308c-0.13,0-31.282,0-44.674,0
	l8.287-7.86c12.748,0,43.111,0,44.407,0c0.068,0,0.134,0.763,0.134,1.34C195.568,134.72,195.368,135.786,194.644,136.912z
	 M196.273,129.741c-0.018,0-28.077,0-42.483,0l4.98-4.724l-11.146-1.462c1.031-0.418,2.351-0.802,3.739-0.802c0,0,50.882,0,53.594,0
	C204.138,125.374,201.788,129.741,196.273,129.741z"/>
</svg>
