<?xml version="1.0" encoding="utf-8"?>
<!-- Generator: Adobe Illustrator 16.0.0, SVG Export Plug-In . SVG Version: 6.00 Build 0)  -->
<!DOCTYPE svg PUBLIC "-//W3C//DTD SVG 1.1//EN" "http://www.w3.org/Graphics/SVG/1.1/DTD/svg11.dtd">
<svg version="1.1" id="레이어_1" xmlns="http://www.w3.org/2000/svg" xmlns:xlink="http://www.w3.org/1999/xlink" x="0px"
	 y="0px" width="512px" height="512px" viewBox="0 0 512 512" enable-background="new 0 0 512 512" xml:space="preserve">
<path fill="#FFFFFF" stroke="#000000" stroke-miterlimit="10" d="M331.485,304.497c-11.313,0-21.513,4.693-28.809,12.244
	l-107.958-53.984c0.334-2.069,0.503-4.192,0.503-6.358c0-2.159-0.169-4.273-0.503-6.36l107.958-53.966
	c7.295,7.531,17.495,12.229,28.808,12.229c22.146,0,40.083-17.938,40.083-40.083c0-22.139-17.938-40.083-40.082-40.083
	c-22.131,0-40.084,17.944-40.084,40.083c0,2.167,0.185,4.289,0.511,6.359l-107.976,53.984c-7.293-7.541-17.487-12.246-28.807-12.246
	c-22.138,0-40.082,17.944-40.082,40.083c0,22.138,17.944,40.082,40.082,40.082c11.32,0,21.531-4.694,28.807-12.228l107.976,53.967
	c-0.352,2.078-0.511,4.191-0.511,6.359c0,22.139,17.952,40.082,40.083,40.082c22.146,0,40.083-17.943,40.083-40.082
	C371.567,322.432,353.63,304.497,331.485,304.497z"/>
</svg>
