<?xml version="1.0" encoding="utf-8"?>
<!-- Generator: Adobe Illustrator 16.0.0, SVG Export Plug-In . SVG Version: 6.00 Build 0)  -->
<!DOCTYPE svg PUBLIC "-//W3C//DTD SVG 1.1//EN" "http://www.w3.org/Graphics/SVG/1.1/DTD/svg11.dtd">
<svg version="1.1" id="레이어_1" xmlns="http://www.w3.org/2000/svg" xmlns:xlink="http://www.w3.org/1999/xlink" x="0px"
	 y="0px" width="512px" height="512px" viewBox="0 0 512 512" enable-background="new 0 0 512 512" xml:space="preserve">
<path fill="#FFFFFF" stroke="#000000" stroke-miterlimit="10" d="M412.174,125.963c0.707,1.577,5.148-3.004,6.195-3.569
	C415.35,121.225,410.984,127.117,412.174,125.963z"/>
<polygon fill="#FFFFFF" stroke="#000000" stroke-miterlimit="10" points="383.258,117.409 385.34,115.758 378.281,118.117 "/>
<path fill="#FFFFFF" stroke="#000000" stroke-miterlimit="10" d="M373.686,111.862l-1.033,2.394l6.982-5.57
	c-4.824-2.574-13.773-1.623-15.008-6.1C360.096,112.783,372.875,105.808,373.686,111.862z"/>
<path fill="#FFFFFF" stroke="#000000" stroke-miterlimit="10" d="M368.338,78.282c-0.016-0.573,0.045-0.855,0.074-1.25
	c-0.529-0.237-1.131-0.772-2.172-1.658c-0.73,2.051-1.832,2.417-1.949,2.449C364.387,77.8,365.404,77.624,368.338,78.282z"/>
<path fill="#FFFFFF" stroke="#000000" stroke-miterlimit="10" d="M368.412,77.031C370.912,78.348,368.746,72.994,368.412,77.031
	L368.412,77.031z"/>
<path fill="#FFFFFF" stroke="#000000" stroke-miterlimit="10" d="M360.861,65.601c-4.434-0.037-4.826,2.574-4.908,7.192l5.08-1.54
	C361.584,68.71,358.893,66.597,360.861,65.601z"/>
<path fill="#FFFFFF" stroke="#000000" stroke-miterlimit="10" d="M349.223,78.185l2.367-0.543
	C351.797,76.563,351.527,75.998,349.223,78.185z"/>
<path fill="#FFFFFF" stroke="#000000" stroke-miterlimit="10" d="M353.746,77.427c-1.816,2.67,0.326,0.305,2.922-0.879l-5.078,1.094
	C351.223,79.435,349.574,82.549,353.746,77.427z"/>
<path fill="#FFFFFF" stroke="#000000" stroke-miterlimit="10" d="M357.82,79.054c0.609,3.02,2.029,5.497-2.914,7.081
	C361.443,88.01,364.664,81.071,357.82,79.054z"/>
<path fill="#FFFFFF" stroke="#000000" stroke-miterlimit="10" d="M357.256,111.162l0.09,3.936l3.777-1.838
	C359.248,114.167,359.07,108.284,357.256,111.162z"/>
<path fill="#FFFFFF" stroke="#000000" stroke-miterlimit="10" d="M337.531,57.791c-1.092,2.053-1.205,6.165-2.111,9l3.525-1.429
	C338.307,63.385,336.408,61.034,337.531,57.791z"/>
<path fill="#FFFFFF" stroke="#000000" stroke-miterlimit="10" d="M335.42,66.791l-5.17,2.179
	C333.309,70.71,334.631,69.215,335.42,66.791z"/>
<path fill="#FFFFFF" stroke="#000000" stroke-miterlimit="10" d="M347.75,86.358c2.373-1.093,4.746-2.179,4.746-2.179
	s-2.648,0.975-5.295,1.949c-2.58,1.012-5.162,2.03-5.162,2.03l1.08,0.447C343.117,88.605,345.432,87.482,347.75,86.358z"/>
<polygon fill="#FFFFFF" stroke="#000000" stroke-miterlimit="10" points="326.822,47.446 320.209,53.924 322.82,51.841 "/>
<path fill="#FFFFFF" stroke="#000000" stroke-miterlimit="10" d="M312.438,49.812c2.916-3.787-0.336-7.891,2.221-10.011
	c-3.098-0.052-6.502,2.959-9.434,5.705C307.939,44.27,310.318,45.438,312.438,49.812z"/>
<path fill="#FFFFFF" stroke="#000000" stroke-miterlimit="10" d="M300.545,49.431c1.354-0.811,2.922-2.291,4.68-3.927
	C303.781,46.181,302.27,47.246,300.545,49.431z"/>
<path fill="#FFFFFF" stroke="#000000" stroke-miterlimit="10" d="M323.758,58.03l-0.699,6.716c0.434,0.201,0.916,0.43,1.406,0.661
	C324.664,63.979,325.363,60.319,323.758,58.03z"/>
<path fill="#FFFFFF" stroke="#000000" stroke-miterlimit="10" d="M323.057,64.746c-1.49-0.803-2.572-1.258-3.031-1.458
	c0.4,0.171,1.338,0.595,3.02,1.673L323.057,64.746z"/>
<path fill="#FFFFFF" stroke="#000000" stroke-miterlimit="10" d="M324.813,65.579l-0.348-0.172
	C324.383,66.077,324.396,66.299,324.813,65.579z"/>
<path fill="#FFFFFF" stroke="#000000" stroke-miterlimit="10" d="M329.469,89.974c3.236-3.489,2.188-7.34,7.514-11.06
	C333.352,81.346,327.773,83.272,329.469,89.974z"/>
<path fill="#FFFFFF" stroke="#000000" stroke-miterlimit="10" d="M326.91,76.794c0.564-1.621,0.803-4.232,2.514-5.488l-5.688,2.602
	L326.91,76.794z"/>
<polygon fill="#FFFFFF" stroke="#000000" stroke-miterlimit="10" points="321.199,75.121 323.734,73.909 322.545,72.845 "/>
<path fill="#FFFFFF" stroke="#000000" stroke-miterlimit="10" d="M314.305,61.451c-0.164,0.111-0.336,0.133-0.498,0.246
	C313.889,62.299,314.029,62.514,314.305,61.451z"/>
<path fill="#FFFFFF" stroke="#000000" stroke-miterlimit="10" d="M278.061,55.322c0.063,0.387,0.135,0.833,0.195,1.235l0.223-1.108
	L278.061,55.322z"/>
<path fill="#FFFFFF" stroke="#000000" stroke-miterlimit="10" d="M293.695,51.313c0.684,1.502,1.516,2.825,2.408,4.054
	C295.629,53.188,294.357,49.707,293.695,51.313z"/>
<path fill="#FFFFFF" stroke="#000000" stroke-miterlimit="10" d="M313.748,59.799c0.117-0.067,0.229-0.163,0.342-0.2
	C313.918,58.111,313.791,58.772,313.748,59.799z"/>
<g>
	<path fill="#FFFFFF" stroke="#000000" stroke-miterlimit="10" d="M306.189,57.271c-2.463,2.254-4.396,1.957-6.645,1.808
		c2.002,1.881,4.174,3.212,6.406,3.815C306.785,61.004,308.748,57.747,306.189,57.271z"/>
	<path fill="#FFFFFF" stroke="#000000" stroke-miterlimit="10" d="M305.953,62.894c-0.379,0.855-0.566,1.436,0.064,1.279
		c1.361,1.695,2.781,0.44,4.313-1.206C308.875,63.221,307.41,63.25,305.953,62.894z"/>
	<path fill="#FFFFFF" stroke="#000000" stroke-miterlimit="10" d="M313.748,59.799c-1.168,0.646-2.322,1.986-3.416,3.167
		c1.184-0.208,2.352-0.594,3.475-1.27C313.732,61.198,313.717,60.454,313.748,59.799z"/>
</g>
<path fill="#FFFFFF" stroke="#000000" stroke-miterlimit="10" d="M271.072,72.354c1.195,7.579-7.111,10.532-6.771,21.629
	l4.221-3.667c-0.1,1.718-1.732,4.373-0.813,5.994c0.713-6.001,5.393-11.424,7.891-4.276c3.846-3.936,4.805-23.904,2.656-35.478
	c-0.432,2.663-0.773,4.834-5.051,8.077c1.123,3.176,7.453,8.926,3.605,13.752C271.682,80.64,273.168,75.715,271.072,72.354z"/>
<path fill="#FFFFFF" stroke="#000000" stroke-miterlimit="10" d="M285.834,58.415l1.777-0.453c-1.729-1.353-2.67-3.965-4.58-9.066
	c-3.273,2.46-4.107,4.596-4.553,6.552l8.063,2.179L285.834,58.415z"/>
<path fill="#FFFFFF" stroke="#000000" stroke-miterlimit="10" d="M299.547,59.079c-1.211-1.153-2.387-2.269-3.441-3.711
	c0.045,0.163,0.066,0.275,0.105,0.416l0.035,0.009l-0.029,0.081c0.17,0.871,0.186,1.384-0.104,0.855
	c-0.047,0.067-0.141,0.074-0.195,0.097c-0.236,0.876-0.549,1.627-0.861,2.35c-2.002-1.719-0.021-1.719,0.861-2.35
	c0.098-0.321,0.195-0.618,0.299-0.953l-0.006-0.089l-8.598,2.18c1.508,1.182,3.6,1.347,7.438,1.257
	c-2.664,6.188-6.91,8.299-5.965,15.663c4.566,0.321,4.252-4.835,7.645-7.125c-7.912,0.267,3.006-3.185-1.77-7.794
	C296.715,59.167,298.203,58.989,299.547,59.079z"/>
<path fill="#FFFFFF" stroke="#000000" stroke-miterlimit="10" d="M320.426,101.524c0.037-0.618,0.225-1.042,0.396-1.487
	C320.1,100.617,319.74,101.055,320.426,101.524z"/>
<path fill="#FFFFFF" stroke="#000000" stroke-miterlimit="10" d="M322.797,95.12c0.563,2.352-1.225,2.894-1.977,4.917
	c1.541-1.258,5.051-3.02,3.385-7.155l-0.803,0.64c-1.344-2.466-1.992-8.607-1.83-11.433c-1.109,5.133-1.822,9.146-2.227,14.72
	C320.143,96.139,321.525,93.877,322.797,95.12z"/>
<path fill="#FFFFFF" stroke="#000000" stroke-miterlimit="10" d="M321.572,82.088c0.104-0.47,0.203-0.936,0.311-1.427
	C321.719,80.802,321.617,81.326,321.572,82.088z"/>
<path fill="#FFFFFF" stroke="#000000" stroke-miterlimit="10" d="M302.621,86.976l0.787-3.325c2.871,2.209,3.363-2.015,4.537-4.41
	l-6.725,1.436L302.621,86.976z"/>
<path fill="#FFFFFF" stroke="#000000" stroke-miterlimit="10" d="M277.689,51.96l1.73-6.738c0,0-1.271,2.276-2.549,4.552
	c-1.236,2.358-2.473,4.715-2.473,4.715s0.818-0.67,1.637-1.331C276.863,52.555,277.689,51.96,277.689,51.96z"/>
<polygon fill="#FFFFFF" stroke="#000000" stroke-miterlimit="10" points="269.672,46.122 267.055,49.603 268.877,52.102 "/>
<path fill="#FFFFFF" stroke="#000000" stroke-miterlimit="10" d="M243.262,78.141c0.06-1.593,0.246-2.619,0.506-3.244
	C243.449,75.649,243.231,76.608,243.262,78.141z"/>
<path fill="#FFFFFF" stroke="#000000" stroke-miterlimit="10" d="M440.496,342.168c-1.748,1.006-6.092-2.572-9.572-3.672
	c0,0,3.25-1.289,6.492-2.574c3.281-1.412,6.563-2.82,6.563-2.82c-8.955-5.035,2.572-10.367-6.354-14.137l0.76,3.391
	c-9.758-6.918-25.703-2.535-39.256-8.047c5.654,3.846,0.223,4.617-4.611,5.496c-4.816,0.975-8.887,2-1.539,8.516
	c-3.25-0.088-3.836-2.938-7.205-3.719c5.113,3.854,5.385,6.076,1.42,7.734l-1.221-1.025c-1.301,4.418-3.854,6.768-7.289,8.576
	c-3.396,1.836-7.088,3.51-11.729,6.082l6.307,3.594c-2.061,1.188-4.148,0.207-6.182-0.074c7.326,8.518,4.041-4.482,12.541,4.328
	c-6.91-3.02-9.102,0.01-11.586,2.77c-2.664,2.596-5.453,4.996-12.25,0.107c-2.113,2.352,6.834,4.871,4.641,7.279l-3.875-2.414
	l3.652,4.563c-2.275,0.883-7.064-2.33-9.834-4.973c0.686-0.027,0.24-1.725,0.371-2.316c-5.244-1.813-4.131,5.346-5.465,5.875
	l3.682-0.082c-1.436,4.725-5.719,7.234-9.133,10.561c-3.701,3.035-6.996,6.404-8.104,12.668l2.414,2.512
	c-2.596,8.813-6.566-0.313-11.504,5.816l-0.141-0.832c0.271,3.629-0.799,6.066-2.834,6.643c-0.111-4.396-6.502-5.424-6.256-10.475
	c-3.477,9.281-0.75,6.313-0.426,19.865l-3.227-4.813c0.32,5.379,1.158,7.951-2.084,10.809c1.311-5.744-5.184-7.186-4.156-14.504
	c-5.602-4.254-7.207-0.914-8.754,2.186c-1.502,2.977-2.942,5.193-6.851-3.055c0.416,16.102,8.724,6.461,7.671,10.225
	c3.166,4.338,0.223,12.225-2.853,11.365c-2.863,0.254-9.089-18.541-14.731-16.986c0.602-0.061,0.432-1.232,1.024-1.286
	c-2.812-3.36-3.511,6.075-7.214,0.021c-0.325,9.58-3.602-0.082-2.725,11.959l5.452-3.508c-2.653,3.404-4.528,18.211-11,11.685
	c0.291-2.47,1.738-5.638,2.691-7.579c-1.882-3.361-2.945,2.498-4.861-1.051c-0.104-6.039,1.548-6.744,3.599-7.131
	c2.01-0.582,4.485-0.834,5.535-5.609c-2.099-4.87-5.306,9.508-4.938-3.719c-0.981,16.941-5.771-1.83-9.237,11.104l0.066-7.236
	c-0.588,1.162-1.852,4.644-3.057,4.517l1.957-9.478c-3.141,8.302-5.944-7.09-8.851-2.834c6.15,0.127,1.115,8.785,3.755,14.214
	c-8.79,9.155-3.993-19.056-12.404-16.169c1.153-0.715,3.89,4.552,1.762,7.884c-1.569-1.437-3.399-4.744-3.875-8.619
	c-5.713,0.634-0.12,7.519-3.108,11.552c-0.73-9.029-3.356,3.108-6.635,5.467l1.272-7.235c-5.779-5.632-4.827,14.819-9.952,7.728
	c0,0,1.228-2.313,2.462-4.619c1.191-2.319,2.372-4.636,2.372-4.636l-3.681,1.75l2.573-7.967c-4.686,5.19-5.49,3.334-7.995,0.293
	c-0.677,5.058-4.26,12.871-7.386,11.906c-0.655-4.896,3.288-6.228-1.161-6.755c2.471-3.987,5.179-9.133,4.821-2.053
	c0.907-2.226,2.246-4.031,3.139-6.285c-0.446-5.481-4.508-2.905-5.951-3.338c0.431,0.444,0.921,1.058,0.907,2.147
	c0,0-2.283,1.884-4.566,3.759c-2.396,1.842-4.783,3.688-4.783,3.688c0.097-2.893,1.689-4.672,3.19-6.456
	c-1.429,0.299-3.584,3.288-5.503,3.034c2.781-5.303,5.102-10.889,8.405-12.748c0,0-1.919,1.197-3.777,2.07
	c-1.92,0.897-3.824,1.797-3.824,1.797c0.706-2.545,0.491-7.696,2.067-9.362c-0.863-4.353-11.945,7.35-13.173,0.897
	c-0.765,0.896-1.695,1.639-2.877,1.891c-2.752-3.241-1.413-10.77-9.684-6.997c0,0,1.08-2.537,2.158-5.074
	c1.107-2.504,2.224-5.004,2.224-5.004c-4.298-0.177-5.274,12.866-12.681,12.399c-5.742,0.006,4.403-8.069,5.116-11.254
	c-4.805,2.864-15.097,8.321-12.167-0.761c2.366-0.594,2.039,1.25,3.481,1.49l1.859-6.338c9.245-4.826,8.501-0.914,12.294-8.757
	c-7.027,7.588-9.414,6.132-11.826,4.703c-2.357-1.479-4.395-3.267-12.175,3.644l1.875-4.408c0.236,0.552,1.19-0.2,1.412,0.337
	c4.895-9.365-13.074,7.918-14.442,1.961c0.133-2.498,1.756-5.33,4.396-5.906l-6.404-0.053c-0.315-0.966,1.646-2.402,2.586-2.296
	l-4.537-3.521l0.529-0.313c-3.236,1.214-8.493,2.283-10.792,2.537c1.651-3.027,2.26-0.5,4.193-2.27l-6.045-0.34
	c3.83-4.047,9.721-4.344,10.242-1.965c15.804-13.789-5.846,0.299,0.996-11.604l3.838,1.24c9.222-7.621,4.046-7.162,9.342-13.432
	c-3.393,2.283-12.972,14.479-19.287,14.049c0.752-1.613,0.915-3.141-3.629-3.021c6.531-3.393,4.135-4.223,2.729-6.166l8.866-4.053
	c-3.571-0.922-8.01,1.301-12.673,1.74c-0.461-2.975,6.448-6.463,12.116-9.424c0.022-4.58-10.198,7.418-13.67,3.146
	c2.269-4.922-2.559-5.748-9.498-8.627c2.575-3.621,5.83-1.241,8.271-2.981l-8.048-0.17c0.031-0.625,2.381-1.071,3.571-1.295
	c-3.421-1.19-9.431,2.433-12.836-0.224c-5.325,0.86-1.978-1.883,1.129-4.746c2.969-2.885,6.322-5.905-0.03-6.89
	c2.575-1.465,5.959-0.526,9.626-1.485c-8.703-4.106-6.426-3.586-17.857-7.063c0,0,1.39-1.196,2.982-2.373
	c1.546-1.151,3.093-2.305,3.093-2.305c-7.14,3.612-15.93,0.631-23.234-2.873c-3.481,1.394-6.5,2.655-7.943,3.487l-5.541-6.147
	c1.554-0.849,4.946-0.282,9.059,0.569c-0.827-0.393-1.646-0.764-2.396-1.055c3.488-2.363,9.171-1.279,14.682-0.017
	c-1.926,0.774-3.918,1.578-5.897,2.375c5.988,1.194,12.591,2.043,18.276,1.381c-1.139-0.272-2.144-0.894-2.717-1.612
	c1.622,0.269,3.065,0.401,4.033,0.192c1.01-0.235-1.176-0.668-3.705-1.44l10.8-1.64l-4.328-0.125c0,0,1.606-1.728,3.213-3.448
	c1.522-1.688,3.375-3.295,3.368-3.295c-10.487-4.673-26.91-10.294-30.152-19.888c7.58,3.124,12.846,1.979,22.201,3.257
	c-10.457,1.055,3.674,6.537,1.442,10.233c1.154-2.045,5.632-1.271,7.154-0.684c0,0-2.187-1.89-4.373-3.778
	c-2.229-1.949-4.253-3.994-4.261-3.994c7.654,0.982,5.996-0.862,9.438-2.223c-15.343-0.552-9.244-6.665-13.408-10.488
	c5.05,0.773,10.107,2.425,8.359,5.66c5.957-0.976,1.711-2.865-2.715-5.028c-4.479-2.126-9.029-4.5-3.689-5.407
	c-0.112,0.9-1.005,1.22,1.458,2.097c-3.912-3.004,0.914-7.25,4.917-4.946l-0.112,0.871c1.709-2.566,2.469-6.841,2.097-10.969
	c-0.401-4.12-2.723-8.48-8.598-11.261c1.592,0.558,14.326,6.315,16.668,7.521c0,0-9.372-6.122-18.445-13.032
	c-9.065-6.811-17.457-14.25-17.448-14.25c9.736,5.4,35.349,13.314,39.024,20.127c2.053-0.581,4.412-1.184,2.077-5.407
	c-1.792,0.074-15.553-4.784-15.88-6.458c12.583,2.058,7.279,0.525,17.938,1.454c-3.453-0.592-17.129-9.548-15.335-11.337
	c2.027,1.522,14.271,7.763,16.157,9.588c-0.657-0.717-3.25-3.547-5.848-6.375c-2.093-2.443-4.18-4.875-5.205-6.071
	c2.952,2.875,12.108,6.976,16.451,8.392c-3.153-1.293,2.625-3.763,1.918-5.896l-4.506-0.216
	c5.242-3.726-16.229-18.728-11.268-24.127c2.246,2.901,16.191,14.726,19.732,13.566c-3.005-3.25-10.406-11.156-16.75-19.612
	c-6.299-8.36-11.618-17.457-11.663-22.432l4.598,2.403l-0.431-7.996c3.339,5.742,8.725,15.017,14.109,24.284
	c5.243,8.53,10.442,17.001,13.633,22.208c4.493,0.774,4.968,3.296,6.813,0.559c4.314,2.253,4.226,5.928,3.831,6.76l7.117-3.265
	c-7.764-6.656-3.696-11.32-9.825-17.136c0,0,0.388,3.51,0.892,6.895c0.559,3.332,1.116,6.665,1.116,6.665
	c-3.934-3.273-8.553-8.986-11.327-14.504c-2.744-5.43-3.867-10.962-0.759-12.369c3.987,1.896,11.826,13.878,14.369,16.176
	c-1.963-2.959-0.639-8.493,1.437-6.998l1.947,5.623c4.752,0.892-5.213-13.596,3.965-8.776c1.502-0.356,11.291,8.033,7.691,3.161
	c-8.761-8.063-32.146-35.669-36.065-43.703c1.071,0.171,14.028,3.437,18.684,7.178c7.192,6.053,9.72,19.992,15.982,25.131
	c-1.576-2.313-2.588-5.868-2.797-7.104c2.515,1.094,4.507,7.453,6.197,4.574c-5.371-8.881,5.897-2.528-3.624-8.056
	c1.071-4.113,4.017,0.083,6.858-2.187c-4.566-5.072-8.761-21.383-6.924-25.965c1.085,2.41,3.413,5.028,4.506,6.271
	c6.903-2.225,12.192,0.267,18.037-2.188c1.539,2.113,5.465,3.92,5.919,8.516c0.134-2.008-0.378-5.571,1.347-6.463
	c6.522,7.178-3.429,2.73,2.989,11.885c-1.971-5.697,1.51-9.422,2.908-13.953c-3.719-8.561-6.708,0.558-7.78,4.953
	c-4.812-11.915-4.82-26.268,0.797-34.613c5.005-4.686,4.901,7.274,5.405,5.243c11.135-0.416,4.062-24.559,15.814-17.27
	c5.265,7.453,3.063,15.991,4.966,21.674c-3.926,3.599-7.966-3.713-11.066-2.612l4.642,2.805c-0.863,3.042-3.266,5.778-5.443,3.904
	c2.342,3.318,6.515,2.202,11.482,1.763c4.954-0.469,10.577-1.117,14.755,1.673c1.071-2.805,3.293-5.756,1.851-8.984l-2.461,1.272
	c-3.117-6.39,4.121-9.385,0.46-12.242c3.162-4.82,7.171-12.346,12.725-8.866l1.117,8.755c-0.504-2.517-3.578-4.669-4.844-1.943
	c2.195-4.18,8.041,12.063,10.347,0.097c0,0-0.908-1.666-1.824-3.325c-0.936-1.584-1.873-3.161-1.873-3.161
	c3.689-4.857,9.021-14.273,13.981-11.12c-1.836-9.334-1.146,0.997-4.39-9.979c2.646,13.019-12.197-0.128-8.664,11.852
	c-3.554-10.489-6.125-4.1-11.409-14.121c0.335,3.071,2.09,5.793-2.373,4.515c-0.141,0.907-0.528,2.067-0.772,2.752
	c-0.134-0.067-0.187-0.119-0.306-0.208l0.261,0.349c-0.149,0.469-0.163,0.573,0.104,0.119c1.13,1.301,2.053,2.864,2.484,4.56
	c-1.65,7.222-8.145,7.14-9.862,11.305c-2.559-1.102,0.595-3.659-1.102-6.731l-2.587,5.928c-1.128-6.746-8.225-10.256-2.804-15.128
	l-5.481,0.521c-3.8-3.22-8.732-4.209-10.814-0.625c-2.915-0.795-4.67,8.992-3.71,3.213l-7.252,6.247l-0.528-1.628
	c-2.097,0.335-4.015,1.435-5.846,2.819c-1.792,1.516-3.51,3.257-5.354,4.67c-3.712,2.842-7.824,4.299-14.742,0.321
	c-1.919,2.812-3.636,5.958-8.717,6.255l-3.428-4.909c-2.38,3.384-12.941-0.306-11.252,6.091
	c-11.417-11.618-17.859,6.358-24.367,8.256l4.337,6.403c-3.823,2.351-6.046,6.62-8.271,12.421l4.611,5.02
	c0.328,7.229-11.84,4.135-16.854,9.721c-1.487-2.179,0.387-2.982,2.454-2.729c-8.745-2.684-9.883,3.161-10.517,8.673
	c-0.55,5.705-0.647,11.074-7.296,10.776c0.75,3.131-0.75,3.712-2.937,3.793c0.088-0.165,0.082-0.373,0-0.618
	c-0.179,0.118-0.379,0.342-0.557,0.594c-1.458-0.007-3.095-0.105-4.574,0.037c1.843,0.32,3.414,0.499,4.328,0.329
	c-0.803,1.309-1.517,3.681-1.458,6.485l-6.56-3.474c-0.029,0.209-0.134,0.321-0.148,0.552c-3.585,0.296,1.786,3.428,7.006,5.651
	c0.312,1.591,0.908,3.235,1.904,4.85c-10.843-5.095,0.351,7.006-11.587,2.313c4.115,4.204-1.029,10.968,6.836,17.592
	c-2.298,1.388-4.612,2.902-2.276,6.401l-8.8-3.221c0,0,2.248,2.551,4.493,5.109c2.285,2.478,4.566,4.953,4.566,4.953
	c-6.477,0.373-10.144,0.417-15.283-5.482c6.701,11.439,1.3,7.623,9.147,17.531l-5.535-2.41c-0.602,2.313,5.801,8.344,0.618,8.002
	c-6.5,0.506-8.508,6.753-10.636,13.968c-2.483,7.199-3.517,15.537-9.928,21.688c18.035-0.521-8.903,5.46,4.983,7.459
	c-4.218,0.387-6.702,2.172-10.197-0.417c3.703,7.349-7.244,10.665,4.134,15.864c-4.253,0.765-6.076-1.63-8.612-0.938
	c0.885,0.609,3.554,2.35,1.012,3.094c-2.529,0.744-3.48-1.078-5.251-2.291c0.558,7.723,13.879,8.093,25.929,8.234
	c-5.579,3.59-4.672,5.488,3.405,7.383c-3.904,1.414-7.937,3.826-9.594-0.408c-0.201,1.229-1.532,5.08-1.398,8.568
	c0.341,3.48,1.94,6.521,6.775,5.951c-2.335,1.084-0.208,3.434,0.996,3.865c0.351,5.363-0.779,6.1,1.429,11.021l1.197-1.748
	c11.98-0.496,3.6,3.558,6.025,7.305l-1.19,0.179c-2.901,5.719-1.636,6.547-0.566,7.269c1.109,0.772,1.89,1.473-0.989,7.506
	l6.754-2.813c7.606-2.055,6.068,0.481,3.645,4.138c-2.433,3.627-5.691,8.498-1.942,9.957l3.177-3.429
	c5.717,0.563-16.229,16.063-16.503,20.199c-0.924,1.25-2.47-0.091-3.824-0.603c-4.551,11.976,9.133-3.027,13.863,1.62
	c-4.083,3.412-12.405,4.527-11.304,8.984c-1.406,2.008,3.815,2.959,8.769,4.282c4.901,1.408,9.274,3.279,6.641,8.457
	c2.656-3.272,5.399-6.396,9.394-5.594c3.086,2.842-5.362,18.455,7.058,14.271c-0.536,1.108-1.228,1.912-2.001,2.537
	c2.313,0.381,5.006,1.739,7.936,2.618c3.072,0.759,6.336,1.033,9.542-0.5c-8.5,9.408-2.544,11.416,3.012,12.563
	c5.674,1.103,11.305,1.146,3.354,9.722l8.53,6.047l-1.732,1.635c4.217,5.476,9.72,2.374,14.807-0.713
	c0.238,2.155-1.926,3.259-2.752,4.149c4.806,9.578,6.71,9.513,19.472,3.646l-3.228,6.881c2.061-1.316,3.444,2.988,6.1,7.385
	c2.759,4.105,6.983,8.166,13.127,6.23c-0.439,0.746-1.227,1.993-2.366,2.625c6.627-1.5,10.54,5.43,15.054,10.152
	c4.41,4.73,9.141,7.016,14.904-5.83c0,0,2.135-1.188,4.27-2.387c2.075-1.213,4.149-2.434,4.149-2.434
	c-7.758-4.195,4.254-11.225,2.061-16.496c3.324-0.813,6.024,10.105,1.822,10.482l-0.289-1.482
	c-4.895,13.571,9.153,7.586,7.125,16.807c8.799,0.99,17.137,4.354,25.792,6.441c4.306,1.146,8.643,2.586,13.001,3.295
	c4.358,0.66,8.726,1.086,13.03,1.033l-2.664-11.021c0,0,5.728,0.414,5.728,0.283c1.711,2.363,2.888,8.508-1.397,8.418
	c2.834,6.174,6.567-6.107,6.31-8.471c8.642,3.441-1.651,13.297,0.812,13.252l3.414-1.266l-0.953-1.195
	c2.254-4.879,1.771-9.684,6.771-9.787c3.479,1.688,2.779,6.479,4.104,6.664c0.138,0.797,0.627,1.063,1.988-0.082l7.622-0.654
	l-4.819-7.959c2.229-4.914,6.724-0.979,1.265-9.994c4.053,7.154,11.021,6.611,17.283,4.686c6.381-1.664,11.618-5.549,13.952-3.785
	c1.847-7.541,5.733-9.061,10.896-10.873c-2.029-1.049-6.938-9.646-2.492-10.502c7.561,18.512,11.318,4.971,21.355,14.008
	c-5.779-6.068,10.928-8.797-0.738-17.305c4.174-0.646,4.365,6.346,9.521,8.637c1.727-6.101,6.691-7.945,12.344-9.834
	c5.432-2.096,11.916-3.875,15.402-9.045c-1.719-2.072-5.885-3.718-6.834-8.365c0,0,3.404,1.338,6.818,2.677
	c3.488,1.266,6.969,2.522,6.969,2.522c0.832-2.671-9.525-12.315,0.209-8.912c-2.075-1.106-5.152-2.826-4.7-4.492
	c6.099-2.014,10.739-5.829,14.429-10.375c3.406-4.78,6.311-9.979,8.912-15.274c5.309-10.696,10.813-20.187,26.75-26.647
	C439.365,346.773,439.744,344.514,440.496,342.168z"/>
<path fill="#FFFFFF" stroke="#000000" stroke-miterlimit="10" d="M252.504,45.221c0.09-0.079,0.205-0.13,0.348-0.148
	C252.781,45.095,252.662,45.147,252.504,45.221z"/>
<path fill="#FFFFFF" stroke="#000000" stroke-miterlimit="10" d="M252.506,49.364c-0.076-1.48-0.67-3.557-0.002-4.146
	c-1.047,0.483-3.686,1.861-3.686,1.861C250.796,46.643,251.518,48.196,252.506,49.364z"/>
<path fill="#FFFFFF" stroke="#000000" stroke-miterlimit="10" d="M281.143,93.164c0.623-0.811,1.025,0.075,1.648-0.743l0.463-3.392
	C281.127,88.896,279.291,91.379,281.143,93.164z"/>
<path fill="#FFFFFF" stroke="#000000" stroke-miterlimit="10" d="M261.285,72.86c-0.152,0.015-0.301,0.06-0.449-0.031
	c1.168-8.583-1.799-5.89-4.578-3.182C256.42,75.849,258.686,73.863,261.285,72.86z"/>
<path fill="#FFFFFF" stroke="#000000" stroke-miterlimit="10" d="M261.877,72.681c0.805-0.246,1.615-0.349,2.367-0.021
	C264.75,69.215,263.32,71.878,261.877,72.681z"/>
<path fill="#FFFFFF" stroke="#000000" stroke-miterlimit="10" d="M227.911,54.919c1.479,1.384-0.052-7.973,0.99-5.591
	C229.437,41.303,221.165,60.082,227.911,54.919z"/>
<polygon fill="#FFFFFF" stroke="#000000" stroke-miterlimit="10" points="255.617,88.516 257.705,90.114 257.082,82.439 "/>
<path fill="#FFFFFF" stroke="#000000" stroke-miterlimit="10" d="M239.083,84.863l3.912,1.928c-0.126-1.273,0.319-2.047,0.885-2.641
	C241.529,83.993,238.83,82.616,239.083,84.863z"/>
<path fill="#FFFFFF" stroke="#000000" stroke-miterlimit="10" d="M246.915,82.714c-0.662,0.111-2.09,0.438-3.035,1.436
	C245.114,84.224,246.267,84.001,246.915,82.714z"/>
<polygon fill="#FFFFFF" stroke="#000000" stroke-miterlimit="10" points="248.981,90.122 252.664,92.123 251.584,90.545 "/>
<path fill="#FFFFFF" stroke="#000000" stroke-miterlimit="10" d="M214.695,112.033l0.817-3.987
	c-1.337-1.287-1.807-2.932-2.968-5.222L214.695,112.033z"/>
</svg>
