<?xml version="1.0" encoding="utf-8"?>
<!-- Generator: Adobe Illustrator 16.0.0, SVG Export Plug-In . SVG Version: 6.00 Build 0)  -->
<!DOCTYPE svg PUBLIC "-//W3C//DTD SVG 1.1//EN" "http://www.w3.org/Graphics/SVG/1.1/DTD/svg11.dtd">
<svg version="1.1" id="레이어_1" xmlns="http://www.w3.org/2000/svg" xmlns:xlink="http://www.w3.org/1999/xlink" x="0px"
	 y="0px" width="512px" height="512px" viewBox="0 0 512 512" enable-background="new 0 0 512 512" xml:space="preserve">
<path fill="#FFFFFF" stroke="#000000" stroke-miterlimit="10" d="M176.599,230.956l-39.648,39.64
	c-5.792,5.793-8.98,13.498-8.98,21.691s3.189,15.893,8.981,21.688l36.794,36.805c5.793,5.785,13.495,8.988,21.688,8.988h28.747
	c8.186,0,15.896-3.203,21.677-8.988l25.283-25.29L176.599,230.956z"/>
<path fill="#FFFFFF" stroke="#000000" stroke-miterlimit="10" d="M373.617,214.348l-85.877-85.859c-2.305-2.315-6.375-2.315-8.666,0
	l-93.805,93.792l94.545,94.533l93.776-93.793C376.008,220.621,376.008,216.756,373.617,214.348z"/>
<g>
	<path fill="#FFFFFF" stroke="#000000" stroke-miterlimit="10" d="M258.869,384.295H148.467c-3.384,0-6.132-2.756-6.132-6.148
		c0-3.367,2.748-6.123,6.132-6.123h110.402c3.377,0,6.131,2.756,6.131,6.123C265,381.539,262.246,384.295,258.869,384.295z"/>
</g>
<path fill="#FFFFFF" stroke="#000000" stroke-miterlimit="10" d="M336.557,369.339h-24.006l-5.393,14.956h-7.791l21.881-57.303
	h6.611l21.922,57.303h-7.752L336.557,369.339z M314.834,363.12h19.482l-9.763-26.802L314.834,363.12z"/>
<path fill="#FFFFFF" stroke="#000000" stroke-miterlimit="10" d="M364.264,384.295h-7.28v-60.451h7.28V384.295z"/>
<path fill="#FFFFFF" stroke="#000000" stroke-miterlimit="10" d="M383.824,384.295h-7.281v-60.451h7.281V384.295z"/>
</svg>
