<?xml version="1.0" encoding="utf-8"?>
<!-- Generator: Adobe Illustrator 16.0.0, SVG Export Plug-In . SVG Version: 6.00 Build 0)  -->
<!DOCTYPE svg PUBLIC "-//W3C//DTD SVG 1.1//EN" "http://www.w3.org/Graphics/SVG/1.1/DTD/svg11.dtd">
<svg version="1.1" id="레이어_1" xmlns="http://www.w3.org/2000/svg" xmlns:xlink="http://www.w3.org/1999/xlink" x="0px"
	 y="0px" width="82px" height="16px" viewBox="0 0 82 16" enable-background="new 0 0 82 16" xml:space="preserve">
<path fill="#666666" d="M14.11,14.119c-2.676,0.24-4.896,0.361-6.66,0.361c-1.176,0-2.04-0.276-2.592-0.828
	C4.307,13.1,4.03,12.236,4.03,11.06V5.3c0-1.26,0.285-2.175,0.855-2.745C5.455,1.985,6.37,1.7,7.631,1.7h6.479v2.52h-5.76
	c-0.72,0-1.08,0.36-1.08,1.08v5.76c0,0.276,0.081,0.495,0.243,0.657s0.369,0.243,0.621,0.243s0.527-0.003,0.828-0.009
	c0.3-0.006,0.611-0.016,0.936-0.027s0.651-0.023,0.981-0.036c0.329-0.012,0.756-0.036,1.277-0.071
	c0.522-0.037,1.173-0.078,1.953-0.127V14.119z"/>
<path fill="#666666" d="M17.801,14.3h-3.51l4.77-12.6h3.601l4.77,12.6h-3.51l-0.811-2.25h-4.5L17.801,14.3z M19.421,9.71h2.88
	l-1.44-4.23L19.421,9.71z"/>
<path fill="#666666" d="M39.31,14.3h-3.42L31.57,6.74v7.56h-3.24V1.7h3.42l4.32,7.56V1.7h3.239V14.3z"/>
<path fill="#666666" d="M43.721,14.3h-3.51l4.77-12.6h3.601l4.77,12.6h-3.51l-0.811-2.25h-4.5L43.721,14.3z M45.341,9.71h2.88
	l-1.44-4.23L45.341,9.71z"/>
<path fill="#666666" d="M61.27,1.7c1.356,0,2.386,0.351,3.087,1.053c0.702,0.702,1.054,1.731,1.054,3.087v4.32
	c0,1.355-0.352,2.385-1.054,3.086c-0.701,0.703-1.73,1.054-3.087,1.054h-7.02V1.7H61.27z M62.17,5.84c0-1.08-0.54-1.62-1.62-1.62
	h-3.06v7.56h3.06c1.08,0,1.62-0.539,1.62-1.619V5.84z"/>
<path fill="#666666" d="M68.92,14.3h-3.51l4.77-12.6h3.601l4.77,12.6h-3.51l-0.811-2.25h-4.5L68.92,14.3z M70.54,9.71h2.88
	l-1.44-4.23L70.54,9.71z"/>
</svg>
