<?xml version="1.0" encoding="utf-8"?>
<!-- Generator: Adobe Illustrator 16.0.0, SVG Export Plug-In . SVG Version: 6.00 Build 0)  -->
<!DOCTYPE svg PUBLIC "-//W3C//DTD SVG 1.1//EN" "http://www.w3.org/Graphics/SVG/1.1/DTD/svg11.dtd">
<svg version="1.1" id="레이어_1" xmlns="http://www.w3.org/2000/svg" xmlns:xlink="http://www.w3.org/1999/xlink" x="0px"
	 y="0px" width="74px" height="16px" viewBox="0 0 74 16" enable-background="new 0 0 74 16" xml:space="preserve">
<path fill="#666666" d="M3.712,1.699h7.2c1.176,0,2.04,0.267,2.592,0.801c0.552,0.534,0.828,1.347,0.828,2.439
	c0,0.72-0.156,1.305-0.468,1.755c-0.313,0.45-0.696,0.765-1.152,0.945c0.972,0.264,1.632,0.912,1.979,1.945
	c0.12,0.371,0.181,0.803,0.181,1.295c0,1.177-0.276,2.041-0.828,2.592c-0.552,0.553-1.416,0.828-2.592,0.828h-7.74V1.699z
	 M11.092,5.299c0-0.72-0.36-1.08-1.08-1.08h-3.06v2.52h3.06c0.72,0,1.08-0.36,1.08-1.08V5.299z M11.632,10.34
	c0-0.721-0.36-1.08-1.08-1.08h-3.6v2.52h3.6c0.72,0,1.08-0.359,1.08-1.08V10.34z"/>
<path fill="#666666" d="M16.493,1.699h7.56c1.261,0,2.175,0.285,2.745,0.855c0.57,0.57,0.855,1.485,0.855,2.745v1.62
	c0,0.996-0.165,1.77-0.495,2.322s-0.855,0.918-1.575,1.099l2.25,3.959h-3.51l-2.07-3.779h-2.52v3.779h-3.24V1.699z M24.413,5.299
	c0-0.72-0.36-1.08-1.08-1.08h-3.6V8h3.6c0.72,0,1.08-0.36,1.08-1.08V5.299z"/>
<path fill="#666666" d="M31.702,14.299h-3.51l4.77-12.6h3.601l4.77,12.6h-3.51l-0.811-2.25h-4.5L31.702,14.299z M33.322,9.709h2.88
	l-1.44-4.229L33.322,9.709z"/>
<path fill="#666666" d="M51.771,4.219l-6.299,7.56h6.299v2.52h-10.26v-2.52l6.301-7.56h-6.301v-2.52h10.26V4.219z"/>
<path fill="#666666" d="M59.15,14.299h-6.479v-2.52h1.619v-7.56h-1.619v-2.52h6.479v2.52h-1.619v7.56h1.619V14.299z"/>
<path fill="#666666" d="M64.012,11.779h6.57v2.52h-9.811v-12.6h3.24V11.779z"/>
</svg>
