<?xml version="1.0" encoding="utf-8"?>
<!-- Generator: Adobe Illustrator 16.0.0, SVG Export Plug-In . SVG Version: 6.00 Build 0)  -->
<!DOCTYPE svg PUBLIC "-//W3C//DTD SVG 1.1//EN" "http://www.w3.org/Graphics/SVG/1.1/DTD/svg11.dtd">
<svg version="1.1" id="레이어_1" xmlns="http://www.w3.org/2000/svg" xmlns:xlink="http://www.w3.org/1999/xlink" x="0px"
	 y="0px" width="66px" height="16px" viewBox="0 0 66 16" enable-background="new 0 0 66 16" xml:space="preserve">
<path fill="#666666" d="M15.07,14.3H5.08V1.7h9.99v2.52H8.32v2.43h5.31v2.52H8.32v2.609h6.75V14.3z"/>
<path fill="#666666" d="M27.31,14.029c-2.808,0.301-5.388,0.451-7.74,0.451c-1.176,0-2.04-0.276-2.592-0.828
	c-0.552-0.553-0.828-1.416-0.828-2.593V5.3c0-1.26,0.285-2.175,0.855-2.745C17.574,1.985,18.489,1.7,19.75,1.7h6.479v2.52h-5.76
	c-0.72,0-1.08,0.36-1.08,1.08v5.76c0,0.276,0.081,0.495,0.243,0.657s0.381,0.243,0.657,0.243c1.38,0,2.64-0.03,3.779-0.091V9.26
	h-2.34V7.1h5.58V14.029z"/>
<path fill="#666666" d="M26.949,1.7h3.42l2.971,6.12l2.97-6.12h3.42l-4.77,9.27v3.33h-3.24v-3.33L26.949,1.7z"/>
<path fill="#666666" d="M40.45,1.7h7.56c1.261,0,2.175,0.285,2.745,0.855c0.57,0.57,0.855,1.485,0.855,2.745v1.8
	c0,1.26-0.285,2.176-0.855,2.745c-0.57,0.57-1.484,0.854-2.745,0.854H43.69V14.3h-3.24V1.7z M48.37,5.3c0-0.72-0.36-1.08-1.08-1.08
	h-3.6v3.96h3.6c0.72,0,1.08-0.36,1.08-1.08V5.3z"/>
<path fill="#666666" d="M59.35,14.3h-3.24V4.22h-3.78V1.7H63.13v2.52h-3.78V14.3z"/>
</svg>
