<?xml version="1.0" encoding="utf-8"?>
<!-- Generator: Adobe Illustrator 16.0.0, SVG Export Plug-In . SVG Version: 6.00 Build 0)  -->
<!DOCTYPE svg PUBLIC "-//W3C//DTD SVG 1.1//EN" "http://www.w3.org/Graphics/SVG/1.1/DTD/svg11.dtd">
<svg version="1.1" id="레이어_1" xmlns="http://www.w3.org/2000/svg" xmlns:xlink="http://www.w3.org/1999/xlink" x="0px"
	 y="0px" width="74px" height="16px" viewBox="0 0 74 16" enable-background="new 0 0 74 16" xml:space="preserve">
<path fill="#666666" d="M10.02,14.3H3.54v-2.521h1.62V4.22H3.54V1.7h6.479v2.52H8.4v7.56h1.619V14.3z"/>
<path fill="#666666" d="M11.262,11.689c3.288,0.18,5.514,0.271,6.678,0.271c0.276,0,0.495-0.081,0.657-0.243
	s0.243-0.381,0.243-0.657v-1.62h-4.141c-1.26,0-2.175-0.285-2.745-0.854C11.385,8.015,11.1,7.1,11.1,5.84V5.3
	c0-1.26,0.285-2.175,0.854-2.745c0.57-0.57,1.485-0.855,2.745-0.855h6.318v2.52H15.42c-0.721,0-1.08,0.36-1.08,1.08v0.36
	c0,0.72,0.359,1.08,1.08,1.08h3.239c1.177,0,2.04,0.276,2.593,0.828c0.552,0.552,0.827,1.416,0.827,2.592v0.899
	c0,1.177-0.275,2.04-0.827,2.593c-0.553,0.552-1.416,0.828-2.593,0.828c-0.611,0-1.26-0.013-1.943-0.037l-1.656-0.072
	c-1.224-0.06-2.49-0.143-3.798-0.252V11.689z"/>
<path fill="#666666" d="M23.7,1.7h7.56c1.261,0,2.175,0.285,2.745,0.855c0.57,0.57,0.855,1.485,0.855,2.745v1.62
	c0,0.996-0.165,1.77-0.495,2.322c-0.33,0.552-0.855,0.918-1.575,1.098l2.25,3.96h-3.51l-2.07-3.78h-2.52v3.78H23.7V1.7z M31.62,5.3
	c0-0.72-0.36-1.08-1.08-1.08h-3.6V8h3.6c0.72,0,1.08-0.36,1.08-1.08V5.3z"/>
<path fill="#666666" d="M38.91,14.3H35.4l4.77-12.6h3.601l4.77,12.6h-3.51l-0.811-2.25h-4.5L38.91,14.3z M40.53,9.71h2.88
	l-1.44-4.23L40.53,9.71z"/>
<path fill="#666666" d="M59.43,14.3h-9.99V1.7h9.99v2.52h-6.75v2.43h5.31v2.52h-5.31v2.609h6.75V14.3z"/>
<path fill="#666666" d="M64.109,11.779h6.569V14.3h-9.81V1.7h3.24V11.779z"/>
</svg>
