<?xml version="1.0" encoding="utf-8"?>
<!-- Generator: Adobe Illustrator 16.0.0, SVG Export Plug-In . SVG Version: 6.00 Build 0)  -->
<!DOCTYPE svg PUBLIC "-//W3C//DTD SVG 1.1//EN" "http://www.w3.org/Graphics/SVG/1.1/DTD/svg11.dtd">
<svg version="1.1" id="레이어_1" xmlns="http://www.w3.org/2000/svg" xmlns:xlink="http://www.w3.org/1999/xlink" x="0px"
	 y="0px" width="136px" height="16px" viewBox="0 0 136 16" enable-background="new 0 0 136 16" xml:space="preserve">
<path fill="#666666" d="M3.703,11.689c3.288,0.18,5.514,0.271,6.678,0.271c0.276,0,0.495-0.081,0.657-0.243s0.243-0.381,0.243-0.657
	v-1.62H7.14c-1.26,0-2.175-0.285-2.745-0.854C3.826,8.015,3.541,7.1,3.541,5.84V5.3c0-1.26,0.285-2.175,0.854-2.745
	C4.965,1.985,5.88,1.7,7.14,1.7h6.318v2.52H7.861c-0.721,0-1.08,0.36-1.08,1.08v0.36c0,0.72,0.359,1.08,1.08,1.08H11.1
	c1.177,0,2.04,0.276,2.593,0.828c0.552,0.552,0.827,1.416,0.827,2.592v0.899c0,1.177-0.275,2.04-0.827,2.593
	c-0.553,0.552-1.416,0.828-2.593,0.828c-0.611,0-1.26-0.013-1.943-0.037L7.5,14.371c-1.224-0.06-2.49-0.143-3.798-0.252V11.689z"/>
<path fill="#666666" d="M18.031,14.3h-3.51l4.77-12.6h3.601l4.77,12.6h-3.51l-0.811-2.25h-4.5L18.031,14.3z M19.651,9.71h2.88
	l-1.44-4.23L19.651,9.71z"/>
<path fill="#666666" d="M36.3,1.7h3.24v9.18c0,1.26-0.285,2.175-0.854,2.745c-0.57,0.57-1.485,0.855-2.745,0.855H31.8
	c-1.26,0-2.175-0.285-2.745-0.855c-0.569-0.57-0.854-1.485-0.854-2.745V1.7h3.24v9.18c0,0.72,0.359,1.08,1.08,1.08h2.699
	c0.721,0,1.08-0.36,1.08-1.08V1.7z"/>
<path fill="#666666" d="M48.72,1.7c1.356,0,2.386,0.351,3.087,1.053c0.702,0.702,1.054,1.731,1.054,3.087v4.32
	c0,1.355-0.352,2.385-1.054,3.086c-0.701,0.703-1.73,1.054-3.087,1.054h-7.02V1.7H48.72z M49.621,5.84c0-1.08-0.54-1.62-1.62-1.62
	h-3.06v7.56H48c1.08,0,1.62-0.539,1.62-1.619V5.84z"/>
<path fill="#666666" d="M60.6,14.3h-6.479v-2.521h1.62V4.22h-1.62V1.7H60.6v2.52h-1.619v7.56H60.6V14.3z"/>
<path fill="#666666" d="M64.47,14.3h-3.51l4.77-12.6h3.6l4.77,12.6h-3.51l-0.811-2.25h-4.5L64.47,14.3z M66.09,9.71h2.88l-1.44-4.23
	L66.09,9.71z"/>
<path fill="#666666" d="M75,1.7h7.561c1.26,0,2.174,0.285,2.744,0.855c0.57,0.57,0.855,1.485,0.855,2.745v1.62
	c0,0.996-0.164,1.77-0.494,2.322c-0.33,0.552-0.855,0.918-1.576,1.098l2.25,3.96h-3.51l-2.07-3.78h-2.52v3.78H75V1.7z M82.92,5.3
	c0-0.72-0.359-1.08-1.08-1.08h-3.6V8h3.6c0.721,0,1.08-0.36,1.08-1.08V5.3z"/>
<path fill="#666666" d="M90.211,14.3h-3.51l4.77-12.6h3.6l4.77,12.6h-3.51l-0.811-2.25h-4.5L90.211,14.3z M91.83,9.71h2.881
	L93.27,5.48L91.83,9.71z"/>
<path fill="#666666" d="M100.74,1.7h7.199c1.176,0,2.041,0.267,2.592,0.801c0.553,0.534,0.828,1.347,0.828,2.439
	c0,0.72-0.156,1.305-0.467,1.755c-0.313,0.45-0.697,0.765-1.152,0.945c0.971,0.264,1.631,0.912,1.979,1.944
	c0.121,0.372,0.182,0.804,0.182,1.296c0,1.177-0.277,2.04-0.828,2.592c-0.553,0.552-1.416,0.828-2.592,0.828h-7.74V1.7z
	 M108.119,5.3c0-0.72-0.359-1.08-1.08-1.08h-3.059v2.52h3.059c0.721,0,1.08-0.36,1.08-1.08V5.3z M108.66,10.34
	c0-0.721-0.361-1.08-1.08-1.08h-3.6v2.52h3.6c0.719,0,1.08-0.359,1.08-1.08V10.34z"/>
<path fill="#666666" d="M119.459,14.3h-6.479v-2.521h1.619V4.22h-1.619V1.7h6.479v2.52h-1.619v7.56h1.619V14.3z"/>
<path fill="#666666" d="M123.33,14.3h-3.51l4.77-12.6h3.6l4.77,12.6h-3.51l-0.811-2.25h-4.5L123.33,14.3z M124.949,9.71h2.881
	l-1.441-4.23L124.949,9.71z"/>
</svg>
