<?xml version="1.0" encoding="utf-8"?>
<!-- Generator: Adobe Illustrator 16.0.0, SVG Export Plug-In . SVG Version: 6.00 Build 0)  -->
<!DOCTYPE svg PUBLIC "-//W3C//DTD SVG 1.1//EN" "http://www.w3.org/Graphics/SVG/1.1/DTD/svg11.dtd">
<svg version="1.1" id="레이어_1" xmlns="http://www.w3.org/2000/svg" xmlns:xlink="http://www.w3.org/1999/xlink" x="0px"
	 y="0px" width="65px" height="16px" viewBox="0 0 65 16" enable-background="new 0 0 65 16" xml:space="preserve">
<path fill="#666666" d="M5.32,14.3H2.08V1.7h3.24v4.95h1.62L9.748,1.7h3.42L9.64,7.91l3.511,6.39H9.73L6.94,9.17H5.32V14.3z"/>
<path fill="#666666" d="M25.229,10.88c0,1.26-0.285,2.175-0.854,2.745c-0.57,0.57-1.485,0.855-2.745,0.855h-4.5
	c-1.261,0-2.176-0.285-2.745-0.855c-0.57-0.57-0.855-1.485-0.855-2.745V5.12c0-1.26,0.285-2.175,0.855-2.745
	c0.569-0.57,1.484-0.855,2.745-0.855h4.5c1.26,0,2.175,0.285,2.745,0.855c0.569,0.57,0.854,1.485,0.854,2.745V10.88z M21.988,5.12
	c0-0.72-0.359-1.08-1.08-1.08h-3.06c-0.72,0-1.08,0.36-1.08,1.08v5.76c0,0.72,0.36,1.08,1.08,1.08h3.06c0.721,0,1.08-0.36,1.08-1.08
	V5.12z"/>
<path fill="#666666" d="M27.028,1.7h7.56c1.261,0,2.175,0.285,2.745,0.855c0.57,0.57,0.855,1.485,0.855,2.745v1.62
	c0,0.996-0.165,1.77-0.495,2.322c-0.33,0.552-0.855,0.918-1.575,1.098l2.25,3.96h-3.51l-2.07-3.78h-2.52v3.78h-3.24V1.7z
	 M34.948,5.3c0-0.72-0.36-1.08-1.08-1.08h-3.6V8h3.6c0.72,0,1.08-0.36,1.08-1.08V5.3z"/>
<path fill="#666666" d="M49.979,14.3h-9.99V1.7h9.99v2.52h-6.75v2.43h5.31v2.52h-5.31v2.609h6.75V14.3z"/>
<path fill="#666666" d="M53.668,14.3h-3.51l4.77-12.6h3.601l4.77,12.6h-3.51l-0.811-2.25h-4.5L53.668,14.3z M55.288,9.71h2.88
	l-1.44-4.23L55.288,9.71z"/>
</svg>
