<?xml version="1.0" encoding="utf-8"?>
<!-- Generator: Adobe Illustrator 16.0.0, SVG Export Plug-In . SVG Version: 6.00 Build 0)  -->
<!DOCTYPE svg PUBLIC "-//W3C//DTD SVG 1.1//EN" "http://www.w3.org/Graphics/SVG/1.1/DTD/svg11.dtd">
<svg version="1.1" id="레이어_1" xmlns="http://www.w3.org/2000/svg" xmlns:xlink="http://www.w3.org/1999/xlink" x="0px"
	 y="0px" width="112px" height="16px" viewBox="0 0 112 16" enable-background="new 0 0 112 16" xml:space="preserve">
<path fill="#666666" d="M2.702,11.689c3.288,0.18,5.514,0.27,6.678,0.27c0.276,0,0.495-0.08,0.657-0.242s0.243-0.381,0.243-0.658
	V9.439H6.14c-1.26,0-2.175-0.285-2.745-0.855C2.825,8.015,2.54,7.099,2.54,5.839v-0.54c0-1.26,0.285-2.175,0.854-2.745
	c0.57-0.57,1.485-0.855,2.745-0.855h6.318v2.52H6.86c-0.721,0-1.08,0.36-1.08,1.08v0.36c0,0.72,0.359,1.08,1.08,1.08H10.1
	c1.177,0,2.04,0.276,2.593,0.828c0.552,0.552,0.827,1.416,0.827,2.592v0.899c0,1.177-0.275,2.041-0.827,2.593
	c-0.553,0.552-1.416,0.828-2.593,0.828c-0.611,0-1.26-0.013-1.943-0.036L6.5,14.371c-1.224-0.061-2.49-0.144-3.798-0.252V11.689z"/>
<path fill="#666666" d="M21.079,14.299H14.6v-2.52h1.62v-7.56H14.6v-2.52h6.479v2.52H19.46v7.56h1.619V14.299z"/>
<path fill="#666666" d="M33.68,14.299h-3.42l-4.319-7.56v7.56H22.7v-12.6h3.42l4.32,7.561V1.699h3.239V14.299z"/>
<path fill="#666666" d="M46.64,14.029c-2.808,0.3-5.388,0.45-7.74,0.45c-1.176,0-2.04-0.276-2.592-0.828s-0.828-1.416-0.828-2.593
	V5.299c0-1.26,0.285-2.175,0.855-2.745c0.569-0.57,1.484-0.855,2.745-0.855h6.479v2.52H39.8c-0.72,0-1.08,0.36-1.08,1.08v5.759
	c0,0.277,0.081,0.496,0.243,0.658s0.381,0.242,0.657,0.242c1.38,0,2.64-0.029,3.779-0.09V9.26h-2.34V7.099h5.58V14.029z"/>
<path fill="#666666" d="M50.689,14.299h-3.51l4.77-12.6h3.601l4.77,12.6h-3.51l-0.811-2.25h-4.5L50.689,14.299z M52.31,9.709h2.88
	l-1.44-4.229L52.31,9.709z"/>
<path fill="#666666" d="M61.22,1.699h7.56c1.261,0,2.175,0.285,2.745,0.855c0.57,0.57,0.855,1.485,0.855,2.745v1.8
	c0,1.26-0.285,2.175-0.855,2.745c-0.57,0.57-1.484,0.855-2.745,0.855H64.46v3.6h-3.24V1.699z M69.14,5.299
	c0-0.72-0.36-1.08-1.08-1.08h-3.6v3.96h3.6c0.72,0,1.08-0.36,1.08-1.08V5.299z"/>
<path fill="#666666" d="M85.34,10.879c0,1.26-0.285,2.176-0.854,2.746c-0.57,0.569-1.485,0.854-2.745,0.854h-4.5
	c-1.261,0-2.176-0.285-2.745-0.854c-0.57-0.57-0.855-1.486-0.855-2.746v-5.76c0-1.26,0.285-2.175,0.855-2.745
	c0.569-0.57,1.484-0.855,2.745-0.855h4.5c1.26,0,2.175,0.285,2.745,0.855c0.569,0.57,0.854,1.485,0.854,2.745V10.879z M82.1,5.119
	c0-0.72-0.359-1.08-1.08-1.08h-3.06c-0.72,0-1.08,0.36-1.08,1.08v5.76c0,0.721,0.36,1.08,1.08,1.08h3.06
	c0.721,0,1.08-0.359,1.08-1.08V5.119z"/>
<path fill="#666666" d="M87.14,1.699h7.56c1.261,0,2.175,0.285,2.745,0.855c0.57,0.57,0.855,1.485,0.855,2.745v1.62
	c0,0.996-0.165,1.77-0.495,2.322s-0.855,0.918-1.575,1.099l2.25,3.959h-3.51l-2.07-3.779h-2.52v3.779h-3.24V1.699z M95.06,5.299
	c0-0.72-0.36-1.08-1.08-1.08h-3.6V8h3.6c0.72,0,1.08-0.36,1.08-1.08V5.299z"/>
<path fill="#666666" d="M110.09,14.299h-9.99v-12.6h9.99v2.52h-6.75v2.43h5.31V9.17h-5.31v2.609h6.75V14.299z"/>
</svg>
