<?xml version="1.0" encoding="utf-8"?>
<!-- Generator: Adobe Illustrator 16.0.0, SVG Export Plug-In . SVG Version: 6.00 Build 0)  -->
<!DOCTYPE svg PUBLIC "-//W3C//DTD SVG 1.1//EN" "http://www.w3.org/Graphics/SVG/1.1/DTD/svg11.dtd">
<svg version="1.1" id="레이어_1" xmlns="http://www.w3.org/2000/svg" xmlns:xlink="http://www.w3.org/1999/xlink" x="0px"
	 y="0px" width="97px" height="16px" viewBox="0 0 97 16" enable-background="new 0 0 97 16" xml:space="preserve">
<path fill="#666666" d="M11.1,1.7c1.356,0,2.386,0.351,3.087,1.053c0.702,0.702,1.054,1.731,1.054,3.087v4.32
	c0,1.355-0.352,2.385-1.054,3.086c-0.701,0.703-1.73,1.054-3.087,1.054H4.08V1.7H11.1z M12,5.84c0-1.08-0.54-1.62-1.62-1.62H7.32
	v7.56h3.06c1.08,0,1.62-0.539,1.62-1.619V5.84z"/>
<path fill="#666666" d="M27.03,14.3h-9.99V1.7h9.99v2.52h-6.75v2.43h5.31v2.52h-5.31v2.609h6.75V14.3z"/>
<path fill="#666666" d="M39.449,14.3h-3.42L31.71,6.74v7.56h-3.24V1.7h3.42l4.32,7.56V1.7h3.239V14.3z"/>
<path fill="#666666" d="M52.409,7.28l-2.52,4.5h-2.521l-2.52-4.5v7.02h-3.24V1.7h3.42l3.6,6.66l3.601-6.66h3.42v12.6h-3.24V7.28z"/>
<path fill="#666666" d="M60.06,14.3h-3.51l4.77-12.6h3.601l4.77,12.6h-3.51l-0.811-2.25h-4.5L60.06,14.3z M61.68,9.71h2.88
	l-1.44-4.23L61.68,9.71z"/>
<path fill="#666666" d="M70.59,1.7h7.56c1.261,0,2.175,0.285,2.745,0.855c0.57,0.57,0.855,1.485,0.855,2.745v1.62
	c0,0.996-0.165,1.77-0.495,2.322c-0.33,0.552-0.855,0.918-1.575,1.098l2.25,3.96h-3.51l-2.07-3.78h-2.52v3.78h-3.24V1.7z M78.51,5.3
	c0-0.72-0.36-1.08-1.08-1.08h-3.6V8h3.6c0.72,0,1.08-0.36,1.08-1.08V5.3z"/>
<path fill="#666666" d="M86.789,14.3h-3.24V1.7h3.24v4.95h1.62l2.808-4.95h3.42l-3.528,6.21l3.511,6.39h-3.42l-2.79-5.13h-1.62V14.3
	z"/>
</svg>
