<?xml version="1.0" encoding="utf-8"?>
<!-- Generator: Adobe Illustrator 16.0.0, SVG Export Plug-In . SVG Version: 6.00 Build 0)  -->
<!DOCTYPE svg PUBLIC "-//W3C//DTD SVG 1.1//EN" "http://www.w3.org/Graphics/SVG/1.1/DTD/svg11.dtd">
<svg version="1.1" id="레이어_1" xmlns="http://www.w3.org/2000/svg" xmlns:xlink="http://www.w3.org/1999/xlink" x="0px"
	 y="0px" width="124px" height="16px" viewBox="0 0 124 16" enable-background="new 0 0 124 16" xml:space="preserve">
<path fill="#666666" d="M3.251,1.6h7.56c1.261,0,2.175,0.285,2.745,0.855c0.57,0.57,0.855,1.485,0.855,2.745V7
	c0,1.26-0.285,2.175-0.855,2.744c-0.57,0.57-1.484,0.855-2.745,0.855H6.491v3.6h-3.24V1.6z M11.171,5.2c0-0.72-0.36-1.08-1.08-1.08
	h-3.6v3.96h3.6c0.72,0,1.08-0.36,1.08-1.08V5.2z"/>
<path fill="#666666" d="M27.011,14.199h-3.239V9.07h-4.5v5.129h-3.24V1.6h3.24v4.95h4.5V1.6h3.239V14.199z"/>
<path fill="#666666" d="M35.11,14.199h-6.479v-2.52h1.62V4.12h-1.62V1.6h6.479v2.52h-1.619v7.56h1.619V14.199z"/>
<path fill="#666666" d="M39.971,11.68h6.569v2.52h-9.81V1.6h3.24V11.68z"/>
<path fill="#666666" d="M51.04,11.68h6.569v2.52H47.8V1.6h3.24V11.68z"/>
<path fill="#666666" d="M64.81,14.199H58.33v-2.52h1.62V4.12h-1.62V1.6h6.479v2.52H63.19v7.56h1.619V14.199z"/>
<path fill="#666666" d="M66.43,1.6h7.56c1.261,0,2.175,0.285,2.745,0.855c0.57,0.57,0.855,1.485,0.855,2.745V7
	c0,1.26-0.285,2.175-0.855,2.744c-0.57,0.57-1.484,0.855-2.745,0.855H69.67v3.6h-3.24V1.6z M74.35,5.2c0-0.72-0.36-1.08-1.08-1.08
	h-3.6v3.96h3.6c0.72,0,1.08-0.36,1.08-1.08V5.2z"/>
<path fill="#666666" d="M85.149,14.199H78.67v-2.52h1.62V4.12h-1.62V1.6h6.479v2.52H83.53v7.56h1.619V14.199z"/>
<path fill="#666666" d="M97.749,14.199h-3.42L90.01,6.64v7.559h-3.24V1.6h3.42l4.32,7.56V1.6h3.239V14.199z"/>
<path fill="#666666" d="M109.899,14.199h-9.99V1.6h9.99v2.52h-6.75v2.43h5.31v2.52h-5.31v2.609h6.75V14.199z"/>
<path fill="#666666" d="M110.961,11.59c3.288,0.18,5.514,0.27,6.678,0.27c0.276,0,0.495-0.08,0.657-0.242s0.243-0.381,0.243-0.658
	V9.34h-4.141c-1.26,0-2.175-0.285-2.745-0.854c-0.569-0.57-0.854-1.485-0.854-2.745V5.2c0-1.26,0.285-2.175,0.854-2.745
	c0.57-0.57,1.485-0.855,2.745-0.855h6.318v2.52h-5.598c-0.721,0-1.08,0.36-1.08,1.08v0.36c0,0.72,0.359,1.08,1.08,1.08h3.239
	c1.177,0,2.04,0.276,2.593,0.828c0.552,0.552,0.827,1.416,0.827,2.59v0.9c0,1.176-0.275,2.041-0.827,2.592
	c-0.553,0.553-1.416,0.828-2.593,0.828c-0.611,0-1.26-0.012-1.943-0.035l-1.656-0.072c-1.224-0.061-2.49-0.145-3.798-0.252V11.59z"
	/>
</svg>
