<?xml version="1.0" encoding="utf-8"?>
<!-- Generator: Adobe Illustrator 16.0.0, SVG Export Plug-In . SVG Version: 6.00 Build 0)  -->
<!DOCTYPE svg PUBLIC "-//W3C//DTD SVG 1.1//EN" "http://www.w3.org/Graphics/SVG/1.1/DTD/svg11.dtd">
<svg version="1.1" id="레이어_1" xmlns="http://www.w3.org/2000/svg" xmlns:xlink="http://www.w3.org/1999/xlink" x="0px"
	 y="0px" width="65px" height="16px" viewBox="0 0 65 16" enable-background="new 0 0 65 16" xml:space="preserve">
<path fill="#666666" d="M10.372,13.652C9.82,14.204,8.971,14.48,7.825,14.48c-1.146,0-2.361-0.061-3.646-0.181v-2.431
	c0.937,0.061,1.896,0.091,2.88,0.091c0.276,0,0.495-0.081,0.657-0.243S7.96,11.336,7.96,11.06V4.22H5.62V1.7h5.58v9.36
	C11.2,12.236,10.924,13.1,10.372,13.652z"/>
<path fill="#666666" d="M15.07,14.3h-3.51l4.77-12.6h3.601l4.77,12.6h-3.51l-0.811-2.25h-4.5L15.07,14.3z M16.69,9.71h2.88
	l-1.44-4.23L16.69,9.71z"/>
<path fill="#666666" d="M25.6,1.7h7.56c1.261,0,2.175,0.285,2.745,0.855c0.57,0.57,0.855,1.485,0.855,2.745v1.8
	c0,1.26-0.285,2.176-0.855,2.745c-0.57,0.57-1.484,0.854-2.745,0.854H28.84V14.3H25.6V1.7z M33.52,5.3c0-0.72-0.36-1.08-1.08-1.08
	h-3.6v3.96h3.6c0.72,0,1.08-0.36,1.08-1.08V5.3z"/>
<path fill="#666666" d="M39.55,14.3h-3.51l4.77-12.6h3.601l4.77,12.6h-3.51l-0.811-2.25h-4.5L39.55,14.3z M41.17,9.71h2.88
	l-1.44-4.23L41.17,9.71z"/>
<path fill="#666666" d="M61.059,14.3h-3.42l-4.319-7.56v7.56h-3.24V1.7h3.42l4.32,7.56V1.7h3.239V14.3z"/>
</svg>
