<?xml version="1.0" encoding="utf-8"?>
<!-- Generator: Adobe Illustrator 16.0.0, SVG Export Plug-In . SVG Version: 6.00 Build 0)  -->
<!DOCTYPE svg PUBLIC "-//W3C//DTD SVG 1.1//EN" "http://www.w3.org/Graphics/SVG/1.1/DTD/svg11.dtd">
<svg version="1.1" id="레이어_1" xmlns="http://www.w3.org/2000/svg" xmlns:xlink="http://www.w3.org/1999/xlink" x="0px"
	 y="0px" width="44px" height="16px" viewBox="0 0 44 16" enable-background="new 0 0 44 16" xml:space="preserve">
<path fill="#666666" d="M12.198,1.7h3.24v9.18c0,1.26-0.285,2.175-0.854,2.745c-0.57,0.57-1.485,0.855-2.745,0.855H7.698
	c-1.26,0-2.175-0.285-2.745-0.855c-0.569-0.57-0.854-1.485-0.854-2.745V1.7h3.24v9.18c0,0.72,0.359,1.08,1.08,1.08h2.699
	c0.721,0,1.08-0.36,1.08-1.08V1.7z"/>
<path fill="#666666" d="M17.22,11.689c3.288,0.18,5.514,0.271,6.678,0.271c0.275,0,0.494-0.081,0.656-0.243s0.244-0.381,0.244-0.657
	v-1.62h-4.141c-1.26,0-2.175-0.285-2.745-0.854c-0.569-0.57-0.854-1.485-0.854-2.745V5.3c0-1.26,0.285-2.175,0.854-2.745
	c0.57-0.57,1.485-0.855,2.745-0.855h6.319v2.52h-5.598c-0.721,0-1.08,0.36-1.08,1.08v0.36c0,0.72,0.359,1.08,1.08,1.08h3.239
	c1.178,0,2.041,0.276,2.594,0.828c0.551,0.552,0.826,1.416,0.826,2.592v0.899c0,1.177-0.275,2.04-0.826,2.593
	c-0.553,0.552-1.416,0.828-2.594,0.828c-0.611,0-1.26-0.013-1.943-0.037l-1.656-0.072c-1.224-0.06-2.49-0.143-3.798-0.252V11.689z"
	/>
<path fill="#666666" d="M31.549,14.3h-3.51l4.77-12.6h3.6l4.77,12.6h-3.51l-0.811-2.25h-4.5L31.549,14.3z M33.168,9.71h2.881
	l-1.441-4.23L33.168,9.71z"/>
</svg>
