<?xml version="1.0" encoding="utf-8"?>
<!-- Generator: Adobe Illustrator 16.0.0, SVG Export Plug-In . SVG Version: 6.00 Build 0)  -->
<!DOCTYPE svg PUBLIC "-//W3C//DTD SVG 1.1//EN" "http://www.w3.org/Graphics/SVG/1.1/DTD/svg11.dtd">
<svg version="1.1" id="레이어_1" xmlns="http://www.w3.org/2000/svg" xmlns:xlink="http://www.w3.org/1999/xlink" x="0px"
	 y="0px" width="112px" height="16px" viewBox="0 0 112 16" enable-background="new 0 0 112 16" xml:space="preserve">
<path fill="#666666" d="M2.702,11.689c3.288,0.18,5.514,0.27,6.678,0.27c0.276,0,0.495-0.08,0.657-0.242s0.242-0.381,0.242-0.658
	V9.439H6.141c-1.261,0-2.176-0.285-2.746-0.855C2.825,8.016,2.54,7.1,2.54,5.839v-0.54c0-1.26,0.285-2.175,0.854-2.744
	c0.569-0.57,1.484-0.855,2.744-0.855h6.318v2.52H6.859c-0.721,0-1.08,0.36-1.08,1.08v0.36c0,0.72,0.359,1.079,1.08,1.079h3.24
	c1.178,0,2.041,0.277,2.594,0.828c0.552,0.553,0.826,1.416,0.826,2.593v0.899c0,1.176-0.274,2.041-0.826,2.592
	c-0.553,0.553-1.416,0.828-2.594,0.828c-0.61,0-1.26-0.013-1.942-0.035L6.5,14.371c-1.225-0.061-2.49-0.145-3.798-0.252V11.689z"/>
<path fill="#666666" d="M21.079,14.299H14.6v-2.52h1.621V4.219H14.6v-2.52h6.479v2.52H19.46v7.561h1.619V14.299z"/>
<path fill="#666666" d="M33.68,14.299h-3.42l-4.318-7.561v7.561H22.7v-12.6h3.42l4.319,7.561V1.699h3.24V14.299L33.68,14.299z"/>
<path fill="#666666" d="M46.641,14.029c-2.809,0.3-5.389,0.449-7.74,0.449c-1.176,0-2.041-0.275-2.592-0.828
	c-0.553-0.551-0.828-1.416-0.828-2.592v-5.76c0-1.26,0.285-2.175,0.854-2.744c0.569-0.57,1.483-0.855,2.745-0.855h6.479v2.52H39.8
	c-0.72,0-1.079,0.36-1.079,1.08v5.76c0,0.276,0.08,0.496,0.242,0.657c0.162,0.162,0.381,0.242,0.657,0.242
	c1.38,0,2.64-0.028,3.778-0.09V9.26h-2.34V7.1h5.58v6.93H46.641z"/>
<path fill="#666666" d="M50.689,14.299h-3.51l4.77-12.6h3.601l4.771,12.6h-3.51l-0.812-2.25h-4.5L50.689,14.299z M52.311,9.709
	h2.879L53.75,5.48L52.311,9.709z"/>
<path fill="#666666" d="M61.221,1.699h7.559c1.262,0,2.176,0.285,2.746,0.855c0.57,0.569,0.854,1.484,0.854,2.744V7.1
	c0,1.26-0.284,2.174-0.854,2.744s-1.484,0.855-2.746,0.855H64.46v3.6h-3.239V1.699z M69.141,5.299c0-0.72-0.361-1.08-1.08-1.08
	H64.46V8.18h3.601c0.719,0,1.08-0.361,1.08-1.08V5.299z"/>
<path fill="#666666" d="M85.34,10.879c0,1.26-0.285,2.176-0.854,2.746c-0.57,0.568-1.485,0.854-2.745,0.854h-4.5
	c-1.261,0-2.177-0.285-2.745-0.854c-0.57-0.57-0.855-1.486-0.855-2.746v-5.76c0-1.26,0.285-2.176,0.855-2.745
	c0.568-0.569,1.484-0.854,2.745-0.854h4.5c1.26,0,2.175,0.285,2.745,0.854c0.568,0.569,0.854,1.485,0.854,2.745V10.879z M82.1,5.119
	c0-0.721-0.358-1.08-1.08-1.08h-3.06c-0.72,0-1.08,0.359-1.08,1.08v5.76c0,0.721,0.36,1.08,1.08,1.08h3.06
	c0.722,0,1.08-0.359,1.08-1.08V5.119z"/>
<path fill="#666666" d="M87.141,1.699h7.56c1.261,0,2.175,0.285,2.745,0.855c0.57,0.569,0.854,1.484,0.854,2.744v1.62
	c0,0.996-0.165,1.771-0.495,2.322s-0.854,0.918-1.574,1.099l2.25,3.959h-3.51L92.9,10.52H90.38v3.779h-3.239V1.699z M95.061,5.299
	c0-0.72-0.36-1.08-1.08-1.08H90.38V8h3.601c0.72,0,1.08-0.359,1.08-1.08V5.299z"/>
<path fill="#666666" d="M110.09,14.299h-9.99v-12.6h9.99v2.52h-6.75v2.43h5.311V9.17h-5.311v2.609h6.75V14.299z"/>
</svg>
