<?xml version="1.0" encoding="utf-8"?>
<!-- Generator: Adobe Illustrator 16.0.0, SVG Export Plug-In . SVG Version: 6.00 Build 0)  -->
<!DOCTYPE svg PUBLIC "-//W3C//DTD SVG 1.1//EN" "http://www.w3.org/Graphics/SVG/1.1/DTD/svg11.dtd">
<svg version="1.1" id="레이어_1" xmlns="http://www.w3.org/2000/svg" xmlns:xlink="http://www.w3.org/1999/xlink" x="0px"
	 y="0px" width="124px" height="16px" viewBox="0 0 124 16" enable-background="new 0 0 124 16" xml:space="preserve">
<path fill="#666666" d="M2,2h7.559c1.262,0,2.176,0.285,2.746,0.855c0.57,0.57,0.855,1.485,0.855,2.745v1.8
	c0,1.26-0.285,2.175-0.855,2.746S10.82,11,9.559,11H5.24v3.601H2V2z M9.92,5.6c0-0.72-0.361-1.08-1.08-1.08h-3.6v3.959h3.6
	c0.719,0,1.08-0.359,1.08-1.08V5.6z"/>
<path fill="#666666" d="M25.76,14.601h-3.24V9.47h-4.5v5.131h-3.24V2h3.24v4.95h4.5V2h3.24V14.601z"/>
<path fill="#666666" d="M33.859,14.601h-6.48V12.08H29V4.52h-1.621V2h6.48v2.52H32.24v7.56h1.619V14.601z"/>
<path fill="#666666" d="M38.719,12.08h6.57v2.521h-9.811V2h3.24V12.08z"/>
<path fill="#666666" d="M52.488,14.601H46.01V12.08h1.619V4.52H46.01V2h6.479v2.52h-1.619v7.56h1.619V14.601z"/>
<path fill="#666666" d="M54.109,2h7.559c1.262,0,2.176,0.285,2.746,0.855c0.57,0.57,0.855,1.485,0.855,2.745v1.8
	c0,1.26-0.285,2.175-0.855,2.746S62.93,11,61.668,11H57.35v3.601h-3.24V2z M62.029,5.6c0-0.72-0.361-1.08-1.08-1.08h-3.6v3.959h3.6
	c0.719,0,1.08-0.359,1.08-1.08V5.6z"/>
<path fill="#666666" d="M66.889,2h7.561c1.26,0,2.174,0.285,2.744,0.855c0.57,0.57,0.855,1.485,0.855,2.745v1.8
	c0,1.26-0.285,2.175-0.855,2.746S75.709,11,74.449,11h-4.32v3.601h-3.24V2z M74.809,5.6c0-0.72-0.359-1.08-1.08-1.08h-3.6v3.959h3.6
	c0.721,0,1.08-0.359,1.08-1.08V5.6z"/>
<path fill="#666666" d="M85.607,14.601h-6.479V12.08h1.619V4.52h-1.619V2h6.479v2.52h-1.619v7.56h1.619V14.601z"/>
<path fill="#666666" d="M98.209,14.601h-3.42l-4.32-7.561v7.561h-3.24V2h3.42l4.32,7.56V2h3.24V14.601z"/>
<path fill="#666666" d="M110.359,14.601h-9.99V2h9.99v2.52h-6.75v2.43h5.309v2.52h-5.309v2.61h6.75V14.601z"/>
<path fill="#666666" d="M111.42,11.99c3.289,0.18,5.514,0.271,6.678,0.271c0.277,0,0.496-0.082,0.658-0.244s0.242-0.381,0.242-0.656
	V9.74h-4.141c-1.26,0-2.174-0.285-2.744-0.854c-0.57-0.57-0.855-1.486-0.855-2.746V5.6c0-1.26,0.285-2.175,0.855-2.745
	c0.57-0.57,1.484-0.855,2.744-0.855h6.318v2.52h-5.598c-0.721,0-1.08,0.36-1.08,1.08v0.36c0,0.72,0.359,1.08,1.08,1.08h3.24
	c1.176,0,2.039,0.276,2.592,0.828c0.553,0.553,0.828,1.416,0.828,2.592v0.9c0,1.176-0.275,2.04-0.828,2.592
	c-0.553,0.553-1.416,0.828-2.592,0.828c-0.611,0-1.26-0.012-1.943-0.036l-1.656-0.072c-1.225-0.06-2.49-0.144-3.799-0.252V11.99z"/>
</svg>
