<?xml version="1.0" encoding="utf-8"?>
<!-- Generator: Adobe Illustrator 16.0.0, SVG Export Plug-In . SVG Version: 6.00 Build 0)  -->
<!DOCTYPE svg PUBLIC "-//W3C//DTD SVG 1.1//EN" "http://www.w3.org/Graphics/SVG/1.1/DTD/svg11.dtd">
<svg version="1.1" id="레이어_1" xmlns="http://www.w3.org/2000/svg" xmlns:xlink="http://www.w3.org/1999/xlink" x="0px"
	 y="0px" width="64px" height="20px" viewBox="0 0 64 20" enable-background="new 0 0 64 20" xml:space="preserve">
<path fill="#666666" d="M12.181,17.66c-0.841,0.119-1.645,0.18-2.412,0.18c-0.769,0-1.398-0.246-1.891-0.738
	s-0.737-1.146-0.737-1.962v-0.18h-0.54c-1.261,0-2.176-0.285-2.745-0.854C3.285,13.535,3,12.619,3,11.359V5.6
	c0-1.26,0.285-2.175,0.855-2.745C4.425,2.285,5.34,2,6.601,2h4.5c1.26,0,2.175,0.285,2.745,0.855C14.415,3.425,14.7,4.34,14.7,5.6
	v5.76c0,1.26-0.285,2.176-0.854,2.746c-0.57,0.569-1.485,0.854-2.745,0.854h-0.9v0.18c0,0.181,0.06,0.33,0.18,0.45
	c0.12,0.119,0.271,0.18,0.45,0.18h1.351V17.66z M11.46,5.6c0-0.72-0.359-1.08-1.08-1.08H7.32c-0.72,0-1.08,0.36-1.08,1.08v5.76
	c0,0.721,0.36,1.08,1.08,1.08h3.06c0.721,0,1.08-0.359,1.08-1.08V5.6z"/>
<path fill="#666666" d="M18.391,14.779h-3.51l4.77-12.6h3.601l4.77,12.6h-3.51l-0.811-2.25h-4.5L18.391,14.779z M20.011,10.19h2.88
	l-1.44-4.23L20.011,10.19z"/>
<path fill="#666666" d="M33.78,14.779h-3.24V4.7h-3.78V2.18h10.801V4.7h-3.78V14.779z"/>
<path fill="#666666" d="M39.811,14.779h-3.51l4.77-12.6h3.601l4.77,12.6h-3.51l-0.811-2.25h-4.5L39.811,14.779z M41.431,10.19h2.88
	l-1.44-4.23L41.431,10.19z"/>
<path fill="#666666" d="M50.341,2.18h7.56c1.261,0,2.175,0.285,2.745,0.855c0.57,0.57,0.855,1.485,0.855,2.745V7.4
	c0,0.996-0.165,1.77-0.495,2.322c-0.33,0.552-0.855,0.918-1.575,1.098l2.25,3.959h-3.51L56.101,11h-2.52v3.779h-3.24V2.18z
	 M58.261,5.78c0-0.72-0.36-1.08-1.08-1.08h-3.6v3.78h3.6c0.72,0,1.08-0.36,1.08-1.08V5.78z"/>
</svg>
