<?xml version="1.0" encoding="utf-8"?>
<!-- Generator: Adobe Illustrator 16.0.0, SVG Export Plug-In . SVG Version: 6.00 Build 0)  -->
<!DOCTYPE svg PUBLIC "-//W3C//DTD SVG 1.1//EN" "http://www.w3.org/Graphics/SVG/1.1/DTD/svg11.dtd">
<svg version="1.1" id="레이어_1" xmlns="http://www.w3.org/2000/svg" xmlns:xlink="http://www.w3.org/1999/xlink" x="0px"
	 y="0px" width="77px" height="16px" viewBox="0 0 77 16" enable-background="new 0 0 77 16" xml:space="preserve">
<path fill="#666666" d="M6.5,14.3H3.26V1.7h9.99v2.52H6.5v2.97h5.31v2.52H6.5V14.3z"/>
<path fill="#666666" d="M14.51,1.7h7.56c1.261,0,2.175,0.285,2.745,0.855c0.57,0.57,0.855,1.485,0.855,2.745v1.62
	c0,0.996-0.165,1.77-0.495,2.322c-0.33,0.552-0.855,0.918-1.575,1.098l2.25,3.96h-3.51l-2.07-3.78h-2.52v3.78h-3.24V1.7z M22.43,5.3
	c0-0.72-0.36-1.08-1.08-1.08h-3.6V8h3.6c0.72,0,1.08-0.36,1.08-1.08V5.3z"/>
<path fill="#666666" d="M29.72,14.3h-3.51l4.77-12.6h3.601l4.77,12.6h-3.51l-0.811-2.25h-4.5L29.72,14.3z M31.34,9.71h2.88
	l-1.44-4.23L31.34,9.71z"/>
<path fill="#666666" d="M51.229,14.3h-3.42l-4.319-7.56v7.56h-3.24V1.7h3.42l4.32,7.56V1.7h3.239V14.3z"/>
<path fill="#666666" d="M63.109,14.119c-2.676,0.24-4.896,0.361-6.66,0.361c-1.176,0-2.04-0.276-2.592-0.828
	c-0.552-0.553-0.828-1.416-0.828-2.593V5.3c0-1.26,0.285-2.175,0.855-2.745C54.454,1.985,55.369,1.7,56.63,1.7h6.479v2.52h-5.76
	c-0.72,0-1.08,0.36-1.08,1.08v5.76c0,0.276,0.081,0.495,0.243,0.657s0.369,0.243,0.621,0.243s0.527-0.003,0.828-0.009
	c0.3-0.006,0.611-0.016,0.936-0.027s0.651-0.023,0.981-0.036c0.329-0.012,0.756-0.036,1.277-0.071
	c0.522-0.037,1.173-0.078,1.953-0.127V14.119z"/>
<path fill="#666666" d="M74.539,14.3h-9.99V1.7h9.99v2.52h-6.75v2.43h5.31v2.52h-5.31v2.609h6.75V14.3z"/>
</svg>
