<?xml version="1.0" encoding="utf-8"?>
<!-- Generator: Adobe Illustrator 16.0.0, SVG Export Plug-In . SVG Version: 6.00 Build 0)  -->
<!DOCTYPE svg PUBLIC "-//W3C//DTD SVG 1.1//EN" "http://www.w3.org/Graphics/SVG/1.1/DTD/svg11.dtd">
<svg version="1.1" id="레이어_1" xmlns="http://www.w3.org/2000/svg" xmlns:xlink="http://www.w3.org/1999/xlink" x="0px"
	 y="0px" width="84px" height="16px" viewBox="0 0 84 16" enable-background="new 0 0 84 16" xml:space="preserve">
<path fill="#666666" d="M12.491,14.119c-2.676,0.24-4.896,0.361-6.66,0.361c-1.176,0-2.04-0.276-2.592-0.828
	C2.687,13.1,2.411,12.236,2.411,11.06V5.3c0-1.26,0.285-2.175,0.855-2.745C3.835,1.985,4.75,1.7,6.011,1.7h6.479v2.52h-5.76
	c-0.72,0-1.08,0.36-1.08,1.08v5.76c0,0.276,0.081,0.495,0.243,0.657s0.369,0.243,0.621,0.243s0.527-0.003,0.828-0.009
	c0.3-0.006,0.611-0.016,0.936-0.027S8.93,11.9,9.26,11.888c0.329-0.012,0.756-0.036,1.277-0.071
	c0.522-0.037,1.173-0.078,1.953-0.127V14.119z"/>
<path fill="#666666" d="M13.931,1.7h7.56c1.261,0,2.175,0.285,2.745,0.855c0.57,0.57,0.855,1.485,0.855,2.745v1.62
	c0,0.996-0.165,1.77-0.495,2.322c-0.33,0.552-0.855,0.918-1.575,1.098l2.25,3.96h-3.51l-2.07-3.78h-2.52v3.78h-3.24V1.7z
	 M21.851,5.3c0-0.72-0.36-1.08-1.08-1.08h-3.6V8h3.6c0.72,0,1.08-0.36,1.08-1.08V5.3z"/>
<path fill="#666666" d="M38.231,10.88c0,1.26-0.285,2.175-0.854,2.745c-0.57,0.57-1.485,0.855-2.745,0.855h-4.5
	c-1.261,0-2.176-0.285-2.745-0.855c-0.57-0.57-0.855-1.485-0.855-2.745V5.12c0-1.26,0.285-2.175,0.855-2.745
	c0.569-0.57,1.484-0.855,2.745-0.855h4.5c1.26,0,2.175,0.285,2.745,0.855c0.569,0.57,0.854,1.485,0.854,2.745V10.88z M34.991,5.12
	c0-0.72-0.359-1.08-1.08-1.08h-3.06c-0.72,0-1.08,0.36-1.08,1.08v5.76c0,0.72,0.36,1.08,1.08,1.08h3.06c0.721,0,1.08-0.36,1.08-1.08
	V5.12z"/>
<path fill="#666666" d="M41.92,14.3h-3.51L43.18,1.7h3.602l4.77,12.6h-3.51l-0.811-2.25h-4.5L41.92,14.3z M43.541,9.71h2.879
	L44.98,5.48L43.541,9.71z"/>
<path fill="#666666" d="M57.311,14.3h-3.24V4.22h-3.779V1.7h10.801v2.52h-3.781V14.3z"/>
<path fill="#666666" d="M68.291,14.3h-6.48v-2.521h1.621V4.22h-1.621V1.7h6.48v2.52h-1.619v7.56h1.619V14.3z"/>
<path fill="#666666" d="M72.16,14.3h-3.51l4.77-12.6h3.602l4.77,12.6h-3.51l-0.811-2.25h-4.5L72.16,14.3z M73.781,9.71h2.879
	l-1.439-4.23L73.781,9.71z"/>
</svg>
