<?xml version="1.0" encoding="utf-8"?>
<!-- Generator: Adobe Illustrator 16.0.0, SVG Export Plug-In . SVG Version: 6.00 Build 0)  -->
<!DOCTYPE svg PUBLIC "-//W3C//DTD SVG 1.1//EN" "http://www.w3.org/Graphics/SVG/1.1/DTD/svg11.dtd">
<svg version="1.1" id="레이어_1" xmlns="http://www.w3.org/2000/svg" xmlns:xlink="http://www.w3.org/1999/xlink" x="0px"
	 y="0px" width="101px" height="16px" viewBox="0 0 101 16" enable-background="new 0 0 101 16" xml:space="preserve">
<path fill="#666666" d="M14.879,7.279l-2.52,4.5H9.839l-2.52-4.5v7.02H4.08v-12.6H7.5l3.6,6.66l3.601-6.66h3.42v12.6h-3.24V7.279z"
	/>
<path fill="#666666" d="M22.53,14.299h-3.51l4.77-12.6h3.601l4.77,12.6h-3.51l-0.811-2.25h-4.5L22.53,14.299z M24.15,9.709h2.88
	l-1.44-4.229L24.15,9.709z"/>
<path fill="#666666" d="M36.299,11.779h6.569v2.52h-9.81v-12.6h3.24V11.779z"/>
<path fill="#666666" d="M46.379,14.299h-3.51l4.77-12.6h3.601l4.77,12.6H52.5l-0.811-2.25h-4.5L46.379,14.299z M48,9.709h2.88
	l-1.44-4.229L48,9.709z"/>
<path fill="#666666" d="M54.029,1.699h3.42l2.971,6.12l2.969-6.12h3.42l-4.77,9.27v3.33h-3.24v-3.33L54.029,1.699z"/>
<path fill="#666666" d="M67.115,11.689c3.289,0.18,5.514,0.27,6.678,0.27c0.277,0,0.496-0.08,0.658-0.242s0.242-0.381,0.242-0.658
	V9.439h-4.141c-1.26,0-2.174-0.285-2.744-0.855s-0.855-1.485-0.855-2.745v-0.54c0-1.26,0.285-2.175,0.855-2.745
	c0.57-0.57,1.484-0.855,2.744-0.855h6.318v2.52h-5.598c-0.721,0-1.08,0.36-1.08,1.08v0.36c0,0.72,0.359,1.08,1.08,1.08h3.24
	c1.176,0,2.039,0.276,2.592,0.828c0.553,0.552,0.828,1.416,0.828,2.592v0.899c0,1.177-0.275,2.041-0.828,2.593
	s-1.416,0.828-2.592,0.828c-0.611,0-1.26-0.013-1.943-0.036l-1.656-0.072c-1.225-0.061-2.49-0.144-3.799-0.252V11.689z"/>
<path fill="#666666" d="M85.492,14.299h-6.479v-2.52h1.619v-7.56h-1.619v-2.52h6.479v2.52h-1.619v7.56h1.619V14.299z"/>
<path fill="#666666" d="M89.363,14.299h-3.51l4.77-12.6h3.6l4.77,12.6h-3.51l-0.811-2.25h-4.5L89.363,14.299z M90.982,9.709h2.881
	l-1.441-4.229L90.982,9.709z"/>
</svg>
