<?xml version="1.0" encoding="utf-8"?>
<!-- Generator: Adobe Illustrator 16.0.0, SVG Export Plug-In . SVG Version: 6.00 Build 0)  -->
<!DOCTYPE svg PUBLIC "-//W3C//DTD SVG 1.1//EN" "http://www.w3.org/Graphics/SVG/1.1/DTD/svg11.dtd">
<svg version="1.1" id="레이어_1" xmlns="http://www.w3.org/2000/svg" xmlns:xlink="http://www.w3.org/1999/xlink" x="0px"
	 y="0px" width="77px" height="16px" viewBox="0 0 77 16" enable-background="new 0 0 77 16" xml:space="preserve">
<path fill="#666666" d="M2.394,11.689c3.288,0.18,5.514,0.271,6.678,0.271c0.276,0,0.495-0.081,0.657-0.243s0.243-0.381,0.243-0.657
	v-1.62H5.831c-1.26,0-2.175-0.285-2.745-0.854C2.517,8.015,2.231,7.1,2.231,5.84V5.3c0-1.26,0.285-2.175,0.854-2.745
	C3.656,1.985,4.571,1.7,5.831,1.7h6.318v2.52H6.552c-0.721,0-1.08,0.36-1.08,1.08v0.36c0,0.72,0.359,1.08,1.08,1.08h3.239
	c1.177,0,2.04,0.276,2.593,0.828c0.552,0.552,0.827,1.416,0.827,2.592v0.899c0,1.177-0.275,2.04-0.827,2.593
	c-0.553,0.552-1.416,0.828-2.593,0.828c-0.611,0-1.26-0.013-1.943-0.037l-1.656-0.072c-1.224-0.06-2.49-0.143-3.798-0.252V11.689z"
	/>
<path fill="#666666" d="M24.821,14.3h-9.99V1.7h9.99v2.52h-6.75v2.43h5.31v2.52h-5.31v2.609h6.75V14.3z"/>
<path fill="#666666" d="M26.262,1.7h7.56c1.261,0,2.175,0.285,2.745,0.855c0.57,0.57,0.855,1.485,0.855,2.745v1.62
	c0,0.996-0.165,1.77-0.495,2.322c-0.33,0.552-0.855,0.918-1.575,1.098l2.25,3.96h-3.51l-2.07-3.78h-2.52v3.78h-3.24V1.7z
	 M34.182,5.3c0-0.72-0.36-1.08-1.08-1.08h-3.6V8h3.6c0.72,0,1.08-0.36,1.08-1.08V5.3z"/>
<path fill="#666666" d="M39.221,1.7h7.2c1.176,0,2.04,0.267,2.592,0.801c0.552,0.534,0.828,1.347,0.828,2.439
	c0,0.72-0.156,1.305-0.468,1.755c-0.313,0.45-0.696,0.765-1.152,0.945c0.972,0.264,1.632,0.912,1.979,1.944
	c0.12,0.372,0.181,0.804,0.181,1.296c0,1.177-0.276,2.04-0.828,2.592S48.137,14.3,46.961,14.3h-7.74V1.7z M46.601,5.3
	c0-0.72-0.36-1.08-1.08-1.08h-3.06v2.52h3.06c0.72,0,1.08-0.36,1.08-1.08V5.3z M47.141,10.34c0-0.721-0.36-1.08-1.08-1.08h-3.6v2.52
	h3.6c0.72,0,1.08-0.359,1.08-1.08V10.34z"/>
<path fill="#666666" d="M57.94,14.3h-6.479v-2.521h1.62V4.22h-1.62V1.7h6.479v2.52h-1.619v7.56h1.619V14.3z"/>
<path fill="#666666" d="M61.811,14.3h-3.51l4.77-12.6h3.601l4.77,12.6h-3.51l-0.811-2.25h-4.5L61.811,14.3z M63.431,9.71h2.88
	l-1.44-4.23L63.431,9.71z"/>
</svg>
