<?xml version="1.0" encoding="utf-8"?>
<!-- Generator: Adobe Illustrator 16.0.0, SVG Export Plug-In . SVG Version: 6.00 Build 0)  -->
<!DOCTYPE svg PUBLIC "-//W3C//DTD SVG 1.1//EN" "http://www.w3.org/Graphics/SVG/1.1/DTD/svg11.dtd">
<svg version="1.1" id="레이어_1" xmlns="http://www.w3.org/2000/svg" xmlns:xlink="http://www.w3.org/1999/xlink" x="0px"
	 y="0px" width="120px" height="100px" viewBox="0 0 120 100" enable-background="new 0 0 120 100" xml:space="preserve">
<path fill="#111111" d="M112.689,60.161V38.998c-7.057,0-9.071,5.29-13.103,5.29c-4.032,0-6.048-5.29-13.101-5.29
	c-7.057,0-9.072,5.29-13.104,5.29c-4.033,0-6.048-5.29-13.101-5.29c-7.054,0-9.071,5.29-13.1,5.29c-4.036,0-6.051-5.29-13.104-5.29
	c-7.053,0-9.069,5.29-13.102,5.29c-4.031,0-6.047-5.29-13.102-5.29v21.163c7.055,0,9.07-5.292,13.102-5.292
	c4.001,0,6.049,5.292,13.102,5.292c7.053,0,9.07-5.292,13.104-5.292c3.999,0,6.046,5.292,13.1,5.292
	c7.053,0,9.069-5.292,13.101-5.292c4.003,0,6.047,5.292,13.104,5.292c7.053,0,9.07-5.292,13.101-5.292
	C103.591,54.869,105.634,60.161,112.689,60.161"/>
</svg>
