<?xml version="1.0" encoding="utf-8"?>
<!-- Generator: Adobe Illustrator 16.0.0, SVG Export Plug-In . SVG Version: 6.00 Build 0)  -->
<!DOCTYPE svg PUBLIC "-//W3C//DTD SVG 1.1//EN" "http://www.w3.org/Graphics/SVG/1.1/DTD/svg11.dtd">
<svg version="1.1" id="레이어_1" xmlns="http://www.w3.org/2000/svg" xmlns:xlink="http://www.w3.org/1999/xlink" x="0px"
	 y="0px" width="100px" height="100px" viewBox="0 0 100 100" enable-background="new 0 0 100 100" xml:space="preserve">
<path fill="#111111" d="M5.749,50.877c0,0,11.256,6.891,23.137,8.701c0,0,7.699,0.629,13.479-2.744c0,0,5.926-3.904,16.047-0.324
	l0.381,0.159c5.808,3.065,13.979,2.507,13.979,2.507c11.646-2.031,22.06-9.123,22.06-9.123l-0.011-0.182
	c0,0-11.26-6.897-23.141-8.706c0,0-8.236-0.405-13.66,2.762l-0.362,0.167c-9.674,3.762-16.071-0.029-16.071-0.029
	c-6.176-3.267-13.79-2.493-13.79-2.493c-11.651,2.032-22.057,9.124-22.057,9.124L5.749,50.877z"/>
</svg>
