<?xml version="1.0" encoding="utf-8"?>
<!-- Generator: Adobe Illustrator 16.0.0, SVG Export Plug-In . SVG Version: 6.00 Build 0)  -->
<!DOCTYPE svg PUBLIC "-//W3C//DTD SVG 1.1//EN" "http://www.w3.org/Graphics/SVG/1.1/DTD/svg11.dtd">
<svg version="1.1" id="레이어_1" xmlns="http://www.w3.org/2000/svg" xmlns:xlink="http://www.w3.org/1999/xlink" x="0px"
	 y="0px" width="100px" height="100px" viewBox="0 0 100 100" enable-background="new 0 0 100 100" xml:space="preserve">
<path fill="#111111" d="M50.3,20.405c-5.492,0.428-11.28,13.668-10.813,30.746c0.38,13.759,4.528,23.502,8.475,27.058
	c1.247,1.123,2.457,1.649,3.611,1.56c5.493-0.429,11.286-13.67,10.815-30.751c-0.375-13.751-4.524-23.493-8.474-27.047
	C52.664,20.841,51.45,20.313,50.3,20.405 M51.316,86.822c-2.83,0-5.604-1.158-8.069-3.381c-6.275-5.65-10.413-17.949-10.803-32.098
	c-0.574-20.83,6.87-37.152,17.31-37.964h0.004c3.1-0.238,6.17,0.918,8.871,3.35c6.277,5.653,10.416,17.948,10.803,32.092
	c0.574,20.829-6.871,37.153-17.313,37.966C51.852,86.811,51.584,86.822,51.316,86.822"/>
</svg>
