<?xml version="1.0" encoding="utf-8"?>
<!-- Generator: Adobe Illustrator 16.0.0, SVG Export Plug-In . SVG Version: 6.00 Build 0)  -->
<!DOCTYPE svg PUBLIC "-//W3C//DTD SVG 1.1//EN" "http://www.w3.org/Graphics/SVG/1.1/DTD/svg11.dtd">
<svg version="1.1" id="레이어_1" xmlns="http://www.w3.org/2000/svg" xmlns:xlink="http://www.w3.org/1999/xlink" x="0px"
	 y="0px" width="100px" height="100px" viewBox="0 0 100 100" enable-background="new 0 0 100 100" xml:space="preserve">
<path fill="#111111" d="M76.285,40.481c-2.217-0.016-4.862,0.898-7.104,2.445l-0.722,0.559l-2.414,1.864l-0.108,0.069
	c-0.74,0.576-1.715,0.922-2.813,0.914h-0.109c-1.084-0.006-2.052-0.355-2.791-0.939l-0.043-0.044l-3.398-2.67l-0.375-0.246
	l0.066,0.031c-2.234-1.593-4.361-2.246-6.596-2.26c-0.452,0-0.894,0.035-1.334,0.114c-1.927,0.247-4.04,1.084-5.889,2.358
	l-0.719,0.559L39.523,45.1l-0.106,0.07c-0.74,0.572-1.718,0.918-2.812,0.91h-0.108c-1.084-0.002-2.053-0.352-2.793-0.939L33.66,45.1
	l-3.396-2.674l-0.385-0.245l0.075,0.033c-2.235-1.594-4.364-2.247-6.601-2.265c-4.924-0.019-8.941,4.789-8.976,10.747
	c-0.027,5.961,3.941,10.799,8.86,10.824c1.922,0.008,4.154-0.75,6.158-2.028l0.758-0.487l3.429-2.635l0.039-0.051
	c0.743-0.574,1.73-0.906,2.817-0.906c1.043,0.004,2.028,0.361,2.77,0.934l0.105,0.067l2.394,1.896l1.085,0.896
	c2.181,1.598,4.712,2.581,6.859,2.589c0.502,0.004,0.99-0.045,1.465-0.138c1.567-0.258,3.253-0.928,4.799-1.914l0.76-0.482
	l3.431-2.642l0.043-0.048c0.736-0.572,1.724-0.911,2.813-0.911c1.039,0.008,2.028,0.362,2.769,0.938l0.103,0.067l2.399,1.894
	l1.08,0.897c2.179,1.599,4.715,2.581,6.86,2.589c4.935,0.029,8.955-4.779,8.978-10.742C85.188,45.348,81.214,40.501,76.285,40.481"
	/>
</svg>
