<?xml version="1.0" encoding="utf-8"?>
<!-- Generator: Adobe Illustrator 16.0.0, SVG Export Plug-In . SVG Version: 6.00 Build 0)  -->
<!DOCTYPE svg PUBLIC "-//W3C//DTD SVG 1.1//EN" "http://www.w3.org/Graphics/SVG/1.1/DTD/svg11.dtd">
<svg version="1.1" id="레이어_1" xmlns="http://www.w3.org/2000/svg" xmlns:xlink="http://www.w3.org/1999/xlink" x="0px"
	 y="0px" width="100px" height="100px" viewBox="0 0 100 100" enable-background="new 0 0 100 100" xml:space="preserve">
<path fill="#111111" d="M62.92,38.537c2.398-3.147,3.383-6.151,3.396-9.303c0.039-6.96-7.201-12.63-16.172-12.669
	c-8.971-0.042-16.273,5.557-16.311,12.513c-0.013,2.7,1.128,5.842,3.058,8.684l0.736,1.065l3.979,4.829l0.065,0.066
	c0.859,1.054,1.376,2.436,1.367,3.945c-0.007,1.512-0.54,2.892-1.408,3.933l-0.1,0.146l-2.852,3.39l-1.348,1.531
	c-2.408,3.07-3.89,6.652-3.905,9.676c-0.036,6.953,7.206,12.629,16.177,12.672c8.971,0.045,16.274-5.562,16.309-12.516
	c0.018-3.13-1.354-6.865-3.687-10.021l-0.852-1.021l-2.813-3.41L58.46,51.9c-0.86-1.057-1.379-2.438-1.367-3.947l-0.004-0.195
	c0.011-1.508,0.543-2.884,1.408-3.928l0.067-0.061l4.027-4.802l0.371-0.524"/>
</svg>
