<?xml version="1.0" encoding="utf-8"?>
<!-- Generator: Adobe Illustrator 16.0.0, SVG Export Plug-In . SVG Version: 6.00 Build 0)  -->
<!DOCTYPE svg PUBLIC "-//W3C//DTD SVG 1.1//EN" "http://www.w3.org/Graphics/SVG/1.1/DTD/svg11.dtd">
<svg version="1.1" id="레이어_1" xmlns="http://www.w3.org/2000/svg" xmlns:xlink="http://www.w3.org/1999/xlink" x="0px"
	 y="0px" width="100px" height="100px" viewBox="0 0 100 100" enable-background="new 0 0 100 100" xml:space="preserve">
<path fill="#111111" d="M20.91,19.657c-2.862,2.865-2.996,7.75-0.294,10.456c0.003,0,13.423,13.112,13.423,13.112
	c3.093,3.091,3.093,8.064,0.031,11.123L20.91,67.51c-2.813,2.811-2.813,7.389,0,10.199c2.816,2.814,7.396,2.814,10.201,0.004
	l13.203-13.201c3.063-3.059,8.036-3.061,11.098-0.003c0.002,0.005,13.398,13.437,13.398,13.437c2.825,2.824,7.19,2.728,10.151-0.231
	c2.57-2.573,2.783-6.774,0.519-9.606c-0.422-0.43-13.832-13.834-13.832-13.834c-3.062-3.06-3.058-8.04,0.004-11.098l13.313-13.313
	c2.813-2.815,2.813-7.391,0-10.202c-2.813-2.816-7.391-2.816-10.202-0.002L55.408,33.014c-3.063,3.058-8.038,3.058-11.098,0
	c0,0-13.515-13.514-14.082-14.085C27.38,16.877,23.404,17.166,20.91,19.657L20.91,19.657z"/>
</svg>
