<?xml version="1.0" encoding="utf-8"?>
<!-- Generator: Adobe Illustrator 16.0.0, SVG Export Plug-In . SVG Version: 6.00 Build 0)  -->
<!DOCTYPE svg PUBLIC "-//W3C//DTD SVG 1.1//EN" "http://www.w3.org/Graphics/SVG/1.1/DTD/svg11.dtd">
<svg version="1.1" id="레이어_1" xmlns="http://www.w3.org/2000/svg" xmlns:xlink="http://www.w3.org/1999/xlink" x="0px"
	 y="0px" width="100px" height="100px" viewBox="0 0 100 100" enable-background="new 0 0 100 100" xml:space="preserve">
<path fill="#111111" d="M25.149,28.092c-4.375,0.02-8.634,1.898-11.969,5.271c-4.34,4.379-6.811,10.829-6.769,17.688
	c0.066,12.617,8.579,22.834,18.975,22.807h0.012c4.817-0.031,9.282-1.605,13.442-4.69l0.701-0.476c0,0-0.191-0.014-0.247-0.023
	c0.963-0.545,2.621-1.895,6.082-4.691l0.522-0.432v-8.867H19.934v-7.933H45.9v-8.251l-1.031-0.816
	c-4.145-3.276-5.314-4.197-5.848-4.47c0.135,0.037,0.286,0.081,0.286,0.081l-1.413-0.939C33.638,29.566,29.105,28.055,25.149,28.092
	 M74.348,27.566c-4.436,0.017-9.582,1.991-14.141,5.415c0,0,0.136,0.007,0.162,0.007c-0.52,0.327-1.154,0.83-2.225,1.75l0.07-0.008
	c-0.51,0.335-1.15,0.843-2.199,1.727l-2.195,1.78v8.507h25.979v7.932H53.82l0.015,8.645l6.231,4.934
	c4.56,3.248,9.846,5.104,14.517,5.073c4.377-0.021,8.636-1.899,11.983-5.274c4.3-4.344,6.768-10.746,6.768-17.571
	C93.281,37.803,84.753,27.516,74.348,27.566 M53.82,20.774v16.063c0,0,3.623-2.938,3.65-2.944l1.963-1.676
	c4.81-3.617,10.231-5.711,14.896-5.748c11.002-0.04,20.01,10.67,20.088,23.868c0.031,7.153-2.552,13.89-7.082,18.478
	c-3.556,3.574-8.104,5.57-12.754,5.597c-4.859,0.028-10.396-1.906-15.148-5.267l-5.613-4.449v15.957h-7.921V64.909l-5.507,4.487
	c0,0.017-0.794,0.572-0.794,0.572c-4.49,3.301-9.133,4.936-14.185,4.969C14.417,74.969,5.394,64.257,5.329,51.064v-0.181
	c0-7.066,2.577-13.726,7.082-18.271c3.567-3.605,8.085-5.593,12.754-5.601c4.163-0.048,8.884,1.535,13.333,4.439
	c0,0,1.511,1.005,1.429,0.943l5.973,4.732V20.774H53.82z"/>
</svg>
