<?xml version="1.0" encoding="utf-8"?>
<!-- Generator: Adobe Illustrator 16.0.0, SVG Export Plug-In . SVG Version: 6.00 Build 0)  -->
<!DOCTYPE svg PUBLIC "-//W3C//DTD SVG 1.1//EN" "http://www.w3.org/Graphics/SVG/1.1/DTD/svg11.dtd">
<svg version="1.1" id="레이어_1" xmlns="http://www.w3.org/2000/svg" xmlns:xlink="http://www.w3.org/1999/xlink" x="0px"
	 y="0px" width="100px" height="100px" viewBox="0 0 100 100" enable-background="new 0 0 100 100" xml:space="preserve">
<path fill="#111111" d="M35.254,30.45c0,5.228,2.805,10.096,7.325,12.707c4.31,2.504,3.231,5.458,2.565,6.616
	c-0.665,1.155-2.678,3.575-6.983,1.081c-2.223-1.295-4.753-1.983-7.321-1.983c-8.058,0-14.618,6.585-14.618,14.678
	c0,8.095,6.561,14.675,14.618,14.675c8.063,0,14.62-6.58,14.62-14.675c0-5.01,3.087-5.549,4.411-5.549
	c1.329,0,4.417,0.541,4.417,5.549c0,8.095,6.56,14.675,14.621,14.675c8.061,0,14.618-6.58,14.618-14.675
	c0-8.093-6.559-14.678-14.618-14.678c-2.57,0-5.103,0.688-7.32,1.981c-4.307,2.496-6.321,0.076-6.983-1.077
	c-0.346-0.605-0.869-1.819-0.504-3.198c0.34-1.287,1.375-2.434,3.067-3.414c4.519-2.613,7.325-7.485,7.325-12.713
	c0-8.091-6.559-14.676-14.623-14.676C41.813,15.774,35.254,22.359,35.254,30.45"/>
</svg>
