<?xml version="1.0" encoding="utf-8"?>
<!-- Generator: Adobe Illustrator 16.0.0, SVG Export Plug-In . SVG Version: 6.00 Build 0)  -->
<!DOCTYPE svg PUBLIC "-//W3C//DTD SVG 1.1//EN" "http://www.w3.org/Graphics/SVG/1.1/DTD/svg11.dtd">
<svg version="1.1" id="레이어_1" xmlns="http://www.w3.org/2000/svg" xmlns:xlink="http://www.w3.org/1999/xlink" x="0px"
	 y="0px" width="100px" height="100px" viewBox="0 0 100 100" enable-background="new 0 0 100 100" xml:space="preserve">
<path fill="#111111" d="M36.469,49.274c0-6.408-5.218-11.603-11.654-11.603c-6.438,0-11.653,5.195-11.653,11.603
	c0,6.408,5.216,11.601,11.653,11.601C31.251,60.875,36.469,55.682,36.469,49.274 M61.719,74.408c0-13.536-8.061-17.402-8.061-25.136
	c0-7.672,8.061-11.601,8.061-25.133c0-6.409-5.217-11.603-11.653-11.603S38.412,17.73,38.412,24.14
	c0,13.532,8.063,17.399,8.063,25.133c0,7.733-8.063,11.603-8.063,25.136c0,6.407,5.217,11.603,11.653,11.603
	S61.719,80.816,61.719,74.408 M86.969,49.274c0-6.408-5.217-11.603-11.652-11.603c-6.437,0-11.651,5.195-11.651,11.603
	c0,6.408,5.215,11.601,11.651,11.601C81.752,60.875,86.969,55.682,86.969,49.274"/>
</svg>
