<?xml version="1.0" encoding="utf-8"?>
<!-- Generator: Adobe Illustrator 16.0.0, SVG Export Plug-In . SVG Version: 6.00 Build 0)  -->
<!DOCTYPE svg PUBLIC "-//W3C//DTD SVG 1.1//EN" "http://www.w3.org/Graphics/SVG/1.1/DTD/svg11.dtd">
<svg version="1.1" id="레이어_1" xmlns="http://www.w3.org/2000/svg" xmlns:xlink="http://www.w3.org/1999/xlink" x="0px"
	 y="0px" width="100px" height="100px" viewBox="0 0 100 100" enable-background="new 0 0 100 100" xml:space="preserve">
<path fill="#111111" d="M26.894,38.457c-7.305-3.511-5.542-12.302-0.043-14.403c6.035-2.302,12.9,4.083,19.051,3.517
	c7.833-0.723,8.403-4.638,11.732-9.438c3.179-4.596,16.06-1.979,9.699,8.881c-2.666,4.551-5.153,9.354,5.701,9.939
	c7.348,0.399,8.723,9.974-2.015,11.502c-9.074,1.294-9.414,6.391-6.242,9.564c2.613,2.61,10.354,7.805,11.81,9.736
	c3.961,5.278-1.976,12.467-8.912,8.953c-5.077-2.574-10.12-7.623-15.327-7.822c-8.142-0.32-9.854,3.918-13.18,6.922
	c-6.848,6.188-14.303,0.188-14.303-5.721c0-11.484,15.12-11.424,14.472-20.76C38.823,41.998,32.511,41.151,26.894,38.457"/>
</svg>
