<?xml version="1.0" encoding="utf-8"?>
<!-- Generator: Adobe Illustrator 16.0.0, SVG Export Plug-In . SVG Version: 6.00 Build 0)  -->
<!DOCTYPE svg PUBLIC "-//W3C//DTD SVG 1.1//EN" "http://www.w3.org/Graphics/SVG/1.1/DTD/svg11.dtd">
<svg version="1.1" id="레이어_1" xmlns="http://www.w3.org/2000/svg" xmlns:xlink="http://www.w3.org/1999/xlink" x="0px"
	 y="0px" width="100px" height="100px" viewBox="0 0 100 100" enable-background="new 0 0 100 100" xml:space="preserve">
<path fill="#111111" d="M47.36,47.867l-15.83,10.73l15.83-30.656V47.867z M53.502,47.869V27.941l15.831,30.655L53.502,47.869z
	 M53.502,55.289l18.191,12.33L53.502,77.5V55.289z M30.121,68.137l-0.955-0.518l18.194-12.33V77.5L30.121,68.137z M79.784,70.046
	c0.126-0.13,0.237-0.263,0.339-0.412c0.036-0.056,0.076-0.108,0.109-0.168c0.107-0.185,0.201-0.377,0.27-0.579
	c0.006-0.021,0.018-0.041,0.023-0.061c0.072-0.227,0.109-0.461,0.127-0.698c0-0.024,0.012-0.049,0.012-0.069
	c0.003-0.039-0.012-0.08-0.01-0.117c0.002-0.185-0.014-0.365-0.043-0.547c-0.012-0.068-0.021-0.133-0.036-0.197
	c-0.05-0.197-0.115-0.393-0.205-0.586c-0.015-0.029-0.021-0.061-0.035-0.088c-0.003-0.008-0.004-0.018-0.009-0.024L53.159,13.891
	c-0.042-0.087-0.117-0.149-0.173-0.227c-0.094-0.15-0.194-0.292-0.313-0.42c-0.113-0.125-0.232-0.229-0.361-0.332
	c-0.133-0.106-0.27-0.199-0.42-0.282c-0.15-0.081-0.304-0.144-0.465-0.199c-0.095-0.033-0.174-0.095-0.271-0.118
	c-0.075-0.016-0.146-0.002-0.218-0.014c-0.168-0.03-0.336-0.036-0.509-0.036c-0.172,0-0.34,0.006-0.508,0.036
	c-0.073,0.012-0.144-0.002-0.217,0.014c-0.097,0.023-0.174,0.081-0.267,0.116c-0.164,0.058-0.32,0.12-0.472,0.203
	c-0.149,0.081-0.281,0.174-0.412,0.276c-0.132,0.104-0.253,0.211-0.369,0.338c-0.118,0.13-0.218,0.268-0.312,0.414
	c-0.052,0.081-0.127,0.142-0.173,0.23L20.535,66.498c-0.005,0.008-0.006,0.018-0.011,0.025c-0.014,0.026-0.021,0.062-0.036,0.088
	c-0.088,0.193-0.156,0.388-0.204,0.584c-0.013,0.066-0.022,0.132-0.034,0.197c-0.031,0.185-0.047,0.365-0.044,0.547
	c0,0.043-0.012,0.08-0.01,0.119c0.002,0.021,0.011,0.043,0.013,0.064c0.018,0.236,0.055,0.477,0.126,0.702
	c0.006,0.022,0.019,0.04,0.025,0.062c0.067,0.201,0.159,0.393,0.267,0.576c0.034,0.063,0.075,0.118,0.116,0.174
	c0.097,0.146,0.207,0.278,0.33,0.404c0.047,0.048,0.091,0.1,0.143,0.145c0.176,0.158,0.366,0.307,0.582,0.424l27.167,14.756
	c0.144,0.074,0.298,0.119,0.448,0.174c0.081,0.025,0.156,0.07,0.238,0.095c0.257,0.065,0.517,0.103,0.78,0.103
	c0.26,0,0.523-0.036,0.779-0.103c0.08-0.022,0.157-0.067,0.237-0.093c0.15-0.057,0.306-0.102,0.447-0.176l27.168-14.756
	c0.218-0.119,0.41-0.266,0.586-0.428C79.695,70.141,79.738,70.092,79.784,70.046"/>
</svg>
