<?xml version="1.0" encoding="utf-8"?>
<!-- Generator: Adobe Illustrator 16.0.0, SVG Export Plug-In . SVG Version: 6.00 Build 0)  -->
<!DOCTYPE svg PUBLIC "-//W3C//DTD SVG 1.1//EN" "http://www.w3.org/Graphics/SVG/1.1/DTD/svg11.dtd">
<svg version="1.1" id="레이어_1" xmlns="http://www.w3.org/2000/svg" xmlns:xlink="http://www.w3.org/1999/xlink" x="0px"
	 y="0px" width="100px" height="100px" viewBox="0 0 100 100" enable-background="new 0 0 100 100" xml:space="preserve">
<path fill="#111111" d="M86.641,45.803H59.218c3.416-3.439,19.388-19.527,19.388-19.527l-5.297-5.337c0,0-15.976,16.091-19.39,19.53
	V12.844h-1.242h-6.251v27.625c-3.412-3.439-19.388-19.533-19.388-19.533l-5.296,5.335c0,0,15.973,16.093,19.387,19.532
	c-4.827,0.003-27.418,0.003-27.418,0.003v7.545h27.422c-3.416,3.439-19.395,19.539-19.395,19.539l5.299,5.336
	c0,0,15.977-16.095,19.389-19.533v27.623h7.493V58.689c3.414,3.441,19.392,19.535,19.392,19.535l5.297-5.336
	c0,0-15.976-16.099-19.39-19.537h27.423V45.803z"/>
</svg>
