<?xml version="1.0" encoding="utf-8"?>
<!-- Generator: Adobe Illustrator 16.0.0, SVG Export Plug-In . SVG Version: 6.00 Build 0)  -->
<!DOCTYPE svg PUBLIC "-//W3C//DTD SVG 1.1//EN" "http://www.w3.org/Graphics/SVG/1.1/DTD/svg11.dtd">
<svg version="1.1" id="레이어_1" xmlns="http://www.w3.org/2000/svg" xmlns:xlink="http://www.w3.org/1999/xlink" x="0px"
	 y="0px" width="362px" height="136px" viewBox="0 0 362 136" enable-background="new 0 0 362 136" xml:space="preserve">
<polygon fill="#FFFFFF" stroke="#000000" stroke-miterlimit="10" points="108.214,63.628 108.214,66.604 111.991,66.604 
	111.991,68.141 108.214,68.141 108.214,71.176 113.006,71.176 113.006,72.771 106.199,72.771 106.199,62.039 113.006,62.039 
	113.006,63.628 "/>
<path fill="#FFFFFF" stroke="#000000" stroke-miterlimit="10" d="M114.275,66.218c0.881-0.802,1.941-1.202,3.18-1.202
	c0.447,0,0.848,0.073,1.201,0.219c0.354,0.146,0.653,0.348,0.896,0.608c0.244,0.26,0.429,0.57,0.556,0.932s0.191,0.757,0.191,1.188
	v4.81h-0.836c-0.175,0-0.309-0.026-0.403-0.078c-0.095-0.052-0.169-0.157-0.224-0.315l-0.165-0.549
	c-0.193,0.173-0.383,0.325-0.567,0.456s-0.375,0.241-0.575,0.33c-0.199,0.09-0.412,0.157-0.637,0.204
	c-0.227,0.047-0.477,0.071-0.75,0.071c-0.325,0-0.622-0.044-0.897-0.13c-0.273-0.087-0.51-0.217-0.709-0.39
	c-0.199-0.174-0.353-0.389-0.463-0.646c-0.109-0.257-0.164-0.557-0.164-0.897c0-0.193,0.032-0.385,0.098-0.575
	c0.064-0.19,0.17-0.372,0.316-0.546c0.148-0.173,0.338-0.336,0.572-0.489s0.521-0.287,0.862-0.401
	c0.341-0.113,0.737-0.206,1.19-0.278c0.453-0.071,0.971-0.115,1.553-0.13v-0.445c0-0.51-0.109-0.887-0.329-1.132
	c-0.219-0.245-0.534-0.367-0.947-0.367c-0.299,0-0.547,0.034-0.744,0.104c-0.196,0.069-0.369,0.147-0.518,0.234
	c-0.15,0.086-0.285,0.164-0.406,0.233c-0.122,0.069-0.258,0.104-0.408,0.104c-0.129,0-0.239-0.034-0.328-0.101
	c-0.09-0.066-0.162-0.145-0.216-0.233L114.275,66.218z M118.5,69.521c-0.533,0.025-0.98,0.07-1.344,0.138
	c-0.363,0.066-0.654,0.152-0.873,0.256c-0.22,0.104-0.376,0.226-0.471,0.363c-0.094,0.139-0.141,0.29-0.141,0.453
	c0,0.321,0.096,0.552,0.287,0.69s0.441,0.208,0.75,0.208c0.379,0,0.706-0.068,0.981-0.204c0.277-0.137,0.547-0.343,0.811-0.62
	V69.521z"/>
<path fill="#FFFFFF" stroke="#000000" stroke-miterlimit="10" d="M123.77,66.478c0.238-0.455,0.522-0.813,0.851-1.072
	c0.328-0.26,0.716-0.39,1.164-0.39c0.353,0,0.636,0.076,0.85,0.229l-0.119,1.374c-0.024,0.088-0.06,0.151-0.108,0.188
	c-0.047,0.037-0.111,0.056-0.191,0.056c-0.074,0-0.184-0.012-0.332-0.037c-0.146-0.024-0.29-0.037-0.428-0.037
	c-0.205,0-0.386,0.03-0.545,0.09c-0.16,0.059-0.303,0.145-0.43,0.256s-0.238,0.246-0.336,0.404
	c-0.097,0.158-0.188,0.339-0.272,0.542v4.69h-1.843v-7.615h1.082c0.189,0,0.321,0.033,0.395,0.101
	c0.075,0.066,0.124,0.187,0.15,0.359L123.77,66.478z"/>
<path fill="#FFFFFF" stroke="#000000" stroke-miterlimit="10" d="M126.964,74.59c-0.09-0.074-0.135-0.166-0.135-0.274
	c0-0.04,0.014-0.084,0.041-0.134c0.028-0.05,0.061-0.094,0.101-0.134c0.055-0.06,0.122-0.132,0.202-0.219
	c0.079-0.087,0.159-0.186,0.238-0.297c0.08-0.111,0.154-0.232,0.221-0.363c0.066-0.132,0.118-0.271,0.152-0.42
	c-0.159,0-0.303-0.028-0.432-0.085c-0.13-0.057-0.241-0.136-0.332-0.234c-0.092-0.099-0.164-0.215-0.217-0.349
	c-0.052-0.134-0.078-0.279-0.078-0.438c0-0.139,0.026-0.269,0.078-0.39c0.053-0.121,0.126-0.228,0.221-0.319
	c0.093-0.092,0.209-0.163,0.342-0.215c0.135-0.053,0.282-0.078,0.441-0.078c0.189,0,0.354,0.033,0.497,0.1
	c0.141,0.067,0.258,0.159,0.35,0.275c0.092,0.116,0.162,0.249,0.209,0.4s0.071,0.311,0.071,0.479c0,0.237-0.036,0.487-0.108,0.75
	c-0.072,0.262-0.178,0.524-0.317,0.786c-0.14,0.262-0.313,0.518-0.519,0.765c-0.207,0.247-0.442,0.476-0.706,0.683L126.964,74.59z"
	/>
<path fill="#FFFFFF" stroke="#000000" stroke-miterlimit="10" d="M143.504,62.039v10.732h-1.03c-0.159,0-0.293-0.026-0.4-0.078
	c-0.107-0.051-0.21-0.14-0.309-0.264l-5.636-7.154c0.03,0.327,0.045,0.628,0.045,0.905v6.591h-1.769V62.039h1.052
	c0.085,0,0.158,0.004,0.221,0.012c0.062,0.007,0.117,0.021,0.164,0.044s0.094,0.055,0.138,0.097
	c0.045,0.042,0.094,0.098,0.149,0.167l5.658,7.185c-0.015-0.173-0.027-0.344-0.038-0.512c-0.01-0.169-0.015-0.324-0.015-0.468
	v-6.524H143.504z"/>
<path fill="#FFFFFF" stroke="#000000" stroke-miterlimit="10" d="M148.772,65.038c0.567,0,1.084,0.091,1.549,0.274
	c0.466,0.183,0.863,0.442,1.194,0.779s0.586,0.747,0.765,1.232c0.181,0.484,0.269,1.026,0.269,1.625
	c0,0.604-0.088,1.147-0.269,1.633c-0.179,0.485-0.434,0.898-0.765,1.239c-0.331,0.342-0.729,0.604-1.194,0.787
	c-0.465,0.183-0.981,0.274-1.549,0.274c-0.571,0-1.092-0.092-1.56-0.274c-0.467-0.184-0.867-0.445-1.198-0.787
	c-0.331-0.341-0.587-0.754-0.768-1.239c-0.182-0.485-0.273-1.029-0.273-1.633c0-0.599,0.091-1.141,0.273-1.625
	c0.181-0.485,0.437-0.896,0.768-1.232s0.731-0.597,1.198-0.779C147.681,65.129,148.201,65.038,148.772,65.038 M148.772,71.473
	c0.638,0,1.108-0.213,1.414-0.639c0.308-0.424,0.459-1.048,0.459-1.87c0-0.821-0.151-1.447-0.459-1.878
	c-0.306-0.43-0.776-0.646-1.414-0.646c-0.646,0-1.126,0.217-1.437,0.649c-0.311,0.434-0.466,1.058-0.466,1.874
	s0.155,1.438,0.466,1.867C147.646,71.259,148.127,71.473,148.772,71.473"/>
<path fill="#FFFFFF" stroke="#000000" stroke-miterlimit="10" d="M158.632,66.641c-0.05,0.079-0.103,0.135-0.156,0.167
	c-0.055,0.032-0.125,0.049-0.209,0.049c-0.09,0-0.187-0.025-0.288-0.074c-0.102-0.05-0.22-0.105-0.354-0.167
	c-0.134-0.063-0.287-0.118-0.459-0.167c-0.171-0.05-0.374-0.074-0.608-0.074c-0.363,0-0.648,0.076-0.855,0.229
	c-0.205,0.153-0.309,0.354-0.309,0.602c0,0.163,0.053,0.301,0.16,0.412s0.249,0.209,0.426,0.293c0.176,0.084,0.377,0.159,0.6,0.227
	c0.226,0.065,0.453,0.14,0.685,0.219s0.459,0.17,0.683,0.271c0.224,0.102,0.424,0.23,0.601,0.387
	c0.177,0.155,0.317,0.342,0.426,0.56c0.106,0.218,0.16,0.48,0.16,0.787c0,0.366-0.065,0.704-0.197,1.013
	c-0.132,0.31-0.327,0.577-0.586,0.802c-0.259,0.226-0.579,0.401-0.959,0.527c-0.381,0.126-0.821,0.189-1.317,0.189
	c-0.264,0-0.521-0.024-0.772-0.071c-0.252-0.047-0.493-0.112-0.726-0.196c-0.23-0.084-0.444-0.183-0.641-0.297
	c-0.197-0.114-0.369-0.237-0.519-0.371l0.425-0.697c0.055-0.085,0.12-0.148,0.193-0.193c0.076-0.045,0.17-0.066,0.285-0.066
	c0.114,0,0.223,0.032,0.324,0.096c0.102,0.064,0.219,0.134,0.354,0.208c0.136,0.074,0.293,0.144,0.475,0.208
	s0.412,0.097,0.689,0.097c0.221,0,0.408-0.026,0.564-0.078c0.157-0.052,0.286-0.12,0.389-0.204c0.102-0.084,0.177-0.182,0.224-0.293
	c0.048-0.111,0.071-0.227,0.071-0.346c0-0.178-0.053-0.323-0.162-0.438c-0.105-0.114-0.247-0.213-0.424-0.297
	c-0.176-0.084-0.379-0.159-0.604-0.227c-0.228-0.066-0.458-0.14-0.694-0.219s-0.468-0.172-0.695-0.278
	c-0.225-0.107-0.426-0.241-0.604-0.404c-0.177-0.163-0.318-0.364-0.426-0.602c-0.105-0.237-0.16-0.524-0.16-0.86
	c0-0.313,0.063-0.609,0.186-0.891c0.125-0.282,0.309-0.528,0.55-0.739c0.241-0.21,0.542-0.378,0.903-0.505
	c0.36-0.126,0.777-0.188,1.25-0.188c0.527,0,1.008,0.086,1.44,0.26c0.433,0.173,0.794,0.4,1.082,0.683L158.632,66.641z"/>
<path fill="#FFFFFF" stroke="#000000" stroke-miterlimit="10" d="M161.938,69.194c0.031,0.391,0.101,0.729,0.209,1.013
	c0.111,0.285,0.254,0.52,0.434,0.705s0.393,0.324,0.639,0.416s0.519,0.137,0.817,0.137c0.298,0,0.556-0.034,0.772-0.104
	c0.215-0.069,0.405-0.146,0.566-0.23c0.162-0.084,0.305-0.16,0.426-0.229c0.122-0.069,0.24-0.104,0.354-0.104
	c0.153,0,0.269,0.058,0.344,0.171l0.529,0.668c-0.204,0.237-0.433,0.437-0.687,0.599c-0.254,0.16-0.519,0.288-0.795,0.385
	c-0.277,0.097-0.557,0.165-0.843,0.204c-0.286,0.04-0.563,0.06-0.833,0.06c-0.532,0-1.027-0.088-1.484-0.264
	s-0.856-0.436-1.195-0.779c-0.338-0.344-0.604-0.77-0.799-1.276c-0.193-0.507-0.291-1.095-0.291-1.763
	c0-0.52,0.084-1.008,0.254-1.466s0.412-0.856,0.729-1.195c0.314-0.339,0.701-0.607,1.156-0.805c0.456-0.198,0.97-0.297,1.542-0.297
	c0.483,0,0.928,0.076,1.336,0.229c0.407,0.153,0.759,0.378,1.052,0.672c0.294,0.295,0.524,0.656,0.689,1.084
	c0.168,0.428,0.25,0.916,0.25,1.466c0,0.277-0.028,0.464-0.088,0.561c-0.06,0.096-0.174,0.145-0.344,0.145H161.938z M165.454,68.088
	c0-0.237-0.034-0.461-0.101-0.671c-0.067-0.211-0.168-0.395-0.303-0.554c-0.135-0.158-0.305-0.283-0.512-0.374
	c-0.206-0.092-0.445-0.138-0.72-0.138c-0.532,0-0.952,0.151-1.259,0.453c-0.305,0.302-0.5,0.729-0.586,1.283H165.454z"/>
<path fill="#FFFFFF" stroke="#000000" stroke-miterlimit="10" d="M171.939,66.218c0.881-0.802,1.94-1.202,3.18-1.202
	c0.447,0,0.85,0.073,1.202,0.219c0.353,0.146,0.651,0.348,0.896,0.608c0.243,0.26,0.428,0.57,0.555,0.932s0.191,0.757,0.191,1.188
	v4.81h-0.836c-0.174,0-0.309-0.026-0.402-0.078c-0.095-0.052-0.17-0.157-0.225-0.315l-0.164-0.549
	c-0.193,0.173-0.383,0.325-0.568,0.456c-0.183,0.131-0.375,0.241-0.573,0.33c-0.199,0.09-0.412,0.157-0.638,0.204
	c-0.228,0.047-0.478,0.071-0.75,0.071c-0.324,0-0.623-0.044-0.896-0.13c-0.273-0.087-0.512-0.217-0.709-0.39
	c-0.199-0.174-0.354-0.389-0.463-0.646c-0.109-0.257-0.164-0.557-0.164-0.897c0-0.193,0.031-0.385,0.097-0.575
	c0.063-0.19,0.171-0.372,0.317-0.546c0.146-0.173,0.337-0.336,0.572-0.489c0.232-0.153,0.52-0.287,0.86-0.401
	c0.341-0.113,0.738-0.206,1.19-0.278c0.453-0.071,0.971-0.115,1.553-0.13v-0.445c0-0.51-0.109-0.887-0.328-1.132
	s-0.535-0.367-0.947-0.367c-0.299,0-0.547,0.034-0.744,0.104c-0.196,0.069-0.369,0.147-0.518,0.234
	c-0.15,0.086-0.285,0.164-0.406,0.233c-0.123,0.069-0.259,0.104-0.408,0.104c-0.129,0-0.238-0.034-0.328-0.101
	s-0.161-0.145-0.217-0.233L171.939,66.218z M176.164,69.521c-0.532,0.025-0.98,0.07-1.344,0.138
	c-0.363,0.066-0.654,0.152-0.873,0.256s-0.376,0.226-0.471,0.363c-0.094,0.139-0.142,0.29-0.142,0.453
	c0,0.321,0.097,0.552,0.288,0.69s0.441,0.208,0.75,0.208c0.378,0,0.705-0.068,0.98-0.204c0.277-0.137,0.547-0.343,0.811-0.62V69.521
	z"/>
<path fill="#FFFFFF" stroke="#000000" stroke-miterlimit="10" d="M181.419,66.092c0.153-0.153,0.317-0.296,0.487-0.427
	c0.173-0.131,0.354-0.242,0.545-0.334c0.193-0.092,0.398-0.163,0.617-0.216c0.219-0.052,0.457-0.077,0.717-0.077
	c0.418,0,0.787,0.07,1.111,0.211c0.324,0.142,0.594,0.339,0.811,0.594c0.216,0.255,0.38,0.56,0.492,0.913
	c0.113,0.354,0.168,0.743,0.168,1.169v4.847h-1.844v-4.847c0-0.465-0.106-0.825-0.32-1.08c-0.215-0.255-0.54-0.382-0.979-0.382
	c-0.318,0-0.617,0.071-0.896,0.215c-0.278,0.143-0.542,0.339-0.791,0.587v5.507h-1.845v-7.615h1.127c0.24,0,0.396,0.111,0.472,0.334
	L181.419,66.092z"/>
<path fill="#FFFFFF" stroke="#000000" stroke-miterlimit="10" d="M194.764,61.742v11.029h-1.127c-0.244,0-0.398-0.111-0.463-0.334
	l-0.156-0.734c-0.309,0.351-0.662,0.636-1.063,0.854c-0.401,0.217-0.867,0.326-1.4,0.326c-0.418,0-0.801-0.087-1.149-0.26
	c-0.348-0.173-0.647-0.424-0.899-0.753c-0.251-0.329-0.444-0.736-0.582-1.222c-0.137-0.483-0.205-1.039-0.205-1.662
	c0-0.564,0.077-1.089,0.231-1.572c0.154-0.486,0.375-0.906,0.664-1.263s0.635-0.635,1.037-0.835
	c0.403-0.201,0.856-0.301,1.359-0.301c0.428,0,0.793,0.066,1.098,0.2c0.303,0.134,0.574,0.314,0.813,0.542v-4.016H194.764z
	 M192.92,67.102c-0.209-0.253-0.438-0.431-0.684-0.535c-0.246-0.104-0.51-0.155-0.795-0.155c-0.277,0-0.529,0.052-0.752,0.155
	c-0.225,0.104-0.416,0.262-0.576,0.473c-0.159,0.209-0.28,0.477-0.365,0.801s-0.127,0.706-0.127,1.146
	c0,0.445,0.035,0.822,0.109,1.132c0.071,0.31,0.174,0.562,0.309,0.757s0.299,0.337,0.492,0.423c0.195,0.087,0.41,0.13,0.649,0.13
	c0.384,0,0.71-0.079,0.978-0.237c0.27-0.158,0.523-0.383,0.762-0.675V67.102z"/>
<polygon fill="#FFFFFF" stroke="#000000" stroke-miterlimit="10" points="207.587,63.68 204.332,63.68 204.332,72.771 
	202.324,72.771 202.324,63.68 199.07,63.68 199.07,62.039 207.587,62.039 "/>
<path fill="#FFFFFF" stroke="#000000" stroke-miterlimit="10" d="M210.424,65.973c0.298-0.276,0.627-0.502,0.984-0.675
	c0.358-0.174,0.779-0.26,1.262-0.26c0.418,0,0.789,0.07,1.112,0.211c0.323,0.142,0.593,0.339,0.81,0.594s0.381,0.56,0.493,0.913
	c0.11,0.354,0.168,0.743,0.168,1.169v4.847h-1.844v-4.847c0-0.465-0.107-0.825-0.321-1.08s-0.54-0.382-0.978-0.382
	c-0.318,0-0.617,0.072-0.896,0.215c-0.279,0.144-0.543,0.339-0.791,0.587v5.507h-1.844V61.743h1.844V65.973z"/>
<path fill="#FFFFFF" stroke="#000000" stroke-miterlimit="10" d="M218.738,66.478c0.238-0.455,0.522-0.813,0.851-1.072
	s0.717-0.39,1.164-0.39c0.354,0,0.637,0.076,0.851,0.229l-0.119,1.374c-0.024,0.088-0.061,0.151-0.108,0.188
	c-0.047,0.037-0.11,0.056-0.19,0.056c-0.074,0-0.185-0.012-0.332-0.037c-0.146-0.024-0.29-0.037-0.428-0.037
	c-0.205,0-0.387,0.03-0.546,0.09c-0.159,0.059-0.303,0.145-0.43,0.256s-0.238,0.246-0.336,0.404
	c-0.097,0.158-0.188,0.339-0.272,0.542v4.69h-1.843v-7.615h1.082c0.189,0,0.321,0.033,0.396,0.101
	c0.075,0.066,0.124,0.187,0.149,0.359L218.738,66.478z"/>
<path fill="#FFFFFF" stroke="#000000" stroke-miterlimit="10" d="M225.739,65.038c0.566,0,1.083,0.091,1.549,0.274
	c0.465,0.183,0.862,0.442,1.193,0.779s0.586,0.747,0.766,1.232c0.18,0.484,0.269,1.026,0.269,1.625c0,0.604-0.089,1.147-0.269,1.633
	s-0.435,0.898-0.766,1.239c-0.331,0.342-0.729,0.604-1.193,0.787c-0.466,0.183-0.982,0.274-1.549,0.274
	c-0.572,0-1.093-0.092-1.561-0.274c-0.468-0.184-0.867-0.445-1.197-0.787c-0.331-0.341-0.588-0.754-0.77-1.239
	s-0.272-1.029-0.272-1.633c0-0.599,0.091-1.141,0.272-1.625c0.182-0.485,0.438-0.896,0.77-1.232c0.33-0.337,0.729-0.597,1.197-0.779
	C224.646,65.129,225.167,65.038,225.739,65.038 M225.739,71.473c0.637,0,1.108-0.213,1.414-0.639
	c0.306-0.424,0.459-1.048,0.459-1.87c0-0.821-0.153-1.447-0.459-1.878c-0.306-0.43-0.777-0.646-1.414-0.646
	c-0.646,0-1.126,0.217-1.437,0.649c-0.312,0.434-0.467,1.058-0.467,1.874s0.155,1.438,0.467,1.867
	C224.613,71.259,225.093,71.473,225.739,71.473"/>
<path fill="#FFFFFF" stroke="#000000" stroke-miterlimit="10" d="M230.746,66.218c0.881-0.802,1.94-1.202,3.18-1.202
	c0.448,0,0.849,0.073,1.202,0.219c0.353,0.146,0.651,0.348,0.896,0.608c0.243,0.26,0.429,0.57,0.556,0.932s0.19,0.757,0.19,1.188
	v4.81h-0.836c-0.174,0-0.309-0.026-0.403-0.078c-0.094-0.052-0.169-0.157-0.224-0.315l-0.164-0.549
	c-0.194,0.173-0.383,0.325-0.568,0.456c-0.183,0.131-0.375,0.241-0.573,0.33c-0.199,0.09-0.412,0.157-0.639,0.204
	s-0.477,0.071-0.75,0.071c-0.323,0-0.622-0.044-0.896-0.13c-0.273-0.087-0.511-0.217-0.709-0.39
	c-0.199-0.174-0.354-0.389-0.463-0.646c-0.109-0.257-0.164-0.557-0.164-0.897c0-0.193,0.032-0.385,0.097-0.575
	s0.171-0.372,0.317-0.546c0.146-0.173,0.337-0.336,0.572-0.489c0.232-0.153,0.52-0.287,0.86-0.401
	c0.341-0.113,0.738-0.206,1.19-0.278c0.453-0.071,0.971-0.115,1.553-0.13v-0.445c0-0.51-0.109-0.887-0.328-1.132
	s-0.535-0.367-0.948-0.367c-0.298,0-0.546,0.034-0.742,0.104c-0.197,0.069-0.37,0.147-0.519,0.234
	c-0.15,0.086-0.285,0.164-0.407,0.233s-0.258,0.104-0.407,0.104c-0.129,0-0.238-0.034-0.328-0.101s-0.161-0.145-0.217-0.233
	L230.746,66.218z M234.971,69.521c-0.532,0.025-0.98,0.07-1.344,0.138c-0.363,0.066-0.654,0.152-0.873,0.256
	s-0.376,0.226-0.471,0.363c-0.094,0.139-0.142,0.29-0.142,0.453c0,0.321,0.097,0.552,0.288,0.69s0.441,0.208,0.75,0.208
	c0.378,0,0.705-0.068,0.981-0.204c0.276-0.137,0.546-0.343,0.81-0.62V69.521z"/>
<path fill="#FFFFFF" stroke="#000000" stroke-miterlimit="10" d="M240.95,72.891c-0.667,0-1.179-0.188-1.534-0.561
	c-0.355-0.374-0.534-0.89-0.534-1.548v-4.253h-0.783c-0.1,0-0.185-0.032-0.254-0.096c-0.069-0.064-0.104-0.161-0.104-0.29v-0.728
	l1.23-0.2l0.39-2.078c0.024-0.099,0.071-0.176,0.142-0.23c0.069-0.054,0.159-0.081,0.269-0.081h0.955v2.397h2.045v1.306h-2.045
	v4.127c0,0.237,0.059,0.422,0.176,0.557c0.117,0.134,0.277,0.2,0.481,0.2c0.114,0,0.21-0.014,0.287-0.041
	c0.077-0.026,0.145-0.056,0.201-0.086c0.058-0.028,0.108-0.058,0.153-0.084c0.045-0.027,0.09-0.041,0.135-0.041
	c0.055,0,0.1,0.014,0.134,0.041c0.035,0.026,0.072,0.067,0.112,0.122l0.553,0.891c-0.27,0.223-0.578,0.391-0.926,0.505
	C241.684,72.833,241.323,72.891,240.95,72.891"/>
<polygon fill="#FFFFFF" stroke="#000000" stroke-miterlimit="10" points="141.953,29.766 141.953,38.431 152.887,38.431 
	152.887,42.903 141.953,42.903 141.953,51.74 155.825,51.74 155.825,56.386 136.119,56.386 136.119,25.142 155.825,25.142 
	155.825,29.766 "/>
<path fill="#FFFFFF" stroke="#000000" stroke-miterlimit="10" d="M187.307,25.142v31.244h-2.98c-0.461,0-0.848-0.075-1.158-0.227
	c-0.309-0.151-0.607-0.407-0.896-0.768l-16.313-20.829c0.086,0.951,0.129,1.829,0.129,2.637v19.187h-5.12V25.142h3.047
	c0.244,0,0.457,0.011,0.637,0.032c0.181,0.023,0.339,0.066,0.476,0.13c0.137,0.065,0.271,0.159,0.4,0.28
	c0.129,0.123,0.273,0.285,0.432,0.488l16.377,20.914c-0.043-0.504-0.078-1.001-0.106-1.491c-0.028-0.489-0.044-0.942-0.044-1.36
	V25.142H187.307z"/>
<polygon fill="#FFFFFF" stroke="#000000" stroke-miterlimit="10" points="216.087,29.917 206.667,29.917 206.667,56.386 
	200.854,56.386 200.854,29.917 191.434,29.917 191.434,25.143 216.087,25.143 "/>
<g>
</g>
<g>
</g>
<g>
</g>
<g>
</g>
<g>
</g>
<g>
</g>
<g>
</g>
<g>
</g>
<g>
</g>
<g>
</g>
<g>
</g>
<g>
</g>
<g>
</g>
<g>
</g>
<g>
</g>
</svg>
