<?xml version="1.0" encoding="utf-8"?>
<!-- Generator: Adobe Illustrator 16.0.0, SVG Export Plug-In . SVG Version: 6.00 Build 0)  -->
<!DOCTYPE svg PUBLIC "-//W3C//DTD SVG 1.1//EN" "http://www.w3.org/Graphics/SVG/1.1/DTD/svg11.dtd">
<svg version="1.1" id="레이어_1" xmlns="http://www.w3.org/2000/svg" xmlns:xlink="http://www.w3.org/1999/xlink" x="0px"
	 y="0px" width="362px" height="136px" viewBox="0 0 362 136" enable-background="new 0 0 362 136" xml:space="preserve">
<polygon fill="#FFFFFF" stroke="#000000" stroke-miterlimit="10" points="40.762,41.24 40.762,48.659 50.123,48.659 50.123,52.488 
	40.762,52.488 40.762,60.054 52.639,60.054 52.639,64.032 35.767,64.032 35.767,37.281 52.639,37.281 52.639,41.24 "/>
<path fill="#FFFFFF" stroke="#000000" stroke-miterlimit="10" d="M79.593,37.281v26.751H77.04c-0.394,0-0.724-0.064-0.989-0.194
	s-0.521-0.349-0.768-0.656L61.316,45.348c0.073,0.813,0.109,1.566,0.109,2.257v16.428h-4.384V37.281h2.608
	c0.209,0,0.392,0.009,0.547,0.027c0.152,0.019,0.289,0.056,0.406,0.111c0.116,0.055,0.23,0.135,0.342,0.24s0.234,0.244,0.371,0.417
	l14.021,17.907c-0.037-0.433-0.066-0.856-0.092-1.276c-0.025-0.419-0.037-0.808-0.037-1.165V37.281H79.593z"/>
<polygon fill="#FFFFFF" stroke="#000000" stroke-miterlimit="10" points="104.235,41.37 96.17,41.37 96.17,64.032 91.192,64.032 
	91.192,41.37 83.127,41.37 83.127,37.281 104.235,37.281 "/>
<polygon fill="#FFFFFF" stroke="#000000" stroke-miterlimit="10" points="112.745,41.24 112.745,48.659 122.105,48.659 
	122.105,52.488 112.745,52.488 112.745,60.054 124.622,60.054 124.622,64.032 107.75,64.032 107.75,37.281 124.622,37.281 
	124.622,41.24 "/>
<path fill="#FFFFFF" stroke="#000000" stroke-miterlimit="10" d="M149.912,64.032h-4.496c-0.852,0-1.468-0.333-1.851-0.999
	l-5.624-8.565c-0.21-0.32-0.439-0.549-0.693-0.685c-0.252-0.136-0.625-0.203-1.119-0.203h-2.127v10.452h-4.978V37.281h8.159
	c1.813,0,3.369,0.188,4.671,0.564c1.301,0.376,2.368,0.903,3.2,1.581c0.832,0.679,1.447,1.489,1.841,2.434
	c0.396,0.943,0.592,1.982,0.592,3.117c0,0.9-0.133,1.751-0.397,2.553c-0.266,0.802-0.647,1.529-1.146,2.183
	c-0.5,0.654-1.117,1.228-1.852,1.721c-0.732,0.493-1.568,0.882-2.506,1.166c0.32,0.185,0.617,0.403,0.889,0.656
	s0.518,0.552,0.738,0.897L149.912,64.032z M137.109,50.009c0.938,0,1.754-0.116,2.451-0.351c0.695-0.234,1.27-0.559,1.721-0.972
	c0.45-0.413,0.786-0.903,1.008-1.471c0.221-0.567,0.334-1.19,0.334-1.868c0-1.357-0.449-2.399-1.342-3.127
	c-0.895-0.728-2.261-1.092-4.098-1.092h-3.182v8.88H137.109z"/>
<polygon fill="#FFFFFF" stroke="#000000" stroke-miterlimit="10" points="170.797,41.37 162.732,41.37 162.732,64.032 
	157.755,64.032 157.755,41.37 149.689,41.37 149.689,37.281 170.797,37.281 "/>
<path fill="#FFFFFF" stroke="#000000" stroke-miterlimit="10" d="M194.625,64.032h-3.848c-0.432,0-0.783-0.107-1.055-0.324
	c-0.271-0.215-0.475-0.483-0.611-0.805l-1.998-5.457h-11.08l-1.998,5.457c-0.1,0.284-0.29,0.543-0.574,0.777
	c-0.283,0.234-0.635,0.352-1.055,0.352h-3.885l10.527-26.751h5.068L194.625,64.032z M185.838,53.932l-3.256-8.898
	c-0.16-0.396-0.327-0.863-0.5-1.406c-0.174-0.543-0.346-1.129-0.518-1.759c-0.16,0.63-0.328,1.219-0.5,1.768
	s-0.338,1.027-0.498,1.434l-3.238,8.862H185.838z"/>
<rect x="197.401" y="37.281" fill="#FFFFFF" stroke="#000000" stroke-miterlimit="10" width="4.995" height="26.751"/>
<path fill="#FFFFFF" stroke="#000000" stroke-miterlimit="10" d="M237.378,37.281v26.751h-4.384V46.753
	c0-0.69,0.037-1.437,0.11-2.238l-8.084,15.188c-0.383,0.728-0.969,1.092-1.758,1.092h-0.703c-0.789,0-1.375-0.364-1.757-1.092
	l-8.178-15.244c0.037,0.407,0.068,0.809,0.093,1.203s0.037,0.758,0.037,1.091v17.279h-4.385V37.281h3.756
	c0.222,0,0.413,0.006,0.573,0.02c0.16,0.012,0.306,0.043,0.435,0.092c0.13,0.049,0.247,0.129,0.352,0.24s0.206,0.258,0.306,0.444
	l8.011,14.855c0.209,0.395,0.403,0.802,0.582,1.221s0.354,0.851,0.527,1.295c0.173-0.456,0.352-0.897,0.537-1.323
	c0.185-0.425,0.382-0.835,0.592-1.229l7.899-14.818c0.099-0.187,0.203-0.333,0.314-0.444s0.231-0.191,0.36-0.24
	c0.13-0.049,0.274-0.08,0.436-0.092c0.16-0.014,0.35-0.02,0.573-0.02H237.378z"/>
<polygon fill="#FFFFFF" stroke="#000000" stroke-miterlimit="10" points="248.33,41.24 248.33,48.659 257.691,48.659 
	257.691,52.488 248.33,52.488 248.33,60.054 260.207,60.054 260.207,64.032 243.335,64.032 243.335,37.281 260.207,37.281 
	260.207,41.24 "/>
<path fill="#FFFFFF" stroke="#000000" stroke-miterlimit="10" d="M287.161,37.281v26.751h-2.553c-0.395,0-0.725-0.064-0.989-0.194
	c-0.266-0.13-0.521-0.349-0.768-0.656l-13.968-17.834c0.074,0.813,0.11,1.566,0.11,2.257v16.428h-4.384V37.281h2.608
	c0.209,0,0.392,0.009,0.546,0.027c0.153,0.019,0.289,0.056,0.406,0.111c0.117,0.055,0.231,0.135,0.343,0.24s0.234,0.244,0.37,0.417
	l14.022,17.907c-0.037-0.433-0.067-0.856-0.092-1.276c-0.025-0.419-0.037-0.808-0.037-1.165V37.281H287.161z"/>
<polygon fill="#FFFFFF" stroke="#000000" stroke-miterlimit="10" points="311.804,41.37 303.737,41.37 303.737,64.032 
	298.761,64.032 298.761,41.37 290.695,41.37 290.695,37.281 311.804,37.281 "/>
<g>
</g>
<g>
</g>
<g>
</g>
<g>
</g>
<g>
</g>
<g>
</g>
<g>
</g>
<g>
</g>
<g>
</g>
<g>
</g>
<g>
</g>
<g>
</g>
<g>
</g>
<g>
</g>
<g>
</g>
</svg>
