<?xml version="1.0" encoding="utf-8"?>
<!-- Generator: Adobe Illustrator 16.0.0, SVG Export Plug-In . SVG Version: 6.00 Build 0)  -->
<!DOCTYPE svg PUBLIC "-//W3C//DTD SVG 1.1//EN" "http://www.w3.org/Graphics/SVG/1.1/DTD/svg11.dtd">
<svg version="1.1" id="레이어_1" xmlns="http://www.w3.org/2000/svg" xmlns:xlink="http://www.w3.org/1999/xlink" x="0px"
	 y="0px" width="362px" height="136px" viewBox="0 0 362 136" enable-background="new 0 0 362 136" xml:space="preserve">
<path fill="#FFFFFF" stroke="#000000" stroke-miterlimit="10" d="M79.65,67.433V71.8c-0.547,0.403-1.13,0.698-1.75,0.885
	s-1.282,0.279-1.988,0.279c-0.88,0-1.677-0.137-2.391-0.41c-0.714-0.273-1.323-0.654-1.828-1.143
	c-0.505-0.487-0.894-1.069-1.167-1.746s-0.41-1.416-0.41-2.217c0-0.812,0.132-1.556,0.396-2.232
	c0.263-0.677,0.638-1.259,1.123-1.746c0.485-0.488,1.073-0.866,1.765-1.135c0.691-0.269,1.467-0.403,2.327-0.403
	c0.438,0,0.847,0.035,1.228,0.104c0.38,0.07,0.733,0.166,1.059,0.288c0.326,0.121,0.623,0.27,0.892,0.443
	c0.269,0.175,0.515,0.366,0.739,0.575l-0.575,0.91c-0.089,0.145-0.207,0.233-0.351,0.266s-0.301-0.004-0.47-0.108
	c-0.165-0.095-0.329-0.189-0.493-0.284c-0.164-0.094-0.347-0.176-0.548-0.246c-0.201-0.069-0.428-0.127-0.679-0.172
	c-0.251-0.044-0.541-0.066-0.869-0.066c-0.532,0-1.014,0.089-1.443,0.269c-0.431,0.179-0.797,0.436-1.101,0.769
	s-0.537,0.734-0.701,1.202s-0.246,0.99-0.246,1.567c0,0.617,0.088,1.168,0.265,1.653c0.176,0.485,0.425,0.896,0.746,1.231
	s0.708,0.592,1.16,0.769c0.452,0.177,0.957,0.266,1.514,0.266c0.398,0,0.753-0.043,1.067-0.127c0.313-0.085,0.619-0.199,0.917-0.344
	V68.94h-1.357c-0.129,0-0.23-0.035-0.302-0.107c-0.072-0.072-0.108-0.161-0.108-0.266v-1.135H79.65z"/>
<path fill="#FFFFFF" stroke="#000000" stroke-miterlimit="10" d="M93.512,66.679c-0.051,0.08-0.103,0.136-0.157,0.168
	c-0.056,0.033-0.124,0.049-0.209,0.049c-0.089,0-0.186-0.024-0.287-0.074c-0.103-0.05-0.22-0.105-0.354-0.168
	s-0.287-0.118-0.459-0.168s-0.374-0.075-0.607-0.075c-0.363,0-0.648,0.077-0.854,0.231s-0.31,0.356-0.31,0.604
	c0,0.165,0.053,0.303,0.16,0.415c0.107,0.111,0.248,0.21,0.426,0.295c0.176,0.084,0.377,0.16,0.6,0.228
	c0.225,0.066,0.451,0.141,0.684,0.22c0.23,0.08,0.459,0.171,0.682,0.272c0.225,0.103,0.424,0.231,0.602,0.389
	c0.176,0.156,0.318,0.344,0.425,0.563c0.106,0.219,0.16,0.482,0.16,0.791c0,0.368-0.065,0.708-0.198,1.019
	c-0.131,0.312-0.326,0.58-0.585,0.807s-0.578,0.402-0.958,0.529c-0.381,0.127-0.82,0.19-1.317,0.19c-0.264,0-0.521-0.023-0.772-0.07
	c-0.251-0.048-0.492-0.113-0.723-0.198c-0.232-0.084-0.445-0.184-0.642-0.299c-0.197-0.114-0.37-0.238-0.519-0.373l0.425-0.701
	c0.055-0.085,0.119-0.149,0.194-0.194s0.168-0.067,0.284-0.067c0.114,0,0.223,0.032,0.324,0.098
	c0.102,0.064,0.221,0.134,0.354,0.209c0.134,0.074,0.292,0.144,0.474,0.209c0.182,0.064,0.412,0.097,0.689,0.097
	c0.219,0,0.407-0.026,0.564-0.078c0.156-0.053,0.285-0.121,0.387-0.206c0.103-0.084,0.178-0.183,0.225-0.294
	c0.047-0.112,0.07-0.229,0.07-0.348c0-0.179-0.053-0.326-0.16-0.44s-0.248-0.214-0.425-0.299c-0.177-0.084-0.378-0.16-0.604-0.228
	c-0.227-0.066-0.457-0.141-0.693-0.22c-0.236-0.08-0.468-0.173-0.694-0.28c-0.226-0.106-0.428-0.242-0.604-0.406
	c-0.176-0.165-0.318-0.366-0.425-0.604c-0.107-0.239-0.161-0.528-0.161-0.866c0-0.313,0.062-0.612,0.187-0.896
	c0.125-0.284,0.307-0.531,0.548-0.743c0.241-0.211,0.542-0.381,0.903-0.508c0.359-0.127,0.776-0.19,1.249-0.19
	c0.527,0,1.007,0.088,1.44,0.262c0.432,0.174,0.793,0.403,1.081,0.687L93.512,66.679z"/>
<path fill="#FFFFFF" stroke="#000000" stroke-miterlimit="10" d="M97.942,72.964c-0.667,0-1.178-0.188-1.533-0.563
	c-0.355-0.375-0.533-0.895-0.533-1.556v-4.277h-0.784c-0.099,0-0.184-0.032-0.253-0.098c-0.069-0.064-0.104-0.161-0.104-0.291
	v-0.731l1.23-0.201l0.389-2.09c0.024-0.1,0.072-0.177,0.142-0.231s0.159-0.082,0.269-0.082h0.955v2.411h2.044v1.313h-2.044v4.15
	c0,0.238,0.059,0.425,0.175,0.56c0.117,0.134,0.277,0.201,0.481,0.201c0.114,0,0.21-0.014,0.287-0.041s0.145-0.056,0.201-0.086
	c0.058-0.029,0.108-0.059,0.153-0.086s0.089-0.041,0.134-0.041c0.055,0,0.1,0.014,0.135,0.041s0.072,0.068,0.111,0.123l0.553,0.896
	c-0.269,0.224-0.577,0.393-0.926,0.507C98.676,72.907,98.315,72.964,97.942,72.964z"/>
<path fill="#FFFFFF" stroke="#000000" stroke-miterlimit="10" d="M102.68,66.515c0.238-0.457,0.521-0.817,0.85-1.078
	c0.328-0.262,0.717-0.392,1.164-0.392c0.354,0,0.637,0.077,0.851,0.231l-0.119,1.381c-0.024,0.089-0.062,0.152-0.108,0.189
	c-0.047,0.038-0.11,0.057-0.189,0.057c-0.075,0-0.186-0.013-0.332-0.037c-0.147-0.025-0.291-0.038-0.43-0.038
	c-0.203,0-0.385,0.03-0.545,0.09c-0.158,0.06-0.302,0.146-0.428,0.258c-0.127,0.111-0.239,0.247-0.336,0.406
	c-0.098,0.159-0.188,0.341-0.273,0.545v4.718h-1.842v-7.658h1.082c0.188,0,0.32,0.033,0.395,0.101
	c0.075,0.067,0.125,0.188,0.149,0.362L102.68,66.515z"/>
<path fill="#FFFFFF" stroke="#000000" stroke-miterlimit="10" d="M117.017,62.954c0,0.16-0.032,0.309-0.097,0.448
	s-0.15,0.262-0.258,0.366s-0.232,0.188-0.377,0.25c-0.145,0.062-0.299,0.093-0.463,0.093c-0.158,0-0.309-0.031-0.451-0.093
	c-0.141-0.063-0.265-0.146-0.369-0.25c-0.104-0.104-0.188-0.227-0.25-0.366s-0.093-0.288-0.093-0.448
	c0-0.164,0.03-0.318,0.093-0.462c0.063-0.145,0.146-0.27,0.25-0.374c0.104-0.104,0.229-0.188,0.369-0.25
	c0.143-0.062,0.293-0.093,0.451-0.093c0.164,0,0.318,0.031,0.463,0.093c0.145,0.063,0.27,0.146,0.377,0.25s0.193,0.229,0.258,0.374
	C116.984,62.636,117.017,62.79,117.017,62.954z"/>
<rect x="114.912" y="65.187" fill="#FFFFFF" stroke="#000000" stroke-miterlimit="10" width="1.851" height="7.658"/>
<path fill="#FFFFFF" stroke="#000000" stroke-miterlimit="10" d="M120.366,66.127c0.153-0.154,0.317-0.298,0.488-0.43
	c0.172-0.132,0.354-0.243,0.545-0.336c0.191-0.092,0.396-0.164,0.615-0.216c0.219-0.053,0.458-0.079,0.716-0.079
	c0.418,0,0.789,0.071,1.112,0.213c0.323,0.143,0.593,0.341,0.81,0.598c0.216,0.256,0.38,0.563,0.492,0.918
	c0.111,0.355,0.168,0.748,0.168,1.176v4.874h-1.843v-4.874c0-0.468-0.107-0.83-0.321-1.086c-0.213-0.257-0.539-0.385-0.977-0.385
	c-0.318,0-0.617,0.072-0.896,0.217s-0.542,0.341-0.791,0.59v5.538h-1.843v-7.658h1.127c0.238,0,0.395,0.111,0.47,0.336
	L120.366,66.127z"/>
<path fill="#FFFFFF" stroke="#000000" stroke-miterlimit="10" d="M129.506,72.964c-0.666,0-1.178-0.188-1.533-0.563
	c-0.355-0.375-0.533-0.895-0.533-1.556v-4.277h-0.783c-0.1,0-0.184-0.032-0.254-0.098c-0.069-0.064-0.104-0.161-0.104-0.291v-0.731
	l1.23-0.201l0.389-2.09c0.023-0.1,0.071-0.177,0.141-0.231c0.07-0.055,0.16-0.082,0.27-0.082h0.955v2.411h2.043v1.313h-2.043v4.15
	c0,0.238,0.058,0.425,0.175,0.56c0.116,0.134,0.276,0.201,0.481,0.201c0.113,0,0.209-0.014,0.287-0.041
	c0.076-0.027,0.145-0.056,0.201-0.086c0.057-0.029,0.107-0.059,0.152-0.086s0.09-0.041,0.135-0.041c0.055,0,0.1,0.014,0.135,0.041
	c0.034,0.027,0.072,0.068,0.111,0.123l0.553,0.896c-0.27,0.224-0.578,0.393-0.926,0.507
	C130.24,72.907,129.879,72.964,129.506,72.964z"/>
<path fill="#FFFFFF" stroke="#000000" stroke-miterlimit="10" d="M145.083,66.679c-0.05,0.08-0.103,0.136-0.157,0.168
	c-0.055,0.033-0.123,0.049-0.208,0.049c-0.09,0-0.186-0.024-0.288-0.074c-0.102-0.05-0.219-0.105-0.354-0.168
	s-0.287-0.118-0.459-0.168s-0.375-0.075-0.607-0.075c-0.363,0-0.648,0.077-0.855,0.231c-0.205,0.154-0.309,0.356-0.309,0.604
	c0,0.165,0.053,0.303,0.16,0.415c0.107,0.111,0.248,0.21,0.426,0.295c0.176,0.084,0.376,0.16,0.6,0.228
	c0.225,0.066,0.451,0.141,0.684,0.22c0.23,0.08,0.458,0.171,0.682,0.272c0.225,0.103,0.424,0.231,0.601,0.389
	c0.177,0.156,0.318,0.344,0.425,0.563c0.107,0.219,0.161,0.482,0.161,0.791c0,0.368-0.065,0.708-0.198,1.019
	c-0.131,0.312-0.326,0.58-0.585,0.807s-0.578,0.402-0.959,0.529c-0.38,0.127-0.819,0.19-1.316,0.19c-0.264,0-0.521-0.023-0.772-0.07
	c-0.251-0.048-0.492-0.113-0.724-0.198c-0.231-0.084-0.444-0.184-0.642-0.299c-0.196-0.114-0.369-0.238-0.519-0.373l0.425-0.701
	c0.055-0.085,0.12-0.149,0.195-0.194c0.074-0.045,0.168-0.067,0.283-0.067c0.113,0,0.223,0.032,0.324,0.098
	c0.102,0.064,0.221,0.134,0.354,0.209c0.134,0.074,0.292,0.144,0.474,0.209c0.182,0.064,0.411,0.097,0.689,0.097
	c0.219,0,0.407-0.026,0.563-0.078c0.157-0.053,0.286-0.121,0.388-0.206c0.103-0.084,0.177-0.183,0.225-0.294
	c0.047-0.112,0.07-0.229,0.07-0.348c0-0.179-0.053-0.326-0.16-0.44s-0.248-0.214-0.426-0.299c-0.176-0.084-0.377-0.16-0.604-0.228
	c-0.227-0.066-0.458-0.141-0.693-0.22c-0.236-0.08-0.469-0.173-0.694-0.28c-0.227-0.106-0.428-0.242-0.604-0.406
	c-0.176-0.165-0.318-0.366-0.426-0.604c-0.106-0.239-0.16-0.528-0.16-0.866c0-0.313,0.063-0.612,0.188-0.896
	c0.123-0.284,0.307-0.531,0.548-0.743c0.241-0.211,0.542-0.381,0.902-0.508s0.777-0.19,1.25-0.19c0.526,0,1.007,0.088,1.439,0.262
	s0.794,0.403,1.082,0.687L145.083,66.679z"/>
<path fill="#FFFFFF" stroke="#000000" stroke-miterlimit="10" d="M154.684,72.845h-1.842v-6.277h-3.551v4.15
	c0,0.238,0.059,0.425,0.175,0.56c0.116,0.134,0.277,0.201,0.481,0.201c0.114,0,0.21-0.014,0.287-0.041s0.145-0.056,0.201-0.086
	c0.057-0.029,0.108-0.059,0.153-0.086c0.044-0.027,0.089-0.041,0.134-0.041c0.055,0,0.1,0.014,0.135,0.041s0.072,0.068,0.111,0.123
	l0.553,0.896c-0.27,0.224-0.577,0.393-0.926,0.507c-0.348,0.115-0.709,0.172-1.082,0.172c-0.666,0-1.177-0.188-1.532-0.563
	c-0.356-0.375-0.534-0.895-0.534-1.556v-4.277h-0.783c-0.1,0-0.184-0.032-0.253-0.098c-0.069-0.064-0.104-0.161-0.104-0.291v-0.731
	l1.23-0.209l0.389-2.082c0.024-0.1,0.072-0.177,0.141-0.231c0.07-0.055,0.16-0.082,0.27-0.082h0.955v2.411h5.393V72.845z"/>
<path fill="#FFFFFF" stroke="#000000" stroke-miterlimit="10" d="M155.005,62.925c0,0.159-0.032,0.31-0.097,0.451
	s-0.15,0.266-0.258,0.37c-0.106,0.104-0.233,0.188-0.381,0.25c-0.146,0.062-0.301,0.093-0.465,0.093
	c-0.16,0-0.309-0.031-0.448-0.093c-0.14-0.063-0.261-0.146-0.366-0.25c-0.104-0.104-0.188-0.229-0.25-0.37
	c-0.062-0.142-0.093-0.292-0.093-0.451c0-0.164,0.031-0.317,0.093-0.459c0.063-0.142,0.146-0.267,0.25-0.373
	c0.105-0.107,0.227-0.192,0.366-0.254c0.14-0.063,0.288-0.094,0.448-0.094c0.164,0,0.318,0.031,0.465,0.094
	c0.147,0.062,0.274,0.146,0.381,0.254c0.107,0.106,0.193,0.231,0.258,0.373S155.005,62.761,155.005,62.925z"/>
<path fill="#FFFFFF" stroke="#000000" stroke-miterlimit="10" d="M158.28,66.127c0.153-0.154,0.317-0.298,0.489-0.43
	c0.171-0.132,0.353-0.243,0.544-0.336c0.191-0.092,0.396-0.164,0.615-0.216c0.219-0.053,0.458-0.079,0.716-0.079
	c0.418,0,0.789,0.071,1.112,0.213c0.323,0.143,0.593,0.341,0.81,0.598c0.216,0.256,0.381,0.563,0.492,0.918s0.168,0.748,0.168,1.176
	v4.874h-1.843v-4.874c0-0.468-0.106-0.83-0.321-1.086c-0.213-0.257-0.539-0.385-0.977-0.385c-0.318,0-0.617,0.072-0.896,0.217
	s-0.542,0.341-0.791,0.59v5.538h-1.843v-7.658h1.127c0.238,0,0.395,0.111,0.47,0.336L158.28,66.127z"/>
<rect x="172.559" y="61.753" fill="#FFFFFF" stroke="#000000" stroke-miterlimit="10" width="1.844" height="11.092"/>
<path fill="#FFFFFF" stroke="#000000" stroke-miterlimit="10" d="M216.008,66.679c-0.05,0.08-0.103,0.136-0.157,0.168
	c-0.055,0.033-0.124,0.049-0.209,0.049c-0.089,0-0.186-0.024-0.287-0.074s-0.22-0.105-0.354-0.168
	c-0.134-0.063-0.287-0.118-0.459-0.168c-0.171-0.05-0.374-0.075-0.607-0.075c-0.363,0-0.648,0.077-0.854,0.231
	s-0.31,0.356-0.31,0.604c0,0.165,0.054,0.303,0.16,0.415c0.107,0.111,0.249,0.21,0.426,0.295c0.176,0.084,0.377,0.16,0.601,0.228
	c0.224,0.066,0.451,0.141,0.683,0.22c0.231,0.08,0.459,0.171,0.683,0.272c0.224,0.103,0.424,0.231,0.601,0.389
	c0.176,0.156,0.318,0.344,0.425,0.563c0.107,0.219,0.16,0.482,0.16,0.791c0,0.368-0.065,0.708-0.197,1.019
	c-0.132,0.312-0.327,0.58-0.586,0.807s-0.578,0.402-0.958,0.529c-0.381,0.127-0.82,0.19-1.317,0.19c-0.264,0-0.521-0.023-0.771-0.07
	c-0.252-0.048-0.493-0.113-0.724-0.198c-0.231-0.084-0.445-0.184-0.642-0.299c-0.197-0.114-0.37-0.238-0.519-0.373l0.425-0.701
	c0.055-0.085,0.119-0.149,0.194-0.194c0.074-0.045,0.169-0.067,0.283-0.067s0.223,0.032,0.324,0.098
	c0.103,0.064,0.221,0.134,0.354,0.209c0.135,0.074,0.292,0.144,0.474,0.209c0.182,0.064,0.412,0.097,0.69,0.097
	c0.219,0,0.406-0.026,0.563-0.078c0.156-0.053,0.285-0.121,0.388-0.206c0.102-0.084,0.177-0.183,0.224-0.294
	c0.047-0.112,0.071-0.229,0.071-0.348c0-0.179-0.054-0.326-0.161-0.44c-0.106-0.114-0.248-0.214-0.425-0.299
	c-0.177-0.084-0.378-0.16-0.604-0.228c-0.227-0.066-0.457-0.141-0.693-0.22c-0.236-0.08-0.468-0.173-0.694-0.28
	c-0.226-0.106-0.428-0.242-0.604-0.406c-0.177-0.165-0.318-0.366-0.426-0.604c-0.106-0.239-0.16-0.528-0.16-0.866
	c0-0.313,0.062-0.612,0.187-0.896c0.124-0.284,0.307-0.531,0.548-0.743c0.241-0.211,0.542-0.381,0.903-0.508
	c0.36-0.127,0.776-0.19,1.249-0.19c0.527,0,1.008,0.088,1.44,0.262s0.793,0.403,1.081,0.687L216.008,66.679z"/>
<path fill="#FFFFFF" stroke="#000000" stroke-miterlimit="10" d="M228.525,62.954c0,0.16-0.032,0.309-0.097,0.448
	c-0.065,0.14-0.15,0.262-0.258,0.366c-0.106,0.104-0.232,0.188-0.377,0.25c-0.144,0.062-0.298,0.093-0.462,0.093
	c-0.159,0-0.31-0.031-0.451-0.093c-0.143-0.063-0.266-0.146-0.37-0.25s-0.188-0.227-0.249-0.366
	c-0.063-0.14-0.094-0.288-0.094-0.448c0-0.164,0.031-0.318,0.094-0.462c0.062-0.145,0.145-0.27,0.249-0.374s0.228-0.188,0.37-0.25
	c0.142-0.062,0.292-0.093,0.451-0.093c0.164,0,0.318,0.031,0.462,0.093c0.145,0.063,0.271,0.146,0.377,0.25
	c0.107,0.104,0.192,0.229,0.258,0.374C228.493,62.636,228.525,62.79,228.525,62.954z"/>
<rect x="226.422" y="65.187" fill="#FFFFFF" stroke="#000000" stroke-miterlimit="10" width="1.85" height="7.658"/>
<path fill="#FFFFFF" stroke="#000000" stroke-miterlimit="10" d="M231.89,66.515c0.239-0.457,0.522-0.817,0.851-1.078
	c0.328-0.262,0.717-0.392,1.164-0.392c0.353,0,0.637,0.077,0.851,0.231l-0.12,1.381c-0.024,0.089-0.061,0.152-0.107,0.189
	c-0.048,0.038-0.111,0.057-0.19,0.057c-0.074,0-0.186-0.013-0.332-0.037c-0.146-0.025-0.29-0.038-0.429-0.038
	c-0.204,0-0.386,0.03-0.545,0.09s-0.302,0.146-0.429,0.258c-0.127,0.111-0.239,0.247-0.336,0.406s-0.188,0.341-0.272,0.545v4.718
	h-1.843v-7.658h1.082c0.188,0,0.321,0.033,0.396,0.101s0.124,0.188,0.149,0.362L231.89,66.515z"/>
<path fill="#FFFFFF" stroke="#000000" stroke-miterlimit="10" d="M245.639,72.964c-0.666,0-1.177-0.188-1.532-0.563
	c-0.356-0.375-0.534-0.895-0.534-1.556v-4.277h-0.783c-0.1,0-0.184-0.032-0.253-0.098c-0.07-0.064-0.104-0.161-0.104-0.291v-0.731
	l1.23-0.201l0.388-2.09c0.025-0.1,0.072-0.177,0.142-0.231c0.07-0.055,0.159-0.082,0.269-0.082h0.955v2.411h2.044v1.313h-2.044v4.15
	c0,0.238,0.059,0.425,0.176,0.56c0.116,0.134,0.277,0.201,0.481,0.201c0.114,0,0.21-0.014,0.287-0.041s0.144-0.056,0.201-0.086
	c0.057-0.029,0.108-0.059,0.153-0.086c0.044-0.027,0.089-0.041,0.134-0.041c0.055,0,0.1,0.014,0.135,0.041
	c0.034,0.027,0.071,0.068,0.111,0.123l0.552,0.896c-0.269,0.224-0.576,0.393-0.925,0.507
	C246.373,72.907,246.012,72.964,245.639,72.964z"/>
<path fill="#FFFFFF" stroke="#000000" stroke-miterlimit="10" d="M86.372,65.877c-0.244-0.262-0.542-0.466-0.896-0.612
	c-0.353-0.146-0.753-0.22-1.201-0.22c-1.239,0-2.298,0.402-3.178,1.209l0.328,0.59c0.055,0.089,0.127,0.168,0.216,0.234
	c0.09,0.067,0.199,0.102,0.329,0.102c0.149,0,0.285-0.035,0.406-0.104c0.122-0.07,0.257-0.148,0.407-0.235s0.322-0.166,0.519-0.235
	c0.196-0.069,0.444-0.104,0.742-0.104c0.413,0,0.318,0.123,0.537,0.369c0.219,0.247-0.081,0.626-0.081,1.139v0.448
	c0,0.015-0.689,0.059-1.142,0.13c-0.453,0.072-0.645,0.166-0.985,0.28c-0.341,0.114-0.525,0.249-0.759,0.403
	s-0.373,0.318-0.52,0.492c-0.146,0.175-0.227,0.357-0.291,0.549c-0.065,0.191-0.084,0.385-0.084,0.578
	c0,0.344,0.061,0.645,0.17,0.903s0.267,0.476,0.466,0.649c0.199,0.175,0.437,0.305,0.71,0.393c0.273,0.087,0.572,0.13,0.896,0.13
	c0.273,0,0.524-0.023,0.75-0.07c0.226-0.048,0.439-0.116,0.638-0.206c0.199-0.089,0.391-0.2,0.575-0.332s0.373-0.284,0.567-0.459
	l0.164,0.553c0.055,0.159,0.129,0.592,0.224,0.645c0.094,0.053,0.229,0.406,0.403,0.406H86.5v-5.492
	c0-0.433,0.245-0.831,0.118-1.194S86.615,66.138,86.372,65.877z M84.5,70.866c0,0.279-0.124,0.487-0.399,0.624
	c-0.276,0.137-0.398,0.205-0.776,0.205c-0.309,0-0.456-0.069-0.647-0.209s-0.236-0.371-0.236-0.694c0-0.164,0.073-0.316,0.167-0.455
	c0.095-0.14,0.264-0.262,0.483-0.366s0.106-0.19,0.469-0.257c0.363-0.067,0.94-0.113,0.94-0.139V70.866z"/>
<path fill="#FFFFFF" stroke="#000000" stroke-miterlimit="10" d="M112.417,66.127c-0.331-0.339-0.729-0.6-1.193-0.784
	c-0.466-0.184-0.981-0.276-1.548-0.276c-0.572,0-1.092,0.093-1.56,0.276c-0.468,0.185-0.866,0.445-1.197,0.784
	c-0.331,0.338-0.587,0.751-0.769,1.239c-0.182,0.487-0.271,1.032-0.271,1.635c0,0.606,0.09,1.154,0.271,1.642
	c0.182,0.488,0.438,0.903,0.769,1.247c0.331,0.343,0.729,0.606,1.197,0.791c0.468,0.184,0.987,0.276,1.56,0.276
	c0.566,0,1.082-0.093,1.548-0.276c0.465-0.185,0.862-0.448,1.193-0.791c0.331-0.344,0.586-0.759,0.765-1.247
	c0.18-0.487,0.269-1.035,0.269-1.642c0-0.603-0.089-1.147-0.269-1.635C113.003,66.878,112.748,66.465,112.417,66.127z
	 M111.09,70.896c-0.307,0.428-0.777,0.642-1.414,0.642c-0.646,0-1.125-0.215-1.437-0.646c-0.311-0.43-0.466-1.056-0.466-1.877
	s0.155-1.449,0.466-1.885c0.312-0.436,0.79-0.653,1.437-0.653c0.637,0,1.107,0.217,1.414,0.649c0.305,0.433,0.458,1.063,0.458,1.889
	S111.395,70.469,111.09,70.896z"/>
<path fill="#FFFFFF" stroke="#000000" stroke-miterlimit="10" d="M138.943,69.229c0.06-0.098,0.09-0.349,0.09-0.627
	c0-0.553-0.084-1.076-0.25-1.506c-0.167-0.431-0.396-0.81-0.69-1.106s-0.644-0.529-1.052-0.684
	c-0.408-0.153-0.854-0.235-1.336-0.235c-0.571,0-1.085,0.098-1.54,0.297s-0.841,0.469-1.156,0.81s-0.558,0.741-0.728,1.201
	c-0.169,0.461-0.254,0.952-0.254,1.475c0,0.671,0.098,1.262,0.291,1.772c0.194,0.51,0.461,0.938,0.799,1.284
	s0.736,0.606,1.193,0.783s0.953,0.266,1.484,0.266c0.27,0,0.546-0.021,0.832-0.061c0.286-0.039,0.566-0.107,0.844-0.205
	c0.275-0.097,0.54-0.227,0.794-0.388c0.253-0.162,0.482-0.362,0.687-0.601l-0.529-0.672c-0.075-0.115-0.189-0.172-0.344-0.172
	c-0.115,0-0.232,0.035-0.354,0.104s-0.264,0.146-0.425,0.231c-0.162,0.084-0.352,0.161-0.567,0.231
	c-0.216,0.069-0.474,0.104-0.772,0.104c-0.298,0-0.57-0.046-0.816-0.139c-0.246-0.092-0.459-0.231-0.639-0.418
	c-0.178-0.187-0.322-0.297-0.432-0.582c-0.109-0.287-0.18,0.107-0.209-0.893h4.736C138.77,69.5,138.884,69.324,138.943,69.229z
	 M133.9,68.5c0.084,0,0.279-1.17,0.586-1.474c0.306-0.304,0.725-0.547,1.257-0.547c0.273,0,0.513,0.001,0.72,0.093
	s0.377,0.195,0.512,0.354c0.134,0.159,0.234,0.516,0.301,0.727c0.068,0.212,0.102,0.847,0.102,0.847H133.9z"/>
<path fill="#FFFFFF" stroke="#000000" stroke-miterlimit="10" d="M170.067,65.877c-0.244-0.262-0.542-0.466-0.896-0.612
	s-0.754-0.22-1.201-0.22c-1.238,0-2.297,0.402-3.178,1.209l0.328,0.59c0.055,0.089,0.127,0.168,0.217,0.234
	c0.089,0.067,0.198,0.102,0.328,0.102c0.148,0,0.284-0.035,0.406-0.104c0.122-0.07,0.258-0.148,0.406-0.235
	c0.149-0.087,0.322-0.166,0.52-0.235c0.195-0.069,0.443-0.104,0.742-0.104c0.412,0,0.471,0.123,0.689,0.369
	c0.219,0.247,0.07,0.626,0.07,1.139v0.448c-1,0.015-0.842,0.059-1.294,0.13c-0.452,0.072-0.721,0.166-1.062,0.28
	c-0.34,0.114-0.563,0.249-0.797,0.403s-0.392,0.318-0.538,0.492c-0.146,0.175-0.237,0.357-0.301,0.549
	c-0.065,0.191-0.088,0.385-0.088,0.578c0,0.344,0.059,0.645,0.168,0.903s0.266,0.476,0.465,0.649
	c0.198,0.175,0.436,0.305,0.709,0.393c0.273,0.087,0.572,0.13,0.896,0.13c0.273,0,0.524-0.023,0.75-0.07
	c0.226-0.048,0.438-0.116,0.637-0.206c0.199-0.089,0.391-0.2,0.575-0.332c0.184-0.132,0.373-0.284,0.567-0.459l0.164,0.553
	c0.055,0.159,0.129,0.592,0.223,0.645c0.096,0.053,0.229,0.406,0.403,0.406h0.522v-5.492c0-0.433,0.093-0.831-0.034-1.194
	S170.311,66.138,170.067,65.877z M168.5,70.866c0,0.279-0.275,0.487-0.552,0.624s-0.474,0.205-0.853,0.205
	c-0.309,0-0.494-0.069-0.686-0.209s-0.255-0.371-0.255-0.694c0-0.164,0.064-0.316,0.159-0.455c0.094-0.14,0.258-0.262,0.478-0.366
	c0.219-0.104,0.256-0.19,0.618-0.257c0.363-0.067,0.09-0.113,1.09-0.139V70.866z"/>
<path fill="#FFFFFF" stroke="#000000" stroke-miterlimit="10" d="M188.232,69.116c0.185-0.598,0.279-0.616,0.283-1.616h-1.148
	c-0.114,0-0.203-0.23-0.268-0.16c-0.065,0.069-0.105,0.029-0.12,0.143c-0.03,0.358-0.095,0.646-0.194,0.995
	c-0.1,0.348-0.23,0.646-0.395,0.959l-2.865-2.994c-0.164-0.17-0.303-0.335-0.414-0.483c-0.111-0.146-0.203-0.294-0.271-0.433
	c-0.07-0.14-0.12-0.281-0.15-0.42c-0.029-0.14-0.045-0.285-0.045-0.435c0-0.179,0.03-0.35,0.09-0.511
	c0.061-0.162,0.146-0.304,0.258-0.426s0.25-0.219,0.414-0.291s0.351-0.108,0.56-0.108c0.174,0,0.328,0.026,0.462,0.078
	c0.135,0.053,0.252,0.122,0.352,0.209c0.1,0.088,0.185,0.189,0.257,0.307s0.13,0.24,0.175,0.369c0.1,0.234,0.26,0.329,0.479,0.284
	l1.171-0.247c-0.024-0.308-0.108-0.606-0.25-0.896c-0.142-0.288-0.336-0.545-0.582-0.769s-0.542-0.403-0.888-0.537
	c-0.346-0.135-0.737-0.202-1.175-0.202c-0.478,0-0.905,0.073-1.283,0.221c-0.378,0.146-0.696,0.345-0.955,0.593
	c-0.259,0.249-0.456,0.542-0.593,0.877c-0.137,0.336-0.205,0.691-0.205,1.064c0,0.354,0.059,0.708,0.179,1.063
	c0.119,0.355,0.313,0.72,0.582,1.094c-0.318,0.149-0.612,0.327-0.88,0.533c-0.27,0.207-0.5,0.439-0.694,0.698
	s-0.346,0.538-0.455,0.84c-0.109,0.301-0.164,0.62-0.164,0.959c0,0.478,0.096,0.907,0.287,1.287
	c0.191,0.381,0.444,0.706,0.757,0.975c0.313,0.269,0.67,0.474,1.07,0.615c0.4,0.143,0.808,0.213,1.221,0.213
	c0.682,0,1.314-0.109,1.902-0.328c0.586-0.219,1.116-0.522,1.589-0.911l0.745,0.77c0.13,0.145,0.253,0.566,0.37,0.611
	c0.116,0.045,0.27,0.395,0.458,0.395h1.807l-2.262-2.539C187.785,70.458,188.049,69.713,188.232,69.116z M184.361,71.288
	c-0.363,0.138-0.764,0.206-1.201,0.206c-0.244,0-0.475-0.042-0.69-0.124s-0.405-0.198-0.567-0.351
	c-0.161-0.151-0.289-0.337-0.384-0.556s-0.142-0.466-0.142-0.739c0-0.373,0.091-0.723,0.272-1.049
	c0.181-0.326,0.472-0.618,0.869-0.877l2.827,2.919C185.053,70.961,184.725,71.151,184.361,71.288z"/>
<path fill="#FFFFFF" stroke="#000000" stroke-miterlimit="10" d="M200.289,69.186c-0.09-0.139-0.189-0.462-0.299-0.563
	c-0.109-0.103-0.229-0.253-0.358-0.328c0.378-0.114,0.715-0.302,1.011-0.501s0.545-0.446,0.746-0.71
	c0.202-0.264,0.355-0.565,0.463-0.889c0.106-0.323,0.16-0.671,0.16-1.034c0-0.458-0.079-0.879-0.238-1.26s-0.407-0.709-0.742-0.982
	c-0.336-0.273-0.767-0.263-1.291-0.414c-0.524-0.152-1.152-0.004-1.884-0.004H194.5v11h2v-4h0.932c0.198,0,0.349-0.409,0.451-0.354
	c0.102,0.056,0.195-0.071,0.279,0.058l2.269,3.675c0.153,0.269,0.402,0.622,0.746,0.622h1.813L200.289,69.186z M198.815,67.202
	c-0.281,0.095-0.61,0.298-0.988,0.298H196.5v-3h1.356c0.741,0,1.292-0.301,1.652-0.008c0.36,0.294,0.541,0.491,0.541,1.038
	c0,0.273-0.045,0.414-0.134,0.642c-0.09,0.229-0.226,0.449-0.407,0.616S199.096,67.107,198.815,67.202z"/>
<path fill="#FFFFFF" stroke="#000000" stroke-miterlimit="10" d="M209.867,69.229c0.061-0.098,0.09-0.349,0.09-0.627
	c0-0.553-0.083-1.076-0.25-1.506c-0.166-0.431-0.396-0.81-0.689-1.106c-0.294-0.296-0.645-0.529-1.053-0.684
	c-0.407-0.153-0.853-0.235-1.335-0.235c-0.572,0-1.085,0.098-1.54,0.297s-0.841,0.469-1.157,0.81
	c-0.315,0.341-0.558,0.741-0.727,1.201c-0.17,0.461-0.254,0.952-0.254,1.475c0,0.671,0.097,1.262,0.291,1.772
	c0.193,0.51,0.46,0.938,0.798,1.284s0.736,0.606,1.193,0.783c0.458,0.177,0.953,0.266,1.485,0.266c0.269,0,0.546-0.021,0.831-0.061
	c0.286-0.039,0.567-0.107,0.844-0.205c0.275-0.097,0.541-0.227,0.794-0.388c0.254-0.162,0.482-0.362,0.687-0.601l-0.529-0.672
	c-0.075-0.115-0.189-0.172-0.344-0.172c-0.114,0-0.232,0.035-0.354,0.104c-0.121,0.069-0.264,0.146-0.425,0.231
	c-0.162,0.084-0.351,0.161-0.567,0.231c-0.216,0.069-0.474,0.104-0.771,0.104c-0.299,0-0.571-0.046-0.817-0.139
	c-0.246-0.092-0.459-0.231-0.638-0.418s-0.323-0.297-0.433-0.582c-0.109-0.287-0.179,0.107-0.209-0.893h4.737
	C209.693,69.5,209.808,69.324,209.867,69.229z M204.824,68.5c0.085,0,0.28-1.17,0.586-1.474s0.725-0.547,1.257-0.547
	c0.273,0,0.514,0.001,0.72,0.093c0.207,0.092,0.377,0.195,0.512,0.354c0.134,0.159,0.234,0.516,0.302,0.727
	c0.067,0.212,0.101,0.847,0.101,0.847H204.824z"/>
<path fill="#FFFFFF" stroke="#000000" stroke-miterlimit="10" d="M224.143,66.063c-0.251-0.331-0.55-0.583-0.896-0.758
	c-0.346-0.174-0.727-0.261-1.145-0.261c-0.537,0-1.005,0.109-1.402,0.328c-0.398,0.219-0.754,0.505-1.067,0.858l-0.149-0.552
	c-0.074-0.225-0.23-0.179-0.47-0.179H217.5v10h2v-3.29c0,0.234,0.625,0.417,0.928,0.549c0.305,0.132,0.727,0.198,1.154,0.198
	c0.502,0,0.985-0.102,1.391-0.303s0.765-0.481,1.051-0.84s0.514-0.781,0.668-1.269c0.154-0.488,0.234-1.018,0.234-1.59
	c0-0.627-0.066-1.184-0.203-1.669C224.586,66.803,224.394,66.395,224.143,66.063z M222.9,70.109
	c-0.085,0.325-0.205,0.596-0.361,0.81c-0.157,0.214-0.348,0.373-0.571,0.478s-0.475,0.157-0.753,0.157
	c-0.289,0-0.67-0.053-0.918-0.157c-0.246-0.104-0.797-0.283-0.797-0.537v-3.434c0-0.294,0.607-0.521,0.877-0.684
	c0.268-0.161,0.65-0.242,1.033-0.242c0.244,0,0.491,0.045,0.683,0.135c0.191,0.089,0.368,0.231,0.502,0.425
	c0.135,0.194,0.245,0.447,0.317,0.758c0.072,0.312,0.111,0.69,0.111,1.139C223.023,69.398,222.985,69.783,222.9,70.109z"/>
<path fill="#FFFFFF" stroke="#000000" stroke-miterlimit="10" d="M240.714,65.877c-0.244-0.262-0.542-0.466-0.896-0.612
	s-0.753-0.22-1.201-0.22c-1.238,0-2.298,0.402-3.178,1.209l0.328,0.59c0.055,0.089,0.127,0.168,0.217,0.234
	c0.089,0.067,0.198,0.102,0.328,0.102c0.148,0,0.284-0.035,0.406-0.104c0.122-0.07,0.258-0.148,0.406-0.235
	c0.149-0.087,0.322-0.166,0.519-0.235s0.444-0.104,0.742-0.104c0.413,0,0.647,0.123,0.867,0.369
	c0.219,0.247,0.247,0.626,0.247,1.139v0.448c-1,0.015-1.019,0.059-1.471,0.13c-0.453,0.072-0.809,0.166-1.15,0.28
	c-0.34,0.114-0.607,0.249-0.841,0.403s-0.413,0.318-0.56,0.492c-0.147,0.175-0.248,0.357-0.313,0.549s-0.095,0.385-0.095,0.578
	c0,0.344,0.057,0.645,0.166,0.903s0.264,0.476,0.462,0.649c0.199,0.175,0.437,0.305,0.71,0.393c0.273,0.087,0.571,0.13,0.896,0.13
	c0.273,0,0.523-0.023,0.749-0.07c0.227-0.048,0.439-0.116,0.639-0.206c0.198-0.089,0.39-0.2,0.574-0.332
	c0.184-0.132,0.373-0.284,0.566-0.459l0.165,0.553c0.054,0.159,0.129,0.592,0.224,0.645c0.094,0.053,0.229,0.406,0.402,0.406H240.5
	v-5.492c0-0.433,0.416-0.831,0.289-1.194S240.957,66.138,240.714,65.877z M239.5,70.866c-1,0.279-0.452,0.487-0.729,0.624
	s-0.563,0.205-0.941,0.205c-0.309,0-0.537-0.069-0.729-0.209c-0.192-0.14-0.277-0.371-0.277-0.694c0-0.164,0.053-0.316,0.147-0.455
	c0.094-0.14,0.253-0.262,0.472-0.366s0.431-0.19,0.794-0.257c0.362-0.067,0.263-0.113,1.263-0.139V70.866z"/>
<path fill="#FFFFFF" stroke="#000000" stroke-miterlimit="10" d="M255.47,67.366c-0.179-0.488-0.434-0.901-0.765-1.239
	c-0.33-0.339-0.729-0.6-1.193-0.784c-0.465-0.184-0.981-0.276-1.548-0.276c-0.572,0-1.092,0.093-1.56,0.276
	c-0.468,0.185-0.866,0.445-1.197,0.784c-0.331,0.338-0.587,0.751-0.769,1.239c-0.182,0.487-0.272,1.032-0.272,1.635
	c0,0.606,0.091,1.154,0.272,1.642c0.182,0.488,0.438,0.903,0.769,1.247c0.331,0.343,0.729,0.606,1.197,0.791
	c0.468,0.184,0.987,0.276,1.56,0.276c0.566,0,1.083-0.093,1.548-0.276c0.465-0.185,0.863-0.448,1.193-0.791
	c0.331-0.344,0.586-0.759,0.765-1.247c0.18-0.487,0.269-1.035,0.269-1.642C255.738,68.398,255.649,67.854,255.47,67.366z
	 M253.377,70.896c-0.306,0.428-0.776,0.642-1.413,0.642c-0.646,0-1.125-0.215-1.437-0.646c-0.311-0.43-0.466-1.056-0.466-1.877
	s0.155-1.449,0.466-1.885c0.312-0.436,0.79-0.653,1.437-0.653c0.637,0,1.107,0.217,1.413,0.649c0.307,0.433,0.459,1.063,0.459,1.889
	S253.684,70.469,253.377,70.896z"/>
<path fill="#FFFFFF" stroke="#000000" stroke-miterlimit="10" d="M258.88,66.515c0.238-0.457,0.521-0.817,0.85-1.078
	c0.329-0.262,0.717-0.392,1.164-0.392c0.354,0,0.637,0.077,0.851,0.231l-0.119,1.381c-0.025,0.089-0.062,0.152-0.108,0.189
	c-0.047,0.038-0.11,0.057-0.19,0.057c-0.074,0-0.186-0.013-0.332-0.037c-0.146-0.025-0.289-0.038-0.429-0.038
	c-0.204,0-0.386,0.03-0.545,0.09s-0.302,0.146-0.429,0.258c-0.127,0.111-0.238,0.247-0.336,0.406
	c-0.097,0.159-0.188,0.341-0.272,0.545v4.718h-1.842v-7.658h1.081c0.189,0,0.321,0.033,0.396,0.101
	c0.075,0.067,0.124,0.188,0.149,0.362L258.88,66.515z"/>
<path fill="#FFFFFF" stroke="#000000" stroke-miterlimit="10" d="M269.659,65.187l-4.17,9.763c-0.055,0.13-0.126,0.229-0.213,0.295
	c-0.087,0.067-0.22,0.102-0.399,0.102h-1.372l1.433-3.076l-3.097-7.083h1.619c0.145,0,0.258,0.035,0.34,0.104
	s0.143,0.149,0.183,0.238l1.626,3.972c0.055,0.134,0.101,0.269,0.138,0.402c0.038,0.135,0.074,0.271,0.108,0.411
	c0.045-0.14,0.09-0.277,0.135-0.414s0.094-0.272,0.149-0.407l1.536-3.964c0.04-0.099,0.105-0.182,0.198-0.246
	c0.092-0.064,0.194-0.097,0.31-0.097H269.659z"/>
<path fill="#FFFFFF" stroke="#000000" stroke-miterlimit="10" d="M136.594,40.721v12.64c-1.584,1.167-3.271,2.021-5.064,2.561
	s-3.711,0.811-5.755,0.811c-2.548,0-4.855-0.396-6.921-1.188c-2.066-0.792-3.83-1.894-5.291-3.306
	c-1.461-1.412-2.588-3.097-3.379-5.057c-0.792-1.958-1.188-4.098-1.188-6.417c0-2.348,0.381-4.501,1.145-6.46
	s1.846-3.644,3.25-5.056c1.404-1.412,3.106-2.506,5.107-3.284c2.001-0.778,4.247-1.167,6.738-1.167c1.267,0,2.451,0.101,3.552,0.303
	c1.102,0.202,2.124,0.479,3.066,0.832s1.803,0.781,2.581,1.286c0.777,0.504,1.49,1.059,2.138,1.664l-1.663,2.636
	c-0.259,0.418-0.598,0.673-1.015,0.767c-0.418,0.094-0.871-0.011-1.36-0.313c-0.475-0.273-0.95-0.547-1.425-0.821
	c-0.475-0.273-1.004-0.511-1.587-0.713s-1.238-0.367-1.965-0.497c-0.727-0.129-1.565-0.194-2.516-0.194
	c-1.541,0-2.934,0.259-4.179,0.778c-1.246,0.519-2.308,1.261-3.186,2.226c-0.878,0.965-1.555,2.125-2.03,3.479
	c-0.475,1.354-0.713,2.867-0.713,4.538c0,1.786,0.256,3.382,0.767,4.786c0.511,1.404,1.23,2.593,2.159,3.565
	c0.929,0.972,2.048,1.714,3.358,2.226c1.31,0.511,2.771,0.767,4.384,0.767c1.151,0,2.181-0.122,3.088-0.367
	c0.907-0.245,1.792-0.576,2.656-0.994v-5.661h-3.93c-0.375,0-0.666-0.104-0.875-0.313c-0.209-0.208-0.313-0.464-0.313-0.767v-3.284
	H136.594z"/>
<path fill="#FFFFFF" stroke="#000000" stroke-miterlimit="10" d="M148.04,56.386h-5.831V25.142h5.831V56.386z"/>
<path fill="#FFFFFF" stroke="#000000" stroke-miterlimit="10" d="M193.152,56.386h-5.227c-0.547,0-0.99-0.064-1.328-0.194
	s-0.695-0.403-1.068-0.821l-2.16-2.226c-1.367,1.124-2.901,2.003-4.6,2.636c-1.699,0.634-3.535,0.951-5.507,0.951
	c-1.195,0-2.372-0.205-3.531-0.616c-1.159-0.41-2.192-1.004-3.099-1.782c-0.907-0.777-1.638-1.718-2.192-2.819
	c-0.554-1.103-0.831-2.345-0.831-3.728c0-0.979,0.158-1.905,0.475-2.776c0.316-0.871,0.756-1.682,1.317-2.431
	c0.562-0.749,1.231-1.423,2.009-2.021c0.777-0.598,1.626-1.113,2.548-1.545c-0.777-1.081-1.339-2.135-1.684-3.166
	c-0.346-1.03-0.519-2.056-0.519-3.079c0-1.08,0.198-2.106,0.594-3.079c0.396-0.972,0.968-1.818,1.717-2.539s1.67-1.293,2.765-1.718
	c1.094-0.425,2.332-0.638,3.714-0.638c1.267,0,2.4,0.195,3.401,0.583c1,0.389,1.857,0.908,2.569,1.556
	c0.713,0.648,1.275,1.391,1.686,2.226c0.41,0.835,0.65,1.7,0.723,2.593l-3.39,0.713c-0.634,0.129-1.094-0.144-1.382-0.821
	c-0.13-0.375-0.299-0.731-0.508-1.069c-0.209-0.338-0.457-0.634-0.745-0.886c-0.288-0.251-0.626-0.454-1.015-0.605
	c-0.389-0.151-0.835-0.227-1.339-0.227c-0.605,0-1.145,0.104-1.62,0.313c-0.475,0.209-0.875,0.49-1.199,0.843
	c-0.324,0.353-0.572,0.764-0.745,1.231c-0.173,0.468-0.259,0.962-0.259,1.48c0,0.432,0.043,0.85,0.13,1.253
	c0.086,0.404,0.23,0.807,0.432,1.21c0.202,0.404,0.464,0.818,0.789,1.243c0.324,0.425,0.723,0.882,1.198,1.372l8.292,8.621
	c0.476-0.907,0.856-1.865,1.145-2.874c0.288-1.008,0.476-2.03,0.562-3.068c0.043-0.33,0.158-0.598,0.346-0.799
	c0.188-0.202,0.446-0.303,0.777-0.303h3.326c-0.016,1.901-0.289,3.717-0.821,5.445s-1.296,3.32-2.289,4.775L193.152,56.386z
	 M172.356,41.779c-1.152,0.749-1.991,1.596-2.516,2.539c-0.526,0.943-0.788,1.955-0.788,3.035c0,0.793,0.137,1.506,0.41,2.14
	s0.644,1.17,1.112,1.609c0.468,0.439,1.015,0.778,1.641,1.016c0.626,0.238,1.292,0.356,1.998,0.356c1.267,0,2.426-0.197,3.477-0.594
	c1.051-0.396,2.001-0.947,2.851-1.653L172.356,41.779z"/>
<path fill="#FFFFFF" stroke="#000000" stroke-miterlimit="10" d="M231.634,56.386h-5.247c-0.993,0-1.714-0.389-2.159-1.167
	l-6.565-10.004c-0.245-0.374-0.515-0.641-0.81-0.8c-0.296-0.158-0.731-0.237-1.307-0.237h-2.483v12.208h-5.81V25.142h9.523
	c2.116,0,3.934,0.22,5.453,0.659c1.519,0.439,2.765,1.055,3.736,1.848c0.972,0.792,1.688,1.739,2.148,2.841
	c0.461,1.102,0.691,2.315,0.691,3.641c0,1.052-0.155,2.045-0.465,2.982s-0.756,1.786-1.339,2.549
	c-0.583,0.764-1.303,1.434-2.159,2.009c-0.857,0.577-1.832,1.03-2.927,1.361c0.375,0.217,0.72,0.473,1.037,0.768
	c0.316,0.295,0.604,0.645,0.863,1.048L231.634,56.386z M216.69,40.008c1.094,0,2.048-0.137,2.861-0.411s1.482-0.652,2.008-1.135
	c0.525-0.482,0.918-1.055,1.178-1.718c0.259-0.662,0.389-1.39,0.389-2.182c0-1.584-0.522-2.801-1.566-3.651
	s-2.638-1.275-4.783-1.275h-3.714v10.372H216.69z"/>
<g>
</g>
<g>
</g>
<g>
</g>
<g>
</g>
<g>
</g>
<g>
</g>
<g>
</g>
<g>
</g>
<g>
</g>
<g>
</g>
<g>
</g>
<g>
</g>
<g>
</g>
<g>
</g>
<g>
</g>
</svg>
