<?xml version="1.0" encoding="utf-8"?>
<!-- Generator: Adobe Illustrator 16.0.0, SVG Export Plug-In . SVG Version: 6.00 Build 0)  -->
<!DOCTYPE svg PUBLIC "-//W3C//DTD SVG 1.1//EN" "http://www.w3.org/Graphics/SVG/1.1/DTD/svg11.dtd">
<svg version="1.1" id="레이어_1" xmlns="http://www.w3.org/2000/svg" xmlns:xlink="http://www.w3.org/1999/xlink" x="0px"
	 y="0px" width="362px" height="136px" viewBox="0 0 362 136" enable-background="new 0 0 362 136" xml:space="preserve">
<path fill="#FFFFFF" stroke="#000000" stroke-miterlimit="10" d="M130.997,67.434V71.8c-0.547,0.403-1.131,0.698-1.75,0.885
	c-0.62,0.186-1.283,0.279-1.989,0.279c-0.881,0-1.678-0.137-2.393-0.41c-0.714-0.273-1.323-0.654-1.828-1.143
	c-0.505-0.487-0.895-1.069-1.168-1.746c-0.274-0.677-0.411-1.416-0.411-2.217c0-0.812,0.132-1.556,0.396-2.232
	c0.264-0.677,0.638-1.259,1.123-1.746s1.074-0.866,1.765-1.135c0.692-0.269,1.468-0.403,2.329-0.403
	c0.438,0,0.847,0.035,1.228,0.104c0.381,0.07,0.734,0.166,1.06,0.288c0.326,0.122,0.623,0.27,0.891,0.443
	c0.269,0.175,0.516,0.366,0.74,0.575l-0.575,0.91c-0.09,0.145-0.207,0.233-0.351,0.266c-0.145,0.032-0.301-0.004-0.47-0.108
	c-0.164-0.095-0.328-0.189-0.493-0.284c-0.164-0.094-0.347-0.176-0.548-0.246c-0.202-0.069-0.429-0.127-0.68-0.172
	c-0.251-0.044-0.541-0.066-0.869-0.066c-0.533,0-1.014,0.089-1.444,0.269c-0.431,0.179-0.798,0.436-1.102,0.769
	c-0.303,0.334-0.537,0.734-0.701,1.202c-0.164,0.468-0.246,0.991-0.246,1.567c0,0.617,0.088,1.168,0.265,1.653
	c0.176,0.485,0.425,0.896,0.746,1.231c0.321,0.336,0.708,0.592,1.161,0.769c0.452,0.177,0.958,0.266,1.515,0.266
	c0.398,0,0.754-0.043,1.067-0.127c0.314-0.085,0.62-0.199,0.918-0.344V68.94h-1.358c-0.13,0-0.23-0.035-0.303-0.107
	c-0.072-0.072-0.108-0.161-0.108-0.266v-1.134H130.997z"/>
<path fill="#FFFFFF" stroke="#000000" stroke-miterlimit="10" d="M133.975,69.247c0.03,0.393,0.099,0.732,0.209,1.019
	s0.253,0.522,0.433,0.709c0.179,0.187,0.392,0.326,0.638,0.418c0.247,0.093,0.519,0.139,0.817,0.139
	c0.299,0,0.557-0.035,0.772-0.104c0.217-0.07,0.407-0.146,0.568-0.231c0.162-0.085,0.304-0.162,0.426-0.231
	c0.122-0.069,0.24-0.104,0.354-0.104c0.154,0,0.269,0.057,0.343,0.172l0.53,0.672c-0.204,0.238-0.432,0.438-0.686,0.601
	c-0.254,0.161-0.519,0.291-0.795,0.388c-0.277,0.098-0.558,0.166-0.844,0.206c-0.286,0.039-0.563,0.06-0.832,0.06
	c-0.532,0-1.027-0.089-1.485-0.266s-0.856-0.438-1.195-0.783c-0.338-0.346-0.604-0.774-0.799-1.284
	c-0.193-0.51-0.291-1.101-0.291-1.772c0-0.522,0.085-1.014,0.254-1.475c0.17-0.46,0.412-0.86,0.728-1.201s0.702-0.611,1.157-0.811
	c0.455-0.198,0.969-0.298,1.541-0.298c0.484,0,0.929,0.077,1.337,0.23c0.407,0.154,0.758,0.38,1.052,0.676s0.523,0.659,0.69,1.09
	s0.25,0.922,0.25,1.475c0,0.278-0.029,0.466-0.09,0.563c-0.059,0.097-0.173,0.146-0.342,0.146H133.975z M137.49,68.135
	c0-0.239-0.033-0.464-0.101-0.676c-0.067-0.211-0.168-0.396-0.301-0.556c-0.135-0.159-0.305-0.285-0.512-0.377
	c-0.206-0.092-0.446-0.139-0.72-0.139c-0.533,0-0.952,0.152-1.258,0.456s-0.502,0.733-0.586,1.291H137.49z"/>
<path fill="#FFFFFF" stroke="#000000" stroke-miterlimit="10" d="M142.252,66.127c0.154-0.154,0.317-0.298,0.489-0.43
	c0.171-0.132,0.353-0.243,0.545-0.336c0.192-0.092,0.397-0.164,0.615-0.215c0.219-0.054,0.458-0.079,0.717-0.079
	c0.418,0,0.788,0.07,1.113,0.212c0.323,0.143,0.592,0.341,0.809,0.598c0.216,0.256,0.381,0.563,0.492,0.918
	c0.113,0.355,0.168,0.748,0.168,1.176v4.874h-1.844v-4.874c0-0.468-0.106-0.83-0.32-1.086c-0.214-0.257-0.54-0.385-0.977-0.385
	c-0.32,0-0.618,0.072-0.897,0.217c-0.278,0.145-0.542,0.341-0.791,0.59v5.538h-1.844v-7.658h1.128c0.239,0,0.396,0.111,0.47,0.337
	L142.252,66.127z"/>
<path fill="#FFFFFF" stroke="#000000" stroke-miterlimit="10" d="M150.365,69.247c0.03,0.393,0.099,0.732,0.209,1.019
	c0.11,0.286,0.253,0.522,0.433,0.709c0.179,0.187,0.392,0.326,0.638,0.418c0.247,0.093,0.519,0.139,0.817,0.139
	c0.299,0,0.557-0.035,0.772-0.104c0.217-0.07,0.407-0.146,0.568-0.231c0.162-0.085,0.304-0.162,0.426-0.231s0.24-0.104,0.354-0.104
	c0.154,0,0.269,0.057,0.343,0.172l0.53,0.672c-0.204,0.238-0.432,0.438-0.686,0.601c-0.254,0.161-0.519,0.291-0.795,0.388
	c-0.277,0.098-0.558,0.166-0.844,0.206c-0.286,0.039-0.563,0.06-0.832,0.06c-0.532,0-1.027-0.089-1.485-0.266
	s-0.856-0.438-1.195-0.783c-0.338-0.346-0.604-0.774-0.798-1.284s-0.292-1.101-0.292-1.772c0-0.522,0.085-1.014,0.254-1.475
	c0.169-0.46,0.412-0.86,0.728-1.201s0.702-0.611,1.157-0.811c0.455-0.198,0.969-0.298,1.541-0.298c0.484,0,0.929,0.077,1.337,0.23
	c0.407,0.154,0.758,0.38,1.052,0.676c0.294,0.296,0.523,0.659,0.69,1.09s0.25,0.922,0.25,1.475c0,0.278-0.029,0.466-0.09,0.563
	c-0.06,0.097-0.174,0.146-0.342,0.146H150.365z M153.88,68.135c0-0.239-0.033-0.464-0.101-0.676
	c-0.067-0.211-0.168-0.396-0.301-0.556c-0.135-0.159-0.305-0.285-0.512-0.377c-0.206-0.092-0.446-0.139-0.72-0.139
	c-0.533,0-0.952,0.152-1.258,0.456s-0.502,0.733-0.586,1.291H153.88z"/>
<path fill="#FFFFFF" stroke="#000000" stroke-miterlimit="10" d="M158.657,66.515c0.239-0.457,0.522-0.817,0.853-1.078
	c0.328-0.262,0.715-0.392,1.164-0.392c0.353,0,0.635,0.077,0.85,0.231l-0.119,1.381c-0.025,0.088-0.061,0.152-0.107,0.19
	c-0.048,0.037-0.111,0.056-0.191,0.056c-0.074,0-0.186-0.013-0.332-0.037c-0.146-0.025-0.29-0.039-0.43-0.039
	c-0.203,0-0.385,0.031-0.543,0.091c-0.162,0.06-0.304,0.146-0.431,0.258c-0.127,0.11-0.237,0.247-0.336,0.406
	c-0.097,0.16-0.188,0.341-0.272,0.545v4.718h-1.844v-7.658h1.083c0.188,0,0.32,0.033,0.396,0.1c0.074,0.068,0.123,0.188,0.15,0.363
	L158.657,66.515z"/>
<path fill="#FFFFFF" stroke="#000000" stroke-miterlimit="10" d="M162.209,66.254c0.882-0.807,1.941-1.209,3.181-1.209
	c0.446,0,0.849,0.073,1.201,0.22c0.354,0.146,0.653,0.351,0.897,0.612c0.242,0.26,0.428,0.573,0.555,0.937s0.19,0.762,0.19,1.194
	v4.837h-0.836c-0.175,0-0.31-0.026-0.403-0.078c-0.095-0.053-0.168-0.158-0.224-0.317l-0.164-0.553
	c-0.194,0.175-0.384,0.327-0.567,0.459c-0.185,0.132-0.375,0.243-0.576,0.332c-0.198,0.09-0.41,0.159-0.637,0.206
	s-0.477,0.07-0.75,0.07c-0.324,0-0.621-0.043-0.896-0.13c-0.274-0.088-0.511-0.218-0.709-0.393
	c-0.199-0.174-0.353-0.391-0.463-0.649c-0.109-0.259-0.164-0.56-0.164-0.903c0-0.193,0.032-0.387,0.097-0.578
	s0.17-0.374,0.317-0.549c0.147-0.174,0.337-0.338,0.571-0.492c0.233-0.154,0.521-0.289,0.861-0.403
	c0.342-0.114,0.737-0.208,1.19-0.28c0.452-0.071,0.971-0.114,1.553-0.13v-0.448c0-0.513-0.108-0.892-0.328-1.139
	c-0.22-0.246-0.534-0.369-0.948-0.369c-0.299,0-0.545,0.035-0.742,0.104c-0.197,0.07-0.371,0.148-0.52,0.235
	c-0.15,0.087-0.283,0.165-0.406,0.235c-0.121,0.069-0.258,0.104-0.408,0.104c-0.127,0-0.237-0.034-0.328-0.102
	c-0.09-0.066-0.161-0.146-0.215-0.234L162.209,66.254z M166.435,69.575c-0.532,0.025-0.979,0.071-1.344,0.139
	c-0.363,0.066-0.654,0.152-0.873,0.258c-0.22,0.104-0.376,0.226-0.472,0.365c-0.092,0.14-0.141,0.291-0.141,0.455
	c0,0.323,0.096,0.555,0.288,0.694c0.19,0.14,0.44,0.209,0.75,0.209c0.378,0,0.705-0.068,0.981-0.205
	c0.275-0.137,0.545-0.345,0.81-0.624V69.575z"/>
<rect x="169.986" y="61.753" fill="#FFFFFF" stroke="#000000" stroke-miterlimit="10" width="1.844" height="11.092"/>
<path fill="#FFFFFF" stroke="#000000" stroke-miterlimit="10" d="M183.339,64.015c-0.062,0.104-0.124,0.181-0.19,0.228
	c-0.067,0.047-0.15,0.071-0.25,0.071c-0.104,0-0.218-0.039-0.34-0.116c-0.121-0.078-0.268-0.163-0.437-0.258
	c-0.169-0.094-0.367-0.18-0.595-0.257c-0.226-0.077-0.494-0.116-0.801-0.116c-0.279,0-0.522,0.034-0.731,0.101
	c-0.209,0.067-0.386,0.16-0.526,0.28c-0.143,0.119-0.248,0.263-0.316,0.43c-0.071,0.166-0.105,0.35-0.105,0.548
	c0,0.254,0.07,0.466,0.213,0.635c0.141,0.169,0.329,0.313,0.563,0.433c0.234,0.12,0.5,0.227,0.8,0.321
	c0.298,0.095,0.604,0.195,0.918,0.303c0.313,0.106,0.618,0.231,0.918,0.373c0.298,0.142,0.565,0.32,0.799,0.537
	s0.421,0.481,0.563,0.795c0.142,0.313,0.211,0.694,0.211,1.143c0,0.487-0.082,0.943-0.25,1.369c-0.166,0.426-0.409,0.796-0.73,1.112
	c-0.32,0.316-0.713,0.564-1.175,0.746c-0.463,0.182-0.993,0.272-1.59,0.272c-0.343,0-0.683-0.033-1.015-0.101
	c-0.334-0.067-0.654-0.163-0.959-0.287c-0.307-0.124-0.595-0.273-0.863-0.448s-0.506-0.368-0.715-0.582l0.588-0.963
	c0.05-0.069,0.115-0.128,0.195-0.176c0.079-0.047,0.163-0.07,0.254-0.07c0.123,0,0.258,0.051,0.402,0.152
	c0.145,0.103,0.314,0.216,0.516,0.339c0.198,0.125,0.431,0.239,0.697,0.341c0.266,0.103,0.586,0.153,0.959,0.153
	c0.572,0,1.014-0.136,1.328-0.407c0.313-0.271,0.471-0.66,0.471-1.168c0-0.283-0.072-0.515-0.213-0.694
	c-0.142-0.179-0.33-0.329-0.564-0.451c-0.233-0.122-0.5-0.226-0.799-0.31c-0.297-0.085-0.602-0.177-0.91-0.276
	c-0.307-0.1-0.611-0.219-0.91-0.358s-0.564-0.321-0.799-0.545c-0.233-0.224-0.422-0.504-0.563-0.84s-0.212-0.75-0.212-1.243
	c0-0.393,0.078-0.776,0.234-1.149c0.158-0.373,0.385-0.704,0.684-0.992c0.298-0.289,0.666-0.521,1.104-0.694
	c0.438-0.174,0.941-0.262,1.509-0.262c0.637,0,1.224,0.1,1.761,0.299c0.538,0.199,0.995,0.478,1.374,0.836L183.339,64.015z"/>
<path fill="#FFFFFF" stroke="#000000" stroke-miterlimit="10" d="M191.952,65.187v7.658h-1.127c-0.244,0-0.397-0.112-0.463-0.336
	l-0.128-0.612c-0.313,0.318-0.658,0.576-1.036,0.772c-0.379,0.197-0.824,0.295-1.337,0.295c-0.418,0-0.787-0.07-1.108-0.213
	c-0.321-0.142-0.591-0.342-0.81-0.601s-0.385-0.565-0.496-0.922c-0.112-0.355-0.168-0.747-0.168-1.176v-4.866h1.844v4.866
	c0,0.468,0.107,0.83,0.324,1.086c0.217,0.257,0.541,0.385,0.975,0.385c0.318,0,0.616-0.07,0.895-0.213
	c0.279-0.142,0.543-0.337,0.791-0.586v-5.538H191.952z"/>
<path fill="#FFFFFF" stroke="#000000" stroke-miterlimit="10" d="M195.512,66.515c0.238-0.457,0.521-0.817,0.852-1.078
	c0.328-0.262,0.716-0.392,1.164-0.392c0.354,0,0.637,0.077,0.851,0.231l-0.119,1.381c-0.025,0.088-0.062,0.152-0.108,0.19
	c-0.047,0.037-0.11,0.056-0.19,0.056c-0.074,0-0.186-0.013-0.332-0.037c-0.146-0.025-0.29-0.039-0.43-0.039
	c-0.203,0-0.385,0.031-0.544,0.091c-0.16,0.06-0.303,0.146-0.43,0.258c-0.127,0.11-0.238,0.247-0.336,0.406
	c-0.098,0.16-0.188,0.341-0.273,0.545v4.718h-1.843v-7.658h1.083c0.188,0,0.32,0.033,0.395,0.1c0.074,0.068,0.125,0.188,0.15,0.363
	L195.512,66.515z"/>
<path fill="#FFFFFF" stroke="#000000" stroke-miterlimit="10" d="M205.976,65.447v0.688c0,0.219-0.132,0.353-0.396,0.402
	l-0.687,0.127c0.104,0.264,0.156,0.553,0.156,0.866c0,0.378-0.075,0.72-0.228,1.026c-0.151,0.306-0.361,0.566-0.631,0.78
	c-0.269,0.214-0.586,0.379-0.951,0.496c-0.366,0.117-0.76,0.175-1.183,0.175c-0.149,0-0.294-0.007-0.434-0.021
	c-0.139-0.016-0.276-0.035-0.41-0.061c-0.239,0.145-0.358,0.307-0.358,0.485c0,0.154,0.071,0.268,0.213,0.34
	s0.329,0.123,0.563,0.153c0.233,0.028,0.5,0.048,0.799,0.056c0.298,0.008,0.604,0.023,0.918,0.049
	c0.313,0.024,0.619,0.068,0.918,0.13c0.299,0.063,0.564,0.161,0.799,0.294c0.233,0.136,0.421,0.318,0.563,0.55
	c0.142,0.231,0.213,0.529,0.213,0.893c0,0.338-0.084,0.666-0.25,0.985c-0.167,0.318-0.408,0.602-0.725,0.851
	c-0.315,0.249-0.705,0.449-1.164,0.601c-0.461,0.152-0.984,0.228-1.571,0.228c-0.577,0-1.08-0.056-1.508-0.168
	c-0.428-0.111-0.783-0.261-1.067-0.447c-0.283-0.187-0.495-0.402-0.634-0.646c-0.14-0.244-0.209-0.498-0.209-0.763
	c0-0.357,0.107-0.657,0.323-0.898c0.218-0.241,0.515-0.435,0.893-0.578c-0.204-0.104-0.365-0.244-0.484-0.419
	c-0.12-0.174-0.18-0.402-0.18-0.688c0-0.113,0.021-0.231,0.063-0.354s0.105-0.242,0.188-0.361c0.082-0.12,0.186-0.233,0.31-0.34
	c0.125-0.107,0.271-0.203,0.44-0.288c-0.388-0.209-0.692-0.487-0.914-0.836c-0.222-0.348-0.332-0.756-0.332-1.224
	c0-0.378,0.075-0.721,0.228-1.026c0.151-0.306,0.363-0.567,0.635-0.784c0.271-0.216,0.592-0.382,0.963-0.496
	c0.37-0.114,0.774-0.172,1.213-0.172c0.328,0,0.637,0.034,0.925,0.101c0.289,0.067,0.553,0.166,0.791,0.295H205.976z M204.14,73.188
	c0-0.149-0.045-0.271-0.135-0.366c-0.089-0.095-0.211-0.168-0.365-0.22c-0.154-0.053-0.335-0.091-0.541-0.116
	c-0.207-0.024-0.426-0.043-0.657-0.056s-0.47-0.023-0.717-0.034c-0.246-0.01-0.486-0.029-0.72-0.06
	c-0.204,0.115-0.369,0.249-0.496,0.403s-0.19,0.333-0.19,0.537c0,0.135,0.033,0.261,0.101,0.377
	c0.067,0.117,0.174,0.218,0.321,0.303c0.146,0.084,0.337,0.15,0.57,0.197c0.234,0.048,0.521,0.071,0.858,0.071
	c0.344,0,0.64-0.026,0.889-0.078c0.248-0.053,0.454-0.125,0.615-0.217c0.162-0.092,0.28-0.201,0.354-0.328
	C204.103,73.476,204.14,73.337,204.14,73.188 M202.058,68.829c0.229,0,0.428-0.031,0.597-0.094c0.169-0.062,0.31-0.147,0.422-0.257
	c0.111-0.109,0.196-0.242,0.254-0.396c0.057-0.153,0.086-0.323,0.086-0.507c0-0.378-0.113-0.678-0.34-0.899
	s-0.566-0.332-1.019-0.332c-0.453,0-0.793,0.11-1.021,0.332c-0.226,0.222-0.338,0.521-0.338,0.899c0,0.179,0.028,0.346,0.085,0.5
	c0.058,0.154,0.143,0.287,0.253,0.4c0.113,0.11,0.255,0.198,0.427,0.26C201.636,68.798,201.833,68.829,202.058,68.829"/>
<path fill="#FFFFFF" stroke="#000000" stroke-miterlimit="10" d="M208.425,69.247c0.029,0.393,0.099,0.732,0.209,1.019
	c0.109,0.286,0.253,0.522,0.433,0.709c0.179,0.187,0.393,0.326,0.638,0.418c0.247,0.093,0.52,0.139,0.817,0.139
	c0.299,0,0.557-0.035,0.772-0.104c0.217-0.07,0.406-0.146,0.567-0.231c0.162-0.085,0.304-0.162,0.426-0.231s0.24-0.104,0.354-0.104
	c0.154,0,0.269,0.057,0.343,0.172l0.53,0.672c-0.204,0.238-0.433,0.438-0.687,0.601c-0.254,0.161-0.519,0.291-0.795,0.388
	c-0.276,0.098-0.558,0.166-0.844,0.206c-0.286,0.039-0.563,0.06-0.832,0.06c-0.532,0-1.027-0.089-1.485-0.266
	s-0.855-0.438-1.194-0.783c-0.338-0.346-0.604-0.774-0.798-1.284c-0.194-0.51-0.292-1.101-0.292-1.772
	c0-0.522,0.085-1.014,0.254-1.475c0.169-0.46,0.412-0.86,0.728-1.201c0.316-0.341,0.702-0.611,1.157-0.811
	c0.455-0.198,0.969-0.298,1.541-0.298c0.484,0,0.929,0.077,1.337,0.23c0.407,0.154,0.758,0.38,1.052,0.676s0.523,0.659,0.69,1.09
	s0.25,0.922,0.25,1.475c0,0.278-0.029,0.466-0.09,0.563c-0.06,0.097-0.173,0.146-0.343,0.146H208.425z M211.939,68.135
	c0-0.239-0.033-0.464-0.101-0.676c-0.067-0.211-0.168-0.396-0.302-0.556c-0.135-0.159-0.305-0.285-0.512-0.377
	c-0.206-0.092-0.446-0.139-0.72-0.139c-0.533,0-0.952,0.152-1.258,0.456c-0.307,0.304-0.502,0.733-0.586,1.291H211.939z"/>
<path fill="#FFFFFF" stroke="#000000" stroke-miterlimit="10" d="M216.717,66.515c0.239-0.457,0.522-0.817,0.852-1.078
	c0.328-0.262,0.716-0.392,1.164-0.392c0.354,0,0.637,0.077,0.851,0.231l-0.119,1.381c-0.025,0.088-0.062,0.152-0.108,0.19
	c-0.047,0.037-0.11,0.056-0.19,0.056c-0.074,0-0.186-0.013-0.332-0.037c-0.146-0.025-0.29-0.039-0.43-0.039
	c-0.203,0-0.385,0.031-0.544,0.091c-0.16,0.06-0.303,0.146-0.43,0.258c-0.127,0.11-0.238,0.247-0.336,0.406
	c-0.097,0.16-0.188,0.341-0.273,0.545v4.718h-1.843v-7.658h1.083c0.188,0,0.32,0.033,0.396,0.1c0.073,0.068,0.124,0.188,0.149,0.363
	L216.717,66.515z"/>
<path fill="#FFFFFF" stroke="#000000" stroke-miterlimit="10" d="M227.502,65.187l-4.173,9.763c-0.055,0.13-0.125,0.229-0.213,0.295
	c-0.087,0.067-0.219,0.102-0.398,0.102h-1.374l1.434-3.076l-3.098-7.083h1.619c0.145,0,0.258,0.035,0.34,0.104
	c0.082,0.07,0.144,0.15,0.183,0.239l1.628,3.972c0.055,0.134,0.101,0.269,0.138,0.402c0.037,0.135,0.073,0.271,0.108,0.411
	c0.045-0.14,0.089-0.277,0.134-0.414s0.095-0.272,0.149-0.407l1.538-3.964c0.039-0.099,0.105-0.182,0.197-0.246
	s0.195-0.097,0.31-0.097H227.502z"/>
<path fill="#FFFFFF" stroke="#000000" stroke-miterlimit="10" d="M175.715,40.721v12.64c-1.585,1.167-3.273,2.021-5.066,2.561
	s-3.714,0.811-5.759,0.811c-2.55,0-4.858-0.396-6.925-1.188s-3.832-1.894-5.294-3.306c-1.462-1.413-2.59-3.097-3.382-5.057
	c-0.792-1.958-1.188-4.098-1.188-6.417c0-2.348,0.382-4.501,1.145-6.46c0.764-1.959,1.848-3.645,3.252-5.057
	c1.405-1.411,3.108-2.505,5.112-3.284c2.002-0.778,4.248-1.167,6.74-1.167c1.268,0,2.452,0.102,3.555,0.303
	c1.102,0.202,2.123,0.479,3.068,0.832c0.942,0.352,1.805,0.781,2.582,1.285c0.777,0.505,1.49,1.059,2.139,1.664l-1.664,2.636
	c-0.258,0.418-0.598,0.674-1.016,0.767c-0.418,0.094-0.871-0.01-1.361-0.313c-0.475-0.273-0.951-0.547-1.426-0.821
	c-0.476-0.274-1.005-0.511-1.588-0.713c-0.583-0.201-1.238-0.367-1.967-0.497c-0.729-0.13-1.566-0.195-2.518-0.195
	c-1.541,0-2.935,0.259-4.18,0.779c-1.246,0.518-2.309,1.26-3.188,2.224c-0.879,0.966-1.555,2.125-2.031,3.48
	c-0.476,1.353-0.713,2.866-0.713,4.537c0,1.786,0.256,3.382,0.767,4.786s1.232,2.593,2.161,3.565
	c0.93,0.972,2.049,1.714,3.359,2.226c1.312,0.511,2.773,0.767,4.387,0.767c1.152,0,2.184-0.122,3.09-0.367
	c0.907-0.245,1.794-0.576,2.658-0.994v-5.661h-3.934c-0.375,0-0.666-0.104-0.875-0.313c-0.209-0.208-0.313-0.464-0.313-0.767v-3.284
	H175.715z"/>
<path fill="#FFFFFF" stroke="#000000" stroke-miterlimit="10" d="M197.97,30.824c-0.173,0.303-0.356,0.522-0.551,0.659
	c-0.194,0.137-0.436,0.205-0.724,0.205c-0.303,0-0.631-0.111-0.983-0.335c-0.353-0.222-0.774-0.471-1.263-0.745
	c-0.492-0.273-1.063-0.521-1.719-0.745c-0.656-0.224-1.431-0.335-2.322-0.335c-0.808,0-1.514,0.097-2.119,0.291
	c-0.604,0.195-1.112,0.465-1.522,0.811c-0.411,0.345-0.717,0.759-0.918,1.242c-0.202,0.483-0.303,1.013-0.303,1.589
	c0,0.734,0.204,1.346,0.614,1.836c0.412,0.49,0.955,0.908,1.633,1.254c0.677,0.345,1.447,0.655,2.312,0.928
	c0.864,0.274,1.75,0.566,2.658,0.875c0.907,0.31,1.793,0.67,2.657,1.08c0.863,0.411,1.635,0.93,2.313,1.556
	c0.676,0.627,1.221,1.395,1.631,2.302c0.411,0.907,0.616,2.01,0.616,3.306c0,1.412-0.241,2.733-0.724,3.965
	c-0.483,1.231-1.188,2.305-2.118,3.22c-0.929,0.915-2.063,1.635-3.403,2.16c-1.339,0.526-2.873,0.789-4.602,0.789
	c-0.994,0-1.975-0.098-2.938-0.292c-0.967-0.194-1.892-0.472-2.779-0.832c-0.885-0.359-1.717-0.792-2.494-1.296
	c-0.778-0.504-1.471-1.065-2.074-1.686l1.707-2.787c0.145-0.202,0.331-0.371,0.561-0.508c0.231-0.137,0.477-0.205,0.735-0.205
	c0.36,0,0.749,0.147,1.167,0.442c0.418,0.296,0.915,0.624,1.491,0.983c0.575,0.36,1.249,0.688,2.021,0.983
	c0.77,0.295,1.695,0.442,2.776,0.442c1.656,0,2.938-0.392,3.847-1.177c0.906-0.785,1.36-1.914,1.36-3.382
	c0-0.821-0.205-1.491-0.616-2.01c-0.41-0.519-0.953-0.954-1.631-1.307c-0.678-0.354-1.447-0.652-2.313-0.897
	c-0.864-0.244-1.744-0.511-2.635-0.799c-0.895-0.288-1.772-0.634-2.637-1.037c-0.863-0.403-1.636-0.93-2.313-1.578
	c-0.676-0.648-1.221-1.458-1.631-2.431c-0.412-0.972-0.617-2.171-0.617-3.598c0-1.137,0.229-2.247,0.682-3.327
	c0.454-1.08,1.113-2.038,1.979-2.874c0.863-0.835,1.928-1.505,3.196-2.008c1.267-0.505,2.722-0.757,4.365-0.757
	c1.844,0,3.543,0.288,5.099,0.864s2.881,1.383,3.976,2.42L197.97,30.824z"/>
<g>
</g>
<g>
</g>
<g>
</g>
<g>
</g>
<g>
</g>
<g>
</g>
<g>
</g>
<g>
</g>
<g>
</g>
<g>
</g>
<g>
</g>
<g>
</g>
<g>
</g>
<g>
</g>
<g>
</g>
</svg>
