<?xml version="1.0" encoding="utf-8"?>
<!-- Generator: Adobe Illustrator 16.0.0, SVG Export Plug-In . SVG Version: 6.00 Build 0)  -->
<!DOCTYPE svg PUBLIC "-//W3C//DTD SVG 1.1//EN" "http://www.w3.org/Graphics/SVG/1.1/DTD/svg11.dtd">
<svg version="1.1" id="레이어_1" xmlns="http://www.w3.org/2000/svg" xmlns:xlink="http://www.w3.org/1999/xlink" x="0px"
	 y="0px" width="362px" height="136px" viewBox="0 0 362 136" enable-background="new 0 0 362 136" xml:space="preserve">
<path fill="#FFFFFF" stroke="#000000" stroke-miterlimit="10" d="M116.186,42.43l16.543,19.86h-6.984l-12.833-15.933l-3.187,3.492
	v12.44h-5.762V27.151h5.762v14.274l13.008-14.274h6.984L116.186,42.43z"/>
<path fill="#FFFFFF" stroke="#000000" stroke-miterlimit="10" d="M154.292,49.37h-18.813v-4.671h18.813V49.37z"/>
<path fill="#FFFFFF" stroke="#000000" stroke-miterlimit="10" d="M183.67,27.151v4.671h-9.997V62.29h-5.762V31.822h-10.04v-4.671
	H183.67z"/>
<path fill="#FFFFFF" stroke="#000000" stroke-miterlimit="10" d="M211.17,31.822h-18.028v10.389h16.718v4.627h-16.718V57.62h18.028
	v4.67h-23.746V27.151h23.746V31.822z"/>
<path fill="#FFFFFF" stroke="#000000" stroke-miterlimit="10" d="M244.998,57.227c-1.543,1.631-3.354,2.954-5.435,3.973
	c-2.081,1.019-4.519,1.527-7.312,1.527c-2.562,0-4.875-0.473-6.94-1.418c-2.067-0.945-3.827-2.233-5.282-3.863
	c-1.484-1.601-2.626-3.478-3.427-5.631s-1.2-4.438-1.2-6.854c0-2.328,0.371-4.562,1.113-6.7c0.742-2.139,1.84-4.038,3.296-5.696
	c1.425-1.629,3.179-2.939,5.26-3.929c2.08-0.989,4.474-1.484,7.181-1.484c2.706,0,5.085,0.48,7.137,1.44
	c2.052,0.96,3.921,2.299,5.609,4.016l-3.711,3.754c-1.31-1.397-2.699-2.502-4.168-3.317c-1.47-0.814-3.093-1.222-4.867-1.222
	c-1.63,0-3.144,0.349-4.54,1.047c-1.396,0.699-2.604,1.645-3.623,2.837c-1.019,1.222-1.819,2.626-2.4,4.213
	c-0.583,1.586-0.873,3.267-0.873,5.041c0,1.775,0.29,3.456,0.873,5.042c0.581,1.586,1.382,2.976,2.4,4.168
	c1.019,1.194,2.227,2.14,3.623,2.838s2.91,1.048,4.54,1.048c1.746,0,3.354-0.407,4.823-1.223c1.469-0.814,2.83-1.921,4.081-3.317
	L244.998,57.227z"/>
<g>
</g>
<g>
</g>
<g>
</g>
<g>
</g>
<g>
</g>
<g>
</g>
<g>
</g>
<g>
</g>
<g>
</g>
<g>
</g>
<g>
</g>
<g>
</g>
<g>
</g>
<g>
</g>
<g>
</g>
</svg>
