<?xml version="1.0" encoding="utf-8"?>
<!-- Generator: Adobe Illustrator 16.0.0, SVG Export Plug-In . SVG Version: 6.00 Build 0)  -->
<!DOCTYPE svg PUBLIC "-//W3C//DTD SVG 1.1//EN" "http://www.w3.org/Graphics/SVG/1.1/DTD/svg11.dtd">
<svg version="1.1" id="레이어_1" xmlns="http://www.w3.org/2000/svg" xmlns:xlink="http://www.w3.org/1999/xlink" x="0px"
	 y="0px" width="362px" height="136px" viewBox="0 0 362 136" enable-background="new 0 0 362 136" xml:space="preserve">
<polygon fill="#FFFFFF" stroke="#000000" stroke-miterlimit="10" points="125.3,60.625 105.441,60.625 105.441,62.065 
	125.736,62.065 125.736,66.648 99.55,66.648 99.55,56.042 119.408,56.042 119.408,54.645 99.55,54.645 99.55,50.062 125.3,50.062 
	"/>
<path fill="#FFFFFF" stroke="#000000" stroke-miterlimit="10" d="M114.5,43.5v-2.038c2-0.29,4.243-0.931,5.727-1.92
	c2.182-1.425,3.497-3.346,3.497-5.762c0-2.445-0.973-4.379-3.14-5.806c-2.168-1.425-4.898-2.139-8.302-2.139
	c-3.346,0-6.076,0.714-8.243,2.139c-2.168,1.426-3.238,3.361-3.238,5.806c0,2.416,0.583,4.336,2.736,5.762
	c1.542,1.019,2.962,1.673,4.962,1.964V43.5h-16v6h39v-6H114.5z M108.388,35.962c-1.121-0.495-1.68-1.223-1.68-2.183
	c0-0.96,0.56-1.695,1.68-2.205c1.12-0.509,2.437-0.764,3.95-0.764c1.6,0,2.953,0.255,4.059,0.764
	c1.105,0.51,1.659,1.244,1.659,2.205c0,0.96-0.553,1.688-1.659,2.183c-1.106,0.495-2.459,0.742-4.059,0.742
	C110.824,36.704,109.507,36.458,108.388,35.962z"/>
<path fill="#FFFFFF" stroke="#000000" stroke-miterlimit="10" d="M144.066,42.946c5.121,0,10.562-0.393,16.323-1.179l0.48,4.977
	c-5.907,0.814-13.472,1.222-22.695,1.222V35.22h13.312v-2.619h-13.312v-5.02h19.203V40.24h-13.311V42.946z"/>
<path fill="#FFFFFF" stroke="#000000" stroke-miterlimit="10" d="M143.5,50.5v16h25v-16H143.5z M162.5,61.5h-13v-5h13V61.5z"/>
<rect x="163.27" y="26.053" fill="#FFFFFF" stroke="#000000" stroke-miterlimit="10" width="5.892" height="22.699"/>
<polygon fill="#FFFFFF" stroke="#000000" stroke-miterlimit="10" points="192.074,67.085 192.074,54.645 176.275,54.645 
	176.275,49.406 214.42,49.406 214.42,54.645 198.184,54.645 198.184,67.085 "/>
<polygon fill="#FFFFFF" stroke="#000000" stroke-miterlimit="10" points="180.291,45.914 180.291,41.113 185.527,41.113 
	185.31,33.474 191.201,33.474 191.42,41.113 199.275,41.113 199.494,33.474 205.385,33.474 205.168,41.113 210.404,41.113 
	210.404,45.914 "/>
<rect x="181.163" y="27.581" fill="#FFFFFF" stroke="#000000" stroke-miterlimit="10" width="28.368" height="4.802"/>
<rect x="217.736" y="57.046" fill="#FFFFFF" stroke="#000000" stroke-miterlimit="10" width="38.145" height="5.237"/>
<path fill="#FFFFFF" stroke="#000000" stroke-miterlimit="10" d="M250.251,48.097c-6.779-1.891-11.26-5.165-13.442-9.821
	c-2.328,4.656-6.808,7.93-13.442,9.821l-3.535-4.277c4.598-1.251,8.067-3.288,10.409-6.111c2.342-2.822,3.514-5.689,3.514-8.599
	v-0.873h6.11v0.873c0,2.91,1.171,5.777,3.513,8.599c2.342,2.823,5.798,4.86,10.366,6.111L250.251,48.097z"/>
<g>
</g>
<g>
</g>
<g>
</g>
<g>
</g>
<g>
</g>
<g>
</g>
<g>
</g>
<g>
</g>
<g>
</g>
<g>
</g>
<g>
</g>
<g>
</g>
<g>
</g>
<g>
</g>
<g>
</g>
</svg>
