<?xml version="1.0" encoding="utf-8"?>
<!-- Generator: Adobe Illustrator 16.0.0, SVG Export Plug-In . SVG Version: 6.00 Build 0)  -->
<!DOCTYPE svg PUBLIC "-//W3C//DTD SVG 1.1//EN" "http://www.w3.org/Graphics/SVG/1.1/DTD/svg11.dtd">
<svg version="1.1" id="레이어_1" xmlns="http://www.w3.org/2000/svg" xmlns:xlink="http://www.w3.org/1999/xlink" x="0px"
	 y="0px" width="362px" height="136px" viewBox="0 0 362 136" enable-background="new 0 0 362 136" xml:space="preserve">
<path fill="#FFFFFF" stroke="#000000" stroke-miterlimit="10" d="M115.088,63.991c-0.06,0.104-0.123,0.18-0.19,0.227
	s-0.151,0.07-0.25,0.07c-0.105,0-0.218-0.038-0.339-0.115c-0.122-0.076-0.268-0.162-0.437-0.256c-0.17-0.094-0.367-0.18-0.594-0.256
	c-0.226-0.077-0.494-0.115-0.802-0.115c-0.279,0-0.523,0.033-0.732,0.101c-0.209,0.066-0.384,0.159-0.526,0.278
	c-0.142,0.118-0.247,0.261-0.317,0.427c-0.07,0.165-0.104,0.348-0.104,0.545c0,0.253,0.07,0.463,0.212,0.631
	c0.142,0.169,0.33,0.312,0.564,0.431c0.234,0.119,0.5,0.226,0.798,0.319c0.299,0.094,0.605,0.194,0.918,0.301
	c0.314,0.106,0.62,0.229,0.918,0.371c0.299,0.141,0.566,0.319,0.799,0.534c0.234,0.215,0.422,0.479,0.563,0.79
	c0.143,0.313,0.213,0.69,0.213,1.136c0,0.485-0.083,0.939-0.25,1.362s-0.41,0.791-0.731,1.105c-0.321,0.314-0.713,0.562-1.176,0.742
	s-0.992,0.271-1.59,0.271c-0.343,0-0.681-0.034-1.014-0.101s-0.654-0.162-0.959-0.286c-0.307-0.123-0.594-0.271-0.863-0.445
	c-0.268-0.173-0.507-0.366-0.716-0.578l0.589-0.958c0.05-0.069,0.115-0.127,0.195-0.174c0.079-0.048,0.164-0.071,0.254-0.071
	c0.124,0,0.258,0.051,0.402,0.152s0.316,0.214,0.516,0.338c0.199,0.124,0.431,0.236,0.697,0.338c0.266,0.102,0.586,0.152,0.96,0.152
	c0.571,0,1.014-0.135,1.328-0.405c0.313-0.27,0.47-0.656,0.47-1.161c0-0.282-0.071-0.512-0.212-0.69
	c-0.143-0.178-0.33-0.327-0.564-0.449c-0.234-0.121-0.5-0.224-0.799-0.308c-0.298-0.084-0.602-0.176-0.911-0.274
	c-0.308-0.1-0.611-0.218-0.91-0.356c-0.299-0.139-0.564-0.319-0.799-0.542c-0.233-0.223-0.422-0.501-0.563-0.835
	c-0.142-0.334-0.213-0.746-0.213-1.235c0-0.392,0.079-0.772,0.235-1.144c0.158-0.371,0.385-0.7,0.683-0.987
	c0.299-0.286,0.667-0.517,1.105-0.689c0.438-0.174,0.941-0.26,1.507-0.26c0.638,0,1.225,0.099,1.762,0.297
	c0.537,0.197,0.995,0.475,1.373,0.831L115.088,63.991z"/>
<path fill="#FFFFFF" stroke="#000000" stroke-miterlimit="10" d="M123.813,65.156l-4.172,9.708
	c-0.056,0.129-0.126,0.227-0.213,0.293c-0.088,0.067-0.22,0.101-0.399,0.101h-1.374l1.433-3.058l-3.097-7.044h1.62
	c0.143,0,0.257,0.035,0.339,0.104c0.082,0.07,0.143,0.149,0.183,0.238l1.627,3.948c0.055,0.134,0.101,0.268,0.138,0.401
	c0.037,0.133,0.073,0.27,0.108,0.408c0.045-0.139,0.09-0.276,0.135-0.413c0.044-0.136,0.094-0.271,0.149-0.403l1.538-3.941
	c0.04-0.099,0.105-0.181,0.197-0.245c0.093-0.064,0.195-0.097,0.31-0.097H123.813z"/>
<path fill="#FFFFFF" stroke="#000000" stroke-miterlimit="10" d="M129.247,66.641c-0.05,0.079-0.102,0.135-0.156,0.167
	c-0.055,0.032-0.125,0.049-0.209,0.049c-0.09,0-0.186-0.025-0.288-0.074c-0.102-0.05-0.22-0.105-0.355-0.167
	c-0.134-0.063-0.287-0.118-0.459-0.167c-0.171-0.05-0.374-0.074-0.608-0.074c-0.363,0-0.648,0.076-0.855,0.229
	c-0.206,0.153-0.309,0.354-0.309,0.602c0,0.163,0.053,0.301,0.16,0.412s0.249,0.209,0.426,0.293c0.176,0.084,0.377,0.159,0.6,0.227
	c0.225,0.065,0.452,0.14,0.684,0.219c0.231,0.079,0.459,0.17,0.682,0.271c0.224,0.102,0.424,0.23,0.601,0.387
	c0.177,0.155,0.318,0.342,0.426,0.56c0.106,0.218,0.16,0.48,0.16,0.787c0,0.366-0.065,0.704-0.197,1.013
	c-0.132,0.31-0.327,0.577-0.586,0.802c-0.259,0.226-0.579,0.401-0.959,0.527c-0.381,0.126-0.821,0.189-1.318,0.189
	c-0.263,0-0.521-0.024-0.772-0.071c-0.252-0.047-0.493-0.112-0.725-0.196c-0.231-0.084-0.445-0.183-0.641-0.297
	c-0.197-0.114-0.369-0.237-0.519-0.371l0.425-0.697c0.055-0.085,0.12-0.148,0.194-0.193c0.076-0.045,0.169-0.066,0.285-0.066
	c0.114,0,0.222,0.032,0.324,0.096c0.101,0.064,0.219,0.134,0.354,0.208c0.135,0.074,0.292,0.144,0.474,0.208
	c0.182,0.064,0.412,0.097,0.69,0.097c0.22,0,0.408-0.026,0.564-0.078c0.157-0.052,0.286-0.12,0.388-0.204s0.177-0.182,0.224-0.293
	c0.048-0.111,0.071-0.227,0.071-0.346c0-0.178-0.053-0.323-0.161-0.438c-0.106-0.114-0.248-0.213-0.425-0.297
	c-0.176-0.084-0.378-0.159-0.604-0.227c-0.227-0.066-0.458-0.14-0.694-0.219c-0.237-0.079-0.468-0.172-0.695-0.278
	c-0.226-0.107-0.427-0.241-0.604-0.404c-0.177-0.163-0.319-0.364-0.426-0.602c-0.106-0.237-0.16-0.524-0.16-0.86
	c0-0.313,0.062-0.609,0.186-0.891c0.124-0.282,0.308-0.528,0.549-0.739c0.241-0.21,0.542-0.378,0.904-0.505
	c0.36-0.126,0.777-0.188,1.25-0.188c0.527,0,1.007,0.086,1.44,0.26c0.433,0.173,0.794,0.4,1.082,0.683L129.247,66.641z"/>
<path fill="#FFFFFF" stroke="#000000" stroke-miterlimit="10" d="M133.688,72.891c-0.667,0-1.179-0.188-1.534-0.561
	c-0.356-0.374-0.534-0.89-0.534-1.548v-4.253h-0.784c-0.099,0-0.184-0.032-0.253-0.096c-0.07-0.064-0.105-0.161-0.105-0.29v-0.728
	l1.231-0.2l0.389-2.078c0.025-0.099,0.071-0.176,0.142-0.23c0.069-0.054,0.159-0.081,0.268-0.081h0.955v2.397h2.045v1.306h-2.045
	v4.127c0,0.237,0.059,0.422,0.176,0.557c0.117,0.134,0.278,0.2,0.482,0.2c0.114,0,0.21-0.014,0.287-0.041
	c0.077-0.026,0.144-0.056,0.201-0.086c0.058-0.028,0.108-0.058,0.153-0.084c0.045-0.027,0.09-0.041,0.135-0.041
	c0.055,0,0.1,0.014,0.134,0.041c0.035,0.026,0.072,0.067,0.112,0.122l0.553,0.891c-0.27,0.223-0.578,0.391-0.926,0.505
	C134.421,72.833,134.062,72.891,133.688,72.891"/>
<path fill="#FFFFFF" stroke="#000000" stroke-miterlimit="10" d="M138.046,69.194c0.03,0.391,0.1,0.729,0.209,1.013
	c0.11,0.285,0.254,0.52,0.433,0.705c0.18,0.186,0.392,0.324,0.639,0.416c0.246,0.092,0.518,0.137,0.817,0.137
	c0.298,0,0.556-0.034,0.772-0.104s0.406-0.146,0.567-0.23c0.162-0.084,0.304-0.16,0.426-0.229c0.122-0.069,0.24-0.104,0.354-0.104
	c0.154,0,0.269,0.058,0.344,0.171l0.529,0.668c-0.204,0.237-0.432,0.437-0.686,0.599c-0.254,0.16-0.519,0.288-0.795,0.385
	c-0.277,0.097-0.557,0.165-0.843,0.204c-0.286,0.04-0.563,0.06-0.833,0.06c-0.532,0-1.027-0.088-1.485-0.264
	c-0.457-0.176-0.856-0.436-1.194-0.779c-0.339-0.344-0.605-0.77-0.799-1.276s-0.291-1.095-0.291-1.763
	c0-0.52,0.084-1.008,0.254-1.466c0.169-0.458,0.411-0.856,0.728-1.195c0.315-0.339,0.701-0.607,1.156-0.805
	c0.456-0.198,0.97-0.297,1.542-0.297c0.483,0,0.928,0.076,1.336,0.229c0.408,0.153,0.759,0.378,1.052,0.672
	c0.294,0.295,0.524,0.656,0.69,1.084c0.167,0.428,0.25,0.916,0.25,1.466c0,0.277-0.029,0.464-0.089,0.561
	c-0.059,0.096-0.174,0.145-0.343,0.145H138.046z M141.563,68.088c0-0.237-0.034-0.461-0.101-0.671
	c-0.067-0.211-0.168-0.395-0.302-0.554c-0.135-0.158-0.305-0.283-0.512-0.374c-0.206-0.092-0.446-0.138-0.72-0.138
	c-0.532,0-0.952,0.151-1.258,0.453c-0.305,0.302-0.501,0.729-0.586,1.283H141.563z"/>
<path fill="#FFFFFF" stroke="#000000" stroke-miterlimit="10" d="M144.6,72.771v-7.615h1.127c0.239,0,0.395,0.111,0.471,0.334
	l0.119,0.564c0.135-0.148,0.275-0.284,0.422-0.408c0.146-0.124,0.303-0.23,0.469-0.319c0.167-0.089,0.346-0.159,0.538-0.212
	c0.192-0.052,0.402-0.077,0.631-0.077c0.483,0,0.879,0.13,1.191,0.39c0.31,0.26,0.543,0.604,0.697,1.035
	c0.12-0.252,0.269-0.469,0.448-0.649c0.179-0.181,0.375-0.328,0.59-0.441c0.214-0.114,0.442-0.198,0.683-0.253
	c0.241-0.054,0.483-0.081,0.727-0.081c0.423,0,0.799,0.064,1.127,0.192c0.328,0.129,0.605,0.317,0.829,0.564
	c0.224,0.248,0.394,0.549,0.511,0.905c0.117,0.356,0.176,0.765,0.176,1.225v4.847h-1.844v-4.847c0-0.484-0.107-0.85-0.321-1.095
	c-0.214-0.245-0.528-0.367-0.941-0.367c-0.188,0-0.364,0.032-0.526,0.097c-0.161,0.064-0.303,0.157-0.425,0.278
	c-0.122,0.122-0.218,0.273-0.287,0.456c-0.07,0.184-0.104,0.394-0.104,0.631v4.847h-1.852v-4.847c0-0.51-0.103-0.881-0.31-1.113
	s-0.508-0.349-0.907-0.349c-0.268,0-0.518,0.065-0.75,0.196c-0.231,0.132-0.446,0.311-0.645,0.538v5.574H144.6z"/>
<path fill="#FFFFFF" stroke="#000000" stroke-miterlimit="10" d="M161.774,66.641c-0.05,0.079-0.103,0.135-0.157,0.167
	c-0.055,0.032-0.124,0.049-0.209,0.049c-0.09,0-0.186-0.025-0.287-0.074c-0.103-0.05-0.221-0.105-0.355-0.167
	c-0.135-0.063-0.287-0.118-0.459-0.167c-0.172-0.05-0.375-0.074-0.608-0.074c-0.363,0-0.649,0.076-0.855,0.229
	c-0.207,0.153-0.309,0.354-0.309,0.602c0,0.163,0.052,0.301,0.16,0.412c0.106,0.111,0.249,0.209,0.426,0.293
	c0.175,0.084,0.377,0.159,0.6,0.227c0.224,0.065,0.451,0.14,0.683,0.219c0.231,0.079,0.459,0.17,0.683,0.271
	c0.224,0.102,0.424,0.23,0.601,0.387c0.177,0.155,0.318,0.342,0.425,0.56s0.161,0.48,0.161,0.787c0,0.366-0.066,0.704-0.198,1.013
	c-0.132,0.31-0.327,0.577-0.586,0.802c-0.259,0.226-0.578,0.401-0.959,0.527c-0.381,0.126-0.82,0.189-1.318,0.189
	c-0.263,0-0.521-0.024-0.772-0.071s-0.492-0.112-0.724-0.196c-0.231-0.084-0.445-0.183-0.642-0.297
	c-0.197-0.114-0.369-0.237-0.519-0.371l0.426-0.697c0.055-0.085,0.119-0.148,0.194-0.193c0.075-0.045,0.169-0.066,0.284-0.066
	c0.114,0,0.222,0.032,0.325,0.096c0.101,0.064,0.219,0.134,0.354,0.208c0.134,0.074,0.292,0.144,0.474,0.208
	c0.182,0.064,0.411,0.097,0.69,0.097c0.219,0,0.407-0.026,0.564-0.078c0.156-0.052,0.286-0.12,0.387-0.204
	c0.103-0.084,0.177-0.182,0.225-0.293c0.047-0.111,0.07-0.227,0.07-0.346c0-0.178-0.053-0.323-0.16-0.438
	c-0.107-0.114-0.249-0.213-0.426-0.297c-0.176-0.084-0.377-0.159-0.604-0.227c-0.227-0.066-0.458-0.14-0.694-0.219
	c-0.237-0.079-0.468-0.172-0.694-0.278c-0.226-0.107-0.428-0.241-0.604-0.404c-0.177-0.163-0.32-0.364-0.426-0.602
	c-0.107-0.237-0.16-0.524-0.16-0.86c0-0.313,0.061-0.609,0.186-0.891c0.124-0.282,0.307-0.528,0.548-0.739
	c0.241-0.21,0.543-0.378,0.904-0.505c0.361-0.126,0.777-0.188,1.25-0.188c0.527,0,1.007,0.086,1.44,0.26
	c0.434,0.173,0.794,0.4,1.083,0.683L161.774,66.641z"/>
<rect x="167.581" y="62.039" fill="#FFFFFF" stroke="#000000" stroke-miterlimit="10" width="2.015" height="10.732"/>
<path fill="#FFFFFF" stroke="#000000" stroke-miterlimit="10" d="M173.328,66.092c0.154-0.153,0.317-0.296,0.488-0.427
	c0.172-0.131,0.354-0.242,0.545-0.334c0.192-0.092,0.398-0.163,0.616-0.216c0.219-0.052,0.458-0.077,0.717-0.077
	c0.418,0,0.788,0.07,1.112,0.211c0.324,0.142,0.593,0.339,0.81,0.594c0.216,0.255,0.38,0.56,0.492,0.913
	c0.113,0.354,0.168,0.743,0.168,1.169v4.847h-1.844v-4.847c0-0.465-0.106-0.825-0.32-1.08c-0.215-0.255-0.54-0.382-0.978-0.382
	c-0.319,0-0.618,0.071-0.896,0.215c-0.278,0.143-0.542,0.339-0.791,0.587v5.507h-1.844v-7.615h1.127c0.24,0,0.396,0.111,0.471,0.334
	L173.328,66.092z"/>
<path fill="#FFFFFF" stroke="#000000" stroke-miterlimit="10" d="M182.472,72.891c-0.667,0-1.179-0.188-1.534-0.561
	c-0.356-0.374-0.534-0.89-0.534-1.548v-4.253h-0.784c-0.099,0-0.184-0.032-0.253-0.096c-0.07-0.064-0.105-0.161-0.105-0.29v-0.728
	l1.231-0.2l0.389-2.078c0.025-0.099,0.071-0.176,0.142-0.23c0.069-0.054,0.159-0.081,0.268-0.081h0.955v2.397h2.045v1.306h-2.045
	v4.127c0,0.237,0.06,0.422,0.177,0.557c0.116,0.134,0.278,0.2,0.481,0.2c0.114,0,0.211-0.014,0.287-0.041
	c0.077-0.026,0.145-0.056,0.201-0.086c0.059-0.028,0.107-0.058,0.153-0.084c0.045-0.027,0.09-0.041,0.135-0.041
	c0.056,0,0.101,0.014,0.134,0.041c0.035,0.026,0.072,0.067,0.112,0.122l0.553,0.891c-0.271,0.223-0.577,0.391-0.926,0.505
	C183.205,72.833,182.845,72.891,182.472,72.891"/>
<path fill="#FFFFFF" stroke="#000000" stroke-miterlimit="10" d="M186.83,69.194c0.029,0.391,0.1,0.729,0.209,1.013
	c0.109,0.285,0.254,0.52,0.433,0.705c0.181,0.186,0.392,0.324,0.64,0.416c0.245,0.092,0.518,0.137,0.816,0.137
	c0.298,0,0.557-0.034,0.771-0.104c0.217-0.069,0.406-0.146,0.567-0.23c0.162-0.084,0.304-0.16,0.427-0.229
	c0.121-0.069,0.239-0.104,0.354-0.104c0.154,0,0.27,0.058,0.344,0.171l0.529,0.668c-0.204,0.237-0.432,0.437-0.686,0.599
	c-0.255,0.16-0.52,0.288-0.796,0.385s-0.557,0.165-0.843,0.204c-0.286,0.04-0.563,0.06-0.833,0.06c-0.532,0-1.026-0.088-1.485-0.264
	c-0.457-0.176-0.855-0.436-1.193-0.779c-0.34-0.344-0.605-0.77-0.799-1.276c-0.194-0.507-0.291-1.095-0.291-1.763
	c0-0.52,0.084-1.008,0.254-1.466c0.168-0.458,0.41-0.856,0.728-1.195c0.315-0.339,0.701-0.607,1.156-0.805
	c0.456-0.198,0.97-0.297,1.542-0.297c0.482,0,0.928,0.076,1.336,0.229s0.759,0.378,1.052,0.672c0.294,0.295,0.524,0.656,0.69,1.084
	c0.167,0.428,0.25,0.916,0.25,1.466c0,0.277-0.029,0.464-0.09,0.561c-0.059,0.096-0.174,0.145-0.342,0.145H186.83z M190.346,68.088
	c0-0.237-0.034-0.461-0.102-0.671c-0.066-0.211-0.168-0.395-0.301-0.554c-0.136-0.158-0.306-0.283-0.513-0.374
	c-0.206-0.092-0.446-0.138-0.72-0.138c-0.532,0-0.952,0.151-1.258,0.453s-0.502,0.729-0.586,1.283H190.346z"/>
<path fill="#FFFFFF" stroke="#000000" stroke-miterlimit="10" d="M200.101,65.416v0.683c0,0.219-0.132,0.352-0.396,0.401
	l-0.687,0.126c0.104,0.263,0.156,0.55,0.156,0.861c0,0.376-0.076,0.716-0.228,1.02c-0.151,0.305-0.362,0.563-0.631,0.776
	s-0.586,0.377-0.951,0.493c-0.366,0.116-0.761,0.175-1.184,0.175c-0.149,0-0.293-0.008-0.434-0.022
	c-0.139-0.015-0.275-0.034-0.41-0.06c-0.238,0.144-0.357,0.305-0.357,0.482c0,0.153,0.07,0.267,0.213,0.338
	c0.141,0.072,0.329,0.123,0.563,0.151c0.233,0.03,0.5,0.049,0.798,0.057c0.299,0.008,0.605,0.023,0.919,0.048
	c0.313,0.025,0.619,0.068,0.918,0.13c0.298,0.063,0.564,0.16,0.798,0.294c0.234,0.133,0.422,0.315,0.563,0.545
	c0.143,0.23,0.213,0.526,0.213,0.887c0,0.337-0.083,0.663-0.25,0.98c-0.167,0.316-0.408,0.599-0.724,0.846
	c-0.316,0.247-0.705,0.446-1.165,0.598c-0.46,0.15-0.983,0.227-1.57,0.227c-0.577,0-1.08-0.056-1.509-0.167
	c-0.426-0.111-0.783-0.26-1.066-0.445c-0.284-0.186-0.495-0.4-0.635-0.643c-0.139-0.242-0.209-0.494-0.209-0.757
	c0-0.356,0.109-0.654,0.324-0.895c0.217-0.24,0.515-0.432,0.893-0.575c-0.204-0.104-0.365-0.242-0.485-0.415
	c-0.118-0.174-0.179-0.401-0.179-0.684c0-0.114,0.02-0.23,0.063-0.353c0.043-0.121,0.105-0.241,0.188-0.359
	c0.082-0.119,0.186-0.231,0.311-0.338c0.123-0.106,0.271-0.201,0.439-0.286c-0.389-0.207-0.693-0.484-0.914-0.831
	c-0.223-0.346-0.332-0.752-0.332-1.217c0-0.376,0.075-0.717,0.227-1.021c0.152-0.304,0.364-0.563,0.635-0.778
	c0.271-0.216,0.593-0.38,0.963-0.494c0.371-0.113,0.775-0.171,1.213-0.171c0.329,0,0.637,0.034,0.926,0.101
	c0.288,0.066,0.553,0.165,0.791,0.293H200.101z M198.265,73.113c0-0.148-0.045-0.271-0.135-0.364s-0.212-0.167-0.365-0.219
	c-0.154-0.052-0.335-0.09-0.541-0.115c-0.207-0.024-0.426-0.043-0.657-0.056c-0.231-0.012-0.471-0.023-0.717-0.033
	s-0.486-0.029-0.721-0.06c-0.203,0.114-0.369,0.248-0.496,0.401s-0.19,0.331-0.19,0.534c0,0.134,0.034,0.259,0.101,0.375
	c0.067,0.116,0.175,0.216,0.322,0.3c0.146,0.085,0.336,0.15,0.57,0.197c0.232,0.047,0.52,0.07,0.858,0.07
	c0.344,0,0.64-0.026,0.888-0.078c0.249-0.052,0.454-0.123,0.616-0.215s0.279-0.2,0.354-0.327
	C198.227,73.398,198.265,73.262,198.265,73.113 M196.182,68.778c0.229,0,0.428-0.03,0.598-0.093c0.169-0.062,0.31-0.147,0.422-0.256
	c0.111-0.108,0.196-0.24,0.252-0.394c0.059-0.154,0.087-0.321,0.087-0.505c0-0.376-0.113-0.674-0.339-0.894
	c-0.227-0.221-0.566-0.331-1.02-0.331c-0.452,0-0.792,0.11-1.02,0.331c-0.226,0.22-0.338,0.518-0.338,0.894
	c0,0.179,0.028,0.345,0.086,0.498c0.057,0.153,0.141,0.285,0.252,0.396c0.113,0.111,0.254,0.198,0.426,0.26
	C195.76,68.748,195.957,68.778,196.182,68.778"/>
<path fill="#FFFFFF" stroke="#000000" stroke-miterlimit="10" d="M203.004,66.478c0.239-0.455,0.522-0.813,0.851-1.072
	c0.329-0.26,0.717-0.39,1.165-0.39c0.353,0,0.637,0.076,0.851,0.229l-0.119,1.374c-0.025,0.088-0.062,0.151-0.108,0.188
	c-0.048,0.037-0.111,0.056-0.19,0.056c-0.075,0-0.186-0.012-0.332-0.037c-0.147-0.024-0.29-0.037-0.43-0.037
	c-0.204,0-0.386,0.03-0.545,0.09c-0.159,0.059-0.302,0.145-0.429,0.256s-0.239,0.246-0.336,0.404s-0.188,0.339-0.273,0.542v4.69
	h-1.843v-7.615h1.082c0.189,0,0.321,0.033,0.396,0.101c0.073,0.066,0.124,0.187,0.148,0.359L203.004,66.478z"/>
<path fill="#FFFFFF" stroke="#000000" stroke-miterlimit="10" d="M206.557,66.218c0.881-0.802,1.94-1.202,3.18-1.202
	c0.448,0,0.849,0.073,1.202,0.219c0.353,0.146,0.651,0.348,0.896,0.608c0.243,0.26,0.428,0.57,0.556,0.932
	c0.127,0.361,0.19,0.757,0.19,1.188v4.81h-0.836c-0.174,0-0.309-0.026-0.403-0.078c-0.094-0.052-0.169-0.157-0.224-0.315
	l-0.164-0.549c-0.194,0.173-0.383,0.325-0.568,0.456c-0.183,0.131-0.375,0.241-0.573,0.33c-0.199,0.09-0.412,0.157-0.639,0.204
	s-0.477,0.071-0.75,0.071c-0.323,0-0.622-0.044-0.896-0.13c-0.273-0.087-0.511-0.217-0.709-0.39
	c-0.199-0.174-0.354-0.389-0.463-0.646c-0.109-0.257-0.164-0.557-0.164-0.897c0-0.193,0.032-0.385,0.097-0.575
	s0.171-0.372,0.317-0.546c0.146-0.173,0.337-0.336,0.571-0.489c0.233-0.153,0.521-0.287,0.861-0.401
	c0.341-0.113,0.738-0.206,1.19-0.278c0.453-0.071,0.971-0.115,1.553-0.13v-0.445c0-0.51-0.109-0.887-0.328-1.132
	s-0.535-0.367-0.948-0.367c-0.298,0-0.546,0.034-0.743,0.104c-0.196,0.069-0.369,0.147-0.518,0.234
	c-0.15,0.086-0.285,0.164-0.407,0.233s-0.258,0.104-0.407,0.104c-0.129,0-0.238-0.034-0.328-0.101
	c-0.091-0.066-0.161-0.145-0.217-0.233L206.557,66.218z M210.781,69.521c-0.532,0.025-0.98,0.07-1.344,0.138
	c-0.363,0.066-0.654,0.152-0.873,0.256c-0.22,0.104-0.376,0.226-0.471,0.363c-0.094,0.139-0.142,0.29-0.142,0.453
	c0,0.321,0.097,0.552,0.288,0.69s0.441,0.208,0.75,0.208c0.378,0,0.705-0.068,0.98-0.204c0.277-0.137,0.547-0.343,0.811-0.62V69.521
	z"/>
<path fill="#FFFFFF" stroke="#000000" stroke-miterlimit="10" d="M221.933,72.771h-1.844v-6.242h-3.553v4.127
	c0,0.237,0.059,0.423,0.176,0.557s0.277,0.2,0.481,0.2c0.114,0,0.21-0.014,0.287-0.041s0.145-0.056,0.201-0.085
	c0.058-0.029,0.108-0.059,0.153-0.085c0.045-0.027,0.09-0.041,0.135-0.041c0.056,0,0.1,0.014,0.134,0.041
	c0.035,0.026,0.072,0.067,0.112,0.122l0.553,0.891c-0.27,0.223-0.578,0.391-0.926,0.505c-0.349,0.113-0.709,0.171-1.082,0.171
	c-0.667,0-1.179-0.188-1.534-0.561c-0.355-0.374-0.535-0.89-0.535-1.548v-4.253h-0.782c-0.1,0-0.185-0.032-0.254-0.096
	c-0.069-0.064-0.104-0.161-0.104-0.29v-0.728l1.231-0.208l0.389-2.071c0.024-0.098,0.071-0.175,0.142-0.229
	c0.069-0.054,0.159-0.081,0.269-0.081h0.955v2.397h5.396V72.771z M222.254,62.907c0,0.159-0.032,0.309-0.098,0.449
	c-0.064,0.142-0.15,0.264-0.256,0.367c-0.108,0.104-0.235,0.188-0.382,0.249s-0.303,0.093-0.467,0.093
	c-0.159,0-0.309-0.031-0.447-0.093c-0.14-0.062-0.262-0.145-0.366-0.249c-0.104-0.104-0.188-0.226-0.25-0.367
	c-0.063-0.141-0.093-0.29-0.093-0.449c0-0.163,0.03-0.315,0.093-0.456s0.146-0.265,0.25-0.371s0.227-0.19,0.366-0.252
	c0.139-0.063,0.288-0.093,0.447-0.093c0.164,0,0.32,0.03,0.467,0.093c0.146,0.062,0.273,0.146,0.382,0.252
	c0.105,0.106,0.191,0.23,0.256,0.371C222.222,62.592,222.254,62.744,222.254,62.907"/>
<path fill="#FFFFFF" stroke="#000000" stroke-miterlimit="10" d="M227.202,65.038c0.567,0,1.084,0.091,1.549,0.274
	c0.465,0.183,0.863,0.442,1.194,0.779s0.586,0.747,0.765,1.232c0.18,0.484,0.269,1.026,0.269,1.625c0,0.604-0.089,1.147-0.269,1.633
	c-0.179,0.485-0.434,0.898-0.765,1.239c-0.331,0.342-0.729,0.604-1.194,0.787c-0.465,0.183-0.981,0.274-1.549,0.274
	c-0.572,0-1.092-0.092-1.56-0.274c-0.468-0.184-0.867-0.445-1.198-0.787c-0.331-0.341-0.587-0.754-0.769-1.239
	s-0.272-1.029-0.272-1.633c0-0.599,0.091-1.141,0.272-1.625c0.182-0.485,0.438-0.896,0.769-1.232s0.73-0.597,1.198-0.779
	C226.11,65.129,226.63,65.038,227.202,65.038 M227.202,71.473c0.637,0,1.108-0.213,1.414-0.639c0.307-0.424,0.459-1.048,0.459-1.87
	c0-0.821-0.152-1.447-0.459-1.878c-0.306-0.43-0.777-0.646-1.414-0.646c-0.646,0-1.126,0.217-1.438,0.649
	c-0.311,0.434-0.466,1.058-0.466,1.874s0.155,1.438,0.466,1.867C226.076,71.259,226.556,71.473,227.202,71.473"/>
<path fill="#FFFFFF" stroke="#000000" stroke-miterlimit="10" d="M234.113,66.092c0.154-0.153,0.317-0.296,0.489-0.427
	s0.354-0.242,0.545-0.334s0.396-0.163,0.615-0.216c0.219-0.052,0.458-0.077,0.717-0.077c0.418,0,0.789,0.07,1.112,0.211
	c0.323,0.142,0.593,0.339,0.81,0.594s0.381,0.56,0.493,0.913c0.111,0.354,0.168,0.743,0.168,1.169v4.847h-1.844v-4.847
	c0-0.465-0.107-0.825-0.321-1.08s-0.54-0.382-0.978-0.382c-0.318,0-0.617,0.071-0.896,0.215c-0.279,0.143-0.543,0.339-0.791,0.587
	v5.507h-1.844v-7.615h1.127c0.238,0,0.396,0.111,0.47,0.334L234.113,66.092z"/>
<path fill="#FFFFFF" stroke="#000000" stroke-miterlimit="10" d="M175.877,30.824c-0.173,0.303-0.356,0.522-0.551,0.659
	c-0.195,0.137-0.436,0.205-0.724,0.205c-0.302,0-0.63-0.111-0.983-0.335c-0.353-0.222-0.774-0.471-1.264-0.745
	c-0.49-0.273-1.063-0.521-1.718-0.745c-0.656-0.224-1.43-0.335-2.322-0.335c-0.807,0-1.513,0.097-2.119,0.291
	c-0.604,0.195-1.112,0.465-1.522,0.811c-0.411,0.345-0.717,0.759-0.919,1.242c-0.201,0.483-0.302,1.013-0.302,1.589
	c0,0.734,0.205,1.346,0.615,1.836c0.411,0.49,0.955,0.908,1.632,1.254c0.677,0.345,1.448,0.655,2.312,0.928
	c0.864,0.274,1.75,0.566,2.657,0.875c0.908,0.31,1.794,0.67,2.658,1.08c0.864,0.411,1.635,0.93,2.312,1.556
	c0.677,0.627,1.221,1.395,1.632,2.302c0.41,0.907,0.615,2.01,0.615,3.306c0,1.412-0.241,2.733-0.724,3.965
	c-0.482,1.231-1.188,2.305-2.117,3.22c-0.929,0.915-2.064,1.635-3.403,2.16c-1.34,0.526-2.874,0.789-4.603,0.789
	c-0.993,0-1.974-0.098-2.938-0.292c-0.965-0.194-1.891-0.472-2.777-0.832c-0.885-0.359-1.718-0.792-2.495-1.296
	c-0.778-0.504-1.47-1.065-2.074-1.686l1.706-2.787c0.145-0.202,0.332-0.371,0.562-0.508c0.231-0.137,0.475-0.205,0.735-0.205
	c0.36,0,0.749,0.147,1.167,0.442c0.417,0.296,0.914,0.624,1.49,0.983c0.576,0.36,1.25,0.688,2.021,0.983
	c0.77,0.295,1.696,0.442,2.776,0.442c1.656,0,2.938-0.392,3.847-1.177c0.907-0.785,1.361-1.914,1.361-3.382
	c0-0.821-0.206-1.491-0.616-2.01c-0.41-0.519-0.954-0.954-1.631-1.307c-0.678-0.354-1.448-0.652-2.313-0.897
	c-0.864-0.244-1.743-0.511-2.635-0.799c-0.894-0.288-1.772-0.634-2.637-1.037c-0.864-0.403-1.635-0.93-2.312-1.578
	c-0.676-0.648-1.22-1.458-1.63-2.431c-0.412-0.972-0.617-2.171-0.617-3.598c0-1.137,0.227-2.247,0.681-3.327
	s1.112-2.038,1.977-2.874c0.864-0.835,1.93-1.505,3.198-2.008c1.267-0.505,2.722-0.757,4.364-0.757c1.844,0,3.544,0.288,5.1,0.864
	c1.555,0.576,2.881,1.383,3.975,2.42L175.877,30.824z"/>
<rect x="182.941" y="25.142" fill="#FFFFFF" stroke="#000000" stroke-miterlimit="10" width="5.834" height="31.244"/>
<g>
</g>
<g>
</g>
<g>
</g>
<g>
</g>
<g>
</g>
<g>
</g>
<g>
</g>
<g>
</g>
<g>
</g>
<g>
</g>
<g>
</g>
<g>
</g>
<g>
</g>
<g>
</g>
<g>
</g>
</svg>
