<?xml version="1.0" encoding="utf-8"?>
<!-- Generator: Adobe Illustrator 16.0.0, SVG Export Plug-In . SVG Version: 6.00 Build 0)  -->
<!DOCTYPE svg PUBLIC "-//W3C//DTD SVG 1.1//EN" "http://www.w3.org/Graphics/SVG/1.1/DTD/svg11.dtd">
<svg version="1.1" id="레이어_1" xmlns="http://www.w3.org/2000/svg" xmlns:xlink="http://www.w3.org/1999/xlink" x="0px"
	 y="0px" width="362px" height="136px" viewBox="0 0 362 136" enable-background="new 0 0 362 136" xml:space="preserve">
<path fill="#FFFFFF" stroke="#000000" stroke-miterlimit="10" d="M105.298,70.591c0.388,0,0.735-0.064,1.041-0.193
	s0.563-0.309,0.772-0.542c0.209-0.232,0.37-0.515,0.482-0.846c0.112-0.331,0.168-0.702,0.168-1.113v-6.428h2.008v6.428
	c0,0.639-0.104,1.229-0.31,1.771c-0.207,0.541-0.503,1.009-0.889,1.402c-0.385,0.394-0.854,0.7-1.407,0.92
	c-0.552,0.221-1.174,0.33-1.865,0.33c-0.697,0-1.321-0.109-1.874-0.33c-0.552-0.22-1.022-0.526-1.406-0.92
	c-0.386-0.394-0.682-0.861-0.889-1.402c-0.206-0.542-0.31-1.132-0.31-1.771v-6.428h2.008v6.42c0,0.411,0.056,0.782,0.168,1.113
	c0.113,0.332,0.274,0.615,0.486,0.851c0.211,0.234,0.469,0.416,0.776,0.545C104.563,70.526,104.909,70.591,105.298,70.591"/>
<path fill="#FFFFFF" stroke="#000000" stroke-miterlimit="10" d="M113.239,65.907c0.239-0.455,0.522-0.813,0.852-1.072
	c0.328-0.26,0.715-0.39,1.164-0.39c0.353,0,0.636,0.076,0.85,0.229l-0.119,1.374c-0.025,0.088-0.061,0.151-0.108,0.188
	c-0.047,0.037-0.111,0.056-0.191,0.056c-0.074,0-0.185-0.012-0.332-0.037c-0.146-0.024-0.29-0.037-0.429-0.037
	c-0.204,0-0.385,0.03-0.544,0.09c-0.16,0.059-0.303,0.145-0.43,0.256s-0.238,0.246-0.336,0.404
	c-0.097,0.158-0.188,0.339-0.273,0.542v4.69H111.5v-7.615h1.083c0.188,0,0.32,0.033,0.395,0.101c0.074,0.066,0.124,0.187,0.15,0.359
	L113.239,65.907z"/>
<path fill="#FFFFFF" stroke="#000000" stroke-miterlimit="10" d="M120.239,64.468c0.567,0,1.084,0.091,1.549,0.274
	c0.466,0.182,0.863,0.442,1.194,0.779s0.586,0.747,0.766,1.232c0.179,0.484,0.268,1.026,0.268,1.625
	c0,0.604-0.089,1.147-0.268,1.633c-0.18,0.485-0.435,0.898-0.766,1.239c-0.331,0.342-0.728,0.604-1.194,0.787
	c-0.465,0.183-0.982,0.274-1.549,0.274c-0.572,0-1.092-0.092-1.56-0.274c-0.467-0.184-0.867-0.445-1.198-0.787
	c-0.331-0.341-0.587-0.754-0.768-1.239c-0.182-0.485-0.273-1.029-0.273-1.633c0-0.599,0.091-1.141,0.273-1.625
	c0.181-0.485,0.437-0.896,0.768-1.232s0.731-0.598,1.198-0.779C119.147,64.559,119.667,64.468,120.239,64.468 M120.239,70.902
	c0.638,0,1.108-0.213,1.415-0.639c0.306-0.425,0.459-1.049,0.459-1.87s-0.153-1.447-0.459-1.878
	c-0.307-0.43-0.777-0.646-1.415-0.646c-0.646,0-1.126,0.217-1.437,0.649c-0.31,0.434-0.466,1.058-0.466,1.874
	s0.156,1.438,0.466,1.867C119.113,70.688,119.593,70.902,120.239,70.902"/>
<rect x="125.449" y="61.172" fill="#FFFFFF" stroke="#000000" stroke-miterlimit="10" width="1.844" height="11.029"/>
<path fill="#FFFFFF" stroke="#000000" stroke-miterlimit="10" d="M132.524,64.468c0.567,0,1.084,0.091,1.549,0.274
	c0.466,0.182,0.863,0.442,1.194,0.779s0.586,0.747,0.766,1.232c0.179,0.484,0.268,1.026,0.268,1.625
	c0,0.604-0.089,1.147-0.268,1.633c-0.18,0.485-0.435,0.898-0.766,1.239c-0.331,0.342-0.728,0.604-1.194,0.787
	c-0.465,0.183-0.982,0.274-1.549,0.274c-0.572,0-1.092-0.092-1.56-0.274c-0.467-0.184-0.867-0.445-1.198-0.787
	c-0.331-0.341-0.587-0.754-0.768-1.239c-0.182-0.485-0.273-1.029-0.273-1.633c0-0.599,0.091-1.141,0.273-1.625
	c0.181-0.485,0.437-0.896,0.768-1.232c0.331-0.337,0.731-0.598,1.198-0.779C131.433,64.559,131.952,64.468,132.524,64.468
	 M132.524,70.902c0.638,0,1.108-0.213,1.415-0.639c0.306-0.425,0.459-1.049,0.459-1.87s-0.153-1.447-0.459-1.878
	c-0.307-0.43-0.777-0.646-1.415-0.646c-0.646,0-1.126,0.217-1.437,0.649c-0.31,0.434-0.466,1.058-0.466,1.874
	s0.156,1.438,0.466,1.867C131.398,70.688,131.878,70.902,132.524,70.902"/>
<path fill="#FFFFFF" stroke="#000000" stroke-miterlimit="10" d="M144.37,64.846v0.683c0,0.219-0.132,0.352-0.396,0.401
	l-0.686,0.126c0.104,0.263,0.156,0.55,0.156,0.861c0,0.376-0.075,0.716-0.227,1.02c-0.152,0.305-0.362,0.563-0.631,0.776
	s-0.586,0.377-0.951,0.493c-0.367,0.116-0.76,0.175-1.183,0.175c-0.149,0-0.294-0.008-0.434-0.022
	c-0.138-0.015-0.276-0.034-0.41-0.06c-0.239,0.144-0.358,0.305-0.358,0.482c0,0.153,0.071,0.267,0.213,0.338
	c0.141,0.072,0.329,0.123,0.563,0.152c0.234,0.029,0.5,0.048,0.799,0.056c0.298,0.008,0.605,0.023,0.918,0.048
	c0.313,0.025,0.619,0.068,0.918,0.13c0.299,0.063,0.564,0.16,0.799,0.294c0.233,0.133,0.422,0.315,0.563,0.545
	c0.142,0.23,0.213,0.526,0.213,0.887c0,0.337-0.084,0.663-0.25,0.98c-0.167,0.316-0.408,0.599-0.724,0.846s-0.705,0.446-1.164,0.598
	c-0.461,0.15-0.985,0.227-1.572,0.227c-0.577,0-1.08-0.056-1.508-0.167c-0.427-0.111-0.783-0.26-1.067-0.445
	c-0.283-0.186-0.495-0.4-0.634-0.643c-0.139-0.242-0.209-0.494-0.209-0.757c0-0.356,0.108-0.654,0.324-0.895
	c0.217-0.24,0.514-0.432,0.892-0.575c-0.204-0.104-0.365-0.242-0.484-0.415c-0.12-0.174-0.18-0.401-0.18-0.684
	c0-0.114,0.021-0.23,0.063-0.353c0.042-0.121,0.105-0.241,0.187-0.359c0.082-0.119,0.186-0.231,0.31-0.338
	c0.125-0.106,0.271-0.201,0.44-0.286c-0.388-0.207-0.692-0.484-0.914-0.831c-0.222-0.346-0.332-0.752-0.332-1.217
	c0-0.376,0.075-0.717,0.227-1.021c0.152-0.305,0.364-0.564,0.635-0.779c0.271-0.216,0.592-0.38,0.963-0.494
	c0.37-0.113,0.775-0.171,1.213-0.171c0.328,0,0.637,0.034,0.925,0.101c0.289,0.066,0.553,0.165,0.791,0.293H144.37z M142.534,72.543
	c0-0.148-0.045-0.271-0.135-0.364c-0.089-0.094-0.211-0.167-0.365-0.219c-0.154-0.052-0.335-0.09-0.541-0.115
	c-0.207-0.024-0.426-0.043-0.657-0.056c-0.232-0.012-0.47-0.023-0.717-0.033c-0.246-0.01-0.486-0.029-0.72-0.06
	c-0.204,0.114-0.369,0.248-0.496,0.401c-0.127,0.153-0.19,0.331-0.19,0.534c0,0.134,0.033,0.259,0.1,0.375
	c0.068,0.116,0.174,0.216,0.322,0.3c0.146,0.085,0.337,0.15,0.57,0.197c0.234,0.047,0.52,0.07,0.858,0.07
	c0.344,0,0.64-0.026,0.889-0.078c0.248-0.052,0.454-0.123,0.615-0.215c0.162-0.092,0.281-0.2,0.355-0.327
	C142.497,72.828,142.534,72.691,142.534,72.543 M140.452,68.208c0.229,0,0.428-0.03,0.597-0.093
	c0.169-0.062,0.309-0.147,0.422-0.256c0.111-0.108,0.196-0.24,0.253-0.394c0.057-0.154,0.086-0.321,0.086-0.505
	c0-0.376-0.113-0.674-0.339-0.894c-0.227-0.221-0.567-0.331-1.019-0.331c-0.453,0-0.793,0.11-1.02,0.331
	c-0.226,0.22-0.338,0.518-0.338,0.894c0,0.179,0.028,0.345,0.085,0.498s0.142,0.285,0.253,0.396c0.113,0.111,0.254,0.198,0.426,0.26
	C140.03,68.178,140.227,68.208,140.452,68.208"/>
<path fill="#FFFFFF" stroke="#000000" stroke-miterlimit="10" d="M152.491,64.586l-4.173,9.708
	c-0.055,0.129-0.125,0.227-0.213,0.293c-0.088,0.067-0.219,0.101-0.398,0.101h-1.374l1.433-3.058l-3.097-7.044h1.619
	c0.144,0,0.258,0.035,0.34,0.104c0.082,0.07,0.143,0.149,0.182,0.238l1.627,3.948c0.056,0.134,0.102,0.268,0.139,0.401
	c0.037,0.133,0.073,0.27,0.107,0.408c0.045-0.139,0.09-0.276,0.135-0.413c0.045-0.136,0.095-0.271,0.15-0.403l1.537-3.941
	c0.039-0.099,0.105-0.181,0.197-0.245s0.195-0.097,0.309-0.097H152.491z"/>
<path fill="#FFFFFF" stroke="#000000" stroke-miterlimit="10" d="M166.508,72.201h-1.807c-0.189,0-0.342-0.022-0.459-0.066
	c-0.117-0.045-0.24-0.14-0.369-0.282l-0.746-0.765c-0.474,0.386-1.004,0.688-1.591,0.905s-1.222,0.327-1.903,0.327
	c-0.414,0-0.819-0.071-1.22-0.212c-0.401-0.141-0.758-0.345-1.071-0.613c-0.313-0.267-0.566-0.589-0.758-0.968
	c-0.191-0.378-0.287-0.805-0.287-1.28c0-0.336,0.055-0.654,0.164-0.953c0.109-0.3,0.262-0.578,0.455-0.835
	c0.194-0.258,0.426-0.489,0.694-0.694s0.563-0.382,0.881-0.53c-0.269-0.371-0.463-0.734-0.582-1.088
	c-0.118-0.354-0.18-0.706-0.18-1.058c0-0.371,0.069-0.724,0.206-1.058s0.334-0.625,0.593-0.872c0.259-0.246,0.577-0.444,0.955-0.59
	c0.379-0.146,0.808-0.219,1.284-0.219c0.438,0,0.83,0.066,1.176,0.2s0.643,0.312,0.888,0.534c0.247,0.223,0.44,0.478,0.583,0.765
	c0.141,0.287,0.225,0.584,0.25,0.891l-1.172,0.245c-0.22,0.044-0.379-0.05-0.479-0.282c-0.045-0.129-0.103-0.251-0.174-0.367
	c-0.074-0.116-0.16-0.218-0.259-0.305c-0.1-0.087-0.216-0.156-0.351-0.208s-0.289-0.078-0.463-0.078
	c-0.209,0-0.396,0.036-0.559,0.108c-0.164,0.071-0.304,0.168-0.414,0.289c-0.113,0.121-0.199,0.263-0.259,0.423
	c-0.06,0.161-0.09,0.33-0.09,0.509c0,0.148,0.017,0.292,0.045,0.431c0.03,0.139,0.08,0.276,0.149,0.415
	c0.07,0.139,0.16,0.281,0.272,0.427c0.112,0.146,0.25,0.304,0.414,0.472l2.866,2.961c0.164-0.312,0.296-0.641,0.396-0.986
	c0.099-0.347,0.164-0.698,0.193-1.055c0.016-0.113,0.055-0.205,0.119-0.274s0.154-0.104,0.27-0.104h1.148
	c-0.005,0.653-0.1,1.276-0.283,1.87c-0.185,0.594-0.447,1.142-0.791,1.642L166.508,72.201z M159.319,67.184
	c-0.397,0.258-0.687,0.549-0.869,0.872c-0.183,0.324-0.272,0.672-0.272,1.043c0,0.273,0.047,0.518,0.142,0.735
	s0.224,0.401,0.385,0.553s0.351,0.267,0.567,0.349c0.216,0.082,0.445,0.122,0.691,0.122c0.437,0,0.836-0.067,1.2-0.204
	c0.363-0.136,0.691-0.325,0.985-0.567L159.319,67.184z"/>
<path fill="#FFFFFF" stroke="#000000" stroke-miterlimit="10" d="M180.277,66.82v4.342c-0.548,0.4-1.131,0.694-1.75,0.88
	c-0.62,0.186-1.283,0.278-1.989,0.278c-0.881,0-1.679-0.137-2.393-0.408c-0.714-0.272-1.323-0.651-1.828-1.136
	c-0.506-0.485-0.894-1.064-1.168-1.737s-0.411-1.407-0.411-2.204c0-0.807,0.132-1.546,0.395-2.219
	c0.265-0.673,0.64-1.252,1.125-1.737c0.484-0.484,1.073-0.86,1.765-1.128c0.692-0.268,1.468-0.4,2.329-0.4
	c0.438,0,0.847,0.034,1.228,0.104c0.382,0.069,0.734,0.165,1.06,0.286c0.326,0.121,0.623,0.269,0.893,0.441
	c0.268,0.173,0.516,0.363,0.738,0.571l-0.574,0.905c-0.09,0.144-0.207,0.231-0.352,0.264c-0.144,0.032-0.301-0.004-0.469-0.107
	c-0.164-0.094-0.328-0.188-0.494-0.282c-0.164-0.094-0.347-0.176-0.547-0.245c-0.203-0.069-0.429-0.126-0.681-0.171
	c-0.251-0.044-0.541-0.067-0.869-0.067c-0.532,0-1.014,0.09-1.444,0.269c-0.431,0.178-0.797,0.433-1.101,0.764
	c-0.304,0.332-0.538,0.73-0.702,1.195s-0.246,0.984-0.246,1.559c0,0.613,0.088,1.162,0.264,1.645
	c0.178,0.482,0.427,0.891,0.748,1.225c0.32,0.334,0.707,0.589,1.16,0.764c0.453,0.176,0.959,0.264,1.516,0.264
	c0.398,0,0.754-0.042,1.068-0.126c0.313-0.084,0.618-0.198,0.918-0.342v-1.944h-1.359c-0.131,0-0.23-0.036-0.303-0.107
	s-0.108-0.159-0.108-0.264V66.82H180.277z"/>
<path fill="#FFFFFF" stroke="#000000" stroke-miterlimit="10" d="M188.623,64.586l-4.173,9.708
	c-0.056,0.129-0.125,0.227-0.214,0.293c-0.086,0.067-0.219,0.101-0.397,0.101h-1.374l1.434-3.058l-3.098-7.044h1.619
	c0.145,0,0.258,0.035,0.34,0.104c0.082,0.07,0.143,0.149,0.182,0.238l1.629,3.948c0.055,0.134,0.101,0.268,0.138,0.401
	c0.037,0.133,0.073,0.27,0.108,0.408c0.045-0.139,0.088-0.276,0.134-0.413c0.045-0.136,0.095-0.271,0.149-0.403l1.539-3.941
	c0.038-0.099,0.104-0.181,0.196-0.245s0.194-0.097,0.31-0.097H188.623z"/>
<path fill="#FFFFFF" stroke="#000000" stroke-miterlimit="10" d="M191.265,65.521c0.153-0.153,0.317-0.296,0.489-0.427
	c0.171-0.131,0.353-0.242,0.545-0.334c0.191-0.092,0.396-0.163,0.615-0.216c0.219-0.052,0.457-0.077,0.717-0.077
	c0.418,0,0.787,0.07,1.113,0.211c0.322,0.142,0.592,0.339,0.809,0.594s0.381,0.56,0.492,0.913c0.112,0.354,0.168,0.743,0.168,1.169
	v4.847h-1.844v-4.847c0-0.465-0.106-0.825-0.32-1.08c-0.215-0.255-0.54-0.382-0.977-0.382c-0.32,0-0.619,0.071-0.897,0.215
	s-0.542,0.339-0.791,0.587v5.507h-1.845v-7.615h1.129c0.238,0,0.396,0.111,0.47,0.334L191.265,65.521z"/>
<path fill="#FFFFFF" stroke="#000000" stroke-miterlimit="10" d="M199.378,68.624c0.029,0.391,0.099,0.729,0.209,1.013
	c0.109,0.285,0.253,0.52,0.433,0.705c0.179,0.186,0.392,0.324,0.638,0.416c0.247,0.092,0.52,0.137,0.817,0.137
	c0.299,0,0.557-0.034,0.771-0.104c0.218-0.069,0.407-0.146,0.568-0.23c0.162-0.084,0.304-0.16,0.426-0.229s0.24-0.104,0.354-0.104
	c0.154,0,0.269,0.058,0.343,0.171l0.53,0.668c-0.204,0.237-0.433,0.437-0.687,0.599c-0.254,0.16-0.519,0.288-0.795,0.385
	s-0.558,0.165-0.844,0.204c-0.286,0.04-0.563,0.06-0.832,0.06c-0.532,0-1.027-0.088-1.485-0.264s-0.855-0.436-1.194-0.779
	c-0.338-0.344-0.604-0.77-0.798-1.276c-0.194-0.507-0.292-1.095-0.292-1.763c0-0.52,0.085-1.008,0.254-1.466
	s0.412-0.856,0.728-1.195c0.316-0.339,0.702-0.607,1.157-0.805c0.455-0.198,0.969-0.297,1.541-0.297
	c0.484,0,0.929,0.076,1.337,0.229c0.407,0.153,0.758,0.378,1.052,0.672c0.294,0.295,0.523,0.656,0.69,1.084s0.25,0.916,0.25,1.466
	c0,0.277-0.029,0.464-0.09,0.561c-0.06,0.096-0.174,0.145-0.343,0.145H199.378z M202.893,67.518c0-0.237-0.033-0.461-0.101-0.671
	c-0.067-0.211-0.168-0.395-0.302-0.554c-0.135-0.158-0.305-0.283-0.512-0.374c-0.206-0.092-0.446-0.138-0.72-0.138
	c-0.533,0-0.952,0.151-1.258,0.453c-0.307,0.302-0.502,0.729-0.586,1.283H202.893z"/>
<path fill="#FFFFFF" stroke="#000000" stroke-miterlimit="10" d="M211.417,66.197c-0.055,0.069-0.108,0.123-0.16,0.163
	c-0.053,0.039-0.129,0.06-0.228,0.06c-0.095,0-0.187-0.029-0.276-0.086s-0.197-0.121-0.321-0.192
	c-0.124-0.072-0.272-0.137-0.444-0.193c-0.171-0.057-0.384-0.085-0.638-0.085c-0.323,0-0.607,0.058-0.851,0.174
	c-0.244,0.116-0.447,0.283-0.608,0.501c-0.162,0.218-0.283,0.481-0.362,0.791c-0.08,0.309-0.119,0.659-0.119,1.05
	c0,0.405,0.043,0.767,0.131,1.084c0.087,0.316,0.212,0.582,0.376,0.798c0.165,0.215,0.363,0.378,0.598,0.489
	c0.233,0.111,0.497,0.167,0.791,0.167s0.531-0.036,0.713-0.107s0.335-0.151,0.459-0.237c0.124-0.087,0.232-0.166,0.324-0.237
	c0.093-0.072,0.195-0.108,0.311-0.108c0.149,0,0.261,0.058,0.336,0.171l0.529,0.668c-0.204,0.237-0.425,0.437-0.663,0.598
	c-0.24,0.161-0.487,0.289-0.743,0.386c-0.257,0.097-0.521,0.165-0.792,0.204c-0.271,0.04-0.541,0.06-0.81,0.06
	c-0.473,0-0.918-0.088-1.336-0.264s-0.783-0.432-1.097-0.768c-0.313-0.337-0.562-0.749-0.743-1.236s-0.271-1.043-0.271-1.666
	c0-0.56,0.08-1.077,0.241-1.555c0.162-0.478,0.399-0.891,0.713-1.24c0.313-0.349,0.702-0.622,1.165-0.819
	c0.463-0.198,0.995-0.296,1.597-0.296c0.572,0,1.074,0.09,1.504,0.273c0.431,0.184,0.817,0.445,1.161,0.786L211.417,66.197z"/>
<path fill="#FFFFFF" stroke="#000000" stroke-miterlimit="10" d="M216.38,64.468c0.567,0,1.084,0.091,1.549,0.274
	c0.466,0.182,0.863,0.442,1.194,0.779s0.586,0.747,0.766,1.232c0.18,0.484,0.269,1.026,0.269,1.625c0,0.604-0.089,1.147-0.269,1.633
	s-0.435,0.898-0.766,1.239c-0.331,0.342-0.729,0.604-1.194,0.787c-0.465,0.183-0.981,0.274-1.549,0.274
	c-0.572,0-1.092-0.092-1.56-0.274c-0.468-0.184-0.867-0.445-1.198-0.787c-0.331-0.341-0.587-0.754-0.769-1.239
	s-0.272-1.029-0.272-1.633c0-0.599,0.091-1.141,0.272-1.625c0.182-0.485,0.438-0.896,0.769-1.232s0.73-0.598,1.198-0.779
	C215.288,64.559,215.808,64.468,216.38,64.468 M216.38,70.902c0.638,0,1.108-0.213,1.415-0.639c0.306-0.425,0.459-1.049,0.459-1.87
	s-0.153-1.447-0.459-1.878c-0.307-0.43-0.777-0.646-1.415-0.646c-0.646,0-1.126,0.217-1.437,0.649
	c-0.311,0.434-0.467,1.058-0.467,1.874s0.156,1.438,0.467,1.867C215.254,70.688,215.734,70.902,216.38,70.902"/>
<rect x="221.59" y="61.172" fill="#FFFFFF" stroke="#000000" stroke-miterlimit="10" width="1.844" height="11.029"/>
<path fill="#FFFFFF" stroke="#000000" stroke-miterlimit="10" d="M228.665,64.468c0.567,0,1.084,0.091,1.549,0.274
	c0.466,0.182,0.863,0.442,1.194,0.779s0.586,0.747,0.766,1.232c0.179,0.484,0.269,1.026,0.269,1.625c0,0.604-0.09,1.147-0.269,1.633
	c-0.18,0.485-0.435,0.898-0.766,1.239c-0.331,0.342-0.729,0.604-1.194,0.787c-0.465,0.183-0.981,0.274-1.549,0.274
	c-0.572,0-1.092-0.092-1.56-0.274c-0.468-0.184-0.867-0.445-1.198-0.787c-0.331-0.341-0.587-0.754-0.769-1.239
	s-0.272-1.029-0.272-1.633c0-0.599,0.091-1.141,0.272-1.625c0.182-0.485,0.438-0.896,0.769-1.232s0.73-0.598,1.198-0.779
	C227.573,64.559,228.093,64.468,228.665,64.468 M228.665,70.902c0.638,0,1.108-0.213,1.415-0.639
	c0.306-0.425,0.459-1.049,0.459-1.87s-0.153-1.447-0.459-1.878c-0.307-0.43-0.777-0.646-1.415-0.646
	c-0.646,0-1.126,0.217-1.438,0.649c-0.31,0.434-0.466,1.058-0.466,1.874s0.156,1.438,0.466,1.867
	C227.539,70.688,228.019,70.902,228.665,70.902"/>
<path fill="#FFFFFF" stroke="#000000" stroke-miterlimit="10" d="M240.511,64.846v0.683c0,0.219-0.132,0.352-0.396,0.401
	l-0.687,0.126c0.104,0.263,0.156,0.55,0.156,0.861c0,0.376-0.075,0.716-0.228,1.02c-0.151,0.305-0.361,0.563-0.631,0.776
	c-0.269,0.213-0.586,0.377-0.951,0.493c-0.366,0.116-0.76,0.175-1.183,0.175c-0.149,0-0.294-0.008-0.434-0.022
	c-0.139-0.015-0.276-0.034-0.41-0.06c-0.239,0.144-0.358,0.305-0.358,0.482c0,0.153,0.071,0.267,0.213,0.338
	c0.142,0.072,0.329,0.123,0.563,0.152c0.233,0.029,0.5,0.048,0.799,0.056c0.298,0.008,0.604,0.023,0.918,0.048
	c0.313,0.025,0.619,0.068,0.918,0.13c0.299,0.063,0.564,0.16,0.799,0.294c0.233,0.133,0.422,0.315,0.563,0.545
	c0.142,0.23,0.213,0.526,0.213,0.887c0,0.337-0.084,0.663-0.25,0.98c-0.167,0.316-0.408,0.599-0.725,0.846
	c-0.315,0.247-0.704,0.446-1.163,0.598c-0.462,0.15-0.985,0.227-1.572,0.227c-0.577,0-1.08-0.056-1.508-0.167
	s-0.783-0.26-1.067-0.445c-0.283-0.186-0.495-0.4-0.634-0.643c-0.14-0.242-0.209-0.494-0.209-0.757c0-0.356,0.107-0.654,0.324-0.895
	s0.514-0.432,0.892-0.575c-0.204-0.104-0.365-0.242-0.484-0.415c-0.12-0.174-0.18-0.401-0.18-0.684c0-0.114,0.021-0.23,0.063-0.353
	c0.042-0.121,0.104-0.241,0.187-0.359c0.082-0.119,0.186-0.231,0.31-0.338c0.125-0.106,0.271-0.201,0.44-0.286
	c-0.388-0.207-0.692-0.484-0.914-0.831c-0.222-0.346-0.332-0.752-0.332-1.217c0-0.376,0.075-0.717,0.228-1.021
	c0.151-0.305,0.363-0.564,0.635-0.779c0.271-0.216,0.592-0.38,0.963-0.494c0.37-0.113,0.775-0.171,1.213-0.171
	c0.328,0,0.637,0.034,0.925,0.101c0.289,0.066,0.553,0.165,0.791,0.293H240.511z M238.675,72.543c0-0.148-0.045-0.271-0.135-0.364
	c-0.089-0.094-0.211-0.167-0.365-0.219s-0.335-0.09-0.541-0.115c-0.207-0.024-0.426-0.043-0.657-0.056
	c-0.231-0.012-0.47-0.023-0.717-0.033c-0.246-0.01-0.486-0.029-0.72-0.06c-0.204,0.114-0.369,0.248-0.496,0.401
	s-0.19,0.331-0.19,0.534c0,0.134,0.033,0.259,0.101,0.375s0.174,0.216,0.321,0.3c0.146,0.085,0.338,0.15,0.57,0.197
	c0.234,0.047,0.521,0.07,0.858,0.07c0.344,0,0.64-0.026,0.889-0.078c0.248-0.052,0.454-0.123,0.615-0.215
	c0.162-0.092,0.281-0.2,0.354-0.327C238.638,72.828,238.675,72.691,238.675,72.543 M236.593,68.208c0.229,0,0.428-0.03,0.597-0.093
	c0.169-0.062,0.31-0.147,0.422-0.256c0.111-0.108,0.196-0.24,0.254-0.394c0.057-0.154,0.086-0.321,0.086-0.505
	c0-0.376-0.113-0.674-0.34-0.894c-0.227-0.221-0.566-0.331-1.019-0.331c-0.453,0-0.793,0.11-1.02,0.331
	c-0.227,0.22-0.339,0.518-0.339,0.894c0,0.179,0.028,0.345,0.085,0.498c0.058,0.153,0.143,0.285,0.254,0.396
	c0.112,0.111,0.254,0.198,0.426,0.26C236.171,68.178,236.368,68.208,236.593,68.208"/>
<path fill="#FFFFFF" stroke="#000000" stroke-miterlimit="10" d="M248.632,64.586l-4.173,9.708
	c-0.056,0.129-0.125,0.227-0.213,0.293c-0.087,0.067-0.22,0.101-0.398,0.101h-1.374l1.434-3.058l-3.098-7.044h1.619
	c0.145,0,0.258,0.035,0.34,0.104c0.082,0.07,0.144,0.149,0.183,0.238l1.628,3.948c0.055,0.134,0.101,0.268,0.138,0.401
	c0.037,0.133,0.073,0.27,0.108,0.408c0.045-0.139,0.089-0.276,0.134-0.413c0.045-0.136,0.095-0.271,0.149-0.403l1.538-3.941
	c0.039-0.099,0.105-0.181,0.197-0.245s0.195-0.097,0.309-0.097H248.632z"/>
<path fill="#FFFFFF" stroke="#000000" stroke-miterlimit="10" d="M87.521,51.177c1.124,0,2.129-0.187,3.015-0.559
	c0.885-0.372,1.631-0.896,2.236-1.568c0.604-0.673,1.069-1.489,1.394-2.449c0.324-0.96,0.485-2.034,0.485-3.223V24.773h5.812v18.605
	c0,1.848-0.298,3.556-0.896,5.124s-1.455,2.922-2.571,4.061c-1.117,1.139-2.474,2.027-4.073,2.664
	c-1.599,0.638-3.4,0.956-5.402,0.956c-2.017,0-3.824-0.318-5.423-0.956c-1.598-0.637-2.956-1.525-4.072-2.664
	c-1.116-1.139-1.974-2.492-2.571-4.061c-0.598-1.568-0.897-3.276-0.897-5.124V24.773h5.812v18.583c0,1.188,0.162,2.263,0.486,3.223
	s0.792,1.779,1.404,2.46c0.613,0.681,1.362,1.207,2.247,1.579C85.393,50.99,86.397,51.177,87.521,51.177"/>
<path fill="#FFFFFF" stroke="#000000" stroke-miterlimit="10" d="M131.423,55.839h-5.25c-0.993,0-1.714-0.387-2.16-1.16
	l-6.568-9.947c-0.245-0.372-0.516-0.638-0.811-0.795s-0.73-0.237-1.307-0.237h-2.485v12.14h-5.811V24.772h9.528
	c2.117,0,3.935,0.218,5.455,0.655s2.766,1.049,3.738,1.837c0.972,0.787,1.689,1.729,2.15,2.825c0.461,1.096,0.691,2.302,0.691,3.619
	c0,1.046-0.154,2.033-0.464,2.966c-0.31,0.931-0.757,1.776-1.34,2.534c-0.584,0.76-1.303,1.426-2.161,1.999
	c-0.856,0.573-1.833,1.024-2.927,1.354c0.375,0.215,0.72,0.469,1.037,0.763s0.605,0.641,0.864,1.041L131.423,55.839z
	 M116.472,39.554c1.095,0,2.049-0.136,2.863-0.408c0.814-0.272,1.484-0.649,2.009-1.128c0.526-0.48,0.919-1.05,1.178-1.708
	c0.26-0.659,0.388-1.383,0.388-2.17c0-1.576-0.521-2.786-1.566-3.631c-1.044-0.846-2.64-1.268-4.785-1.268h-3.717v10.313H116.472z"
	/>
<path fill="#FFFFFF" stroke="#000000" stroke-miterlimit="10" d="M164.178,40.306c0,2.277-0.379,4.387-1.133,6.327
	c-0.757,1.94-1.826,3.62-3.209,5.038s-3.047,2.524-4.992,3.319c-1.943,0.795-4.104,1.192-6.48,1.192
	c-2.363,0-4.516-0.397-6.461-1.192c-1.944-0.795-3.611-1.901-5.001-3.319c-1.391-1.418-2.467-3.098-3.23-5.038
	c-0.764-1.94-1.146-4.05-1.146-6.327c0-2.276,0.382-4.387,1.146-6.327c0.763-1.941,1.839-3.619,3.23-5.038
	c1.39-1.418,3.057-2.525,5.001-3.32c1.945-0.794,4.098-1.192,6.461-1.192c1.584,0,3.074,0.183,4.473,0.548
	c1.396,0.365,2.678,0.881,3.844,1.547c1.168,0.666,2.216,1.474,3.146,2.428c0.929,0.953,1.718,2.015,2.365,3.19
	c0.649,1.175,1.142,2.449,1.481,3.824C164.008,37.341,164.178,38.787,164.178,40.306 M158.236,40.306
	c0-1.704-0.23-3.233-0.691-4.587s-1.117-2.503-1.966-3.448c-0.85-0.944-1.884-1.669-3.101-2.17c-1.217-0.502-2.59-0.752-4.115-0.752
	c-1.527,0-2.899,0.25-4.116,0.752c-1.218,0.501-2.255,1.226-3.112,2.17c-0.857,0.945-1.516,2.095-1.976,3.448
	c-0.462,1.354-0.692,2.883-0.692,4.587s0.23,3.233,0.692,4.587c0.46,1.354,1.119,2.499,1.976,3.438s1.894,1.658,3.112,2.159
	c1.217,0.501,2.589,0.753,4.116,0.753c1.525,0,2.898-0.252,4.115-0.753s2.251-1.221,3.101-2.159
	c0.849-0.938,1.505-2.084,1.966-3.438S158.236,42.01,158.236,40.306"/>
<path fill="#FFFFFF" stroke="#000000" stroke-miterlimit="10" d="M171.481,55.903c-0.245,0.658-0.638,1.152-1.179,1.482
	c-0.539,0.329-1.09,0.494-1.652,0.494h-2.27L179,25.782c0.23-0.602,0.584-1.064,1.059-1.386c0.476-0.322,1.029-0.483,1.664-0.483
	h2.289L171.481,55.903z"/>
<path fill="#FFFFFF" stroke="#000000" stroke-miterlimit="10" d="M213.937,40.263v12.568c-1.584,1.161-3.273,2.009-5.066,2.546
	s-3.713,0.806-5.758,0.806c-2.55,0-4.858-0.394-6.925-1.182c-2.066-0.787-3.832-1.883-5.293-3.287
	c-1.463-1.403-2.59-3.079-3.382-5.027s-1.188-4.075-1.188-6.381c0-2.335,0.383-4.478,1.146-6.424
	c0.764-1.948,1.848-3.624,3.252-5.027c1.403-1.405,3.108-2.492,5.11-3.266c2-0.773,4.248-1.16,6.74-1.16
	c1.268,0,2.452,0.1,3.553,0.301c1.104,0.2,2.125,0.475,3.069,0.827c0.943,0.351,1.804,0.776,2.582,1.278
	c0.777,0.501,1.49,1.053,2.139,1.655l-1.663,2.622c-0.26,0.414-0.599,0.668-1.016,0.762c-0.418,0.093-0.872-0.01-1.362-0.312
	c-0.475-0.272-0.95-0.545-1.425-0.817c-0.476-0.271-1.005-0.508-1.588-0.709c-0.584-0.201-1.239-0.364-1.967-0.494
	c-0.729-0.129-1.566-0.193-2.517-0.193c-1.542,0-2.936,0.258-4.181,0.772c-1.246,0.517-2.309,1.254-3.188,2.213
	c-0.879,0.96-1.555,2.113-2.03,3.46c-0.476,1.346-0.713,2.851-0.713,4.512c0,1.776,0.255,3.362,0.767,4.759
	c0.51,1.396,1.231,2.578,2.16,3.545c0.93,0.967,2.049,1.704,3.36,2.213c1.311,0.509,2.772,0.763,4.386,0.763
	c1.152,0,2.183-0.122,3.09-0.365s1.793-0.573,2.657-0.988v-5.629h-3.933c-0.374,0-0.666-0.104-0.875-0.312s-0.313-0.462-0.313-0.763
	v-3.266H213.937z"/>
<path fill="#FFFFFF" stroke="#000000" stroke-miterlimit="10" d="M232.15,43.808v12.031h-5.79V43.808l-11.387-19.035h5.121
	c0.504,0,0.903,0.121,1.199,0.365c0.295,0.243,0.544,0.551,0.745,0.924l5.704,10.377c0.331,0.615,0.623,1.195,0.875,1.74
	c0.252,0.544,0.479,1.089,0.681,1.633c0.187-0.544,0.403-1.089,0.648-1.633c0.244-0.545,0.525-1.125,0.842-1.74l5.683-10.377
	c0.157-0.316,0.396-0.609,0.713-0.881c0.317-0.272,0.721-0.408,1.21-0.408h5.143L232.15,43.808z"/>
<path fill="#FFFFFF" stroke="#000000" stroke-miterlimit="10" d="M273.072,24.772v31.066h-2.981c-0.462,0-0.847-0.075-1.156-0.226
	s-0.608-0.403-0.896-0.763L251.726,34.14c0.086,0.946,0.13,1.819,0.13,2.621v19.078h-5.121V24.772h3.047
	c0.244,0,0.457,0.011,0.637,0.032c0.18,0.022,0.339,0.065,0.476,0.129c0.137,0.065,0.271,0.157,0.399,0.279
	c0.13,0.122,0.273,0.283,0.433,0.484l16.377,20.797c-0.043-0.501-0.079-0.995-0.108-1.482c-0.028-0.487-0.043-0.938-0.043-1.354
	V24.772H273.072z"/>
<g>
</g>
<g>
</g>
<g>
</g>
<g>
</g>
<g>
</g>
<g>
</g>
<g>
</g>
<g>
</g>
<g>
</g>
<g>
</g>
<g>
</g>
<g>
</g>
<g>
</g>
<g>
</g>
<g>
</g>
</svg>
