<?xml version="1.0" encoding="utf-8"?>
<!-- Generator: Adobe Illustrator 16.0.0, SVG Export Plug-In . SVG Version: 6.00 Build 0)  -->
<!DOCTYPE svg PUBLIC "-//W3C//DTD SVG 1.1//EN" "http://www.w3.org/Graphics/SVG/1.1/DTD/svg11.dtd">
<svg version="1.1" id="레이어_1" xmlns="http://www.w3.org/2000/svg" xmlns:xlink="http://www.w3.org/1999/xlink" x="0px"
	 y="0px" width="225px" height="30px" viewBox="0 0 225 30" enable-background="new 0 0 225 30" xml:space="preserve">
<g>
	<path fill="#111111" d="M8.694,22.828H4.938l6.193-17.531h4.114l6.104,17.531h-3.846l-1.141-3.623H9.901L8.694,22.828z
		 M10.886,16.188h4.449l-2.169-6.933h-0.067L10.886,16.188z"/>
	<path fill="#111111" d="M42.771,18.132c-0.104,1.134-0.491,2.154-1.162,3.063c-1.044,1.371-2.572,2.057-4.584,2.057
		c-2.162,0-3.742-0.744-4.74-2.234c-0.746-1.119-1.118-2.543-1.118-4.271c0-2.221,0.477-3.951,1.431-5.188
		c1.043-1.342,2.594-2.012,4.651-2.012c1.312,0,2.451,0.32,3.421,0.961c1.282,0.85,1.997,2.184,2.146,4.002h-3.332
		c-0.119-0.551-0.313-1.006-0.581-1.364c-0.373-0.492-0.872-0.73-1.498-0.715h-0.156c-0.954,0-1.663,0.425-2.125,1.274
		c-0.343,0.656-0.514,1.483-0.514,2.481c-0.016,1.148,0.097,2.028,0.335,2.64c0.388,1.073,1.126,1.61,2.214,1.61
		c0.73,0,1.319-0.313,1.767-0.939c0.343-0.462,0.515-0.917,0.515-1.364H42.771z"/>
	<path fill="#111111" d="M56.164,21.576c-1.147,1.117-2.594,1.676-4.338,1.676c-1.788,0-3.265-0.559-4.427-1.676
		c-1.297-1.238-1.945-2.959-1.945-5.166c0-2.221,0.648-3.958,1.945-5.21c1.162-1.103,2.639-1.654,4.427-1.654
		c1.744,0,3.19,0.551,4.338,1.654c1.297,1.252,1.946,2.989,1.946,5.21C58.11,18.617,57.461,20.338,56.164,21.576z M54.175,13.772
		c-0.492-0.895-1.274-1.342-2.349-1.342c-1.117,0-1.923,0.447-2.414,1.342c-0.344,0.656-0.515,1.535-0.515,2.638
		c0,1.044,0.171,1.9,0.515,2.572c0.491,0.908,1.297,1.363,2.414,1.363c1.074,0,1.856-0.455,2.349-1.363
		c0.357-0.672,0.536-1.528,0.536-2.572C54.711,15.322,54.532,14.442,54.175,13.772z"/>
	<path fill="#111111" d="M79.353,22.828h-3.31v-7.849c0-0.895-0.187-1.558-0.559-1.99c-0.313-0.373-0.738-0.559-1.274-0.559
		c-0.791,0-1.372,0.246-1.744,0.738c-0.344,0.462-0.515,1.096-0.515,1.901v7.759h-3.265v-7.782c-0.015-0.79-0.104-1.364-0.269-1.722
		c-0.298-0.596-0.887-0.895-1.767-0.895c-0.745,0-1.289,0.246-1.632,0.738c-0.299,0.417-0.447,1.014-0.447,1.789v7.871h-3.31V9.903
		h3.198v1.901h0.021c0.313-0.626,0.693-1.118,1.141-1.476c0.656-0.521,1.483-0.782,2.482-0.782c0.879,0,1.587,0.171,2.124,0.514
		c0.462,0.298,0.917,0.82,1.364,1.565l0.089-0.134c0.388-0.551,0.761-0.961,1.118-1.23c0.626-0.477,1.349-0.715,2.169-0.715
		c1.267,0,2.303,0.365,3.108,1.096c0.85,0.79,1.274,1.878,1.274,3.264v8.922H79.353z"/>
	<path fill="#111111" d="M86.463,11.759h0.022c0.433-0.671,0.864-1.163,1.297-1.476c0.686-0.492,1.521-0.738,2.505-0.738
		c1.476,0,2.697,0.551,3.667,1.654c1.058,1.208,1.587,2.885,1.587,5.032c0,1.967-0.425,3.584-1.274,4.853
		c-0.954,1.444-2.303,2.168-4.047,2.168c-1.014,0-1.849-0.253-2.505-0.76c-0.372-0.283-0.737-0.707-1.096-1.274h-0.021v4.809h-3.31
		V9.903h3.175V11.759z M87.134,19.271c0.507,0.775,1.252,1.164,2.236,1.164c0.954,0,1.677-0.471,2.169-1.41
		c0.388-0.715,0.581-1.557,0.581-2.525c0-1.163-0.209-2.087-0.626-2.773c-0.492-0.805-1.223-1.208-2.191-1.208
		c-1.059,0-1.818,0.425-2.28,1.274c-0.373,0.686-0.56,1.64-0.56,2.861C86.463,17.715,86.687,18.587,87.134,19.271z"/>
	<path fill="#111111" d="M98.583,9.903h3.197v2.259h0.021c0.432-0.865,0.85-1.476,1.252-1.834c0.596-0.521,1.371-0.782,2.325-0.782
		l0.648,0.044v3.511c-0.148-0.045-0.313-0.075-0.491-0.089c-0.104,0-0.246,0-0.425,0c-1.238,0-2.117,0.335-2.639,1.006
		c-0.373,0.492-0.56,1.193-0.56,2.102v6.709h-3.331V9.903H98.583z"/>
	<path fill="#111111" d="M119.753,19.07c-0.401,1.432-1.162,2.513-2.28,3.242c-0.925,0.627-1.99,0.938-3.197,0.938
		c-1.894,0-3.368-0.521-4.427-1.563c-1.192-1.207-1.789-3.063-1.789-5.568c-0.015-1.46,0.299-2.757,0.939-3.89
		c1.014-1.789,2.69-2.683,5.031-2.683c1.564,0,2.847,0.447,3.846,1.341c1.327,1.208,1.99,3.13,1.99,5.769v0.671h-8.497v0.089
		c0.119,0.85,0.313,1.49,0.581,1.924c0.462,0.775,1.236,1.162,2.326,1.162c0.461,0,0.887-0.126,1.273-0.38
		c0.402-0.269,0.686-0.618,0.85-1.052H119.753z M116.511,15.069c-0.089-0.939-0.401-1.647-0.938-2.125
		c-0.447-0.372-0.97-0.559-1.565-0.559c-0.73,0-1.312,0.239-1.744,0.716c-0.418,0.462-0.671,1.118-0.761,1.968H116.511z"/>
	<path fill="#111111" d="M134.533,22.828h-3.309v-7.849c-0.017-0.73-0.113-1.275-0.291-1.632c-0.328-0.611-0.963-0.917-1.9-0.917
		c-0.762,0-1.387,0.254-1.879,0.76c-0.508,0.552-0.76,1.297-0.76,2.236v7.402h-3.311V5.297h3.311v6.283h0.045
		c0.224-0.566,0.662-1.043,1.318-1.431c0.715-0.402,1.52-0.604,2.414-0.604c1.282,0,2.318,0.365,3.108,1.096
		c0.835,0.775,1.252,1.863,1.252,3.264L134.533,22.828L134.533,22.828z"/>
	<path fill="#111111" d="M149.313,19.07c-0.401,1.432-1.162,2.513-2.279,3.242c-0.926,0.627-1.99,0.938-3.197,0.938
		c-1.895,0-3.369-0.521-4.428-1.563c-1.192-1.207-1.789-3.063-1.789-5.568c-0.016-1.46,0.299-2.757,0.939-3.89
		c1.014-1.789,2.689-2.683,5.03-2.683c1.565,0,2.847,0.447,3.847,1.341c1.326,1.208,1.989,3.13,1.989,5.769v0.671h-8.497v0.089
		c0.119,0.85,0.313,1.49,0.581,1.924c0.462,0.775,1.237,1.162,2.326,1.162c0.462,0,0.888-0.126,1.274-0.38
		c0.401-0.269,0.686-0.618,0.85-1.052H149.313z M146.07,15.069c-0.09-0.939-0.402-1.647-0.938-2.125
		c-0.446-0.372-0.97-0.559-1.565-0.559c-0.729,0-1.312,0.239-1.743,0.716c-0.418,0.462-0.671,1.118-0.761,1.968H146.07z"/>
	<path fill="#111111" d="M164.025,22.828h-3.31v-7.849c-0.016-0.716-0.12-1.26-0.313-1.632c-0.327-0.611-0.938-0.917-1.832-0.917
		c-0.775,0-1.409,0.254-1.901,0.76c-0.507,0.537-0.76,1.282-0.76,2.236v7.402h-3.31V9.903h3.197v1.901h0.021
		c0.373-0.626,0.768-1.103,1.186-1.431c0.717-0.551,1.588-0.827,2.616-0.827c1.297,0,2.34,0.365,3.13,1.096
		c0.852,0.775,1.275,1.863,1.275,3.264V22.828L164.025,22.828z"/>
	<path fill="#111111" d="M175.229,13.884c-0.088-0.551-0.252-0.954-0.49-1.208c-0.358-0.343-0.947-0.514-1.768-0.514
		s-1.387,0.142-1.699,0.425c-0.224,0.194-0.336,0.477-0.336,0.85c0,0.357,0.27,0.641,0.806,0.85
		c0.327,0.149,0.969,0.321,1.923,0.514c1.609,0.328,2.751,0.686,3.422,1.073c1.162,0.642,1.744,1.595,1.744,2.862
		c0,1.67-0.671,2.893-2.014,3.666c-0.969,0.566-2.14,0.851-3.51,0.851c-1.671,0-3.033-0.328-4.093-0.983
		c-1.297-0.789-1.96-1.976-1.989-3.556h3.442c0,0.611,0.192,1.074,0.582,1.388c0.446,0.373,1.17,0.559,2.169,0.559
		c0.745,0,1.313-0.163,1.699-0.491c0.298-0.253,0.447-0.544,0.447-0.872c0-0.402-0.283-0.723-0.851-0.961
		c-0.344-0.135-1.007-0.307-1.989-0.516c-1.58-0.327-2.699-0.678-3.354-1.051c-1.118-0.642-1.677-1.595-1.677-2.863
		c0-1.163,0.356-2.131,1.072-2.907c0.896-0.969,2.243-1.453,4.047-1.453c1.521,0,2.735,0.261,3.646,0.782
		c1.223,0.701,1.893,1.886,2.012,3.556h-3.242V13.884z"/>
	<path fill="#111111" d="M186.208,8.495h-3.332V5.297h3.332V8.495z M186.208,10.015v12.813h-3.332V10.015H186.208z"/>
	<path fill="#111111" d="M197.746,23.252h-3.533L189.65,9.546h3.689l2.639,10.286h0.09l2.729-10.286h3.533L197.746,23.252z"/>
	<path fill="#111111" d="M215.623,19.07c-0.402,1.432-1.162,2.513-2.28,3.242c-0.925,0.627-1.989,0.938-3.196,0.938
		c-1.895,0-3.369-0.521-4.429-1.563c-1.192-1.207-1.788-3.063-1.788-5.568c-0.016-1.46,0.299-2.757,0.938-3.89
		c1.014-1.789,2.69-2.683,5.03-2.683c1.565,0,2.848,0.447,3.847,1.341c1.327,1.208,1.989,3.13,1.989,5.769v0.671h-8.496v0.089
		c0.119,0.85,0.313,1.49,0.58,1.924c0.463,0.775,1.238,1.162,2.326,1.162c0.463,0,0.888-0.126,1.274-0.38
		c0.401-0.269,0.687-0.618,0.851-1.052H215.623z M212.381,15.069c-0.089-0.939-0.402-1.647-0.938-2.125
		c-0.447-0.372-0.971-0.559-1.565-0.559c-0.729,0-1.312,0.239-1.744,0.716c-0.418,0.462-0.671,1.118-0.761,1.968H212.381z"/>
</g>
</svg>
