<?xml version="1.0" encoding="utf-8"?>
<!-- Generator: Adobe Illustrator 16.0.0, SVG Export Plug-In . SVG Version: 6.00 Build 0)  -->
<!DOCTYPE svg PUBLIC "-//W3C//DTD SVG 1.1//EN" "http://www.w3.org/Graphics/SVG/1.1/DTD/svg11.dtd">
<svg version="1.1" id="레이어_2" xmlns="http://www.w3.org/2000/svg" xmlns:xlink="http://www.w3.org/1999/xlink" x="0px"
	 y="0px" width="256px" height="256px" viewBox="0 0 256 256" enable-background="new 0 0 256 256" xml:space="preserve">
<path fill="#00FFFF" d="M217.76,112h-53.979c-0.215-1.112-0.543-2.25-1.004-3.39c-2.217-5.494-6.543-8.936-10.476-8.676
	c-0.963-1.844-2.142-4.101-3.096-5.929c0.097-0.187,0.188-0.377,0.274-0.577c0.561-1.317,0.838-2.852,0.838-4.481
	c0-1.183-0.164-2.418-0.455-3.661c-0.127,1.057-0.532,1.877-1.084,2.513c0.67-0.833,1.125-1.925,1.125-3.33
	c0-1.973-0.891-3.321-2.026-4.187c-2.394-4.119-6.032-6.57-9.38-6.31c-0.316-0.302-0.646-0.617-0.984-0.939
	c0.264,0.252,0.528,0.504,0.782,0.746c0.772-1.713,1.222-3.631,1.222-5.665c0-7.134-5.359-12.939-11.948-12.939
	c-6.588,0-11.946,5.806-11.946,12.939c0,4.568,2.2,8.582,5.506,10.886h-10.437c-0.284,0-2.813,0.249-4.479,1.894
	c-0.887,0.878-1.356,2.317-1.356,3.694c0,4.085,3.807,5.412,5.818,5.412c0,0,8.462,0,10.524,0c-0.037,0-0.369,5.988-0.847,14.172
	l-4.251,10.077l-6.236,0.814c-0.382-0.322-0.605-0.509-0.605-0.509c-0.151-0.097-3.775-2.554-8.015-2.554H38.238h-1.516l0.316,1.642
	c0.023,0.111,2.391,10.726,11.287,11.899c-0.08,0.515-0.149,1.137-0.149,1.83c0,1.536,0.312,3.434,1.433,5.193
	c1.691,2.654,4.805,4.295,9.143,4.959c0.32,2.645,1.877,10.158,9.551,12.33L68.465,150h20.652l-2.619,17.753
	c0,0,3.662-1.17,4.797-1.53c1.609,3.508,7.398,15.053,16.048,20.237l5.314,3.092c6.501,3.708,10.424,5.948,13.736,11.527l0.86,1.448
	l1.116-1.266c0.059-0.063,5.914-6.65,14.031-11.32l1.103-0.629c7.923-4.53,14.786-8.541,20.851-22.793
	c1.197,0.379,5.147,1.623,5.147,1.623L166.884,150h20.652l0.162-0.143c7.688-2.174,9.237-9.66,9.556-12.291
	c4.383-0.685,7.461-2.328,9.141-4.959c1.123-1.76,1.436-3.652,1.436-5.188c0-0.689-0.068-1.282-0.148-1.793
	c8.896-1.182,11.258-11.87,11.281-11.981l0.314-1.645H217.76z M153.637,102.487c2.555,0.56,5.348,3.283,6.865,7.041
	c0.333,0.825,0.576,1.655,0.756,2.473h-1.755c-0.126-0.599-0.31-1.215-0.562-1.838c-0.875-2.159-2.323-3.841-3.877-4.499
	c-0.121-0.051-0.24-0.08-0.359-0.118c-0.039-0.736-0.26-1.494-0.604-2.166c-0.002-0.002-0.27-0.515-0.692-1.326
	C153.488,102.208,153.566,102.356,153.637,102.487z M152.991,108.488c0.065-0.029,0.132-0.023,0.196-0.058
	c0.307-0.161,0.545-0.355,0.752-0.578c0.061,0.019,0.117,0.044,0.168,0.066c0.713,0.301,1.812,1.313,2.559,3.16
	c0.127,0.315,0.223,0.623,0.307,0.921h-2.218c-0.495,0-0.979,0-1.454,0C152.73,111,152.762,109.208,152.991,108.488z
	 M151.921,104.507c0.071,0.143,0.312,0.752,0.329,1.227c-0.23,0.125-0.445,0.275-0.639,0.46c-0.323-0.228-0.678-0.699-0.851-1.038
	c-0.01-0.023-6.672-12.664-6.672-12.664c-0.218-0.399-0.437-1.055-0.423-1.487c0.041-0.002,0.082-0.006,0.122-0.006h0.002
	c0.224,0,0.427-0.067,0.616-0.174c0.371,0.28,0.759,0.779,0.925,1.06C145.373,91.966,151.921,104.507,151.921,104.507z M90.047,150
	h16.991l-2.605,14.404l12.821-7.834c-0.667,11.291-1.162,19.679-1.206,20.422c-2.568-0.415-9.444-2.594-17.246-13.553
	c1.105-0.244,4.511-0.988,4.511-0.988L90.047,150z M127.829,95.686l8.28,19.665l-7.946,11.853L127.829,95.686z M142.619,94.998
	c-0.344-0.036-0.667,0.022-0.938-0.092c-1.598-0.679-3.849-2.996-5.297-4.906c1.063,0,2.211,0,3.301,0
	c0.483,0.422,0.996,0.747,1.524,0.979c-0.019,1.246,0.573,2.416,0.722,2.681c-0.009-0.015,3.229,5.959,5.188,9.679
	c-1.43,2.763-1.523,6.661-0.018,10.661h0.002c-0.211,0-0.343,0.385-0.369,0.401c0,0-0.33,0.445-0.881,0.91l-8.035-1.054
	l-3.789-8.998C133.37,96.479,132.904,90,132.854,90c0.172,0,0.402,0,0.66,0c1.738,2.816,4.771,6.051,7.209,7.087
	c1.109,0.473,2.215,0.611,3.271,0.551C143.462,96.629,142.982,95.688,142.619,94.998z M111.186,135.598l-14.674-14.871
	l27.629,10.161L111.186,135.598z M111.331,137.496l13.159-4.783l-16.874,25.325L111.331,137.496z M109.335,159.066l16.79-25.199
	l-0.044,14.966L109.335,159.066z M127.957,134.323l16.292,24.739l-16.335-10.227L127.957,134.323z M129.366,132.826l11.784,4.283
	l4.154,19.918L129.366,132.826z M141.621,135.33l-11.987-4.358l27.147-10.016L141.621,135.33z M129.155,129.016l8.567-12.78
	l19.188,2.541L129.155,129.016z M148.684,106.473c0.246,0.44,0.86,1.392,1.814,1.928c-0.239,1.243-0.107,2.729,0.387,4.228
	c-0.572,0.178-1.105,0.378-1.584,0.583C148.468,110.813,148.289,108.408,148.684,106.473z M148.793,93.213
	c-0.781-1.496-1.331-2.549-1.331-2.549c-0.219-0.378-0.526-0.805-0.901-1.199c0.438-0.192,0.871-0.436,1.276-0.744
	c0.017,0.812-0.037,1.596-0.18,2.315C147.882,91.467,148.291,92.25,148.793,93.213z M143.857,79h-2.387
	c0.197-0.709,0.086-1.395-0.169-1.974C142.18,77.469,143.048,78.151,143.857,79z M140.6,75.975
	c-0.005-0.003-0.904-0.861-2.044-1.948C139.695,75.114,140.596,75.972,140.6,75.975z M138.895,77.741
	c0.174,0.184,0.233,0.346,0.233,0.479c0,0.207-0.14,0.357-0.217,0.438c-0.091,0.097-0.224,0.211-0.337,0.214
	c-0.159,0.006-0.391-0.147-0.479-0.231c-0.02-0.019-6.785-6.4-6.785-6.4c-0.521-0.493-0.27-0.761-0.148-0.89
	c0.29-0.307,0.646-0.295,1.064,0.03C132.346,71.495,138.895,77.741,138.895,77.741z M134.902,79h-0.905
	c0.172-0.121,0.347-0.239,0.515-0.369C134.645,78.757,134.777,78.882,134.902,79z M129.371,69.672
	c-0.732,0.782-0.859,1.582-0.836,2.117c0.035,0.772,0.393,1.395,0.695,1.792c-0.521,0.198-1.08,0.311-1.661,0.311
	c-2.857,0-5.183-2.593-5.183-5.777c0-3.182,2.325-5.771,5.183-5.771c2.855,0,5.179,2.59,5.179,5.771
	c0,0.261-0.021,0.516-0.051,0.769C131.695,68.527,130.421,68.552,129.371,69.672z M130.704,75.042
	c-0.448-0.422-0.793-0.748-0.952-0.899C129.908,74.291,130.248,74.611,130.704,75.042z M118.078,68.114
	c0-5.78,4.257-10.485,9.492-10.485s9.493,4.705,9.493,10.485c0,1.36-0.242,2.655-0.67,3.849c-0.882-0.841-1.681-1.603-2.145-2.045
	c0.17,0.162,0.373,0.355,0.622,0.593c0.215-0.759,0.332-1.563,0.332-2.396c0-4.535-3.425-8.227-7.633-8.227
	c-4.211,0-7.637,3.691-7.637,8.227c0,4.538,3.426,8.231,7.637,8.231c1.271,0,2.468-0.341,3.523-0.937
	c0.479,0.452,1.039,0.98,1.608,1.517c-1.481,1.057-3.241,1.678-5.132,1.678C122.335,78.604,118.078,73.9,118.078,68.114z
	 M133.904,69.59C133.904,69.59,133.905,69.59,133.904,69.59L133.904,69.59z M110.67,87c-0.34,0-3.364,0.039-3.364-2.565
	c0-0.725,0.203-1.17,0.621-1.585c0.793-0.791,2.242-0.85,2.732-0.85h33.563c0.533,0,3.221-0.022,3.221,2.471
	c0,2.565-2.909,2.529-3.24,2.529h-14.008l0.84,11.147l-4.065-9.655l-3.777,8.952L123.801,87H110.67z M125.835,96.328l0.33,31.053
	l-8.244-12.296L125.835,96.328z M116.473,116.217l8.648,12.899l-28.15-10.351L116.473,116.217z M39.877,115c3.109,0,61.37,0,61.37,0
	c1.349,0,2.636,0.316,3.716,0.703l-12.37,1.615l-1.963,0.294L95.947,123h-46.13C43.508,123,40.818,118,39.877,115z M51.692,131.148
	c-0.829-1.289-1.058-2.512-1.058-3.682c0-0.659,0.076-1.468,0.154-1.468c1.398,0,32.333,0,48.118,0l8.881,9H59.879
	C55.901,135,53.102,133.342,51.692,131.148z M68.862,147c-5.833-1-7.272-7-7.627-9c1.93,0,32.524,0,47.973,0l-1.628,9
	C86.29,147,69.021,147,68.862,147z M162.973,163.51l-0.43,1.051c-5.855,14.381-12.533,18.2-20.266,22.621l-1.104,0.635
	c-6.5,3.735-11.469,8.5-13.561,10.662c-3.471-5.154-7.65-7.582-13.745-11.06l-5.268-3.063c-9.35-5.604-15.445-19.967-15.505-20.111
	l-0.436-1.034c0,0-2.121,0.677-3.166,1.007c0.347-2.352,1.072-7.257,1.473-9.979c1.955,1.835,5.318,4.99,7.262,6.813
	c-0.867,0.189-3.523,0.771-3.523,0.771l1.002,1.497c11.17,16.684,21.143,16.256,21.563,16.229l1.082-0.068l1.446-24.463l7.197-4.397
	l8.417,5.271l1.787,23.504l1.319-0.217c16.944-2.804,22.162-15.474,22.373-16.013l0.451-1.131c0,0-2.244-0.914-3.345-1.361
	c1.78-1.534,5.116-4.405,7.062-6.084c0.383,2.646,1.108,7.679,1.448,10.041C165.303,164.247,162.973,163.51,162.973,163.51z
	 M153.363,161.432c0,0,3.529,1.438,4.725,1.926c-1.531,2.896-6.695,10.654-18.646,13.121c-0.061-0.785-0.645-8.477-1.441-18.971
	l10.871,6.807L145.872,150h20.756L153.363,161.432z M187.141,147c-0.166,0-19.173,0-41.896,0l-1.886-9c13.736,0,49.322,0,51.41,0
	C194.413,140,192.973,146,187.141,147z M204.313,131.213c-1.404,2.184-4.193,3.787-8.279,3.787c-0.146,0-35.822,0-51.156,0l9.491-9
	c14.596,0,49.364,0,50.851,0c0.078,0,0.153,0.873,0.153,1.532C205.371,128.701,205.141,129.923,204.313,131.213z M206.177,123
	c-0.019,0-32.149,0-48.646,0l5.703-5.409l-12.76-1.674c1.18-0.479,2.689-0.917,4.28-0.917c0,0,58.261,0,61.367,0
	C215.182,118,212.492,123,206.177,123z"/>
</svg>
