<?xml version="1.0" encoding="utf-8"?>
<!-- Generator: Adobe Illustrator 16.0.0, SVG Export Plug-In . SVG Version: 6.00 Build 0)  -->
<!DOCTYPE svg PUBLIC "-//W3C//DTD SVG 1.1//EN" "http://www.w3.org/Graphics/SVG/1.1/DTD/svg11.dtd">
<svg version="1.1" id="레이어_1" xmlns="http://www.w3.org/2000/svg" xmlns:xlink="http://www.w3.org/1999/xlink" x="0px"
	 y="0px" width="170px" height="54px" viewBox="0 0 170 54" enable-background="new 0 0 170 54" xml:space="preserve">
<path fill="#4D4D4D" d="M6.32,7.299h9.239c1.54,0,2.658,0.349,3.355,1.045c0.696,0.697,1.045,1.815,1.045,3.355v1.98
	c0,1.218-0.202,2.164-0.604,2.838c-0.404,0.675-1.046,1.122-1.926,1.342l2.75,4.84h-4.29l-2.529-4.62h-3.08v4.62H6.32V7.299z
	 M16,11.699c0-0.88-0.44-1.32-1.32-1.32H10.28v4.62h4.399c0.88,0,1.32-0.44,1.32-1.32V11.699z"/>
<path fill="#4D4D4D" d="M34.37,22.699H22.16v-15.4h12.21v3.08h-8.25v2.97h6.489v3.08H26.12v3.19h8.25V22.699z"/>
<path fill="#4D4D4D" d="M35.668,19.509c4.018,0.22,6.739,0.33,8.161,0.33c0.338,0,0.605-0.099,0.804-0.297
	c0.198-0.198,0.297-0.465,0.297-0.803v-1.98h-5.061c-1.54,0-2.658-0.348-3.354-1.045c-0.697-0.697-1.045-1.815-1.045-3.355v-0.66
	c0-1.54,0.348-2.658,1.045-3.355c0.696-0.696,1.814-1.045,3.354-1.045h7.723v3.08H40.75c-0.881,0-1.32,0.44-1.32,1.32v0.44
	c0,0.88,0.439,1.32,1.32,1.32h3.96c1.437,0,2.493,0.338,3.168,1.012c0.674,0.675,1.012,1.731,1.012,3.168v1.1
	c0,1.438-0.338,2.494-1.012,3.168c-0.675,0.675-1.731,1.012-3.168,1.012c-0.748,0-1.54-0.015-2.376-0.044l-2.024-0.088
	c-1.496-0.073-3.044-0.176-4.642-0.308V19.509z"/>
<path fill="#4D4D4D" d="M57.25,22.699h-3.96v-12.32h-4.62v-3.08h13.2v3.08h-4.62V22.699z"/>
<path fill="#4D4D4D" d="M64.62,22.699h-4.29l5.83-15.4h4.399l5.83,15.4H72.1l-0.99-2.75h-5.5L64.62,22.699z M66.6,17.089h3.521
	l-1.761-5.17L66.6,17.089z"/>
<path fill="#4D4D4D" d="M86.949,7.299h3.96v11.22c0,1.54-0.349,2.659-1.045,3.355c-0.696,0.697-1.814,1.045-3.354,1.045h-5.061
	c-1.54,0-2.658-0.349-3.354-1.045c-0.697-0.696-1.045-1.815-1.045-3.355V7.299h3.96v11.22c0,0.88,0.439,1.32,1.319,1.32h3.301
	c0.88,0,1.319-0.44,1.319-1.32V7.299z"/>
<path fill="#4D4D4D" d="M93.55,7.299h9.239c1.54,0,2.658,0.349,3.355,1.045c0.696,0.697,1.045,1.815,1.045,3.355v1.98
	c0,1.218-0.202,2.164-0.604,2.838c-0.404,0.675-1.046,1.122-1.926,1.342l2.75,4.84h-4.29l-2.529-4.62h-3.08v4.62h-3.96V7.299z
	 M103.229,11.699c0-0.88-0.44-1.32-1.32-1.32H97.51v4.62h4.399c0.88,0,1.32-0.44,1.32-1.32V11.699z"/>
<path fill="#4D4D4D" d="M112.14,22.699h-4.29l5.83-15.4h4.399l5.83,15.4h-4.29l-0.99-2.75h-5.5L112.14,22.699z M114.119,17.089
	h3.521l-1.761-5.17L114.119,17.089z"/>
<path fill="#4D4D4D" d="M138.43,22.699h-4.181l-5.279-9.24v9.24h-3.96v-15.4h4.18l5.28,9.24v-9.24h3.96V22.699z"/>
<path fill="#4D4D4D" d="M148.549,22.699h-3.96v-12.32h-4.62v-3.08h13.2v3.08h-4.62V22.699z"/>
<path fill="#4D4D4D" d="M160.87,13.459h3.739v3.08h-3.739v3.74h-3.08v-3.74h-3.74v-3.08h3.74v-3.74h3.08V13.459z"/>
<path fill="#4D4D4D" d="M19.52,33.699h8.8c1.438,0,2.493,0.326,3.168,0.979c0.675,0.653,1.012,1.646,1.012,2.981
	c0,0.88-0.19,1.595-0.572,2.146c-0.381,0.549-0.851,0.935-1.407,1.154c1.188,0.322,1.994,1.115,2.42,2.376
	c0.146,0.455,0.22,0.983,0.22,1.584c0,1.438-0.338,2.493-1.012,3.168c-0.675,0.675-1.731,1.013-3.168,1.013h-9.46V33.699z
	 M28.539,38.1c0-0.881-0.439-1.32-1.32-1.32h-3.739v3.08h3.739c0.881,0,1.32-0.44,1.32-1.32V38.1z M29.199,44.26
	c0-0.881-0.44-1.32-1.32-1.32h-4.399v3.08h4.399c0.88,0,1.32-0.44,1.32-1.32V44.26z"/>
<path fill="#4D4D4D" d="M37.89,49.1H33.6l5.83-15.4h4.399l5.83,15.4h-4.29l-0.99-2.75h-5.5L37.89,49.1z M39.869,43.489h3.521
	l-1.761-5.17L39.869,43.489z"/>
<path fill="#4D4D4D" d="M50.76,33.699h9.239c1.54,0,2.658,0.349,3.355,1.045c0.696,0.697,1.045,1.814,1.045,3.355v1.979
	c0,1.218-0.202,2.163-0.604,2.838c-0.404,0.675-1.046,1.122-1.926,1.343l2.75,4.84h-4.29L57.8,44.479h-3.08V49.1h-3.96V33.699z
	 M60.439,38.1c0-0.881-0.44-1.32-1.32-1.32H54.72v4.619h4.399c0.88,0,1.32-0.439,1.32-1.319V38.1z"/>
</svg>
