<?xml version="1.0" encoding="utf-8"?>
<!-- Generator: Adobe Illustrator 16.0.0, SVG Export Plug-In . SVG Version: 6.00 Build 0)  -->
<!DOCTYPE svg PUBLIC "-//W3C//DTD SVG 1.1//EN" "http://www.w3.org/Graphics/SVG/1.1/DTD/svg11.dtd">
<svg version="1.1" id="레이어_1" xmlns="http://www.w3.org/2000/svg" xmlns:xlink="http://www.w3.org/1999/xlink" x="0px"
	 y="0px" width="142px" height="24px" viewBox="0 0 142 24" enable-background="new 0 0 142 24" xml:space="preserve">
<path fill="#4D4D4D" d="M23.28,16.62h8.029v3.08H19.32V4.3h3.96V16.62z"/>
<path fill="#4D4D4D" d="M40.109,19.7h-7.92v-3.08h1.979V7.38h-1.979V4.3h7.92v3.08h-1.98v9.24h1.98V19.7z"/>
<path fill="#4D4D4D" d="M55.289,19.37c-3.432,0.366-6.585,0.55-9.46,0.55c-1.438,0-2.493-0.337-3.168-1.012
	c-0.675-0.674-1.012-1.73-1.012-3.168V8.7c0-1.54,0.349-2.658,1.045-3.355C43.391,4.649,44.51,4.3,46.05,4.3h7.92v3.08h-7.04
	c-0.88,0-1.32,0.44-1.32,1.32v7.04c0,0.338,0.1,0.605,0.297,0.803c0.198,0.198,0.466,0.297,0.804,0.297
	c1.686,0,3.226-0.036,4.619-0.109v-3.19H48.47V10.9h6.819V19.37z"/>
<path fill="#4D4D4D" d="M70.91,19.7h-3.96V13.43h-5.5V19.7h-3.96V4.3h3.96v6.05h5.5V4.3h3.96V19.7z"/>
<path fill="#4D4D4D" d="M81.029,19.7h-3.96V7.38h-4.62V4.3h13.2v3.08h-4.62V19.7z"/>
<path fill="#4D4D4D" d="M94.449,19.7h-7.92v-3.08h1.979V7.38h-1.979V4.3h7.92v3.08h-1.98v9.24h1.98V19.7z"/>
<path fill="#4D4D4D" d="M109.85,19.7h-4.181l-5.279-9.24v9.24h-3.96V4.3h4.18l5.28,9.24V4.3h3.96V19.7z"/>
<path fill="#4D4D4D" d="M125.688,19.37c-3.432,0.366-6.585,0.55-9.46,0.55c-1.438,0-2.493-0.337-3.168-1.012
	c-0.675-0.674-1.012-1.73-1.012-3.168V8.7c0-1.54,0.349-2.658,1.045-3.355c0.696-0.696,1.815-1.045,3.355-1.045h7.92v3.08h-7.04
	c-0.88,0-1.32,0.44-1.32,1.32v7.04c0,0.338,0.1,0.605,0.297,0.803c0.198,0.198,0.466,0.297,0.804,0.297
	c1.686,0,3.226-0.036,4.619-0.109v-3.19h-2.859V10.9h6.819V19.37z"/>
</svg>
