<?xml version="1.0" encoding="utf-8"?>
<!-- Generator: Adobe Illustrator 16.0.0, SVG Export Plug-In . SVG Version: 6.00 Build 0)  -->
<!DOCTYPE svg PUBLIC "-//W3C//DTD SVG 1.1//EN" "http://www.w3.org/Graphics/SVG/1.1/DTD/svg11.dtd">
<svg version="1.1" id="레이어_1" xmlns="http://www.w3.org/2000/svg" xmlns:xlink="http://www.w3.org/1999/xlink" x="0px"
	 y="0px" width="130px" height="24px" viewBox="0 0 130 24" enable-background="new 0 0 130 24" xml:space="preserve">
<path fill="#4D4D4D" d="M7.338,16.4c4.018,0.219,6.739,0.33,8.161,0.33c0.338,0,0.605-0.1,0.804-0.299
	c0.198-0.197,0.297-0.465,0.297-0.803V13.65h-5.061c-1.54,0-2.658-0.35-3.354-1.045C7.487,11.908,7.14,10.79,7.14,9.25V8.59
	c0-1.54,0.348-2.658,1.045-3.355C8.881,4.539,9.999,4.19,11.539,4.19h7.723v3.08H12.42c-0.881,0-1.32,0.44-1.32,1.32v0.44
	c0,0.88,0.439,1.32,1.32,1.32h3.96c1.437,0,2.493,0.338,3.168,1.012c0.674,0.675,1.012,1.73,1.012,3.167v1.1
	c0,1.438-0.338,2.494-1.012,3.168c-0.675,0.676-1.731,1.014-3.168,1.014c-0.748,0-1.54-0.016-2.376-0.045l-2.024-0.088
	c-1.496-0.074-3.044-0.176-4.642-0.309V16.4z"/>
<path fill="#4D4D4D" d="M32.439,4.19h3.96v11.22c0,1.539-0.349,2.658-1.045,3.354c-0.696,0.697-1.814,1.047-3.354,1.047h-5.061
	c-1.54,0-2.658-0.35-3.354-1.047c-0.697-0.695-1.045-1.814-1.045-3.354V4.19h3.96v11.22c0,0.879,0.439,1.32,1.319,1.32h3.301
	c0.88,0,1.319-0.441,1.319-1.32V4.19z"/>
<path fill="#4D4D4D" d="M39.04,4.19h9.239c1.54,0,2.658,0.349,3.355,1.045C52.331,5.932,52.68,7.05,52.68,8.59v1.98
	c0,1.218-0.202,2.163-0.604,2.838c-0.404,0.674-1.046,1.121-1.926,1.342l2.75,4.84h-4.29l-2.529-4.621H43v4.621h-3.96V4.19z
	 M48.72,8.59c0-0.88-0.44-1.32-1.32-1.32H43v4.62h4.399c0.88,0,1.32-0.44,1.32-1.32V8.59z"/>
<path fill="#4D4D4D" d="M58.84,19.59h-3.96V4.19h12.211v3.08H58.84v3.63h6.489v3.081H58.84V19.59z"/>
<path fill="#4D4D4D" d="M70.06,19.59h-4.289l5.83-15.4h4.398l5.83,15.4H77.54l-0.99-2.75h-5.5L70.06,19.59z M72.04,13.98h3.52
	L73.8,8.81L72.04,13.98z"/>
<path fill="#4D4D4D" d="M94.37,19.369c-3.271,0.293-5.984,0.441-8.141,0.441c-1.438,0-2.494-0.338-3.168-1.014
	c-0.676-0.674-1.012-1.73-1.012-3.168V8.59c0-1.54,0.348-2.658,1.045-3.355C83.79,4.539,84.909,4.19,86.45,4.19h7.92v3.08h-7.041
	c-0.879,0-1.32,0.44-1.32,1.32v7.039c0,0.338,0.1,0.605,0.297,0.803c0.199,0.199,0.451,0.299,0.76,0.299s0.645-0.004,1.012-0.012
	s0.748-0.018,1.145-0.033c0.396-0.014,0.795-0.029,1.199-0.045c0.402-0.014,0.924-0.043,1.563-0.088
	c0.637-0.043,1.432-0.094,2.387-0.152V19.369z"/>
<path fill="#4D4D4D" d="M108.341,19.59H96.13V4.19h12.211v3.08h-8.25v2.97h6.488v3.081h-6.488v3.189h8.25V19.59z"/>
<path fill="#4D4D4D" d="M109.638,16.4c4.018,0.219,6.74,0.33,8.162,0.33c0.338,0,0.605-0.1,0.803-0.299
	c0.199-0.197,0.297-0.465,0.297-0.803V13.65h-5.061c-1.539,0-2.658-0.35-3.354-1.045c-0.697-0.697-1.045-1.815-1.045-3.355V8.59
	c0-1.54,0.348-2.658,1.045-3.355c0.695-0.696,1.814-1.045,3.354-1.045h7.723v3.08h-6.842c-0.881,0-1.32,0.44-1.32,1.32v0.44
	c0,0.88,0.439,1.32,1.32,1.32h3.961c1.436,0,2.492,0.338,3.168,1.012c0.674,0.675,1.012,1.73,1.012,3.167v1.1
	c0,1.438-0.338,2.494-1.012,3.168c-0.676,0.676-1.732,1.014-3.168,1.014c-0.748,0-1.541-0.016-2.377-0.045l-2.023-0.088
	c-1.496-0.074-3.045-0.176-4.643-0.309V16.4z"/>
</svg>
