<?xml version="1.0" encoding="utf-8"?>
<!-- Generator: Adobe Illustrator 16.0.0, SVG Export Plug-In . SVG Version: 6.00 Build 0)  -->
<!DOCTYPE svg PUBLIC "-//W3C//DTD SVG 1.1//EN" "http://www.w3.org/Graphics/SVG/1.1/DTD/svg11.dtd">
<svg version="1.1" id="레이어_1" xmlns="http://www.w3.org/2000/svg" xmlns:xlink="http://www.w3.org/1999/xlink" x="0px"
	 y="0px" width="142px" height="24px" viewBox="0 0 142 24" enable-background="new 0 0 142 24" xml:space="preserve">
<path fill="#4D4D4D" d="M27.28,19.699h-3.96V4.3h12.21v3.08h-8.25v3.63h6.489v3.08H27.28V19.699z"/>
<path fill="#4D4D4D" d="M38.5,19.699h-4.29L40.04,4.3h4.399l5.83,15.399h-4.29l-0.99-2.75h-5.5L38.5,19.699z M40.479,14.09H44
	l-1.761-5.17L40.479,14.09z"/>
<path fill="#4D4D4D" d="M50.908,16.51c4.018,0.22,6.739,0.33,8.161,0.33c0.338,0,0.605-0.1,0.804-0.297
	c0.198-0.198,0.297-0.466,0.297-0.803v-1.98h-5.061c-1.54,0-2.658-0.348-3.354-1.045C51.058,12.018,50.71,10.9,50.71,9.36V8.7
	c0-1.54,0.348-2.658,1.045-3.355C52.451,4.648,53.569,4.3,55.109,4.3h7.723v3.08H55.99c-0.881,0-1.32,0.44-1.32,1.32v0.44
	c0,0.88,0.439,1.32,1.32,1.32h3.96c1.437,0,2.493,0.338,3.168,1.012c0.674,0.675,1.012,1.731,1.012,3.168v1.101
	c0,1.438-0.338,2.493-1.012,3.168c-0.675,0.674-1.731,1.012-3.168,1.012c-0.748,0-1.54-0.016-2.376-0.045l-2.024-0.088
	c-1.496-0.072-3.044-0.176-4.642-0.308V16.51z"/>
<path fill="#4D4D4D" d="M79.53,19.699h-3.96v-6.27h-5.5v6.27h-3.96V4.3h3.96v6.05h5.5V4.3h3.96V19.699z"/>
<path fill="#4D4D4D" d="M89.43,19.699h-7.92v-3.08h1.979V7.38H81.51V4.3h7.92v3.08h-1.98v9.239h1.98V19.699z"/>
<path fill="#4D4D4D" d="M105.27,15.52c0,1.54-0.349,2.658-1.045,3.355c-0.696,0.696-1.814,1.045-3.354,1.045h-5.5
	c-1.54,0-2.659-0.349-3.355-1.045c-0.696-0.697-1.045-1.815-1.045-3.355v-7.04c0-1.54,0.349-2.658,1.045-3.355
	C92.711,4.428,93.83,4.08,95.37,4.08h5.5c1.54,0,2.658,0.349,3.354,1.045c0.696,0.697,1.045,1.815,1.045,3.355V15.52z M101.31,8.479
	c0-0.88-0.439-1.32-1.319-1.32h-3.74c-0.88,0-1.32,0.44-1.32,1.32v7.04c0,0.881,0.44,1.32,1.32,1.32h3.74
	c0.88,0,1.319-0.439,1.319-1.32V8.479z"/>
<path fill="#4D4D4D" d="M120.89,19.699h-4.181l-5.279-9.24v9.24h-3.96V4.3h4.18l5.28,9.239V4.3h3.96V19.699z"/>
</svg>
