<?xml version="1.0" encoding="utf-8"?>
<!-- Generator: Adobe Illustrator 16.0.0, SVG Export Plug-In . SVG Version: 6.00 Build 0)  -->
<!DOCTYPE svg PUBLIC "-//W3C//DTD SVG 1.1//EN" "http://www.w3.org/Graphics/SVG/1.1/DTD/svg11.dtd">
<svg version="1.1" id="레이어_1" xmlns="http://www.w3.org/2000/svg" xmlns:xlink="http://www.w3.org/1999/xlink" x="0px"
	 y="0px" width="170px" height="24px" viewBox="0 0 170 24" enable-background="new 0 0 170 24" xml:space="preserve">
<path fill="#4D4D4D" d="M11.016,4.3h9.239c1.54,0,2.658,0.349,3.355,1.045c0.696,0.697,1.045,1.815,1.045,3.355v1.98
	c0,1.218-0.202,2.164-0.604,2.837c-0.404,0.676-1.046,1.123-1.926,1.342l2.75,4.84h-4.29l-2.529-4.619h-3.08v4.619h-3.96V4.3z
	 M20.695,8.7c0-0.88-0.44-1.32-1.32-1.32h-4.399V12h4.399c0.88,0,1.32-0.44,1.32-1.32V8.7z"/>
<path fill="#4D4D4D" d="M39.065,19.699h-12.21V4.3h12.21v3.08h-8.25v2.97h6.489v3.08h-6.489v3.189h8.25V19.699z"/>
<path fill="#4D4D4D" d="M40.363,16.4c4.018,0.219,6.739,0.33,8.161,0.33c0.338,0,0.605-0.1,0.804-0.297
	c0.198-0.199,0.297-0.467,0.297-0.803v-1.98h-5.061c-1.54,0-2.658-0.348-3.354-1.045c-0.697-0.697-1.045-1.815-1.045-3.355V8.59
	c0-1.54,0.348-2.658,1.045-3.355c0.696-0.696,1.814-1.045,3.354-1.045h7.723v3.08h-6.842c-0.881,0-1.32,0.44-1.32,1.32v0.44
	c0,0.88,0.439,1.32,1.32,1.32h3.96c1.437,0,2.493,0.338,3.168,1.012c0.674,0.675,1.012,1.732,1.012,3.167v1.102
	c0,1.438-0.338,2.492-1.012,3.168c-0.675,0.674-1.731,1.012-3.168,1.012c-0.748,0-1.54-0.016-2.376-0.045l-2.024-0.088
	c-1.496-0.072-3.044-0.176-4.642-0.309V16.4z"/>
<path fill="#4D4D4D" d="M62.825,19.699h-7.92v-3.08h1.979V7.38h-1.979V4.3h7.92v3.08h-1.98v9.239h1.98V19.699z"/>
<path fill="#4D4D4D" d="M73.386,4.3c1.657,0,2.915,0.429,3.772,1.287c0.858,0.858,1.287,2.116,1.287,3.773v5.28
	c0,1.656-0.429,2.914-1.287,3.771c-0.857,0.859-2.115,1.287-3.772,1.287h-8.58V4.3H73.386z M74.485,9.36c0-1.32-0.66-1.98-1.98-1.98
	h-3.739v9.239h3.739c1.32,0,1.98-0.66,1.98-1.979V9.36z"/>
<path fill="#4D4D4D" d="M92.854,19.699h-12.21V4.3h12.21v3.08h-8.25v2.97h6.489v3.08h-6.489v3.189h8.25V19.699z"/>
<path fill="#4D4D4D" d="M108.035,19.699h-4.181l-5.279-9.239v9.239h-3.96V4.3h4.18l5.28,9.239V4.3h3.96V19.699z"/>
<path fill="#4D4D4D" d="M118.154,19.699h-3.96V7.38h-4.62V4.3h13.2v3.08h-4.62V19.699z"/>
<path fill="#4D4D4D" d="M131.574,19.699h-7.92v-3.08h1.979V7.38h-1.979V4.3h7.92v3.08h-1.98v9.239h1.98V19.699z"/>
<path fill="#4D4D4D" d="M136.305,19.699h-4.29l5.83-15.399h4.399l5.83,15.399h-4.29l-0.99-2.75h-5.5L136.305,19.699z M138.284,14.09
	h3.521l-1.761-5.169L138.284,14.09z"/>
<path fill="#4D4D4D" d="M153.135,16.619h8.029v3.08h-11.989V4.3h3.96V16.619z"/>
</svg>
