<?xml version="1.0" encoding="utf-8"?>
<!-- Generator: Adobe Illustrator 16.0.0, SVG Export Plug-In . SVG Version: 6.00 Build 0)  -->
<!DOCTYPE svg PUBLIC "-//W3C//DTD SVG 1.1//EN" "http://www.w3.org/Graphics/SVG/1.1/DTD/svg11.dtd">
<svg version="1.1" id="레이어_1" xmlns="http://www.w3.org/2000/svg" xmlns:xlink="http://www.w3.org/1999/xlink" x="0px"
	 y="0px" width="108px" height="54px" viewBox="0 0 108 54" enable-background="new 0 0 108 54" xml:space="preserve">
<path fill="#4D4D4D" d="M8.405,5.99h9.239c1.54,0,2.658,0.349,3.355,1.045c0.696,0.697,1.045,1.815,1.045,3.355v2.2
	c0,1.54-0.349,2.658-1.045,3.355c-0.697,0.697-1.815,1.045-3.355,1.045h-5.279v4.4h-3.96V5.99z M18.085,10.39
	c0-0.88-0.44-1.32-1.32-1.32h-4.399v4.84h4.399c0.88,0,1.32-0.44,1.32-1.32V10.39z"/>
<path fill="#4D4D4D" d="M33.925,5.99h3.96v11.22c0,1.54-0.349,2.659-1.045,3.355c-0.696,0.697-1.814,1.045-3.354,1.045h-5.061
	c-1.54,0-2.658-0.349-3.354-1.045c-0.697-0.696-1.045-1.815-1.045-3.355V5.99h3.96v11.22c0,0.88,0.439,1.32,1.319,1.32h3.301
	c0.88,0,1.319-0.44,1.319-1.32V5.99z"/>
<path fill="#4D4D4D" d="M40.525,5.99h8.8c1.438,0,2.493,0.327,3.168,0.979c0.675,0.653,1.012,1.646,1.012,2.981
	c0,0.88-0.19,1.595-0.572,2.145c-0.381,0.55-0.851,0.935-1.407,1.155c1.188,0.323,1.994,1.115,2.42,2.376
	c0.146,0.455,0.22,0.983,0.22,1.584c0,1.438-0.338,2.494-1.012,3.168c-0.675,0.675-1.731,1.012-3.168,1.012h-9.46V5.99z
	 M49.545,10.39c0-0.88-0.439-1.32-1.32-1.32h-3.739v3.08h3.739c0.881,0,1.32-0.44,1.32-1.32V10.39z M50.205,16.55
	c0-0.88-0.44-1.32-1.32-1.32h-4.399v3.08h4.399c0.88,0,1.32-0.44,1.32-1.32V16.55z"/>
<path fill="#4D4D4D" d="M60.104,18.31h8.029v3.08H56.145V5.99h3.96V18.31z"/>
<path fill="#4D4D4D" d="M76.935,21.39h-7.92v-3.08h1.979V9.07h-1.979V5.99h7.92v3.08h-1.98v9.24h1.98V21.39z"/>
<path fill="#4D4D4D" d="M90.795,21.17c-3.271,0.293-5.984,0.44-8.141,0.44c-1.438,0-2.493-0.337-3.168-1.012
	c-0.675-0.674-1.012-1.73-1.012-3.168v-7.04c0-1.54,0.349-2.658,1.045-3.355c0.696-0.696,1.815-1.045,3.355-1.045h7.92v3.08h-7.04
	c-0.88,0-1.32,0.44-1.32,1.32v7.04c0,0.337,0.1,0.605,0.297,0.803c0.198,0.198,0.451,0.297,0.76,0.297
	c0.308,0,0.645-0.003,1.012-0.011c0.366-0.007,0.748-0.018,1.144-0.033c0.396-0.015,0.796-0.029,1.199-0.044
	c0.403-0.014,0.924-0.044,1.563-0.088c0.638-0.044,1.433-0.095,2.387-0.154V21.17z"/>
<path fill="#4D4D4D" d="M14.543,44.6c4.018,0.221,6.739,0.33,8.161,0.33c0.338,0,0.605-0.099,0.804-0.297
	c0.198-0.197,0.297-0.465,0.297-0.803v-1.98h-5.061c-1.54,0-2.658-0.348-3.354-1.045c-0.697-0.696-1.045-1.814-1.045-3.354v-0.66
	c0-1.54,0.348-2.658,1.045-3.354c0.696-0.697,1.814-1.045,3.354-1.045h7.723v3.08h-6.842c-0.881,0-1.32,0.439-1.32,1.319v0.44
	c0,0.879,0.439,1.319,1.32,1.319h3.96c1.437,0,2.493,0.338,3.168,1.013c0.674,0.674,1.012,1.73,1.012,3.168v1.1
	c0,1.438-0.338,2.494-1.012,3.168c-0.675,0.675-1.731,1.012-3.168,1.012c-0.748,0-1.54-0.015-2.376-0.044l-2.024-0.088
	c-1.496-0.073-3.044-0.176-4.642-0.308V44.6z"/>
<path fill="#4D4D4D" d="M29.745,32.391h9.239c1.54,0,2.658,0.348,3.355,1.045c0.696,0.696,1.045,1.814,1.045,3.354v2.2
	c0,1.54-0.349,2.658-1.045,3.355c-0.697,0.696-1.815,1.045-3.355,1.045h-5.279v4.399h-3.96V32.391z M39.425,36.79
	c0-0.88-0.44-1.319-1.32-1.319h-4.399v4.84h4.399c0.88,0,1.32-0.44,1.32-1.32V36.79z"/>
<path fill="#4D4D4D" d="M46.795,47.79h-4.29l5.83-15.399h4.399l5.83,15.399h-4.29l-0.99-2.75h-5.5L46.795,47.79z M48.774,42.18
	h3.521l-1.761-5.17L48.774,42.18z"/>
<path fill="#4D4D4D" d="M71.104,47.57c-3.271,0.293-5.984,0.439-8.141,0.439c-1.438,0-2.493-0.337-3.168-1.012
	c-0.675-0.674-1.012-1.73-1.012-3.168v-7.04c0-1.54,0.349-2.658,1.045-3.354c0.696-0.697,1.815-1.045,3.355-1.045h7.92v3.08h-7.04
	c-0.88,0-1.32,0.439-1.32,1.319v7.04c0,0.338,0.1,0.605,0.297,0.803c0.198,0.198,0.451,0.297,0.76,0.297
	c0.308,0,0.645-0.003,1.012-0.011c0.366-0.007,0.748-0.019,1.144-0.032c0.396-0.016,0.796-0.029,1.199-0.045
	c0.403-0.014,0.924-0.044,1.563-0.088c0.638-0.044,1.433-0.096,2.387-0.154V47.57z"/>
<path fill="#4D4D4D" d="M85.075,47.79h-12.21V32.391h12.21v3.08h-8.25v2.969h6.489v3.08h-6.489v3.19h8.25V47.79z"/>
<path fill="#4D4D4D" d="M86.373,44.6c4.018,0.221,6.739,0.33,8.161,0.33c0.338,0,0.605-0.099,0.804-0.297
	c0.198-0.197,0.297-0.465,0.297-0.803v-1.98h-5.061c-1.54,0-2.658-0.348-3.354-1.045c-0.697-0.696-1.045-1.814-1.045-3.354v-0.66
	c0-1.54,0.348-2.658,1.045-3.354c0.696-0.697,1.814-1.045,3.354-1.045h7.723v3.08h-6.842c-0.881,0-1.32,0.439-1.32,1.319v0.44
	c0,0.879,0.439,1.319,1.32,1.319h3.96c1.437,0,2.493,0.338,3.168,1.013c0.674,0.674,1.012,1.73,1.012,3.168v1.1
	c0,1.438-0.338,2.494-1.012,3.168c-0.675,0.675-1.731,1.012-3.168,1.012c-0.748,0-1.54-0.015-2.376-0.044l-2.024-0.088
	c-1.496-0.073-3.044-0.176-4.642-0.308V44.6z"/>
</svg>
