<?xml version="1.0" encoding="utf-8"?>
<!-- Generator: Adobe Illustrator 16.0.0, SVG Export Plug-In . SVG Version: 6.00 Build 0)  -->
<!DOCTYPE svg PUBLIC "-//W3C//DTD SVG 1.1//EN" "http://www.w3.org/Graphics/SVG/1.1/DTD/svg11.dtd">
<svg version="1.1" id="레이어_1" xmlns="http://www.w3.org/2000/svg" xmlns:xlink="http://www.w3.org/1999/xlink" x="0px"
	 y="0px" width="142px" height="24px" viewBox="0 0 142 24" enable-background="new 0 0 142 24" xml:space="preserve">
<path fill="#4D4D4D" d="M11.28,19.699H7.32V4.3h12.21v3.08h-8.25v3.63h6.489v3.08H11.28V19.699z"/>
<path fill="#4D4D4D" d="M30.97,4.3h3.96v11.22c0,1.54-0.349,2.658-1.045,3.355c-0.696,0.696-1.814,1.045-3.354,1.045H25.47
	c-1.54,0-2.658-0.349-3.354-1.045c-0.697-0.697-1.045-1.815-1.045-3.355V4.3h3.96v11.22c0,0.881,0.439,1.32,1.319,1.32h3.301
	c0.88,0,1.319-0.439,1.319-1.32V4.3z"/>
<path fill="#4D4D4D" d="M37.57,4.3h9.239c1.54,0,2.658,0.349,3.355,1.045C50.861,6.042,51.21,7.16,51.21,8.7v1.98
	c0,1.218-0.202,2.164-0.604,2.838c-0.404,0.675-1.046,1.122-1.926,1.342l2.75,4.84h-4.29L44.61,15.08h-3.08v4.619h-3.96V4.3z
	 M47.25,8.7c0-0.88-0.44-1.32-1.32-1.32H41.53V12h4.399c0.88,0,1.32-0.44,1.32-1.32V8.7z"/>
<path fill="#4D4D4D" d="M66.83,19.699h-4.181l-5.279-9.24v9.24h-3.96V4.3h4.18l5.28,9.239V4.3h3.96V19.699z"/>
<path fill="#4D4D4D" d="M76.729,19.699h-7.92v-3.08h1.979V7.38H68.81V4.3h7.92v3.08h-1.98v9.239h1.98V19.699z"/>
<path fill="#4D4D4D" d="M86.189,19.699h-3.96V7.38h-4.62V4.3h13.2v3.08h-4.62V19.699z"/>
<path fill="#4D4D4D" d="M102.249,4.3h3.96v11.22c0,1.54-0.349,2.658-1.045,3.355c-0.696,0.696-1.814,1.045-3.354,1.045h-5.061
	c-1.54,0-2.658-0.349-3.354-1.045c-0.697-0.697-1.045-1.815-1.045-3.355V4.3h3.96v11.22c0,0.881,0.439,1.32,1.319,1.32h3.301
	c0.88,0,1.319-0.439,1.319-1.32V4.3z"/>
<path fill="#4D4D4D" d="M108.85,4.3h9.239c1.54,0,2.658,0.349,3.355,1.045c0.696,0.697,1.045,1.815,1.045,3.355v1.98
	c0,1.218-0.202,2.164-0.604,2.838c-0.404,0.675-1.046,1.122-1.926,1.342l2.75,4.84h-4.29l-2.529-4.619h-3.08v4.619h-3.96V4.3z
	 M118.529,8.7c0-0.88-0.44-1.32-1.32-1.32h-4.399V12h4.399c0.88,0,1.32-0.44,1.32-1.32V8.7z"/>
<path fill="#4D4D4D" d="M136.899,19.699h-12.21V4.3h12.21v3.08h-8.25v2.97h6.489v3.08h-6.489v3.189h8.25V19.699z"/>
</svg>
