<?xml version="1.0" encoding="utf-8"?>
<!-- Generator: Adobe Illustrator 16.0.0, SVG Export Plug-In . SVG Version: 6.00 Build 0)  -->
<!DOCTYPE svg PUBLIC "-//W3C//DTD SVG 1.1//EN" "http://www.w3.org/Graphics/SVG/1.1/DTD/svg11.dtd">
<svg version="1.1" id="레이어_1" xmlns="http://www.w3.org/2000/svg" xmlns:xlink="http://www.w3.org/1999/xlink" x="0px"
	 y="0px" width="170px" height="54px" viewBox="0 0 170 54" enable-background="new 0 0 170 54" xml:space="preserve">
<path fill="#4D4D4D" d="M16.74,21.7h-3.96v-6.27h-5.5v6.27H3.32V6.3h3.96v6.05h5.5V6.3h3.96V21.7z"/>
<path fill="#4D4D4D" d="M33.239,17.52c0,1.54-0.349,2.659-1.045,3.355c-0.696,0.697-1.814,1.045-3.354,1.045h-5.5
	c-1.54,0-2.659-0.349-3.355-1.045c-0.696-0.696-1.045-1.815-1.045-3.355v-7.04c0-1.54,0.349-2.658,1.045-3.355
	C20.681,6.428,21.8,6.08,23.34,6.08h5.5c1.54,0,2.658,0.349,3.354,1.045c0.696,0.697,1.045,1.815,1.045,3.355V17.52z M29.279,10.479
	c0-0.88-0.439-1.32-1.319-1.32h-3.74c-0.88,0-1.32,0.44-1.32,1.32v7.04c0,0.88,0.44,1.32,1.32,1.32h3.74
	c0.88,0,1.319-0.44,1.319-1.32V10.479z"/>
<path fill="#4D4D4D" d="M34.979,18.51c4.018,0.22,6.739,0.33,8.161,0.33c0.338,0,0.605-0.099,0.804-0.297
	c0.198-0.198,0.297-0.465,0.297-0.803v-1.98H39.18c-1.54,0-2.658-0.348-3.354-1.045c-0.697-0.697-1.045-1.815-1.045-3.355V10.7
	c0-1.54,0.348-2.658,1.045-3.355C36.521,6.648,37.64,6.3,39.18,6.3h7.723v3.08h-6.842c-0.881,0-1.32,0.44-1.32,1.32v0.44
	c0,0.88,0.439,1.32,1.32,1.32h3.96c1.437,0,2.493,0.338,3.168,1.012c0.674,0.675,1.012,1.731,1.012,3.168v1.1
	c0,1.438-0.338,2.494-1.012,3.168c-0.675,0.675-1.731,1.012-3.168,1.012c-0.748,0-1.54-0.015-2.376-0.044l-2.024-0.088
	c-1.496-0.073-3.044-0.176-4.642-0.308V18.51z"/>
<path fill="#4D4D4D" d="M50.18,6.3h9.239c1.54,0,2.658,0.349,3.355,1.045c0.696,0.697,1.045,1.815,1.045,3.355v2.2
	c0,1.54-0.349,2.658-1.045,3.355c-0.697,0.697-1.815,1.045-3.355,1.045H54.14v4.4h-3.96V6.3z M59.859,10.7
	c0-0.88-0.44-1.32-1.32-1.32H54.14v4.84h4.399c0.88,0,1.32-0.44,1.32-1.32V10.7z"/>
<path fill="#4D4D4D" d="M73.06,21.7h-7.92v-3.08h1.979V9.38H65.14V6.3h7.92v3.08h-1.98v9.24h1.98V21.7z"/>
<path fill="#4D4D4D" d="M82.52,21.7h-3.96V9.38h-4.62V6.3h13.2v3.08h-4.62V21.7z"/>
<path fill="#4D4D4D" d="M89.89,21.7H85.6l5.83-15.4h4.399l5.83,15.4h-4.29l-0.99-2.75h-5.5L89.89,21.7z M91.869,16.09h3.521
	l-1.761-5.17L91.869,16.09z"/>
<path fill="#4D4D4D" d="M106.72,18.62h8.029v3.08H102.76V6.3h3.96V18.62z"/>
<path fill="#4D4D4D" d="M123.549,21.7h-7.92v-3.08h1.979V9.38h-1.979V6.3h7.92v3.08h-1.98v9.24h1.98V21.7z"/>
<path fill="#4D4D4D" d="M133.009,21.7h-3.96V9.38h-4.62V6.3h13.2v3.08h-4.62V21.7z"/>
<path fill="#4D4D4D" d="M137.408,6.3h4.181l3.63,7.48l3.63-7.48h4.18l-5.83,11.33v4.07h-3.96v-4.07L137.408,6.3z"/>
<path fill="#4D4D4D" d="M160.069,12.459h3.739v3.08h-3.739v3.74h-3.08v-3.74h-3.74v-3.08h3.74V8.72h3.08V12.459z"/>
<path fill="#4D4D4D" d="M16.52,32.699h9.239c1.54,0,2.658,0.35,3.355,1.045c0.696,0.697,1.045,1.815,1.045,3.355v1.98
	c0,1.217-0.202,2.163-0.604,2.838c-0.404,0.674-1.046,1.121-1.926,1.342l2.75,4.84h-4.29l-2.529-4.62h-3.08v4.62h-3.96V32.699z
	 M26.199,37.1c0-0.88-0.44-1.32-1.32-1.32h-4.399v4.62h4.399c0.88,0,1.32-0.44,1.32-1.319V37.1z"/>
<path fill="#4D4D4D" d="M44.569,48.1h-12.21v-15.4h12.21v3.08h-8.25v2.971h6.489v3.08h-6.489v3.189h8.25V48.1z"/>
<path fill="#4D4D4D" d="M45.867,44.91c4.018,0.219,6.739,0.33,8.161,0.33c0.338,0,0.605-0.1,0.804-0.298s0.297-0.466,0.297-0.803
	V42.16h-5.061c-1.54,0-2.658-0.349-3.354-1.045c-0.697-0.697-1.045-1.815-1.045-3.355V37.1c0-1.54,0.348-2.658,1.045-3.355
	c0.696-0.695,1.814-1.045,3.354-1.045h7.723v3.08h-6.842c-0.881,0-1.32,0.44-1.32,1.32v0.439c0,0.881,0.439,1.32,1.32,1.32h3.96
	c1.437,0,2.493,0.338,3.168,1.012c0.674,0.676,1.012,1.731,1.012,3.168v1.101c0,1.438-0.338,2.493-1.012,3.168
	c-0.675,0.675-1.731,1.013-3.168,1.013c-0.748,0-1.54-0.016-2.376-0.045l-2.024-0.088c-1.496-0.073-3.044-0.176-4.642-0.309V44.91z"
	/>
<path fill="#4D4D4D" d="M68.329,48.1h-7.92v-3.08h1.979v-9.24h-1.979v-3.08h7.92v3.08h-1.98v9.24h1.98V48.1z"/>
<path fill="#4D4D4D" d="M78.89,32.699c1.657,0,2.915,0.43,3.772,1.287c0.858,0.858,1.287,2.116,1.287,3.773v5.279
	c0,1.658-0.429,2.916-1.287,3.773C81.805,47.67,80.547,48.1,78.89,48.1h-8.58v-15.4H78.89z M79.989,37.76
	c0-1.32-0.66-1.98-1.98-1.98H74.27v9.24h3.739c1.32,0,1.98-0.66,1.98-1.98V37.76z"/>
<path fill="#4D4D4D" d="M98.359,48.1h-12.21v-15.4h12.21v3.08h-8.25v2.971h6.489v3.08h-6.489v3.189h8.25V48.1z"/>
<path fill="#4D4D4D" d="M113.539,48.1h-4.181l-5.279-9.24v9.24h-3.96v-15.4h4.18l5.28,9.24v-9.24h3.96V48.1z"/>
<path fill="#4D4D4D" d="M123.658,48.1h-3.96v-12.32h-4.62v-3.08h13.2v3.08h-4.62V48.1z"/>
<path fill="#4D4D4D" d="M137.078,48.1h-7.92v-3.08h1.979v-9.24h-1.979v-3.08h7.92v3.08h-1.98v9.24h1.98V48.1z"/>
<path fill="#4D4D4D" d="M141.809,48.1h-4.29l5.83-15.4h4.399l5.83,15.4h-4.29l-0.99-2.75h-5.5L141.809,48.1z M143.788,42.49h3.521
	l-1.761-5.17L143.788,42.49z"/>
<path fill="#4D4D4D" d="M158.639,45.02h8.029v3.08h-11.989v-15.4h3.96V45.02z"/>
</svg>
