<?xml version="1.0" encoding="utf-8"?>
<!-- Generator: Adobe Illustrator 16.0.0, SVG Export Plug-In . SVG Version: 6.00 Build 0)  -->
<!DOCTYPE svg PUBLIC "-//W3C//DTD SVG 1.1//EN" "http://www.w3.org/Graphics/SVG/1.1/DTD/svg11.dtd">
<svg version="1.1" id="레이어_1" xmlns="http://www.w3.org/2000/svg" xmlns:xlink="http://www.w3.org/1999/xlink" x="0px"
	 y="0px" width="170px" height="54px" viewBox="0 0 170 54" enable-background="new 0 0 170 54" xml:space="preserve">
<path fill="#4D4D4D" d="M30.2,21.479c-3.271,0.293-5.984,0.44-8.141,0.44c-1.438,0-2.493-0.337-3.168-1.012
	c-0.675-0.674-1.012-1.73-1.012-3.168V10.7c0-1.54,0.349-2.658,1.045-3.355C19.621,6.648,20.74,6.3,22.28,6.3h7.92v3.08h-7.04
	c-0.88,0-1.32,0.44-1.32,1.32v7.04c0,0.337,0.1,0.605,0.297,0.803c0.198,0.198,0.451,0.297,0.76,0.297
	c0.308,0,0.645-0.003,1.012-0.011c0.366-0.007,0.748-0.018,1.144-0.033c0.396-0.015,0.796-0.029,1.199-0.044
	c0.403-0.014,0.924-0.044,1.563-0.088c0.638-0.044,1.433-0.095,2.387-0.154V21.479z"/>
<path fill="#4D4D4D" d="M45.819,17.52c0,1.54-0.349,2.659-1.045,3.355c-0.696,0.697-1.814,1.045-3.354,1.045h-5.5
	c-1.54,0-2.659-0.349-3.355-1.045c-0.696-0.696-1.045-1.815-1.045-3.355v-7.04c0-1.54,0.349-2.658,1.045-3.355
	C33.261,6.428,34.38,6.08,35.92,6.08h5.5c1.54,0,2.658,0.349,3.354,1.045c0.696,0.697,1.045,1.815,1.045,3.355V17.52z
	 M41.859,10.479c0-0.88-0.439-1.32-1.319-1.32H36.8c-0.88,0-1.32,0.44-1.32,1.32v7.04c0,0.88,0.44,1.32,1.32,1.32h3.74
	c0.88,0,1.319-0.44,1.319-1.32V10.479z"/>
<path fill="#4D4D4D" d="M61.44,21.7H57.26l-5.279-9.24v9.24h-3.96V6.3h4.18l5.28,9.24V6.3h3.96V21.7z"/>
<path fill="#4D4D4D" d="M75.96,21.479c-3.271,0.293-5.984,0.44-8.141,0.44c-1.438,0-2.493-0.337-3.168-1.012
	c-0.675-0.674-1.012-1.73-1.012-3.168V10.7c0-1.54,0.349-2.658,1.045-3.355C65.381,6.648,66.5,6.3,68.04,6.3h7.92v3.08h-7.04
	c-0.88,0-1.32,0.44-1.32,1.32v7.04c0,0.337,0.1,0.605,0.297,0.803c0.198,0.198,0.451,0.297,0.76,0.297
	c0.308,0,0.645-0.003,1.012-0.011c0.366-0.007,0.748-0.018,1.144-0.033c0.396-0.015,0.796-0.029,1.199-0.044
	c0.403-0.014,0.924-0.044,1.563-0.088c0.638-0.044,1.433-0.095,2.387-0.154V21.479z"/>
<path fill="#4D4D4D" d="M89.93,21.7H77.72V6.3h12.21v3.08h-8.25v2.97h6.489v3.08H81.68v3.19h8.25V21.7z"/>
<path fill="#4D4D4D" d="M91.689,6.3h9.239c1.54,0,2.658,0.349,3.355,1.045c0.696,0.697,1.045,1.815,1.045,3.355v2.2
	c0,1.54-0.349,2.658-1.045,3.355c-0.697,0.697-1.815,1.045-3.355,1.045h-5.279v4.4h-3.96V6.3z M101.369,10.7
	c0-0.88-0.44-1.32-1.32-1.32h-4.399v4.84h4.399c0.88,0,1.32-0.44,1.32-1.32V10.7z"/>
<path fill="#4D4D4D" d="M114.789,21.7h-3.96V9.38h-4.62V6.3h13.2v3.08h-4.62V21.7z"/>
<path fill="#4D4D4D" d="M127.109,12.459h3.739v3.08h-3.739v3.74h-3.08v-3.74h-3.74v-3.08h3.74V8.72h3.08V12.459z"/>
<path fill="#4D4D4D" d="M37.13,48.1H24.92v-15.4h12.21v3.08h-8.25v2.971h6.489v3.08H28.88v3.189h8.25V48.1z"/>
<path fill="#4D4D4D" d="M47.8,32.699h4.399l-4.95,7.7l5.061,7.7h-4.4l-3.08-4.84l-3.08,4.84H37.35l5.06-7.7l-4.95-7.7h4.378
	l2.992,4.84L47.8,32.699z"/>
<path fill="#4D4D4D" d="M66.83,48.1h-3.96v-6.27h-5.5v6.27h-3.96v-15.4h3.96v6.051h5.5v-6.051h3.96V48.1z"/>
<path fill="#4D4D4D" d="M76.729,48.1h-7.92v-3.08h1.979v-9.24H68.81v-3.08h7.92v3.08h-1.98v9.24h1.98V48.1z"/>
<path fill="#4D4D4D" d="M78.71,32.699h8.8c1.438,0,2.493,0.327,3.168,0.979c0.675,0.653,1.012,1.646,1.012,2.981
	c0,0.879-0.19,1.594-0.572,2.145c-0.381,0.55-0.851,0.936-1.407,1.154c1.188,0.323,1.994,1.115,2.42,2.377
	c0.146,0.455,0.22,0.982,0.22,1.584c0,1.438-0.338,2.493-1.012,3.168c-0.675,0.674-1.731,1.012-3.168,1.012h-9.46V32.699z
	 M87.729,37.1c0-0.88-0.439-1.32-1.32-1.32H82.67v3.08h3.739c0.881,0,1.32-0.439,1.32-1.32V37.1z M88.39,43.26
	c0-0.881-0.44-1.32-1.32-1.32H82.67v3.08h4.399c0.88,0,1.32-0.439,1.32-1.32V43.26z"/>
<path fill="#4D4D4D" d="M101.589,48.1h-7.92v-3.08h1.979v-9.24h-1.979v-3.08h7.92v3.08h-1.98v9.24h1.98V48.1z"/>
<path fill="#4D4D4D" d="M111.049,48.1h-3.96v-12.32h-4.62v-3.08h13.2v3.08h-4.62V48.1z"/>
<path fill="#4D4D4D" d="M124.469,48.1h-7.92v-3.08h1.979v-9.24h-1.979v-3.08h7.92v3.08h-1.98v9.24h1.98V48.1z"/>
<path fill="#4D4D4D" d="M140.309,43.92c0,1.539-0.349,2.658-1.045,3.354s-1.814,1.046-3.354,1.046h-5.5
	c-1.54,0-2.659-0.35-3.355-1.046s-1.045-1.815-1.045-3.354v-7.041c0-1.539,0.349-2.658,1.045-3.354s1.815-1.045,3.355-1.045h5.5
	c1.54,0,2.658,0.349,3.354,1.045s1.045,1.815,1.045,3.354V43.92z M136.349,36.879c0-0.879-0.439-1.319-1.319-1.319h-3.74
	c-0.88,0-1.32,0.44-1.32,1.319v7.041c0,0.88,0.44,1.32,1.32,1.32h3.74c0.88,0,1.319-0.44,1.319-1.32V36.879z"/>
<path fill="#4D4D4D" d="M155.929,48.1h-4.181l-5.279-9.24v9.24h-3.96v-15.4h4.18l5.28,9.24v-9.24h3.96V48.1z"/>
</svg>
