<?xml version="1.0" encoding="utf-8"?>
<!-- Generator: Adobe Illustrator 16.0.0, SVG Export Plug-In . SVG Version: 6.00 Build 0)  -->
<!DOCTYPE svg PUBLIC "-//W3C//DTD SVG 1.1//EN" "http://www.w3.org/Graphics/SVG/1.1/DTD/svg11.dtd">
<svg version="1.1" id="레이어_1" xmlns="http://www.w3.org/2000/svg" xmlns:xlink="http://www.w3.org/1999/xlink" x="0px"
	 y="0px" width="100px" height="24px" viewBox="0 0 100 24" enable-background="new 0 0 100 24" xml:space="preserve">
<path fill="#4D4D4D" d="M28.52,11.12l-3.079,5.5h-3.08l-3.08-5.5v8.58h-3.96V4.3h4.18l4.4,8.14L28.3,4.3h4.181v15.399H28.52V11.12z"
	/>
<path fill="#4D4D4D" d="M47.33,19.699H35.12V4.3h12.21v3.08h-8.25v2.97h6.489v3.08H39.08v3.189h8.25V19.699z"/>
<path fill="#4D4D4D" d="M57.67,4.3c1.657,0,2.915,0.429,3.772,1.287c0.858,0.858,1.287,2.116,1.287,3.773v5.28
	c0,1.657-0.429,2.915-1.287,3.772c-0.857,0.858-2.115,1.287-3.772,1.287h-8.58V4.3H57.67z M58.77,9.36c0-1.32-0.66-1.98-1.98-1.98
	H53.05v9.239h3.739c1.32,0,1.98-0.66,1.98-1.979V9.36z"/>
<path fill="#4D4D4D" d="M72.189,19.699h-7.92v-3.08h1.979V7.38H64.27V4.3h7.92v3.08h-1.98v9.239h1.98V19.699z"/>
<path fill="#4D4D4D" d="M76.92,19.699h-4.29L78.46,4.3h4.399l5.83,15.399h-4.29l-0.99-2.75h-5.5L76.92,19.699z M78.899,14.09h3.521
	l-1.761-5.17L78.899,14.09z"/>
</svg>
