<?xml version="1.0" encoding="utf-8"?>
<!-- Generator: Adobe Illustrator 16.0.0, SVG Export Plug-In . SVG Version: 6.00 Build 0)  -->
<svg version="1.2" baseProfile="tiny" id="레이어_1"
	 xmlns="http://www.w3.org/2000/svg" xmlns:xlink="http://www.w3.org/1999/xlink" x="0px" y="0px" width="128px" height="128px"
	 viewBox="0 0 128 128" xml:space="preserve">
<rect x="6" y="62" fill="#00FFFF" width="10" height="4"/>
<rect x="112" y="62" fill="#00FFFF" width="10" height="4"/>
<rect x="62" y="112" fill="#00FFFF" width="4" height="10"/>
<path fill="#00FFFF" d="M70.491,36.044c0-3.368-3.021-6.044-6.487-6.044c-3.466,0-6.293,2.676-6.482,6.044
	c0,0-0.022,28.437-0.022,28.556c0,3.535,2.907,6.4,6.496,6.4c3.587,0,6.504-2.865,6.504-6.4C70.5,64.48,70.491,36.044,70.491,36.044
	z M63.996,68.5c-2.76,0-3.996-1.268-3.996-4.065c0-0.095,0.017-28.151,0.017-28.151c0.146-2.666,1.321-3.783,3.987-3.783
	s3.99,1.117,3.99,3.783c0,0,0.006,28.057,0.006,28.151C68,67.232,66.756,68.5,63.996,68.5z"/>
<circle fill="#00FFFF" cx="64" cy="64" r="2"/>
<path fill="#00FFFF" d="M98.741,89.477L70.825,61.673c0.001,0.868,0.014,3.521,0.014,3.521c1.625,1.625,25.925,25.924,25.925,25.924
	c1.885,1.886,1.651,3.622-0.234,5.507c-1.885,1.886-3.654,2.039-5.541,0.153c0,0-17.867-17.836-25.411-25.379
	c-0.083,0.004-2.295,0.414-3.93-0.377c6.761,6.756,27.707,27.695,27.707,27.695c2.379,2.383,6.482,2.139,8.934-0.312
	C100.734,95.955,100.99,91.99,98.741,89.477z"/>
<path fill="#00FFFF" d="M40.397,23.937l3.356-1.089c0.671,1.825,0.784,3.456,0.338,4.894c-0.446,1.439-1.418,2.694-2.918,3.767
	c-1.855,1.327-3.834,1.784-5.936,1.371c-2.102-0.413-3.938-1.718-5.511-3.917c-1.664-2.326-2.355-4.563-2.075-6.708
	c0.281-2.146,1.399-3.919,3.356-5.319c1.709-1.223,3.459-1.711,5.25-1.464c1.063,0.143,2.153,0.66,3.271,1.551l-2.315,2.666
	c-0.684-0.606-1.438-0.932-2.262-0.976c-0.824-0.045-1.611,0.202-2.361,0.738c-1.036,0.741-1.61,1.713-1.724,2.918
	c-0.113,1.206,0.427,2.641,1.617,4.305c1.264,1.767,2.481,2.798,3.653,3.093c1.172,0.295,2.266,0.08,3.283-0.648
	c0.75-0.536,1.225-1.236,1.424-2.099S40.894,25.127,40.397,23.937z"/>
<path fill="#00FFFF" d="M49.407,26.722l-5.601-16.242l3.113-1.073l5.601,16.242L49.407,26.722z"/>
<path fill="#00FFFF" d="M54.031,18.246c-0.085-1.09,0.102-2.167,0.559-3.229c0.458-1.063,1.158-1.901,2.102-2.516
	c0.943-0.615,2.022-0.97,3.237-1.065c1.877-0.147,3.463,0.342,4.759,1.467c1.295,1.127,2.015,2.62,2.16,4.481
	c0.146,1.877-0.337,3.48-1.451,4.809c-1.115,1.329-2.591,2.067-4.43,2.21c-1.138,0.089-2.242-0.084-3.314-0.517
	c-1.073-0.433-1.916-1.125-2.531-2.077C54.507,20.86,54.143,19.672,54.031,18.246z M57.41,18.159c0.097,1.23,0.463,2.15,1.098,2.758
	c0.636,0.609,1.382,0.879,2.239,0.813s1.55-0.45,2.079-1.15c0.529-0.7,0.745-1.673,0.647-2.919c-0.095-1.215-0.458-2.126-1.09-2.735
	c-0.631-0.609-1.375-0.88-2.232-0.813s-1.551,0.451-2.085,1.15C57.532,15.963,57.313,16.928,57.41,18.159z"/>
<path fill="#00FFFF" d="M82.114,18.334l-3.289-0.257c0.06-0.655-0.057-1.19-0.348-1.606c-0.291-0.415-0.734-0.701-1.332-0.858
	c-0.793-0.208-1.498-0.1-2.114,0.324c-0.615,0.424-1.092,1.278-1.43,2.563c-0.374,1.429-0.398,2.501-0.074,3.216
	c0.325,0.716,0.893,1.18,1.701,1.392c0.604,0.159,1.145,0.117,1.619-0.126c0.477-0.243,0.903-0.763,1.282-1.561l2.99,1.354
	c-0.703,1.351-1.61,2.271-2.725,2.762c-1.114,0.491-2.447,0.534-3.996,0.128c-1.761-0.463-3.019-1.387-3.773-2.771
	c-0.756-1.386-0.875-3.061-0.359-5.026c0.521-1.987,1.452-3.396,2.794-4.228c1.34-0.832,2.906-1.013,4.697-0.543
	c1.466,0.385,2.549,1.006,3.249,1.864C81.706,15.818,82.075,16.942,82.114,18.334z"/>
<path fill="#00FFFF" d="M81.559,27.698l9.383-14.392l2.758,1.798l-4.979,7.638l5.624-1.565l3.396,2.214l-6.048,1.485l-0.495,9.107
	l-2.975-1.94l0.433-6.392l-2.163,0.506l-2.176,3.338L81.559,27.698z"/>
</svg>
