<?xml version="1.0" encoding="utf-8"?>
<!-- Generator: Adobe Illustrator 16.0.0, SVG Export Plug-In . SVG Version: 6.00 Build 0)  -->
<!DOCTYPE svg PUBLIC "-//W3C//DTD SVG 1.1//EN" "http://www.w3.org/Graphics/SVG/1.1/DTD/svg11.dtd">
<svg version="1.1" id="레이어_1" xmlns="http://www.w3.org/2000/svg" xmlns:xlink="http://www.w3.org/1999/xlink" x="0px"
	 y="0px" width="40px" height="40px" viewBox="0 0 40 40" enable-background="new 0 0 40 40" xml:space="preserve">
<g>
	<path fill="#FFFFFF" d="M11.624,27.782c-4.292,0-7.783-3.49-7.783-7.781c0-4.292,3.491-7.784,7.783-7.784h4.726
		c4.292,0,7.783,3.492,7.783,7.784l-1.05,0.05c-0.05-3.735-3.048-6.734-6.733-6.734h-4.726c-3.685,0-6.683,2.999-6.683,6.684
		c0,3.685,2.998,6.682,6.683,6.682h4.726l0.05,1.1H11.624z"/>
	<path fill="#666666" d="M16.35,12.267c4.263,0,7.733,3.469,7.733,7.734h-1c0-3.713-3.021-6.734-6.733-6.734h-4.726
		c-3.712,0-6.733,3.021-6.733,6.734c0,3.712,3.021,6.731,6.733,6.731h4.726v1h-4.726c-4.264,0-7.733-3.469-7.733-7.731
		c0-4.265,3.469-7.734,7.733-7.734H16.35 M16.35,12.167h-4.726c-4.319,0-7.833,3.514-7.833,7.834c0,4.318,3.514,7.831,7.833,7.831
		h4.726h0.1v-0.1v-1v-0.1h-0.1h-4.726c-3.657,0-6.633-2.976-6.633-6.632c0-3.658,2.976-6.634,6.633-6.634h4.726
		c3.657,0,6.633,2.976,6.633,6.634v0.1h0.1h1h0.1v-0.1C24.183,15.681,20.669,12.167,16.35,12.167L16.35,12.167z"/>
</g>
<g>
	<path fill="#FFFFFF" d="M23.65,27.784c-4.291,0-7.782-3.492-7.782-7.784l1.05-0.05c0.05,3.735,3.048,6.734,6.732,6.734h4.727
		c3.685,0,6.683-2.999,6.683-6.685c0-3.685-2.998-6.683-6.683-6.683H23.65l-0.05-1.05l4.776-0.05c4.291,0,7.782,3.491,7.782,7.783
		c0,4.292-3.491,7.784-7.782,7.784H23.65z"/>
	<path fill="#666666" d="M28.377,12.267c4.264,0,7.732,3.469,7.732,7.733c0,4.266-3.469,7.734-7.732,7.734H23.65
		c-4.264,0-7.732-3.471-7.732-7.734h1c0,3.713,3.02,6.734,6.732,6.734h4.727c3.712,0,6.732-3.021,6.732-6.734
		c0-3.712-3.021-6.733-6.732-6.733H23.65v-1H28.377 M28.377,12.167H23.65h-0.1v0.1v1v0.1h0.1h4.727c3.657,0,6.633,2.976,6.633,6.633
		c0,3.658-2.976,6.635-6.633,6.635H23.65c-3.657,0-6.632-2.977-6.632-6.635v-0.1h-0.1h-1h-0.1V20c0,4.32,3.514,7.834,7.833,7.834
		h4.727c4.318,0,7.832-3.514,7.832-7.834C36.209,15.681,32.695,12.167,28.377,12.167L28.377,12.167z"/>
</g>
</svg>
