<?xml version="1.0" encoding="utf-8"?>
<!-- Generator: Adobe Illustrator 16.0.0, SVG Export Plug-In . SVG Version: 6.00 Build 0)  -->
<!DOCTYPE svg PUBLIC "-//W3C//DTD SVG 1.1//EN" "http://www.w3.org/Graphics/SVG/1.1/DTD/svg11.dtd">
<svg version="1.1" id="레이어_1" xmlns="http://www.w3.org/2000/svg" xmlns:xlink="http://www.w3.org/1999/xlink" x="0px"
	 y="0px" width="122px" height="40px" viewBox="0 0 122 40" enable-background="new 0 0 122 40" xml:space="preserve">
<g>
	<path fill="#111111" d="M32.262,32.848l1.022-0.09c0.049,0.41,0.161,0.746,0.338,1.01c0.178,0.262,0.452,0.476,0.825,0.637
		c0.372,0.162,0.792,0.244,1.258,0.244c0.413,0,0.778-0.063,1.096-0.186c0.316-0.123,0.552-0.291,0.707-0.506
		c0.154-0.215,0.231-0.447,0.231-0.701c0-0.258-0.074-0.482-0.224-0.674c-0.148-0.191-0.395-0.354-0.737-0.482
		c-0.22-0.086-0.706-0.221-1.459-0.399c-0.753-0.183-1.28-0.353-1.582-0.513c-0.392-0.205-0.684-0.459-0.875-0.764
		c-0.192-0.303-0.288-0.645-0.288-1.02c0-0.414,0.117-0.801,0.353-1.16c0.234-0.359,0.577-0.633,1.028-0.818
		c0.451-0.188,0.952-0.279,1.504-0.279c0.607,0,1.144,0.099,1.607,0.293c0.463,0.195,0.82,0.483,1.07,0.863
		c0.249,0.381,0.384,0.811,0.402,1.291l-1.04,0.078c-0.056-0.518-0.245-0.908-0.567-1.174c-0.322-0.264-0.798-0.396-1.428-0.396
		c-0.656,0-1.134,0.121-1.435,0.36c-0.3,0.241-0.449,0.53-0.449,0.87c0,0.294,0.105,0.536,0.318,0.727
		c0.209,0.189,0.754,0.385,1.635,0.584c0.882,0.199,1.486,0.373,1.813,0.522c0.477,0.22,0.829,0.499,1.057,0.835
		c0.227,0.338,0.341,0.727,0.341,1.166c0,0.436-0.125,0.848-0.375,1.232c-0.249,0.387-0.608,0.686-1.076,0.899
		s-0.994,0.321-1.579,0.321c-0.741,0-1.363-0.107-1.864-0.324c-0.501-0.216-0.895-0.541-1.18-0.977
		C32.426,33.887,32.276,33.396,32.262,32.848z"/>
	<path fill="#111111" d="M39.722,35.48l3.147-8.195h1.168l3.354,8.195h-1.235L45.2,32.998h-3.427l-0.9,2.482H39.722z M42.086,32.115
		h2.778l-0.855-2.27c-0.261-0.689-0.454-1.257-0.581-1.699c-0.104,0.524-0.252,1.047-0.441,1.563L42.086,32.115z"/>
	<path fill="#111111" d="M48.658,35.48v-8.195h1.112l4.305,6.436v-6.436h1.039v8.195h-1.112l-4.304-6.439v6.439H48.658z"/>
	<path fill="#111111" d="M59.424,35.48v-7.229h-2.7v-0.967h6.495v0.967h-2.711v7.229H59.424z"/>
	<path fill="#111111" d="M62.824,35.48l3.146-8.195h1.168l3.354,8.195h-1.235l-0.955-2.482h-3.427l-0.899,2.482H62.824z
		 M65.188,32.115h2.778l-0.854-2.27c-0.262-0.689-0.454-1.257-0.581-1.699c-0.104,0.524-0.253,1.047-0.441,1.563L65.188,32.115z"/>
	<path fill="#111111" d="M75.227,35.48v-8.195h5.528v0.967h-4.444v2.539h3.847v0.967h-3.847v3.723H75.227L75.227,35.48z"/>
	<path fill="#111111" d="M82.587,35.48v-8.195h5.927v0.967h-4.842v2.51h4.533v0.963h-4.533v2.789h5.031v0.967H82.587L82.587,35.48z"
		/>
</g>
<g>
	<path fill="#111111" d="M34.874,17.431h-2.425V4.349h2.425v5.51l4.942-5.51h2.943l-5.352,5.966l5.572,7.115h-2.817L35.896,12
		l-1.022,1.149V17.431z"/>
	<path fill="#111111" d="M44.209,4.003h2.881v2.503h-2.881V4.003z M44.445,7.891h2.424v9.54h-2.424V7.891z"/>
	<path fill="#111111" d="M54.943,10.205c-0.146-0.104-0.313-0.202-0.495-0.291c-0.185-0.089-0.37-0.166-0.56-0.229
		C53.7,9.623,53.52,9.573,53.346,9.536c-0.173-0.037-0.313-0.055-0.417-0.055c-0.378,0-0.664,0.074-0.857,0.221
		c-0.194,0.147-0.292,0.346-0.292,0.598c0,0.136,0.048,0.268,0.142,0.394c0.095,0.126,0.221,0.247,0.378,0.362
		c0.157,0.116,0.339,0.231,0.543,0.347c0.205,0.115,0.423,0.231,0.653,0.346c0.357,0.189,0.709,0.377,1.055,0.566
		c0.347,0.189,0.656,0.399,0.929,0.63c0.273,0.231,0.491,0.493,0.653,0.787c0.163,0.294,0.244,0.635,0.244,1.023
		c0,0.567-0.112,1.039-0.338,1.417c-0.227,0.378-0.512,0.677-0.858,0.897c-0.346,0.22-0.724,0.377-1.133,0.472
		c-0.41,0.094-0.793,0.142-1.149,0.142c-0.63,0-1.294-0.124-1.991-0.37c-0.698-0.247-1.356-0.669-1.976-1.267l1.29-1.574
		c0.21,0.21,0.431,0.394,0.662,0.551c0.23,0.158,0.458,0.289,0.685,0.394c0.226,0.105,0.44,0.187,0.646,0.244
		c0.204,0.058,0.386,0.086,0.543,0.086c0.398,0,0.695-0.086,0.889-0.259c0.194-0.173,0.292-0.386,0.292-0.638
		c0-0.294-0.137-0.525-0.409-0.693c-0.273-0.167-0.63-0.362-1.071-0.583c-0.356-0.178-0.716-0.362-1.078-0.551
		c-0.361-0.189-0.692-0.404-0.991-0.646c-0.3-0.241-0.543-0.52-0.732-0.834c-0.188-0.315-0.283-0.688-0.283-1.118
		c0-0.514,0.104-0.955,0.314-1.322s0.478-0.664,0.804-0.89c0.324-0.226,0.689-0.391,1.094-0.496c0.403-0.105,0.8-0.158,1.188-0.158
		c0.577,0,1.165,0.1,1.763,0.299c0.599,0.199,1.118,0.467,1.559,0.803L54.943,10.205z"/>
	<path fill="#111111" d="M60.848,9.024c0.095-0.251,0.23-0.464,0.409-0.637c0.178-0.173,0.37-0.315,0.574-0.425
		c0.205-0.11,0.415-0.191,0.63-0.244c0.215-0.053,0.4-0.079,0.559-0.079c0.535,0,1.014,0.14,1.434,0.417
		c0.42,0.277,0.761,0.648,1.023,1.11c0.304-0.504,0.688-0.884,1.156-1.142c0.467-0.257,0.926-0.386,1.377-0.386
		c0.504,0,0.967,0.071,1.387,0.213c0.418,0.142,0.775,0.354,1.069,0.637c0.294,0.284,0.521,0.635,0.685,1.055
		c0.162,0.42,0.244,0.913,0.244,1.48v6.407h-2.408v-6.454c0-0.409-0.131-0.75-0.394-1.023s-0.588-0.41-0.977-0.41
		c-0.188,0-0.372,0.032-0.552,0.095c-0.179,0.063-0.338,0.16-0.479,0.291c-0.142,0.131-0.254,0.302-0.338,0.512
		s-0.126,0.462-0.126,0.755v6.234H63.76v-6.313c0-0.514-0.142-0.908-0.425-1.181c-0.283-0.272-0.608-0.409-0.978-0.409
		c-0.168,0-0.34,0.037-0.52,0.11c-0.179,0.073-0.341,0.187-0.487,0.338c-0.147,0.152-0.268,0.338-0.362,0.559
		c-0.095,0.221-0.142,0.478-0.142,0.771v6.124h-2.393v-9.54h2.393L60.848,9.024L60.848,9.024z"/>
	<path fill="#111111" d="M82.114,16.376c-0.525,0.462-1.093,0.792-1.7,0.992c-0.607,0.2-1.303,0.304-2.078,0.315
		c-0.725,0-1.385-0.105-1.982-0.315c-0.599-0.21-1.109-0.525-1.535-0.944c-0.426-0.42-0.754-0.934-0.983-1.543
		c-0.229-0.608-0.347-1.307-0.347-2.093c0-0.777,0.106-1.48,0.322-2.109c0.215-0.63,0.521-1.165,0.922-1.606
		c0.397-0.441,0.884-0.782,1.455-1.023c0.571-0.242,1.221-0.362,1.944-0.362c0.702,0,1.327,0.124,1.873,0.37
		c0.545,0.247,1.005,0.588,1.377,1.023c0.373,0.436,0.656,0.945,0.851,1.527c0.193,0.583,0.285,1.21,0.275,1.881
		c0,0.137-0.008,0.299-0.023,0.488s-0.033,0.357-0.056,0.504h-6.485c0.043,0.462,0.146,0.842,0.314,1.141
		c0.168,0.299,0.37,0.535,0.606,0.708c0.235,0.173,0.489,0.297,0.764,0.37c0.272,0.073,0.54,0.11,0.804,0.11
		c0.209,0,0.433-0.016,0.668-0.047c0.236-0.032,0.471-0.084,0.7-0.158c0.231-0.073,0.449-0.17,0.653-0.291
		c0.205-0.121,0.381-0.265,0.527-0.433L82.114,16.376z M80.162,11.653c-0.012-0.304-0.073-0.587-0.188-0.85
		c-0.117-0.262-0.271-0.49-0.466-0.685c-0.194-0.194-0.417-0.346-0.669-0.457c-0.252-0.111-0.509-0.165-0.771-0.165
		c-0.252,0-0.5,0.055-0.748,0.165c-0.245,0.11-0.469,0.263-0.668,0.457c-0.199,0.194-0.361,0.422-0.487,0.685
		c-0.126,0.263-0.194,0.546-0.205,0.85H80.162z"/>
	<path fill="#111111" d="M84.994,5.625l2.439-0.771v3.022h2.188v1.889h-2.188v4.565c0,0.294,0.062,0.53,0.182,0.708
		c0.121,0.178,0.281,0.317,0.48,0.417c0.198,0.1,0.424,0.168,0.676,0.205c0.252,0.037,0.51,0.055,0.771,0.055v1.936
		c-0.661,0.073-1.271,0.065-1.834-0.023c-0.563-0.089-1.042-0.265-1.439-0.527c-0.398-0.262-0.711-0.606-0.938-1.031
		c-0.227-0.425-0.339-0.937-0.339-1.535v-4.77h-1.495v-1.89h1.495L84.994,5.625L84.994,5.625z"/>
</g>
</svg>
