<?xml version="1.0" encoding="utf-8"?>
<!-- Generator: Adobe Illustrator 16.0.0, SVG Export Plug-In . SVG Version: 6.00 Build 0)  -->
<!DOCTYPE svg PUBLIC "-//W3C//DTD SVG 1.1//EN" "http://www.w3.org/Graphics/SVG/1.1/DTD/svg11.dtd">
<svg version="1.1" id="레이어_1" xmlns="http://www.w3.org/2000/svg" xmlns:xlink="http://www.w3.org/1999/xlink" x="0px"
	 y="0px" width="122px" height="40px" viewBox="0 0 122 40" enable-background="new 0 0 122 40" xml:space="preserve">
<g>
	<path fill="#111111" d="M45.445,35.225v-8.195h1.633l1.939,5.803c0.179,0.54,0.31,0.943,0.392,1.213
		c0.093-0.298,0.238-0.734,0.436-1.313l1.962-5.701h1.459v8.193h-1.045v-6.857l-2.382,6.857h-0.978l-2.37-6.977v6.977H45.445
		L45.445,35.225z"/>
	<path fill="#111111" d="M55.601,35.225v-8.195h1.085v8.195H55.601z"/>
	<path fill="#111111" d="M58.109,35.225l3.147-8.195h1.168l3.354,8.195h-1.234l-0.955-2.481h-3.427l-0.9,2.481H58.109z
		 M60.474,31.857h2.778l-0.855-2.27c-0.261-0.689-0.453-1.256-0.58-1.699c-0.104,0.525-0.252,1.047-0.441,1.565L60.474,31.857z"/>
	<path fill="#111111" d="M67.014,35.225v-8.195h1.633l1.938,5.803c0.179,0.54,0.31,0.943,0.392,1.213
		c0.094-0.298,0.238-0.734,0.437-1.313l1.962-5.701h1.459v8.193h-1.045v-6.857l-2.382,6.857H70.43l-2.371-6.977v6.977H67.014
		L67.014,35.225z"/>
	<path fill="#111111" d="M77.167,35.225v-8.195h1.085v8.195H77.167z"/>
</g>
<g>
	<path fill="#111111" d="M54.431,4.663h2.282l4.896,13.082h-2.52l-1.212-3.211H53.25l-1.229,3.211h-2.503L54.431,4.663z
		 M57.201,12.644l-1.638-4.723l-1.605,4.723H57.201z"/>
	<path fill="#111111" d="M63.245,4.316h2.881v2.503h-2.881V4.316z M63.48,8.205h2.425v9.54H63.48V8.205z"/>
	<path fill="#111111" d="M71.289,9.653c0.156-0.272,0.363-0.524,0.622-0.755c0.257-0.231,0.543-0.425,0.856-0.583
		c0.315-0.157,0.646-0.268,0.992-0.331S74.453,7.927,74.8,8v2.046c-0.368-0.063-0.756-0.063-1.165,0
		c-0.408,0.063-0.787,0.187-1.134,0.37s-0.635,0.433-0.865,0.748s-0.347,0.698-0.347,1.149v5.431h-2.424v-9.54h2.424V9.653z"/>
</g>
</svg>
