<?xml version="1.0" encoding="utf-8"?>
<!-- Generator: Adobe Illustrator 16.0.0, SVG Export Plug-In . SVG Version: 6.00 Build 0)  -->
<!DOCTYPE svg PUBLIC "-//W3C//DTD SVG 1.1//EN" "http://www.w3.org/Graphics/SVG/1.1/DTD/svg11.dtd">
<svg version="1.1" id="레이어_1" xmlns="http://www.w3.org/2000/svg" xmlns:xlink="http://www.w3.org/1999/xlink" x="0px"
	 y="0px" width="122px" height="40px" viewBox="0 0 122 40" enable-background="new 0 0 122 40" xml:space="preserve">
<g>
	<path fill="#111111" d="M16.609,36.395V28.2h1.112l4.305,6.435V28.2h1.039v8.194h-1.112l-4.304-6.438v6.438H16.609z"/>
	<path fill="#111111" d="M25.322,36.395V28.2h5.926v0.968h-4.841v2.51h4.533v0.961h-4.533v2.791h5.031v0.967h-6.116V36.395z"/>
	<path fill="#111111" d="M34.78,36.395L32.605,28.2h1.112l1.247,5.372c0.134,0.563,0.249,1.121,0.347,1.678
		c0.208-0.876,0.331-1.381,0.368-1.516L37.24,28.2h1.308l1.174,4.147c0.294,1.028,0.507,1.996,0.638,2.901
		c0.104-0.519,0.24-1.112,0.407-1.784l1.286-5.266h1.09l-2.247,8.195h-1.045l-1.728-6.244c-0.146-0.521-0.231-0.842-0.257-0.963
		c-0.086,0.377-0.166,0.697-0.241,0.963l-1.738,6.244H34.78L34.78,36.395z"/>
	<path fill="#111111" d="M50.273,36.395v-3.472l-3.159-4.724h1.319l1.616,2.471c0.298,0.463,0.575,0.926,0.832,1.387
		c0.246-0.429,0.545-0.91,0.895-1.447l1.588-2.409h1.264l-3.271,4.724v3.473h-1.084V36.395z"/>
	<path fill="#111111" d="M54.996,32.402c0-1.359,0.365-2.424,1.096-3.194c0.73-0.769,1.673-1.153,2.828-1.153
		c0.757,0,1.438,0.182,2.046,0.543c0.608,0.36,1.07,0.864,1.39,1.512c0.318,0.646,0.479,1.379,0.479,2.199
		c0,0.832-0.168,1.574-0.503,2.23c-0.336,0.654-0.812,1.152-1.426,1.488c-0.614,0.338-1.278,0.507-1.99,0.507
		c-0.771,0-1.461-0.187-2.068-0.56s-1.067-0.881-1.38-1.525C55.152,33.805,54.996,33.122,54.996,32.402z M56.114,32.42
		c0,0.986,0.265,1.766,0.796,2.334c0.531,0.568,1.197,0.854,1.999,0.854c0.815,0,1.487-0.287,2.015-0.861
		c0.527-0.573,0.791-1.389,0.791-2.441c0-0.668-0.111-1.25-0.338-1.748c-0.226-0.496-0.556-0.883-0.989-1.156
		c-0.435-0.273-0.922-0.412-1.462-0.412c-0.768,0-1.429,0.265-1.981,0.791C56.391,30.307,56.114,31.188,56.114,32.42z"/>
	<path fill="#111111" d="M64.66,36.395V28.2h3.633c0.73,0,1.286,0.073,1.666,0.221s0.684,0.407,0.911,0.78s0.341,0.783,0.341,1.234
		c0,0.582-0.188,1.071-0.564,1.471c-0.375,0.398-0.957,0.652-1.744,0.761c0.287,0.138,0.506,0.272,0.654,0.408
		c0.316,0.29,0.617,0.653,0.9,1.09l1.425,2.229H70.52l-1.086-1.705c-0.315-0.492-0.576-0.867-0.781-1.129
		c-0.205-0.261-0.389-0.442-0.551-0.547c-0.162-0.105-0.328-0.178-0.496-0.219c-0.123-0.025-0.323-0.039-0.604-0.039h-1.258v3.639
		H64.66z M65.744,31.816h2.331c0.495,0,0.884-0.053,1.163-0.154s0.49-0.266,0.637-0.491s0.219-0.471,0.219-0.735
		c0-0.388-0.142-0.705-0.423-0.955c-0.28-0.25-0.726-0.375-1.333-0.375h-2.594V31.816z"/>
	<path fill="#111111" d="M73.277,36.395V28.2h1.084v4.063l4.07-4.063h1.471l-3.438,3.319l3.589,4.875h-1.431l-2.918-4.146
		l-1.343,1.309v2.84h-1.084V36.395z"/>
	<path fill="#111111" d="M90.628,33.521l1.084,0.272c-0.228,0.892-0.636,1.569-1.228,2.038c-0.59,0.468-1.313,0.701-2.166,0.701
		c-0.883,0-1.602-0.18-2.154-0.539c-0.555-0.36-0.975-0.881-1.264-1.563c-0.289-0.684-0.434-1.414-0.434-2.197
		c0-0.854,0.163-1.598,0.489-2.233c0.326-0.635,0.79-1.118,1.392-1.446c0.603-0.33,1.266-0.496,1.987-0.496
		c0.82,0,1.51,0.209,2.067,0.627c0.56,0.418,0.949,1.004,1.168,1.76l-1.066,0.252c-0.189-0.596-0.466-1.029-0.827-1.303
		c-0.36-0.271-0.815-0.408-1.364-0.408c-0.629,0-1.155,0.152-1.578,0.453c-0.424,0.303-0.721,0.707-0.893,1.217
		c-0.172,0.509-0.257,1.033-0.257,1.572c0,0.697,0.103,1.307,0.306,1.826c0.202,0.521,0.519,0.908,0.946,1.166
		c0.429,0.256,0.894,0.385,1.392,0.385c0.607,0,1.123-0.174,1.543-0.524C90.193,34.73,90.479,34.211,90.628,33.521z"/>
	<path fill="#111111" d="M93.645,36.395V28.2h1.086v8.194H93.645z"/>
	<path fill="#111111" d="M99.139,36.395v-7.228h-2.699v-0.968h6.494v0.968h-2.711v7.228H99.139z"/>
	<path fill="#111111" d="M106.883,36.395v-3.472l-3.158-4.724h1.318l1.616,2.471c0.298,0.463,0.575,0.926,0.832,1.387
		c0.245-0.429,0.545-0.91,0.895-1.447l1.589-2.409h1.264l-3.271,4.724v3.473h-1.084V36.395z"/>
</g>
<g>
	<path fill="#111111" d="M28.192,3.834l-3.243,13.081h-2.377l-1.999-9.052l-1.968,9.052h-2.456L12.923,3.834h2.519l1.952,9.24
		l1.92-9.24h2.503l1.921,9.146l1.983-9.146H28.192z"/>
	<path fill="#111111" d="M28.774,8.084c0.734-0.431,1.448-0.706,2.142-0.826c0.692-0.121,1.316-0.171,1.873-0.149
		c0.524,0.021,1.015,0.104,1.472,0.251c0.456,0.147,0.855,0.36,1.196,0.638s0.608,0.617,0.803,1.016
		c0.194,0.399,0.291,0.866,0.291,1.401v4.25c0,0.23,0.014,0.515,0.04,0.85c0.025,0.336,0.128,0.803,0.307,1.401h-2.739l-0.016-0.992
		c-0.157,0.221-0.339,0.407-0.543,0.56c-0.205,0.151-0.423,0.28-0.653,0.386c-0.231,0.104-0.462,0.181-0.692,0.228
		c-0.231,0.048-0.451,0.071-0.661,0.071c-0.462,0-0.911-0.068-1.347-0.205c-0.436-0.136-0.82-0.336-1.156-0.598
		c-0.336-0.263-0.606-0.591-0.811-0.984c-0.205-0.394-0.308-0.853-0.308-1.377c0-0.65,0.123-1.22,0.37-1.708
		c0.246-0.488,0.619-0.879,1.118-1.173c0.498-0.294,1.13-0.49,1.896-0.59c0.766-0.1,1.669-0.087,2.707,0.039
		c0.011-0.409-0.109-0.75-0.361-1.023c-0.252-0.272-0.567-0.456-0.944-0.551c-0.231-0.053-0.483-0.073-0.756-0.063
		c-0.273,0.011-0.546,0.048-0.818,0.11c-0.273,0.063-0.541,0.142-0.803,0.236c-0.263,0.095-0.494,0.199-0.693,0.314L28.774,8.084z
		 M31.86,15.404c0.262,0,0.524-0.053,0.787-0.158c0.262-0.104,0.498-0.246,0.708-0.425c0.21-0.178,0.383-0.391,0.52-0.638
		c0.137-0.246,0.205-0.506,0.205-0.779v-1.196c-1.322-0.178-2.296-0.126-2.921,0.157c-0.624,0.284-0.937,0.725-0.937,1.323
		c0,0.619,0.158,1.06,0.473,1.322C31.01,15.272,31.398,15.404,31.86,15.404z"/>
	<path fill="#111111" d="M42.58,13.389l2.141-6.013h2.535l-3.59,9.523H41.51l-3.62-9.523h2.55L42.58,13.389z"/>
	<path fill="#111111" d="M56.479,15.86c-0.525,0.462-1.092,0.792-1.7,0.992c-0.608,0.199-1.302,0.304-2.078,0.314
		c-0.724,0-1.385-0.105-1.983-0.314c-0.598-0.211-1.109-0.525-1.535-0.945c-0.425-0.419-0.753-0.934-0.983-1.542
		c-0.23-0.608-0.347-1.307-0.347-2.094c0-0.776,0.107-1.479,0.323-2.109c0.215-0.63,0.521-1.165,0.921-1.605
		c0.398-0.441,0.884-0.782,1.456-1.023c0.571-0.241,1.22-0.362,1.944-0.362c0.702,0,1.327,0.123,1.873,0.37
		c0.545,0.246,1.005,0.588,1.377,1.023C56.12,9,56.403,9.509,56.598,10.091c0.193,0.583,0.285,1.21,0.275,1.881
		c0,0.137-0.008,0.3-0.023,0.488c-0.016,0.189-0.034,0.357-0.056,0.504h-6.485c0.042,0.462,0.146,0.842,0.314,1.142
		c0.168,0.299,0.37,0.535,0.606,0.708s0.49,0.297,0.764,0.37c0.272,0.073,0.54,0.11,0.803,0.11c0.21,0,0.433-0.016,0.669-0.048
		c0.236-0.031,0.47-0.084,0.7-0.157c0.231-0.073,0.449-0.17,0.653-0.291c0.205-0.12,0.381-0.265,0.527-0.433L56.479,15.86z
		 M54.527,11.138c-0.011-0.304-0.073-0.588-0.188-0.85c-0.116-0.263-0.271-0.491-0.465-0.685s-0.417-0.347-0.669-0.457
		s-0.509-0.165-0.771-0.165c-0.252,0-0.501,0.055-0.748,0.165c-0.246,0.11-0.47,0.263-0.669,0.457
		c-0.199,0.193-0.361,0.422-0.487,0.685c-0.126,0.262-0.194,0.546-0.205,0.85H54.527z"/>
	<path fill="#111111" d="M59.156,3.487h2.424v13.428h-2.424V3.487z"/>
	<path fill="#111111" d="M72.489,15.86c-0.525,0.462-1.093,0.792-1.7,0.992c-0.607,0.199-1.303,0.304-2.078,0.314
		c-0.725,0-1.385-0.105-1.982-0.314c-0.599-0.211-1.109-0.525-1.535-0.945c-0.426-0.419-0.754-0.934-0.983-1.542
		c-0.229-0.608-0.347-1.307-0.347-2.094c0-0.776,0.106-1.479,0.322-2.109c0.215-0.63,0.521-1.165,0.922-1.605
		c0.397-0.441,0.884-0.782,1.455-1.023c0.571-0.241,1.221-0.362,1.944-0.362c0.702,0,1.327,0.123,1.873,0.37
		c0.545,0.246,1.005,0.588,1.377,1.023C72.13,9,72.413,9.509,72.607,10.091c0.192,0.583,0.285,1.21,0.274,1.881
		c0,0.137-0.008,0.3-0.022,0.488c-0.017,0.189-0.034,0.357-0.057,0.504h-6.484c0.041,0.462,0.146,0.842,0.313,1.142
		c0.168,0.299,0.37,0.535,0.606,0.708s0.49,0.297,0.764,0.37c0.271,0.073,0.54,0.11,0.803,0.11c0.211,0,0.434-0.016,0.67-0.048
		c0.235-0.031,0.469-0.084,0.699-0.157c0.231-0.073,0.449-0.17,0.653-0.291c0.205-0.12,0.381-0.265,0.526-0.433L72.489,15.86z
		 M70.537,11.138c-0.012-0.304-0.073-0.588-0.188-0.85c-0.117-0.263-0.271-0.491-0.466-0.685s-0.417-0.347-0.669-0.457
		s-0.509-0.165-0.771-0.165c-0.252,0-0.5,0.055-0.748,0.165c-0.245,0.11-0.469,0.263-0.668,0.457
		c-0.199,0.193-0.361,0.422-0.487,0.685c-0.126,0.262-0.194,0.546-0.205,0.85H70.537z"/>
	<path fill="#111111" d="M77.447,8.588c0.263-0.451,0.63-0.811,1.102-1.078c0.473-0.268,0.945-0.401,1.417-0.401
		c0.524,0,1.009,0.078,1.448,0.235c0.439,0.158,0.82,0.392,1.143,0.701c0.318,0.31,0.568,0.692,0.746,1.148
		c0.18,0.457,0.268,0.984,0.268,1.582v6.14h-2.407v-5.966c0-0.315-0.047-0.596-0.142-0.843c-0.096-0.246-0.215-0.453-0.362-0.621
		c-0.146-0.168-0.32-0.294-0.521-0.378c-0.199-0.084-0.397-0.126-0.598-0.126c-0.325,0-0.617,0.061-0.874,0.181
		c-0.257,0.121-0.478,0.286-0.661,0.496c-0.183,0.21-0.322,0.459-0.417,0.748c-0.095,0.288-0.142,0.601-0.142,0.938v5.572h-2.439
		V7.376h2.439V8.588z"/>
	<path fill="#111111" d="M89.773,7.14c0.598,0,1.105,0.129,1.525,0.386c0.42,0.257,0.768,0.605,1.039,1.047V7.376h2.426v8.453
		c0,0.65-0.086,1.23-0.253,1.739c-0.168,0.509-0.399,0.952-0.692,1.33c-0.295,0.378-0.633,0.688-1.016,0.929
		c-0.384,0.241-0.785,0.425-1.203,0.551c-0.399,0.115-0.828,0.183-1.283,0.197c-0.457,0.016-0.914-0.015-1.371-0.087
		c-0.455-0.073-0.903-0.188-1.346-0.347c-0.439-0.157-0.85-0.346-1.228-0.566l0.756-1.685c0.241,0.137,0.511,0.266,0.812,0.386
		c0.299,0.121,0.607,0.218,0.929,0.292c0.319,0.073,0.646,0.115,0.976,0.126c0.331,0.01,0.648-0.026,0.952-0.11
		c0.222-0.063,0.423-0.155,0.606-0.275c0.184-0.121,0.347-0.284,0.488-0.488c0.142-0.205,0.252-0.451,0.33-0.74
		c0.078-0.288,0.117-0.638,0.117-1.047v-0.409c-0.263,0.398-0.598,0.729-1.007,0.992c-0.41,0.262-0.931,0.394-1.56,0.394
		c-1.375,0-2.397-0.417-3.069-1.252c-0.671-0.834-1.007-2.049-1.007-3.644c0-0.756,0.084-1.44,0.252-2.055
		c0.167-0.614,0.422-1.136,0.763-1.566c0.342-0.43,0.767-0.764,1.274-0.999C88.495,7.258,89.091,7.14,89.773,7.14z M90.214,8.966
		c-0.389,0-0.716,0.089-0.983,0.268c-0.267,0.179-0.485,0.412-0.652,0.7c-0.168,0.289-0.289,0.622-0.362,1
		c-0.073,0.377-0.11,0.766-0.11,1.164c0,0.378,0.043,0.751,0.127,1.118c0.084,0.367,0.213,0.7,0.386,1
		c0.173,0.299,0.391,0.54,0.653,0.724c0.262,0.184,0.576,0.275,0.943,0.275c0.348,0,0.65-0.076,0.913-0.229
		c0.263-0.151,0.481-0.359,0.661-0.621c0.179-0.263,0.313-0.575,0.4-0.937c0.09-0.362,0.14-0.759,0.149-1.188v-0.143
		c0-0.545-0.053-1.015-0.157-1.408c-0.104-0.394-0.252-0.719-0.439-0.977c-0.189-0.257-0.415-0.445-0.678-0.566
		C90.802,9.026,90.52,8.966,90.214,8.966z"/>
	<path fill="#111111" d="M98.1,5.108l2.44-0.771v3.021h2.188v1.89h-2.188v4.564c0,0.294,0.062,0.53,0.181,0.709
		c0.121,0.179,0.281,0.317,0.48,0.417s0.425,0.168,0.677,0.205c0.252,0.036,0.509,0.055,0.771,0.055v1.938
		c-0.66,0.073-1.271,0.065-1.834-0.024c-0.562-0.089-1.041-0.265-1.439-0.527s-0.711-0.605-0.938-1.03
		c-0.226-0.426-0.338-0.937-0.338-1.535v-4.77h-1.496v-1.89H98.1V5.108z"/>
	<path fill="#111111" d="M107.025,8.588c0.263-0.451,0.63-0.811,1.102-1.078c0.473-0.268,0.945-0.401,1.417-0.401
		c0.524,0,1.008,0.078,1.448,0.235c0.439,0.158,0.82,0.392,1.142,0.701c0.319,0.31,0.569,0.692,0.747,1.148
		c0.18,0.457,0.268,0.984,0.268,1.582v6.14h-2.407v-5.966c0-0.315-0.048-0.596-0.142-0.843c-0.096-0.246-0.216-0.453-0.363-0.621
		c-0.146-0.168-0.319-0.294-0.52-0.378c-0.199-0.084-0.398-0.126-0.598-0.126c-0.325,0-0.617,0.061-0.874,0.181
		c-0.257,0.121-0.478,0.286-0.661,0.496c-0.184,0.21-0.322,0.459-0.417,0.748c-0.095,0.288-0.142,0.601-0.142,0.938v5.572h-2.439
		V3.487h2.439V8.588z"/>
</g>
</svg>
