<?xml version="1.0" encoding="utf-8"?>
<!-- Generator: Adobe Illustrator 16.0.0, SVG Export Plug-In . SVG Version: 6.00 Build 0)  -->
<!DOCTYPE svg PUBLIC "-//W3C//DTD SVG 1.1//EN" "http://www.w3.org/Graphics/SVG/1.1/DTD/svg11.dtd">
<svg version="1.1" id="레이어_1" xmlns="http://www.w3.org/2000/svg" xmlns:xlink="http://www.w3.org/1999/xlink" x="0px"
	 y="0px" width="122px" height="40px" viewBox="0 0 122 40" enable-background="new 0 0 122 40" xml:space="preserve">
<g>
	<path fill="#111111" d="M13.86,35.764v-8.195h1.112l4.305,6.435v-6.435h1.039v8.195h-1.112L14.9,29.322v6.439h-1.04V35.764z"/>
	<path fill="#111111" d="M22.562,35.764v-8.195h5.926v0.968h-4.841v2.51h4.533v0.961h-4.533v2.79h5.031v0.967H22.562L22.562,35.764z
		"/>
	<path fill="#111111" d="M32.02,35.764l-2.175-8.195h1.112l1.247,5.371c0.134,0.563,0.249,1.123,0.347,1.679
		c0.208-0.876,0.331-1.382,0.368-1.517l1.561-5.533h1.308l1.174,4.147c0.294,1.028,0.507,1.995,0.638,2.901
		c0.104-0.52,0.24-1.113,0.407-1.784l1.286-5.267h1.09l-2.247,8.195H37.09l-1.728-6.244c-0.146-0.521-0.231-0.842-0.257-0.961
		c-0.086,0.377-0.166,0.696-0.241,0.961l-1.738,6.244H32.02V35.764z"/>
	<path fill="#111111" d="M47.514,35.764v-3.473l-3.159-4.725h1.319l1.616,2.472c0.298,0.463,0.575,0.925,0.832,1.387
		c0.246-0.429,0.545-0.911,0.895-1.448l1.588-2.408h1.264l-3.271,4.724v3.472H47.514L47.514,35.764z"/>
	<path fill="#111111" d="M52.236,31.771c0-1.36,0.365-2.426,1.096-3.195c0.73-0.77,1.673-1.154,2.828-1.154
		c0.757,0,1.438,0.182,2.046,0.543s1.07,0.865,1.39,1.512c0.318,0.646,0.478,1.381,0.478,2.201c0,0.83-0.168,1.573-0.503,2.229
		c-0.336,0.656-0.811,1.152-1.426,1.49c-0.614,0.336-1.278,0.506-1.99,0.506c-0.771,0-1.461-0.188-2.068-0.559
		c-0.607-0.373-1.067-0.883-1.38-1.527C52.393,33.173,52.236,32.49,52.236,31.771z M53.354,31.788c0,0.987,0.265,1.767,0.796,2.334
		c0.531,0.567,1.197,0.853,1.999,0.853c0.815,0,1.487-0.287,2.015-0.861c0.527-0.572,0.791-1.387,0.791-2.441
		c0-0.667-0.112-1.25-0.338-1.747c-0.226-0.497-0.556-0.883-0.989-1.157c-0.435-0.272-0.922-0.41-1.462-0.41
		c-0.768,0-1.429,0.264-1.981,0.791C53.631,29.674,53.354,30.555,53.354,31.788z"/>
	<path fill="#111111" d="M61.898,35.764v-8.195h3.634c0.729,0,1.286,0.074,1.666,0.221s0.684,0.406,0.911,0.779
		c0.227,0.373,0.341,0.785,0.341,1.236c0,0.58-0.188,1.07-0.564,1.469c-0.376,0.399-0.958,0.652-1.743,0.762
		c0.287,0.138,0.504,0.273,0.653,0.408c0.315,0.289,0.617,0.654,0.899,1.09l1.426,2.23h-1.363l-1.085-1.705
		c-0.315-0.492-0.577-0.869-0.782-1.129c-0.205-0.262-0.389-0.443-0.551-0.549s-0.326-0.177-0.495-0.218
		c-0.122-0.026-0.323-0.039-0.604-0.039h-1.259v3.64H61.898z M62.982,31.186h2.332c0.496,0,0.884-0.053,1.162-0.154
		c0.279-0.102,0.491-0.266,0.638-0.491c0.146-0.226,0.219-0.472,0.219-0.735c0-0.388-0.142-0.705-0.423-0.955
		s-0.727-0.375-1.333-0.375h-2.595V31.186z"/>
	<path fill="#111111" d="M70.507,35.764v-8.195h1.084v4.063l4.069-4.063h1.471l-3.438,3.32l3.589,4.875h-1.431l-2.918-4.147
		l-1.343,1.308v2.84H70.507L70.507,35.764z"/>
	<path fill="#111111" d="M87.855,32.891l1.084,0.272c-0.227,0.892-0.635,1.569-1.227,2.038c-0.591,0.468-1.313,0.701-2.166,0.701
		c-0.884,0-1.602-0.18-2.154-0.539c-0.555-0.36-0.976-0.881-1.264-1.563c-0.289-0.683-0.434-1.413-0.434-2.196
		c0-0.854,0.162-1.599,0.488-2.233c0.326-0.636,0.791-1.118,1.393-1.447s1.265-0.495,1.986-0.495c0.82,0,1.511,0.209,2.068,0.627
		c0.559,0.418,0.948,1.004,1.168,1.76l-1.066,0.252c-0.19-0.596-0.467-1.029-0.827-1.303c-0.361-0.271-0.816-0.408-1.364-0.408
		c-0.63,0-1.156,0.151-1.579,0.453c-0.423,0.303-0.72,0.707-0.892,1.217c-0.172,0.509-0.258,1.033-0.258,1.572
		c0,0.697,0.103,1.307,0.306,1.825c0.202,0.521,0.519,0.909,0.946,1.166c0.429,0.257,0.894,0.386,1.393,0.386
		c0.607,0,1.122-0.175,1.543-0.524C87.421,34.1,87.707,33.579,87.855,32.891z"/>
	<path fill="#111111" d="M90.861,35.764v-8.195h1.084v8.195H90.861z"/>
	<path fill="#111111" d="M96.355,35.764v-7.229h-2.7v-0.969h6.495v0.969h-2.711v7.229H96.355z"/>
	<path fill="#111111" d="M104.1,35.764v-3.473l-3.158-4.725h1.318l1.616,2.472c0.298,0.463,0.575,0.925,0.832,1.387
		c0.246-0.429,0.545-0.911,0.896-1.448l1.588-2.408h1.264l-3.271,4.724v3.472H104.1L104.1,35.764z"/>
</g>
<g>
	<path fill="#111111" d="M33.188,3.674h-6.202v3.558h5.84v1.905h-5.84v5.714h-2.425V1.77h8.627V3.674z"/>
	<path fill="#111111" d="M37.232,6.76c0.157-0.273,0.364-0.525,0.622-0.756c0.257-0.23,0.543-0.425,0.857-0.583
		c0.315-0.157,0.646-0.268,0.992-0.33c0.346-0.063,0.692-0.058,1.039,0.016v2.047c-0.368-0.063-0.756-0.063-1.165,0
		c-0.409,0.063-0.787,0.187-1.134,0.369c-0.347,0.185-0.635,0.434-0.865,0.748c-0.231,0.314-0.347,0.698-0.347,1.149v5.431h-2.424
		V5.312h2.424L37.232,6.76L37.232,6.76z"/>
	<path fill="#111111" d="M48.913,13.796c-0.525,0.462-1.092,0.792-1.7,0.992c-0.608,0.199-1.302,0.304-2.078,0.314
		c-0.724,0-1.385-0.105-1.983-0.314c-0.598-0.211-1.109-0.525-1.535-0.945c-0.425-0.419-0.753-0.934-0.983-1.542
		c-0.23-0.608-0.347-1.307-0.347-2.094c0-0.776,0.107-1.479,0.323-2.109c0.215-0.63,0.521-1.165,0.921-1.605
		c0.398-0.441,0.884-0.782,1.456-1.023c0.571-0.241,1.22-0.362,1.944-0.362c0.702,0,1.327,0.123,1.873,0.37
		c0.545,0.246,1.005,0.588,1.377,1.023c0.373,0.436,0.656,0.944,0.851,1.526c0.193,0.583,0.285,1.21,0.275,1.881
		c0,0.137-0.008,0.3-0.023,0.488c-0.016,0.189-0.034,0.357-0.056,0.504h-6.485c0.042,0.462,0.146,0.842,0.314,1.142
		c0.168,0.299,0.37,0.535,0.606,0.708c0.236,0.173,0.49,0.297,0.764,0.37c0.272,0.073,0.54,0.11,0.803,0.11
		c0.21,0,0.433-0.016,0.669-0.048c0.236-0.031,0.47-0.084,0.7-0.157c0.231-0.073,0.449-0.17,0.653-0.291
		c0.205-0.12,0.381-0.265,0.527-0.433L48.913,13.796z M46.961,9.073c-0.011-0.304-0.073-0.588-0.188-0.85
		c-0.116-0.263-0.271-0.491-0.465-0.685s-0.417-0.347-0.669-0.457s-0.509-0.165-0.771-0.165c-0.252,0-0.501,0.055-0.748,0.165
		c-0.246,0.11-0.47,0.263-0.669,0.457c-0.199,0.193-0.361,0.422-0.487,0.685c-0.126,0.262-0.194,0.546-0.205,0.85H46.961z"/>
	<path fill="#111111" d="M59.381,13.796c-0.525,0.462-1.092,0.792-1.7,0.992c-0.608,0.199-1.302,0.304-2.078,0.314
		c-0.724,0-1.385-0.105-1.983-0.314c-0.598-0.211-1.109-0.525-1.535-0.945c-0.425-0.419-0.753-0.934-0.983-1.542
		c-0.23-0.608-0.347-1.307-0.347-2.094c0-0.776,0.107-1.479,0.323-2.109c0.215-0.63,0.521-1.165,0.921-1.605
		c0.398-0.441,0.884-0.782,1.456-1.023c0.571-0.241,1.22-0.362,1.944-0.362c0.702,0,1.327,0.123,1.873,0.37
		c0.545,0.246,1.005,0.588,1.377,1.023c0.373,0.436,0.656,0.944,0.851,1.526c0.193,0.583,0.285,1.21,0.275,1.881
		c0,0.137-0.008,0.3-0.023,0.488c-0.016,0.189-0.034,0.357-0.056,0.504H53.21c0.042,0.462,0.146,0.842,0.314,1.142
		c0.168,0.299,0.37,0.535,0.606,0.708c0.236,0.173,0.49,0.297,0.764,0.37c0.272,0.073,0.54,0.11,0.803,0.11
		c0.21,0,0.433-0.016,0.669-0.048c0.236-0.031,0.47-0.084,0.7-0.157c0.231-0.073,0.449-0.17,0.653-0.291
		c0.205-0.12,0.381-0.265,0.527-0.433L59.381,13.796z M57.429,9.073c-0.011-0.304-0.073-0.588-0.188-0.85
		c-0.116-0.263-0.271-0.491-0.465-0.685s-0.417-0.347-0.669-0.457s-0.509-0.165-0.771-0.165c-0.252,0-0.501,0.055-0.748,0.165
		c-0.246,0.11-0.47,0.263-0.669,0.457c-0.199,0.193-0.361,0.422-0.487,0.685c-0.126,0.262-0.194,0.546-0.205,0.85H57.429z"/>
	<path fill="#111111" d="M65.348,5.075c0.598,0,1.106,0.134,1.526,0.401s0.767,0.627,1.039,1.078V1.423h2.425v13.428h-2.425v-1.102
		c-0.263,0.398-0.599,0.724-1.007,0.976c-0.41,0.252-0.93,0.378-1.559,0.378c-1.375,0-2.398-0.428-3.07-1.283
		s-1.007-2.08-1.007-3.676c0-0.755,0.084-1.445,0.251-2.069c0.168-0.625,0.422-1.157,0.764-1.599c0.342-0.44,0.767-0.784,1.275-1.03
		C64.068,5.198,64.665,5.075,65.348,5.075z M65.788,6.901c-0.39,0-0.716,0.092-0.983,0.275c-0.267,0.183-0.486,0.428-0.652,0.73
		c-0.168,0.305-0.289,0.648-0.362,1.031c-0.073,0.384-0.11,0.774-0.11,1.173c0,0.378,0.043,0.756,0.127,1.134
		s0.213,0.719,0.385,1.022c0.174,0.305,0.392,0.554,0.653,0.748c0.263,0.194,0.577,0.291,0.944,0.291
		c0.355,0,0.669-0.084,0.938-0.252c0.268-0.167,0.489-0.396,0.668-0.685c0.18-0.288,0.311-0.627,0.395-1.016
		c0.084-0.388,0.126-0.803,0.126-1.243V9.955c-0.021-1.028-0.229-1.795-0.63-2.299C66.885,7.153,66.387,6.901,65.788,6.901z"/>
	<path fill="#111111" d="M77.264,5.091c0.672,0,1.299,0.113,1.881,0.339c0.584,0.226,1.09,0.553,1.521,0.983
		c0.43,0.431,0.769,0.96,1.015,1.59c0.247,0.63,0.37,1.349,0.37,2.156c0,0.798-0.123,1.504-0.37,2.117
		c-0.246,0.614-0.585,1.132-1.015,1.551c-0.431,0.42-0.937,0.74-1.521,0.961c-0.582,0.22-1.209,0.33-1.881,0.33
		c-0.756,0-1.428-0.134-2.015-0.401c-0.588-0.268-1.079-0.63-1.474-1.086c-0.394-0.457-0.691-0.984-0.896-1.582
		c-0.205-0.599-0.308-1.229-0.308-1.89c0-0.818,0.121-1.542,0.361-2.172c0.241-0.63,0.574-1.159,1-1.59s0.922-0.756,1.487-0.977
		C75.988,5.201,76.604,5.091,77.264,5.091z M77.264,6.869c-0.305,0-0.599,0.077-0.882,0.229c-0.282,0.152-0.53,0.37-0.739,0.653
		c-0.211,0.283-0.377,0.63-0.504,1.039c-0.125,0.409-0.188,0.866-0.188,1.369c0,0.378,0.053,0.756,0.157,1.134
		s0.254,0.719,0.449,1.023c0.193,0.304,0.436,0.554,0.723,0.747c0.289,0.194,0.617,0.292,0.984,0.292
		c0.389,0,0.729-0.098,1.023-0.292c0.293-0.193,0.543-0.442,0.747-0.747c0.205-0.305,0.358-0.646,0.465-1.023
		c0.104-0.378,0.157-0.756,0.157-1.134c0-0.398-0.051-0.795-0.149-1.188c-0.099-0.393-0.25-0.745-0.448-1.055
		c-0.199-0.309-0.449-0.561-0.748-0.755C78.012,6.967,77.662,6.869,77.264,6.869z"/>
	<path fill="#111111" d="M86.52,6.444c0.096-0.252,0.23-0.464,0.41-0.638c0.178-0.173,0.369-0.314,0.573-0.425
		c0.205-0.11,0.415-0.191,0.63-0.244c0.215-0.052,0.401-0.078,0.559-0.078c0.535,0,1.014,0.139,1.434,0.417
		c0.42,0.278,0.761,0.648,1.023,1.109c0.304-0.504,0.688-0.884,1.156-1.141c0.467-0.258,0.926-0.386,1.377-0.386
		c0.504,0,0.967,0.07,1.387,0.212c0.418,0.142,0.775,0.354,1.07,0.638c0.293,0.284,0.521,0.635,0.685,1.055
		c0.161,0.42,0.243,0.913,0.243,1.479v6.407h-2.407V8.396c0-0.409-0.132-0.75-0.394-1.023c-0.264-0.272-0.589-0.409-0.978-0.409
		c-0.188,0-0.372,0.031-0.552,0.095c-0.178,0.063-0.338,0.16-0.479,0.291c-0.142,0.132-0.254,0.302-0.338,0.512
		s-0.126,0.462-0.126,0.756v6.233h-2.361V8.538c0-0.514-0.142-0.907-0.425-1.181c-0.282-0.272-0.608-0.409-0.978-0.409
		c-0.168,0-0.34,0.037-0.52,0.11c-0.179,0.073-0.341,0.187-0.486,0.338c-0.147,0.152-0.269,0.339-0.362,0.56
		c-0.095,0.22-0.142,0.478-0.142,0.771v6.123h-2.394V5.312h2.394V6.444L86.52,6.444z"/>
</g>
</svg>
