<?xml version="1.0" encoding="utf-8"?>
<!-- Generator: Adobe Illustrator 16.0.0, SVG Export Plug-In . SVG Version: 6.00 Build 0)  -->
<!DOCTYPE svg PUBLIC "-//W3C//DTD SVG 1.1//EN" "http://www.w3.org/Graphics/SVG/1.1/DTD/svg11.dtd">
<svg version="1.1" id="레이어_1" xmlns="http://www.w3.org/2000/svg" xmlns:xlink="http://www.w3.org/1999/xlink" x="0px"
	 y="0px" width="122px" height="40px" viewBox="0 0 122 40" enable-background="new 0 0 122 40" xml:space="preserve">
<g>
	<path fill="#111111" d="M13.86,36.395V28.2h1.112l4.305,6.435V28.2h1.039v8.194h-1.112L14.9,29.955v6.439H13.86L13.86,36.395z"/>
	<path fill="#111111" d="M22.562,36.395V28.2h5.926v0.968h-4.841v2.51h4.533v0.961h-4.533v2.791h5.031v0.967h-6.116V36.395z"/>
	<path fill="#111111" d="M32.02,36.395L29.845,28.2h1.112l1.247,5.372c0.134,0.563,0.249,1.121,0.347,1.678
		c0.208-0.876,0.331-1.381,0.368-1.516L34.48,28.2h1.308l1.174,4.147c0.294,1.028,0.507,1.996,0.638,2.901
		c0.104-0.519,0.24-1.112,0.407-1.784l1.286-5.266h1.09l-2.247,8.195H37.09l-1.728-6.244c-0.146-0.521-0.231-0.842-0.257-0.963
		c-0.086,0.377-0.166,0.697-0.241,0.963l-1.738,6.244H32.02L32.02,36.395z"/>
	<path fill="#111111" d="M47.514,36.395v-3.472l-3.159-4.724h1.319l1.616,2.471c0.298,0.463,0.575,0.926,0.832,1.387
		c0.246-0.429,0.545-0.91,0.895-1.447l1.588-2.409h1.264l-3.271,4.724v3.473h-1.084V36.395z"/>
	<path fill="#111111" d="M52.236,32.402c0-1.359,0.365-2.424,1.096-3.194c0.73-0.769,1.673-1.153,2.828-1.153
		c0.757,0,1.438,0.182,2.046,0.543c0.608,0.36,1.07,0.864,1.39,1.512c0.318,0.646,0.478,1.379,0.478,2.199
		c0,0.832-0.168,1.574-0.503,2.23c-0.336,0.654-0.811,1.152-1.426,1.488c-0.614,0.338-1.278,0.507-1.99,0.507
		c-0.771,0-1.461-0.187-2.068-0.56s-1.067-0.881-1.38-1.525C52.393,33.805,52.236,33.122,52.236,32.402z M53.354,32.42
		c0,0.986,0.265,1.766,0.796,2.334c0.531,0.568,1.197,0.854,1.999,0.854c0.815,0,1.487-0.287,2.015-0.861
		c0.527-0.573,0.791-1.389,0.791-2.441c0-0.668-0.112-1.25-0.338-1.748c-0.226-0.496-0.556-0.883-0.989-1.156
		c-0.435-0.273-0.922-0.412-1.462-0.412c-0.768,0-1.429,0.265-1.981,0.791C53.631,30.307,53.354,31.188,53.354,32.42z"/>
	<path fill="#111111" d="M61.898,36.395V28.2h3.634c0.729,0,1.286,0.073,1.666,0.221s0.684,0.407,0.911,0.78
		c0.227,0.373,0.341,0.783,0.341,1.234c0,0.582-0.188,1.071-0.564,1.471c-0.376,0.398-0.958,0.652-1.743,0.761
		c0.287,0.138,0.504,0.272,0.653,0.408c0.315,0.29,0.617,0.653,0.899,1.09l1.426,2.229h-1.363l-1.085-1.705
		c-0.315-0.492-0.577-0.867-0.782-1.129c-0.205-0.261-0.389-0.442-0.551-0.547c-0.162-0.105-0.326-0.178-0.495-0.219
		c-0.122-0.025-0.323-0.039-0.604-0.039h-1.259v3.639H61.898z M62.982,31.816h2.332c0.496,0,0.884-0.053,1.162-0.154
		c0.279-0.102,0.491-0.266,0.638-0.491c0.146-0.226,0.219-0.471,0.219-0.735c0-0.388-0.142-0.705-0.423-0.955
		s-0.727-0.375-1.333-0.375h-2.595V31.816z"/>
	<path fill="#111111" d="M70.507,36.395V28.2h1.084v4.063L75.66,28.2h1.471l-3.438,3.319l3.589,4.875h-1.431l-2.918-4.146
		l-1.343,1.309v2.84h-1.084V36.395z"/>
	<path fill="#111111" d="M87.855,33.521l1.084,0.272c-0.227,0.892-0.635,1.569-1.227,2.038c-0.591,0.468-1.313,0.701-2.166,0.701
		c-0.884,0-1.602-0.18-2.154-0.539c-0.555-0.36-0.976-0.881-1.264-1.563c-0.289-0.684-0.434-1.414-0.434-2.197
		c0-0.854,0.162-1.598,0.488-2.233c0.326-0.635,0.791-1.118,1.393-1.446c0.602-0.33,1.265-0.496,1.986-0.496
		c0.82,0,1.511,0.209,2.068,0.627c0.559,0.418,0.948,1.004,1.168,1.76l-1.066,0.252c-0.19-0.596-0.467-1.029-0.827-1.303
		c-0.361-0.271-0.816-0.408-1.364-0.408c-0.63,0-1.156,0.152-1.579,0.453c-0.423,0.303-0.72,0.707-0.892,1.217
		c-0.172,0.509-0.258,1.033-0.258,1.572c0,0.697,0.103,1.307,0.306,1.826c0.202,0.521,0.519,0.908,0.946,1.166
		c0.429,0.256,0.894,0.385,1.393,0.385c0.607,0,1.122-0.174,1.543-0.524S87.707,34.211,87.855,33.521z"/>
	<path fill="#111111" d="M90.861,36.395V28.2h1.084v8.194H90.861z"/>
	<path fill="#111111" d="M96.355,36.395v-7.228h-2.7v-0.968h6.495v0.968h-2.711v7.228H96.355z"/>
	<path fill="#111111" d="M104.1,36.395v-3.472l-3.158-4.724h1.318l1.616,2.471c0.298,0.463,0.575,0.926,0.832,1.387
		c0.246-0.429,0.545-0.91,0.896-1.447l1.588-2.409h1.264l-3.271,4.724v3.473H104.1V36.395z"/>
</g>
<g>
	<path fill="#111111" d="M36.855,16.915h-9.036V3.834h8.847v1.904h-6.422v3.447h6.123v1.905h-6.123v3.903h6.611V16.915z"/>
	<path fill="#111111" d="M39.2,5.108l2.44-0.771v3.021h2.188v1.89H41.64v4.564c0,0.294,0.061,0.53,0.181,0.709
		c0.121,0.179,0.281,0.317,0.48,0.417c0.199,0.1,0.425,0.168,0.677,0.205c0.252,0.036,0.509,0.055,0.771,0.055v1.938
		c-0.661,0.073-1.272,0.065-1.834-0.024c-0.562-0.089-1.042-0.265-1.44-0.527s-0.711-0.605-0.937-1.03
		c-0.226-0.426-0.339-0.937-0.339-1.535v-4.77h-1.495v-1.89H39.2V5.108z"/>
	<path fill="#111111" d="M53.636,15.86c-0.525,0.462-1.092,0.792-1.7,0.992c-0.608,0.199-1.302,0.304-2.078,0.314
		c-0.724,0-1.385-0.105-1.983-0.314c-0.598-0.211-1.109-0.525-1.535-0.945c-0.425-0.419-0.753-0.934-0.983-1.542
		c-0.23-0.608-0.347-1.307-0.347-2.094c0-0.776,0.107-1.479,0.323-2.109c0.215-0.63,0.521-1.165,0.921-1.605
		c0.398-0.441,0.884-0.782,1.456-1.023c0.571-0.241,1.22-0.362,1.944-0.362c0.702,0,1.327,0.123,1.873,0.37
		c0.545,0.246,1.005,0.588,1.377,1.023c0.372,0.435,0.656,0.944,0.85,1.526c0.193,0.583,0.285,1.21,0.275,1.881
		c0,0.137-0.008,0.3-0.023,0.488c-0.016,0.189-0.034,0.357-0.056,0.504h-6.485c0.042,0.462,0.146,0.842,0.314,1.142
		c0.168,0.299,0.37,0.535,0.606,0.708c0.236,0.173,0.49,0.297,0.764,0.37c0.272,0.073,0.54,0.11,0.803,0.11
		c0.21,0,0.433-0.016,0.669-0.048c0.236-0.031,0.47-0.084,0.7-0.157c0.231-0.073,0.449-0.17,0.653-0.291
		c0.205-0.12,0.381-0.265,0.527-0.433L53.636,15.86z M51.684,11.138c-0.011-0.304-0.073-0.588-0.188-0.85
		c-0.116-0.263-0.271-0.491-0.465-0.685c-0.194-0.194-0.417-0.347-0.669-0.457c-0.252-0.11-0.509-0.165-0.771-0.165
		c-0.252,0-0.501,0.055-0.748,0.165c-0.246,0.11-0.47,0.263-0.669,0.457c-0.199,0.193-0.361,0.422-0.487,0.685
		c-0.126,0.262-0.194,0.546-0.205,0.85H51.684z"/>
	<path fill="#111111" d="M58.578,8.824c0.157-0.272,0.364-0.525,0.622-0.756c0.257-0.23,0.543-0.425,0.857-0.583
		c0.315-0.157,0.646-0.268,0.992-0.33c0.346-0.063,0.692-0.058,1.039,0.016v2.047c-0.368-0.063-0.756-0.063-1.165,0
		c-0.409,0.063-0.787,0.187-1.134,0.369c-0.347,0.185-0.635,0.434-0.865,0.748c-0.231,0.314-0.347,0.698-0.347,1.149v5.431h-2.424
		V7.376h2.424L58.578,8.824L58.578,8.824z"/>
	<path fill="#111111" d="M64.891,8.588c0.264-0.451,0.631-0.811,1.103-1.078c0.473-0.268,0.944-0.401,1.417-0.401
		c0.523,0,1.008,0.078,1.447,0.235C69.298,7.502,69.68,7.736,70,8.045c0.318,0.31,0.568,0.692,0.747,1.148
		c0.179,0.457,0.269,0.984,0.269,1.582v6.14h-2.408v-5.966c0-0.315-0.047-0.596-0.143-0.843C68.37,9.86,68.25,9.653,68.104,9.485
		s-0.32-0.294-0.521-0.378s-0.397-0.126-0.599-0.126c-0.324,0-0.616,0.061-0.873,0.181c-0.258,0.121-0.479,0.286-0.661,0.496
		c-0.183,0.21-0.322,0.459-0.417,0.748c-0.096,0.288-0.143,0.601-0.143,0.938v5.572h-2.438V7.376h2.438V8.588z"/>
	<path fill="#111111" d="M73.549,3.487h2.881V5.99h-2.881V3.487z M73.785,7.376h2.424v9.539h-2.424V7.376z"/>
	<path fill="#111111" d="M79.688,5.108l2.44-0.771v3.021h2.188v1.89h-2.188v4.564c0,0.294,0.062,0.53,0.181,0.709
		c0.121,0.179,0.281,0.317,0.48,0.417s0.425,0.168,0.677,0.205c0.252,0.036,0.509,0.055,0.771,0.055v1.938
		c-0.66,0.073-1.271,0.065-1.834-0.024c-0.562-0.089-1.041-0.265-1.439-0.527s-0.711-0.605-0.938-1.03
		c-0.226-0.426-0.338-0.937-0.338-1.535v-4.77h-1.496v-1.89h1.496V5.108L79.688,5.108z"/>
	<path fill="#111111" d="M85.716,18.474c0.441-0.105,0.832-0.226,1.173-0.362c0.342-0.136,0.639-0.299,0.891-0.488
		c0.252-0.188,0.465-0.411,0.638-0.669c0.173-0.257,0.317-0.554,0.433-0.889L85.45,7.377h2.565l2.063,5.824l2.047-5.824h2.55
		l-3.085,8.374c-0.179,0.504-0.367,0.947-0.566,1.33c-0.199,0.383-0.42,0.764-0.66,1.142c-0.252,0.378-0.533,0.695-0.844,0.952
		c-0.31,0.257-0.635,0.47-0.976,0.638c-0.342,0.168-0.69,0.305-1.047,0.409s-0.709,0.205-1.056,0.299L85.716,18.474z"/>
</g>
</svg>
