<?xml version="1.0" encoding="utf-8"?>
<!-- Generator: Adobe Illustrator 16.0.0, SVG Export Plug-In . SVG Version: 6.00 Build 0)  -->
<!DOCTYPE svg PUBLIC "-//W3C//DTD SVG 1.1//EN" "http://www.w3.org/Graphics/SVG/1.1/DTD/svg11.dtd">
<svg version="1.1" id="레이어_1" xmlns="http://www.w3.org/2000/svg" xmlns:xlink="http://www.w3.org/1999/xlink" x="0px"
	 y="0px" width="122px" height="40px" viewBox="0 0 122 40" enable-background="new 0 0 122 40" xml:space="preserve">
<g>
	<path fill="#111111" d="M38.127,35.568v-8.195h1.633l1.939,5.803c0.179,0.54,0.31,0.944,0.392,1.213
		c0.093-0.298,0.238-0.734,0.436-1.313l1.962-5.702h1.459v8.194h-1.045V28.71l-2.382,6.858h-0.978l-2.37-6.977v6.977H38.127
		L38.127,35.568z"/>
	<path fill="#111111" d="M47.21,35.568l3.147-8.195h1.168l3.354,8.195h-1.235l-0.955-2.482h-3.427l-0.9,2.482H47.21z M49.574,32.203
		h2.778l-0.855-2.27c-0.261-0.689-0.454-1.256-0.581-1.699c-0.104,0.524-0.252,1.047-0.441,1.564L49.574,32.203z"/>
	<path fill="#111111" d="M56.146,35.568v-8.195h2.823c0.638,0,1.124,0.039,1.459,0.117c0.47,0.107,0.87,0.305,1.202,0.588
		c0.433,0.365,0.756,0.832,0.97,1.398c0.215,0.568,0.321,1.219,0.321,1.948c0,0.623-0.071,1.175-0.218,1.655
		s-0.332,0.878-0.559,1.193c-0.229,0.313-0.478,0.563-0.748,0.742c-0.27,0.182-0.596,0.318-0.978,0.412
		c-0.383,0.092-0.821,0.139-1.316,0.139h-2.957V35.568z M57.23,34.602h1.75c0.54,0,0.964-0.051,1.271-0.15s0.553-0.242,0.735-0.426
		c0.257-0.256,0.457-0.603,0.601-1.037c0.144-0.434,0.215-0.959,0.215-1.578c0-0.857-0.141-1.516-0.422-1.977
		c-0.281-0.461-0.623-0.769-1.025-0.926c-0.291-0.111-0.759-0.167-1.403-0.167H57.23V34.602z"/>
	<path fill="#111111" d="M64.843,35.568v-8.195h3.634c0.729,0,1.285,0.074,1.666,0.221c0.379,0.147,0.684,0.407,0.91,0.78
		c0.228,0.373,0.342,0.784,0.342,1.235c0,0.58-0.188,1.07-0.564,1.47s-0.958,0.651-1.744,0.761c0.287,0.139,0.505,0.273,0.654,0.408
		c0.316,0.29,0.617,0.654,0.9,1.09l1.424,2.23h-1.362l-1.085-1.705c-0.316-0.492-0.577-0.868-0.782-1.129
		c-0.205-0.262-0.389-0.443-0.551-0.549c-0.162-0.104-0.327-0.177-0.495-0.217c-0.123-0.027-0.324-0.039-0.604-0.039h-1.259v3.639
		H64.843z M65.927,30.99h2.331c0.496,0,0.885-0.053,1.163-0.154c0.279-0.102,0.491-0.266,0.638-0.49
		c0.146-0.226,0.219-0.472,0.219-0.736c0-0.387-0.143-0.705-0.424-0.955c-0.28-0.25-0.726-0.375-1.332-0.375h-2.595V30.99z"/>
	<path fill="#111111" d="M73.68,35.568v-8.195h1.084v8.195H73.68z"/>
	<path fill="#111111" d="M77.087,35.568v-8.195h2.823c0.638,0,1.124,0.039,1.459,0.117c0.47,0.107,0.87,0.305,1.201,0.588
		c0.434,0.365,0.757,0.832,0.971,1.398c0.214,0.568,0.32,1.219,0.32,1.948c0,0.623-0.071,1.175-0.217,1.655
		c-0.146,0.48-0.332,0.878-0.56,1.193c-0.228,0.313-0.478,0.563-0.747,0.742c-0.27,0.182-0.596,0.318-0.979,0.412
		c-0.383,0.092-0.82,0.139-1.315,0.139h-2.957V35.568z M78.172,34.602h1.75c0.54,0,0.964-0.051,1.271-0.15
		c0.307-0.1,0.553-0.242,0.734-0.426c0.258-0.256,0.457-0.603,0.602-1.037c0.144-0.434,0.215-0.959,0.215-1.578
		c0-0.857-0.141-1.516-0.422-1.977s-0.623-0.769-1.025-0.926c-0.291-0.111-0.759-0.167-1.402-0.167h-1.723V34.602z"/>
</g>
<g>
	<path fill="#111111" d="M21.938,4.576c0.651,0,1.26,0.104,1.826,0.314c0.567,0.21,1.063,0.499,1.488,0.866
		c0.425,0.367,0.758,0.808,0.999,1.322c0.241,0.514,0.362,1.07,0.362,1.668c0,0.63-0.123,1.207-0.37,1.732
		c-0.246,0.524-0.58,0.973-0.999,1.346c-0.42,0.372-0.916,0.661-1.488,0.865c-0.572,0.205-1.178,0.308-1.818,0.308h-2.219v4.659
		h-2.425V4.576H21.938z M19.719,6.48v4.581h2.251c0.293,0,0.569-0.055,0.826-0.165s0.48-0.268,0.669-0.473
		c0.188-0.204,0.336-0.448,0.44-0.731c0.104-0.284,0.158-0.599,0.158-0.945S24.01,8.089,23.905,7.81
		c-0.104-0.277-0.252-0.517-0.44-0.716c-0.188-0.199-0.412-0.352-0.669-0.457C22.539,6.533,22.263,6.48,21.97,6.48H19.719z"/>
	<path fill="#111111" d="M36.42,16.603c-0.525,0.462-1.092,0.792-1.7,0.992c-0.608,0.199-1.302,0.304-2.078,0.314
		c-0.724,0-1.385-0.105-1.983-0.314c-0.598-0.211-1.109-0.525-1.535-0.945c-0.425-0.419-0.753-0.934-0.983-1.542
		s-0.347-1.307-0.347-2.094c0-0.776,0.107-1.479,0.323-2.109c0.215-0.63,0.521-1.165,0.921-1.605
		c0.398-0.441,0.884-0.782,1.456-1.023c0.571-0.241,1.22-0.362,1.944-0.362c0.702,0,1.327,0.123,1.873,0.37
		c0.545,0.246,1.005,0.588,1.377,1.023c0.373,0.436,0.656,0.944,0.851,1.526c0.193,0.583,0.285,1.21,0.275,1.881
		c0,0.137-0.008,0.3-0.023,0.488c-0.016,0.189-0.034,0.357-0.056,0.504H30.25c0.042,0.462,0.146,0.842,0.314,1.142
		c0.168,0.299,0.37,0.535,0.606,0.708c0.236,0.173,0.49,0.297,0.764,0.37c0.272,0.073,0.54,0.11,0.803,0.11
		c0.21,0,0.433-0.016,0.669-0.048c0.236-0.031,0.47-0.084,0.7-0.157c0.231-0.073,0.449-0.17,0.653-0.291
		c0.205-0.12,0.381-0.265,0.527-0.433L36.42,16.603z M34.468,11.88c-0.011-0.304-0.073-0.588-0.188-0.85
		c-0.116-0.263-0.271-0.491-0.465-0.685c-0.194-0.194-0.417-0.347-0.669-0.457c-0.252-0.11-0.509-0.165-0.771-0.165
		c-0.252,0-0.501,0.055-0.748,0.165c-0.246,0.11-0.47,0.263-0.669,0.457c-0.199,0.193-0.361,0.422-0.487,0.685
		c-0.126,0.262-0.194,0.546-0.205,0.85H34.468z"/>
	<path fill="#111111" d="M41.363,9.566c0.157-0.273,0.364-0.525,0.622-0.756c0.257-0.23,0.543-0.425,0.857-0.583
		c0.315-0.157,0.646-0.268,0.992-0.33c0.346-0.063,0.692-0.058,1.039,0.016V9.96c-0.368-0.063-0.756-0.063-1.165,0
		s-0.787,0.187-1.134,0.369c-0.347,0.185-0.635,0.434-0.865,0.748c-0.231,0.314-0.347,0.698-0.347,1.149v5.431h-2.424V8.118h2.424
		L41.363,9.566L41.363,9.566z"/>
	<path fill="#111111" d="M45.849,7.944v-0.52c0-0.64,0.087-1.181,0.26-1.621c0.173-0.44,0.406-0.797,0.7-1.07
		c0.294-0.272,0.633-0.473,1.016-0.599c0.383-0.126,0.784-0.188,1.204-0.188c0.325,0,0.677,0.039,1.055,0.118
		c0.378,0.078,0.771,0.238,1.181,0.479L50.4,6.165c-0.273-0.115-0.51-0.191-0.709-0.229c-0.199-0.036-0.347-0.055-0.44-0.055
		c-0.315,0-0.554,0.102-0.717,0.307c-0.162,0.205-0.244,0.559-0.244,1.063v0.692h1.874v1.89H48.29v7.823h-2.439V9.834h-1.228v-1.89
		H45.849z"/>
	<path fill="#111111" d="M60.395,16.603c-0.525,0.462-1.092,0.792-1.7,0.992c-0.608,0.199-1.302,0.304-2.078,0.314
		c-0.724,0-1.385-0.105-1.983-0.314c-0.598-0.211-1.109-0.525-1.535-0.945c-0.425-0.419-0.753-0.934-0.983-1.542
		c-0.23-0.608-0.347-1.307-0.347-2.094c0-0.776,0.107-1.479,0.323-2.109c0.215-0.63,0.521-1.165,0.921-1.605
		c0.398-0.441,0.884-0.782,1.456-1.023c0.571-0.241,1.22-0.362,1.944-0.362c0.702,0,1.327,0.123,1.873,0.37
		c0.545,0.246,1.005,0.588,1.377,1.023c0.373,0.436,0.656,0.944,0.851,1.526c0.193,0.583,0.285,1.21,0.275,1.881
		c0,0.137-0.008,0.3-0.023,0.488c-0.016,0.189-0.034,0.357-0.056,0.504h-6.485c0.042,0.462,0.146,0.842,0.314,1.142
		c0.168,0.299,0.37,0.535,0.606,0.708c0.236,0.173,0.49,0.297,0.764,0.37c0.272,0.073,0.54,0.11,0.803,0.11
		c0.21,0,0.433-0.016,0.669-0.048c0.236-0.031,0.47-0.084,0.7-0.157c0.231-0.073,0.449-0.17,0.653-0.291
		c0.205-0.12,0.381-0.265,0.527-0.433L60.395,16.603z M58.442,11.88c-0.011-0.304-0.073-0.588-0.188-0.85
		c-0.116-0.263-0.271-0.491-0.465-0.685c-0.194-0.194-0.417-0.347-0.669-0.457c-0.252-0.11-0.509-0.165-0.771-0.165
		c-0.252,0-0.501,0.055-0.748,0.165c-0.246,0.11-0.47,0.263-0.669,0.457c-0.199,0.193-0.361,0.422-0.487,0.685
		c-0.126,0.262-0.194,0.546-0.205,0.85H58.442z"/>
	<path fill="#111111" d="M70.783,16.508c-0.504,0.504-1.07,0.863-1.7,1.078c-0.629,0.216-1.274,0.323-1.937,0.323
		c-0.725,0-1.391-0.132-2-0.394c-0.607-0.263-1.136-0.617-1.582-1.063c-0.444-0.446-0.791-0.974-1.037-1.582
		c-0.247-0.608-0.37-1.26-0.37-1.952c0-0.756,0.126-1.445,0.378-2.07c0.252-0.624,0.604-1.156,1.055-1.598
		c0.451-0.44,0.986-0.784,1.605-1.031c0.619-0.246,1.291-0.369,2.015-0.369c0.619,0,1.196,0.094,1.731,0.283
		c0.535,0.188,1.092,0.472,1.668,0.85l-1.008,1.543c-0.367-0.241-0.766-0.44-1.195-0.599c-0.432-0.157-0.829-0.235-1.196-0.235
		s-0.708,0.078-1.022,0.235c-0.314,0.158-0.594,0.378-0.834,0.661c-0.242,0.284-0.432,0.625-0.566,1.023
		c-0.137,0.399-0.205,0.84-0.205,1.322c0,0.504,0.081,0.944,0.244,1.322s0.369,0.698,0.622,0.96c0.252,0.263,0.534,0.46,0.85,0.591
		c0.315,0.131,0.624,0.196,0.929,0.196c0.18,0,0.371-0.013,0.575-0.039s0.411-0.076,0.621-0.149c0.21-0.073,0.417-0.173,0.622-0.299
		s0.4-0.289,0.591-0.488L70.783,16.508z"/>
	<path fill="#111111" d="M73.271,5.851l2.439-0.771v3.021h2.188v1.89h-2.188v4.564c0,0.294,0.061,0.53,0.182,0.709
		c0.121,0.179,0.28,0.317,0.479,0.417c0.199,0.1,0.425,0.168,0.677,0.205c0.252,0.036,0.51,0.055,0.771,0.055v1.937
		c-0.661,0.073-1.272,0.065-1.834-0.024c-0.563-0.089-1.043-0.265-1.44-0.527c-0.397-0.262-0.711-0.605-0.937-1.03
		c-0.227-0.426-0.34-0.937-0.34-1.535v-4.77h-1.494v-1.89h1.494V5.851H73.271z"/>
	<path fill="#111111" d="M79.536,4.229h2.881v2.503h-2.881V4.229z M79.771,8.118h2.424v9.539h-2.424V8.118z"/>
	<path fill="#111111" d="M89.152,7.897c0.672,0,1.3,0.113,1.882,0.339c0.583,0.226,1.089,0.553,1.521,0.983
		c0.43,0.431,0.769,0.96,1.014,1.59c0.248,0.63,0.371,1.349,0.371,2.156c0,0.798-0.123,1.504-0.371,2.117
		c-0.245,0.614-0.584,1.132-1.014,1.551c-0.432,0.42-0.938,0.74-1.521,0.961c-0.582,0.22-1.21,0.33-1.882,0.33
		c-0.756,0-1.428-0.134-2.014-0.401c-0.589-0.268-1.08-0.63-1.474-1.086c-0.394-0.457-0.692-0.984-0.896-1.582
		c-0.205-0.599-0.309-1.229-0.309-1.89c0-0.818,0.121-1.542,0.362-2.172s0.573-1.159,1-1.59c0.425-0.431,0.921-0.756,1.487-0.977
		C87.878,8.008,88.492,7.897,89.152,7.897z M89.152,9.676c-0.305,0-0.598,0.077-0.881,0.229c-0.283,0.152-0.53,0.37-0.739,0.653
		c-0.212,0.283-0.378,0.63-0.505,1.039c-0.125,0.409-0.188,0.866-0.188,1.369c0,0.378,0.054,0.756,0.157,1.134
		c0.105,0.378,0.255,0.719,0.449,1.023c0.193,0.304,0.436,0.554,0.724,0.747c0.289,0.194,0.617,0.292,0.983,0.292
		c0.389,0,0.729-0.098,1.023-0.292c0.293-0.193,0.543-0.442,0.747-0.747c0.205-0.305,0.359-0.646,0.466-1.023
		c0.104-0.378,0.156-0.756,0.156-1.134c0-0.398-0.05-0.795-0.148-1.188c-0.1-0.393-0.25-0.745-0.449-1.055
		c-0.199-0.309-0.448-0.561-0.747-0.755C89.9,9.774,89.552,9.676,89.152,9.676z"/>
	<path fill="#111111" d="M98.441,9.33c0.263-0.451,0.629-0.811,1.102-1.078c0.473-0.268,0.945-0.401,1.417-0.401
		c0.524,0,1.008,0.078,1.448,0.235c0.439,0.158,0.82,0.392,1.142,0.701c0.319,0.31,0.569,0.692,0.747,1.148
		c0.18,0.457,0.268,0.984,0.268,1.582v6.14h-2.407v-5.966c0-0.315-0.048-0.596-0.142-0.843c-0.096-0.246-0.216-0.453-0.363-0.621
		c-0.146-0.168-0.319-0.294-0.52-0.378c-0.199-0.084-0.398-0.126-0.598-0.126c-0.325,0-0.617,0.061-0.874,0.181
		C99.404,10.025,99.184,10.19,99,10.4s-0.322,0.459-0.417,0.748c-0.095,0.288-0.142,0.601-0.142,0.937v5.572h-2.439V8.118h2.439
		V9.33z"/>
</g>
</svg>
