<?xml version="1.0" encoding="utf-8"?>
<!-- Generator: Adobe Illustrator 16.0.0, SVG Export Plug-In . SVG Version: 6.00 Build 0)  -->
<!DOCTYPE svg PUBLIC "-//W3C//DTD SVG 1.1//EN" "http://www.w3.org/Graphics/SVG/1.1/DTD/svg11.dtd">
<svg version="1.1" id="레이어_1" xmlns="http://www.w3.org/2000/svg" xmlns:xlink="http://www.w3.org/1999/xlink" x="0px"
	 y="0px" width="122px" height="40px" viewBox="0 0 122 40" enable-background="new 0 0 122 40" xml:space="preserve">
<g>
	<path fill="#111111" d="M43.417,36.395V28.2h1.633l1.939,5.803c0.179,0.54,0.31,0.944,0.392,1.213
		c0.093-0.298,0.238-0.735,0.436-1.313l1.962-5.701h1.459v8.195h-1.045v-6.859l-2.382,6.859h-0.978l-2.37-6.978v6.978h-1.046V36.395
		z"/>
	<path fill="#111111" d="M53.584,36.395V28.2h1.085v8.194H53.584z"/>
	<path fill="#111111" d="M56.937,36.395V28.2h1.084v7.229h4.036v0.967h-5.12V36.395z"/>
	<path fill="#111111" d="M62.859,36.395l3.147-8.194h1.168l3.354,8.194h-1.235l-0.955-2.481h-3.427l-0.9,2.481H62.859z
		 M65.225,33.029h2.778l-0.854-2.271c-0.262-0.688-0.455-1.256-0.582-1.698c-0.104,0.524-0.252,1.047-0.44,1.564L65.225,33.029z"/>
	<path fill="#111111" d="M71.786,36.395V28.2h1.112l4.305,6.435V28.2h1.039v8.194H77.13l-4.304-6.438v6.438H71.786z"/>
</g>
<g>
	<path fill="#111111" d="M45.85,5.738h-6.202v3.558h5.84v1.905h-5.84v5.714h-2.425V3.834h8.627V5.738z"/>
	<path fill="#111111" d="M47.628,3.487h2.881V5.99h-2.881V3.487z M47.864,7.376h2.424v9.539h-2.424V7.376z"/>
	<path fill="#111111" d="M55.688,8.588c0.263-0.451,0.63-0.811,1.102-1.078c0.473-0.268,0.945-0.401,1.417-0.401
		c0.524,0,1.008,0.078,1.448,0.235c0.439,0.158,0.821,0.392,1.142,0.701c0.319,0.31,0.569,0.692,0.747,1.148
		c0.179,0.457,0.269,0.984,0.269,1.582v6.14h-2.409v-5.966c0-0.315-0.047-0.596-0.142-0.843C59.167,9.86,59.047,9.653,58.9,9.485
		c-0.146-0.168-0.32-0.294-0.52-0.378c-0.2-0.084-0.398-0.126-0.598-0.126c-0.325,0-0.617,0.061-0.874,0.181
		c-0.257,0.121-0.478,0.286-0.661,0.496c-0.183,0.21-0.322,0.459-0.417,0.748c-0.095,0.288-0.142,0.601-0.142,0.938v5.572h-2.439
		V7.376h2.439V8.588z"/>
	<path fill="#111111" d="M64.346,3.487h2.881V5.99h-2.881V3.487z M64.582,7.376h2.424v9.539h-2.424V7.376z"/>
	<path fill="#111111" d="M70.484,5.108l2.439-0.771v3.021h2.188v1.89h-2.188v4.564c0,0.294,0.061,0.53,0.182,0.709
		s0.28,0.317,0.479,0.417s0.425,0.168,0.677,0.205c0.252,0.036,0.51,0.055,0.771,0.055v1.938c-0.661,0.073-1.272,0.065-1.834-0.024
		c-0.563-0.089-1.042-0.265-1.44-0.527c-0.397-0.262-0.711-0.605-0.937-1.03c-0.227-0.426-0.34-0.937-0.34-1.535v-4.77h-1.494v-1.89
		h1.494V5.108H70.484z"/>
	<path fill="#111111" d="M76.527,18.474c0.441-0.105,0.832-0.226,1.174-0.362c0.341-0.136,0.638-0.299,0.89-0.488
		c0.252-0.188,0.466-0.411,0.638-0.669c0.174-0.257,0.317-0.554,0.434-0.889l-3.4-8.689h2.566l2.063,5.824l2.047-5.824h2.549
		L82.4,15.75c-0.18,0.504-0.367,0.947-0.566,1.33c-0.2,0.383-0.42,0.764-0.661,1.142c-0.252,0.378-0.532,0.695-0.843,0.952
		c-0.311,0.257-0.635,0.47-0.977,0.638s-0.689,0.305-1.047,0.409c-0.356,0.104-0.709,0.205-1.055,0.298L76.527,18.474z"/>
</g>
</svg>
