<?xml version="1.0" encoding="utf-8"?>
<!-- Generator: Adobe Illustrator 16.0.0, SVG Export Plug-In . SVG Version: 6.00 Build 0)  -->
<!DOCTYPE svg PUBLIC "-//W3C//DTD SVG 1.1//EN" "http://www.w3.org/Graphics/SVG/1.1/DTD/svg11.dtd">
<svg version="1.1" id="레이어_1" xmlns="http://www.w3.org/2000/svg" xmlns:xlink="http://www.w3.org/1999/xlink" x="0px"
	 y="0px" width="122px" height="40px" viewBox="0 0 122 40" enable-background="new 0 0 122 40" xml:space="preserve">
<g>
	<path fill="#111111" d="M35.065,35.48v-8.195h1.084v3.365h4.26v-3.365h1.085v8.195h-1.085v-3.863h-4.26v3.863H35.065z"/>
	<path fill="#111111" d="M43.733,35.48v-8.195h5.926v0.967h-4.841v2.51h4.533v0.963h-4.533v2.789h5.031v0.967H43.733L43.733,35.48z"
		/>
	<path fill="#111111" d="M51.716,35.48v-8.195H52.8v7.229h4.036v0.967H51.716L51.716,35.48z"/>
	<path fill="#111111" d="M57.987,32.848l1.022-0.09c0.049,0.41,0.161,0.746,0.338,1.01c0.178,0.262,0.452,0.476,0.825,0.637
		c0.372,0.162,0.792,0.244,1.258,0.244c0.413,0,0.778-0.063,1.095-0.186c0.316-0.123,0.553-0.291,0.707-0.506
		s0.231-0.447,0.231-0.701c0-0.258-0.073-0.482-0.224-0.674c-0.148-0.191-0.396-0.354-0.737-0.482
		c-0.22-0.086-0.706-0.221-1.459-0.399c-0.753-0.183-1.28-0.353-1.582-0.513c-0.392-0.205-0.684-0.459-0.875-0.764
		c-0.192-0.303-0.288-0.645-0.288-1.02c0-0.414,0.117-0.801,0.353-1.16c0.234-0.359,0.577-0.633,1.028-0.818
		c0.451-0.188,0.952-0.279,1.504-0.279c0.607,0,1.144,0.099,1.607,0.293c0.463,0.195,0.82,0.483,1.07,0.863
		c0.248,0.381,0.384,0.811,0.402,1.291l-1.041,0.078c-0.056-0.518-0.244-0.908-0.566-1.174c-0.322-0.264-0.799-0.396-1.428-0.396
		c-0.656,0-1.134,0.121-1.435,0.36c-0.3,0.241-0.449,0.53-0.449,0.87c0,0.294,0.105,0.536,0.318,0.727
		c0.209,0.189,0.754,0.385,1.635,0.584c0.883,0.199,1.486,0.373,1.814,0.522c0.477,0.22,0.828,0.499,1.057,0.835
		c0.227,0.338,0.341,0.727,0.341,1.166c0,0.436-0.125,0.848-0.375,1.232c-0.249,0.387-0.608,0.686-1.075,0.899
		c-0.469,0.214-0.994,0.321-1.58,0.321c-0.741,0-1.363-0.107-1.864-0.324c-0.501-0.216-0.896-0.541-1.18-0.977
		C58.151,33.887,58.002,33.396,57.987,32.848z"/>
	<path fill="#111111" d="M66.577,35.48v-8.195h1.085v8.195H66.577z"/>
	<path fill="#111111" d="M69.975,35.48v-8.195h1.112l4.306,6.436v-6.436h1.039v8.195h-1.113l-4.303-6.439v6.439H69.975z"/>
	<path fill="#111111" d="M78.609,35.48v-8.195h1.084v4.064l4.068-4.064h1.471l-3.438,3.32l3.589,4.875h-1.431l-2.918-4.148
		l-1.342,1.309v2.84H78.609L78.609,35.48z"/>
	<path fill="#111111" d="M86.886,35.48v-8.195h1.085v8.195H86.886z"/>
</g>
<g>
	<path fill="#111111" d="M46.212,17.431h-2.425V4.349h2.425v5.51l4.942-5.51h2.943l-5.352,5.966l5.572,7.115H51.5L47.234,12
		l-1.022,1.149V17.431z"/>
	<path fill="#111111" d="M58.994,7.671c0.671,0,1.299,0.113,1.881,0.338c0.583,0.226,1.089,0.554,1.52,0.984
		c0.431,0.43,0.77,0.96,1.016,1.59c0.247,0.63,0.37,1.349,0.37,2.157c0,0.797-0.123,1.503-0.37,2.117
		c-0.246,0.614-0.585,1.131-1.016,1.55c-0.431,0.42-0.937,0.74-1.52,0.96c-0.582,0.22-1.21,0.331-1.881,0.331
		c-0.756,0-1.428-0.134-2.015-0.401c-0.588-0.268-1.079-0.63-1.473-1.086s-0.692-0.983-0.896-1.582
		c-0.205-0.598-0.308-1.228-0.308-1.889c0-0.819,0.121-1.543,0.362-2.172c0.241-0.63,0.574-1.16,1-1.59
		c0.425-0.43,0.921-0.756,1.487-0.976S58.333,7.671,58.994,7.671z M58.994,9.45c-0.305,0-0.599,0.076-0.882,0.228
		c-0.283,0.152-0.53,0.37-0.739,0.653c-0.211,0.284-0.378,0.63-0.504,1.039c-0.126,0.409-0.189,0.866-0.189,1.37
		c0,0.378,0.053,0.755,0.157,1.133c0.105,0.378,0.255,0.719,0.449,1.023c0.194,0.304,0.436,0.553,0.724,0.748
		c0.289,0.194,0.617,0.291,0.984,0.291c0.388,0,0.729-0.097,1.023-0.291c0.293-0.194,0.543-0.443,0.747-0.748
		c0.205-0.305,0.359-0.646,0.465-1.023c0.104-0.378,0.157-0.755,0.157-1.133c0-0.399-0.05-0.795-0.149-1.188
		c-0.099-0.393-0.25-0.745-0.449-1.055c-0.199-0.31-0.448-0.562-0.747-0.756C59.742,9.547,59.393,9.45,58.994,9.45z"/>
	<path fill="#111111" d="M69.84,7.671c0.671,0,1.299,0.113,1.881,0.338c0.584,0.226,1.09,0.554,1.521,0.984
		c0.43,0.43,0.769,0.96,1.015,1.59c0.247,0.63,0.37,1.349,0.37,2.157c0,0.797-0.123,1.503-0.37,2.117
		c-0.246,0.614-0.585,1.131-1.015,1.55c-0.431,0.42-0.937,0.74-1.521,0.96c-0.582,0.22-1.21,0.331-1.881,0.331
		c-0.756,0-1.428-0.134-2.015-0.401c-0.589-0.268-1.079-0.63-1.474-1.086c-0.394-0.456-0.691-0.983-0.896-1.582
		c-0.205-0.598-0.308-1.228-0.308-1.889c0-0.819,0.121-1.543,0.361-2.172c0.241-0.63,0.574-1.16,1-1.59s0.922-0.756,1.487-0.976
		S69.18,7.671,69.84,7.671z M69.84,9.45c-0.305,0-0.599,0.076-0.882,0.228c-0.283,0.152-0.53,0.37-0.739,0.653
		c-0.211,0.284-0.378,0.63-0.504,1.039c-0.126,0.409-0.189,0.866-0.189,1.37c0,0.378,0.054,0.755,0.158,1.133
		s0.254,0.719,0.448,1.023s0.437,0.553,0.724,0.748c0.289,0.194,0.617,0.291,0.984,0.291c0.389,0,0.729-0.097,1.023-0.291
		c0.293-0.194,0.543-0.443,0.746-0.748c0.205-0.305,0.359-0.646,0.466-1.023c0.104-0.378,0.157-0.755,0.157-1.133
		c0-0.399-0.051-0.795-0.149-1.188c-0.099-0.393-0.25-0.745-0.449-1.055c-0.198-0.31-0.448-0.562-0.747-0.756
		C70.588,9.547,70.238,9.45,69.84,9.45z"/>
	<path fill="#111111" d="M76.845,4.003h2.425v13.428h-2.425V4.003z"/>
</g>
</svg>
