<?xml version="1.0" encoding="utf-8"?>
<!-- Generator: Adobe Illustrator 16.0.0, SVG Export Plug-In . SVG Version: 6.00 Build 0)  -->
<!DOCTYPE svg PUBLIC "-//W3C//DTD SVG 1.1//EN" "http://www.w3.org/Graphics/SVG/1.1/DTD/svg11.dtd">
<svg version="1.1" id="레이어_1" xmlns="http://www.w3.org/2000/svg" xmlns:xlink="http://www.w3.org/1999/xlink" x="0px"
	 y="0px" width="122px" height="40px" viewBox="0 0 122 40" enable-background="new 0 0 122 40" xml:space="preserve">
<g>
	<path fill="#111111" d="M43.829,35.568v-8.195h2.823c0.638,0,1.124,0.039,1.459,0.117c0.47,0.107,0.87,0.305,1.202,0.588
		c0.433,0.365,0.756,0.832,0.97,1.398c0.214,0.568,0.321,1.219,0.321,1.948c0,0.623-0.072,1.175-0.218,1.655
		c-0.146,0.48-0.332,0.878-0.559,1.193c-0.228,0.313-0.477,0.563-0.747,0.742c-0.27,0.182-0.596,0.318-0.978,0.412
		c-0.383,0.092-0.821,0.139-1.316,0.139h-2.957V35.568z M44.914,34.602h1.75c0.54,0,0.964-0.051,1.271-0.15s0.553-0.242,0.735-0.426
		c0.257-0.256,0.457-0.603,0.601-1.037c0.144-0.434,0.215-0.959,0.215-1.578c0-0.857-0.141-1.516-0.422-1.977
		c-0.281-0.461-0.623-0.769-1.025-0.926c-0.291-0.111-0.759-0.167-1.403-0.167h-1.722V34.602z"/>
	<path fill="#111111" d="M57.887,27.373h1.085v4.734c0,0.824-0.094,1.479-0.28,1.963s-0.522,0.879-1.009,1.183
		c-0.487,0.304-1.124,0.455-1.914,0.455c-0.769,0-1.396-0.132-1.884-0.396c-0.488-0.266-0.837-0.647-1.046-1.149
		c-0.209-0.501-0.313-1.187-0.313-2.054v-4.735h1.084v4.729c0,0.711,0.066,1.235,0.198,1.572c0.133,0.338,0.36,0.598,0.683,0.78
		c0.323,0.183,0.716,0.272,1.182,0.272c0.798,0,1.366-0.181,1.705-0.541c0.339-0.361,0.509-1.058,0.509-2.086V27.373z"/>
	<path fill="#111111" d="M61.134,35.568v-8.195h3.074c0.626,0,1.128,0.083,1.507,0.249c0.378,0.166,0.674,0.421,0.889,0.767
		c0.215,0.344,0.321,0.705,0.321,1.082c0,0.35-0.095,0.68-0.284,0.988c-0.19,0.309-0.479,0.559-0.861,0.749
		c0.496,0.146,0.877,0.394,1.144,0.743c0.267,0.352,0.399,0.765,0.399,1.24c0,0.385-0.081,0.742-0.243,1.07
		c-0.162,0.33-0.362,0.586-0.601,0.764c-0.239,0.18-0.539,0.313-0.897,0.406c-0.358,0.09-0.8,0.137-1.322,0.137H61.134z
		 M62.218,30.816h1.772c0.479,0,0.824-0.031,1.033-0.096c0.275-0.082,0.483-0.218,0.623-0.408c0.141-0.188,0.211-0.429,0.211-0.715
		c0-0.271-0.065-0.512-0.196-0.719c-0.13-0.207-0.316-0.35-0.56-0.425c-0.242-0.076-0.658-0.114-1.246-0.114h-1.639L62.218,30.816
		L62.218,30.816z M62.218,34.602h2.04c0.352,0,0.598-0.014,0.738-0.039c0.25-0.045,0.458-0.119,0.626-0.224s0.306-0.257,0.414-0.456
		c0.106-0.199,0.162-0.43,0.162-0.689c0-0.307-0.078-0.571-0.235-0.797c-0.156-0.226-0.373-0.385-0.65-0.476
		c-0.277-0.092-0.678-0.137-1.198-0.137h-1.896V34.602z"/>
	<path fill="#111111" d="M68.326,35.568l3.146-8.195h1.168l3.354,8.195H74.76l-0.955-2.482h-3.427l-0.899,2.482H68.326z
		 M70.689,32.203h2.778l-0.854-2.27c-0.262-0.689-0.454-1.256-0.581-1.699c-0.104,0.524-0.252,1.047-0.441,1.564L70.689,32.203z"/>
	<path fill="#111111" d="M77.447,35.568v-8.195h1.085v8.195H77.447z"/>
</g>
<g>
	<path fill="#111111" d="M9.977,11.172c0-0.913,0.123-1.781,0.37-2.605c0.246-0.823,0.619-1.543,1.117-2.156
		c0.499-0.614,1.126-1.103,1.882-1.464c0.755-0.362,1.637-0.544,2.645-0.544c0.986,0,1.862,0.182,2.629,0.544
		c0.766,0.361,1.408,0.85,1.928,1.464c0.52,0.613,0.913,1.333,1.181,2.156c0.268,0.824,0.401,1.692,0.401,2.605
		c0,0.892-0.131,1.742-0.394,2.55c-0.262,0.809-0.65,1.517-1.164,2.125c-0.515,0.609-1.155,1.095-1.921,1.456
		c-0.767,0.362-1.653,0.543-2.66,0.543c-1.019,0-1.902-0.181-2.652-0.543c-0.751-0.361-1.375-0.847-1.874-1.456
		c-0.498-0.608-0.871-1.316-1.117-2.125C10.1,12.914,9.977,12.063,9.977,11.172z M15.99,15.895c0.608,0,1.139-0.132,1.59-0.394
		c0.451-0.263,0.826-0.614,1.125-1.055c0.3-0.441,0.52-0.945,0.661-1.512c0.143-0.566,0.213-1.154,0.213-1.763
		c0-0.63-0.076-1.233-0.229-1.811s-0.378-1.086-0.677-1.527c-0.299-0.44-0.672-0.789-1.117-1.046
		C17.11,6.53,16.588,6.402,15.99,6.402c-0.588,0-1.104,0.128-1.551,0.386c-0.446,0.257-0.818,0.605-1.117,1.046
		c-0.3,0.441-0.527,0.95-0.687,1.527c-0.157,0.577-0.235,1.181-0.235,1.811c0,0.608,0.073,1.196,0.22,1.763
		c0.147,0.566,0.37,1.07,0.669,1.512c0.3,0.44,0.675,0.792,1.126,1.055C14.867,15.763,15.392,15.895,15.99,15.895z"/>
	<path fill="#111111" d="M26.915,9.566c0.157-0.273,0.364-0.525,0.622-0.756c0.257-0.23,0.543-0.425,0.857-0.583
		c0.315-0.157,0.646-0.268,0.992-0.33c0.346-0.063,0.692-0.058,1.039,0.016V9.96c-0.368-0.063-0.756-0.063-1.165,0
		c-0.409,0.063-0.787,0.187-1.134,0.369c-0.347,0.185-0.635,0.434-0.865,0.748s-0.347,0.698-0.347,1.149v5.431H24.49V8.118h2.424
		L26.915,9.566L26.915,9.566z"/>
	<path fill="#111111" d="M34.093,7.882c0.598,0,1.106,0.129,1.526,0.386s0.767,0.605,1.039,1.047V8.118h2.425v8.453
		c0,0.65-0.085,1.23-0.252,1.739c-0.168,0.509-0.399,0.952-0.693,1.33c-0.294,0.378-0.632,0.688-1.015,0.928
		c-0.384,0.242-0.785,0.426-1.204,0.552c-0.399,0.114-0.827,0.183-1.283,0.196c-0.457,0.017-0.913-0.014-1.37-0.086
		c-0.456-0.074-0.904-0.188-1.346-0.348c-0.44-0.156-0.85-0.346-1.228-0.566l0.756-1.685c0.241,0.137,0.511,0.266,0.811,0.386
		c0.299,0.121,0.608,0.218,0.929,0.292c0.319,0.073,0.646,0.115,0.976,0.126c0.331,0.01,0.648-0.026,0.952-0.11
		c0.221-0.063,0.423-0.155,0.606-0.275c0.184-0.121,0.347-0.284,0.488-0.488c0.142-0.205,0.252-0.451,0.33-0.74
		c0.079-0.288,0.118-0.638,0.118-1.047v-0.409c-0.263,0.398-0.598,0.729-1.007,0.992c-0.41,0.262-0.93,0.394-1.559,0.394
		c-1.375,0-2.398-0.417-3.07-1.252c-0.671-0.834-1.007-2.049-1.007-3.644c0-0.756,0.084-1.44,0.252-2.055
		c0.167-0.614,0.422-1.136,0.763-1.566c0.342-0.43,0.767-0.764,1.275-0.999C32.814,8,33.41,7.882,34.093,7.882z M34.533,9.708
		c-0.389,0-0.716,0.089-0.983,0.268c-0.267,0.179-0.486,0.412-0.653,0.7c-0.168,0.289-0.289,0.622-0.362,1
		c-0.073,0.377-0.11,0.766-0.11,1.164c0,0.378,0.042,0.751,0.126,1.118s0.213,0.7,0.386,1c0.173,0.299,0.391,0.54,0.653,0.724
		c0.262,0.184,0.577,0.275,0.944,0.275c0.347,0,0.65-0.076,0.913-0.229c0.262-0.151,0.482-0.359,0.661-0.621
		c0.179-0.263,0.313-0.575,0.401-0.937c0.089-0.362,0.139-0.759,0.149-1.188V12.84c0-0.545-0.053-1.015-0.157-1.408
		c-0.105-0.394-0.252-0.719-0.44-0.977c-0.189-0.257-0.415-0.445-0.678-0.566C35.121,9.769,34.838,9.708,34.533,9.708z"/>
	<path fill="#111111" d="M45.899,7.897c0.671,0,1.299,0.113,1.881,0.339c0.583,0.226,1.089,0.553,1.52,0.983
		c0.43,0.431,0.769,0.96,1.015,1.59c0.247,0.63,0.37,1.349,0.37,2.156c0,0.798-0.123,1.504-0.37,2.117
		c-0.246,0.614-0.585,1.132-1.015,1.551c-0.431,0.42-0.937,0.74-1.52,0.961c-0.582,0.22-1.21,0.33-1.881,0.33
		c-0.756,0-1.428-0.134-2.015-0.401c-0.588-0.268-1.079-0.63-1.473-1.086c-0.394-0.457-0.692-0.984-0.896-1.582
		c-0.205-0.599-0.308-1.229-0.308-1.89c0-0.818,0.121-1.542,0.362-2.172c0.241-0.63,0.574-1.159,1-1.59
		c0.425-0.431,0.921-0.756,1.487-0.977C44.624,8.008,45.238,7.897,45.899,7.897z M45.899,9.676c-0.305,0-0.599,0.077-0.882,0.229
		c-0.283,0.152-0.53,0.37-0.739,0.653c-0.211,0.283-0.378,0.63-0.504,1.039c-0.126,0.409-0.189,0.866-0.189,1.369
		c0,0.378,0.053,0.756,0.157,1.134c0.105,0.378,0.255,0.719,0.449,1.023s0.436,0.554,0.724,0.747
		c0.289,0.194,0.617,0.292,0.984,0.292c0.388,0,0.729-0.098,1.023-0.292c0.293-0.193,0.543-0.442,0.747-0.747
		c0.205-0.305,0.359-0.646,0.465-1.023c0.104-0.378,0.157-0.756,0.157-1.134c0-0.398-0.05-0.795-0.149-1.188
		c-0.099-0.393-0.25-0.745-0.449-1.055c-0.199-0.309-0.448-0.561-0.747-0.755C46.647,9.774,46.298,9.676,45.899,9.676z"/>
	<path fill="#111111" d="M55.187,9.33c0.263-0.451,0.63-0.811,1.102-1.078c0.473-0.268,0.945-0.401,1.417-0.401
		c0.524,0,1.008,0.078,1.448,0.235c0.44,0.158,0.821,0.392,1.142,0.701c0.319,0.31,0.569,0.692,0.747,1.148
		c0.179,0.457,0.268,0.984,0.268,1.582v6.14h-2.408v-5.966c0-0.315-0.047-0.596-0.142-0.843c-0.095-0.246-0.215-0.453-0.362-0.621
		c-0.146-0.168-0.32-0.294-0.52-0.378c-0.2-0.084-0.398-0.126-0.598-0.126c-0.325,0-0.617,0.061-0.874,0.181
		c-0.257,0.121-0.478,0.286-0.661,0.496s-0.322,0.459-0.417,0.748c-0.095,0.288-0.142,0.601-0.142,0.937v5.572h-2.439V8.118h2.439
		V9.33z"/>
	<path fill="#111111" d="M68.063,7.897c0.672,0,1.299,0.113,1.881,0.339c0.584,0.226,1.09,0.553,1.521,0.983
		c0.431,0.431,0.769,0.96,1.015,1.59c0.248,0.63,0.371,1.349,0.371,2.156c0,0.798-0.123,1.504-0.371,2.117
		c-0.246,0.614-0.584,1.132-1.015,1.551c-0.431,0.42-0.937,0.74-1.521,0.961c-0.582,0.22-1.209,0.33-1.881,0.33
		c-0.756,0-1.428-0.134-2.015-0.401c-0.588-0.268-1.079-0.63-1.473-1.086c-0.394-0.457-0.692-0.984-0.896-1.582
		c-0.205-0.599-0.309-1.229-0.309-1.89c0-0.818,0.121-1.542,0.361-2.172c0.242-0.63,0.574-1.159,1-1.59
		c0.426-0.431,0.922-0.756,1.487-0.977C66.788,8.008,67.402,7.897,68.063,7.897z M68.063,9.676c-0.305,0-0.599,0.077-0.881,0.229
		c-0.283,0.152-0.531,0.37-0.74,0.653c-0.211,0.283-0.377,0.63-0.504,1.039c-0.125,0.409-0.188,0.866-0.188,1.369
		c0,0.378,0.053,0.756,0.157,1.134s0.255,0.719,0.449,1.023c0.193,0.304,0.436,0.554,0.724,0.747
		c0.289,0.194,0.616,0.292,0.983,0.292c0.389,0,0.729-0.098,1.023-0.292c0.293-0.193,0.543-0.442,0.747-0.747
		c0.205-0.305,0.358-0.646,0.465-1.023c0.104-0.378,0.157-0.756,0.157-1.134c0-0.398-0.051-0.795-0.148-1.188
		c-0.1-0.393-0.25-0.745-0.449-1.055c-0.199-0.309-0.448-0.561-0.748-0.755C68.811,9.774,68.462,9.676,68.063,9.676z"/>
	<path fill="#111111" d="M77.318,9.251c0.096-0.252,0.23-0.464,0.41-0.638c0.178-0.173,0.369-0.314,0.573-0.425
		c0.205-0.11,0.415-0.191,0.63-0.244c0.215-0.052,0.401-0.078,0.56-0.078c0.534,0,1.013,0.139,1.433,0.417
		c0.42,0.278,0.762,0.648,1.023,1.109c0.304-0.504,0.688-0.884,1.156-1.141c0.467-0.258,0.926-0.386,1.377-0.386
		c0.504,0,0.967,0.07,1.387,0.212c0.419,0.142,0.775,0.354,1.07,0.638c0.293,0.284,0.521,0.635,0.685,1.055
		c0.162,0.42,0.244,0.913,0.244,1.479v6.407h-2.408v-6.454c0-0.409-0.132-0.75-0.394-1.023c-0.264-0.272-0.588-0.409-0.978-0.409
		c-0.188,0-0.372,0.031-0.551,0.095s-0.339,0.16-0.479,0.291c-0.143,0.132-0.255,0.302-0.339,0.512s-0.126,0.462-0.126,0.756v6.233
		H80.23v-6.313c0-0.514-0.142-0.907-0.424-1.181c-0.283-0.272-0.609-0.409-0.978-0.409c-0.168,0-0.341,0.037-0.521,0.11
		c-0.179,0.073-0.341,0.188-0.486,0.338c-0.147,0.152-0.268,0.339-0.362,0.56c-0.095,0.22-0.142,0.478-0.142,0.771v6.123h-2.394
		V8.118h2.394V9.251L77.318,9.251z"/>
	<path fill="#111111" d="M90.416,4.229h2.881v2.503h-2.881V4.229z M90.652,8.118h2.424v9.539h-2.424V8.118z"/>
	<path fill="#111111" d="M103.906,16.508c-0.504,0.504-1.07,0.863-1.7,1.078c-0.629,0.216-1.274,0.323-1.937,0.323
		c-0.725,0-1.391-0.132-2-0.394c-0.607-0.263-1.136-0.617-1.582-1.063c-0.444-0.446-0.791-0.974-1.037-1.582
		c-0.248-0.608-0.37-1.26-0.37-1.952c0-0.756,0.126-1.445,0.378-2.07c0.252-0.624,0.603-1.156,1.055-1.598
		c0.451-0.44,0.986-0.784,1.605-1.031c0.619-0.246,1.291-0.369,2.015-0.369c0.619,0,1.196,0.094,1.731,0.283
		c0.535,0.188,1.092,0.472,1.668,0.85l-1.008,1.543c-0.367-0.241-0.766-0.44-1.195-0.599c-0.432-0.157-0.829-0.235-1.196-0.235
		s-0.708,0.078-1.022,0.235c-0.314,0.158-0.594,0.378-0.834,0.661c-0.242,0.284-0.432,0.625-0.566,1.023
		c-0.137,0.399-0.205,0.84-0.205,1.322c0,0.504,0.081,0.944,0.244,1.322c0.162,0.378,0.369,0.698,0.621,0.96
		c0.253,0.263,0.535,0.46,0.851,0.591c0.315,0.131,0.624,0.196,0.929,0.196c0.18,0,0.37-0.013,0.575-0.039
		c0.204-0.026,0.411-0.076,0.621-0.149c0.21-0.073,0.417-0.173,0.622-0.299s0.4-0.289,0.591-0.488L103.906,16.508z"/>
	<path fill="#111111" d="M110.99,10.432c-0.146-0.104-0.313-0.202-0.495-0.291c-0.185-0.089-0.37-0.165-0.56-0.229
		c-0.188-0.063-0.369-0.112-0.543-0.149c-0.174-0.036-0.313-0.055-0.418-0.055c-0.377,0-0.664,0.073-0.856,0.22
		c-0.194,0.147-0.292,0.347-0.292,0.599c0,0.137,0.048,0.268,0.142,0.394c0.095,0.126,0.222,0.246,0.378,0.362
		c0.157,0.115,0.34,0.23,0.543,0.346c0.205,0.116,0.424,0.231,0.653,0.347c0.356,0.188,0.709,0.378,1.056,0.566
		c0.346,0.189,0.655,0.399,0.928,0.63c0.273,0.23,0.492,0.493,0.654,0.787s0.243,0.635,0.243,1.023c0,0.566-0.112,1.039-0.338,1.416
		c-0.228,0.378-0.512,0.678-0.858,0.897c-0.346,0.221-0.724,0.378-1.133,0.473c-0.41,0.095-0.793,0.142-1.148,0.142
		c-0.631,0-1.295-0.124-1.991-0.37c-0.698-0.247-1.356-0.669-1.976-1.268l1.289-1.573c0.211,0.21,0.432,0.395,0.662,0.551
		s0.459,0.288,0.686,0.394c0.226,0.104,0.439,0.187,0.646,0.244c0.204,0.058,0.386,0.086,0.544,0.086
		c0.397,0,0.694-0.086,0.889-0.26c0.193-0.173,0.291-0.386,0.291-0.638c0-0.293-0.137-0.524-0.408-0.692
		c-0.273-0.168-0.631-0.362-1.071-0.582c-0.356-0.179-0.716-0.362-1.078-0.551c-0.36-0.189-0.692-0.404-0.991-0.646
		c-0.3-0.241-0.543-0.52-0.731-0.835c-0.188-0.314-0.283-0.687-0.283-1.117c0-0.515,0.104-0.955,0.313-1.322
		c0.211-0.367,0.479-0.664,0.805-0.89c0.324-0.226,0.689-0.391,1.094-0.496c0.403-0.104,0.801-0.157,1.188-0.157
		c0.577,0,1.165,0.1,1.763,0.299c0.6,0.2,1.118,0.468,1.559,0.803L110.99,10.432z"/>
</g>
</svg>
