<?xml version="1.0" encoding="utf-8"?>
<!-- Generator: Adobe Illustrator 16.0.0, SVG Export Plug-In . SVG Version: 6.00 Build 0)  -->
<!DOCTYPE svg PUBLIC "-//W3C//DTD SVG 1.1//EN" "http://www.w3.org/Graphics/SVG/1.1/DTD/svg11.dtd">
<svg version="1.1" id="레이어_1" xmlns="http://www.w3.org/2000/svg" xmlns:xlink="http://www.w3.org/1999/xlink" x="0px"
	 y="0px" width="122px" height="40px" viewBox="0 0 122 40" enable-background="new 0 0 122 40" xml:space="preserve">
<g>
	<path fill="#111111" d="M37.88,35.568V28.34h-2.7v-0.968h6.495v0.968h-2.711v7.229H37.88z"/>
	<path fill="#111111" d="M43.222,35.568v-8.195h5.926v0.968h-4.841v2.511h4.533v0.961h-4.533v2.789h5.031v0.967H43.222
		L43.222,35.568z"/>
	<path fill="#111111" d="M51.203,35.568v-8.195h1.084v7.229h4.036v0.967H51.203L51.203,35.568z"/>
	<path fill="#111111" d="M60.537,35.568l3.146-8.195h1.168l3.354,8.195h-1.235l-0.955-2.482h-3.427l-0.899,2.482H60.537z
		 M62.9,32.203h2.779l-0.855-2.27c-0.262-0.689-0.454-1.256-0.581-1.699c-0.104,0.524-0.252,1.047-0.441,1.564L62.9,32.203z"/>
	<path fill="#111111" d="M71.037,35.568l-3.176-8.195h1.175l2.13,5.954c0.171,0.478,0.314,0.924,0.43,1.341
		c0.127-0.447,0.274-0.895,0.442-1.341l2.213-5.954h1.106l-3.209,8.195H71.037z"/>
	<path fill="#111111" d="M76.928,35.568v-8.195h1.086v8.195H76.928z"/>
	<path fill="#111111" d="M82.68,35.568l-3.176-8.195h1.174l2.131,5.954c0.17,0.478,0.313,0.924,0.43,1.341
		c0.127-0.447,0.273-0.895,0.441-1.341l2.213-5.954H87l-3.209,8.195H82.68z"/>
</g>
<g>
	<path fill="#111111" d="M34.807,7.425c-0.188-0.136-0.409-0.268-0.661-0.394s-0.509-0.241-0.771-0.346s-0.52-0.189-0.771-0.252
		s-0.467-0.095-0.645-0.095c-0.641,0-1.115,0.157-1.425,0.473c-0.31,0.314-0.465,0.714-0.465,1.196c0,0.283,0.103,0.532,0.308,0.747
		c0.204,0.216,0.45,0.41,0.739,0.583c0.289,0.173,0.588,0.325,0.897,0.456c0.31,0.132,0.574,0.244,0.795,0.339
		c0.577,0.263,1.094,0.522,1.551,0.779c0.456,0.257,0.837,0.532,1.141,0.826c0.305,0.294,0.538,0.625,0.701,0.992
		c0.162,0.367,0.244,0.792,0.244,1.274c0,0.735-0.147,1.347-0.441,1.834c-0.294,0.488-0.669,0.879-1.125,1.173
		c-0.457,0.294-0.963,0.504-1.52,0.63s-1.092,0.188-1.605,0.188c-0.818,0-1.643-0.16-2.472-0.479
		c-0.829-0.32-1.658-0.858-2.487-1.614l1.48-1.558c0.22,0.21,0.472,0.411,0.755,0.604c0.283,0.194,0.572,0.365,0.866,0.512
		s0.582,0.263,0.865,0.347c0.284,0.084,0.536,0.126,0.756,0.126c0.263,0,0.532-0.026,0.811-0.079
		c0.279-0.053,0.527-0.146,0.748-0.283c0.221-0.137,0.401-0.317,0.543-0.543c0.142-0.226,0.213-0.512,0.213-0.858
		c0-0.367-0.189-0.708-0.567-1.022c-0.377-0.315-0.902-0.625-1.574-0.93c-0.482-0.22-0.973-0.445-1.472-0.677
		c-0.498-0.23-0.952-0.498-1.361-0.803c-0.409-0.304-0.742-0.658-1-1.063c-0.257-0.403-0.386-0.89-0.386-1.456
		c0-0.682,0.134-1.259,0.402-1.731c0.268-0.473,0.608-0.853,1.022-1.142c0.415-0.288,0.879-0.495,1.394-0.621
		c0.514-0.126,1.023-0.189,1.526-0.189c0.798,0,1.548,0.14,2.252,0.417c0.702,0.278,1.354,0.633,1.951,1.063L34.807,7.425z"/>
	<path fill="#111111" d="M39.104,5.851l2.44-0.771v3.021h2.188v1.89h-2.188v4.564c0,0.294,0.061,0.53,0.181,0.709
		c0.121,0.179,0.281,0.317,0.48,0.417c0.199,0.1,0.425,0.168,0.677,0.205c0.252,0.036,0.509,0.055,0.771,0.055v1.937
		c-0.661,0.073-1.272,0.065-1.834-0.024s-1.042-0.265-1.44-0.527c-0.398-0.262-0.711-0.605-0.937-1.03
		c-0.226-0.426-0.339-0.937-0.339-1.535v-4.77h-1.495v-1.89h1.495L39.104,5.851L39.104,5.851z"/>
	<path fill="#111111" d="M48.014,9.566c0.157-0.273,0.364-0.525,0.622-0.756c0.257-0.23,0.543-0.425,0.857-0.583
		c0.315-0.157,0.646-0.268,0.992-0.33c0.346-0.063,0.692-0.058,1.039,0.016V9.96c-0.368-0.063-0.756-0.063-1.165,0
		c-0.409,0.063-0.787,0.187-1.134,0.369c-0.347,0.185-0.635,0.434-0.865,0.748c-0.231,0.314-0.347,0.698-0.347,1.149v5.431H45.59
		V8.118h2.424V9.566z"/>
	<path fill="#111111" d="M59.694,16.603c-0.525,0.462-1.092,0.792-1.7,0.992c-0.608,0.199-1.302,0.304-2.078,0.314
		c-0.724,0-1.385-0.105-1.983-0.314c-0.598-0.211-1.109-0.525-1.535-0.945c-0.425-0.419-0.753-0.934-0.983-1.542
		s-0.347-1.307-0.347-2.094c0-0.776,0.107-1.479,0.323-2.109c0.215-0.63,0.521-1.165,0.921-1.605
		c0.398-0.441,0.884-0.782,1.456-1.023c0.571-0.241,1.22-0.362,1.944-0.362c0.702,0,1.327,0.123,1.873,0.37
		c0.545,0.246,1.005,0.588,1.377,1.023c0.373,0.436,0.656,0.944,0.851,1.526c0.193,0.583,0.285,1.21,0.275,1.881
		c0,0.137-0.008,0.3-0.023,0.488c-0.016,0.189-0.034,0.357-0.056,0.504h-6.485c0.042,0.462,0.146,0.842,0.314,1.142
		c0.168,0.299,0.37,0.535,0.606,0.708c0.236,0.173,0.49,0.297,0.764,0.37c0.272,0.073,0.54,0.11,0.803,0.11
		c0.21,0,0.433-0.016,0.669-0.048c0.236-0.031,0.47-0.084,0.7-0.157c0.231-0.073,0.449-0.17,0.653-0.291
		c0.205-0.12,0.381-0.265,0.527-0.433L59.694,16.603z M57.742,11.88c-0.011-0.304-0.073-0.588-0.188-0.85
		c-0.116-0.263-0.271-0.491-0.465-0.685c-0.194-0.194-0.417-0.347-0.669-0.457c-0.252-0.11-0.509-0.165-0.771-0.165
		c-0.252,0-0.501,0.055-0.748,0.165c-0.246,0.11-0.47,0.263-0.669,0.457c-0.199,0.193-0.361,0.422-0.487,0.685
		c-0.126,0.262-0.194,0.546-0.205,0.85H57.742z"/>
	<path fill="#111111" d="M64.652,9.33c0.263-0.451,0.63-0.811,1.102-1.078c0.473-0.268,0.945-0.401,1.417-0.401
		c0.524,0,1.009,0.078,1.448,0.235c0.439,0.158,0.82,0.392,1.142,0.701c0.319,0.31,0.569,0.692,0.747,1.148
		c0.18,0.457,0.268,0.984,0.268,1.582v6.14h-2.407v-5.966c0-0.315-0.048-0.596-0.142-0.843c-0.096-0.246-0.216-0.453-0.362-0.621
		s-0.32-0.294-0.521-0.378c-0.199-0.084-0.398-0.126-0.598-0.126c-0.325,0-0.617,0.061-0.874,0.181
		c-0.257,0.121-0.478,0.286-0.661,0.496s-0.322,0.459-0.417,0.748c-0.095,0.288-0.142,0.601-0.142,0.937v5.572h-2.439V8.118h2.439
		V9.33z"/>
	<path fill="#111111" d="M76.979,7.882c0.599,0,1.106,0.129,1.526,0.386s0.767,0.605,1.039,1.047V8.118h2.425v8.453
		c0,0.65-0.085,1.23-0.252,1.739c-0.168,0.509-0.398,0.952-0.693,1.33c-0.293,0.378-0.631,0.688-1.015,0.928
		c-0.384,0.242-0.784,0.426-1.204,0.552c-0.398,0.114-0.826,0.183-1.283,0.196c-0.457,0.017-0.912-0.014-1.369-0.086
		c-0.457-0.074-0.904-0.188-1.346-0.348c-0.44-0.156-0.851-0.346-1.229-0.566l0.756-1.685c0.241,0.137,0.511,0.266,0.811,0.386
		c0.299,0.121,0.608,0.218,0.93,0.292c0.318,0.073,0.646,0.115,0.976,0.126c0.331,0.01,0.648-0.026,0.952-0.11
		c0.221-0.063,0.423-0.155,0.605-0.275c0.185-0.121,0.348-0.284,0.488-0.488c0.143-0.205,0.252-0.451,0.33-0.74
		c0.079-0.288,0.118-0.638,0.118-1.047v-0.409c-0.263,0.398-0.599,0.729-1.007,0.992c-0.41,0.262-0.93,0.394-1.559,0.394
		c-1.375,0-2.398-0.417-3.07-1.252c-0.672-0.834-1.008-2.049-1.008-3.644c0-0.756,0.084-1.44,0.252-2.055
		c0.168-0.614,0.423-1.136,0.764-1.566c0.342-0.43,0.768-0.764,1.275-0.999C75.7,8,76.296,7.882,76.979,7.882z M77.419,9.708
		c-0.389,0-0.716,0.089-0.983,0.268c-0.267,0.179-0.485,0.412-0.652,0.7c-0.168,0.289-0.289,0.622-0.362,1
		c-0.073,0.377-0.11,0.766-0.11,1.164c0,0.378,0.043,0.751,0.127,1.118s0.213,0.7,0.386,1c0.173,0.299,0.391,0.54,0.653,0.724
		c0.262,0.184,0.576,0.275,0.943,0.275c0.348,0,0.65-0.076,0.913-0.229c0.262-0.151,0.481-0.359,0.661-0.621
		c0.179-0.263,0.313-0.575,0.4-0.937c0.09-0.362,0.14-0.759,0.149-1.188V12.84c0-0.545-0.053-1.015-0.157-1.408
		c-0.104-0.394-0.252-0.719-0.439-0.977c-0.189-0.257-0.415-0.445-0.678-0.566C78.007,9.769,77.725,9.708,77.419,9.708z"/>
	<path fill="#111111" d="M85.305,5.851l2.44-0.771v3.021h2.188v1.89h-2.188v4.564c0,0.294,0.062,0.53,0.181,0.709
		c0.121,0.179,0.281,0.317,0.48,0.417c0.199,0.1,0.425,0.168,0.677,0.205c0.252,0.036,0.509,0.055,0.771,0.055v1.937
		c-0.66,0.073-1.271,0.065-1.834-0.024c-0.562-0.089-1.041-0.265-1.439-0.527c-0.398-0.262-0.711-0.605-0.938-1.03
		c-0.226-0.426-0.338-0.937-0.338-1.535v-4.77h-1.494v-1.89h1.494V5.851z"/>
	<path fill="#111111" d="M94.23,9.33c0.263-0.451,0.629-0.811,1.102-1.078c0.473-0.268,0.945-0.401,1.417-0.401
		c0.524,0,1.008,0.078,1.448,0.235c0.439,0.158,0.82,0.392,1.142,0.701c0.319,0.31,0.569,0.692,0.747,1.148
		c0.18,0.457,0.268,0.984,0.268,1.582v6.14h-2.408v-5.966c0-0.315-0.047-0.596-0.141-0.843c-0.096-0.246-0.216-0.453-0.363-0.621
		c-0.146-0.168-0.319-0.294-0.52-0.378c-0.199-0.084-0.398-0.126-0.598-0.126c-0.325,0-0.617,0.061-0.874,0.181
		c-0.257,0.121-0.478,0.286-0.661,0.496s-0.322,0.459-0.417,0.748c-0.095,0.288-0.142,0.601-0.142,0.937v5.572h-2.439V4.229h2.439
		V9.33z"/>
</g>
</svg>
