<?xml version="1.0" encoding="utf-8"?>
<!-- Generator: Adobe Illustrator 16.0.0, SVG Export Plug-In . SVG Version: 6.00 Build 0)  -->
<!DOCTYPE svg PUBLIC "-//W3C//DTD SVG 1.1//EN" "http://www.w3.org/Graphics/SVG/1.1/DTD/svg11.dtd">
<svg version="1.1" id="레이어_1" xmlns="http://www.w3.org/2000/svg" xmlns:xlink="http://www.w3.org/1999/xlink" x="0px"
	 y="0px" width="122px" height="40px" viewBox="0 0 122 40" enable-background="new 0 0 122 40" xml:space="preserve">
<g>
	<path fill="#111111" d="M28.17,36.395V28.2h3.074c0.626,0,1.128,0.081,1.507,0.247c0.378,0.166,0.674,0.423,0.889,0.767
		c0.214,0.347,0.321,0.705,0.321,1.082c0,0.353-0.095,0.681-0.285,0.99c-0.19,0.31-0.478,0.56-0.861,0.748
		c0.496,0.146,0.877,0.396,1.144,0.743c0.267,0.35,0.399,0.765,0.399,1.24c0,0.385-0.081,0.742-0.243,1.07
		c-0.162,0.33-0.362,0.586-0.601,0.764c-0.238,0.18-0.538,0.314-0.897,0.406c-0.359,0.09-0.8,0.137-1.322,0.137H28.17z
		 M29.254,31.643h1.772c0.48,0,0.825-0.031,1.034-0.096c0.275-0.082,0.483-0.217,0.623-0.408c0.14-0.188,0.21-0.428,0.21-0.715
		c0-0.271-0.065-0.512-0.196-0.719c-0.13-0.207-0.316-0.348-0.559-0.424c-0.243-0.076-0.658-0.115-1.247-0.115h-1.638L29.254,31.643
		L29.254,31.643z M29.254,35.428h2.04c0.351,0,0.597-0.014,0.738-0.039c0.25-0.045,0.458-0.119,0.626-0.225
		c0.168-0.104,0.306-0.256,0.414-0.455c0.107-0.199,0.162-0.43,0.162-0.691c0-0.305-0.078-0.57-0.235-0.797
		c-0.156-0.225-0.373-0.383-0.65-0.475c-0.278-0.092-0.678-0.137-1.199-0.137h-1.896V35.428L29.254,35.428z"/>
	<path fill="#111111" d="M36.273,36.395V28.2h5.926v0.967h-4.841v2.511h4.533v0.961h-4.533v2.791h5.031v0.967h-6.116V36.395z"/>
	<path fill="#111111" d="M44.255,36.395V28.2h1.084v7.229h4.036v0.967h-5.12V36.395z"/>
	<path fill="#111111" d="M54.467,33.18v-0.961l3.472-0.006v3.041c-0.533,0.424-1.083,0.744-1.649,0.959
		c-0.566,0.213-1.147,0.32-1.744,0.32c-0.805,0-1.536-0.172-2.193-0.516c-0.658-0.347-1.154-0.845-1.49-1.496
		c-0.335-0.652-0.503-1.381-0.503-2.187c0-0.797,0.167-1.543,0.5-2.233c0.334-0.689,0.813-1.203,1.439-1.539
		s1.348-0.504,2.164-0.504c0.592,0,1.128,0.096,1.606,0.289c0.479,0.19,0.854,0.459,1.127,0.801c0.271,0.344,0.479,0.791,0.62,1.342
		l-0.979,0.27c-0.123-0.418-0.275-0.746-0.458-0.984c-0.183-0.237-0.443-0.43-0.782-0.571c-0.34-0.146-0.716-0.218-1.13-0.218
		c-0.495,0-0.924,0.076-1.285,0.228c-0.362,0.152-0.653,0.351-0.875,0.597c-0.222,0.246-0.395,0.516-0.518,0.811
		c-0.208,0.508-0.313,1.057-0.313,1.65c0,0.729,0.126,1.34,0.377,1.832c0.252,0.492,0.618,0.856,1.099,1.096
		c0.481,0.238,0.991,0.357,1.531,0.357c0.47,0,0.929-0.091,1.376-0.271c0.447-0.183,0.786-0.375,1.017-0.58V33.18H54.467z"/>
	<path fill="#111111" d="M59.966,36.395V28.2H63.6c0.729,0,1.285,0.073,1.666,0.221c0.379,0.147,0.684,0.406,0.91,0.779
		c0.227,0.372,0.342,0.784,0.342,1.235c0,0.58-0.188,1.07-0.564,1.469c-0.376,0.4-0.958,0.652-1.744,0.763
		c0.287,0.138,0.505,0.272,0.654,0.408c0.316,0.288,0.617,0.653,0.9,1.09l1.424,2.229h-1.362l-1.085-1.705
		c-0.316-0.492-0.577-0.869-0.782-1.129c-0.205-0.262-0.39-0.442-0.551-0.549c-0.162-0.104-0.327-0.176-0.495-0.217
		c-0.123-0.027-0.324-0.039-0.604-0.039H61.05v3.639H59.966z M61.05,31.816h2.331c0.496,0,0.885-0.053,1.163-0.154
		c0.279-0.102,0.491-0.266,0.638-0.492c0.146-0.225,0.219-0.471,0.219-0.734c0-0.389-0.143-0.707-0.424-0.957
		s-0.726-0.373-1.332-0.373H61.05V31.816z"/>
	<path fill="#111111" d="M67.729,36.395l3.147-8.194h1.168l3.354,8.194h-1.235l-0.955-2.481h-3.427l-0.9,2.481H67.729z
		 M70.094,33.029h2.778l-0.854-2.271c-0.262-0.688-0.455-1.256-0.582-1.698c-0.104,0.524-0.252,1.047-0.44,1.563L70.094,33.029z"/>
	<path fill="#111111" d="M76.665,36.395V28.2h2.823c0.638,0,1.123,0.038,1.459,0.116c0.47,0.107,0.869,0.306,1.201,0.588
		c0.434,0.365,0.757,0.832,0.971,1.398c0.214,0.568,0.32,1.219,0.32,1.949c0,0.623-0.071,1.174-0.217,1.654
		c-0.146,0.48-0.332,0.879-0.56,1.193c-0.228,0.313-0.478,0.563-0.747,0.744c-0.27,0.18-0.596,0.317-0.979,0.409
		c-0.383,0.095-0.82,0.142-1.315,0.142H76.665L76.665,36.395z M77.75,35.428h1.75c0.54,0,0.964-0.051,1.271-0.152
		c0.308-0.1,0.553-0.241,0.734-0.424c0.258-0.258,0.457-0.604,0.602-1.037c0.144-0.433,0.215-0.961,0.215-1.58
		c0-0.856-0.141-1.516-0.422-1.975c-0.281-0.461-0.623-0.77-1.025-0.926c-0.291-0.111-0.759-0.168-1.402-0.168H77.75V35.428z"/>
	<path fill="#111111" d="M85.367,36.395V28.2h5.926v0.967h-4.841v2.511h4.532v0.961h-4.532v2.791h5.03v0.967h-6.115V36.395z"/>
</g>
<g>
	<path fill="#111111" d="M52.828,16.915H44.39V3.834h2.425v11.16h6.013V16.915z"/>
	<path fill="#111111" d="M54.765,3.487h2.881V5.99h-2.881V3.487z M55.001,7.376h2.424v9.539h-2.424V7.376z"/>
	<path fill="#111111" d="M60.841,7.202v-0.52c0-0.64,0.087-1.181,0.26-1.621c0.173-0.44,0.406-0.797,0.7-1.07
		c0.294-0.272,0.633-0.473,1.016-0.599c0.384-0.126,0.785-0.188,1.205-0.188c0.324,0,0.677,0.039,1.055,0.118
		c0.378,0.078,0.771,0.238,1.181,0.479l-0.864,1.622c-0.273-0.115-0.511-0.191-0.709-0.229c-0.199-0.036-0.348-0.055-0.44-0.055
		c-0.315,0-0.554,0.102-0.718,0.307c-0.164,0.206-0.245,0.56-0.245,1.064v0.692h1.874v1.89H63.28v7.823h-2.439V9.092h-1.228v-1.89
		H60.841z"/>
	<path fill="#111111" d="M75.386,15.86c-0.524,0.462-1.092,0.792-1.7,0.992c-0.607,0.199-1.302,0.304-2.078,0.314
		c-0.724,0-1.385-0.105-1.982-0.314c-0.598-0.211-1.109-0.525-1.535-0.945c-0.425-0.419-0.753-0.934-0.982-1.542
		c-0.23-0.608-0.348-1.307-0.348-2.094c0-0.776,0.107-1.479,0.323-2.109c0.215-0.63,0.521-1.165,0.921-1.605
		c0.398-0.441,0.885-0.782,1.456-1.023c0.571-0.241,1.22-0.362,1.944-0.362c0.701,0,1.326,0.123,1.873,0.37
		c0.545,0.246,1.005,0.588,1.377,1.023c0.371,0.435,0.656,0.944,0.85,1.526c0.193,0.583,0.285,1.21,0.275,1.881
		c0,0.137-0.008,0.3-0.023,0.488c-0.016,0.189-0.033,0.357-0.056,0.504h-6.485c0.042,0.462,0.146,0.842,0.314,1.142
		c0.168,0.299,0.369,0.535,0.605,0.708s0.49,0.297,0.764,0.37c0.272,0.073,0.541,0.11,0.804,0.11c0.21,0,0.433-0.016,0.669-0.048
		c0.236-0.031,0.47-0.084,0.699-0.157c0.231-0.073,0.449-0.17,0.654-0.291c0.205-0.12,0.381-0.265,0.526-0.433L75.386,15.86z
		 M73.434,11.138c-0.011-0.304-0.072-0.588-0.188-0.85c-0.116-0.263-0.271-0.491-0.465-0.685c-0.194-0.194-0.417-0.347-0.67-0.457
		c-0.252-0.11-0.508-0.165-0.771-0.165c-0.252,0-0.501,0.055-0.748,0.165c-0.245,0.11-0.47,0.263-0.669,0.457
		c-0.199,0.193-0.361,0.422-0.486,0.685c-0.127,0.262-0.194,0.546-0.205,0.85H73.434z"/>
</g>
</svg>
