<?xml version="1.0" encoding="utf-8"?>
<!-- Generator: Adobe Illustrator 16.0.0, SVG Export Plug-In . SVG Version: 6.00 Build 0)  -->
<!DOCTYPE svg PUBLIC "-//W3C//DTD SVG 1.1//EN" "http://www.w3.org/Graphics/SVG/1.1/DTD/svg11.dtd">
<svg version="1.1" id="레이어_1" xmlns="http://www.w3.org/2000/svg" xmlns:xlink="http://www.w3.org/1999/xlink" x="0px"
	 y="0px" width="122px" height="40px" viewBox="0 0 122 40" enable-background="new 0 0 122 40" xml:space="preserve">
<g>
	<path fill="#111111" d="M43.878,35.568V28.34h-2.7v-0.968h6.495v0.968h-2.711v7.229H43.878z"/>
	<path fill="#111111" d="M48.364,31.577c0-1.36,0.365-2.425,1.096-3.195c0.73-0.769,1.673-1.153,2.828-1.153
		c0.757,0,1.438,0.182,2.046,0.543c0.608,0.36,1.07,0.865,1.39,1.512c0.318,0.646,0.478,1.38,0.478,2.199
		c0,0.832-0.168,1.574-0.503,2.23c-0.336,0.655-0.811,1.152-1.426,1.489c-0.614,0.337-1.278,0.506-1.99,0.506
		c-0.771,0-1.461-0.187-2.068-0.56c-0.607-0.373-1.067-0.881-1.38-1.525C48.521,32.979,48.364,32.296,48.364,31.577z M49.482,31.594
		c0,0.987,0.265,1.766,0.796,2.334c0.531,0.568,1.197,0.854,1.999,0.854c0.815,0,1.487-0.287,2.015-0.861
		c0.527-0.572,0.791-1.389,0.791-2.441c0-0.668-0.112-1.25-0.338-1.748c-0.226-0.496-0.556-0.883-0.989-1.156
		c-0.435-0.273-0.922-0.411-1.462-0.411c-0.768,0-1.429,0.265-1.981,0.791C49.759,29.479,49.482,30.359,49.482,31.594z"/>
	<path fill="#111111" d="M57.967,35.568v-8.195h1.084v4.064l4.069-4.064h1.471l-3.438,3.32l3.589,4.875h-1.432l-2.917-4.147
		l-1.342,1.308v2.84H57.967L57.967,35.568z"/>
	<path fill="#111111" d="M68.368,35.568v-3.473l-3.159-4.724h1.318l1.617,2.472c0.297,0.463,0.574,0.924,0.832,1.387
		c0.246-0.43,0.545-0.912,0.895-1.449l1.588-2.408h1.264l-3.271,4.725v3.471H68.368L68.368,35.568z"/>
	<path fill="#111111" d="M73.091,31.577c0-1.36,0.365-2.425,1.097-3.195c0.729-0.769,1.672-1.153,2.828-1.153
		c0.756,0,1.438,0.182,2.045,0.543c0.608,0.36,1.07,0.865,1.391,1.512c0.318,0.646,0.479,1.38,0.479,2.199
		c0,0.832-0.169,1.574-0.504,2.23c-0.336,0.655-0.811,1.152-1.426,1.489c-0.614,0.337-1.277,0.506-1.99,0.506
		c-0.771,0-1.461-0.187-2.068-0.56c-0.606-0.373-1.066-0.881-1.379-1.525C73.247,32.979,73.091,32.296,73.091,31.577z
		 M74.209,31.594c0,0.987,0.266,1.766,0.796,2.334c0.531,0.568,1.197,0.854,1.999,0.854c0.814,0,1.487-0.287,2.016-0.861
		c0.526-0.572,0.791-1.389,0.791-2.441c0-0.668-0.112-1.25-0.338-1.748c-0.227-0.496-0.557-0.883-0.99-1.156
		c-0.435-0.273-0.922-0.411-1.461-0.411c-0.769,0-1.43,0.265-1.981,0.791C74.484,29.479,74.209,30.359,74.209,31.594z"/>
</g>
<g>
	<path fill="#111111" d="M50.612,17.657h-8.438V4.576H44.6v11.16h6.013L50.612,17.657L50.612,17.657z"/>
	<path fill="#111111" d="M56.547,7.897c0.671,0,1.299,0.113,1.881,0.339c0.583,0.226,1.089,0.553,1.521,0.983
		c0.43,0.431,0.769,0.96,1.015,1.59c0.247,0.63,0.37,1.349,0.37,2.156c0,0.798-0.123,1.504-0.37,2.117
		c-0.246,0.614-0.585,1.132-1.015,1.551c-0.431,0.42-0.938,0.74-1.521,0.961c-0.582,0.22-1.21,0.33-1.881,0.33
		c-0.756,0-1.428-0.134-2.015-0.401c-0.588-0.268-1.079-0.63-1.473-1.086c-0.394-0.457-0.692-0.984-0.896-1.582
		c-0.205-0.599-0.308-1.229-0.308-1.89c0-0.818,0.121-1.542,0.362-2.172c0.241-0.63,0.574-1.159,1-1.59
		c0.425-0.431,0.921-0.756,1.487-0.977C55.271,8.008,55.886,7.897,56.547,7.897z M56.547,9.676c-0.305,0-0.599,0.077-0.882,0.229
		c-0.283,0.152-0.53,0.37-0.739,0.653c-0.211,0.283-0.378,0.63-0.504,1.039c-0.126,0.409-0.189,0.866-0.189,1.369
		c0,0.378,0.053,0.756,0.157,1.134c0.105,0.378,0.255,0.719,0.449,1.023c0.194,0.304,0.436,0.554,0.724,0.747
		c0.289,0.194,0.617,0.292,0.984,0.292c0.388,0,0.729-0.098,1.023-0.292c0.293-0.193,0.543-0.442,0.747-0.747
		c0.205-0.305,0.359-0.646,0.465-1.023c0.104-0.378,0.157-0.756,0.157-1.134c0-0.398-0.05-0.795-0.149-1.188
		c-0.099-0.393-0.25-0.745-0.449-1.055c-0.199-0.309-0.448-0.561-0.747-0.755C57.295,9.774,56.945,9.676,56.547,9.676z"/>
	<path fill="#111111" d="M66.605,14.131l2.141-6.013h2.535l-3.59,9.523h-2.156l-3.62-9.523h2.55L66.605,14.131z"/>
	<path fill="#111111" d="M80.521,16.603c-0.525,0.462-1.092,0.792-1.701,0.992c-0.607,0.199-1.301,0.304-2.077,0.314
		c-0.724,0-1.386-0.105-1.983-0.314c-0.598-0.211-1.109-0.525-1.535-0.945c-0.425-0.419-0.752-0.934-0.982-1.542
		s-0.348-1.307-0.348-2.094c0-0.776,0.107-1.479,0.323-2.109c0.216-0.63,0.521-1.165,0.921-1.605
		c0.398-0.441,0.885-0.782,1.456-1.023c0.571-0.241,1.22-0.362,1.944-0.362c0.702,0,1.327,0.123,1.873,0.37
		c0.545,0.246,1.005,0.588,1.377,1.023c0.373,0.436,0.656,0.944,0.852,1.526c0.192,0.583,0.284,1.21,0.274,1.881
		c0,0.137-0.008,0.3-0.022,0.488c-0.017,0.189-0.035,0.357-0.057,0.504h-6.484c0.041,0.462,0.146,0.842,0.313,1.142
		c0.168,0.299,0.37,0.535,0.606,0.708c0.235,0.173,0.489,0.297,0.764,0.37c0.271,0.073,0.54,0.11,0.803,0.11
		c0.21,0,0.434-0.016,0.669-0.048c0.236-0.031,0.47-0.084,0.7-0.157s0.449-0.17,0.652-0.291c0.205-0.12,0.382-0.265,0.527-0.433
		L80.521,16.603z M78.568,11.88c-0.01-0.304-0.072-0.588-0.188-0.85c-0.115-0.263-0.271-0.491-0.465-0.685
		c-0.193-0.194-0.417-0.347-0.669-0.457c-0.252-0.11-0.509-0.165-0.771-0.165c-0.252,0-0.502,0.055-0.748,0.165
		c-0.246,0.11-0.471,0.263-0.67,0.457c-0.199,0.193-0.36,0.422-0.486,0.685c-0.127,0.262-0.194,0.546-0.205,0.85H78.568z"/>
</g>
</svg>
