<?xml version="1.0" encoding="utf-8"?>
<!-- Generator: Adobe Illustrator 16.0.0, SVG Export Plug-In . SVG Version: 6.00 Build 0)  -->
<!DOCTYPE svg PUBLIC "-//W3C//DTD SVG 1.1//EN" "http://www.w3.org/Graphics/SVG/1.1/DTD/svg11.dtd">
<svg version="1.1" id="레이어_1" xmlns="http://www.w3.org/2000/svg" xmlns:xlink="http://www.w3.org/1999/xlink" x="0px"
	 y="0px" width="150px" height="170px" viewBox="0 0 150 170" enable-background="new 0 0 150 170" xml:space="preserve">
<path id="강남갑" fill="#FFFFFF" stroke="#00FFFF" stroke-width="2" stroke-miterlimit="10" d="M15.435,39.483
	c2.916-0.643,5.26-1.158,8.111-1.788c-1.356-6.527,3.369-8.965,7.834-11.668c2.703-1.636,5.505-3.215,7.887-5.266
	c4.194-3.614,8.464-2.913,13.242-1.5c13.115,3.879,25.083,10.124,35.603,18.717c10.933,8.93,23.418,13.798,36.8,16.676
	c6.265,1.348,9.271,3.818,9.405,10.918c0.211,10.996,1.647,21.975,2.817,32.935c0.354,3.347-0.561,4.867-3.827,5.8
	c-8.675,2.479-17.227,5.395-25.867,8.012c-3.652,1.107-5.844,2.859-5.93,7.229c-0.127,6.518-0.757,13.037-1.533,19.514
	c-0.203,1.693-1.371,3.765-2.737,4.729c-4.226,2.979-8.718,5.574-13.195,8.164c-1.312,0.758-2.903,1.337-4.396,1.4
	c-8.31,0.357-16.632,0.379-24.934,0.854c-3.117,0.178-3.525-1.788-4.166-3.848c-6.98-22.371-13.829-44.784-20.956-67.107
	c-3.871-12.127-8.247-24.089-12.306-36.155C16.482,44.697,16.075,42.161,15.435,39.483z"/>
</svg>
