<?xml version="1.0" encoding="utf-8"?>
<!-- Generator: Adobe Illustrator 16.0.0, SVG Export Plug-In . SVG Version: 6.00 Build 0)  -->
<!DOCTYPE svg PUBLIC "-//W3C//DTD SVG 1.1//EN" "http://www.w3.org/Graphics/SVG/1.1/DTD/svg11.dtd">
<svg version="1.1" id="레이어_1" xmlns="http://www.w3.org/2000/svg" xmlns:xlink="http://www.w3.org/1999/xlink" x="0px"
	 y="0px" width="120px" height="130px" viewBox="0 0 120 130" enable-background="new 0 0 120 130" xml:space="preserve">
<path id="동작을" fill="#FFFFFF" stroke="#00FFFF" stroke-width="2" stroke-miterlimit="10" d="M46.462,18.034
	c6.714,9.825,16.704,6.948,25.256,8.745c5.599,1.176,11.349,1.634,16.906,2.95c1.597,0.38,3.272,2.402,3.999,4.077
	c0.891,2.049,1.049,4.517,1.127,6.817c0.33,9.618,4.887,17.66,8.924,25.975c1.15,2.366,1.477,5.504,1.166,8.17
	c-1.179,10.211-2.615,20.401-4.313,30.537c-0.465,2.771-1.643,7.1-3.409,7.641c-4.988,1.527-10.634,3.345-15.479-0.991
	c-9.593-8.588-18.646-17.58-22.737-30.414c-0.74-2.321-1.971-4.502-3.128-6.663c-2.567-4.804-5.66-8.042-12.029-7.479
	c-8.082,0.715-16.273,0.174-25.579,0.174C27.143,50.701,36.542,34.807,46.462,18.034z"/>
</svg>
