<?xml version="1.0" encoding="utf-8"?>
<!-- Generator: Adobe Illustrator 16.0.0, SVG Export Plug-In . SVG Version: 6.00 Build 0)  -->
<!DOCTYPE svg PUBLIC "-//W3C//DTD SVG 1.1//EN" "http://www.w3.org/Graphics/SVG/1.1/DTD/svg11.dtd">
<svg version="1.1" id="레이어_1" xmlns="http://www.w3.org/2000/svg" xmlns:xlink="http://www.w3.org/1999/xlink" x="0px"
	 y="0px" width="1000px" height="900px" viewBox="0 0 1000 900" enable-background="new 0 0 1000 900" xml:space="preserve">
<path fill="#FFFFFF" stroke="#00FFFF" stroke-width="10" stroke-miterlimit="10" d="M847.341,454.025
	c0.124-0.262,0.198-0.604,0.405-0.758c5.688-4.188,11.389-8.367,17.013-12.489c0.924-0.679,1.742-0.827,2.988-1.313l4.251-1.37
	c8.933-3.396,17.082-6.514,25.249-9.588c1.47-0.555,3.003-1.338,4.506-1.336c11.331,0.016,20.889-5.487,30.801-9.897
	c7.407-3.297,14.807-6.616,22.469-10.041c5.546,14.887,11.384,28.917,12.125,44.633c0.479,10.211,2.734,20.331,3.978,30.52
	c0.17,1.379-0.563,3.265-1.517,4.328c-5.801,6.489-13.361,8.869-21.69,7.959c-7.351-0.803-12.784,1.594-17.698,7.081
	c-4.959,5.543-11.498,9.74-13.063,17.402l-8.112,10.425c-5.068,7.789-9.12,16.286-13.254,24.658
	c-2.358,4.771-3.965,9.925-6.021,14.855l-5.706,11.379c-2.02,7.545-3.654,15.192-5.644,22.746c-0.341,1.295-1.032,2.785-1.032,4.191
	l-0.027,3.561c0.414,3.565,0.779,6.284,1.039,9.018c0.574,6.094,4.175,8.479,9.89,6.45c6.313-2.241,12.605-4.535,19.117-6.882
	c2.586,12.94,6.279,25.896,4.354,39.582c-0.403,2.879-1.293,4.442-3.995,5.791c-4.71,2.354-9.134,5.336-13.483,8.34
	c-1.112,0.768-1.827,2.52-2.18,3.951c-1.51,6.184-2.719,12.438-4.262,18.608c-0.428,1.712-1.32,3.533-2.53,4.776
	c-4.62,4.746-9.563,9.178-14.163,13.943c-1.908,1.98-3.554,1.938-6.039,1.313c-5.367-1.348-11.047-8.898-11.51-9.292
	c-0.465-0.394-1.711-0.147-2.094,0.094c-0.383,0.243-1.195,1.229-1.077,1.828c0.118,0.598,1.258,4.021,1.351,6.076
	c0.101,2.293-0.818,4.668-0.544,6.912c1.507,12.414-7.897,17.577-15.389,23.977c-0.855,0.734-2.457,0.585-4.802,1.069
	c0,0-3.314,0.888-4.226,1.179c-0.91,0.291-2.599,1.021-3.19,1.771c-0.596,0.751-2.688,2.446-3.919,2.309
	c-5.986-0.687-12.445,1.146-17.842-3.213c-0.671-0.543-2.183-0.194-3.265-0.021c-6.642,1.094-13.257,2.382-19.924,3.277
	l-9.658,11.924c-6.571,9.84-12.715,19.977-19.334,29.78c-1.299,1.923-3.777,3.353-6.014,4.234
	c-7.813,3.099-15.806,5.745-23.617,8.858c-1.229,0.489-2.563,2.461-2.666,3.838c-0.813,10.877-6.679,19.938-10.244,29.808
	c-0.271,0.759-1.604,1.457-2.511,1.563c-1.237,0.141-2.599-0.136-3.805-0.543c-8.058-2.722-15.513-2.086-22.711,2.955
	c-3.215,2.25-6.955,0.793-9.336-2.168c-7.92-9.846-16.49-18.957-28.728-23.307c-3.8-1.352-6.518-3.646-7.771-7.396
	c-0.521-1.55-0.588-3.625,0-5.114c1.379-3.48,3.398-6.701,4.938-10.128c2.489-5.534,3.327-11.106,1.311-17.187
	c-3.238-9.739-5.863-19.688-8.946-29.486c-0.833-2.655-2.381-5.081-3.854-8.135c-7.511,6.14-14.287,11.896-21.332,17.301
	c-1.868,1.431-4.537,2.396-6.874,2.476c-5.693,0.192-12.141,1.328-16.906-0.909c-4.63-2.175-7.547-8.078-11.215-12.347
	c-0.85-0.983-1.918-1.852-2.505-2.977c-4.271-8.175-11.648-9.305-19.646-8.966c-3.137,0.136-6.059,0.83-6.223,4.939
	c-0.368,9.278,0.091,9.576-11.445,13.439l-5.102,2.56c-7.506,6.938-15.088,13.784-23.069,21.038l-1.997,2.918
	c-0.575,0.775-0.898,1.146-1.469,1.489c-3.879,2.355-7.552,4.547-11.121,6.894c-0.864,0.567-1.625,1.842-1.771,2.885
	c-0.396,2.862-0.446,5.774-0.629,8.673c-0.487,7.879-3.965,11.751-11.847,12.838c-16.316,2.252-32.652,4.355-48.964,6.629
	c-2.664,0.368-4.091-0.194-5.124-2.968c-2.521-6.771-5.623-13.316-8.147-20.086c-1.268-3.401-2.707-5.42-6.688-5.64l-5.412-0.624
	c-1.213,0-2.301-0.021-3.249,0.538c-5.241,3.089-10.571,6.039-15.604,9.44c-6.158,4.167-11.992,8.841-17.842,13.462
	c-1.283,1.014-2.184,2.649-2.97,4.155c-2.731,5.228-5.335,10.521-8.089,15.987c-4.267-1.755-8.284-3.239-12.132-5.103
	c-0.993-0.479-1.846-2.056-2.05-3.25c-0.486-2.847-0.895-5.786-0.718-8.649c0.485-7.865-2.505-14.225-7.21-20.237
	c-4.35-5.563-8.451-11.384-12.061-17.453c-3.516-5.91-8.186-9.604-14.68-11.641c-6.271-1.965-6.756-2.668-3.646-8.572
	c4.08-7.755,2.677-14.114-0.971-21.755c-6.508-13.628-11.965-27.845-16.8-42.183c-1.925-5.709-1.646-12.177-2.128-18.713
	c-0.045-0.604-0.074-1.293,0.184-1.939l1.049-4.342c1.55-7.238-2.148-10.734-8.249-13.642c0,0-9.72-3.998-12.542-3.972
	c-2.819,0.023-15.268,12.237-21.997,19.247c-10.677,11.119-20.689,22.899-30.836,34.531c-3.981,4.563-7.396,5.534-12.989,2.675
	c-5.753-2.938-11.502-5.898-17.12-9.092c-2.202-1.251-3.815-1.049-5.872,0.25c-5.061,3.193-10.271,6.14-15.877,9.449
	c-0.914-7.975-1.789-15.162-2.506-22.366c-0.1-1.011,0.264-2.455,0.957-3.1c4.858-4.51,4.771-10.981,6.584-16.673
	c0.3-0.943-0.38-2.498-1.069-3.416c-2.429-3.23-5.052-6.314-7.616-9.441c-6.173-7.526-5.947-16.582,1.355-23.053
	c5.473-4.853,9.267-10.095,8.803-17.736l1.831-8.205c1.051-11.756-1.714-22.754,3.558-33.239c3.298-6.563,5.741-13.566,8.498-20.403
	c1.676-4.154-0.846-7.235-4.411-9.479c-3.171-1.996-5.892-5.825-7.224-9.442c-1.705-4.642-1.873-9.871-2.582-14.863
	c-0.151-1.061-0.416-1.999-0.896-2.854c-0.479-0.854-3.471-5.491-4.971-6.215c-1.501-0.722-14.994-3.177-23.195-4.854
	c-2.63-0.968-5.676-0.959-7.642-1.009c-1.966-0.051-0.879,0.05-4.137-0.046c-8.313-0.234-13.758,3.896-18.062,10.729
	c-2.856,4.537-10.261,3.627-12.841-1.205c-2.313-4.337-5.199-8.492-6.723-13.104c-3.083-9.339-10.608-11.894-18.706-13.436
	c-8.845-1.685-17.815-2.688-27.262-4.063c1.072-5.149,1.862-9.709,3.063-14.152c0.287-1.057,1.834-2.013,3.012-2.521
	c2.734-1.187,5.822-1.678,8.361-3.16c5.3-3.095,8.32-7.51,7.129-14.245c-1.313-7.412,1.91-13.359,5.638-19.701
	c12.282-20.907,29.284-38.192,42.55-58.286c4.326-6.553,5.066-13.867,1.807-21.296c-2.306-5.256-2.9-11.403,6.267-17.819
	c0.438,0.361,1.049,0.705,1.448,1.216c13.523,17.28,30.894,30.252,48.201,43.105c16.866,12.525,33.476,25.369,49.848,38.505
	l32.325-9.779c2.203-1.059,3.931-1.958,5.713-2.729c8.024-3.48,16.146-6.747,24.043-10.496c2.22-1.055,4.246-3.205,5.583-5.351
	c2.409-3.864,4.231-8.104,6.284-12.162l3.197-8.023c5.017-12.458,4.858-12.509,17.627-10.72c1.546,0.217,3.125,0.17,5.102,0.265
	c0,2.499,0.001,4.655-0.001,6.812c-0.002,4.744,1.984,6.604,6.392,4.967c3.256-1.207,5.973-3.823,9.11-5.45
	c3.848-1.994,3.53-5.531,3.854-8.949c1.071-11.262,2.198-22.517,3.271-33.779l3.334-12.448c0.932-7.453,1.315-14.313,2.778-20.927
	c0.972-4.387,3.211-8.573,5.374-12.579c2.604-4.822,5.947-9.24,8.514-14.085c0.914-1.73,0.99-4.3,0.572-6.298
	c-1.175-5.61-3.113-11.066-4.078-16.703c-0.309-1.795,0.937-4.777,2.427-5.818c7.448-5.203,9.063-12.153,7.534-20.67
	c-0.756-4.211-0.657-8.58-0.969-13.207c9.435-1.021,18.395-1.807,27.292-3.063c2.81-0.396,5.855-1.508,8.085-3.233
	c11.377-8.811,22.594-17.842,33.697-27.007c2.377-1.961,4.382-2.368,6.928-0.905c0.495,0.284,1.046,0.469,1.574,0.689
	c7.525,3.146,16.846,4.482,22.162,9.864c8.044,8.14,13.823,18.801,19.557,28.974c3.493,6.198,5.068,13.499,7.553,20.288
	c1.332,3.647,2.757,7.261,4.235,11.145l0.146,0.979c1.009,1.751,3.71,1.518,5.46,1.975c1.435,0.375,2.848,0.926,4.128,1.629
	c1.094,0.6,1.965,1.39,3.385,1.432c1.449,0.043,2.729-0.885,3.845-1.662c0.681-0.477,1.079-1.074,1.65-1.581
	c3.625-3.208,7.812-5.826,11.389-9.119c1.113-1.026,1.886-2.059,2.038-3.61c0.118-1.207-0.137-2.848,0.958-3.616l0.546-0.287
	c3.937-1.802,3.942-4.416,2.37-7.509c-4.391-8.621-2.892-18.151-4.145-27.264c-0.597-4.335-1.616-8.744-3.296-12.753
	c-1.396-3.327-2.133-5.963,0.12-9.164c1.811-2.575,3.271-5.469,4.5-8.39c2.375-5.655,6.484-9.745,10.852-13.788
	c1.479-1.367,2.283-3.771,2.773-5.853c0.52-2.219,0.659-4.666,0.349-6.924c-2.188-15.841,6.305-28.359,12.478-41.593
	c0.387-0.834,1.261-1.653,2.103-2.017c5.893-2.537,11.832-4.95,17.688-7.375l2.812-1.004c1.918-0.971,2.748-1.615,2.694-5.045
	c-0.09-5.843,1.198-11.673,3.479-17.25c2.591-6.317,4.803-13.179,11.436-16.76c1.333-0.721,2.79-1.542,4.242-1.654
	c8.281-0.646,16.591-1,24.872-1.658c2.571-0.204,3.771,0.589,4.636,3.084c2.594,7.506,5.477,14.908,8.086,21.922
	c7.366-1.441,14.145-3.002,21.005-3.95c1.851-0.257,3.957,1.333,5.93,2.111c0.242,0.094,0.413,0.396,0.591,0.623
	c4.2,5.361,8.814,9.971,16.777,8.563l7.135-0.477c3.371-1.123,7.033-2.944,9.304-5.581c8.659-10.065,19.032-13.276,32.198-12.638
	c9.127,0.441,16.371,1.975,21.811,9.533c0.248,0.348,0.604,0.615,0.912,0.92c5.493,5.424,10.313,11.875,19.064,12.138
	c0.028,14.672-7.508,28.562-0.632,43.153l1.202,2.938c0.256,0.776,0.533,1.999,0.463,2.72c-0.813,8.46-1.551,16.264-2.333,24.063
	c-0.988,9.809-2.411,19.593-2.909,29.425c-0.318,6.316,0.531,12.717,1.177,19.046c0,0,0.666,3.724,1.433,5.405
	c0.766,1.681,2.737,4.22,2.737,4.22c1.914,1.374,6.104,3.298,10.926,0.897c4.216-2.104,8.72-6.049,12.674-5.573
	c3.965,0.477,7.316,5.541,11.111,8.353c2.587,1.917,3.398,4.023,3.108,7.346c-0.896,10.25-1.261,20.547-2.021,30.811
	c-0.129,1.734-0.877,3.621-1.879,5.048c-2.57,3.657-5.328,7.2-8.236,10.593c-2.791,3.257-5.393,6.322-0.419,10.27l1.971,2.098
	c0.514,0.647,0.959,0.905,1.455,1.542c2.975,7.021,8.563,9.982,15.766,10.554c2.313,0.184,3.24,1.416,3.466,3.957
	c0.848,9.678,2.595,19.31,2.853,28.989c0.145,5.308-1.716,10.767-3.226,15.993l-1.521,5.782c-0.574,2.198,0.108,5.163,0.875,5.614
	c1.116,0.658,1.316,2.097,1.551,4.981c0.484,6.029-1.4,9.899-7.438,11.45c-4.603,1.182-7.327,4.089-7.347,9.199
	c-0.006,1.116-0.729,2.218-0.834,3.354c-0.819,8.338-4.749,13.684-13.28,15.352c-3.694,0.723-4.313,4.202-4.487,7.515
	c-0.316,5.922-0.602,11.848-0.911,18.014l-0.209,3.435c0,1.357,0.896,1.648,1.556,1.871c0.764,0.262,1.396,0.854,2.153,1.754
	c3.759,4.466,4.769,8.771,1.09,13.824c-1.419,1.947-1.875,4.604-3.271,6.576c-3.1,4.381-1.33,8.917-0.819,13.412
	c0.079,0.689,0.868,1.723,1.489,1.863c6.012,1.357,11.588,4.628,18.293,2.634c8.379-2.489,8.487-2.111,15.825,5.032L847.341,454.025
	z"/>
</svg>
