<?xml version="1.0" encoding="utf-8"?>
<!-- Generator: Adobe Illustrator 16.0.0, SVG Export Plug-In . SVG Version: 6.00 Build 0)  -->
<!DOCTYPE svg PUBLIC "-//W3C//DTD SVG 1.1//EN" "http://www.w3.org/Graphics/SVG/1.1/DTD/svg11.dtd">
<svg version="1.1" id="레이어_1" xmlns="http://www.w3.org/2000/svg" xmlns:xlink="http://www.w3.org/1999/xlink" x="0px"
	 y="0px" width="120px" height="140px" viewBox="0 0 120 140" enable-background="new 0 0 120 140" xml:space="preserve">
<path id="송파병" fill="#FFFFFF" stroke="#00FFFF" stroke-width="2" stroke-miterlimit="10" d="M69.354,20.973
	c0.414,3.566,0.78,6.285,1.039,9.016c0.576,6.094,4.174,8.481,9.891,6.451c6.313-2.242,12.605-4.536,19.115-6.881
	c2.586,12.941,6.281,25.894,4.355,39.583c-0.404,2.877-1.293,4.442-3.995,5.79c-4.71,2.354-9.134,5.336-13.485,8.34
	c-1.111,0.768-1.828,2.52-2.178,3.953c-1.511,6.18-2.72,12.438-4.262,18.607c-0.43,1.712-1.32,3.533-2.529,4.777
	c-4.621,4.746-9.563,9.177-14.164,13.945c-1.91,1.979-3.553,1.936-6.04,1.312c-5.368-1.347-8.792-4.382-11.509-9.292
	c-9.856-17.807-20.18-35.35-30.076-53.135c-1.029-1.849-1.064-4.856-0.41-6.959c1.935-6.198,4.334-12.264,6.824-18.263
	c0.568-1.369,2.06-2.777,3.444-3.298c11.525-4.336,23.088-8.579,34.728-12.584C62.852,21.39,65.938,21.445,69.354,20.973z"/>
</svg>
