<?xml version="1.0" encoding="utf-8"?>
<!-- Generator: Adobe Illustrator 16.0.0, SVG Export Plug-In . SVG Version: 6.00 Build 0)  -->
<!DOCTYPE svg PUBLIC "-//W3C//DTD SVG 1.1//EN" "http://www.w3.org/Graphics/SVG/1.1/DTD/svg11.dtd">
<svg version="1.1" id="레이어_1" xmlns="http://www.w3.org/2000/svg" xmlns:xlink="http://www.w3.org/1999/xlink" x="0px"
	 y="0px" width="110px" height="180px" viewBox="0 0 110 180" enable-background="new 0 0 110 180" xml:space="preserve">
<path id="영등포갑" fill="#FFFFFF" stroke="#00FFFF" stroke-width="2" stroke-miterlimit="10" d="M99.391,112.241
	c-7.548,15.407-17.92,28.198-29.231,40.126c-3.956,4.17-9.563,6.831-14.652,9.763c-2.957,1.704-5.063,0.272-5.734-3.142
	c-0.754-3.842-1.966-7.656-2.154-11.523c-0.337-6.926-3.617-11.357-9.424-14.717c-4.835-2.798-9.293-6.289-13.762-9.686
	c-1.244-0.945-2.507-2.526-2.788-4.006c-1.408-7.399-2.551-14.854-3.671-22.309c-0.801-5.325-0.212-6.119,4.995-7.659
	c4.124-1.218,8.236-2.475,12.377-3.629c4.038-1.127,6.202-3.957,7.034-7.896c0.84-3.967,1.612-7.963,2.108-11.984
	c0.2-1.624-0.127-3.465-0.72-5.009c-1.45-3.777-3.5-7.338-4.762-11.169C36,40.271,30.688,32.955,22.838,27.635
	c-4.608-3.125-6.274-6.879-3.435-12.543c2.914,2.254,5.764,4.786,8.915,6.848c16.053,10.5,28.618,24.654,39.452,40.209
	c7.316,10.51,12.821,22.314,14.586,35.385c0.459,3.399,2.134,5.393,4.939,7.021C91.38,106.928,95.289,109.613,99.391,112.241z"/>
</svg>
