<?xml version="1.0" encoding="utf-8"?>
<!-- Generator: Adobe Illustrator 16.0.0, SVG Export Plug-In . SVG Version: 6.00 Build 0)  -->
<!DOCTYPE svg PUBLIC "-//W3C//DTD SVG 1.1//EN" "http://www.w3.org/Graphics/SVG/1.1/DTD/svg11.dtd">
<svg version="1.1" id="레이어_1" xmlns="http://www.w3.org/2000/svg" xmlns:xlink="http://www.w3.org/1999/xlink" x="0px"
	 y="0px" width="130px" height="150px" viewBox="0 0 130 150" enable-background="new 0 0 130 150" xml:space="preserve">
<path id="양천을" fill="#FFFFFF" stroke="#00FFFF" stroke-width="2" stroke-miterlimit="10" d="M28.736,17.419
	c10.019,14.304,19.931,28.144,29.46,42.249c2.856,4.23,5.706,5.784,10.705,4.256c5.601-1.715,11.438-2.612,17.156-3.936
	c3.985-0.924,6.45-0.095,8.119,4.342c6.766,17.992,13.956,35.82,20.971,53.717c0.569,1.454,0.996,2.963,1.717,5.135
	c-8.014-1.158-15.454-2.461-22.952-3.205c-2.96-0.293-6.318-0.002-9.019,1.16c-11.438,4.932-22.697,10.286-34.419,15.672
	c-2.489-3.772-5.073-7.379-7.306-11.191c-1.475-2.52-3.232-3.688-6.186-3.563c-4.7,0.202-9.414,0.055-14.793,0.055
	c1.051-11.756-1.714-22.754,3.558-33.239c3.297-6.563,5.741-13.567,8.497-20.404c1.676-4.154-0.845-7.235-4.411-9.478
	c-3.171-1.996-5.891-5.826-7.223-9.445c-1.705-4.639-1.874-9.871-2.582-14.863c-0.152-1.059-0.101-2.377,0.398-3.261
	C23.039,26.796,25.827,22.275,28.736,17.419z"/>
</svg>
