<?xml version="1.0" encoding="utf-8"?>
<!-- Generator: Adobe Illustrator 16.0.0, SVG Export Plug-In . SVG Version: 6.00 Build 0)  -->
<!DOCTYPE svg PUBLIC "-//W3C//DTD SVG 1.1//EN" "http://www.w3.org/Graphics/SVG/1.1/DTD/svg11.dtd">
<svg version="1.1" id="레이어_1" xmlns="http://www.w3.org/2000/svg" xmlns:xlink="http://www.w3.org/1999/xlink" x="0px"
	 y="0px" width="150px" height="140px" viewBox="0 0 150 140" enable-background="new 0 0 150 140" xml:space="preserve">
<path id="구로갑" fill="#FFFFFF" stroke="#00FFFF" stroke-width="2" stroke-miterlimit="10" d="M23.848,120.1
	c-0.914-7.974-1.789-15.162-2.506-22.367c-0.099-1.01,0.264-2.455,0.957-3.099c4.859-4.509,4.771-10.981,6.584-16.673
	c0.3-0.943-0.38-2.498-1.069-3.416c-2.429-3.23-5.052-6.314-7.616-9.441c-6.173-7.528-5.947-16.582,1.355-23.053
	c5.473-4.851,9.267-10.094,8.803-17.737c-0.217-3.576,1.698-4.564,4.823-4.139c0.281,0.039,0.58,0.048,0.859-0.001
	c9.122-1.597,15.959,0.973,19.826,10.209c1.39,3.32,4.386,3.993,7.96,2.272c10.342-4.981,20.771-9.787,31.244-14.479
	c1.854-0.83,4.172-1.315,6.147-1.038c8.084,1.134,16.146,2.488,24.152,4.102c1.573,0.318,3.206,1.89,4.213,3.316
	c8.381,11.875,3.03,24.147,0.757,36.301c-0.152,0.826-1.02,1.8-1.8,2.18c-9.062,4.397-15.269,12.238-21.997,19.248
	c-10.676,11.119-20.688,22.898-30.836,34.531c-3.981,4.563-7.396,5.535-12.989,2.675c-5.753-2.939-11.502-5.9-17.12-9.093
	c-2.202-1.25-3.815-1.047-5.872,0.25C34.665,113.844,29.452,116.788,23.848,120.1z"/>
</svg>
