<?xml version="1.0" encoding="utf-8"?>
<!-- Generator: Adobe Illustrator 16.0.0, SVG Export Plug-In . SVG Version: 6.00 Build 0)  -->
<!DOCTYPE svg PUBLIC "-//W3C//DTD SVG 1.1//EN" "http://www.w3.org/Graphics/SVG/1.1/DTD/svg11.dtd">
<svg version="1.1" id="레이어_1" xmlns="http://www.w3.org/2000/svg" xmlns:xlink="http://www.w3.org/1999/xlink" x="0px"
	 y="0px" width="2290px" height="1370px" viewBox="0 0 2290 1370" enable-background="new 0 0 2290 1370" xml:space="preserve">
<path id="제주도" fill="#FFFFFF" stroke="#00FFFF" stroke-width="10" stroke-miterlimit="10" d="M58.336,902.063
	c-18.835-66.832,13.867-120.35,73.536-171.6c98.656-84.727,189.729-178.521,283.679-268.814
	c20.229-19.457,45.437-26.941,70.493-37.246c96.244-39.504,192.232-79.311,296.58-90.84c33.671-3.703,55.127-19.727,61.689-52.684
	c7.645-38.352,32.684-45.918,66.93-49.602c99.3-10.676,199.438-15.211,297.49-36.539c48.696-10.586,98.709-17.547,145.538-33.832
	c41.752-14.521,77.44-1.152,114.862,9.586c12.563,3.605,23.948,9.633,36.416,0.895c84.386-59.039,188.506-65.52,278.778-107.234
	c45.029-20.797,65.939-8,91.326,26.195c44.563,60.016,106.604,100.07,166.514,142.695c28.448,20.23,61.866,8.648,91.479,24.738
	c27.135,14.75,36.222,25.895,18.178,52.066c-15.777,22.922-6.571,38.121,14.214,50.934c19.713,12.164,38.903,25.199,58.065,38.242
	c19.341,13.109,26.258,27.648,5.811,46.711c-3.438,3.211-2.624,12.211-2.18,18.426c4.146,57.723-20.899,108.621-38.115,160.965
	c-10.03,30.441-42.29,40.297-67.333,54.965c-23.341,13.633-38.546,28.793-33.962,58.436c2.729,17.693-4.135,32.4-17.836,44.814
	c-50.646,45.918-99.893,93.439-151.214,138.543c-44.009,38.711-102.397,25.617-153.623,38.699
	c-16.584,4.234-35.001,3.906-41.771,21.902c-30.406,80.99-103.542,82.336-170.443,95.197
	c-92.896,17.871-185.953,34.962-278.865,52.721c-38.543,7.365-72.25,26.309-104.271,48.154
	c-24.273,16.563-50.508,22.082-79.486,24.689c-101.64,9.188-202.021-1.922-302.547-13.814c-15.246-1.801-31.239-4.598-46.002-1.952
	c-84.039,15.104-168.633,11.082-252.996,7.431c-32.532-1.402-46.926,13.021-54.889,40.836c-2.14,7.473-2.094,16.676-6.537,22.184
	c-14.724,18.173-3.281,58.871-35.561,57.686c-36.11-1.344-76.704-1.504-97.466-46.32c-21.813-47.086-54.082-82.188-112.415-85.405
	c-52.33-2.896-78.758-44.763-100.285-86.435C52.474,1040.035,56.093,976.766,58.336,902.063z"/>
</svg>
