<?xml version="1.0" encoding="utf-8"?>
<!-- Generator: Adobe Illustrator 16.0.0, SVG Export Plug-In . SVG Version: 6.00 Build 0)  -->
<!DOCTYPE svg PUBLIC "-//W3C//DTD SVG 1.1//EN" "http://www.w3.org/Graphics/SVG/1.1/DTD/svg11.dtd">
<svg version="1.1" id="레이어_1" xmlns="http://www.w3.org/2000/svg" xmlns:xlink="http://www.w3.org/1999/xlink" x="0px"
	 y="0px" width="4400px" height="4300px" viewBox="0 0 4400 4300" enable-background="new 0 0 4400 4300" xml:space="preserve">
<path fill="#FFFFFF" stroke="#00FFFF" stroke-width="10" stroke-miterlimit="10" d="M1056.113,2615.166
	c18.401-91.553,25.356-195.771,13.206-298.869c-8.234-69.948-2.513-142.397-28.366-209.991c-1.837-4.791-4.729-9.179-6.527-13.979
	c-10.823-29.313-52.146-60.926-32.428-84.182c25.257-29.855,70.755-43.617,109.419-59.732c17.925-7.479,25.323,15.396,31.563,27.803
	c24.098,47.918,53.382,90.978,94.569,125.826c38.033,32.209,89.691,35.659,129.77,6.082c29.032-21.418,57.609-43.479,87.257-63.979
	c13.995-9.679,31.785-17.468,45.762-2.359c14.563,15.748-5.72,23.436-11.65,34.955c-18.489,35.859-4.192,73.375,0.188,109.219
	c6.211,50.93,7.721,52.811-43.699,63.506c-16.264,3.4-35.345,4.736-36.778,26.9c-1.418,22.063-1.054,45.301,20.127,59.521
	c11.646,7.824,25.014,13.068,37.689,19.312c52.847,26.01,58.479,75.057,13.179,113.84c-4.757,4.088-11.446,9.063-12.157,14.313
	c-11.781,87.696-77.375,146.479-115.188,220.1c-17.045,33.184-40.471,62.998-57.74,96.082
	c-10.812,20.717-24.813,28.135-46.198,25.985c-50.998-5.121-101.983-10.319-153-15.202c-13.438-1.283-23.277-7.648-22.516-21.418
	C1075.632,2733.865,1057.234,2681.07,1056.113,2615.166z"/>
<path fill="#FFFFFF" stroke="#00FFFF" stroke-width="10" stroke-miterlimit="10" d="M615.981,1284.107
	c26.826-6.521,56.26,8.803,84.777,31.469c43.358,34.447,88.226,66.965,132.776,99.83c9.801,7.213,16.97,14.725,18.95,27.557
	c15.504,99.842,21.909,200.615,31.2,301.086c1.66,18.041-0.916,37.666,5.283,53.896c30.636,79.771-24.766,125.291-65.914,176.705
	c-5.987,7.498-15.149,8.942-24.4,9.563c-69.04,4.717-138.123,8.896-207.067,14.785c-24.912,2.127-41.29-7.768-55.225-27.117
	c-15.086-20.938-29.727-42.768-47.961-60.657c-25.313-24.814-9.896-34.785,12.182-43.222c17.854-6.846,36.127-13.854,54.842-16.973
	c30.167-5.029,32.598-20.068,25.195-46.813c-11.004-39.738-19.628-80.401-25.396-121.258c-3.402-24.055-12.104-32.977-36.069-34.586
	c-64.13-4.301-64.105-5.348-64.317-70.611c-0.134-45.446,3.599-91.291-1.046-136.252c-7.229-69.688,41.86-104.848,81.159-145.399
	C553.01,1277.465,581.506,1286.709,615.981,1284.107z"/>
<path fill="#FFFFFF" stroke="#00FFFF" stroke-width="10" stroke-miterlimit="10" d="M581.935,2562.168
	c-28.896,4.361-52.401-6.26-74.959-23.377c-26.613-20.199-55.589-37.246-81.599-58.146c-32.634-26.25-26.688-54.696,6.083-79.479
	c75.536-57.064,163.357-70.648,252.682-78.322c44.313-3.803,71.813-32.057,100.207-59.291c24.826-23.793,46.349-29.188,77.64-10.063
	c35.858,21.908,75.542,37.428,113.762,55.311c15.646,7.314,23.909,18.312,23.126,36.342c-0.741,17.011-10.007,28.937-25.079,29.627
	c-89.467,4.125-139.115,70.146-193.454,127.398c-27.088,28.553-55.462,46.746-95.459,48.254
	C650.465,2551.728,616.237,2558.062,581.935,2562.168z"/>
<path fill="#FFFFFF" stroke="#00FFFF" stroke-width="10" stroke-miterlimit="10" d="M746.286,3154.057
	c-50.68,0.896-85.02-24.35-98.052-64.563c-5.441-16.689-1.628-29.525,9.985-42.388c32.825-36.342,64.023-74.178,97.114-110.237
	c41.612-45.359,115.153-46.011,159.646-3.207c7.763,7.481,7.828,14.604,5.647,24.313c-8.437,37.662-15.688,75.594-24.011,113.266
	c-2.52,11.341-5.645,24.636-16.229,29.959C834.754,3124.111,787.367,3142.639,746.286,3154.057z"/>
<path fill="#FFFFFF" stroke="#00FFFF" stroke-width="10" stroke-miterlimit="10" d="M478.426,1718.871
	c15.045,51.063-28.203,78.883-66.893,108.875c-26.382,20.418-38.049-8.148-54.814-18.631c-15.634-9.779-17.729-20.465-7.686-38.521
	c24.401-43.864,22.969-44.479-21.373-68.981c-26.921-14.854-53.078-31.144-80.414-45.154c-17.153-8.793-20.935-18.646-13.996-37.232
	c10.353-27.733,18.367-56.488,25.599-85.254c6.109-24.432,20.168-32.99,44.266-40.291c39.374-11.9,59.84-2.715,67.682,37.447
	c11.263,57.629,43.096,101.15,90.288,134.043C476.299,1675.772,482.1,1690.566,478.426,1718.871z"/>
<path fill="#FFFFFF" stroke="#00FFFF" stroke-width="10" stroke-miterlimit="10" d="M171.329,1283.438
	c52.31,29.269,108.471,35.363,163.616,45.578c2.188,0.41,4.853,2.531,5.876,4.584c16.979,33.957-14.798,54.267-22.882,81.207
	c-4.845,16.172-15.147,26.437-35.034,17.592c-11.493-5.1-25.147-5.059-37.001-9.579c-35.362-13.505-60.271-1.604-82.025,28.034
	c-14.466,19.761-70.771,27.271-91.529,15.677c-3.25-1.834-8.133-4.607-8.399-7.345c-3.669-37.352-13.575-80.03,5.438-110.317
	C90.735,1314.904,135.971,1304.16,171.329,1283.438z"/>
<path fill="#FFFFFF" stroke="#00FFFF" stroke-width="10" stroke-miterlimit="10" d="M615.076,2602.908
	c23.271-0.375,82.66,54.028,82.858,75.563c0.114,12.347-10.104,12.906-17.397,17.35c-23.524,14.343-42.799,49.987-68.105,42.591
	c-23.866-6.979-25.52-46.453-37.825-71.152C555.029,2628.082,571.281,2603.625,615.076,2602.908z"/>
<path fill="#FFFFFF" stroke="#00FFFF" stroke-width="10" stroke-miterlimit="10" d="M3425.104,833.392
	c-21.52-81.056-42.705-160.685-64.319-240.084c-3.031-11.145-12.173-29.674-18.076-29.515c-60.729,1.624-129-39.778-178.709,31.067
	c-16.813,23.962-35.736,19.39-57.449-0.231c-54.846-49.563-108.567-98.104-89.021-183.935c0.274-1.216,0.516-3-0.117-3.789
	c-8.063-10.033-14.574-23.979-25.035-28.517c-7.594-3.293-23.092,3.104-30.479,10.118c-16.607,15.747-31.848,33.518-44.932,52.393
	c-20.537,29.646-37.648,25.161-60.474,1.485c-63.043-65.43-128.762-128.225-191.553-193.896
	c-26.543-27.761-54.746-50.159-93.158-54.262c-76.424-8.17-126.549-52.414-162.479-117.381c-1.238-2.244-2.17-5.568-4.08-6.385
	c-12.336-5.254-26.576-16.558-37.134-13.823c-118.229,30.64-237.457,61.471-325.238,155.832
	c-33.301,35.804-70.396,77.004-63.649,129.182c9.828,76.042,31.444,150.481,46.892,225.848c2.877,14.064,4.36,30.778-0.353,43.718
	c-42.063,115.557-95.104,223.137-191.471,298.504l-16.521,12.229c-11.078,7.844-22.521,15.416-34.724,22.424
	c-18.658,10.705-36.124,24.437-51.876,39.24c-35.945,33.771-74,50.045-123.726,31.192c-30.404-11.528-44.461,2.705-41.318,36.8
	c8.974,97.354,15.525,194.949,24.979,292.262c2.641,27.233-5.738,45.283-24.385,64.149c-13.851,14.007-29.426,35.38-29.081,53.16
	c2.189,113.209,7.454,226.416,14.673,339.424c0.461,7.113,2.086,14.941,4.604,22.619l5.901,14.104
	c4.221,8.254,9.479,15.588,15.597,20.498c29.056,23.313,64.041,51.209,100.829,80.424l12.148,9.641
	c31.893,25.31,64.766,51.303,96.135,76.017l14.271,11.223c79.65,62.664,146.477,114.521,156.219,120.391
	c18.979,11.426,31.92,13.041,51.006,4.023c16.31-7.707,34.438-25.652,53.336-71.398l7.252-18.877
	c4.543-12.637,9.108-26.867,13.705-43.16c9.271-32.922,12.698-45.088,40.521-66.098c1.881-1.426,3.938-3.025,6.146-4.745
	c0.771-0.603,1.573-1.229,2.379-1.854l12.291-9.252c14.807-10.617,32.566-20.949,49.11-20.322
	c11.986,0.436,21.244,4.791,29.408,8.646c13.418,6.322,20.147,9.484,33.228-5.887c6.364-7.495,10.707-19.211,15.291-31.613
	c4.782-12.934,9.727-26.305,17.771-37.346c1.828-2.51,3.646-5.07,5.467-7.645c1.324-1.865,2.682-3.765,4.039-5.66l11.695-15.168
	c9.945-11.705,21.844-22.174,37.896-27.504c22.632-7.511,41.013-1.58,58.802,4.151c8.558,2.758,17.405,5.607,26.864,7.029
	c5.561,0.846,11.929,0.289,18.522-0.754l15.152-2.933c17.063-3.661,34.717-7.438,49.461-0.354c3.209,1.537,6.137,3.771,8.871,6.393
	l10,12.814c14.467,24.1,19.69,59.567,19.77,60.05c2.037,14.37,1.25,26.021,0.552,36.308c-1.116,16.521-1.854,27.435,9.173,41.13
	c1.604,2.002,5.05,3.709,8.705,5.521c7.901,3.92,18.718,9.293,23.448,23.649c0.975,2.948,1.446,5.899,1.634,8.821l-1.554,16.164
	c-0.425,1.976-0.866,3.916-1.312,5.797c-1.496,6.316-2.908,12.291-2.42,17.498c0.979,10.707,3.695,20.351,6.326,29.679
	c4.512,15.979,9.164,32.513,5.002,53.663c-2.104,10.73-9.095,22.646-15.845,34.174c-6.942,11.86-14.823,25.303-14.424,33.566
	c0.271,5.709,1.709,9.367,4.277,10.877c10.689,6.271,42.354-10.029,65.467-21.947c19.394-10.002,36.144-18.637,47.729-19.615
	c2.24-0.188,4.412-0.24,6.545-0.231l6.966-0.662c11.854-2.523,37.709,23.349,40.178,31.095l4.231,10.487
	c10.822,34.996,2.662,83.095-4.739,107.825l-1.515,5.082l-5.231,0.388c-23.432,1.729-38.563,11.731-46.284,30.586
	c-7.091,17.317-3.931,22.037,2.996,32.384c3.463,5.157,7.754,11.584,11.428,20.61c15.021,36.931-4.229,84.705-32.396,116.338
	l-14.877,14.933c-12.924,12.146-29.236,26.463-40.813,36.112c-13.33,11.104-25.604,14.896-37.471,18.563
	c-7.104,2.188-14.443,4.463-22.314,8.382c-8.813,4.394-15.518,12.996-21.99,21.313c-6.553,8.396-13.32,17.088-22.596,22.021
	c-8.49,4.521-17.748,4.883-26.693,5.231c-15.652,0.609-24.021,1.59-28.527,15.717l-2.07,6.507l-6.627-1.291
	c-5.44-1.058-10.399-1.535-15.229-1.935l-15.653-1.438c-11.556-1.552-22.718-5.203-33.777-17.683
	c-7.617-8.588-10.688-18.174-13.658-27.442c-2.41-7.502-4.709-14.673-9.449-20.978c-3.002,1.767-6.354,3.359-9.639,4.93
	c-3.295,1.564-7.807,3.72-9.115,4.923l-9.646,8.896l-2.932-12.875c-1.795-7.897-4.074-10.521-5.037-10.805
	c-4.08-1.121-15.395,10.104-20.236,14.928c-3.477,3.459-6.475,6.439-9.243,8.545c-17.257,13.084-25.83,18.881-47.611,27.896
	c-1.063,0.439-2.291,1.02-3.478,1.552l-13.918,6.608c-13.336,6.342-27.596,12.383-38.793,11.012
	c-4.941-0.602-9.316-2.17-13.434-4.145l-13.27-7.92c-0.088-0.064-0.193-0.133-0.293-0.195c-7.555-5.074-14.682-9.869-23.025-10.174
	c-6.806-0.31-14.537,5.432-21.888,10.92c-8.543,6.379-17.292,12.947-27.61,12.508c-0.742-0.035-1.443-0.146-2.17-0.227l-14.945-4.85
	c-13.771-7.691-24.195-22.805-32.219-36.426c-11.539-19.584-36.057-73.629-38.988-108.594c-3.965,2.563-7.705,5.773-11.563,9.096
	c-7.517,6.455-16.033,13.77-27.574,17.027c-8.646,2.418-17.166-0.359-24.004-2.6c-3.28-1.075-7.043-2.377-8.781-2.14
	c-1.721,0.146-5.479,2.97-8.223,5.033c-5.65,4.254-13.164,9.854-21.616,8.364l-13.843-9.36
	c-13.313-17.513-14.42-55.17-14.174-93.063c0.045-6.955,0.088-12.963-0.117-16.681c-0.909-16.219,1.697-29.618,3.784-40.387
	c2.336-12.048,3.515-19.068,0.479-23.39c-3.668-5.235-14.828-9.143-34.108-11.938c-29.449-4.269-33.994-7.457-52.161-27.664
	l-13.145-20.651c-35.229,26.108-59.854,79.274-65.229,121.563c-6.439,50.752,28.697,73.479,55.878,102.457
	c13.521,14.418,22.446,23.935,27.271,32.196l4.23,13.75c0.136,11.22-7.571,23.979-22.503,48.302
	c-25.847,42.121-51.579,84.313-77.398,126.459c0.741,0.504,1.341,0.926,1.643,1.157l-10.282,12.937
	c-26.155,42.64-52.413,85.213-79.02,127.563c-13.446,21.403-10.714,35.073,6.273,53.066c12.652,13.397,25.643,25.977,39.107,37.502
	l12.754,10.447c44.396,34.75,94.599,56.887,156.813,54.414c6.989-0.274,13.553,0.493,18.992,2.437l11.521,8.459
	c3.009,4.662,3.929,10.931,1.748,19.071c-0.25,0.975-0.716,1.998-1.106,3.004l-8.313,13.588
	c-6.688,8.004-15.551,14.688-23.108,15.832c-42.563,6.443-85.977,7.27-129.119,9.42c-63.476,3.175-126.986,4.772-190.422,8.727
	c-39.01,2.431-71.405,38.265-58.392,67.938c34.943,79.703,30.207,163.067,30.412,246.494c0.146,59.537-15.021,55.512,42.848,56.09
	c2.132,0.021-8.211,2.408-0.211,5.084c0,23.923,0,49.193,0,74.479c37,10.855,77.084,7.521,100.906-26.425
	c13.856-19.746,38.985-34.252,52.758-54.052c27.623-39.717,71.021-50.688,113.98-57.907c8.252-1.392,21.846,1.972,27.361,7.871
	c19.68,21.091,37.842,44.218,57.128,67.72c-37.696,34.418-70.462,66.478-105.616,95.991c-21.063,17.688-33.15,36.776-31.898,65.362
	c2.768,63.649-11.834,121.688-58.002,168.33c-0.813,0.82-0.877,2.373-1.856,5.147c33.854,40.027,79.201,47.441,123.729,58.572
	c17.929,4.482,41.844,14.23,48.925,28.658c10.146,20.695,21.452,40.42,33.643,59.399l10.129,15.229
	c50.88,74.729,115.041,138.369,175.813,205.226c27.211,29.938,51.301,33.09,82.551,15.438
	c68.417-38.646,142.522-52.254,219.798-53.371c26.705-0.385,53.547-4.61,80.035-2.74c57.854,4.09,99.928-15.879,123.297-71.813
	c10.367-24.832,30.318-31.92,57.199-35.375c8.688-1.114,17.248-1.864,25.688-2.262l17.013-0.229
	c51.705,0.688,99.053,15.807,144.146,47.482c35.324,24.819,77.752,39.668,111.826,65.869
	c58.211,44.77,110.848,39.699,177.977,13.856c89.572-34.483,155.248-80.209,174.197-179.701
	c4.912-25.791,21.519-42.366,48.021-48.229c65.146-14.41,112.146-50.254,132.481-116.933c1.104-3.612,2.699-8.086,5.508-9.967
	c9.632-6.455,19.769-16.676,29.961-16.979c19.148-0.564,38.322-0.765,57.496-0.804l15.806-0.039
	c26.438,0.113,52.875,0.609,79.293,1.353c8.317,0.236,18.981,6.307,24.213,13.101c23.317,30.278,35.289,31.926,59.901,2.313
	c40.123-48.244,80.199-96.615,117.937-146.756c9.813-13.055,13.797-32.572,15.35-49.604c2.475-27.166,0.664-54.731,0.664-87.787
	c26.271,11.093,44.521,19.529,63.334,26.4c7.725,2.813,20.227,6.342,24.475,2.557c39.196-34.902,91.188-55.687,110.813-112.154
	c33.248-95.739,71.685-189.646,104.337-285.584c10.293-30.262,16.258-65.616,11.76-96.807
	c-10.539-73.283-11.299-144.086,5.586-211.99l4.033-14.771c10.123-35.037,25.063-69.295,46.117-102.688
	c11.604-18.414,17.271-42.975,18.762-65.178c4.957-74.088-15.305-136.983-76.961-185.506c-40.108-31.564-31.146-67.236,16.396-88.49
	c39.483-17.646,78.621-36.666,119.429-50.498c27.44-9.303,32.272-29.354,28.396-50.313c-2.24-12.071-17.289-25.508-29.746-31.166
	c-45.145-20.502-91.422-38.502-137.717-56.268c-13.938-5.348-30.129-11.729-43.896-9.354
	c-104.164,18.008-168.752-26.039-216.996-119.449c-27.129-52.506-92.978-60.703-148.394-72.361c-9.68-2.037-22.889,8.313-33.157,15
	c-18.382,11.965-35.783,25.498-61.636,44.188c-4.894-100.535-9.289-190.979-14.164-291.291
	c-32.776,8.731-61.78,16.461-92.168,24.555c-2.223-8.406-3.987-17.104-6.799-25.453c-13.479-39.924-17.188-75.592,25.883-102.739
	c10.229-6.439,15.08-28.91,14.843-43.886c-1.482-92.651-4.213-185.321-8.654-277.879c-1.199-25.006,6.176-36.756,29.717-44.305
	c42.313-13.566,83.57-30.523,125.279-46.049c29.848-11.111,44.16-32.191,42.399-64.867c-2.207-41.117-4.967-82.303-4.551-123.438
	c0.271-25.979-9.521-39.135-34.481-39.229c-48.781-0.189-75.287-30.959-96.607-69.717c-3.695-6.729-9.688-12.435-12.254-19.484
	c-15.854-43.421-48.285-45.901-86.416-38.115c-34.383,7.029-69.146,12.16-104.877,18.322c-8.283-31.129-16.453-61.929-24.563-92.523
	L3425.104,833.392z"/>
</svg>
