<?xml version="1.0" encoding="utf-8"?>
<!-- Generator: Adobe Illustrator 16.0.0, SVG Export Plug-In . SVG Version: 6.00 Build 0)  -->
<!DOCTYPE svg PUBLIC "-//W3C//DTD SVG 1.1//EN" "http://www.w3.org/Graphics/SVG/1.1/DTD/svg11.dtd">
<svg version="1.1" id="레이어_1" xmlns="http://www.w3.org/2000/svg" xmlns:xlink="http://www.w3.org/1999/xlink" x="0px"
	 y="0px" width="4550px" height="4950px" viewBox="0 0 4550 4950" enable-background="new 0 0 4550 4950" xml:space="preserve">
<path fill="#FFFFFF" stroke="#00FFFF" stroke-width="10" stroke-miterlimit="10" d="M4489.9,3438.299
	c18.836,44.955-18.685,76.584-44.914,110.83c-29.813,38.92-45.578,80.354-40.025,129.771c3.207,28.565-3.336,53.682-26.393,73.362
	c-14.125,12.052-24.06,29.216-24.047,47.511c0.035,56.188-15.578,110.588-17.313,166.225
	c-2.457,78.513-26.362,152.938-38.117,229.605c-21.396,139.449-81.914,266.272-124.797,398.793
	c-10.862,33.625-27.168,42.271-60.121,28.862c-39.098-15.91-79.844-27.725-120.065-40.793c-20.736-6.731-39.418-3.574-57.978,9.926
	c-42.688,31.082-86.301,60.961-130.211,90.217c-45.289,30.148-69.358,17.902-72.992-36.256
	c-3.026-45.367-6.319-90.725-7.641-136.145c-0.724-24.98-9.769-38.209-35.289-41.283c-99.168-11.896-198.318-24.096-297.291-37.506
	c-44.604-6.037-74.104,25-108.732,42.459c-69.2,34.873-82.168,66.188-61.239,142.4c6.782,24.795,18.36,48.28,28.252,72.172
	c2.825,6.813,11.233,13.34,3.563,20.461c-8.402,7.785-16.758,1.086-24.152-3.97c-4.223-2.901-8.391-6.147-11.737-10.008
	c-29.312-33.563-60.392-39.845-101.687-17.672c-24.973,13.383-39.914,25.414-36.463,54.938c2.881,24.709-12.021,33.808-32.084,45.65
	c-63.521,37.459-115.182,13.555-164.223-26.432c-32.563-26.57-59.007-28.131-89.045,4.809
	c-49.841,54.646-115.451,84.705-182.688,111.055c-7.152,2.789-14.537,7.203-21.738,7.084
	c-84.493-1.483-171.196,19.438-252.895-1.147c-87.363-21.992-167.063-6.324-249.061,15.069c-37.25,9.729-70.343,11.006-88.47-34.176
	c-8.047-20.043-22.885-37.426-35.299-55.571c-64.664-94.658-62.504-200.062-43.395-305.953c6.596-36.539,38.865-63.306,63.854-90.75
	c12.375-13.604,62.359,7.597,82.558,33.565c16.653,21.394,31.774,44.037,47.623,66.092c6.758,9.451,12.666,19.828,20.655,28.082
	c13.74,14.224,21.896,41.004,46.273,35.31c25.561-5.935,12.582-32.94,17.684-50.222c4.854-16.43,9.582-32.856,22.578-44.395
	c53.258-47.309,73.313-110.789,82.795-178.176c10.709-76.143,36.193-145.869,82.203-206.689
	c43.748-57.862,39.438-127.356,48.211-193.01c8.512-64.166-0.813-129.842,8.16-194.459c2.934-20.998-9.324-35.356-22.808-46.891
	c-50.272-43.041-106.608-85.307-167.801-99.098c-56.723-12.81-126.096-20.088-179.543,27.698
	c-32.805,29.347-61.725,44.998-107.252,15.158c-42.324-27.752-75.756-8.065-91.932,38.715
	c-21.522,62.354-44.525,124.191-66.104,186.541c-9.731,28.181-22.979,36.853-50.723,19.168
	c-38.785-24.666-84.018-30.844-128.246-38.526c-7.319-1.259-15.76-1.32-22.646,1.104c-32.299,11.42-87.899,91.768-91.024,126.531
	c-3.146,34.826-9.293,69.354-13.979,104.068c-3.692,27.53,3.203,44.489,35.688,45.428c20,0.563,39.863,8.842,59.619,14.248
	c12.812,3.508,18.491,12.859,18.381,26.225c-0.099,13.521-1.229,26.111-16.447,31.723c-9.663,3.554-18.682,10.222-28.521,11.496
	c-99.244,12.82-94.203,102.984-120.307,168.486c-8.693,21.838,16.118,39.248,27.729,57.195
	c30.621,47.346,25.916,74.94-20.533,105.225c-25.928,16.918-36.381,46.523-56.084,68.422c-24.936,27.633-13.36,54.617-2.598,83.33
	c9.092,24.217,0.063,48.135-16.043,64.92c-15.15,15.799-34.468,1.945-48.943-6.818c-81.18-49.264-166.283-23.199-250.274-14.578
	c-30.519,3.109-60.437,12.578-90.462-2.346c-24.692-12.264-32.442-30.617-7.854-46.404c76.238-48.93,80-122.369,72.633-201.215
	c-1.369-14.701-2.936-28.426-14.563-38.713c-75.39-66.543-143.896-140.485-223.148-203.08
	c-87.473-69.1-186.869-105.649-293.111-128.526c-17.545-3.789-34.899-11.884-52.381-11.97c-62.271-0.311-79.02-43.539-86.055-93.104
	c-4.379-30.506-18.666-42.814-47.271-45.094c-16.48-1.313-32.832-5.623-48.971-9.703c-60.033-15.186-60.381-15.422-50.25-77.641
	c4.357-26.769,9.701-54.324,18.152-79.127c11.533-33.93,4.527-58.08-19.244-78.902c-44.34-38.926-28.982-90.127-30.092-137.957
	c-0.26-11.357,9.795-17.93,17.625-24.393c13.887-11.519,27.293-24.396,42.949-32.791c81.713-43.812,121.635-116.609,147.287-202.939
	c21.354-71.865,50.586-141.279,75.141-212.248c8.604-24.971,19.616-35.668,47.926-26.852c31.65,9.85,66.559,3.912,98.418,15.979
	c6.143,2.346,12.555,2.299,18.084-2.361c25.357-21.381,29.111-105.07,3.066-126.18c-26.279-21.354-29.758-44.631-21.15-75.746
	c5.689-20.605,22.129-47.203-4.736-63.717c-28.137-17.275-57.27-43.424-93.787-15.438c-4.043,3.1-9.582,4.242-13.434,7.468
	c-55.479,46.868-103.139,12.164-149.938-16.252c-20.563-12.498-22.531-37.781-21.041-59.834
	c2.537-37.691-26.813-46.521-49.85-61.601c-21.283-13.899-33.154,5.315-46.879,14.979c-24.242,17.021-48.104,34.666-70.852,53.642
	c-19.771,16.486-27.131,16.397-34.887-11.978c-13.609-49.678-1.529-85.5,41.051-112.934c36.744-23.674,51-56.743,46.73-102.271
	c-6.078-64.533,2.193-129.961-7.191-194.49c-4.529-31.271,11.521-55.644,25.291-79.92c29.152-51.424,49.389-103.916,46.695-165.158
	c-0.979-22.604-6.539-36.107-24.119-48.006c-64.027-43.256-127.717-86.967-191.199-131.05
	c-55.344-38.457-56.434-104.429-2.559-143.064c4.783-3.432,14.105-7.454,17.195-5.271c29.99,21.129,51.006-0.827,72.764-15.107
	c22.377-14.735,41.182-19.422,58.732,7.049c18.773,28.302,45.273,17.832,69.791,10.901c68.984-19.511,70.465-20.087,58.049-90.104
	c-9.588-53.986-8.797-108.613-14.479-162.802c-4.842-45.91,59.715-95.508,99.101-74.131c68.84,37.401,139.057,22.979,209.891,17.321
	c33.324-2.646,20.729-24.019,14.26-38.804c-16.635-37.859-34.885-75.088-54.293-111.57c-12.33-23.125-15.117-43.166,4.07-63.83
	c7.771-8.363,14.486-18.682,18.723-29.326c27.498-68.938,93.625-78.405,151.027-100.578c23.277-9.012,42.984,7.718,59.984,19.854
	c31.868,22.775,63.141,19.351,100.495,18.063c71.72-2.436,92.89-40.566,103.349-101.604c7.459-43.191,67.356-56.063,101.276-22.842
	c34.103,33.417,66.271,68.876,98.988,103.717c11.979,12.748,24.445,22.063,43.576,19.118c51.008-7.854,102.557-3.136,153.824-5.447
	c10.215-0.466,20.965,0.427,30.563-2.423c26.146-7.719,117.82-132.438,118.976-160.582c2.563-62.284,5.614-124.563,7.035-186.88
	c0.524-22.981,8.077-38.825,27.727-51.38c48.783-31.152,95.896-64.988,144.894-95.767c25.538-15.998,39.028-35.099,35.771-66.488
	c-1.99-19.229,2.272-39.178,0.016-58.358c-5.284-44.916,13.572-68.579,55.525-83.403c66.369-23.412,130.916-52.138,195.981-79.138
	c21.673-8.987,36.83-13.426,59.308,7.902c65.182,61.924,149.461,66.335,233.771,66.313c31.16-0.017,36.354-26.147,37.818-45.197
	c3.252-42.473,27.217-58.693,63.34-65.775c3.799-0.731,7.813-1.256,11.133-2.99c50.332-26.225,86.767-11.537,113.386,37.375
	c14.366,26.416,33.188,33.597,63.567,18.623c31.855-15.705,67.396-24.429,102.033-33.49c22.209-5.803,41.42-15.547,55.025-33.229
	c21.627-28.107,47.795-30.551,78.688-20.561c45.18,14.586,91.326,26.334,135.842,42.676c38.056,13.984,67.431,10.779,96.007-21.883
	c27.604-31.537,56.684-63.742,103.969-67.732c23.547-1.988,41.519,1.402,58.676,19.509c48.89,51.513,99.234,101.657,149.396,151.922
	c28.635,28.712,44.102,29.22,56.719-6.647c45.086-128.263,157.375-194.488,246.885-281.771
	c12.273-11.958,28.16-17.735,45.726-17.729c8.967,0,18.053-0.074,26.903-1.358c60.588-8.875,65.738-10.153,79.211,50.356
	c11.847,53.146,52.031,75.328,87.777,102.176c26.418,19.813,35.752,36.998,19.023,66.781
	c-25.764,45.82-17.521,96.282-15.207,144.986c5.649,119.26,18.481,238.121,16.731,357.797
	c-0.903,61.826,14.754,118.004,64.004,159.555c36.669,30.958,51.15,69.609,53.775,118.318
	c5.89,108.738,16.851,217.197,26.845,325.672c2.606,28.24-4.318,51.024-25.529,69.418c-44.318,38.444-56.742,88.537-59.877,145.897
	c-3.365,61.828-15.357,123.207-24.777,184.609c-2.42,15.729-4.461,29.586,2.959,45.096c27.318,57.172,52.853,115.258,80.033,172.521
	c6.369,13.381,11.02,25.849,7.816,40.813c-20.957,97.993-30.679,197.354-33.966,297.382c-0.729,21.925-9.575,38.021-26.926,48.531
	c-47.629,28.869-78.307,68.885-89.201,124.967c-3.643,18.789-13.397,36.359-29.323,49.181
	c-12.808,10.342-17.406,24.477-18.232,41.131c-3.709,75.16-6.188,150.521-13.182,225.42c-4.313,45.906,15.178,81.207,40.211,113.844
	c30.108,39.229,44.057,83.813,41.42,130.742c-3.648,65.603,15.793,119.549,60.492,165.402c28.467,29.241,31.889,57.166-1.951,84.955
	c-5.846,4.762-9.527,12.166-14.387,18.207c-59.312,73.271-59.332,73.271-4.519,151.262c6.688,9.504,13.438,18.963,20.443,28.246
	c45.78,60.851,110.495,66.408,165.379,12.521c61.709-60.604,121.974-122.725,183.215-183.817
	c11.285-11.264,24.117-34.854,39.332-22.49c18.474,15.013,47.662,25.425,47.455,57.689
	C4489.828,3396.988,4489.9,3413.873,4489.9,3438.299z"/>
<path fill="#FFFFFF" stroke="#00FFFF" stroke-width="10" stroke-miterlimit="10" d="M2386.563,3713.937
	c6.054-9.104,1.777-17.435,11.043-20.838c1.408,3.055,4.052,6.17,4.084,9.307c0.679,85.697,0.103,171.4,2.229,257.076
	c0.529,21.104-15.604,27.303-23.365,40.795c-42.563,73.909-85.989,147.393-125.205,223.067c-15.606,30.16-8.207,67.01-5.344,99.981
	c5.717,65.502-47.043,93.82-78.098,135.726c-9,12.155-20.193,2.422-28.625-7.211c-13.552-15.563-30.063-28.903-41.664-45.767
	c-28.854-41.992-76.099-38.5-116.769-50.723c-14.34-4.334-22.432,9.49-29.684,20.367c-20.85,31.152-41.27,62.58-62.723,93.277
	c-10.976,15.742-15.521,32.78-14.078,51.354c2.818,36.59-17.143,61.689-36.086,90.59c-60.092,91.68-158.529,119.896-249.777,156.99
	c-31.574,12.82-72.375,29.523-112.904,1.566c-33.646-23.203-54.186-45.25-40.055-87.853c4.434-13.438-4.934-24.944-8.246-37.258
	c-18.199-68.228,10.693-112.521,79.523-121.633c8.981-1.196,17.396-1.465,22.389-11.508c18.748-37.655,9.15-114.082-23.064-143.147
	c-28.951-26.063-29.271-48.351-14.114-84c23.651-55.693,59.981-90.49,116.396-107.017c33.428-9.752,55.152-26.905,35.729-67.051
	c-4.279-8.801-4.479-20.443-3.957-30.647c1.541-29.662-13.979-40.375-40.74-45.482c-63.008-12.018-79.937-54.963-44.276-109.414
	c11.297-17.301,24.385-33.418,37.034-49.754c28.027-36.24,68.4-36.652,94.457,0.379c16.132,22.893,25.298,50.055,62.621,47.242
	c38.402-2.928,67.558-20.438,85.9-51.025c36.36-60.6,78.065-119.764,81.174-194.873c0.938-22.92,12.996-26.336,30.813-17.086
	c50.498,26.213,91.351,12.939,128.513-27.896c32.854-36.115,84.396-35.136,124.17-58.492c8.563-5.063,16.623,3.549,24.217,8.272
	c41.549,25.662,82.621,52.232,125.076,76.203C2374.645,3669.625,2389.01,3683.973,2386.563,3713.937z"/>
</svg>
