<?xml version="1.0" encoding="utf-8"?>
<!-- Generator: Adobe Illustrator 16.0.0, SVG Export Plug-In . SVG Version: 6.00 Build 0)  -->
<!DOCTYPE svg PUBLIC "-//W3C//DTD SVG 1.1//EN" "http://www.w3.org/Graphics/SVG/1.1/DTD/svg11.dtd">
<svg version="1.1" id="레이어_1" xmlns="http://www.w3.org/2000/svg" xmlns:xlink="http://www.w3.org/1999/xlink" x="0px"
	 y="0px" width="130px" height="150px" viewBox="0 0 130 150" enable-background="new 0 0 130 150" xml:space="preserve">
<path id="서초갑" fill="#FFFFFF" stroke="#00FFFF" stroke-width="2" stroke-miterlimit="10" d="M114.043,93.748
	c-6.063,0.896-11.135,1.77-16.24,2.343c-2.43,0.272-4.104,1.067-4.642,3.611c-0.028,0.137-0.132,0.257-0.188,0.39
	c-2.369,5.568-3.513,12.391-7.455,16.352c-3.838,3.854-10.547,4.779-15.998,6.979c-8.243,3.331-16.417,6.854-24.776,9.853
	c-2.436,0.871-5.419,0.445-8.117,0.203c-1.657-0.148-3.245-1.08-4.865-1.648c-7.485-2.637-8.149-2.838-5.897-10.266
	c3.339-11.012,1.485-20.646-3.706-30.657c-3.436-6.628-4.739-14.386-7.174-22.201c9.02-1.441,16.922-2.581,24.767-4.043
	c2.13-0.396,4.317-1.446,6.071-2.757c3.452-2.581,6.435-5.816,9.933-8.318C67.615,45.1,75.243,32.883,83.83,21.497
	c1.557-2.063,3.078-4.152,5.179-6.99C99.462,40.529,105.182,67.261,114.043,93.748z"/>
</svg>
