<?xml version="1.0" encoding="utf-8"?>
<!-- Generator: Adobe Illustrator 16.0.0, SVG Export Plug-In . SVG Version: 6.00 Build 0)  -->
<!DOCTYPE svg PUBLIC "-//W3C//DTD SVG 1.1//EN" "http://www.w3.org/Graphics/SVG/1.1/DTD/svg11.dtd">
<svg version="1.1" id="레이어_1" xmlns="http://www.w3.org/2000/svg" xmlns:xlink="http://www.w3.org/1999/xlink" x="0px"
	 y="0px" width="5840px" height="4970px" viewBox="0 0 5840 4970" enable-background="new 0 0 5840 4970" xml:space="preserve">
<path id="강원도" fill="#FFFFFF" stroke="#00FFFF" stroke-width="10" stroke-miterlimit="10" d="M2882.098,4325.824
	c-17.949,0-28.648,1.935-38.406-0.304c-71.158-16.242-114.961,24.778-156.934,73.272c-18.973,21.938-11.439,46.375-14.834,70.056
	c-2.857,19.967,12.727,46.851-15.926,58.14c-27.373,10.812-70.457-6.875-86.584-34.147c-38.211-64.521-76.625-128.94-113.27-194.392
	c-41.412-74.021-133.104-89.535-199.381-37.33c-40.73,32.095-58.248,68.515-53.904,119.903c2.918,34.785,0.26,70.119-0.881,105.168
	c-1.793,54.873-26.648,80.679-78.895,91.651c-58.27,12.26-117.512,14.66-176.082,15.008c-45.17,0.258-83.222-30.388-120.306-55.767
	c-10.354-7.082-7.979-21.002-10.476-32.301c-14.104-63.519-8.892-124.278,17.552-184.403
	c30.234-68.709,44.283-139.188,20.384-214.826c-20.567-65.258,6.166-127.713,21.213-190.229
	c12.076-50.166,26.313-99.819,37.637-150.144c3-13.289-0.619-28.336-2.283-42.426c-3.066-25.757-10.854-51.609-9.508-77.043
	c2.125-40.134-13.438-69.031-40.801-95.652c-30.926-30.076-30.144-31.67,10.364-48.646c44.96-18.805,89.706-38.361,135.751-54.123
	c35.35-12.082,34.682-40.723,38.418-68.764c3.771-28.043-18.063-34.104-36.25-42.943
	c-99.213-48.164-196.663-101.521-311.077-103.188c-21.723-0.314-35.745-15.563-42.604-34.611
	c-19.854-55.148-59.688-87.875-111.193-110.734c-33.949-15.074-67.125-32.781-98.51-52.742
	c-25.545-16.279-48.813-19.924-75.176-4.418c-23.308,13.729-38.552,5.793-38.397-21.01c0.3-52.354-13.252-102.891-16.797-154.539
	c-1.688-24.438-10.076-34.904-34.396-35.609c-20.379-0.57-40.856-3.895-60.961-7.895c-16.462-3.264-24.355-14.5-7.95-26.213
	c57.668-41.217,59.702-100.24,56.418-163.066c-2.576-49.229,1.058-98.813-1.671-148.04c-1.396-25.285,8.341-38.741,28.601-48.957
	c44.707-22.531,88.746-46.565,134.021-67.858c23.194-10.89,32.235-26.135,31.028-51.635c-3.079-64.824-5.171-129.72-6.313-194.613
	c-0.541-30.666-19.68-42.146-44.123-43.926c-47.193-3.443-80.654-26.656-99.479-68.601c-29.976-66.744-83.542-86.384-149.704-80.808
	c-46.15,3.896-72.479-9.268-84.514-59.854c-19.099-80.268-47.601-158.209-70.127-237.707c-7.867-27.688-17.858-48.4-50.107-48.67
	c-6.216-0.047-12.627-2.53-18.52-4.926c-49.979-20.271-96.975-19.111-139.809,18.035c-17.714,15.358-32.425,11.314-54.146,0.058
	c-69.646-36.099-83.149-99.249-81.025-166.423c1.518-47.567-28.869-58.604-59.046-74.353c-13.383-6.979-21.368,3.532-28.934,12.548
	c-17.437,20.807-35.509,41.118-51.843,62.765c-15.834,20.979-28.754,18.929-46.896,1.573
	c-48.495-46.381-100.894-88.752-147.372-136.994c-35.635-36.98-77.668-59.812-124.679-72.799
	c-44.593-12.332-77.943-37.348-105.755-72.896c-8.688-11.104-18.076-22.233-29.126-30.694
	c-12.398-9.474-24.076-20.426-15.599-35.048c9.486-16.313,13.724,9.386,22.934,6.604c33.055-9.984,66.293-19.458,99.063-30.381
	c121.641-40.555,243.143-81.459,364.586-122.547c33.168-11.225,60.883,7.311,87.979,19.013
	c38.393,16.572,72.919,15.093,111.134,0.591c52.612-19.952,106.837-35.583,160.525-52.571c13.827-4.377,27.479-2.369,41.193,3.611
	c74.063,32.308,149.085,62.496,222.218,96.85c24.771,11.646,45.271,11.302,69.559,2.893
	c141.752-49.021,283.933-96.812,425.679-145.898c16.877-5.842,31.023-4.791,48.033-0.313
	c61.729,16.272,119.901,46.104,185.361,48.98c21.15,0.925,25.49,23.285,33.156,39.268c33.607,69.78,33.238,66.905,110.566,59.51
	c118.688-11.358,237.738-19.741,356.771-26.354c58.926-3.273,117.821-6.605,176.723-9.618
	c44.576-2.285,80.871-22.605,117.646-43.528c60.352-34.322,120.211-69.597,180.707-103.61
	c21.916-12.328,38.716-28.218,51.683-50.284c53.914-91.767,113.72-179.085,191.776-252.204
	c32.438-30.396,48.496-65.733,45.854-113.385c-3.813-68.598,1.658-137.668,0.646-206.498c-0.588-39.746,9.746-71.264,45.438-91.526
	c6.604-3.763,12.063-9.64,18.07-14.507c54.237-43.889,53.94-43.758,82.371,22.863c56.81,133.16,112.873,266.66,171.396,399.035
	c29.951,67.703,74.967,126.975,115.848,188.024c25.75,38.528,32.474,75.659,18.062,116.597
	c-16.06,45.538-10.282,81.813,33.771,105.555c100.713,54.283,120.102,159.443,154.438,254.195
	c53.722,148.186,106.32,296.87,154.636,446.921c18.846,58.536,51.846,101.621,96.228,140.916
	c59.875,52.98,115.729,110.549,174.729,164.528c22.832,20.886,34.688,43.73,32.074,74.8c-3.006,35.339,10.771,62.713,39.062,83.844
	c18.543,13.837,33.604,33.42,53.479,44.343c67.498,37.072,86.978,101.596,99.11,170.348
	c11.235,63.967,35.076,117.347,84.539,163.961c139.92,131.861,274.541,269.502,412.158,403.934
	c27.338,26.723,42.728,55.314,44.599,94.914c1.924,41.107,13.957,81.629,17.752,122.762c4.222,45.332,31.813,73.119,65.479,95.168
	c56.459,37.021,83.078,84.16,79.209,155.275c-4.141,76.842,18.963,145.053,80.844,200.479
	c41.977,37.629,88.854,75.65,107.965,134.109c1.195,3.705,3.627,7.287,3.75,10.992c2.594,82.088,51.99,131.018,116.643,169.262
	c25.33,14.979,36.314,35.574,36.523,66.98c0.254,38.652,8.676,77.211,12.758,115.898c1.742,16.59,12.191,26.279,24.848,32.273
	c95.363,45.289,147.936,125.234,184.607,221.633c13.703,35.979,21.359,67.166,6.959,103.881
	c-13.223,33.689-13.387,67.234,7.617,100.266c17.977,28.271,31.344,59.523,47.023,89.32c12.314,23.445,5.65,42.578-20.096,39.596
	c-96.232-11.152-157.561,46.674-220.354,105.627c-52.527,49.313-113.285,89.771-155.021,150.502
	c-12.271,17.867-23.648,13.016-37.691,0.063c-35.074-32.332-71.51-63.188-107.451-94.564
	c-33.836-29.559-113.756-44.793-146.078-15.936c-70.863,63.307-148.023,47.752-227.297,32.809
	c-8.809-1.68-17.684-3.252-26.418-5.303c-58.514-13.822-110.121-11.379-157.316,37.424c-40.486,41.908-98.049,45.449-144.475,12.49
	c-83.355-59.201-153.305-1.24-228.152,16.67c-3.572,0.869-6.646,7.461-8.354,12.006c-5.992,15.961,2.336,42.496-20.412,45.641
	c-29.51,4.086-60.418,9.254-89.721-8.629c-23.979-14.617-51.764-22.775-76.043-37.02c-73.355-43.045-156.014-50.297-236.787-61.51
	c-53.732-7.473-99.313-24.828-134.051-66.574c-36.92-44.354-80.025-58.797-136.283-41.875c-27.723,8.336-58.521,5.938-87.826,8.975
	c-15.541,1.617-27.066-4.207-37.408-15.463c-33.109-35.93-55.611-95.941-99.328-104.379c-60.654-11.703-127.209-1.027-190.688,9.076
	c-11.322,1.805-26.521,14.553-34.131-2.289c-6.402-14.164,9.646-22.316,17.441-31.773c15.604-18.936,31.552-37.699,48.619-55.26
	c13.983-14.377,17.744-29.043,13.807-49.24c-14.02-71.51-13.314-73.691-85.541-72.537c-50.939,0.813-95.659-9.307-135.713-42.994
	C2973.525,4308.769,2921.49,4333.396,2882.098,4325.824z"/>
</svg>
