<?xml version="1.0" encoding="utf-8"?>
<!-- Generator: Adobe Illustrator 16.0.0, SVG Export Plug-In . SVG Version: 6.00 Build 0)  -->
<!DOCTYPE svg PUBLIC "-//W3C//DTD SVG 1.1//EN" "http://www.w3.org/Graphics/SVG/1.1/DTD/svg11.dtd">
<svg version="1.1" id="레이어_1" xmlns="http://www.w3.org/2000/svg" xmlns:xlink="http://www.w3.org/1999/xlink" x="0px"
	 y="0px" width="210px" height="160px" viewBox="0 0 210 160" enable-background="new 0 0 210 160" xml:space="preserve">
<path id="강남을" fill="#FFFFFF" stroke="#00FFFF" stroke-width="2" stroke-miterlimit="10" d="M39.789,128.408
	c0-1.94-0.209-3.396,0.035-4.77c1.366-7.619-1.416-13.479-7.205-18.182c-0.998-0.811-1.786-1.881-2.674-2.829
	c-12.207-13.041-12.26-13.036-14.071-30.924c-0.128-1.263,1.007-3.219,2.129-3.954c6.128-4.02,12.386-7.849,18.716-11.537
	c2.13-1.242,2.943-2.677,2.982-5.157c0.111-6.816,0.629-13.625,0.747-20.442c0.043-2.617,0.866-3.765,3.461-4.452
	c11.08-2.929,22.082-6.15,33.133-9.19c1.006-0.276,2.237-0.291,3.225,0.02c16.394,5.142,32.776,10.32,49.124,15.613
	c1.553,0.502,3.037,1.625,4.234,2.793c16.925,16.519,33.822,33.068,50.63,49.708c1.341,1.326,2.375,3.275,2.87,5.125
	c2.521,9.362,4.924,18.765,7.088,28.22c0.396,1.729-0.039,4.051-0.926,5.614c-2.991,5.274-6.256,10.406-9.667,15.416
	c-0.8,1.172-2.687,2.446-3.919,2.308c-5.986-0.685-12.445,1.147-17.842-3.213c-0.672-0.543-2.18-0.194-3.262-0.019
	c-6.645,1.094-13.26,2.381-19.927,3.276c-1.298,0.176-3.444-0.687-4.084-1.754c-6.209-10.396-12.354-20.843-18.106-31.5
	c-1.615-2.994-3.228-5.397-6.5-6.265c-4.424-1.164-8.85-2.366-13.34-3.178c-1.108-0.199-2.618,0.865-3.701,1.682
	c-8.166,6.146-16.148,12.552-24.462,18.484c-3.042,2.172-6.7,3.713-10.297,4.776C52.319,125.816,46.276,126.92,39.789,128.408z"/>
</svg>
