<?xml version="1.0" encoding="utf-8"?>
<!-- Generator: Adobe Illustrator 16.0.0, SVG Export Plug-In . SVG Version: 6.00 Build 0)  -->
<!DOCTYPE svg PUBLIC "-//W3C//DTD SVG 1.1//EN" "http://www.w3.org/Graphics/SVG/1.1/DTD/svg11.dtd">
<svg version="1.1" id="레이어_1" xmlns="http://www.w3.org/2000/svg" xmlns:xlink="http://www.w3.org/1999/xlink" x="0px"
	 y="0px" width="170px" height="210px" viewBox="0 0 170 210" enable-background="new 0 0 170 210" xml:space="preserve">
<path id="송파을" fill="#FFFFFF" stroke="#00FFFF" stroke-width="2" stroke-miterlimit="10" d="M133.036,192.529
	c1.702-3.004,2.618-5.144,3.987-6.924c2.894-3.772,3.297-8.144,2.5-12.41c-1.516-8.102-3.654-16.078-5.45-24.125
	c-1.447-6.48-5.121-11.405-9.806-15.91c-14.969-14.396-29.656-29.092-44.718-43.386c-3.034-2.881-6.985-5.22-10.928-6.591
	c-14.075-4.892-28.328-9.26-42.514-13.825c-0.682-0.22-1.405-0.702-2.042-0.606c-5.996,0.904-6.39-2.656-6.57-7.418
	c-0.412-10.868-1.394-21.715-2.109-32.574c-0.101-1.554-0.015-3.121-0.015-4.095c11.98,0.81,23.793,1.737,35.624,2.317
	c2.878,0.141,5.953-0.449,8.688-1.426c5.392-1.928,10.66-4.246,15.874-6.633c2.49-1.139,3.972-1.043,5.56,1.555
	c10.854,17.759,22.166,35.238,32.623,53.231c2.782,4.79,2.991,11.079,4.571,16.626c0.861,3.029,1.758,6.15,3.266,8.875
	c10.209,18.47,20.629,36.817,30.842,55.285c0.965,1.745,1.26,4.021,1.35,6.075c0.101,2.293-0.818,4.668-0.543,6.914
	c1.506,12.414-7.898,17.578-15.39,23.976C136.98,192.195,135.382,192.046,133.036,192.529z"/>
</svg>
