<?xml version="1.0" encoding="utf-8"?>
<!-- Generator: Adobe Illustrator 16.0.0, SVG Export Plug-In . SVG Version: 6.00 Build 0)  -->
<!DOCTYPE svg PUBLIC "-//W3C//DTD SVG 1.1//EN" "http://www.w3.org/Graphics/SVG/1.1/DTD/svg11.dtd">
<svg version="1.1" id="레이어_1" xmlns="http://www.w3.org/2000/svg" xmlns:xlink="http://www.w3.org/1999/xlink" x="0px"
	 y="0px" width="280px" height="230px" viewBox="0 0 280 230" enable-background="new 0 0 280 230" xml:space="preserve">
<path id="서초을" fill="#FFFFFF" stroke="#00FFFF" stroke-width="2" stroke-miterlimit="10" d="M18.129,53.908
	c5.203,1.316,10,2.709,14.879,3.676c1.973,0.391,4.311,0.353,6.167-0.349c13.813-5.22,27.57-10.594,41.27-16.107
	c1.479-0.594,2.977-2.181,3.615-3.679c2.103-4.914,3.663-10.064,5.771-14.976c0.534-1.245,2.213-2.486,3.565-2.775
	c3.209-0.684,6.655-0.36,9.785-1.242c4.486-1.261,5.89,0.749,7.105,4.655c2.364,7.593,5.367,14.981,7.862,22.535
	c0.832,2.522,1.907,3.336,4.597,3.106c7.247-0.615,14.527-0.847,22.055-1.246c0.979,7.065,1.784,13.802,2.923,20.481
	c0.34,2.004,1.234,4.157,2.51,5.711c4.759,5.808,9.468,11.716,14.787,16.971c4.733,4.676,4.293,10.617,4.828,16.169
	c0.437,4.531,2.223,5.929,6.129,5.199c7.741-1.448,15.461-3.042,23.153-4.739c1.164-0.258,2.17-1.354,3.19-2.139
	c8.572-6.572,17.195-13.079,25.642-19.811c2.183-1.736,4.05-1.652,6.625-1.258c7.718,1.179,11.849,5.564,15.013,12.709
	c3.719,8.404,9.032,16.098,13.787,24.018c3.282,5.473,3.057,7.813-0.371,12.939c-6.574,9.839-12.716,19.977-19.336,29.78
	c-1.298,1.923-3.779,3.353-6.013,4.235c-7.815,3.098-15.808,5.746-23.617,8.858c-1.231,0.489-2.563,2.46-2.666,3.837
	c-0.815,10.877-6.68,19.938-10.245,29.809c-0.271,0.758-1.603,1.457-2.51,1.563c-1.236,0.143-2.6-0.135-3.806-0.543
	c-8.058-2.721-15.513-2.085-22.712,2.956c-3.215,2.249-6.954,0.792-9.336-2.168c-7.92-9.847-16.489-18.957-28.727-23.306
	c-3.799-1.353-6.517-3.646-7.771-7.396c-0.519-1.55-0.588-3.625,0-5.112c1.379-3.483,3.4-6.701,4.94-10.129
	c2.489-5.533,3.327-11.108,1.308-17.188c-3.238-9.739-5.863-19.688-8.946-29.486c-0.833-2.654-2.381-5.081-3.854-8.135
	c-7.508,6.141-14.287,11.898-21.332,17.301c-1.868,1.432-4.537,2.396-6.874,2.477c-5.693,0.191-12.138,1.328-16.906-0.91
	c-4.63-2.174-7.547-8.079-11.215-12.346c-0.847-0.984-1.918-1.853-2.505-2.978c-4.269-8.174-11.648-9.303-19.643-8.965
	c-3.137,0.135-6.059,0.829-6.223,4.941c-0.368,9.278,0.091,9.576-11.445,13.439c-0.762-5.766-1.705-11.402-2.207-17.082
	c-0.695-7.855-1.771-15.535-5.979-22.422c-0.57-0.933-1.025-2.22-0.898-3.264C15.606,72.488,16.853,63.471,18.129,53.908z"/>
</svg>
