<?xml version="1.0" encoding="utf-8"?>
<!-- Generator: Adobe Illustrator 16.0.0, SVG Export Plug-In . SVG Version: 6.00 Build 0)  -->
<!DOCTYPE svg PUBLIC "-//W3C//DTD SVG 1.1//EN" "http://www.w3.org/Graphics/SVG/1.1/DTD/svg11.dtd">
<svg version="1.1" id="레이어_1" xmlns="http://www.w3.org/2000/svg" xmlns:xlink="http://www.w3.org/1999/xlink" x="0px"
	 y="0px" width="10000px" height="16000px" viewBox="0 0 10000 16000" enable-background="new 0 0 10000 16000"
	 xml:space="preserve">
<path fill="#FFFFFF" stroke="#00FFFF" stroke-width="10" stroke-miterlimit="10" d="M998.336,15402.066
	c-18.835-66.836,13.867-120.352,73.536-171.598c98.656-84.727,189.729-178.523,283.679-268.816
	c20.229-19.461,45.434-26.941,70.493-37.246c96.244-39.504,192.233-79.309,296.58-90.84c33.671-3.707,55.127-19.727,61.688-52.684
	c7.646-38.352,32.685-45.918,66.931-49.602c99.3-10.676,199.438-15.211,297.491-36.539c48.696-10.586,98.709-17.547,145.539-33.832
	c41.752-14.52,77.439-1.156,114.861,9.582c12.563,3.609,23.948,9.637,36.416,0.898c84.387-59.039,188.508-65.52,278.778-107.234
	c45.029-20.797,65.938-8,91.326,26.195c44.563,60.012,106.604,100.07,166.514,142.695c28.448,20.23,61.866,8.648,91.479,24.738
	c27.134,14.75,36.221,25.895,18.177,52.066c-15.777,22.922-6.571,38.121,14.214,50.934c19.713,12.16,38.903,25.199,58.066,38.242
	c19.34,13.109,26.257,27.648,5.81,46.711c-3.44,3.211-2.624,12.211-2.18,18.422c4.145,57.727-20.9,108.625-38.115,160.969
	c-10.03,30.438-42.29,40.297-67.333,54.965c-23.341,13.633-38.546,28.793-33.962,58.434c2.729,17.695-4.135,32.402-17.836,44.816
	c-50.649,45.918-99.892,93.438-151.214,138.543c-44.008,38.711-102.399,25.613-153.623,38.699
	c-16.584,4.234-35.001,3.906-41.771,21.902c-30.404,80.992-103.542,82.332-170.441,95.199
	c-92.896,17.871-185.953,34.961-278.866,52.719c-38.543,7.367-72.25,26.309-104.271,48.156
	c-24.273,16.559-50.509,22.078-79.485,24.688c-101.642,9.189-202.024-1.922-302.547-13.813c-15.246-1.801-31.24-4.598-46.002-1.953
	c-84.039,15.105-168.634,11.082-252.996,7.43c-32.533-1.402-46.927,13.023-54.89,40.832c-2.139,7.477-2.093,16.68-6.537,22.188
	c-14.723,18.172-3.28,58.871-35.56,57.684c-36.112-1.344-76.705-1.504-97.466-46.32c-21.813-47.086-54.082-82.191-112.415-85.41
	c-52.33-2.895-78.757-44.758-100.285-86.43C992.474,15540.035,996.093,15476.766,998.336,15402.066z"/>
<path fill="#FFFFFF" stroke="#00FFFF" stroke-width="10" stroke-miterlimit="10" d="M7228.668,11591.801
	c46.922-36.16,48.006-78.262,30.854-125.145c-4.324-11.797-6.424-25.754-4.875-38.113c3.635-28.637,33.287-40.988,56.709-25.168
	c64.693,43.684,65.142,43.984,21.627,111.191c-9.252,14.238-11.879,27.258-9.262,43.742c7.834,48.945,19.955,96.41,43.57,140.082
	c14.233,26.359,13.742,48.02-10.939,68.535c-16.73,13.91-29.977,32.051-45.496,47.531c-11.471,11.445-13.912,22.246-7.111,38.094
	c23.392,54.25,27.207,55.379,80.98,28.262c16.249-8.188,34.264-33.168,50-18.816c17.988,16.387,1.49,44.238-1.593,66.363
	c-2.097,15.07-20.411,22.043-32.526,31.527c-39.4,30.793-40.262,78.871-2.242,111.066c20.662,17.496,41.351,34.977,61.608,52.926
	c13.743,12.152,15.996,22.746-4.272,31.414c-37.297,15.926-71.916,23.953-105.553-10.535c-18.675-19.137-43.311-32.309-64.92-48.551
	c-15.891-11.941-24.146-8.191-22.605,11.625c4.295,55.281-13.699,100.914-55.097,137.316c-21.565,18.953-19.474,36.891,2.659,54.273
	c5.898,4.672,10.04,11.746,14.729,17.918c17.402,23.133,12.517,37.031-17,33.941c-34.193-3.613-43.644,14.684-49.912,43.992
	c-4.508,21.035,1.025,56.527-36.602,52.027c-65.116-7.797-83.814-24.164-82.73-68.891c0.998-41.023-7.926-83.176,12.873-122.531
	c8.647-16.387,0.135-21.52-15.791-17.004c-7.41,2.113-14.688,4.797-22.11,6.773c-36.039,9.563-77.301-28.996-69.914-65.734
	c4.354-21.723,23.183-16.465,37.414-18.621c25.08-3.832,77.797-57.602,79.004-81.355c2.481-49.449-76.021-99.406-122.004-77.055
	c-17.272,8.422-33.481,19.113-50.021,29.047c-47.375,28.441-78.041,17.523-90.869-36.59c-8.418-35.336-4.244-72.375-1.646-108.645
	c0.437-5.879,4.008-12.805,8.272-16.949c60.25-58.25,131.812-81.379,214.265-68.551c19.717,3.031,23.618,21.715,31.604,36.148
	c6.008,10.902,9.674,27.055,26.707,21.656c15.795-4.957,30.03-12.07,31.457-33.992c2.434-37.574,0.18-72.262-29.201-100.27
	c-12.043-11.512-22.316-25.133-32.26-38.656c-9.984-13.488-12.83-29.926-2.535-43.414c10.908-14.281,23.356-2.047,34.119,3.617
	c22.34,11.676,41.688,7.824,60.082-8.73c21.182-19.074-3.523-32.105-5.854-47.973c-1.067-7.328-6.554-13.922-9.508-21.094
	c-21.788-52.434-12.188-77.43,38.717-103.066c19.292-9.711,27.578-2.262,33.022,17.004
	C7204.668,11518.367,7216.664,11553.77,7228.668,11591.801z"/>
<path fill="#FFFFFF" stroke="#00FFFF" stroke-width="10" stroke-miterlimit="10" d="M1776.113,3845.166
	c18.404-91.553,25.357-195.772,13.206-298.869c-8.234-69.95-2.511-142.401-28.366-209.993c-1.837-4.791-4.729-9.178-6.527-13.979
	c-10.826-29.313-52.147-60.925-32.428-84.181c25.257-29.855,70.755-43.618,109.419-59.733c17.925-7.479,25.323,15.396,31.563,27.804
	c24.098,47.918,53.382,90.975,94.57,125.826c38.034,32.209,89.692,35.657,129.769,6.082c29.034-21.419,57.612-43.48,87.257-63.977
	c13.995-9.68,31.785-17.469,45.762-2.362c14.562,15.749-5.72,23.437-11.652,34.956c-18.489,35.857-4.192,73.374,0.188,109.219
	c6.211,50.93,7.721,52.81-43.699,63.505c-16.264,3.401-35.345,4.736-36.78,26.901c-1.418,22.063-1.052,45.301,20.127,59.521
	c11.646,7.825,25.014,13.068,37.691,19.31c52.847,26.01,58.479,75.057,13.179,113.84c-4.757,4.088-11.448,9.061-12.159,14.313
	c-11.781,87.698-77.375,146.478-115.187,220.1c-17.045,33.184-40.471,62.998-57.74,96.082
	c-10.812,20.716-24.813,28.134-46.201,25.985c-50.997-5.121-101.982-10.319-153-15.202c-13.438-1.284-23.276-7.648-22.513-21.418
	C1795.633,3963.864,1777.234,3911.07,1776.113,3845.166z"/>
<path fill="#FFFFFF" stroke="#00FFFF" stroke-width="10" stroke-miterlimit="10" d="M1054.804,12810.031
	c36.954,21.859,71.604,34.781,106.466,47.145c14.506,5.152,23.869,17.805,27.918,30.668c9.605,30.648,29.235,37.668,58.627,36.957
	c60.075-1.449,60.021-0.082,78.643,60.023c3.063,9.852,6.643,19.691,11.234,28.883c20.938,41.793,26.427,83.07-1.375,124.367
	c-14.063,20.887-9.91,45.121-10.145,68.211c-0.922,96.891-30.893,128.852-120.538,132.352c-48.104,1.871-76.885,18.254-91.36,63.906
	c-14.472,45.613-56.815,58.996-92.047,82.305c-64.191,42.473-130.188,37.184-198.854,19.398
	c-16.317-4.23-23.329-14.461-24.819-30.258c-1.334-14.191-2.823-28.363-4.002-42.57c-2.682-32.266-17.006-49.543-51.806-45.258
	c-26.984,3.305-41.252-9.543-48.682-37.426c-7.157-26.742-11.045-53.148-11.735-80.445c-0.271-10.371-1.462-21.793,7.27-29.203
	c57.237-48.648,87.271-121.5,152.372-164.969c64.987-43.375,122.514-98.215,183.125-148.238
	C1044.854,12909.566,1060.061,12853.258,1054.804,12810.031z"/>
<path fill="#FFFFFF" stroke="#00FFFF" stroke-width="10" stroke-miterlimit="10" d="M1335.982,2514.106
	c26.828-6.521,56.259,8.803,84.777,31.469c43.359,34.447,88.225,66.966,132.777,99.83c9.801,7.213,16.97,14.725,18.95,27.558
	c15.504,99.841,21.911,200.615,31.202,301.086c1.66,18.041-0.916,37.666,5.283,53.896c30.635,79.771-24.766,125.29-65.914,176.704
	c-5.989,7.498-15.151,8.944-24.402,9.564c-69.04,4.716-138.123,8.896-207.067,14.785c-24.912,2.126-41.29-7.769-55.225-27.118
	c-15.086-20.938-29.724-42.768-47.961-60.658c-25.313-24.815-9.896-34.787,12.182-43.221c17.854-6.846,36.127-13.854,54.842-16.972
	c30.167-5.029,32.597-20.068,25.195-46.813c-11.004-39.738-19.628-80.402-25.396-121.258c-3.405-24.054-12.107-32.976-36.072-34.586
	c-64.129-4.3-64.105-5.348-64.317-70.611c-0.134-45.447,3.599-91.291-1.046-136.252c-7.229-69.688,41.861-104.847,81.159-145.4
	C1273.011,2507.464,1301.507,2516.709,1335.982,2514.106z"/>
<path fill="#FFFFFF" stroke="#00FFFF" stroke-width="10" stroke-miterlimit="10" d="M800.545,11968.977
	c-7.946,31.922-2.568,70.664-44.523,86.922c-14.877,5.781-22.198,66.016-11.844,78.02c8.813,10.223,16.173,0.492,23.647-2.543
	c48.067-19.492,115.147-3.305,146.575,35.113c6.688,8.16,6.862,16.578,4.039,25.453c-2.726,8.555-5.576,17.43-10.291,24.918
	c-36.644,58.094-40.457,112.57-1.622,174.934c23.486,37.75-7.814,84.309-10.925,127.314c-0.856,11.949-17.763,12.043-29.464,6.367
	c-72.564-35.133-150.604-58.273-219.122-102.314c-10.262-6.605-28.303-11.098-18.303-27.633
	c22.882-37.789,0.295-56.211-28.273-68.832c-37.768-16.656-28.149-34.266,0.188-43.281c66.367-21.168,68.757-79.391,79.781-132.141
	c4.676-22.5-13.607-40.773-23.661-59.875c-24.357-46.234-6.924-82.484,44.276-84.719c31.416-1.363,40.979-21.84,50.347-44.906
	c6.259-15.426,17.259-22.621,33.039-20.254C799.168,11943.734,800.79,11955.762,800.545,11968.977z"/>
<path fill="#FFFFFF" stroke="#00FFFF" stroke-width="10" stroke-miterlimit="10" d="M1301.936,3792.168
	c-28.896,4.361-52.403-6.261-74.959-23.378c-26.615-20.199-55.589-37.246-81.599-58.146c-32.634-26.25-26.688-54.696,6.083-79.476
	c75.536-57.067,163.357-70.651,252.682-78.323c44.313-3.803,71.813-32.057,100.207-59.291
	c24.826-23.792,46.347-29.188,77.638-10.063c35.86,21.91,75.542,37.428,113.762,55.311c15.646,7.315,23.909,18.311,23.126,36.34
	c-0.741,17.011-10.007,28.937-25.079,29.627c-89.467,4.125-139.116,70.146-193.454,127.401
	c-27.088,28.552-55.462,46.745-95.459,48.253C1370.466,3781.726,1336.237,3788.06,1301.936,3792.168z"/>
<path fill="#FFFFFF" stroke="#00FFFF" stroke-width="10" stroke-miterlimit="10" d="M1333.098,11062.441
	c7.979,41.758-16.979,71.77-36.035,103.676c-10.604,17.734-23.522,34.148-32.97,52.434c-14.963,28.898-35.307,45.473-69.397,44.234
	c-34.089-1.23-51.775,14.75-46.978,52.125c3.919,30.336-15.306,42.359-41.451,43.836c-25.155,1.418-54.925,13.719-63.863-28.066
	c-9.456-44.207-31.604-78.422-81.451-84.305c-10.325-1.23-21.337-5.719-25.159-15.941c-13.438-36.137-29.615-71.98-37.006-109.496
	c-7.948-40.438,7.209-50.281,48.615-40.613c41.059,9.582,82.356,18.242,123.427,27.797c24.099,5.602,34.582-1.141,35.879-28.418
	c3.467-73.059,5.271-75.59,74.123-57.75c46.002,11.918,76.071-15.949,109.182-35.164c29.807-17.289,38.441-11.27,38.097,21.5
	C1327.924,11026.328,1331.321,11044.395,1333.098,11062.441z"/>
<path fill="#FFFFFF" stroke="#00FFFF" stroke-width="10" stroke-miterlimit="10" d="M2177.961,13358.199
	c3.473,1.238,8.102,1.488,10.434,3.922c34.785,36.59,79.868,64.789,85.143,123.711c4.771,53.328,11.737,104.105,61.52,142.395
	c34.646,26.641,46.18,76.215,65.653,116.824c4.591,9.566,2.455,21.75-5.02,29.238c-8.278,8.336-16.776-2.18-24.083-5.047
	c-64.309-25.152-127.521-53.27-192.416-76.711c-32.188-11.637-44.975-30.137-41.896-63.355c2.117-22.863,1.951-43.367-31.084-44.395
	c-21.659-0.672-32.671-18.535-34.229-40.375c-1.086-15.492-1.438-31.051-1.781-46.582c-1.88-83.188,16.929-109.555,96.628-135.777
	C2170.441,13360.875,2173.998,13359.582,2177.961,13358.199z"/>
<path fill="#FFFFFF" stroke="#00FFFF" stroke-width="10" stroke-miterlimit="10" d="M2358.496,13377.594
	c-1.998-42.09,55.425-90.469,96.072-82.363c7.479,1.496,15.385,3.711,22.758,2.773c49.373-6.316,80.451,14.906,96.063,62.164
	c2.731,8.215,8.623,20.02,15.049,21.582c63.07,15.289,124.207,50.016,192.121,22.469c13.797-5.602,29.854-19.25,41.438-2.766
	c11.698,16.605,30.046,34.652,14.818,59.52c-3.342,5.473-6.114,11.328-8.697,17.199c-28.622,65.066-28.448,64.41-96.294,47.664
	c-34.642-8.559-70.133-13.594-104.981-21.422c-22.406-5.055-49.808-5.945-65.402-19.762c-44.229-39.168-77.549-19.105-114.14,9.988
	c-21.583,17.168-47.701,45.289-73.266,32.414c-25.076-12.641-8.886-49.715-11.901-75.852
	C2359.316,13426.852,2359.582,13402.145,2358.496,13377.594z"/>
<path fill="#FFFFFF" stroke="#00FFFF" stroke-width="10" stroke-miterlimit="10" d="M3240.631,13218.207
	c0.687-15.859,1.473-27.496,1.639-39.121c0.35-23.816,11.261-35.535,35.539-34.957c28.135,0.672,56.352-1.355,84.412,0.32
	c49.577,2.977,96.623-3.891,140.576-28.723c11.572-6.559,26.238-19.598,37.024-2.98c9.001,13.914,21.178,28.785,12.248,49.809
	c-20.101,47.406-38.378,95.605-57.068,143.613c-5.806,14.969-18.437,24.172-28.582,11.539
	c-25.188-31.336-49.979-13.434-75.122-4.008c-20.007,7.48-42.167,27.156-59.938,17.973c-31.301-16.172-58.961-40.797-85.145-65.195
	C3232.128,13253.355,3242.657,13231.695,3240.631,13218.207z"/>
<path fill="#FFFFFF" stroke="#00FFFF" stroke-width="10" stroke-miterlimit="10" d="M1466.286,4384.056
	c-50.679,0.896-85.017-24.349-98.052-64.563c-5.441-16.689-1.627-29.525,9.986-42.387c32.826-36.34,64.024-74.176,97.115-110.237
	c41.612-45.36,115.153-46.011,159.646-3.207c7.761,7.483,7.828,14.603,5.647,24.315c-8.437,37.662-15.688,75.592-24.011,113.264
	c-2.518,11.34-5.643,24.635-16.228,29.96C1554.755,4354.11,1507.367,4372.638,1466.286,4384.056z"/>
<path fill="#FFFFFF" stroke="#00FFFF" stroke-width="10" stroke-miterlimit="10" d="M1198.427,2948.871
	c15.045,51.062-28.203,78.883-66.893,108.874c-26.382,20.419-38.049-8.148-54.814-18.63c-15.634-9.779-17.729-20.466-7.686-38.521
	c24.403-43.865,22.969-44.479-21.373-68.983c-26.921-14.853-53.078-31.142-80.414-45.155c-17.153-8.792-20.935-18.644-13.996-37.231
	c10.354-27.735,18.367-56.489,25.599-85.254c6.109-24.433,20.168-32.99,44.267-40.29c39.374-11.902,59.84-2.717,67.682,37.445
	c11.263,57.629,43.096,101.152,90.288,134.043C1196.3,2905.772,1202.101,2920.565,1198.427,2948.871z"/>
<path fill="#FFFFFF" stroke="#00FFFF" stroke-width="10" stroke-miterlimit="10" d="M5553.021,12031
	c-72.955-2.125-109.537-57.582-88.858-115.785c6.872-19.438,17.315-38.285,20.345-58.281c7.705-50.773,49.847-65.637,84.688-88.281
	c11.695-7.609,24.919-6.492,36.202,2.078c13.286,10.145,8.085,23.145,3.379,35.328c-9.353,24.129-19.792,47.836-28.388,72.219
	c-3.803,10.879-5.93,24.875,4.826,32.535c13.647,9.703,20.111-5.746,27.994-12.762c37.627-33.473,44.434-33.816,84.476-3.359
	c31.604,24.051,6.161,55.441,10.271,83.074c2.721,18.293-11.152,27-27.595,31.75
	C5634.492,12022.75,5587.719,12029.008,5553.021,12031z"/>
<path fill="#FFFFFF" stroke="#00FFFF" stroke-width="10" stroke-miterlimit="10" d="M421.883,11883.461
	c10.377-27,40.485-44.523,69.854-47.902c43.053-4.973,74.639-26.527,103.772-53.066c20.131-18.336,29.57-12.926,39.771,7.086
	c0.589,1.152,1.167,2.336,1.946,3.344c38.188,49.844,44.088,97.582-6.875,143.648c-10.121,9.16-15.621,23.492-23.592,35.207
	c-29.695,43.59-44.562,46.172-85.787,14.621c-8.248-6.297-16.063-13.074-27.153-12.707c-16.077,0.512-33.015,8.711-47.446-5.172
	C440.033,11962.441,421.445,11903.277,421.883,11883.461z"/>
<path fill="#FFFFFF" stroke="#00FFFF" stroke-width="10" stroke-miterlimit="10" d="M891.329,2513.438
	c52.31,29.268,108.471,35.365,163.616,45.58c2.189,0.41,4.853,2.531,5.876,4.584c16.979,33.957-14.798,54.265-22.882,81.207
	c-4.844,16.17-15.147,26.435-35.034,17.591c-11.493-5.1-25.147-5.059-37.001-9.58c-35.362-13.504-60.271-1.604-82.025,28.034
	c-14.466,19.76-70.771,27.271-91.529,15.677c-3.25-1.834-8.133-4.608-8.398-7.345c-3.669-37.351-13.575-80.031,5.438-110.317
	C810.735,2544.903,855.972,2534.159,891.329,2513.438z"/>
<path fill="#FFFFFF" stroke="#00FFFF" stroke-width="10" stroke-miterlimit="10" d="M835.13,11672.969
	c-27.793,8.773-40.172-9.879-48.479-31.188c-12.673-32.369-27.493-59.949-65.934-67.504c-19.835-3.91-25.939-25.367-29.068-42.164
	c-2.902-15.648,13.921-22.48,25.813-29.943c74.361-46.693,74.345-46.729,145.494,5.67c70.467,51.938,68.764,51.121,31.771,131.496
	C881.349,11668.395,864.308,11678.258,835.13,11672.969z"/>
<path fill="#FFFFFF" stroke="#00FFFF" stroke-width="10" stroke-miterlimit="10" d="M2536.73,13544.484
	c42.399,11.914,89.7,23.078,135.511,38.82c29.812,10.258,31.979,39.457,6.797,59.281c-27.231,21.488-55.499,41.699-82.596,63.348
	c-17.396,13.906-31.373,15.258-43.888-5.863c-20.779-35.172-49.334-52.285-92.077-47.094c-31.104,3.773-40.002-26.234-46.847-48.008
	c-7.463-23.836,17.985-23.18,32.097-29.031C2473.841,13564.266,2500.081,13547.082,2536.73,13544.484z"/>
<path fill="#FFFFFF" stroke="#00FFFF" stroke-width="10" stroke-miterlimit="10" d="M621.514,11351.801
	c-15.422-1.535-38.216,7.164-44.008-12.609c-7.434-25.496-11.947-56.152,7.204-78.074c42.356-48.527,87.144-94.973,132.433-140.75
	c20.356-20.57,48.496-12.965,73.437-11.473c14.919,0.887,12.823,11.957,6.479,22.848c-37.125,63.453-74.496,126.777-110.458,190.918
	C671.49,11349.613,649.74,11356.559,621.514,11351.801z"/>
<path fill="#FFFFFF" stroke="#00FFFF" stroke-width="10" stroke-miterlimit="10" d="M919.455,12672.746
	c2.229,19.66-7.234,23.941-17.311,27.316c-43.757,14.656-87.47,29.453-131.397,43.543c-17.729,5.676-29.219-1.117-35.077-19.73
	c-7.368-23.445-16.275-46.418-24.652-69.543c-9.771-26.84,30.412-78.23,57.926-72.453c35.021,7.391,69.799,16.246,104.303,25.875
	C908.429,12617.543,904.804,12654.832,919.455,12672.746z"/>
<path fill="#FFFFFF" stroke="#00FFFF" stroke-width="10" stroke-miterlimit="10" d="M3150.337,13659.191
	c-29.471-4.977-67.631,2.98-63.729-48.719c0.813-10.734-12.852-18.359-22.555-24.961c-32.931-22.34-65.587-45.117-98.697-67.172
	c-13.389-8.922-20.632-20.488-15.157-35.969c6.983-19.809,20.394-8.266,31.673-4.555c71.719,23.586,143.396,47.328,215.169,70.746
	c8.862,2.887,16.959,5.805,20.521,15.484C3228.011,13592.5,3179.77,13660.805,3150.337,13659.191z"/>
<path fill="#FFFFFF" stroke="#00FFFF" stroke-width="10" stroke-miterlimit="10" d="M1425.384,11623.086
	c-0.231,29.32-39.436,77.902-57.352,81.793c-9.329,2.023-14.079-3.891-19.273-9.609c-34.292-37.652-59.794-80.508-74.241-129.785
	c-7.739-26.395,5.188-39.395,29.043-43.992c23.818-4.59,47.898-7.828,71.799-12.008c15.352-2.695,31.563-1.758,32.115,17.004
	C1408.563,11563.18,1423.873,11596.992,1425.384,11623.086z"/>
<path fill="#FFFFFF" stroke="#00FFFF" stroke-width="10" stroke-miterlimit="10" d="M1335.076,3832.907
	c23.271-0.374,82.66,54.029,82.861,75.563c0.113,12.346-10.107,12.905-17.4,17.348c-23.524,14.342-42.799,49.987-68.105,42.59
	c-23.869-6.977-25.52-46.453-37.828-71.151C1275.029,3858.081,1291.281,3833.624,1335.076,3832.907z"/>
<path fill="#FFFFFF" stroke="#00FFFF" stroke-width="10" stroke-miterlimit="10" d="M3164.943,13331.441
	c-1.251,15.281-8.573,16.094-19.109,14.314c-15.106-2.559-30.436-4.078-45.74-5.016c-57.104-3.551-72.248-18.27-77.403-74.539
	c-1.029-11.262,2.864-16.727,12.829-20.117c33.039-11.242,90.541,11.707,107.016,42.988
	C3150.343,13303.852,3158.134,13318.594,3164.943,13331.441z"/>
<path fill="#FFFFFF" stroke="#00FFFF" stroke-width="10" stroke-miterlimit="10" d="M2987.355,13667.086
	c-9.976,20.766-28.035,37.426-48.077,50.477c-18.564,12.09-27.409-8.395-36.124-18.82c-12.521-14.938-41.52-23.926-34.662-45.77
	c7.747-24.734,38.488-26.051,60.547-34.488C2942.386,13613.359,2987.959,13650.766,2987.355,13667.086z"/>
<path fill="#FFFFFF" stroke="#00FFFF" stroke-width="10" stroke-miterlimit="10" d="M2542.797,3448.837
	c12.283-20.907,29.285-38.191,42.551-58.286c4.325-6.553,12.348-28.215,13.681-42.215c0.667-33.333-77.246-83.219-77.246-83.219
	l-14.271-11.226c-31.372-24.711-64.245-50.705-96.135-76.011l-12.152-9.642c-36.789-29.217-71.771-57.109-100.829-80.426
	c-6.112-4.908-11.375-12.242-15.594-20.496l-5.904-14.104c-2.52-7.678-4.145-15.505-4.604-22.62
	c-7.22-113.009-12.482-226.213-14.673-339.423c-0.347-17.783,15.229-39.155,29.08-53.162c18.645-18.867,27.021-36.918,24.386-64.15
	c-9.453-97.311-16.009-194.907-24.981-292.261c-3.14-34.095,10.914-48.329,41.32-36.8c49.727,18.852,87.779,2.577,123.725-31.193
	c15.752-14.807,33.22-28.535,51.877-39.24c12.2-7.008,23.646-14.582,34.724-22.424l16.518-12.227
	c96.367-75.371,149.406-182.951,191.472-298.505c4.713-12.938,3.229-29.651,0.353-43.716
	c-15.446-75.365-37.063-149.807-46.89-225.849c-6.747-52.18,30.351-93.378,63.646-129.184
	c87.784-94.359,207.012-125.19,325.239-155.832l107.774-33.28c33.056-9.984,66.293-19.459,99.063-30.383
	c121.64-40.551,243.142-81.459,364.586-122.545c33.167-11.224,60.882,7.311,87.978,19.012c38.394,16.571,72.92,15.094,111.136,0.592
	c52.612-19.952,106.837-35.583,160.523-52.571c13.83-4.377,27.482-2.368,41.195,3.61c74.063,32.309,149.086,62.496,222.217,96.851
	c24.771,11.646,45.271,11.301,69.56,2.892c141.752-49.021,283.931-96.811,425.679-145.898c16.875-5.844,31.022-4.791,48.033-0.313
	c61.729,16.273,119.903,46.104,185.362,48.981c21.147,0.925,25.49,23.284,33.153,39.267c33.606,69.78,33.237,66.906,110.565,59.508
	c118.692-11.356,237.742-19.739,356.772-26.352c58.926-3.276,117.823-6.607,176.722-9.618
	c44.576-2.287,80.871-22.608,117.646-43.531c60.348-34.322,120.211-69.595,180.705-103.609
	c21.918-12.327,38.717-28.219,51.684-50.283c53.912-91.769,113.717-179.084,191.777-252.204
	c32.436-30.396,48.494-65.736,45.854-113.385c-3.809-68.6,1.66-137.671,0.646-206.5c-0.588-39.747,9.748-71.266,45.438-91.527
	c6.604-3.763,12.065-9.639,18.071-14.506c54.237-43.891,53.94-43.759,82.371,22.861c56.81,133.16,112.875,266.662,171.396,399.035
	c29.951,67.705,74.967,126.979,115.848,188.027c25.752,38.529,32.475,75.661,18.063,116.595
	c-16.059,45.538-10.283,81.813,33.771,105.557c100.711,54.281,120.097,159.441,154.438,254.193
	c53.721,148.187,106.32,296.87,154.635,446.921c18.846,58.536,51.846,101.621,96.227,140.916
	c59.875,52.982,115.729,110.55,174.729,164.528c22.834,20.886,34.688,43.732,32.074,74.8c-3.006,35.341,10.771,62.713,39.063,83.845
	c18.543,13.838,33.604,33.42,53.479,44.343c67.498,37.073,86.979,101.595,99.111,170.347
	c11.234,63.966,35.078,117.346,84.539,163.961c139.92,131.862,274.541,269.503,412.16,403.934
	c27.336,26.726,42.725,55.313,44.596,94.914c1.924,41.108,13.957,81.629,17.752,122.765c4.223,45.332,31.813,73.116,65.479,95.166
	c56.459,37.021,83.077,84.159,79.209,155.273c-4.139,76.843,18.962,145.054,80.844,200.479
	c41.977,37.631,88.853,75.649,107.964,134.108c1.196,3.705,3.628,7.287,3.75,10.991c2.595,82.089,51.989,131.02,116.642,169.263
	c25.332,14.979,36.313,35.574,36.523,66.98c0.258,38.653,8.676,77.211,12.762,115.899c1.738,16.59,12.188,26.279,24.844,32.275
	c95.363,45.288,147.934,125.234,184.609,221.632c13.703,35.979,21.359,67.167,6.961,103.881
	c-13.227,33.69-13.387,67.237,7.613,100.265c17.977,28.272,31.344,59.524,47.027,89.321l31.371,119.362
	c11.844,53.145,52.031,75.328,87.777,102.176c26.418,19.813,35.75,36.998,19.023,66.779
	c-25.766,45.818-17.523,96.282-15.207,144.984c5.652,119.26,18.484,238.121,16.734,357.797c-0.906,61.826,14.75,118.004,64,159.557
	c36.672,30.958,51.152,69.607,53.777,118.316c5.891,108.739,16.852,217.198,26.844,325.672c2.609,28.24-4.32,51.025-25.527,69.418
	c-44.32,38.445-56.746,88.537-59.879,145.899c-3.367,61.829-15.359,123.206-24.781,184.612c-2.418,15.728-4.461,29.586,2.961,45.094
	c27.32,57.17,52.852,115.256,80.035,172.52c6.367,13.381,11.02,25.85,7.816,40.816c-20.957,97.994-30.68,197.355-33.965,297.381
	c-0.727,21.924-9.574,38.02-26.926,48.533c-47.629,28.869-78.305,68.883-89.199,124.965c-3.641,18.789-13.398,36.361-29.324,49.18
	c-12.809,10.345-17.406,24.477-18.234,41.133c-3.711,75.158-6.189,150.518-13.184,225.42c-4.309,45.904,15.18,81.207,40.215,113.842
	c30.105,39.229,44.055,83.813,41.418,130.742c-3.648,65.602,15.793,119.549,60.492,165.403
	c28.465,29.242,31.891,57.166-1.953,84.955c-5.844,4.766-9.527,12.166-14.383,18.207c-59.314,73.271-59.332,73.271-4.52,151.262
	c6.691,9.504,13.441,18.963,20.445,28.246c45.781,60.848,110.496,66.408,165.379,12.521
	c61.707-60.605,121.973-122.723,183.211-183.817c11.289-11.266,24.121-34.854,39.332-22.49
	c18.477,15.01,47.664,25.422,47.457,57.688c-0.078,16.895-0.008,33.775-0.008,58.206c18.84,44.955-18.68,76.584-44.914,110.83
	c-29.814,38.918-45.574,80.352-40.027,129.77c3.207,28.568-3.336,53.68-26.387,73.363c-14.125,12.051-24.059,29.215-24.047,47.508
	c0.031,56.189-15.582,110.59-17.316,166.227c-2.453,78.51-26.363,152.936-38.117,229.605
	c-21.391,139.449-81.914,266.27-124.797,398.791l-23.285,65.273c-4,10-5.117,20.922-1.406,30.035
	c15.324,37.516,40.727,68.93,62.547,102.391c12.281,18.836,13.035,34.074,1.957,53.605c-19.363,34.064-8.406,106.424,18.535,136.832
	c15.77,17.828,16.262,26.697-0.805,44.113c-12.52,12.758-9.352,28.535-11,43.281c-6.824,60.734-15.508,72.447-73.73,86.773
	c-47.742,11.727-78.93,37.863-110.055,79.305c-62.582,83.297-68.189,175.766-68.969,271.668
	c-0.207,26.582-9.027,45.189-30.676,57.961c-26.316,15.559-47.109,35.395-56.184,65.908c-5.723,19.232-18.879,29.463-38.211,40.129
	l-72.598,41.467c-29.602,17.506-41.859,39.586-34.504,73.496c7.359,34.047,11.203,69.137,21.5,102.207
	c8.16,26.297,5.344,46.045-10.367,68.5c-43.727,62.406-85.531,126.211-127.328,189.996c-12.184,18.645-26.934,28.066-49.441,31.691
	c-47.934,7.77-95.32,19.379-142.863,29.689c-29.31,6.359-45.938,31.922-69.009,47.773c-11.524,7.91-6.175,14.547,2.248,21.047
	c9.214,7.184,18.144,15.305,20.597,27.344c4.786,23.43,17.504,48.605-2.414,69.734c-22.504,23.832-77.516,32.77-101.249,19.914
	c-13.65-7.367-29.183-24.664-40.249,1.996c-8.406,20.172-19.796,43.945,13.803,52.75c35.584,9.301,41.99,42.766,57.597,68.457
	c4.993,8.242,1.787,19.02-7.876,23.109c-16.953,7.176-32.151,24.594-53.283,13.023c-16.891-9.258-34.242-18.273-49.364-30.064
	c-22.683-17.645-45.823-17.387-72.528-12.191c-31.182,6.109-45.942,18.859-46.67,53.668c-1.123,54.32-32.375,72.539-82.465,53.902
	c-16.434-6.105-16.977-19.797-20.789-33.82c-16.307-59.551-14.487-122.721-34.908-181.637
	c-76.273,35.814-76.244,35.803-110.537-45.828c-5.418-12.939-11.266-25.74-19.647-44.902c-8.758,29.189-17.722,51.559-21.83,74.805
	c-5.629,31.711-22.883,43.014-51.692,34.471c-29.922-8.844-43.392,4.881-56.816,29.998c-23.707,44.297-36.955,86.969-12.771,135.965
	c10.526,21.391,6.147,45.064-2.094,68.168c-12.592,35.213-22.068,71.572-33.938,107.051c-2.996,8.926-3.824,22.949-17.396,22.5
	c-10.404-0.369-11.404-12.324-16.236-19.652c-54.811-83.027-46.529-173.797-24.295-262.41c7.484-29.881,10.021-59.072,10.154-88.213
	l-29.307-12.428c-14.496,12.73-26.32-3.117-37.75-9.246c-47.188-25.254-47.117-25.828-77.432,19.523
	c-47.021,70.289-36.814,54.357-95.166,19.535c-40.609-24.197-74.729-54.203-99.727-94.764c-9.898-16.08-23.064-25.537-43.25-28.146
	c-52.48-6.854-93.643-40.016-138.002-65.375c-11.881-6.754-10.875-19.252-12.402-30.898c-5.854-44.822-12.4-89.543-19.666-141.209
	c-30.854,31.037-57.674,58.611-85.232,85.482c-13.389,13.035-16.604,27.719-4.297,41.129
	c59.938,65.293,73.289,145.164,73.027,229.824c-0.104,30.803,13.088,54.723,38.283,72.359c10.463,7.326,23.049,16.408,17.814,31.17
	c-4.85,13.758-19.627,9.039-30.646,9.521c-20.521,0.912-41.076,1.203-61.604,1.734c-57.688,1.504-64.166,0.928-70.271-56.018
	c-6.195-58.021-43.801-89.686-82.02-121.229c-37.5-30.914-148.035,9.949-160.477,56.494c-5.195,19.369,12.053,30.246,17.9,45.473
	c4.023,10.432,16.904,18.738,10.473,31.49c-6.967,13.787-20.684,7.07-31.363,6.223c-29.082-2.357-55.248,3.016-80.225,19.852
	c-39.48,26.541-80.566,50.639-120.934,75.785c-13.449,8.355-28.359,15.9-14.85,35.928c10.102,14.93,16.352,26.959,41.662,22.33
	c49.818-9.141,87.318-35.846,120.146-70.512c32.215-33.969,70.521-23.648,108.16-21.334c11.459,0.695,17.442,11.129,20.763,20.982
	c11.069,33.006,22,66.121,31.429,99.654c4.976,17.572-9.729,25.441-21.515,32.807c-39.269,24.547-79.041,48.285-118.392,72.699
	c-14.301,8.875-25.369,18.684-28.062,38.654c-11.401,84.602-25.019,168.939-37.813,253.369c-1.365,8.975-4.854,18.172-3.869,26.867
	c2.271,19.93,10.25,43.508,27.576,47.961c18.619,4.832,33.074-15.457,40.81-33.49c7.631-17.725,15.696-35.588,16.426-55.689
	c0.291-7.787,2.658-16.719,12.746-15.953c6.978,0.523,9.043,7.898,11.252,14.203c25.071,72.203,12.787,114.633-47.252,161.65
	c-17.246,13.521-34.354,27.275-52.278,39.816c-23.258,16.271-16.006,26.451,4.254,38.635c47.039,28.254,46.653,28.875,16.076,75.383
	c-4.267,6.492-8.313,13.125-12.547,19.633c-42.437,65.711-65.547,70.508-129.758,24.668c-28.744-20.529-22.338-56.945-29.47-85.303
	c-8.002-31.832-20.604-40.488-49.295-38.072c-26.199,2.209-51.951,1.625-65.813-27.789c-9.758-20.684-9.476-34.258,18.104-37.121
	c34.319-3.543,67.144-15.523,102.106-17.711c27.224-1.703,58.569-41.17,53.957-61.414c-4.197-18.412-52.226-57.266-72.375-56.809
	c-16.597,0.371-33.142,3.211-49.625,5.453c-12.783,1.734-25.69,5.236-36.095-6.109c-12.862-14.012-34.248-25.273-31.979-45.898
	c2.115-19.035,26.444-16.766,40.394-24.496c18.396-10.168,50.149-11.41,53.25-29.609c2.646-15.59-29.231-24.199-44.022-38.176
	c-0.937-0.893-2.039-1.574-3.104-2.285c-20.283-13.516-41.705-39.367-60.603-37.609c-27.584,2.582-14.824,41.154-26.606,62.029
	c-13.842,24.521-55.248,41.771-80.42,27.947c-15.483-8.504-7.455-18.904-2.449-29.488c33.192-70.09,33.127-70.125-42.244-70.125
	c-95.948-0.012-97.442-0.434-123.812,92.695c-10.115,35.621-28.291,52.859-64.312,53.383c-32.063,0.465-64.14,1.814-96.146,4.016
	c-25.096,1.717-36.18-17.977-49.342-32.609c-19.43-21.605-40.436-35.398-70.377-30.434c-30.633,5.07-50.996-6.977-63.768-36.027
	c-8.826-20.043-21.064-38.59-32.26-57.477c-6.457-10.824-10.658-23.064-2.373-32.742c18.957-22.211,16.418-48.326,16.111-73.973
	c-0.588-50.879,7.109-100.941,12.729-151.227c2.014-17.861,5.104-35.699-3.893-64.732c-16.629,19.51-28.938,35.217-42.578,49.592
	c-12.441,13.113-24.318,15.668-38.396-1.102c-21.086-25.049-79.688-30.564-104.734-12.363c-12.102,8.785-2.189,16.133,2.021,22.836
	c16.431,26.314,32.397,53.055,50.75,77.988c15.351,20.875,11.744,34.158-12.396,38.695c-59.438,11.18-117.815,41.689-180.041,11.82
	c-18.224-8.758-31.832-1.162-42.769,14.684c-10.957,15.988-24.265,30.469-34.185,47.039c-15.565,26.023-36.028,38.746-66.836,35.168
	c-10.179-1.18-30.067-5.256-29.271,8.27c1.155,19.754,11.797,39.283,20.092,58.125c5.644,12.77,17.328,8.488,27.004,4.973
	c8.388-3.031,16.112-8.006,24.426-11.332c41.058-16.48,69.213-4.742,89.774,34.57c9.254,17.666-5.313,29.387-6.746,44.246
	c-2.42,24.855-6.526,52.207-26.377,67.324c-43.416,33.096-49.569,70.977-26.644,118.352c15.74,32.555,10.258,77.965,60.147,88.838
	c12.595,2.732,21.901,20.939,32.61,32.154c42.521,44.506,42.467,44.449,95.338,11.836c5.399-3.314,11.597-7.281,17.487-7.406
	c61.483-1.332,122.994-6.676,184.287,3.746c19.103,3.25,28.254,16.898,14.707,28.676c-52.545,45.592-18.485,94.402-5.024,139.352
	c9.426,31.332,8.332,53.047-17.485,70.965c-36.162,25.109-35.319,53.785-13.84,88.422c7.53,12.133,24.903,32.262,0.953,41.881
	c-18.515,7.42-43.795,11.061-58.033-14.174c-10.026-17.842-16.033-46.012-30.444-51.422c-20.795-7.781-28.146,24.27-44.092,36.033
	c-27.554,20.33-61.479,15.834-74.483-15.229c-21.615-51.715-59.013-98.609-52.283-160.055c0.992-9.09-1.758-23.223-10.994-21.814
	c-28.797,4.418-57.894,10.5-85.237,20.5c-19.563,7.137-12.205,28.988-13.533,45.09c-0.976,11.625-0.631,23.367-0.81,35.066
	c-0.326,22.383,0.922,47.07-26.291,54.355c-27.726,7.441-57.793,19.195-79.666-13.922c-5.688-8.564-12.535-16.957-20.537-23.121
	c-33.326-25.672-32.834-51.102-2.435-78.887c15.615-14.297,25.144-32.785,6.237-50.328c-23.97-22.203-30.408-50.18-31.854-80.434
	c-1.107-22.996-9.342-39.289-31.842-48.012c-24.148-9.395-33.166-27.512-33.41-54.762c-0.451-50.555-3.891-101.207-8.854-151.535
	c-2.9-29.371,9.176-43.473,35.695-41.926c38.213,2.23,48.68-17.184,62.701-51.004c23.107-55.625,10.828-96.547-25.014-137.434
	c-10.17-11.602-18.164-18.672-35.652-11.105c-24.529,10.633-52.051,14.305-76.414,25.199c-21.193,9.473-33.037,0.766-47.268-12.469
	c-14.287-13.344,9.182-70.465-19.484-72.465h-24c-30,3-25.973,58.961-7.162,87.84c10.68,16.367,29.713,32.426,22.703,55.402
	c-8.896,29.172-30.182,39.689-60.855,43.012c-27.559,2.996-39.68-7.25-50.914-29.07c-23.773-46.238-34.521-52.402-70.246-15.375
	c-65.107,67.539-138.445,59.758-217.088,41.59c-19.297-4.457-28.188-15.824-35.148-31.789
	c-10.811-24.797-29.623-22.703-51.615-18.266c-23.75,4.789-27.078,19.836-26.563,39.793c0.518,19.469-2.039,39.258,0.549,58.395
	c5.215,38.797-1.148,72.582-26.941,99.582l10.604,12.164c11.605,0.531,23.213,1.004,34.826,1.027
	c20.105,0.047,34.924,6.344,39.84,28.195c4.682,20.781,18.908,31.793,39.033,30.09c37.479-3.176,67.527,12.633,94.494,35.465
	c22.117,18.711,41.408,18.773,65.293,2.414c24.271-16.637,50.555-31.223,77.703-42.262c31.453-12.797,33.596-33.781,19.438-58.227
	c-19.018-32.805-3.439-46.439,24.51-58.277c20.279-8.594,33.146-5.137,36.184,17.52c7.6,56.586,33.299,96.199,92.525,106.828
	c9.121,1.625,16.057,7.512,20.371,16.336c12.621,25.691-0.105,107.422-20.193,128.535c-2.654,2.797-5.432,5.496-8.145,8.262
	c-67.018,67.566-73.627,140.906-9.51,213.059c42.32,47.59,42.379,109.531,69.721,161.852c30.461,58.277,25.848,60.689,6.043,126.824
	c-5.926,19.785-12.711,39.453-16.604,59.676c-4.584,23.879-7.84,48.863-38.465,49.223c-33.004,0.398-70.004,12.172-90.269-31.289
	c-12.459-26.785-28.658-52.398-46.688-75.762c-17.685-22.934-6.543-31.926,12.961-39.715c19.045-7.613,38.586-13.941,57.578-21.684
	c62.006-25.316,76.015-79.465,34.674-132.766c-7.138-9.189-14.351-18.293-21.076-27.777c-36.758-51.887-36.901-52.391-94.394-27.234
	c-13.426,5.871-24.274,4.504-36.379-1.793c-18.209-9.508-37.326-17.324-55.088-27.594c-33.631-19.434-66.494-25.219-105.474-12.738
	c-25.021,8.031-31.744,19.91-26.685,41.207c8.672,36.66,8.117,75.664,19.19,110.578c14.306,45.215,1.604,84.027-10.459,124.699
	c-6.854,23.191-18.295,35.094-40.606,13.902c-30.838-29.246-61.955-31.848-94.731-2.215c-19.731,17.82-26.287,6.609-26.142-14.582
	c0.396-59.719,1.11-119.441,0.992-179.148c-0.041-18.793,10.502-31.484,21.146-44.367c52.383-63.191,53.729-113.07,3.924-181
	c-31.307-42.711-61.813-86.195-95.541-126.902c-21.938-26.5-26.16-48.133-7.127-79.277c12.365-20.266,26.477-40.086,36.723-61.902
	l-8.375-12.227c-28.637,28.035-30.684,24.582-50.73-19.277c-8.209-17.973-17.502-33.348-39.699-27.77
	c-28.695,7.215-68.248-16.488-84.479,26.238c-10.682,28.148-31.525,41.629-55.533,55.609
	c-69.692,40.672-141.861,65.602-223.468,47.809c-2.88-0.621-6.559,2.441-12.996,5.074c25.263,29.578,48.888,57.953,73.356,85.504
	c9.318,10.441,19.021,22.801,8.027,33.789c-23.412,23.27-14.199,48.418-7.45,72.82c8.212,29.555,4.629,53.848-21.118,72.277
	c-22.862,16.375-18.763,33.543-2.455,51.941c30.641,34.598,53.209,72.91,51.635,121.527c-0.777,23.824,15.408,33.949,32.99,43.121
	c43.264,22.543,85.867,46.559,130.082,67.031c27.75,12.867,46.043,30.977,54.539,60.625c6.775,23.609,15.813,46.551,23.434,69.922
	c22.1,67.488-9.818,112.051-81.154,109c-37.51-1.605-62.668,4.867-74.866,46.707c-12.276,42.035-33.42,81.34-49.505,122.324
	c-9.844,24.969-26.359,42.039-52.033,46.91c-29.27,5.523-37.668,24.336-35.791,50.578c3.104,43.422-17.152,69.227-57.744,78.684
	c-35.346,8.223-59.869,26.027-68.063,63.879c-4.269,19.672-12.541,35.898-38.146,35.492c-24.95-0.387-35.729-13.617-44.924-34.656
	c-16.522-37.867-34.927-74.949-53.918-111.617c-10.724-20.699-10.571-36.754,11.112-49.043
	c18.476-10.488,12.689-18.969-2.338-26.617c-40.112-20.367-80.354-40.434-120.163-61.34c-16.229-8.508-31.941-5.82-48.646-2.766
	c-51.739,9.449-103.633,18.047-155.506,26.727c-27.429,4.605-43.216-2.27-53.135-33.93c-23.603-75.555-27.876-77.402,35.35-121.73
	c49.787-34.879,79.422-77.91,85.621-138.801c1.941-19.238,7.734-42.336,24.86-51.047c76.62-38.906,111.494-111.594,149.595-182
	c9.152-16.883,22.243-24.707,40.992-21.754c17.791,2.814,30.941,10.566,34.891,30.715c2.196,11.25,11.111,21.582,11.761,32.645
	c1.735,29.699,19.95,31.367,42.59,31c23.937-0.406,41.983-0.094,51.866-31.629c16.662-53.027,37.771-103.305,38.372-161.168
	c0.399-39.32-29.813-44.066-48.693-62.535c-16.683-16.352-33.315-10.543-48.36,1.137c-42.347,32.887-88.076,38.672-137.603,20.461
	c-19.003-7.004-34.23-1.064-49.259,11.961c-42.886,37.156-88.158,71.621-129.537,110.395
	c-25.486,23.883-50.336,26.434-80.729,15.219c-59.729-22.02-59.897-21.582-98.44,26.465c-38,47.367-77.121,93.879-113.493,142.488
	c-18.061,24.141-38.064,36.094-68.259,33.711c-25.522-2.035-51.373,0.59-76.991-0.652c-24.656-1.203-35.949,9.031-24.575,31.793
	c13.875,27.773,6.3,49.664-10.648,71.223c-26.795,34.082-9.949,70.564-2.431,104.449c5.116,22.941,4.733,38.242-16.311,48.133
	c-59.518,27.977-69.229,77.633-50.759,132.996c26.075,78.273-31.425,122.367-63.77,176.939
	c-6.255,10.574-18.688,11.855-30.968,4.977c-13.359-7.523-28.433-12.117-41.323-20.328c-20.2-12.875-32.422-8.035-41.362,13.484
	c-23.422,56.191-29.313,52.164-85.271,36.137c-23.383-6.668-47.892-9.477-71.043-16.758
	c-78.752-24.781-127.871-106.156-118.88-189.289c5.182-47.684,5.311-95.828,15.825-143.035
	c5.334-23.895-10.289-44.939-13.461-68.094c-4.834-35.406-13.332-70.305-21.621-112.121c-24.479,34.43-55.709,58.82-50.326,100.742
	c17.093,133.031-29.364,248.543-91.147,361.414c-17.263,31.512-36.137,48.668-71.771,43.16c-25.585-3.957-42.27,8.395-51.463,30.926
	c-19.393,47.688-48.417,81.188-104.292,80.43c-7.212-0.102-18.108,2.508-21.197,7.629c-30.731,50.883-79.286,92.91-79.413,159.32
	c-0.061,35.09,0.578,70.16,0.318,105.246c-0.188,23.777-9.948,35.813-33.646,22.168c-31.233-17.977-58.879-12.102-84.975,10.059
	c-14.865,12.625-31.615,16.801-50.318,11.883c-14.006-3.684-25.777-12.602-18.709-27.645c16.211-34.391,6.603-65.551-6.274-97.359
	c-31.552-78.059-30.466-162.691-47.365-243.738c-4.829-23.227-12.349-37.004-37.099-47.258
	c-50.942-21.145-64.203-77.594-93.627-118.867c-6.135-8.637,4.723-19.117,9.703-28.027c13.256-23.668,24.227-49.09,40.281-70.621
	c19.701-26.426,14.195-40.535-11.988-58.254c-31.066-21.016-61.676-36.355-99.791-30.805c-35.776,5.188-65.131-9.449-91.76-31.332
	c-74.689-61.398-149.88-121.816-241.688-156.207c-20.049-7.512-35.393-21.027-39.626-43.773
	c-13.587-73.215-54.332-141.52-41.329-219.41c10.257-61.426,30.422-120.332,52.207-178.371c9.223-24.543,34.842-27.941,51.889-6.051
	c25.654,32.969,50.938,64.121,55.717,111.73c6.715,66.773,41.603,127.215,61.574,191.344c0.733,2.363,2.454,4.551,4.104,6.508
	c22.271,26.535,169.928,63.125,202.063,50.031c4.759-1.926,9.415-4.176,13.925-6.641c62.043-33.824,114.223-34.09,164.323,28.371
	c32.298,40.246,90.289,46.063,136.777,67.27c10.565,4.824,19.538-1.793,27.067-9.926c26.363-28.391,52.916-56.586,79.427-84.867
	c17.396-18.586,8.313-27.805-11.818-30.223c-17.797-2.137-31.268-10.336-43.229-22.875
	c-84.344-88.242-185.313-156.016-280.313-230.965c-34.723-27.367-81.302-29.035-122.276-42.957
	c-14.685-4.984-29.406-9.098-42.237-17.906c-42.782-29.375-38.876-31.988-11.987-76.641c26.645-44.242,58.743-58.758,107.162-50.781
	c25.064,4.121,51.256,1.906,76.896,1.527c18.637-0.273,42.433,3.605,45.309-23.344c2.83-26.449-29.652-51.961-56.528-47.359
	c-31.641,5.41-63.285,10.902-94.668,17.488c-22.096,4.637-39.608,0.734-54.762-17.84c-11.319-13.875-27.138-23.945-39.047-37.453
	c-26.687-30.301-57.201-36.598-93.313-19.535c-9.082,4.289-20.52,10.168-28.039-0.645c-7.529-10.875,3.452-19.02,8.751-27.344
	c41.779-65.602,41.819-65.578-24.368-104.375c-55.804-32.684-55.496-32.266-111.185,9.645c-14.042,10.59-29.87,38.109-46.756,18.852
	c-12.8-14.625-17.504-47.828-3.592-65.879c26.028-33.719,42.373-84.18,100.339-77.355c13.384,1.578,21.473-6.461,22.859-20.613
	c1.697-17.262,12.761-22.891,28.437-26.004c53.58-10.648,63.501-3.297,56.67,51.172c-3.307,26.395-2.271,44.02,30.033,42.863
	c7.723-0.27,15.419,3.273,18.469,11.594c4.175,11.387-1.768,29.383,15.248,32.273c26.44,4.473,53.661,9.262,80.116,7.473
	c30.646-2.066,56.35-41.43,67.1-74.359c17.254-52.848,7.84-98.23-20.744-143.289c-22.252-35.039-17.483-77.742-25.891-116.59
	c-7.533-34.969-12.333-71.324-16.957-107.172c-3.232-25.027-12.824-37.715-36.479-41.672c-9.852-1.641-22.563-2.105-24.479-14.801
	c-1.727-11.457,10.318-12.98,17.84-17.258c2.215-1.266,4.654-2.602,6.214-4.535c17.021-21.262,54.356-29.766,49.578-63.949
	c-4.418-31.613-38.589-28.66-60.848-38.652c-32.929-14.781-43.341-71.82-17.201-96.625c8.798-8.363,15.841-3.211,23.948,1.621
	c15.459,9.207,30.791,19.281,47.416,25.758c47.764,18.563,75.008,47.137,56.574,102.824c-6.9,20.844,7.37,30.586,22.875,39.105
	c17.615,9.688,25.248-3.277,34.588-14.258c43.908-51.605,50.364-135.109-1.275-175.559
	c-102.049-79.926-141.639-198.109-199.838-304.84c-19.398-35.582-39.066-56.34-79.646-47.984
	c-39.213,8.059-57.382-22.656-80.248-43.918c-10.751-9.961-3.145-21.102,3.245-31.457c20.353-33.051,40.194-66.398,60.188-99.691
	c7.717-12.828,17.986-22.535,33.229-23.918c33.208-2.988,50.914-21.859,64.55-52.184c37.082-82.559,77.492-163.564,116.396-245.266
	c16.226-34.064,7.174-68.477,0.758-102.863c-4.403-23.582-20.228-52.281,0.423-69.496c17.855-14.891,44.49-7.363,50.49-31.363
	l4-21.332c3.333-25.332,1.794-36.5,18.757-67.285c57.685-104.754,142.188-172.613,251.177-216.238
	c39.17-15.711,73.225-32.848,116.072-15.664c21.573,8.664,41.156-1.254,58.334-19.164c23.864-24.891,42.639-66.496,75.053-68.344
	c31.385-1.793,59.022,32.316,87.971,51.242c1.959,1.289,4.709,1.328,15.515,4.129c-11.649-55.934-21.871-107.426-33.377-158.613
	c-3.302-14.605-17.245-13.191-28.765-13.375c-109.146-1.672-218.144,2.371-327.012,9.387c-17.939,1.16-33.496,1.613-44.759-13.949
	c-21.915-30.418-42.971-61.477-64.933-91.844c-10.165-14.09-3.807-23.699,6.116-33.711
	c76.938-77.879,134.804-169.707,187.204-265.195c18.389-33.496,50.666-44.66,81.824-52.918
	c52.879-14.055,87.914-43.953,105.439-95.586c16.236-47.805,48.686-66.52,97.82-58.992c15.053,2.328,31.156,2.641,46.107-0.008
	c90.16-15.93,159.039,19.078,215.19,88.156c10.289,12.664,21.468,26.043,42.838,33.055c0-50.012,1.793-98.418-0.775-146.594
	c-1.237-23.348-25.122-28.383-43.145-32.723c-45.061-10.789-83.957-30.689-113.05-68.012c-9.629-12.336-30.136-20.336-17.871-41.66
	c11.841-20.668,17.992-47.211,48.36-50.051c35.741-3.324,71.421-7.477,107.173-10.844c15.584-1.439,32.304-1.004,36.205-21.281
	c5.357-27.914,24.854-38.871,48.563-49.508c65.279-29.238,129.445-60.949,206.809-70.16c-13.39-14.822-24.059-11.094-33.133-11.156
	c-51.356-0.398-102.967,3.059-154.012-1.121c-48.213-3.914-85.223,12.176-115.586,47.555
	c-17.508,20.406-37.871,26.477-64.588,25.184c-97.373-4.707-194.875-7.699-292.346-9.82c-31.629-0.68-48.018-10.734-44.471-45.738
	c2.221-21.84,0.026-44.139,0.416-66.201c0.229-13.881-4.293-24.363-14.554-34.211c-28.002-26.912-17.03-66.861,21.983-78.129
	c60.215-17.398,121.029-32.717,181.338-49.9l14.771-3.381c20-6.668,79.332-28.668,38.666-52.668l-18.439-9.336
	c-96.732-40.418-100.971-130.74-120.672-213.42c-3.24-13.596-2.907-28.727-1.063-42.699c4.802-36.199-10.506-52.775-44.707-63.721
	c-44.718-14.299-69.557-56.821-96.722-91.424c-30.108-38.379-61.458-47.504-106.681-37.725
	c-37.307,8.066-76.401,7.893-114.772,10.588c-11.204,0.799-26.049,2.236-29.018-12.332c-3.049-15,11.514-18.833,22.226-21.925
	c28.334-8.289,56.645-17.078,85.576-22.251c20.635-3.686,25.393-13.057,21.303-31.859c-6.85-31.636-8.589-65.232-20.551-94.668
	c-16.21-39.901-1.563-64.903,28.287-85.768c26.132-18.313,28.354-36.52,12.896-65.175c-29.406-54.524-53.104-112.198-81.391-167.34
	c-12.729-24.788-8.268-40.745,12.883-56.413c21.707-16.088,41.099-35.443,63.094-51.074c26.773-18.98,33.174-33.464,2.761-57.488
	c-45.394-35.918-85.902-78.188-130.924-114.654c-30.983-25.098-27.103-43.973-0.39-68.305
	c26.638-24.277,49.729-52.578,76.203-77.104c18.772-17.406,19.747-31.236,4.805-52.545
	c-45.264-64.514-87.725-131.096-132.625-195.918c-13.266-19.135-19.416-38.186-18.709-61.396
	c3.318-110.349,5.619-220.692,8.468-331.043c0.616-24.002-32.517-72.504-53.281-77.842c-13.868-3.537-13.932,8.492-17.354,15.692
	c-21.551,45.515-43.366,90.894-63.597,137.004c-12.903,29.367-23.563,30.41-53.792,14.291
	c-81.113-43.24-73.669-123.828-90.867-194.435c-12.032-49.342-12.771-99.563-5.471-151.146
	c-33.519,48.127-91.437,80.42-66.168,158.02c15.164,46.611,9.219,100.256,12.698,150.732c0.252,3.893,0.192,7.824-0.293,11.682
	c-5.854,46.443-5.885,46.443,44.882,50.402c52.819,4.127,77.113,37.545,64.716,90.018c-5.252,22.137-4.782,43.777,2.171,65.176
	c39.535,121.773,79.129,243.568,119.076,365.221c17.637,53.723-13.232,101.836-68.813,106.07c-7.682,0.58-15.444,0.547-23.049,1.648
	c-62.412,9.258-64.193,9.707-77.432-53.693c-24.584-117.729-55.105-234.182-73.676-353.186
	c-10.063-64.316-31.858-122.004-88.728-159.49c-30.619-20.188-33.223-49.047-20.201-78.529
	c21.831-49.402,18.771-94.934-10.579-139.698c-7.024-10.699-10.372-24.024-17.853-34.313
	c-27.877-38.334-23.692-76.707-1.767-115.265c8.158-14.336,12.644-28.159-7.137-33.81c-18.1-5.172-37.49-21.066-56.146-0.451
	c-1.646,1.814-2.529,4.59-3.08,7.09c-15.878,72.787-72.483,104.727-130.896,135.941c-32.438,17.293-81.215-0.477-89.89-36.768
	c-5.565-23.146,0.631-47.016,6.065-69.209c5.502-22.461,25.498-11.07,39.248-8.713c62.43,10.609,48.169,14.467,69.771-45.248
	c6.933-19.142,0.479-30.305-20.772-30.594c-26.945-0.352-53.942,0.093-80.832-1.527c-17.614-1.063-21.539,11.39-26.237,23.199
	c-8.613,21.576-16.186,43.582-24.569,65.256c-2.294,5.938-5.416,12.857-13.309,11.748c-7.491-1.051-9.137-8.153-10.456-14.477
	c-9.205-44.385-19.015-88.68-27.14-133.26c-3.813-20.842-0.979-40.88,13.851-58.457c45.922-54.369,72.213-115.777,64.099-189.238
	c-1.052-9.604-3.037-23.242,10.33-26.019c11.227-2.334,18.679,7.388,23.584,16.763c12.612,24.086,25.601,48.051,36.451,72.933
	c8.009,18.358,21.657,19.907,37.883,18.408c18.658-1.728,21.294-15.244,22.761-30.458c5.596-58.086,14.919-115.773,14.282-174.521
	c-0.567-53.694,55.322-114.75,108.428-121.586c86.427-11.084,87.915-11.149,83.79-99.174c-2.066-44.418-6.04-85.414,45.588-106.224
	c17.504-7.056,23.354-6.931,30.606,11.8c8.651,22.33,12.33,44.295,12.646,68.036c0.916,69.465-10.866,140.785,26.277,205.558
	c5.35,9.318,5.087,19.242-4.681,23.429c-42.972,18.424-39.248,59.192-46.512,95.099c-4.033,19.859,0.568,42.776-35.037,43.135
	c-25,0.256-14.646,31.486-16.019,48.625c-3.572,44.674-0.555,40.4,40.3,31.971c69.188-14.229,70.01-75.338,90.491-121.92
	c10.587-23.961,13.921-34.479,41.442-18.977c28.067,15.842,59.887-0.609,58.136-29.41c-2.728-44.619,22.846-65.02,54.673-84.965
	c31.051-19.479,46.396-115.004,24.652-143.943c-8.189-10.938-16.127-2.424-23.721,0.59c-40.367,15.994-101.9-12.258-113.953-53.465
	c-13.858-47.24-25.069-95.348-40.604-142.006c-8.751-26.334-2.081-36.713,23.806-38.045c62.769-3.258,125.597-5.982,188.274-10.342
	c19.951-1.395,30.424,9.639,41.636,22.66c20.938,24.309,42.494,48.076,67.863,76.633c10.521-52.398,12.978-99.506,11.274-146.645
	c-2.238-61.688,46.795-88.354,80.732-125.287c7.063-7.67,16.954-3.65,23.872,3.715c22.521,24.035,54.834,39.408,63.478,75.732
	c4.104,17.168,19.994,23.199,33.772,29.354c39.869,17.729,79.221,37.629,120.62,50.461c42.212,13.111,54.433,47.994,70.693,81.445
	c35.351,72.801,36.263,73.59,85.199,7.623c18.808-25.379,35.606-33.979,67.444-22.023c56.246,21.115,114.681,36.25,172.14,54.025
	c24.438,7.557,42.588,21.371,53.018,46.641c13.836,33.416,29.13,66.414,46.468,98.105c24.554,44.852,24.504,95.641,30.259,143.297
	c6.914,57.705,20.969,114.701,21.181,173.482c0.137,37.375,62.645,89.926,98.686,86.535c10.313-0.979,21.45-6.676,11.539-16.211
	c-39.498-38.041-17.762-82.533-15.987-125c0.172-3.896,0.555-7.771,0.94-11.66c8.324-83.605,8.291-84.357,90.412-87.67
	c28.479-1.146,53.551-8.223,73.168-28.93l25.351-31.092c21.332-25.334-63.152-77.426-90.363-107.363
	c-60.771-66.854-124.932-130.492-175.812-205.225l-10.131-15.229c-12.186-18.98-23.496-38.705-33.642-59.4
	c-7.081-14.43-30.996-24.176-48.921-28.658c-44.53-11.129-89.876-18.543-123.73-58.574c0.98-2.777,1.045-4.328,1.856-5.15
	c46.169-46.645,60.769-104.678,58.003-168.328c-1.251-28.588,10.835-47.682,31.897-65.363
	c35.155-29.518,67.92-61.574,105.617-95.992c-19.285-23.502-37.447-46.627-57.128-67.717c-5.518-5.9-19.107-9.266-27.36-7.873
	c-42.963,7.223-86.36,18.189-113.982,57.91c-13.771,19.797-38.897,34.305-52.755,54.051
	c-23.826,33.943-63.909,37.279-100.909,26.424c0-25.279,0-50.557,0-74.479c-8-2.678,2.343-5.063,0.21-5.086
	c-57.865-0.576-42.701,3.449-42.845-56.09c-0.207-83.422,4.532-166.789-30.414-246.492c-13.018-29.678,19.382-65.512,58.392-67.939
	c63.435-3.945,126.946-5.551,190.422-8.727c43.146-2.148,86.557-2.975,129.118-9.42c7.563-1.143,16.42-7.828,23.11-15.83
	l8.313-13.588c0.396-1.006,0.856-2.029,1.107-3.006c2.18-8.145,1.26-14.41-1.749-19.07l-11.519-8.457
	c-5.44-1.941-12.004-2.713-18.993-2.438c-62.22,2.473-112.417-19.666-156.816-54.416l-12.753-10.443
	c-13.469-11.527-26.455-24.104-39.105-37.504c-16.989-17.994-19.727-31.664-6.277-53.066c26.605-42.349,52.862-84.922,79.02-127.563
	c0,0,60.196-98.431,86.043-140.552c14.933-24.321,22.639-37.081,22.504-48.304l-4.232-13.75
	c-4.823-8.262-13.747-17.776-27.27-32.194c-27.183-28.979-62.318-51.705-55.879-102.457c5.373-42.29,29.077-100.53,64.312-126.64
	L2542.797,3448.837z"/>
</svg>
