<?xml version="1.0" encoding="utf-8"?>
<!-- Generator: Adobe Illustrator 16.0.0, SVG Export Plug-In . SVG Version: 6.00 Build 0)  -->
<svg version="1.2" baseProfile="tiny" id="레이어_1"
	 xmlns="http://www.w3.org/2000/svg" xmlns:xlink="http://www.w3.org/1999/xlink" x="0px" y="0px" width="128px" height="128px"
	 viewBox="0 0 128 128" xml:space="preserve">
<path fill="#00FFFF" d="M61.335,86.109c-1.953-1.955-5.26-1.754-7.27,0.258c-2.012,2.012-2.1,5.203-0.256,7.269
	c0,0,22.291,22.315,22.36,22.384c2.052,2.053,5.399,2.025,7.481-0.055c2.082-2.082,2.111-5.438,0.062-7.488
	C83.645,108.407,61.335,86.109,61.335,86.109z M82.074,114.387c-1.602,1.602-3.508,0.875-5.131-0.748
	c-0.057-0.055-20.712-20.731-20.712-20.731c-1.464-1.632-2.137-3.414-0.589-4.964c1.547-1.547,3.417-0.959,4.964,0.588
	c0,0,20.671,20.664,20.726,20.721C82.955,110.874,83.677,112.785,82.074,114.387z"/>
<path fill="#00FFFF" d="M24.886,56.54c-7.708,7.709-7.708,20.207,0,27.914c7.707,7.708,20.205,7.709,27.914,0
	c7.707-7.707,7.707-20.206,0-27.913C45.091,48.832,32.594,48.832,24.886,56.54z M50.697,82.352c-6.938,6.938-16.771,6.938-23.708,0
	c-6.938-6.938-6.938-16.771,0.001-23.708c6.937-6.938,16.77-6.938,23.707,0C57.634,65.58,57.634,75.413,50.697,82.352z"/>
<path fill="#00FFFF" d="M29.143,59.996l2.306,2.306c5.215-4.684,9.944-4.31,14.453-0.333l2.306-2.306
	C43.333,54.333,35.167,54.167,29.143,59.996z"/>
<path fill="#00FFFF" d="M60.971,34.487c-5.43,0-9.832,4.402-9.832,9.832c0,5.429,4.402,9.831,9.832,9.831
	c5.429,0,9.832-4.402,9.832-9.831C70.803,38.889,66.4,34.487,60.971,34.487z M60.971,51.96c-4.22,0-7.642-3.422-7.642-7.642
	c0-4.22,3.422-7.642,7.642-7.642s7.642,3.422,7.642,7.642C68.613,48.538,65.191,51.96,60.971,51.96z"/>
<path fill="#00FFFF" d="M91.357,49.457c-4.563,0-8.267,3.702-8.267,8.268s3.702,8.268,8.267,8.268c4.566,0,8.269-3.702,8.269-8.268
	S95.925,49.457,91.357,49.457z M91.357,64.15c-3.547,0-6.424-2.877-6.424-6.426c0-3.549,2.877-6.426,6.424-6.426
	c3.551,0,6.428,2.877,6.428,6.426C97.785,61.273,94.908,64.15,91.357,64.15z"/>
<path fill="#00FFFF" d="M76.165,68.45c-5.431,0-9.831,4.401-9.831,9.831c0,5.429,4.4,9.83,9.831,9.83s9.831-4.401,9.831-9.83
	C85.996,72.852,81.596,68.45,76.165,68.45z M76.165,85.923c-4.22,0-7.642-3.421-7.642-7.642c0-4.219,3.422-7.641,7.642-7.641
	s7.642,3.422,7.642,7.641C83.807,82.502,80.385,85.923,76.165,85.923z"/>
<path fill="#00FFFF" d="M99.717,82.854c-4.494,0-8.138,3.644-8.138,8.138c0,4.493,3.644,8.138,8.138,8.138s8.139-3.645,8.139-8.138
	C107.855,86.497,104.211,82.854,99.717,82.854z M99.717,97.316c-3.494,0-6.324-2.834-6.324-6.326c0-3.494,2.83-6.326,6.324-6.326
	c3.493,0,6.325,2.832,6.325,6.326C106.042,94.482,103.21,97.316,99.717,97.316z"/>
<rect x="70.177" y="50.532" transform="matrix(-0.9086 -0.4177 0.4177 -0.9086 125.5664 129.4379)" fill="#00FFFF" width="13.539" height="0.893"/>
<rect x="84.628" y="84.846" transform="matrix(-0.8838 -0.4679 0.4679 -0.8838 126.9157 202.1049)" fill="#00FFFF" width="7.856" height="0.892"/>
<rect x="81.02" y="66.66" transform="matrix(-0.6193 0.7851 -0.7851 -0.6193 188.8049 42.6755)" fill="#00FFFF" width="6.074" height="0.894"/>
<path fill="#00FFFF" d="M28.234,45.012L14.485,34.711l7.638-10.194l2.325,1.743l-5.558,7.418l3.048,2.284l5.172-6.903l2.316,1.735
	l-5.172,6.903l3.742,2.804l5.756-7.681l2.316,1.736L28.234,45.012z"/>
<path fill="#00FFFF" d="M36.492,34.228l0.215-7.822l-6.914-2.668l3.354-2.214l3.724,1.642l0.052-4.133l3.228-2.13l-0.273,7.243
	l7.451,2.931l-3.374,2.227l-4.236-1.824l-0.009,4.625L36.492,34.228z"/>
<path fill="#00FFFF" d="M45.267,14.686l2.971-0.776l0.461,1.768c0.228-0.705,0.622-1.332,1.18-1.881
	c0.559-0.55,1.239-0.93,2.04-1.139c1.398-0.365,2.729-0.127,3.99,0.713c1.262,0.842,2.147,2.241,2.659,4.198
	c0.525,2.011,0.442,3.703-0.249,5.073c-0.692,1.372-1.737,2.241-3.135,2.606c-0.665,0.174-1.302,0.198-1.912,0.076
	c-0.609-0.124-1.297-0.429-2.062-0.916l1.585,6.066l-3.187,0.832L45.267,14.686z M49.938,19.678
	c0.354,1.354,0.882,2.282,1.588,2.789c0.706,0.506,1.444,0.658,2.215,0.457c0.741-0.193,1.279-0.651,1.616-1.373
	c0.336-0.721,0.328-1.759-0.026-3.112c-0.33-1.263-0.827-2.134-1.494-2.614c-0.666-0.48-1.374-0.622-2.122-0.427
	c-0.779,0.204-1.346,0.672-1.704,1.408C49.653,17.541,49.63,18.499,49.938,19.678z"/>
<path fill="#00FFFF" d="M62.219,23.997l-0.072-17.18l3.293-0.014l0.071,17.18L62.219,23.997z"/>
<path fill="#00FFFF" d="M69.129,17.44c0.268-1.061,0.787-2.021,1.561-2.882c0.772-0.86,1.703-1.431,2.795-1.712
	c1.09-0.281,2.226-0.273,3.407,0.025c1.825,0.46,3.172,1.43,4.041,2.911c0.868,1.479,1.073,3.125,0.616,4.935
	c-0.46,1.826-1.43,3.191-2.912,4.094c-1.48,0.904-3.115,1.13-4.902,0.68c-1.105-0.279-2.099-0.795-2.977-1.548
	c-0.877-0.753-1.456-1.679-1.734-2.776C68.744,20.069,68.779,18.827,69.129,17.44z M72.358,18.437
	c-0.302,1.197-0.249,2.186,0.159,2.965c0.408,0.78,1.027,1.275,1.86,1.485c0.834,0.21,1.612,0.068,2.337-0.426
	c0.726-0.494,1.242-1.347,1.547-2.559c0.299-1.183,0.244-2.163-0.159-2.941c-0.404-0.779-1.022-1.272-1.856-1.483
	c-0.833-0.21-1.613-0.069-2.342,0.424S72.66,17.239,72.358,18.437z"/>
<path fill="#00FFFF" d="M84.313,29.53l-2.848-1.654l6.253-10.762l2.645,1.537l-0.89,1.53c0.873-0.46,1.557-0.7,2.052-0.72
	c0.494-0.02,0.973,0.104,1.432,0.371c0.648,0.376,1.169,0.919,1.563,1.626l-2.324,1.97c-0.299-0.589-0.655-1.003-1.067-1.242
	c-0.398-0.232-0.8-0.318-1.203-0.26c-0.405,0.059-0.854,0.329-1.347,0.811c-0.491,0.482-1.27,1.639-2.333,3.47L84.313,29.53z"/>
<path fill="#00FFFF" d="M96.938,34.786l1.905,2.728c-1.154,0.542-2.274,0.708-3.361,0.499c-1.086-0.209-2.107-0.801-3.065-1.777
	c-1.517-1.544-2.133-3.182-1.852-4.915c0.233-1.379,0.967-2.673,2.199-3.883c1.472-1.445,3.002-2.191,4.591-2.24
	c1.589-0.048,2.961,0.515,4.115,1.692c1.297,1.321,1.885,2.792,1.762,4.413c-0.123,1.62-1.102,3.297-2.936,5.032l-5.779-5.888
	c-0.68,0.701-1.037,1.423-1.068,2.166s0.218,1.385,0.748,1.926c0.361,0.368,0.766,0.579,1.213,0.632
	C95.857,35.224,96.367,35.096,96.938,34.786z M99.445,32.589c0.664-0.685,1.009-1.368,1.034-2.05
	c0.026-0.682-0.196-1.263-0.667-1.743c-0.504-0.513-1.106-0.753-1.809-0.721c-0.701,0.032-1.371,0.366-2.006,1L99.445,32.589z"/>
<path fill="#00FFFF" d="M99.001,44.636l-1.608-2.874l10.861-6.077l1.493,2.669l-1.544,0.864c0.985,0.049,1.695,0.19,2.132,0.426
	c0.436,0.234,0.783,0.584,1.043,1.048c0.366,0.654,0.538,1.387,0.517,2.195l-3.004,0.512c0.043-0.659-0.052-1.197-0.285-1.612
	c-0.225-0.402-0.526-0.682-0.904-0.837s-0.901-0.151-1.57,0.013c-0.67,0.164-1.928,0.763-3.775,1.797L99.001,44.636z"/>
</svg>
