<?xml version="1.0" encoding="utf-8"?>
<!-- Generator: Adobe Illustrator 16.0.0, SVG Export Plug-In . SVG Version: 6.00 Build 0)  -->
<!DOCTYPE svg PUBLIC "-//W3C//DTD SVG 1.1//EN" "http://www.w3.org/Graphics/SVG/1.1/DTD/svg11.dtd">
<svg version="1.1" id="레이어_1" xmlns="http://www.w3.org/2000/svg" xmlns:xlink="http://www.w3.org/1999/xlink" x="0px"
	 y="0px" width="256px" height="256px" viewBox="0 0 256 256" enable-background="new 0 0 256 256" xml:space="preserve">
<path fill="#FFFFFF" stroke="#000000" stroke-miterlimit="10" d="M128,126.598c-7.712,0-13.964-6.252-13.964-13.964V39.226
	c0-7.711,6.252-13.963,13.964-13.963c7.713,0,13.963,6.252,13.963,13.963v73.407C141.963,120.346,135.713,126.598,128,126.598z"/>
<path fill="#FFFFFF" stroke="#000000" stroke-miterlimit="10" d="M125.597,230.707c-53.839-1.324-96.563-46.211-95.234-100.051
	c0.923-37.521,22.721-70.6,56.887-86.336c6.999-3.223,15.286-0.162,18.511,6.837c3.222,6.998,0.162,15.286-6.838,18.509
	c-24.421,11.25-40.003,34.88-40.666,61.676c-0.947,38.463,29.57,70.525,68.028,71.469c38.449,0.947,70.503-29.565,71.451-68.024
	c0.697-28.089-15.4-53.719-41.014-65.308c-7.021-3.177-10.135-11.441-6.959-18.462c3.18-7.021,11.439-10.138,18.461-6.961
	c35.85,16.214,58.381,52.097,57.412,91.416C224.307,189.318,179.425,232.037,125.597,230.707z"/>
</svg>
