<?xml version="1.0" encoding="utf-8"?>
<!-- Generator: Adobe Illustrator 16.0.0, SVG Export Plug-In . SVG Version: 6.00 Build 0)  -->
<!DOCTYPE svg PUBLIC "-//W3C//DTD SVG 1.1//EN" "http://www.w3.org/Graphics/SVG/1.1/DTD/svg11.dtd">
<svg version="1.1" id="레이어_1" xmlns="http://www.w3.org/2000/svg" xmlns:xlink="http://www.w3.org/1999/xlink" x="0px"
	 y="0px" width="512px" height="512px" viewBox="0 0 512 512" enable-background="new 0 0 512 512" xml:space="preserve">
<path fill="#FFFFFF" stroke="#000000" stroke-miterlimit="10" d="M305.924,149.501c-0.072-0.091,0.135-0.182,0.058-0.267
	c-0.029-0.029,0.077,0.279,0.048,0.25c-0.782-0.801-1.69-0.984-2.9-0.984h-0.211h-3.523h-71.102c-2.589,0-5.792,1.43-5.792,4.019
	v3.734c1-0.269,2.393,0.247,3.104,0.247H298.5v107.541c0,0.712,1.162,2.459,0.894,2.459h3.734c2.589,0,3.372-2.559,3.372-5.146
	V156.253v-3.523v-0.211C306.5,151.362,306.617,150.317,305.924,149.501z"/>
<path fill="#FFFFFF" stroke="#000000" stroke-miterlimit="10" d="M294.5,165.5c0-2.761-2.238-5-5-5h-80c-2.761,0-5,2.239-5,5v110
	c0,2.762,2.239,5,5,5h80c2.762,0,5-2.238,5-5V165.5z M220.104,179.5h28c1.381,0,2.5,1.119,2.5,2.5s-1.119,2.5-2.5,2.5h-28
	c-1.381,0-2.5-1.119-2.5-2.5S218.724,179.5,220.104,179.5z M281.104,220.5h-61c-1.381,0-2.5-1.119-2.5-2.5s1.119-2.5,2.5-2.5h61
	c1.381,0,2.5,1.119,2.5,2.5S282.484,220.5,281.104,220.5z M281.104,202.5h-61c-1.381,0-2.5-1.119-2.5-2.5s1.119-2.5,2.5-2.5h61
	c1.381,0,2.5,1.119,2.5,2.5S282.484,202.5,281.104,202.5z"/>
</svg>
