<?xml version="1.0" encoding="utf-8"?>
<!-- Generator: Adobe Illustrator 16.0.0, SVG Export Plug-In . SVG Version: 6.00 Build 0)  -->
<!DOCTYPE svg PUBLIC "-//W3C//DTD SVG 1.1//EN" "http://www.w3.org/Graphics/SVG/1.1/DTD/svg11.dtd">
<svg version="1.1" id="레이어_1" xmlns="http://www.w3.org/2000/svg" xmlns:xlink="http://www.w3.org/1999/xlink" x="0px"
	 y="0px" width="400px" height="55px" viewBox="0 0 400 55" enable-background="new 0 0 400 55" xml:space="preserve">
<path fill="#FFFFFF" stroke="#000000" stroke-miterlimit="10" d="M131.074,34.764c-0.66,0.625-1.312,1.248-1.953,1.872
	c-0.643,0.625-1.294,1.247-1.954,1.87c-2.715-1.98-5.054-4.117-7.016-6.411c-1.963-2.292-3.532-4.76-4.705-7.401
	c-1.028,2.642-2.551,5.173-4.568,7.595c-2.018,2.421-4.385,4.678-7.099,6.769c-0.624-0.623-1.266-1.247-1.926-1.871
	c-0.66-0.623-1.303-1.247-1.926-1.871c4.476-3.375,7.695-7.007,9.658-10.896c1.962-3.888,2.944-7.777,2.944-11.666V5.157h5.888
	v7.595c0,1.944,0.229,3.889,0.688,5.833c0.458,1.945,1.201,3.853,2.229,5.724c0.99,1.871,2.292,3.687,3.907,5.447
	C126.855,31.518,128.799,33.188,131.074,34.764"/>
<rect x="135.642" y="1.636" fill="#FFFFFF" stroke="#000000" stroke-miterlimit="10" width="5.668" height="51.729"/>
<path fill="#FFFFFF" stroke="#000000" stroke-miterlimit="10" d="M170.806,6.918c0,3.082,1.064,5.99,3.191,8.723
	c2.129,2.733,5.303,5.072,9.521,7.017c-0.66,0.624-1.313,1.257-1.953,1.898c-0.643,0.643-1.293,1.275-1.953,1.898
	c-2.68-1.209-5.045-2.687-7.101-4.43c-2.056-1.742-3.577-3.623-4.567-5.641c-1.101,2.312-2.66,4.394-4.678,6.246
	s-4.421,3.494-7.209,4.925c-0.624-0.623-1.265-1.256-1.926-1.898c-0.66-0.642-1.303-1.274-1.926-1.898
	c4.292-2.312,7.475-4.943,9.548-7.896c2.071-2.953,3.108-5.935,3.108-8.943V2.956h5.943V6.918z"/>
<polygon fill="#FFFFFF" stroke="#000000" stroke-miterlimit="10" points="194.415,43.184 168.274,43.184 168.274,47.531 
	195.185,47.531 195.185,52.264 162.606,52.264 162.606,38.506 188.747,38.506 188.747,34.599 162.606,34.599 162.606,29.866 
	194.415,29.866 "/>
<polygon fill="#FFFFFF" stroke="#000000" stroke-miterlimit="10" points="178.676,9.725 188.747,9.725 188.747,1.636 194.415,1.636 
	194.415,26.399 188.747,26.399 188.747,14.788 178.676,14.788 "/>
<path fill="#FFFFFF" stroke="#000000" stroke-miterlimit="10" d="M204.267,31.132v-4.843h10.069v-10.07h5.338v10.07
	c5.431,0,10.877-0.586,16.345-1.761l0.496,4.788c-5.504,1.21-12.218,1.815-20.142,1.815H204.267z"/>
<path fill="#FFFFFF" stroke="#000000" stroke-miterlimit="10" d="M232.44,4.002c0,6.971-0.477,12.786-1.43,17.444l-5.283-0.495
	c0.403-2.238,0.707-4.365,0.908-6.384c0.201-2.017,0.303-3.907,0.303-5.668h-19.756V4.002H232.44z"/>
<polygon fill="#FFFFFF" stroke="#000000" stroke-miterlimit="10" points="244.713,51.989 211.585,51.989 211.585,36.305 
	217.308,36.305 217.308,46.926 244.713,46.926 "/>
<polygon fill="#FFFFFF" stroke="#000000" stroke-miterlimit="10" points="244.272,20.566 244.272,37.405 238.55,37.405 
	238.55,1.636 244.272,1.636 244.272,15.503 252.252,15.503 252.252,20.566 "/>
<path fill="#FFFFFF" stroke="#000000" stroke-miterlimit="10" d="M282.024,35.314l-3.742,3.742
	c-2.019-1.871-3.853-3.998-5.504-6.384c-1.65-2.385-2.879-4.751-3.687-7.099c-0.99,2.605-2.256,5.054-3.797,7.347
	s-3.339,4.448-5.394,6.466c-0.623-0.623-1.238-1.247-1.844-1.871c-0.605-0.623-1.22-1.247-1.843-1.871
	c1.797-1.687,3.338-3.43,4.623-5.228c1.282-1.798,2.329-3.688,3.136-5.669c0.807-1.98,1.412-4.072,1.816-6.273
	s0.623-4.585,0.66-7.153h-8.254V6.258h21.847v5.063h-8.255c0,2.274,0.166,4.457,0.496,6.548c0.33,2.092,0.897,4.128,1.705,6.108
	c0.771,1.981,1.808,3.908,3.109,5.778C278.401,31.627,280.043,33.48,282.024,35.314"/>
<polygon fill="#FFFFFF" stroke="#000000" stroke-miterlimit="10" points="277.456,17.649 284.61,17.649 284.61,2.736 289.948,2.736 
	289.948,51.714 284.61,51.714 284.61,22.712 277.456,22.712 "/>
<rect x="294.735" y="1.636" fill="#FFFFFF" stroke="#000000" stroke-miterlimit="10" width="5.338" height="51.729"/>
</svg>
