<?xml version="1.0" encoding="utf-8"?>
<!-- Generator: Adobe Illustrator 16.0.0, SVG Export Plug-In . SVG Version: 6.00 Build 0)  -->
<!DOCTYPE svg PUBLIC "-//W3C//DTD SVG 1.1//EN" "http://www.w3.org/Graphics/SVG/1.1/DTD/svg11.dtd">
<svg version="1.1" id="레이어_1" xmlns="http://www.w3.org/2000/svg" xmlns:xlink="http://www.w3.org/1999/xlink" x="0px"
	 y="0px" width="400px" height="55px" viewBox="0 0 400 55" enable-background="new 0 0 400 55" xml:space="preserve">
<polygon fill="#FFFFFF" stroke="#000000" stroke-miterlimit="10" points="139.686,25.849 139.686,53.364 134.018,53.364 
	134.018,1.636 139.686,1.636 139.686,20.787 148.216,20.787 148.216,25.849 "/>
<polygon fill="#FFFFFF" stroke="#000000" stroke-miterlimit="10" points="192.02,25.794 192.02,53.364 186.297,53.364 
	186.297,1.636 192.02,1.636 192.02,20.786 200.55,20.786 200.55,25.794 "/>
<path fill="#FFFFFF" stroke="#000000" stroke-miterlimit="10" d="M124.607,10.605c-1.284-1.319-2.806-2.375-4.567-3.164
	c-1.761-0.789-3.669-1.184-5.724-1.184c-2.055,0-3.962,0.395-5.723,1.184c-1.761,0.789-3.283,1.862-4.567,3.22
	c-1.285,1.357-2.284,2.953-3,4.787c-0.715,1.835-1.073,3.779-1.073,5.833c0,2.056,0.358,3.981,1.073,5.778
	c0.716,1.798,1.715,3.376,3,4.732c1.284,1.396,2.797,2.486,4.54,3.274c1.742,0.79,3.659,1.184,5.75,1.184
	c2.055,0,3.963-0.394,5.724-1.184c1.761-0.788,3.283-1.861,4.567-3.219c1.284-1.357,2.293-2.944,3.027-4.761
	c0.734-1.815,1.101-3.75,1.101-5.806c0-2.091-0.367-4.053-1.101-5.888C126.9,13.559,125.891,11.963,124.607,10.605z M122.351,25.188
	c-0.44,1.211-1.045,2.257-1.816,3.137c-0.77,0.881-1.688,1.578-2.751,2.092c-1.065,0.514-2.202,0.771-3.412,0.771
	c-1.211,0-2.349-0.257-3.413-0.771s-1.981-1.211-2.751-2.092c-0.808-0.88-1.431-1.926-1.871-3.137
	c-0.441-1.211-0.66-2.513-0.66-3.907c0-1.431,0.219-2.751,0.66-3.962c0.44-1.211,1.046-2.257,1.816-3.137
	c0.77-0.881,1.687-1.577,2.752-2.092c1.063-0.513,2.219-0.77,3.467-0.77c1.21,0,2.347,0.247,3.412,0.742
	c1.063,0.495,1.981,1.184,2.751,2.064c0.771,0.917,1.376,1.98,1.816,3.191s0.66,2.531,0.66,3.962
	C123.011,22.676,122.791,23.978,122.351,25.188z"/>
<path fill="#FFFFFF" stroke="#000000" stroke-miterlimit="10" d="M173.365,18.034h-12.988V5.652h-5.723v33.294h24.434V5.652h-5.723
	V18.034z M173.365,33.884h-12.987V23.098h12.987V33.884z"/>
<path fill="#FFFFFF" stroke="#000000" stroke-miterlimit="10" d="M227.02,5.652v12.382h-13.373V5.652h-5.668v33.294h24.766V5.652
	H227.02z M227.02,33.883h-13.373V23.098h13.373V33.883z"/>
<rect x="240.778" y="1.636" fill="#FFFFFF" stroke="#000000" stroke-miterlimit="10" width="5.723" height="51.729"/>
<path fill="#FFFFFF" stroke="#000000" stroke-miterlimit="10" d="M257.673,26.454c4.255-2.237,7.364-4.879,9.327-7.924
	s2.999-6.273,3.109-9.686h-9.906V3.781h25.975v5.063h-9.96c0.22,3.448,1.293,6.54,3.22,9.272c1.926,2.733,4.998,5.146,9.217,7.236
	c-0.66,0.625-1.312,1.248-1.953,1.871c-0.643,0.625-1.275,1.248-1.898,1.871c-2.679-1.283-5.008-2.824-6.988-4.622
	c-1.981-1.798-3.505-3.798-4.568-5.999c-1.064,2.422-2.605,4.623-4.622,6.604c-2.019,1.98-4.367,3.687-7.044,5.117
	c-0.661-0.623-1.313-1.246-1.954-1.871C258.984,27.702,258.333,27.079,257.673,26.454"/>
<polygon fill="#FFFFFF" stroke="#000000" stroke-miterlimit="10" points="300.047,51.989 267.633,51.989 267.633,34.489 
	273.355,34.489 273.355,46.926 300.047,46.926 "/>
<polygon fill="#FFFFFF" stroke="#000000" stroke-miterlimit="10" points="293.883,14.128 285.463,14.128 285.463,9.065 
	293.883,9.065 293.883,1.636 299.551,1.636 299.551,35.204 293.883,35.204 293.883,23.482 285.463,23.482 285.463,18.42 
	293.883,18.42 "/>
</svg>
