<?xml version="1.0" encoding="utf-8"?>
<!-- Generator: Adobe Illustrator 16.0.0, SVG Export Plug-In . SVG Version: 6.00 Build 0)  -->
<!DOCTYPE svg PUBLIC "-//W3C//DTD SVG 1.1//EN" "http://www.w3.org/Graphics/SVG/1.1/DTD/svg11.dtd">
<svg version="1.1" id="레이어_1" xmlns="http://www.w3.org/2000/svg" xmlns:xlink="http://www.w3.org/1999/xlink" x="0px"
	 y="0px" width="400px" height="55px" viewBox="0 0 400 55" enable-background="new 0 0 400 55" xml:space="preserve">
<polygon fill="#FFFFFF" stroke="#000000" stroke-miterlimit="10" points="57.608,33.773 57.608,51.989 91.011,51.989 91.011,46.925 
	63.276,46.925 63.276,33.773 "/>
<path fill="#FFFFFF" stroke="#000000" stroke-miterlimit="10" d="M75.879,2.187v10.675h-5.448v-9.63h-5.284v8.475H55.021V3.231
	h-5.283V28.38h20.693V17.925h5.448v14.528h5.173V2.187H75.879z M65.147,23.647H55.021v-7.264h10.126V23.647z"/>
<rect x="85.673" y="1.637" fill="#FFFFFF" stroke="#000000" stroke-miterlimit="10" width="5.118" height="33.567"/>
<path fill="#FFFFFF" stroke="#000000" stroke-miterlimit="10" d="M131.239,35.589c-0.624,0.624-1.266,1.248-1.926,1.872
	s-1.303,1.247-1.926,1.871c-2.752-1.943-5.173-4.107-7.265-6.494c-2.09-2.384-3.631-4.843-4.622-7.375
	c-0.955,2.532-2.496,5.057-4.623,7.567c-2.128,2.514-4.55,4.798-7.263,6.852c-0.625-0.623-1.258-1.247-1.899-1.871
	c-0.642-0.622-1.294-1.245-1.954-1.87c4.476-3.339,7.723-6.961,9.74-10.869c2.018-3.907,3.028-7.823,3.028-11.749h-10.732V8.459
	h11.006V1.855h5.724v6.604h10.675v5.063h-10.73c0,1.907,0.22,3.815,0.66,5.723c0.441,1.908,1.155,3.798,2.147,5.668
	c0.99,1.871,2.301,3.706,3.934,5.504C126.845,32.215,128.854,33.938,131.239,35.589"/>
<polygon fill="#FFFFFF" stroke="#000000" stroke-miterlimit="10" points="125.846,19.025 135.751,19.025 135.751,1.636 
	141.419,1.636 141.419,53.365 135.751,53.365 135.751,24.087 125.846,24.087 "/>
<path fill="#FFFFFF" stroke="#000000" stroke-miterlimit="10" d="M157.929,37.9c-0.697-0.623-1.394-1.266-2.09-1.926
	c-0.698-0.66-1.413-1.303-2.147-1.927c2.678-1.101,5.127-2.448,7.347-4.045c2.22-1.596,4.173-3.385,5.861-5.365
	c1.651-1.944,2.989-4.046,4.017-6.302c1.027-2.256,1.669-4.595,1.926-7.016h-16.895V6.258h23.224c0,3.963-0.523,7.585-1.569,10.869
	c-1.046,3.283-2.504,6.246-4.375,8.888c-1.908,2.641-4.164,4.952-6.768,6.934C163.854,34.93,161.011,36.58,157.929,37.9"/>
<rect x="187.757" y="1.636" fill="#FFFFFF" stroke="#000000" stroke-miterlimit="10" width="5.668" height="51.729"/>
<polygon fill="#FFFFFF" stroke="#000000" stroke-miterlimit="10" points="257.535,10.33 257.535,6.038 269.146,6.038 269.146,1.636 
	274.87,1.636 274.87,6.038 286.428,6.038 286.428,10.33 "/>
<polygon fill="#FFFFFF" stroke="#000000" stroke-miterlimit="10" points="285.326,22.438 293.141,22.438 293.141,17.87 
	285.326,17.87 285.326,13.523 293.141,13.523 293.141,1.636 298.808,1.636 298.808,30.251 293.141,30.251 293.141,26.73 
	285.326,26.73 "/>
<polygon fill="#FFFFFF" stroke="#000000" stroke-miterlimit="10" points="311.081,11.871 311.081,6.809 322.141,6.809 
	322.141,1.855 327.866,1.855 327.866,6.808 338.817,6.808 338.817,11.871 "/>
<path fill="#FFFFFF" stroke="#000000" stroke-miterlimit="10" d="M240.861,12.365h-8.75c-0.295-1.43-0.836-2.732-1.623-3.907
	c-0.789-1.173-1.732-2.181-2.834-3.026c-1.139-0.806-2.396-1.439-3.771-1.898s-2.815-0.688-4.319-0.688
	c-1.836,0-3.531,0.303-5.092,0.908c-1.56,0.606-2.925,1.441-4.099,2.504c-1.176,1.1-2.092,2.403-2.752,3.907
	c-0.66,1.505-0.99,3.156-0.99,4.953c0,1.835,0.339,3.504,1.019,5.008c0.678,1.505,1.604,2.789,2.779,3.852
	c1.135,1.102,2.493,1.955,4.071,2.56c1.577,0.605,3.265,0.908,5.063,0.908c1.541,0,3.026-0.238,4.457-0.716
	c1.432-0.476,2.715-1.155,3.854-2.036c1.135-0.881,2.081-1.935,2.834-3.164c0.752-1.229,1.236-2.596,1.459-4.1h8.693v11.005h5.668
	v-26.8h-5.668V12.365z M226.167,18.034c-0.367,0.881-0.862,1.634-1.485,2.257c-0.66,0.66-1.423,1.175-2.283,1.541
	c-0.862,0.367-1.789,0.55-2.779,0.55c-1.064,0-2.035-0.183-2.916-0.55c-0.881-0.366-1.633-0.881-2.258-1.541
	c-0.659-0.623-1.174-1.376-1.541-2.257c-0.366-0.88-0.549-1.852-0.549-2.916c0-1.027,0.192-1.991,0.578-2.89
	c0.383-0.898,0.906-1.659,1.567-2.283s1.431-1.119,2.312-1.486c0.881-0.366,1.816-0.55,2.807-0.55s1.917,0.184,2.779,0.55
	c0.86,0.367,1.623,0.862,2.283,1.486c0.623,0.661,1.118,1.431,1.485,2.312c0.366,0.88,0.551,1.835,0.551,2.861
	C226.718,16.183,226.534,17.154,226.167,18.034z"/>
<path fill="#FFFFFF" stroke="#000000" stroke-miterlimit="10" d="M240.861,37.186h-20.473v-5.832h-5.668v20.91h31.809v-20.91h-5.668
	V37.186z M240.861,47.531h-20.473v-5.668h20.473V47.531z"/>
<path fill="#FFFFFF" stroke="#000000" stroke-miterlimit="10" d="M271.954,30.967c1.724,0,3.282-0.247,4.679-0.742
	c1.393-0.496,2.586-1.164,3.575-2.009c0.991-0.843,1.752-1.852,2.284-3.027c0.531-1.174,0.798-2.44,0.798-3.797
	c0-1.394-0.276-2.678-0.824-3.852c-0.551-1.174-1.323-2.201-2.312-3.081c-0.99-0.844-2.184-1.514-3.577-2.009
	c-1.394-0.495-2.935-0.743-4.622-0.743c-1.689,0-3.221,0.239-4.596,0.716c-1.375,0.476-2.559,1.136-3.551,1.98
	c-0.99,0.881-1.76,1.908-2.311,3.082c-0.551,1.175-0.824,2.476-0.824,3.907c0,1.395,0.264,2.679,0.797,3.853
	c0.531,1.172,1.293,2.182,2.283,3.026c0.991,0.844,2.182,1.504,3.577,1.979C268.725,30.729,270.266,30.967,271.954,30.967z
	 M267.909,17.76c1.046-0.881,2.394-1.321,4.045-1.321c1.649,0,3.009,0.44,4.071,1.321c1.064,0.88,1.597,2.091,1.597,3.632
	c0,1.43-0.542,2.595-1.623,3.494c-1.083,0.9-2.433,1.349-4.045,1.349c-1.651,0-2.999-0.458-4.045-1.376
	c-1.046-0.916-1.567-2.072-1.567-3.467C266.342,19.851,266.863,18.64,267.909,17.76z"/>
<path fill="#FFFFFF" stroke="#000000" stroke-miterlimit="10" d="M293.141,38.232h-20.473v-4.678H267v18.709h31.808V33.555h-5.667
	V38.232z M293.141,47.531h-20.474v-4.622h20.474V47.531z"/>
<path fill="#FFFFFF" stroke="#000000" stroke-miterlimit="10" d="M341.457,39.195c-0.074-0.824-0.166-1.659-0.277-2.504
	c-2.42,0.478-4.777,0.826-7.069,1.045c-2.293,0.222-4.54,0.332-6.741,0.332v-4.35c1.32-0.183,2.558-0.55,3.716-1.1
	c1.154-0.551,2.153-1.247,2.998-2.092c0.807-0.844,1.448-1.834,1.926-2.972c0.478-1.137,0.715-2.384,0.715-3.742
	c0-1.541-0.311-2.935-0.936-4.182s-1.468-2.311-2.532-3.192c-1.064-0.88-2.303-1.549-3.713-2.009
	c-1.414-0.459-2.928-0.688-4.541-0.688c-1.615,0-3.136,0.23-4.568,0.688c-1.429,0.46-2.678,1.129-3.741,2.009
	c-1.065,0.88-1.899,1.945-2.504,3.192c-0.604,1.247-0.907,2.642-0.907,4.182c0,1.285,0.22,2.476,0.66,3.577
	c0.439,1.101,1.046,2.073,1.816,2.917c0.77,0.846,1.687,1.541,2.75,2.092s2.237,0.935,3.522,1.156v4.512h-12.218v5.063h13.866
	c3.561,0,6.826-0.118,9.797-0.356c2.973-0.238,5.724-0.597,8.256-1.073C341.621,40.855,341.529,40.021,341.457,39.195z
	 M325.003,28.82c-0.808,0-1.579-0.109-2.312-0.33c-0.734-0.219-1.376-0.55-1.928-0.99c-0.549-0.404-0.98-0.909-1.293-1.514
	c-0.312-0.605-0.467-1.292-0.467-2.063c0-1.651,0.586-2.917,1.76-3.797c1.175-0.881,2.587-1.321,4.238-1.321
	c0.807,0,1.577,0.11,2.312,0.331c0.734,0.219,1.376,0.55,1.927,0.99c0.55,0.44,0.979,0.981,1.293,1.623
	c0.312,0.643,0.468,1.367,0.468,2.174c0,0.77-0.156,1.458-0.467,2.063c-0.314,0.606-0.743,1.111-1.293,1.514
	c-0.551,0.44-1.193,0.77-1.927,0.99C326.579,28.711,325.81,28.82,325.003,28.82z"/>
<rect x="344.593" y="1.636" fill="#FFFFFF" stroke="#000000" stroke-miterlimit="10" width="5.668" height="51.729"/>
</svg>
