<?xml version="1.0" encoding="utf-8"?>
<!-- Generator: Adobe Illustrator 16.0.0, SVG Export Plug-In . SVG Version: 6.00 Build 0)  -->
<!DOCTYPE svg PUBLIC "-//W3C//DTD SVG 1.1//EN" "http://www.w3.org/Graphics/SVG/1.1/DTD/svg11.dtd">
<svg version="1.1" id="레이어_1" xmlns="http://www.w3.org/2000/svg" xmlns:xlink="http://www.w3.org/1999/xlink" x="0px"
	 y="0px" width="400px" height="55px" viewBox="0 0 400 55" enable-background="new 0 0 400 55" xml:space="preserve">
<path fill="#FFFFFF" stroke="#000000" stroke-miterlimit="10" d="M99.321,25.408c1.943-1.026,3.622-2.072,5.034-3.137
	c1.412-1.063,2.614-2.182,3.605-3.356c0.953-1.174,1.714-2.402,2.283-3.688c0.568-1.283,0.963-2.659,1.184-4.127h-9.631V6.037
	h10.401V1.195h5.723v4.842h10.071v5.063h-9.687c0,2.201,0.954,4.457,2.862,6.769c1.907,2.312,5.008,4.458,9.3,6.438
	c-0.66,0.625-1.312,1.248-1.954,1.871c-0.642,0.625-1.273,1.248-1.897,1.871c-2.715-1.173-5.09-2.631-7.126-4.375
	c-2.037-1.742-3.55-3.604-4.54-5.585c-1.028,2.237-2.561,4.302-4.597,6.19c-2.035,1.89-4.43,3.514-7.181,4.87
	c-0.624-0.623-1.266-1.246-1.926-1.871C100.586,26.656,99.944,26.033,99.321,25.408"/>
<path fill="#FFFFFF" stroke="#000000" stroke-miterlimit="10" d="M138.833,37.075c-0.735-1.467-1.725-2.732-2.972-3.797
	c-1.284-1.026-2.788-1.816-4.513-2.366c-1.725-0.551-3.559-0.826-5.503-0.826c-1.908,0-3.707,0.275-5.394,0.826
	c-1.688,0.55-3.155,1.32-4.402,2.311c-1.285,1.029-2.293,2.275-3.026,3.742c-0.734,1.468-1.101,3.137-1.101,5.008
	c0,1.798,0.366,3.431,1.101,4.898c0.733,1.467,1.741,2.715,3.026,3.742c1.247,1.026,2.714,1.815,4.402,2.366
	c1.687,0.55,3.485,0.825,5.394,0.825c1.944,0,3.778-0.285,5.503-0.854s3.229-1.366,4.513-2.394c1.247-1.064,2.236-2.32,2.972-3.77
	c0.734-1.449,1.1-3.054,1.1-4.815C139.933,40.176,139.567,38.544,138.833,37.075z M133.55,44.807
	c-0.439,0.826-1.046,1.532-1.815,2.119c-0.771,0.586-1.66,1.036-2.669,1.349c-1.01,0.312-2.064,0.468-3.164,0.468
	c-1.102,0-2.156-0.156-3.164-0.468c-1.011-0.313-1.899-0.763-2.67-1.349c-0.771-0.587-1.375-1.302-1.816-2.146
	c-0.44-0.844-0.66-1.779-0.66-2.807c0-1.026,0.22-1.962,0.66-2.807c0.441-0.843,1.046-1.577,1.816-2.201
	c0.733-0.586,1.604-1.036,2.613-1.348c1.01-0.312,2.082-0.468,3.221-0.468c1.136,0,2.21,0.156,3.219,0.468s1.897,0.762,2.669,1.348
	c0.732,0.588,1.321,1.303,1.761,2.146c0.44,0.845,0.66,1.798,0.66,2.861C134.21,43.037,133.99,43.981,133.55,44.807z"/>
<polygon fill="#FFFFFF" stroke="#000000" stroke-miterlimit="10" points="140.264,17.814 140.264,28.985 134.596,28.985 
	134.596,1.525 140.264,1.525 140.264,12.752 148.243,12.752 148.243,17.814 "/>
<polygon fill="#FFFFFF" stroke="#000000" stroke-miterlimit="10" points="178.565,30.526 178.565,41.698 199.752,41.698 
	199.752,46.706 151.655,46.706 151.655,41.698 172.842,41.698 172.842,30.526 "/>
<path fill="#FFFFFF" stroke="#000000" stroke-miterlimit="10" d="M196.01,26.619c-0.587,0.697-1.165,1.376-1.732,2.036
	c-0.57,0.66-1.147,1.34-1.734,2.036c-4.109-1.174-7.631-2.861-10.566-5.063s-5.026-4.678-6.273-7.43
	c-1.467,2.826-3.641,5.32-6.521,7.484c-2.88,2.165-6.338,3.834-10.373,5.008c-0.588-0.696-1.174-1.376-1.761-2.036
	s-1.175-1.339-1.761-2.036c2.494-0.733,4.751-1.659,6.769-2.779c2.018-1.117,3.761-2.356,5.229-3.714
	c1.431-1.357,2.595-2.807,3.494-4.348c0.898-1.541,1.459-3.137,1.679-4.788h-14.473V5.928h35.384v5.063H178.84
	c0.441,2.128,1.185,4.009,2.229,5.641c1.045,1.634,2.319,3.073,3.825,4.32c1.504,1.284,3.21,2.385,5.116,3.302
	C191.919,25.17,193.919,25.959,196.01,26.619"/>
<path fill="#FFFFFF" stroke="#000000" stroke-miterlimit="10" d="M210.263,29.261c-0.587-0.733-1.165-1.449-1.733-2.146
	c-0.568-0.696-1.166-1.412-1.789-2.146c2.495-0.624,4.815-1.486,6.962-2.587s4.044-2.348,5.696-3.742
	c1.651-1.394,2.999-2.925,4.044-4.595c1.046-1.669,1.733-3.385,2.064-5.146h-16.895V3.836h23.773c0,3.156-0.532,6.091-1.597,8.807
	c-1.064,2.714-2.551,5.136-4.457,7.263c-1.945,2.165-4.283,4.036-7.017,5.613C216.582,27.097,213.564,28.344,210.263,29.261"/>
<path fill="#FFFFFF" stroke="#000000" stroke-miterlimit="10" d="M245.372,37.021c-0.733-1.468-1.725-2.715-2.971-3.742
	c-1.285-1.027-2.78-1.816-4.485-2.366c-1.705-0.551-3.531-0.826-5.476-0.826c-1.908,0-3.706,0.275-5.393,0.826
	c-1.688,0.55-3.156,1.32-4.403,2.311c-1.284,1.028-2.293,2.275-3.027,3.742c-0.733,1.468-1.1,3.137-1.1,5.008
	c0,1.798,0.366,3.431,1.1,4.898c0.734,1.467,1.743,2.714,3.027,3.742c1.247,1.026,2.715,1.815,4.403,2.366
	c1.687,0.55,3.484,0.825,5.393,0.825c1.944,0,3.771-0.285,5.476-0.854s3.2-1.367,4.485-2.394c1.246-1.027,2.237-2.275,2.971-3.742
	c0.734-1.467,1.102-3.081,1.102-4.843C246.474,40.139,246.106,38.488,245.372,37.021z M240.145,44.779
	c-0.44,0.845-1.046,1.56-1.816,2.146c-0.77,0.586-1.659,1.036-2.669,1.349c-1.009,0.311-2.063,0.468-3.164,0.468
	s-2.155-0.157-3.163-0.468c-1.011-0.313-1.899-0.763-2.671-1.349c-0.77-0.587-1.375-1.293-1.815-2.119
	c-0.44-0.825-0.66-1.77-0.66-2.834c0-1.063,0.22-2.017,0.66-2.861c0.44-0.843,1.046-1.559,1.815-2.146
	c0.734-0.586,1.605-1.036,2.615-1.348c1.008-0.312,2.081-0.468,3.219-0.468s2.21,0.156,3.22,0.468
	c1.009,0.312,1.897,0.762,2.669,1.348c0.732,0.624,1.32,1.358,1.761,2.201c0.44,0.845,0.66,1.78,0.66,2.807
	C240.805,43,240.585,43.936,240.145,44.779z"/>
<polygon fill="#FFFFFF" stroke="#000000" stroke-miterlimit="10" points="231.175,17.539 241.631,17.539 241.631,12.366 
	232.825,12.366 232.825,7.688 241.631,7.688 241.631,1.525 247.299,1.525 247.299,28.985 241.631,28.985 241.631,22.217 
	231.175,22.217 "/>
<path fill="#FFFFFF" stroke="#000000" stroke-miterlimit="10" d="M282.629,35.204l-3.742,3.742c-2.019-1.87-3.853-3.998-5.504-6.384
	c-1.65-2.385-2.88-4.751-3.687-7.099c-0.991,2.605-2.257,5.054-3.797,7.347c-1.541,2.293-3.339,4.448-5.394,6.466
	c-0.624-0.623-1.238-1.247-1.844-1.871c-0.605-0.623-1.22-1.247-1.844-1.872c1.798-1.686,3.339-3.429,4.623-5.227
	s2.329-3.688,3.137-5.669c0.807-1.98,1.412-4.072,1.816-6.273c0.403-2.201,0.623-4.585,0.66-7.153H258.8V6.147h21.848v5.063h-8.255
	c0,2.274,0.165,4.457,0.495,6.548c0.33,2.092,0.898,4.128,1.706,6.109c0.771,1.98,1.807,3.906,3.109,5.777
	C279.005,31.517,280.647,33.37,282.629,35.204"/>
<polygon fill="#FFFFFF" stroke="#000000" stroke-miterlimit="10" points="278.061,17.539 285.215,17.539 285.215,2.626 
	290.553,2.626 290.553,51.604 285.215,51.604 285.215,22.602 278.061,22.602 "/>
<rect x="295.341" y="1.524" fill="#FFFFFF" stroke="#000000" stroke-miterlimit="10" width="5.338" height="51.729"/>
</svg>
