<?xml version="1.0" encoding="utf-8"?>
<!-- Generator: Adobe Illustrator 16.0.0, SVG Export Plug-In . SVG Version: 6.00 Build 0)  -->
<!DOCTYPE svg PUBLIC "-//W3C//DTD SVG 1.1//EN" "http://www.w3.org/Graphics/SVG/1.1/DTD/svg11.dtd">
<svg version="1.1" id="레이어_1" xmlns="http://www.w3.org/2000/svg" xmlns:xlink="http://www.w3.org/1999/xlink" x="0px"
	 y="0px" width="400px" height="55px" viewBox="0 0 400 55" enable-background="new 0 0 400 55" xml:space="preserve">
<polygon fill="#FFFFFF" stroke="#000000" stroke-miterlimit="10" points="49.299,7.937 49.299,47.724 56.728,47.724 56.728,31.517 
	71.641,31.517 71.641,25.602 56.728,25.602 56.728,13.825 74.393,13.825 74.393,7.937 "/>
<path fill="#FFFFFF" stroke="#000000" stroke-miterlimit="10" d="M87.298,11.266c0,0.587-0.12,1.138-0.358,1.65
	c-0.239,0.515-0.555,0.964-0.95,1.349c-0.394,0.386-0.857,0.692-1.389,0.922c-0.532,0.229-1.101,0.344-1.705,0.344
	c-0.588,0-1.143-0.114-1.665-0.344c-0.523-0.229-0.977-0.536-1.363-0.922c-0.384-0.385-0.692-0.834-0.922-1.349
	c-0.229-0.513-0.343-1.063-0.343-1.65c0-0.605,0.114-1.174,0.343-1.705c0.23-0.533,0.538-0.991,0.922-1.377
	c0.386-0.385,0.84-0.692,1.363-0.922c0.522-0.229,1.077-0.344,1.665-0.344c0.604,0,1.173,0.115,1.705,0.344
	c0.532,0.229,0.995,0.537,1.389,0.922c0.395,0.386,0.711,0.844,0.95,1.377C87.178,10.092,87.298,10.66,87.298,11.266 M86.362,47.724
	h-6.824v-28.23h6.824V47.724z"/>
<rect x="93.378" y="6.836" fill="#FFFFFF" stroke="#000000" stroke-miterlimit="10" width="6.797" height="40.888"/>
<path fill="#FFFFFF" stroke="#000000" stroke-miterlimit="10" d="M112.198,34.461c0.11,1.449,0.367,2.701,0.771,3.756
	c0.403,1.056,0.935,1.927,1.595,2.614c0.661,0.688,1.446,1.201,2.353,1.541c0.908,0.34,1.913,0.51,3.013,0.51
	c1.101,0,2.05-0.129,2.848-0.386s1.495-0.541,2.091-0.854c0.596-0.312,1.119-0.596,1.568-0.853c0.45-0.257,0.885-0.386,1.308-0.386
	c0.568,0,0.99,0.211,1.266,0.633l1.953,2.477c-0.752,0.881-1.596,1.619-2.532,2.215c-0.935,0.597-1.912,1.073-2.93,1.431
	c-1.018,0.358-2.055,0.61-3.11,0.757c-1.054,0.146-2.077,0.221-3.067,0.221c-1.963,0-3.788-0.326-5.476-0.978
	c-1.688-0.65-3.155-1.613-4.402-2.889c-1.248-1.274-2.229-2.853-2.944-4.732c-0.716-1.881-1.074-4.059-1.074-6.535
	c0-1.926,0.312-3.737,0.936-5.435c0.623-1.696,1.518-3.173,2.683-4.43c1.165-1.256,2.587-2.252,4.264-2.985
	c1.679-0.733,3.573-1.101,5.683-1.101c1.778,0,3.421,0.284,4.925,0.853c1.504,0.569,2.797,1.399,3.88,2.49
	c1.082,1.092,1.93,2.431,2.545,4.018c0.614,1.587,0.921,3.397,0.921,5.434c0,1.028-0.11,1.72-0.33,2.078
	c-0.219,0.357-0.642,0.536-1.265,0.536H112.198z M125.158,30.361c0-0.881-0.124-1.71-0.371-2.49
	c-0.248-0.779-0.619-1.463-1.114-2.05c-0.496-0.587-1.124-1.05-1.886-1.39c-0.761-0.339-1.647-0.508-2.655-0.508
	c-1.963,0-3.508,0.559-4.636,1.678s-1.849,2.705-2.16,4.76H125.158z"/>
<path fill="#FFFFFF" stroke="#000000" stroke-miterlimit="10" d="M164.504,7.937c2.605,0,4.834,0.247,6.688,0.742
	c1.852,0.496,3.371,1.203,4.555,2.12c1.182,0.917,2.049,2.026,2.6,3.328c0.55,1.303,0.824,2.771,0.824,4.402
	c0,0.937-0.137,1.83-0.412,2.683c-0.274,0.854-0.701,1.651-1.279,2.395s-1.311,1.417-2.201,2.022s-1.949,1.119-3.178,1.541
	c5.466,1.229,8.199,4.182,8.199,8.859c0,1.688-0.321,3.247-0.963,4.678c-0.643,1.431-1.578,2.665-2.807,3.701
	c-1.23,1.036-2.742,1.849-4.54,2.435c-1.798,0.588-3.853,0.881-6.163,0.881h-15.024V7.937H164.504z M158.205,13.659v11.502h5.887
	c2.533,0,4.445-0.459,5.738-1.376s1.939-2.375,1.939-4.375c0-2.072-0.588-3.55-1.762-4.43c-1.174-0.881-3.008-1.321-5.504-1.321
	H158.205z M165.688,41.945c1.376,0,2.53-0.165,3.467-0.495c0.935-0.33,1.683-0.771,2.242-1.321c0.56-0.55,0.963-1.191,1.211-1.926
	c0.248-0.733,0.371-1.514,0.371-2.339c0-0.862-0.138-1.637-0.412-2.325c-0.274-0.688-0.707-1.274-1.294-1.761
	c-0.587-0.485-1.344-0.857-2.27-1.114s-2.041-0.386-3.342-0.386h-7.458v11.667H165.688z"/>
<path fill="#FFFFFF" stroke="#000000" stroke-miterlimit="10" d="M191.855,24.391c0.881-1.687,1.927-3.013,3.137-3.977
	c1.211-0.962,2.641-1.444,4.293-1.444c1.301,0,2.348,0.285,3.137,0.854l-0.44,5.09c-0.092,0.331-0.226,0.564-0.399,0.702
	s-0.408,0.206-0.701,0.206c-0.275,0-0.684-0.046-1.225-0.138s-1.068-0.138-1.582-0.138c-0.752,0-1.422,0.11-2.009,0.33
	c-0.587,0.221-1.114,0.537-1.582,0.949c-0.468,0.413-0.881,0.913-1.237,1.5c-0.359,0.587-0.693,1.257-1.005,2.009v17.39h-6.797
	V19.492h3.99c0.696,0,1.183,0.124,1.458,0.372c0.275,0.247,0.458,0.692,0.551,1.334L191.855,24.391z"/>
<path fill="#FFFFFF" stroke="#000000" stroke-miterlimit="10" d="M217.665,19.053c2.091,0,3.994,0.339,5.709,1.018
	s3.183,1.642,4.401,2.89c1.221,1.247,2.16,2.77,2.822,4.567c0.66,1.798,0.99,3.807,0.99,6.025c0,2.238-0.33,4.256-0.99,6.054
	c-0.662,1.798-1.602,3.329-2.822,4.595c-1.219,1.267-2.687,2.238-4.401,2.917s-3.618,1.019-5.709,1.019
	c-2.11,0-4.026-0.34-5.751-1.019s-3.196-1.65-4.416-2.917c-1.221-1.266-2.165-2.797-2.835-4.595
	c-0.669-1.798-1.004-3.815-1.004-6.054c0-2.219,0.335-4.228,1.004-6.025c0.67-1.798,1.614-3.32,2.835-4.567
	c1.22-1.248,2.691-2.211,4.416-2.89S215.555,19.053,217.665,19.053 M217.665,42.908c2.349,0,4.086-0.788,5.214-2.366
	c1.128-1.577,1.691-3.889,1.691-6.934s-0.563-5.366-1.691-6.962s-2.865-2.394-5.214-2.394c-2.386,0-4.151,0.802-5.297,2.407
	s-1.72,3.921-1.72,6.948c0,3.026,0.574,5.333,1.72,6.92S215.279,42.908,217.665,42.908"/>
<path fill="#FFFFFF" stroke="#000000" stroke-miterlimit="10" d="M276.63,19.492l-8.97,28.231h-5.448
	c-0.624,0-1.056-0.403-1.293-1.211l-5.062-16.316c-0.166-0.551-0.317-1.096-0.455-1.638c-0.137-0.54-0.252-1.088-0.344-1.637
	c-0.111,0.549-0.234,1.105-0.371,1.665c-0.139,0.56-0.289,1.114-0.455,1.664l-5.146,16.262c-0.22,0.808-0.706,1.211-1.458,1.211
	H242.4l-8.942-28.231h5.421c0.495,0,0.917,0.12,1.266,0.358s0.578,0.541,0.688,0.908l4.044,15.078
	c0.202,0.825,0.381,1.633,0.537,2.421c0.154,0.789,0.289,1.578,0.398,2.367c0.203-0.789,0.418-1.578,0.647-2.367
	c0.229-0.788,0.472-1.596,0.729-2.421l4.676-15.134c0.111-0.366,0.326-0.669,0.647-0.908c0.321-0.237,0.712-0.357,1.171-0.357h2.998
	c0.477,0,0.885,0.12,1.225,0.357c0.339,0.239,0.563,0.542,0.674,0.908l4.54,15.134c0.239,0.825,0.463,1.637,0.674,2.436
	c0.211,0.798,0.417,1.591,0.619,2.38c0.237-1.56,0.577-3.164,1.019-4.815l4.154-15.078c0.129-0.367,0.357-0.67,0.689-0.908
	c0.33-0.238,0.724-0.358,1.182-0.358H276.63z"/>
<path fill="#FFFFFF" stroke="#000000" stroke-miterlimit="10" d="M297.377,24.996c-0.184,0.293-0.376,0.5-0.578,0.619
	s-0.459,0.179-0.771,0.179c-0.33,0-0.683-0.092-1.059-0.276c-0.376-0.183-0.813-0.389-1.307-0.618
	c-0.495-0.229-1.059-0.436-1.692-0.619c-0.633-0.183-1.38-0.275-2.241-0.275c-1.34,0-2.391,0.285-3.151,0.854
	c-0.763,0.568-1.142,1.312-1.142,2.229c0,0.605,0.196,1.114,0.59,1.527c0.396,0.412,0.918,0.775,1.569,1.087s1.39,0.592,2.216,0.839
	c0.825,0.248,1.664,0.518,2.518,0.811c0.853,0.295,1.691,0.63,2.518,1.006c0.825,0.376,1.563,0.853,2.215,1.431
	c0.65,0.578,1.174,1.271,1.568,2.077c0.395,0.808,0.592,1.778,0.592,2.917c0,1.357-0.244,2.609-0.73,3.756
	c-0.485,1.146-1.205,2.137-2.159,2.972s-2.132,1.485-3.535,1.953s-3.022,0.702-4.856,0.702c-0.973,0-1.922-0.088-2.849-0.262
	c-0.926-0.175-1.815-0.417-2.669-0.729c-0.854-0.312-1.643-0.678-2.365-1.101c-0.726-0.421-1.363-0.88-1.912-1.375l1.567-2.587
	c0.201-0.312,0.44-0.55,0.715-0.715c0.275-0.166,0.624-0.248,1.046-0.248s0.821,0.119,1.197,0.357
	c0.376,0.239,0.811,0.495,1.307,0.771c0.495,0.275,1.077,0.532,1.748,0.771c0.67,0.238,1.516,0.357,2.545,0.357
	c0.807,0,1.5-0.096,2.077-0.288c0.578-0.193,1.054-0.445,1.431-0.757c0.375-0.312,0.651-0.676,0.826-1.087
	c0.174-0.413,0.26-0.84,0.26-1.279c0-0.661-0.196-1.201-0.59-1.624c-0.396-0.422-0.918-0.788-1.569-1.102
	c-0.651-0.311-1.394-0.591-2.228-0.838c-0.836-0.248-1.688-0.519-2.56-0.812c-0.872-0.294-1.726-0.638-2.56-1.032
	s-1.578-0.895-2.229-1.5c-0.65-0.604-1.174-1.348-1.568-2.229s-0.592-1.944-0.592-3.191c0-1.156,0.229-2.257,0.688-3.302
	c0.459-1.046,1.133-1.958,2.022-2.738c0.89-0.779,2-1.403,3.33-1.871c1.329-0.468,2.865-0.701,4.608-0.701
	c1.945,0,3.715,0.321,5.311,0.963c1.596,0.643,2.926,1.485,3.99,2.531L297.377,24.996z"/>
<path fill="#FFFFFF" stroke="#000000" stroke-miterlimit="10" d="M309.566,34.461c0.109,1.449,0.365,2.701,0.771,3.756
	c0.402,1.056,0.935,1.927,1.594,2.614c0.66,0.688,1.445,1.201,2.354,1.541s1.912,0.51,3.012,0.51c1.102,0,2.051-0.129,2.849-0.386
	s1.495-0.541,2.092-0.854c0.597-0.312,1.118-0.596,1.567-0.853c0.451-0.257,0.886-0.386,1.308-0.386c0.567,0,0.99,0.211,1.267,0.633
	l1.953,2.477c-0.753,0.881-1.597,1.619-2.533,2.215c-0.935,0.597-1.912,1.073-2.929,1.431c-1.019,0.358-2.055,0.61-3.11,0.757
	c-1.055,0.146-2.076,0.221-3.067,0.221c-1.963,0-3.788-0.326-5.476-0.978c-1.688-0.65-3.155-1.613-4.402-2.889
	c-1.248-1.274-2.229-2.853-2.944-4.732c-0.715-1.881-1.073-4.059-1.073-6.535c0-1.926,0.313-3.737,0.936-5.435
	c0.624-1.696,1.518-3.173,2.684-4.43c1.164-1.256,2.586-2.252,4.264-2.985c1.68-0.733,3.574-1.101,5.683-1.101
	c1.778,0,3.421,0.284,4.926,0.853c1.505,0.569,2.798,1.399,3.88,2.49c1.082,1.092,1.93,2.431,2.545,4.018
	c0.614,1.587,0.922,3.397,0.922,5.434c0,1.028-0.11,1.72-0.332,2.078c-0.219,0.357-0.641,0.536-1.265,0.536H309.566z
	 M322.526,30.361c0-0.881-0.124-1.71-0.372-2.49c-0.247-0.779-0.619-1.463-1.113-2.05c-0.496-0.587-1.125-1.05-1.886-1.39
	c-0.762-0.339-1.647-0.508-2.655-0.508c-1.963,0-3.508,0.559-4.637,1.678c-1.128,1.119-1.848,2.705-2.159,4.76H322.526z"/>
<path fill="#FFFFFF" stroke="#000000" stroke-miterlimit="10" d="M340.136,24.391c0.88-1.687,1.926-3.013,3.138-3.977
	c1.211-0.962,2.641-1.444,4.291-1.444c1.303,0,2.348,0.285,3.137,0.854l-0.44,5.09c-0.092,0.331-0.226,0.564-0.397,0.702
	c-0.176,0.138-0.41,0.206-0.703,0.206c-0.274,0-0.684-0.046-1.224-0.138c-0.542-0.092-1.069-0.138-1.583-0.138
	c-0.752,0-1.421,0.11-2.008,0.33c-0.588,0.221-1.113,0.537-1.582,0.949c-0.468,0.413-0.881,0.913-1.238,1.5
	c-0.359,0.587-0.693,1.257-1.005,2.009v17.39h-6.796V19.492h3.989c0.696,0,1.185,0.124,1.459,0.372
	c0.274,0.247,0.458,0.692,0.55,1.334L340.136,24.391z"/>
</svg>
