<?xml version="1.0" encoding="utf-8"?>
<!-- Generator: Adobe Illustrator 16.0.0, SVG Export Plug-In . SVG Version: 6.00 Build 0)  -->
<!DOCTYPE svg PUBLIC "-//W3C//DTD SVG 1.1//EN" "http://www.w3.org/Graphics/SVG/1.1/DTD/svg11.dtd">
<svg version="1.1" id="레이어_1" xmlns="http://www.w3.org/2000/svg" xmlns:xlink="http://www.w3.org/1999/xlink" x="0px"
	 y="0px" width="400px" height="55px" viewBox="0 0 400 55" enable-background="new 0 0 400 55" xml:space="preserve">
<path fill="#FFFFFF" stroke="#000000" stroke-miterlimit="10" d="M74.145,25.793c1.944-1.026,3.622-2.072,5.035-3.137
	c1.412-1.063,2.614-2.182,3.605-3.356c0.953-1.174,1.714-2.402,2.283-3.688c0.569-1.283,0.963-2.659,1.184-4.127h-9.631V6.422
	h10.401V1.581h5.723v4.842h10.071v5.063h-9.686c0,2.201,0.954,4.457,2.862,6.769c1.907,2.312,5.008,4.458,9.3,6.438
	c-0.66,0.625-1.312,1.248-1.954,1.871c-0.642,0.625-1.274,1.248-1.898,1.872c-2.715-1.173-5.09-2.631-7.126-4.375
	c-2.037-1.742-3.55-3.604-4.54-5.585c-1.028,2.237-2.56,4.302-4.596,6.19c-2.036,1.89-4.43,3.514-7.181,4.87
	c-0.624-0.623-1.266-1.246-1.926-1.871C75.41,27.042,74.768,26.418,74.145,25.793"/>
<polygon fill="#FFFFFF" stroke="#000000" stroke-miterlimit="10" points="115.087,18.2 115.087,29.371 109.419,29.371 
	109.419,1.911 115.087,1.911 115.087,13.137 123.066,13.137 123.066,18.2 "/>
<polygon fill="#FFFFFF" stroke="#000000" stroke-miterlimit="10" points="138.035,52.539 138.035,31.629 143.703,31.629 
	143.703,37.461 164.175,37.461 164.175,31.629 169.843,31.629 169.843,52.539 "/>
<rect x="143.703" y="42.139" fill="#FFFFFF" stroke="#000000" stroke-miterlimit="10" width="20.473" height="5.668"/>
<path fill="#FFFFFF" stroke="#000000" stroke-miterlimit="10" d="M180.244,26.509c2.018-1.101,3.807-2.329,5.365-3.688
	c1.559-1.356,2.871-2.807,3.936-4.347c1.063-1.504,1.861-3.055,2.394-4.65s0.779-3.164,0.743-4.705h-9.906V4.056h25.975V9.12h-9.959
	c0.22,3.559,1.319,6.658,3.301,9.299c1.98,2.643,5.025,4.973,9.135,6.99c-0.66,0.624-1.311,1.257-1.953,1.898
	c-0.643,0.643-1.275,1.275-1.898,1.898c-2.643-1.247-4.963-2.779-6.961-4.594c-2-1.817-3.533-3.825-4.596-6.026
	c-1.027,2.386-2.55,4.567-4.568,6.549c-2.018,1.981-4.383,3.707-7.099,5.173c-0.659-0.623-1.312-1.256-1.952-1.898
	C181.555,27.766,180.904,27.133,180.244,26.509"/>
<polygon fill="#FFFFFF" stroke="#000000" stroke-miterlimit="10" points="222.508,52.264 189.765,52.264 189.765,34.764 
	195.488,34.764 195.488,47.201 222.508,47.201 "/>
<rect x="216.18" y="1.911" fill="#FFFFFF" stroke="#000000" stroke-miterlimit="10" width="5.668" height="33.568"/>
<rect x="230.598" y="27.556" fill="#FFFFFF" stroke="#000000" stroke-miterlimit="10" width="48.979" height="4.897"/>
<polygon fill="#FFFFFF" stroke="#000000" stroke-miterlimit="10" points="286.674,12.146 286.674,7.083 297.734,7.083 297.734,2.13 
	303.459,2.13 303.459,7.083 314.41,7.083 314.41,12.146 "/>
<path fill="#FFFFFF" stroke="#000000" stroke-miterlimit="10" d="M110.685,33.664c-1.285-1.027-2.789-1.816-4.513-2.367
	c-1.725-0.551-3.559-0.826-5.503-0.826c-1.908,0-3.707,0.275-5.394,0.826c-1.688,0.551-3.155,1.32-4.402,2.311
	c-1.285,1.029-2.293,2.275-3.027,3.742c-0.734,1.469-1.1,3.137-1.1,5.008c0,1.799,0.366,3.432,1.1,4.898
	c0.734,1.467,1.742,2.715,3.027,3.742c1.247,1.027,2.714,1.816,4.402,2.367c1.687,0.549,3.486,0.824,5.394,0.824
	c1.944,0,3.778-0.285,5.503-0.854c1.724-0.568,3.228-1.365,4.513-2.393c1.246-1.064,2.236-2.32,2.971-3.77s1.101-3.055,1.101-4.816
	c0-1.797-0.366-3.428-1.101-4.896C112.921,35.994,111.931,34.729,110.685,33.664z M108.374,45.191
	c-0.44,0.826-1.046,1.533-1.815,2.119c-0.771,0.586-1.661,1.037-2.669,1.35c-1.009,0.311-2.064,0.467-3.164,0.467
	c-1.101,0-2.156-0.156-3.164-0.467c-1.01-0.313-1.899-0.764-2.67-1.35c-0.77-0.586-1.375-1.301-1.816-2.146
	c-0.44-0.844-0.66-1.779-0.66-2.807c0-1.025,0.22-1.961,0.66-2.807c0.441-0.842,1.046-1.576,1.816-2.201
	c0.734-0.586,1.605-1.035,2.614-1.348c1.009-0.311,2.082-0.467,3.22-0.467c1.136,0,2.21,0.156,3.219,0.467
	c1.009,0.313,1.898,0.762,2.669,1.348c0.732,0.588,1.32,1.303,1.761,2.146c0.44,0.846,0.659,1.799,0.659,2.861
	C109.033,43.422,108.814,44.367,108.374,45.191z"/>
<path fill="#FFFFFF" stroke="#000000" stroke-miterlimit="10" d="M164.175,12.641h-8.75c-0.295-1.43-0.836-2.732-1.624-3.907
	c-0.789-1.174-1.733-2.182-2.834-3.026c-1.138-0.807-2.394-1.439-3.769-1.898c-1.377-0.459-2.818-0.688-4.322-0.688
	c-1.834,0-3.53,0.303-5.09,0.908s-2.926,1.44-4.1,2.504c-1.174,1.101-2.091,2.403-2.751,3.907c-0.661,1.505-0.991,3.156-0.991,4.953
	c0,1.835,0.34,3.504,1.018,5.008c0.68,1.505,1.605,2.788,2.781,3.853c1.135,1.101,2.493,1.953,4.071,2.559
	c1.577,0.605,3.265,0.908,5.062,0.908c1.541,0,3.027-0.238,4.459-0.716c1.431-0.477,2.715-1.155,3.852-2.036
	s2.082-1.935,2.834-3.164c0.752-1.229,1.239-2.596,1.459-4.1h8.695v11.006h5.668v-26.8h-5.668V12.641z M149.481,18.309
	c-0.366,0.881-0.862,1.634-1.485,2.257c-0.66,0.66-1.422,1.175-2.283,1.541c-0.863,0.367-1.789,0.55-2.779,0.55
	c-1.064,0-2.037-0.183-2.917-0.55c-0.88-0.366-1.634-0.881-2.256-1.541c-0.66-0.623-1.175-1.376-1.541-2.257
	c-0.367-0.88-0.552-1.852-0.552-2.916c0-1.026,0.193-1.99,0.58-2.89c0.385-0.898,0.906-1.659,1.567-2.283
	c0.66-0.624,1.431-1.119,2.312-1.486c0.881-0.366,1.815-0.55,2.807-0.55c0.99,0,1.916,0.184,2.779,0.55
	c0.861,0.367,1.623,0.862,2.283,1.486c0.623,0.66,1.119,1.431,1.485,2.312c0.367,0.88,0.552,1.835,0.552,2.861
	C150.033,16.458,149.848,17.429,149.481,18.309z"/>
<path fill="#FFFFFF" stroke="#000000" stroke-miterlimit="10" d="M264.883,37.074c-1.285-0.842-2.771-1.494-4.459-1.953
	c-1.688-0.457-3.504-0.688-5.447-0.688c-1.908,0-3.707,0.23-5.393,0.688c-1.689,0.459-3.156,1.111-4.402,1.953
	c-1.248,0.881-2.229,1.926-2.945,3.139c-0.715,1.209-1.072,2.568-1.072,4.072s0.357,2.871,1.072,4.1
	c0.717,1.229,1.697,2.283,2.945,3.164c1.246,0.844,2.705,1.494,4.375,1.953c1.668,0.457,3.475,0.688,5.42,0.688
	c1.98,0,3.814-0.238,5.502-0.715s3.156-1.139,4.404-1.98c1.246-0.881,2.229-1.928,2.943-3.137c0.715-1.211,1.072-2.568,1.072-4.072
	s-0.357-2.863-1.072-4.072C267.111,39,266.129,37.955,264.883,37.074z M262.516,46.375c-0.439,0.625-1.027,1.156-1.762,1.596
	c-0.77,0.404-1.65,0.717-2.641,0.936c-0.99,0.221-2.035,0.33-3.137,0.33c-1.027,0-2.027-0.109-3-0.33
	c-0.973-0.219-1.824-0.531-2.559-0.936c-0.771-0.439-1.385-0.963-1.844-1.568s-0.688-1.311-0.688-2.117
	c0-0.771,0.229-1.459,0.688-2.064s1.072-1.129,1.844-1.568c0.734-0.404,1.586-0.715,2.559-0.936s1.973-0.33,3-0.33
	c1.102,0,2.146,0.109,3.137,0.33s1.871,0.531,2.641,0.936c0.734,0.439,1.322,0.963,1.762,1.568s0.66,1.293,0.66,2.064
	C263.176,45.055,262.955,45.752,262.516,46.375z"/>
<path fill="#FFFFFF" stroke="#000000" stroke-miterlimit="10" d="M257.893,0.81h-5.723v3.797h-14.418v4.292h9.712
	c-0.619,0.278-1.201,0.586-1.733,0.936c-1.211,0.771-2.146,1.716-2.807,2.833c-0.66,1.121-0.99,2.376-0.99,3.771
	c0,1.395,0.338,2.641,1.02,3.741c0.678,1.101,1.604,2.036,2.777,2.807s2.559,1.358,4.156,1.762c1.594,0.403,3.328,0.605,5.199,0.605
	s3.604-0.202,5.201-0.605c1.596-0.403,2.98-0.991,4.154-1.762s2.1-1.706,2.779-2.807c0.678-1.101,1.02-2.347,1.02-3.741
	c0-1.396-0.332-2.65-0.992-3.771c-0.66-1.117-1.578-2.063-2.752-2.833c-0.549-0.349-1.143-0.658-1.771-0.936h9.696V4.607h-14.529
	V0.81z M260.369,12.806c1.32,0.918,1.98,2.129,1.98,3.633c0,1.468-0.66,2.604-1.98,3.411s-3.082,1.211-5.283,1.211
	s-3.961-0.403-5.283-1.211c-1.32-0.808-1.98-1.943-1.98-3.411c0-1.504,0.66-2.715,1.98-3.633c1.322-0.916,3.082-1.375,5.283-1.375
	S259.049,11.89,260.369,12.806z"/>
<path fill="#FFFFFF" stroke="#000000" stroke-miterlimit="10" d="M317.051,39.469c-0.074-0.824-0.164-1.66-0.275-2.504
	c-2.422,0.477-4.777,0.826-7.07,1.045c-2.293,0.221-4.541,0.332-6.742,0.332v-4.348c1.322-0.184,2.559-0.551,3.715-1.102
	s2.154-1.246,3-2.092c0.805-0.842,1.447-1.834,1.926-2.971c0.477-1.137,0.715-2.384,0.715-3.742c0-1.54-0.313-2.935-0.936-4.182
	c-0.625-1.247-1.467-2.312-2.531-3.192c-1.064-0.88-2.303-1.549-3.715-2.009c-1.412-0.458-2.926-0.688-4.539-0.688
	c-1.615,0-3.137,0.229-4.568,0.688c-1.432,0.46-2.678,1.129-3.742,2.009c-1.064,0.881-1.898,1.945-2.504,3.192
	s-0.908,2.642-0.908,4.182c0,1.285,0.221,2.477,0.66,3.577c0.441,1.101,1.047,2.074,1.816,2.917c0.771,0.844,1.688,1.541,2.752,2.09
	c1.063,0.551,2.236,0.936,3.521,1.156v4.514h-12.217v5.063h13.867c3.559,0,6.824-0.119,9.795-0.357
	c2.973-0.238,5.725-0.598,8.256-1.074C317.217,41.129,317.125,40.293,317.051,39.469z M300.598,29.096
	c-0.809,0-1.578-0.109-2.313-0.33s-1.375-0.551-1.926-0.991c-0.551-0.403-0.982-0.908-1.293-1.514
	c-0.313-0.605-0.469-1.293-0.469-2.063c0-1.65,0.588-2.917,1.762-3.797c1.174-0.881,2.586-1.321,4.238-1.321
	c0.805,0,1.576,0.11,2.311,0.331c0.732,0.22,1.377,0.551,1.926,0.99c0.551,0.44,0.98,0.981,1.293,1.623
	c0.311,0.643,0.469,1.367,0.469,2.174c0,0.771-0.158,1.458-0.469,2.063c-0.313,0.605-0.742,1.11-1.293,1.514
	c-0.549,0.44-1.193,0.77-1.926,0.991C302.174,28.986,301.402,29.096,300.598,29.096z"/>
<rect x="320.188" y="1.91" fill="#FFFFFF" stroke="#000000" stroke-miterlimit="10" width="5.668" height="51.729"/>
</svg>
