<?xml version="1.0" encoding="utf-8"?>
<!-- Generator: Adobe Illustrator 16.0.0, SVG Export Plug-In . SVG Version: 6.00 Build 0)  -->
<!DOCTYPE svg PUBLIC "-//W3C//DTD SVG 1.1//EN" "http://www.w3.org/Graphics/SVG/1.1/DTD/svg11.dtd">
<svg version="1.1" id="레이어_1" xmlns="http://www.w3.org/2000/svg" xmlns:xlink="http://www.w3.org/1999/xlink" x="0px"
	 y="0px" width="400px" height="55px" viewBox="0 0 400 55" enable-background="new 0 0 400 55" xml:space="preserve">
<polygon fill="#FFFFFF" stroke="#000000" stroke-miterlimit="10" points="76.461,30.141 76.461,34.82 102.601,34.82 102.601,38.727 
	76.461,38.727 76.461,52.539 109.041,52.539 109.041,47.861 82.185,47.861 82.185,43.404 108.324,43.404 108.324,30.141 "/>
<path fill="#FFFFFF" stroke="#000000" stroke-miterlimit="10" d="M89.669,3.451v6.825H76.132V3.451h-5.724v22.233h24.984V3.451
	H89.669z M89.669,20.786H76.132v-5.613h13.537V20.786z"/>
<polygon fill="#FFFFFF" stroke="#000000" stroke-miterlimit="10" points="102.601,1.911 102.601,26.674 108.324,26.674 
	108.324,17.043 116.304,17.043 116.304,11.981 108.324,11.981 108.324,1.911 "/>
<path fill="#FFFFFF" stroke="#000000" stroke-miterlimit="10" d="M157.357,1.911v5.668h-9.41V4.056h-23.608V26.62h23.608v-4.348
	h9.41v7.263h5.668V1.911H157.357z M142.223,21.557h-12.217V9.12h12.217V21.557z M157.357,17.54h-9.41v-5.282h9.41V17.54z"/>
<path fill="#FFFFFF" stroke="#000000" stroke-miterlimit="10" d="M158.128,33.664c-1.285-1.027-2.78-1.816-4.486-2.367
	c-1.705-0.551-3.531-0.826-5.475-0.826c-1.908,0-3.706,0.275-5.393,0.826c-1.688,0.551-3.156,1.32-4.403,2.311
	c-1.284,1.029-2.293,2.275-3.026,3.742c-0.735,1.469-1.101,3.137-1.101,5.008c0,1.799,0.366,3.432,1.101,4.898
	c0.733,1.467,1.742,2.715,3.026,3.742c1.247,1.027,2.715,1.816,4.403,2.367c1.687,0.549,3.485,0.824,5.393,0.824
	c1.944,0,3.77-0.285,5.475-0.854c1.706-0.568,3.201-1.367,4.486-2.393c1.246-1.027,2.237-2.275,2.971-3.742s1.101-3.082,1.101-4.844
	c0-1.834-0.367-3.484-1.101-4.951C160.365,35.938,159.374,34.691,158.128,33.664z M155.871,45.164
	c-0.44,0.846-1.046,1.561-1.816,2.146s-1.66,1.037-2.669,1.35c-1.009,0.311-2.063,0.469-3.164,0.469s-2.156-0.158-3.164-0.469
	c-1.01-0.313-1.899-0.764-2.67-1.35c-0.77-0.586-1.375-1.293-1.815-2.119c-0.44-0.824-0.661-1.77-0.661-2.834
	s0.221-2.016,0.661-2.861c0.44-0.844,1.045-1.559,1.815-2.146c0.734-0.586,1.605-1.035,2.615-1.346
	c1.008-0.313,2.081-0.469,3.219-0.469c1.137,0,2.21,0.156,3.219,0.469c1.009,0.311,1.899,0.76,2.669,1.346
	c0.734,0.625,1.321,1.359,1.761,2.201c0.44,0.846,0.661,1.781,0.661,2.807C156.532,43.385,156.311,44.32,155.871,45.164z"/>
<path fill="#FFFFFF" stroke="#000000" stroke-miterlimit="10" d="M173.428,26.509c2.017-1.101,3.805-2.329,5.364-3.688
	c1.56-1.356,2.87-2.807,3.935-4.347c1.063-1.504,1.861-3.055,2.394-4.65s0.78-3.164,0.744-4.705h-9.906V4.056h25.974V9.12h-9.959
	c0.22,3.559,1.32,6.658,3.302,9.299c1.981,2.643,5.026,4.973,9.135,6.99c-0.66,0.624-1.312,1.257-1.954,1.898
	c-0.643,0.643-1.275,1.275-1.898,1.898c-2.642-1.247-4.961-2.779-6.961-4.594c-2-1.817-3.531-3.825-4.596-6.026
	c-1.027,2.386-2.55,4.567-4.566,6.549c-2.02,1.981-4.385,3.707-7.1,5.173c-0.66-0.623-1.313-1.256-1.953-1.898
	C174.738,27.766,174.088,27.133,173.428,26.509"/>
<polygon fill="#FFFFFF" stroke="#000000" stroke-miterlimit="10" points="215.69,52.264 182.947,52.264 182.947,34.764 
	188.67,34.764 188.67,47.201 215.69,47.201 "/>
<rect x="209.362" y="1.911" fill="#FFFFFF" stroke="#000000" stroke-miterlimit="10" width="5.668" height="33.568"/>
<rect x="223.779" y="27.556" fill="#FFFFFF" stroke="#000000" stroke-miterlimit="10" width="48.979" height="4.897"/>
<path fill="#FFFFFF" stroke="#000000" stroke-miterlimit="10" d="M265.604,4.607h-14.529V0.81h-5.723v3.797h-14.418v4.292h9.713
	c-0.619,0.278-1.2,0.586-1.732,0.936c-1.211,0.771-2.147,1.716-2.808,2.833c-0.659,1.121-0.991,2.376-0.991,3.771
	c0,1.395,0.34,2.641,1.02,3.741c0.678,1.101,1.604,2.036,2.779,2.807c1.173,0.771,2.558,1.358,4.154,1.762
	c1.596,0.403,3.329,0.605,5.2,0.605s3.604-0.202,5.201-0.605c1.595-0.403,2.979-0.991,4.153-1.762
	c1.175-0.771,2.101-1.706,2.781-2.807c0.678-1.101,1.018-2.347,1.018-3.741c0-1.396-0.331-2.65-0.991-3.771
	c-0.661-1.117-1.578-2.063-2.752-2.833c-0.549-0.35-1.143-0.658-1.771-0.936h9.696V4.607z M253.552,19.85
	c-1.321,0.808-3.082,1.211-5.283,1.211c-2.2,0-3.962-0.403-5.282-1.211c-1.322-0.808-1.981-1.943-1.981-3.411
	c0-1.504,0.659-2.715,1.981-3.633c1.32-0.916,3.082-1.375,5.282-1.375c2.201,0,3.962,0.459,5.283,1.375
	c1.321,0.918,1.981,2.129,1.981,3.633C255.533,17.907,254.873,19.042,253.552,19.85z"/>
<polygon fill="#FFFFFF" stroke="#000000" stroke-miterlimit="10" points="279.856,12.146 279.856,7.083 290.917,7.083 290.917,2.13 
	296.641,2.13 296.641,7.083 307.592,7.083 307.592,12.146 "/>
<path fill="#FFFFFF" stroke="#000000" stroke-miterlimit="10" d="M258.064,37.074c-1.285-0.842-2.771-1.494-4.458-1.953
	c-1.688-0.457-3.504-0.688-5.448-0.688c-1.908,0-3.705,0.23-5.393,0.688c-1.688,0.459-3.156,1.111-4.402,1.953
	c-1.248,0.881-2.229,1.926-2.945,3.139c-0.715,1.209-1.072,2.568-1.072,4.072s0.357,2.871,1.072,4.1
	c0.717,1.229,1.697,2.283,2.945,3.164c1.246,0.844,2.705,1.494,4.375,1.953c1.67,0.457,3.476,0.688,5.42,0.688
	c1.981,0,3.815-0.238,5.504-0.715c1.687-0.477,3.154-1.139,4.402-1.98c1.246-0.881,2.229-1.928,2.944-3.137
	c0.715-1.211,1.073-2.568,1.073-4.072s-0.358-2.863-1.073-4.072C260.293,39,259.311,37.955,258.064,37.074z M255.697,46.375
	c-0.439,0.625-1.026,1.156-1.761,1.596c-0.771,0.404-1.651,0.717-2.641,0.936c-0.991,0.221-2.036,0.33-3.138,0.33
	c-1.026,0-2.027-0.109-2.998-0.33c-0.974-0.219-1.826-0.531-2.56-0.936c-0.771-0.439-1.385-0.963-1.844-1.568
	s-0.688-1.311-0.688-2.117c0-0.771,0.229-1.459,0.688-2.064s1.073-1.129,1.844-1.568c0.733-0.404,1.586-0.715,2.56-0.936
	c0.971-0.221,1.972-0.33,2.998-0.33c1.102,0,2.146,0.109,3.138,0.33c0.989,0.221,1.87,0.531,2.641,0.936
	c0.734,0.439,1.321,0.963,1.761,1.568c0.44,0.605,0.662,1.293,0.662,2.064C256.359,45.055,256.138,45.752,255.697,46.375z"/>
<path fill="#FFFFFF" stroke="#000000" stroke-miterlimit="10" d="M310.233,39.469c-0.074-0.824-0.165-1.66-0.275-2.504
	c-2.421,0.477-4.778,0.826-7.071,1.045c-2.293,0.221-4.541,0.332-6.742,0.332v-4.348c1.322-0.184,2.56-0.551,3.716-1.102
	c1.155-0.551,2.155-1.246,2.999-2.092c0.807-0.842,1.449-1.834,1.926-2.971c0.477-1.137,0.716-2.384,0.716-3.742
	c0-1.54-0.313-2.935-0.936-4.182c-0.624-1.247-1.468-2.312-2.532-3.192c-1.064-0.88-2.302-1.549-3.714-2.009
	c-1.413-0.458-2.927-0.688-4.54-0.688c-1.615,0-3.137,0.229-4.568,0.688c-1.43,0.46-2.678,1.129-3.742,2.009
	c-1.063,0.881-1.897,1.945-2.504,3.192c-0.604,1.247-0.908,2.642-0.908,4.182c0,1.285,0.222,2.477,0.662,3.577
	c0.439,1.101,1.045,2.074,1.815,2.917s1.687,1.541,2.751,2.09c1.064,0.551,2.238,0.936,3.521,1.156v4.514H278.59v5.063h13.868
	c3.558,0,6.824-0.119,9.796-0.357c2.971-0.238,5.723-0.598,8.256-1.074C310.398,41.129,310.307,40.293,310.233,39.469z
	 M293.779,29.096c-0.809,0-1.578-0.109-2.311-0.33c-0.735-0.221-1.377-0.551-1.927-0.991c-0.551-0.403-0.983-0.908-1.294-1.514
	c-0.313-0.605-0.467-1.293-0.467-2.063c0-1.65,0.586-2.917,1.761-3.797c1.173-0.881,2.587-1.321,4.237-1.321
	c0.807,0,1.577,0.11,2.311,0.331c0.734,0.22,1.377,0.551,1.926,0.99c0.552,0.44,0.981,0.981,1.293,1.623
	c0.313,0.643,0.469,1.367,0.469,2.174c0,0.771-0.156,1.458-0.469,2.063c-0.312,0.605-0.741,1.11-1.293,1.514
	c-0.549,0.44-1.191,0.77-1.926,0.991C295.356,28.986,294.586,29.096,293.779,29.096z"/>
<rect x="313.37" y="1.91" fill="#FFFFFF" stroke="#000000" stroke-miterlimit="10" width="5.668" height="51.729"/>
</svg>
