<?xml version="1.0" encoding="utf-8"?>
<!-- Generator: Adobe Illustrator 16.0.0, SVG Export Plug-In . SVG Version: 6.00 Build 0)  -->
<!DOCTYPE svg PUBLIC "-//W3C//DTD SVG 1.1//EN" "http://www.w3.org/Graphics/SVG/1.1/DTD/svg11.dtd">
<svg version="1.1" id="레이어_1" xmlns="http://www.w3.org/2000/svg" xmlns:xlink="http://www.w3.org/1999/xlink" x="0px"
	 y="0px" width="400px" height="55px" viewBox="0 0 400 55" enable-background="new 0 0 400 55" xml:space="preserve">
<polygon fill="#FFFFFF" stroke="#000000" stroke-miterlimit="10" points="193.011,51.989 160.983,51.989 160.983,36.525 
	166.651,36.525 166.651,46.926 193.011,46.926 "/>
<path fill="#FFFFFF" stroke="#000000" stroke-miterlimit="10" d="M126.258,32.619h13.923V5.103h-5.723v9.575h-22.123V5.103h-5.723
	v27.517h13.978v9.574H99.349V47.2h48.097v-5.007h-21.187V32.619z M112.335,27.556V19.74h22.123v7.815H112.335z"/>
<path fill="#FFFFFF" stroke="#000000" stroke-miterlimit="10" d="M184.537,28.601c-0.075-0.807-0.166-1.614-0.276-2.421
	c-4.99,1.174-9.594,1.761-13.813,1.761v-4.128c1.357-0.146,2.587-0.531,3.688-1.155c1.101-0.623,2.055-1.394,2.861-2.312
	c0.77-0.916,1.366-1.953,1.789-3.109c0.421-1.155,0.632-2.375,0.632-3.659c0-1.688-0.302-3.191-0.907-4.513
	c-0.605-1.32-1.44-2.439-2.504-3.356c-1.064-0.917-2.303-1.624-3.715-2.12c-1.413-0.494-2.943-0.742-4.595-0.742
	s-3.192,0.248-4.623,0.742c-1.431,0.496-2.66,1.203-3.687,2.12c-1.064,0.917-1.89,2.045-2.476,3.384
	c-0.587,1.34-0.881,2.834-0.881,4.485c0,1.32,0.211,2.559,0.633,3.715c0.421,1.155,1.036,2.174,1.844,3.054
	c0.77,0.918,1.714,1.679,2.833,2.283c1.118,0.606,2.375,1.019,3.77,1.239v4.072h-11.831v4.896h13.647
	c6.86,0,12.821-0.604,17.885-1.814C184.702,30.216,184.609,29.408,184.537,28.601z M167.752,19.575
	c-0.844,0-1.651-0.128-2.422-0.385s-1.448-0.642-2.036-1.156c-0.587-0.476-1.055-1.091-1.402-1.843
	c-0.35-0.752-0.523-1.642-0.523-2.669c0-2.019,0.624-3.55,1.871-4.596c1.247-1.045,2.752-1.568,4.513-1.568
	c1.798,0,3.302,0.532,4.513,1.596c1.211,1.064,1.815,2.587,1.815,4.568c0,0.99-0.165,1.862-0.495,2.613
	c-0.33,0.753-0.789,1.386-1.376,1.898c-0.587,0.515-1.257,0.899-2.008,1.156C169.448,19.447,168.632,19.575,167.752,19.575z"/>
<polygon fill="#FFFFFF" stroke="#000000" stroke-miterlimit="10" points="192.517,20.566 192.517,37.405 186.849,37.405 
	186.849,1.636 192.517,1.636 192.517,15.503 200.495,15.503 200.495,20.566 "/>
<path fill="#FFFFFF" stroke="#000000" stroke-miterlimit="10" d="M204.844,31.132v-4.843h10.069v-10.07h5.338v10.07
	c5.431,0,10.877-0.586,16.346-1.761l0.495,4.788c-5.503,1.21-12.218,1.815-20.142,1.815H204.844z"/>
<path fill="#FFFFFF" stroke="#000000" stroke-miterlimit="10" d="M233.019,4.002c0,6.971-0.477,12.786-1.43,17.444l-5.283-0.495
	c0.402-2.238,0.706-4.365,0.908-6.384c0.201-2.017,0.303-3.907,0.303-5.668H207.76V4.002H233.019z"/>
<polygon fill="#FFFFFF" stroke="#000000" stroke-miterlimit="10" points="245.29,51.989 212.163,51.989 212.163,36.305 
	217.886,36.305 217.886,46.926 245.29,46.926 "/>
<polygon fill="#FFFFFF" stroke="#000000" stroke-miterlimit="10" points="244.851,20.566 244.851,37.405 239.128,37.405 
	239.128,1.636 244.851,1.636 244.851,15.503 252.829,15.503 252.829,20.566 "/>
<path fill="#FFFFFF" stroke="#000000" stroke-miterlimit="10" d="M282.602,35.314l-3.741,3.742
	c-2.019-1.871-3.853-3.998-5.504-6.384c-1.65-2.385-2.881-4.751-3.688-7.099c-0.989,2.605-2.256,5.054-3.797,7.347
	s-3.338,4.448-5.393,6.466c-0.625-0.623-1.238-1.247-1.844-1.871c-0.605-0.623-1.221-1.247-1.844-1.871
	c1.798-1.687,3.339-3.43,4.623-5.228c1.283-1.798,2.33-3.688,3.137-5.669c0.807-1.98,1.412-4.072,1.816-6.273
	c0.402-2.201,0.623-4.585,0.66-7.153h-8.255V6.258h21.847v5.063h-8.254c0,2.274,0.166,4.457,0.496,6.548
	c0.329,2.092,0.897,4.128,1.705,6.108c0.77,1.981,1.807,3.908,3.109,5.778C278.979,31.627,280.62,33.48,282.602,35.314"/>
<polygon fill="#FFFFFF" stroke="#000000" stroke-miterlimit="10" points="278.034,17.649 285.188,17.649 285.188,2.736 
	290.526,2.736 290.526,51.714 285.188,51.714 285.188,22.712 278.034,22.712 "/>
<rect x="295.313" y="1.636" fill="#FFFFFF" stroke="#000000" stroke-miterlimit="10" width="5.338" height="51.729"/>
</svg>
