<?xml version="1.0" encoding="utf-8"?>
<!-- Generator: Adobe Illustrator 16.0.0, SVG Export Plug-In . SVG Version: 6.00 Build 0)  -->
<!DOCTYPE svg PUBLIC "-//W3C//DTD SVG 1.1//EN" "http://www.w3.org/Graphics/SVG/1.1/DTD/svg11.dtd">
<svg version="1.1" id="레이어_1" xmlns="http://www.w3.org/2000/svg" xmlns:xlink="http://www.w3.org/1999/xlink" x="0px"
	 y="0px" width="400px" height="55px" viewBox="0 0 400 55" enable-background="new 0 0 400 55" xml:space="preserve">
<path fill="#FFFFFF" stroke="#000000" stroke-miterlimit="10" d="M111.924,7.756v39.622h-3.274c-0.496,0-0.918-0.087-1.266-0.262
	c-0.349-0.173-0.679-0.463-0.991-0.866L84.629,18.294c0.055,0.532,0.096,1.06,0.123,1.582c0.028,0.522,0.042,1.005,0.042,1.444
	v26.058h-5.669V7.756h3.357c0.275,0,0.509,0.014,0.702,0.041s0.372,0.078,0.537,0.151s0.32,0.184,0.467,0.33
	c0.147,0.147,0.303,0.331,0.468,0.55l21.792,27.983c-0.055-0.568-0.096-1.128-0.123-1.678c-0.028-0.551-0.042-1.063-0.042-1.541
	V7.756H111.924z"/>
<polygon fill="#FFFFFF" stroke="#000000" stroke-miterlimit="10" points="146.098,42.178 146.07,47.378 121.361,47.378 
	121.361,7.756 146.07,7.756 146.07,12.956 127.828,12.956 127.828,24.897 142.411,24.897 142.411,29.933 127.828,29.933 
	127.828,42.178 "/>
<path fill="#FFFFFF" stroke="#000000" stroke-miterlimit="10" d="M195.212,7.756v39.622h-5.668V20.22
	c0-0.439,0.013-0.922,0.041-1.443c0.027-0.523,0.069-1.051,0.124-1.582l-12.74,23.524c-0.495,0.974-1.257,1.459-2.284,1.459h-0.908
	c-1.045,0-1.807-0.485-2.284-1.459l-12.932-23.58c0.055,0.532,0.097,1.063,0.124,1.597c0.027,0.531,0.041,1.026,0.041,1.484v27.158
	h-5.668V7.756h4.815c0.569,0,1.009,0.051,1.321,0.151s0.596,0.408,0.853,0.921l12.712,23.032c0.275,0.531,0.537,1.076,0.784,1.636
	c0.248,0.56,0.472,1.133,0.675,1.72c0.22-0.587,0.453-1.169,0.701-1.747s0.509-1.133,0.784-1.665l12.52-22.976
	c0.257-0.513,0.541-0.82,0.853-0.921s0.752-0.151,1.321-0.151H195.212z"/>
<path fill="#FFFFFF" stroke="#000000" stroke-miterlimit="10" d="M241.851,27.566c0,2.936-0.477,5.641-1.43,8.117
	c-0.955,2.477-2.298,4.609-4.031,6.397c-1.734,1.789-3.816,3.188-6.247,4.196c-2.43,1.009-5.131,1.514-8.103,1.514
	c-2.953,0-5.645-0.505-8.076-1.514c-2.43-1.009-4.517-2.407-6.26-4.196c-1.742-1.788-3.091-3.921-4.044-6.397
	c-0.954-2.477-1.431-5.182-1.431-8.117c0-2.935,0.477-5.641,1.431-8.117c0.953-2.476,2.302-4.611,4.044-6.411
	c1.743-1.797,3.83-3.2,6.26-4.21c2.431-1.008,5.123-1.513,8.076-1.513c2.972,0,5.673,0.505,8.103,1.513
	c2.431,1.01,4.513,2.413,6.247,4.21c1.733,1.8,3.076,3.936,4.031,6.411C241.374,21.926,241.851,24.632,241.851,27.566
	 M235.275,27.566c0-2.274-0.307-4.319-0.922-6.136c-0.614-1.816-1.495-3.356-2.641-4.622c-1.147-1.267-2.536-2.238-4.169-2.917
	c-1.633-0.679-3.467-1.019-5.503-1.019c-2.018,0-3.843,0.34-5.475,1.019c-1.633,0.679-3.027,1.65-4.183,2.917
	c-1.156,1.266-2.045,2.806-2.669,4.622s-0.935,3.861-0.935,6.136c0,2.294,0.311,4.348,0.935,6.164
	c0.624,1.814,1.513,3.353,2.669,4.608c1.156,1.257,2.55,2.22,4.183,2.89c1.632,0.67,3.457,1.004,5.475,1.004
	c2.036,0,3.87-0.334,5.503-1.004c1.633-0.67,3.022-1.633,4.169-2.89c1.146-1.256,2.027-2.794,2.641-4.608
	C234.968,31.914,235.275,29.86,235.275,27.566"/>
<path fill="#FFFFFF" stroke="#000000" stroke-miterlimit="10" d="M264.523,42.178c1.522,0,2.885-0.257,4.086-0.771
	c1.201-0.513,2.219-1.228,3.054-2.146c0.835-0.917,1.472-2.022,1.913-3.315c0.44-1.293,0.66-2.729,0.66-4.307V7.756h6.411v23.883
	c0,2.33-0.371,4.485-1.114,6.467c-0.743,1.98-1.812,3.691-3.206,5.132c-1.394,1.439-3.086,2.568-5.076,3.384
	c-1.991,0.816-4.234,1.225-6.728,1.225c-2.495,0-4.737-0.408-6.728-1.225c-1.99-0.815-3.682-1.944-5.076-3.384
	c-1.394-1.44-2.463-3.151-3.206-5.132c-0.743-1.981-1.114-4.137-1.114-6.467V7.756h6.438v23.855c0,1.578,0.221,3.013,0.661,4.307
	c0.44,1.293,1.073,2.403,1.899,3.329c0.825,0.927,1.838,1.646,3.04,2.159C261.638,41.921,263,42.178,264.523,42.178"/>
<path fill="#FFFFFF" stroke="#000000" stroke-miterlimit="10" d="M320.875,47.378h-6.411c-0.441,0-0.798-0.119-1.073-0.357
	c-0.276-0.238-0.496-0.505-0.661-0.798l-9.85-15.877c-0.074,0.22-0.152,0.432-0.234,0.633c-0.083,0.202-0.179,0.395-0.289,0.578
	l-9.521,14.666c-0.201,0.293-0.426,0.56-0.674,0.798c-0.247,0.238-0.573,0.357-0.976,0.357h-5.999l13.373-20.361L285.737,7.756
	h6.383c0.458,0,0.793,0.068,1.004,0.206s0.399,0.344,0.564,0.619l9.631,15.134c0.092-0.221,0.183-0.441,0.275-0.661
	c0.092-0.22,0.211-0.449,0.358-0.688l8.97-13.676c0.183-0.312,0.385-0.545,0.605-0.701c0.22-0.155,0.486-0.233,0.798-0.233h6.136
	l-12.932,18.985L320.875,47.378z"/>
</svg>
