<?xml version="1.0" encoding="utf-8"?>
<!-- Generator: Adobe Illustrator 16.0.0, SVG Export Plug-In . SVG Version: 6.00 Build 0)  -->
<!DOCTYPE svg PUBLIC "-//W3C//DTD SVG 1.1//EN" "http://www.w3.org/Graphics/SVG/1.1/DTD/svg11.dtd">
<svg version="1.1" id="레이어_1" xmlns="http://www.w3.org/2000/svg" xmlns:xlink="http://www.w3.org/1999/xlink" x="0px"
	 y="0px" width="400px" height="55px" viewBox="0 0 400 55" enable-background="new 0 0 400 55" xml:space="preserve">
<path fill="#FFFFFF" stroke="#000000" stroke-miterlimit="10" d="M45.336,42.359v-5.063h9.245V22.604h5.338v14.693
	c2.861,0,5.668-0.11,8.42-0.331c2.751-0.22,5.483-0.567,8.199-1.045l0.495,5.008c-5.54,0.954-12.346,1.431-20.416,1.431H45.336z"/>
<path fill="#FFFFFF" stroke="#000000" stroke-miterlimit="10" d="M73.126,6.369c0,9.465-0.606,17.665-1.815,24.599l-5.284-0.495
	c0.514-3.448,0.909-6.769,1.183-9.961c0.275-3.191,0.413-6.273,0.413-9.245H47.868V6.369H73.126z"/>
<polygon fill="#FFFFFF" stroke="#000000" stroke-miterlimit="10" points="84.958,25.96 84.958,53.53 79.234,53.53 79.234,1.802 
	84.958,1.802 84.958,20.952 93.487,20.952 93.487,25.96 "/>
<polygon fill="#FFFFFF" stroke="#000000" stroke-miterlimit="10" points="97.781,10.496 97.781,6.204 109.447,6.204 109.447,1.802 
	115.171,1.802 115.171,6.204 126.837,6.204 126.837,10.496 "/>
<polygon fill="#FFFFFF" stroke="#000000" stroke-miterlimit="10" points="132.065,52.43 132.065,39.883 106.31,39.883 106.31,34.82 
	137.733,34.82 137.733,52.43 "/>
<polygon fill="#FFFFFF" stroke="#000000" stroke-miterlimit="10" points="137.733,18.641 137.733,31.188 132.065,31.188 
	132.065,1.802 137.733,1.802 137.733,13.579 145.547,13.579 145.547,18.641 "/>
<path fill="#FFFFFF" stroke="#000000" stroke-miterlimit="10" d="M149.07,25.685c1.944-1.026,3.622-2.072,5.035-3.137
	c1.412-1.063,2.614-2.182,3.604-3.356c0.953-1.174,1.715-2.402,2.284-3.688c0.569-1.283,0.963-2.659,1.183-4.127h-9.63V6.313h10.401
	V1.472h5.723v4.842h10.071v5.063h-9.686c0,2.201,0.954,4.457,2.861,6.769c1.908,2.312,5.009,4.458,9.301,6.438
	c-0.66,0.625-1.312,1.248-1.954,1.871c-0.642,0.625-1.274,1.248-1.898,1.871c-2.715-1.173-5.09-2.631-7.126-4.375
	c-2.037-1.742-3.55-3.604-4.54-5.585c-1.028,2.237-2.56,4.302-4.596,6.19c-2.036,1.89-4.43,3.514-7.182,4.87
	c-0.624-0.623-1.265-1.246-1.926-1.871C150.335,26.933,149.693,26.31,149.07,25.685"/>
<polygon fill="#FFFFFF" stroke="#000000" stroke-miterlimit="10" points="190.013,18.091 190.013,29.262 184.344,29.262 
	184.344,1.802 190.013,1.802 190.013,13.028 197.992,13.028 197.992,18.091 "/>
<path fill="#FFFFFF" stroke="#000000" stroke-miterlimit="10" d="M203.715,42.359v-5.063h4.678c4.842,0,9.473-0.146,13.896-0.44
	c4.42-0.293,8.686-0.733,12.793-1.321c0.072,0.845,0.156,1.679,0.248,2.504c0.092,0.826,0.174,1.661,0.248,2.504
	c-8.328,1.211-17.391,1.816-27.186,1.816H203.715z"/>
<path fill="#FFFFFF" stroke="#000000" stroke-miterlimit="10" d="M120.454,14.624c-0.992-0.844-2.184-1.514-3.577-2.009
	c-1.395-0.495-2.936-0.743-4.623-0.743c-1.688,0-3.219,0.239-4.595,0.716c-1.376,0.477-2.56,1.137-3.55,1.98
	c-0.99,0.881-1.761,1.908-2.312,3.082c-0.549,1.175-0.825,2.477-0.825,3.907c0,1.396,0.266,2.679,0.798,3.854
	c0.531,1.173,1.293,2.182,2.284,3.025c0.991,0.845,2.182,1.505,3.577,1.981c1.394,0.477,2.935,0.715,4.623,0.715
	c1.724,0,3.283-0.247,4.677-0.743c1.394-0.495,2.587-1.164,3.577-2.008c0.991-0.844,1.752-1.853,2.285-3.027
	c0.531-1.174,0.797-2.439,0.797-3.797c0-1.394-0.275-2.678-0.826-3.853C122.214,16.531,121.444,15.504,120.454,14.624z
	 M116.298,25.052c-1.083,0.899-2.43,1.349-4.044,1.349c-1.651,0-3-0.458-4.045-1.376c-1.045-0.916-1.569-2.071-1.569-3.467
	c0-1.541,0.524-2.752,1.569-3.632c1.045-0.881,2.394-1.321,4.045-1.321s3.007,0.44,4.072,1.321c1.063,0.88,1.595,2.091,1.595,3.632
	C117.921,22.988,117.38,24.153,116.298,25.052z"/>
<path fill="#FFFFFF" stroke="#000000" stroke-miterlimit="10" d="M185.61,33.555c-1.284-1.026-2.788-1.816-4.512-2.366
	c-1.726-0.551-3.56-0.826-5.504-0.826c-1.907,0-3.706,0.275-5.393,0.826c-1.688,0.55-3.156,1.32-4.402,2.311
	c-1.285,1.029-2.294,2.275-3.027,3.742c-0.735,1.468-1.101,3.137-1.101,5.008c0,1.798,0.366,3.431,1.101,4.898
	c0.733,1.467,1.742,2.715,3.027,3.742c1.246,1.026,2.714,1.815,4.402,2.366c1.687,0.55,3.486,0.825,5.393,0.825
	c1.944,0,3.778-0.285,5.504-0.854c1.724-0.568,3.228-1.366,4.512-2.394c1.247-1.064,2.237-2.32,2.971-3.77
	c0.735-1.449,1.101-3.054,1.101-4.815c0-1.797-0.366-3.429-1.101-4.897C187.847,35.885,186.857,34.619,185.61,33.555z
	 M183.299,45.083c-0.44,0.826-1.046,1.532-1.816,2.119c-0.771,0.586-1.66,1.036-2.669,1.349c-1.01,0.312-2.064,0.468-3.164,0.468
	c-1.101,0-2.157-0.156-3.164-0.468c-1.01-0.313-1.9-0.763-2.67-1.349c-0.77-0.587-1.375-1.302-1.816-2.146
	c-0.44-0.844-0.66-1.779-0.66-2.807c0-1.026,0.22-1.962,0.66-2.807c0.441-0.843,1.046-1.577,1.816-2.201
	c0.734-0.586,1.604-1.036,2.614-1.348c1.009-0.312,2.082-0.468,3.22-0.468c1.136,0,2.21,0.156,3.218,0.468
	c1.009,0.312,1.899,0.762,2.669,1.348c0.734,0.588,1.322,1.303,1.762,2.146c0.44,0.845,0.66,1.798,0.66,2.861
	C183.959,43.313,183.739,44.258,183.299,45.083z"/>
<path fill="#FFFFFF" stroke="#000000" stroke-miterlimit="10" d="M230.213,13.165c-0.68-1.522-1.605-2.834-2.779-3.935
	c-1.174-1.063-2.533-1.889-4.072-2.477c-1.541-0.586-3.191-0.88-4.953-0.88c-1.725,0-3.357,0.284-4.896,0.854
	c-1.541,0.568-2.9,1.385-4.072,2.448c-1.176,1.101-2.102,2.412-2.779,3.935c-0.68,1.522-1.02,3.22-1.02,5.09
	c0,1.835,0.34,3.495,1.02,4.98c0.678,1.486,1.604,2.762,2.779,3.825c1.172,1.064,2.531,1.89,4.072,2.477
	c1.539,0.587,3.172,0.88,4.896,0.88c1.762,0,3.412-0.293,4.953-0.88c1.539-0.587,2.898-1.432,4.072-2.532
	c1.174-1.063,2.1-2.339,2.779-3.824c0.678-1.486,1.018-3.127,1.018-4.926C231.23,16.366,230.891,14.688,230.213,13.165z
	 M225.314,21.2c-0.385,0.936-0.908,1.733-1.568,2.394c-0.697,0.66-1.494,1.176-2.393,1.541c-0.9,0.367-1.863,0.55-2.891,0.55
	c-1.064,0-2.055-0.183-2.973-0.55c-0.916-0.365-1.705-0.881-2.365-1.541c-0.697-0.66-1.238-1.458-1.623-2.394
	c-0.387-0.936-0.578-1.954-0.578-3.055c0-1.174,0.191-2.229,0.578-3.164c0.385-0.936,0.926-1.733,1.623-2.394
	c0.66-0.661,1.449-1.165,2.365-1.514c0.918-0.349,1.908-0.522,2.973-0.522c1.027,0,1.99,0.174,2.891,0.522
	c0.898,0.349,1.695,0.853,2.393,1.514c0.66,0.66,1.184,1.458,1.568,2.394s0.578,1.99,0.578,3.164
	C225.893,19.246,225.699,20.265,225.314,21.2z"/>
<rect x="238.273" y="1.801" fill="#FFFFFF" stroke="#000000" stroke-miterlimit="10" width="5.668" height="51.729"/>
<path fill="#FFFFFF" stroke="#000000" stroke-miterlimit="10" d="M280.098,35.48l-3.742,3.742c-2.018-1.871-3.854-3.998-5.502-6.384
	c-1.652-2.385-2.881-4.751-3.689-7.099c-0.988,2.605-2.254,5.054-3.797,7.347c-1.541,2.293-3.338,4.448-5.391,6.466
	c-0.625-0.623-1.238-1.247-1.844-1.871c-0.605-0.623-1.223-1.247-1.846-1.871c1.797-1.687,3.338-3.43,4.623-5.228
	s2.33-3.688,3.139-5.669c0.807-1.98,1.41-4.072,1.814-6.273s0.625-4.585,0.66-7.153h-8.254V6.424h21.848v5.063h-8.254
	c0,2.274,0.164,4.457,0.494,6.548c0.33,2.092,0.898,4.128,1.707,6.108c0.77,1.981,1.805,3.907,3.109,5.778
	C276.475,31.793,278.117,33.646,280.098,35.48"/>
<polygon fill="#FFFFFF" stroke="#000000" stroke-miterlimit="10" points="287.473,51.88 281.969,51.88 281.969,2.352 287.473,2.352 
	287.473,20.952 292.645,20.952 292.645,1.802 298.148,1.802 298.148,53.53 292.645,53.53 292.645,26.015 287.473,26.015 "/>
<path fill="#FFFFFF" stroke="#000000" stroke-miterlimit="10" d="M315.152,23.924c3.559,0,7.145-0.146,10.76-0.44
	c3.613-0.293,7.326-0.733,11.143-1.32l0.496,4.952c-7.705,1.211-17.061,1.816-28.066,1.816V3.893h24.488v5.063h-18.82V23.924z"/>
<polygon fill="#FFFFFF" stroke="#000000" stroke-miterlimit="10" points="347.346,52.155 314.988,52.155 314.988,34.655 
	320.656,34.655 320.656,47.092 347.346,47.092 "/>
<polygon fill="#FFFFFF" stroke="#000000" stroke-miterlimit="10" points="346.906,20.567 346.906,35.37 341.182,35.37 
	341.182,1.802 346.906,1.802 346.906,15.504 354.885,15.504 354.885,20.567 "/>
</svg>
