<?xml version="1.0" encoding="utf-8"?>
<!-- Generator: Adobe Illustrator 16.0.0, SVG Export Plug-In . SVG Version: 6.00 Build 0)  -->
<!DOCTYPE svg PUBLIC "-//W3C//DTD SVG 1.1//EN" "http://www.w3.org/Graphics/SVG/1.1/DTD/svg11.dtd">
<svg version="1.1" id="레이어_1" xmlns="http://www.w3.org/2000/svg" xmlns:xlink="http://www.w3.org/1999/xlink" x="0px"
	 y="0px" width="400px" height="55px" viewBox="0 0 400 55" enable-background="new 0 0 400 55" xml:space="preserve">
<path fill="#FFFFFF" stroke="#000000" stroke-miterlimit="10" d="M176.11,15.708c-0.202,0.33-0.413,0.573-0.633,0.729
	c-0.22,0.155-0.495,0.233-0.825,0.233c-0.349,0-0.739-0.146-1.17-0.44c-0.431-0.293-0.963-0.619-1.596-0.977
	c-0.632-0.357-1.38-0.688-2.242-0.99c-0.863-0.303-1.89-0.454-3.082-0.454c-1.1,0-2.068,0.138-2.903,0.412
	c-0.835,0.275-1.536,0.661-2.105,1.156s-0.995,1.078-1.279,1.747c-0.285,0.67-0.427,1.399-0.427,2.188
	c0,1.009,0.266,1.849,0.798,2.518c0.532,0.67,1.234,1.243,2.105,1.72c0.871,0.478,1.867,0.895,2.986,1.252
	c1.118,0.357,2.26,0.738,3.425,1.142c1.165,0.404,2.307,0.863,3.426,1.376c1.119,0.514,2.114,1.165,2.986,1.954
	c0.87,0.789,1.572,1.752,2.104,2.889c0.532,1.138,0.798,2.522,0.798,4.155c0,1.761-0.302,3.412-0.908,4.953
	c-0.605,1.541-1.481,2.884-2.627,4.03c-1.147,1.146-2.559,2.05-4.238,2.71c-1.678,0.661-3.591,0.991-5.737,0.991
	c-1.265,0-2.499-0.124-3.7-0.372c-1.202-0.247-2.349-0.596-3.44-1.045c-1.092-0.449-2.114-0.995-3.068-1.638
	c-0.954-0.642-1.807-1.357-2.559-2.146l1.871-3.082c0.165-0.257,0.376-0.458,0.633-0.605c0.257-0.146,0.541-0.219,0.853-0.219
	c0.422,0,0.889,0.196,1.403,0.59c0.514,0.396,1.133,0.827,1.858,1.294c0.724,0.468,1.6,0.898,2.627,1.293
	c1.027,0.395,2.257,0.592,3.687,0.592c2.33,0,4.132-0.568,5.407-1.706s1.913-2.706,1.913-4.705c0-1.119-0.267-2.031-0.799-2.738
	c-0.532-0.706-1.233-1.297-2.104-1.774c-0.872-0.477-1.867-0.881-2.986-1.211c-1.119-0.33-2.256-0.683-3.412-1.06
	c-1.155-0.375-2.293-0.815-3.412-1.32c-1.119-0.504-2.114-1.165-2.985-1.981c-0.872-0.814-1.573-1.825-2.105-3.026
	c-0.532-1.201-0.798-2.701-0.798-4.499c0-1.431,0.28-2.815,0.839-4.154s1.376-2.527,2.449-3.563c1.073-1.036,2.398-1.866,3.976-2.49
	c1.578-0.623,3.375-0.936,5.393-0.936c2.274,0,4.361,0.357,6.26,1.073c1.898,0.715,3.536,1.733,4.911,3.054L176.11,15.708z"/>
<path fill="#FFFFFF" stroke="#000000" stroke-miterlimit="10" d="M191.848,25.889h1.844c0.697,0,1.265-0.097,1.706-0.289
	c0.44-0.192,0.834-0.499,1.183-0.922l11.996-14.308c0.422-0.532,0.858-0.903,1.307-1.114c0.45-0.211,1.014-0.316,1.693-0.316h5.503
	l-14.171,16.729c-0.385,0.477-0.756,0.876-1.114,1.196c-0.358,0.321-0.748,0.583-1.169,0.784c0.55,0.202,1.045,0.481,1.485,0.84
	c0.441,0.357,0.871,0.83,1.294,1.417l14.693,18.655h-5.613c-0.404,0-0.748-0.027-1.032-0.083c-0.285-0.055-0.532-0.137-0.743-0.247
	s-0.395-0.248-0.55-0.413c-0.156-0.165-0.299-0.348-0.427-0.55l-12.382-15.134c-0.183-0.238-0.367-0.44-0.55-0.605
	c-0.184-0.165-0.399-0.303-0.647-0.413c-0.247-0.109-0.527-0.188-0.839-0.233s-0.679-0.068-1.101-0.068h-2.366v17.747h-6.439V8.939
	h6.439V25.889z"/>
<polygon fill="#FFFFFF" stroke="#000000" stroke-miterlimit="10" points="249.795,14.305 237.441,14.305 237.441,48.562 
	231.03,48.562 231.03,14.305 218.647,14.305 218.647,8.939 249.795,8.939 "/>
</svg>
