<?xml version="1.0" encoding="utf-8"?>
<!-- Generator: Adobe Illustrator 16.0.0, SVG Export Plug-In . SVG Version: 6.00 Build 0)  -->
<!DOCTYPE svg PUBLIC "-//W3C//DTD SVG 1.1//EN" "http://www.w3.org/Graphics/SVG/1.1/DTD/svg11.dtd">
<svg version="1.1" id="레이어_1" xmlns="http://www.w3.org/2000/svg" xmlns:xlink="http://www.w3.org/1999/xlink" x="0px"
	 y="0px" width="512px" height="512px" viewBox="0 0 512 512" enable-background="new 0 0 512 512" xml:space="preserve">
<path fill="#FFFFFF" stroke="#000000" stroke-miterlimit="10" d="M256.044,126.68c-41.905,0-80.331,20.07-104.333,52.885
	l-24.501-24.629l-0.484,92.371h92.372l-40.863-41.075c16.785-26.268,45.889-42.604,77.811-42.604
	c50.931,0,92.373,41.44,92.373,92.372c0,50.931-41.441,92.372-92.373,92.372c-35.632,0-68.463-20.852-83.643-53.114l-33.451,15.731
	c21.259,45.158,67.207,74.331,117.093,74.331c71.298,0,129.322-58.021,129.322-129.32
	C385.365,184.701,327.343,126.68,256.044,126.68z"/>
</svg>
