<?xml version="1.0" encoding="utf-8"?>
<!-- Generator: Adobe Illustrator 16.0.0, SVG Export Plug-In . SVG Version: 6.00 Build 0)  -->
<!DOCTYPE svg PUBLIC "-//W3C//DTD SVG 1.1//EN" "http://www.w3.org/Graphics/SVG/1.1/DTD/svg11.dtd">
<svg version="1.1" id="레이어_1" xmlns="http://www.w3.org/2000/svg" xmlns:xlink="http://www.w3.org/1999/xlink" x="0px"
	 y="0px" width="350px" height="60px" viewBox="0 0 350 60" enable-background="new 0 0 350 60" xml:space="preserve">
<path fill="#3E3A3A" d="M63.591,16.308l5.845,15.874h-11.69L63.591,16.308z M59.406,3.681L38.986,55.2h9.525l5.627-14.359h18.906
	L78.671,55.2h9.525L67.777,3.681H59.406z"/>
<path fill="#3E3A3A" d="M90.218,29.44c0-7.649,2.296-13.757,6.891-18.328c4.593-4.568,10.907-7.022,18.941-7.359
	c4.088-0.191,8.466,0.145,13.132,1.011v8.586c-4.811-0.817-8.875-1.13-12.195-0.938c-5.58,0.193-9.717,1.758-12.41,4.69
	c-3.079,3.175-4.618,7.385-4.618,12.628v0.793c0,5.483,1.539,9.658,4.618,12.519c3.078,2.863,7.263,4.392,12.555,4.582
	c3.8,0.146,7.888-0.118,12.266-0.793v8.586c-4.329,0.724-8.73,1.011-13.204,0.866c-8.226-0.385-14.612-2.777-19.158-7.18
	c-4.545-4.401-6.818-10.547-6.818-18.438V29.44z"/>
<path fill="#3E3A3A" d="M133.944,29.44c0-7.649,2.296-13.757,6.891-18.328c4.593-4.568,10.907-7.022,18.941-7.359
	c4.088-0.191,8.466,0.145,13.132,1.011v8.586c-4.811-0.817-8.875-1.13-12.195-0.938c-5.58,0.193-9.717,1.758-12.41,4.69
	c-3.079,3.175-4.618,7.385-4.618,12.628v0.793c0,5.483,1.539,9.658,4.618,12.519c3.078,2.863,7.263,4.392,12.555,4.582
	c3.8,0.146,7.888-0.118,12.266-0.793v8.586c-4.329,0.724-8.73,1.011-13.204,0.866c-8.226-0.385-14.612-2.777-19.158-7.18
	c-4.545-4.401-6.818-10.547-6.818-18.438V29.44L133.944,29.44z"/>
<polygon fill="#3E3A3A" points="190.441,46.541 214.541,46.541 214.541,55.2 180.771,55.2 180.771,4.618 214.036,4.618 
	214.036,13.277 190.441,13.277 190.441,25.111 211.799,25.111 211.799,33.697 190.441,33.697 "/>
<polygon fill="#3E3A3A" points="229.91,4.619 254.659,38.82 254.659,4.619 264.328,4.619 264.328,55.2 256.536,55.2 231.857,21.287 
	231.857,55.2 222.189,55.2 222.189,4.619 "/>
<polygon fill="#3E3A3A" points="295.211,55.2 285.542,55.2 285.542,13.277 269.74,13.277 269.74,4.619 311.013,4.619 
	311.013,13.277 295.211,13.277 "/>
</svg>
