<?xml version="1.0" encoding="utf-8"?>
<!-- Generator: Adobe Illustrator 16.0.0, SVG Export Plug-In . SVG Version: 6.00 Build 0)  -->
<!DOCTYPE svg PUBLIC "-//W3C//DTD SVG 1.1//EN" "http://www.w3.org/Graphics/SVG/1.1/DTD/svg11.dtd">
<svg version="1.1" id="레이어_1" xmlns="http://www.w3.org/2000/svg" xmlns:xlink="http://www.w3.org/1999/xlink" x="0px"
	 y="0px" width="350px" height="60px" viewBox="0 0 350 60" enable-background="new 0 0 350 60" xml:space="preserve">
<path fill="#3E3A3A" d="M85.348,16.276l5.845,15.875h-11.69L85.348,16.276z M81.163,3.649l-20.42,51.519h9.524l5.628-14.359H94.8
	l5.628,14.359h9.525L89.533,3.649H81.163z"/>
<path fill="#3E3A3A" d="M139.392,28.326c3.415,1.202,5.892,2.922,7.432,5.158c1.539,2.236,2.237,4.849,2.092,7.828
	c-0.241,4.572-2.092,8.203-5.556,10.896c-3.463,2.695-8.394,4.09-14.791,4.186c-5.821,0-10.921-0.602-15.298-1.805v-8.658
	c5.099,1.203,10.222,1.803,15.369,1.803c3.705-0.047,6.397-0.684,8.082-1.909c1.683-1.229,2.525-2.683,2.525-4.365
	c0-2.601-1.395-4.426-4.185-5.483L122.94,31.79c-2.79-0.961-5.123-2.477-6.998-4.545c-1.877-2.068-2.815-4.666-2.815-7.793
	c0-4.377,1.467-8.033,4.402-10.968c2.933-2.934,7.432-4.546,13.493-4.835c3.992-0.191,8.61,0.266,13.854,1.371v8.658
	c-5.004-1.201-9.501-1.634-13.493-1.298c-3.175,0.191-5.389,0.829-6.639,1.912c-1.251,1.082-1.876,2.633-1.876,4.653
	c0,2.357,1.444,4.09,4.33,5.195L139.392,28.326z"/>
<polygon fill="#3E3A3A" points="166.738,4.586 166.738,46.51 191.85,46.51 191.85,55.168 157.069,55.168 157.069,4.586 "/>
<path fill="#3E3A3A" d="M221.576,3.648l20.421,51.52h-9.526l-5.627-14.359h-18.904l-5.627,14.359h-9.525l20.42-51.52H221.576z
	 M217.393,16.275l-5.847,15.875h11.688L217.393,16.275z"/>
<polygon fill="#3E3A3A" points="254.839,4.586 279.589,38.789 279.589,4.586 289.257,4.586 289.257,55.168 281.466,55.168 
	256.787,21.254 256.787,55.168 247.118,55.168 247.118,4.586 "/>
</svg>
