<?xml version="1.0" encoding="utf-8"?>
<!-- Generator: Adobe Illustrator 16.0.0, SVG Export Plug-In . SVG Version: 6.00 Build 0)  -->
<!DOCTYPE svg PUBLIC "-//W3C//DTD SVG 1.1//EN" "http://www.w3.org/Graphics/SVG/1.1/DTD/svg11.dtd">
<svg version="1.1" id="레이어_1" xmlns="http://www.w3.org/2000/svg" xmlns:xlink="http://www.w3.org/1999/xlink" x="0px"
	 y="0px" width="350px" height="60px" viewBox="0 0 350 60" enable-background="new 0 0 350 60" xml:space="preserve">
<path fill="#3E3A3A" d="M64.35,16.867l5.845,15.875h-11.69L64.35,16.867z M60.165,4.24l-20.42,51.52h9.525L54.896,41.4h18.906
	L79.43,55.76h9.525L68.536,4.24H60.165z"/>
<polygon fill="#3E3A3A" points="121.786,5.179 108.437,41.04 95.088,5.179 85.203,5.179 104.613,55.76 112.333,55.76 131.672,5.179 
	"/>
<path fill="#3E3A3A" d="M152.524,16.867l5.845,15.875h-11.69L152.524,16.867z M148.339,4.24l-20.42,51.52h9.525l5.627-14.359h18.905
	l5.628,14.359h9.524L156.709,4.24H148.339z"/>
<polygon fill="#3E3A3A" points="214.721,5.179 214.721,39.38 189.973,5.179 182.252,5.179 182.252,55.76 191.92,55.76 
	191.92,21.846 216.598,55.76 224.391,55.76 224.391,5.179 "/>
<polygon fill="#3E3A3A" points="229.803,5.179 229.803,13.837 245.604,13.837 245.604,55.76 255.273,55.76 255.273,13.837 
	271.074,13.837 271.074,5.179 "/>
<polygon fill="#3E3A3A" points="276.486,5.179 276.486,55.76 310.256,55.76 310.256,47.102 286.154,47.102 286.154,34.257 
	307.514,34.257 307.514,25.671 286.154,25.671 286.154,13.837 309.75,13.837 309.75,5.179 "/>
</svg>
