<?xml version="1.0" encoding="utf-8"?>
<!-- Generator: Adobe Illustrator 16.0.0, SVG Export Plug-In . SVG Version: 6.00 Build 0)  -->
<!DOCTYPE svg PUBLIC "-//W3C//DTD SVG 1.1//EN" "http://www.w3.org/Graphics/SVG/1.1/DTD/svg11.dtd">
<svg version="1.1" id="레이어_1" xmlns="http://www.w3.org/2000/svg" xmlns:xlink="http://www.w3.org/1999/xlink" x="0px"
	 y="0px" width="350px" height="60px" viewBox="0 0 350 60" enable-background="new 0 0 350 60" xml:space="preserve">
<path fill="#3E3A39" d="M19.157,29.442c0-7.633,2.292-13.728,6.876-18.287c4.583-4.562,10.883-7.008,18.9-7.346
	c4.079-0.189,8.448,0.145,13.104,1.01v8.565c-4.801-0.813-8.856-1.127-12.168-0.935c-5.568,0.193-9.696,1.754-12.384,4.679
	c-3.072,3.168-4.608,7.37-4.608,12.601v0.793c0,5.473,1.536,9.637,4.608,12.492c3.071,2.855,7.247,4.381,12.528,4.572
	c3.791,0.143,7.872-0.12,12.24-0.793v8.568c-4.32,0.721-8.712,1.008-13.176,0.863c-8.208-0.384-14.58-2.771-19.116-7.164
	c-4.536-4.391-6.804-10.521-6.804-18.395V29.442z"/>
<path fill="#3E3A39" d="M89.645,3.738l20.376,51.407h-9.504l-5.616-14.327H76.036l-5.615,14.327h-9.505L81.293,3.738H89.645z
	 M85.469,16.339l-5.832,15.84h11.664L85.469,16.339z"/>
<polygon fill="#3E3A39" points="132.052,55.146 122.405,55.146 122.405,13.313 106.636,13.313 106.636,4.675 147.821,4.675 
	147.821,13.313 132.052,13.313 "/>
<path fill="#3E3A39" d="M173.163,3.738l20.376,51.407h-9.504l-5.615-14.327h-18.866l-5.615,14.327h-9.505l20.377-51.407H173.163z
	 M168.987,16.339l-5.832,15.84h11.664L168.987,16.339z"/>
<polygon fill="#3E3A39" points="208.299,4.675 208.299,46.507 233.356,46.507 233.356,55.146 198.652,55.146 198.652,4.675 "/>
<path fill="#3E3A39" d="M234.003,30.091c0-7.535,2.305-13.729,6.912-18.576c4.607-4.848,10.536-7.272,17.784-7.272
	c7.247,0,13.188,2.425,17.819,7.272c4.633,4.847,6.949,11.041,6.949,18.576c0,7.438-2.316,13.561-6.949,18.358
	c-4.631,4.802-10.572,7.202-17.819,7.202c-7.248,0-13.177-2.4-17.784-7.202C236.308,43.651,234.003,37.529,234.003,30.091
	 M243.579,30.091c0,5.375,1.415,9.553,4.248,12.526c2.832,2.978,6.455,4.466,10.872,4.466c4.416,0,8.028-1.488,10.836-4.466
	c2.81-2.974,4.212-7.151,4.212-12.526c0-5.474-1.402-9.722-4.212-12.744c-2.808-3.024-6.42-4.537-10.836-4.537
	c-4.417,0-8.04,1.513-10.872,4.537C244.994,20.369,243.579,24.617,243.579,30.091"/>
<path fill="#3E3A39" d="M315.29,47.729c1.248,0,2.557-0.07,3.924-0.215c1.368-0.145,2.027-0.218,1.98-0.218V35.562h-10.728v-8.64
	h20.376v26.929c-5.425,1.584-10.584,2.375-15.48,2.375c-8.496,0-15.072-2.34-19.728-7.02c-4.657-4.68-6.984-10.666-6.984-17.963
	c0-8.4,2.376-14.989,7.128-19.766c4.752-4.775,11.521-7.33,20.304-7.668c3.552-0.144,7.561,0.049,12.024,0.576v8.641
	c-3.984-0.576-7.969-0.791-11.952-0.649c-5.952,0.243-10.416,1.886-13.392,4.933c-2.978,3.049-4.464,7.479-4.464,13.285
	c0,5.327,1.415,9.516,4.247,12.564S309.626,47.729,315.29,47.729"/>
</svg>
