<?xml version="1.0" encoding="utf-8"?>
<!-- Generator: Adobe Illustrator 16.0.0, SVG Export Plug-In . SVG Version: 6.00 Build 0)  -->
<!DOCTYPE svg PUBLIC "-//W3C//DTD SVG 1.1//EN" "http://www.w3.org/Graphics/SVG/1.1/DTD/svg11.dtd">
<svg version="1.1" id="레이어_1" xmlns="http://www.w3.org/2000/svg" xmlns:xlink="http://www.w3.org/1999/xlink" x="0px"
	 y="0px" width="350px" height="60px" viewBox="0 0 350 60" enable-background="new 0 0 350 60" xml:space="preserve">
<path fill="#3E3A39" d="M9.785,44.434h21.042v7.561H1.343V7.831h29.043v7.56H9.785v10.332h18.648v7.497H9.785V44.434z"/>
<path fill="#3E3A39" d="M52.75,35.992L41.599,51.994H31.582l16.443-22.618L32.464,7.831h10.017L52.75,22.761L63.019,7.831h9.954
	L57.349,29.376l16.506,22.618H63.838L52.75,35.992z"/>
<path fill="#3E3A39" d="M76.753,7.831h13.734c4.536,0,8.064,0.567,10.584,1.701c1.638,0.715,3.065,1.68,4.284,2.897
	c2.435,2.646,3.654,5.901,3.654,9.766c0,3.779-1.219,6.993-3.654,9.639c-1.219,1.219-2.646,2.184-4.284,2.898
	c-2.437,1.008-5.733,1.512-9.891,1.512h-5.985v15.75h-8.442V7.831z M85.195,28.683h7.245c2.646,0,4.703-0.65,6.174-1.952
	c1.26-1.176,1.89-2.688,1.89-4.536c0-1.974-0.63-3.549-1.89-4.726c-1.471-1.386-3.528-2.079-6.174-2.079h-7.245V28.683z"/>
<path fill="#3E3A39" d="M122.617,44.434h21.042v7.561h-29.484V7.831h29.043v7.56h-20.601v10.332h18.648v7.497h-18.648V44.434z"/>
<path fill="#3E3A39" d="M160.857,34.039h-3.276v17.955h-8.379V7.831h13.734c5.585,0,9.723,1.239,12.411,3.717
	c2.855,2.604,4.284,5.796,4.284,9.576c0,3.948-1.491,7.119-4.473,9.513c-1.555,1.26-3.424,2.164-5.607,2.709l12.978,18.648h-9.512
	L160.857,34.039z M157.581,26.667h6.426c2.52,0,4.347-0.567,5.481-1.701c1.134-1.134,1.701-2.436,1.701-3.906
	c0-1.553-0.567-2.897-1.701-4.031c-1.134-1.135-2.961-1.701-5.481-1.701h-6.426V26.667z"/>
<path fill="#3E3A39" d="M185.931,51.994V7.831h8.442v44.164H185.931z"/>
<path fill="#3E3A39" d="M210.5,44.434h21.041v7.561h-29.483V7.831h29.044v7.56H210.5v10.332h18.648v7.497H210.5V44.434z"/>
<path fill="#3E3A39" d="M243.827,7.831l21.608,29.863V7.831h8.442v44.164h-6.804l-21.547-29.611v29.611h-8.441V7.831H243.827z"/>
<path fill="#3E3A39" d="M279.421,29.502c0-6.678,2.006-12.012,6.017-16.002c4.011-3.989,9.523-6.132,16.538-6.426
	c3.569-0.168,7.392,0.126,11.466,0.882v7.497c-4.2-0.714-7.749-0.986-10.647-0.819c-4.872,0.169-8.484,1.534-10.836,4.096
	c-2.688,2.771-4.031,6.447-4.031,11.024v0.693c0,4.789,1.343,8.431,4.031,10.931c2.688,2.498,6.342,3.832,10.962,4
	c3.317,0.125,6.888-0.105,10.71-0.693v7.496c-3.779,0.631-7.623,0.883-11.528,0.758c-7.183-0.336-12.758-2.426-16.727-6.27
	s-5.954-9.207-5.954-16.096V29.502z"/>
<path fill="#3E3A39" d="M327.615,44.434h21.042v7.561h-29.483V7.831h29.043v7.56h-20.602v10.332h18.648v7.497h-18.648V44.434z"/>
</svg>
