<?xml version="1.0" encoding="utf-8"?>
<!-- Generator: Adobe Illustrator 16.0.0, SVG Export Plug-In . SVG Version: 6.00 Build 0)  -->
<!DOCTYPE svg PUBLIC "-//W3C//DTD SVG 1.1//EN" "http://www.w3.org/Graphics/SVG/1.1/DTD/svg11.dtd">
<svg version="1.1" id="레이어_1" xmlns="http://www.w3.org/2000/svg" xmlns:xlink="http://www.w3.org/1999/xlink" x="0px"
	 y="0px" width="350px" height="60px" viewBox="0 0 350 60" enable-background="new 0 0 350 60" xml:space="preserve">
<path fill="#3E3A3A" d="M60.157,47.736c1.25,0,2.561-0.072,3.933-0.219c1.37-0.144,2.031-0.216,1.984-0.216v-11.76H55.323v-8.659
	h20.42v26.986c-5.437,1.588-10.607,2.381-15.514,2.381c-8.514,0-15.105-2.345-19.771-7.035c-4.666-4.689-6.999-10.689-6.999-18.003
	c0-8.417,2.381-15.019,7.144-19.807c4.762-4.786,11.545-7.348,20.348-7.686C64.51,3.577,68.526,3.769,73,4.298v8.659
	c-3.994-0.578-7.986-0.794-11.978-0.65c-5.965,0.242-10.439,1.89-13.421,4.943c-2.983,3.055-4.474,7.493-4.474,13.313
	c0,5.34,1.419,9.537,4.258,12.593C50.223,46.21,54.479,47.736,60.157,47.736"/>
<polygon fill="#3E3A3A" points="95.512,46.51 119.612,46.51 119.612,55.168 85.843,55.168 85.843,4.587 119.107,4.587 
	119.107,13.245 95.512,13.245 95.512,25.079 116.87,25.079 116.87,33.665 95.512,33.665 "/>
<polygon fill="#3E3A3A" points="134.98,4.587 159.729,38.789 159.729,4.587 169.398,4.587 169.398,55.168 161.606,55.168 
	136.929,21.255 136.929,55.168 127.26,55.168 127.26,4.587 "/>
<polygon fill="#3E3A3A" points="189.17,46.51 213.27,46.51 213.27,55.168 179.501,55.168 179.501,4.587 212.766,4.587 
	212.766,13.245 189.17,13.245 189.17,25.079 210.527,25.079 210.527,33.665 189.17,33.665 "/>
<path fill="#3E3A3A" d="M245.234,28.326c3.414,1.202,5.892,2.922,7.432,5.158c1.539,2.236,2.236,4.848,2.094,7.828
	c-0.242,4.571-2.094,8.203-5.557,10.896c-3.465,2.693-8.395,4.089-14.792,4.186c-5.821,0-10.921-0.602-15.298-1.805v-8.658
	c5.099,1.202,10.222,1.803,15.369,1.803c3.705-0.047,6.396-0.685,8.082-1.91c1.684-1.229,2.524-2.682,2.524-4.365
	c0-2.6-1.396-4.426-4.185-5.484l-12.123-4.185c-2.79-0.962-5.123-2.478-6.998-4.546c-1.877-2.068-2.815-4.666-2.815-7.793
	c0-4.377,1.468-8.033,4.402-10.968c2.935-2.934,7.432-4.546,13.493-4.835c3.99-0.191,8.609,0.266,13.854,1.371v8.658
	c-5.005-1.201-9.502-1.634-13.494-1.298c-3.174,0.191-5.388,0.829-6.639,1.912c-1.251,1.082-1.875,2.633-1.875,4.653
	c0,2.357,1.443,4.09,4.329,5.195L245.234,28.326z"/>
<rect x="262.911" y="4.587" fill="#3E3A3A" width="9.669" height="50.581"/>
<path fill="#3E3A3A" d="M306.997,28.326c3.415,1.202,5.893,2.922,7.433,5.158c1.539,2.236,2.236,4.848,2.094,7.828
	c-0.242,4.571-2.094,8.203-5.558,10.896s-8.395,4.089-14.792,4.186c-5.82,0-10.92-0.602-15.297-1.805v-8.658
	c5.098,1.202,10.221,1.803,15.369,1.803c3.704-0.047,6.396-0.685,8.081-1.91c1.685-1.229,2.525-2.682,2.525-4.365
	c0-2.6-1.396-4.426-4.186-5.484l-12.123-4.185c-2.789-0.962-5.123-2.478-6.998-4.546c-1.875-2.068-2.813-4.666-2.813-7.793
	c0-4.377,1.467-8.033,4.401-10.968c2.935-2.934,7.433-4.546,13.492-4.835c3.992-0.191,8.61,0.266,13.854,1.371v8.658
	c-5.005-1.201-9.501-1.634-13.493-1.298c-3.175,0.191-5.388,0.829-6.64,1.912c-1.252,1.082-1.875,2.633-1.875,4.653
	c0,2.357,1.442,4.09,4.33,5.195L306.997,28.326z"/>
</svg>
