<?xml version="1.0" encoding="utf-8"?>
<!-- Generator: Adobe Illustrator 16.0.0, SVG Export Plug-In . SVG Version: 6.00 Build 0)  -->
<!DOCTYPE svg PUBLIC "-//W3C//DTD SVG 1.1//EN" "http://www.w3.org/Graphics/SVG/1.1/DTD/svg11.dtd">
<svg version="1.1" id="레이어_1" xmlns="http://www.w3.org/2000/svg" xmlns:xlink="http://www.w3.org/1999/xlink" x="0px"
	 y="0px" width="350px" height="60px" viewBox="0 0 350 60" enable-background="new 0 0 350 60" xml:space="preserve">
<path fill="#3E3A3A" d="M25.492,46.506c1.16,0,2.377-0.066,3.65-0.201c1.272-0.134,1.885-0.201,1.841-0.201V35.188h-9.978v-8.036
	h18.951v25.045c-5.045,1.474-9.844,2.21-14.397,2.21c-7.902,0-14.018-2.177-18.348-6.528c-4.33-4.354-6.495-9.921-6.495-16.708
	c0-7.812,2.209-13.938,6.629-18.381c4.42-4.442,10.714-6.819,18.884-7.133c3.303-0.133,7.031,0.045,11.182,0.536v8.036
	c-3.705-0.536-7.41-0.737-11.116-0.603c-5.535,0.224-9.687,1.753-12.455,4.587c-2.768,2.835-4.151,6.954-4.151,12.354
	c0,4.955,1.316,8.852,3.951,11.687C16.272,45.089,20.224,46.506,25.492,46.506"/>
<path fill="#3E3A3A" d="M61.002,34.316H57.52v19.086h-8.906V6.462h14.598c5.937,0,10.334,1.316,13.191,3.951
	c3.036,2.768,4.554,6.159,4.554,10.178c0,4.197-1.585,7.567-4.754,10.112c-1.652,1.339-3.639,2.299-5.96,2.879l13.795,19.82H73.926
	L61.002,34.316z M57.521,26.483h6.831c2.678,0,4.62-0.603,5.825-1.808c1.205-1.205,1.808-2.588,1.808-4.152
	c0-1.65-0.603-3.08-1.808-4.286c-1.205-1.204-3.147-1.808-5.825-1.808h-6.831V26.483z"/>
<path fill="#3E3A3A" d="M110.958,5.592l18.95,47.811h-8.839l-5.223-13.324H98.301l-5.224,13.324h-8.839l18.951-47.811H110.958z
	 M107.073,17.31l-5.424,14.732h10.848L107.073,17.31z"/>
<polygon fill="#3E3A3A" points="141.826,6.462 164.795,38.202 164.795,6.462 173.768,6.462 173.768,53.402 166.536,53.402 
	143.634,21.93 143.634,53.402 134.661,53.402 134.661,6.462 "/>
<path fill="#3E3A3A" d="M222.115,29.898c0,2.679-0.336,5.211-1.006,7.601c-0.668,2.39-1.695,4.587-3.08,6.596
	c-1.518,1.921-3.305,3.583-5.356,4.989c-2.054,1.405-4.397,2.488-7.03,3.248c-1.606,0.445-3.305,0.734-5.09,0.87
	c-1.785,0.134-3.816,0.2-6.094,0.2h-11.316V6.462h11.45c2.231,0,4.241,0.1,6.026,0.301c1.785,0.201,3.482,0.526,5.09,0.971
	c2.634,0.805,4.988,1.888,7.064,3.248c2.074,1.362,3.851,3.003,5.322,4.922c1.385,1.92,2.399,4.041,3.047,6.361
	C221.791,24.587,222.115,27.132,222.115,29.898 M213.143,29.898c0-3.884-0.783-6.985-2.345-9.308
	c-1.563-2.321-3.95-3.973-7.165-4.955c-1.16-0.402-2.512-0.692-4.051-0.871c-1.54-0.177-3.047-0.268-4.52-0.268h-2.947v30.871h2.947
	c1.516,0,3.033-0.045,4.553-0.137c1.518-0.088,2.855-0.334,4.018-0.734c3.215-0.982,5.602-2.689,7.165-5.123
	C212.359,36.941,213.143,33.783,213.143,29.898"/>
<polygon fill="#3E3A3A" points="238.186,45.367 260.551,45.367 260.551,53.402 229.212,53.402 229.212,6.462 260.082,6.462 
	260.082,14.497 238.186,14.497 238.186,25.479 258.006,25.479 258.006,33.447 238.186,33.447 "/>
<path fill="#3E3A3A" d="M276.621,34.721c0,3.84,0.848,6.74,2.545,8.704c1.563,1.875,3.994,2.813,7.299,2.813
	c3.26,0,5.715-0.938,7.366-2.813c1.696-1.964,2.544-4.864,2.544-8.704V6.462h8.974v28.794c0,5.893-1.675,10.604-5.021,14.129
	c-3.08,3.26-7.701,4.889-13.861,4.889c-6.159,0-10.78-1.629-13.86-4.889c-3.306-3.525-4.955-8.236-4.955-14.129V6.462h8.973v28.259
	H276.621z"/>
<path fill="#3E3A3A" d="M325.927,34.316h-3.48v19.086h-8.906V6.462h14.598c5.938,0,10.334,1.316,13.192,3.951
	c3.035,2.768,4.553,6.159,4.553,10.178c0,4.197-1.585,7.567-4.754,10.112c-1.652,1.339-3.639,2.299-5.96,2.879l13.794,19.82h-10.111
	L325.927,34.316z M322.445,26.483h6.83c2.679,0,4.619-0.603,5.824-1.808c1.206-1.205,1.81-2.588,1.81-4.152
	c0-1.65-0.604-3.08-1.81-4.286c-1.205-1.204-3.146-1.808-5.824-1.808h-6.83V26.483z"/>
</svg>
