<?xml version="1.0" encoding="utf-8"?>
<!-- Generator: Adobe Illustrator 16.0.0, SVG Export Plug-In . SVG Version: 6.00 Build 0)  -->
<!DOCTYPE svg PUBLIC "-//W3C//DTD SVG 1.1//EN" "http://www.w3.org/Graphics/SVG/1.1/DTD/svg11.dtd">
<svg version="1.1" id="레이어_1" xmlns="http://www.w3.org/2000/svg" xmlns:xlink="http://www.w3.org/1999/xlink" x="0px"
	 y="0px" width="350px" height="60px" viewBox="0 0 350 60" enable-background="new 0 0 350 60" xml:space="preserve">
<path fill="#3E3A3A" d="M128.027,55.29h9.669V18.347h-9.669V55.29z M127.811,13.295h10.102V3.771h-10.102V13.295z"/>
<path fill="#3E3A3A" d="M165.763,19.718V35.88h-10.967L165.763,19.718z M167.135,3.628l-23.667,34.634v5.918h22.295v11.111h9.092
	V44.18h5.918v-8.3h-5.918V3.628H167.135z"/>
<path fill="#3E3A3A" d="M184.669,30.181c0-7.551,1.731-13.854,5.194-18.905c3.463-5.051,7.984-7.601,13.564-7.647
	c5.772,0.047,10.342,2.597,13.711,7.647c3.365,5.051,5.051,11.354,5.051,18.905c0,7.647-1.637,13.926-4.906,18.833
	c-3.271,4.906-7.891,7.359-13.854,7.359c-6.063,0-10.705-2.501-13.927-7.505C186.279,43.866,184.669,37.639,184.669,30.181
	 M203.43,47.715c2.98,0,5.269-1.553,6.854-4.654c1.588-3.104,2.381-7.396,2.381-12.879c0-5.628-0.854-10.019-2.561-13.169
	c-1.709-3.15-3.934-4.727-6.676-4.727c-2.789,0-5.025,1.576-6.71,4.727c-1.686,3.15-2.524,7.541-2.524,13.169
	c0,5.483,0.793,9.776,2.381,12.879C198.162,46.162,200.445,47.715,203.43,47.715"/>
</svg>
