<?xml version="1.0" encoding="utf-8"?>
<!-- Generator: Adobe Illustrator 16.0.0, SVG Export Plug-In . SVG Version: 6.00 Build 0)  -->
<!DOCTYPE svg PUBLIC "-//W3C//DTD SVG 1.1//EN" "http://www.w3.org/Graphics/SVG/1.1/DTD/svg11.dtd">
<svg version="1.1" id="레이어_1" xmlns="http://www.w3.org/2000/svg" xmlns:xlink="http://www.w3.org/1999/xlink" x="0px"
	 y="0px" width="350px" height="60px" viewBox="0 0 350 60" enable-background="new 0 0 350 60" xml:space="preserve">
<polygon fill="#3E3A3A" points="107.573,4.728 93.102,40.873 78.558,4.728 67.541,4.728 67.541,55.199 76.612,55.199 76.612,21.072 
	89.86,55.199 96.27,55.199 109.444,21.072 109.444,55.199 118.589,55.199 118.589,4.728 "/>
<path fill="#3E3A3A" d="M126.22,30.144c0-7.535,2.305-13.729,6.912-18.576c4.608-4.848,10.536-7.271,17.785-7.271
	c7.246,0,13.187,2.424,17.819,7.271c4.632,4.848,6.949,11.041,6.949,18.576c0,7.44-2.317,13.561-6.949,18.36
	c-4.632,4.801-10.573,7.201-17.819,7.201c-7.249,0-13.177-2.4-17.785-7.201C128.525,43.705,126.22,37.584,126.22,30.144
	 M135.796,30.144c0,5.375,1.416,9.553,4.248,12.528c2.832,2.977,6.455,4.465,10.873,4.465c4.415,0,8.027-1.488,10.836-4.465
	c2.808-2.975,4.211-7.152,4.211-12.528c0-5.473-1.403-9.721-4.211-12.744c-2.809-3.023-6.421-4.537-10.836-4.537
	c-4.418,0-8.041,1.514-10.873,4.537S135.796,24.671,135.796,30.144"/>
<polygon fill="#3E3A3A" points="177.629,4.728 187.492,4.728 200.813,40.512 214.133,4.728 223.998,4.728 204.7,55.199 
	196.998,55.199 "/>
<rect x="229.037" y="4.728" fill="#3E3A3A" width="9.648" height="50.471"/>
<polygon fill="#3E3A3A" points="258.412,46.561 282.459,46.561 282.459,55.199 248.764,55.199 248.764,4.728 281.955,4.728 
	281.955,13.367 258.412,13.367 258.412,25.175 279.725,25.175 279.725,33.744 258.412,33.744 "/>
</svg>
