<?xml version="1.0" encoding="utf-8"?>
<!-- Generator: Adobe Illustrator 16.0.0, SVG Export Plug-In . SVG Version: 6.00 Build 0)  -->
<!DOCTYPE svg PUBLIC "-//W3C//DTD SVG 1.1//EN" "http://www.w3.org/Graphics/SVG/1.1/DTD/svg11.dtd">
<svg version="1.1" id="레이어_1" xmlns="http://www.w3.org/2000/svg" xmlns:xlink="http://www.w3.org/1999/xlink" x="0px"
	 y="0px" width="350px" height="60px" viewBox="0 0 350 60" enable-background="new 0 0 350 60" xml:space="preserve">
<path fill="#3E3A3A" d="M48.657,28.326c3.415,1.202,5.892,2.922,7.432,5.158c1.539,2.236,2.237,4.848,2.092,7.828
	c-0.241,4.571-2.092,8.203-5.556,10.896c-3.463,2.693-8.394,4.089-14.791,4.186c-5.821,0-10.921-0.602-15.297-1.805v-8.658
	c5.098,1.202,10.221,1.803,15.368,1.803c3.705-0.047,6.397-0.685,8.082-1.91c1.684-1.229,2.525-2.682,2.525-4.365
	c0-2.6-1.395-4.426-4.185-5.484L32.205,31.79c-2.79-0.962-5.123-2.478-6.998-4.546c-1.877-2.068-2.815-4.666-2.815-7.793
	c0-4.377,1.467-8.033,4.402-10.968c2.933-2.934,7.432-4.546,13.493-4.835c3.992-0.191,8.61,0.266,13.854,1.371v8.658
	c-5.004-1.201-9.501-1.634-13.493-1.298c-3.175,0.191-5.389,0.829-6.639,1.912c-1.251,1.082-1.876,2.633-1.876,4.653
	c0,2.357,1.444,4.09,4.33,5.195L48.657,28.326z"/>
<path fill="#3E3A3A" d="M90.146,3.648l20.42,51.52h-9.525l-5.628-14.359H76.508l-5.627,14.359h-9.526l20.421-51.52H90.146z
	 M85.961,16.275L80.116,32.15h11.69L85.961,16.275z"/>
<polygon fill="#3E3A3A" points="123.409,4.587 148.158,38.789 148.158,4.587 157.827,4.587 157.827,55.168 150.034,55.168 
	125.357,21.255 125.357,55.168 115.688,55.168 115.688,4.587 "/>
<polygon fill="#3E3A3A" points="188.711,55.168 179.041,55.168 179.041,13.245 163.239,13.245 163.239,4.587 204.512,4.587 
	204.512,13.245 188.711,13.245 "/>
<path fill="#3E3A3A" d="M229.91,3.648l20.42,51.52h-9.525l-5.627-14.359h-18.904l-5.629,14.359h-9.522l20.42-51.52H229.91z
	 M225.725,16.275l-5.844,15.875h11.689L225.725,16.275z"/>
<polygon fill="#3E3A3A" points="265.121,55.168 255.453,55.168 255.453,4.587 287.49,4.587 287.49,13.245 265.121,13.245 
	265.121,25.079 284.82,25.079 284.82,33.665 265.121,33.665 "/>
<polygon fill="#3E3A3A" points="303.508,46.51 327.607,46.51 327.607,55.168 293.84,55.168 293.84,4.587 327.104,4.587 
	327.104,13.245 303.508,13.245 303.508,25.079 324.865,25.079 324.865,33.665 303.508,33.665 "/>
</svg>
