<?xml version="1.0" encoding="utf-8"?>
<!-- Generator: Adobe Illustrator 16.0.0, SVG Export Plug-In . SVG Version: 6.00 Build 0)  -->
<!DOCTYPE svg PUBLIC "-//W3C//DTD SVG 1.1//EN" "http://www.w3.org/Graphics/SVG/1.1/DTD/svg11.dtd">
<svg version="1.1" id="레이어_1" xmlns="http://www.w3.org/2000/svg" xmlns:xlink="http://www.w3.org/1999/xlink" x="0px"
	 y="0px" width="350px" height="60px" viewBox="0 0 350 60" enable-background="new 0 0 350 60" xml:space="preserve">
<path fill="#3E3A3A" d="M61.825,28.326c3.415,1.202,5.892,2.922,7.432,5.158c1.539,2.236,2.237,4.848,2.093,7.828
	c-0.241,4.571-2.093,8.203-5.556,10.896c-3.464,2.693-8.395,4.089-14.792,4.186c-5.821,0-10.921-0.602-15.297-1.805v-8.658
	c5.098,1.202,10.221,1.803,15.369,1.803c3.704-0.047,6.397-0.685,8.081-1.91c1.684-1.229,2.526-2.682,2.526-4.365
	c0-2.6-1.396-4.426-4.185-5.484L45.374,31.79c-2.791-0.962-5.124-2.478-6.999-4.546c-1.876-2.068-2.815-4.666-2.815-7.793
	c0-4.377,1.467-8.033,4.402-10.968c2.934-2.934,7.432-4.546,13.493-4.835c3.992-0.191,8.61,0.266,13.854,1.371v8.658
	c-5.004-1.201-9.501-1.634-13.493-1.298c-3.175,0.191-5.388,0.829-6.639,1.912c-1.251,1.082-1.875,2.633-1.875,4.653
	c0,2.357,1.443,4.09,4.329,5.195L61.825,28.326z"/>
<path fill="#3E3A3A" d="M77.048,30.058c0-7.552,2.309-13.757,6.927-18.616c4.618-4.857,10.559-7.287,17.823-7.287
	c7.263,0,13.216,2.43,17.858,7.287c4.642,4.859,6.963,11.064,6.963,18.616c0,7.458-2.321,13.59-6.963,18.399
	c-4.642,4.813-10.595,7.216-17.858,7.216c-7.264,0-13.205-2.403-17.823-7.216C79.357,43.646,77.048,37.516,77.048,30.058
	 M86.646,30.058c0,5.389,1.418,9.573,4.257,12.556c2.838,2.981,6.469,4.474,10.896,4.474c4.425,0,8.045-1.49,10.859-4.474
	c2.814-2.983,4.221-7.167,4.221-12.556c0-5.483-1.407-9.741-4.221-12.771c-2.814-3.03-6.434-4.546-10.859-4.546
	c-4.427,0-8.058,1.516-10.896,4.546C88.063,20.316,86.646,24.574,86.646,30.058"/>
<polygon fill="#3E3A3A" points="141.988,4.587 166.738,38.789 166.738,4.587 176.406,4.587 176.406,55.168 168.614,55.168 
	143.936,21.255 143.936,55.168 134.267,55.168 134.267,4.587 "/>
<path fill="#3E3A3A" d="M210.32,3.648l20.42,51.52h-9.525l-5.629-14.359h-18.902l-5.629,14.359h-9.524l20.42-51.52H210.32z
	 M206.135,16.275l-5.846,15.875h11.691L206.135,16.275z"/>
<polygon fill="#3E3A3A" points="252.818,55.168 243.15,55.168 243.15,13.245 227.348,13.245 227.348,4.587 268.621,4.587 
	268.621,13.245 252.818,13.245 "/>
<path fill="#3E3A3A" d="M294.02,3.648l20.421,51.52h-9.525l-5.627-14.359h-18.904l-5.629,14.359h-9.524l20.422-51.52H294.02z
	 M289.836,16.275L283.99,32.15h11.689L289.836,16.275z"/>
</svg>
