<?xml version="1.0" encoding="utf-8"?>
<!-- Generator: Adobe Illustrator 16.0.0, SVG Export Plug-In . SVG Version: 6.00 Build 0)  -->
<!DOCTYPE svg PUBLIC "-//W3C//DTD SVG 1.1//EN" "http://www.w3.org/Graphics/SVG/1.1/DTD/svg11.dtd">
<svg version="1.1" id="레이어_1" xmlns="http://www.w3.org/2000/svg" xmlns:xlink="http://www.w3.org/1999/xlink" x="0px"
	 y="0px" width="350px" height="60px" viewBox="0 0 350 60" enable-background="new 0 0 350 60" xml:space="preserve">
<path fill="#3E3A39" d="M71.208,28.329c3.407,1.2,5.879,2.916,7.416,5.147c1.536,2.232,2.232,4.837,2.088,7.813
	c-0.24,4.562-2.088,8.184-5.544,10.872c-3.456,2.689-8.377,4.08-14.76,4.176c-5.808,0-10.896-0.6-15.263-1.8v-8.641
	c5.086,1.2,10.199,1.8,15.335,1.8c3.696-0.047,6.383-0.684,8.064-1.907c1.68-1.225,2.52-2.676,2.52-4.355
	c0-2.593-1.393-4.416-4.176-5.473l-12.096-4.176c-2.784-0.96-5.112-2.472-6.984-4.536C45.937,25.186,45,22.594,45,19.473
	c0-4.367,1.464-8.016,4.392-10.944c2.927-2.927,7.416-4.535,13.464-4.823c3.984-0.191,8.591,0.264,13.824,1.367v8.641
	c-4.993-1.199-9.481-1.632-13.464-1.296c-3.168,0.192-5.376,0.828-6.624,1.908c-1.248,1.079-1.872,2.628-1.872,4.644
	c0,2.353,1.44,4.08,4.32,5.184L71.208,28.329z"/>
<path fill="#3E3A39" d="M88.847,4.641h15.696c5.183,0,9.216,0.648,12.096,1.944c1.872,0.816,3.503,1.92,4.896,3.312
	c2.783,3.024,4.176,6.744,4.176,11.16c0,4.32-1.393,7.992-4.176,11.016c-1.393,1.394-3.024,2.497-4.896,3.313
	c-2.785,1.151-6.552,1.728-11.304,1.728h-6.84v18h-9.648V4.641z M98.495,28.473h8.279c3.025,0,5.376-0.743,7.057-2.232
	c1.439-1.343,2.16-3.07,2.16-5.184c0-2.256-0.721-4.056-2.16-5.4c-1.681-1.584-4.032-2.376-7.057-2.376h-8.279V28.473z"/>
<path fill="#3E3A39" d="M130.463,30.057c0-7.535,2.304-13.728,6.912-18.576c4.607-4.848,10.535-7.271,17.784-7.271
	c7.247,0,13.187,2.424,17.819,7.271c4.631,4.849,6.95,11.041,6.95,18.576c0,7.44-2.318,13.561-6.95,18.36
	c-4.632,4.8-10.572,7.2-17.819,7.2c-7.249,0-13.177-2.4-17.784-7.2C132.767,43.617,130.463,37.497,130.463,30.057 M140.039,30.057
	c0,5.376,1.415,9.553,4.248,12.528c2.831,2.977,6.455,4.464,10.872,4.464c4.415,0,8.027-1.487,10.836-4.464
	c2.808-2.976,4.212-7.152,4.212-12.528c0-5.472-1.404-9.72-4.212-12.744c-2.809-3.023-6.421-4.536-10.836-4.536
	c-4.417,0-8.041,1.513-10.872,4.536C141.454,20.337,140.039,24.585,140.039,30.057"/>
<path fill="#3E3A39" d="M200.878,34.593h-3.744v20.52h-9.576V4.641h15.696c6.383,0,11.111,1.416,14.184,4.248
	c3.264,2.977,4.896,6.624,4.896,10.944c0,4.512-1.704,8.136-5.112,10.872c-1.776,1.439-3.913,2.473-6.407,3.096l14.832,21.312
	h-10.873L200.878,34.593z M197.134,26.169h7.345c2.879,0,4.969-0.648,6.264-1.944s1.943-2.784,1.943-4.464
	c0-1.775-0.648-3.313-1.943-4.608c-1.295-1.297-3.385-1.943-6.264-1.943h-7.345V26.169z"/>
<polygon fill="#3E3A39" points="251.565,55.112 241.918,55.112 241.918,13.28 226.149,13.28 226.149,4.641 267.334,4.641 
	267.334,13.28 251.565,13.28 "/>
<path fill="#3E3A39" d="M296.997,28.329c3.407,1.2,5.879,2.916,7.416,5.147c1.535,2.232,2.231,4.837,2.088,7.813
	c-0.241,4.562-2.088,8.184-5.544,10.872c-3.456,2.689-8.377,4.08-14.761,4.176c-5.808,0-10.896-0.6-15.263-1.8v-8.641
	c5.086,1.2,10.199,1.8,15.334,1.8c3.696-0.047,6.385-0.684,8.065-1.907c1.681-1.225,2.519-2.676,2.519-4.355
	c0-2.593-1.392-4.416-4.174-5.473l-12.097-4.176c-2.785-0.96-5.112-2.472-6.983-4.536c-1.873-2.063-2.809-4.655-2.809-7.776
	c0-4.367,1.463-8.016,4.393-10.944c2.926-2.927,7.416-4.535,13.463-4.823c3.983-0.191,8.592,0.264,13.824,1.367v8.641
	c-4.992-1.199-9.48-1.632-13.464-1.296c-3.168,0.192-5.377,0.828-6.624,1.908c-1.248,1.079-1.871,2.628-1.871,4.644
	c0,2.353,1.438,4.08,4.319,5.184L296.997,28.329z"/>
</svg>
