<?xml version="1.0" encoding="utf-8"?>
<!-- Generator: Adobe Illustrator 16.0.0, SVG Export Plug-In . SVG Version: 6.00 Build 0)  -->
<!DOCTYPE svg PUBLIC "-//W3C//DTD SVG 1.1//EN" "http://www.w3.org/Graphics/SVG/1.1/DTD/svg11.dtd">
<svg version="1.1" id="레이어_1" xmlns="http://www.w3.org/2000/svg" xmlns:xlink="http://www.w3.org/1999/xlink" x="0px"
	 y="0px" width="350px" height="60px" viewBox="0 0 350 60" enable-background="new 0 0 350 60" xml:space="preserve">
<polygon fill="#3E3A3A" points="34.804,4.586 34.804,13.245 50.605,13.245 50.605,55.168 60.275,55.168 60.275,13.245 
	76.077,13.245 76.077,4.586 "/>
<path fill="#3E3A3A" d="M91.156,35.035c0,4.139,0.913,7.266,2.741,9.381c1.684,2.021,4.305,3.031,7.866,3.031
	c3.511,0,6.157-1.01,7.937-3.031c1.827-2.115,2.742-5.242,2.742-9.381V4.586h9.669v31.027c0,6.35-1.805,11.424-5.412,15.225
	c-3.319,3.512-8.298,5.268-14.936,5.268c-6.639,0-11.617-1.756-14.937-5.268c-3.56-3.801-5.339-8.875-5.339-15.225V4.586h9.669
	V35.035z"/>
<path fill="#3E3A3A" d="M129.47,29.408c0-7.648,2.297-13.757,6.891-18.328c4.593-4.568,10.907-7.022,18.941-7.359
	c4.088-0.191,8.466,0.145,13.132,1.011v8.586c-4.811-0.817-8.875-1.13-12.194-0.938c-5.581,0.192-9.718,1.757-12.411,4.689
	c-3.079,3.175-4.618,7.385-4.618,12.628v0.793c0,5.484,1.539,9.658,4.618,12.52c3.078,2.861,7.263,4.389,12.556,4.582
	c3.799,0.143,7.888-0.119,12.266-0.793v8.586c-4.33,0.721-8.731,1.01-13.205,0.865c-8.226-0.385-14.611-2.777-19.157-7.18
	c-4.546-4.403-6.819-10.547-6.819-18.437V29.408L129.47,29.408z"/>
<path fill="#3E3A3A" d="M200.615,28.326c3.414,1.202,5.892,2.922,7.433,5.158c1.539,2.236,2.236,4.849,2.093,7.828
	c-0.24,4.572-2.093,8.203-5.558,10.896c-3.463,2.695-8.394,4.09-14.791,4.186c-5.819,0-10.921-0.602-15.297-1.805v-8.658
	c5.098,1.203,10.221,1.803,15.368,1.803c3.705-0.047,6.396-0.684,8.082-1.909c1.685-1.229,2.525-2.683,2.525-4.365
	c0-2.601-1.396-4.426-4.186-5.483l-12.122-4.187c-2.79-0.961-5.124-2.477-6.999-4.545c-1.877-2.068-2.814-4.666-2.814-7.793
	c0-4.377,1.466-8.033,4.402-10.968c2.934-2.934,7.432-4.546,13.492-4.835c3.992-0.191,8.609,0.266,13.854,1.371v8.658
	c-5.004-1.201-9.5-1.634-13.492-1.298c-3.176,0.191-5.389,0.829-6.639,1.912c-1.252,1.082-1.875,2.633-1.875,4.653
	c0,2.357,1.442,4.09,4.328,5.195L200.615,28.326z"/>
<path fill="#3E3A3A" d="M215.839,30.057c0-7.552,2.31-13.757,6.929-18.616c4.616-4.857,10.559-7.287,17.82-7.287
	c7.266,0,13.217,2.43,17.857,7.287c4.644,4.859,6.965,11.064,6.965,18.616c0,7.457-2.321,13.589-6.965,18.4
	c-4.643,4.811-10.594,7.215-17.857,7.215c-7.263,0-13.204-2.404-17.82-7.215C218.146,43.646,215.839,37.514,215.839,30.057
	 M225.438,30.057c0,5.388,1.418,9.574,4.256,12.556c2.838,2.981,6.47,4.473,10.896,4.473c4.427,0,8.046-1.49,10.86-4.473
	c2.814-2.983,4.221-7.168,4.221-12.556c0-5.483-1.406-9.741-4.221-12.771c-2.815-3.03-6.434-4.546-10.86-4.546
	c-4.426,0-8.058,1.516-10.896,4.546C226.855,20.316,225.438,24.574,225.438,30.057"/>
<polygon fill="#3E3A3A" points="280.777,4.586 305.528,38.789 305.528,4.586 315.197,4.586 315.197,55.168 307.404,55.168 
	282.727,21.254 282.727,55.168 273.059,55.168 273.059,4.586 "/>
</svg>
