<?xml version="1.0" encoding="utf-8"?>
<!-- Generator: Adobe Illustrator 16.0.0, SVG Export Plug-In . SVG Version: 6.00 Build 0)  -->
<!DOCTYPE svg PUBLIC "-//W3C//DTD SVG 1.1//EN" "http://www.w3.org/Graphics/SVG/1.1/DTD/svg11.dtd">
<svg version="1.1" id="레이어_1" xmlns="http://www.w3.org/2000/svg" xmlns:xlink="http://www.w3.org/1999/xlink" x="0px"
	 y="0px" width="350px" height="60px" viewBox="0 0 350 60" enable-background="new 0 0 350 60" xml:space="preserve">
<polygon fill="#3E3A39" points="166.756,4.765 153.437,40.548 140.116,4.765 130.252,4.765 149.621,55.235 157.324,55.235 
	176.621,4.765 "/>
<path fill="#3E3A39" d="M194.98,34.716h-3.744v20.52h-9.576V4.765h15.695c6.384,0,11.111,1.416,14.186,4.248
	c3.262,2.977,4.895,6.623,4.895,10.943c0,4.512-1.703,8.137-5.111,10.873c-1.775,1.439-3.913,2.473-6.408,3.096l14.832,21.311
	h-10.871L194.98,34.716z M191.236,26.292h7.344c2.881,0,4.969-0.648,6.264-1.943c1.297-1.297,1.945-2.783,1.945-4.465
	c0-1.775-0.648-3.313-1.945-4.607c-1.295-1.298-3.383-1.943-6.264-1.943h-7.344V26.292z"/>
</svg>
