<?xml version="1.0" encoding="utf-8"?>
<!-- Generator: Adobe Illustrator 16.0.0, SVG Export Plug-In . SVG Version: 6.00 Build 0)  -->
<!DOCTYPE svg PUBLIC "-//W3C//DTD SVG 1.1//EN" "http://www.w3.org/Graphics/SVG/1.1/DTD/svg11.dtd">
<svg version="1.1" id="레이어_1" xmlns="http://www.w3.org/2000/svg" xmlns:xlink="http://www.w3.org/1999/xlink" x="0px"
	 y="0px" width="350px" height="60px" viewBox="0 0 350 60" enable-background="new 0 0 350 60" xml:space="preserve">
<polygon fill="#FFFFFF" points="91.101,26.149 91.101,33.55 114.601,33.55 114.601,37.949 
	99.799,37.949 99.799,45.352 128.6,45.352 128.6,58.35 137,58.35 137,37.85 122.9,37.85 122.9,33.55 146.3,33.55 146.3,26.149 "/>
<path fill="#FFFFFF" d="M137.8,23.649c-9.6-1.7-16-4.8-19.1-9.3c-3.1,4.5-9.5,7.6-19.1,9.3
	l-4.3-5.8c6-1,10.7-2.7,14-5.3c1-0.7,1.8-1.5,2.5-2.3H98.5v-7.4h40.3v7.4h-13.4c0.7,0.8,1.5,1.5,2.5,2.3c3.3,2.6,8.1,4.3,14.1,5.3
	L137.8,23.649z"/>
<polygon fill="#FFFFFF" points="197.1,22.549 181.801,22.549 181.801,27.35 205.2,27.35 
	205.2,34.749 150,34.749 150,27.35 173.4,27.35 173.4,22.549 158.6,22.549 158.6,2.25 167,2.25 167,15.149 197.1,15.149 "/>
<polygon fill="#FFFFFF" points="187.801,58.35 187.801,45.949 159,45.949 159,38.55 
	196.2,38.55 196.2,58.35 "/>
<path fill="#FFFFFF" d="M224.4,40.35v-8.101H212v-6.5h16.4c6.1,0,12.1-0.7,18-2l0.699,6.4
	c-4.699,1.1-9.699,1.701-15,2v8.101H224.4V40.35z"/>
<polygon fill="#FFFFFF" points="258.801,58.648 221,58.648 221,42.249 229.4,42.249 
	229.4,51.249 258.9,51.249 258.9,58.648 "/>
<path fill="#FFFFFF" d="M238.1,4.649c-2.5-2-5.699-3-9.6-3s-7.1,1-9.6,3
	s-3.801,4.7-3.801,8.1c0,3.2,1.301,5.8,3.801,7.8s5.699,3,9.6,3s7.1-1,9.6-3s3.801-4.6,3.801-7.8
	C241.9,9.35,240.6,6.649,238.1,4.649 M232.5,15.75c-1,0.9-2.3,1.4-4,1.4c-1.8,0-3.199-0.5-4.199-1.4s-1.5-1.9-1.5-3
	c0-1.2,0.5-2.3,1.5-3.2c1.1-0.9,2.5-1.4,4.199-1.4c1.6,0,3,0.5,4,1.4c1.1,0.9,1.6,2,1.6,3.2C234.1,13.75,233.6,14.75,232.5,15.75"/>
<polygon fill="#FFFFFF" points="239.301,34.148 250.1,34.148 250.1,1.35 258.5,1.35 
	258.5,45.35 250.1,45.35 250.1,40.35 239.301,40.35 "/>
</svg>
