<?xml version="1.0" encoding="utf-8"?>
<!-- Generator: Adobe Illustrator 16.0.0, SVG Export Plug-In . SVG Version: 6.00 Build 0)  -->
<!DOCTYPE svg PUBLIC "-//W3C//DTD SVG 1.1//EN" "http://www.w3.org/Graphics/SVG/1.1/DTD/svg11.dtd">
<svg version="1.1" id="레이어_1" xmlns="http://www.w3.org/2000/svg" xmlns:xlink="http://www.w3.org/1999/xlink" x="0px"
	 y="0px" width="350px" height="60px" viewBox="0 0 350 60" enable-background="new 0 0 350 60" xml:space="preserve">
<rect x="43.854" y="0.912" fill="#FFFFFF" width="7.75" height="58.281"/>
<path fill="#FFFFFF" d="M21.72,24.658c-1.364-3.885-2.046-7.667-2.046-11.346V4.631h-8.06
	v8.681c0,3.679-0.682,7.512-2.046,11.501c-1.364,3.989-4.361,8.256-8.99,12.803l5.58,5.455c4.464-4.67,7.626-9.072,9.486-13.205
	c1.9,3.967,5.063,8.162,9.486,12.586l5.58-5.457C26.081,32.655,23.084,28.543,21.72,24.658z"/>
<polygon fill="#FFFFFF" points="32.384,16.845 24.634,16.845 24.634,24.286 32.384,24.286 
	32.384,57.331 40.134,57.331 40.134,1.532 32.384,1.532 "/>
<path fill="#FFFFFF" d="M75.381,21.372c3.079,2.232,6.995,3.348,11.749,3.348
	c4.836,0,8.793-1.115,11.873-3.348c3.079-2.232,4.619-5.125,4.619-8.68c0-3.597-1.54-6.511-4.619-8.742
	c-3.08-2.232-7.037-3.349-11.873-3.349c-4.754,0-8.67,1.116-11.749,3.349c-3.08,2.231-4.619,5.146-4.619,8.742
	C70.762,16.247,72.302,19.139,75.381,21.372z M81.519,9.189C83.11,8.3,84.98,7.856,87.13,7.856c2.272,0,4.194,0.444,5.766,1.333
	c1.57,0.889,2.356,2.057,2.356,3.503c0,1.447-0.786,2.604-2.356,3.472c-1.571,0.868-3.493,1.302-5.766,1.302
	c-2.15,0-4.021-0.434-5.611-1.302c-1.591-0.868-2.387-2.024-2.387-3.472C79.132,11.246,79.928,10.078,81.519,9.189z"/>
<path fill="#FFFFFF" d="M59.664,33.772H83.1v3.719H68.964v20.461h36.58V37.491H91.47
	v-3.719h23.374v-7.441h-55.18V33.772z M97.174,44.931v5.58h-19.84v-5.58H97.174z"/>
<polygon fill="#FFFFFF" points="159.174,21.186 150.804,21.186 150.804,28.625 
	159.174,28.625 159.174,59.192 167.544,59.192 167.544,0.912 159.174,0.912 "/>
<path fill="#FFFFFF" d="M132.514,37.181v-8.803h14.57v-7.439h-14.57v-7.626h17.174v-7.44
	h-25.544v38.75c12.482,0,22.402-0.682,29.76-2.047l-0.682-7.377C146.071,36.521,139.168,37.181,132.514,37.181z"/>
<path fill="#FFFFFF" d="M203.473,24.813c-1.634-3.989-2.449-7.822-2.449-11.501V4.631
	h-8.68v8.681c0,3.679-0.816,7.512-2.449,11.501c-1.634,3.989-5.322,8.256-11.067,12.803l5.58,5.455
	c5.952-4.877,10.044-9.486,12.276-13.826c2.231,4.298,6.324,8.701,12.276,13.207l5.579-5.457
	C208.794,32.862,205.104,28.802,203.473,24.813z"/>
<polygon fill="#FFFFFF" points="218.073,16.225 207.844,16.225 207.844,23.666 
	218.073,23.666 218.073,59.192 226.443,59.192 226.443,0.912 218.073,0.912 "/>
<rect x="276.664" y="0.912" fill="#FFFFFF" width="8.37" height="58.281"/>
<path fill="#FFFFFF" d="M260.978,18.148h-11.594V5.251h-8.37v38.13h28.334V5.251h-8.37
	V18.148z M260.978,35.942h-11.594V25.587h11.594V35.942z"/>
<rect x="295.135" y="44.931" fill="#FFFFFF" width="54.188" height="7.441"/>
<path fill="#FFFFFF" d="M322.229,18.272c3.1,6.613,9.465,11.264,19.096,13.95l4.96-6.076
	c-6.489-1.777-11.398-4.671-14.725-8.681c-3.328-4.009-4.991-8.08-4.991-12.214v-1.24h-8.68v1.24c0,4.134-1.665,8.205-4.991,12.214
	c-3.328,4.01-8.257,6.903-14.787,8.681l5.021,6.076C312.557,29.536,318.921,24.885,322.229,18.272z"/>
</svg>
