<?xml version="1.0" encoding="utf-8"?>
<!-- Generator: Adobe Illustrator 16.0.0, SVG Export Plug-In . SVG Version: 6.00 Build 0)  -->
<!DOCTYPE svg PUBLIC "-//W3C//DTD SVG 1.1//EN" "http://www.w3.org/Graphics/SVG/1.1/DTD/svg11.dtd">
<svg version="1.1" id="레이어_1" xmlns="http://www.w3.org/2000/svg" xmlns:xlink="http://www.w3.org/1999/xlink" x="0px"
	 y="0px" width="350px" height="60px" viewBox="0 0 350 60" enable-background="new 0 0 350 60" xml:space="preserve">
<path fill="#FFFFFF" d="M40.95,23.2c6.7,0,14.3-0.7,22.7-2l0.7,7.4c-8.6,1.4-19.2,2-31.7,2
	V2.7h8.4L40.95,23.2z"/>
<polygon fill="#FFFFFF" points="75.35,57.3 38.45,57.3 38.45,36.5 46.85,36.5 46.85,49.8 
	75.35,49.8 "/>
<polygon fill="#FFFFFF" points="74.35,22.9 74.35,38.4 66.05,38.4 66.05,0.5 74.35,0.5 
	74.35,15.4 82.75,15.4 82.75,22.9 "/>
<path fill="#FFFFFF" d="M117.95,42.1c-6-4.5-10-8.898-12.3-13.2
	c-2.2,4.3-6.3,8.9-12.3,13.8l-5.6-5.5c5.7-4.5,9.4-8.8,11-12.8c1.6-3.8,2.4-7.4,2.5-10.9h-9.8V6.1h29.1v7.4h-10.5
	c0.1,3.5,0.9,7.2,2.4,10.9c1.7,4,5.4,8,11.1,12.2L117.95,42.1z"/>
<rect x="126.75" y="0.5" fill="#FFFFFF" width="8.4" height="58.3"/>
<path fill="#FFFFFF" d="M150.05,2.7h23.3c0,7.4-1.6,13.6-4.7,18.4c-3.2,4.9-8.2,8.5-15,11
	l-5.7-5.6c5.8-1.9,10.1-4.2,12.8-7.1l-11.3,1.1l-0.6-6.8l14.9-0.9c0.5-1,0.7-2.1,0.9-3.2h-14.5L150.05,2.7z"/>
<polygon fill="#FFFFFF" points="177.05,1.8 184.75,1.8 184.75,11.7 188.449,11.7 
	188.449,0.5 196.25,0.5 196.25,31.5 188.449,31.5 188.449,19.1 184.75,19.1 184.75,30.9 177.05,30.9 "/>
<path fill="#FFFFFF" d="M206.949,30.6v-7.1h5.602l-0.602-11.8h7.801l0.6,11.7
	c1.9,0,3.801-0.1,5.701-0.2l0.6-11.4h7.8l-0.601,10.8c2.601-0.3,5-0.6,7.301-1l0.699,7.1c-8.1,1.399-18,2-29.5,2L206.949,30.6z"/>
<rect x="207.65" y="2.7" fill="#FFFFFF" width="31" height="7.1"/>
<rect x="245.15" y="0.5" fill="#FFFFFF" width="8.399" height="30.4"/>
<path fill="#FFFFFF" d="M293.15,30.3c-5.9-2.7-9.9-6.2-12.201-10.4
	c-2.199,4.5-6.299,8.4-12.398,11.6l-5.602-5.5c5.102-3,8.602-6.1,10.5-9.4c1.301-2.2,2.201-4.4,2.602-6.5h-10V2.7h29.5v7.4h-10.102
	c0.5,2.1,1.301,4.2,2.602,6.2c2,3.1,5.5,5.9,10.6,8.5L293.15,30.3z"/>
<path fill="#FFFFFF" d="M158.05,57.6h38.101V34H158.05V57.6z M166.45,41.5h21.399v8.7
	H166.45V41.5z"/>
<path fill="#FFFFFF" d="M248.25,35.8c-3-2.5-6.801-3.7-11.301-3.7
	c-4.398,0-8.199,1.2-11.199,3.7c-3.1,2.4-4.6,5.8-4.6,10c0,4.101,1.6,7.4,4.6,9.9s6.801,3.7,11.199,3.7c4.5,0,8.301-1.2,11.301-3.7
	c3.1-2.5,4.6-5.8,4.6-9.9C252.85,41.6,251.35,38.2,248.25,35.8 M242.25,50.3c-1.4,1.101-3.199,1.601-5.199,1.601
	s-3.701-0.5-5.201-1.601c-1.5-1-2.199-2.6-2.199-4.5c0-2.1,0.699-3.6,2.199-4.7c1.4-1.1,3.201-1.6,5.201-1.6s3.699,0.5,5.199,1.6
	c1.5,1.102,2.199,2.7,2.199,4.7C244.449,47.7,243.75,49.2,242.25,50.3"/>
<path fill="#FFFFFF" d="M304.75,35.9c-3-2.5-6.801-3.7-11.301-3.7
	c-4.398,0-8.199,1.2-11.199,3.7c-3.1,2.398-4.6,5.8-4.6,10c0,4.1,1.6,7.398,4.6,9.898s6.801,3.7,11.199,3.7
	c4.5,0,8.301-1.2,11.301-3.7c3.1-2.5,4.6-5.8,4.6-9.898C309.35,41.7,307.85,38.3,304.75,35.9 M298.75,50.4
	c-1.4,1.1-3.199,1.6-5.199,1.6s-3.701-0.5-5.201-1.6c-1.5-1-2.199-2.602-2.199-4.5c0-2.102,0.699-3.602,2.199-4.7
	c1.4-1.101,3.201-1.601,5.201-1.601s3.699,0.5,5.199,1.601c1.5,1.1,2.199,2.7,2.199,4.7C300.949,47.8,300.25,49.3,298.75,50.4"/>
<polygon fill="#FFFFFF" points="309.949,19.8 309.949,30.9 301.65,30.9 301.65,0.5 
	309.949,0.5 309.949,12.3 318.35,12.3 318.35,19.8 "/>
</svg>
