<?xml version="1.0" encoding="utf-8"?>
<!-- Generator: Adobe Illustrator 16.0.0, SVG Export Plug-In . SVG Version: 6.00 Build 0)  -->
<!DOCTYPE svg PUBLIC "-//W3C//DTD SVG 1.1//EN" "http://www.w3.org/Graphics/SVG/1.1/DTD/svg11.dtd">
<svg version="1.1" id="레이어_1" xmlns="http://www.w3.org/2000/svg" xmlns:xlink="http://www.w3.org/1999/xlink" x="0px"
	 y="0px" width="350px" height="60px" viewBox="0 0 350 60" enable-background="new 0 0 350 60" xml:space="preserve">
<path fill="#FFFFFF" d="M54.131,24.637c-1.53-3.761-2.336-7.398-2.418-10.912h10.54V6.285
	h-29.14v7.439h9.92c-0.083,3.514-0.91,7.151-2.48,10.912c-1.612,3.969-5.292,8.226-11.036,12.772l5.58,5.456
	c5.952-4.877,10.044-9.486,12.276-13.826c2.232,4.299,6.324,8.701,12.276,13.206l5.58-5.456
	C59.483,32.656,55.784,28.605,54.131,24.637z"/>
<polygon fill="#FFFFFF" points="75.893,0.705 67.523,0.705 67.523,58.985 75.893,58.985 
	75.893,28.853 84.883,28.853 84.883,21.413 75.893,21.413 "/>
<path fill="#FFFFFF" d="M88.603,31.581h13.95v2.604h-4.65v6.511h28.209v2.294H97.903
	v15.376h37.2v-6.51h-28.83v-2.356h28.211V34.185h-4.65v-2.604h13.949v-7.13h-55.18V31.581z M110.303,31.581h11.78v2.604h-11.78
	V31.581z"/>
<path fill="#FFFFFF" d="M104.32,20.174c3.079,2.025,6.995,3.038,11.749,3.038
	c4.836,0,8.793-1.013,11.874-3.038c3.078-2.025,4.618-4.753,4.618-8.185c0-3.472-1.54-6.22-4.618-8.246
	c-3.081-2.024-7.038-3.038-11.874-3.038c-4.754,0-8.67,1.014-11.749,3.038c-3.08,2.026-4.619,4.774-4.619,8.246
	C99.701,15.421,101.24,18.148,104.32,20.174z M110.458,8.858c1.591-0.723,3.461-1.085,5.611-1.085c2.272,0,4.194,0.362,5.766,1.085
	c1.57,0.724,2.356,1.768,2.356,3.131c0,1.364-0.786,2.398-2.356,3.101c-1.571,0.703-3.493,1.054-5.766,1.054
	c-2.15,0-4.021-0.351-5.611-1.054c-1.591-0.702-2.387-1.736-2.387-3.101C108.071,10.626,108.866,9.582,110.458,8.858z"/>
<rect x="110.303" y="31.581" fill="#FFFFFF" width="11.78" height="2.604"/>
<polygon fill="#FFFFFF" points="147.999,40.075 170.442,40.075 170.442,58.985 
	179.122,58.985 179.122,40.075 202.187,40.075 202.187,32.635 147.999,32.635 "/>
<path fill="#FFFFFF" d="M151.595,21.909l4.402,6.076
	c9.465-2.273,15.83-6.303,19.096-12.091c3.182,5.788,9.548,9.817,19.096,12.091l4.34-6.076c-6.489-1.364-11.305-3.72-14.445-7.068
	c-1.364-1.528-2.439-3.038-3.225-4.525h14.385v-7.44h-40.301v7.44h14.322c-0.744,1.487-1.819,2.997-3.225,4.525
	C162.94,18.189,158.125,20.545,151.595,21.909z"/>
<polygon fill="#FFFFFF" points="235.542,4.921 227.172,4.921 227.172,0.705 218.802,0.705 
	218.802,4.921 209.192,4.921 209.192,11.121 235.542,11.121 "/>
<path fill="#FFFFFF" d="M235.232,23.211c0-3.017-1.106-5.527-3.317-7.533
	c-2.212-2.004-5.198-3.007-8.959-3.007c-3.72,0-6.687,1.003-8.897,3.007c-2.211,2.006-3.316,4.517-3.316,7.533
	c0,3.06,1.105,5.58,3.316,7.564c2.211,1.983,5.178,2.976,8.897,2.976c3.761,0,6.747-0.992,8.959-2.976
	C234.126,28.791,235.232,26.271,235.232,23.211z M225.715,25.877c-0.766,0.703-1.727,1.054-2.883,1.054
	c-1.157,0-2.119-0.351-2.883-1.054c-0.766-0.702-1.147-1.591-1.147-2.666c0-1.116,0.382-2.015,1.147-2.697
	c0.764-0.682,1.726-1.022,2.883-1.022c1.156,0,2.117,0.341,2.883,1.022c0.765,0.683,1.147,1.581,1.147,2.697
	C226.862,24.286,226.479,25.175,225.715,25.877z"/>
<path fill="#FFFFFF" d="M250.515,36.8c-3.038-2.355-6.81-3.533-11.314-3.533
	c-4.424,0-8.153,1.178-11.191,3.533c-3.038,2.356-4.557,5.54-4.557,9.549c0,3.927,1.519,7.067,4.557,9.424
	c3.038,2.355,6.768,3.534,11.191,3.534c4.505,0,8.276-1.179,11.314-3.534c3.038-2.356,4.558-5.497,4.558-9.424
	C255.072,42.34,253.553,39.156,250.515,36.8z M244.501,50.409c-1.468,0.972-3.214,1.457-5.239,1.457s-3.772-0.485-5.238-1.457
	c-1.468-0.971-2.201-2.325-2.201-4.061c0-1.818,0.733-3.214,2.201-4.186c1.466-0.971,3.213-1.457,5.238-1.457
	s3.771,0.486,5.239,1.457c1.467,0.972,2.201,2.367,2.201,4.186C246.702,48.084,245.968,49.438,244.501,50.409z"/>
<polygon fill="#FFFFFF" points="249.492,12.485 245.772,12.485 245.772,1.945 
	238.022,1.945 238.022,31.705 245.772,31.705 245.772,19.925 249.492,19.925 249.492,33.565 257.242,33.565 257.242,0.705 
	249.492,0.705 "/>
<path fill="#FFFFFF" d="M289.73,25.257c-1.529-3.761-2.336-7.191-2.418-10.292h11.16V7.525
	h-11.036v-6.82h-8.37v6.82h-11.594v7.439h11.16c-0.084,3.101-0.91,6.531-2.48,10.292c-1.612,3.968-5.291,8.226-11.036,12.772
	l5.58,5.456c5.952-4.877,10.044-9.486,12.276-13.826c2.231,4.299,6.323,8.701,12.275,13.206l5.58-5.456
	C295.083,33.276,291.383,29.225,289.73,25.257z"/>
<polygon fill="#FFFFFF" points="311.492,21.413 311.492,0.705 303.122,0.705 
	303.122,58.985 311.492,58.985 311.492,28.853 320.482,28.853 320.482,21.413 "/>
</svg>
