<?xml version="1.0" encoding="utf-8"?>
<!-- Generator: Adobe Illustrator 16.0.0, SVG Export Plug-In . SVG Version: 6.00 Build 0)  -->
<!DOCTYPE svg PUBLIC "-//W3C//DTD SVG 1.1//EN" "http://www.w3.org/Graphics/SVG/1.1/DTD/svg11.dtd">
<svg version="1.1" id="레이어_1" xmlns="http://www.w3.org/2000/svg" xmlns:xlink="http://www.w3.org/1999/xlink" x="0px"
	 y="0px" width="350px" height="60px" viewBox="0 0 350 60" enable-background="new 0 0 350 60" xml:space="preserve">
<polygon fill="#FFFFFF" points="130.8,58.6 94,58.6 94,41.3 102.3,41.3 102.3,51.2 
	130.8,51.2 "/>
<path fill="#FFFFFF" d="M120.3,29.2c-5,1.1-9.8,1.7-14.3,1.7V28c1.9-0.5,3.7-1.3,5.3-2.5
	c2.7-2,4.1-4.5,4.1-7.7c0-2.4-0.8-4.5-2.4-6.2h4.5V5.2H106v-4h-8.4v4H86.3v6.3h4.5c-1.6,1.7-2.4,3.8-2.4,6.2c0,3.1,1.3,5.7,4,7.7
	c1.7,1.3,3.7,2.2,5.8,2.6v2.8H85.9v6.8h15.2c8,0,14.7-0.6,19.9-1.699L120.3,29.2z M101.9,21.4c-1.3,0-2.4-0.3-3.5-0.9
	s-1.6-1.5-1.6-2.7c0-1.3,0.5-2.2,1.6-2.9c1.1-0.7,2.2-1,3.5-1c1.4,0,2.5,0.4,3.6,1c1.1,0.7,1.6,1.6,1.6,2.9c0,1.2-0.5,2.1-1.6,2.7
	S103.2,21.4,101.9,21.4"/>
<polygon fill="#FFFFFF" points="130.5,24.8 130.5,43.4 122.2,43.4 122.2,1.9 130.5,1.9 
	130.5,17.4 138.9,17.4 138.9,24.8 "/>
<path fill="#FFFFFF" d="M174.101,32.9c-5.9-2.7-9.9-6.2-12.2-10.4
	c-2.2,4.5-6.3,8.4-12.4,11.6l-5.6-5.5c5.1-3,8.6-6.1,10.6-9.4c2-3.3,2.9-6.6,2.9-9.8V3.1h8.7v6.3c0,3.2,1,6.4,2.9,9.5
	c2,3.1,5.5,5.9,10.601,8.5L174.101,32.9z"/>
<polygon fill="#FFFFFF" points="192.5,58.6 156.3,58.6 156.3,38.5 164.601,38.5 
	164.601,51.2 192.5,51.2 "/>
<polygon fill="#FFFFFF" points="173.9,11.2 183.9,11.2 183.9,1.9 192.2,1.9 192.2,39.7 
	183.9,39.7 183.9,18.7 173.9,18.7 "/>
<polygon fill="#FFFFFF" points="247.4,50.4 219.2,50.4 219.2,53 248.602,53 248.602,59.5 
	210.801,59.5 210.801,43.9 239,43.9 239,41.3 210.801,41.3 210.801,34.7 225,34.7 225,31.6 201.5,31.6 201.5,24.2 256.7,24.2 
	256.7,31.6 233.301,31.6 233.301,34.7 247.4,34.7 "/>
<path fill="#FFFFFF" d="M248,4c0,8.1-0.5,14.1-1.5,18l-7.8-1
	c0.601-3.4,0.899-6.6,0.899-9.5h-29.5V4H248z"/>
</svg>
