<?xml version="1.0" encoding="utf-8"?>
<!-- Generator: Adobe Illustrator 16.0.0, SVG Export Plug-In . SVG Version: 6.00 Build 0)  -->
<!DOCTYPE svg PUBLIC "-//W3C//DTD SVG 1.1//EN" "http://www.w3.org/Graphics/SVG/1.1/DTD/svg11.dtd">
<svg version="1.1" id="레이어_1" xmlns="http://www.w3.org/2000/svg" xmlns:xlink="http://www.w3.org/1999/xlink" x="0px"
	 y="0px" width="350px" height="60px" viewBox="0 0 350 60" enable-background="new 0 0 350 60" xml:space="preserve">
<rect x="31.656" y="44.878" fill="#FFFFFF" width="54.188" height="7.44"/>
<path fill="#FFFFFF" d="M77.846,32.168c-9.631-2.683-15.996-7.333-19.096-13.947
	c-3.308,6.613-9.672,11.264-19.096,13.947l-5.022-6.073c6.53-1.777,11.459-4.671,14.787-8.681c3.327-4.009,4.991-8.08,4.991-12.214
	V3.96h8.68v1.24c0,4.134,1.663,8.205,4.991,12.214c3.327,4.01,8.235,6.903,14.725,8.681L77.846,32.168z"/>
<path fill="#FFFFFF" d="M94.09,5.821v35.648h26.784V5.821H94.09z M112.504,34.028h-10.044
	V13.261h10.044V34.028z"/>
<polygon fill="#FFFFFF" points="136.25,29.008 136.25,59.139 127.88,59.139 127.88,0.861 
	136.25,0.861 136.25,21.569 145.24,21.569 145.24,29.008 "/>
<rect x="149.456" y="44.878" fill="#FFFFFF" width="54.188" height="7.44"/>
<polygon fill="#FFFFFF" points="195.46,12.021 165.39,12.021 165.39,17.663 194.84,17.663 
	194.84,24.483 165.39,24.483 165.39,30.125 196.7,30.125 196.7,36.942 157.02,36.942 157.02,5.201 195.46,5.201 "/>
<path fill="#FFFFFF" d="M239.355,42.398c-5.952-4.505-10.045-8.907-12.276-13.204
	c-2.232,4.337-6.324,8.947-12.276,13.824l-5.58-5.456c5.745-4.547,9.434-8.811,11.067-12.8c1.633-3.989,2.449-7.822,2.449-11.501
	V4.581h8.68v8.681c0,3.679,0.815,7.512,2.449,11.501c1.632,3.989,5.321,8.047,11.066,12.18L239.355,42.398z"/>
<rect x="248.159" y="0.861" fill="#FFFFFF" width="8.37" height="58.278"/>
<path fill="#FFFFFF" d="M299.123,13.261h-18.414v7.626h17.051v7.439h-17.051v8.801
	c6.654,0,13.971-0.66,21.948-1.983l0.683,7.378c-8.185,1.364-18.519,2.046-31,2.046V5.821h26.783V13.261z"/>
<rect x="307.06" y="0.861" fill="#FFFFFF" width="8.37" height="58.278"/>
</svg>
