<?xml version="1.0" encoding="utf-8"?>
<!-- Generator: Adobe Illustrator 16.0.0, SVG Export Plug-In . SVG Version: 6.00 Build 0)  -->
<!DOCTYPE svg PUBLIC "-//W3C//DTD SVG 1.1//EN" "http://www.w3.org/Graphics/SVG/1.1/DTD/svg11.dtd">
<svg version="1.1" id="레이어_1" xmlns="http://www.w3.org/2000/svg" xmlns:xlink="http://www.w3.org/1999/xlink" x="0px"
	 y="0px" width="350px" height="60px" viewBox="0 0 350 60" enable-background="new 0 0 350 60" xml:space="preserve">
<path fill="#FFFFFF" d="M81.598,4.89v12.896H70.003V4.89h-8.37V43.02h28.335V4.89H81.598z
	 M81.598,35.58H70.003V25.226h11.595V35.58z"/>
<rect x="97.283" y="0.55" fill="#FFFFFF" width="8.37" height="58.28"/>
<polygon fill="#FFFFFF" points="162.383,16.67 132.934,16.67 132.934,18.84 163.003,18.84 
	163.003,25.04 156.493,25.04 156.493,27.706 171.063,27.706 171.063,34.216 115.882,34.216 115.882,27.706 130.452,27.706 
	130.452,25.04 124.562,25.04 124.562,10.47 154.012,10.47 154.012,8.3 124.562,8.3 124.562,2.1 162.381,2.1 162.381,16.67 "/>
<path fill="#FFFFFF" d="M155.223,38.68c-3.08-2.232-7.037-3.348-11.873-3.348
	c-4.754,0-8.671,1.117-11.749,3.348c-3.08,2.232-4.619,5.146-4.619,8.742c0,3.557,1.539,6.451,4.619,8.68
	c3.078,2.234,6.995,3.352,11.749,3.352c4.836,0,8.793-1.119,11.873-3.352c3.078-2.23,4.618-5.123,4.618-8.68
	C159.841,43.826,158.301,40.912,155.223,38.68z M149.116,50.895c-1.572,0.867-3.494,1.301-5.766,1.301
	c-2.15,0-4.02-0.434-5.611-1.301c-1.592-0.869-2.387-2.025-2.387-3.473c0-1.445,0.795-2.613,2.387-3.502
	c1.59-0.889,3.461-1.334,5.611-1.334c2.273,0,4.195,0.445,5.766,1.334c1.57,0.889,2.356,2.057,2.356,3.502
	C151.472,48.869,150.686,50.025,149.116,50.895z"/>
<rect x="138.203" y="25.041" fill="#FFFFFF" width="10.54" height="2.666"/>
<polygon fill="#FFFFFF" points="181.604,24.42 181.604,17.6 188.423,17.6 188.113,10.161 
	196.482,10.161 196.793,17.6 207.953,17.6 208.264,10.161 216.633,10.161 216.322,17.6 223.143,17.6 223.143,24.42 206.587,24.42 
	206.587,27.52 229.961,27.52 229.961,34.961 174.781,34.961 174.781,27.52 198.217,27.52 198.217,24.42 "/>
<rect x="182.843" y="2.1" fill="#FFFFFF" width="39.06" height="6.82"/>
<polygon fill="#FFFFFF" points="211.673,57.59 211.673,45.189 183.463,45.189 
	183.463,37.75 220.043,37.75 220.043,57.59 "/>
<polygon fill="#FFFFFF" points="239.882,35.146 239.882,27.706 247.943,27.706 
	247.324,14.189 255.693,14.189 256.313,27.706 266.232,27.706 266.854,14.189 275.223,14.189 274.604,27.706 282.664,27.706 
	282.664,35.146 265.49,35.146 265.49,44.57 288.368,44.57 288.368,52.008 234.18,52.008 234.18,44.57 257.118,44.57 257.118,35.146 
	"/>
<polygon fill="#FFFFFF" points="241.122,12.331 241.122,4.89 281.422,4.89 281.422,12.33 
	241.122,12.331 "/>
</svg>
