<?xml version="1.0" encoding="utf-8"?>
<!-- Generator: Adobe Illustrator 16.0.0, SVG Export Plug-In . SVG Version: 6.00 Build 0)  -->
<!DOCTYPE svg PUBLIC "-//W3C//DTD SVG 1.1//EN" "http://www.w3.org/Graphics/SVG/1.1/DTD/svg11.dtd">
<svg version="1.1" id="레이어_1" xmlns="http://www.w3.org/2000/svg" xmlns:xlink="http://www.w3.org/1999/xlink" x="0px"
	 y="0px" width="350px" height="60px" viewBox="0 0 350 60" enable-background="new 0 0 350 60" xml:space="preserve">
<polygon fill="#FFFFFF" points="102.4,0.5 102.4,30.9 110.8,30.9 110.8,24.5 119.1,24.5 
	119.1,17.7 110.8,17.7 110.8,12.8 119.1,12.8 119.1,5.9 110.8,5.9 110.8,0.5 "/>
<path fill="#FFFFFF" d="M133.1,34c1.6-0.1,3.3-0.4,5.1-0.9l0.6,6.801
	c-3.1,0.801-7.3,1.199-12.5,1.199V5.5h11.3v7.1h-4.5V34L133.1,34z"/>
<path fill="#FFFFFF" d="M146.9,35.3c2.3-0.1,4.5-0.5,6.7-1.2l1.2,6.602
	c-3.6,1.199-8.5,1.8-14.7,1.8v-37h12.8v7.1h-6V35.3z"/>
<polygon fill="#FFFFFF" points="151.1,19.1 156.3,19.1 156.3,1.8 163.8,1.8 163.8,57 
	156.3,57 156.3,26.6 151.1,26.6 "/>
<rect x="166.3" y="0.5" fill="#FFFFFF" width="7.4" height="58.3"/>
<polygon fill="#FFFFFF" points="219.9,57.6 219.9,45.2 189.801,45.2 189.801,37.7 
	228.301,37.7 228.301,57.6 "/>
<path fill="#FFFFFF" d="M270.6,30.3c-5.897-2.7-9.897-6.2-12.199-10.4
	c-2.198,4.5-6.301,8.4-12.399,11.6L240.4,26c5.101-3,8.601-6.1,10.5-9.4c1.302-2.2,2.199-4.4,2.601-6.5h-10V2.7H273v7.4h-10.1
	c0.5,2.1,1.301,4.2,2.6,6.2c2,3.1,5.5,5.9,10.6,8.5L270.6,30.3z"/>
<path fill="#FFFFFF" d="M92.3,25.9c2.9-2.8,4.3-6.1,4.3-10.2c0-4-1.4-7.4-4.3-10.2
	c-2.9-2.7-6.4-4.1-10.6-4.1c-4.2,0-7.7,1.4-10.6,4.1c-2.9,2.8-4.3,6.2-4.3,10.2c0,4.1,1.4,7.5,4.3,10.2C74,28.6,77.5,30,81.7,30
	C85.9,30,89.4,28.6,92.3,25.9 M75.1,15.7c0-2,0.7-3.6,2-4.9c1.3-1.3,2.9-2,4.7-2c1.8,0,3.3,0.7,4.6,2c1.3,1.3,1.9,3,1.9,4.9
	c0,2-0.7,3.6-1.9,4.9c-1.3,1.3-2.8,2-4.6,2c-1.8,0-3.4-0.7-4.7-2C75.8,19.3,75.1,17.6,75.1,15.7"/>
<path fill="#FFFFFF" d="M105.6,35.9c-3-2.5-6.8-3.7-11.3-3.7c-4.4,0-8.2,1.2-11.2,3.7
	c-3.1,2.398-4.6,5.8-4.6,10c0,4.1,1.6,7.398,4.6,9.898s6.8,3.7,11.2,3.7c4.5,0,8.3-1.2,11.3-3.7c3.1-2.5,4.6-5.8,4.6-9.898
	C110.2,41.6,108.6,38.3,105.6,35.9 M99.6,50.4c-1.4,1.1-3.2,1.6-5.2,1.6s-3.7-0.5-5.2-1.6c-1.5-1-2.2-2.602-2.2-4.5
	c0-2.102,0.7-3.602,2.2-4.7c1.4-1.101,3.2-1.601,5.2-1.601s3.7,0.5,5.2,1.601c1.5,1.1,2.2,2.7,2.2,4.7
	C101.8,47.8,101.1,49.3,99.6,50.4"/>
<path fill="#FFFFFF" d="M213.6,22.2H228.9V2.1H189.8v20.1h15.397v4.4H181.8V34H236.9v-7.4
	H213.6V22.2z M198.199,9.5H220.5v5.3h-22.301V9.5z"/>
<path fill="#FFFFFF" d="M282.301,35.5c-3-2.5-6.801-3.7-11.301-3.7
	c-4.4,0-8.199,1.2-11.199,3.7c-3.1,2.4-4.6,5.8-4.6,10c0,4.1,1.6,7.4,4.6,9.9S266.6,59.1,271,59.1c4.5,0,8.301-1.199,11.301-3.699
	c3.1-2.5,4.6-5.801,4.6-9.899C286.9,41.2,285.301,37.9,282.301,35.5 M276.301,50c-1.4,1.1-3.201,1.6-5.201,1.6S267.4,51.1,265.9,50
	c-1.5-1-2.199-2.6-2.199-4.5c0-2.1,0.699-3.6,2.199-4.7c1.399-1.1,3.199-1.6,5.199-1.6s3.7,0.5,5.2,1.6
	c1.5,1.101,2.199,2.7,2.199,4.7C278.5,47.4,277.801,48.9,276.301,50"/>
<polygon fill="#FFFFFF" points="287.5,19.8 287.5,30.9 279.1,30.9 279.1,0.5 287.5,0.5 
	287.5,12.3 295.801,12.3 295.801,19.8 "/>
</svg>
