<?xml version="1.0" encoding="utf-8"?>
<!-- Generator: Adobe Illustrator 16.0.0, SVG Export Plug-In . SVG Version: 6.00 Build 0)  -->
<!DOCTYPE svg PUBLIC "-//W3C//DTD SVG 1.1//EN" "http://www.w3.org/Graphics/SVG/1.1/DTD/svg11.dtd">
<svg version="1.1" id="레이어_1" xmlns="http://www.w3.org/2000/svg" xmlns:xlink="http://www.w3.org/1999/xlink" x="0px"
	 y="0px" width="350px" height="60px" viewBox="0 0 350 60" enable-background="new 0 0 350 60" xml:space="preserve">
<polygon fill="#FFFFFF" points="119.386,16.359 119.386,24.729 146.48,24.729 
	146.48,32.17 91.3,32.17 91.3,24.729 111.017,24.729 111.017,16.359 "/>
<path fill="#FFFFFF" d="M137.8,2.72c0,8.308-0.517,14.715-1.55,19.22l-7.75-0.992
	c0.62-4.05,0.93-7.646,0.93-10.787H99.98V2.72H137.8z"/>
<path fill="#FFFFFF" d="M100.601,35.891V57.59h36.58V35.891H100.601z M128.811,50.15
	h-19.84v-6.82h19.84V50.15z"/>
<polygon fill="#FFFFFF" points="201.04,58.83 192.98,58.83 192.98,28.697 189.261,28.697 
	189.261,56.971 181.2,56.971 181.2,1.79 189.261,1.79 189.261,21.258 192.98,21.258 192.98,0.55 201.04,0.55 "/>
<path fill="#FFFFFF" d="M222.74,24.544c7.274,0,14.797-0.559,22.567-1.674l0.683,7.067
	c-7.978,1.158-18.518,1.736-31.62,1.736V13.26h15.189V9.85H214.37V2.72h24.801v17.67H222.74V24.544z"/>
<path fill="#FFFFFF" d="M169.234,17.786h-6.944V4.89h-7.75v38.13h22.444V4.89h-7.75V17.786
	z M169.234,35.58h-6.944V25.226h6.944V35.58z"/>
<path fill="#FFFFFF" d="M253.214,36.479c-3.039-2.457-6.811-3.688-11.315-3.688
	c-4.423,0-8.153,1.23-11.191,3.688c-3.038,2.461-4.557,5.695-4.557,9.703c0,3.928,1.519,7.119,4.557,9.58
	c3.038,2.459,6.769,3.689,11.191,3.689c4.505,0,8.276-1.23,11.315-3.689c3.037-2.461,4.557-5.652,4.557-9.58
	C257.771,42.174,256.251,38.939,253.214,36.479z M247.199,50.398c-1.468,1.074-3.214,1.611-5.239,1.611s-3.771-0.537-5.238-1.611
	c-1.469-1.074-2.201-2.48-2.201-4.217c0-1.818,0.732-3.264,2.201-4.34c1.467-1.074,3.213-1.611,5.238-1.611s3.771,0.537,5.239,1.611
	c1.467,1.076,2.201,2.521,2.201,4.34C249.4,47.918,248.666,49.324,247.199,50.398z"/>
<polygon fill="#FFFFFF" points="241.96,14.872 250.33,14.872 250.33,11.151 241.96,11.151 
	241.96,4.952 250.33,4.952 250.33,0.55 258.7,0.55 258.7,32.791 250.33,32.791 250.33,21.071 241.96,21.071 "/>
</svg>
