<?xml version="1.0" encoding="utf-8"?>
<!-- Generator: Adobe Illustrator 16.0.0, SVG Export Plug-In . SVG Version: 6.00 Build 0)  -->
<!DOCTYPE svg PUBLIC "-//W3C//DTD SVG 1.1//EN" "http://www.w3.org/Graphics/SVG/1.1/DTD/svg11.dtd">
<svg version="1.1" id="레이어_1" xmlns="http://www.w3.org/2000/svg" xmlns:xlink="http://www.w3.org/1999/xlink" x="0px"
	 y="0px" width="350px" height="60px" viewBox="0 0 350 60" enable-background="new 0 0 350 60" xml:space="preserve">
<path fill="#FFFFFF" d="M92.5,32.6v-7.1h10.2V16h7.8v9.5c5.5,0,11.2-0.7,17-2l0.7,7.1
	c-6.1,1.4-13.6,2-22.7,2H92.5z"/>
<path fill="#FFFFFF" d="M124.3,3c0,8-0.5,14.2-1.4,18.6l-7.7-0.7c0.7-4.2,1.1-7.8,1.1-10.8
	H95.6V3H124.3z"/>
<path fill="#FFFFFF" d="M132.4,37.7c-2.8-2.5-6.5-3.7-11-3.7c-4.4,0-8.1,1.2-10.9,3.7
	s-4.2,5.5-4.2,9.1c0,3.601,1.4,6.5,4.2,9s6.5,3.7,10.9,3.7c4.5,0,8.2-1.2,11-3.7c2.8-2.5,4.2-5.5,4.2-9
	C136.6,43.2,135.1,40.2,132.4,37.7 M126.3,50.6c-1.2,1-2.9,1.5-4.9,1.5s-3.6-0.5-4.9-1.5s-1.9-2.3-1.9-3.8
	c0-1.6,0.6-2.899,1.9-3.899c1.2-1,2.9-1.5,4.9-1.5s3.6,0.5,4.9,1.5c1.3,1,1.9,2.3,1.9,3.899C128.2,48.3,127.6,49.6,126.3,50.6"/>
<polygon fill="#FFFFFF" points="137.8,20.4 137.8,33.4 129.4,33.4 129.4,0.5 137.8,0.5 
	137.8,12.9 146.2,12.9 146.2,20.4 "/>
<polygon fill="#FFFFFF" points="197,57.5 160.7,57.5 160.7,37.3 169.1,37.3 169.1,50 
	197,50 "/>
<path fill="#FFFFFF" d="M178.3,5.7c-2.9-2.7-6.4-4.1-10.6-4.1c-4.2,0-7.7,1.4-10.6,4.1
	c-2.9,2.7-4.3,6.3-4.3,10.8s1.4,8.1,4.3,10.8c2.9,2.7,6.4,4.101,10.6,4.101c4.2,0,7.7-1.4,10.6-4.101c2.9-2.7,4.3-6.3,4.3-10.8
	C182.6,12.1,181.1,8.5,178.3,5.7 M172.3,22c-1.3,1.3-2.8,2-4.6,2c-1.8,0-3.4-0.7-4.7-2s-2-3.1-2-5.5s0.7-4.2,2-5.5s2.9-2,4.7-2
	c1.8,0,3.3,0.7,4.6,2c1.3,1.3,1.9,3.1,1.9,5.5S173.6,20.7,172.3,22"/>
<polygon fill="#FFFFFF" points="196.7,23 196.7,38.5 188.3,38.5 188.3,0.7 196.7,0.7 
	196.7,15.6 205.1,15.6 205.1,23 "/>
<path fill="#FFFFFF" d="M222.4,37c6.699,0,14.199-0.7,22.6-2l0.7,7.4
	c-8.601,1.399-19.101,2-31.601,2V20.8H232.4v-7.6H214.1V5.7h26.7v22.5h-18.3L222.4,37z"/>
<rect x="249.1" y="0.7" fill="#FFFFFF" width="8.4" height="58.3"/>
</svg>
