<?xml version="1.0" encoding="utf-8"?>
<!-- Generator: Adobe Illustrator 16.0.0, SVG Export Plug-In . SVG Version: 6.00 Build 0)  -->
<!DOCTYPE svg PUBLIC "-//W3C//DTD SVG 1.1//EN" "http://www.w3.org/Graphics/SVG/1.1/DTD/svg11.dtd">
<svg version="1.1" id="레이어_1" xmlns="http://www.w3.org/2000/svg" xmlns:xlink="http://www.w3.org/1999/xlink" x="0px"
	 y="0px" width="350px" height="60px" viewBox="0 0 350 60" enable-background="new 0 0 350 60" xml:space="preserve">
<path fill="#FFFFFF" d="M30.916,32.2c-5.9-2.7-9.9-6.2-12.2-10.4
	c-2.2,4.5-6.3,8.4-12.4,11.601l-5.5-5.4c5.1-3,8.6-6.1,10.5-9.4c1.6-2.6,2.5-5.2,2.9-7.8h-10.3V3.4h29.5v7.4h-10.3
	c0.3,2.5,1.3,5,2.8,7.4c2,3.1,5.5,5.9,10.6,8.5L30.916,32.2z"/>
<polygon fill="#FFFFFF" points="49.016,57.9 12.116,57.9 12.116,37.8 20.516,37.8 
	20.516,50.5 49.016,50.5 "/>
<polygon fill="#FFFFFF" points="31.116,13.7 40.416,13.7 40.416,1.2 48.716,1.2 48.716,39 
	40.416,39 40.416,21.1 31.116,21.1 "/>
<polygon fill="#FFFFFF" points="81.016,59.5 81.016,40.6 58.516,40.6 58.516,33.1 
	112.716,33.1 112.716,40.6 89.616,40.6 89.616,59.5 "/>
<path fill="#FFFFFF" d="M104.716,28.5c-9.5-2.3-15.9-6.3-19.1-12.1
	c-3.3,5.8-9.6,9.8-19.1,12.1l-4.4-6.1c6.5-1.4,11.3-3.7,14.4-7.1c1.4-1.5,2.5-3,3.2-4.5h-14.2V3.4h40.3v7.4h-14.4
	c0.8,1.5,1.9,3,3.2,4.5c3.1,3.3,8,5.7,14.4,7.1L104.716,28.5z"/>
<polygon fill="#FFFFFF" points="118.516,11.3 118.516,5.1 130.616,5.1 130.616,1 
	138.916,1 138.916,5.1 151.016,5.1 151.016,11.3 "/>
<polygon fill="#FFFFFF" points="164.016,57.9 127.816,57.9 127.816,40.3 136.116,40.3 
	136.116,50.5 164.016,50.5 "/>
<path fill="#FFFFFF" d="M144.316,15.9c-2.3-2.2-5.5-3.3-9.6-3.3c-4,0-7.2,1.1-9.6,3.3
	c-2.4,2.2-3.6,5-3.6,8.3c0,3.3,1.2,6.1,3.6,8.3s5.6,3.3,9.6,3.3s7.2-1.1,9.6-3.3s3.6-5,3.6-8.3
	C147.916,20.9,146.716,18.1,144.316,15.9 M138.316,27.7c-0.8,0.9-2,1.3-3.5,1.3s-2.6-0.4-3.5-1.3c-0.9-0.9-1.3-2.1-1.3-3.5
	c0-1.6,0.4-2.8,1.3-3.6c0.9-0.9,2.1-1.3,3.5-1.3c1.5,0,2.6,0.5,3.5,1.3c0.9,0.9,1.3,2.1,1.3,3.6S139.116,26.8,138.316,27.7"/>
<polygon fill="#FFFFFF" points="163.716,23.5 163.716,40.3 155.416,40.3 155.416,1.2 
	163.716,1.2 163.716,16.1 172.116,16.1 172.116,23.5 "/>
<polygon fill="#FFFFFF" points="213.315,58.3 213.315,45.2 184.516,45.2 184.516,37.8 
	221.716,37.8 221.716,58.3 "/>
<path fill="#FFFFFF" d="M207.616,27.8v-3.2c2.899-0.5,5.399-1.5,7.5-3
	c3.1-2.3,4.6-5.1,4.6-8.7s-1.5-6.5-4.6-8.7c-3.101-2.2-7.101-3.3-11.9-3.3s-8.7,1.1-11.8,3.3c-3.101,2.2-4.601,5.1-4.601,8.7
	s1.5,6.5,4.601,8.7c2.2,1.6,4.8,2.6,7.8,3.1v3.2h-23.4v7.4h55.2v-7.4L207.616,27.8z M197.616,16.5c-1.601-0.9-2.4-2.1-2.4-3.5
	s0.8-2.6,2.4-3.5c1.6-0.9,3.399-1.3,5.6-1.3c2.3,0,4.2,0.4,5.8,1.3c1.601,0.9,2.4,2.1,2.4,3.5s-0.8,2.6-2.4,3.5
	c-1.6,0.9-3.5,1.3-5.8,1.3C201.116,17.8,199.216,17.4,197.616,16.5"/>
<path fill="#FFFFFF" d="M238.816,41.9h26.8V6.2h-26.8V41.9z M257.116,34.4h-10V13.6h10
	V34.4z"/>
<polygon fill="#FFFFFF" points="280.916,29.4 280.916,59.5 272.516,59.5 272.516,1.2 
	280.916,1.2 280.916,21.9 289.916,21.9 289.916,29.4 "/>
<rect x="293.616" y="25.1" fill="#FFFFFF" width="55.2" height="7.4"/>
<polygon fill="#FFFFFF" points="338.315,50 312.516,50 312.516,52.4 338.916,52.4 
	338.916,58.9 304.216,58.9 304.216,43.5 329.916,43.5 329.916,41.2 304.216,41.2 304.216,34.7 338.315,34.7 "/>
<path fill="#FFFFFF" d="M333.016,4c-3.1-2-7.1-3-11.899-3c-4.7,0-8.601,1-11.7,3
	c-3.101,2-4.601,4.7-4.601,8.2c0,3.4,1.5,6.2,4.601,8.2c3,2,6.899,3,11.7,3c4.899,0,8.8-1,11.899-3c3.101-2,4.601-4.8,4.601-8.2
	C337.616,8.7,336.016,6,333.016,4 M326.815,15.3c-1.6,0.8-3.5,1.1-5.8,1.1c-2.1,0-4-0.4-5.6-1.1c-1.601-0.7-2.4-1.7-2.4-3.1
	c0-1.3,0.8-2.4,2.4-3.1c1.6-0.7,3.5-1.1,5.6-1.1c2.3,0,4.2,0.4,5.8,1.1c1.601,0.7,2.4,1.7,2.4,3.1
	C329.216,13.6,328.416,14.5,326.815,15.3"/>
</svg>
