<?xml version="1.0" encoding="utf-8"?>
<!-- Generator: Adobe Illustrator 16.0.0, SVG Export Plug-In . SVG Version: 6.00 Build 0)  -->
<!DOCTYPE svg PUBLIC "-//W3C//DTD SVG 1.1//EN" "http://www.w3.org/Graphics/SVG/1.1/DTD/svg11.dtd">
<svg version="1.1" id="레이어_1" xmlns="http://www.w3.org/2000/svg" xmlns:xlink="http://www.w3.org/1999/xlink" x="0px"
	 y="0px" width="350px" height="60px" viewBox="0 0 350 60" enable-background="new 0 0 350 60" xml:space="preserve">
<path fill="#FFFFFF" d="M34.105,41.768h26.784V6.117H34.105V41.768z M42.475,13.558h10.044
	v20.77H42.475V13.558z"/>
<polygon fill="#FFFFFF" points="76.265,1.157 67.895,1.157 67.895,59.438 76.265,59.438 
	76.265,29.305 85.255,29.305 85.255,21.865 76.265,21.865 "/>
<path fill="#FFFFFF" d="M106.707,6.117c-4.712,0-8.639,1.685-11.78,5.053
	c-3.142,3.369-4.712,7.431-4.712,12.184c0,4.712,1.57,8.751,4.712,12.121c3.141,3.369,7.068,5.053,11.78,5.053
	s8.639-1.684,11.78-5.053c3.141-3.369,4.712-7.409,4.712-12.121c0-4.753-1.571-8.814-4.712-12.184
	C115.345,7.802,111.419,6.117,106.707,6.117z M112.535,30.297c-1.53,1.86-3.452,2.79-5.766,2.79c-2.356,0-4.309-0.93-5.859-2.79
	c-1.55-1.859-2.325-4.174-2.325-6.943c0-2.853,0.775-5.197,2.325-7.037c1.55-1.839,3.503-2.759,5.859-2.759
	c2.314,0,4.236,0.92,5.766,2.759c1.529,1.84,2.294,4.185,2.294,7.037C114.829,26.123,114.063,28.438,112.535,30.297z"/>
<rect x="129.275" y="1.157" fill="#FFFFFF" width="8.37" height="58.28"/>
<path fill="#FFFFFF" d="M179.682,30.248v-2.479c2.354-0.454,4.483-1.322,6.385-2.604
	c2.977-1.983,4.465-4.607,4.465-7.874c0-2.714-1.014-4.981-3.006-6.819h7.471V4.333H179.62V0.86h-8.371v3.473h-15.314v6.138h7.53
	c-1.992,1.838-3.004,4.105-3.004,6.819c0,3.267,1.467,5.891,4.402,7.874c1.9,1.282,4.05,2.15,6.448,2.604v2.479h-23.436v6.511h55.18
	v-6.511L179.682,30.248L179.682,30.248z M171,20.7c-1.24-0.826-1.86-1.962-1.86-3.41c0-1.487,0.62-2.655,1.86-3.503
	c1.24-0.847,2.728-1.271,4.464-1.271c1.776,0,3.285,0.424,4.526,1.271c1.238,0.848,1.859,2.016,1.859,3.503
	c0,1.448-0.621,2.584-1.859,3.41c-1.241,0.828-2.75,1.24-4.526,1.24C173.729,21.94,172.241,21.528,171,20.7z"/>
<path fill="#FFFFFF" d="M157.175,59.141h36.58v-19.84h-36.58V59.141z M165.544,46.74h19.84
	v4.96h-19.84V46.74z"/>
<g>
	<g>
		<path fill="#FFFFFF" d="M235.17,59.82c-2.122,0-4.152-0.312-6.035-0.925c-1.889-0.615-3.558-1.514-4.962-2.67
			c-1.447-1.157-2.604-2.597-3.431-4.273c-0.831-1.681-1.252-3.583-1.252-5.652c0-2.107,0.421-4.038,1.251-5.739
			c0.827-1.697,1.983-3.147,3.437-4.312c1.397-1.149,3.066-2.048,4.957-2.665c1.881-0.613,3.911-0.924,6.035-0.924
			c2.162,0,4.224,0.321,6.128,0.955c1.905,0.637,3.603,1.543,5.045,2.694c1.453,1.205,2.607,2.663,3.436,4.339
			c0.831,1.683,1.252,3.584,1.252,5.651c0,2.03-0.422,3.901-1.253,5.563c-0.827,1.652-1.958,3.098-3.362,4.297
			c-1.454,1.162-3.162,2.068-5.089,2.704C239.402,59.499,237.331,59.82,235.17,59.82z M235.23,40.08
			c-1.062,0-2.069,0.153-2.995,0.455c-0.922,0.302-1.729,0.719-2.398,1.239c-0.695,0.55-1.245,1.22-1.63,1.989
			c-0.383,0.766-0.577,1.619-0.577,2.536c0,0.951,0.201,1.799,0.598,2.519c0.404,0.736,0.967,1.392,1.673,1.949
			c0.664,0.518,1.468,0.924,2.386,1.204c0.93,0.284,1.92,0.429,2.944,0.429c1.063,0,2.073-0.145,3.003-0.429
			c0.922-0.281,1.749-0.69,2.46-1.214c0.644-0.538,1.178-1.194,1.564-1.931c0.38-0.723,0.572-1.573,0.572-2.527
			c0-0.955-0.193-1.817-0.575-2.563c-0.387-0.754-0.92-1.419-1.585-1.974c-0.656-0.509-1.473-0.926-2.413-1.229
			C237.311,40.233,236.292,40.08,235.23,40.08z M243.73,32.94V26.4h-7.479l-0.021-0.479c-0.041-1.003-0.07-1.987-0.091-2.95
			c-0.014-0.652-0.032-1.313-0.055-1.984c-0.165,0.572-0.368,1.128-0.608,1.667c-0.764,1.713-1.822,3.21-3.145,4.451
			c-1.318,1.276-2.898,2.281-4.69,2.981c-1.787,0.699-3.716,1.054-5.731,1.054c-2.057,0-3.996-0.354-5.764-1.055
			c-1.771-0.699-3.339-1.682-4.658-2.92c-1.361-1.237-2.441-2.736-3.205-4.451c-0.765-1.713-1.153-3.629-1.153-5.694
			c0-2.023,0.389-3.919,1.153-5.633c0.765-1.715,1.845-3.215,3.211-4.457c1.313-1.232,2.88-2.214,4.652-2.914
			c1.771-0.701,3.711-1.056,5.764-1.056c2.013,0,3.943,0.365,5.736,1.086c1.787,0.719,3.364,1.711,4.686,2.95
			c1.322,1.239,2.38,2.736,3.145,4.451c0.183,0.411,0.344,0.83,0.484,1.258c-0.021-0.712-0.031-1.414-0.031-2.105
			c0-0.954-0.021-1.927-0.06-2.92l-0.02-0.52h7.88V1.82h8.199v31.12H243.73z M221.97,10.32c-0.932,0-1.816,0.169-2.63,0.502
			c-0.813,0.332-1.525,0.8-2.116,1.391c-0.588,0.587-1.057,1.299-1.391,2.115c-0.334,0.815-0.503,1.721-0.503,2.69
			c0,1.012,0.169,1.937,0.503,2.751c0.334,0.816,0.802,1.528,1.391,2.116c0.591,0.591,1.294,1.06,2.09,1.393
			c0.795,0.333,1.688,0.501,2.656,0.501c0.887,0,1.729-0.168,2.504-0.5c0.777-0.334,1.471-0.803,2.063-1.394
			c0.591-0.591,1.07-1.306,1.425-2.125c0.352-0.812,0.529-1.735,0.529-2.742c0-0.965-0.178-1.867-0.529-2.682
			c-0.354-0.818-0.834-1.533-1.425-2.124c-0.593-0.593-1.287-1.062-2.063-1.394C223.7,10.488,222.858,10.32,221.97,10.32z
			 M243.73,19.52V14.04h-7.41c0.206,0.96,0.31,1.956,0.31,2.979c0,0.857-0.069,1.692-0.208,2.5H243.73z"/>
		<path fill="#FFFFFF" d="M251.43,2.32v30.12h-7.199V25.9h-7.5c-0.041-1-0.07-1.98-0.091-2.94s-0.05-1.939-0.09-2.94h7.681V13.54
			h-7.74c-0.041-0.999-0.061-1.98-0.061-2.94s-0.021-1.939-0.06-2.939h7.86V2.32H251.43 M221.91,3.46c1.959,0,3.81,0.351,5.55,1.05
			c1.74,0.7,3.249,1.65,4.53,2.851c1.279,1.199,2.289,2.63,3.029,4.29s1.11,3.449,1.11,5.369c0,1.961-0.37,3.771-1.11,5.431
			c-0.74,1.66-1.75,3.09-3.029,4.29c-1.281,1.24-2.79,2.2-4.53,2.88c-1.74,0.681-3.591,1.02-5.55,1.02
			c-2.001,0-3.86-0.339-5.58-1.02c-1.721-0.68-3.221-1.62-4.5-2.82c-1.32-1.2-2.351-2.63-3.09-4.29
			c-0.741-1.659-1.11-3.489-1.11-5.49c0-1.959,0.369-3.77,1.11-5.43c0.739-1.659,1.77-3.09,3.09-4.29
			c1.279-1.2,2.779-2.14,4.5-2.819C218.05,3.801,219.909,3.46,221.91,3.46 M221.97,24.28c0.96,0,1.86-0.181,2.7-0.54
			c0.84-0.36,1.58-0.86,2.22-1.5s1.149-1.4,1.53-2.28c0.38-0.879,0.57-1.86,0.57-2.94c0-1.039-0.19-1.999-0.57-2.88
			c-0.381-0.879-0.891-1.64-1.53-2.279s-1.38-1.141-2.22-1.5c-0.84-0.36-1.74-0.54-2.7-0.54c-1,0-1.94,0.18-2.819,0.54
			c-0.881,0.359-1.641,0.86-2.28,1.5c-0.641,0.64-1.14,1.4-1.5,2.279c-0.36,0.881-0.54,1.841-0.54,2.88c0,1.08,0.18,2.062,0.54,2.94
			c0.36,0.88,0.859,1.641,1.5,2.28c0.64,0.64,1.39,1.14,2.25,1.5C219.979,24.1,220.93,24.28,221.97,24.28 M235.17,33.16
			c2.12,0,4.11,0.311,5.97,0.93c1.86,0.621,3.489,1.491,4.891,2.61c1.399,1.16,2.499,2.55,3.3,4.17c0.8,1.62,1.2,3.431,1.2,5.43
			c0,1.961-0.4,3.741-1.2,5.34c-0.801,1.6-1.881,2.979-3.24,4.141c-1.4,1.119-3.04,1.989-4.92,2.609c-1.881,0.62-3.88,0.931-6,0.931
			c-2.08,0-4.041-0.301-5.88-0.9c-1.841-0.6-3.44-1.461-4.8-2.58c-1.4-1.12-2.501-2.49-3.3-4.109c-0.801-1.62-1.2-3.43-1.2-5.431
			c0-2.04,0.399-3.879,1.2-5.52c0.799-1.64,1.899-3.02,3.3-4.141c1.359-1.119,2.959-1.979,4.8-2.58
			C231.129,33.46,233.09,33.16,235.17,33.16 M235.23,52.9c1.119,0,2.169-0.15,3.149-0.45c0.979-0.3,1.85-0.729,2.61-1.29
			c0.72-0.601,1.29-1.3,1.71-2.101c0.42-0.799,0.63-1.719,0.63-2.76c0-1.039-0.21-1.97-0.63-2.79c-0.42-0.819-0.99-1.529-1.71-2.13
			c-0.721-0.56-1.581-0.999-2.58-1.32c-1-0.319-2.061-0.479-3.18-0.479c-1.121,0-2.171,0.16-3.15,0.479
			c-0.98,0.321-1.83,0.761-2.55,1.32c-0.761,0.601-1.351,1.32-1.771,2.16s-0.63,1.761-0.63,2.76c0,1.041,0.22,1.961,0.66,2.76
			c0.439,0.801,1.04,1.5,1.8,2.101c0.72,0.561,1.569,0.99,2.55,1.29S234.15,52.9,235.23,52.9 M252.43,1.32h-1h-7.199h-1v1v4.34
			h-6.86h-1.04l0.041,1.039c0.033,0.863,0.053,1.708,0.058,2.519c-0.731-1.353-1.654-2.556-2.755-3.587
			c-1.367-1.281-2.995-2.307-4.841-3.049c-1.853-0.745-3.846-1.122-5.923-1.122c-2.115,0-4.117,0.367-5.947,1.09
			c-1.831,0.723-3.452,1.74-4.817,3.02c-1.405,1.278-2.526,2.833-3.318,4.612c-0.794,1.779-1.197,3.743-1.197,5.837
			c0,2.135,0.403,4.12,1.197,5.898c0.792,1.778,1.912,3.333,3.33,4.622c1.354,1.271,2.976,2.288,4.806,3.01
			c1.826,0.724,3.827,1.09,5.947,1.09c2.078,0,4.068-0.366,5.914-1.088c1.854-0.725,3.489-1.765,4.861-3.093
			c1.205-1.13,2.203-2.478,2.965-4.004c0.02,0.814,0.047,1.644,0.081,2.486l0.039,0.959h0.96h6.5v5.54v1h1h7.199h1v-1V2.32V1.32
			L252.43,1.32z M221.97,23.28c-0.9,0-1.729-0.156-2.464-0.462c-0.735-0.308-1.385-0.74-1.929-1.285
			c-0.541-0.541-0.973-1.197-1.281-1.952c-0.31-0.753-0.466-1.615-0.466-2.562c0-0.904,0.156-1.746,0.466-2.501
			c0.309-0.753,0.74-1.41,1.28-1.95c0.545-0.544,1.201-0.976,1.952-1.282c0.755-0.309,1.575-0.466,2.441-0.466
			c0.82,0,1.596,0.154,2.306,0.459c0.719,0.307,1.359,0.741,1.907,1.288c0.546,0.546,0.99,1.209,1.319,1.97
			c0.324,0.75,0.488,1.586,0.488,2.482c0,0.938-0.164,1.794-0.488,2.544c-0.329,0.761-0.773,1.423-1.319,1.97
			c-0.546,0.546-1.188,0.979-1.907,1.288C223.564,23.125,222.788,23.28,221.97,23.28L221.97,23.28z M236.925,14.54h6.306v4.479
			h-6.229c0.085-0.652,0.128-1.319,0.128-2C237.13,16.173,237.062,15.346,236.925,14.54L236.925,14.54z M235.17,32.16
			c-2.177,0-4.26,0.319-6.189,0.948c-1.951,0.637-3.675,1.564-5.126,2.759c-1.501,1.202-2.703,2.71-3.563,4.475
			c-0.863,1.77-1.301,3.773-1.301,5.958c0,2.147,0.438,4.124,1.304,5.874c0.86,1.743,2.062,3.239,3.571,4.447
			c1.442,1.187,3.167,2.115,5.115,2.75c1.932,0.63,4.015,0.949,6.189,0.949c2.215,0,4.339-0.33,6.313-0.98
			c1.983-0.654,3.743-1.589,5.23-2.778c1.481-1.264,2.653-2.763,3.511-4.475c0.866-1.731,1.306-3.679,1.306-5.787
			c0-2.145-0.438-4.12-1.304-5.872c-0.859-1.74-2.057-3.253-3.558-4.497c-1.503-1.2-3.251-2.135-5.213-2.789
			C239.501,32.49,237.386,32.16,235.17,32.16L235.17,32.16z M235.23,51.9c-0.975,0-1.916-0.137-2.799-0.406
			c-0.858-0.263-1.608-0.641-2.228-1.123c-0.646-0.512-1.166-1.116-1.537-1.793c-0.362-0.655-0.537-1.4-0.537-2.278
			c0-0.839,0.177-1.617,0.524-2.313c0.356-0.714,0.846-1.31,1.496-1.822c0.618-0.48,1.374-0.871,2.241-1.155
			c0.874-0.285,1.83-0.43,2.839-0.43c1.01,0,1.978,0.146,2.875,0.432c0.884,0.284,1.648,0.674,2.271,1.158
			c0.586,0.489,1.077,1.102,1.434,1.796c0.345,0.674,0.52,1.459,0.52,2.334c0,0.872-0.173,1.645-0.515,2.295
			c-0.352,0.67-0.837,1.268-1.442,1.778c-0.66,0.481-1.429,0.858-2.286,1.121C237.205,51.764,236.244,51.9,235.23,51.9L235.23,51.9z
			"/>
	</g>
	<g>
		<path fill="#FFFFFF" d="M289.89,59.82c-2.12,0-4.16-0.312-6.063-0.925c-1.91-0.615-3.59-1.514-4.994-2.67
			c-1.449-1.199-2.603-2.646-3.431-4.302c-0.831-1.661-1.252-3.554-1.252-5.624c0-2.108,0.421-4.03,1.251-5.712
			c0.827-1.675,1.981-3.133,3.43-4.333c1.404-1.155,3.084-2.054,4.996-2.671c1.9-0.613,3.94-0.924,6.063-0.924
			c2.162,0,4.224,0.321,6.129,0.955c1.907,0.638,3.604,1.544,5.044,2.694c1.453,1.205,2.607,2.663,3.436,4.339
			c0.831,1.683,1.252,3.584,1.252,5.651c0,2.03-0.422,3.901-1.253,5.563c-0.827,1.652-1.958,3.098-3.362,4.297
			c-1.454,1.162-3.162,2.068-5.089,2.704C294.124,59.499,292.052,59.82,289.89,59.82z M289.95,40.08
			c-1.062,0-2.069,0.153-2.995,0.455c-0.922,0.302-1.729,0.719-2.398,1.239c-0.695,0.55-1.245,1.211-1.631,1.964
			c-0.383,0.744-0.576,1.606-0.576,2.562c0,0.956,0.193,1.818,0.575,2.562c0.384,0.749,0.929,1.387,1.621,1.896
			c0.679,0.527,1.482,0.934,2.4,1.214c0.929,0.284,1.939,0.429,3.004,0.429c1.059,0,2.065-0.153,2.994-0.456
			c0.925-0.302,1.756-0.722,2.469-1.247c0.649-0.505,1.178-1.145,1.562-1.895c0.382-0.745,0.575-1.587,0.575-2.503
			c0-0.915-0.193-1.757-0.575-2.502c-0.388-0.756-0.921-1.42-1.585-1.974c-0.698-0.551-1.524-0.987-2.445-1.289
			C292.018,40.233,291.011,40.08,289.95,40.08z M264.996,32.434c-0.799-0.798-1.597-1.587-2.396-2.366
			c-0.802-0.782-1.604-1.572-2.404-2.375l-0.471-0.471l0.583-0.321c2.355-1.296,4.395-2.707,6.059-4.194
			c1.661-1.486,3.036-3.029,4.089-4.587c1.045-1.548,1.821-3.139,2.306-4.727c0.483-1.587,0.729-3.174,0.729-4.714V3.14h8.439v5.54
			c0,1.542,0.244,3.096,0.727,4.62c0.481,1.52,1.272,3.014,2.353,4.439c1.057,1.447,2.43,2.859,4.087,4.204
			c1.661,1.35,3.697,2.61,6.052,3.748l0.634,0.306l-0.498,0.498c-0.804,0.804-1.616,1.597-2.438,2.379
			c-0.817,0.777-1.624,1.564-2.421,2.361l-0.246,0.246l-0.315-0.146c-2.913-1.335-5.457-2.936-7.56-4.756
			c-1.847-1.597-3.34-3.357-4.449-5.243c-1.084,2.046-2.588,3.983-4.48,5.769c-2.144,2.021-4.766,3.845-7.793,5.419l-0.325,0.169
			L264.996,32.434z M298.03,32.46V1.82h8.2V13.64h8.399V21h-8.399v11.46H298.03z"/>
		<path fill="#FFFFFF" d="M305.73,2.32V14.14h8.399v6.36h-8.399v11.46h-7.2V2.32H305.73 M281.43,3.64v5.04
			c0,1.601,0.25,3.19,0.75,4.771s1.31,3.11,2.431,4.59c1.08,1.48,2.469,2.91,4.17,4.29c1.699,1.38,3.75,2.65,6.149,3.81
			c-0.801,0.801-1.61,1.591-2.43,2.37c-0.82,0.78-1.63,1.57-2.43,2.37c-2.88-1.32-5.361-2.88-7.44-4.68
			c-2.08-1.8-3.681-3.78-4.8-5.94c-1.08,2.32-2.681,4.48-4.8,6.48c-2.121,2-4.681,3.779-7.681,5.34c-0.8-0.8-1.6-1.59-2.399-2.37
			c-0.801-0.78-1.601-1.569-2.4-2.37c2.4-1.32,4.449-2.739,6.15-4.26c1.699-1.52,3.09-3.08,4.17-4.68s1.869-3.22,2.37-4.86
			c0.499-1.64,0.75-3.26,0.75-4.86V3.64H281.43 M289.89,33.16c2.12,0,4.11,0.311,5.971,0.93c1.859,0.621,3.489,1.491,4.89,2.61
			c1.399,1.16,2.499,2.55,3.3,4.17c0.8,1.62,1.2,3.431,1.2,5.43c0,1.961-0.4,3.741-1.2,5.34c-0.801,1.6-1.881,2.979-3.24,4.141
			c-1.4,1.119-3.04,1.989-4.92,2.609s-3.88,0.931-6,0.931c-2.08,0-4.05-0.301-5.909-0.9c-1.86-0.6-3.471-1.461-4.83-2.58
			c-1.401-1.16-2.501-2.54-3.301-4.14s-1.199-3.399-1.199-5.4c0-2.04,0.399-3.87,1.199-5.49c0.8-1.619,1.899-3.009,3.301-4.17
			c1.359-1.119,2.97-1.979,4.83-2.58C285.84,33.46,287.81,33.16,289.89,33.16 M289.95,52.9c1.119,0,2.169-0.161,3.149-0.48
			c0.98-0.32,1.85-0.76,2.61-1.32c0.72-0.56,1.29-1.249,1.71-2.069c0.42-0.819,0.63-1.729,0.63-2.73c0-0.999-0.21-1.909-0.63-2.729
			c-0.42-0.819-0.99-1.53-1.71-2.13c-0.761-0.601-1.63-1.06-2.61-1.381c-0.98-0.319-2.03-0.479-3.149-0.479
			c-1.12,0-2.171,0.16-3.15,0.479c-0.98,0.321-1.83,0.761-2.55,1.32c-0.761,0.601-1.35,1.311-1.77,2.13
			c-0.421,0.82-0.631,1.751-0.631,2.79c0,1.041,0.21,1.971,0.631,2.79c0.42,0.82,1.009,1.511,1.77,2.07
			c0.72,0.561,1.569,0.99,2.55,1.29C287.779,52.75,288.83,52.9,289.95,52.9 M306.73,1.32h-1h-7.2h-1v1v29.64v1h1h7.2h1v-1V21.5
			h7.399h1v-1v-6.36v-1h-1h-7.399V2.32V1.32L306.73,1.32z M282.43,2.64h-1h-7.439h-1v1v5.04c0,1.491-0.237,3.028-0.707,4.569
			c-0.47,1.54-1.225,3.084-2.242,4.592c-1.028,1.524-2.377,3.036-4.008,4.494c-1.636,1.462-3.643,2.852-5.965,4.129l-1.166,0.641
			l0.939,0.941c0.804,0.804,1.606,1.596,2.41,2.38c0.797,0.777,1.594,1.564,2.391,2.361l0.519,0.519l0.65-0.339
			c3.067-1.596,5.728-3.446,7.905-5.499c1.699-1.604,3.093-3.33,4.159-5.147c1.079,1.657,2.452,3.211,4.1,4.636
			c2.139,1.851,4.722,3.477,7.678,4.833l0.633,0.29l0.491-0.492c0.797-0.797,1.608-1.588,2.412-2.353
			c0.814-0.775,1.638-1.578,2.447-2.388l0.995-0.995l-1.268-0.612c-2.318-1.12-4.321-2.36-5.954-3.686
			c-1.623-1.317-2.967-2.698-3.992-4.103c-1.056-1.394-1.821-2.837-2.285-4.302c-0.467-1.475-0.703-2.979-0.703-4.469V3.64V2.64
			L282.43,2.64z M289.89,32.16c-2.175,0-4.267,0.318-6.216,0.947c-1.973,0.637-3.708,1.565-5.159,2.76
			c-1.505,1.248-2.703,2.761-3.562,4.5c-0.864,1.75-1.303,3.746-1.303,5.933c0,2.148,0.439,4.116,1.305,5.848
			c0.859,1.718,2.056,3.22,3.558,4.463c1.455,1.198,3.19,2.126,5.161,2.762c1.952,0.629,4.043,0.948,6.216,0.948
			c2.216,0,4.34-0.33,6.313-0.981c1.982-0.653,3.743-1.588,5.23-2.777c1.481-1.264,2.653-2.763,3.511-4.475
			c0.866-1.731,1.306-3.679,1.306-5.787c0-2.145-0.438-4.12-1.304-5.872c-0.859-1.74-2.057-3.253-3.558-4.497
			c-1.5-1.199-3.249-2.134-5.212-2.789C294.221,32.49,292.105,32.16,289.89,32.16L289.89,32.16z M289.95,51.9
			c-1.016,0-1.977-0.137-2.857-0.406c-0.859-0.263-1.609-0.641-2.229-1.123c-0.66-0.486-1.142-1.049-1.493-1.737
			c-0.347-0.673-0.521-1.458-0.521-2.334c0-0.875,0.175-1.66,0.521-2.334c0.353-0.688,0.857-1.294,1.499-1.801
			c0.619-0.48,1.375-0.871,2.242-1.155c0.874-0.285,1.83-0.43,2.839-0.43c1.008,0,1.963,0.145,2.84,0.431
			c0.863,0.282,1.638,0.691,2.3,1.215c0.592,0.493,1.083,1.104,1.44,1.801c0.345,0.674,0.52,1.438,0.52,2.273
			c0,0.848-0.17,1.592-0.52,2.274c-0.351,0.685-0.833,1.269-1.435,1.736c-0.649,0.478-1.433,0.873-2.307,1.159
			C291.911,51.755,290.956,51.9,289.95,51.9L289.95,51.9z"/>
	</g>
</g>
</svg>
