<?xml version="1.0" encoding="utf-8"?>
<!-- Generator: Adobe Illustrator 16.0.0, SVG Export Plug-In . SVG Version: 6.00 Build 0)  -->
<!DOCTYPE svg PUBLIC "-//W3C//DTD SVG 1.1//EN" "http://www.w3.org/Graphics/SVG/1.1/DTD/svg11.dtd">
<svg version="1.1" id="레이어_1" xmlns="http://www.w3.org/2000/svg" xmlns:xlink="http://www.w3.org/1999/xlink" x="0px"
	 y="0px" width="350px" height="60px" viewBox="0 0 350 60" enable-background="new 0 0 350 60" xml:space="preserve">
<path fill="#FFFFFF" d="M34.105,41.768h26.784V6.117H34.105V41.768z M42.475,13.558h10.044
	v20.77H42.475V13.558z"/>
<polygon fill="#FFFFFF" points="76.265,1.157 67.895,1.157 67.895,59.438 76.265,59.438 
	76.265,29.305 85.255,29.305 85.255,21.865 76.265,21.865 "/>
<path fill="#FFFFFF" d="M106.707,6.117c-4.712,0-8.639,1.685-11.78,5.053
	c-3.142,3.369-4.712,7.431-4.712,12.184c0,4.712,1.57,8.752,4.712,12.121c3.141,3.369,7.068,5.053,11.78,5.053
	c4.712,0,8.639-1.684,11.78-5.053c3.141-3.369,4.712-7.409,4.712-12.121c0-4.753-1.571-8.814-4.712-12.184
	C115.345,7.802,111.419,6.117,106.707,6.117z M112.535,30.297c-1.53,1.86-3.452,2.79-5.766,2.79c-2.356,0-4.309-0.93-5.859-2.79
	c-1.55-1.859-2.325-4.174-2.325-6.943c0-2.853,0.775-5.197,2.325-7.037c1.55-1.839,3.503-2.759,5.859-2.759
	c2.314,0,4.236,0.92,5.766,2.759c1.529,1.84,2.294,4.185,2.294,7.037C114.829,26.123,114.063,28.438,112.535,30.297z"/>
<rect x="129.275" y="1.157" fill="#FFFFFF" width="8.37" height="58.28"/>
<path fill="#FFFFFF" d="M179.681,30.248v-2.479c2.355-0.454,4.484-1.322,6.386-2.604
	c2.976-1.983,4.464-4.607,4.464-7.874c0-2.714-1.014-4.981-3.005-6.819h7.47V4.333h-15.376V0.86h-8.371v3.473h-15.314v6.138h7.53
	c-1.992,1.838-3.004,4.105-3.004,6.819c0,3.267,1.467,5.891,4.402,7.874c1.9,1.282,4.05,2.15,6.448,2.604v2.479h-23.436v6.511h55.18
	v-6.511H179.681z M171,20.7c-1.24-0.826-1.86-1.962-1.86-3.41c0-1.487,0.62-2.655,1.86-3.503c1.24-0.847,2.728-1.271,4.464-1.271
	c1.776,0,3.285,0.424,4.526,1.271c1.239,0.848,1.859,2.016,1.859,3.503c0,1.448-0.62,2.584-1.859,3.41
	c-1.241,0.828-2.75,1.24-4.526,1.24C173.729,21.94,172.241,21.528,171,20.7z"/>
<path fill="#FFFFFF" d="M157.175,59.141h36.58v-19.84h-36.58V59.141z M165.544,46.74h19.84
	v4.96h-19.84V46.74z"/>
<polygon fill="#FFFFFF" points="238.58,36.076 255.754,36.076 255.754,28.637 
	247.694,28.637 248.314,15.12 239.944,15.12 239.324,28.637 229.404,28.637 228.784,15.12 220.414,15.12 221.034,28.637 
	212.974,28.637 212.974,36.076 230.21,36.076 230.21,45.5 207.271,45.5 207.271,52.94 261.458,52.94 261.458,45.5 238.58,45.5 "/>
<rect x="214.214" y="5.82" fill="#FFFFFF" width="40.3" height="7.44"/>
<path fill="#FFFFFF" d="M301.139,22.25c-7.275,0.91-14.344,1.364-21.204,1.364v-3.41
	h15.313v-6.819h-15.313v-2.914h16.864V3.65h-25.234v26.784c12.688,0,22.774-0.475,30.256-1.426L301.139,22.25z"/>
<polygon fill="#FFFFFF" points="287.374,51.7 287.374,49.097 315.274,49.097 
	315.274,33.101 279.005,33.101 279.005,39.92 306.904,39.92 306.904,42.276 279.005,42.276 279.005,58.521 315.895,58.521 
	315.895,51.7 "/>
<polygon fill="#FFFFFF" points="306.904,30.62 315.274,30.62 315.274,1.48 306.904,1.48 
	306.904,12.145 299.154,12.145 299.154,18.965 306.904,18.965 "/>
</svg>
