<?xml version="1.0" encoding="utf-8"?>
<!-- Generator: Adobe Illustrator 16.0.0, SVG Export Plug-In . SVG Version: 6.00 Build 0)  -->
<!DOCTYPE svg PUBLIC "-//W3C//DTD SVG 1.1//EN" "http://www.w3.org/Graphics/SVG/1.1/DTD/svg11.dtd">
<svg version="1.1" id="레이어_1" xmlns="http://www.w3.org/2000/svg" xmlns:xlink="http://www.w3.org/1999/xlink" x="0px"
	 y="0px" width="350px" height="60px" viewBox="0 0 350 60" enable-background="new 0 0 350 60" xml:space="preserve">
<polygon fill="#FFFFFF" points="68.763,22.56 53.945,22.56 53.945,26.9 77.319,26.9 
	77.319,34.339 22.139,34.339 22.139,26.9 45.575,26.9 45.575,22.56 30.819,22.56 30.819,2.41 68.143,2.41 68.143,9.85 39.189,9.85 
	39.189,15.12 68.763,15.12 "/>
<polygon fill="#FFFFFF" points="59.029,57.899 59.029,45.499 30.819,45.499 30.819,38.06 
	67.399,38.06 67.399,57.899 "/>
<polygon fill="#FFFFFF" points="128.283,34.03 112.845,34.03 112.845,44.88 135.723,44.88 
	135.723,52.319 81.535,52.319 81.535,44.88 104.475,44.88 104.475,34.03 89.099,34.03 89.099,5.2 127.663,5.2 127.663,12.64 
	97.469,12.64 97.469,26.589 128.283,26.589 "/>
<path fill="#FFFFFF" d="M151.161,49.034c0,1.943-0.476,3.771-1.426,5.486
	c-0.951,1.715-2.625,2.965-5.022,3.752c-0.496,0.164-1.002,0.217-1.519,0.154c-0.518-0.063-0.879-0.258-1.085-0.59
	c-0.124-0.371-0.072-0.66,0.155-0.867c0.227-0.207,0.465-0.371,0.713-0.496c0.868-0.371,1.519-0.93,1.953-1.674
	s0.485-1.385,0.155-1.922c-1.158-0.207-2.087-0.734-2.79-1.582c-0.703-0.846-1.054-1.807-1.054-2.883
	c0-1.279,0.475-2.365,1.426-3.254c0.951-0.889,2.128-1.334,3.534-1.334c0.868,0,1.622,0.156,2.263,0.465
	c0.641,0.311,1.167,0.713,1.581,1.209c0.372,0.496,0.651,1.055,0.837,1.674C151.068,47.794,151.161,48.413,151.161,49.034z"/>
<path fill="#FFFFFF" d="M179.867,42.399c-4.176-4.422-7.172-8.617-8.991-12.585
	c-1.777,4.134-4.774,8.535-8.99,13.207l-5.332-5.457c4.422-4.547,7.274-8.813,8.556-12.802c1.28-3.989,1.922-7.822,1.922-11.501
	h-8.122V5.82h23.932v7.44h-8.122c0,3.679,0.64,7.461,1.922,11.346c1.281,3.886,4.133,7.999,8.557,12.338L179.867,42.399z"/>
<polygon fill="#FFFFFF" points="179.867,18.034 186.996,18.034 186.996,2.1 194.746,2.1 
	194.746,57.28 186.996,57.28 186.996,25.474 179.867,25.474 "/>
<rect x="198.467" y="0.86" fill="#FFFFFF" width="7.75" height="58.28"/>
<polygon fill="#FFFFFF" points="237.216,59.14 237.216,40.229 214.772,40.229 
	214.772,32.79 268.96,32.79 268.96,40.229 245.896,40.229 245.896,59.14 "/>
<path fill="#FFFFFF" d="M260.962,28.14c-9.548-2.273-15.913-6.303-19.096-12.091
	c-3.266,5.788-9.632,9.817-19.097,12.091l-4.401-6.076c6.53-1.364,11.346-3.72,14.446-7.068c1.404-1.528,2.479-3.038,3.224-4.525
	h-14.322V3.03h40.3v7.44h-14.384c0.785,1.487,1.86,2.997,3.225,4.525c3.141,3.349,7.956,5.704,14.445,7.068L260.962,28.14z"/>
<polygon fill="#FFFFFF" points="320.42,34.03 304.982,34.03 304.982,44.88 327.86,44.88 
	327.86,52.319 273.673,52.319 273.673,44.88 296.612,44.88 296.612,34.03 281.236,34.03 281.236,5.2 319.801,5.2 319.801,12.64 
	289.606,12.64 289.606,26.589 320.42,26.589 "/>
</svg>
