<?xml version="1.0" encoding="utf-8"?>
<!-- Generator: Adobe Illustrator 16.0.0, SVG Export Plug-In . SVG Version: 6.00 Build 0)  -->
<!DOCTYPE svg PUBLIC "-//W3C//DTD SVG 1.1//EN" "http://www.w3.org/Graphics/SVG/1.1/DTD/svg11.dtd">
<svg version="1.1" id="레이어_1" xmlns="http://www.w3.org/2000/svg" xmlns:xlink="http://www.w3.org/1999/xlink" x="0px"
	 y="0px" width="350px" height="60px" viewBox="0 0 350 60" enable-background="new 0 0 350 60" xml:space="preserve">
<path fill="#FFFFFF" d="M157.15,40.2c-3-2-6.8-3-11.5-3c-4.6,0-8.4,1-11.4,3
	s-4.5,4.7-4.5,8.2c0,3.399,1.5,6.1,4.5,8.1s6.8,3,11.4,3c4.7,0,8.5-1,11.5-3c3-1.9,4.5-4.6,4.5-8.1S160.15,42.2,157.15,40.2
	 M151.15,51.5c-1.5,0.7-3.4,1-5.6,1c-2.1,0-4-0.4-5.5-1c-1.5-0.7-2.3-1.7-2.3-3.1c0-1.4,0.8-2.4,2.3-3.101c1.6-0.7,3.4-1,5.5-1
	c2.2,0,4.1,0.3,5.6,1s2.3,1.7,2.3,3.101C153.45,49.8,152.75,50.9,151.15,51.5"/>
<path fill="#FFFFFF" d="M149.85,29.5v-0.1v-2.5c2.4-0.5,4.5-1.3,6.4-2.6
	c3-2,4.5-4.6,4.5-7.9c0-2.4-0.8-4.5-2.3-6.2h6.8v-6h-15.4V0.7h-8.4v3.5h-15.3v6.1h6.9c-1.6,1.7-2.3,3.8-2.3,6.2
	c0,3.3,1.5,5.9,4.4,7.9c1.9,1.3,4.1,2.2,6.4,2.6v2.5h-23.5V36h55.2v-6.5H149.85z M141.15,19.9c-1.3-0.8-1.9-2-1.9-3.4
	c0-1.5,0.7-2.7,1.9-3.5c1.3-0.9,2.8-1.3,4.5-1.3c1.8,0,3.3,0.5,4.5,1.3c1.3,0.8,1.9,2,1.9,3.5c0,1.4-0.7,2.5-1.9,3.4
	c-1.2,0.8-2.7,1.2-4.5,1.2C143.85,21.1,142.35,20.7,141.15,19.9z"/>
<polygon fill="#FFFFFF" points="224.449,34.4 209.05,34.4 209.05,45.2 231.949,45.2 
	231.949,52.6 177.75,52.6 177.75,45.2 200.65,45.2 200.65,34.4 185.25,34.4 185.25,5.6 223.85,5.6 223.85,13.1 193.65,13.1 
	193.65,27 224.449,27 "/>
</svg>
