<?xml version="1.0" encoding="utf-8"?>
<!-- Generator: Adobe Illustrator 16.0.0, SVG Export Plug-In . SVG Version: 6.00 Build 0)  -->
<!DOCTYPE svg PUBLIC "-//W3C//DTD SVG 1.1//EN" "http://www.w3.org/Graphics/SVG/1.1/DTD/svg11.dtd">
<svg version="1.1" id="레이어_1" xmlns="http://www.w3.org/2000/svg" xmlns:xlink="http://www.w3.org/1999/xlink" x="0px"
	 y="0px" width="350px" height="60px" viewBox="0 0 350 60" enable-background="new 0 0 350 60" xml:space="preserve">
<polygon fill="#FFFFFF" points="26.728,2.72 18.606,2.72 18.606,52.63 50.474,52.63 
	50.474,45.996 26.728,45.996 "/>
<polygon fill="#FFFFFF" points="86.123,23.49 63.989,23.49 63.989,2.72 55.805,2.72 
	55.805,52.63 63.989,52.63 63.989,30.062 86.123,30.062 86.123,52.63 94.307,52.63 94.307,2.72 86.123,2.72 "/>
<path fill="#FFFFFF" d="M131.224,26.885c2.302-0.444,4.382-1.292,6.239-2.544
	c2.908-1.938,4.362-4.502,4.362-7.694c0-2.651-0.991-4.867-2.936-6.663h7.297V3.986h-15.024V0.594h-8.178v3.393h-14.963v5.997h7.357
	c-1.945,1.796-2.935,4.012-2.935,6.663c0,3.192,1.433,5.756,4.301,7.694c1.856,1.252,3.958,2.1,6.3,2.544v2.423h-22.899v6.361
	h53.916v-6.361h-22.838L131.224,26.885L131.224,26.885z M122.743,19.979c-1.211-0.808-1.817-1.917-1.817-3.333
	c0-1.453,0.606-2.594,1.817-3.422c1.211-0.827,2.665-1.242,4.362-1.242c1.735,0,3.21,0.415,4.422,1.242
	c1.21,0.828,1.817,1.969,1.817,3.422c0,1.416-0.606,2.525-1.817,3.333c-1.212,0.809-2.687,1.211-4.422,1.211
	C125.408,21.19,123.955,20.788,122.743,19.979z"/>
<path fill="#FFFFFF" d="M138.584,39.969c-3.009-1.977-6.875-2.968-11.601-2.968
	c-4.645,0-8.472,0.991-11.479,2.968c-3.009,1.98-4.514,4.727-4.514,8.24c0,3.475,1.504,6.198,4.514,8.178
	c3.007,1.979,6.834,2.969,11.479,2.969c4.725,0,8.591-0.989,11.601-2.969c3.008-1.979,4.513-4.703,4.513-8.178
	C143.097,44.693,141.593,41.949,138.584,39.969z M132.618,51.299c-1.536,0.646-3.414,0.969-5.634,0.969
	c-2.101,0-3.928-0.322-5.483-0.969s-2.332-1.677-2.332-3.09s0.777-2.454,2.332-3.12c1.555-0.665,3.382-1,5.483-1
	c2.22,0,4.098,0.335,5.634,1c1.534,0.666,2.302,1.707,2.302,3.12S134.151,50.652,132.618,51.299z"/>
<path fill="#FFFFFF" d="M190.221,36.695h15.314V4.89h-8.37v9.734h-22.32V4.89h-8.37v31.807
	h15.376v9.113h-22.94v7.439H213.1v-7.439h-22.879V36.695L190.221,36.695z M174.845,29.256v-7.192h22.32v7.192H174.845z"/>
<polygon fill="#FFFFFF" points="258.544,5.62 251.229,5.62 251.354,12.44 258.544,12.44 
	258.544,18.64 251.477,18.64 251.662,25.46 258.544,25.46 258.544,31.6 266.914,31.6 266.914,0.598 258.544,0.598 "/>
<path fill="#FFFFFF" d="M246.889,25.957c2.894-2.729,4.34-6.117,4.34-10.169
	c0-4.05-1.446-7.439-4.34-10.168c-2.895-2.728-6.429-4.092-10.603-4.092c-4.177,0-7.709,1.364-10.603,4.092
	c-2.895,2.729-4.341,6.118-4.341,10.168c0,4.052,1.446,7.44,4.341,10.169c2.894,2.728,6.426,4.092,10.603,4.092
	C240.46,30.048,243.994,28.684,246.889,25.957z M229.714,15.788c0-1.941,0.651-3.564,1.953-4.866
	c1.302-1.303,2.86-1.953,4.681-1.953c1.777,0,3.307,0.65,4.59,1.953c1.279,1.302,1.922,2.925,1.922,4.866
	c0,1.943-0.643,3.565-1.922,4.867c-1.283,1.303-2.813,1.953-4.59,1.953c-1.818,0-3.379-0.65-4.681-1.953
	C230.365,19.353,229.714,17.731,229.714,15.788z"/>
<path fill="#FFFFFF" d="M261.427,35.907c-3.038-2.459-6.81-3.689-11.313-3.689
	c-4.424,0-8.153,1.23-11.191,3.689s-4.557,5.797-4.557,10.014c0,4.134,1.519,7.429,4.557,9.89c3.038,2.459,6.768,3.688,11.191,3.688
	c4.505,0,8.275-1.229,11.313-3.688c3.038-2.461,4.558-5.756,4.558-9.89C265.984,41.704,264.465,38.366,261.427,35.907z
	 M255.413,50.445c-1.468,1.074-3.214,1.611-5.239,1.611s-3.771-0.537-5.238-1.611c-1.468-1.073-2.201-2.581-2.201-4.524
	c0-2.024,0.733-3.575,2.201-4.649c1.467-1.074,3.213-1.613,5.238-1.613s3.771,0.539,5.239,1.613c1.467,1.074,2.2,2.625,2.2,4.649
	C257.614,47.864,256.88,49.372,255.413,50.445z"/>
<polygon fill="#FFFFFF" points="323.023,12.397 323.023,0.617 314.654,0.617 
	314.654,30.997 323.023,30.997 323.023,19.837 331.395,19.837 331.395,12.397 "/>
<path fill="#FFFFFF" d="M317.848,35.926c-3.037-2.458-6.811-3.688-11.314-3.688
	c-4.424,0-8.152,1.229-11.19,3.688c-3.038,2.46-4.558,5.797-4.558,10.014c0,4.135,1.52,7.43,4.558,9.89
	c3.038,2.459,6.769,3.688,11.19,3.688c4.505,0,8.277-1.229,11.314-3.688c3.038-2.46,4.557-5.755,4.557-9.89
	C322.404,41.723,320.886,38.386,317.848,35.926z M311.833,50.465c-1.467,1.075-3.214,1.612-5.237,1.612
	c-2.027,0-3.772-0.537-5.24-1.612c-1.467-1.074-2.201-2.582-2.201-4.525c0-2.024,0.734-3.574,2.201-4.649
	c1.468-1.074,3.213-1.612,5.24-1.612c2.023,0,3.771,0.538,5.237,1.612c1.467,1.075,2.201,2.625,2.201,4.649
	C314.034,47.883,313.3,49.391,311.833,50.465z"/>
<path fill="#FFFFFF" d="M306.16,30.377l5.58-5.456c-5.084-2.563-8.608-5.394-10.57-8.494
	c-1.964-3.1-2.945-6.262-2.945-9.485V1.857h-8.68v5.084c0,3.224-0.982,6.489-2.945,9.796c-1.964,3.308-5.486,6.448-10.57,9.424
	l5.58,5.456c6.076-3.224,10.209-7.089,12.399-11.594C296.24,24.198,300.291,27.649,306.16,30.377z"/>
</svg>
