<?xml version="1.0" encoding="utf-8"?>
<!-- Generator: Adobe Illustrator 16.0.0, SVG Export Plug-In . SVG Version: 6.00 Build 0)  -->
<!DOCTYPE svg PUBLIC "-//W3C//DTD SVG 1.1//EN" "http://www.w3.org/Graphics/SVG/1.1/DTD/svg11.dtd">
<svg version="1.1" id="레이어_1" xmlns="http://www.w3.org/2000/svg" xmlns:xlink="http://www.w3.org/1999/xlink" x="0px"
	 y="0px" width="350px" height="60px" viewBox="0 0 350 60" enable-background="new 0 0 350 60" xml:space="preserve">
<polygon fill="#FFFFFF" points="32.8,27.5 32.8,35 57.699,35 57.699,45.1 66.1,45.1 
	66.1,35 88.2,35 88.2,27.5 "/>
<path fill="#FFFFFF" d="M79.6,23.5c-9.6-1.7-16-5-19.1-9.9c-3.1,5-9.5,8.3-19.1,9.9
	l-4.3-5.8c6-1,10.7-2.8,14-5.6c3.3-2.8,5-5.4,5-8V1.5h8.7v2.7c0,2.6,1.7,5.2,5,8c3.3,2.8,8,4.6,14.1,5.6L79.6,23.5z"/>
<polygon fill="#FFFFFF" points="80,57.9 42.2,57.9 42.2,39.9 50.6,39.9 50.6,50.5 80,50.5 
	"/>
<path fill="#FFFFFF" d="M123.6,32.8c-5.9-2.7-9.9-6.2-12.2-10.4
	c-2.2,4.5-6.3,8.4-12.4,11.6l-5.6-5.5c5.1-3,8.5-5.8,10.4-8.6c1.8-2.7,2.8-5,2.8-6.7h-10V5.8h10.9V0.5h8.4v5.3h10.3v7.4H116
	c0,1.7,1,3.8,2.8,6.4c1.8,2.6,5.3,5.1,10.4,7.7L123.6,32.8z"/>
<polygon fill="#FFFFFF" points="141.7,57.9 105.5,57.9 105.5,37.8 113.8,37.8 113.8,50.5 
	141.7,50.5 "/>
<polygon fill="#FFFFFF" points="125,15.5 133.1,15.5 133.1,1.2 141.4,1.2 141.4,39 
	133.1,39 133.1,22.9 125,22.9 "/>
<polygon fill="#FFFFFF" points="198.199,57.9 161.3,57.9 161.3,37.1 169.6,37.1 
	169.6,50.5 198.199,50.5 "/>
<polygon fill="#FFFFFF" points="197.5,23.5 197.5,39 189.199,39 189.199,1.2 197.5,1.2 
	197.5,16 205.9,16 205.9,23.5 "/>
<rect x="209.6" y="25.4" fill="#FFFFFF" width="55.2" height="7.4"/>
<path fill="#FFFFFF" d="M256.3,22.3c-9.6-1.7-16-4.8-19.1-9.3
	c-3.101,4.5-9.5,7.6-19.101,9.3l-4.301-5.8c6-1,10.7-2.7,14-5.3c3.301-2.6,5-5.1,5-7.7v-2h8.7v2c0,2.6,1.7,5.1,5,7.7
	c3.3,2.6,8,4.3,14.101,5.3L256.3,22.3z"/>
<path fill="#FFFFFF" d="M154.8,31.5h27.399V3.3H154.8V31.5z M163.1,10.8h10.7v13.3h-10.7
	V10.8z"/>
<path fill="#FFFFFF" d="M247.1,35.3v5.2h-19.8v-5.2H218.9v22.9h36.6V35.3H247.1z
	 M247.1,51.4h-19.8v-4h19.8V51.4z"/>
<path fill="#FFFFFF" d="M300,42.7c-6-4.5-10-8.9-12.3-13.2c-2.2,4.3-6.302,8.9-12.302,13.8
	l-5.6-5.5c5.7-4.5,9.4-8.8,11-12.8c1.6-3.8,2.4-7.4,2.5-10.9h-9.9V6.8H302.5v7.4H292c0.1,3.5,0.898,7.2,2.398,10.9
	c1.701,4,5.4,8,11.102,12.2L300,42.7z"/>
<rect x="308.8" y="1.2" fill="#FFFFFF" width="8.4" height="58.3"/>
</svg>
