<?xml version="1.0" encoding="utf-8"?>
<!-- Generator: Adobe Illustrator 16.0.0, SVG Export Plug-In . SVG Version: 6.00 Build 0)  -->
<!DOCTYPE svg PUBLIC "-//W3C//DTD SVG 1.1//EN" "http://www.w3.org/Graphics/SVG/1.1/DTD/svg11.dtd">
<svg version="1.1" id="레이어_1" xmlns="http://www.w3.org/2000/svg" xmlns:xlink="http://www.w3.org/1999/xlink" x="0px"
	 y="0px" width="350px" height="60px" viewBox="0 0 350 60" enable-background="new 0 0 350 60" xml:space="preserve">
<path fill="#FFFFFF" d="M98.895,35.891c5.497,0,10.788-0.436,15.872-1.303l0.682,7.316
	c-5.292,0.951-13.496,1.426-24.614,1.426V5.82h22.444v7.44H98.895V35.891z"/>
<polygon fill="#FFFFFF" points="137.025,59.141 128.965,59.141 128.965,29.007 
	125.245,29.007 125.245,57.279 117.185,57.279 117.185,1.48 125.245,1.48 125.245,21.568 128.965,21.568 128.965,0.86 137.025,0.86 
	"/>
<path fill="#FFFFFF" d="M176.793,31.366c-5.786-2.689-9.777-6.091-11.977-10.206
	c-2.16,4.44-6.233,8.249-12.221,11.427l-5.499-5.378c5.01-2.934,8.33-5.601,9.96-8.005c1.628-2.403,2.484-4.359,2.566-5.866h-9.472
	V6.007h10.693V0.813h8.25v5.194h10.144v7.332h-9.471c0.081,1.467,0.937,3.31,2.566,5.53c1.629,2.221,4.95,4.593,9.96,7.119
	L176.793,31.366z"/>
<polygon fill="#FFFFFF" points="178.137,14.866 186.08,14.866 186.08,1.424 194.329,1.424 
	194.329,31.366 186.08,31.366 186.08,22.199 178.137,22.199 "/>
<path fill="#FFFFFF" d="M235.791,25.962v-3.224h14.693V1.471h-8.369v4.154h-21.08V1.471
	h-8.37v21.266v0.001h14.756v3.224h-23.437v7.44h55.181v-7.44H235.791z M221.035,15.917v-3.472h21.08v3.472H221.035z"/>
<path fill="#FFFFFF" d="M188.922,36.223c-2.994-2.422-6.712-3.635-11.15-3.635
	c-4.36,0-8.037,1.213-11.03,3.635c-2.994,2.426-4.491,5.713-4.491,9.869c0,4.075,1.497,7.322,4.491,9.746
	c2.994,2.423,6.67,3.637,11.03,3.637c4.438,0,8.156-1.214,11.15-3.637c2.994-2.424,4.49-5.671,4.49-9.746
	C193.412,41.936,191.916,38.646,188.922,36.223z M182.995,50.552c-1.448,1.062-3.169,1.591-5.164,1.591
	c-1.997,0-3.718-0.529-5.164-1.591c-1.446-1.059-2.169-2.545-2.169-4.46c0-1.996,0.723-3.521,2.169-4.583
	c1.446-1.06,3.167-1.589,5.164-1.589c1.995,0,3.716,0.529,5.164,1.589c1.444,1.062,2.169,2.587,2.169,4.583
	C185.164,48.007,184.439,49.493,182.995,50.552z"/>
<path fill="#FFFFFF" d="M243.324,38.672c-3.08-2.232-7.037-3.348-11.873-3.348
	c-4.754,0-8.672,1.115-11.749,3.348c-3.08,2.232-4.619,5.146-4.619,8.742c0,3.555,1.539,6.447,4.619,8.68
	c3.077,2.233,6.995,3.348,11.749,3.348c4.836,0,8.793-1.115,11.873-3.348c3.078-2.232,4.617-5.125,4.617-8.68
	C247.941,43.818,246.402,40.904,243.324,38.672z M237.217,50.885c-1.572,0.869-3.494,1.303-5.766,1.303
	c-2.149,0-4.02-0.434-5.611-1.303c-1.591-0.867-2.387-2.023-2.387-3.471s0.797-2.615,2.387-3.504s3.462-1.332,5.611-1.332
	c2.273,0,4.195,0.443,5.766,1.332s2.356,2.057,2.356,3.504S238.787,50.018,237.217,50.885z"/>
</svg>
