<?xml version="1.0" encoding="utf-8"?>
<!-- Generator: Adobe Illustrator 16.0.0, SVG Export Plug-In . SVG Version: 6.00 Build 0)  -->
<!DOCTYPE svg PUBLIC "-//W3C//DTD SVG 1.1//EN" "http://www.w3.org/Graphics/SVG/1.1/DTD/svg11.dtd">
<svg version="1.1" id="레이어_1" xmlns="http://www.w3.org/2000/svg" xmlns:xlink="http://www.w3.org/1999/xlink" x="0px"
	 y="0px" width="350px" height="60px" viewBox="0 0 350 60" enable-background="new 0 0 350 60" xml:space="preserve">
<path fill="#FFFFFF" d="M85.673,26c5.3-1.4,9.6-3.5,12.7-6.4c3.2-2.9,5.2-6,6-9.4h-16.5
	V2.7h26.8c0,7.4-2.1,13.7-6.2,18.8s-10.1,8.6-17.8,10.7L85.673,26z"/>
<polygon fill="#FFFFFF" points="113.273,18.2 123.473,18.2 123.473,13.6 115.173,13.6 
	115.173,6.8 123.473,6.8 123.473,0.5 131.873,0.5 131.873,30.9 123.473,30.9 123.473,25 113.273,25 "/>
<polygon fill="#FFFFFF" points="178.674,57.6 178.674,45.8 149.873,45.8 149.873,38.4 
	187.073,38.4 187.073,57.6 "/>
<path fill="#FFFFFF" d="M246.573,2.7c0,8.3-0.5,14.5-1.601,18.6l-7.8-1
	c0.601-3.6,0.899-7,0.899-10.2h-29.399V2.7H246.573z"/>
<path fill="#FFFFFF" d="M126.373,35.9c-3-2.5-6.8-3.7-11.3-3.7c-4.4,0-8.2,1.2-11.2,3.7
	c-3.1,2.398-4.6,5.8-4.6,10c0,4.1,1.6,7.398,4.6,9.898s6.8,3.7,11.2,3.7c4.5,0,8.3-1.2,11.3-3.7c3.1-2.5,4.6-5.8,4.6-9.898
	C130.973,41.7,129.473,38.3,126.373,35.9 M120.373,50.4c-1.4,1.1-3.2,1.6-5.2,1.6s-3.7-0.5-5.2-1.6c-1.5-1-2.2-2.602-2.2-4.5
	c0-2.102,0.7-3.602,2.2-4.7c1.4-1.101,3.2-1.601,5.2-1.601s3.7,0.5,5.2,1.601c1.5,1.1,2.2,2.7,2.2,4.7
	C122.573,47.8,121.873,49.3,120.373,50.4"/>
<path fill="#FFFFFF" d="M172.973,24h14.7V1.5h-8.399v4.8h-21V1.5h-8.4V24h14.7v3.5h-23.4
	V35h55.2v-7.5h-23.4L172.973,24L172.973,24z M158.273,13.1h21.1v4.1h-21.1V13.1z"/>
<path fill="#FFFFFF" d="M255.273,31.4V24h-55.2v7.4h23.399v3.1
	c-2.601,0.5-4.899,1.6-6.899,3.3c-2.899,2.5-4.399,5.5-4.399,9c0,3.8,1.5,6.9,4.399,9.2s6.601,3.5,11,3.5c4.5,0,8.3-1.2,11.2-3.5
	c2.899-2.3,4.399-5.4,4.399-9.2c0-3.899-1.5-7-4.399-9.3c-2-1.5-4.301-2.5-6.9-3v-3.1H255.273z M232.573,42.9
	c1.5,0.898,2.2,2.199,2.2,3.898c0,1.602-0.7,2.9-2.2,3.801c-1.399,0.899-3.101,1.399-4.899,1.399c-1.801,0-3.4-0.5-4.9-1.399
	s-2.199-2.199-2.199-3.801c0-1.699,0.699-3,2.199-3.898c1.4-0.9,3.101-1.4,4.9-1.4C229.473,41.5,231.073,42,232.573,42.9"/>
</svg>
