<?xml version="1.0" encoding="utf-8"?>
<!-- Generator: Adobe Illustrator 16.0.0, SVG Export Plug-In . SVG Version: 6.00 Build 0)  -->
<!DOCTYPE svg PUBLIC "-//W3C//DTD SVG 1.1//EN" "http://www.w3.org/Graphics/SVG/1.1/DTD/svg11.dtd">
<svg version="1.1" id="레이어_1" xmlns="http://www.w3.org/2000/svg" xmlns:xlink="http://www.w3.org/1999/xlink" x="0px"
	 y="0px" width="350px" height="60px" viewBox="0 0 350 60" enable-background="new 0 0 350 60" xml:space="preserve">
<path fill="#FFFFFF" d="M66.75,24.4c6.7,0,14.4-0.7,23-2l0.7,7.4c-8.8,1.4-19.5,2-32.1,2
	V2.7h28v7.4h-19.6V24.4z"/>
<polygon fill="#FFFFFF" points="101.55,57.3 64.65,57.3 64.65,37.1 72.95,37.1 72.95,49.8 
	101.55,49.8 "/>
<polygon fill="#FFFFFF" points="101.15,22.9 101.15,38.4 92.85,38.4 92.85,0.5 101.15,0.5 
	101.15,15.4 109.55,15.4 109.55,22.9 "/>
<polygon fill="#FFFFFF" points="160.05,12.8 160.05,17.7 168.45,17.7 168.45,24.5 
	160.05,24.5 160.05,30.9 151.75,30.9 151.75,0.5 160.05,0.5 160.05,5.9 168.45,5.9 168.45,12.8 "/>
<path fill="#FFFFFF" d="M172.95,28.8v-7.1h6.3l-0.6-9.9h7.8l0.601,9.8
	c1.899,0,3.799-0.1,5.699-0.2l0.6-9.6h7.801l-0.5,8.9c2.5-0.3,4.9-0.6,7.199-1l0.701,7.1c-8.101,1.4-18,2-29.5,2H172.95"/>
<rect x="174.35" y="2.7" fill="#FFFFFF" width="31" height="7.1"/>
<polygon fill="#FFFFFF" points="218.95,47.9 191.051,47.9 191.051,50.8 219.65,50.8 
	219.65,57.6 182.75,57.6 182.75,41 210.65,41 210.65,38.4 182.75,38.4 182.75,31.5 218.95,31.5 "/>
<polygon fill="#FFFFFF" points="218.95,18.5 218.95,28.5 210.65,28.5 210.65,0.5 
	218.95,0.5 218.95,11.1 227.35,11.1 227.35,18.5 "/>
<path fill="#FFFFFF" d="M234.449,26c5.301-1.4,9.602-3.5,12.701-6.4
	c3.199-2.9,5.199-6,6-9.4H236.55V2.7h26.8c0,7.4-2.101,13.7-6.199,18.8c-4.1,5.1-10.101,8.6-17.801,10.7L234.449,26z"/>
<path fill="#FFFFFF" d="M141.65,25.9c2.9-2.8,4.3-6.1,4.3-10.2c0-4-1.4-7.4-4.3-10.2
	c-2.9-2.7-6.4-4.1-10.6-4.1c-4.2,0-7.7,1.4-10.6,4.1c-2.9,2.8-4.3,6.2-4.3,10.2c0,4.1,1.4,7.5,4.3,10.2c2.9,2.7,6.4,4.1,10.6,4.1
	C135.25,30,138.75,28.6,141.65,25.9 M124.35,15.7c0-2,0.7-3.6,2-4.9c1.3-1.3,2.9-2,4.7-2c1.8,0,3.3,0.7,4.6,2c1.3,1.3,1.9,3,1.9,4.9
	c0,2-0.6,3.6-1.9,4.9c-1.3,1.3-2.8,2-4.6,2c-1.8,0-3.4-0.7-4.7-2C125.05,19.3,124.35,17.6,124.35,15.7"/>
<path fill="#FFFFFF" d="M154.85,35.9c-3-2.5-6.8-3.7-11.3-3.7c-4.4,0-8.2,1.2-11.2,3.7
	c-3.1,2.398-4.6,5.8-4.6,10c0,4.1,1.6,7.398,4.6,9.898s6.8,3.7,11.2,3.7c4.5,0,8.3-1.2,11.3-3.7c3.1-2.5,4.6-5.8,4.6-9.898
	C159.45,41.7,157.95,38.3,154.85,35.9 M148.95,50.4c-1.4,1.1-3.2,1.6-5.2,1.6s-3.7-0.5-5.2-1.6c-1.5-1-2.2-2.602-2.2-4.5
	c0-2.102,0.7-3.602,2.2-4.7c1.4-1.101,3.2-1.601,5.2-1.601s3.7,0.5,5.2,1.601c1.5,1.1,2.2,2.7,2.2,4.7
	C151.15,47.8,150.35,49.3,148.95,50.4"/>
<path fill="#FFFFFF" d="M275.15,35.9c-3-2.5-6.801-3.7-11.301-3.7
	c-4.4,0-8.199,1.2-11.199,3.7c-3.101,2.398-4.601,5.8-4.601,10c0,4.1,1.601,7.398,4.601,9.898s6.799,3.7,11.199,3.7
	c4.5,0,8.301-1.2,11.301-3.7c3.1-2.5,4.6-5.8,4.6-9.898C279.75,41.7,278.25,38.3,275.15,35.9 M269.15,50.4
	c-1.4,1.1-3.201,1.6-5.201,1.6s-3.699-0.5-5.199-1.6c-1.5-1-2.199-2.602-2.199-4.5c0-2.102,0.699-3.602,2.199-4.7
	c1.4-1.101,3.199-1.601,5.199-1.601s3.701,0.5,5.201,1.601c1.5,1.1,2.199,2.7,2.199,4.7C271.35,47.8,270.65,49.3,269.15,50.4"/>
<polygon fill="#FFFFFF" points="262.051,18.2 272.35,18.2 272.35,13.6 263.949,13.6 
	263.949,6.8 272.35,6.8 272.35,0.5 280.65,0.5 280.65,30.9 272.35,30.9 272.35,25 262.051,25 "/>
</svg>
