<?xml version="1.0" encoding="utf-8"?>
<!-- Generator: Adobe Illustrator 16.0.0, SVG Export Plug-In . SVG Version: 6.00 Build 0)  -->
<!DOCTYPE svg PUBLIC "-//W3C//DTD SVG 1.1//EN" "http://www.w3.org/Graphics/SVG/1.1/DTD/svg11.dtd">
<svg version="1.1" id="레이어_1" xmlns="http://www.w3.org/2000/svg" xmlns:xlink="http://www.w3.org/1999/xlink" x="0px"
	 y="0px" width="350px" height="60px" viewBox="0 0 350 60" enable-background="new 0 0 350 60" xml:space="preserve">
<polygon fill="#FFFFFF" points="103.908,49.941 75.698,49.941 75.698,52.3 104.528,52.3 
	104.528,58.811 67.328,58.811 67.328,43.434 95.538,43.434 95.538,41.141 67.328,41.141 67.328,34.628 81.464,34.628 81.464,32.335 
	58.028,32.335 58.028,24.895 113.208,24.895 113.208,32.335 89.834,32.335 89.834,34.628 103.908,34.628 "/>
<path fill="#FFFFFF" d="M146.874,32.148c-5.87-2.729-9.92-6.178-12.152-10.354
	c-2.191,4.506-6.324,8.37-12.4,11.595l-5.58-5.457c5.084-2.977,8.607-6.117,10.571-9.424c1.962-3.307,2.945-6.572,2.945-9.797V2.389
	h8.68v6.323c0,3.225,0.981,6.387,2.945,9.486c1.963,3.101,5.487,5.932,10.571,8.494L146.874,32.148z"/>
<polygon fill="#FFFFFF" points="164.668,57.878 127.778,57.878 127.778,37.729 
	136.148,37.729 136.148,50.438 164.668,50.438 "/>
<polygon fill="#FFFFFF" points="163.738,23.469 163.738,38.969 155.368,38.969 
	155.368,1.149 163.738,1.149 163.738,16.029 172.108,16.029 172.108,23.469 "/>
<path fill="#FFFFFF" d="M97.367,3.877c-3.08-2.024-7.037-3.038-11.873-3.038
	c-4.754,0-8.67,1.014-11.749,3.038c-3.079,2.026-4.619,4.774-4.619,8.246c0,3.432,1.539,6.16,4.619,8.185
	c3.079,2.025,6.995,3.038,11.749,3.038c4.836,0,8.793-1.013,11.873-3.038c3.079-2.026,4.619-4.753,4.619-8.185
	C101.986,8.651,100.446,5.903,97.367,3.877z M91.26,15.224c-1.572,0.703-3.494,1.054-5.766,1.054c-2.15,0-4.02-0.351-5.611-1.054
	c-1.592-0.703-2.387-1.737-2.387-3.101c0-1.363,0.796-2.407,2.387-3.131c1.59-0.723,3.461-1.085,5.611-1.085
	c2.273,0,4.195,0.362,5.766,1.085c1.57,0.724,2.356,1.768,2.356,3.131C93.616,13.487,92.83,14.521,91.26,15.224z"/>
<path fill="#FFFFFF" d="M198.893,5.489v12.896h-10.975V5.489h-8.37v38.129h27.714V5.489
	H198.893z M198.893,36.18h-10.975V25.825h10.975V36.18z"/>
<polygon fill="#FFFFFF" points="222.018,29.296 222.018,59.428 213.648,59.428 
	213.648,1.149 222.018,1.149 222.018,21.857 231.008,21.857 231.008,29.296 "/>
<path fill="#FFFFFF" d="M249.917,58.188V40.829h-12.71v-7.438h17.05
	c6.117,0,12.132-0.56,18.042-1.675l0.684,7.377c-4.631,0.828-9.528,1.363-14.694,1.611v17.483H249.917z"/>
<path fill="#FFFFFF" d="M264.549,6.946c-2.521-2.418-5.931-3.627-10.229-3.627
	c-4.299,0-7.709,1.209-10.23,3.627c-2.521,2.418-3.781,5.487-3.781,9.207c0,3.556,1.26,6.541,3.781,8.959s5.93,3.627,10.23,3.627
	c4.297,0,7.707-1.209,10.229-3.627s3.782-5.403,3.782-8.959C268.331,12.433,267.07,9.364,264.549,6.946z M258.721,20.616
	c-1.238,1.075-2.687,1.612-4.34,1.612c-1.734,0-3.224-0.537-4.464-1.612c-1.239-1.074-1.858-2.583-1.858-4.525
	c0-2.025,0.618-3.575,1.858-4.65c1.24-1.074,2.729-1.612,4.464-1.612c1.653,0,3.102,0.538,4.34,1.612
	c1.24,1.075,1.86,2.625,1.86,4.65C260.581,18.034,259.961,19.542,258.721,20.616z"/>
<rect x="275.027" y="1.149" fill="#FFFFFF" width="8.369" height="58.281"/>
</svg>
