<?xml version="1.0" encoding="utf-8"?>
<!-- Generator: Adobe Illustrator 16.0.0, SVG Export Plug-In . SVG Version: 6.00 Build 0)  -->
<!DOCTYPE svg PUBLIC "-//W3C//DTD SVG 1.1//EN" "http://www.w3.org/Graphics/SVG/1.1/DTD/svg11.dtd">
<svg version="1.1" id="레이어_1" xmlns="http://www.w3.org/2000/svg" xmlns:xlink="http://www.w3.org/1999/xlink" x="0px"
	 y="0px" width="350px" height="60px" viewBox="0 0 350 60" enable-background="new 0 0 350 60" xml:space="preserve">
<path fill="#FFFFFF" d="M90.016,30.9c-5.9-2.7-9.9-6.2-12.2-10.4
	c-2.2,4.5-6.3,8.4-12.4,11.6l-5.5-5.398c5.1-3,8.6-6.1,10.6-9.4c2-3.3,2.9-6.6,2.9-9.8V2.4h8.7v5.1c0,3.2,1,6.4,2.9,9.5
	c2,3.1,5.5,5.9,10.6,8.5L90.016,30.9z"/>
<path fill="#FFFFFF" d="M99.816,34v5.6h-19.6V34h-8.3v24.2h36.2V34H99.816z M99.716,51.4
	h-19.5v-5h19.5V51.4z"/>
<polygon fill="#FFFFFF" points="89.816,9.9 99.816,9.9 99.816,1.2 108.116,1.2 
	108.116,30.3 99.816,30.3 99.816,17.3 89.816,17.3 "/>
<path fill="#FFFFFF" d="M148.916,42.7c-6-4.5-10-8.9-12.3-13.2c-2.2,4.3-6.3,8.9-12.3,13.8
	l-5.6-5.5c5.7-4.5,9.4-8.8,11-12.8c1.6-3.8,2.4-7.4,2.5-10.9h-9.9V6.7h29.1v7.4h-10.5c0.1,3.5,0.9,7.2,2.4,10.9
	c1.7,4,5.4,8,11.1,12.2L148.916,42.7z"/>
<rect x="157.716" y="1.2" fill="#FFFFFF" width="8.4" height="58.3"/>
<polygon fill="#FFFFFF" points="176.816,45.2 196.016,45.2 196.016,33.4 204.416,33.4 
	204.416,45.2 231.016,45.2 231.016,52.6 176.816,52.6 "/>
<path fill="#FFFFFF" d="M183.816,5.5h40.299c0,11.2-0.699,22.2-2,32.9l-8-0.7
	c0.4-4.5,0.801-8.3,1.101-11.3l-30.7,1.2l-0.6-7.1l31.699-1c0.101-2,0.201-4.3,0.201-6.8h-31.9V5.5H183.816z"/>
<path fill="#FFFFFF" d="M266.717,42.7c-6-4.5-10-8.9-12.301-13.2
	c-2.199,4.3-6.301,8.9-12.301,13.8l-5.6-5.5c5.7-4.5,9.399-8.8,11-12.8c1.6-3.8,2.399-7.4,2.5-10.9h-9.9V6.7h29.102v7.4h-10.5
	c0.1,3.5,0.898,7.2,2.398,10.9c1.701,4,5.4,8,11.102,12.2L266.717,42.7z"/>
<rect x="275.516" y="1.2" fill="#FFFFFF" width="8.4" height="58.3"/>
</svg>
