<?xml version="1.0" encoding="utf-8"?>
<!-- Generator: Adobe Illustrator 16.0.0, SVG Export Plug-In . SVG Version: 6.00 Build 0)  -->
<!DOCTYPE svg PUBLIC "-//W3C//DTD SVG 1.1//EN" "http://www.w3.org/Graphics/SVG/1.1/DTD/svg11.dtd">
<svg version="1.1" id="레이어_1" xmlns="http://www.w3.org/2000/svg" xmlns:xlink="http://www.w3.org/1999/xlink" x="0px"
	 y="0px" width="350px" height="60px" viewBox="0 0 350 60" enable-background="new 0 0 350 60" xml:space="preserve">
<g>
	<path fill="#FFFFFF" d="M51.93,13.262h8.122V5.82H36.12v7.441h8.122
		c0,3.678-0.642,7.512-1.922,11.5c-1.282,3.99-4.134,8.256-8.556,12.803l5.332,5.457c4.216-4.672,7.212-9.072,8.99-13.207
		c1.818,3.969,4.815,8.164,8.99,12.586l5.332-5.455c-4.423-4.34-7.275-8.453-8.556-12.338C52.57,20.723,51.93,16.939,51.93,13.262z"
		/>
	<polygon fill="#FFFFFF" points="64.206,18.035 57.076,18.035 57.076,25.475 
		64.206,25.475 64.206,57.281 71.956,57.281 71.956,2.102 64.206,2.102 	"/>
	<rect x="75.676" y="0.861" fill="#FFFFFF" width="7.75" height="58.279"/>
	<polygon fill="#FFFFFF" points="123.292,36.945 139.226,36.945 139.226,30.125 
		107.916,30.125 107.916,24.482 138.606,24.482 138.606,5.201 99.546,5.201 99.546,12.021 130.236,12.021 130.236,17.662 
		99.546,17.662 99.546,36.945 114.922,36.945 114.922,44.881 91.982,44.881 91.982,52.32 146.17,52.32 146.17,44.881 
		123.292,44.881 	"/>
	<path fill="#FFFFFF" d="M182.315,19.275h-3.037c-0.496-3.184-1.799-5.932-3.906-8.246
		c-2.728-3.059-6.098-4.588-10.106-4.588c-4.01,0-7.389,1.529-10.137,4.588c-2.75,3.059-4.123,6.861-4.123,11.408
		c0,4.506,1.374,8.287,4.123,11.346c2.749,3.059,6.127,4.588,10.137,4.588c4.008,0,7.378-1.529,10.106-4.588
		c1.86-2.025,3.078-4.381,3.658-7.068h3.285v30.566h7.75V1.48h-7.75V19.275z M169.699,28.451c-1.178,1.652-2.635,2.48-4.371,2.48
		c-1.777,0-3.266-0.828-4.464-2.48c-1.199-1.652-1.798-3.658-1.798-6.014c0-2.439,0.599-4.475,1.798-6.107
		c1.198-1.633,2.687-2.449,4.464-2.449c1.736,0,3.193,0.816,4.371,2.449c1.178,1.633,1.767,3.668,1.767,6.107
		C171.466,24.793,170.877,26.799,169.699,28.451z"/>
	<rect x="193.476" y="0.861" fill="#FFFFFF" width="7.75" height="58.279"/>
	<path fill="#FFFFFF" d="M223.546,34.031V5.201h-8.371v36.27
		c12.979,0,23.354-0.682,31.125-2.047l-0.682-7.377C238.054,33.369,230.696,34.031,223.546,34.031z"/>
	<polygon fill="#FFFFFF" points="249.896,16.051 236.565,16.051 236.565,23.49 
		249.896,23.49 249.896,59.141 258.265,59.141 258.265,0.861 249.896,0.861 	"/>
	<path fill="#FFFFFF" d="M294.163,24.793c-1.529-3.762-2.336-7.398-2.418-10.912h10.541
		V6.441h-29.141v7.439h9.92c-0.084,3.514-0.91,7.15-2.48,10.912c-1.611,3.969-5.291,8.225-11.035,12.771l5.58,5.457
		c5.951-4.877,10.043-9.486,12.275-13.826c2.232,4.299,6.324,8.701,12.277,13.205l5.578-5.455
		C299.517,32.813,295.815,28.762,294.163,24.793z"/>
	<rect x="308.485" y="0.861" fill="#FFFFFF" width="8.371" height="58.279"/>
</g>
</svg>
