<?xml version="1.0" encoding="utf-8"?>
<!-- Generator: Adobe Illustrator 16.0.0, SVG Export Plug-In . SVG Version: 6.00 Build 0)  -->
<!DOCTYPE svg PUBLIC "-//W3C//DTD SVG 1.1//EN" "http://www.w3.org/Graphics/SVG/1.1/DTD/svg11.dtd">
<svg version="1.1" id="레이어_1" xmlns="http://www.w3.org/2000/svg" xmlns:xlink="http://www.w3.org/1999/xlink" x="0px"
	 y="0px" width="350px" height="60px" viewBox="0 0 350 60" enable-background="new 0 0 350 60" xml:space="preserve">
<polygon fill="#FFFFFF" points="48.055,0.86 39.685,0.86 39.685,7.37 30.385,7.37 
	30.385,14.81 57.354,14.81 57.354,7.37 48.055,7.37 "/>
<path fill="#FFFFFF" d="M44.458,16.98c-3.886,0-6.996,1.302-9.331,3.906
	c-2.335,2.604-3.503,5.766-3.503,9.485c0,3.638,1.167,6.757,3.503,9.363c2.335,2.604,5.445,3.906,9.331,3.906
	c3.926,0,7.058-1.303,9.393-3.906c2.335-2.605,3.503-5.725,3.503-9.363c0-3.72-1.168-6.882-3.503-9.485
	C51.516,18.282,48.385,16.98,44.458,16.98z M48.023,34.309c-0.848,1.262-2.077,1.891-3.689,1.891c-1.488,0-2.635-0.629-3.441-1.891
	c-0.806-1.26-1.209-2.572-1.209-3.937c0-1.446,0.403-2.8,1.209-4.061s1.953-1.892,3.441-1.892c1.612,0,2.841,0.631,3.689,1.892
	c0.847,1.261,1.271,2.614,1.271,4.061C49.294,31.736,48.87,33.049,48.023,34.309z"/>
<polygon fill="#FFFFFF" points="71.615,21.568 67.895,21.568 67.895,2.1 59.834,2.1 
	59.834,57.279 67.895,57.279 67.895,29.007 71.615,29.007 71.615,59.141 79.675,59.141 79.675,0.86 71.615,0.86 "/>
<polygon fill="#FFFFFF" points="88.23,40.23 110.674,40.23 110.674,59.141 119.354,59.141 
	119.354,40.23 142.418,40.23 142.418,32.789 88.23,32.789 "/>
<path fill="#FFFFFF" d="M115.325,14.81c3.182,5.787,9.548,9.817,19.096,12.09l4.34-6.076
	c-6.49-1.364-11.295-3.729-14.415-7.099c-3.122-3.368-4.681-6.728-4.681-10.075v-2.48h-8.68v2.48c0,3.348-1.561,6.707-4.681,10.075
	c-3.122,3.369-7.947,5.734-14.477,7.099l4.402,6.076C105.693,24.627,112.059,20.597,115.325,14.81z"/>
<path fill="#FFFFFF" d="M182.037,21.196c-8.598,1.323-16.266,1.984-23.003,1.984V10.47
	h19.655V3.03h-28.025v27.589c12.564,0,23.25-0.681,32.054-2.045L182.037,21.196z"/>
<path fill="#FFFFFF" d="M157.174,57.9h36.271V34.959h-36.271V57.9z M165.544,42.4h19.53
	v8.059h-19.53V42.4z"/>
<polygon fill="#FFFFFF" points="193.445,0.86 185.074,0.86 185.074,31.24 193.445,31.24 
	193.445,20.08 201.814,20.08 201.814,12.64 193.445,12.64 "/>
<polygon fill="#FFFFFF" points="206.031,40.23 228.475,40.23 228.475,59.141 
	237.154,59.141 237.154,40.23 260.219,40.23 260.219,32.789 206.031,32.789 "/>
<path fill="#FFFFFF" d="M233.125,14.81c3.182,5.787,9.547,9.817,19.096,12.09l4.34-6.076
	c-6.49-1.364-11.295-3.729-14.416-7.099c-3.121-3.368-4.68-6.728-4.68-10.075v-2.48h-8.68v2.48c0,3.348-1.561,6.707-4.682,10.075
	c-3.121,3.369-7.947,5.734-14.477,7.099l4.4,6.076C223.492,24.627,229.859,20.597,233.125,14.81z"/>
<path fill="#FFFFFF" d="M286.135,40.539v-3.533c2.314-0.455,4.359-1.385,6.139-2.791
	c2.604-2.107,3.904-4.917,3.904-8.431c0-3.555-1.301-6.386-3.904-8.494c-2.605-2.107-5.809-3.162-9.611-3.162
	c-3.762,0-6.943,1.055-9.547,3.162c-2.605,2.108-3.906,4.939-3.906,8.494c0,3.514,1.301,6.324,3.906,8.431
	c1.527,1.24,3.285,2.109,5.27,2.605v3.719h-12.4v7.441h15.189c7.813,0,14.344-0.475,19.594-1.426l-0.684-7.379
	C295.041,40.086,290.391,40.539,286.135,40.539z M279.035,28.791c-0.971-0.723-1.457-1.684-1.457-2.883
	c0-1.446,0.486-2.531,1.457-3.255c0.971-0.723,2.18-1.085,3.627-1.085c1.488,0,2.719,0.362,3.689,1.085
	c0.971,0.724,1.457,1.809,1.457,3.255c0,1.199-0.486,2.16-1.457,2.883c-0.971,0.724-2.201,1.085-3.689,1.085
	C281.215,29.875,280.006,29.514,279.035,28.791z"/>
<polygon fill="#FFFFFF" points="298.35,5.51 286.879,5.51 286.879,0.86 278.508,0.86 
	278.508,5.51 267.039,5.51 267.039,12.95 298.35,12.95 "/>
<polygon fill="#FFFFFF" points="310.625,21.568 310.625,0.86 302.254,0.86 302.254,59.141 
	310.625,59.141 310.625,29.007 319.615,29.007 319.615,21.568 "/>
</svg>
