<?xml version="1.0" encoding="utf-8"?>
<!-- Generator: Adobe Illustrator 16.0.0, SVG Export Plug-In . SVG Version: 6.00 Build 0)  -->
<!DOCTYPE svg PUBLIC "-//W3C//DTD SVG 1.1//EN" "http://www.w3.org/Graphics/SVG/1.1/DTD/svg11.dtd">
<svg version="1.1" id="레이어_1" xmlns="http://www.w3.org/2000/svg" xmlns:xlink="http://www.w3.org/1999/xlink" x="0px"
	 y="0px" width="350px" height="60px" viewBox="0 0 350 60" enable-background="new 0 0 350 60" xml:space="preserve">
<path fill="#FFFFFF" d="M30.884,28.353c-1.571-1.322-3.42-2.418-5.549-3.285
	c-2.129-0.869-4.392-1.51-6.789-1.923c-2.48-0.577-4.227-1.528-5.239-2.853c-1.014-1.322-1.479-2.914-1.395-4.773
	c0-0.908,0.195-1.736,0.589-2.48c0.392-0.743,0.899-1.383,1.519-1.922c0.62-0.496,1.312-0.877,2.077-1.146
	c0.764-0.269,1.519-0.403,2.263-0.403c0.909,0,1.87,0.155,2.883,0.465c1.012,0.311,1.994,0.713,2.945,1.209
	c0.95,0.539,1.839,1.168,2.666,1.892c0.826,0.724,1.529,1.499,2.108,2.325l5.58-4.277c-1.571-2.77-3.72-4.855-6.448-6.263
	c-2.728-1.404-5.725-2.107-8.99-2.107c-2.15,0-4.154,0.31-6.014,0.931c-1.86,0.619-3.471,1.485-4.836,2.602
	C6.848,7.5,5.743,8.854,4.937,10.403c-0.806,1.551-1.209,3.254-1.209,5.115c0,2.396,0.341,4.412,1.023,6.045
	s1.663,3.008,2.945,4.123c1.281,1.157,2.841,2.098,4.681,2.82c1.839,0.725,3.916,1.354,6.231,1.893
	c1.033,0.247,2.087,0.6,3.162,1.053c1.074,0.455,2.046,1.055,2.914,1.799s1.57,1.623,2.108,2.636
	c0.537,1.013,0.806,2.181,0.806,3.503c0,1.075-0.259,2.076-0.775,3.007c-0.517,0.931-1.209,1.728-2.077,2.388
	c-0.868,0.703-1.86,1.24-2.976,1.611c-1.116,0.372-2.253,0.559-3.41,0.559c-2.232,0-4.381-0.609-6.448-1.829
	s-3.762-2.944-5.084-5.177L1,44.536c1.86,3.018,4.309,5.291,7.347,6.82c3.038,1.528,6.355,2.293,9.951,2.293
	c2.438,0,4.732-0.371,6.882-1.115c2.148-0.744,4.03-1.756,5.642-3.039c1.57-1.321,2.821-2.84,3.751-4.557
	c0.93-1.715,1.395-3.564,1.395-5.549c0-2.314-0.455-4.393-1.364-6.23C33.694,31.319,32.455,29.716,30.884,28.353z"/>
<polygon fill="#FFFFFF" points="75.416,3.118 65.496,3.118 47.02,23.393 47.02,3.118 
	38.835,3.118 38.835,53.028 47.02,53.028 47.02,35.358 51.545,30.399 69.773,53.028 79.693,53.028 56.196,24.819 "/>
<polygon fill="#FFFFFF" points="77.197,9.752 91.457,9.752 91.457,53.028 99.641,53.028 
	99.641,9.752 113.838,9.752 113.838,3.118 77.197,3.118 "/>
<rect x="117.958" y="45.739" fill="#FFFFFF" width="54.188" height="7.44"/>
<path fill="#FFFFFF" d="M145.052,19.08c3.1,6.613,9.464,11.264,19.095,13.949l4.961-6.075
	c-6.49-1.776-11.398-4.671-14.726-8.681c-3.328-4.01-4.991-8.08-4.991-12.215V4.819h-8.68v1.239c0,4.135-1.664,8.205-4.991,12.215
	c-3.328,4.01-8.257,6.902-14.787,8.681l5.022,6.075C135.379,30.344,141.744,25.693,145.052,19.08z"/>
<path fill="#FFFFFF" d="M180.393,41.413h26.782V5.763h-26.782V41.413z M188.762,13.203
	h10.045v20.771h-10.045V13.203z"/>
<polygon fill="#FFFFFF" points="222.552,0.804 214.182,0.804 214.182,59.083 
	222.552,59.083 222.552,28.95 231.542,28.95 231.542,21.511 222.552,21.511 "/>
<polygon fill="#FFFFFF" points="283.001,30.982 251.689,30.982 251.689,25.342 
	281.143,25.342 281.143,18.521 251.689,18.521 251.689,12.88 281.761,12.88 281.761,6.059 243.32,6.059 243.32,37.805 
	283.001,37.805 "/>
<rect x="235.757" y="45.739" fill="#FFFFFF" width="54.188" height="7.44"/>
<path fill="#FFFFFF" d="M303.462,59.141h36.58v-19.84h-36.58V59.141L303.462,59.141z
	 M311.831,46.74h19.84v4.96h-19.84V46.74z"/>
<path fill="#FFFFFF" d="M325.968,30.248V27.77c2.355-0.455,4.484-1.322,6.386-2.604
	c2.977-1.983,4.465-4.606,4.465-7.874c0-2.714-1.014-4.98-3.006-6.818h7.471v-6.14h-15.377V0.859h-8.369v3.474h-15.314v6.138h7.53
	c-1.991,1.838-3.005,4.105-3.005,6.819c0,3.267,1.467,5.892,4.402,7.874c1.899,1.281,4.051,2.15,6.447,2.604v2.479h-23.437v6.511
	h55.18v-6.511L325.968,30.248L325.968,30.248z M317.288,20.7c-1.24-0.826-1.861-1.962-1.861-3.41c0-1.487,0.621-2.655,1.861-3.503
	c1.237-0.848,2.728-1.271,4.463-1.271c1.776,0,3.287,0.424,4.524,1.271c1.24,0.848,1.861,2.016,1.861,3.503
	c0,1.448-0.621,2.584-1.861,3.41c-1.237,0.827-2.748,1.239-4.524,1.239C320.016,21.939,318.525,21.527,317.288,20.7z"/>
</svg>
