<?xml version="1.0" encoding="utf-8"?>
<!-- Generator: Adobe Illustrator 16.0.0, SVG Export Plug-In . SVG Version: 6.00 Build 0)  -->
<!DOCTYPE svg PUBLIC "-//W3C//DTD SVG 1.1//EN" "http://www.w3.org/Graphics/SVG/1.1/DTD/svg11.dtd">
<svg version="1.1" id="레이어_1" xmlns="http://www.w3.org/2000/svg" xmlns:xlink="http://www.w3.org/1999/xlink" x="0px"
	 y="0px" width="350px" height="60px" viewBox="0 0 350 60" enable-background="new 0 0 350 60" xml:space="preserve">
<g>
	<path fill="#FFFFFF" d="M59.9,29.878v-3.2c2.9-0.5,5.4-1.6,7.5-3.2
		c3.1-2.3,4.7-5.4,4.7-9.1c0-3.8-1.5-6.9-4.6-9.2s-7.1-3.5-11.9-3.5c-4.7,0-8.6,1.2-11.7,3.5s-4.6,5.4-4.6,9.2
		c0,3.7,1.5,6.7,4.6,9.1c2.2,1.6,4.8,2.7,7.8,3.2v3.2H28.3v7.399h55.1v-7.399H59.9z M50,18.178c-1.6-0.9-2.4-2.2-2.4-3.9
		c0-1.7,0.8-3,2.4-4s3.5-1.5,5.6-1.5c2.3,0,4.2,0.5,5.8,1.5s2.4,2.3,2.4,4c0,1.7-0.7,3-2.4,3.9c-1.6,1-3.5,1.5-5.8,1.5
		C53.5,19.678,51.6,19.178,50,18.178"/>
	<polygon fill="#FFFFFF" points="46.5,40.678 38.2,40.678 38.2,58.578 75.4,58.578 
		75.4,51.178 46.5,51.178 	"/>
</g>
<g>
	<path fill="#FFFFFF" d="M99.9,34.179c7.2,0,14.7-0.699,22.7-2l0.7,7.398
		c-8.2,1.399-18.8,2-31.7,2v-36.2h8.4L99.9,34.179z"/>
	<polygon fill="#FFFFFF" points="133.3,29.177 133.3,59.278 125,59.278 125,0.979 
		133.3,0.979 133.3,21.677 142.3,21.677 142.3,29.177 	"/>
</g>
<g>
	<path fill="#FFFFFF" d="M158.1,37.278c6.7,0,14.2-0.698,22.6-2l0.7,7.4
		c-8.602,1.398-19.102,2-31.602,2v-23.7h18.3v-7.6h-18.3v-7.4H176.4v22.5h-18.3V37.278L158.1,37.278z"/>
	<polygon fill="#FFFFFF" points="192.199,29.177 192.199,59.278 183.9,59.278 183.9,0.979 
		192.199,0.979 192.199,21.677 201.199,21.677 201.199,29.177 	"/>
</g>
<g>
	<path fill="#FFFFFF" d="M234.026,15.868c0,2.026-0.383,3.896-1.147,5.611
		c-0.766,1.716-1.809,3.193-3.131,4.434c-1.323,1.281-2.883,2.273-4.681,2.976c-1.799,0.703-3.711,1.054-5.735,1.054
		c-2.067,0-3.989-0.351-5.766-1.054c-1.778-0.702-3.328-1.674-4.65-2.914c-1.364-1.24-2.429-2.718-3.193-4.433
		s-1.146-3.606-1.146-5.674c0-2.024,0.382-3.895,1.146-5.61c0.765-1.715,1.829-3.193,3.193-4.434c1.322-1.239,2.872-2.21,4.65-2.913
		c1.776-0.703,3.698-1.055,5.766-1.055c2.024,0,3.937,0.362,5.735,1.085c1.798,0.724,3.357,1.705,4.681,2.945
		c1.322,1.24,2.365,2.718,3.131,4.433C233.644,12.035,234.026,13.884,234.026,15.868z M226.648,15.868
		c0-1.074-0.197-2.065-0.59-2.976c-0.393-0.908-0.92-1.694-1.581-2.355s-1.426-1.179-2.294-1.551
		c-0.867-0.372-1.798-0.558-2.79-0.558c-1.033,0-2.005,0.186-2.913,0.558c-0.91,0.372-1.695,0.89-2.356,1.551
		c-0.662,0.661-1.178,1.447-1.55,2.355c-0.372,0.91-0.559,1.901-0.559,2.976c0,1.116,0.187,2.13,0.559,3.038
		c0.372,0.91,0.888,1.695,1.55,2.356c0.661,0.661,1.436,1.178,2.325,1.55c0.888,0.372,1.869,0.559,2.944,0.559
		c0.992,0,1.923-0.187,2.79-0.559c0.868-0.372,1.633-0.889,2.294-1.55s1.188-1.446,1.581-2.356
		C226.451,17.998,226.648,16.984,226.648,15.868z M248.906,46.124c0,2.025-0.414,3.865-1.24,5.518
		c-0.827,1.652-1.943,3.079-3.348,4.278c-1.447,1.156-3.142,2.056-5.084,2.696c-1.943,0.641-4.01,0.962-6.2,0.962
		c-2.149,0-4.176-0.311-6.076-0.931c-1.901-0.62-3.556-1.509-4.96-2.666c-1.447-1.157-2.584-2.573-3.41-4.247
		c-0.827-1.674-1.24-3.543-1.24-5.61c0-2.108,0.413-4.009,1.24-5.704c0.826-1.694,1.963-3.12,3.41-4.278
		c1.404-1.156,3.059-2.046,4.96-2.666c1.9-0.62,3.927-0.93,6.076-0.93c2.19,0,4.247,0.32,6.169,0.961
		c1.922,0.642,3.605,1.54,5.053,2.697c1.446,1.199,2.583,2.635,3.41,4.309C248.492,42.187,248.906,44.058,248.906,46.124z
		 M241.466,46.124c0-1.074-0.217-2.036-0.65-2.884c-0.435-0.847-1.023-1.58-1.768-2.2c-0.744-0.579-1.633-1.033-2.666-1.364
		c-1.033-0.33-2.129-0.496-3.286-0.496s-2.242,0.166-3.255,0.496c-1.013,0.331-1.891,0.785-2.635,1.364
		c-0.786,0.62-1.396,1.363-1.829,2.231s-0.651,1.819-0.651,2.853c0,1.075,0.228,2.025,0.683,2.852
		c0.454,0.827,1.074,1.55,1.859,2.17c0.744,0.579,1.622,1.023,2.636,1.333c1.012,0.311,2.077,0.465,3.192,0.465
		c1.157,0,2.242-0.154,3.255-0.465c1.013-0.31,1.912-0.754,2.697-1.333c0.744-0.62,1.333-1.343,1.768-2.17
		C241.249,48.149,241.466,47.199,241.466,46.124z M234.646,25.044c-0.042-1.033-0.073-2.046-0.094-3.038
		c-0.021-0.992-0.052-2.005-0.093-3.038h7.937v-6.696h-7.998c-0.042-1.032-0.063-2.046-0.063-3.038s-0.021-2.004-0.062-3.038h8.122
		V0.678h7.439v31.124h-7.439v-6.757H234.646z"/>
	<path fill="#FFFFFF" d="M294.785,25.292c-0.827,0.827-1.664,1.643-2.511,2.448
		c-0.848,0.807-1.685,1.623-2.511,2.449c-2.977-1.364-5.54-2.976-7.688-4.836c-2.149-1.859-3.803-3.906-4.96-6.138
		c-1.116,2.397-2.77,4.63-4.96,6.696c-2.191,2.066-4.836,3.905-7.936,5.517c-0.827-0.826-1.654-1.642-2.48-2.449
		c-0.827-0.806-1.653-1.621-2.479-2.449c2.479-1.363,4.598-2.83,6.354-4.401c1.757-1.57,3.193-3.183,4.31-4.836
		c1.115-1.653,1.932-3.327,2.448-5.022c0.517-1.694,0.775-3.368,0.775-5.021V2.042h7.688V7.25c0,1.653,0.258,3.296,0.775,4.929
		c0.517,1.633,1.354,3.214,2.511,4.743c1.116,1.529,2.552,3.007,4.31,4.433C290.187,22.781,292.306,24.094,294.785,25.292z
		 M305.449,46.124c0,2.025-0.413,3.865-1.24,5.518s-1.943,3.079-3.348,4.278c-1.447,1.156-3.142,2.056-5.084,2.696
		c-1.943,0.641-4.01,0.962-6.2,0.962c-2.149,0-4.185-0.311-6.106-0.931s-3.587-1.509-4.991-2.666
		c-1.447-1.199-2.584-2.625-3.41-4.277c-0.827-1.653-1.24-3.513-1.24-5.58c0-2.108,0.413-3.999,1.24-5.674
		c0.826-1.674,1.963-3.109,3.41-4.309c1.404-1.156,3.069-2.046,4.991-2.666s3.957-0.93,6.106-0.93c2.19,0,4.247,0.32,6.169,0.961
		c1.922,0.642,3.606,1.54,5.054,2.697c1.446,1.199,2.582,2.635,3.409,4.309S305.449,44.058,305.449,46.124z M298.01,46.124
		c0-1.033-0.218-1.974-0.651-2.821c-0.434-0.847-1.023-1.581-1.767-2.201c-0.786-0.62-1.685-1.095-2.697-1.426
		c-1.014-0.33-2.099-0.496-3.255-0.496c-1.158,0-2.243,0.166-3.255,0.496c-1.014,0.331-1.892,0.785-2.636,1.364
		c-0.785,0.62-1.395,1.354-1.828,2.2c-0.435,0.848-0.651,1.81-0.651,2.884c0,1.075,0.217,2.036,0.651,2.883
		c0.434,0.848,1.043,1.561,1.828,2.139c0.744,0.579,1.622,1.023,2.636,1.333c1.012,0.311,2.097,0.465,3.255,0.465
		c1.156,0,2.241-0.165,3.255-0.496c1.013-0.331,1.911-0.784,2.697-1.363c0.743-0.579,1.333-1.292,1.767-2.14
		C297.792,48.098,298.01,47.157,298.01,46.124z M305.945,19.464v11.841h-7.439V0.678h7.439v12.214h8.68v6.572H305.945z"/>
</g>
</svg>
