<?xml version="1.0" encoding="utf-8"?>
<!-- Generator: Adobe Illustrator 16.0.0, SVG Export Plug-In . SVG Version: 6.00 Build 0)  -->
<!DOCTYPE svg PUBLIC "-//W3C//DTD SVG 1.1//EN" "http://www.w3.org/Graphics/SVG/1.1/DTD/svg11.dtd">
<svg version="1.1" id="레이어_1" xmlns="http://www.w3.org/2000/svg" xmlns:xlink="http://www.w3.org/1999/xlink" x="0px"
	 y="0px" width="350px" height="60px" viewBox="0 0 350 60" enable-background="new 0 0 350 60" xml:space="preserve">
<path fill="#FFFFFF" d="M59.9,29.138v-3.2c2.9-0.5,5.4-1.6,7.5-3.2
	c3.1-2.3,4.7-5.4,4.7-9.1c0-3.8-1.5-6.9-4.6-9.2s-7.1-3.5-11.9-3.5c-4.7,0-8.6,1.2-11.7,3.5s-4.6,5.4-4.6,9.2c0,3.7,1.5,6.7,4.6,9.1
	c2.2,1.6,4.8,2.7,7.8,3.2v3.2H28.3v7.399h55.1v-7.399H59.9z M50,17.438c-1.6-0.9-2.4-2.2-2.4-3.9c0-1.7,0.8-3,2.4-4s3.5-1.5,5.6-1.5
	c2.3,0,4.2,0.5,5.8,1.5s2.4,2.3,2.4,4c0,1.7-0.7,3-2.4,3.9c-1.6,1-3.5,1.5-5.8,1.5C53.5,18.938,51.6,18.438,50,17.438"/>
<polygon fill="#FFFFFF" points="46.5,39.938 38.2,39.938 38.2,57.838 75.4,57.838 
	75.4,50.438 46.5,50.438 "/>
<path fill="#FFFFFF" d="M99.9,34.338c7.2,0,14.7-0.699,22.7-2l0.7,7.398
	c-8.2,1.4-18.8,2-31.7,2V5.537h8.4L99.9,34.338z"/>
<polygon fill="#FFFFFF" points="133.3,29.337 133.3,59.438 125,59.438 125,1.138 
	133.3,1.138 133.3,21.837 142.3,21.837 142.3,29.337 "/>
<path fill="#FFFFFF" d="M158.1,37.438c6.7,0,14.2-0.699,22.6-2l0.7,7.4
	c-8.601,1.398-19.101,2-31.601,2v-23.7h18.3v-7.6h-18.3v-7.4H176.4v22.5h-18.3V37.438z"/>
<polygon fill="#FFFFFF" points="192.199,29.337 192.199,59.438 183.9,59.438 183.9,1.138 
	192.199,1.138 192.199,21.837 201.199,21.837 201.199,29.337 "/>
<path fill="#FFFFFF" d="M236.5,42.736c-6-4.5-10-8.898-12.3-13.199
	c-2.2,4.3-6.302,8.9-12.302,13.8l-5.6-5.5c5.7-4.5,9.4-8.8,11-12.8c1.6-3.8,2.4-7.4,2.5-10.9h-9.9v-7.4H239v7.4h-10.5
	c0.1,3.5,0.898,7.2,2.398,10.9c1.701,4,5.4,8,11.102,12.199L236.5,42.736z"/>
<rect x="245.3" y="1.138" fill="#FFFFFF" width="8.4" height="58.299"/>
<polygon fill="#FFFFFF" points="311.1,34.338 295.7,34.338 295.7,45.139 318.5,45.139 
	318.5,52.639 264.398,52.639 264.398,45.139 287.3,45.139 287.3,34.338 271.898,34.338 271.898,5.538 310.5,5.538 310.5,12.938 
	280.3,12.938 280.3,26.837 311.1,26.837 "/>
</svg>
