<?xml version="1.0" encoding="utf-8"?>
<!-- Generator: Adobe Illustrator 16.0.0, SVG Export Plug-In . SVG Version: 6.00 Build 0)  -->
<!DOCTYPE svg PUBLIC "-//W3C//DTD SVG 1.1//EN" "http://www.w3.org/Graphics/SVG/1.1/DTD/svg11.dtd">
<svg version="1.1" id="레이어_1" xmlns="http://www.w3.org/2000/svg" xmlns:xlink="http://www.w3.org/1999/xlink" x="0px"
	 y="0px" width="7680px" height="2100px" viewBox="0 0 7680 2100" enable-background="new 0 0 7680 2100" xml:space="preserve">
<path fill="#FFFFFF" stroke="#000000" stroke-miterlimit="10" d="M2101.728,1947.069c-495.637,0-916.016-38.125-1215.689-110.252
	c-152.095-36.608-272.202-81.691-356.982-133.998c-87.457-53.958-137.3-115.641-148.143-183.333
	c-9.191-57.378,9.838-118.514,56.559-181.712c71.18-96.284,205.313-196.908,398.672-299.077
	c189.782-100.278,431.15-199.219,717.401-294.076c288.771-95.691,614.532-184.326,968.234-263.442
	c366.003-81.867,753.303-151.552,1151.143-207.119c637.766-89.079,1266.197-136.164,1817.353-136.164
	c495.637,0,916.015,38.125,1215.687,110.253c152.095,36.607,272.2,81.69,356.981,133.997
	c87.456,53.958,137.298,115.64,148.141,183.333c9.191,57.377-9.838,118.513-56.558,181.711
	c-71.18,96.285-205.313,196.909-398.671,299.078c-189.782,100.279-431.15,199.22-717.401,294.076
	c-288.771,95.691-614.532,184.326-968.234,263.441c-366.004,81.867-753.304,151.553-1151.144,207.12
	C3281.312,1899.985,2652.883,1947.069,2101.728,1947.069z M5490.275,138.597c-551.125,0-1179.522,47.083-1817.257,136.156
	c-779.52,108.878-1532.152,275.983-2119.252,470.533c-286.214,94.844-527.546,193.77-717.294,294.03
	c-193.266,102.12-327.319,202.674-398.436,298.875c-46.604,63.041-65.59,124-56.431,181.185
	c10.81,67.483,60.543,129.002,147.819,182.849c84.717,52.268,204.755,97.322,356.778,133.912
	c299.62,72.116,719.942,110.233,1215.525,110.233c551.124,0,1179.52-47.082,1817.252-136.155
	c779.521-108.879,1532.153-275.984,2119.255-470.534c286.214-94.844,527.546-193.769,717.293-294.029
	c193.266-102.12,327.319-202.676,398.436-298.875c46.604-63.041,65.59-124,56.431-181.185
	c-10.81-67.483-60.543-129.002-147.818-182.848c-84.718-52.268-204.754-97.323-356.776-133.913
	C6406.179,176.715,5985.857,138.597,5490.275,138.597z"/>
</svg>
